M48
; DRILL file {KiCad 5.1.9+dfsg1-1} date Wed Dec  1 21:23:16 2021
; FORMAT={-:-/ absolute / inch / decimal}
; #@! TF.CreationDate,2021-12-01T21:23:16+01:00
; #@! TF.GenerationSoftware,Kicad,Pcbnew,5.1.9+dfsg1-1
; #@! TF.FileFunction,Plated,1,2,PTH
FMAT,2
INCH
T1C0.0118
T2C0.0157
T3C0.0315
T4C0.0394
T5C0.0433
T6C0.0469
%
G90
G05
T1
X3.2957Y-3.2055
X3.2957Y-3.2685
X3.2957Y-3.3315
X3.2957Y-3.3945
X3.3843Y-3.2055
X3.3843Y-3.2685
X3.3843Y-3.3315
X3.3843Y-3.3945
X3.9757Y-3.2055
X3.9757Y-3.2685
X3.9757Y-3.3315
X3.9757Y-3.3945
X4.0643Y-3.2055
X4.0643Y-3.2685
X4.0643Y-3.3315
X4.0643Y-3.3945
X4.6357Y-3.2055
X4.6357Y-3.2685
X4.6357Y-3.3315
X4.6357Y-3.3945
X4.7243Y-3.2055
X4.7243Y-3.2685
X4.7243Y-3.3315
X4.7243Y-3.3945
T2
X3.011Y-3.429
X3.16Y-2.98
X3.18Y-3.54
X3.2624Y-3.7576
X3.3Y-3.14
X3.42Y-2.92
X3.42Y-3.0
X3.5Y-2.42
X3.54Y-3.52
X3.62Y-3.46
X3.64Y-2.52
X3.66Y-3.42
X3.7224Y-3.7576
X3.7673Y-2.5127
X3.78Y-2.42
X3.7938Y-2.9938
X3.84Y-2.76
X3.84Y-2.9885
X3.8472Y-2.6328
X3.86Y-3.5574
X3.8928Y-2.7872
X3.9Y-2.64
X3.96Y-2.76
X3.98Y-3.14
X4.02Y-2.58
X4.02Y-2.72
X4.04Y-2.64
X4.04Y-2.78
X4.2Y-2.92
X4.22Y-2.88
X4.22Y-3.52
X4.3Y-2.68
X4.3Y-3.42
X4.32Y-3.38
X4.34Y-2.64
X4.3824Y-3.7576
X4.4Y-2.86
X4.5Y-3.0
X4.52Y-3.56
X4.64Y-3.14
X4.68Y-2.8481
X4.68Y-2.5
X4.88Y-3.5
X4.96Y-3.48
X4.9715Y-3.4285
X5.11Y-3.49
T3
X3.44Y-2.58
X3.5384Y-2.58
X4.2Y-2.98
X4.2984Y-2.98
T4
X3.5Y-2.82
X3.5Y-2.92
X3.5Y-3.02
X3.6Y-2.82
X3.6Y-2.92
X3.6Y-3.02
T5
X4.26Y-2.5241
X4.26Y-2.78
X4.4372Y-2.5241
X4.4372Y-2.78
T6
X3.24Y-3.66
X3.34Y-3.66
X3.44Y-3.66
X3.54Y-3.66
X3.78Y-2.3
X3.88Y-2.3
X3.92Y-3.66
X3.98Y-2.3
X4.02Y-3.66
X4.08Y-2.3
X4.12Y-3.66
X4.22Y-3.66
X4.26Y-2.3
X4.36Y-2.3
X4.52Y-2.3
X4.58Y-3.66
X4.62Y-2.3
X4.68Y-3.66
X4.78Y-2.3
X4.78Y-3.66
X4.88Y-2.3
X4.88Y-3.66
X5.02Y-2.54
X5.02Y-2.64
X5.02Y-2.8
X5.02Y-2.9
X5.02Y-3.06
X5.02Y-3.16
T4
G00X3.0238Y-2.5406
M15
G01X3.0238Y-2.6194
M16
G05
G00X3.1025Y-2.765
M15
G01X3.1813Y-2.765
M16
G05
G00X3.26Y-2.5406
M15
G01X3.26Y-2.6194
M16
G05
T0
M30
