%TF.GenerationSoftware,KiCad,Pcbnew,8.0.9*%
%TF.CreationDate,2025-03-10T19:15:03+01:00*%
%TF.ProjectId,ld06_board,6c643036-5f62-46f6-9172-642e6b696361,rev?*%
%TF.SameCoordinates,Original*%
%TF.FileFunction,Legend,Top*%
%TF.FilePolarity,Positive*%
%FSLAX46Y46*%
G04 Gerber Fmt 4.6, Leading zero omitted, Abs format (unit mm)*
G04 Created by KiCad (PCBNEW 8.0.9) date 2025-03-10 19:15:03*
%MOMM*%
%LPD*%
G01*
G04 APERTURE LIST*
G04 Aperture macros list*
%AMRoundRect*
0 Rectangle with rounded corners*
0 $1 Rounding radius*
0 $2 $3 $4 $5 $6 $7 $8 $9 X,Y pos of 4 corners*
0 Add a 4 corners polygon primitive as box body*
4,1,4,$2,$3,$4,$5,$6,$7,$8,$9,$2,$3,0*
0 Add four circle primitives for the rounded corners*
1,1,$1+$1,$2,$3*
1,1,$1+$1,$4,$5*
1,1,$1+$1,$6,$7*
1,1,$1+$1,$8,$9*
0 Add four rect primitives between the rounded corners*
20,1,$1+$1,$2,$3,$4,$5,0*
20,1,$1+$1,$4,$5,$6,$7,0*
20,1,$1+$1,$6,$7,$8,$9,0*
20,1,$1+$1,$8,$9,$2,$3,0*%
G04 Aperture macros list end*
%ADD10C,0.100000*%
%ADD11C,0.150000*%
%ADD12C,0.120000*%
%ADD13C,0.127000*%
%ADD14C,5.600000*%
%ADD15C,1.600000*%
%ADD16O,1.600000X1.600000*%
%ADD17C,1.524000*%
%ADD18RoundRect,0.250000X-0.620000X-0.845000X0.620000X-0.845000X0.620000X0.845000X-0.620000X0.845000X0*%
%ADD19O,1.740000X2.190000*%
%ADD20C,1.400000*%
%ADD21O,1.400000X1.400000*%
%ADD22RoundRect,0.250000X-0.845000X0.620000X-0.845000X-0.620000X0.845000X-0.620000X0.845000X0.620000X0*%
%ADD23O,2.190000X1.740000*%
%ADD24R,2.000000X2.000000*%
%ADD25O,2.000000X2.000000*%
%ADD26R,1.600000X1.600000*%
%ADD27C,2.109000*%
%ADD28R,2.000000X1.905000*%
%ADD29O,2.000000X1.905000*%
%ADD30RoundRect,0.250000X0.845000X-0.620000X0.845000X0.620000X-0.845000X0.620000X-0.845000X-0.620000X0*%
%ADD31R,3.500000X3.500000*%
%ADD32RoundRect,0.750000X-0.750000X-1.000000X0.750000X-1.000000X0.750000X1.000000X-0.750000X1.000000X0*%
%ADD33RoundRect,0.875000X-0.875000X-0.875000X0.875000X-0.875000X0.875000X0.875000X-0.875000X0.875000X0*%
G04 APERTURE END LIST*
D10*
X64500000Y-29000000D02*
X64500000Y-24000000D01*
X37000000Y-65000000D02*
X50500000Y-65000000D01*
X50500000Y-50000000D02*
X37000000Y-50000000D01*
X60000000Y-24000000D02*
X60000000Y-29000000D01*
X47000000Y-69000000D02*
X25500000Y-69000000D01*
X37000000Y-50000000D02*
X37000000Y-65000000D01*
X47000000Y-49000000D02*
X47000000Y-69000000D01*
X25500000Y-49000000D02*
X47000000Y-49000000D01*
X60000000Y-29000000D02*
X64500000Y-29000000D01*
X64500000Y-24000000D02*
X60000000Y-24000000D01*
X50500000Y-65000000D02*
X50500000Y-49500000D01*
X25500000Y-69000000D02*
X25500000Y-49000000D01*
X68827693Y-51420038D02*
X68732455Y-51372419D01*
X68732455Y-51372419D02*
X68589598Y-51372419D01*
X68589598Y-51372419D02*
X68446741Y-51420038D01*
X68446741Y-51420038D02*
X68351503Y-51515276D01*
X68351503Y-51515276D02*
X68303884Y-51610514D01*
X68303884Y-51610514D02*
X68256265Y-51800990D01*
X68256265Y-51800990D02*
X68256265Y-51943847D01*
X68256265Y-51943847D02*
X68303884Y-52134323D01*
X68303884Y-52134323D02*
X68351503Y-52229561D01*
X68351503Y-52229561D02*
X68446741Y-52324800D01*
X68446741Y-52324800D02*
X68589598Y-52372419D01*
X68589598Y-52372419D02*
X68684836Y-52372419D01*
X68684836Y-52372419D02*
X68827693Y-52324800D01*
X68827693Y-52324800D02*
X68875312Y-52277180D01*
X68875312Y-52277180D02*
X68875312Y-51943847D01*
X68875312Y-51943847D02*
X68684836Y-51943847D01*
X69303884Y-52372419D02*
X69303884Y-51372419D01*
X69303884Y-51372419D02*
X69684836Y-51372419D01*
X69684836Y-51372419D02*
X69780074Y-51420038D01*
X69780074Y-51420038D02*
X69827693Y-51467657D01*
X69827693Y-51467657D02*
X69875312Y-51562895D01*
X69875312Y-51562895D02*
X69875312Y-51705752D01*
X69875312Y-51705752D02*
X69827693Y-51800990D01*
X69827693Y-51800990D02*
X69780074Y-51848609D01*
X69780074Y-51848609D02*
X69684836Y-51896228D01*
X69684836Y-51896228D02*
X69303884Y-51896228D01*
X70303884Y-52372419D02*
X70303884Y-51372419D01*
X70970550Y-51372419D02*
X71161026Y-51372419D01*
X71161026Y-51372419D02*
X71256264Y-51420038D01*
X71256264Y-51420038D02*
X71351502Y-51515276D01*
X71351502Y-51515276D02*
X71399121Y-51705752D01*
X71399121Y-51705752D02*
X71399121Y-52039085D01*
X71399121Y-52039085D02*
X71351502Y-52229561D01*
X71351502Y-52229561D02*
X71256264Y-52324800D01*
X71256264Y-52324800D02*
X71161026Y-52372419D01*
X71161026Y-52372419D02*
X70970550Y-52372419D01*
X70970550Y-52372419D02*
X70875312Y-52324800D01*
X70875312Y-52324800D02*
X70780074Y-52229561D01*
X70780074Y-52229561D02*
X70732455Y-52039085D01*
X70732455Y-52039085D02*
X70732455Y-51705752D01*
X70732455Y-51705752D02*
X70780074Y-51515276D01*
X70780074Y-51515276D02*
X70875312Y-51420038D01*
X70875312Y-51420038D02*
X70970550Y-51372419D01*
X72351502Y-52372419D02*
X71780074Y-52372419D01*
X72065788Y-52372419D02*
X72065788Y-51372419D01*
X72065788Y-51372419D02*
X71970550Y-51515276D01*
X71970550Y-51515276D02*
X71875312Y-51610514D01*
X71875312Y-51610514D02*
X71780074Y-51658133D01*
X14780074Y-42872419D02*
X14303884Y-42872419D01*
X14303884Y-42872419D02*
X14256265Y-43348609D01*
X14256265Y-43348609D02*
X14303884Y-43300990D01*
X14303884Y-43300990D02*
X14399122Y-43253371D01*
X14399122Y-43253371D02*
X14637217Y-43253371D01*
X14637217Y-43253371D02*
X14732455Y-43300990D01*
X14732455Y-43300990D02*
X14780074Y-43348609D01*
X14780074Y-43348609D02*
X14827693Y-43443847D01*
X14827693Y-43443847D02*
X14827693Y-43681942D01*
X14827693Y-43681942D02*
X14780074Y-43777180D01*
X14780074Y-43777180D02*
X14732455Y-43824800D01*
X14732455Y-43824800D02*
X14637217Y-43872419D01*
X14637217Y-43872419D02*
X14399122Y-43872419D01*
X14399122Y-43872419D02*
X14303884Y-43824800D01*
X14303884Y-43824800D02*
X14256265Y-43777180D01*
X15113408Y-42872419D02*
X15446741Y-43872419D01*
X15446741Y-43872419D02*
X15780074Y-42872419D01*
X22827693Y-42920038D02*
X22732455Y-42872419D01*
X22732455Y-42872419D02*
X22589598Y-42872419D01*
X22589598Y-42872419D02*
X22446741Y-42920038D01*
X22446741Y-42920038D02*
X22351503Y-43015276D01*
X22351503Y-43015276D02*
X22303884Y-43110514D01*
X22303884Y-43110514D02*
X22256265Y-43300990D01*
X22256265Y-43300990D02*
X22256265Y-43443847D01*
X22256265Y-43443847D02*
X22303884Y-43634323D01*
X22303884Y-43634323D02*
X22351503Y-43729561D01*
X22351503Y-43729561D02*
X22446741Y-43824800D01*
X22446741Y-43824800D02*
X22589598Y-43872419D01*
X22589598Y-43872419D02*
X22684836Y-43872419D01*
X22684836Y-43872419D02*
X22827693Y-43824800D01*
X22827693Y-43824800D02*
X22875312Y-43777180D01*
X22875312Y-43777180D02*
X22875312Y-43443847D01*
X22875312Y-43443847D02*
X22684836Y-43443847D01*
X23303884Y-43872419D02*
X23303884Y-42872419D01*
X23303884Y-42872419D02*
X23875312Y-43872419D01*
X23875312Y-43872419D02*
X23875312Y-42872419D01*
X24351503Y-43872419D02*
X24351503Y-42872419D01*
X24351503Y-42872419D02*
X24589598Y-42872419D01*
X24589598Y-42872419D02*
X24732455Y-42920038D01*
X24732455Y-42920038D02*
X24827693Y-43015276D01*
X24827693Y-43015276D02*
X24875312Y-43110514D01*
X24875312Y-43110514D02*
X24922931Y-43300990D01*
X24922931Y-43300990D02*
X24922931Y-43443847D01*
X24922931Y-43443847D02*
X24875312Y-43634323D01*
X24875312Y-43634323D02*
X24827693Y-43729561D01*
X24827693Y-43729561D02*
X24732455Y-43824800D01*
X24732455Y-43824800D02*
X24589598Y-43872419D01*
X24589598Y-43872419D02*
X24351503Y-43872419D01*
X19256265Y-43824800D02*
X19399122Y-43872419D01*
X19399122Y-43872419D02*
X19637217Y-43872419D01*
X19637217Y-43872419D02*
X19732455Y-43824800D01*
X19732455Y-43824800D02*
X19780074Y-43777180D01*
X19780074Y-43777180D02*
X19827693Y-43681942D01*
X19827693Y-43681942D02*
X19827693Y-43586704D01*
X19827693Y-43586704D02*
X19780074Y-43491466D01*
X19780074Y-43491466D02*
X19732455Y-43443847D01*
X19732455Y-43443847D02*
X19637217Y-43396228D01*
X19637217Y-43396228D02*
X19446741Y-43348609D01*
X19446741Y-43348609D02*
X19351503Y-43300990D01*
X19351503Y-43300990D02*
X19303884Y-43253371D01*
X19303884Y-43253371D02*
X19256265Y-43158133D01*
X19256265Y-43158133D02*
X19256265Y-43062895D01*
X19256265Y-43062895D02*
X19303884Y-42967657D01*
X19303884Y-42967657D02*
X19351503Y-42920038D01*
X19351503Y-42920038D02*
X19446741Y-42872419D01*
X19446741Y-42872419D02*
X19684836Y-42872419D01*
X19684836Y-42872419D02*
X19827693Y-42920038D01*
X20827693Y-43777180D02*
X20780074Y-43824800D01*
X20780074Y-43824800D02*
X20637217Y-43872419D01*
X20637217Y-43872419D02*
X20541979Y-43872419D01*
X20541979Y-43872419D02*
X20399122Y-43824800D01*
X20399122Y-43824800D02*
X20303884Y-43729561D01*
X20303884Y-43729561D02*
X20256265Y-43634323D01*
X20256265Y-43634323D02*
X20208646Y-43443847D01*
X20208646Y-43443847D02*
X20208646Y-43300990D01*
X20208646Y-43300990D02*
X20256265Y-43110514D01*
X20256265Y-43110514D02*
X20303884Y-43015276D01*
X20303884Y-43015276D02*
X20399122Y-42920038D01*
X20399122Y-42920038D02*
X20541979Y-42872419D01*
X20541979Y-42872419D02*
X20637217Y-42872419D01*
X20637217Y-42872419D02*
X20780074Y-42920038D01*
X20780074Y-42920038D02*
X20827693Y-42967657D01*
X21732455Y-43872419D02*
X21256265Y-43872419D01*
X21256265Y-43872419D02*
X21256265Y-42872419D01*
X59303884Y-20872419D02*
X59303884Y-21681942D01*
X59303884Y-21681942D02*
X59351503Y-21777180D01*
X59351503Y-21777180D02*
X59399122Y-21824800D01*
X59399122Y-21824800D02*
X59494360Y-21872419D01*
X59494360Y-21872419D02*
X59684836Y-21872419D01*
X59684836Y-21872419D02*
X59780074Y-21824800D01*
X59780074Y-21824800D02*
X59827693Y-21777180D01*
X59827693Y-21777180D02*
X59875312Y-21681942D01*
X59875312Y-21681942D02*
X59875312Y-20872419D01*
X60303884Y-21824800D02*
X60446741Y-21872419D01*
X60446741Y-21872419D02*
X60684836Y-21872419D01*
X60684836Y-21872419D02*
X60780074Y-21824800D01*
X60780074Y-21824800D02*
X60827693Y-21777180D01*
X60827693Y-21777180D02*
X60875312Y-21681942D01*
X60875312Y-21681942D02*
X60875312Y-21586704D01*
X60875312Y-21586704D02*
X60827693Y-21491466D01*
X60827693Y-21491466D02*
X60780074Y-21443847D01*
X60780074Y-21443847D02*
X60684836Y-21396228D01*
X60684836Y-21396228D02*
X60494360Y-21348609D01*
X60494360Y-21348609D02*
X60399122Y-21300990D01*
X60399122Y-21300990D02*
X60351503Y-21253371D01*
X60351503Y-21253371D02*
X60303884Y-21158133D01*
X60303884Y-21158133D02*
X60303884Y-21062895D01*
X60303884Y-21062895D02*
X60351503Y-20967657D01*
X60351503Y-20967657D02*
X60399122Y-20920038D01*
X60399122Y-20920038D02*
X60494360Y-20872419D01*
X60494360Y-20872419D02*
X60732455Y-20872419D01*
X60732455Y-20872419D02*
X60875312Y-20920038D01*
X61637217Y-21348609D02*
X61780074Y-21396228D01*
X61780074Y-21396228D02*
X61827693Y-21443847D01*
X61827693Y-21443847D02*
X61875312Y-21539085D01*
X61875312Y-21539085D02*
X61875312Y-21681942D01*
X61875312Y-21681942D02*
X61827693Y-21777180D01*
X61827693Y-21777180D02*
X61780074Y-21824800D01*
X61780074Y-21824800D02*
X61684836Y-21872419D01*
X61684836Y-21872419D02*
X61303884Y-21872419D01*
X61303884Y-21872419D02*
X61303884Y-20872419D01*
X61303884Y-20872419D02*
X61637217Y-20872419D01*
X61637217Y-20872419D02*
X61732455Y-20920038D01*
X61732455Y-20920038D02*
X61780074Y-20967657D01*
X61780074Y-20967657D02*
X61827693Y-21062895D01*
X61827693Y-21062895D02*
X61827693Y-21158133D01*
X61827693Y-21158133D02*
X61780074Y-21253371D01*
X61780074Y-21253371D02*
X61732455Y-21300990D01*
X61732455Y-21300990D02*
X61637217Y-21348609D01*
X61637217Y-21348609D02*
X61303884Y-21348609D01*
X63018170Y-21824800D02*
X63161027Y-21872419D01*
X63161027Y-21872419D02*
X63399122Y-21872419D01*
X63399122Y-21872419D02*
X63494360Y-21824800D01*
X63494360Y-21824800D02*
X63541979Y-21777180D01*
X63541979Y-21777180D02*
X63589598Y-21681942D01*
X63589598Y-21681942D02*
X63589598Y-21586704D01*
X63589598Y-21586704D02*
X63541979Y-21491466D01*
X63541979Y-21491466D02*
X63494360Y-21443847D01*
X63494360Y-21443847D02*
X63399122Y-21396228D01*
X63399122Y-21396228D02*
X63208646Y-21348609D01*
X63208646Y-21348609D02*
X63113408Y-21300990D01*
X63113408Y-21300990D02*
X63065789Y-21253371D01*
X63065789Y-21253371D02*
X63018170Y-21158133D01*
X63018170Y-21158133D02*
X63018170Y-21062895D01*
X63018170Y-21062895D02*
X63065789Y-20967657D01*
X63065789Y-20967657D02*
X63113408Y-20920038D01*
X63113408Y-20920038D02*
X63208646Y-20872419D01*
X63208646Y-20872419D02*
X63446741Y-20872419D01*
X63446741Y-20872419D02*
X63589598Y-20920038D01*
X64018170Y-21872419D02*
X64018170Y-20872419D01*
X64494360Y-21872419D02*
X64494360Y-20872419D01*
X64494360Y-20872419D02*
X64732455Y-20872419D01*
X64732455Y-20872419D02*
X64875312Y-20920038D01*
X64875312Y-20920038D02*
X64970550Y-21015276D01*
X64970550Y-21015276D02*
X65018169Y-21110514D01*
X65018169Y-21110514D02*
X65065788Y-21300990D01*
X65065788Y-21300990D02*
X65065788Y-21443847D01*
X65065788Y-21443847D02*
X65018169Y-21634323D01*
X65018169Y-21634323D02*
X64970550Y-21729561D01*
X64970550Y-21729561D02*
X64875312Y-21824800D01*
X64875312Y-21824800D02*
X64732455Y-21872419D01*
X64732455Y-21872419D02*
X64494360Y-21872419D01*
X65494360Y-21348609D02*
X65827693Y-21348609D01*
X65970550Y-21872419D02*
X65494360Y-21872419D01*
X65494360Y-21872419D02*
X65494360Y-20872419D01*
X65494360Y-20872419D02*
X65970550Y-20872419D01*
X51161027Y-61872419D02*
X51732455Y-61872419D01*
X51446741Y-62872419D02*
X51446741Y-61872419D01*
X51970551Y-61872419D02*
X52637217Y-62872419D01*
X52637217Y-61872419D02*
X51970551Y-62872419D01*
X53732455Y-61824800D02*
X52875313Y-63110514D01*
X54065789Y-62348609D02*
X54399122Y-62348609D01*
X54541979Y-62872419D02*
X54065789Y-62872419D01*
X54065789Y-62872419D02*
X54065789Y-61872419D01*
X54065789Y-61872419D02*
X54541979Y-61872419D01*
X54922932Y-62824800D02*
X55065789Y-62872419D01*
X55065789Y-62872419D02*
X55303884Y-62872419D01*
X55303884Y-62872419D02*
X55399122Y-62824800D01*
X55399122Y-62824800D02*
X55446741Y-62777180D01*
X55446741Y-62777180D02*
X55494360Y-62681942D01*
X55494360Y-62681942D02*
X55494360Y-62586704D01*
X55494360Y-62586704D02*
X55446741Y-62491466D01*
X55446741Y-62491466D02*
X55399122Y-62443847D01*
X55399122Y-62443847D02*
X55303884Y-62396228D01*
X55303884Y-62396228D02*
X55113408Y-62348609D01*
X55113408Y-62348609D02*
X55018170Y-62300990D01*
X55018170Y-62300990D02*
X54970551Y-62253371D01*
X54970551Y-62253371D02*
X54922932Y-62158133D01*
X54922932Y-62158133D02*
X54922932Y-62062895D01*
X54922932Y-62062895D02*
X54970551Y-61967657D01*
X54970551Y-61967657D02*
X55018170Y-61920038D01*
X55018170Y-61920038D02*
X55113408Y-61872419D01*
X55113408Y-61872419D02*
X55351503Y-61872419D01*
X55351503Y-61872419D02*
X55494360Y-61920038D01*
X55922932Y-62872419D02*
X55922932Y-61872419D01*
X55922932Y-61872419D02*
X56303884Y-61872419D01*
X56303884Y-61872419D02*
X56399122Y-61920038D01*
X56399122Y-61920038D02*
X56446741Y-61967657D01*
X56446741Y-61967657D02*
X56494360Y-62062895D01*
X56494360Y-62062895D02*
X56494360Y-62205752D01*
X56494360Y-62205752D02*
X56446741Y-62300990D01*
X56446741Y-62300990D02*
X56399122Y-62348609D01*
X56399122Y-62348609D02*
X56303884Y-62396228D01*
X56303884Y-62396228D02*
X55922932Y-62396228D01*
X70920038Y-49172306D02*
X70872419Y-49267544D01*
X70872419Y-49267544D02*
X70872419Y-49410401D01*
X70872419Y-49410401D02*
X70920038Y-49553258D01*
X70920038Y-49553258D02*
X71015276Y-49648496D01*
X71015276Y-49648496D02*
X71110514Y-49696115D01*
X71110514Y-49696115D02*
X71300990Y-49743734D01*
X71300990Y-49743734D02*
X71443847Y-49743734D01*
X71443847Y-49743734D02*
X71634323Y-49696115D01*
X71634323Y-49696115D02*
X71729561Y-49648496D01*
X71729561Y-49648496D02*
X71824800Y-49553258D01*
X71824800Y-49553258D02*
X71872419Y-49410401D01*
X71872419Y-49410401D02*
X71872419Y-49315163D01*
X71872419Y-49315163D02*
X71824800Y-49172306D01*
X71824800Y-49172306D02*
X71777180Y-49124687D01*
X71777180Y-49124687D02*
X71443847Y-49124687D01*
X71443847Y-49124687D02*
X71443847Y-49315163D01*
X71872419Y-48696115D02*
X70872419Y-48696115D01*
X70872419Y-48696115D02*
X71872419Y-48124687D01*
X71872419Y-48124687D02*
X70872419Y-48124687D01*
X71872419Y-47648496D02*
X70872419Y-47648496D01*
X70872419Y-47648496D02*
X70872419Y-47410401D01*
X70872419Y-47410401D02*
X70920038Y-47267544D01*
X70920038Y-47267544D02*
X71015276Y-47172306D01*
X71015276Y-47172306D02*
X71110514Y-47124687D01*
X71110514Y-47124687D02*
X71300990Y-47077068D01*
X71300990Y-47077068D02*
X71443847Y-47077068D01*
X71443847Y-47077068D02*
X71634323Y-47124687D01*
X71634323Y-47124687D02*
X71729561Y-47172306D01*
X71729561Y-47172306D02*
X71824800Y-47267544D01*
X71824800Y-47267544D02*
X71872419Y-47410401D01*
X71872419Y-47410401D02*
X71872419Y-47648496D01*
X16256265Y-43824800D02*
X16399122Y-43872419D01*
X16399122Y-43872419D02*
X16637217Y-43872419D01*
X16637217Y-43872419D02*
X16732455Y-43824800D01*
X16732455Y-43824800D02*
X16780074Y-43777180D01*
X16780074Y-43777180D02*
X16827693Y-43681942D01*
X16827693Y-43681942D02*
X16827693Y-43586704D01*
X16827693Y-43586704D02*
X16780074Y-43491466D01*
X16780074Y-43491466D02*
X16732455Y-43443847D01*
X16732455Y-43443847D02*
X16637217Y-43396228D01*
X16637217Y-43396228D02*
X16446741Y-43348609D01*
X16446741Y-43348609D02*
X16351503Y-43300990D01*
X16351503Y-43300990D02*
X16303884Y-43253371D01*
X16303884Y-43253371D02*
X16256265Y-43158133D01*
X16256265Y-43158133D02*
X16256265Y-43062895D01*
X16256265Y-43062895D02*
X16303884Y-42967657D01*
X16303884Y-42967657D02*
X16351503Y-42920038D01*
X16351503Y-42920038D02*
X16446741Y-42872419D01*
X16446741Y-42872419D02*
X16684836Y-42872419D01*
X16684836Y-42872419D02*
X16827693Y-42920038D01*
X17256265Y-43872419D02*
X17256265Y-42872419D01*
X17256265Y-42872419D02*
X17494360Y-42872419D01*
X17494360Y-42872419D02*
X17637217Y-42920038D01*
X17637217Y-42920038D02*
X17732455Y-43015276D01*
X17732455Y-43015276D02*
X17780074Y-43110514D01*
X17780074Y-43110514D02*
X17827693Y-43300990D01*
X17827693Y-43300990D02*
X17827693Y-43443847D01*
X17827693Y-43443847D02*
X17780074Y-43634323D01*
X17780074Y-43634323D02*
X17732455Y-43729561D01*
X17732455Y-43729561D02*
X17637217Y-43824800D01*
X17637217Y-43824800D02*
X17494360Y-43872419D01*
X17494360Y-43872419D02*
X17256265Y-43872419D01*
X18208646Y-43586704D02*
X18684836Y-43586704D01*
X18113408Y-43872419D02*
X18446741Y-42872419D01*
X18446741Y-42872419D02*
X18780074Y-43872419D01*
X53827693Y-64420038D02*
X53732455Y-64372419D01*
X53732455Y-64372419D02*
X53589598Y-64372419D01*
X53589598Y-64372419D02*
X53446741Y-64420038D01*
X53446741Y-64420038D02*
X53351503Y-64515276D01*
X53351503Y-64515276D02*
X53303884Y-64610514D01*
X53303884Y-64610514D02*
X53256265Y-64800990D01*
X53256265Y-64800990D02*
X53256265Y-64943847D01*
X53256265Y-64943847D02*
X53303884Y-65134323D01*
X53303884Y-65134323D02*
X53351503Y-65229561D01*
X53351503Y-65229561D02*
X53446741Y-65324800D01*
X53446741Y-65324800D02*
X53589598Y-65372419D01*
X53589598Y-65372419D02*
X53684836Y-65372419D01*
X53684836Y-65372419D02*
X53827693Y-65324800D01*
X53827693Y-65324800D02*
X53875312Y-65277180D01*
X53875312Y-65277180D02*
X53875312Y-64943847D01*
X53875312Y-64943847D02*
X53684836Y-64943847D01*
X54303884Y-65372419D02*
X54303884Y-64372419D01*
X54303884Y-64372419D02*
X54875312Y-65372419D01*
X54875312Y-65372419D02*
X54875312Y-64372419D01*
X55351503Y-65372419D02*
X55351503Y-64372419D01*
X55351503Y-64372419D02*
X55589598Y-64372419D01*
X55589598Y-64372419D02*
X55732455Y-64420038D01*
X55732455Y-64420038D02*
X55827693Y-64515276D01*
X55827693Y-64515276D02*
X55875312Y-64610514D01*
X55875312Y-64610514D02*
X55922931Y-64800990D01*
X55922931Y-64800990D02*
X55922931Y-64943847D01*
X55922931Y-64943847D02*
X55875312Y-65134323D01*
X55875312Y-65134323D02*
X55827693Y-65229561D01*
X55827693Y-65229561D02*
X55732455Y-65324800D01*
X55732455Y-65324800D02*
X55589598Y-65372419D01*
X55589598Y-65372419D02*
X55351503Y-65372419D01*
X68327693Y-65420038D02*
X68232455Y-65372419D01*
X68232455Y-65372419D02*
X68089598Y-65372419D01*
X68089598Y-65372419D02*
X67946741Y-65420038D01*
X67946741Y-65420038D02*
X67851503Y-65515276D01*
X67851503Y-65515276D02*
X67803884Y-65610514D01*
X67803884Y-65610514D02*
X67756265Y-65800990D01*
X67756265Y-65800990D02*
X67756265Y-65943847D01*
X67756265Y-65943847D02*
X67803884Y-66134323D01*
X67803884Y-66134323D02*
X67851503Y-66229561D01*
X67851503Y-66229561D02*
X67946741Y-66324800D01*
X67946741Y-66324800D02*
X68089598Y-66372419D01*
X68089598Y-66372419D02*
X68184836Y-66372419D01*
X68184836Y-66372419D02*
X68327693Y-66324800D01*
X68327693Y-66324800D02*
X68375312Y-66277180D01*
X68375312Y-66277180D02*
X68375312Y-65943847D01*
X68375312Y-65943847D02*
X68184836Y-65943847D01*
X68803884Y-66372419D02*
X68803884Y-65372419D01*
X68803884Y-65372419D02*
X69375312Y-66372419D01*
X69375312Y-66372419D02*
X69375312Y-65372419D01*
X69851503Y-66372419D02*
X69851503Y-65372419D01*
X69851503Y-65372419D02*
X70089598Y-65372419D01*
X70089598Y-65372419D02*
X70232455Y-65420038D01*
X70232455Y-65420038D02*
X70327693Y-65515276D01*
X70327693Y-65515276D02*
X70375312Y-65610514D01*
X70375312Y-65610514D02*
X70422931Y-65800990D01*
X70422931Y-65800990D02*
X70422931Y-65943847D01*
X70422931Y-65943847D02*
X70375312Y-66134323D01*
X70375312Y-66134323D02*
X70327693Y-66229561D01*
X70327693Y-66229561D02*
X70232455Y-66324800D01*
X70232455Y-66324800D02*
X70089598Y-66372419D01*
X70089598Y-66372419D02*
X69851503Y-66372419D01*
X65875312Y-66372419D02*
X65541979Y-65896228D01*
X65303884Y-66372419D02*
X65303884Y-65372419D01*
X65303884Y-65372419D02*
X65684836Y-65372419D01*
X65684836Y-65372419D02*
X65780074Y-65420038D01*
X65780074Y-65420038D02*
X65827693Y-65467657D01*
X65827693Y-65467657D02*
X65875312Y-65562895D01*
X65875312Y-65562895D02*
X65875312Y-65705752D01*
X65875312Y-65705752D02*
X65827693Y-65800990D01*
X65827693Y-65800990D02*
X65780074Y-65848609D01*
X65780074Y-65848609D02*
X65684836Y-65896228D01*
X65684836Y-65896228D02*
X65303884Y-65896228D01*
X66208646Y-65372419D02*
X66875312Y-66372419D01*
X66875312Y-65372419D02*
X66208646Y-66372419D01*
X51875312Y-60872419D02*
X51541979Y-60396228D01*
X51303884Y-60872419D02*
X51303884Y-59872419D01*
X51303884Y-59872419D02*
X51684836Y-59872419D01*
X51684836Y-59872419D02*
X51780074Y-59920038D01*
X51780074Y-59920038D02*
X51827693Y-59967657D01*
X51827693Y-59967657D02*
X51875312Y-60062895D01*
X51875312Y-60062895D02*
X51875312Y-60205752D01*
X51875312Y-60205752D02*
X51827693Y-60300990D01*
X51827693Y-60300990D02*
X51780074Y-60348609D01*
X51780074Y-60348609D02*
X51684836Y-60396228D01*
X51684836Y-60396228D02*
X51303884Y-60396228D01*
X52208646Y-59872419D02*
X52875312Y-60872419D01*
X52875312Y-59872419D02*
X52208646Y-60872419D01*
X53970550Y-59824800D02*
X53113408Y-61110514D01*
X54303884Y-60348609D02*
X54637217Y-60348609D01*
X54780074Y-60872419D02*
X54303884Y-60872419D01*
X54303884Y-60872419D02*
X54303884Y-59872419D01*
X54303884Y-59872419D02*
X54780074Y-59872419D01*
X55161027Y-60824800D02*
X55303884Y-60872419D01*
X55303884Y-60872419D02*
X55541979Y-60872419D01*
X55541979Y-60872419D02*
X55637217Y-60824800D01*
X55637217Y-60824800D02*
X55684836Y-60777180D01*
X55684836Y-60777180D02*
X55732455Y-60681942D01*
X55732455Y-60681942D02*
X55732455Y-60586704D01*
X55732455Y-60586704D02*
X55684836Y-60491466D01*
X55684836Y-60491466D02*
X55637217Y-60443847D01*
X55637217Y-60443847D02*
X55541979Y-60396228D01*
X55541979Y-60396228D02*
X55351503Y-60348609D01*
X55351503Y-60348609D02*
X55256265Y-60300990D01*
X55256265Y-60300990D02*
X55208646Y-60253371D01*
X55208646Y-60253371D02*
X55161027Y-60158133D01*
X55161027Y-60158133D02*
X55161027Y-60062895D01*
X55161027Y-60062895D02*
X55208646Y-59967657D01*
X55208646Y-59967657D02*
X55256265Y-59920038D01*
X55256265Y-59920038D02*
X55351503Y-59872419D01*
X55351503Y-59872419D02*
X55589598Y-59872419D01*
X55589598Y-59872419D02*
X55732455Y-59920038D01*
X56161027Y-60872419D02*
X56161027Y-59872419D01*
X56161027Y-59872419D02*
X56541979Y-59872419D01*
X56541979Y-59872419D02*
X56637217Y-59920038D01*
X56637217Y-59920038D02*
X56684836Y-59967657D01*
X56684836Y-59967657D02*
X56732455Y-60062895D01*
X56732455Y-60062895D02*
X56732455Y-60205752D01*
X56732455Y-60205752D02*
X56684836Y-60300990D01*
X56684836Y-60300990D02*
X56637217Y-60348609D01*
X56637217Y-60348609D02*
X56541979Y-60396228D01*
X56541979Y-60396228D02*
X56161027Y-60396228D01*
X54280074Y-66372419D02*
X53803884Y-66372419D01*
X53803884Y-66372419D02*
X53756265Y-66848609D01*
X53756265Y-66848609D02*
X53803884Y-66800990D01*
X53803884Y-66800990D02*
X53899122Y-66753371D01*
X53899122Y-66753371D02*
X54137217Y-66753371D01*
X54137217Y-66753371D02*
X54232455Y-66800990D01*
X54232455Y-66800990D02*
X54280074Y-66848609D01*
X54280074Y-66848609D02*
X54327693Y-66943847D01*
X54327693Y-66943847D02*
X54327693Y-67181942D01*
X54327693Y-67181942D02*
X54280074Y-67277180D01*
X54280074Y-67277180D02*
X54232455Y-67324800D01*
X54232455Y-67324800D02*
X54137217Y-67372419D01*
X54137217Y-67372419D02*
X53899122Y-67372419D01*
X53899122Y-67372419D02*
X53803884Y-67324800D01*
X53803884Y-67324800D02*
X53756265Y-67277180D01*
X54613408Y-66372419D02*
X54946741Y-67372419D01*
X54946741Y-67372419D02*
X55280074Y-66372419D01*
X14089598Y-30872419D02*
X14089598Y-31586704D01*
X14089598Y-31586704D02*
X14041979Y-31729561D01*
X14041979Y-31729561D02*
X13946741Y-31824800D01*
X13946741Y-31824800D02*
X13803884Y-31872419D01*
X13803884Y-31872419D02*
X13708646Y-31872419D01*
X15041979Y-31872419D02*
X14565789Y-31872419D01*
X14565789Y-31872419D02*
X14565789Y-30872419D01*
X15946741Y-31777180D02*
X15899122Y-31824800D01*
X15899122Y-31824800D02*
X15756265Y-31872419D01*
X15756265Y-31872419D02*
X15661027Y-31872419D01*
X15661027Y-31872419D02*
X15518170Y-31824800D01*
X15518170Y-31824800D02*
X15422932Y-31729561D01*
X15422932Y-31729561D02*
X15375313Y-31634323D01*
X15375313Y-31634323D02*
X15327694Y-31443847D01*
X15327694Y-31443847D02*
X15327694Y-31300990D01*
X15327694Y-31300990D02*
X15375313Y-31110514D01*
X15375313Y-31110514D02*
X15422932Y-31015276D01*
X15422932Y-31015276D02*
X15518170Y-30920038D01*
X15518170Y-30920038D02*
X15661027Y-30872419D01*
X15661027Y-30872419D02*
X15756265Y-30872419D01*
X15756265Y-30872419D02*
X15899122Y-30920038D01*
X15899122Y-30920038D02*
X15946741Y-30967657D01*
X16661027Y-30872419D02*
X16661027Y-31586704D01*
X16661027Y-31586704D02*
X16613408Y-31729561D01*
X16613408Y-31729561D02*
X16518170Y-31824800D01*
X16518170Y-31824800D02*
X16375313Y-31872419D01*
X16375313Y-31872419D02*
X16280075Y-31872419D01*
X17613408Y-31872419D02*
X17137218Y-31872419D01*
X17137218Y-31872419D02*
X17137218Y-30872419D01*
X18518170Y-31777180D02*
X18470551Y-31824800D01*
X18470551Y-31824800D02*
X18327694Y-31872419D01*
X18327694Y-31872419D02*
X18232456Y-31872419D01*
X18232456Y-31872419D02*
X18089599Y-31824800D01*
X18089599Y-31824800D02*
X17994361Y-31729561D01*
X17994361Y-31729561D02*
X17946742Y-31634323D01*
X17946742Y-31634323D02*
X17899123Y-31443847D01*
X17899123Y-31443847D02*
X17899123Y-31300990D01*
X17899123Y-31300990D02*
X17946742Y-31110514D01*
X17946742Y-31110514D02*
X17994361Y-31015276D01*
X17994361Y-31015276D02*
X18089599Y-30920038D01*
X18089599Y-30920038D02*
X18232456Y-30872419D01*
X18232456Y-30872419D02*
X18327694Y-30872419D01*
X18327694Y-30872419D02*
X18470551Y-30920038D01*
X18470551Y-30920038D02*
X18518170Y-30967657D01*
X19232456Y-30872419D02*
X19232456Y-31586704D01*
X19232456Y-31586704D02*
X19184837Y-31729561D01*
X19184837Y-31729561D02*
X19089599Y-31824800D01*
X19089599Y-31824800D02*
X18946742Y-31872419D01*
X18946742Y-31872419D02*
X18851504Y-31872419D01*
X20184837Y-31872419D02*
X19708647Y-31872419D01*
X19708647Y-31872419D02*
X19708647Y-30872419D01*
X21089599Y-31777180D02*
X21041980Y-31824800D01*
X21041980Y-31824800D02*
X20899123Y-31872419D01*
X20899123Y-31872419D02*
X20803885Y-31872419D01*
X20803885Y-31872419D02*
X20661028Y-31824800D01*
X20661028Y-31824800D02*
X20565790Y-31729561D01*
X20565790Y-31729561D02*
X20518171Y-31634323D01*
X20518171Y-31634323D02*
X20470552Y-31443847D01*
X20470552Y-31443847D02*
X20470552Y-31300990D01*
X20470552Y-31300990D02*
X20518171Y-31110514D01*
X20518171Y-31110514D02*
X20565790Y-31015276D01*
X20565790Y-31015276D02*
X20661028Y-30920038D01*
X20661028Y-30920038D02*
X20803885Y-30872419D01*
X20803885Y-30872419D02*
X20899123Y-30872419D01*
X20899123Y-30872419D02*
X21041980Y-30920038D01*
X21041980Y-30920038D02*
X21089599Y-30967657D01*
X21803885Y-30872419D02*
X21803885Y-31586704D01*
X21803885Y-31586704D02*
X21756266Y-31729561D01*
X21756266Y-31729561D02*
X21661028Y-31824800D01*
X21661028Y-31824800D02*
X21518171Y-31872419D01*
X21518171Y-31872419D02*
X21422933Y-31872419D01*
X22756266Y-31872419D02*
X22280076Y-31872419D01*
X22280076Y-31872419D02*
X22280076Y-30872419D01*
X23661028Y-31777180D02*
X23613409Y-31824800D01*
X23613409Y-31824800D02*
X23470552Y-31872419D01*
X23470552Y-31872419D02*
X23375314Y-31872419D01*
X23375314Y-31872419D02*
X23232457Y-31824800D01*
X23232457Y-31824800D02*
X23137219Y-31729561D01*
X23137219Y-31729561D02*
X23089600Y-31634323D01*
X23089600Y-31634323D02*
X23041981Y-31443847D01*
X23041981Y-31443847D02*
X23041981Y-31300990D01*
X23041981Y-31300990D02*
X23089600Y-31110514D01*
X23089600Y-31110514D02*
X23137219Y-31015276D01*
X23137219Y-31015276D02*
X23232457Y-30920038D01*
X23232457Y-30920038D02*
X23375314Y-30872419D01*
X23375314Y-30872419D02*
X23470552Y-30872419D01*
X23470552Y-30872419D02*
X23613409Y-30920038D01*
X23613409Y-30920038D02*
X23661028Y-30967657D01*
X70872419Y-54719925D02*
X70872419Y-55196115D01*
X70872419Y-55196115D02*
X71348609Y-55243734D01*
X71348609Y-55243734D02*
X71300990Y-55196115D01*
X71300990Y-55196115D02*
X71253371Y-55100877D01*
X71253371Y-55100877D02*
X71253371Y-54862782D01*
X71253371Y-54862782D02*
X71300990Y-54767544D01*
X71300990Y-54767544D02*
X71348609Y-54719925D01*
X71348609Y-54719925D02*
X71443847Y-54672306D01*
X71443847Y-54672306D02*
X71681942Y-54672306D01*
X71681942Y-54672306D02*
X71777180Y-54719925D01*
X71777180Y-54719925D02*
X71824800Y-54767544D01*
X71824800Y-54767544D02*
X71872419Y-54862782D01*
X71872419Y-54862782D02*
X71872419Y-55100877D01*
X71872419Y-55100877D02*
X71824800Y-55196115D01*
X71824800Y-55196115D02*
X71777180Y-55243734D01*
X70872419Y-54386591D02*
X71872419Y-54053258D01*
X71872419Y-54053258D02*
X70872419Y-53719925D01*
D11*
X58833333Y-48734819D02*
X58500000Y-48258628D01*
X58261905Y-48734819D02*
X58261905Y-47734819D01*
X58261905Y-47734819D02*
X58642857Y-47734819D01*
X58642857Y-47734819D02*
X58738095Y-47782438D01*
X58738095Y-47782438D02*
X58785714Y-47830057D01*
X58785714Y-47830057D02*
X58833333Y-47925295D01*
X58833333Y-47925295D02*
X58833333Y-48068152D01*
X58833333Y-48068152D02*
X58785714Y-48163390D01*
X58785714Y-48163390D02*
X58738095Y-48211009D01*
X58738095Y-48211009D02*
X58642857Y-48258628D01*
X58642857Y-48258628D02*
X58261905Y-48258628D01*
X59214286Y-47830057D02*
X59261905Y-47782438D01*
X59261905Y-47782438D02*
X59357143Y-47734819D01*
X59357143Y-47734819D02*
X59595238Y-47734819D01*
X59595238Y-47734819D02*
X59690476Y-47782438D01*
X59690476Y-47782438D02*
X59738095Y-47830057D01*
X59738095Y-47830057D02*
X59785714Y-47925295D01*
X59785714Y-47925295D02*
X59785714Y-48020533D01*
X59785714Y-48020533D02*
X59738095Y-48163390D01*
X59738095Y-48163390D02*
X59166667Y-48734819D01*
X59166667Y-48734819D02*
X59785714Y-48734819D01*
D10*
X41238095Y-48957419D02*
X41238095Y-49766942D01*
X41238095Y-49766942D02*
X41285714Y-49862180D01*
X41285714Y-49862180D02*
X41333333Y-49909800D01*
X41333333Y-49909800D02*
X41428571Y-49957419D01*
X41428571Y-49957419D02*
X41619047Y-49957419D01*
X41619047Y-49957419D02*
X41714285Y-49909800D01*
X41714285Y-49909800D02*
X41761904Y-49862180D01*
X41761904Y-49862180D02*
X41809523Y-49766942D01*
X41809523Y-49766942D02*
X41809523Y-48957419D01*
X42809523Y-49957419D02*
X42238095Y-49957419D01*
X42523809Y-49957419D02*
X42523809Y-48957419D01*
X42523809Y-48957419D02*
X42428571Y-49100276D01*
X42428571Y-49100276D02*
X42333333Y-49195514D01*
X42333333Y-49195514D02*
X42238095Y-49243133D01*
X47262419Y-59569925D02*
X47262419Y-60046115D01*
X47262419Y-60046115D02*
X46262419Y-60046115D01*
X46262419Y-59379448D02*
X47262419Y-59046115D01*
X47262419Y-59046115D02*
X46262419Y-58712782D01*
X46262419Y-53791353D02*
X46262419Y-53172306D01*
X46262419Y-53172306D02*
X46643371Y-53505639D01*
X46643371Y-53505639D02*
X46643371Y-53362782D01*
X46643371Y-53362782D02*
X46690990Y-53267544D01*
X46690990Y-53267544D02*
X46738609Y-53219925D01*
X46738609Y-53219925D02*
X46833847Y-53172306D01*
X46833847Y-53172306D02*
X47071942Y-53172306D01*
X47071942Y-53172306D02*
X47167180Y-53219925D01*
X47167180Y-53219925D02*
X47214800Y-53267544D01*
X47214800Y-53267544D02*
X47262419Y-53362782D01*
X47262419Y-53362782D02*
X47262419Y-53648496D01*
X47262419Y-53648496D02*
X47214800Y-53743734D01*
X47214800Y-53743734D02*
X47167180Y-53791353D01*
X46595752Y-50727544D02*
X47262419Y-50727544D01*
X46214800Y-50965639D02*
X46929085Y-51203734D01*
X46929085Y-51203734D02*
X46929085Y-50584687D01*
X46357657Y-62633734D02*
X46310038Y-62586115D01*
X46310038Y-62586115D02*
X46262419Y-62490877D01*
X46262419Y-62490877D02*
X46262419Y-62252782D01*
X46262419Y-62252782D02*
X46310038Y-62157544D01*
X46310038Y-62157544D02*
X46357657Y-62109925D01*
X46357657Y-62109925D02*
X46452895Y-62062306D01*
X46452895Y-62062306D02*
X46548133Y-62062306D01*
X46548133Y-62062306D02*
X46690990Y-62109925D01*
X46690990Y-62109925D02*
X47262419Y-62681353D01*
X47262419Y-62681353D02*
X47262419Y-62062306D01*
X47262419Y-64602306D02*
X47262419Y-65173734D01*
X47262419Y-64888020D02*
X46262419Y-64888020D01*
X46262419Y-64888020D02*
X46405276Y-64983258D01*
X46405276Y-64983258D02*
X46500514Y-65078496D01*
X46500514Y-65078496D02*
X46548133Y-65173734D01*
X36420038Y-56982306D02*
X36372419Y-57077544D01*
X36372419Y-57077544D02*
X36372419Y-57220401D01*
X36372419Y-57220401D02*
X36420038Y-57363258D01*
X36420038Y-57363258D02*
X36515276Y-57458496D01*
X36515276Y-57458496D02*
X36610514Y-57506115D01*
X36610514Y-57506115D02*
X36800990Y-57553734D01*
X36800990Y-57553734D02*
X36943847Y-57553734D01*
X36943847Y-57553734D02*
X37134323Y-57506115D01*
X37134323Y-57506115D02*
X37229561Y-57458496D01*
X37229561Y-57458496D02*
X37324800Y-57363258D01*
X37324800Y-57363258D02*
X37372419Y-57220401D01*
X37372419Y-57220401D02*
X37372419Y-57125163D01*
X37372419Y-57125163D02*
X37324800Y-56982306D01*
X37324800Y-56982306D02*
X37277180Y-56934687D01*
X37277180Y-56934687D02*
X36943847Y-56934687D01*
X36943847Y-56934687D02*
X36943847Y-57125163D01*
X37372419Y-56506115D02*
X36372419Y-56506115D01*
X36372419Y-56506115D02*
X37372419Y-55934687D01*
X37372419Y-55934687D02*
X36372419Y-55934687D01*
X37372419Y-55458496D02*
X36372419Y-55458496D01*
X36372419Y-55458496D02*
X36372419Y-55220401D01*
X36372419Y-55220401D02*
X36420038Y-55077544D01*
X36420038Y-55077544D02*
X36515276Y-54982306D01*
X36515276Y-54982306D02*
X36610514Y-54934687D01*
X36610514Y-54934687D02*
X36800990Y-54887068D01*
X36800990Y-54887068D02*
X36943847Y-54887068D01*
X36943847Y-54887068D02*
X37134323Y-54934687D01*
X37134323Y-54934687D02*
X37229561Y-54982306D01*
X37229561Y-54982306D02*
X37324800Y-55077544D01*
X37324800Y-55077544D02*
X37372419Y-55220401D01*
X37372419Y-55220401D02*
X37372419Y-55458496D01*
X37372419Y-59696115D02*
X36372419Y-59696115D01*
X36848609Y-59696115D02*
X36848609Y-59124687D01*
X37372419Y-59124687D02*
X36372419Y-59124687D01*
X36372419Y-58791353D02*
X37372419Y-58458020D01*
X37372419Y-58458020D02*
X36372419Y-58124687D01*
X46310038Y-56982306D02*
X46262419Y-57077544D01*
X46262419Y-57077544D02*
X46262419Y-57220401D01*
X46262419Y-57220401D02*
X46310038Y-57363258D01*
X46310038Y-57363258D02*
X46405276Y-57458496D01*
X46405276Y-57458496D02*
X46500514Y-57506115D01*
X46500514Y-57506115D02*
X46690990Y-57553734D01*
X46690990Y-57553734D02*
X46833847Y-57553734D01*
X46833847Y-57553734D02*
X47024323Y-57506115D01*
X47024323Y-57506115D02*
X47119561Y-57458496D01*
X47119561Y-57458496D02*
X47214800Y-57363258D01*
X47214800Y-57363258D02*
X47262419Y-57220401D01*
X47262419Y-57220401D02*
X47262419Y-57125163D01*
X47262419Y-57125163D02*
X47214800Y-56982306D01*
X47214800Y-56982306D02*
X47167180Y-56934687D01*
X47167180Y-56934687D02*
X46833847Y-56934687D01*
X46833847Y-56934687D02*
X46833847Y-57125163D01*
X47262419Y-56506115D02*
X46262419Y-56506115D01*
X46262419Y-56506115D02*
X47262419Y-55934687D01*
X47262419Y-55934687D02*
X46262419Y-55934687D01*
X47262419Y-55458496D02*
X46262419Y-55458496D01*
X46262419Y-55458496D02*
X46262419Y-55220401D01*
X46262419Y-55220401D02*
X46310038Y-55077544D01*
X46310038Y-55077544D02*
X46405276Y-54982306D01*
X46405276Y-54982306D02*
X46500514Y-54934687D01*
X46500514Y-54934687D02*
X46690990Y-54887068D01*
X46690990Y-54887068D02*
X46833847Y-54887068D01*
X46833847Y-54887068D02*
X47024323Y-54934687D01*
X47024323Y-54934687D02*
X47119561Y-54982306D01*
X47119561Y-54982306D02*
X47214800Y-55077544D01*
X47214800Y-55077544D02*
X47262419Y-55220401D01*
X47262419Y-55220401D02*
X47262419Y-55458496D01*
D11*
X73285238Y-31311009D02*
X73428095Y-31358628D01*
X73428095Y-31358628D02*
X73475714Y-31406247D01*
X73475714Y-31406247D02*
X73523333Y-31501485D01*
X73523333Y-31501485D02*
X73523333Y-31644342D01*
X73523333Y-31644342D02*
X73475714Y-31739580D01*
X73475714Y-31739580D02*
X73428095Y-31787200D01*
X73428095Y-31787200D02*
X73332857Y-31834819D01*
X73332857Y-31834819D02*
X72951905Y-31834819D01*
X72951905Y-31834819D02*
X72951905Y-30834819D01*
X72951905Y-30834819D02*
X73285238Y-30834819D01*
X73285238Y-30834819D02*
X73380476Y-30882438D01*
X73380476Y-30882438D02*
X73428095Y-30930057D01*
X73428095Y-30930057D02*
X73475714Y-31025295D01*
X73475714Y-31025295D02*
X73475714Y-31120533D01*
X73475714Y-31120533D02*
X73428095Y-31215771D01*
X73428095Y-31215771D02*
X73380476Y-31263390D01*
X73380476Y-31263390D02*
X73285238Y-31311009D01*
X73285238Y-31311009D02*
X72951905Y-31311009D01*
X73809048Y-30834819D02*
X74380476Y-30834819D01*
X74094762Y-31834819D02*
X74094762Y-30834819D01*
X74713810Y-31834819D02*
X74713810Y-30834819D01*
X74713810Y-30834819D02*
X75285238Y-31834819D01*
X75285238Y-31834819D02*
X75285238Y-30834819D01*
X76285238Y-31834819D02*
X75713810Y-31834819D01*
X75999524Y-31834819D02*
X75999524Y-30834819D01*
X75999524Y-30834819D02*
X75904286Y-30977676D01*
X75904286Y-30977676D02*
X75809048Y-31072914D01*
X75809048Y-31072914D02*
X75713810Y-31120533D01*
X76713810Y-31453866D02*
X77475715Y-31453866D01*
X78428095Y-30834819D02*
X77951905Y-30834819D01*
X77951905Y-30834819D02*
X77904286Y-31311009D01*
X77904286Y-31311009D02*
X77951905Y-31263390D01*
X77951905Y-31263390D02*
X78047143Y-31215771D01*
X78047143Y-31215771D02*
X78285238Y-31215771D01*
X78285238Y-31215771D02*
X78380476Y-31263390D01*
X78380476Y-31263390D02*
X78428095Y-31311009D01*
X78428095Y-31311009D02*
X78475714Y-31406247D01*
X78475714Y-31406247D02*
X78475714Y-31644342D01*
X78475714Y-31644342D02*
X78428095Y-31739580D01*
X78428095Y-31739580D02*
X78380476Y-31787200D01*
X78380476Y-31787200D02*
X78285238Y-31834819D01*
X78285238Y-31834819D02*
X78047143Y-31834819D01*
X78047143Y-31834819D02*
X77951905Y-31787200D01*
X77951905Y-31787200D02*
X77904286Y-31739580D01*
X36359580Y-25716666D02*
X36407200Y-25764285D01*
X36407200Y-25764285D02*
X36454819Y-25907142D01*
X36454819Y-25907142D02*
X36454819Y-26002380D01*
X36454819Y-26002380D02*
X36407200Y-26145237D01*
X36407200Y-26145237D02*
X36311961Y-26240475D01*
X36311961Y-26240475D02*
X36216723Y-26288094D01*
X36216723Y-26288094D02*
X36026247Y-26335713D01*
X36026247Y-26335713D02*
X35883390Y-26335713D01*
X35883390Y-26335713D02*
X35692914Y-26288094D01*
X35692914Y-26288094D02*
X35597676Y-26240475D01*
X35597676Y-26240475D02*
X35502438Y-26145237D01*
X35502438Y-26145237D02*
X35454819Y-26002380D01*
X35454819Y-26002380D02*
X35454819Y-25907142D01*
X35454819Y-25907142D02*
X35502438Y-25764285D01*
X35502438Y-25764285D02*
X35550057Y-25716666D01*
X35788152Y-24859523D02*
X36454819Y-24859523D01*
X35407200Y-25097618D02*
X36121485Y-25335713D01*
X36121485Y-25335713D02*
X36121485Y-24716666D01*
X73325238Y-46431009D02*
X73468095Y-46478628D01*
X73468095Y-46478628D02*
X73515714Y-46526247D01*
X73515714Y-46526247D02*
X73563333Y-46621485D01*
X73563333Y-46621485D02*
X73563333Y-46764342D01*
X73563333Y-46764342D02*
X73515714Y-46859580D01*
X73515714Y-46859580D02*
X73468095Y-46907200D01*
X73468095Y-46907200D02*
X73372857Y-46954819D01*
X73372857Y-46954819D02*
X72991905Y-46954819D01*
X72991905Y-46954819D02*
X72991905Y-45954819D01*
X72991905Y-45954819D02*
X73325238Y-45954819D01*
X73325238Y-45954819D02*
X73420476Y-46002438D01*
X73420476Y-46002438D02*
X73468095Y-46050057D01*
X73468095Y-46050057D02*
X73515714Y-46145295D01*
X73515714Y-46145295D02*
X73515714Y-46240533D01*
X73515714Y-46240533D02*
X73468095Y-46335771D01*
X73468095Y-46335771D02*
X73420476Y-46383390D01*
X73420476Y-46383390D02*
X73325238Y-46431009D01*
X73325238Y-46431009D02*
X72991905Y-46431009D01*
X73849048Y-45954819D02*
X74420476Y-45954819D01*
X74134762Y-46954819D02*
X74134762Y-45954819D01*
X74753810Y-46954819D02*
X74753810Y-45954819D01*
X74753810Y-45954819D02*
X75325238Y-46954819D01*
X75325238Y-46954819D02*
X75325238Y-45954819D01*
X75753810Y-46050057D02*
X75801429Y-46002438D01*
X75801429Y-46002438D02*
X75896667Y-45954819D01*
X75896667Y-45954819D02*
X76134762Y-45954819D01*
X76134762Y-45954819D02*
X76230000Y-46002438D01*
X76230000Y-46002438D02*
X76277619Y-46050057D01*
X76277619Y-46050057D02*
X76325238Y-46145295D01*
X76325238Y-46145295D02*
X76325238Y-46240533D01*
X76325238Y-46240533D02*
X76277619Y-46383390D01*
X76277619Y-46383390D02*
X75706191Y-46954819D01*
X75706191Y-46954819D02*
X76325238Y-46954819D01*
X76753810Y-46573866D02*
X77515715Y-46573866D01*
X77896667Y-45954819D02*
X78563333Y-45954819D01*
X78563333Y-45954819D02*
X78134762Y-46954819D01*
X66926666Y-58524819D02*
X66926666Y-59239104D01*
X66926666Y-59239104D02*
X66879047Y-59381961D01*
X66879047Y-59381961D02*
X66783809Y-59477200D01*
X66783809Y-59477200D02*
X66640952Y-59524819D01*
X66640952Y-59524819D02*
X66545714Y-59524819D01*
X67831428Y-58524819D02*
X67640952Y-58524819D01*
X67640952Y-58524819D02*
X67545714Y-58572438D01*
X67545714Y-58572438D02*
X67498095Y-58620057D01*
X67498095Y-58620057D02*
X67402857Y-58762914D01*
X67402857Y-58762914D02*
X67355238Y-58953390D01*
X67355238Y-58953390D02*
X67355238Y-59334342D01*
X67355238Y-59334342D02*
X67402857Y-59429580D01*
X67402857Y-59429580D02*
X67450476Y-59477200D01*
X67450476Y-59477200D02*
X67545714Y-59524819D01*
X67545714Y-59524819D02*
X67736190Y-59524819D01*
X67736190Y-59524819D02*
X67831428Y-59477200D01*
X67831428Y-59477200D02*
X67879047Y-59429580D01*
X67879047Y-59429580D02*
X67926666Y-59334342D01*
X67926666Y-59334342D02*
X67926666Y-59096247D01*
X67926666Y-59096247D02*
X67879047Y-59001009D01*
X67879047Y-59001009D02*
X67831428Y-58953390D01*
X67831428Y-58953390D02*
X67736190Y-58905771D01*
X67736190Y-58905771D02*
X67545714Y-58905771D01*
X67545714Y-58905771D02*
X67450476Y-58953390D01*
X67450476Y-58953390D02*
X67402857Y-59001009D01*
X67402857Y-59001009D02*
X67355238Y-59096247D01*
X63574819Y-63603333D02*
X64289104Y-63603333D01*
X64289104Y-63603333D02*
X64431961Y-63650952D01*
X64431961Y-63650952D02*
X64527200Y-63746190D01*
X64527200Y-63746190D02*
X64574819Y-63889047D01*
X64574819Y-63889047D02*
X64574819Y-63984285D01*
X64574819Y-62603333D02*
X64574819Y-63174761D01*
X64574819Y-62889047D02*
X63574819Y-62889047D01*
X63574819Y-62889047D02*
X63717676Y-62984285D01*
X63717676Y-62984285D02*
X63812914Y-63079523D01*
X63812914Y-63079523D02*
X63860533Y-63174761D01*
D10*
X33238095Y-47457419D02*
X33238095Y-48266942D01*
X33238095Y-48266942D02*
X33285714Y-48362180D01*
X33285714Y-48362180D02*
X33333333Y-48409800D01*
X33333333Y-48409800D02*
X33428571Y-48457419D01*
X33428571Y-48457419D02*
X33619047Y-48457419D01*
X33619047Y-48457419D02*
X33714285Y-48409800D01*
X33714285Y-48409800D02*
X33761904Y-48362180D01*
X33761904Y-48362180D02*
X33809523Y-48266942D01*
X33809523Y-48266942D02*
X33809523Y-47457419D01*
X34714285Y-47790752D02*
X34714285Y-48457419D01*
X34476190Y-47409800D02*
X34238095Y-48124085D01*
X34238095Y-48124085D02*
X34857142Y-48124085D01*
X43061234Y-57967700D02*
X42918377Y-57920080D01*
X42918377Y-57920080D02*
X42680282Y-57920080D01*
X42680282Y-57920080D02*
X42585044Y-57967700D01*
X42585044Y-57967700D02*
X42537425Y-58015319D01*
X42537425Y-58015319D02*
X42489806Y-58110557D01*
X42489806Y-58110557D02*
X42489806Y-58205795D01*
X42489806Y-58205795D02*
X42537425Y-58301033D01*
X42537425Y-58301033D02*
X42585044Y-58348652D01*
X42585044Y-58348652D02*
X42680282Y-58396271D01*
X42680282Y-58396271D02*
X42870758Y-58443890D01*
X42870758Y-58443890D02*
X42965996Y-58491509D01*
X42965996Y-58491509D02*
X43013615Y-58539128D01*
X43013615Y-58539128D02*
X43061234Y-58634366D01*
X43061234Y-58634366D02*
X43061234Y-58729604D01*
X43061234Y-58729604D02*
X43013615Y-58824842D01*
X43013615Y-58824842D02*
X42965996Y-58872461D01*
X42965996Y-58872461D02*
X42870758Y-58920080D01*
X42870758Y-58920080D02*
X42632663Y-58920080D01*
X42632663Y-58920080D02*
X42489806Y-58872461D01*
X42061234Y-57920080D02*
X42061234Y-58920080D01*
X42061234Y-58920080D02*
X41823139Y-58920080D01*
X41823139Y-58920080D02*
X41680282Y-58872461D01*
X41680282Y-58872461D02*
X41585044Y-58777223D01*
X41585044Y-58777223D02*
X41537425Y-58681985D01*
X41537425Y-58681985D02*
X41489806Y-58491509D01*
X41489806Y-58491509D02*
X41489806Y-58348652D01*
X41489806Y-58348652D02*
X41537425Y-58158176D01*
X41537425Y-58158176D02*
X41585044Y-58062938D01*
X41585044Y-58062938D02*
X41680282Y-57967700D01*
X41680282Y-57967700D02*
X41823139Y-57920080D01*
X41823139Y-57920080D02*
X42061234Y-57920080D01*
X41108853Y-58205795D02*
X40632663Y-58205795D01*
X41204091Y-57920080D02*
X40870758Y-58920080D01*
X40870758Y-58920080D02*
X40537425Y-57920080D01*
X39680282Y-57920080D02*
X40251710Y-57920080D01*
X39965996Y-57920080D02*
X39965996Y-58920080D01*
X39965996Y-58920080D02*
X40061234Y-58777223D01*
X40061234Y-58777223D02*
X40156472Y-58681985D01*
X40156472Y-58681985D02*
X40251710Y-58634366D01*
X43108853Y-51300080D02*
X42489806Y-51300080D01*
X42489806Y-51300080D02*
X42823139Y-50919128D01*
X42823139Y-50919128D02*
X42680282Y-50919128D01*
X42680282Y-50919128D02*
X42585044Y-50871509D01*
X42585044Y-50871509D02*
X42537425Y-50823890D01*
X42537425Y-50823890D02*
X42489806Y-50728652D01*
X42489806Y-50728652D02*
X42489806Y-50490557D01*
X42489806Y-50490557D02*
X42537425Y-50395319D01*
X42537425Y-50395319D02*
X42585044Y-50347700D01*
X42585044Y-50347700D02*
X42680282Y-50300080D01*
X42680282Y-50300080D02*
X42965996Y-50300080D01*
X42965996Y-50300080D02*
X43061234Y-50347700D01*
X43061234Y-50347700D02*
X43108853Y-50395319D01*
X42204091Y-51300080D02*
X41870758Y-50300080D01*
X41870758Y-50300080D02*
X41537425Y-51300080D01*
X41299329Y-51300080D02*
X40680282Y-51300080D01*
X40680282Y-51300080D02*
X41013615Y-50919128D01*
X41013615Y-50919128D02*
X40870758Y-50919128D01*
X40870758Y-50919128D02*
X40775520Y-50871509D01*
X40775520Y-50871509D02*
X40727901Y-50823890D01*
X40727901Y-50823890D02*
X40680282Y-50728652D01*
X40680282Y-50728652D02*
X40680282Y-50490557D01*
X40680282Y-50490557D02*
X40727901Y-50395319D01*
X40727901Y-50395319D02*
X40775520Y-50347700D01*
X40775520Y-50347700D02*
X40870758Y-50300080D01*
X40870758Y-50300080D02*
X41156472Y-50300080D01*
X41156472Y-50300080D02*
X41251710Y-50347700D01*
X41251710Y-50347700D02*
X41299329Y-50395319D01*
X43061234Y-60507700D02*
X42918377Y-60460080D01*
X42918377Y-60460080D02*
X42680282Y-60460080D01*
X42680282Y-60460080D02*
X42585044Y-60507700D01*
X42585044Y-60507700D02*
X42537425Y-60555319D01*
X42537425Y-60555319D02*
X42489806Y-60650557D01*
X42489806Y-60650557D02*
X42489806Y-60745795D01*
X42489806Y-60745795D02*
X42537425Y-60841033D01*
X42537425Y-60841033D02*
X42585044Y-60888652D01*
X42585044Y-60888652D02*
X42680282Y-60936271D01*
X42680282Y-60936271D02*
X42870758Y-60983890D01*
X42870758Y-60983890D02*
X42965996Y-61031509D01*
X42965996Y-61031509D02*
X43013615Y-61079128D01*
X43013615Y-61079128D02*
X43061234Y-61174366D01*
X43061234Y-61174366D02*
X43061234Y-61269604D01*
X43061234Y-61269604D02*
X43013615Y-61364842D01*
X43013615Y-61364842D02*
X42965996Y-61412461D01*
X42965996Y-61412461D02*
X42870758Y-61460080D01*
X42870758Y-61460080D02*
X42632663Y-61460080D01*
X42632663Y-61460080D02*
X42489806Y-61412461D01*
X41489806Y-60555319D02*
X41537425Y-60507700D01*
X41537425Y-60507700D02*
X41680282Y-60460080D01*
X41680282Y-60460080D02*
X41775520Y-60460080D01*
X41775520Y-60460080D02*
X41918377Y-60507700D01*
X41918377Y-60507700D02*
X42013615Y-60602938D01*
X42013615Y-60602938D02*
X42061234Y-60698176D01*
X42061234Y-60698176D02*
X42108853Y-60888652D01*
X42108853Y-60888652D02*
X42108853Y-61031509D01*
X42108853Y-61031509D02*
X42061234Y-61221985D01*
X42061234Y-61221985D02*
X42013615Y-61317223D01*
X42013615Y-61317223D02*
X41918377Y-61412461D01*
X41918377Y-61412461D02*
X41775520Y-61460080D01*
X41775520Y-61460080D02*
X41680282Y-61460080D01*
X41680282Y-61460080D02*
X41537425Y-61412461D01*
X41537425Y-61412461D02*
X41489806Y-61364842D01*
X40585044Y-60460080D02*
X41061234Y-60460080D01*
X41061234Y-60460080D02*
X41061234Y-61460080D01*
X40299329Y-61364842D02*
X40251710Y-61412461D01*
X40251710Y-61412461D02*
X40156472Y-61460080D01*
X40156472Y-61460080D02*
X39918377Y-61460080D01*
X39918377Y-61460080D02*
X39823139Y-61412461D01*
X39823139Y-61412461D02*
X39775520Y-61364842D01*
X39775520Y-61364842D02*
X39727901Y-61269604D01*
X39727901Y-61269604D02*
X39727901Y-61174366D01*
X39727901Y-61174366D02*
X39775520Y-61031509D01*
X39775520Y-61031509D02*
X40346948Y-60460080D01*
X40346948Y-60460080D02*
X39727901Y-60460080D01*
X43061234Y-63047700D02*
X42918377Y-63000080D01*
X42918377Y-63000080D02*
X42680282Y-63000080D01*
X42680282Y-63000080D02*
X42585044Y-63047700D01*
X42585044Y-63047700D02*
X42537425Y-63095319D01*
X42537425Y-63095319D02*
X42489806Y-63190557D01*
X42489806Y-63190557D02*
X42489806Y-63285795D01*
X42489806Y-63285795D02*
X42537425Y-63381033D01*
X42537425Y-63381033D02*
X42585044Y-63428652D01*
X42585044Y-63428652D02*
X42680282Y-63476271D01*
X42680282Y-63476271D02*
X42870758Y-63523890D01*
X42870758Y-63523890D02*
X42965996Y-63571509D01*
X42965996Y-63571509D02*
X43013615Y-63619128D01*
X43013615Y-63619128D02*
X43061234Y-63714366D01*
X43061234Y-63714366D02*
X43061234Y-63809604D01*
X43061234Y-63809604D02*
X43013615Y-63904842D01*
X43013615Y-63904842D02*
X42965996Y-63952461D01*
X42965996Y-63952461D02*
X42870758Y-64000080D01*
X42870758Y-64000080D02*
X42632663Y-64000080D01*
X42632663Y-64000080D02*
X42489806Y-63952461D01*
X42061234Y-63000080D02*
X42061234Y-64000080D01*
X42061234Y-64000080D02*
X41823139Y-64000080D01*
X41823139Y-64000080D02*
X41680282Y-63952461D01*
X41680282Y-63952461D02*
X41585044Y-63857223D01*
X41585044Y-63857223D02*
X41537425Y-63761985D01*
X41537425Y-63761985D02*
X41489806Y-63571509D01*
X41489806Y-63571509D02*
X41489806Y-63428652D01*
X41489806Y-63428652D02*
X41537425Y-63238176D01*
X41537425Y-63238176D02*
X41585044Y-63142938D01*
X41585044Y-63142938D02*
X41680282Y-63047700D01*
X41680282Y-63047700D02*
X41823139Y-63000080D01*
X41823139Y-63000080D02*
X42061234Y-63000080D01*
X41108853Y-63285795D02*
X40632663Y-63285795D01*
X41204091Y-63000080D02*
X40870758Y-64000080D01*
X40870758Y-64000080D02*
X40537425Y-63000080D01*
X40251710Y-63904842D02*
X40204091Y-63952461D01*
X40204091Y-63952461D02*
X40108853Y-64000080D01*
X40108853Y-64000080D02*
X39870758Y-64000080D01*
X39870758Y-64000080D02*
X39775520Y-63952461D01*
X39775520Y-63952461D02*
X39727901Y-63904842D01*
X39727901Y-63904842D02*
X39680282Y-63809604D01*
X39680282Y-63809604D02*
X39680282Y-63714366D01*
X39680282Y-63714366D02*
X39727901Y-63571509D01*
X39727901Y-63571509D02*
X40299329Y-63000080D01*
X40299329Y-63000080D02*
X39680282Y-63000080D01*
X43156472Y-69080080D02*
X42823139Y-68080080D01*
X42823139Y-68080080D02*
X42489806Y-69080080D01*
X41585044Y-68175319D02*
X41632663Y-68127700D01*
X41632663Y-68127700D02*
X41775520Y-68080080D01*
X41775520Y-68080080D02*
X41870758Y-68080080D01*
X41870758Y-68080080D02*
X42013615Y-68127700D01*
X42013615Y-68127700D02*
X42108853Y-68222938D01*
X42108853Y-68222938D02*
X42156472Y-68318176D01*
X42156472Y-68318176D02*
X42204091Y-68508652D01*
X42204091Y-68508652D02*
X42204091Y-68651509D01*
X42204091Y-68651509D02*
X42156472Y-68841985D01*
X42156472Y-68841985D02*
X42108853Y-68937223D01*
X42108853Y-68937223D02*
X42013615Y-69032461D01*
X42013615Y-69032461D02*
X41870758Y-69080080D01*
X41870758Y-69080080D02*
X41775520Y-69080080D01*
X41775520Y-69080080D02*
X41632663Y-69032461D01*
X41632663Y-69032461D02*
X41585044Y-68984842D01*
X40585044Y-68175319D02*
X40632663Y-68127700D01*
X40632663Y-68127700D02*
X40775520Y-68080080D01*
X40775520Y-68080080D02*
X40870758Y-68080080D01*
X40870758Y-68080080D02*
X41013615Y-68127700D01*
X41013615Y-68127700D02*
X41108853Y-68222938D01*
X41108853Y-68222938D02*
X41156472Y-68318176D01*
X41156472Y-68318176D02*
X41204091Y-68508652D01*
X41204091Y-68508652D02*
X41204091Y-68651509D01*
X41204091Y-68651509D02*
X41156472Y-68841985D01*
X41156472Y-68841985D02*
X41108853Y-68937223D01*
X41108853Y-68937223D02*
X41013615Y-69032461D01*
X41013615Y-69032461D02*
X40870758Y-69080080D01*
X40870758Y-69080080D02*
X40775520Y-69080080D01*
X40775520Y-69080080D02*
X40632663Y-69032461D01*
X40632663Y-69032461D02*
X40585044Y-68984842D01*
X43061234Y-55427700D02*
X42918377Y-55380080D01*
X42918377Y-55380080D02*
X42680282Y-55380080D01*
X42680282Y-55380080D02*
X42585044Y-55427700D01*
X42585044Y-55427700D02*
X42537425Y-55475319D01*
X42537425Y-55475319D02*
X42489806Y-55570557D01*
X42489806Y-55570557D02*
X42489806Y-55665795D01*
X42489806Y-55665795D02*
X42537425Y-55761033D01*
X42537425Y-55761033D02*
X42585044Y-55808652D01*
X42585044Y-55808652D02*
X42680282Y-55856271D01*
X42680282Y-55856271D02*
X42870758Y-55903890D01*
X42870758Y-55903890D02*
X42965996Y-55951509D01*
X42965996Y-55951509D02*
X43013615Y-55999128D01*
X43013615Y-55999128D02*
X43061234Y-56094366D01*
X43061234Y-56094366D02*
X43061234Y-56189604D01*
X43061234Y-56189604D02*
X43013615Y-56284842D01*
X43013615Y-56284842D02*
X42965996Y-56332461D01*
X42965996Y-56332461D02*
X42870758Y-56380080D01*
X42870758Y-56380080D02*
X42632663Y-56380080D01*
X42632663Y-56380080D02*
X42489806Y-56332461D01*
X41489806Y-55475319D02*
X41537425Y-55427700D01*
X41537425Y-55427700D02*
X41680282Y-55380080D01*
X41680282Y-55380080D02*
X41775520Y-55380080D01*
X41775520Y-55380080D02*
X41918377Y-55427700D01*
X41918377Y-55427700D02*
X42013615Y-55522938D01*
X42013615Y-55522938D02*
X42061234Y-55618176D01*
X42061234Y-55618176D02*
X42108853Y-55808652D01*
X42108853Y-55808652D02*
X42108853Y-55951509D01*
X42108853Y-55951509D02*
X42061234Y-56141985D01*
X42061234Y-56141985D02*
X42013615Y-56237223D01*
X42013615Y-56237223D02*
X41918377Y-56332461D01*
X41918377Y-56332461D02*
X41775520Y-56380080D01*
X41775520Y-56380080D02*
X41680282Y-56380080D01*
X41680282Y-56380080D02*
X41537425Y-56332461D01*
X41537425Y-56332461D02*
X41489806Y-56284842D01*
X40585044Y-55380080D02*
X41061234Y-55380080D01*
X41061234Y-55380080D02*
X41061234Y-56380080D01*
X39727901Y-55380080D02*
X40299329Y-55380080D01*
X40013615Y-55380080D02*
X40013615Y-56380080D01*
X40013615Y-56380080D02*
X40108853Y-56237223D01*
X40108853Y-56237223D02*
X40204091Y-56141985D01*
X40204091Y-56141985D02*
X40299329Y-56094366D01*
X42489806Y-66492461D02*
X42585044Y-66540080D01*
X42585044Y-66540080D02*
X42727901Y-66540080D01*
X42727901Y-66540080D02*
X42870758Y-66492461D01*
X42870758Y-66492461D02*
X42965996Y-66397223D01*
X42965996Y-66397223D02*
X43013615Y-66301985D01*
X43013615Y-66301985D02*
X43061234Y-66111509D01*
X43061234Y-66111509D02*
X43061234Y-65968652D01*
X43061234Y-65968652D02*
X43013615Y-65778176D01*
X43013615Y-65778176D02*
X42965996Y-65682938D01*
X42965996Y-65682938D02*
X42870758Y-65587700D01*
X42870758Y-65587700D02*
X42727901Y-65540080D01*
X42727901Y-65540080D02*
X42632663Y-65540080D01*
X42632663Y-65540080D02*
X42489806Y-65587700D01*
X42489806Y-65587700D02*
X42442187Y-65635319D01*
X42442187Y-65635319D02*
X42442187Y-65968652D01*
X42442187Y-65968652D02*
X42632663Y-65968652D01*
X42013615Y-65540080D02*
X42013615Y-66540080D01*
X42013615Y-66540080D02*
X41442187Y-65540080D01*
X41442187Y-65540080D02*
X41442187Y-66540080D01*
X40965996Y-65540080D02*
X40965996Y-66540080D01*
X40965996Y-66540080D02*
X40727901Y-66540080D01*
X40727901Y-66540080D02*
X40585044Y-66492461D01*
X40585044Y-66492461D02*
X40489806Y-66397223D01*
X40489806Y-66397223D02*
X40442187Y-66301985D01*
X40442187Y-66301985D02*
X40394568Y-66111509D01*
X40394568Y-66111509D02*
X40394568Y-65968652D01*
X40394568Y-65968652D02*
X40442187Y-65778176D01*
X40442187Y-65778176D02*
X40489806Y-65682938D01*
X40489806Y-65682938D02*
X40585044Y-65587700D01*
X40585044Y-65587700D02*
X40727901Y-65540080D01*
X40727901Y-65540080D02*
X40965996Y-65540080D01*
X42489806Y-53792461D02*
X42585044Y-53840080D01*
X42585044Y-53840080D02*
X42727901Y-53840080D01*
X42727901Y-53840080D02*
X42870758Y-53792461D01*
X42870758Y-53792461D02*
X42965996Y-53697223D01*
X42965996Y-53697223D02*
X43013615Y-53601985D01*
X43013615Y-53601985D02*
X43061234Y-53411509D01*
X43061234Y-53411509D02*
X43061234Y-53268652D01*
X43061234Y-53268652D02*
X43013615Y-53078176D01*
X43013615Y-53078176D02*
X42965996Y-52982938D01*
X42965996Y-52982938D02*
X42870758Y-52887700D01*
X42870758Y-52887700D02*
X42727901Y-52840080D01*
X42727901Y-52840080D02*
X42632663Y-52840080D01*
X42632663Y-52840080D02*
X42489806Y-52887700D01*
X42489806Y-52887700D02*
X42442187Y-52935319D01*
X42442187Y-52935319D02*
X42442187Y-53268652D01*
X42442187Y-53268652D02*
X42632663Y-53268652D01*
X42013615Y-52840080D02*
X42013615Y-53840080D01*
X42013615Y-53840080D02*
X41442187Y-52840080D01*
X41442187Y-52840080D02*
X41442187Y-53840080D01*
X40965996Y-52840080D02*
X40965996Y-53840080D01*
X40965996Y-53840080D02*
X40727901Y-53840080D01*
X40727901Y-53840080D02*
X40585044Y-53792461D01*
X40585044Y-53792461D02*
X40489806Y-53697223D01*
X40489806Y-53697223D02*
X40442187Y-53601985D01*
X40442187Y-53601985D02*
X40394568Y-53411509D01*
X40394568Y-53411509D02*
X40394568Y-53268652D01*
X40394568Y-53268652D02*
X40442187Y-53078176D01*
X40442187Y-53078176D02*
X40489806Y-52982938D01*
X40489806Y-52982938D02*
X40585044Y-52887700D01*
X40585044Y-52887700D02*
X40727901Y-52840080D01*
X40727901Y-52840080D02*
X40965996Y-52840080D01*
D11*
X52374819Y-29388094D02*
X51374819Y-29388094D01*
X51374819Y-29388094D02*
X51374819Y-29149999D01*
X51374819Y-29149999D02*
X51422438Y-29007142D01*
X51422438Y-29007142D02*
X51517676Y-28911904D01*
X51517676Y-28911904D02*
X51612914Y-28864285D01*
X51612914Y-28864285D02*
X51803390Y-28816666D01*
X51803390Y-28816666D02*
X51946247Y-28816666D01*
X51946247Y-28816666D02*
X52136723Y-28864285D01*
X52136723Y-28864285D02*
X52231961Y-28911904D01*
X52231961Y-28911904D02*
X52327200Y-29007142D01*
X52327200Y-29007142D02*
X52374819Y-29149999D01*
X52374819Y-29149999D02*
X52374819Y-29388094D01*
X52374819Y-27864285D02*
X52374819Y-28435713D01*
X52374819Y-28149999D02*
X51374819Y-28149999D01*
X51374819Y-28149999D02*
X51517676Y-28245237D01*
X51517676Y-28245237D02*
X51612914Y-28340475D01*
X51612914Y-28340475D02*
X51660533Y-28435713D01*
X51954819Y-22561904D02*
X50954819Y-22561904D01*
X51954819Y-21990476D02*
X51383390Y-22419047D01*
X50954819Y-21990476D02*
X51526247Y-22561904D01*
X28359580Y-35864015D02*
X28407200Y-35911634D01*
X28407200Y-35911634D02*
X28454819Y-36054491D01*
X28454819Y-36054491D02*
X28454819Y-36149729D01*
X28454819Y-36149729D02*
X28407200Y-36292586D01*
X28407200Y-36292586D02*
X28311961Y-36387824D01*
X28311961Y-36387824D02*
X28216723Y-36435443D01*
X28216723Y-36435443D02*
X28026247Y-36483062D01*
X28026247Y-36483062D02*
X27883390Y-36483062D01*
X27883390Y-36483062D02*
X27692914Y-36435443D01*
X27692914Y-36435443D02*
X27597676Y-36387824D01*
X27597676Y-36387824D02*
X27502438Y-36292586D01*
X27502438Y-36292586D02*
X27454819Y-36149729D01*
X27454819Y-36149729D02*
X27454819Y-36054491D01*
X27454819Y-36054491D02*
X27502438Y-35911634D01*
X27502438Y-35911634D02*
X27550057Y-35864015D01*
X27454819Y-35530681D02*
X27454819Y-34911634D01*
X27454819Y-34911634D02*
X27835771Y-35244967D01*
X27835771Y-35244967D02*
X27835771Y-35102110D01*
X27835771Y-35102110D02*
X27883390Y-35006872D01*
X27883390Y-35006872D02*
X27931009Y-34959253D01*
X27931009Y-34959253D02*
X28026247Y-34911634D01*
X28026247Y-34911634D02*
X28264342Y-34911634D01*
X28264342Y-34911634D02*
X28359580Y-34959253D01*
X28359580Y-34959253D02*
X28407200Y-35006872D01*
X28407200Y-35006872D02*
X28454819Y-35102110D01*
X28454819Y-35102110D02*
X28454819Y-35387824D01*
X28454819Y-35387824D02*
X28407200Y-35483062D01*
X28407200Y-35483062D02*
X28359580Y-35530681D01*
X55523095Y-20802319D02*
X55523095Y-21611842D01*
X55523095Y-21611842D02*
X55570714Y-21707080D01*
X55570714Y-21707080D02*
X55618333Y-21754700D01*
X55618333Y-21754700D02*
X55713571Y-21802319D01*
X55713571Y-21802319D02*
X55904047Y-21802319D01*
X55904047Y-21802319D02*
X55999285Y-21754700D01*
X55999285Y-21754700D02*
X56046904Y-21707080D01*
X56046904Y-21707080D02*
X56094523Y-21611842D01*
X56094523Y-21611842D02*
X56094523Y-20802319D01*
X56523095Y-20897557D02*
X56570714Y-20849938D01*
X56570714Y-20849938D02*
X56665952Y-20802319D01*
X56665952Y-20802319D02*
X56904047Y-20802319D01*
X56904047Y-20802319D02*
X56999285Y-20849938D01*
X56999285Y-20849938D02*
X57046904Y-20897557D01*
X57046904Y-20897557D02*
X57094523Y-20992795D01*
X57094523Y-20992795D02*
X57094523Y-21088033D01*
X57094523Y-21088033D02*
X57046904Y-21230890D01*
X57046904Y-21230890D02*
X56475476Y-21802319D01*
X56475476Y-21802319D02*
X57094523Y-21802319D01*
X46279819Y-28801904D02*
X47089342Y-28801904D01*
X47089342Y-28801904D02*
X47184580Y-28754285D01*
X47184580Y-28754285D02*
X47232200Y-28706666D01*
X47232200Y-28706666D02*
X47279819Y-28611428D01*
X47279819Y-28611428D02*
X47279819Y-28420952D01*
X47279819Y-28420952D02*
X47232200Y-28325714D01*
X47232200Y-28325714D02*
X47184580Y-28278095D01*
X47184580Y-28278095D02*
X47089342Y-28230476D01*
X47089342Y-28230476D02*
X46279819Y-28230476D01*
X46279819Y-27849523D02*
X46279819Y-27230476D01*
X46279819Y-27230476D02*
X46660771Y-27563809D01*
X46660771Y-27563809D02*
X46660771Y-27420952D01*
X46660771Y-27420952D02*
X46708390Y-27325714D01*
X46708390Y-27325714D02*
X46756009Y-27278095D01*
X46756009Y-27278095D02*
X46851247Y-27230476D01*
X46851247Y-27230476D02*
X47089342Y-27230476D01*
X47089342Y-27230476D02*
X47184580Y-27278095D01*
X47184580Y-27278095D02*
X47232200Y-27325714D01*
X47232200Y-27325714D02*
X47279819Y-27420952D01*
X47279819Y-27420952D02*
X47279819Y-27706666D01*
X47279819Y-27706666D02*
X47232200Y-27801904D01*
X47232200Y-27801904D02*
X47184580Y-27849523D01*
X46233333Y-46609580D02*
X46185714Y-46657200D01*
X46185714Y-46657200D02*
X46042857Y-46704819D01*
X46042857Y-46704819D02*
X45947619Y-46704819D01*
X45947619Y-46704819D02*
X45804762Y-46657200D01*
X45804762Y-46657200D02*
X45709524Y-46561961D01*
X45709524Y-46561961D02*
X45661905Y-46466723D01*
X45661905Y-46466723D02*
X45614286Y-46276247D01*
X45614286Y-46276247D02*
X45614286Y-46133390D01*
X45614286Y-46133390D02*
X45661905Y-45942914D01*
X45661905Y-45942914D02*
X45709524Y-45847676D01*
X45709524Y-45847676D02*
X45804762Y-45752438D01*
X45804762Y-45752438D02*
X45947619Y-45704819D01*
X45947619Y-45704819D02*
X46042857Y-45704819D01*
X46042857Y-45704819D02*
X46185714Y-45752438D01*
X46185714Y-45752438D02*
X46233333Y-45800057D01*
X47185714Y-46704819D02*
X46614286Y-46704819D01*
X46900000Y-46704819D02*
X46900000Y-45704819D01*
X46900000Y-45704819D02*
X46804762Y-45847676D01*
X46804762Y-45847676D02*
X46709524Y-45942914D01*
X46709524Y-45942914D02*
X46614286Y-45990533D01*
X27411905Y-27874819D02*
X27411905Y-26874819D01*
X27411905Y-26874819D02*
X27650000Y-26874819D01*
X27650000Y-26874819D02*
X27792857Y-26922438D01*
X27792857Y-26922438D02*
X27888095Y-27017676D01*
X27888095Y-27017676D02*
X27935714Y-27112914D01*
X27935714Y-27112914D02*
X27983333Y-27303390D01*
X27983333Y-27303390D02*
X27983333Y-27446247D01*
X27983333Y-27446247D02*
X27935714Y-27636723D01*
X27935714Y-27636723D02*
X27888095Y-27731961D01*
X27888095Y-27731961D02*
X27792857Y-27827200D01*
X27792857Y-27827200D02*
X27650000Y-27874819D01*
X27650000Y-27874819D02*
X27411905Y-27874819D01*
X28364286Y-26970057D02*
X28411905Y-26922438D01*
X28411905Y-26922438D02*
X28507143Y-26874819D01*
X28507143Y-26874819D02*
X28745238Y-26874819D01*
X28745238Y-26874819D02*
X28840476Y-26922438D01*
X28840476Y-26922438D02*
X28888095Y-26970057D01*
X28888095Y-26970057D02*
X28935714Y-27065295D01*
X28935714Y-27065295D02*
X28935714Y-27160533D01*
X28935714Y-27160533D02*
X28888095Y-27303390D01*
X28888095Y-27303390D02*
X28316667Y-27874819D01*
X28316667Y-27874819D02*
X28935714Y-27874819D01*
X34238095Y-27454819D02*
X34238095Y-26454819D01*
X34809523Y-27454819D02*
X34380952Y-26883390D01*
X34809523Y-26454819D02*
X34238095Y-27026247D01*
X58833333Y-52734819D02*
X58500000Y-52258628D01*
X58261905Y-52734819D02*
X58261905Y-51734819D01*
X58261905Y-51734819D02*
X58642857Y-51734819D01*
X58642857Y-51734819D02*
X58738095Y-51782438D01*
X58738095Y-51782438D02*
X58785714Y-51830057D01*
X58785714Y-51830057D02*
X58833333Y-51925295D01*
X58833333Y-51925295D02*
X58833333Y-52068152D01*
X58833333Y-52068152D02*
X58785714Y-52163390D01*
X58785714Y-52163390D02*
X58738095Y-52211009D01*
X58738095Y-52211009D02*
X58642857Y-52258628D01*
X58642857Y-52258628D02*
X58261905Y-52258628D01*
X59785714Y-52734819D02*
X59214286Y-52734819D01*
X59500000Y-52734819D02*
X59500000Y-51734819D01*
X59500000Y-51734819D02*
X59404762Y-51877676D01*
X59404762Y-51877676D02*
X59309524Y-51972914D01*
X59309524Y-51972914D02*
X59214286Y-52020533D01*
X16716666Y-39704819D02*
X16716666Y-40419104D01*
X16716666Y-40419104D02*
X16669047Y-40561961D01*
X16669047Y-40561961D02*
X16573809Y-40657200D01*
X16573809Y-40657200D02*
X16430952Y-40704819D01*
X16430952Y-40704819D02*
X16335714Y-40704819D01*
X17240476Y-40704819D02*
X17430952Y-40704819D01*
X17430952Y-40704819D02*
X17526190Y-40657200D01*
X17526190Y-40657200D02*
X17573809Y-40609580D01*
X17573809Y-40609580D02*
X17669047Y-40466723D01*
X17669047Y-40466723D02*
X17716666Y-40276247D01*
X17716666Y-40276247D02*
X17716666Y-39895295D01*
X17716666Y-39895295D02*
X17669047Y-39800057D01*
X17669047Y-39800057D02*
X17621428Y-39752438D01*
X17621428Y-39752438D02*
X17526190Y-39704819D01*
X17526190Y-39704819D02*
X17335714Y-39704819D01*
X17335714Y-39704819D02*
X17240476Y-39752438D01*
X17240476Y-39752438D02*
X17192857Y-39800057D01*
X17192857Y-39800057D02*
X17145238Y-39895295D01*
X17145238Y-39895295D02*
X17145238Y-40133390D01*
X17145238Y-40133390D02*
X17192857Y-40228628D01*
X17192857Y-40228628D02*
X17240476Y-40276247D01*
X17240476Y-40276247D02*
X17335714Y-40323866D01*
X17335714Y-40323866D02*
X17526190Y-40323866D01*
X17526190Y-40323866D02*
X17621428Y-40276247D01*
X17621428Y-40276247D02*
X17669047Y-40228628D01*
X17669047Y-40228628D02*
X17716666Y-40133390D01*
D12*
%TO.C,R2*%
X53690000Y-51000000D02*
X54380000Y-51000000D01*
X54380000Y-49280000D02*
X54380000Y-52720000D01*
X54380000Y-52720000D02*
X63620000Y-52720000D01*
X63620000Y-49280000D02*
X54380000Y-49280000D01*
X63620000Y-52720000D02*
X63620000Y-49280000D01*
X64310000Y-51000000D02*
X63620000Y-51000000D01*
%TO.C,BTN1-5*%
X72750000Y-33500000D02*
X72750000Y-37500000D01*
X73040000Y-32470000D02*
X73040000Y-38490000D01*
X73040000Y-38490000D02*
X78340000Y-38490000D01*
X73620000Y-32470000D02*
X73620000Y-33070000D01*
X73620000Y-33070000D02*
X75220000Y-33070000D01*
X74420000Y-37490000D02*
X74670000Y-36960000D01*
X74420000Y-37490000D02*
X76960000Y-37490000D01*
X74420000Y-38490000D02*
X74420000Y-37490000D01*
X74670000Y-36960000D02*
X76710000Y-36960000D01*
X74670000Y-38490000D02*
X74670000Y-37490000D01*
X75220000Y-33070000D02*
X75220000Y-32470000D01*
X76160000Y-32470000D02*
X76160000Y-33070000D01*
X76160000Y-33070000D02*
X77760000Y-33070000D01*
X76710000Y-36960000D02*
X76960000Y-37490000D01*
X76710000Y-38490000D02*
X76710000Y-37490000D01*
X76960000Y-37490000D02*
X76960000Y-38490000D01*
X77760000Y-33070000D02*
X77760000Y-32470000D01*
X78340000Y-32470000D02*
X73040000Y-32470000D01*
X78340000Y-38490000D02*
X78340000Y-32470000D01*
%TO.C,C4*%
X38000000Y-23930000D02*
X38000000Y-27090000D01*
X38920000Y-23010000D02*
G75*
G02*
X37080000Y-23010000I-920000J0D01*
G01*
X37080000Y-23010000D02*
G75*
G02*
X38920000Y-23010000I920000J0D01*
G01*
%TO.C,BTN2-7*%
X72790000Y-40500000D02*
X72790000Y-44500000D01*
X73080000Y-39470000D02*
X73080000Y-45490000D01*
X73080000Y-45490000D02*
X78380000Y-45490000D01*
X73660000Y-39470000D02*
X73660000Y-40070000D01*
X73660000Y-40070000D02*
X75260000Y-40070000D01*
X74460000Y-44490000D02*
X74710000Y-43960000D01*
X74460000Y-44490000D02*
X77000000Y-44490000D01*
X74460000Y-45490000D02*
X74460000Y-44490000D01*
X74710000Y-43960000D02*
X76750000Y-43960000D01*
X74710000Y-45490000D02*
X74710000Y-44490000D01*
X75260000Y-40070000D02*
X75260000Y-39470000D01*
X76200000Y-39470000D02*
X76200000Y-40070000D01*
X76200000Y-40070000D02*
X77800000Y-40070000D01*
X76750000Y-43960000D02*
X77000000Y-44490000D01*
X76750000Y-45490000D02*
X76750000Y-44490000D01*
X77000000Y-44490000D02*
X77000000Y-45490000D01*
X77800000Y-40070000D02*
X77800000Y-39470000D01*
X78380000Y-39470000D02*
X73080000Y-39470000D01*
X78380000Y-45490000D02*
X78380000Y-39470000D01*
%TO.C,J6*%
X64790000Y-59500000D02*
X64790000Y-63500000D01*
X65080000Y-58470000D02*
X65080000Y-64490000D01*
X65080000Y-64490000D02*
X70380000Y-64490000D01*
X65660000Y-58470000D02*
X65660000Y-59070000D01*
X65660000Y-59070000D02*
X67260000Y-59070000D01*
X66460000Y-63490000D02*
X66710000Y-62960000D01*
X66460000Y-63490000D02*
X69000000Y-63490000D01*
X66460000Y-64490000D02*
X66460000Y-63490000D01*
X66710000Y-62960000D02*
X68750000Y-62960000D01*
X66710000Y-64490000D02*
X66710000Y-63490000D01*
X67260000Y-59070000D02*
X67260000Y-58470000D01*
X68200000Y-58470000D02*
X68200000Y-59070000D01*
X68200000Y-59070000D02*
X69800000Y-59070000D01*
X68750000Y-62960000D02*
X69000000Y-63490000D01*
X68750000Y-64490000D02*
X68750000Y-63490000D01*
X69000000Y-63490000D02*
X69000000Y-64490000D01*
X69800000Y-59070000D02*
X69800000Y-58470000D01*
X70380000Y-58470000D02*
X65080000Y-58470000D01*
X70380000Y-64490000D02*
X70380000Y-58470000D01*
%TO.C,J1*%
X57010000Y-58080000D02*
X57010000Y-68460000D01*
X57010000Y-59460000D02*
X58010000Y-59460000D01*
X57010000Y-59710000D02*
X58010000Y-59710000D01*
X57010000Y-66830000D02*
X58010000Y-66830000D01*
X57010000Y-68460000D02*
X63030000Y-68460000D01*
X58010000Y-59460000D02*
X58010000Y-67080000D01*
X58010000Y-59460000D02*
X58540000Y-59710000D01*
X58010000Y-67080000D02*
X57010000Y-67080000D01*
X58540000Y-59710000D02*
X58540000Y-66830000D01*
X58540000Y-66830000D02*
X58010000Y-67080000D01*
X62000000Y-57790000D02*
X58000000Y-57790000D01*
X62430000Y-58660000D02*
X62430000Y-60260000D01*
X62430000Y-60260000D02*
X63030000Y-60260000D01*
X62430000Y-61200000D02*
X62430000Y-62800000D01*
X62430000Y-62800000D02*
X63030000Y-62800000D01*
X62430000Y-63740000D02*
X62430000Y-65340000D01*
X62430000Y-65340000D02*
X63030000Y-65340000D01*
X62430000Y-66280000D02*
X62430000Y-67880000D01*
X62430000Y-67880000D02*
X63030000Y-67880000D01*
X63030000Y-58080000D02*
X57010000Y-58080000D01*
X63030000Y-58660000D02*
X62430000Y-58660000D01*
X63030000Y-61200000D02*
X62430000Y-61200000D01*
X63030000Y-63740000D02*
X62430000Y-63740000D01*
X63030000Y-66280000D02*
X62430000Y-66280000D01*
X63030000Y-68460000D02*
X63030000Y-58080000D01*
%TO.C,D1*%
X48080000Y-26930000D02*
X48080000Y-30370000D01*
X48080000Y-30370000D02*
X50920000Y-30370000D01*
X49500000Y-23540000D02*
X49500000Y-26930000D01*
X49500000Y-33760000D02*
X49500000Y-30370000D01*
X50920000Y-26930000D02*
X48080000Y-26930000D01*
X50920000Y-27410000D02*
X48080000Y-27410000D01*
X50920000Y-27530000D02*
X48080000Y-27530000D01*
X50920000Y-27650000D02*
X48080000Y-27650000D01*
X50920000Y-30370000D02*
X50920000Y-26930000D01*
%TO.C,C2*%
X42570000Y-35500000D02*
X39410000Y-35500000D01*
X44410000Y-35500000D02*
G75*
G02*
X42570000Y-35500000I-920000J0D01*
G01*
X42570000Y-35500000D02*
G75*
G02*
X44410000Y-35500000I920000J0D01*
G01*
%TO.C,C3*%
X31460000Y-39978349D02*
X28515000Y-39978349D01*
X31460000Y-40018349D02*
X28524000Y-40018349D01*
X31460000Y-40058349D02*
X28533000Y-40058349D01*
X31460000Y-40098349D02*
X28543000Y-40098349D01*
X31460000Y-40138349D02*
X28553000Y-40138349D01*
X31460000Y-40178349D02*
X28564000Y-40178349D01*
X31460000Y-40218349D02*
X28575000Y-40218349D01*
X31460000Y-40258349D02*
X28586000Y-40258349D01*
X31460000Y-40298349D02*
X28598000Y-40298349D01*
X31460000Y-40338349D02*
X28611000Y-40338349D01*
X31460000Y-40378349D02*
X28623000Y-40378349D01*
X31460000Y-40418349D02*
X28637000Y-40418349D01*
X31460000Y-40458349D02*
X28650000Y-40458349D01*
X31460000Y-40498349D02*
X28665000Y-40498349D01*
X31460000Y-40538349D02*
X28679000Y-40538349D01*
X31460000Y-40578349D02*
X28695000Y-40578349D01*
X31460000Y-40618349D02*
X28710000Y-40618349D01*
X31460000Y-40658349D02*
X28726000Y-40658349D01*
X31460000Y-40698349D02*
X28743000Y-40698349D01*
X31460000Y-40738349D02*
X28760000Y-40738349D01*
X31460000Y-40778349D02*
X28778000Y-40778349D01*
X31460000Y-40818349D02*
X28796000Y-40818349D01*
X31460000Y-40858349D02*
X28814000Y-40858349D01*
X31460000Y-40898349D02*
X28834000Y-40898349D01*
X31460000Y-40938349D02*
X28853000Y-40938349D01*
X31460000Y-40978349D02*
X28873000Y-40978349D01*
X31460000Y-41018349D02*
X28894000Y-41018349D01*
X31460000Y-41058349D02*
X28916000Y-41058349D01*
X31460000Y-41098349D02*
X28938000Y-41098349D01*
X31460000Y-41138349D02*
X28960000Y-41138349D01*
X31460000Y-41178349D02*
X28983000Y-41178349D01*
X31460000Y-41218349D02*
X29007000Y-41218349D01*
X31460000Y-41258349D02*
X29031000Y-41258349D01*
X31460000Y-41298349D02*
X29056000Y-41298349D01*
X31460000Y-41338349D02*
X29082000Y-41338349D01*
X31460000Y-41378349D02*
X29108000Y-41378349D01*
X31460000Y-41418349D02*
X29135000Y-41418349D01*
X31460000Y-41458349D02*
X29162000Y-41458349D01*
X31460000Y-41498349D02*
X29191000Y-41498349D01*
X31460000Y-41538349D02*
X29220000Y-41538349D01*
X31460000Y-41578349D02*
X29250000Y-41578349D01*
X31460000Y-41618349D02*
X29280000Y-41618349D01*
X31460000Y-41658349D02*
X29311000Y-41658349D01*
X31460000Y-41698349D02*
X29344000Y-41698349D01*
X31460000Y-41738349D02*
X29376000Y-41738349D01*
X31460000Y-41778349D02*
X29410000Y-41778349D01*
X31460000Y-41818349D02*
X29445000Y-41818349D01*
X31460000Y-41858349D02*
X29481000Y-41858349D01*
X31460000Y-41898349D02*
X29517000Y-41898349D01*
X31460000Y-41938349D02*
X29555000Y-41938349D01*
X31460000Y-41978349D02*
X29593000Y-41978349D01*
X31460000Y-42018349D02*
X29633000Y-42018349D01*
X33033000Y-43178349D02*
X31967000Y-43178349D01*
X33268000Y-43138349D02*
X31732000Y-43138349D01*
X33448000Y-43098349D02*
X31552000Y-43098349D01*
X33598000Y-43058349D02*
X31402000Y-43058349D01*
X33729000Y-43018349D02*
X31271000Y-43018349D01*
X33846000Y-42978349D02*
X31154000Y-42978349D01*
X33953000Y-42938349D02*
X31047000Y-42938349D01*
X34052000Y-42898349D02*
X30948000Y-42898349D01*
X34145000Y-42858349D02*
X30855000Y-42858349D01*
X34231000Y-42818349D02*
X30769000Y-42818349D01*
X34313000Y-42778349D02*
X30687000Y-42778349D01*
X34390000Y-42738349D02*
X30610000Y-42738349D01*
X34464000Y-42698349D02*
X30536000Y-42698349D01*
X34534000Y-42658349D02*
X30466000Y-42658349D01*
X34602000Y-42618349D02*
X30398000Y-42618349D01*
X34666000Y-42578349D02*
X30334000Y-42578349D01*
X34728000Y-42538349D02*
X30272000Y-42538349D01*
X34787000Y-42498349D02*
X30213000Y-42498349D01*
X34815000Y-34687651D02*
X34815000Y-35487651D01*
X34845000Y-42458349D02*
X30155000Y-42458349D01*
X34900000Y-42418349D02*
X30100000Y-42418349D01*
X34954000Y-42378349D02*
X30046000Y-42378349D01*
X35005000Y-42338349D02*
X29995000Y-42338349D01*
X35056000Y-42298349D02*
X29944000Y-42298349D01*
X35104000Y-42258349D02*
X29896000Y-42258349D01*
X35151000Y-42218349D02*
X29849000Y-42218349D01*
X35197000Y-42178349D02*
X29803000Y-42178349D01*
X35215000Y-35087651D02*
X34415000Y-35087651D01*
X35241000Y-42138349D02*
X29759000Y-42138349D01*
X35284000Y-42098349D02*
X29716000Y-42098349D01*
X35326000Y-42058349D02*
X29674000Y-42058349D01*
X35367000Y-42018349D02*
X33540000Y-42018349D01*
X35407000Y-41978349D02*
X33540000Y-41978349D01*
X35445000Y-41938349D02*
X33540000Y-41938349D01*
X35483000Y-41898349D02*
X33540000Y-41898349D01*
X35519000Y-41858349D02*
X33540000Y-41858349D01*
X35555000Y-41818349D02*
X33540000Y-41818349D01*
X35590000Y-41778349D02*
X33540000Y-41778349D01*
X35624000Y-41738349D02*
X33540000Y-41738349D01*
X35656000Y-41698349D02*
X33540000Y-41698349D01*
X35689000Y-41658349D02*
X33540000Y-41658349D01*
X35720000Y-41618349D02*
X33540000Y-41618349D01*
X35750000Y-41578349D02*
X33540000Y-41578349D01*
X35780000Y-41538349D02*
X33540000Y-41538349D01*
X35809000Y-41498349D02*
X33540000Y-41498349D01*
X35838000Y-41458349D02*
X33540000Y-41458349D01*
X35865000Y-41418349D02*
X33540000Y-41418349D01*
X35892000Y-41378349D02*
X33540000Y-41378349D01*
X35918000Y-41338349D02*
X33540000Y-41338349D01*
X35944000Y-41298349D02*
X33540000Y-41298349D01*
X35969000Y-41258349D02*
X33540000Y-41258349D01*
X35993000Y-41218349D02*
X33540000Y-41218349D01*
X36017000Y-41178349D02*
X33540000Y-41178349D01*
X36040000Y-41138349D02*
X33540000Y-41138349D01*
X36062000Y-41098349D02*
X33540000Y-41098349D01*
X36084000Y-41058349D02*
X33540000Y-41058349D01*
X36106000Y-41018349D02*
X33540000Y-41018349D01*
X36127000Y-40978349D02*
X33540000Y-40978349D01*
X36147000Y-40938349D02*
X33540000Y-40938349D01*
X36166000Y-40898349D02*
X33540000Y-40898349D01*
X36186000Y-40858349D02*
X33540000Y-40858349D01*
X36204000Y-40818349D02*
X33540000Y-40818349D01*
X36222000Y-40778349D02*
X33540000Y-40778349D01*
X36240000Y-40738349D02*
X33540000Y-40738349D01*
X36257000Y-40698349D02*
X33540000Y-40698349D01*
X36274000Y-40658349D02*
X33540000Y-40658349D01*
X36290000Y-40618349D02*
X33540000Y-40618349D01*
X36305000Y-40578349D02*
X33540000Y-40578349D01*
X36321000Y-40538349D02*
X33540000Y-40538349D01*
X36335000Y-40498349D02*
X33540000Y-40498349D01*
X36350000Y-40458349D02*
X33540000Y-40458349D01*
X36363000Y-40418349D02*
X33540000Y-40418349D01*
X36377000Y-40378349D02*
X33540000Y-40378349D01*
X36389000Y-40338349D02*
X33540000Y-40338349D01*
X36402000Y-40298349D02*
X33540000Y-40298349D01*
X36414000Y-40258349D02*
X33540000Y-40258349D01*
X36425000Y-40218349D02*
X33540000Y-40218349D01*
X36436000Y-40178349D02*
X33540000Y-40178349D01*
X36447000Y-40138349D02*
X33540000Y-40138349D01*
X36457000Y-40098349D02*
X33540000Y-40098349D01*
X36467000Y-40058349D02*
X33540000Y-40058349D01*
X36476000Y-40018349D02*
X33540000Y-40018349D01*
X36485000Y-39978349D02*
X33540000Y-39978349D01*
X36494000Y-39938349D02*
X28506000Y-39938349D01*
X36502000Y-39898349D02*
X28498000Y-39898349D01*
X36510000Y-39858349D02*
X28490000Y-39858349D01*
X36517000Y-39818349D02*
X28483000Y-39818349D01*
X36524000Y-39777349D02*
X28476000Y-39777349D01*
X36530000Y-39737349D02*
X28470000Y-39737349D01*
X36537000Y-39697349D02*
X28463000Y-39697349D01*
X36542000Y-39657349D02*
X28458000Y-39657349D01*
X36548000Y-39617349D02*
X28452000Y-39617349D01*
X36552000Y-39577349D02*
X28448000Y-39577349D01*
X36557000Y-39537349D02*
X28443000Y-39537349D01*
X36561000Y-39497349D02*
X28439000Y-39497349D01*
X36565000Y-39457349D02*
X28435000Y-39457349D01*
X36568000Y-39417349D02*
X28432000Y-39417349D01*
X36571000Y-39377349D02*
X28429000Y-39377349D01*
X36574000Y-39337349D02*
X28426000Y-39337349D01*
X36576000Y-39297349D02*
X28424000Y-39297349D01*
X36577000Y-39257349D02*
X28423000Y-39257349D01*
X36579000Y-39217349D02*
X28421000Y-39217349D01*
X36580000Y-39097349D02*
X28420000Y-39097349D01*
X36580000Y-39137349D02*
X28420000Y-39137349D01*
X36580000Y-39177349D02*
X28420000Y-39177349D01*
X36620000Y-39097349D02*
G75*
G02*
X28380000Y-39097349I-4120000J0D01*
G01*
X28380000Y-39097349D02*
G75*
G02*
X36620000Y-39097349I4120000J0D01*
G01*
%TO.C,J4*%
X13290000Y-56500000D02*
X13290000Y-60500000D01*
X13580000Y-55470000D02*
X13580000Y-61490000D01*
X13580000Y-61490000D02*
X23960000Y-61490000D01*
X14160000Y-55470000D02*
X14160000Y-56070000D01*
X14160000Y-56070000D02*
X15760000Y-56070000D01*
X14960000Y-60490000D02*
X15210000Y-59960000D01*
X14960000Y-60490000D02*
X22580000Y-60490000D01*
X14960000Y-61490000D02*
X14960000Y-60490000D01*
X15210000Y-59960000D02*
X22330000Y-59960000D01*
X15210000Y-61490000D02*
X15210000Y-60490000D01*
X15760000Y-56070000D02*
X15760000Y-55470000D01*
X16700000Y-55470000D02*
X16700000Y-56070000D01*
X16700000Y-56070000D02*
X18300000Y-56070000D01*
X18300000Y-56070000D02*
X18300000Y-55470000D01*
X19240000Y-55470000D02*
X19240000Y-56070000D01*
X19240000Y-56070000D02*
X20840000Y-56070000D01*
X20840000Y-56070000D02*
X20840000Y-55470000D01*
X21780000Y-55470000D02*
X21780000Y-56070000D01*
X21780000Y-56070000D02*
X23380000Y-56070000D01*
X22330000Y-59960000D02*
X22580000Y-60490000D01*
X22330000Y-61490000D02*
X22330000Y-60490000D01*
X22580000Y-60490000D02*
X22580000Y-61490000D01*
X23380000Y-56070000D02*
X23380000Y-55470000D01*
X23960000Y-55470000D02*
X13580000Y-55470000D01*
X23960000Y-61490000D02*
X23960000Y-55470000D01*
D13*
%TO.C,U2*%
X53000000Y-46350000D02*
X53000000Y-23650000D01*
X57500000Y-22350000D02*
X57500000Y-23650000D01*
X57500000Y-23650000D02*
X53000000Y-23650000D01*
X66500000Y-22350000D02*
X57500000Y-22350000D01*
X66500000Y-22350000D02*
X66500000Y-23650000D01*
X71000000Y-23650000D02*
X66500000Y-23650000D01*
X71000000Y-46350000D02*
X53000000Y-46350000D01*
X71000000Y-46350000D02*
X71000000Y-23650000D01*
D12*
%TO.C,U3*%
X41184000Y-22920000D02*
X41184000Y-33160000D01*
X44315000Y-22920000D02*
X44315000Y-33160000D01*
X45825000Y-22920000D02*
X41184000Y-22920000D01*
X45825000Y-22920000D02*
X45825000Y-33160000D01*
X45825000Y-26190000D02*
X44315000Y-26190000D01*
X45825000Y-29891000D02*
X44315000Y-29891000D01*
X45825000Y-33160000D02*
X41184000Y-33160000D01*
%TO.C,J7*%
X13250000Y-46000000D02*
X13250000Y-50000000D01*
X13540000Y-44970000D02*
X13540000Y-50990000D01*
X13540000Y-50990000D02*
X23920000Y-50990000D01*
X14120000Y-44970000D02*
X14120000Y-45570000D01*
X14120000Y-45570000D02*
X15720000Y-45570000D01*
X14920000Y-49990000D02*
X15170000Y-49460000D01*
X14920000Y-49990000D02*
X22540000Y-49990000D01*
X14920000Y-50990000D02*
X14920000Y-49990000D01*
X15170000Y-49460000D02*
X22290000Y-49460000D01*
X15170000Y-50990000D02*
X15170000Y-49990000D01*
X15720000Y-45570000D02*
X15720000Y-44970000D01*
X16660000Y-44970000D02*
X16660000Y-45570000D01*
X16660000Y-45570000D02*
X18260000Y-45570000D01*
X18260000Y-45570000D02*
X18260000Y-44970000D01*
X19200000Y-44970000D02*
X19200000Y-45570000D01*
X19200000Y-45570000D02*
X20800000Y-45570000D01*
X20800000Y-45570000D02*
X20800000Y-44970000D01*
X21740000Y-44970000D02*
X21740000Y-45570000D01*
X21740000Y-45570000D02*
X23340000Y-45570000D01*
X22290000Y-49460000D02*
X22540000Y-49990000D01*
X22290000Y-50990000D02*
X22290000Y-49990000D01*
X22540000Y-49990000D02*
X22540000Y-50990000D01*
X23340000Y-45570000D02*
X23340000Y-44970000D01*
X23920000Y-44970000D02*
X13540000Y-44970000D01*
X23920000Y-50990000D02*
X23920000Y-44970000D01*
%TO.C,J2*%
X72970000Y-47540000D02*
X72970000Y-55380000D01*
X72970000Y-49720000D02*
X73570000Y-49720000D01*
X72970000Y-52260000D02*
X73570000Y-52260000D01*
X72970000Y-54800000D02*
X73570000Y-54800000D01*
X72970000Y-55380000D02*
X78990000Y-55380000D01*
X73570000Y-48120000D02*
X72970000Y-48120000D01*
X73570000Y-49720000D02*
X73570000Y-48120000D01*
X73570000Y-50660000D02*
X72970000Y-50660000D01*
X73570000Y-52260000D02*
X73570000Y-50660000D01*
X73570000Y-53200000D02*
X72970000Y-53200000D01*
X73570000Y-54800000D02*
X73570000Y-53200000D01*
X74000000Y-55670000D02*
X78000000Y-55670000D01*
X77460000Y-49170000D02*
X77990000Y-48920000D01*
X77460000Y-53750000D02*
X77460000Y-49170000D01*
X77990000Y-48920000D02*
X78990000Y-48920000D01*
X77990000Y-54000000D02*
X77460000Y-53750000D01*
X77990000Y-54000000D02*
X77990000Y-48920000D01*
X78990000Y-47540000D02*
X72970000Y-47540000D01*
X78990000Y-49170000D02*
X77990000Y-49170000D01*
X78990000Y-53750000D02*
X77990000Y-53750000D01*
X78990000Y-54000000D02*
X77990000Y-54000000D01*
X78990000Y-55380000D02*
X78990000Y-47540000D01*
%TO.C,C1*%
X42319000Y-41533000D02*
X42319000Y-40467000D01*
X42359000Y-41768000D02*
X42359000Y-40232000D01*
X42399000Y-41948000D02*
X42399000Y-40052000D01*
X42439000Y-42098000D02*
X42439000Y-39902000D01*
X42479000Y-42229000D02*
X42479000Y-39771000D01*
X42519000Y-42346000D02*
X42519000Y-39654000D01*
X42559000Y-42453000D02*
X42559000Y-39547000D01*
X42599000Y-42552000D02*
X42599000Y-39448000D01*
X42639000Y-42645000D02*
X42639000Y-39355000D01*
X42679000Y-42731000D02*
X42679000Y-39269000D01*
X42719000Y-42813000D02*
X42719000Y-39187000D01*
X42759000Y-42890000D02*
X42759000Y-39110000D01*
X42799000Y-42964000D02*
X42799000Y-39036000D01*
X42839000Y-43034000D02*
X42839000Y-38966000D01*
X42879000Y-43102000D02*
X42879000Y-38898000D01*
X42919000Y-43166000D02*
X42919000Y-38834000D01*
X42959000Y-43228000D02*
X42959000Y-38772000D01*
X42999000Y-43287000D02*
X42999000Y-38713000D01*
X43039000Y-43345000D02*
X43039000Y-38655000D01*
X43079000Y-43400000D02*
X43079000Y-38600000D01*
X43119000Y-43454000D02*
X43119000Y-38546000D01*
X43159000Y-43505000D02*
X43159000Y-38495000D01*
X43199000Y-43556000D02*
X43199000Y-38444000D01*
X43239000Y-43604000D02*
X43239000Y-38396000D01*
X43279000Y-43651000D02*
X43279000Y-38349000D01*
X43319000Y-43697000D02*
X43319000Y-38303000D01*
X43359000Y-43741000D02*
X43359000Y-38259000D01*
X43399000Y-43784000D02*
X43399000Y-38216000D01*
X43439000Y-43826000D02*
X43439000Y-38174000D01*
X43479000Y-39960000D02*
X43479000Y-38133000D01*
X43479000Y-43867000D02*
X43479000Y-42040000D01*
X43519000Y-39960000D02*
X43519000Y-38093000D01*
X43519000Y-43907000D02*
X43519000Y-42040000D01*
X43559000Y-39960000D02*
X43559000Y-38055000D01*
X43559000Y-43945000D02*
X43559000Y-42040000D01*
X43599000Y-39960000D02*
X43599000Y-38017000D01*
X43599000Y-43983000D02*
X43599000Y-42040000D01*
X43639000Y-39960000D02*
X43639000Y-37981000D01*
X43639000Y-44019000D02*
X43639000Y-42040000D01*
X43679000Y-39960000D02*
X43679000Y-37945000D01*
X43679000Y-44055000D02*
X43679000Y-42040000D01*
X43719000Y-39960000D02*
X43719000Y-37910000D01*
X43719000Y-44090000D02*
X43719000Y-42040000D01*
X43759000Y-39960000D02*
X43759000Y-37876000D01*
X43759000Y-44124000D02*
X43759000Y-42040000D01*
X43799000Y-39960000D02*
X43799000Y-37844000D01*
X43799000Y-44156000D02*
X43799000Y-42040000D01*
X43839000Y-39960000D02*
X43839000Y-37811000D01*
X43839000Y-44189000D02*
X43839000Y-42040000D01*
X43879000Y-39960000D02*
X43879000Y-37780000D01*
X43879000Y-44220000D02*
X43879000Y-42040000D01*
X43919000Y-39960000D02*
X43919000Y-37750000D01*
X43919000Y-44250000D02*
X43919000Y-42040000D01*
X43959000Y-39960000D02*
X43959000Y-37720000D01*
X43959000Y-44280000D02*
X43959000Y-42040000D01*
X43999000Y-39960000D02*
X43999000Y-37691000D01*
X43999000Y-44309000D02*
X43999000Y-42040000D01*
X44039000Y-39960000D02*
X44039000Y-37662000D01*
X44039000Y-44338000D02*
X44039000Y-42040000D01*
X44079000Y-39960000D02*
X44079000Y-37635000D01*
X44079000Y-44365000D02*
X44079000Y-42040000D01*
X44119000Y-39960000D02*
X44119000Y-37608000D01*
X44119000Y-44392000D02*
X44119000Y-42040000D01*
X44159000Y-39960000D02*
X44159000Y-37582000D01*
X44159000Y-44418000D02*
X44159000Y-42040000D01*
X44199000Y-39960000D02*
X44199000Y-37556000D01*
X44199000Y-44444000D02*
X44199000Y-42040000D01*
X44239000Y-39960000D02*
X44239000Y-37531000D01*
X44239000Y-44469000D02*
X44239000Y-42040000D01*
X44279000Y-39960000D02*
X44279000Y-37507000D01*
X44279000Y-44493000D02*
X44279000Y-42040000D01*
X44319000Y-39960000D02*
X44319000Y-37483000D01*
X44319000Y-44517000D02*
X44319000Y-42040000D01*
X44359000Y-39960000D02*
X44359000Y-37460000D01*
X44359000Y-44540000D02*
X44359000Y-42040000D01*
X44399000Y-39960000D02*
X44399000Y-37438000D01*
X44399000Y-44562000D02*
X44399000Y-42040000D01*
X44439000Y-39960000D02*
X44439000Y-37416000D01*
X44439000Y-44584000D02*
X44439000Y-42040000D01*
X44479000Y-39960000D02*
X44479000Y-37394000D01*
X44479000Y-44606000D02*
X44479000Y-42040000D01*
X44519000Y-39960000D02*
X44519000Y-37373000D01*
X44519000Y-44627000D02*
X44519000Y-42040000D01*
X44559000Y-39960000D02*
X44559000Y-37353000D01*
X44559000Y-44647000D02*
X44559000Y-42040000D01*
X44599000Y-39960000D02*
X44599000Y-37334000D01*
X44599000Y-44666000D02*
X44599000Y-42040000D01*
X44639000Y-39960000D02*
X44639000Y-37314000D01*
X44639000Y-44686000D02*
X44639000Y-42040000D01*
X44679000Y-39960000D02*
X44679000Y-37296000D01*
X44679000Y-44704000D02*
X44679000Y-42040000D01*
X44719000Y-39960000D02*
X44719000Y-37278000D01*
X44719000Y-44722000D02*
X44719000Y-42040000D01*
X44759000Y-39960000D02*
X44759000Y-37260000D01*
X44759000Y-44740000D02*
X44759000Y-42040000D01*
X44799000Y-39960000D02*
X44799000Y-37243000D01*
X44799000Y-44757000D02*
X44799000Y-42040000D01*
X44839000Y-39960000D02*
X44839000Y-37226000D01*
X44839000Y-44774000D02*
X44839000Y-42040000D01*
X44879000Y-39960000D02*
X44879000Y-37210000D01*
X44879000Y-44790000D02*
X44879000Y-42040000D01*
X44919000Y-39960000D02*
X44919000Y-37195000D01*
X44919000Y-44805000D02*
X44919000Y-42040000D01*
X44959000Y-39960000D02*
X44959000Y-37179000D01*
X44959000Y-44821000D02*
X44959000Y-42040000D01*
X44999000Y-39960000D02*
X44999000Y-37165000D01*
X44999000Y-44835000D02*
X44999000Y-42040000D01*
X45039000Y-39960000D02*
X45039000Y-37150000D01*
X45039000Y-44850000D02*
X45039000Y-42040000D01*
X45079000Y-39960000D02*
X45079000Y-37137000D01*
X45079000Y-44863000D02*
X45079000Y-42040000D01*
X45119000Y-39960000D02*
X45119000Y-37123000D01*
X45119000Y-44877000D02*
X45119000Y-42040000D01*
X45159000Y-39960000D02*
X45159000Y-37111000D01*
X45159000Y-44889000D02*
X45159000Y-42040000D01*
X45199000Y-39960000D02*
X45199000Y-37098000D01*
X45199000Y-44902000D02*
X45199000Y-42040000D01*
X45239000Y-39960000D02*
X45239000Y-37086000D01*
X45239000Y-44914000D02*
X45239000Y-42040000D01*
X45279000Y-39960000D02*
X45279000Y-37075000D01*
X45279000Y-44925000D02*
X45279000Y-42040000D01*
X45319000Y-39960000D02*
X45319000Y-37064000D01*
X45319000Y-44936000D02*
X45319000Y-42040000D01*
X45359000Y-39960000D02*
X45359000Y-37053000D01*
X45359000Y-44947000D02*
X45359000Y-42040000D01*
X45399000Y-39960000D02*
X45399000Y-37043000D01*
X45399000Y-44957000D02*
X45399000Y-42040000D01*
X45439000Y-39960000D02*
X45439000Y-37033000D01*
X45439000Y-44967000D02*
X45439000Y-42040000D01*
X45479000Y-39960000D02*
X45479000Y-37024000D01*
X45479000Y-44976000D02*
X45479000Y-42040000D01*
X45519000Y-39960000D02*
X45519000Y-37015000D01*
X45519000Y-44985000D02*
X45519000Y-42040000D01*
X45559000Y-44994000D02*
X45559000Y-37006000D01*
X45599000Y-45002000D02*
X45599000Y-36998000D01*
X45639000Y-45010000D02*
X45639000Y-36990000D01*
X45679000Y-45017000D02*
X45679000Y-36983000D01*
X45720000Y-45024000D02*
X45720000Y-36976000D01*
X45760000Y-45030000D02*
X45760000Y-36970000D01*
X45800000Y-45037000D02*
X45800000Y-36963000D01*
X45840000Y-45042000D02*
X45840000Y-36958000D01*
X45880000Y-45048000D02*
X45880000Y-36952000D01*
X45920000Y-45052000D02*
X45920000Y-36948000D01*
X45960000Y-45057000D02*
X45960000Y-36943000D01*
X46000000Y-45061000D02*
X46000000Y-36939000D01*
X46040000Y-45065000D02*
X46040000Y-36935000D01*
X46080000Y-45068000D02*
X46080000Y-36932000D01*
X46120000Y-45071000D02*
X46120000Y-36929000D01*
X46160000Y-45074000D02*
X46160000Y-36926000D01*
X46200000Y-45076000D02*
X46200000Y-36924000D01*
X46240000Y-45077000D02*
X46240000Y-36923000D01*
X46280000Y-45079000D02*
X46280000Y-36921000D01*
X46320000Y-45080000D02*
X46320000Y-36920000D01*
X46360000Y-45080000D02*
X46360000Y-36920000D01*
X46400000Y-45080000D02*
X46400000Y-36920000D01*
X50409698Y-43715000D02*
X50409698Y-42915000D01*
X50809698Y-43315000D02*
X50009698Y-43315000D01*
X50520000Y-41000000D02*
G75*
G02*
X42280000Y-41000000I-4120000J0D01*
G01*
X42280000Y-41000000D02*
G75*
G02*
X50520000Y-41000000I4120000J0D01*
G01*
%TO.C,D2*%
X23040000Y-25000000D02*
X26430000Y-25000000D01*
X26430000Y-23580000D02*
X26430000Y-26420000D01*
X26430000Y-26420000D02*
X29870000Y-26420000D01*
X29150000Y-26420000D02*
X29150000Y-23580000D01*
X29270000Y-26420000D02*
X29270000Y-23580000D01*
X29390000Y-26420000D02*
X29390000Y-23580000D01*
X29870000Y-23580000D02*
X26430000Y-23580000D01*
X29870000Y-26420000D02*
X29870000Y-23580000D01*
X33260000Y-25000000D02*
X29870000Y-25000000D01*
%TO.C,R1*%
X53690000Y-55000000D02*
X54380000Y-55000000D01*
X54380000Y-53280000D02*
X54380000Y-56720000D01*
X54380000Y-56720000D02*
X63620000Y-56720000D01*
X63620000Y-53280000D02*
X54380000Y-53280000D01*
X63620000Y-56720000D02*
X63620000Y-53280000D01*
X64310000Y-55000000D02*
X63620000Y-55000000D01*
%TO.C,J9*%
X11700000Y-29900000D02*
X26400000Y-29900000D01*
X11700000Y-39100000D02*
X11700000Y-29900000D01*
X20500000Y-39100000D02*
X11700000Y-39100000D01*
X25550000Y-29700000D02*
X26600000Y-29700000D01*
X26400000Y-29900000D02*
X26400000Y-32500000D01*
X26400000Y-36400000D02*
X26400000Y-39100000D01*
X26400000Y-39100000D02*
X24500000Y-39100000D01*
X26600000Y-30750000D02*
X26600000Y-29700000D01*
%TD*%
%LPC*%
D14*
%TO.C,REF\u002A\u002A*%
X75000000Y-65000000D03*
%TD*%
D15*
%TO.C,R2*%
X52650000Y-51000000D03*
D16*
X65350000Y-51000000D03*
%TD*%
D17*
%TO.C,U1*%
X38500000Y-59080000D03*
X38500000Y-64160000D03*
X38500000Y-61620000D03*
X38500000Y-54000000D03*
X38500000Y-51460000D03*
X38500000Y-56540000D03*
X48660000Y-51460000D03*
X48660000Y-54000000D03*
X48660000Y-61620000D03*
X48660000Y-64160000D03*
X48660000Y-59080000D03*
X48660000Y-56540000D03*
%TD*%
D18*
%TO.C,BTN1-5*%
X74420000Y-35500000D03*
D19*
X76960000Y-35500000D03*
%TD*%
D20*
%TO.C,C4*%
X38000000Y-23010000D03*
D21*
X38000000Y-28090000D03*
%TD*%
D18*
%TO.C,BTN2-7*%
X74460000Y-42500000D03*
D19*
X77000000Y-42500000D03*
%TD*%
D18*
%TO.C,J6*%
X66460000Y-61500000D03*
D19*
X69000000Y-61500000D03*
%TD*%
D14*
%TO.C,REF\u002A\u002A*%
X15000000Y-25000000D03*
%TD*%
D22*
%TO.C,J1*%
X60000000Y-59460000D03*
D23*
X60000000Y-62000000D03*
X60000000Y-64540000D03*
X60000000Y-67080000D03*
%TD*%
D17*
%TO.C,U4*%
X44587500Y-67952500D03*
X44587500Y-60332500D03*
X44587500Y-62872500D03*
X44587500Y-65412500D03*
X44587500Y-52712500D03*
X44587500Y-57792500D03*
X44587500Y-55252500D03*
X44587500Y-50172500D03*
%TD*%
D24*
%TO.C,D1*%
X49500000Y-22300000D03*
D25*
X49500000Y-35000000D03*
%TD*%
D20*
%TO.C,C2*%
X43490000Y-35500000D03*
D21*
X38410000Y-35500000D03*
%TD*%
D26*
%TO.C,C3*%
X32500000Y-37197349D03*
D15*
X32500000Y-40997349D03*
%TD*%
D14*
%TO.C,REF\u002A\u002A*%
X75000000Y-25000000D03*
%TD*%
D18*
%TO.C,J4*%
X14960000Y-58500000D03*
D19*
X17500000Y-58500000D03*
X20040000Y-58500000D03*
X22580000Y-58500000D03*
%TD*%
D27*
%TO.C,U2*%
X69620000Y-42880000D03*
X69620000Y-40340000D03*
X69620000Y-37800000D03*
X69620000Y-35260000D03*
X69620000Y-30180000D03*
X69620000Y-32720000D03*
X54380000Y-25100000D03*
X69620000Y-25100000D03*
X54380000Y-27640000D03*
X54380000Y-30180000D03*
X54380000Y-32720000D03*
X54380000Y-35260000D03*
X54380000Y-37800000D03*
X54380000Y-40340000D03*
X54380000Y-42880000D03*
X69620000Y-27640000D03*
%TD*%
D28*
%TO.C,U3*%
X42555000Y-25500000D03*
D29*
X42555000Y-28040000D03*
X42555000Y-30580000D03*
%TD*%
D14*
%TO.C,REF\u002A\u002A*%
X15000000Y-65000000D03*
%TD*%
D18*
%TO.C,J7*%
X14920000Y-48000000D03*
D19*
X17460000Y-48000000D03*
X20000000Y-48000000D03*
X22540000Y-48000000D03*
%TD*%
D30*
%TO.C,J2*%
X76000000Y-54000000D03*
D23*
X76000000Y-51460000D03*
X76000000Y-48920000D03*
%TD*%
D26*
%TO.C,C1*%
X48300000Y-41000000D03*
D15*
X44500000Y-41000000D03*
%TD*%
D24*
%TO.C,D2*%
X34500000Y-25000000D03*
D25*
X21800000Y-25000000D03*
%TD*%
D15*
%TO.C,R1*%
X52650000Y-55000000D03*
D16*
X65350000Y-55000000D03*
%TD*%
D31*
%TO.C,J9*%
X25500000Y-34500000D03*
D32*
X19500000Y-34500000D03*
D33*
X22500000Y-39200000D03*
%TD*%
%LPD*%
M02*
