%TF.GenerationSoftware,KiCad,Pcbnew,8.0.9*%
%TF.CreationDate,2025-03-10T19:15:03+01:00*%
%TF.ProjectId,ld06_board,6c643036-5f62-46f6-9172-642e6b696361,rev?*%
%TF.SameCoordinates,Original*%
%TF.FileFunction,Copper,L2,Bot*%
%TF.FilePolarity,Positive*%
%FSLAX46Y46*%
G04 Gerber Fmt 4.6, Leading zero omitted, Abs format (unit mm)*
G04 Created by KiCad (PCBNEW 8.0.9) date 2025-03-10 19:15:03*
%MOMM*%
%LPD*%
G01*
G04 APERTURE LIST*
G04 Aperture macros list*
%AMRoundRect*
0 Rectangle with rounded corners*
0 $1 Rounding radius*
0 $2 $3 $4 $5 $6 $7 $8 $9 X,Y pos of 4 corners*
0 Add a 4 corners polygon primitive as box body*
4,1,4,$2,$3,$4,$5,$6,$7,$8,$9,$2,$3,0*
0 Add four circle primitives for the rounded corners*
1,1,$1+$1,$2,$3*
1,1,$1+$1,$4,$5*
1,1,$1+$1,$6,$7*
1,1,$1+$1,$8,$9*
0 Add four rect primitives between the rounded corners*
20,1,$1+$1,$2,$3,$4,$5,0*
20,1,$1+$1,$4,$5,$6,$7,0*
20,1,$1+$1,$6,$7,$8,$9,0*
20,1,$1+$1,$8,$9,$2,$3,0*%
G04 Aperture macros list end*
%TA.AperFunction,ComponentPad*%
%ADD10C,5.600000*%
%TD*%
%TA.AperFunction,ComponentPad*%
%ADD11C,1.600000*%
%TD*%
%TA.AperFunction,ComponentPad*%
%ADD12O,1.600000X1.600000*%
%TD*%
%TA.AperFunction,ComponentPad*%
%ADD13C,1.524000*%
%TD*%
%TA.AperFunction,ComponentPad*%
%ADD14RoundRect,0.250000X-0.620000X-0.845000X0.620000X-0.845000X0.620000X0.845000X-0.620000X0.845000X0*%
%TD*%
%TA.AperFunction,ComponentPad*%
%ADD15O,1.740000X2.190000*%
%TD*%
%TA.AperFunction,ComponentPad*%
%ADD16C,1.400000*%
%TD*%
%TA.AperFunction,ComponentPad*%
%ADD17O,1.400000X1.400000*%
%TD*%
%TA.AperFunction,ComponentPad*%
%ADD18RoundRect,0.250000X-0.845000X0.620000X-0.845000X-0.620000X0.845000X-0.620000X0.845000X0.620000X0*%
%TD*%
%TA.AperFunction,ComponentPad*%
%ADD19O,2.190000X1.740000*%
%TD*%
%TA.AperFunction,ComponentPad*%
%ADD20R,2.000000X2.000000*%
%TD*%
%TA.AperFunction,ComponentPad*%
%ADD21O,2.000000X2.000000*%
%TD*%
%TA.AperFunction,ComponentPad*%
%ADD22R,1.600000X1.600000*%
%TD*%
%TA.AperFunction,ComponentPad*%
%ADD23C,1.905000*%
%TD*%
%TA.AperFunction,ComponentPad*%
%ADD24R,2.000000X1.905000*%
%TD*%
%TA.AperFunction,ComponentPad*%
%ADD25O,2.000000X1.905000*%
%TD*%
%TA.AperFunction,ComponentPad*%
%ADD26RoundRect,0.250000X0.845000X-0.620000X0.845000X0.620000X-0.845000X0.620000X-0.845000X-0.620000X0*%
%TD*%
%TA.AperFunction,ComponentPad*%
%ADD27R,3.500000X3.500000*%
%TD*%
%TA.AperFunction,ComponentPad*%
%ADD28RoundRect,0.750000X-0.750000X-1.000000X0.750000X-1.000000X0.750000X1.000000X-0.750000X1.000000X0*%
%TD*%
%TA.AperFunction,ComponentPad*%
%ADD29RoundRect,0.875000X-0.875000X-0.875000X0.875000X-0.875000X0.875000X0.875000X-0.875000X0.875000X0*%
%TD*%
%TA.AperFunction,Conductor*%
%ADD30C,0.200000*%
%TD*%
G04 APERTURE END LIST*
D10*
%TO.P,REF\u002A\u002A,1*%
%TO.N,N/C*%
X75000000Y-65000000D03*
%TD*%
D11*
%TO.P,R2,1*%
%TO.N,/3V3_SCL*%
X52650000Y-51000000D03*
D12*
%TO.P,R2,2*%
%TO.N,+3V3*%
X65350000Y-51000000D03*
%TD*%
D13*
%TO.P,U1,1,VCCA*%
%TO.N,+5V*%
X38500000Y-59080000D03*
%TO.P,U1,2,A1*%
%TO.N,/I2C_SCL*%
X38500000Y-64160000D03*
%TO.P,U1,3,A2*%
%TO.N,/I2C_SDA*%
X38500000Y-61620000D03*
%TO.P,U1,4,A3*%
%TO.N,unconnected-(U1-A3-Pad4)*%
X38500000Y-54000000D03*
%TO.P,U1,5,A4*%
%TO.N,unconnected-(U1-A4-Pad5)*%
X38500000Y-51460000D03*
%TO.P,U1,6,GND*%
%TO.N,GND*%
X38500000Y-56540000D03*
%TO.P,U1,7,B4*%
%TO.N,unconnected-(U1-B4-Pad7)*%
X48660000Y-51460000D03*
%TO.P,U1,8,B3*%
%TO.N,unconnected-(U1-B3-Pad8)*%
X48660000Y-54000000D03*
%TO.P,U1,9,B2*%
%TO.N,/3V3_SDA*%
X48660000Y-61620000D03*
%TO.P,U1,10,B1*%
%TO.N,/3V3_SCL*%
X48660000Y-64160000D03*
%TO.P,U1,11,VCCB*%
%TO.N,+3V3*%
X48660000Y-59080000D03*
%TO.P,U1,12,~{OE}*%
%TO.N,unconnected-(U1-~{OE}-Pad12)*%
X48660000Y-56540000D03*
%TD*%
D14*
%TO.P,BTN1-5,1,Pin_1*%
%TO.N,/BTN1*%
X74420000Y-35500000D03*
D15*
%TO.P,BTN1-5,2,Pin_2*%
%TO.N,GND*%
X76960000Y-35500000D03*
%TD*%
D16*
%TO.P,C4,1*%
%TO.N,+12V*%
X38000000Y-23010000D03*
D17*
%TO.P,C4,2*%
%TO.N,GND*%
X38000000Y-28090000D03*
%TD*%
D14*
%TO.P,BTN2-7,1,Pin_1*%
%TO.N,/BTN2*%
X74460000Y-42500000D03*
D15*
%TO.P,BTN2-7,2,Pin_2*%
%TO.N,GND*%
X77000000Y-42500000D03*
%TD*%
D14*
%TO.P,J6,1,Pin_1*%
%TO.N,/RX(ESP)*%
X66460000Y-61500000D03*
D15*
%TO.P,J6,2,Pin_2*%
%TO.N,GND*%
X69000000Y-61500000D03*
%TD*%
D10*
%TO.P,REF\u002A\u002A,1*%
%TO.N,N/C*%
X15000000Y-25000000D03*
%TD*%
D18*
%TO.P,J1,1,Pin_1*%
%TO.N,/RX(ESP)*%
X60000000Y-59460000D03*
D19*
%TO.P,J1,2,Pin_2*%
%TO.N,/TX(ESP)*%
X60000000Y-62000000D03*
%TO.P,J1,3,Pin_3*%
%TO.N,GND*%
X60000000Y-64540000D03*
%TO.P,J1,4,Pin_4*%
%TO.N,+5V*%
X60000000Y-67080000D03*
%TD*%
D13*
%TO.P,U4,1,VCCA*%
%TO.N,+5V*%
X44587500Y-67952500D03*
%TO.P,U4,2,A1*%
%TO.N,/I2C_SCL*%
X44587500Y-60332500D03*
%TO.P,U4,3,A2*%
%TO.N,/I2C_SDA*%
X44587500Y-62872500D03*
%TO.P,U4,6,GND*%
%TO.N,GND*%
X44587500Y-65412500D03*
X44587500Y-52712500D03*
%TO.P,U4,9,B2*%
%TO.N,/3V3_SDA*%
X44587500Y-57792500D03*
%TO.P,U4,10,B1*%
%TO.N,/3V3_SCL*%
X44587500Y-55252500D03*
%TO.P,U4,11,VCCB*%
%TO.N,+3V3*%
X44587500Y-50172500D03*
%TD*%
D20*
%TO.P,D1,1,K*%
%TO.N,Net-(D1-K)*%
X49500000Y-22300000D03*
D21*
%TO.P,D1,2,A*%
%TO.N,+5V*%
X49500000Y-35000000D03*
%TD*%
D16*
%TO.P,C2,1*%
%TO.N,+5V*%
X43490000Y-35500000D03*
D17*
%TO.P,C2,2*%
%TO.N,GND*%
X38410000Y-35500000D03*
%TD*%
D22*
%TO.P,C3,1*%
%TO.N,+12V*%
X32500000Y-37197349D03*
D11*
%TO.P,C3,2*%
%TO.N,GND*%
X32500000Y-40997349D03*
%TD*%
D10*
%TO.P,REF\u002A\u002A,1*%
%TO.N,N/C*%
X75000000Y-25000000D03*
%TD*%
D14*
%TO.P,J4,1,Pin_1*%
%TO.N,+5V*%
X14960000Y-58500000D03*
D15*
%TO.P,J4,2,Pin_2*%
%TO.N,/I2C_SDA*%
X17500000Y-58500000D03*
%TO.P,J4,3,Pin_3*%
%TO.N,/I2C_SCL*%
X20040000Y-58500000D03*
%TO.P,J4,4,Pin_4*%
%TO.N,GND*%
X22580000Y-58500000D03*
%TD*%
D23*
%TO.P,U2,0,GPIO0*%
%TO.N,unconnected-(U2-GPIO0-Pad0)*%
X69620000Y-42880000D03*
%TO.P,U2,1,GPIO1*%
%TO.N,/LED_DIG*%
X69620000Y-40340000D03*
%TO.P,U2,2,GPIO2*%
%TO.N,unconnected-(U2-GPIO2-Pad2)*%
X69620000Y-37800000D03*
%TO.P,U2,3,GPIO3*%
%TO.N,/3V3_SDA*%
X69620000Y-35260000D03*
%TO.P,U2,3.3,3V3*%
%TO.N,+3V3*%
X69620000Y-30180000D03*
%TO.P,U2,4,GPIO4*%
%TO.N,/3V3_SCL*%
X69620000Y-32720000D03*
%TO.P,U2,5,GPIO5*%
%TO.N,/BTN1*%
X54380000Y-25100000D03*
%TO.P,U2,5V,5V*%
%TO.N,Net-(D1-K)*%
X69620000Y-25100000D03*
%TO.P,U2,6,GPIO6*%
%TO.N,unconnected-(U2-GPIO6-Pad6)*%
X54380000Y-27640000D03*
%TO.P,U2,7,GPIO7*%
%TO.N,/BTN2*%
X54380000Y-30180000D03*
%TO.P,U2,8,GPIO8*%
%TO.N,unconnected-(U2-GPIO8-Pad8)*%
X54380000Y-32720000D03*
%TO.P,U2,9,GPIO9*%
%TO.N,unconnected-(U2-GPIO9-Pad9)*%
X54380000Y-35260000D03*
%TO.P,U2,10,GPIO10*%
%TO.N,unconnected-(U2-GPIO10-Pad10)*%
X54380000Y-37800000D03*
%TO.P,U2,20,GPIO20*%
%TO.N,/RX(ESP)*%
X54380000Y-40340000D03*
%TO.P,U2,21,GPIO21*%
%TO.N,/TX(ESP)*%
X54380000Y-42880000D03*
%TO.P,U2,G,GND*%
%TO.N,GND*%
X69620000Y-27640000D03*
%TD*%
D24*
%TO.P,U3,1,VI*%
%TO.N,+12V*%
X42555000Y-25500000D03*
D25*
%TO.P,U3,2,GND*%
%TO.N,GND*%
X42555000Y-28040000D03*
%TO.P,U3,3,VO*%
%TO.N,+5V*%
X42555000Y-30580000D03*
%TD*%
D10*
%TO.P,REF\u002A\u002A,1*%
%TO.N,N/C*%
X15000000Y-65000000D03*
%TD*%
D14*
%TO.P,J7,1,Pin_1*%
%TO.N,+5V*%
X14920000Y-48000000D03*
D15*
%TO.P,J7,2,Pin_2*%
%TO.N,/I2C_SDA*%
X17460000Y-48000000D03*
%TO.P,J7,3,Pin_3*%
%TO.N,/I2C_SCL*%
X20000000Y-48000000D03*
%TO.P,J7,4,Pin_4*%
%TO.N,GND*%
X22540000Y-48000000D03*
%TD*%
D26*
%TO.P,J2,1,Pin_1*%
%TO.N,+5V*%
X76000000Y-54000000D03*
D19*
%TO.P,J2,2,Pin_2*%
%TO.N,/LED_DIG*%
X76000000Y-51460000D03*
%TO.P,J2,3,Pin_3*%
%TO.N,GND*%
X76000000Y-48920000D03*
%TD*%
D22*
%TO.P,C1,1*%
%TO.N,+5V*%
X48300000Y-41000000D03*
D11*
%TO.P,C1,2*%
%TO.N,GND*%
X44500000Y-41000000D03*
%TD*%
D20*
%TO.P,D2,1,K*%
%TO.N,+12V*%
X34500000Y-25000000D03*
D21*
%TO.P,D2,2,A*%
%TO.N,Net-(D2-A)*%
X21800000Y-25000000D03*
%TD*%
D11*
%TO.P,R1,1*%
%TO.N,/3V3_SDA*%
X52650000Y-55000000D03*
D12*
%TO.P,R1,2*%
%TO.N,+3V3*%
X65350000Y-55000000D03*
%TD*%
D27*
%TO.P,J9,1,Pin_1*%
%TO.N,Net-(D2-A)*%
X25500000Y-34500000D03*
D28*
%TO.P,J9,2,Pin_2*%
%TO.N,GND*%
X19500000Y-34500000D03*
D29*
%TO.P,J9,3*%
%TO.N,N/C*%
X22500000Y-39200000D03*
%TD*%
D30*
%TO.N,+3V3*%
X46500000Y-52085000D02*
X46500000Y-56920000D01*
X44587500Y-50172500D02*
X46500000Y-52085000D01*
X46500000Y-56920000D02*
X48660000Y-59080000D01*
%TD*%
%TA.AperFunction,Conductor*%
%TO.N,GND*%
G36*
X47935099Y-20520185D02*
G01*
X47980854Y-20572989D01*
X47990798Y-20642147D01*
X47961773Y-20705703D01*
X47955741Y-20712181D01*
X47870184Y-20797737D01*
X47774211Y-20950476D01*
X47714631Y-21120745D01*
X47714630Y-21120750D01*
X47699500Y-21255039D01*
X47699500Y-23344960D01*
X47714630Y-23479249D01*
X47714631Y-23479254D01*
X47774211Y-23649523D01*
X47851116Y-23771915D01*
X47870184Y-23802262D01*
X47997738Y-23929816D01*
X48150478Y-24025789D01*
X48320745Y-24085368D01*
X48320750Y-24085369D01*
X48411246Y-24095565D01*
X48455040Y-24100499D01*
X48455043Y-24100500D01*
X48455046Y-24100500D01*
X50544957Y-24100500D01*
X50544958Y-24100499D01*
X50612104Y-24092934D01*
X50679249Y-24085369D01*
X50679252Y-24085368D01*
X50679255Y-24085368D01*
X50849522Y-24025789D01*
X51002262Y-23929816D01*
X51129816Y-23802262D01*
X51225789Y-23649522D01*
X51285368Y-23479255D01*
X51287132Y-23463604D01*
X51300499Y-23344960D01*
X51300500Y-23344956D01*
X51300500Y-21255043D01*
X51300499Y-21255039D01*
X51285369Y-21120750D01*
X51285368Y-21120745D01*
X51225788Y-20950476D01*
X51129815Y-20797737D01*
X51044259Y-20712181D01*
X51010774Y-20650858D01*
X51015758Y-20581166D01*
X51057630Y-20525233D01*
X51123094Y-20500816D01*
X51131940Y-20500500D01*
X79375500Y-20500500D01*
X79442539Y-20520185D01*
X79488294Y-20572989D01*
X79499500Y-20624500D01*
X79499500Y-69375500D01*
X79479815Y-69442539D01*
X79427011Y-69488294D01*
X79375500Y-69499500D01*
X45493136Y-69499500D01*
X45426097Y-69479815D01*
X45380342Y-69427011D01*
X45370398Y-69357853D01*
X45399423Y-69294297D01*
X45428342Y-69269774D01*
X45508755Y-69220498D01*
X45695771Y-69060771D01*
X45855498Y-68873755D01*
X45984003Y-68664054D01*
X46078121Y-68436832D01*
X46135536Y-68197685D01*
X46154832Y-67952500D01*
X46135536Y-67707315D01*
X46078121Y-67468168D01*
X46078119Y-67468163D01*
X45984005Y-67240949D01*
X45984003Y-67240946D01*
X45855501Y-67031250D01*
X45855500Y-67031247D01*
X45803618Y-66970502D01*
X45695771Y-66844229D01*
X45572125Y-66738625D01*
X45508752Y-66684499D01*
X45508749Y-66684498D01*
X45344174Y-66583646D01*
X45297299Y-66531834D01*
X45285436Y-66467111D01*
X45285687Y-66464240D01*
X44671595Y-65850147D01*
X44759071Y-65826708D01*
X44860430Y-65768189D01*
X44943189Y-65685430D01*
X45001708Y-65584071D01*
X45025147Y-65496594D01*
X45639241Y-66110688D01*
X45684594Y-66045917D01*
X45684600Y-66045907D01*
X45777919Y-65845784D01*
X45777924Y-65845770D01*
X45835073Y-65632486D01*
X45835075Y-65632476D01*
X45854321Y-65412500D01*
X45854321Y-65412499D01*
X45835075Y-65192523D01*
X45835073Y-65192513D01*
X45777924Y-64979229D01*
X45777920Y-64979220D01*
X45684596Y-64779086D01*
X45639241Y-64714311D01*
X45639240Y-64714310D01*
X45025147Y-65328404D01*
X45001708Y-65240929D01*
X44943189Y-65139570D01*
X44860430Y-65056811D01*
X44759071Y-64998292D01*
X44671594Y-64974852D01*
X45285687Y-64360759D01*
X45285436Y-64357889D01*
X45299201Y-64289389D01*
X45344171Y-64241355D01*
X45508755Y-64140498D01*
X45695771Y-63980771D01*
X45855498Y-63793755D01*
X45984003Y-63584054D01*
X46078121Y-63356832D01*
X46135536Y-63117685D01*
X46154832Y-62872500D01*
X46135536Y-62627315D01*
X46078121Y-62388168D01*
X46054671Y-62331554D01*
X45984005Y-62160949D01*
X45984003Y-62160946D01*
X45855501Y-61951250D01*
X45855500Y-61951247D01*
X45695771Y-61764229D01*
X45679111Y-61750000D01*
X45616808Y-61696788D01*
X45578616Y-61638284D01*
X45578117Y-61568416D01*
X45615471Y-61509369D01*
X45616714Y-61508291D01*
X45695771Y-61440771D01*
X45855498Y-61253755D01*
X45984003Y-61044054D01*
X45992359Y-61023882D01*
X46056413Y-60869239D01*
X46078121Y-60816832D01*
X46135536Y-60577685D01*
X46154832Y-60332500D01*
X46135536Y-60087315D01*
X46078121Y-59848168D01*
X46054671Y-59791554D01*
X45984005Y-59620949D01*
X45984003Y-59620946D01*
X45855501Y-59411250D01*
X45855500Y-59411247D01*
X45695771Y-59224229D01*
X45616808Y-59156788D01*
X45578616Y-59098284D01*
X45578117Y-59028416D01*
X45615471Y-58969369D01*
X45616714Y-58968291D01*
X45695771Y-58900771D01*
X45855498Y-58713755D01*
X45984003Y-58504054D01*
X46078121Y-58276832D01*
X46124242Y-58084725D01*
X46159032Y-58024137D01*
X46221059Y-57991973D01*
X46290627Y-57998449D01*
X46332493Y-58025993D01*
X46674947Y-58368446D01*
X47073683Y-58767182D01*
X47107168Y-58828505D01*
X47109620Y-58864591D01*
X47094203Y-59060498D01*
X47092668Y-59080000D01*
X47093973Y-59096585D01*
X47111963Y-59325179D01*
X47111963Y-59325182D01*
X47111964Y-59325185D01*
X47132626Y-59411247D01*
X47169380Y-59564336D01*
X47263494Y-59791550D01*
X47263496Y-59791553D01*
X47391998Y-60001249D01*
X47391999Y-60001252D01*
X47443256Y-60061266D01*
X47551729Y-60188271D01*
X47625229Y-60251046D01*
X47630690Y-60255710D01*
X47668883Y-60314217D01*
X47669381Y-60384085D01*
X47632027Y-60443131D01*
X47630690Y-60444290D01*
X47551729Y-60511729D01*
X47391999Y-60698747D01*
X47391998Y-60698750D01*
X47263496Y-60908446D01*
X47263494Y-60908449D01*
X47169380Y-61135663D01*
X47111963Y-61374820D01*
X47092668Y-61620000D01*
X47111963Y-61865179D01*
X47111963Y-61865182D01*
X47111964Y-61865185D01*
X47167139Y-62095000D01*
X47169380Y-62104336D01*
X47263494Y-62331550D01*
X47263496Y-62331553D01*
X47391998Y-62541249D01*
X47391999Y-62541252D01*
X47431486Y-62587485D01*
X47551729Y-62728271D01*
X47600557Y-62769974D01*
X47630690Y-62795710D01*
X47668883Y-62854217D01*
X47669381Y-62924085D01*
X47632027Y-62983131D01*
X47630690Y-62984290D01*
X47551729Y-63051729D01*
X47391999Y-63238747D01*
X47391998Y-63238750D01*
X47263496Y-63448446D01*
X47263494Y-63448449D01*
X47169380Y-63675663D01*
X47111963Y-63914820D01*
X47092668Y-64160000D01*
X47111963Y-64405179D01*
X47111963Y-64405182D01*
X47111964Y-64405185D01*
X47163137Y-64618333D01*
X47169380Y-64644336D01*
X47263494Y-64871550D01*
X47263496Y-64871553D01*
X47391998Y-65081249D01*
X47391999Y-65081252D01*
X47392002Y-65081255D01*
X47551729Y-65268271D01*
X47678883Y-65376871D01*
X47738747Y-65428000D01*
X47738749Y-65428000D01*
X47847689Y-65494759D01*
X47948446Y-65556503D01*
X47948449Y-65556505D01*
X48131886Y-65632486D01*
X48175668Y-65650621D01*
X48414815Y-65708036D01*
X48660000Y-65727332D01*
X48905185Y-65708036D01*
X49144332Y-65650621D01*
X49304999Y-65584071D01*
X49371550Y-65556505D01*
X49371551Y-65556504D01*
X49371554Y-65556503D01*
X49581255Y-65427998D01*
X49768271Y-65268271D01*
X49927998Y-65081255D01*
X50056503Y-64871554D01*
X50150621Y-64644332D01*
X50208036Y-64405185D01*
X50227332Y-64160000D01*
X50208036Y-63914815D01*
X50150621Y-63675668D01*
X50113165Y-63585241D01*
X50056505Y-63448449D01*
X50056503Y-63448446D01*
X49940192Y-63258644D01*
X49928000Y-63238749D01*
X49928000Y-63238747D01*
X49768271Y-63051729D01*
X49689308Y-62984288D01*
X49651116Y-62925784D01*
X49650617Y-62855916D01*
X49687971Y-62796869D01*
X49689214Y-62795791D01*
X49768271Y-62728271D01*
X49927998Y-62541255D01*
X50056503Y-62331554D01*
X50061028Y-62320631D01*
X50103562Y-62217943D01*
X50150621Y-62104332D01*
X50208036Y-61865185D01*
X50227332Y-61620000D01*
X50208036Y-61374815D01*
X50150621Y-61135668D01*
X50123391Y-61069929D01*
X50056505Y-60908449D01*
X50056503Y-60908446D01*
X49928001Y-60698750D01*
X49928000Y-60698747D01*
X49768271Y-60511729D01*
X49689308Y-60444288D01*
X49651116Y-60385784D01*
X49650617Y-60315916D01*
X49687971Y-60256869D01*
X49689214Y-60255791D01*
X49768271Y-60188271D01*
X49927998Y-60001255D01*
X50056503Y-59791554D01*
X50074149Y-59748954D01*
X50118323Y-59642306D01*
X50150621Y-59564332D01*
X50208036Y-59325185D01*
X50227332Y-59080000D01*
X50208036Y-58834815D01*
X50196891Y-58788392D01*
X58104500Y-58788392D01*
X58104500Y-60131608D01*
X58109227Y-60179598D01*
X58119699Y-60285932D01*
X58119700Y-60285934D01*
X58179768Y-60483954D01*
X58277315Y-60666450D01*
X58277317Y-60666452D01*
X58408588Y-60826409D01*
X58414809Y-60831514D01*
X58454143Y-60889260D01*
X58456012Y-60959105D01*
X58434519Y-61002852D01*
X58383049Y-61069929D01*
X58273565Y-61259561D01*
X58273560Y-61259573D01*
X58189758Y-61461884D01*
X58133084Y-61673399D01*
X58133082Y-61673410D01*
X58104500Y-61890502D01*
X58104500Y-62109497D01*
X58123117Y-62250901D01*
X58133083Y-62326598D01*
X58133084Y-62326600D01*
X58189758Y-62538115D01*
X58191059Y-62541255D01*
X58273560Y-62740428D01*
X58273562Y-62740433D01*
X58273565Y-62740438D01*
X58383049Y-62930070D01*
X58516355Y-63103798D01*
X58516361Y-63103805D01*
X58671194Y-63258638D01*
X58671201Y-63258644D01*
X58812335Y-63366940D01*
X58853538Y-63423368D01*
X58857693Y-63493114D01*
X58824531Y-63552997D01*
X58730022Y-63647506D01*
X58603271Y-63821963D01*
X58505372Y-64014098D01*
X58438733Y-64219190D01*
X58427519Y-64290000D01*
X59457291Y-64290000D01*
X59445548Y-64310339D01*
X59405000Y-64461667D01*
X59405000Y-64618333D01*
X59445548Y-64769661D01*
X59457291Y-64790000D01*
X58427519Y-64790000D01*
X58438733Y-64860809D01*
X58505372Y-65065901D01*
X58603271Y-65258036D01*
X58730025Y-65432496D01*
X58730025Y-65432497D01*
X58824530Y-65527002D01*
X58858015Y-65588325D01*
X58853031Y-65658017D01*
X58812336Y-65713059D01*
X58671194Y-65821361D01*
X58516361Y-65976194D01*
X58516355Y-65976201D01*
X58383049Y-66149929D01*
X58273565Y-66339561D01*
X58273560Y-66339573D01*
X58189758Y-66541884D01*
X58133084Y-66753399D01*
X58133082Y-66753410D01*
X58104500Y-66970502D01*
X58104500Y-67189497D01*
X58128306Y-67370314D01*
X58133083Y-67406598D01*
X58189759Y-67618117D01*
X58273560Y-67820428D01*
X58273562Y-67820433D01*
X58273565Y-67820438D01*
X58383049Y-68010070D01*
X58516355Y-68183798D01*
X58516361Y-68183805D01*
X58671194Y-68338638D01*
X58671201Y-68338644D01*
X58844929Y-68471950D01*
X59034561Y-68581434D01*
X59034563Y-68581434D01*
X59034572Y-68581440D01*
X59236883Y-68665241D01*
X59448402Y-68721917D01*
X59665510Y-68750500D01*
X59665517Y-68750500D01*
X60334483Y-68750500D01*
X60334490Y-68750500D01*
X60551598Y-68721917D01*
X60763117Y-68665241D01*
X60965428Y-68581440D01*
X61155071Y-68471950D01*
X61328800Y-68338643D01*
X61483643Y-68183800D01*
X61616950Y-68010071D01*
X61726440Y-67820428D01*
X61810241Y-67618117D01*
X61866917Y-67406598D01*
X61895500Y-67189490D01*
X61895500Y-66970510D01*
X61866917Y-66753402D01*
X61810241Y-66541883D01*
X61726440Y-66339572D01*
X61616950Y-66149929D01*
X61483644Y-65976201D01*
X61483638Y-65976194D01*
X61328805Y-65821361D01*
X61328798Y-65821355D01*
X61187664Y-65713059D01*
X61146461Y-65656631D01*
X61142306Y-65586885D01*
X61175469Y-65527001D01*
X61269977Y-65432493D01*
X61396728Y-65258036D01*
X61494627Y-65065901D01*
X61516040Y-64999999D01*
X71394559Y-64999999D01*
X71394559Y-65000000D01*
X71414310Y-65376872D01*
X71473346Y-65749607D01*
X71473347Y-65749614D01*
X71571023Y-66114147D01*
X71706267Y-66466468D01*
X71877599Y-66802725D01*
X72083135Y-67119223D01*
X72181707Y-67240949D01*
X72320635Y-67412511D01*
X72587489Y-67679365D01*
X72622011Y-67707320D01*
X72880776Y-67916864D01*
X73197274Y-68122400D01*
X73197279Y-68122403D01*
X73533535Y-68293734D01*
X73885857Y-68428978D01*
X74250387Y-68526653D01*
X74623129Y-68585690D01*
X74979155Y-68604348D01*
X74999999Y-68605441D01*
X75000000Y-68605441D01*
X75000001Y-68605441D01*
X75019752Y-68604405D01*
X75376871Y-68585690D01*
X75749613Y-68526653D01*
X76114143Y-68428978D01*
X76466465Y-68293734D01*
X76802721Y-68122403D01*
X77119225Y-67916863D01*
X77412511Y-67679365D01*
X77679365Y-67412511D01*
X77916863Y-67119225D01*
X78122403Y-66802721D01*
X78293734Y-66466465D01*
X78428978Y-66114143D01*
X78526653Y-65749613D01*
X78585690Y-65376871D01*
X78605441Y-65000000D01*
X78605351Y-64998292D01*
X78594435Y-64790000D01*
X78585690Y-64623129D01*
X78526653Y-64250387D01*
X78428978Y-63885857D01*
X78293734Y-63533535D01*
X78122403Y-63197280D01*
X78061697Y-63103800D01*
X77916864Y-62880776D01*
X77679368Y-62587493D01*
X77679365Y-62587489D01*
X77412511Y-62320635D01*
X77215315Y-62160949D01*
X77119223Y-62083135D01*
X76802725Y-61877599D01*
X76466468Y-61706267D01*
X76114147Y-61571023D01*
X75749614Y-61473347D01*
X75749607Y-61473346D01*
X75376872Y-61414310D01*
X75000001Y-61394559D01*
X74999999Y-61394559D01*
X74623127Y-61414310D01*
X74250392Y-61473346D01*
X74250385Y-61473347D01*
X73885852Y-61571023D01*
X73533531Y-61706267D01*
X73197275Y-61877599D01*
X72880776Y-62083135D01*
X72587493Y-62320631D01*
X72587485Y-62320638D01*
X72320638Y-62587485D01*
X72320631Y-62587493D01*
X72083135Y-62880776D01*
X71877599Y-63197275D01*
X71706267Y-63533531D01*
X71571023Y-63885852D01*
X71473347Y-64250385D01*
X71473346Y-64250392D01*
X71414310Y-64623127D01*
X71394559Y-64999999D01*
X61516040Y-64999999D01*
X61561266Y-64860809D01*
X61572481Y-64790000D01*
X60542709Y-64790000D01*
X60554452Y-64769661D01*
X60595000Y-64618333D01*
X60595000Y-64461667D01*
X60554452Y-64310339D01*
X60542709Y-64290000D01*
X61572481Y-64290000D01*
X61561266Y-64219190D01*
X61494627Y-64014098D01*
X61396728Y-63821963D01*
X61269974Y-63647503D01*
X61269974Y-63647502D01*
X61175469Y-63552997D01*
X61141984Y-63491674D01*
X61146968Y-63421982D01*
X61187663Y-63366941D01*
X61328800Y-63258643D01*
X61483643Y-63103800D01*
X61616950Y-62930071D01*
X61726440Y-62740428D01*
X61810241Y-62538117D01*
X61866917Y-62326598D01*
X61895500Y-62109490D01*
X61895500Y-61890510D01*
X61866917Y-61673402D01*
X61810241Y-61461883D01*
X61726440Y-61259572D01*
X61720914Y-61250000D01*
X61616953Y-61069933D01*
X61597095Y-61044054D01*
X61565479Y-61002851D01*
X61540286Y-60937683D01*
X61554324Y-60869239D01*
X61585190Y-60831513D01*
X61591410Y-60826410D01*
X61722685Y-60666450D01*
X61756389Y-60603395D01*
X64789500Y-60603395D01*
X64789500Y-62396604D01*
X64804699Y-62550932D01*
X64815790Y-62587493D01*
X64864768Y-62748954D01*
X64962315Y-62931450D01*
X64996969Y-62973677D01*
X65093589Y-63091410D01*
X65125606Y-63117685D01*
X65253550Y-63222685D01*
X65436046Y-63320232D01*
X65634066Y-63380300D01*
X65634065Y-63380300D01*
X65672647Y-63384100D01*
X65788392Y-63395500D01*
X65788395Y-63395500D01*
X67131605Y-63395500D01*
X67131608Y-63395500D01*
X67285934Y-63380300D01*
X67483954Y-63320232D01*
X67666450Y-63222685D01*
X67826410Y-63091410D01*
X67957685Y-62931450D01*
X67994667Y-62862261D01*
X68043626Y-62812422D01*
X68111763Y-62796961D01*
X68176908Y-62820401D01*
X68281963Y-62896728D01*
X68474098Y-62994627D01*
X68679190Y-63061266D01*
X68750000Y-63072481D01*
X68750000Y-62042709D01*
X68770339Y-62054452D01*
X68921667Y-62095000D01*
X69078333Y-62095000D01*
X69229661Y-62054452D01*
X69250000Y-62042709D01*
X69250000Y-63072480D01*
X69320809Y-63061266D01*
X69525901Y-62994627D01*
X69718036Y-62896728D01*
X69892496Y-62769974D01*
X69892497Y-62769974D01*
X70044974Y-62617497D01*
X70044974Y-62617496D01*
X70171728Y-62443036D01*
X70269627Y-62250901D01*
X70336265Y-62045809D01*
X70370000Y-61832820D01*
X70370000Y-61750000D01*
X69542709Y-61750000D01*
X69554452Y-61729661D01*
X69595000Y-61578333D01*
X69595000Y-61421667D01*
X69554452Y-61270339D01*
X69542709Y-61250000D01*
X70370000Y-61250000D01*
X70370000Y-61167179D01*
X70336265Y-60954190D01*
X70269627Y-60749098D01*
X70171728Y-60556963D01*
X70044974Y-60382503D01*
X70044974Y-60382502D01*
X69892497Y-60230025D01*
X69718036Y-60103271D01*
X69525899Y-60005372D01*
X69320805Y-59938733D01*
X69250000Y-59927518D01*
X69250000Y-60957290D01*
X69229661Y-60945548D01*
X69078333Y-60905000D01*
X68921667Y-60905000D01*
X68770339Y-60945548D01*
X68750000Y-60957290D01*
X68750000Y-59927518D01*
X68749999Y-59927518D01*
X68679194Y-59938733D01*
X68474100Y-60005372D01*
X68281960Y-60103273D01*
X68176907Y-60179598D01*
X68111101Y-60203078D01*
X68043047Y-60187252D01*
X67994664Y-60137733D01*
X67983555Y-60116950D01*
X67957685Y-60068550D01*
X67957684Y-60068548D01*
X67826410Y-59908589D01*
X67683799Y-59791553D01*
X67666450Y-59777315D01*
X67483954Y-59679768D01*
X67285934Y-59619700D01*
X67285932Y-59619699D01*
X67285934Y-59619699D01*
X67166805Y-59607966D01*
X67131608Y-59604500D01*
X65788392Y-59604500D01*
X65750298Y-59608251D01*
X65634067Y-59619699D01*
X65436043Y-59679769D01*
X65325898Y-59738643D01*
X65253550Y-59777315D01*
X65253548Y-59777316D01*
X65253547Y-59777317D01*
X65093589Y-59908589D01*
X64962317Y-60068547D01*
X64962316Y-60068548D01*
X64962315Y-60068550D01*
X64936443Y-60116953D01*
X64864769Y-60251043D01*
X64804699Y-60449067D01*
X64789500Y-60603395D01*
X61756389Y-60603395D01*
X61820232Y-60483954D01*
X61880300Y-60285934D01*
X61895500Y-60131608D01*
X61895500Y-58788392D01*
X61880300Y-58634066D01*
X61820232Y-58436046D01*
X61722685Y-58253550D01*
X61625117Y-58134662D01*
X61591410Y-58093589D01*
X61431452Y-57962317D01*
X61431453Y-57962317D01*
X61431450Y-57962315D01*
X61248954Y-57864768D01*
X61050934Y-57804700D01*
X61050932Y-57804699D01*
X61050934Y-57804699D01*
X60927067Y-57792500D01*
X60896608Y-57789500D01*
X59103392Y-57789500D01*
X59065298Y-57793251D01*
X58949067Y-57804699D01*
X58751043Y-57864769D01*
X58677104Y-57904291D01*
X58568550Y-57962315D01*
X58568548Y-57962316D01*
X58568547Y-57962317D01*
X58408589Y-58093589D01*
X58280228Y-58250000D01*
X58277315Y-58253550D01*
X58238643Y-58325898D01*
X58179769Y-58436043D01*
X58119699Y-58634067D01*
X58108281Y-58750000D01*
X58104500Y-58788392D01*
X50196891Y-58788392D01*
X50150621Y-58595668D01*
X50143441Y-58578333D01*
X50056505Y-58368449D01*
X50056503Y-58368446D01*
X49928001Y-58158750D01*
X49928000Y-58158747D01*
X49768271Y-57971729D01*
X49757251Y-57962317D01*
X49689308Y-57904288D01*
X49651116Y-57845784D01*
X49650617Y-57775916D01*
X49687971Y-57716869D01*
X49689214Y-57715791D01*
X49768271Y-57648271D01*
X49927998Y-57461255D01*
X50056503Y-57251554D01*
X50056714Y-57251046D01*
X50109596Y-57123376D01*
X50150621Y-57024332D01*
X50208036Y-56785185D01*
X50227332Y-56540000D01*
X50208036Y-56294815D01*
X50150621Y-56055668D01*
X50150619Y-56055663D01*
X50056505Y-55828449D01*
X50056503Y-55828446D01*
X49995476Y-55728859D01*
X49928000Y-55618749D01*
X49928000Y-55618747D01*
X49768271Y-55431729D01*
X49755314Y-55420663D01*
X49689308Y-55364288D01*
X49651116Y-55305784D01*
X49650617Y-55235916D01*
X49687971Y-55176869D01*
X49689214Y-55175791D01*
X49768271Y-55108271D01*
X49860743Y-55000000D01*
X51044551Y-55000000D01*
X51064317Y-55251151D01*
X51123126Y-55496110D01*
X51219533Y-55728859D01*
X51351160Y-55943653D01*
X51351161Y-55943656D01*
X51368582Y-55964053D01*
X51514776Y-56135224D01*
X51663066Y-56261875D01*
X51706343Y-56298838D01*
X51706346Y-56298839D01*
X51921140Y-56430466D01*
X51951386Y-56442994D01*
X52153889Y-56526873D01*
X52398852Y-56585683D01*
X52650000Y-56605449D01*
X52901148Y-56585683D01*
X53146111Y-56526873D01*
X53378859Y-56430466D01*
X53593659Y-56298836D01*
X53785224Y-56135224D01*
X53948836Y-55943659D01*
X54080466Y-55728859D01*
X54176873Y-55496111D01*
X54235683Y-55251148D01*
X54255449Y-55000000D01*
X63744551Y-55000000D01*
X63764317Y-55251151D01*
X63823126Y-55496110D01*
X63919533Y-55728859D01*
X64051160Y-55943653D01*
X64051161Y-55943656D01*
X64068582Y-55964053D01*
X64214776Y-56135224D01*
X64363066Y-56261875D01*
X64406343Y-56298838D01*
X64406346Y-56298839D01*
X64621140Y-56430466D01*
X64651386Y-56442994D01*
X64853889Y-56526873D01*
X65098852Y-56585683D01*
X65350000Y-56605449D01*
X65601148Y-56585683D01*
X65846111Y-56526873D01*
X66078859Y-56430466D01*
X66293659Y-56298836D01*
X66485224Y-56135224D01*
X66648836Y-55943659D01*
X66780466Y-55728859D01*
X66876873Y-55496111D01*
X66935683Y-55251148D01*
X66955449Y-55000000D01*
X66935683Y-54748852D01*
X66876873Y-54503889D01*
X66780466Y-54271141D01*
X66780466Y-54271140D01*
X66648839Y-54056346D01*
X66648838Y-54056343D01*
X66600716Y-54000000D01*
X66485224Y-53864776D01*
X66297523Y-53704464D01*
X66293656Y-53701161D01*
X66293653Y-53701160D01*
X66078859Y-53569533D01*
X65846110Y-53473126D01*
X65601151Y-53414317D01*
X65350000Y-53394551D01*
X65098848Y-53414317D01*
X64853889Y-53473126D01*
X64621140Y-53569533D01*
X64406346Y-53701160D01*
X64406343Y-53701161D01*
X64214776Y-53864776D01*
X64051161Y-54056343D01*
X64051160Y-54056346D01*
X63919533Y-54271140D01*
X63823126Y-54503889D01*
X63764317Y-54748848D01*
X63744551Y-55000000D01*
X54255449Y-55000000D01*
X54235683Y-54748852D01*
X54176873Y-54503889D01*
X54080466Y-54271141D01*
X54080466Y-54271140D01*
X53948839Y-54056346D01*
X53948838Y-54056343D01*
X53900716Y-54000000D01*
X53785224Y-53864776D01*
X53597523Y-53704464D01*
X53593656Y-53701161D01*
X53593653Y-53701160D01*
X53378859Y-53569533D01*
X53146110Y-53473126D01*
X52901151Y-53414317D01*
X52650000Y-53394551D01*
X52398848Y-53414317D01*
X52153889Y-53473126D01*
X51921140Y-53569533D01*
X51706346Y-53701160D01*
X51706343Y-53701161D01*
X51514776Y-53864776D01*
X51351161Y-54056343D01*
X51351160Y-54056346D01*
X51219533Y-54271140D01*
X51123126Y-54503889D01*
X51064317Y-54748848D01*
X51044551Y-55000000D01*
X49860743Y-55000000D01*
X49927998Y-54921255D01*
X50056503Y-54711554D01*
X50150621Y-54484332D01*
X50208036Y-54245185D01*
X50227332Y-54000000D01*
X50208036Y-53754815D01*
X50150621Y-53515668D01*
X50133000Y-53473126D01*
X50056505Y-53288449D01*
X50056503Y-53288446D01*
X49928001Y-53078750D01*
X49928000Y-53078747D01*
X49768271Y-52891729D01*
X49689308Y-52824288D01*
X49651116Y-52765784D01*
X49650617Y-52695916D01*
X49687971Y-52636869D01*
X49689214Y-52635791D01*
X49768271Y-52568271D01*
X49927998Y-52381255D01*
X50056503Y-52171554D01*
X50071552Y-52135224D01*
X50121635Y-52014311D01*
X50150621Y-51944332D01*
X50208036Y-51705185D01*
X50227332Y-51460000D01*
X50208036Y-51214815D01*
X50156463Y-51000000D01*
X51044551Y-51000000D01*
X51064317Y-51251151D01*
X51123126Y-51496110D01*
X51219533Y-51728859D01*
X51351160Y-51943653D01*
X51351161Y-51943656D01*
X51406604Y-52008571D01*
X51514776Y-52135224D01*
X51591132Y-52200438D01*
X51706343Y-52298838D01*
X51706346Y-52298839D01*
X51921140Y-52430466D01*
X52142887Y-52522316D01*
X52153889Y-52526873D01*
X52398852Y-52585683D01*
X52650000Y-52605449D01*
X52901148Y-52585683D01*
X53146111Y-52526873D01*
X53378859Y-52430466D01*
X53593659Y-52298836D01*
X53785224Y-52135224D01*
X53948836Y-51943659D01*
X54080466Y-51728859D01*
X54176873Y-51496111D01*
X54235683Y-51251148D01*
X54255449Y-51000000D01*
X63744551Y-51000000D01*
X63764317Y-51251151D01*
X63823126Y-51496110D01*
X63919533Y-51728859D01*
X64051160Y-51943653D01*
X64051161Y-51943656D01*
X64106604Y-52008571D01*
X64214776Y-52135224D01*
X64291132Y-52200438D01*
X64406343Y-52298838D01*
X64406346Y-52298839D01*
X64621140Y-52430466D01*
X64842887Y-52522316D01*
X64853889Y-52526873D01*
X65098852Y-52585683D01*
X65350000Y-52605449D01*
X65601148Y-52585683D01*
X65846111Y-52526873D01*
X66078859Y-52430466D01*
X66293659Y-52298836D01*
X66485224Y-52135224D01*
X66648836Y-51943659D01*
X66780466Y-51728859D01*
X66876873Y-51496111D01*
X66911830Y-51350502D01*
X74104500Y-51350502D01*
X74104500Y-51569497D01*
X74124386Y-51720536D01*
X74133083Y-51786598D01*
X74133084Y-51786600D01*
X74175348Y-51944336D01*
X74189759Y-51998117D01*
X74273560Y-52200428D01*
X74273562Y-52200433D01*
X74273565Y-52200438D01*
X74383049Y-52390070D01*
X74434519Y-52457147D01*
X74459713Y-52522316D01*
X74445675Y-52590761D01*
X74414810Y-52628484D01*
X74408591Y-52633587D01*
X74277317Y-52793547D01*
X74277315Y-52793550D01*
X74238643Y-52865898D01*
X74179769Y-52976043D01*
X74119699Y-53174067D01*
X74104500Y-53328395D01*
X74104500Y-54671604D01*
X74119699Y-54825932D01*
X74119700Y-54825934D01*
X74179768Y-55023954D01*
X74277315Y-55206450D01*
X74277317Y-55206452D01*
X74408589Y-55366410D01*
X74470099Y-55416889D01*
X74568550Y-55497685D01*
X74751046Y-55595232D01*
X74949066Y-55655300D01*
X74949065Y-55655300D01*
X74987647Y-55659100D01*
X75103392Y-55670500D01*
X75103395Y-55670500D01*
X76896605Y-55670500D01*
X76896608Y-55670500D01*
X77050934Y-55655300D01*
X77248954Y-55595232D01*
X77431450Y-55497685D01*
X77591410Y-55366410D01*
X77722685Y-55206450D01*
X77820232Y-55023954D01*
X77880300Y-54825934D01*
X77895500Y-54671608D01*
X77895500Y-53328392D01*
X77880300Y-53174066D01*
X77820232Y-52976046D01*
X77722685Y-52793550D01*
X77591410Y-52633590D01*
X77585192Y-52628487D01*
X77545858Y-52570743D01*
X77543986Y-52500898D01*
X77565481Y-52457146D01*
X77585954Y-52430466D01*
X77616950Y-52390071D01*
X77726440Y-52200428D01*
X77810241Y-51998117D01*
X77866917Y-51786598D01*
X77895500Y-51569490D01*
X77895500Y-51350510D01*
X77866917Y-51133402D01*
X77810241Y-50921883D01*
X77726440Y-50719572D01*
X77690219Y-50656836D01*
X77616950Y-50529929D01*
X77483644Y-50356201D01*
X77483638Y-50356194D01*
X77328805Y-50201361D01*
X77328798Y-50201355D01*
X77187664Y-50093059D01*
X77146461Y-50036631D01*
X77142306Y-49966885D01*
X77175469Y-49907001D01*
X77269977Y-49812493D01*
X77396728Y-49638036D01*
X77494627Y-49445901D01*
X77561266Y-49240809D01*
X77572481Y-49170000D01*
X76542709Y-49170000D01*
X76554452Y-49149661D01*
X76595000Y-48998333D01*
X76595000Y-48841667D01*
X76554452Y-48690339D01*
X76542709Y-48670000D01*
X77572481Y-48670000D01*
X77561266Y-48599190D01*
X77494627Y-48394098D01*
X77396728Y-48201963D01*
X77269974Y-48027503D01*
X77269974Y-48027502D01*
X77117497Y-47875025D01*
X76943036Y-47748271D01*
X76750901Y-47650372D01*
X76545809Y-47583734D01*
X76332820Y-47550000D01*
X76250000Y-47550000D01*
X76250000Y-48377290D01*
X76229661Y-48365548D01*
X76078333Y-48325000D01*
X75921667Y-48325000D01*
X75770339Y-48365548D01*
X75750000Y-48377290D01*
X75750000Y-47550000D01*
X75667180Y-47550000D01*
X75454190Y-47583734D01*
X75249098Y-47650372D01*
X75056963Y-47748271D01*
X74882503Y-47875025D01*
X74882502Y-47875025D01*
X74730025Y-48027502D01*
X74730025Y-48027503D01*
X74603271Y-48201963D01*
X74505372Y-48394098D01*
X74438733Y-48599190D01*
X74427519Y-48670000D01*
X75457291Y-48670000D01*
X75445548Y-48690339D01*
X75405000Y-48841667D01*
X75405000Y-48998333D01*
X75445548Y-49149661D01*
X75457291Y-49170000D01*
X74427519Y-49170000D01*
X74438733Y-49240809D01*
X74505372Y-49445901D01*
X74603271Y-49638036D01*
X74730025Y-49812496D01*
X74730025Y-49812497D01*
X74824530Y-49907002D01*
X74858015Y-49968325D01*
X74853031Y-50038017D01*
X74812336Y-50093059D01*
X74671194Y-50201361D01*
X74516361Y-50356194D01*
X74516355Y-50356201D01*
X74383049Y-50529929D01*
X74273565Y-50719561D01*
X74273561Y-50719569D01*
X74273560Y-50719572D01*
X74261432Y-50748852D01*
X74189758Y-50921884D01*
X74133084Y-51133399D01*
X74133082Y-51133410D01*
X74104500Y-51350502D01*
X66911830Y-51350502D01*
X66935683Y-51251148D01*
X66955449Y-51000000D01*
X66935683Y-50748852D01*
X66876873Y-50503889D01*
X66841164Y-50417679D01*
X66780466Y-50271140D01*
X66648839Y-50056346D01*
X66648838Y-50056343D01*
X66565323Y-49958560D01*
X66485224Y-49864776D01*
X66358571Y-49756604D01*
X66293656Y-49701161D01*
X66293653Y-49701160D01*
X66078859Y-49569533D01*
X65846110Y-49473126D01*
X65601151Y-49414317D01*
X65350000Y-49394551D01*
X65098848Y-49414317D01*
X64853889Y-49473126D01*
X64621140Y-49569533D01*
X64406346Y-49701160D01*
X64406343Y-49701161D01*
X64214776Y-49864776D01*
X64051161Y-50056343D01*
X64051160Y-50056346D01*
X63919533Y-50271140D01*
X63823126Y-50503889D01*
X63764317Y-50748848D01*
X63744551Y-51000000D01*
X54255449Y-51000000D01*
X54235683Y-50748852D01*
X54176873Y-50503889D01*
X54141164Y-50417679D01*
X54080466Y-50271140D01*
X53948839Y-50056346D01*
X53948838Y-50056343D01*
X53865323Y-49958560D01*
X53785224Y-49864776D01*
X53658571Y-49756604D01*
X53593656Y-49701161D01*
X53593653Y-49701160D01*
X53378859Y-49569533D01*
X53146110Y-49473126D01*
X52901151Y-49414317D01*
X52650000Y-49394551D01*
X52398848Y-49414317D01*
X52153889Y-49473126D01*
X51921140Y-49569533D01*
X51706346Y-49701160D01*
X51706343Y-49701161D01*
X51514776Y-49864776D01*
X51351161Y-50056343D01*
X51351160Y-50056346D01*
X51219533Y-50271140D01*
X51123126Y-50503889D01*
X51064317Y-50748848D01*
X51044551Y-51000000D01*
X50156463Y-51000000D01*
X50150621Y-50975668D01*
X50128343Y-50921883D01*
X50056505Y-50748449D01*
X50056503Y-50748446D01*
X49928001Y-50538750D01*
X49928000Y-50538747D01*
X49829990Y-50423993D01*
X49768271Y-50351729D01*
X49592213Y-50201361D01*
X49581252Y-50191999D01*
X49581249Y-50191998D01*
X49371553Y-50063496D01*
X49371550Y-50063494D01*
X49144336Y-49969380D01*
X49099268Y-49958560D01*
X48905185Y-49911964D01*
X48905182Y-49911963D01*
X48905179Y-49911963D01*
X48660000Y-49892668D01*
X48414820Y-49911963D01*
X48414816Y-49911963D01*
X48414815Y-49911964D01*
X48350854Y-49927320D01*
X48175663Y-49969380D01*
X47948449Y-50063494D01*
X47948446Y-50063496D01*
X47738750Y-50191998D01*
X47738747Y-50191999D01*
X47551729Y-50351729D01*
X47391999Y-50538747D01*
X47391998Y-50538750D01*
X47263496Y-50748446D01*
X47263494Y-50748449D01*
X47169380Y-50975663D01*
X47123258Y-51167771D01*
X47088466Y-51228363D01*
X47026440Y-51260526D01*
X46956871Y-51254050D01*
X46915003Y-51226504D01*
X46610382Y-50921883D01*
X46173813Y-50485313D01*
X46140330Y-50423993D01*
X46137878Y-50387916D01*
X46154832Y-50172500D01*
X46135536Y-49927315D01*
X46078121Y-49688168D01*
X46035468Y-49585194D01*
X45984005Y-49460949D01*
X45984003Y-49460946D01*
X45855501Y-49251250D01*
X45855500Y-49251247D01*
X45819415Y-49208998D01*
X45695771Y-49064229D01*
X45572125Y-48958625D01*
X45508752Y-48904499D01*
X45508749Y-48904498D01*
X45299053Y-48775996D01*
X45299050Y-48775994D01*
X45071836Y-48681880D01*
X45022353Y-48670000D01*
X44832685Y-48624464D01*
X44832682Y-48624463D01*
X44832679Y-48624463D01*
X44587500Y-48605168D01*
X44342320Y-48624463D01*
X44342316Y-48624463D01*
X44342315Y-48624464D01*
X44222741Y-48653171D01*
X44103163Y-48681880D01*
X43875949Y-48775994D01*
X43875946Y-48775996D01*
X43666250Y-48904498D01*
X43666247Y-48904499D01*
X43479229Y-49064229D01*
X43319499Y-49251247D01*
X43319498Y-49251250D01*
X43190996Y-49460946D01*
X43190994Y-49460949D01*
X43096880Y-49688163D01*
X43072551Y-49789500D01*
X43047103Y-49895499D01*
X43039463Y-49927320D01*
X43020168Y-50172500D01*
X43039463Y-50417679D01*
X43039463Y-50417682D01*
X43039464Y-50417685D01*
X43068529Y-50538747D01*
X43096880Y-50656836D01*
X43190994Y-50884050D01*
X43190996Y-50884053D01*
X43319498Y-51093749D01*
X43319499Y-51093752D01*
X43373625Y-51157125D01*
X43479229Y-51280771D01*
X43666245Y-51440498D01*
X43830824Y-51541352D01*
X43877699Y-51593163D01*
X43889562Y-51657887D01*
X43889310Y-51660757D01*
X44503406Y-52274852D01*
X44415929Y-52298292D01*
X44314570Y-52356811D01*
X44231811Y-52439570D01*
X44173292Y-52540929D01*
X44149852Y-52628405D01*
X43535758Y-52014311D01*
X43490401Y-52079090D01*
X43397079Y-52279220D01*
X43397075Y-52279229D01*
X43339926Y-52492513D01*
X43339924Y-52492523D01*
X43320679Y-52712499D01*
X43320679Y-52712500D01*
X43339924Y-52932476D01*
X43339926Y-52932486D01*
X43397075Y-53145770D01*
X43397080Y-53145784D01*
X43490398Y-53345905D01*
X43490401Y-53345911D01*
X43535758Y-53410687D01*
X43535758Y-53410688D01*
X44149852Y-52796594D01*
X44173292Y-52884071D01*
X44231811Y-52985430D01*
X44314570Y-53068189D01*
X44415929Y-53126708D01*
X44503405Y-53150147D01*
X43889309Y-53764241D01*
X43889561Y-53767114D01*
X43875794Y-53835614D01*
X43830823Y-53883647D01*
X43666250Y-53984498D01*
X43666247Y-53984499D01*
X43479229Y-54144229D01*
X43319499Y-54331247D01*
X43319498Y-54331250D01*
X43190996Y-54540946D01*
X43190994Y-54540949D01*
X43096880Y-54768163D01*
X43096879Y-54768168D01*
X43060126Y-54921255D01*
X43039463Y-55007320D01*
X43020168Y-55252500D01*
X43039463Y-55497679D01*
X43039463Y-55497682D01*
X43039464Y-55497685D01*
X43068529Y-55618747D01*
X43096880Y-55736836D01*
X43190994Y-55964050D01*
X43190996Y-55964053D01*
X43319498Y-56173749D01*
X43319499Y-56173752D01*
X43330341Y-56186446D01*
X43479229Y-56360771D01*
X43558190Y-56428210D01*
X43596383Y-56486717D01*
X43596881Y-56556585D01*
X43559527Y-56615631D01*
X43558203Y-56616778D01*
X43539113Y-56633083D01*
X43479229Y-56684229D01*
X43319499Y-56871247D01*
X43319498Y-56871250D01*
X43190996Y-57080946D01*
X43190994Y-57080949D01*
X43096880Y-57308163D01*
X43079033Y-57382502D01*
X43042524Y-57534572D01*
X43039463Y-57547320D01*
X43020168Y-57792500D01*
X43039463Y-58037679D01*
X43039463Y-58037682D01*
X43039464Y-58037685D01*
X43068529Y-58158747D01*
X43096880Y-58276836D01*
X43190994Y-58504050D01*
X43190996Y-58504053D01*
X43319498Y-58713749D01*
X43319499Y-58713752D01*
X43319502Y-58713755D01*
X43479229Y-58900771D01*
X43558189Y-58968209D01*
X43558190Y-58968210D01*
X43596383Y-59026717D01*
X43596881Y-59096585D01*
X43559527Y-59155631D01*
X43558190Y-59156790D01*
X43479229Y-59224229D01*
X43319499Y-59411247D01*
X43319498Y-59411250D01*
X43190996Y-59620946D01*
X43190994Y-59620949D01*
X43096880Y-59848163D01*
X43083205Y-59905125D01*
X43043026Y-60072481D01*
X43039463Y-60087320D01*
X43020168Y-60332500D01*
X43039463Y-60577679D01*
X43039463Y-60577682D01*
X43039464Y-60577685D01*
X43068529Y-60698747D01*
X43096880Y-60816836D01*
X43190994Y-61044050D01*
X43190996Y-61044053D01*
X43319498Y-61253749D01*
X43319499Y-61253752D01*
X43324470Y-61259572D01*
X43479229Y-61440771D01*
X43517371Y-61473347D01*
X43558190Y-61508210D01*
X43596383Y-61566717D01*
X43596881Y-61636585D01*
X43559527Y-61695631D01*
X43558190Y-61696790D01*
X43479229Y-61764229D01*
X43319499Y-61951247D01*
X43319498Y-61951250D01*
X43190996Y-62160946D01*
X43190994Y-62160949D01*
X43096880Y-62388163D01*
X43094853Y-62396608D01*
X43041822Y-62617496D01*
X43039463Y-62627320D01*
X43020168Y-62872500D01*
X43039463Y-63117679D01*
X43039463Y-63117682D01*
X43039464Y-63117685D01*
X43073306Y-63258643D01*
X43096880Y-63356836D01*
X43190994Y-63584050D01*
X43190996Y-63584053D01*
X43319498Y-63793749D01*
X43319499Y-63793752D01*
X43319502Y-63793755D01*
X43479229Y-63980771D01*
X43666245Y-64140498D01*
X43830824Y-64241352D01*
X43877699Y-64293163D01*
X43889562Y-64357887D01*
X43889310Y-64360757D01*
X44503406Y-64974852D01*
X44415929Y-64998292D01*
X44314570Y-65056811D01*
X44231811Y-65139570D01*
X44173292Y-65240929D01*
X44149852Y-65328405D01*
X43535758Y-64714311D01*
X43490401Y-64779090D01*
X43397079Y-64979220D01*
X43397075Y-64979229D01*
X43339926Y-65192513D01*
X43339924Y-65192523D01*
X43320679Y-65412499D01*
X43320679Y-65412500D01*
X43339924Y-65632476D01*
X43339926Y-65632486D01*
X43397075Y-65845770D01*
X43397080Y-65845784D01*
X43490398Y-66045905D01*
X43490401Y-66045911D01*
X43535758Y-66110687D01*
X43535758Y-66110688D01*
X44149852Y-65496594D01*
X44173292Y-65584071D01*
X44231811Y-65685430D01*
X44314570Y-65768189D01*
X44415929Y-65826708D01*
X44503405Y-65850147D01*
X43889309Y-66464241D01*
X43889561Y-66467114D01*
X43875794Y-66535614D01*
X43830823Y-66583647D01*
X43666250Y-66684498D01*
X43666247Y-66684499D01*
X43479229Y-66844229D01*
X43319499Y-67031247D01*
X43319498Y-67031250D01*
X43190996Y-67240946D01*
X43190994Y-67240949D01*
X43096880Y-67468163D01*
X43039463Y-67707320D01*
X43020168Y-67952500D01*
X43039463Y-68197679D01*
X43039463Y-68197682D01*
X43039464Y-68197685D01*
X43073306Y-68338643D01*
X43096880Y-68436836D01*
X43190994Y-68664050D01*
X43190996Y-68664053D01*
X43319498Y-68873749D01*
X43319499Y-68873752D01*
X43319502Y-68873755D01*
X43479229Y-69060771D01*
X43666245Y-69220498D01*
X43746655Y-69269773D01*
X43793529Y-69321584D01*
X43804952Y-69390514D01*
X43777295Y-69454677D01*
X43719339Y-69493702D01*
X43681864Y-69499500D01*
X10624500Y-69499500D01*
X10557461Y-69479815D01*
X10511706Y-69427011D01*
X10500500Y-69375500D01*
X10500500Y-64999999D01*
X11394559Y-64999999D01*
X11394559Y-65000000D01*
X11414310Y-65376872D01*
X11473346Y-65749607D01*
X11473347Y-65749614D01*
X11571023Y-66114147D01*
X11706267Y-66466468D01*
X11877599Y-66802725D01*
X12083135Y-67119223D01*
X12181707Y-67240949D01*
X12320635Y-67412511D01*
X12587489Y-67679365D01*
X12622011Y-67707320D01*
X12880776Y-67916864D01*
X13197274Y-68122400D01*
X13197279Y-68122403D01*
X13533535Y-68293734D01*
X13885857Y-68428978D01*
X14250387Y-68526653D01*
X14623129Y-68585690D01*
X14979155Y-68604348D01*
X14999999Y-68605441D01*
X15000000Y-68605441D01*
X15000001Y-68605441D01*
X15019752Y-68604405D01*
X15376871Y-68585690D01*
X15749613Y-68526653D01*
X16114143Y-68428978D01*
X16466465Y-68293734D01*
X16802721Y-68122403D01*
X17119225Y-67916863D01*
X17412511Y-67679365D01*
X17679365Y-67412511D01*
X17916863Y-67119225D01*
X18122403Y-66802721D01*
X18293734Y-66466465D01*
X18428978Y-66114143D01*
X18526653Y-65749613D01*
X18585690Y-65376871D01*
X18605441Y-65000000D01*
X18605351Y-64998292D01*
X18594435Y-64790000D01*
X18585690Y-64623129D01*
X18526653Y-64250387D01*
X18428978Y-63885857D01*
X18293734Y-63533535D01*
X18122403Y-63197280D01*
X18061697Y-63103800D01*
X17916864Y-62880776D01*
X17679368Y-62587493D01*
X17679365Y-62587489D01*
X17412511Y-62320635D01*
X17215315Y-62160949D01*
X17119223Y-62083135D01*
X16802725Y-61877599D01*
X16466468Y-61706267D01*
X16114147Y-61571023D01*
X15749614Y-61473347D01*
X15749607Y-61473346D01*
X15376872Y-61414310D01*
X15000001Y-61394559D01*
X14999999Y-61394559D01*
X14623127Y-61414310D01*
X14250392Y-61473346D01*
X14250385Y-61473347D01*
X13885852Y-61571023D01*
X13533531Y-61706267D01*
X13197275Y-61877599D01*
X12880776Y-62083135D01*
X12587493Y-62320631D01*
X12587485Y-62320638D01*
X12320638Y-62587485D01*
X12320631Y-62587493D01*
X12083135Y-62880776D01*
X11877599Y-63197275D01*
X11706267Y-63533531D01*
X11571023Y-63885852D01*
X11473347Y-64250385D01*
X11473346Y-64250392D01*
X11414310Y-64623127D01*
X11394559Y-64999999D01*
X10500500Y-64999999D01*
X10500500Y-57603395D01*
X13289500Y-57603395D01*
X13289500Y-59396604D01*
X13304699Y-59550932D01*
X13332417Y-59642306D01*
X13364768Y-59748954D01*
X13462315Y-59931450D01*
X13462317Y-59931452D01*
X13593589Y-60091410D01*
X13650035Y-60137733D01*
X13753550Y-60222685D01*
X13936046Y-60320232D01*
X14134066Y-60380300D01*
X14134065Y-60380300D01*
X14156423Y-60382502D01*
X14288392Y-60395500D01*
X14288395Y-60395500D01*
X15631605Y-60395500D01*
X15631608Y-60395500D01*
X15785934Y-60380300D01*
X15983954Y-60320232D01*
X16166450Y-60222685D01*
X16326410Y-60091410D01*
X16331512Y-60085192D01*
X16389255Y-60045858D01*
X16459099Y-60043985D01*
X16502850Y-60065478D01*
X16552105Y-60103273D01*
X16569933Y-60116953D01*
X16759561Y-60226434D01*
X16759563Y-60226434D01*
X16759572Y-60226440D01*
X16961883Y-60310241D01*
X17173402Y-60366917D01*
X17390510Y-60395500D01*
X17390517Y-60395500D01*
X17609483Y-60395500D01*
X17609490Y-60395500D01*
X17826598Y-60366917D01*
X18038117Y-60310241D01*
X18240428Y-60226440D01*
X18430071Y-60116950D01*
X18603800Y-59983643D01*
X18603805Y-59983638D01*
X18682319Y-59905125D01*
X18743642Y-59871640D01*
X18813334Y-59876624D01*
X18857681Y-59905125D01*
X18936194Y-59983638D01*
X18936201Y-59983644D01*
X19109929Y-60116950D01*
X19299561Y-60226434D01*
X19299563Y-60226434D01*
X19299572Y-60226440D01*
X19501883Y-60310241D01*
X19713402Y-60366917D01*
X19930510Y-60395500D01*
X19930517Y-60395500D01*
X20149483Y-60395500D01*
X20149490Y-60395500D01*
X20366598Y-60366917D01*
X20578117Y-60310241D01*
X20780428Y-60226440D01*
X20970071Y-60116950D01*
X21143800Y-59983643D01*
X21298643Y-59828800D01*
X21406941Y-59687663D01*
X21463368Y-59646461D01*
X21533114Y-59642306D01*
X21592997Y-59675469D01*
X21687502Y-59769974D01*
X21861963Y-59896728D01*
X22054098Y-59994627D01*
X22259190Y-60061266D01*
X22330000Y-60072481D01*
X22330000Y-59042709D01*
X22350339Y-59054452D01*
X22501667Y-59095000D01*
X22658333Y-59095000D01*
X22809661Y-59054452D01*
X22830000Y-59042709D01*
X22830000Y-60072480D01*
X22900809Y-60061266D01*
X23105901Y-59994627D01*
X23298036Y-59896728D01*
X23472496Y-59769974D01*
X23472497Y-59769974D01*
X23624974Y-59617497D01*
X23624974Y-59617496D01*
X23751728Y-59443036D01*
X23849627Y-59250901D01*
X23916265Y-59045809D01*
X23950000Y-58832820D01*
X23950000Y-58750000D01*
X23122709Y-58750000D01*
X23134452Y-58729661D01*
X23175000Y-58578333D01*
X23175000Y-58421667D01*
X23134452Y-58270339D01*
X23122709Y-58250000D01*
X23950000Y-58250000D01*
X23950000Y-58167179D01*
X23916265Y-57954190D01*
X23849627Y-57749098D01*
X23751728Y-57556963D01*
X23624974Y-57382503D01*
X23624974Y-57382502D01*
X23472497Y-57230025D01*
X23298036Y-57103271D01*
X23105899Y-57005372D01*
X22900805Y-56938733D01*
X22830000Y-56927518D01*
X22830000Y-57957290D01*
X22809661Y-57945548D01*
X22658333Y-57905000D01*
X22501667Y-57905000D01*
X22350339Y-57945548D01*
X22330000Y-57957290D01*
X22330000Y-56927518D01*
X22329999Y-56927518D01*
X22259194Y-56938733D01*
X22054100Y-57005372D01*
X21861963Y-57103271D01*
X21687506Y-57230022D01*
X21592997Y-57324531D01*
X21531673Y-57358015D01*
X21461982Y-57353031D01*
X21406940Y-57312335D01*
X21298644Y-57171201D01*
X21298638Y-57171194D01*
X21143805Y-57016361D01*
X21143798Y-57016355D01*
X20970070Y-56883049D01*
X20780438Y-56773565D01*
X20780433Y-56773562D01*
X20780428Y-56773560D01*
X20578117Y-56689759D01*
X20578118Y-56689759D01*
X20578115Y-56689758D01*
X20472357Y-56661421D01*
X20366598Y-56633083D01*
X20330314Y-56628306D01*
X20149497Y-56604500D01*
X20149490Y-56604500D01*
X19930510Y-56604500D01*
X19930502Y-56604500D01*
X19723853Y-56631707D01*
X19713402Y-56633083D01*
X19668699Y-56645060D01*
X19501884Y-56689758D01*
X19383374Y-56738847D01*
X19299572Y-56773560D01*
X19299569Y-56773561D01*
X19299561Y-56773565D01*
X19109929Y-56883049D01*
X18936201Y-57016355D01*
X18936194Y-57016361D01*
X18857681Y-57094875D01*
X18796358Y-57128360D01*
X18726666Y-57123376D01*
X18682319Y-57094875D01*
X18603805Y-57016361D01*
X18603798Y-57016355D01*
X18430070Y-56883049D01*
X18240438Y-56773565D01*
X18240433Y-56773562D01*
X18240428Y-56773560D01*
X18038117Y-56689759D01*
X18038118Y-56689759D01*
X18038115Y-56689758D01*
X17932357Y-56661421D01*
X17826598Y-56633083D01*
X17790314Y-56628306D01*
X17609497Y-56604500D01*
X17609490Y-56604500D01*
X17390510Y-56604500D01*
X17390502Y-56604500D01*
X17183853Y-56631707D01*
X17173402Y-56633083D01*
X17128699Y-56645060D01*
X16961884Y-56689758D01*
X16843374Y-56738847D01*
X16759572Y-56773560D01*
X16759569Y-56773561D01*
X16759561Y-56773565D01*
X16569929Y-56883049D01*
X16502852Y-56934519D01*
X16437682Y-56959713D01*
X16369238Y-56945674D01*
X16331514Y-56914809D01*
X16326409Y-56908588D01*
X16203753Y-56807929D01*
X16166450Y-56777315D01*
X15983954Y-56679768D01*
X15785934Y-56619700D01*
X15785932Y-56619699D01*
X15785934Y-56619699D01*
X15666805Y-56607966D01*
X15631608Y-56604500D01*
X14288392Y-56604500D01*
X14250298Y-56608251D01*
X14134067Y-56619699D01*
X13936043Y-56679769D01*
X13876547Y-56711571D01*
X13753550Y-56777315D01*
X13753548Y-56777316D01*
X13753547Y-56777317D01*
X13593589Y-56908589D01*
X13462317Y-57068547D01*
X13364769Y-57251043D01*
X13304699Y-57449067D01*
X13289500Y-57603395D01*
X10500500Y-57603395D01*
X10500500Y-51460000D01*
X36932668Y-51460000D01*
X36951963Y-51705179D01*
X36951963Y-51705182D01*
X36951964Y-51705185D01*
X37009216Y-51943653D01*
X37009380Y-51944336D01*
X37103494Y-52171550D01*
X37103496Y-52171553D01*
X37231998Y-52381249D01*
X37231999Y-52381252D01*
X37240499Y-52391204D01*
X37391729Y-52568271D01*
X37462234Y-52628488D01*
X37470690Y-52635710D01*
X37508883Y-52694217D01*
X37509381Y-52764085D01*
X37472027Y-52823131D01*
X37470690Y-52824290D01*
X37391729Y-52891729D01*
X37231999Y-53078747D01*
X37231998Y-53078750D01*
X37103496Y-53288446D01*
X37103494Y-53288449D01*
X37009380Y-53515663D01*
X37009379Y-53515668D01*
X36964053Y-53704464D01*
X36951963Y-53754820D01*
X36932668Y-54000000D01*
X36951963Y-54245179D01*
X36951963Y-54245182D01*
X36951964Y-54245185D01*
X36972626Y-54331247D01*
X37009380Y-54484336D01*
X37103494Y-54711550D01*
X37103496Y-54711553D01*
X37231998Y-54921249D01*
X37231999Y-54921252D01*
X37232002Y-54921255D01*
X37391729Y-55108271D01*
X37578745Y-55267998D01*
X37743324Y-55368852D01*
X37790199Y-55420663D01*
X37802062Y-55485387D01*
X37801810Y-55488257D01*
X38415906Y-56102352D01*
X38328429Y-56125792D01*
X38227070Y-56184311D01*
X38144311Y-56267070D01*
X38085792Y-56368429D01*
X38062352Y-56455905D01*
X37448258Y-55841811D01*
X37402901Y-55906590D01*
X37309579Y-56106720D01*
X37309575Y-56106729D01*
X37252426Y-56320013D01*
X37252424Y-56320023D01*
X37233179Y-56539999D01*
X37233179Y-56540000D01*
X37252424Y-56759976D01*
X37252426Y-56759986D01*
X37309575Y-56973270D01*
X37309580Y-56973284D01*
X37402898Y-57173405D01*
X37402901Y-57173411D01*
X37448258Y-57238187D01*
X37448258Y-57238188D01*
X38062352Y-56624094D01*
X38085792Y-56711571D01*
X38144311Y-56812930D01*
X38227070Y-56895689D01*
X38328429Y-56954208D01*
X38415905Y-56977647D01*
X37801809Y-57591741D01*
X37802061Y-57594614D01*
X37788294Y-57663114D01*
X37743323Y-57711147D01*
X37578750Y-57811998D01*
X37578747Y-57811999D01*
X37391729Y-57971729D01*
X37231999Y-58158747D01*
X37231998Y-58158750D01*
X37103496Y-58368446D01*
X37103494Y-58368449D01*
X37009380Y-58595663D01*
X37009379Y-58595668D01*
X36968202Y-58767182D01*
X36951963Y-58834820D01*
X36932668Y-59080000D01*
X36951963Y-59325179D01*
X36951963Y-59325182D01*
X36951964Y-59325185D01*
X36972626Y-59411247D01*
X37009380Y-59564336D01*
X37103494Y-59791550D01*
X37103496Y-59791553D01*
X37231998Y-60001249D01*
X37231999Y-60001252D01*
X37283256Y-60061266D01*
X37391729Y-60188271D01*
X37465229Y-60251046D01*
X37470690Y-60255710D01*
X37508883Y-60314217D01*
X37509381Y-60384085D01*
X37472027Y-60443131D01*
X37470690Y-60444290D01*
X37391729Y-60511729D01*
X37231999Y-60698747D01*
X37231998Y-60698750D01*
X37103496Y-60908446D01*
X37103494Y-60908449D01*
X37009380Y-61135663D01*
X36951963Y-61374820D01*
X36932668Y-61620000D01*
X36951963Y-61865179D01*
X36951963Y-61865182D01*
X36951964Y-61865185D01*
X37007139Y-62095000D01*
X37009380Y-62104336D01*
X37103494Y-62331550D01*
X37103496Y-62331553D01*
X37231998Y-62541249D01*
X37231999Y-62541252D01*
X37271486Y-62587485D01*
X37391729Y-62728271D01*
X37440557Y-62769974D01*
X37470690Y-62795710D01*
X37508883Y-62854217D01*
X37509381Y-62924085D01*
X37472027Y-62983131D01*
X37470690Y-62984290D01*
X37391729Y-63051729D01*
X37231999Y-63238747D01*
X37231998Y-63238750D01*
X37103496Y-63448446D01*
X37103494Y-63448449D01*
X37009380Y-63675663D01*
X36951963Y-63914820D01*
X36932668Y-64160000D01*
X36951963Y-64405179D01*
X36951963Y-64405182D01*
X36951964Y-64405185D01*
X37003137Y-64618333D01*
X37009380Y-64644336D01*
X37103494Y-64871550D01*
X37103496Y-64871553D01*
X37231998Y-65081249D01*
X37231999Y-65081252D01*
X37232002Y-65081255D01*
X37391729Y-65268271D01*
X37518883Y-65376871D01*
X37578747Y-65428000D01*
X37578749Y-65428000D01*
X37687689Y-65494759D01*
X37788446Y-65556503D01*
X37788449Y-65556505D01*
X37971886Y-65632486D01*
X38015668Y-65650621D01*
X38254815Y-65708036D01*
X38500000Y-65727332D01*
X38745185Y-65708036D01*
X38984332Y-65650621D01*
X39144999Y-65584071D01*
X39211550Y-65556505D01*
X39211551Y-65556504D01*
X39211554Y-65556503D01*
X39421255Y-65427998D01*
X39608271Y-65268271D01*
X39767998Y-65081255D01*
X39896503Y-64871554D01*
X39990621Y-64644332D01*
X40048036Y-64405185D01*
X40067332Y-64160000D01*
X40048036Y-63914815D01*
X39990621Y-63675668D01*
X39953165Y-63585241D01*
X39896505Y-63448449D01*
X39896503Y-63448446D01*
X39780192Y-63258644D01*
X39768000Y-63238749D01*
X39768000Y-63238747D01*
X39608271Y-63051729D01*
X39529308Y-62984288D01*
X39491116Y-62925784D01*
X39490617Y-62855916D01*
X39527971Y-62796869D01*
X39529214Y-62795791D01*
X39608271Y-62728271D01*
X39767998Y-62541255D01*
X39896503Y-62331554D01*
X39901028Y-62320631D01*
X39943562Y-62217943D01*
X39990621Y-62104332D01*
X40048036Y-61865185D01*
X40067332Y-61620000D01*
X40048036Y-61374815D01*
X39990621Y-61135668D01*
X39963391Y-61069929D01*
X39896505Y-60908449D01*
X39896503Y-60908446D01*
X39768001Y-60698750D01*
X39768000Y-60698747D01*
X39608271Y-60511729D01*
X39529308Y-60444288D01*
X39491116Y-60385784D01*
X39490617Y-60315916D01*
X39527971Y-60256869D01*
X39529214Y-60255791D01*
X39608271Y-60188271D01*
X39767998Y-60001255D01*
X39896503Y-59791554D01*
X39914149Y-59748954D01*
X39958323Y-59642306D01*
X39990621Y-59564332D01*
X40048036Y-59325185D01*
X40067332Y-59080000D01*
X40048036Y-58834815D01*
X39990621Y-58595668D01*
X39983441Y-58578333D01*
X39896505Y-58368449D01*
X39896503Y-58368446D01*
X39768001Y-58158750D01*
X39768000Y-58158747D01*
X39704781Y-58084728D01*
X39608271Y-57971729D01*
X39459022Y-57844258D01*
X39421252Y-57811999D01*
X39421249Y-57811998D01*
X39256674Y-57711146D01*
X39209799Y-57659334D01*
X39197936Y-57594611D01*
X39198187Y-57591740D01*
X38584095Y-56977647D01*
X38671571Y-56954208D01*
X38772930Y-56895689D01*
X38855689Y-56812930D01*
X38914208Y-56711571D01*
X38937647Y-56624094D01*
X39551741Y-57238188D01*
X39597094Y-57173417D01*
X39597100Y-57173407D01*
X39690419Y-56973284D01*
X39690424Y-56973270D01*
X39747573Y-56759986D01*
X39747575Y-56759976D01*
X39766821Y-56540000D01*
X39766821Y-56539999D01*
X39747575Y-56320023D01*
X39747573Y-56320013D01*
X39690424Y-56106729D01*
X39690420Y-56106720D01*
X39597096Y-55906586D01*
X39551741Y-55841811D01*
X39551740Y-55841810D01*
X38937647Y-56455904D01*
X38914208Y-56368429D01*
X38855689Y-56267070D01*
X38772930Y-56184311D01*
X38671571Y-56125792D01*
X38584094Y-56102352D01*
X39198187Y-55488259D01*
X39197936Y-55485389D01*
X39211701Y-55416889D01*
X39256671Y-55368855D01*
X39421255Y-55267998D01*
X39608271Y-55108271D01*
X39767998Y-54921255D01*
X39896503Y-54711554D01*
X39990621Y-54484332D01*
X40048036Y-54245185D01*
X40067332Y-54000000D01*
X40048036Y-53754815D01*
X39990621Y-53515668D01*
X39973000Y-53473126D01*
X39896505Y-53288449D01*
X39896503Y-53288446D01*
X39768001Y-53078750D01*
X39768000Y-53078747D01*
X39608271Y-52891729D01*
X39529308Y-52824288D01*
X39491116Y-52765784D01*
X39490617Y-52695916D01*
X39527971Y-52636869D01*
X39529214Y-52635791D01*
X39608271Y-52568271D01*
X39767998Y-52381255D01*
X39896503Y-52171554D01*
X39911552Y-52135224D01*
X39961635Y-52014311D01*
X39990621Y-51944332D01*
X40048036Y-51705185D01*
X40067332Y-51460000D01*
X40048036Y-51214815D01*
X39990621Y-50975668D01*
X39968343Y-50921883D01*
X39896505Y-50748449D01*
X39896503Y-50748446D01*
X39768001Y-50538750D01*
X39768000Y-50538747D01*
X39669990Y-50423993D01*
X39608271Y-50351729D01*
X39432213Y-50201361D01*
X39421252Y-50191999D01*
X39421249Y-50191998D01*
X39211553Y-50063496D01*
X39211550Y-50063494D01*
X38984336Y-49969380D01*
X38939268Y-49958560D01*
X38745185Y-49911964D01*
X38745182Y-49911963D01*
X38745179Y-49911963D01*
X38500000Y-49892668D01*
X38254820Y-49911963D01*
X38254816Y-49911963D01*
X38254815Y-49911964D01*
X38190854Y-49927320D01*
X38015663Y-49969380D01*
X37788449Y-50063494D01*
X37788446Y-50063496D01*
X37578750Y-50191998D01*
X37578747Y-50191999D01*
X37391729Y-50351729D01*
X37231999Y-50538747D01*
X37231998Y-50538750D01*
X37103496Y-50748446D01*
X37103494Y-50748449D01*
X37009380Y-50975663D01*
X37009379Y-50975668D01*
X36963259Y-51167771D01*
X36951963Y-51214820D01*
X36932668Y-51460000D01*
X10500500Y-51460000D01*
X10500500Y-47103392D01*
X13249500Y-47103392D01*
X13249500Y-48896608D01*
X13250278Y-48904502D01*
X13264699Y-49050932D01*
X13264700Y-49050934D01*
X13324768Y-49248954D01*
X13422315Y-49431450D01*
X13422317Y-49431452D01*
X13553589Y-49591410D01*
X13584714Y-49616953D01*
X13713550Y-49722685D01*
X13896046Y-49820232D01*
X14094066Y-49880300D01*
X14094065Y-49880300D01*
X14132647Y-49884100D01*
X14248392Y-49895500D01*
X14248395Y-49895500D01*
X15591605Y-49895500D01*
X15591608Y-49895500D01*
X15745934Y-49880300D01*
X15943954Y-49820232D01*
X16126450Y-49722685D01*
X16286410Y-49591410D01*
X16291512Y-49585192D01*
X16349255Y-49545858D01*
X16419099Y-49543985D01*
X16462850Y-49565478D01*
X16488544Y-49585194D01*
X16529933Y-49616953D01*
X16719561Y-49726434D01*
X16719563Y-49726434D01*
X16719572Y-49726440D01*
X16921883Y-49810241D01*
X17133402Y-49866917D01*
X17350510Y-49895500D01*
X17350517Y-49895500D01*
X17569483Y-49895500D01*
X17569490Y-49895500D01*
X17786598Y-49866917D01*
X17998117Y-49810241D01*
X18200428Y-49726440D01*
X18390071Y-49616950D01*
X18563800Y-49483643D01*
X18601542Y-49445901D01*
X18642319Y-49405125D01*
X18703642Y-49371640D01*
X18773334Y-49376624D01*
X18817681Y-49405125D01*
X18896194Y-49483638D01*
X18896201Y-49483644D01*
X19069929Y-49616950D01*
X19259561Y-49726434D01*
X19259563Y-49726434D01*
X19259572Y-49726440D01*
X19461883Y-49810241D01*
X19673402Y-49866917D01*
X19890510Y-49895500D01*
X19890517Y-49895500D01*
X20109483Y-49895500D01*
X20109490Y-49895500D01*
X20326598Y-49866917D01*
X20538117Y-49810241D01*
X20740428Y-49726440D01*
X20930071Y-49616950D01*
X21103800Y-49483643D01*
X21258643Y-49328800D01*
X21366941Y-49187663D01*
X21423368Y-49146461D01*
X21493114Y-49142306D01*
X21552997Y-49175469D01*
X21647502Y-49269974D01*
X21821963Y-49396728D01*
X22014098Y-49494627D01*
X22219190Y-49561266D01*
X22290000Y-49572481D01*
X22290000Y-48542709D01*
X22310339Y-48554452D01*
X22461667Y-48595000D01*
X22618333Y-48595000D01*
X22769661Y-48554452D01*
X22790000Y-48542709D01*
X22790000Y-49572480D01*
X22860809Y-49561266D01*
X23065901Y-49494627D01*
X23258036Y-49396728D01*
X23432496Y-49269974D01*
X23432497Y-49269974D01*
X23584974Y-49117497D01*
X23584974Y-49117496D01*
X23711728Y-48943036D01*
X23809627Y-48750901D01*
X23876265Y-48545809D01*
X23910000Y-48332820D01*
X23910000Y-48250000D01*
X23082709Y-48250000D01*
X23094452Y-48229661D01*
X23135000Y-48078333D01*
X23135000Y-47921667D01*
X23094452Y-47770339D01*
X23082709Y-47750000D01*
X23910000Y-47750000D01*
X23910000Y-47667179D01*
X23876265Y-47454190D01*
X23809627Y-47249098D01*
X23711728Y-47056963D01*
X23584974Y-46882503D01*
X23584974Y-46882502D01*
X23432497Y-46730025D01*
X23258036Y-46603271D01*
X23065899Y-46505372D01*
X22860805Y-46438733D01*
X22790000Y-46427518D01*
X22790000Y-47457290D01*
X22769661Y-47445548D01*
X22618333Y-47405000D01*
X22461667Y-47405000D01*
X22310339Y-47445548D01*
X22290000Y-47457290D01*
X22290000Y-46427518D01*
X22289999Y-46427518D01*
X22219194Y-46438733D01*
X22014100Y-46505372D01*
X21821963Y-46603271D01*
X21647506Y-46730022D01*
X21552997Y-46824531D01*
X21491673Y-46858015D01*
X21421982Y-46853031D01*
X21366940Y-46812335D01*
X21258644Y-46671201D01*
X21258638Y-46671194D01*
X21103805Y-46516361D01*
X21103798Y-46516355D01*
X20930070Y-46383049D01*
X20740438Y-46273565D01*
X20740433Y-46273562D01*
X20740428Y-46273560D01*
X20538117Y-46189759D01*
X20538118Y-46189759D01*
X20538115Y-46189758D01*
X20432357Y-46161421D01*
X20326598Y-46133083D01*
X20290314Y-46128306D01*
X20109497Y-46104500D01*
X20109490Y-46104500D01*
X19890510Y-46104500D01*
X19890502Y-46104500D01*
X19683853Y-46131707D01*
X19673402Y-46133083D01*
X19628699Y-46145060D01*
X19461884Y-46189758D01*
X19343374Y-46238847D01*
X19259572Y-46273560D01*
X19259569Y-46273561D01*
X19259561Y-46273565D01*
X19069929Y-46383049D01*
X18896201Y-46516355D01*
X18896194Y-46516361D01*
X18817681Y-46594875D01*
X18756358Y-46628360D01*
X18686666Y-46623376D01*
X18642319Y-46594875D01*
X18563805Y-46516361D01*
X18563798Y-46516355D01*
X18390070Y-46383049D01*
X18200438Y-46273565D01*
X18200433Y-46273562D01*
X18200428Y-46273560D01*
X17998117Y-46189759D01*
X17998118Y-46189759D01*
X17998115Y-46189758D01*
X17892357Y-46161421D01*
X17786598Y-46133083D01*
X17750314Y-46128306D01*
X17569497Y-46104500D01*
X17569490Y-46104500D01*
X17350510Y-46104500D01*
X17350502Y-46104500D01*
X17143853Y-46131707D01*
X17133402Y-46133083D01*
X17088699Y-46145060D01*
X16921884Y-46189758D01*
X16803374Y-46238847D01*
X16719572Y-46273560D01*
X16719569Y-46273561D01*
X16719561Y-46273565D01*
X16529929Y-46383049D01*
X16462852Y-46434519D01*
X16397682Y-46459713D01*
X16329238Y-46445674D01*
X16291514Y-46414809D01*
X16286409Y-46408588D01*
X16126452Y-46277317D01*
X16126453Y-46277317D01*
X16126450Y-46277315D01*
X15943954Y-46179768D01*
X15745934Y-46119700D01*
X15745932Y-46119699D01*
X15745934Y-46119699D01*
X15626805Y-46107966D01*
X15591608Y-46104500D01*
X14248392Y-46104500D01*
X14210298Y-46108251D01*
X14094067Y-46119699D01*
X13896043Y-46179769D01*
X13785898Y-46238643D01*
X13713550Y-46277315D01*
X13713548Y-46277316D01*
X13713547Y-46277317D01*
X13553589Y-46408589D01*
X13422317Y-46568547D01*
X13324769Y-46751043D01*
X13264699Y-46949067D01*
X13256278Y-47034572D01*
X13249500Y-47103392D01*
X10500500Y-47103392D01*
X10500500Y-33435803D01*
X17500000Y-33435803D01*
X17500000Y-34250000D01*
X19000000Y-34250000D01*
X19000000Y-34750000D01*
X17500001Y-34750000D01*
X17500001Y-35564197D01*
X17510400Y-35696332D01*
X17565377Y-35914519D01*
X17658428Y-36119374D01*
X17658431Y-36119380D01*
X17786559Y-36304323D01*
X17786569Y-36304335D01*
X17945664Y-36463430D01*
X17945676Y-36463440D01*
X18130619Y-36591568D01*
X18130625Y-36591571D01*
X18335480Y-36684622D01*
X18553667Y-36739599D01*
X18685810Y-36749999D01*
X19249999Y-36749999D01*
X19250000Y-36749998D01*
X19250000Y-35933012D01*
X19307007Y-35965925D01*
X19434174Y-36000000D01*
X19565826Y-36000000D01*
X19692993Y-35965925D01*
X19750000Y-35933012D01*
X19750000Y-36749999D01*
X20314182Y-36749999D01*
X20314197Y-36749998D01*
X20446334Y-36739599D01*
X20446341Y-36739598D01*
X20603916Y-36699893D01*
X20673733Y-36702600D01*
X20731003Y-36742624D01*
X20757543Y-36807256D01*
X20744928Y-36875978D01*
X20707483Y-36920172D01*
X20531207Y-37049278D01*
X20531202Y-37049282D01*
X20349282Y-37231202D01*
X20349278Y-37231207D01*
X20197271Y-37438751D01*
X20197264Y-37438763D01*
X20078715Y-37667086D01*
X20033832Y-37800004D01*
X19996406Y-37910836D01*
X19970084Y-38062001D01*
X19952271Y-38164296D01*
X19949500Y-38222098D01*
X19949500Y-40177901D01*
X19951751Y-40224865D01*
X19952271Y-40235706D01*
X19996406Y-40489164D01*
X20078715Y-40732913D01*
X20099736Y-40773400D01*
X20197264Y-40961236D01*
X20197271Y-40961248D01*
X20349278Y-41168792D01*
X20349282Y-41168797D01*
X20531202Y-41350717D01*
X20531207Y-41350721D01*
X20661730Y-41446317D01*
X20738758Y-41502733D01*
X20967087Y-41621285D01*
X21210836Y-41703594D01*
X21464294Y-41747729D01*
X21522112Y-41750500D01*
X21522129Y-41750500D01*
X23477871Y-41750500D01*
X23477888Y-41750500D01*
X23535706Y-41747729D01*
X23789164Y-41703594D01*
X24032913Y-41621285D01*
X24261242Y-41502733D01*
X24468798Y-41350717D01*
X24650717Y-41168798D01*
X24776290Y-40997346D01*
X31195034Y-40997346D01*
X31195034Y-40997351D01*
X31214858Y-41223948D01*
X31214860Y-41223959D01*
X31273730Y-41443666D01*
X31273735Y-41443680D01*
X31369863Y-41649827D01*
X31420974Y-41722821D01*
X32100000Y-41043795D01*
X32100000Y-41050010D01*
X32127259Y-41151743D01*
X32179920Y-41242955D01*
X32254394Y-41317429D01*
X32345606Y-41370090D01*
X32447339Y-41397349D01*
X32453553Y-41397349D01*
X31774526Y-42076374D01*
X31847513Y-42127481D01*
X31847521Y-42127485D01*
X32053668Y-42223613D01*
X32053682Y-42223618D01*
X32273389Y-42282488D01*
X32273400Y-42282490D01*
X32499998Y-42302315D01*
X32500002Y-42302315D01*
X32726599Y-42282490D01*
X32726610Y-42282488D01*
X32946317Y-42223618D01*
X32946331Y-42223613D01*
X33152478Y-42127485D01*
X33225471Y-42076373D01*
X32546447Y-41397349D01*
X32552661Y-41397349D01*
X32654394Y-41370090D01*
X32745606Y-41317429D01*
X32820080Y-41242955D01*
X32872741Y-41151743D01*
X32900000Y-41050010D01*
X32900000Y-41043796D01*
X33579024Y-41722820D01*
X33630136Y-41649827D01*
X33726264Y-41443680D01*
X33726269Y-41443666D01*
X33785139Y-41223959D01*
X33785141Y-41223948D01*
X33804735Y-40999997D01*
X43195034Y-40999997D01*
X43195034Y-41000002D01*
X43214858Y-41226599D01*
X43214860Y-41226610D01*
X43273730Y-41446317D01*
X43273735Y-41446331D01*
X43369863Y-41652478D01*
X43420974Y-41725472D01*
X44100000Y-41046446D01*
X44100000Y-41052661D01*
X44127259Y-41154394D01*
X44179920Y-41245606D01*
X44254394Y-41320080D01*
X44345606Y-41372741D01*
X44447339Y-41400000D01*
X44453553Y-41400000D01*
X43774526Y-42079025D01*
X43847513Y-42130132D01*
X43847521Y-42130136D01*
X44053668Y-42226264D01*
X44053682Y-42226269D01*
X44273389Y-42285139D01*
X44273400Y-42285141D01*
X44499998Y-42304966D01*
X44500002Y-42304966D01*
X44726599Y-42285141D01*
X44726610Y-42285139D01*
X44946317Y-42226269D01*
X44946331Y-42226264D01*
X45152478Y-42130136D01*
X45225471Y-42079024D01*
X44546447Y-41400000D01*
X44552661Y-41400000D01*
X44654394Y-41372741D01*
X44745606Y-41320080D01*
X44820080Y-41245606D01*
X44872741Y-41154394D01*
X44900000Y-41052661D01*
X44900000Y-41046447D01*
X45579024Y-41725471D01*
X45630136Y-41652478D01*
X45726264Y-41446331D01*
X45726269Y-41446317D01*
X45785139Y-41226610D01*
X45785141Y-41226599D01*
X45804966Y-41000002D01*
X45804966Y-40999997D01*
X45785141Y-40773400D01*
X45785139Y-40773389D01*
X45726269Y-40553682D01*
X45726264Y-40553668D01*
X45630136Y-40347521D01*
X45630132Y-40347513D01*
X45579025Y-40274526D01*
X44900000Y-40953551D01*
X44900000Y-40947339D01*
X44872741Y-40845606D01*
X44820080Y-40754394D01*
X44745606Y-40679920D01*
X44654394Y-40627259D01*
X44552661Y-40600000D01*
X44546445Y-40600000D01*
X44991407Y-40155039D01*
X46699500Y-40155039D01*
X46699500Y-41844960D01*
X46714630Y-41979249D01*
X46714631Y-41979254D01*
X46774211Y-42149523D01*
X46850125Y-42270339D01*
X46870184Y-42302262D01*
X46997738Y-42429816D01*
X47150478Y-42525789D01*
X47300640Y-42578333D01*
X47320745Y-42585368D01*
X47320750Y-42585369D01*
X47411246Y-42595565D01*
X47455040Y-42600499D01*
X47455043Y-42600500D01*
X47455046Y-42600500D01*
X49144957Y-42600500D01*
X49144958Y-42600499D01*
X49212104Y-42592934D01*
X49279249Y-42585369D01*
X49279252Y-42585368D01*
X49279255Y-42585368D01*
X49449522Y-42525789D01*
X49602262Y-42429816D01*
X49729816Y-42302262D01*
X49825789Y-42149522D01*
X49885368Y-41979255D01*
X49900500Y-41844954D01*
X49900500Y-40155046D01*
X49885368Y-40020745D01*
X49825789Y-39850478D01*
X49729816Y-39697738D01*
X49602262Y-39570184D01*
X49449523Y-39474211D01*
X49279254Y-39414631D01*
X49279249Y-39414630D01*
X49144960Y-39399500D01*
X49144954Y-39399500D01*
X47455046Y-39399500D01*
X47455039Y-39399500D01*
X47320750Y-39414630D01*
X47320745Y-39414631D01*
X47150476Y-39474211D01*
X46997737Y-39570184D01*
X46870184Y-39697737D01*
X46774211Y-39850476D01*
X46714631Y-40020745D01*
X46714630Y-40020750D01*
X46699500Y-40155039D01*
X44991407Y-40155039D01*
X45225472Y-39920974D01*
X45152478Y-39869863D01*
X44946331Y-39773735D01*
X44946317Y-39773730D01*
X44726610Y-39714860D01*
X44726599Y-39714858D01*
X44500002Y-39695034D01*
X44499998Y-39695034D01*
X44273400Y-39714858D01*
X44273389Y-39714860D01*
X44053682Y-39773730D01*
X44053673Y-39773734D01*
X43847516Y-39869866D01*
X43847512Y-39869868D01*
X43774526Y-39920973D01*
X43774526Y-39920974D01*
X44453553Y-40600000D01*
X44447339Y-40600000D01*
X44345606Y-40627259D01*
X44254394Y-40679920D01*
X44179920Y-40754394D01*
X44127259Y-40845606D01*
X44100000Y-40947339D01*
X44100000Y-40953552D01*
X43420974Y-40274526D01*
X43420973Y-40274526D01*
X43369868Y-40347512D01*
X43369866Y-40347516D01*
X43273734Y-40553673D01*
X43273730Y-40553682D01*
X43214860Y-40773389D01*
X43214858Y-40773400D01*
X43195034Y-40999997D01*
X33804735Y-40999997D01*
X33804966Y-40997351D01*
X33804966Y-40997346D01*
X33785141Y-40770749D01*
X33785139Y-40770738D01*
X33726269Y-40551031D01*
X33726264Y-40551017D01*
X33630136Y-40344870D01*
X33630132Y-40344862D01*
X33579025Y-40271875D01*
X32900000Y-40950900D01*
X32900000Y-40944688D01*
X32872741Y-40842955D01*
X32820080Y-40751743D01*
X32745606Y-40677269D01*
X32654394Y-40624608D01*
X32552661Y-40597349D01*
X32546445Y-40597349D01*
X33225472Y-39918323D01*
X33152478Y-39867212D01*
X32946331Y-39771084D01*
X32946317Y-39771079D01*
X32726610Y-39712209D01*
X32726599Y-39712207D01*
X32500002Y-39692383D01*
X32499998Y-39692383D01*
X32273400Y-39712207D01*
X32273389Y-39712209D01*
X32053682Y-39771079D01*
X32053673Y-39771083D01*
X31847516Y-39867215D01*
X31847512Y-39867217D01*
X31774526Y-39918322D01*
X31774526Y-39918323D01*
X32453553Y-40597349D01*
X32447339Y-40597349D01*
X32345606Y-40624608D01*
X32254394Y-40677269D01*
X32179920Y-40751743D01*
X32127259Y-40842955D01*
X32100000Y-40944688D01*
X32100000Y-40950901D01*
X31420974Y-40271875D01*
X31420973Y-40271875D01*
X31369868Y-40344861D01*
X31369866Y-40344865D01*
X31273734Y-40551022D01*
X31273730Y-40551031D01*
X31214860Y-40770738D01*
X31214858Y-40770749D01*
X31195034Y-40997346D01*
X24776290Y-40997346D01*
X24802733Y-40961242D01*
X24921285Y-40732913D01*
X25003594Y-40489164D01*
X25047729Y-40235706D01*
X25050500Y-40177888D01*
X25050500Y-38222112D01*
X25047729Y-38164294D01*
X25003594Y-37910836D01*
X24921285Y-37667087D01*
X24802733Y-37438758D01*
X24700425Y-37299071D01*
X24662851Y-37247769D01*
X24639120Y-37182053D01*
X24654685Y-37113939D01*
X24704604Y-37065053D01*
X24762890Y-37050500D01*
X27294957Y-37050500D01*
X27294958Y-37050499D01*
X27362104Y-37042934D01*
X27429249Y-37035369D01*
X27429252Y-37035368D01*
X27429255Y-37035368D01*
X27599522Y-36975789D01*
X27752262Y-36879816D01*
X27879816Y-36752262D01*
X27975789Y-36599522D01*
X28035368Y-36429255D01*
X28037354Y-36411635D01*
X28044029Y-36352388D01*
X30899500Y-36352388D01*
X30899500Y-38042309D01*
X30914630Y-38176598D01*
X30914631Y-38176603D01*
X30974211Y-38346872D01*
X31070184Y-38499611D01*
X31197738Y-38627165D01*
X31350478Y-38723138D01*
X31520745Y-38782717D01*
X31520750Y-38782718D01*
X31611246Y-38792914D01*
X31655040Y-38797848D01*
X31655043Y-38797849D01*
X31655046Y-38797849D01*
X33344957Y-38797849D01*
X33344958Y-38797848D01*
X33412238Y-38790268D01*
X33479249Y-38782718D01*
X33479252Y-38782717D01*
X33479255Y-38782717D01*
X33649522Y-38723138D01*
X33802262Y-38627165D01*
X33929816Y-38499611D01*
X34025789Y-38346871D01*
X34085368Y-38176604D01*
X34100500Y-38042303D01*
X34100500Y-36352395D01*
X34094028Y-36294954D01*
X34085369Y-36218099D01*
X34085368Y-36218094D01*
X34050824Y-36119374D01*
X34025789Y-36047827D01*
X33929816Y-35895087D01*
X33802262Y-35767533D01*
X33774359Y-35750000D01*
X37233505Y-35750000D01*
X37286239Y-35935349D01*
X37385368Y-36134425D01*
X37519391Y-36311900D01*
X37683738Y-36461721D01*
X37872820Y-36578797D01*
X37872822Y-36578798D01*
X38080195Y-36659135D01*
X38160000Y-36674052D01*
X38660000Y-36674052D01*
X38739804Y-36659135D01*
X38947177Y-36578798D01*
X38947179Y-36578797D01*
X39136261Y-36461721D01*
X39300608Y-36311900D01*
X39434631Y-36134425D01*
X39533760Y-35935349D01*
X39586495Y-35750000D01*
X38660000Y-35750000D01*
X38660000Y-36674052D01*
X38160000Y-36674052D01*
X38160000Y-35750000D01*
X37233505Y-35750000D01*
X33774359Y-35750000D01*
X33649523Y-35671560D01*
X33479254Y-35611980D01*
X33479249Y-35611979D01*
X33344960Y-35596849D01*
X33344954Y-35596849D01*
X31655046Y-35596849D01*
X31655039Y-35596849D01*
X31520750Y-35611979D01*
X31520745Y-35611980D01*
X31350476Y-35671560D01*
X31197737Y-35767533D01*
X31070184Y-35895086D01*
X30974211Y-36047825D01*
X30914631Y-36218094D01*
X30914630Y-36218099D01*
X30899500Y-36352388D01*
X28044029Y-36352388D01*
X28050500Y-36294954D01*
X28050500Y-35453922D01*
X38060000Y-35453922D01*
X38060000Y-35546078D01*
X38083852Y-35635095D01*
X38129930Y-35714905D01*
X38195095Y-35780070D01*
X38274905Y-35826148D01*
X38363922Y-35850000D01*
X38456078Y-35850000D01*
X38545095Y-35826148D01*
X38624905Y-35780070D01*
X38690070Y-35714905D01*
X38736148Y-35635095D01*
X38760000Y-35546078D01*
X38760000Y-35499994D01*
X41984357Y-35499994D01*
X41984357Y-35500005D01*
X42004890Y-35747812D01*
X42004892Y-35747824D01*
X42065936Y-35988881D01*
X42165826Y-36216606D01*
X42301833Y-36424782D01*
X42301836Y-36424785D01*
X42470256Y-36607738D01*
X42666491Y-36760474D01*
X42885190Y-36878828D01*
X43120386Y-36959571D01*
X43365665Y-37000500D01*
X43614335Y-37000500D01*
X43859614Y-36959571D01*
X44094810Y-36878828D01*
X44313509Y-36760474D01*
X44509744Y-36607738D01*
X44678164Y-36424785D01*
X44814173Y-36216607D01*
X44914063Y-35988881D01*
X44975108Y-35747821D01*
X44976613Y-35729661D01*
X44995643Y-35500005D01*
X44995643Y-35499994D01*
X44975109Y-35252187D01*
X44975107Y-35252175D01*
X44914063Y-35011118D01*
X44909184Y-34999995D01*
X47694451Y-34999995D01*
X47694451Y-35000004D01*
X47714616Y-35269101D01*
X47774664Y-35532188D01*
X47774666Y-35532195D01*
X47873256Y-35783396D01*
X47873258Y-35783400D01*
X47897939Y-35826148D01*
X48008185Y-36017102D01*
X48144080Y-36187509D01*
X48176442Y-36228089D01*
X48310406Y-36352388D01*
X48374259Y-36411635D01*
X48597226Y-36563651D01*
X48840359Y-36680738D01*
X49098228Y-36760280D01*
X49098229Y-36760280D01*
X49098232Y-36760281D01*
X49365063Y-36800499D01*
X49365068Y-36800499D01*
X49365071Y-36800500D01*
X49365072Y-36800500D01*
X49634928Y-36800500D01*
X49634929Y-36800500D01*
X49658409Y-36796961D01*
X49901767Y-36760281D01*
X49901768Y-36760280D01*
X49901772Y-36760280D01*
X50159641Y-36680738D01*
X50351765Y-36588216D01*
X50402767Y-36563655D01*
X50402767Y-36563654D01*
X50402775Y-36563651D01*
X50625741Y-36411635D01*
X50799652Y-36250269D01*
X50823557Y-36228089D01*
X50823557Y-36228087D01*
X50823561Y-36228085D01*
X50991815Y-36017102D01*
X51126743Y-35783398D01*
X51225334Y-35532195D01*
X51285383Y-35269103D01*
X51300704Y-35064650D01*
X51305549Y-35000004D01*
X51305549Y-34999995D01*
X51288744Y-34775747D01*
X51285383Y-34730897D01*
X51225334Y-34467805D01*
X51126743Y-34216602D01*
X50991815Y-33982898D01*
X50823561Y-33771915D01*
X50823560Y-33771914D01*
X50823557Y-33771910D01*
X50625741Y-33588365D01*
X50402775Y-33436349D01*
X50402769Y-33436346D01*
X50402768Y-33436345D01*
X50402767Y-33436344D01*
X50159643Y-33319263D01*
X50159645Y-33319263D01*
X49901773Y-33239720D01*
X49901767Y-33239718D01*
X49634936Y-33199500D01*
X49634929Y-33199500D01*
X49365071Y-33199500D01*
X49365063Y-33199500D01*
X49098232Y-33239718D01*
X49098226Y-33239720D01*
X48840358Y-33319262D01*
X48597230Y-33436346D01*
X48374258Y-33588365D01*
X48176442Y-33771910D01*
X48008185Y-33982898D01*
X47873258Y-34216599D01*
X47873256Y-34216603D01*
X47774666Y-34467804D01*
X47774664Y-34467811D01*
X47714616Y-34730898D01*
X47694451Y-34999995D01*
X44909184Y-34999995D01*
X44814173Y-34783393D01*
X44678166Y-34575217D01*
X44644161Y-34538278D01*
X44509744Y-34392262D01*
X44313509Y-34239526D01*
X44313507Y-34239525D01*
X44313506Y-34239524D01*
X44094811Y-34121172D01*
X44094802Y-34121169D01*
X43859616Y-34040429D01*
X43614335Y-33999500D01*
X43365665Y-33999500D01*
X43120383Y-34040429D01*
X42885197Y-34121169D01*
X42885188Y-34121172D01*
X42666493Y-34239524D01*
X42470257Y-34392261D01*
X42301833Y-34575217D01*
X42165826Y-34783393D01*
X42065936Y-35011118D01*
X42004892Y-35252175D01*
X42004890Y-35252187D01*
X41984357Y-35499994D01*
X38760000Y-35499994D01*
X38760000Y-35453922D01*
X38736148Y-35364905D01*
X38690070Y-35285095D01*
X38654975Y-35250000D01*
X38660000Y-35250000D01*
X39586495Y-35250000D01*
X39533760Y-35064650D01*
X39434631Y-34865574D01*
X39300608Y-34688099D01*
X39136261Y-34538278D01*
X38947179Y-34421202D01*
X38947177Y-34421201D01*
X38739799Y-34340864D01*
X38660000Y-34325946D01*
X38660000Y-35250000D01*
X38654975Y-35250000D01*
X38624905Y-35219930D01*
X38545095Y-35173852D01*
X38456078Y-35150000D01*
X38363922Y-35150000D01*
X38274905Y-35173852D01*
X38195095Y-35219930D01*
X38129930Y-35285095D01*
X38083852Y-35364905D01*
X38060000Y-35453922D01*
X28050500Y-35453922D01*
X28050500Y-35250000D01*
X37233505Y-35250000D01*
X38160000Y-35250000D01*
X38160000Y-34325946D01*
X38080200Y-34340864D01*
X37872822Y-34421201D01*
X37872820Y-34421202D01*
X37683738Y-34538278D01*
X37519391Y-34688099D01*
X37385368Y-34865574D01*
X37286239Y-35064650D01*
X37233505Y-35250000D01*
X28050500Y-35250000D01*
X28050500Y-32705046D01*
X28035368Y-32570745D01*
X27975789Y-32400478D01*
X27879816Y-32247738D01*
X27752262Y-32120184D01*
X27599523Y-32024211D01*
X27429254Y-31964631D01*
X27429249Y-31964630D01*
X27294960Y-31949500D01*
X27294954Y-31949500D01*
X23705046Y-31949500D01*
X23705039Y-31949500D01*
X23570750Y-31964630D01*
X23570745Y-31964631D01*
X23400476Y-32024211D01*
X23247737Y-32120184D01*
X23120184Y-32247737D01*
X23024211Y-32400476D01*
X22964631Y-32570745D01*
X22964630Y-32570750D01*
X22949500Y-32705039D01*
X22949500Y-36294960D01*
X22964630Y-36429249D01*
X22964633Y-36429262D01*
X22983978Y-36484545D01*
X22987540Y-36554324D01*
X22952812Y-36614951D01*
X22890818Y-36647179D01*
X22866937Y-36649500D01*
X21522098Y-36649500D01*
X21471521Y-36651924D01*
X21464294Y-36652271D01*
X21210836Y-36696406D01*
X21210834Y-36696406D01*
X21082485Y-36739747D01*
X21012671Y-36742545D01*
X20952428Y-36707154D01*
X20920881Y-36644811D01*
X20928048Y-36575310D01*
X20971652Y-36520716D01*
X20972199Y-36520335D01*
X21054325Y-36463438D01*
X21054335Y-36463430D01*
X21213430Y-36304335D01*
X21213440Y-36304323D01*
X21341568Y-36119380D01*
X21341571Y-36119374D01*
X21434622Y-35914519D01*
X21489599Y-35696332D01*
X21499999Y-35564196D01*
X21500000Y-35564184D01*
X21500000Y-34750000D01*
X20000000Y-34750000D01*
X20000000Y-34250000D01*
X21499999Y-34250000D01*
X21499999Y-33435817D01*
X21499998Y-33435802D01*
X21489599Y-33303667D01*
X21434622Y-33085480D01*
X21341571Y-32880625D01*
X21341568Y-32880619D01*
X21213440Y-32695676D01*
X21213430Y-32695664D01*
X21054335Y-32536569D01*
X21054323Y-32536559D01*
X20869380Y-32408431D01*
X20869374Y-32408428D01*
X20664519Y-32315377D01*
X20446332Y-32260400D01*
X20314196Y-32250000D01*
X19750000Y-32250000D01*
X19750000Y-33066988D01*
X19692993Y-33034075D01*
X19565826Y-33000000D01*
X19434174Y-33000000D01*
X19307007Y-33034075D01*
X19250000Y-33066988D01*
X19250000Y-32250000D01*
X18685817Y-32250000D01*
X18685802Y-32250001D01*
X18553667Y-32260400D01*
X18335480Y-32315377D01*
X18130625Y-32408428D01*
X18130619Y-32408431D01*
X17945676Y-32536559D01*
X17945664Y-32536569D01*
X17786569Y-32695664D01*
X17786559Y-32695676D01*
X17658431Y-32880619D01*
X17658428Y-32880625D01*
X17565377Y-33085480D01*
X17510400Y-33303667D01*
X17500000Y-33435803D01*
X10500500Y-33435803D01*
X10500500Y-24999999D01*
X11394559Y-24999999D01*
X11394559Y-25000000D01*
X11414310Y-25376872D01*
X11473346Y-25749607D01*
X11473347Y-25749614D01*
X11571023Y-26114147D01*
X11706267Y-26466468D01*
X11877599Y-26802725D01*
X12083135Y-27119223D01*
X12211790Y-27278099D01*
X12320635Y-27412511D01*
X12587489Y-27679365D01*
X12587493Y-27679368D01*
X12880776Y-27916864D01*
X13183169Y-28113240D01*
X13197279Y-28122403D01*
X13533535Y-28293734D01*
X13885857Y-28428978D01*
X14250387Y-28526653D01*
X14623129Y-28585690D01*
X14979155Y-28604348D01*
X14999999Y-28605441D01*
X15000000Y-28605441D01*
X15000001Y-28605441D01*
X15019752Y-28604405D01*
X15376871Y-28585690D01*
X15749613Y-28526653D01*
X16114143Y-28428978D01*
X16345938Y-28340000D01*
X36823505Y-28340000D01*
X36876239Y-28525349D01*
X36975368Y-28724425D01*
X37109391Y-28901900D01*
X37273738Y-29051721D01*
X37462820Y-29168797D01*
X37462822Y-29168798D01*
X37670195Y-29249135D01*
X37750000Y-29264052D01*
X38250000Y-29264052D01*
X38329804Y-29249135D01*
X38537177Y-29168798D01*
X38537179Y-29168797D01*
X38726261Y-29051721D01*
X38890608Y-28901900D01*
X39024631Y-28724425D01*
X39123760Y-28525349D01*
X39176495Y-28340000D01*
X38250000Y-28340000D01*
X38250000Y-29264052D01*
X37750000Y-29264052D01*
X37750000Y-28340000D01*
X36823505Y-28340000D01*
X16345938Y-28340000D01*
X16466465Y-28293734D01*
X16802721Y-28122403D01*
X16923571Y-28043922D01*
X37650000Y-28043922D01*
X37650000Y-28136078D01*
X37673852Y-28225095D01*
X37719930Y-28304905D01*
X37785095Y-28370070D01*
X37864905Y-28416148D01*
X37953922Y-28440000D01*
X38046078Y-28440000D01*
X38135095Y-28416148D01*
X38214905Y-28370070D01*
X38280070Y-28304905D01*
X38326148Y-28225095D01*
X38350000Y-28136078D01*
X38350000Y-28043922D01*
X38326148Y-27954905D01*
X38280070Y-27875095D01*
X38244975Y-27840000D01*
X38250000Y-27840000D01*
X39176495Y-27840000D01*
X39123760Y-27654650D01*
X39024631Y-27455574D01*
X38890608Y-27278099D01*
X38726261Y-27128278D01*
X38537179Y-27011202D01*
X38537177Y-27011201D01*
X38329799Y-26930864D01*
X38250000Y-26915946D01*
X38250000Y-27840000D01*
X38244975Y-27840000D01*
X38214905Y-27809930D01*
X38135095Y-27763852D01*
X38046078Y-27740000D01*
X37953922Y-27740000D01*
X37864905Y-27763852D01*
X37785095Y-27809930D01*
X37719930Y-27875095D01*
X37673852Y-27954905D01*
X37650000Y-28043922D01*
X16923571Y-28043922D01*
X17119225Y-27916863D01*
X17214143Y-27840000D01*
X36823505Y-27840000D01*
X37750000Y-27840000D01*
X37750000Y-26915946D01*
X37670200Y-26930864D01*
X37462822Y-27011201D01*
X37462820Y-27011202D01*
X37273738Y-27128278D01*
X37109391Y-27278099D01*
X36975368Y-27455574D01*
X36876239Y-27654650D01*
X36823505Y-27840000D01*
X17214143Y-27840000D01*
X17412511Y-27679365D01*
X17679365Y-27412511D01*
X17916863Y-27119225D01*
X18122403Y-26802721D01*
X18293734Y-26466465D01*
X18428978Y-26114143D01*
X18526653Y-25749613D01*
X18585690Y-25376871D01*
X18605441Y-25000000D01*
X18605441Y-24999995D01*
X19994451Y-24999995D01*
X19994451Y-25000004D01*
X20014616Y-25269101D01*
X20074664Y-25532188D01*
X20074666Y-25532195D01*
X20159997Y-25749614D01*
X20173257Y-25783398D01*
X20308185Y-26017102D01*
X20366534Y-26090269D01*
X20476442Y-26228089D01*
X20629387Y-26370000D01*
X20674259Y-26411635D01*
X20897226Y-26563651D01*
X21140359Y-26680738D01*
X21398228Y-26760280D01*
X21398229Y-26760280D01*
X21398232Y-26760281D01*
X21665063Y-26800499D01*
X21665068Y-26800499D01*
X21665071Y-26800500D01*
X21665072Y-26800500D01*
X21934928Y-26800500D01*
X21934929Y-26800500D01*
X21943143Y-26799262D01*
X22201767Y-26760281D01*
X22201768Y-26760280D01*
X22201772Y-26760280D01*
X22459641Y-26680738D01*
X22702775Y-26563651D01*
X22925741Y-26411635D01*
X23123561Y-26228085D01*
X23291815Y-26017102D01*
X23426743Y-25783398D01*
X23525334Y-25532195D01*
X23585383Y-25269103D01*
X23605549Y-25000000D01*
X23585383Y-24730897D01*
X23525334Y-24467805D01*
X23426743Y-24216602D01*
X23291815Y-23982898D01*
X23269598Y-23955039D01*
X32699500Y-23955039D01*
X32699500Y-26044960D01*
X32714630Y-26179249D01*
X32714631Y-26179254D01*
X32774211Y-26349523D01*
X32833773Y-26444314D01*
X32870184Y-26502262D01*
X32997738Y-26629816D01*
X33150478Y-26725789D01*
X33272399Y-26768451D01*
X33320745Y-26785368D01*
X33320750Y-26785369D01*
X33411246Y-26795565D01*
X33455040Y-26800499D01*
X33455043Y-26800500D01*
X33455046Y-26800500D01*
X35544957Y-26800500D01*
X35544958Y-26800499D01*
X35612104Y-26792934D01*
X35679249Y-26785369D01*
X35679252Y-26785368D01*
X35679255Y-26785368D01*
X35849522Y-26725789D01*
X36002262Y-26629816D01*
X36129816Y-26502262D01*
X36225789Y-26349522D01*
X36285368Y-26179255D01*
X36300500Y-26044954D01*
X36300500Y-23955046D01*
X36285368Y-23820745D01*
X36225789Y-23650478D01*
X36225188Y-23649522D01*
X36129815Y-23497737D01*
X36002262Y-23370184D01*
X35849523Y-23274211D01*
X35679254Y-23214631D01*
X35679249Y-23214630D01*
X35544960Y-23199500D01*
X35544954Y-23199500D01*
X33455046Y-23199500D01*
X33455039Y-23199500D01*
X33320750Y-23214630D01*
X33320745Y-23214631D01*
X33150476Y-23274211D01*
X32997737Y-23370184D01*
X32870184Y-23497737D01*
X32774211Y-23650476D01*
X32714631Y-23820745D01*
X32714630Y-23820750D01*
X32699500Y-23955039D01*
X23269598Y-23955039D01*
X23123561Y-23771915D01*
X23123560Y-23771914D01*
X23123557Y-23771910D01*
X22925741Y-23588365D01*
X22794492Y-23498881D01*
X22702775Y-23436349D01*
X22702769Y-23436346D01*
X22702768Y-23436345D01*
X22702767Y-23436344D01*
X22459643Y-23319263D01*
X22459645Y-23319263D01*
X22201773Y-23239720D01*
X22201767Y-23239718D01*
X21934936Y-23199500D01*
X21934929Y-23199500D01*
X21665071Y-23199500D01*
X21665063Y-23199500D01*
X21398232Y-23239718D01*
X21398226Y-23239720D01*
X21140358Y-23319262D01*
X20897230Y-23436346D01*
X20674258Y-23588365D01*
X20476442Y-23771910D01*
X20308185Y-23982898D01*
X20173258Y-24216599D01*
X20173256Y-24216603D01*
X20074666Y-24467804D01*
X20074664Y-24467811D01*
X20014616Y-24730898D01*
X19994451Y-24999995D01*
X18605441Y-24999995D01*
X18585690Y-24623129D01*
X18526653Y-24250387D01*
X18428978Y-23885857D01*
X18293734Y-23533535D01*
X18122403Y-23197280D01*
X18000786Y-23010005D01*
X18000779Y-23009994D01*
X36494357Y-23009994D01*
X36494357Y-23010005D01*
X36514890Y-23257812D01*
X36514892Y-23257824D01*
X36575936Y-23498881D01*
X36675826Y-23726606D01*
X36811833Y-23934782D01*
X36844245Y-23969991D01*
X36980256Y-24117738D01*
X37176491Y-24270474D01*
X37395190Y-24388828D01*
X37630386Y-24469571D01*
X37875665Y-24510500D01*
X38124335Y-24510500D01*
X38172044Y-24502539D01*
X40754500Y-24502539D01*
X40754500Y-26497460D01*
X40769630Y-26631749D01*
X40769631Y-26631754D01*
X40829211Y-26802023D01*
X40925184Y-26954762D01*
X41052738Y-27082316D01*
X41193520Y-27170775D01*
X41239811Y-27223110D01*
X41250459Y-27292163D01*
X41238033Y-27332064D01*
X41161417Y-27482429D01*
X41090765Y-27699871D01*
X41076491Y-27790000D01*
X42064252Y-27790000D01*
X42042482Y-27827708D01*
X42005000Y-27967591D01*
X42005000Y-28112409D01*
X42042482Y-28252292D01*
X42064252Y-28290000D01*
X41076491Y-28290000D01*
X41090765Y-28380128D01*
X41161417Y-28597570D01*
X41265211Y-28801276D01*
X41399597Y-28986242D01*
X41432174Y-29018819D01*
X41465659Y-29080142D01*
X41460675Y-29149834D01*
X41419979Y-29204876D01*
X41349188Y-29259195D01*
X41349181Y-29259201D01*
X41186701Y-29421681D01*
X41186695Y-29421688D01*
X41046813Y-29603987D01*
X41046807Y-29603996D01*
X40931909Y-29803003D01*
X40931907Y-29803007D01*
X40843973Y-30015298D01*
X40843970Y-30015308D01*
X40784495Y-30237274D01*
X40754500Y-30465094D01*
X40754500Y-30694905D01*
X40754929Y-30698160D01*
X40784495Y-30922727D01*
X40843970Y-31144691D01*
X40843973Y-31144701D01*
X40854564Y-31170269D01*
X40931909Y-31356996D01*
X41046807Y-31556004D01*
X41046812Y-31556010D01*
X41046813Y-31556012D01*
X41186695Y-31738311D01*
X41186701Y-31738318D01*
X41349181Y-31900798D01*
X41349187Y-31900803D01*
X41531496Y-32040693D01*
X41730504Y-32155591D01*
X41942808Y-32243530D01*
X42164773Y-32303005D01*
X42392602Y-32333000D01*
X42392609Y-32333000D01*
X42717391Y-32333000D01*
X42717398Y-32333000D01*
X42945227Y-32303005D01*
X43167192Y-32243530D01*
X43379496Y-32155591D01*
X43578504Y-32040693D01*
X43760813Y-31900803D01*
X43923303Y-31738313D01*
X44063193Y-31556004D01*
X44178091Y-31356996D01*
X44266030Y-31144692D01*
X44325505Y-30922727D01*
X44355500Y-30694898D01*
X44355500Y-30465102D01*
X44325505Y-30237273D01*
X44266030Y-30015308D01*
X44178091Y-29803004D01*
X44063193Y-29603996D01*
X43923303Y-29421687D01*
X43923298Y-29421681D01*
X43760818Y-29259201D01*
X43760811Y-29259195D01*
X43690020Y-29204876D01*
X43648817Y-29148449D01*
X43644662Y-29078703D01*
X43677826Y-29018818D01*
X43710402Y-28986242D01*
X43844788Y-28801276D01*
X43948582Y-28597570D01*
X44019234Y-28380128D01*
X44033509Y-28290000D01*
X43045748Y-28290000D01*
X43067518Y-28252292D01*
X43105000Y-28112409D01*
X43105000Y-27967591D01*
X43067518Y-27827708D01*
X43045748Y-27790000D01*
X44033509Y-27790000D01*
X44019234Y-27699871D01*
X43948582Y-27482429D01*
X43871967Y-27332064D01*
X43859071Y-27263394D01*
X43885347Y-27198654D01*
X43916480Y-27170775D01*
X44057262Y-27082316D01*
X44184816Y-26954762D01*
X44280789Y-26802022D01*
X44340368Y-26631755D01*
X44340587Y-26629816D01*
X44355499Y-26497460D01*
X44355500Y-26497456D01*
X44355500Y-25099995D01*
X52622085Y-25099995D01*
X52622085Y-25100004D01*
X52641718Y-25362001D01*
X52680564Y-25532195D01*
X52700184Y-25618155D01*
X52796173Y-25862731D01*
X52927542Y-26090269D01*
X52998506Y-26179255D01*
X53088965Y-26292687D01*
X53115374Y-26357374D01*
X53102617Y-26426069D01*
X53088965Y-26447313D01*
X52927542Y-26649731D01*
X52796173Y-26877268D01*
X52700186Y-27121839D01*
X52700181Y-27121855D01*
X52641718Y-27377998D01*
X52622085Y-27639995D01*
X52622085Y-27640004D01*
X52641718Y-27902001D01*
X52689932Y-28113240D01*
X52700184Y-28158155D01*
X52796173Y-28402731D01*
X52927542Y-28630269D01*
X52949339Y-28657601D01*
X53088965Y-28832687D01*
X53115374Y-28897374D01*
X53102617Y-28966069D01*
X53088965Y-28987313D01*
X52927542Y-29189731D01*
X52796173Y-29417268D01*
X52700186Y-29661839D01*
X52700181Y-29661856D01*
X52641718Y-29917998D01*
X52622085Y-30179995D01*
X52622085Y-30180004D01*
X52641718Y-30442001D01*
X52699442Y-30694905D01*
X52700184Y-30698155D01*
X52796173Y-30942731D01*
X52927542Y-31170269D01*
X53037680Y-31308377D01*
X53088965Y-31372687D01*
X53115374Y-31437374D01*
X53102617Y-31506069D01*
X53088965Y-31527313D01*
X52927542Y-31729731D01*
X52796173Y-31957268D01*
X52700186Y-32201839D01*
X52700181Y-32201856D01*
X52641718Y-32457998D01*
X52622085Y-32719995D01*
X52622085Y-32720004D01*
X52641718Y-32982001D01*
X52641719Y-32982004D01*
X52700184Y-33238155D01*
X52796173Y-33482731D01*
X52927542Y-33710269D01*
X53037680Y-33848377D01*
X53088965Y-33912687D01*
X53115374Y-33977374D01*
X53102617Y-34046069D01*
X53088965Y-34067313D01*
X52927542Y-34269731D01*
X52796173Y-34497268D01*
X52700186Y-34741839D01*
X52700181Y-34741856D01*
X52641718Y-34997998D01*
X52622085Y-35259995D01*
X52622085Y-35260004D01*
X52641718Y-35522001D01*
X52700181Y-35778143D01*
X52700184Y-35778155D01*
X52796173Y-36022731D01*
X52927542Y-36250269D01*
X53008983Y-36352392D01*
X53088965Y-36452687D01*
X53115374Y-36517374D01*
X53102617Y-36586069D01*
X53088965Y-36607313D01*
X52927542Y-36809731D01*
X52796173Y-37037268D01*
X52700186Y-37281839D01*
X52700181Y-37281856D01*
X52641718Y-37537998D01*
X52622085Y-37799995D01*
X52622085Y-37800004D01*
X52641718Y-38062001D01*
X52678266Y-38222128D01*
X52700184Y-38318155D01*
X52796173Y-38562731D01*
X52927542Y-38790269D01*
X53037680Y-38928377D01*
X53088965Y-38992687D01*
X53115374Y-39057374D01*
X53102617Y-39126069D01*
X53088965Y-39147313D01*
X52927542Y-39349731D01*
X52796173Y-39577268D01*
X52700186Y-39821839D01*
X52700181Y-39821856D01*
X52641718Y-40077998D01*
X52622085Y-40339995D01*
X52622085Y-40340004D01*
X52641718Y-40602001D01*
X52700181Y-40858143D01*
X52700184Y-40858155D01*
X52796173Y-41102731D01*
X52927542Y-41330269D01*
X53037680Y-41468377D01*
X53088965Y-41532687D01*
X53115374Y-41597374D01*
X53102617Y-41666069D01*
X53088965Y-41687313D01*
X52927542Y-41889731D01*
X52796173Y-42117268D01*
X52700186Y-42361839D01*
X52700181Y-42361856D01*
X52641718Y-42617998D01*
X52622085Y-42879995D01*
X52622085Y-42880004D01*
X52641718Y-43142001D01*
X52641719Y-43142004D01*
X52700184Y-43398155D01*
X52796173Y-43642731D01*
X52927542Y-43870269D01*
X53091357Y-44075686D01*
X53283958Y-44254393D01*
X53501043Y-44402399D01*
X53737758Y-44516395D01*
X53737759Y-44516395D01*
X53737762Y-44516397D01*
X53988827Y-44593840D01*
X54248631Y-44633000D01*
X54511369Y-44633000D01*
X54771173Y-44593840D01*
X55022238Y-44516397D01*
X55258958Y-44402399D01*
X55476042Y-44254393D01*
X55668643Y-44075686D01*
X55832458Y-43870269D01*
X55963827Y-43642731D01*
X56059816Y-43398155D01*
X56118281Y-43142004D01*
X56137915Y-42880000D01*
X56136816Y-42865338D01*
X56118281Y-42617998D01*
X56118281Y-42617996D01*
X56059816Y-42361845D01*
X55963827Y-42117269D01*
X55832458Y-41889731D01*
X55671033Y-41687311D01*
X55644626Y-41622626D01*
X55657381Y-41553931D01*
X55671031Y-41532691D01*
X55832458Y-41330269D01*
X55963827Y-41102731D01*
X56059816Y-40858155D01*
X56118281Y-40602004D01*
X56126737Y-40489162D01*
X56137915Y-40340004D01*
X56137915Y-40339995D01*
X56118281Y-40077998D01*
X56118281Y-40077996D01*
X56059816Y-39821845D01*
X55963827Y-39577269D01*
X55832458Y-39349731D01*
X55671033Y-39147311D01*
X55644626Y-39082626D01*
X55657381Y-39013931D01*
X55671031Y-38992691D01*
X55832458Y-38790269D01*
X55963827Y-38562731D01*
X56059816Y-38318155D01*
X56118281Y-38062004D01*
X56137915Y-37800000D01*
X56118281Y-37537996D01*
X56059816Y-37281845D01*
X55963827Y-37037269D01*
X55832458Y-36809731D01*
X55671033Y-36607311D01*
X55644626Y-36542626D01*
X55657381Y-36473931D01*
X55671031Y-36452691D01*
X55832458Y-36250269D01*
X55963827Y-36022731D01*
X56059816Y-35778155D01*
X56118281Y-35522004D01*
X56130054Y-35364905D01*
X56137915Y-35260004D01*
X56137915Y-35259995D01*
X56118281Y-34997998D01*
X56118281Y-34997996D01*
X56059816Y-34741845D01*
X55963827Y-34497269D01*
X55832458Y-34269731D01*
X55671033Y-34067311D01*
X55644626Y-34002626D01*
X55657381Y-33933931D01*
X55671031Y-33912691D01*
X55832458Y-33710269D01*
X55963827Y-33482731D01*
X56059816Y-33238155D01*
X56118281Y-32982004D01*
X56137915Y-32720000D01*
X56136794Y-32705046D01*
X56118281Y-32457998D01*
X56106967Y-32408428D01*
X56059816Y-32201845D01*
X55963827Y-31957269D01*
X55832458Y-31729731D01*
X55671033Y-31527311D01*
X55644626Y-31462626D01*
X55657381Y-31393931D01*
X55671031Y-31372691D01*
X55832458Y-31170269D01*
X55963827Y-30942731D01*
X56059816Y-30698155D01*
X56118281Y-30442004D01*
X56137915Y-30180000D01*
X56118281Y-29917996D01*
X56059816Y-29661845D01*
X55963827Y-29417269D01*
X55832458Y-29189731D01*
X55671033Y-28987311D01*
X55644626Y-28922626D01*
X55657381Y-28853931D01*
X55671031Y-28832691D01*
X55832458Y-28630269D01*
X55963827Y-28402731D01*
X56059816Y-28158155D01*
X56118281Y-27902004D01*
X56133247Y-27702292D01*
X56137915Y-27640004D01*
X56137915Y-27639995D01*
X56118281Y-27377998D01*
X56059819Y-27121855D01*
X56059817Y-27121850D01*
X56059816Y-27121845D01*
X55963827Y-26877269D01*
X55832458Y-26649731D01*
X55671033Y-26447311D01*
X55644626Y-26382626D01*
X55657381Y-26313931D01*
X55671031Y-26292691D01*
X55832458Y-26090269D01*
X55963827Y-25862731D01*
X56059816Y-25618155D01*
X56118281Y-25362004D01*
X56137915Y-25100000D01*
X56137915Y-25099995D01*
X67862085Y-25099995D01*
X67862085Y-25100004D01*
X67881718Y-25362001D01*
X67920564Y-25532195D01*
X67940184Y-25618155D01*
X68036173Y-25862731D01*
X68167542Y-26090269D01*
X68331357Y-26295686D01*
X68523958Y-26474393D01*
X68741043Y-26622399D01*
X68741048Y-26622401D01*
X68741049Y-26622402D01*
X68741051Y-26622403D01*
X68760458Y-26631749D01*
X68977762Y-26736397D01*
X69081685Y-26768453D01*
X69132815Y-26799262D01*
X69383992Y-27050438D01*
X69319215Y-27077271D01*
X69215211Y-27146764D01*
X69126764Y-27235211D01*
X69057271Y-27339215D01*
X69030439Y-27403991D01*
X68430882Y-26804434D01*
X68338184Y-26946320D01*
X68241491Y-27166759D01*
X68182399Y-27400110D01*
X68162522Y-27639994D01*
X68162522Y-27640005D01*
X68182399Y-27879889D01*
X68241491Y-28113240D01*
X68338184Y-28333679D01*
X68430882Y-28475564D01*
X69030439Y-27876007D01*
X69057271Y-27940785D01*
X69126764Y-28044789D01*
X69215211Y-28133236D01*
X69319215Y-28202729D01*
X69383991Y-28229560D01*
X69132815Y-28480736D01*
X69081685Y-28511546D01*
X68977758Y-28543604D01*
X68741047Y-28657598D01*
X68523957Y-28805607D01*
X68331359Y-28984312D01*
X68331357Y-28984314D01*
X68167542Y-29189731D01*
X68036173Y-29417268D01*
X67940186Y-29661839D01*
X67940181Y-29661856D01*
X67881718Y-29917998D01*
X67862085Y-30179995D01*
X67862085Y-30180004D01*
X67881718Y-30442001D01*
X67939442Y-30694905D01*
X67940184Y-30698155D01*
X68036173Y-30942731D01*
X68167542Y-31170269D01*
X68277680Y-31308377D01*
X68328965Y-31372687D01*
X68355374Y-31437374D01*
X68342617Y-31506069D01*
X68328965Y-31527313D01*
X68167542Y-31729731D01*
X68036173Y-31957268D01*
X67940186Y-32201839D01*
X67940181Y-32201856D01*
X67881718Y-32457998D01*
X67862085Y-32719995D01*
X67862085Y-32720004D01*
X67881718Y-32982001D01*
X67881719Y-32982004D01*
X67940184Y-33238155D01*
X68036173Y-33482731D01*
X68167542Y-33710269D01*
X68277680Y-33848377D01*
X68328965Y-33912687D01*
X68355374Y-33977374D01*
X68342617Y-34046069D01*
X68328965Y-34067313D01*
X68167542Y-34269731D01*
X68036173Y-34497268D01*
X67940186Y-34741839D01*
X67940181Y-34741856D01*
X67881718Y-34997998D01*
X67862085Y-35259995D01*
X67862085Y-35260004D01*
X67881718Y-35522001D01*
X67940181Y-35778143D01*
X67940184Y-35778155D01*
X68036173Y-36022731D01*
X68167542Y-36250269D01*
X68248983Y-36352392D01*
X68328965Y-36452687D01*
X68355374Y-36517374D01*
X68342617Y-36586069D01*
X68328965Y-36607313D01*
X68167542Y-36809731D01*
X68036173Y-37037268D01*
X67940186Y-37281839D01*
X67940181Y-37281856D01*
X67881718Y-37537998D01*
X67862085Y-37799995D01*
X67862085Y-37800004D01*
X67881718Y-38062001D01*
X67918266Y-38222128D01*
X67940184Y-38318155D01*
X68036173Y-38562731D01*
X68167542Y-38790269D01*
X68277680Y-38928377D01*
X68328965Y-38992687D01*
X68355374Y-39057374D01*
X68342617Y-39126069D01*
X68328965Y-39147313D01*
X68167542Y-39349731D01*
X68036173Y-39577268D01*
X67940186Y-39821839D01*
X67940181Y-39821856D01*
X67881718Y-40077998D01*
X67862085Y-40339995D01*
X67862085Y-40340004D01*
X67881718Y-40602001D01*
X67940181Y-40858143D01*
X67940184Y-40858155D01*
X68036173Y-41102731D01*
X68167542Y-41330269D01*
X68277680Y-41468377D01*
X68328965Y-41532687D01*
X68355374Y-41597374D01*
X68342617Y-41666069D01*
X68328965Y-41687313D01*
X68167542Y-41889731D01*
X68036173Y-42117268D01*
X67940186Y-42361839D01*
X67940181Y-42361856D01*
X67881718Y-42617998D01*
X67862085Y-42879995D01*
X67862085Y-42880004D01*
X67881718Y-43142001D01*
X67881719Y-43142004D01*
X67940184Y-43398155D01*
X68036173Y-43642731D01*
X68167542Y-43870269D01*
X68331357Y-44075686D01*
X68523958Y-44254393D01*
X68741043Y-44402399D01*
X68977758Y-44516395D01*
X68977759Y-44516395D01*
X68977762Y-44516397D01*
X69228827Y-44593840D01*
X69488631Y-44633000D01*
X69751369Y-44633000D01*
X70011173Y-44593840D01*
X70262238Y-44516397D01*
X70498958Y-44402399D01*
X70716042Y-44254393D01*
X70908643Y-44075686D01*
X71072458Y-43870269D01*
X71203827Y-43642731D01*
X71299816Y-43398155D01*
X71358281Y-43142004D01*
X71377915Y-42880000D01*
X71376816Y-42865338D01*
X71358281Y-42617998D01*
X71358281Y-42617996D01*
X71299816Y-42361845D01*
X71203827Y-42117269D01*
X71072458Y-41889731D01*
X70911033Y-41687311D01*
X70884626Y-41622626D01*
X70888197Y-41603392D01*
X72789500Y-41603392D01*
X72789500Y-43396608D01*
X72789653Y-43398160D01*
X72804699Y-43550932D01*
X72804700Y-43550934D01*
X72864768Y-43748954D01*
X72962315Y-43931450D01*
X72996969Y-43973677D01*
X73093589Y-44091410D01*
X73190209Y-44170702D01*
X73253550Y-44222685D01*
X73436046Y-44320232D01*
X73634066Y-44380300D01*
X73634065Y-44380300D01*
X73672647Y-44384100D01*
X73788392Y-44395500D01*
X73788395Y-44395500D01*
X75131605Y-44395500D01*
X75131608Y-44395500D01*
X75285934Y-44380300D01*
X75483954Y-44320232D01*
X75666450Y-44222685D01*
X75826410Y-44091410D01*
X75957685Y-43931450D01*
X75994667Y-43862261D01*
X76043626Y-43812422D01*
X76111763Y-43796961D01*
X76176908Y-43820401D01*
X76281963Y-43896728D01*
X76474098Y-43994627D01*
X76679190Y-44061266D01*
X76750000Y-44072481D01*
X76750000Y-43042709D01*
X76770339Y-43054452D01*
X76921667Y-43095000D01*
X77078333Y-43095000D01*
X77229661Y-43054452D01*
X77250000Y-43042709D01*
X77250000Y-44072480D01*
X77320809Y-44061266D01*
X77525901Y-43994627D01*
X77718036Y-43896728D01*
X77892496Y-43769974D01*
X77892497Y-43769974D01*
X78044974Y-43617497D01*
X78044974Y-43617496D01*
X78171728Y-43443036D01*
X78269627Y-43250901D01*
X78336265Y-43045809D01*
X78370000Y-42832820D01*
X78370000Y-42750000D01*
X77542709Y-42750000D01*
X77554452Y-42729661D01*
X77595000Y-42578333D01*
X77595000Y-42421667D01*
X77554452Y-42270339D01*
X77542709Y-42250000D01*
X78370000Y-42250000D01*
X78370000Y-42167179D01*
X78336265Y-41954190D01*
X78269627Y-41749098D01*
X78171728Y-41556963D01*
X78044974Y-41382503D01*
X78044974Y-41382502D01*
X77892497Y-41230025D01*
X77718036Y-41103271D01*
X77525899Y-41005372D01*
X77320805Y-40938733D01*
X77250000Y-40927518D01*
X77250000Y-41957290D01*
X77229661Y-41945548D01*
X77078333Y-41905000D01*
X76921667Y-41905000D01*
X76770339Y-41945548D01*
X76750000Y-41957290D01*
X76750000Y-40927518D01*
X76749999Y-40927518D01*
X76679194Y-40938733D01*
X76474100Y-41005372D01*
X76281960Y-41103273D01*
X76176907Y-41179598D01*
X76111101Y-41203078D01*
X76043047Y-41187252D01*
X75994664Y-41137733D01*
X75957684Y-41068548D01*
X75826410Y-40908589D01*
X75666452Y-40777317D01*
X75666453Y-40777317D01*
X75666450Y-40777315D01*
X75483954Y-40679768D01*
X75285934Y-40619700D01*
X75285932Y-40619699D01*
X75285934Y-40619699D01*
X75166805Y-40607966D01*
X75131608Y-40604500D01*
X73788392Y-40604500D01*
X73750298Y-40608251D01*
X73634067Y-40619699D01*
X73436043Y-40679769D01*
X73325898Y-40738643D01*
X73253550Y-40777315D01*
X73253548Y-40777316D01*
X73253547Y-40777317D01*
X73093589Y-40908589D01*
X72962317Y-41068547D01*
X72864769Y-41251043D01*
X72804699Y-41449067D01*
X72794073Y-41556963D01*
X72789500Y-41603392D01*
X70888197Y-41603392D01*
X70897381Y-41553931D01*
X70911031Y-41532691D01*
X71072458Y-41330269D01*
X71203827Y-41102731D01*
X71299816Y-40858155D01*
X71358281Y-40602004D01*
X71366737Y-40489162D01*
X71377915Y-40340004D01*
X71377915Y-40339995D01*
X71358281Y-40077998D01*
X71358281Y-40077996D01*
X71299816Y-39821845D01*
X71203827Y-39577269D01*
X71072458Y-39349731D01*
X70911033Y-39147311D01*
X70884626Y-39082626D01*
X70897381Y-39013931D01*
X70911031Y-38992691D01*
X71072458Y-38790269D01*
X71203827Y-38562731D01*
X71299816Y-38318155D01*
X71358281Y-38062004D01*
X71377915Y-37800000D01*
X71358281Y-37537996D01*
X71299816Y-37281845D01*
X71203827Y-37037269D01*
X71072458Y-36809731D01*
X70911033Y-36607311D01*
X70884626Y-36542626D01*
X70897381Y-36473931D01*
X70911031Y-36452691D01*
X71072458Y-36250269D01*
X71203827Y-36022731D01*
X71299816Y-35778155D01*
X71358281Y-35522004D01*
X71370054Y-35364905D01*
X71377915Y-35260004D01*
X71377915Y-35259995D01*
X71358281Y-34997998D01*
X71358281Y-34997996D01*
X71299816Y-34741845D01*
X71245477Y-34603392D01*
X72749500Y-34603392D01*
X72749500Y-36396608D01*
X72752716Y-36429262D01*
X72764699Y-36550932D01*
X72772094Y-36575310D01*
X72824768Y-36748954D01*
X72922315Y-36931450D01*
X72945392Y-36959570D01*
X73053589Y-37091410D01*
X73150209Y-37170702D01*
X73213550Y-37222685D01*
X73396046Y-37320232D01*
X73594066Y-37380300D01*
X73594065Y-37380300D01*
X73632647Y-37384100D01*
X73748392Y-37395500D01*
X73748395Y-37395500D01*
X75091605Y-37395500D01*
X75091608Y-37395500D01*
X75245934Y-37380300D01*
X75443954Y-37320232D01*
X75626450Y-37222685D01*
X75786410Y-37091410D01*
X75917685Y-36931450D01*
X75954667Y-36862261D01*
X76003626Y-36812422D01*
X76071763Y-36796961D01*
X76136908Y-36820401D01*
X76241963Y-36896728D01*
X76434098Y-36994627D01*
X76639190Y-37061266D01*
X76710000Y-37072481D01*
X76710000Y-36042709D01*
X76730339Y-36054452D01*
X76881667Y-36095000D01*
X77038333Y-36095000D01*
X77189661Y-36054452D01*
X77210000Y-36042709D01*
X77210000Y-37072480D01*
X77280809Y-37061266D01*
X77485901Y-36994627D01*
X77678036Y-36896728D01*
X77852496Y-36769974D01*
X77852497Y-36769974D01*
X78004974Y-36617497D01*
X78004974Y-36617496D01*
X78131728Y-36443036D01*
X78229627Y-36250901D01*
X78296265Y-36045809D01*
X78330000Y-35832820D01*
X78330000Y-35750000D01*
X77502709Y-35750000D01*
X77514452Y-35729661D01*
X77555000Y-35578333D01*
X77555000Y-35421667D01*
X77514452Y-35270339D01*
X77502709Y-35250000D01*
X78330000Y-35250000D01*
X78330000Y-35167179D01*
X78296265Y-34954190D01*
X78229627Y-34749098D01*
X78131728Y-34556963D01*
X78004974Y-34382503D01*
X78004974Y-34382502D01*
X77852497Y-34230025D01*
X77678036Y-34103271D01*
X77485899Y-34005372D01*
X77280805Y-33938733D01*
X77210000Y-33927518D01*
X77210000Y-34957290D01*
X77189661Y-34945548D01*
X77038333Y-34905000D01*
X76881667Y-34905000D01*
X76730339Y-34945548D01*
X76710000Y-34957290D01*
X76710000Y-33927518D01*
X76709999Y-33927518D01*
X76639194Y-33938733D01*
X76434100Y-34005372D01*
X76241960Y-34103273D01*
X76136907Y-34179598D01*
X76071101Y-34203078D01*
X76003047Y-34187252D01*
X75954664Y-34137733D01*
X75945810Y-34121169D01*
X75917685Y-34068550D01*
X75917684Y-34068548D01*
X75786410Y-33908589D01*
X75626452Y-33777317D01*
X75626453Y-33777317D01*
X75626450Y-33777315D01*
X75443954Y-33679768D01*
X75245934Y-33619700D01*
X75245932Y-33619699D01*
X75245934Y-33619699D01*
X75126805Y-33607966D01*
X75091608Y-33604500D01*
X73748392Y-33604500D01*
X73710298Y-33608251D01*
X73594067Y-33619699D01*
X73396043Y-33679769D01*
X73338983Y-33710269D01*
X73213550Y-33777315D01*
X73213548Y-33777316D01*
X73213547Y-33777317D01*
X73053589Y-33908589D01*
X72922317Y-34068547D01*
X72824769Y-34251043D01*
X72764699Y-34449067D01*
X72759952Y-34497268D01*
X72749500Y-34603392D01*
X71245477Y-34603392D01*
X71203827Y-34497269D01*
X71072458Y-34269731D01*
X70911033Y-34067311D01*
X70884626Y-34002626D01*
X70897381Y-33933931D01*
X70911031Y-33912691D01*
X71072458Y-33710269D01*
X71203827Y-33482731D01*
X71299816Y-33238155D01*
X71358281Y-32982004D01*
X71377915Y-32720000D01*
X71376794Y-32705046D01*
X71358281Y-32457998D01*
X71346967Y-32408428D01*
X71299816Y-32201845D01*
X71203827Y-31957269D01*
X71072458Y-31729731D01*
X70911033Y-31527311D01*
X70884626Y-31462626D01*
X70897381Y-31393931D01*
X70911031Y-31372691D01*
X71072458Y-31170269D01*
X71203827Y-30942731D01*
X71299816Y-30698155D01*
X71358281Y-30442004D01*
X71377915Y-30180000D01*
X71358281Y-29917996D01*
X71299816Y-29661845D01*
X71203827Y-29417269D01*
X71072458Y-29189731D01*
X70908643Y-28984314D01*
X70716042Y-28805607D01*
X70498958Y-28657601D01*
X70498952Y-28657598D01*
X70498951Y-28657597D01*
X70498950Y-28657596D01*
X70262241Y-28543604D01*
X70158313Y-28511546D01*
X70107183Y-28480736D01*
X69856008Y-28229560D01*
X69920785Y-28202729D01*
X70024789Y-28133236D01*
X70113236Y-28044789D01*
X70182729Y-27940785D01*
X70209560Y-27876008D01*
X70809116Y-28475564D01*
X70901811Y-28333686D01*
X70901816Y-28333678D01*
X70998508Y-28113240D01*
X71057600Y-27879889D01*
X71077478Y-27640005D01*
X71077478Y-27639994D01*
X71057600Y-27400110D01*
X70998508Y-27166759D01*
X70901813Y-26946315D01*
X70809116Y-26804434D01*
X70209560Y-27403990D01*
X70182729Y-27339215D01*
X70113236Y-27235211D01*
X70024789Y-27146764D01*
X69920785Y-27077271D01*
X69856007Y-27050438D01*
X70107183Y-26799262D01*
X70158310Y-26768454D01*
X70262238Y-26736397D01*
X70479532Y-26631754D01*
X70498950Y-26622403D01*
X70498950Y-26622402D01*
X70498958Y-26622399D01*
X70716042Y-26474393D01*
X70908643Y-26295686D01*
X71072458Y-26090269D01*
X71203827Y-25862731D01*
X71244338Y-25759509D01*
X71287151Y-25704300D01*
X71353021Y-25680999D01*
X71421032Y-25697009D01*
X71469590Y-25747247D01*
X71479539Y-25772722D01*
X71552483Y-26044956D01*
X71571024Y-26114150D01*
X71706267Y-26466468D01*
X71877599Y-26802725D01*
X72083135Y-27119223D01*
X72211790Y-27278099D01*
X72320635Y-27412511D01*
X72587489Y-27679365D01*
X72587493Y-27679368D01*
X72880776Y-27916864D01*
X73183169Y-28113240D01*
X73197279Y-28122403D01*
X73533535Y-28293734D01*
X73885857Y-28428978D01*
X74250387Y-28526653D01*
X74623129Y-28585690D01*
X74979155Y-28604348D01*
X74999999Y-28605441D01*
X75000000Y-28605441D01*
X75000001Y-28605441D01*
X75019752Y-28604405D01*
X75376871Y-28585690D01*
X75749613Y-28526653D01*
X76114143Y-28428978D01*
X76466465Y-28293734D01*
X76802721Y-28122403D01*
X77119225Y-27916863D01*
X77412511Y-27679365D01*
X77679365Y-27412511D01*
X77916863Y-27119225D01*
X78122403Y-26802721D01*
X78293734Y-26466465D01*
X78428978Y-26114143D01*
X78526653Y-25749613D01*
X78585690Y-25376871D01*
X78605441Y-25000000D01*
X78585690Y-24623129D01*
X78526653Y-24250387D01*
X78428978Y-23885857D01*
X78293734Y-23533535D01*
X78122403Y-23197280D01*
X78000786Y-23010005D01*
X77916864Y-22880776D01*
X77679368Y-22587493D01*
X77679365Y-22587489D01*
X77412511Y-22320635D01*
X77121794Y-22085217D01*
X77119223Y-22083135D01*
X76802725Y-21877599D01*
X76466468Y-21706267D01*
X76114147Y-21571023D01*
X75749614Y-21473347D01*
X75749607Y-21473346D01*
X75376872Y-21414310D01*
X75000001Y-21394559D01*
X74999999Y-21394559D01*
X74623127Y-21414310D01*
X74250392Y-21473346D01*
X74250385Y-21473347D01*
X73885852Y-21571023D01*
X73533531Y-21706267D01*
X73197275Y-21877599D01*
X72880776Y-22083135D01*
X72587493Y-22320631D01*
X72587485Y-22320638D01*
X72320638Y-22587485D01*
X72320631Y-22587493D01*
X72083135Y-22880776D01*
X71877599Y-23197275D01*
X71706267Y-23533531D01*
X71571023Y-23885852D01*
X71473347Y-24250385D01*
X71473346Y-24250390D01*
X71457374Y-24351232D01*
X71427444Y-24414366D01*
X71368132Y-24451297D01*
X71298270Y-24450299D01*
X71240037Y-24411688D01*
X71219475Y-24377141D01*
X71203827Y-24337269D01*
X71072458Y-24109731D01*
X70908643Y-23904314D01*
X70716042Y-23725607D01*
X70498958Y-23577601D01*
X70498954Y-23577599D01*
X70498951Y-23577597D01*
X70498950Y-23577596D01*
X70262240Y-23463604D01*
X70262242Y-23463604D01*
X70011181Y-23386162D01*
X70011175Y-23386160D01*
X69751374Y-23347000D01*
X69751369Y-23347000D01*
X69488631Y-23347000D01*
X69488625Y-23347000D01*
X69228824Y-23386160D01*
X69228818Y-23386162D01*
X68977758Y-23463604D01*
X68741051Y-23577596D01*
X68741049Y-23577597D01*
X68523957Y-23725607D01*
X68331359Y-23904312D01*
X68331357Y-23904314D01*
X68167542Y-24109731D01*
X68036173Y-24337268D01*
X67940186Y-24581839D01*
X67940181Y-24581856D01*
X67881718Y-24837998D01*
X67862085Y-25099995D01*
X56137915Y-25099995D01*
X56118281Y-24837996D01*
X56059816Y-24581845D01*
X55963827Y-24337269D01*
X55832458Y-24109731D01*
X55668643Y-23904314D01*
X55476042Y-23725607D01*
X55258958Y-23577601D01*
X55258954Y-23577599D01*
X55258951Y-23577597D01*
X55258950Y-23577596D01*
X55022240Y-23463604D01*
X55022242Y-23463604D01*
X54771181Y-23386162D01*
X54771175Y-23386160D01*
X54511374Y-23347000D01*
X54511369Y-23347000D01*
X54248631Y-23347000D01*
X54248625Y-23347000D01*
X53988824Y-23386160D01*
X53988818Y-23386162D01*
X53737758Y-23463604D01*
X53501051Y-23577596D01*
X53501049Y-23577597D01*
X53283957Y-23725607D01*
X53091359Y-23904312D01*
X53091357Y-23904314D01*
X52927542Y-24109731D01*
X52796173Y-24337268D01*
X52700186Y-24581839D01*
X52700181Y-24581856D01*
X52641718Y-24837998D01*
X52622085Y-25099995D01*
X44355500Y-25099995D01*
X44355500Y-24502543D01*
X44355499Y-24502539D01*
X44351784Y-24469570D01*
X44345263Y-24411688D01*
X44340369Y-24368250D01*
X44340368Y-24368245D01*
X44299129Y-24250390D01*
X44280789Y-24197978D01*
X44184816Y-24045238D01*
X44057262Y-23917684D01*
X44006602Y-23885852D01*
X43904523Y-23821711D01*
X43734254Y-23762131D01*
X43734249Y-23762130D01*
X43599960Y-23747000D01*
X43599954Y-23747000D01*
X41510046Y-23747000D01*
X41510039Y-23747000D01*
X41375750Y-23762130D01*
X41375745Y-23762131D01*
X41205476Y-23821711D01*
X41052737Y-23917684D01*
X40925184Y-24045237D01*
X40829211Y-24197976D01*
X40769631Y-24368245D01*
X40769630Y-24368250D01*
X40754500Y-24502539D01*
X38172044Y-24502539D01*
X38369614Y-24469571D01*
X38604810Y-24388828D01*
X38823509Y-24270474D01*
X39019744Y-24117738D01*
X39188164Y-23934785D01*
X39324173Y-23726607D01*
X39424063Y-23498881D01*
X39485108Y-23257821D01*
X39505643Y-23010000D01*
X39494935Y-22880776D01*
X39485109Y-22762187D01*
X39485107Y-22762175D01*
X39424063Y-22521118D01*
X39324173Y-22293393D01*
X39188166Y-22085217D01*
X39166557Y-22061744D01*
X39019744Y-21902262D01*
X38823509Y-21749526D01*
X38823507Y-21749525D01*
X38823506Y-21749524D01*
X38604811Y-21631172D01*
X38604802Y-21631169D01*
X38369616Y-21550429D01*
X38124335Y-21509500D01*
X37875665Y-21509500D01*
X37630383Y-21550429D01*
X37395197Y-21631169D01*
X37395188Y-21631172D01*
X37176493Y-21749524D01*
X36980257Y-21902261D01*
X36811833Y-22085217D01*
X36675826Y-22293393D01*
X36575936Y-22521118D01*
X36514892Y-22762175D01*
X36514890Y-22762187D01*
X36494357Y-23009994D01*
X18000779Y-23009994D01*
X17916864Y-22880776D01*
X17679368Y-22587493D01*
X17679365Y-22587489D01*
X17412511Y-22320635D01*
X17121794Y-22085217D01*
X17119223Y-22083135D01*
X16802725Y-21877599D01*
X16466468Y-21706267D01*
X16114147Y-21571023D01*
X15749614Y-21473347D01*
X15749607Y-21473346D01*
X15376872Y-21414310D01*
X15000001Y-21394559D01*
X14999999Y-21394559D01*
X14623127Y-21414310D01*
X14250392Y-21473346D01*
X14250385Y-21473347D01*
X13885852Y-21571023D01*
X13533531Y-21706267D01*
X13197275Y-21877599D01*
X12880776Y-22083135D01*
X12587493Y-22320631D01*
X12587485Y-22320638D01*
X12320638Y-22587485D01*
X12320631Y-22587493D01*
X12083135Y-22880776D01*
X11877599Y-23197275D01*
X11706267Y-23533531D01*
X11571023Y-23885852D01*
X11473347Y-24250385D01*
X11473346Y-24250392D01*
X11414310Y-24623127D01*
X11394559Y-24999999D01*
X10500500Y-24999999D01*
X10500500Y-20624500D01*
X10520185Y-20557461D01*
X10572989Y-20511706D01*
X10624500Y-20500500D01*
X47868060Y-20500500D01*
X47935099Y-20520185D01*
G37*
%TD.AperFunction*%
%TA.AperFunction,Conductor*%
G36*
X45563181Y-53334627D02*
G01*
X45596666Y-53395950D01*
X45599500Y-53422308D01*
X45599500Y-53818692D01*
X45579815Y-53885731D01*
X45527011Y-53931486D01*
X45457853Y-53941430D01*
X45410711Y-53924420D01*
X45344175Y-53883647D01*
X45297299Y-53831835D01*
X45285436Y-53767111D01*
X45285687Y-53764240D01*
X44671595Y-53150147D01*
X44759071Y-53126708D01*
X44860430Y-53068189D01*
X44943189Y-52985430D01*
X45001708Y-52884071D01*
X45025147Y-52796593D01*
X45563181Y-53334627D01*
G37*
%TD.AperFunction*%
%TD*%
M02*
