%TF.GenerationSoftware,KiCad,Pcbnew,8.0.9*%
%TF.CreationDate,2025-03-10T19:15:03+01:00*%
%TF.ProjectId,ld06_board,6c643036-5f62-46f6-9172-642e6b696361,rev?*%
%TF.SameCoordinates,Original*%
%TF.FileFunction,Soldermask,Bot*%
%TF.FilePolarity,Negative*%
%FSLAX46Y46*%
G04 Gerber Fmt 4.6, Leading zero omitted, Abs format (unit mm)*
G04 Created by KiCad (PCBNEW 8.0.9) date 2025-03-10 19:15:03*
%MOMM*%
%LPD*%
G01*
G04 APERTURE LIST*
G04 Aperture macros list*
%AMRoundRect*
0 Rectangle with rounded corners*
0 $1 Rounding radius*
0 $2 $3 $4 $5 $6 $7 $8 $9 X,Y pos of 4 corners*
0 Add a 4 corners polygon primitive as box body*
4,1,4,$2,$3,$4,$5,$6,$7,$8,$9,$2,$3,0*
0 Add four circle primitives for the rounded corners*
1,1,$1+$1,$2,$3*
1,1,$1+$1,$4,$5*
1,1,$1+$1,$6,$7*
1,1,$1+$1,$8,$9*
0 Add four rect primitives between the rounded corners*
20,1,$1+$1,$2,$3,$4,$5,0*
20,1,$1+$1,$4,$5,$6,$7,0*
20,1,$1+$1,$6,$7,$8,$9,0*
20,1,$1+$1,$8,$9,$2,$3,0*%
G04 Aperture macros list end*
%ADD10C,5.600000*%
%ADD11C,1.600000*%
%ADD12O,1.600000X1.600000*%
%ADD13C,1.524000*%
%ADD14RoundRect,0.250000X-0.620000X-0.845000X0.620000X-0.845000X0.620000X0.845000X-0.620000X0.845000X0*%
%ADD15O,1.740000X2.190000*%
%ADD16C,1.400000*%
%ADD17O,1.400000X1.400000*%
%ADD18RoundRect,0.250000X-0.845000X0.620000X-0.845000X-0.620000X0.845000X-0.620000X0.845000X0.620000X0*%
%ADD19O,2.190000X1.740000*%
%ADD20R,2.000000X2.000000*%
%ADD21O,2.000000X2.000000*%
%ADD22R,1.600000X1.600000*%
%ADD23C,2.109000*%
%ADD24R,2.000000X1.905000*%
%ADD25O,2.000000X1.905000*%
%ADD26RoundRect,0.250000X0.845000X-0.620000X0.845000X0.620000X-0.845000X0.620000X-0.845000X-0.620000X0*%
%ADD27R,3.500000X3.500000*%
%ADD28RoundRect,0.750000X-0.750000X-1.000000X0.750000X-1.000000X0.750000X1.000000X-0.750000X1.000000X0*%
%ADD29RoundRect,0.875000X-0.875000X-0.875000X0.875000X-0.875000X0.875000X0.875000X-0.875000X0.875000X0*%
G04 APERTURE END LIST*
D10*
%TO.C,REF\u002A\u002A*%
X75000000Y-65000000D03*
%TD*%
D11*
%TO.C,R2*%
X52650000Y-51000000D03*
D12*
X65350000Y-51000000D03*
%TD*%
D13*
%TO.C,U1*%
X38500000Y-59080000D03*
X38500000Y-64160000D03*
X38500000Y-61620000D03*
X38500000Y-54000000D03*
X38500000Y-51460000D03*
X38500000Y-56540000D03*
X48660000Y-51460000D03*
X48660000Y-54000000D03*
X48660000Y-61620000D03*
X48660000Y-64160000D03*
X48660000Y-59080000D03*
X48660000Y-56540000D03*
%TD*%
D14*
%TO.C,BTN1-5*%
X74420000Y-35500000D03*
D15*
X76960000Y-35500000D03*
%TD*%
D16*
%TO.C,C4*%
X38000000Y-23010000D03*
D17*
X38000000Y-28090000D03*
%TD*%
D14*
%TO.C,BTN2-7*%
X74460000Y-42500000D03*
D15*
X77000000Y-42500000D03*
%TD*%
D14*
%TO.C,J6*%
X66460000Y-61500000D03*
D15*
X69000000Y-61500000D03*
%TD*%
D10*
%TO.C,REF\u002A\u002A*%
X15000000Y-25000000D03*
%TD*%
D18*
%TO.C,J1*%
X60000000Y-59460000D03*
D19*
X60000000Y-62000000D03*
X60000000Y-64540000D03*
X60000000Y-67080000D03*
%TD*%
D13*
%TO.C,U4*%
X44587500Y-67952500D03*
X44587500Y-60332500D03*
X44587500Y-62872500D03*
X44587500Y-65412500D03*
X44587500Y-52712500D03*
X44587500Y-57792500D03*
X44587500Y-55252500D03*
X44587500Y-50172500D03*
%TD*%
D20*
%TO.C,D1*%
X49500000Y-22300000D03*
D21*
X49500000Y-35000000D03*
%TD*%
D16*
%TO.C,C2*%
X43490000Y-35500000D03*
D17*
X38410000Y-35500000D03*
%TD*%
D22*
%TO.C,C3*%
X32500000Y-37197349D03*
D11*
X32500000Y-40997349D03*
%TD*%
D10*
%TO.C,REF\u002A\u002A*%
X75000000Y-25000000D03*
%TD*%
D14*
%TO.C,J4*%
X14960000Y-58500000D03*
D15*
X17500000Y-58500000D03*
X20040000Y-58500000D03*
X22580000Y-58500000D03*
%TD*%
D23*
%TO.C,U2*%
X69620000Y-42880000D03*
X69620000Y-40340000D03*
X69620000Y-37800000D03*
X69620000Y-35260000D03*
X69620000Y-30180000D03*
X69620000Y-32720000D03*
X54380000Y-25100000D03*
X69620000Y-25100000D03*
X54380000Y-27640000D03*
X54380000Y-30180000D03*
X54380000Y-32720000D03*
X54380000Y-35260000D03*
X54380000Y-37800000D03*
X54380000Y-40340000D03*
X54380000Y-42880000D03*
X69620000Y-27640000D03*
%TD*%
D24*
%TO.C,U3*%
X42555000Y-25500000D03*
D25*
X42555000Y-28040000D03*
X42555000Y-30580000D03*
%TD*%
D10*
%TO.C,REF\u002A\u002A*%
X15000000Y-65000000D03*
%TD*%
D14*
%TO.C,J7*%
X14920000Y-48000000D03*
D15*
X17460000Y-48000000D03*
X20000000Y-48000000D03*
X22540000Y-48000000D03*
%TD*%
D26*
%TO.C,J2*%
X76000000Y-54000000D03*
D19*
X76000000Y-51460000D03*
X76000000Y-48920000D03*
%TD*%
D22*
%TO.C,C1*%
X48300000Y-41000000D03*
D11*
X44500000Y-41000000D03*
%TD*%
D20*
%TO.C,D2*%
X34500000Y-25000000D03*
D21*
X21800000Y-25000000D03*
%TD*%
D11*
%TO.C,R1*%
X52650000Y-55000000D03*
D12*
X65350000Y-55000000D03*
%TD*%
D27*
%TO.C,J9*%
X25500000Y-34500000D03*
D28*
X19500000Y-34500000D03*
D29*
X22500000Y-39200000D03*
%TD*%
M02*
