M48
; DRILL file {KiCad 8.0.9} date 2025-03-10T19:15:03+0100
; FORMAT={-:-/ absolute / inch / decimal}
; #@! TF.CreationDate,2025-03-10T19:15:03+01:00
; #@! TF.GenerationSoftware,Kicad,Pcbnew,8.0.9
; #@! TF.FileFunction,Plated,1,2,PTH
FMAT,2
INCH
; #@! TA.AperFunction,Plated,PTH,ComponentDrill
T1C0.0276
; #@! TA.AperFunction,Plated,PTH,ComponentDrill
T2C0.0315
; #@! TA.AperFunction,Plated,PTH,ComponentDrill
T3C0.0350
; #@! TA.AperFunction,Plated,PTH,ComponentDrill
T4C0.0394
; #@! TA.AperFunction,Plated,PTH,ComponentDrill
T5C0.0433
; #@! TA.AperFunction,Plated,PTH,ComponentDrill
T6C0.0469
; #@! TA.AperFunction,Plated,PTH,ComponentDrill
T7C0.0500
; #@! TA.AperFunction,Plated,PTH,ComponentDrill
T8C0.1260
%
G90
G05
T1
X1.4961Y-0.9059
X1.4961Y-1.1059
X1.5122Y-1.3976
X1.7122Y-1.3976
T2
X1.2795Y-1.4645
X1.2795Y-1.6141
X1.752Y-1.6142
X1.9016Y-1.6142
X2.0728Y-2.0079
X2.0728Y-2.1654
X2.5728Y-2.0079
X2.5728Y-2.1654
T3
X1.5157Y-2.026
X1.5157Y-2.126
X1.5157Y-2.226
X1.5157Y-2.326
X1.5157Y-2.426
X1.5157Y-2.526
X1.7554Y-1.9753
X1.7554Y-2.0753
X1.7554Y-2.1753
X1.7554Y-2.2753
X1.7554Y-2.3753
X1.7554Y-2.4753
X1.7554Y-2.5753
X1.7554Y-2.6753
X1.9157Y-2.026
X1.9157Y-2.126
X1.9157Y-2.226
X1.9157Y-2.326
X1.9157Y-2.426
X1.9157Y-2.526
T4
X0.8583Y-0.9843
X1.3583Y-0.9843
X1.9488Y-0.878
X1.9488Y-1.378
T5
X1.6754Y-1.0039
X1.6754Y-1.1039
X1.6754Y-1.2039
T6
X0.5874Y-1.8898
X0.589Y-2.3031
X0.6874Y-1.8898
X0.689Y-2.3031
X0.7874Y-1.8898
X0.789Y-2.3031
X0.8874Y-1.8898
X0.889Y-2.3031
X2.3622Y-2.3409
X2.3622Y-2.4409
X2.3622Y-2.5409
X2.3622Y-2.6409
X2.6165Y-2.4213
X2.7165Y-2.4213
X2.9299Y-1.3976
X2.9315Y-1.6732
X2.9921Y-1.926
X2.9921Y-2.026
X2.9921Y-2.126
X3.0299Y-1.3976
X3.0315Y-1.6732
T7
X2.1409Y-0.9882
X2.1409Y-1.0882
X2.1409Y-1.1882
X2.1409Y-1.2882
X2.1409Y-1.3882
X2.1409Y-1.4882
X2.1409Y-1.5882
X2.1409Y-1.6882
X2.7409Y-0.9882
X2.7409Y-1.0882
X2.7409Y-1.1882
X2.7409Y-1.2882
X2.7409Y-1.3882
X2.7409Y-1.4882
X2.7409Y-1.5882
X2.7409Y-1.6882
T8
X0.5906Y-0.9843
X0.5906Y-2.5591
X2.9528Y-0.9843
X2.9528Y-2.5591
T4
G00X0.7677Y-1.3189
M15
G01X0.7677Y-1.3976
M16
G05
G00X0.8465Y-1.5433
M15
G01X0.9252Y-1.5433
M16
G05
G00X1.0039Y-1.3189
M15
G01X1.0039Y-1.3976
M16
G05
M30
