%TF.GenerationSoftware,KiCad,Pcbnew,6.0.11+dfsg-1~bpo11+1*%
%TF.CreationDate,2023-02-26T17:05:11+01:00*%
%TF.ProjectId,ultrasonic_board,756c7472-6173-46f6-9e69-635f626f6172,rev?*%
%TF.SameCoordinates,PX8b48bd0PY4eb9cf0*%
%TF.FileFunction,Copper,L2,Bot*%
%TF.FilePolarity,Positive*%
%FSLAX46Y46*%
G04 Gerber Fmt 4.6, Leading zero omitted, Abs format (unit mm)*
G04 Created by KiCad (PCBNEW 6.0.11+dfsg-1~bpo11+1) date 2023-02-26 17:05:11*
%MOMM*%
%LPD*%
G01*
G04 APERTURE LIST*
G04 Aperture macros list*
%AMRoundRect*
0 Rectangle with rounded corners*
0 $1 Rounding radius*
0 $2 $3 $4 $5 $6 $7 $8 $9 X,Y pos of 4 corners*
0 Add a 4 corners polygon primitive as box body*
4,1,4,$2,$3,$4,$5,$6,$7,$8,$9,$2,$3,0*
0 Add four circle primitives for the rounded corners*
1,1,$1+$1,$2,$3*
1,1,$1+$1,$4,$5*
1,1,$1+$1,$6,$7*
1,1,$1+$1,$8,$9*
0 Add four rect primitives between the rounded corners*
20,1,$1+$1,$2,$3,$4,$5,0*
20,1,$1+$1,$4,$5,$6,$7,0*
20,1,$1+$1,$6,$7,$8,$9,0*
20,1,$1+$1,$8,$9,$2,$3,0*%
%AMHorizOval*
0 Thick line with rounded ends*
0 $1 width*
0 $2 $3 position (X,Y) of the first rounded end (center of the circle)*
0 $4 $5 position (X,Y) of the second rounded end (center of the circle)*
0 Add line between two ends*
20,1,$1,$2,$3,$4,$5,0*
0 Add two circle primitives to create the rounded ends*
1,1,$1,$2,$3*
1,1,$1,$4,$5*%
%AMRotRect*
0 Rectangle, with rotation*
0 The origin of the aperture is its center*
0 $1 length*
0 $2 width*
0 $3 Rotation angle, in degrees counterclockwise*
0 Add horizontal line*
21,1,$1,$2,0,0,$3*%
G04 Aperture macros list end*
%TA.AperFunction,ComponentPad*%
%ADD10R,1.600000X1.600000*%
%TD*%
%TA.AperFunction,ComponentPad*%
%ADD11C,1.600000*%
%TD*%
%TA.AperFunction,ComponentPad*%
%ADD12RoundRect,0.249999X-0.620001X-0.845001X0.620001X-0.845001X0.620001X0.845001X-0.620001X0.845001X0*%
%TD*%
%TA.AperFunction,ComponentPad*%
%ADD13O,1.740000X2.190000*%
%TD*%
%TA.AperFunction,ComponentPad*%
%ADD14R,1.700000X1.700000*%
%TD*%
%TA.AperFunction,ComponentPad*%
%ADD15O,1.700000X1.700000*%
%TD*%
%TA.AperFunction,ComponentPad*%
%ADD16RotRect,1.700000X1.700000X216.000000*%
%TD*%
%TA.AperFunction,ComponentPad*%
%ADD17HorizOval,1.700000X0.000000X0.000000X0.000000X0.000000X0*%
%TD*%
%TA.AperFunction,ComponentPad*%
%ADD18RotRect,1.700000X1.700000X72.000000*%
%TD*%
%TA.AperFunction,ComponentPad*%
%ADD19HorizOval,1.700000X0.000000X0.000000X0.000000X0.000000X0*%
%TD*%
%TA.AperFunction,ComponentPad*%
%ADD20RotRect,1.700000X1.700000X288.000000*%
%TD*%
%TA.AperFunction,ComponentPad*%
%ADD21HorizOval,1.700000X0.000000X0.000000X0.000000X0.000000X0*%
%TD*%
%TA.AperFunction,ComponentPad*%
%ADD22RotRect,1.700000X1.700000X144.000000*%
%TD*%
%TA.AperFunction,ComponentPad*%
%ADD23HorizOval,1.700000X0.000000X0.000000X0.000000X0.000000X0*%
%TD*%
%TA.AperFunction,ComponentPad*%
%ADD24C,2.000000*%
%TD*%
%TA.AperFunction,ViaPad*%
%ADD25C,0.800000*%
%TD*%
%TA.AperFunction,Conductor*%
%ADD26C,0.250000*%
%TD*%
G04 APERTURE END LIST*
D10*
%TO.P,C3,1*%
%TO.N,+5V*%
X-14210604Y-17018000D03*
D11*
%TO.P,C3,2*%
%TO.N,GND*%
X-10410604Y-17018000D03*
%TD*%
D12*
%TO.P,J1,1,Pin_1*%
%TO.N,+5V*%
X3175000Y-6985000D03*
D13*
%TO.P,J1,2,Pin_2*%
%TO.N,/LED_DIG*%
X5715000Y-6985000D03*
%TO.P,J1,3,Pin_3*%
%TO.N,GND*%
X8255000Y-6985000D03*
%TD*%
D14*
%TO.P,J2,1,MISO*%
%TO.N,/MISO*%
X-8255000Y-6350000D03*
D15*
%TO.P,J2,2,VCC*%
%TO.N,+5V*%
X-5715000Y-6350000D03*
%TO.P,J2,3,SCK*%
%TO.N,/SCK*%
X-8255000Y-8890000D03*
%TO.P,J2,4,MOSI*%
%TO.N,/MOSI*%
X-5715000Y-8890000D03*
%TO.P,J2,5,~{RST}*%
%TO.N,/RST*%
X-8255000Y-11430000D03*
%TO.P,J2,6,GND*%
%TO.N,GND*%
X-5715000Y-11430000D03*
%TD*%
D12*
%TO.P,J3,1,Pin_1*%
%TO.N,+5V*%
X2540000Y1270000D03*
D13*
%TO.P,J3,2,Pin_2*%
%TO.N,/I2C_SDA*%
X5080000Y1270000D03*
%TO.P,J3,3,Pin_3*%
%TO.N,/I2C_SCL*%
X7620000Y1270000D03*
%TO.P,J3,4,Pin_4*%
%TO.N,GND*%
X10160000Y1270000D03*
%TD*%
D12*
%TO.P,J4,1,Pin_1*%
%TO.N,+5V*%
X-10160000Y1270000D03*
D13*
%TO.P,J4,2,Pin_2*%
%TO.N,Net-(J4-Pad2)*%
X-7620000Y1270000D03*
%TO.P,J4,3,Pin_3*%
%TO.N,Net-(J4-Pad3)*%
X-5080000Y1270000D03*
%TO.P,J4,4,Pin_4*%
%TO.N,GND*%
X-2540000Y1270000D03*
%TD*%
D14*
%TO.P,J5,1,Pin_1*%
%TO.N,+5V*%
X26035000Y3810000D03*
D15*
%TO.P,J5,2,Pin_2*%
%TO.N,/US0*%
X26035000Y1270000D03*
%TO.P,J5,3,Pin_3*%
X26035000Y-1270000D03*
%TO.P,J5,4,Pin_4*%
%TO.N,GND*%
X26035000Y-3810000D03*
%TD*%
D16*
%TO.P,J6,1,Pin_1*%
%TO.N,+5V*%
X23368000Y12192000D03*
D17*
%TO.P,J6,2,Pin_2*%
%TO.N,/US1*%
X21875025Y14246903D03*
%TO.P,J6,3,Pin_3*%
X20382051Y16301806D03*
%TO.P,J6,4,Pin_4*%
%TO.N,GND*%
X18889076Y18356709D03*
%TD*%
D18*
%TO.P,J7,1,Pin_1*%
%TO.N,+5V*%
X4572000Y25908000D03*
D19*
%TO.P,J7,2,Pin_2*%
%TO.N,/US2*%
X6987684Y25123097D03*
%TO.P,J7,3,Pin_3*%
X9403367Y24338194D03*
%TO.P,J7,4,Pin_4*%
%TO.N,GND*%
X11819051Y23553291D03*
%TD*%
D20*
%TO.P,J8,1,Pin_1*%
%TO.N,+5V*%
X-4572000Y25908000D03*
D21*
%TO.P,J8,2,Pin_2*%
%TO.N,/US3*%
X-6987684Y25123097D03*
%TO.P,J8,3,Pin_3*%
X-9403367Y24338194D03*
%TO.P,J8,4,Pin_4*%
%TO.N,GND*%
X-11819051Y23553291D03*
%TD*%
D22*
%TO.P,J9,1,Pin_1*%
%TO.N,+5V*%
X-23241000Y12192000D03*
D23*
%TO.P,J9,2,Pin_2*%
%TO.N,/US4*%
X-21748025Y14246903D03*
%TO.P,J9,3,Pin_3*%
X-20255051Y16301806D03*
%TO.P,J9,4,Pin_4*%
%TO.N,GND*%
X-18762076Y18356709D03*
%TD*%
D14*
%TO.P,J10,1,Pin_1*%
%TO.N,+5V*%
X-26035000Y3810000D03*
D15*
%TO.P,J10,2,Pin_2*%
%TO.N,/US5*%
X-26035000Y1270000D03*
%TO.P,J10,3,Pin_3*%
X-26035000Y-1270000D03*
%TO.P,J10,4,Pin_4*%
%TO.N,GND*%
X-26035000Y-3810000D03*
%TD*%
D16*
%TO.P,J11,1,Pin_1*%
%TO.N,+5V*%
X-18796000Y-18415000D03*
D17*
%TO.P,J11,2,Pin_2*%
%TO.N,/US6*%
X-20288975Y-16360097D03*
%TO.P,J11,3,Pin_3*%
X-21781949Y-14305194D03*
%TO.P,J11,4,Pin_4*%
%TO.N,GND*%
X-23274924Y-12250291D03*
%TD*%
D18*
%TO.P,J12,1,Pin_1*%
%TO.N,+5V*%
X-11811000Y-23495000D03*
D19*
%TO.P,J12,2,Pin_2*%
%TO.N,/US7*%
X-9395316Y-24279903D03*
%TO.P,J12,3,Pin_3*%
X-6979633Y-25064806D03*
%TO.P,J12,4,Pin_4*%
%TO.N,GND*%
X-4563949Y-25849709D03*
%TD*%
D20*
%TO.P,J13,1,Pin_1*%
%TO.N,+5V*%
X11811000Y-23495000D03*
D21*
%TO.P,J13,2,Pin_2*%
%TO.N,/US8*%
X9395316Y-24279903D03*
%TO.P,J13,3,Pin_3*%
X6979633Y-25064806D03*
%TO.P,J13,4,Pin_4*%
%TO.N,GND*%
X4563949Y-25849709D03*
%TD*%
D22*
%TO.P,J14,1,Pin_1*%
%TO.N,+5V*%
X18288000Y-19177000D03*
D23*
%TO.P,J14,2,Pin_2*%
%TO.N,/US9*%
X19780975Y-17122097D03*
%TO.P,J14,3,Pin_3*%
X21273949Y-15067194D03*
%TO.P,J14,4,Pin_4*%
%TO.N,GND*%
X22766924Y-13012291D03*
%TD*%
D24*
%TO.P,SW1,1,1*%
%TO.N,GND*%
X0Y-13970000D03*
X6500000Y-13970000D03*
%TO.P,SW1,2,2*%
%TO.N,/RST*%
X0Y-18470000D03*
X6500000Y-18470000D03*
%TD*%
D25*
%TO.N,GND*%
X-6985000Y13970000D03*
X-14605000Y2540000D03*
X-3175000Y-5715000D03*
X1505000Y15005000D03*
%TO.N,/LED_DIG*%
X-1905000Y4989990D03*
X6424990Y4989990D03*
%TO.N,/US0*%
X5715000Y15875000D03*
%TO.N,/US4*%
X-2140000Y16510000D03*
%TO.N,/US8*%
X-5714966Y7620000D03*
%TO.N,/US1*%
X6090000Y17405000D03*
%TO.N,/US5*%
X-8890000Y15875000D03*
%TO.N,/US9*%
X-4989964Y6888664D03*
%TO.N,/US6*%
X-8890000Y13335000D03*
%TO.N,/US2*%
X4640000Y18855000D03*
%TO.N,/US7*%
X-6790000Y10355000D03*
%TO.N,/US3*%
X1365000Y16605000D03*
%TO.N,/LED_STAT*%
X-765000Y11935000D03*
X8890000Y10160000D03*
%TO.N,/RS485_TXE*%
X-8255000Y12065000D03*
X-3175000Y12065000D03*
%TO.N,/UART_RXD*%
X-5715000Y19685000D03*
X-2540000Y21590000D03*
%TD*%
D26*
%TO.N,+5V*%
X-10160000Y-1905000D02*
X-5715000Y-6350000D01*
X-10160000Y1270000D02*
X-10160000Y-1905000D01*
X-5080000Y-6985000D02*
X-5715000Y-6350000D01*
X3175000Y-6985000D02*
X-5080000Y-6985000D01*
%TO.N,/LED_DIG*%
X6424990Y4989990D02*
X5859305Y4989990D01*
X5859305Y4989990D02*
X-1905000Y4989990D01*
%TO.N,/US0*%
X20320000Y1270000D02*
X26035000Y1270000D01*
X5715000Y15875000D02*
X20320000Y1270000D01*
%TO.N,/US4*%
X-19646858Y16909999D02*
X-20255051Y16301806D01*
X-2140000Y16510000D02*
X-2539999Y16909999D01*
X-2539999Y16909999D02*
X-19646858Y16909999D01*
%TO.N,/US8*%
X-5714966Y6419281D02*
X-5714966Y7620000D01*
X10245315Y-23429904D02*
X10245315Y-7060316D01*
X10245315Y-7060316D02*
X8964990Y-5779991D01*
X8964990Y-5779991D02*
X8964990Y1840009D01*
X8964990Y1840009D02*
X6994999Y3810000D01*
X-3105685Y3810000D02*
X-5714966Y6419281D01*
X9395316Y-24279903D02*
X10245315Y-23429904D01*
X6994999Y3810000D02*
X-3105685Y3810000D01*
%TO.N,/US1*%
X6090000Y17405000D02*
X7193194Y16301806D01*
X7193194Y16301806D02*
X20382051Y16301806D01*
%TO.N,/US5*%
X-12255030Y12509970D02*
X-12255030Y7429970D01*
X-18415000Y1270000D02*
X-26035000Y1270000D01*
X-8890000Y15875000D02*
X-12255030Y12509970D01*
X-12255030Y7429970D02*
X-18415000Y1270000D01*
%TO.N,/US9*%
X-3816300Y5715000D02*
X-4989964Y6888664D01*
X21273949Y-15067194D02*
X21273949Y-7928950D01*
X7629999Y5715000D02*
X-3816300Y5715000D01*
X21273949Y-7928950D02*
X7629999Y5715000D01*
%TO.N,/US6*%
X-8890000Y13335000D02*
X-11805020Y10419980D01*
X-11805020Y10419980D02*
X-11805020Y-7876142D01*
X-11805020Y-7876142D02*
X-20288975Y-16360097D01*
%TO.N,/US2*%
X4640000Y18855000D02*
X4640000Y22775413D01*
X4640000Y22775413D02*
X6987684Y25123097D01*
%TO.N,/US7*%
X-11355010Y5789990D02*
X-11355010Y-8062528D01*
X-6790000Y10355000D02*
X-11355010Y5789990D01*
X-12446000Y-9153518D02*
X-12446000Y-18288000D01*
X-12446000Y-18288000D02*
X-9395316Y-21338684D01*
X-9395316Y-21338684D02*
X-9395316Y-24279903D01*
X-11355010Y-8062528D02*
X-12446000Y-9153518D01*
%TO.N,/US3*%
X-4150096Y24273098D02*
X-6137685Y24273098D01*
X-6137685Y24273098D02*
X-6987684Y25123097D01*
X1365000Y16605000D02*
X1365000Y18758002D01*
X1365000Y18758002D02*
X-4150096Y24273098D01*
%TO.N,/LED_STAT*%
X8890000Y10160000D02*
X1010000Y10160000D01*
X1010000Y10160000D02*
X-765000Y11935000D01*
%TO.N,/RS485_TXE*%
X-3175000Y12065000D02*
X-8255000Y12065000D01*
%TO.N,/UART_RXD*%
X-3810000Y21590000D02*
X-5715000Y19685000D01*
X-2540000Y21590000D02*
X-3810000Y21590000D01*
%TD*%
%TA.AperFunction,Conductor*%
%TO.N,GND*%
G36*
X9049412Y28569494D02*
G01*
X9259596Y28505234D01*
X9263778Y28503875D01*
X9724111Y28345370D01*
X9950422Y28267445D01*
X9982226Y28251131D01*
X18535971Y22192229D01*
X23337337Y18791261D01*
X23362427Y18767736D01*
X23616468Y18454022D01*
X23619174Y18450559D01*
X24245245Y17619737D01*
X24246130Y17618562D01*
X24248709Y17615013D01*
X24373209Y17437208D01*
X24846242Y16761646D01*
X24848701Y16758000D01*
X25071401Y16415072D01*
X25296757Y16068056D01*
X25324263Y16025700D01*
X25338546Y15995634D01*
X29868161Y1903500D01*
X29911109Y1769884D01*
X29916979Y1737924D01*
X29929239Y1503998D01*
X29953126Y1048201D01*
X29953280Y1043806D01*
X29953868Y1010135D01*
X29971402Y5649D01*
X29971462Y2199D01*
X29971462Y-2177D01*
X29963850Y-438277D01*
X29953280Y-1043806D01*
X29953126Y-1048201D01*
X29933431Y-1423996D01*
X29925414Y-1462088D01*
X23508322Y-18379878D01*
X23464622Y-18437093D01*
X20120699Y-20869037D01*
X11411546Y-27202967D01*
X9960863Y-28258009D01*
X9927775Y-28275243D01*
X9263779Y-28503875D01*
X9259596Y-28505234D01*
X9049412Y-28569494D01*
X9012573Y-28575000D01*
X-9012573Y-28575000D01*
X-9049412Y-28569494D01*
X-9259596Y-28505234D01*
X-9263779Y-28503875D01*
X-9914674Y-28279754D01*
X-9948545Y-28261945D01*
X-11387842Y-27198117D01*
X-4730642Y-27198117D01*
X-4721444Y-27202809D01*
X-4720119Y-27202967D01*
X-4507299Y-27210771D01*
X-4497013Y-27210304D01*
X-4285764Y-27183243D01*
X-4275687Y-27181101D01*
X-4071694Y-27119900D01*
X-4062107Y-27116142D01*
X-3870854Y-27022448D01*
X-3862004Y-27017173D01*
X-3688621Y-26893501D01*
X-3680749Y-26886848D01*
X-3529897Y-26736521D01*
X-3523219Y-26728674D01*
X-3398946Y-26555730D01*
X-3393637Y-26546894D01*
X-3380432Y-26520175D01*
X-3378016Y-26506388D01*
X3377718Y-26506388D01*
X3379348Y-26515804D01*
X3461643Y-26650097D01*
X3467726Y-26658408D01*
X3607162Y-26819376D01*
X3614529Y-26826592D01*
X3778383Y-26962625D01*
X3786830Y-26968540D01*
X3970705Y-27075988D01*
X3979991Y-27080438D01*
X4178950Y-27156412D01*
X4188848Y-27159288D01*
X4397544Y-27201747D01*
X4407772Y-27202966D01*
X4620599Y-27210771D01*
X4630885Y-27210304D01*
X4716675Y-27199314D01*
X4728711Y-27194040D01*
X4728608Y-27178437D01*
X4406469Y-26186997D01*
X4397504Y-26173886D01*
X4395809Y-26173170D01*
X4387987Y-26173954D01*
X3389359Y-26498428D01*
X3377718Y-26506388D01*
X-3378016Y-26506388D01*
X-3378006Y-26506330D01*
X-3389699Y-26498317D01*
X-4383640Y-26175367D01*
X-4399519Y-26174913D01*
X-4401094Y-26175863D01*
X-4405058Y-26182653D01*
X-4730221Y-27183404D01*
X-4730642Y-27198117D01*
X-11387842Y-27198117D01*
X-11498749Y-27116142D01*
X-24097358Y-17804126D01*
X-24142421Y-17741358D01*
X-24143042Y-17739424D01*
X-25916450Y-12222154D01*
X-24636874Y-12222154D01*
X-24624615Y-12434768D01*
X-24623179Y-12444988D01*
X-24576359Y-12652737D01*
X-24573279Y-12662566D01*
X-24512032Y-12813404D01*
X-24503260Y-12824446D01*
X-24494231Y-12822208D01*
X-23644367Y-12204746D01*
X-23634669Y-12192169D01*
X-23634512Y-12190335D01*
X-23637675Y-12183138D01*
X-24253964Y-11334889D01*
X-24264493Y-11326770D01*
X-24277951Y-11334192D01*
X-24330334Y-11389008D01*
X-24336820Y-11397018D01*
X-24456826Y-11572940D01*
X-24461924Y-11581914D01*
X-24551586Y-11775074D01*
X-24555149Y-11784761D01*
X-24612060Y-11989972D01*
X-24613991Y-12000091D01*
X-24636622Y-12211865D01*
X-24636874Y-12222154D01*
X-25916450Y-12222154D01*
X-26302174Y-11022123D01*
X-23848254Y-11022123D01*
X-23843488Y-11035599D01*
X-23229379Y-11880848D01*
X-23216802Y-11890546D01*
X-23214968Y-11890703D01*
X-23207771Y-11887540D01*
X-22356184Y-11268826D01*
X-22347155Y-11257117D01*
X-22351077Y-11249381D01*
X-22516785Y-11118513D01*
X-22525372Y-11112808D01*
X-22711807Y-11009890D01*
X-22721219Y-11005660D01*
X-22921965Y-10934571D01*
X-22931935Y-10931937D01*
X-23141597Y-10894592D01*
X-23151851Y-10893622D01*
X-23364808Y-10891019D01*
X-23375092Y-10891739D01*
X-23585603Y-10923952D01*
X-23595631Y-10926341D01*
X-23798056Y-10992503D01*
X-23807565Y-10996500D01*
X-23838170Y-11012432D01*
X-23848254Y-11022123D01*
X-26302174Y-11022123D01*
X-28534225Y-4077966D01*
X-27366743Y-4077966D01*
X-27336435Y-4212446D01*
X-27333355Y-4222275D01*
X-27253230Y-4419603D01*
X-27248587Y-4428794D01*
X-27137306Y-4610388D01*
X-27131223Y-4618699D01*
X-26991787Y-4779667D01*
X-26984420Y-4786883D01*
X-26820566Y-4922916D01*
X-26812119Y-4928831D01*
X-26628244Y-5036279D01*
X-26618958Y-5040729D01*
X-26419999Y-5116703D01*
X-26410101Y-5119579D01*
X-26306750Y-5140606D01*
X-26292701Y-5139410D01*
X-26289000Y-5129065D01*
X-26289000Y-5128517D01*
X-25781000Y-5128517D01*
X-25776936Y-5142359D01*
X-25763522Y-5144393D01*
X-25756816Y-5143534D01*
X-25746738Y-5141392D01*
X-25542745Y-5080191D01*
X-25533158Y-5076433D01*
X-25341905Y-4982739D01*
X-25333055Y-4977464D01*
X-25159672Y-4853792D01*
X-25151800Y-4847139D01*
X-25000948Y-4696812D01*
X-24994270Y-4688965D01*
X-24869997Y-4516020D01*
X-24864687Y-4507183D01*
X-24770330Y-4316267D01*
X-24766531Y-4306672D01*
X-24704623Y-4102910D01*
X-24702445Y-4092837D01*
X-24701014Y-4081962D01*
X-24703225Y-4067778D01*
X-24716383Y-4064000D01*
X-25762885Y-4064000D01*
X-25778124Y-4068475D01*
X-25779329Y-4069865D01*
X-25781000Y-4077548D01*
X-25781000Y-5128517D01*
X-26289000Y-5128517D01*
X-26289000Y-4082115D01*
X-26293475Y-4066876D01*
X-26294865Y-4065671D01*
X-26302548Y-4064000D01*
X-27351775Y-4064000D01*
X-27365306Y-4067973D01*
X-27366743Y-4077966D01*
X-28534225Y-4077966D01*
X-29447491Y-1236695D01*
X-27397749Y-1236695D01*
X-27397452Y-1241848D01*
X-27397452Y-1241851D01*
X-27391989Y-1336590D01*
X-27384890Y-1459715D01*
X-27383753Y-1464761D01*
X-27383752Y-1464767D01*
X-27363881Y-1552939D01*
X-27335778Y-1677639D01*
X-27251734Y-1884616D01*
X-27135013Y-2075088D01*
X-26988750Y-2243938D01*
X-26816874Y-2386632D01*
X-26761712Y-2418866D01*
X-26743045Y-2429774D01*
X-26694321Y-2481412D01*
X-26681250Y-2551195D01*
X-26707981Y-2616967D01*
X-26748438Y-2650327D01*
X-26756543Y-2654546D01*
X-26765262Y-2660036D01*
X-26935567Y-2787905D01*
X-26943274Y-2794748D01*
X-27090410Y-2948717D01*
X-27096896Y-2956727D01*
X-27216902Y-3132649D01*
X-27222000Y-3141623D01*
X-27311662Y-3334783D01*
X-27315225Y-3344470D01*
X-27370611Y-3544183D01*
X-27369088Y-3552607D01*
X-27356708Y-3556000D01*
X-24716656Y-3556000D01*
X-24703125Y-3552027D01*
X-24701820Y-3542947D01*
X-24743786Y-3375875D01*
X-24747106Y-3366124D01*
X-24832028Y-3170814D01*
X-24836895Y-3161739D01*
X-24952574Y-2982926D01*
X-24958864Y-2974757D01*
X-25102194Y-2817240D01*
X-25109727Y-2810215D01*
X-25276861Y-2678222D01*
X-25285444Y-2672520D01*
X-25322398Y-2652120D01*
X-25372369Y-2601687D01*
X-25387141Y-2532245D01*
X-25362025Y-2465839D01*
X-25334673Y-2439232D01*
X-25306121Y-2418866D01*
X-25155140Y-2311173D01*
X-24996904Y-2153489D01*
X-24937406Y-2070689D01*
X-24869565Y-1976277D01*
X-24866547Y-1972077D01*
X-24767570Y-1771811D01*
X-24702630Y-1558069D01*
X-24673471Y-1336590D01*
X-24671844Y-1270000D01*
X-24690148Y-1047361D01*
X-24744569Y-830702D01*
X-24833646Y-625840D01*
X-24873094Y-564862D01*
X-24952178Y-442617D01*
X-24952180Y-442614D01*
X-24954986Y-438277D01*
X-25105330Y-273051D01*
X-25109381Y-269852D01*
X-25109385Y-269848D01*
X-25276586Y-137800D01*
X-25276590Y-137798D01*
X-25280641Y-134598D01*
X-25321947Y-111796D01*
X-25371916Y-61364D01*
X-25386688Y8079D01*
X-25361572Y74484D01*
X-25334220Y101091D01*
X-25272269Y145280D01*
X-25155140Y228827D01*
X-24996904Y386511D01*
X-24937406Y469311D01*
X-24869565Y563723D01*
X-24866547Y567923D01*
X-24864254Y572563D01*
X-24862554Y575392D01*
X-24810326Y623482D01*
X-24754549Y636500D01*
X-18493767Y636500D01*
X-18482584Y635973D01*
X-18475091Y634298D01*
X-18467165Y634547D01*
X-18467164Y634547D01*
X-18407014Y636438D01*
X-18403055Y636500D01*
X-18375144Y636500D01*
X-18371209Y636997D01*
X-18371144Y637005D01*
X-18359307Y637938D01*
X-18327049Y638952D01*
X-18323030Y639078D01*
X-18315111Y639327D01*
X-18295657Y644979D01*
X-18276300Y648987D01*
X-18264070Y650532D01*
X-18264069Y650532D01*
X-18256203Y651526D01*
X-18248832Y654445D01*
X-18248830Y654445D01*
X-18215088Y667804D01*
X-18203858Y671649D01*
X-18169017Y681771D01*
X-18169016Y681771D01*
X-18161407Y683982D01*
X-18154588Y688015D01*
X-18154583Y688017D01*
X-18143972Y694293D01*
X-18126224Y702988D01*
X-18107383Y710448D01*
X-18071613Y736436D01*
X-18061693Y742952D01*
X-18030465Y761420D01*
X-18030462Y761422D01*
X-18023638Y765458D01*
X-18009317Y779779D01*
X-17994283Y792620D01*
X-17984306Y799869D01*
X-17977893Y804528D01*
X-17949702Y838605D01*
X-17941712Y847384D01*
X-12653615Y6135480D01*
X-12591303Y6169506D01*
X-12520488Y6164441D01*
X-12463652Y6121894D01*
X-12438841Y6055374D01*
X-12438520Y6046385D01*
X-12438520Y-7561547D01*
X-12458522Y-7629668D01*
X-12475425Y-7650642D01*
X-19831630Y-15006847D01*
X-19893942Y-15040873D01*
X-19942821Y-15041799D01*
X-20155602Y-15003897D01*
X-20155608Y-15003896D01*
X-20160691Y-15002991D01*
X-20234523Y-15002089D01*
X-20378894Y-15000325D01*
X-20378896Y-15000325D01*
X-20384064Y-15000262D01*
X-20389272Y-15001059D01*
X-20389310Y-15001054D01*
X-20394330Y-15001405D01*
X-20394403Y-15000368D01*
X-20459633Y-14991585D01*
X-20513704Y-14945576D01*
X-20534316Y-14877637D01*
X-20521278Y-14820680D01*
X-20514519Y-14807005D01*
X-20449579Y-14593263D01*
X-20420420Y-14371784D01*
X-20418793Y-14305194D01*
X-20437097Y-14082555D01*
X-20491518Y-13865896D01*
X-20580595Y-13661034D01*
X-20628730Y-13586629D01*
X-20699127Y-13477811D01*
X-20699129Y-13477808D01*
X-20701935Y-13473471D01*
X-20852279Y-13308245D01*
X-20856330Y-13305046D01*
X-20856334Y-13305042D01*
X-21023535Y-13172994D01*
X-21023539Y-13172992D01*
X-21027590Y-13169792D01*
X-21223160Y-13061832D01*
X-21228029Y-13060108D01*
X-21228033Y-13060106D01*
X-21428862Y-12988989D01*
X-21428866Y-12988988D01*
X-21433737Y-12987263D01*
X-21438830Y-12986356D01*
X-21438833Y-12986355D01*
X-21648576Y-12948994D01*
X-21648582Y-12948993D01*
X-21653665Y-12948088D01*
X-21727497Y-12947186D01*
X-21871868Y-12945422D01*
X-21871870Y-12945422D01*
X-21877038Y-12945359D01*
X-21882839Y-12946247D01*
X-21883118Y-12946209D01*
X-21887304Y-12946502D01*
X-21887364Y-12945638D01*
X-21953199Y-12936781D01*
X-22007275Y-12890777D01*
X-22027894Y-12822840D01*
X-22014856Y-12765870D01*
X-22010254Y-12756558D01*
X-22006455Y-12746963D01*
X-21944548Y-12543206D01*
X-21942369Y-12533125D01*
X-21914334Y-12320178D01*
X-21913815Y-12313503D01*
X-21912352Y-12253655D01*
X-21912546Y-12246937D01*
X-21930143Y-12032895D01*
X-21931828Y-12022715D01*
X-21983710Y-11816166D01*
X-21987030Y-11806415D01*
X-22038580Y-11687856D01*
X-22047617Y-11677033D01*
X-22057496Y-11679739D01*
X-22920136Y-12306484D01*
X-23331117Y-12605079D01*
X-24192427Y-13230857D01*
X-24201037Y-13242024D01*
X-24196813Y-13250031D01*
X-24060491Y-13363207D01*
X-24052043Y-13369122D01*
X-23868168Y-13476570D01*
X-23858882Y-13481020D01*
X-23659923Y-13556994D01*
X-23650025Y-13559870D01*
X-23441329Y-13602329D01*
X-23431101Y-13603548D01*
X-23218274Y-13611353D01*
X-23207990Y-13610886D01*
X-23168024Y-13605766D01*
X-23097914Y-13616950D01*
X-23044980Y-13664263D01*
X-23026028Y-13732684D01*
X-23037725Y-13783795D01*
X-23061261Y-13834499D01*
X-23120960Y-14049764D01*
X-23144698Y-14271889D01*
X-23144401Y-14277042D01*
X-23144401Y-14277045D01*
X-23138967Y-14371293D01*
X-23131839Y-14494909D01*
X-23130702Y-14499955D01*
X-23130701Y-14499961D01*
X-23109674Y-14593263D01*
X-23082727Y-14712833D01*
X-22998683Y-14919810D01*
X-22949317Y-15000368D01*
X-22923703Y-15042166D01*
X-22881962Y-15110282D01*
X-22735699Y-15279132D01*
X-22563823Y-15421826D01*
X-22370949Y-15534532D01*
X-22162257Y-15614224D01*
X-22157189Y-15615255D01*
X-22157186Y-15615256D01*
X-22049570Y-15637151D01*
X-21943352Y-15658761D01*
X-21938177Y-15658951D01*
X-21938175Y-15658951D01*
X-21725276Y-15666758D01*
X-21725272Y-15666758D01*
X-21720112Y-15666947D01*
X-21675298Y-15661206D01*
X-21605188Y-15672390D01*
X-21552255Y-15719703D01*
X-21533303Y-15788124D01*
X-21545001Y-15839236D01*
X-21566106Y-15884702D01*
X-21566109Y-15884709D01*
X-21568287Y-15889402D01*
X-21627986Y-16104667D01*
X-21651724Y-16326792D01*
X-21651427Y-16331945D01*
X-21651427Y-16331948D01*
X-21646118Y-16424019D01*
X-21638865Y-16549812D01*
X-21637727Y-16554861D01*
X-21637727Y-16554862D01*
X-21633360Y-16574239D01*
X-21589753Y-16767736D01*
X-21539033Y-16892646D01*
X-21512968Y-16956835D01*
X-21505709Y-16974713D01*
X-21388988Y-17165185D01*
X-21242725Y-17334035D01*
X-21070849Y-17476729D01*
X-20877975Y-17589435D01*
X-20873150Y-17591277D01*
X-20873149Y-17591278D01*
X-20820444Y-17611404D01*
X-20669283Y-17669127D01*
X-20664215Y-17670158D01*
X-20664212Y-17670159D01*
X-20459865Y-17711734D01*
X-20397100Y-17744915D01*
X-20362238Y-17806763D01*
X-20366347Y-17877641D01*
X-20379854Y-17904655D01*
X-20447735Y-18007407D01*
X-20490686Y-18146588D01*
X-20490978Y-18166268D01*
X-20492543Y-18271767D01*
X-20492847Y-18292229D01*
X-20490456Y-18300879D01*
X-20490456Y-18300881D01*
X-20473525Y-18362138D01*
X-20454044Y-18432624D01*
X-20422960Y-18486901D01*
X-20420961Y-18489652D01*
X-20420960Y-18489654D01*
X-19454308Y-19820135D01*
X-19367140Y-19940112D01*
X-19364854Y-19942633D01*
X-19364850Y-19942638D01*
X-19330432Y-19980596D01*
X-19330429Y-19980599D01*
X-19325125Y-19986448D01*
X-19203593Y-20066735D01*
X-19195014Y-20069382D01*
X-19195013Y-20069383D01*
X-19142548Y-20085573D01*
X-19064412Y-20109686D01*
X-18983320Y-20110889D01*
X-18927748Y-20111714D01*
X-18927747Y-20111714D01*
X-18918771Y-20111847D01*
X-18910121Y-20109456D01*
X-18910119Y-20109456D01*
X-18848862Y-20092525D01*
X-18778376Y-20073044D01*
X-18724099Y-20041960D01*
X-18721346Y-20039960D01*
X-17273646Y-18988144D01*
X-17273644Y-18988142D01*
X-17270888Y-18986140D01*
X-17268362Y-18983850D01*
X-17230404Y-18949432D01*
X-17230401Y-18949429D01*
X-17224552Y-18944125D01*
X-17144265Y-18822593D01*
X-17101314Y-18683412D01*
X-17099153Y-18537771D01*
X-17114028Y-18483949D01*
X-17132571Y-18416861D01*
X-17137956Y-18397376D01*
X-17169040Y-18343099D01*
X-17245237Y-18238223D01*
X-18222856Y-16892646D01*
X-18222858Y-16892644D01*
X-18224860Y-16889888D01*
X-18227150Y-16887362D01*
X-18261568Y-16849404D01*
X-18261571Y-16849401D01*
X-18266875Y-16843552D01*
X-18388407Y-16763265D01*
X-18396986Y-16760618D01*
X-18396987Y-16760617D01*
X-18449452Y-16744427D01*
X-18527588Y-16720314D01*
X-18608680Y-16719111D01*
X-18664252Y-16718286D01*
X-18664253Y-16718286D01*
X-18673229Y-16718153D01*
X-18681879Y-16720544D01*
X-18681881Y-16720544D01*
X-18793555Y-16751409D01*
X-18864543Y-16750277D01*
X-18923649Y-16710945D01*
X-18952109Y-16645902D01*
X-18952043Y-16613515D01*
X-18934193Y-16477937D01*
X-18927446Y-16426687D01*
X-18927143Y-16414285D01*
X-18925901Y-16363462D01*
X-18925901Y-16363458D01*
X-18925819Y-16360097D01*
X-18944123Y-16137458D01*
X-18972154Y-16025862D01*
X-18969350Y-15954920D01*
X-18939045Y-15906071D01*
X-13294595Y-10261621D01*
X-13232283Y-10227595D01*
X-13161468Y-10232660D01*
X-13104632Y-10275207D01*
X-13079821Y-10341727D01*
X-13079500Y-10350716D01*
X-13079500Y-15617226D01*
X-13099502Y-15685347D01*
X-13153158Y-15731840D01*
X-13223432Y-15741944D01*
X-13249729Y-15735208D01*
X-13292886Y-15719029D01*
X-13292892Y-15719027D01*
X-13300288Y-15716255D01*
X-13362470Y-15709500D01*
X-15058738Y-15709500D01*
X-15120920Y-15716255D01*
X-15257309Y-15767385D01*
X-15373865Y-15854739D01*
X-15461219Y-15971295D01*
X-15512349Y-16107684D01*
X-15519104Y-16169866D01*
X-15519104Y-17866134D01*
X-15512349Y-17928316D01*
X-15461219Y-18064705D01*
X-15373865Y-18181261D01*
X-15257309Y-18268615D01*
X-15120920Y-18319745D01*
X-15058738Y-18326500D01*
X-13362470Y-18326500D01*
X-13300288Y-18319745D01*
X-13242977Y-18298260D01*
X-13172169Y-18293077D01*
X-13109800Y-18326998D01*
X-13076688Y-18387397D01*
X-13076673Y-18387889D01*
X-13071706Y-18404986D01*
X-13071022Y-18407339D01*
X-13067013Y-18426700D01*
X-13064474Y-18446797D01*
X-13061555Y-18454168D01*
X-13061555Y-18454170D01*
X-13048196Y-18487912D01*
X-13044351Y-18499142D01*
X-13032018Y-18541593D01*
X-13027985Y-18548412D01*
X-13027983Y-18548417D01*
X-13021707Y-18559028D01*
X-13013012Y-18576776D01*
X-13005552Y-18595617D01*
X-13000890Y-18602033D01*
X-13000890Y-18602034D01*
X-12979564Y-18631387D01*
X-12973048Y-18641307D01*
X-12959971Y-18663418D01*
X-12950542Y-18679362D01*
X-12936221Y-18693683D01*
X-12923381Y-18708716D01*
X-12911472Y-18725107D01*
X-12905366Y-18730158D01*
X-12877395Y-18753298D01*
X-12868616Y-18761288D01*
X-10065721Y-21564183D01*
X-10031695Y-21626495D01*
X-10028816Y-21653278D01*
X-10028816Y-22699183D01*
X-10048818Y-22767304D01*
X-10102474Y-22813797D01*
X-10172748Y-22823901D01*
X-10237328Y-22794407D01*
X-10274057Y-22739894D01*
X-10282202Y-22716038D01*
X-10366059Y-22596942D01*
X-10410587Y-22561459D01*
X-10473798Y-22511088D01*
X-10473801Y-22511086D01*
X-10479973Y-22506168D01*
X-10537024Y-22480528D01*
X-12245377Y-21925451D01*
X-12248707Y-21924755D01*
X-12248712Y-21924754D01*
X-12298866Y-21914276D01*
X-12298869Y-21914276D01*
X-12306603Y-21912660D01*
X-12452116Y-21919141D01*
X-12460610Y-21922041D01*
X-12460611Y-21922041D01*
X-12581468Y-21963302D01*
X-12589962Y-21966202D01*
X-12597300Y-21971369D01*
X-12701716Y-22044889D01*
X-12701718Y-22044891D01*
X-12709058Y-22050059D01*
X-12714654Y-22057082D01*
X-12794912Y-22157798D01*
X-12794914Y-22157801D01*
X-12799832Y-22163973D01*
X-12825472Y-22221024D01*
X-13380549Y-23929377D01*
X-13381245Y-23932707D01*
X-13381246Y-23932712D01*
X-13388642Y-23968117D01*
X-13393340Y-23990603D01*
X-13386859Y-24136116D01*
X-13383959Y-24144610D01*
X-13383959Y-24144611D01*
X-13353754Y-24233083D01*
X-13339798Y-24273962D01*
X-13255941Y-24393058D01*
X-13221320Y-24420646D01*
X-13148202Y-24478912D01*
X-13148199Y-24478914D01*
X-13142027Y-24483832D01*
X-13084976Y-24509472D01*
X-11376623Y-25064549D01*
X-11373293Y-25065245D01*
X-11373288Y-25065246D01*
X-11323134Y-25075724D01*
X-11323131Y-25075724D01*
X-11315397Y-25077340D01*
X-11169884Y-25070859D01*
X-11161390Y-25067959D01*
X-11161389Y-25067959D01*
X-11040532Y-25026698D01*
X-11040531Y-25026698D01*
X-11032038Y-25023798D01*
X-10972647Y-24981980D01*
X-10920284Y-24945111D01*
X-10920282Y-24945109D01*
X-10912942Y-24939941D01*
X-10835642Y-24842936D01*
X-10777546Y-24802126D01*
X-10706610Y-24799204D01*
X-10645354Y-24835097D01*
X-10620359Y-24874057D01*
X-10612050Y-24894519D01*
X-10609351Y-24898923D01*
X-10500233Y-25076988D01*
X-10495329Y-25084991D01*
X-10349066Y-25253841D01*
X-10177190Y-25396535D01*
X-9984316Y-25509241D01*
X-9775624Y-25588933D01*
X-9770556Y-25589964D01*
X-9770553Y-25589965D01*
X-9723642Y-25599509D01*
X-9556719Y-25633470D01*
X-9551544Y-25633660D01*
X-9551542Y-25633660D01*
X-9338643Y-25641467D01*
X-9338639Y-25641467D01*
X-9333479Y-25641656D01*
X-9328359Y-25641000D01*
X-9328357Y-25641000D01*
X-9117028Y-25613928D01*
X-9117027Y-25613928D01*
X-9111900Y-25613271D01*
X-9066029Y-25599509D01*
X-8902887Y-25550564D01*
X-8902882Y-25550562D01*
X-8897932Y-25549077D01*
X-8697322Y-25450799D01*
X-8515456Y-25321076D01*
X-8511798Y-25317431D01*
X-8507842Y-25314088D01*
X-8506826Y-25315291D01*
X-8450662Y-25284760D01*
X-8379856Y-25289957D01*
X-8323100Y-25332610D01*
X-8301193Y-25380229D01*
X-8280411Y-25472445D01*
X-8242172Y-25566617D01*
X-8198671Y-25673747D01*
X-8196367Y-25679422D01*
X-8079646Y-25869894D01*
X-7933383Y-26038744D01*
X-7794674Y-26153902D01*
X-7770603Y-26173886D01*
X-7761507Y-26181438D01*
X-7568633Y-26294144D01*
X-7359941Y-26373836D01*
X-7354873Y-26374867D01*
X-7354870Y-26374868D01*
X-7247616Y-26396689D01*
X-7141036Y-26418373D01*
X-7135861Y-26418563D01*
X-7135859Y-26418563D01*
X-6922960Y-26426370D01*
X-6922956Y-26426370D01*
X-6917796Y-26426559D01*
X-6912676Y-26425903D01*
X-6912674Y-26425903D01*
X-6701345Y-26398831D01*
X-6701344Y-26398831D01*
X-6696217Y-26398174D01*
X-6691267Y-26396689D01*
X-6487204Y-26335467D01*
X-6487199Y-26335465D01*
X-6482249Y-26333980D01*
X-6281639Y-26235702D01*
X-6099773Y-26105979D01*
X-6096115Y-26102334D01*
X-6092159Y-26098991D01*
X-6091248Y-26100069D01*
X-6034595Y-26069251D01*
X-5963787Y-26074429D01*
X-5907019Y-26117066D01*
X-5885091Y-26164713D01*
X-5865384Y-26252155D01*
X-5862304Y-26261984D01*
X-5782179Y-26459312D01*
X-5777536Y-26468503D01*
X-5666255Y-26650097D01*
X-5660172Y-26658408D01*
X-5520736Y-26819376D01*
X-5513369Y-26826592D01*
X-5349515Y-26962625D01*
X-5341068Y-26968540D01*
X-5233571Y-27031356D01*
X-5219884Y-27034752D01*
X-5213423Y-27026624D01*
X-4865582Y-25956080D01*
X-4777594Y-25685279D01*
X-4238745Y-25685279D01*
X-4237795Y-25686854D01*
X-4231005Y-25690817D01*
X-3233862Y-26014808D01*
X-3220647Y-26015186D01*
X-3214096Y-26001153D01*
X-3203359Y-25919596D01*
X-3202840Y-25912921D01*
X-3201377Y-25853073D01*
X-3201571Y-25846355D01*
X-3203608Y-25821572D01*
X3201999Y-25821572D01*
X3212479Y-26003332D01*
X3217225Y-26016612D01*
X3226005Y-26017362D01*
X4226661Y-25692229D01*
X4239772Y-25683264D01*
X4240488Y-25681569D01*
X4239704Y-25673747D01*
X3915611Y-24676289D01*
X3907932Y-24665059D01*
X3893287Y-24667767D01*
X3842416Y-24694249D01*
X3833681Y-24699750D01*
X3663382Y-24827614D01*
X3655675Y-24834457D01*
X3508539Y-24988426D01*
X3502053Y-24996436D01*
X3382047Y-25172358D01*
X3376949Y-25181332D01*
X3287287Y-25374492D01*
X3283724Y-25384179D01*
X3226813Y-25589390D01*
X3224882Y-25599509D01*
X3202251Y-25811283D01*
X3201999Y-25821572D01*
X-3203608Y-25821572D01*
X-3219168Y-25632313D01*
X-3220853Y-25622133D01*
X-3272735Y-25415584D01*
X-3276055Y-25405833D01*
X-3360977Y-25210523D01*
X-3365844Y-25201448D01*
X-3481523Y-25022635D01*
X-3487813Y-25014466D01*
X-3631143Y-24856949D01*
X-3638676Y-24849924D01*
X-3805814Y-24717927D01*
X-3814387Y-24712231D01*
X-3894260Y-24668139D01*
X-3907009Y-24665304D01*
X-3916188Y-24678068D01*
X-4238291Y-25669400D01*
X-4238745Y-25685279D01*
X-4777594Y-25685279D01*
X-4398320Y-24517992D01*
X-4397914Y-24503790D01*
X-4410401Y-24497612D01*
X-4430625Y-24494009D01*
X-4440875Y-24493040D01*
X-4653833Y-24490437D01*
X-4664117Y-24491157D01*
X-4874628Y-24523370D01*
X-4884656Y-24525759D01*
X-5087081Y-24591921D01*
X-5096590Y-24595918D01*
X-5285486Y-24694251D01*
X-5294211Y-24699745D01*
X-5459184Y-24823611D01*
X-5525669Y-24848517D01*
X-5595064Y-24833525D01*
X-5645338Y-24783394D01*
X-5657041Y-24753546D01*
X-5671935Y-24694251D01*
X-5689202Y-24625508D01*
X-5778279Y-24420646D01*
X-5878668Y-24265468D01*
X-5896811Y-24237423D01*
X-5896813Y-24237420D01*
X-5899619Y-24233083D01*
X-6049963Y-24067857D01*
X-6054014Y-24064658D01*
X-6054018Y-24064654D01*
X-6221219Y-23932606D01*
X-6221223Y-23932604D01*
X-6225274Y-23929404D01*
X-6420844Y-23821444D01*
X-6425713Y-23819720D01*
X-6425717Y-23819718D01*
X-6626546Y-23748601D01*
X-6626550Y-23748600D01*
X-6631421Y-23746875D01*
X-6636514Y-23745968D01*
X-6636517Y-23745967D01*
X-6846260Y-23708606D01*
X-6846266Y-23708605D01*
X-6851349Y-23707700D01*
X-6925181Y-23706798D01*
X-7069552Y-23705034D01*
X-7069554Y-23705034D01*
X-7074722Y-23704971D01*
X-7295542Y-23738761D01*
X-7507877Y-23808163D01*
X-7706026Y-23911313D01*
X-7710159Y-23914416D01*
X-7710162Y-23914418D01*
X-7874999Y-24038181D01*
X-7941484Y-24063087D01*
X-8010880Y-24048095D01*
X-8061153Y-23997964D01*
X-8072856Y-23968117D01*
X-8083401Y-23926137D01*
X-8104885Y-23840605D01*
X-8193962Y-23635743D01*
X-8315302Y-23448180D01*
X-8465646Y-23282954D01*
X-8469697Y-23279755D01*
X-8469701Y-23279751D01*
X-8636902Y-23147703D01*
X-8636906Y-23147701D01*
X-8640957Y-23144501D01*
X-8645481Y-23142004D01*
X-8645485Y-23142001D01*
X-8696708Y-23113725D01*
X-8746680Y-23063293D01*
X-8761816Y-23003416D01*
X-8761816Y-21417452D01*
X-8761289Y-21406269D01*
X-8759614Y-21398776D01*
X-8761754Y-21330685D01*
X-8761816Y-21326728D01*
X-8761816Y-21298828D01*
X-8762320Y-21294837D01*
X-8763253Y-21282995D01*
X-8764393Y-21246720D01*
X-8764642Y-21238795D01*
X-8770295Y-21219336D01*
X-8774304Y-21199977D01*
X-8774470Y-21198667D01*
X-8776842Y-21179887D01*
X-8779758Y-21172521D01*
X-8779760Y-21172515D01*
X-8793116Y-21138782D01*
X-8796961Y-21127552D01*
X-8807086Y-21092701D01*
X-8807086Y-21092700D01*
X-8809297Y-21085091D01*
X-8819611Y-21067650D01*
X-8828308Y-21049897D01*
X-8832844Y-21038442D01*
X-8835764Y-21031067D01*
X-8861753Y-20995296D01*
X-8868269Y-20985376D01*
X-8886738Y-20954147D01*
X-8890774Y-20947322D01*
X-8905095Y-20933001D01*
X-8917936Y-20917967D01*
X-8925185Y-20907990D01*
X-8929844Y-20901577D01*
X-8963921Y-20873386D01*
X-8972700Y-20865396D01*
X-11368095Y-18470000D01*
X-1513165Y-18470000D01*
X-1494535Y-18706711D01*
X-1493381Y-18711518D01*
X-1493380Y-18711524D01*
X-1481281Y-18761918D01*
X-1439105Y-18937594D01*
X-1348240Y-19156963D01*
X-1345654Y-19161183D01*
X-1226759Y-19355202D01*
X-1226755Y-19355208D01*
X-1224176Y-19359416D01*
X-1069969Y-19539969D01*
X-889416Y-19694176D01*
X-885208Y-19696755D01*
X-885202Y-19696759D01*
X-691183Y-19815654D01*
X-686963Y-19818240D01*
X-682393Y-19820133D01*
X-682389Y-19820135D01*
X-472167Y-19907211D01*
X-467594Y-19909105D01*
X-387391Y-19928360D01*
X-241524Y-19963380D01*
X-241518Y-19963381D01*
X-236711Y-19964535D01*
X0Y-19983165D01*
X236711Y-19964535D01*
X241518Y-19963381D01*
X241524Y-19963380D01*
X387391Y-19928360D01*
X467594Y-19909105D01*
X472167Y-19907211D01*
X682389Y-19820135D01*
X682393Y-19820133D01*
X686963Y-19818240D01*
X691183Y-19815654D01*
X885202Y-19696759D01*
X885208Y-19696755D01*
X889416Y-19694176D01*
X1069969Y-19539969D01*
X1224176Y-19359416D01*
X1226755Y-19355208D01*
X1226759Y-19355202D01*
X1345654Y-19161183D01*
X1348240Y-19156963D01*
X1439105Y-18937594D01*
X1481281Y-18761918D01*
X1493380Y-18711524D01*
X1493381Y-18711518D01*
X1494535Y-18706711D01*
X1513165Y-18470000D01*
X4986835Y-18470000D01*
X5005465Y-18706711D01*
X5006619Y-18711518D01*
X5006620Y-18711524D01*
X5018719Y-18761918D01*
X5060895Y-18937594D01*
X5151760Y-19156963D01*
X5154346Y-19161183D01*
X5273241Y-19355202D01*
X5273245Y-19355208D01*
X5275824Y-19359416D01*
X5430031Y-19539969D01*
X5610584Y-19694176D01*
X5614792Y-19696755D01*
X5614798Y-19696759D01*
X5808817Y-19815654D01*
X5813037Y-19818240D01*
X5817607Y-19820133D01*
X5817611Y-19820135D01*
X6027833Y-19907211D01*
X6032406Y-19909105D01*
X6112609Y-19928360D01*
X6258476Y-19963380D01*
X6258482Y-19963381D01*
X6263289Y-19964535D01*
X6500000Y-19983165D01*
X6736711Y-19964535D01*
X6741518Y-19963381D01*
X6741524Y-19963380D01*
X6887391Y-19928360D01*
X6967594Y-19909105D01*
X6972167Y-19907211D01*
X7182389Y-19820135D01*
X7182393Y-19820133D01*
X7186963Y-19818240D01*
X7191183Y-19815654D01*
X7385202Y-19696759D01*
X7385208Y-19696755D01*
X7389416Y-19694176D01*
X7569969Y-19539969D01*
X7724176Y-19359416D01*
X7726755Y-19355208D01*
X7726759Y-19355202D01*
X7845654Y-19161183D01*
X7848240Y-19156963D01*
X7939105Y-18937594D01*
X7981281Y-18761918D01*
X7993380Y-18711524D01*
X7993381Y-18711518D01*
X7994535Y-18706711D01*
X8013165Y-18470000D01*
X7994535Y-18233289D01*
X7993244Y-18227909D01*
X7944672Y-18025595D01*
X7939105Y-18002406D01*
X7937211Y-17997833D01*
X7850135Y-17787611D01*
X7850133Y-17787607D01*
X7848240Y-17783037D01*
X7817624Y-17733077D01*
X7726759Y-17584798D01*
X7726755Y-17584792D01*
X7724176Y-17580584D01*
X7569969Y-17400031D01*
X7389416Y-17245824D01*
X7385208Y-17243245D01*
X7385202Y-17243241D01*
X7191183Y-17124346D01*
X7186963Y-17121760D01*
X7182393Y-17119867D01*
X7182389Y-17119865D01*
X6972167Y-17032789D01*
X6972165Y-17032788D01*
X6967594Y-17030895D01*
X6873979Y-17008420D01*
X6741524Y-16976620D01*
X6741518Y-16976619D01*
X6736711Y-16975465D01*
X6500000Y-16956835D01*
X6263289Y-16975465D01*
X6258482Y-16976619D01*
X6258476Y-16976620D01*
X6126021Y-17008420D01*
X6032406Y-17030895D01*
X6027835Y-17032788D01*
X6027833Y-17032789D01*
X5817611Y-17119865D01*
X5817607Y-17119867D01*
X5813037Y-17121760D01*
X5808817Y-17124346D01*
X5614798Y-17243241D01*
X5614792Y-17243245D01*
X5610584Y-17245824D01*
X5430031Y-17400031D01*
X5275824Y-17580584D01*
X5273245Y-17584792D01*
X5273241Y-17584798D01*
X5182376Y-17733077D01*
X5151760Y-17783037D01*
X5149867Y-17787607D01*
X5149865Y-17787611D01*
X5062789Y-17997833D01*
X5060895Y-18002406D01*
X5055328Y-18025595D01*
X5006757Y-18227909D01*
X5005465Y-18233289D01*
X4986835Y-18470000D01*
X1513165Y-18470000D01*
X1494535Y-18233289D01*
X1493244Y-18227909D01*
X1444672Y-18025595D01*
X1439105Y-18002406D01*
X1437211Y-17997833D01*
X1350135Y-17787611D01*
X1350133Y-17787607D01*
X1348240Y-17783037D01*
X1317624Y-17733077D01*
X1226759Y-17584798D01*
X1226755Y-17584792D01*
X1224176Y-17580584D01*
X1069969Y-17400031D01*
X889416Y-17245824D01*
X885208Y-17243245D01*
X885202Y-17243241D01*
X691183Y-17124346D01*
X686963Y-17121760D01*
X682393Y-17119867D01*
X682389Y-17119865D01*
X472167Y-17032789D01*
X472165Y-17032788D01*
X467594Y-17030895D01*
X373979Y-17008420D01*
X241524Y-16976620D01*
X241518Y-16976619D01*
X236711Y-16975465D01*
X0Y-16956835D01*
X-236711Y-16975465D01*
X-241518Y-16976619D01*
X-241524Y-16976620D01*
X-373979Y-17008420D01*
X-467594Y-17030895D01*
X-472165Y-17032788D01*
X-472167Y-17032789D01*
X-682389Y-17119865D01*
X-682393Y-17119867D01*
X-686963Y-17121760D01*
X-691183Y-17124346D01*
X-885202Y-17243241D01*
X-885208Y-17243245D01*
X-889416Y-17245824D01*
X-1069969Y-17400031D01*
X-1224176Y-17580584D01*
X-1226755Y-17584792D01*
X-1226759Y-17584798D01*
X-1317624Y-17733077D01*
X-1348240Y-17783037D01*
X-1350133Y-17787607D01*
X-1350135Y-17787611D01*
X-1437211Y-17997833D01*
X-1439105Y-18002406D01*
X-1444672Y-18025595D01*
X-1493243Y-18227909D01*
X-1494535Y-18233289D01*
X-1513165Y-18470000D01*
X-11368095Y-18470000D01*
X-11734033Y-18104062D01*
X-11132111Y-18104062D01*
X-11122815Y-18116077D01*
X-11071610Y-18151931D01*
X-11062115Y-18157414D01*
X-10864657Y-18249490D01*
X-10854365Y-18253236D01*
X-10643916Y-18309625D01*
X-10633123Y-18311528D01*
X-10416079Y-18330517D01*
X-10405129Y-18330517D01*
X-10188085Y-18311528D01*
X-10177292Y-18309625D01*
X-9966843Y-18253236D01*
X-9956551Y-18249490D01*
X-9759093Y-18157414D01*
X-9749598Y-18151931D01*
X-9697556Y-18115491D01*
X-9689180Y-18105012D01*
X-9696248Y-18091566D01*
X-10397792Y-17390022D01*
X-10411736Y-17382408D01*
X-10413569Y-17382539D01*
X-10420184Y-17386790D01*
X-11125681Y-18092287D01*
X-11132111Y-18104062D01*
X-11734033Y-18104062D01*
X-11775595Y-18062500D01*
X-11809621Y-18000188D01*
X-11812500Y-17973405D01*
X-11812500Y-17674965D01*
X-11792498Y-17606844D01*
X-11738842Y-17560351D01*
X-11668568Y-17550247D01*
X-11603988Y-17579741D01*
X-11572305Y-17621715D01*
X-11550018Y-17669511D01*
X-11544535Y-17679006D01*
X-11508095Y-17731048D01*
X-11497616Y-17739424D01*
X-11484170Y-17732356D01*
X-10782626Y-17030812D01*
X-10776248Y-17019132D01*
X-10046196Y-17019132D01*
X-10046065Y-17020965D01*
X-10041814Y-17027580D01*
X-9336317Y-17733077D01*
X-9324542Y-17739507D01*
X-9312527Y-17730211D01*
X-9276673Y-17679006D01*
X-9271190Y-17669511D01*
X-9179114Y-17472053D01*
X-9175368Y-17461761D01*
X-9118979Y-17251312D01*
X-9117076Y-17240519D01*
X-9098087Y-17023475D01*
X-9098087Y-17012525D01*
X-9117076Y-16795481D01*
X-9118979Y-16784688D01*
X-9175368Y-16574239D01*
X-9179114Y-16563947D01*
X-9271190Y-16366489D01*
X-9276673Y-16356994D01*
X-9313113Y-16304952D01*
X-9323592Y-16296576D01*
X-9337038Y-16303644D01*
X-10038582Y-17005188D01*
X-10046196Y-17019132D01*
X-10776248Y-17019132D01*
X-10775012Y-17016868D01*
X-10775143Y-17015035D01*
X-10779394Y-17008420D01*
X-11484891Y-16302923D01*
X-11496666Y-16296493D01*
X-11508681Y-16305789D01*
X-11544535Y-16356994D01*
X-11550018Y-16366489D01*
X-11572305Y-16414285D01*
X-11619222Y-16467570D01*
X-11687499Y-16487031D01*
X-11755459Y-16466489D01*
X-11801525Y-16412467D01*
X-11812500Y-16361035D01*
X-11812500Y-15930988D01*
X-11132028Y-15930988D01*
X-11124960Y-15944434D01*
X-10423416Y-16645978D01*
X-10409472Y-16653592D01*
X-10407639Y-16653461D01*
X-10401024Y-16649210D01*
X-9695527Y-15943713D01*
X-9689097Y-15931938D01*
X-9698393Y-15919923D01*
X-9749598Y-15884069D01*
X-9759093Y-15878586D01*
X-9956551Y-15786510D01*
X-9966843Y-15782764D01*
X-10177292Y-15726375D01*
X-10188085Y-15724472D01*
X-10405129Y-15705483D01*
X-10416079Y-15705483D01*
X-10633123Y-15724472D01*
X-10643916Y-15726375D01*
X-10854365Y-15782764D01*
X-10864657Y-15786510D01*
X-11062115Y-15878586D01*
X-11071610Y-15884069D01*
X-11123652Y-15920509D01*
X-11132028Y-15930988D01*
X-11812500Y-15930988D01*
X-11812500Y-15202670D01*
X-867840Y-15202670D01*
X-862113Y-15210320D01*
X-690958Y-15315205D01*
X-682163Y-15319687D01*
X-472012Y-15406734D01*
X-462627Y-15409783D01*
X-241446Y-15462885D01*
X-231699Y-15464428D01*
X-4930Y-15482275D01*
X4930Y-15482275D01*
X231699Y-15464428D01*
X241446Y-15462885D01*
X462627Y-15409783D01*
X472012Y-15406734D01*
X682163Y-15319687D01*
X690958Y-15315205D01*
X858445Y-15212568D01*
X867400Y-15202670D01*
X5632160Y-15202670D01*
X5637887Y-15210320D01*
X5809042Y-15315205D01*
X5817837Y-15319687D01*
X6027988Y-15406734D01*
X6037373Y-15409783D01*
X6258554Y-15462885D01*
X6268301Y-15464428D01*
X6495070Y-15482275D01*
X6504930Y-15482275D01*
X6731699Y-15464428D01*
X6741446Y-15462885D01*
X6962627Y-15409783D01*
X6972012Y-15406734D01*
X7182163Y-15319687D01*
X7190958Y-15315205D01*
X7358445Y-15212568D01*
X7367907Y-15202110D01*
X7364124Y-15193334D01*
X6512812Y-14342022D01*
X6498868Y-14334408D01*
X6497035Y-14334539D01*
X6490420Y-14338790D01*
X5638920Y-15190290D01*
X5632160Y-15202670D01*
X867400Y-15202670D01*
X867907Y-15202110D01*
X864124Y-15193334D01*
X12812Y-14342022D01*
X-1132Y-14334408D01*
X-2965Y-14334539D01*
X-9580Y-14338790D01*
X-861080Y-15190290D01*
X-867840Y-15202670D01*
X-11812500Y-15202670D01*
X-11812500Y-13974930D01*
X-1512275Y-13974930D01*
X-1494428Y-14201699D01*
X-1492885Y-14211446D01*
X-1439783Y-14432627D01*
X-1436734Y-14442012D01*
X-1349687Y-14652163D01*
X-1345205Y-14660958D01*
X-1242568Y-14828445D01*
X-1232110Y-14837907D01*
X-1223334Y-14834124D01*
X-372022Y-13982812D01*
X-365644Y-13971132D01*
X364408Y-13971132D01*
X364539Y-13972965D01*
X368790Y-13979580D01*
X1220290Y-14831080D01*
X1232670Y-14837840D01*
X1240320Y-14832113D01*
X1345205Y-14660958D01*
X1349687Y-14652163D01*
X1436734Y-14442012D01*
X1439783Y-14432627D01*
X1492885Y-14211446D01*
X1494428Y-14201699D01*
X1512275Y-13974930D01*
X4987725Y-13974930D01*
X5005572Y-14201699D01*
X5007115Y-14211446D01*
X5060217Y-14432627D01*
X5063266Y-14442012D01*
X5150313Y-14652163D01*
X5154795Y-14660958D01*
X5257432Y-14828445D01*
X5267890Y-14837907D01*
X5276666Y-14834124D01*
X6127978Y-13982812D01*
X6134356Y-13971132D01*
X6864408Y-13971132D01*
X6864539Y-13972965D01*
X6868790Y-13979580D01*
X7720290Y-14831080D01*
X7732670Y-14837840D01*
X7740320Y-14832113D01*
X7845205Y-14660958D01*
X7849687Y-14652163D01*
X7936734Y-14442012D01*
X7939783Y-14432627D01*
X7992885Y-14211446D01*
X7994428Y-14201699D01*
X8012275Y-13974930D01*
X8012275Y-13965070D01*
X7994428Y-13738301D01*
X7992885Y-13728554D01*
X7939783Y-13507373D01*
X7936734Y-13497988D01*
X7849687Y-13287837D01*
X7845205Y-13279042D01*
X7742568Y-13111555D01*
X7732110Y-13102093D01*
X7723334Y-13105876D01*
X6872022Y-13957188D01*
X6864408Y-13971132D01*
X6134356Y-13971132D01*
X6135592Y-13968868D01*
X6135461Y-13967035D01*
X6131210Y-13960420D01*
X5279710Y-13108920D01*
X5267330Y-13102160D01*
X5259680Y-13107887D01*
X5154795Y-13279042D01*
X5150313Y-13287837D01*
X5063266Y-13497988D01*
X5060217Y-13507373D01*
X5007115Y-13728554D01*
X5005572Y-13738301D01*
X4987725Y-13965070D01*
X4987725Y-13974930D01*
X1512275Y-13974930D01*
X1512275Y-13965070D01*
X1494428Y-13738301D01*
X1492885Y-13728554D01*
X1439783Y-13507373D01*
X1436734Y-13497988D01*
X1349687Y-13287837D01*
X1345205Y-13279042D01*
X1242568Y-13111555D01*
X1232110Y-13102093D01*
X1223334Y-13105876D01*
X372022Y-13957188D01*
X364408Y-13971132D01*
X-365644Y-13971132D01*
X-364408Y-13968868D01*
X-364539Y-13967035D01*
X-368790Y-13960420D01*
X-1220290Y-13108920D01*
X-1232670Y-13102160D01*
X-1240320Y-13107887D01*
X-1345205Y-13279042D01*
X-1349687Y-13287837D01*
X-1436734Y-13497988D01*
X-1439783Y-13507373D01*
X-1492885Y-13728554D01*
X-1494428Y-13738301D01*
X-1512275Y-13965070D01*
X-1512275Y-13974930D01*
X-11812500Y-13974930D01*
X-11812500Y-9468113D01*
X-11792498Y-9399992D01*
X-11775595Y-9379017D01*
X-10962752Y-8566175D01*
X-10954473Y-8558641D01*
X-10947992Y-8554528D01*
X-10901366Y-8504876D01*
X-10898612Y-8502035D01*
X-10878875Y-8482298D01*
X-10876395Y-8479101D01*
X-10868690Y-8470079D01*
X-10855206Y-8455720D01*
X-10838424Y-8437849D01*
X-10834605Y-8430903D01*
X-10834603Y-8430900D01*
X-10828662Y-8420094D01*
X-10817811Y-8403575D01*
X-10810252Y-8393829D01*
X-10805396Y-8387569D01*
X-10802251Y-8380300D01*
X-10802248Y-8380296D01*
X-10787836Y-8346991D01*
X-10782619Y-8336341D01*
X-10761315Y-8297588D01*
X-10756277Y-8277965D01*
X-10749873Y-8259262D01*
X-10744977Y-8247948D01*
X-10744977Y-8247947D01*
X-10741829Y-8240673D01*
X-10740590Y-8232850D01*
X-10740587Y-8232840D01*
X-10734911Y-8197004D01*
X-10732505Y-8185384D01*
X-10723482Y-8150239D01*
X-10723482Y-8150238D01*
X-10721510Y-8142558D01*
X-10721510Y-8122304D01*
X-10719959Y-8102593D01*
X-10718030Y-8090414D01*
X-10716790Y-8082585D01*
X-10720951Y-8038566D01*
X-10721510Y-8026709D01*
X-10721510Y-2543584D01*
X-10701508Y-2475463D01*
X-10647852Y-2428970D01*
X-10577578Y-2418866D01*
X-10512998Y-2448360D01*
X-10506415Y-2454489D01*
X-8184499Y-4776405D01*
X-8150473Y-4838717D01*
X-8155538Y-4909532D01*
X-8198085Y-4966368D01*
X-8264605Y-4991179D01*
X-8273594Y-4991500D01*
X-9153134Y-4991500D01*
X-9215316Y-4998255D01*
X-9351705Y-5049385D01*
X-9468261Y-5136739D01*
X-9555615Y-5253295D01*
X-9606745Y-5389684D01*
X-9613500Y-5451866D01*
X-9613500Y-7248134D01*
X-9606745Y-7310316D01*
X-9555615Y-7446705D01*
X-9468261Y-7563261D01*
X-9351705Y-7650615D01*
X-9343296Y-7653767D01*
X-9343295Y-7653768D01*
X-9234549Y-7694535D01*
X-9177784Y-7737176D01*
X-9153084Y-7803738D01*
X-9168291Y-7873087D01*
X-9187684Y-7899568D01*
X-9281500Y-7997741D01*
X-9314371Y-8032138D01*
X-9317280Y-8036403D01*
X-9317286Y-8036411D01*
X-9375878Y-8122304D01*
X-9440257Y-8216680D01*
X-9464247Y-8268362D01*
X-9527010Y-8403575D01*
X-9534312Y-8419305D01*
X-9594011Y-8634570D01*
X-9617749Y-8856695D01*
X-9617452Y-8861848D01*
X-9617452Y-8861851D01*
X-9611989Y-8956590D01*
X-9604890Y-9079715D01*
X-9603753Y-9084761D01*
X-9603752Y-9084767D01*
X-9583881Y-9172939D01*
X-9555778Y-9297639D01*
X-9471734Y-9504616D01*
X-9427071Y-9577499D01*
X-9357709Y-9690688D01*
X-9355013Y-9695088D01*
X-9208750Y-9863938D01*
X-9036874Y-10006632D01*
X-8968603Y-10046526D01*
X-8963555Y-10049476D01*
X-8914831Y-10101114D01*
X-8901760Y-10170897D01*
X-8928491Y-10236669D01*
X-8968945Y-10270027D01*
X-8981393Y-10276507D01*
X-8985526Y-10279610D01*
X-8985529Y-10279612D01*
X-9155900Y-10407530D01*
X-9160035Y-10410635D01*
X-9314371Y-10572138D01*
X-9317285Y-10576410D01*
X-9317286Y-10576411D01*
X-9335162Y-10602617D01*
X-9440257Y-10756680D01*
X-9456101Y-10790814D01*
X-9521608Y-10931937D01*
X-9534312Y-10959305D01*
X-9594011Y-11174570D01*
X-9617749Y-11396695D01*
X-9604890Y-11619715D01*
X-9603753Y-11624761D01*
X-9603752Y-11624767D01*
X-9591973Y-11677033D01*
X-9555778Y-11837639D01*
X-9494327Y-11988976D01*
X-9476493Y-12032895D01*
X-9471734Y-12044616D01*
X-9355013Y-12235088D01*
X-9208750Y-12403938D01*
X-9036874Y-12546632D01*
X-8844000Y-12659338D01*
X-8635308Y-12739030D01*
X-8630240Y-12740061D01*
X-8630237Y-12740062D01*
X-8549156Y-12756558D01*
X-8416403Y-12783567D01*
X-8411228Y-12783757D01*
X-8411226Y-12783757D01*
X-8198327Y-12791564D01*
X-8198323Y-12791564D01*
X-8193163Y-12791753D01*
X-8188043Y-12791097D01*
X-8188041Y-12791097D01*
X-7976712Y-12764025D01*
X-7976711Y-12764025D01*
X-7971584Y-12763368D01*
X-7966634Y-12761883D01*
X-7762571Y-12700661D01*
X-7762566Y-12700659D01*
X-7757616Y-12699174D01*
X-7557006Y-12600896D01*
X-7375140Y-12471173D01*
X-7338607Y-12434768D01*
X-7267622Y-12364030D01*
X-7216904Y-12313489D01*
X-7157406Y-12230689D01*
X-7086547Y-12132077D01*
X-7085360Y-12132930D01*
X-7038040Y-12089362D01*
X-6968103Y-12077145D01*
X-6902662Y-12104678D01*
X-6874834Y-12136511D01*
X-6817306Y-12230388D01*
X-6811223Y-12238699D01*
X-6671787Y-12399667D01*
X-6664420Y-12406883D01*
X-6500566Y-12542916D01*
X-6492119Y-12548831D01*
X-6308244Y-12656279D01*
X-6298958Y-12660729D01*
X-6099999Y-12736703D01*
X-6090101Y-12739579D01*
X-5986750Y-12760606D01*
X-5972701Y-12759410D01*
X-5969000Y-12749065D01*
X-5969000Y-12748517D01*
X-5461000Y-12748517D01*
X-5456936Y-12762359D01*
X-5443522Y-12764393D01*
X-5436816Y-12763534D01*
X-5426738Y-12761392D01*
X-5348402Y-12737890D01*
X-867907Y-12737890D01*
X-864124Y-12746666D01*
X-12812Y-13597978D01*
X1132Y-13605592D01*
X2965Y-13605461D01*
X9580Y-13601210D01*
X861080Y-12749710D01*
X867534Y-12737890D01*
X5632093Y-12737890D01*
X5635876Y-12746666D01*
X6487188Y-13597978D01*
X6501132Y-13605592D01*
X6502965Y-13605461D01*
X6509580Y-13601210D01*
X7361080Y-12749710D01*
X7367840Y-12737330D01*
X7362113Y-12729680D01*
X7190958Y-12624795D01*
X7182163Y-12620313D01*
X6972012Y-12533266D01*
X6962627Y-12530217D01*
X6741446Y-12477115D01*
X6731699Y-12475572D01*
X6504930Y-12457725D01*
X6495070Y-12457725D01*
X6268301Y-12475572D01*
X6258554Y-12477115D01*
X6037373Y-12530217D01*
X6027988Y-12533266D01*
X5817837Y-12620313D01*
X5809042Y-12624795D01*
X5641555Y-12727432D01*
X5632093Y-12737890D01*
X867534Y-12737890D01*
X867840Y-12737330D01*
X862113Y-12729680D01*
X690958Y-12624795D01*
X682163Y-12620313D01*
X472012Y-12533266D01*
X462627Y-12530217D01*
X241446Y-12477115D01*
X231699Y-12475572D01*
X4930Y-12457725D01*
X-4930Y-12457725D01*
X-231699Y-12475572D01*
X-241446Y-12477115D01*
X-462627Y-12530217D01*
X-472012Y-12533266D01*
X-682163Y-12620313D01*
X-690958Y-12624795D01*
X-858445Y-12727432D01*
X-867907Y-12737890D01*
X-5348402Y-12737890D01*
X-5222745Y-12700191D01*
X-5213158Y-12696433D01*
X-5021905Y-12602739D01*
X-5013055Y-12597464D01*
X-4839672Y-12473792D01*
X-4831800Y-12467139D01*
X-4680948Y-12316812D01*
X-4674270Y-12308965D01*
X-4549997Y-12136020D01*
X-4544687Y-12127183D01*
X-4450330Y-11936267D01*
X-4446531Y-11926672D01*
X-4384623Y-11722910D01*
X-4382445Y-11712837D01*
X-4381014Y-11701962D01*
X-4383225Y-11687778D01*
X-4396383Y-11684000D01*
X-5442885Y-11684000D01*
X-5458124Y-11688475D01*
X-5459329Y-11689865D01*
X-5461000Y-11697548D01*
X-5461000Y-12748517D01*
X-5969000Y-12748517D01*
X-5969000Y-11302000D01*
X-5948998Y-11233879D01*
X-5895342Y-11187386D01*
X-5843000Y-11176000D01*
X-4396656Y-11176000D01*
X-4383125Y-11172027D01*
X-4381820Y-11162947D01*
X-4423786Y-10995875D01*
X-4427106Y-10986124D01*
X-4512028Y-10790814D01*
X-4516895Y-10781739D01*
X-4632574Y-10602926D01*
X-4638864Y-10594757D01*
X-4782194Y-10437240D01*
X-4789727Y-10430215D01*
X-4956861Y-10298222D01*
X-4965444Y-10292520D01*
X-5002398Y-10272120D01*
X-5052369Y-10221687D01*
X-5067141Y-10152245D01*
X-5042025Y-10085839D01*
X-5014673Y-10059232D01*
X-4991203Y-10042491D01*
X-4835140Y-9931173D01*
X-4676904Y-9773489D01*
X-4617406Y-9690689D01*
X-4549565Y-9596277D01*
X-4546547Y-9592077D01*
X-4525680Y-9549857D01*
X-4449864Y-9396453D01*
X-4449863Y-9396451D01*
X-4447570Y-9391811D01*
X-4382630Y-9178069D01*
X-4353471Y-8956590D01*
X-4351844Y-8890000D01*
X-4370148Y-8667361D01*
X-4424569Y-8450702D01*
X-4513646Y-8245840D01*
X-4569069Y-8160169D01*
X-4632178Y-8062617D01*
X-4632180Y-8062614D01*
X-4634986Y-8058277D01*
X-4785330Y-7893051D01*
X-4848223Y-7843381D01*
X-4889285Y-7785465D01*
X-4892517Y-7714542D01*
X-4856892Y-7653130D01*
X-4793721Y-7620728D01*
X-4770130Y-7618500D01*
X1670501Y-7618500D01*
X1738622Y-7638502D01*
X1785115Y-7692158D01*
X1796501Y-7744500D01*
X1796501Y-7880400D01*
X1807474Y-7986167D01*
X1809658Y-7992713D01*
X1859651Y-8142558D01*
X1863450Y-8153946D01*
X1956521Y-8304349D01*
X2081697Y-8429306D01*
X2147843Y-8470079D01*
X2183143Y-8491838D01*
X2232261Y-8522115D01*
X2274814Y-8536229D01*
X2393610Y-8575632D01*
X2393612Y-8575632D01*
X2400138Y-8577797D01*
X2406974Y-8578497D01*
X2406977Y-8578498D01*
X2450030Y-8582909D01*
X2504599Y-8588500D01*
X3169830Y-8588500D01*
X3845400Y-8588499D01*
X3951167Y-8577526D01*
X3991601Y-8564036D01*
X4112002Y-8523867D01*
X4112004Y-8523866D01*
X4118946Y-8521550D01*
X4269349Y-8428479D01*
X4394306Y-8303303D01*
X4487115Y-8152739D01*
X4489265Y-8154064D01*
X4528297Y-8109720D01*
X4596571Y-8090248D01*
X4664534Y-8110778D01*
X4686761Y-8129272D01*
X4794590Y-8242306D01*
X4794602Y-8242316D01*
X4798276Y-8246168D01*
X4985965Y-8385813D01*
X4990716Y-8388229D01*
X4990720Y-8388231D01*
X5189744Y-8489420D01*
X5194500Y-8491838D01*
X5417917Y-8561210D01*
X5423204Y-8561911D01*
X5423205Y-8561911D01*
X5644545Y-8591248D01*
X5644549Y-8591248D01*
X5649829Y-8591948D01*
X5655158Y-8591748D01*
X5655160Y-8591748D01*
X5766717Y-8587560D01*
X5883604Y-8583172D01*
X5986019Y-8561683D01*
X6107332Y-8536229D01*
X6107335Y-8536228D01*
X6112559Y-8535132D01*
X6330146Y-8449203D01*
X6392425Y-8411411D01*
X6525583Y-8330609D01*
X6525586Y-8330607D01*
X6530144Y-8327841D01*
X6706834Y-8174517D01*
X6855165Y-7993614D01*
X6862281Y-7981114D01*
X6876577Y-7955999D01*
X6927659Y-7906693D01*
X6997289Y-7892831D01*
X7063360Y-7918814D01*
X7090599Y-7947964D01*
X7174210Y-8072155D01*
X7180871Y-8080441D01*
X7334924Y-8241930D01*
X7342892Y-8248979D01*
X7521952Y-8382203D01*
X7530982Y-8387802D01*
X7729931Y-8488953D01*
X7739792Y-8492956D01*
X7952929Y-8559138D01*
X7963309Y-8561420D01*
X7983043Y-8564036D01*
X7997207Y-8561840D01*
X8001000Y-8548655D01*
X8001000Y-5423373D01*
X7997027Y-5409842D01*
X7986420Y-5408317D01*
X7862812Y-5434252D01*
X7852616Y-5437312D01*
X7645048Y-5519284D01*
X7635511Y-5524018D01*
X7444715Y-5639796D01*
X7436122Y-5646062D01*
X7267559Y-5792333D01*
X7260139Y-5799964D01*
X7118632Y-5972542D01*
X7112607Y-5981309D01*
X7094011Y-6013978D01*
X7042929Y-6063285D01*
X6973298Y-6077146D01*
X6907227Y-6051163D01*
X6879989Y-6022013D01*
X6808428Y-5915720D01*
X6793202Y-5893104D01*
X6631724Y-5723832D01*
X6444035Y-5584187D01*
X6439284Y-5581771D01*
X6439280Y-5581769D01*
X6240256Y-5480580D01*
X6240255Y-5480580D01*
X6235500Y-5478162D01*
X6012083Y-5408790D01*
X6006796Y-5408089D01*
X6006795Y-5408089D01*
X5785455Y-5378752D01*
X5785451Y-5378752D01*
X5780171Y-5378052D01*
X5774842Y-5378252D01*
X5774840Y-5378252D01*
X5667412Y-5382285D01*
X5546396Y-5386828D01*
X5462411Y-5404450D01*
X5322668Y-5433771D01*
X5322665Y-5433772D01*
X5317441Y-5434868D01*
X5099854Y-5520797D01*
X5095290Y-5523566D01*
X5095291Y-5523566D01*
X4904417Y-5639391D01*
X4904414Y-5639393D01*
X4899856Y-5642159D01*
X4723166Y-5795483D01*
X4699963Y-5823782D01*
X4692593Y-5832770D01*
X4633933Y-5872764D01*
X4562962Y-5874695D01*
X4502214Y-5837950D01*
X4487269Y-5815609D01*
X4486550Y-5816054D01*
X4397331Y-5671876D01*
X4393479Y-5665651D01*
X4268303Y-5540694D01*
X4170780Y-5480580D01*
X4123969Y-5451725D01*
X4123967Y-5451724D01*
X4117739Y-5447885D01*
X4004640Y-5410372D01*
X3956390Y-5394368D01*
X3956388Y-5394368D01*
X3949862Y-5392203D01*
X3943026Y-5391503D01*
X3943023Y-5391502D01*
X3895450Y-5386628D01*
X3845401Y-5381500D01*
X3180170Y-5381500D01*
X2504600Y-5381501D01*
X2398833Y-5392474D01*
X2364047Y-5404080D01*
X2237998Y-5446133D01*
X2237996Y-5446134D01*
X2231054Y-5448450D01*
X2080651Y-5541521D01*
X1955694Y-5666697D01*
X1918098Y-5727689D01*
X1878496Y-5791936D01*
X1862885Y-5817261D01*
X1856023Y-5837950D01*
X1822577Y-5938788D01*
X1807203Y-5985138D01*
X1796500Y-6089599D01*
X1796500Y-6225500D01*
X1776498Y-6293621D01*
X1722842Y-6340114D01*
X1670500Y-6351500D01*
X-4235655Y-6351500D01*
X-4303776Y-6331498D01*
X-4350269Y-6277842D01*
X-4361231Y-6235824D01*
X-4362080Y-6225500D01*
X-4370148Y-6127361D01*
X-4424569Y-5910702D01*
X-4513646Y-5705840D01*
X-4617138Y-5545866D01*
X-4632178Y-5522617D01*
X-4632180Y-5522614D01*
X-4634986Y-5518277D01*
X-4785330Y-5353051D01*
X-4789381Y-5349852D01*
X-4789385Y-5349848D01*
X-4956586Y-5217800D01*
X-4956590Y-5217798D01*
X-4960641Y-5214598D01*
X-5156211Y-5106638D01*
X-5161080Y-5104914D01*
X-5161084Y-5104912D01*
X-5361913Y-5033795D01*
X-5361917Y-5033794D01*
X-5366788Y-5032069D01*
X-5371881Y-5031162D01*
X-5371884Y-5031161D01*
X-5581627Y-4993800D01*
X-5581633Y-4993799D01*
X-5586716Y-4992894D01*
X-5660548Y-4991992D01*
X-5804919Y-4990228D01*
X-5804921Y-4990228D01*
X-5810089Y-4990165D01*
X-6030909Y-5023955D01*
X-6043468Y-5028060D01*
X-6114432Y-5030210D01*
X-6171706Y-4997389D01*
X-9489595Y-1679500D01*
X-9523621Y-1617188D01*
X-9526500Y-1590405D01*
X-9526500Y-450931D01*
X-9506498Y-382810D01*
X-9452842Y-336317D01*
X-9413502Y-325604D01*
X-9383833Y-322526D01*
X-9343399Y-309036D01*
X-9222998Y-268867D01*
X-9222996Y-268866D01*
X-9216054Y-266550D01*
X-9065651Y-173479D01*
X-8940694Y-48303D01*
X-8847885Y102261D01*
X-8845735Y100936D01*
X-8806703Y145280D01*
X-8738429Y164752D01*
X-8670466Y144222D01*
X-8648239Y125728D01*
X-8540410Y12694D01*
X-8540398Y12684D01*
X-8536724Y8832D01*
X-8349035Y-130813D01*
X-8344284Y-133229D01*
X-8344280Y-133231D01*
X-8145256Y-234420D01*
X-8140500Y-236838D01*
X-7917083Y-306210D01*
X-7911796Y-306911D01*
X-7911795Y-306911D01*
X-7690455Y-336248D01*
X-7690451Y-336248D01*
X-7685171Y-336948D01*
X-7679842Y-336748D01*
X-7679840Y-336748D01*
X-7568284Y-332560D01*
X-7451396Y-328172D01*
X-7348981Y-306683D01*
X-7227668Y-281229D01*
X-7227665Y-281228D01*
X-7222441Y-280132D01*
X-7004854Y-194203D01*
X-6895140Y-127627D01*
X-6809417Y-75609D01*
X-6809414Y-75607D01*
X-6804856Y-72841D01*
X-6628166Y80483D01*
X-6479835Y261386D01*
X-6477199Y266016D01*
X-6477196Y266021D01*
X-6458699Y298516D01*
X-6407616Y347822D01*
X-6337985Y361683D01*
X-6271915Y335699D01*
X-6244677Y306550D01*
X-6158202Y178104D01*
X-6154523Y174247D01*
X-6154521Y174245D01*
X-6125880Y144222D01*
X-5996724Y8832D01*
X-5809035Y-130813D01*
X-5804284Y-133229D01*
X-5804280Y-133231D01*
X-5605256Y-234420D01*
X-5600500Y-236838D01*
X-5377083Y-306210D01*
X-5371796Y-306911D01*
X-5371795Y-306911D01*
X-5150455Y-336248D01*
X-5150451Y-336248D01*
X-5145171Y-336948D01*
X-5139842Y-336748D01*
X-5139840Y-336748D01*
X-5028284Y-332560D01*
X-4911396Y-328172D01*
X-4808981Y-306683D01*
X-4687668Y-281229D01*
X-4687665Y-281228D01*
X-4682441Y-280132D01*
X-4464854Y-194203D01*
X-4355140Y-127627D01*
X-4269417Y-75609D01*
X-4269414Y-75607D01*
X-4264856Y-72841D01*
X-4088166Y80483D01*
X-3939835Y261386D01*
X-3937032Y266309D01*
X-3918423Y299001D01*
X-3867341Y348307D01*
X-3797711Y362169D01*
X-3731640Y336186D01*
X-3704401Y307036D01*
X-3620790Y182845D01*
X-3614129Y174559D01*
X-3460076Y13070D01*
X-3452108Y6021D01*
X-3273048Y-127203D01*
X-3264018Y-132802D01*
X-3065069Y-233953D01*
X-3055208Y-237956D01*
X-2842071Y-304138D01*
X-2831691Y-306420D01*
X-2811957Y-309036D01*
X-2797793Y-306840D01*
X-2794000Y-293655D01*
X-2794000Y-291627D01*
X-2286000Y-291627D01*
X-2282027Y-305158D01*
X-2271420Y-306683D01*
X-2147812Y-280748D01*
X-2137616Y-277688D01*
X-1930048Y-195716D01*
X-1920511Y-190982D01*
X-1729715Y-75204D01*
X-1721122Y-68938D01*
X-1552559Y77333D01*
X-1545139Y84964D01*
X-1403632Y257542D01*
X-1397607Y266309D01*
X-1287203Y460262D01*
X-1282738Y469926D01*
X-1206590Y679711D01*
X-1203819Y689979D01*
X-1163894Y910766D01*
X-1162961Y918995D01*
X-1162070Y937874D01*
X-1162000Y940849D01*
X-1162000Y997885D01*
X-1166475Y1013124D01*
X-1167865Y1014329D01*
X-1175548Y1016000D01*
X-2267885Y1016000D01*
X-2283124Y1011525D01*
X-2284329Y1010135D01*
X-2286000Y1002452D01*
X-2286000Y-291627D01*
X-2794000Y-291627D01*
X-2794000Y1542115D01*
X-2286000Y1542115D01*
X-2281525Y1526876D01*
X-2280135Y1525671D01*
X-2272452Y1524000D01*
X-1180115Y1524000D01*
X-1164876Y1528475D01*
X-1163671Y1529865D01*
X-1162000Y1537548D01*
X-1162000Y1551054D01*
X-1162225Y1556363D01*
X-1176339Y1722707D01*
X-1178129Y1733179D01*
X-1234198Y1949202D01*
X-1237734Y1959242D01*
X-1329399Y2162732D01*
X-1334568Y2172018D01*
X-1459210Y2357155D01*
X-1465871Y2365441D01*
X-1619924Y2526930D01*
X-1627892Y2533979D01*
X-1806952Y2667203D01*
X-1815982Y2672802D01*
X-2014931Y2773953D01*
X-2024792Y2777956D01*
X-2237929Y2844138D01*
X-2248309Y2846420D01*
X-2268043Y2849036D01*
X-2282207Y2846840D01*
X-2286000Y2833655D01*
X-2286000Y1542115D01*
X-2794000Y1542115D01*
X-2794000Y2831627D01*
X-2797973Y2845158D01*
X-2808580Y2846683D01*
X-2932188Y2820748D01*
X-2942384Y2817688D01*
X-3149952Y2735716D01*
X-3159489Y2730982D01*
X-3350285Y2615204D01*
X-3358878Y2608938D01*
X-3527441Y2462667D01*
X-3534861Y2455036D01*
X-3676368Y2282458D01*
X-3682393Y2273691D01*
X-3700989Y2241022D01*
X-3752071Y2191715D01*
X-3821702Y2177854D01*
X-3887773Y2203837D01*
X-3915011Y2232987D01*
X-3998005Y2356262D01*
X-4001798Y2361896D01*
X-4163276Y2531168D01*
X-4350965Y2670813D01*
X-4355716Y2673229D01*
X-4355720Y2673231D01*
X-4554744Y2774420D01*
X-4554745Y2774420D01*
X-4559500Y2776838D01*
X-4782917Y2846210D01*
X-4788204Y2846911D01*
X-4788205Y2846911D01*
X-5009545Y2876248D01*
X-5009549Y2876248D01*
X-5014829Y2876948D01*
X-5020158Y2876748D01*
X-5020160Y2876748D01*
X-5131716Y2872560D01*
X-5248604Y2868172D01*
X-5275512Y2862526D01*
X-5472332Y2821229D01*
X-5472335Y2821228D01*
X-5477559Y2820132D01*
X-5695146Y2734203D01*
X-5699710Y2731434D01*
X-5699709Y2731434D01*
X-5890583Y2615609D01*
X-5890586Y2615607D01*
X-5895144Y2612841D01*
X-6071834Y2459517D01*
X-6220165Y2278614D01*
X-6222801Y2273984D01*
X-6222804Y2273979D01*
X-6241301Y2241484D01*
X-6292384Y2192178D01*
X-6362015Y2178317D01*
X-6428085Y2204301D01*
X-6455323Y2233450D01*
X-6538005Y2356262D01*
X-6541798Y2361896D01*
X-6703276Y2531168D01*
X-6890965Y2670813D01*
X-6895716Y2673229D01*
X-6895720Y2673231D01*
X-7094744Y2774420D01*
X-7094745Y2774420D01*
X-7099500Y2776838D01*
X-7322917Y2846210D01*
X-7328204Y2846911D01*
X-7328205Y2846911D01*
X-7549545Y2876248D01*
X-7549549Y2876248D01*
X-7554829Y2876948D01*
X-7560158Y2876748D01*
X-7560160Y2876748D01*
X-7671716Y2872560D01*
X-7788604Y2868172D01*
X-7815512Y2862526D01*
X-8012332Y2821229D01*
X-8012335Y2821228D01*
X-8017559Y2820132D01*
X-8235146Y2734203D01*
X-8239710Y2731434D01*
X-8239709Y2731434D01*
X-8430583Y2615609D01*
X-8430586Y2615607D01*
X-8435144Y2612841D01*
X-8611834Y2459517D01*
X-8641371Y2423493D01*
X-8642407Y2422230D01*
X-8701067Y2382236D01*
X-8772038Y2380305D01*
X-8832786Y2417050D01*
X-8847731Y2439391D01*
X-8848450Y2438946D01*
X-8895371Y2514771D01*
X-8941521Y2589349D01*
X-8956116Y2603919D01*
X-9058486Y2706109D01*
X-9066697Y2714306D01*
X-9164220Y2774420D01*
X-9211031Y2803275D01*
X-9211033Y2803276D01*
X-9217261Y2807115D01*
X-9323296Y2842285D01*
X-9378610Y2860632D01*
X-9378612Y2860632D01*
X-9385138Y2862797D01*
X-9391974Y2863497D01*
X-9391977Y2863498D01*
X-9439550Y2868372D01*
X-9489599Y2873500D01*
X-9520269Y2873500D01*
X-10595510Y2873499D01*
X-10663631Y2893501D01*
X-10710124Y2947157D01*
X-10721510Y2999499D01*
X-10721510Y5475396D01*
X-10701508Y5543517D01*
X-10684605Y5564491D01*
X-8629095Y7620000D01*
X-6628470Y7620000D01*
X-6627780Y7613435D01*
X-6615646Y7497991D01*
X-6608508Y7430072D01*
X-6549493Y7248444D01*
X-6454006Y7083056D01*
X-6380829Y7001785D01*
X-6350113Y6937779D01*
X-6348466Y6917476D01*
X-6348466Y6498048D01*
X-6348993Y6486865D01*
X-6350668Y6479372D01*
X-6350419Y6471446D01*
X-6350419Y6471445D01*
X-6348528Y6411295D01*
X-6348466Y6407336D01*
X-6348466Y6379425D01*
X-6347969Y6375491D01*
X-6347969Y6375490D01*
X-6347961Y6375425D01*
X-6347028Y6363588D01*
X-6345639Y6319392D01*
X-6339988Y6299942D01*
X-6335979Y6280581D01*
X-6333440Y6260484D01*
X-6330521Y6253113D01*
X-6330521Y6253111D01*
X-6317162Y6219369D01*
X-6313317Y6208139D01*
X-6300984Y6165688D01*
X-6296951Y6158869D01*
X-6296949Y6158864D01*
X-6290673Y6148253D01*
X-6281978Y6130505D01*
X-6274518Y6111664D01*
X-6269856Y6105248D01*
X-6269856Y6105247D01*
X-6248530Y6075894D01*
X-6242014Y6065974D01*
X-6219508Y6027919D01*
X-6205187Y6013598D01*
X-6192347Y5998565D01*
X-6180438Y5982174D01*
X-6174332Y5977123D01*
X-6146361Y5953983D01*
X-6137582Y5945993D01*
X-3609342Y3417753D01*
X-3601798Y3409463D01*
X-3597685Y3402982D01*
X-3591908Y3397557D01*
X-3548018Y3356342D01*
X-3545176Y3353587D01*
X-3525454Y3333865D01*
X-3522330Y3331442D01*
X-3522326Y3331438D01*
X-3522261Y3331388D01*
X-3513240Y3323683D01*
X-3481006Y3293414D01*
X-3474058Y3289595D01*
X-3474056Y3289593D01*
X-3463253Y3283654D01*
X-3446726Y3272798D01*
X-3436987Y3265243D01*
X-3436985Y3265242D01*
X-3430725Y3260386D01*
X-3390145Y3242826D01*
X-3379497Y3237609D01*
X-3340745Y3216305D01*
X-3333069Y3214334D01*
X-3333066Y3214333D01*
X-3321123Y3211267D01*
X-3302418Y3204863D01*
X-3283830Y3196819D01*
X-3276007Y3195580D01*
X-3275997Y3195577D01*
X-3240161Y3189901D01*
X-3228541Y3187495D01*
X-3193396Y3178472D01*
X-3185715Y3176500D01*
X-3165461Y3176500D01*
X-3145751Y3174949D01*
X-3125742Y3171780D01*
X-3117850Y3172526D01*
X-3081724Y3175941D01*
X-3069866Y3176500D01*
X6680405Y3176500D01*
X6748526Y3156498D01*
X6769500Y3139595D01*
X6997151Y2911944D01*
X7031177Y2849632D01*
X7026112Y2778817D01*
X6983565Y2721981D01*
X6973422Y2715130D01*
X6809417Y2615609D01*
X6809414Y2615607D01*
X6804856Y2612841D01*
X6628166Y2459517D01*
X6479835Y2278614D01*
X6477199Y2273984D01*
X6477196Y2273979D01*
X6458699Y2241484D01*
X6407616Y2192178D01*
X6337985Y2178317D01*
X6271915Y2204301D01*
X6244677Y2233450D01*
X6161995Y2356262D01*
X6158202Y2361896D01*
X5996724Y2531168D01*
X5809035Y2670813D01*
X5804284Y2673229D01*
X5804280Y2673231D01*
X5605256Y2774420D01*
X5605255Y2774420D01*
X5600500Y2776838D01*
X5377083Y2846210D01*
X5371796Y2846911D01*
X5371795Y2846911D01*
X5150455Y2876248D01*
X5150451Y2876248D01*
X5145171Y2876948D01*
X5139842Y2876748D01*
X5139840Y2876748D01*
X5028284Y2872560D01*
X4911396Y2868172D01*
X4884488Y2862526D01*
X4687668Y2821229D01*
X4687665Y2821228D01*
X4682441Y2820132D01*
X4464854Y2734203D01*
X4460290Y2731434D01*
X4460291Y2731434D01*
X4269417Y2615609D01*
X4269414Y2615607D01*
X4264856Y2612841D01*
X4088166Y2459517D01*
X4058629Y2423493D01*
X4057593Y2422230D01*
X3998933Y2382236D01*
X3927962Y2380305D01*
X3867214Y2417050D01*
X3852269Y2439391D01*
X3851550Y2438946D01*
X3804629Y2514771D01*
X3758479Y2589349D01*
X3743884Y2603919D01*
X3641514Y2706109D01*
X3633303Y2714306D01*
X3535780Y2774420D01*
X3488969Y2803275D01*
X3488967Y2803276D01*
X3482739Y2807115D01*
X3376704Y2842285D01*
X3321390Y2860632D01*
X3321388Y2860632D01*
X3314862Y2862797D01*
X3308026Y2863497D01*
X3308023Y2863498D01*
X3260450Y2868372D01*
X3210401Y2873500D01*
X2545170Y2873500D01*
X1869600Y2873499D01*
X1763833Y2862526D01*
X1757286Y2860342D01*
X1757287Y2860342D01*
X1602998Y2808867D01*
X1602996Y2808866D01*
X1596054Y2806550D01*
X1445651Y2713479D01*
X1320694Y2588303D01*
X1283098Y2527311D01*
X1244976Y2465465D01*
X1227885Y2437739D01*
X1225581Y2430792D01*
X1177859Y2286913D01*
X1172203Y2269862D01*
X1161500Y2165401D01*
X1161501Y374600D01*
X1172474Y268833D01*
X1174658Y262287D01*
X1225291Y110524D01*
X1228450Y101054D01*
X1321521Y-49349D01*
X1446697Y-174306D01*
X1482159Y-196165D01*
X1576590Y-254373D01*
X1597261Y-267115D01*
X1639814Y-281229D01*
X1758610Y-320632D01*
X1758612Y-320632D01*
X1765138Y-322797D01*
X1771974Y-323497D01*
X1771977Y-323498D01*
X1815030Y-327909D01*
X1869599Y-333500D01*
X2534830Y-333500D01*
X3210400Y-333499D01*
X3316167Y-322526D01*
X3356601Y-309036D01*
X3477002Y-268867D01*
X3477004Y-268866D01*
X3483946Y-266550D01*
X3634349Y-173479D01*
X3759306Y-48303D01*
X3852115Y102261D01*
X3854265Y100936D01*
X3893297Y145280D01*
X3961571Y164752D01*
X4029534Y144222D01*
X4051761Y125728D01*
X4159590Y12694D01*
X4159602Y12684D01*
X4163276Y8832D01*
X4350965Y-130813D01*
X4355716Y-133229D01*
X4355720Y-133231D01*
X4554744Y-234420D01*
X4559500Y-236838D01*
X4782917Y-306210D01*
X4788204Y-306911D01*
X4788205Y-306911D01*
X5009545Y-336248D01*
X5009549Y-336248D01*
X5014829Y-336948D01*
X5020158Y-336748D01*
X5020160Y-336748D01*
X5131716Y-332560D01*
X5248604Y-328172D01*
X5351019Y-306683D01*
X5472332Y-281229D01*
X5472335Y-281228D01*
X5477559Y-280132D01*
X5695146Y-194203D01*
X5804860Y-127627D01*
X5890583Y-75609D01*
X5890586Y-75607D01*
X5895144Y-72841D01*
X6071834Y80483D01*
X6220165Y261386D01*
X6222801Y266016D01*
X6222804Y266021D01*
X6241301Y298516D01*
X6292384Y347822D01*
X6362015Y361683D01*
X6428085Y335699D01*
X6455323Y306550D01*
X6541798Y178104D01*
X6545477Y174247D01*
X6545479Y174245D01*
X6574120Y144222D01*
X6703276Y8832D01*
X6890965Y-130813D01*
X6895716Y-133229D01*
X6895720Y-133231D01*
X7094744Y-234420D01*
X7099500Y-236838D01*
X7322917Y-306210D01*
X7328204Y-306911D01*
X7328205Y-306911D01*
X7549545Y-336248D01*
X7549549Y-336248D01*
X7554829Y-336948D01*
X7560158Y-336748D01*
X7560160Y-336748D01*
X7671716Y-332560D01*
X7788604Y-328172D01*
X7891019Y-306683D01*
X8012332Y-281229D01*
X8012335Y-281228D01*
X8017559Y-280132D01*
X8159209Y-224192D01*
X8229915Y-217774D01*
X8292866Y-250602D01*
X8328076Y-312252D01*
X8331490Y-341384D01*
X8331490Y-5701224D01*
X8330963Y-5712407D01*
X8329288Y-5719900D01*
X8329537Y-5727826D01*
X8329537Y-5727827D01*
X8331428Y-5787977D01*
X8331490Y-5791936D01*
X8331490Y-5819847D01*
X8331987Y-5823781D01*
X8331987Y-5823782D01*
X8331995Y-5823847D01*
X8332928Y-5835684D01*
X8334317Y-5879880D01*
X8337038Y-5889245D01*
X8339968Y-5899330D01*
X8343977Y-5918691D01*
X8346516Y-5938788D01*
X8349435Y-5946159D01*
X8349435Y-5946161D01*
X8362794Y-5979903D01*
X8366639Y-5991133D01*
X8378972Y-6033584D01*
X8383005Y-6040403D01*
X8383007Y-6040408D01*
X8389283Y-6051019D01*
X8397978Y-6068767D01*
X8405438Y-6087608D01*
X8410100Y-6094024D01*
X8410100Y-6094025D01*
X8431426Y-6123378D01*
X8437942Y-6133298D01*
X8460448Y-6171353D01*
X8472095Y-6183000D01*
X8506121Y-6245312D01*
X8509000Y-6272095D01*
X8509000Y-8546627D01*
X8512973Y-8560158D01*
X8523580Y-8561683D01*
X8647188Y-8535748D01*
X8657384Y-8532688D01*
X8864952Y-8450716D01*
X8874489Y-8445982D01*
X9065285Y-8330204D01*
X9073878Y-8323938D01*
X9242441Y-8177667D01*
X9249861Y-8170036D01*
X9388381Y-8001100D01*
X9447041Y-7961105D01*
X9518011Y-7959174D01*
X9578759Y-7995919D01*
X9609999Y-8059673D01*
X9611815Y-8080991D01*
X9611815Y-22796326D01*
X9591813Y-22864447D01*
X9538157Y-22910940D01*
X9484277Y-22922317D01*
X9350865Y-22920687D01*
X9305396Y-22920131D01*
X9305394Y-22920131D01*
X9300227Y-22920068D01*
X9079407Y-22953858D01*
X8867072Y-23023260D01*
X8862480Y-23025650D01*
X8862481Y-23025650D01*
X8693291Y-23113725D01*
X8668923Y-23126410D01*
X8664790Y-23129513D01*
X8664787Y-23129515D01*
X8640563Y-23147703D01*
X8490281Y-23260538D01*
X8335945Y-23422041D01*
X8210059Y-23606583D01*
X8116004Y-23809208D01*
X8086826Y-23914418D01*
X8070704Y-23972552D01*
X8033225Y-24032849D01*
X7969096Y-24063312D01*
X7898678Y-24054268D01*
X7871195Y-24037761D01*
X7738047Y-23932606D01*
X7738043Y-23932604D01*
X7733992Y-23929404D01*
X7538422Y-23821444D01*
X7533553Y-23819720D01*
X7533549Y-23819718D01*
X7332720Y-23748601D01*
X7332716Y-23748600D01*
X7327845Y-23746875D01*
X7322752Y-23745968D01*
X7322749Y-23745967D01*
X7113006Y-23708606D01*
X7113000Y-23708605D01*
X7107917Y-23707700D01*
X7034085Y-23706798D01*
X6889714Y-23705034D01*
X6889712Y-23705034D01*
X6884544Y-23704971D01*
X6663724Y-23738761D01*
X6451389Y-23808163D01*
X6253240Y-23911313D01*
X6249107Y-23914416D01*
X6249104Y-23914418D01*
X6084267Y-24038181D01*
X6074598Y-24045441D01*
X5920262Y-24206944D01*
X5794376Y-24391486D01*
X5748445Y-24490437D01*
X5728229Y-24533989D01*
X5700321Y-24594111D01*
X5674410Y-24687542D01*
X5654876Y-24757978D01*
X5617397Y-24818276D01*
X5553268Y-24848739D01*
X5482850Y-24839695D01*
X5455367Y-24823188D01*
X5322088Y-24717931D01*
X5313501Y-24712226D01*
X5127066Y-24609308D01*
X5117654Y-24605078D01*
X4916908Y-24533989D01*
X4906938Y-24531355D01*
X4697276Y-24494010D01*
X4687022Y-24493040D01*
X4474065Y-24490437D01*
X4463780Y-24491157D01*
X4411021Y-24499230D01*
X4398629Y-24505025D01*
X4398907Y-24519798D01*
X4865583Y-25956080D01*
X5212645Y-27024228D01*
X5220622Y-27035893D01*
X5234471Y-27033507D01*
X5257043Y-27022448D01*
X5265894Y-27017173D01*
X5439277Y-26893501D01*
X5447149Y-26886848D01*
X5598001Y-26736521D01*
X5604679Y-26728674D01*
X5728952Y-26555729D01*
X5734262Y-26546892D01*
X5828619Y-26355976D01*
X5832415Y-26346389D01*
X5890897Y-26153902D01*
X5929839Y-26094537D01*
X5994693Y-26065650D01*
X6064869Y-26076411D01*
X6091939Y-26093585D01*
X6197759Y-26181438D01*
X6390633Y-26294144D01*
X6599325Y-26373836D01*
X6604393Y-26374867D01*
X6604396Y-26374868D01*
X6711650Y-26396689D01*
X6818230Y-26418373D01*
X6823405Y-26418563D01*
X6823407Y-26418563D01*
X7036306Y-26426370D01*
X7036310Y-26426370D01*
X7041470Y-26426559D01*
X7046590Y-26425903D01*
X7046592Y-26425903D01*
X7257921Y-26398831D01*
X7257922Y-26398831D01*
X7263049Y-26398174D01*
X7267999Y-26396689D01*
X7472062Y-26335467D01*
X7472067Y-26335465D01*
X7477017Y-26333980D01*
X7677627Y-26235702D01*
X7859493Y-26105979D01*
X7866506Y-26098991D01*
X8014068Y-25951943D01*
X8017729Y-25948295D01*
X8077227Y-25865495D01*
X8145068Y-25771083D01*
X8148086Y-25766883D01*
X8194117Y-25673747D01*
X8244769Y-25571259D01*
X8244770Y-25571257D01*
X8247063Y-25566617D01*
X8306999Y-25369345D01*
X8345940Y-25309981D01*
X8410794Y-25281094D01*
X8480970Y-25291855D01*
X8508040Y-25309029D01*
X8613442Y-25396535D01*
X8806316Y-25509241D01*
X9015008Y-25588933D01*
X9020076Y-25589964D01*
X9020079Y-25589965D01*
X9066990Y-25599509D01*
X9233913Y-25633470D01*
X9239088Y-25633660D01*
X9239090Y-25633660D01*
X9451989Y-25641467D01*
X9451993Y-25641467D01*
X9457153Y-25641656D01*
X9462273Y-25641000D01*
X9462275Y-25641000D01*
X9673604Y-25613928D01*
X9673605Y-25613928D01*
X9678732Y-25613271D01*
X9724603Y-25599509D01*
X9887745Y-25550564D01*
X9887750Y-25550562D01*
X9892700Y-25549077D01*
X10093310Y-25450799D01*
X10275176Y-25321076D01*
X10282189Y-25314088D01*
X10415409Y-25181332D01*
X10433412Y-25163392D01*
X10492910Y-25080592D01*
X10560751Y-24986180D01*
X10563769Y-24981980D01*
X10622372Y-24863405D01*
X10670484Y-24811199D01*
X10739185Y-24793292D01*
X10806662Y-24815370D01*
X10833868Y-24840710D01*
X10851955Y-24863407D01*
X10912942Y-24939941D01*
X10920282Y-24945109D01*
X10920284Y-24945111D01*
X10972647Y-24981980D01*
X11032038Y-25023798D01*
X11040531Y-25026698D01*
X11040532Y-25026698D01*
X11161389Y-25067959D01*
X11161390Y-25067959D01*
X11169884Y-25070859D01*
X11315397Y-25077340D01*
X11323131Y-25075724D01*
X11323134Y-25075724D01*
X11373288Y-25065246D01*
X11373293Y-25065245D01*
X11376623Y-25064549D01*
X13084976Y-24509472D01*
X13142027Y-24483832D01*
X13148199Y-24478914D01*
X13148202Y-24478912D01*
X13221320Y-24420646D01*
X13255941Y-24393058D01*
X13339798Y-24273962D01*
X13353754Y-24233083D01*
X13383959Y-24144611D01*
X13383959Y-24144610D01*
X13386859Y-24136116D01*
X13393340Y-23990603D01*
X13388643Y-23968117D01*
X13381246Y-23932712D01*
X13381245Y-23932707D01*
X13380549Y-23929377D01*
X12825472Y-22221024D01*
X12799832Y-22163973D01*
X12794914Y-22157801D01*
X12794912Y-22157798D01*
X12714654Y-22057082D01*
X12709058Y-22050059D01*
X12701718Y-22044891D01*
X12701716Y-22044889D01*
X12597300Y-21971369D01*
X12589962Y-21966202D01*
X12581468Y-21963302D01*
X12460611Y-21922041D01*
X12460610Y-21922041D01*
X12452116Y-21919141D01*
X12306603Y-21912660D01*
X12298869Y-21914276D01*
X12298866Y-21914276D01*
X12248712Y-21924754D01*
X12248707Y-21924755D01*
X12245377Y-21925451D01*
X11840258Y-22057082D01*
X11043751Y-22315882D01*
X10972783Y-22317909D01*
X10911986Y-22281247D01*
X10880660Y-22217535D01*
X10878815Y-22196049D01*
X10878815Y-7139083D01*
X10879342Y-7127900D01*
X10881017Y-7120407D01*
X10878877Y-7052316D01*
X10878815Y-7048359D01*
X10878815Y-7020460D01*
X10878311Y-7016469D01*
X10877378Y-7004627D01*
X10876238Y-6968352D01*
X10875989Y-6960427D01*
X10873777Y-6952813D01*
X10873776Y-6952808D01*
X10870338Y-6940975D01*
X10866327Y-6921611D01*
X10864782Y-6909380D01*
X10863789Y-6901519D01*
X10860872Y-6894152D01*
X10860871Y-6894147D01*
X10847513Y-6860408D01*
X10843669Y-6849181D01*
X10833545Y-6814338D01*
X10831333Y-6806723D01*
X10821022Y-6789288D01*
X10812327Y-6771540D01*
X10804867Y-6752699D01*
X10778879Y-6716929D01*
X10772363Y-6707009D01*
X10753895Y-6675781D01*
X10753893Y-6675778D01*
X10749857Y-6668954D01*
X10735536Y-6654633D01*
X10722695Y-6639599D01*
X10715446Y-6629622D01*
X10710787Y-6623209D01*
X10676710Y-6595018D01*
X10667931Y-6587028D01*
X9635395Y-5554491D01*
X9601369Y-5492179D01*
X9598490Y-5465396D01*
X9598490Y-394637D01*
X9618492Y-326516D01*
X9672148Y-280023D01*
X9742422Y-269919D01*
X9761855Y-274305D01*
X9857933Y-304139D01*
X9868309Y-306420D01*
X9888043Y-309036D01*
X9902207Y-306840D01*
X9906000Y-293655D01*
X9906000Y1398000D01*
X9926002Y1466121D01*
X9979658Y1512614D01*
X10032000Y1524000D01*
X10288000Y1524000D01*
X10356121Y1503998D01*
X10402614Y1450342D01*
X10414000Y1398000D01*
X10414000Y-291627D01*
X10417973Y-305158D01*
X10428580Y-306683D01*
X10552188Y-280748D01*
X10562384Y-277688D01*
X10769952Y-195716D01*
X10779489Y-190982D01*
X10970285Y-75204D01*
X10978878Y-68938D01*
X11147441Y77333D01*
X11154861Y84964D01*
X11296368Y257542D01*
X11302393Y266309D01*
X11412797Y460262D01*
X11417262Y469926D01*
X11493408Y679705D01*
X11495312Y686762D01*
X11532368Y747321D01*
X11596281Y778233D01*
X11666761Y769684D01*
X11706058Y743037D01*
X20603544Y-8154449D01*
X20637570Y-8216761D01*
X20640449Y-8243544D01*
X20640449Y-13788886D01*
X20620447Y-13857007D01*
X20572632Y-13900647D01*
X20547556Y-13913701D01*
X20543423Y-13916804D01*
X20543420Y-13916806D01*
X20444142Y-13991346D01*
X20368914Y-14047829D01*
X20365342Y-14051567D01*
X20237802Y-14185030D01*
X20214578Y-14209332D01*
X20211664Y-14213604D01*
X20211663Y-14213605D01*
X20168387Y-14277045D01*
X20088692Y-14393874D01*
X19994637Y-14596499D01*
X19934938Y-14811764D01*
X19911200Y-15033889D01*
X19911497Y-15039042D01*
X19911497Y-15039045D01*
X19916960Y-15133784D01*
X19924059Y-15256909D01*
X19925196Y-15261955D01*
X19925197Y-15261961D01*
X19938207Y-15319687D01*
X19973171Y-15474833D01*
X19975115Y-15479620D01*
X19975116Y-15479624D01*
X20020548Y-15591512D01*
X20027644Y-15662153D01*
X19995421Y-15725416D01*
X19934112Y-15761216D01*
X19902268Y-15764906D01*
X19744326Y-15762976D01*
X19691055Y-15762325D01*
X19691053Y-15762325D01*
X19685886Y-15762262D01*
X19465066Y-15796052D01*
X19252731Y-15865454D01*
X19248139Y-15867844D01*
X19248140Y-15867844D01*
X19126842Y-15930988D01*
X19054582Y-15968604D01*
X19050449Y-15971707D01*
X19050446Y-15971709D01*
X19039799Y-15979703D01*
X18875940Y-16102732D01*
X18721604Y-16264235D01*
X18718690Y-16268507D01*
X18718689Y-16268508D01*
X18653916Y-16363462D01*
X18595718Y-16448777D01*
X18577961Y-16487031D01*
X18504181Y-16645978D01*
X18501663Y-16651402D01*
X18441964Y-16866667D01*
X18418226Y-17088792D01*
X18418523Y-17093945D01*
X18418523Y-17093948D01*
X18423986Y-17188687D01*
X18431085Y-17311812D01*
X18436838Y-17337337D01*
X18442963Y-17364516D01*
X18438427Y-17435368D01*
X18396306Y-17492520D01*
X18329973Y-17517826D01*
X18286480Y-17513665D01*
X18173881Y-17482544D01*
X18173879Y-17482544D01*
X18165229Y-17480153D01*
X18156253Y-17480286D01*
X18156252Y-17480286D01*
X18100680Y-17481111D01*
X18019588Y-17482314D01*
X17986516Y-17492520D01*
X17888987Y-17522617D01*
X17888986Y-17522618D01*
X17880407Y-17525265D01*
X17758875Y-17605552D01*
X17753571Y-17611401D01*
X17753568Y-17611404D01*
X17719150Y-17649362D01*
X17716860Y-17651888D01*
X17714858Y-17654644D01*
X17714856Y-17654646D01*
X16747469Y-18986140D01*
X16661040Y-19105099D01*
X16629956Y-19159376D01*
X16627853Y-19166986D01*
X16606029Y-19245949D01*
X16591153Y-19299771D01*
X16593314Y-19445412D01*
X16636265Y-19584593D01*
X16716552Y-19706125D01*
X16722401Y-19711429D01*
X16722404Y-19711432D01*
X16760362Y-19745850D01*
X16762888Y-19748140D01*
X16765644Y-19750142D01*
X16765646Y-19750144D01*
X18213346Y-20801960D01*
X18216099Y-20803960D01*
X18270376Y-20835044D01*
X18340862Y-20854525D01*
X18402119Y-20871456D01*
X18402121Y-20871456D01*
X18410771Y-20873847D01*
X18419747Y-20873714D01*
X18419748Y-20873714D01*
X18475320Y-20872889D01*
X18556412Y-20871686D01*
X18634548Y-20847573D01*
X18687013Y-20831383D01*
X18687014Y-20831382D01*
X18695593Y-20828735D01*
X18817125Y-20748448D01*
X18822429Y-20742599D01*
X18822432Y-20742596D01*
X18856850Y-20704638D01*
X18856854Y-20704633D01*
X18859140Y-20702112D01*
X19288090Y-20111714D01*
X19912960Y-19251654D01*
X19912961Y-19251652D01*
X19914960Y-19248901D01*
X19946044Y-19194624D01*
X19965525Y-19124138D01*
X19982456Y-19062881D01*
X19982456Y-19062879D01*
X19984847Y-19054229D01*
X19982686Y-18908588D01*
X19939735Y-18769407D01*
X19869716Y-18663418D01*
X19848857Y-18595555D01*
X19867999Y-18527187D01*
X19921064Y-18480021D01*
X19958837Y-18468987D01*
X20059263Y-18456122D01*
X20059264Y-18456122D01*
X20064391Y-18455465D01*
X20125628Y-18437093D01*
X20273404Y-18392758D01*
X20273409Y-18392756D01*
X20278359Y-18391271D01*
X20478969Y-18292993D01*
X20660835Y-18163270D01*
X20666712Y-18157414D01*
X20798992Y-18025595D01*
X20819071Y-18005586D01*
X20949428Y-17824174D01*
X20959337Y-17804126D01*
X21046111Y-17628550D01*
X21046112Y-17628548D01*
X21048405Y-17623908D01*
X21080875Y-17517037D01*
X21111840Y-17415120D01*
X21111840Y-17415118D01*
X21113345Y-17410166D01*
X21142504Y-17188687D01*
X21144131Y-17122097D01*
X21125827Y-16899458D01*
X21071406Y-16682799D01*
X21034739Y-16598471D01*
X21025920Y-16528024D01*
X21056586Y-16463992D01*
X21117003Y-16426705D01*
X21154904Y-16422314D01*
X21235072Y-16425254D01*
X21330622Y-16428758D01*
X21330626Y-16428758D01*
X21335786Y-16428947D01*
X21340906Y-16428291D01*
X21340908Y-16428291D01*
X21552237Y-16401219D01*
X21552238Y-16401219D01*
X21557365Y-16400562D01*
X21620615Y-16381586D01*
X21766378Y-16337855D01*
X21766383Y-16337853D01*
X21771333Y-16336368D01*
X21971943Y-16238090D01*
X22153809Y-16108367D01*
X22161920Y-16100285D01*
X22294061Y-15968604D01*
X22312045Y-15950683D01*
X22316536Y-15944434D01*
X22439384Y-15773471D01*
X22442402Y-15769271D01*
X22460902Y-15731840D01*
X22539085Y-15573647D01*
X22539086Y-15573645D01*
X22541379Y-15569005D01*
X22606319Y-15355263D01*
X22635478Y-15133784D01*
X22637105Y-15067194D01*
X22618801Y-14844555D01*
X22564380Y-14627896D01*
X22527492Y-14543060D01*
X22518671Y-14472613D01*
X22549338Y-14408581D01*
X22609754Y-14371293D01*
X22647658Y-14366902D01*
X22823574Y-14373353D01*
X22833860Y-14372886D01*
X23045109Y-14345825D01*
X23055186Y-14343683D01*
X23259179Y-14282482D01*
X23268766Y-14278724D01*
X23460019Y-14185030D01*
X23468869Y-14179755D01*
X23642251Y-14056083D01*
X23650124Y-14049429D01*
X23684587Y-14015087D01*
X23691202Y-14003022D01*
X23682347Y-13991346D01*
X22514072Y-13142545D01*
X22470718Y-13086323D01*
X22464643Y-13015587D01*
X22486197Y-12966548D01*
X22493568Y-12956402D01*
X23127022Y-12956402D01*
X23127439Y-12958193D01*
X23132671Y-12964060D01*
X23981079Y-13580465D01*
X23993821Y-13585011D01*
X24004140Y-13574108D01*
X24031594Y-13518558D01*
X24035393Y-13508963D01*
X24097300Y-13305206D01*
X24099479Y-13295125D01*
X24127514Y-13082178D01*
X24128033Y-13075503D01*
X24129496Y-13015655D01*
X24129302Y-13008937D01*
X24111705Y-12794895D01*
X24110020Y-12784715D01*
X24058138Y-12578166D01*
X24054818Y-12568415D01*
X23969896Y-12373105D01*
X23965029Y-12364030D01*
X23849350Y-12185217D01*
X23843060Y-12177048D01*
X23768882Y-12095528D01*
X23756835Y-12088193D01*
X23747869Y-12094268D01*
X23132360Y-12941442D01*
X23127022Y-12956402D01*
X22493568Y-12956402D01*
X22710731Y-12657503D01*
X23336612Y-11796052D01*
X23341485Y-11782395D01*
X23331933Y-11772935D01*
X23330030Y-11771884D01*
X23320639Y-11767663D01*
X23119883Y-11696571D01*
X23109913Y-11693937D01*
X22900251Y-11656592D01*
X22889997Y-11655622D01*
X22677040Y-11653019D01*
X22666756Y-11653739D01*
X22456245Y-11685952D01*
X22446217Y-11688341D01*
X22243792Y-11754503D01*
X22234283Y-11758500D01*
X22091629Y-11832761D01*
X22021970Y-11846474D01*
X21955955Y-11820349D01*
X21914543Y-11762681D01*
X21907449Y-11720998D01*
X21907449Y-8007717D01*
X21907976Y-7996534D01*
X21909651Y-7989041D01*
X21907511Y-7920964D01*
X21907449Y-7917005D01*
X21907449Y-7889094D01*
X21906944Y-7885094D01*
X21906011Y-7873251D01*
X21904871Y-7836979D01*
X21904622Y-7829060D01*
X21898971Y-7809608D01*
X21894963Y-7790256D01*
X21893416Y-7778013D01*
X21892423Y-7770153D01*
X21889252Y-7762143D01*
X21876149Y-7729047D01*
X21872304Y-7717820D01*
X21869269Y-7707375D01*
X21859967Y-7675357D01*
X21849656Y-7657922D01*
X21840961Y-7640174D01*
X21833501Y-7621333D01*
X21807513Y-7585563D01*
X21800997Y-7575643D01*
X21782529Y-7544415D01*
X21782527Y-7544412D01*
X21778491Y-7537588D01*
X21764170Y-7523267D01*
X21751329Y-7508233D01*
X21744080Y-7498256D01*
X21739421Y-7491843D01*
X21705344Y-7463652D01*
X21696565Y-7455662D01*
X18318869Y-4077966D01*
X24703257Y-4077966D01*
X24733565Y-4212446D01*
X24736645Y-4222275D01*
X24816770Y-4419603D01*
X24821413Y-4428794D01*
X24932694Y-4610388D01*
X24938777Y-4618699D01*
X25078213Y-4779667D01*
X25085580Y-4786883D01*
X25249434Y-4922916D01*
X25257881Y-4928831D01*
X25441756Y-5036279D01*
X25451042Y-5040729D01*
X25650001Y-5116703D01*
X25659899Y-5119579D01*
X25763250Y-5140606D01*
X25777299Y-5139410D01*
X25781000Y-5129065D01*
X25781000Y-5128517D01*
X26289000Y-5128517D01*
X26293064Y-5142359D01*
X26306478Y-5144393D01*
X26313184Y-5143534D01*
X26323262Y-5141392D01*
X26527255Y-5080191D01*
X26536842Y-5076433D01*
X26728095Y-4982739D01*
X26736945Y-4977464D01*
X26910328Y-4853792D01*
X26918200Y-4847139D01*
X27069052Y-4696812D01*
X27075730Y-4688965D01*
X27200003Y-4516020D01*
X27205313Y-4507183D01*
X27299670Y-4316267D01*
X27303469Y-4306672D01*
X27365377Y-4102910D01*
X27367555Y-4092837D01*
X27368986Y-4081962D01*
X27366775Y-4067778D01*
X27353617Y-4064000D01*
X26307115Y-4064000D01*
X26291876Y-4068475D01*
X26290671Y-4069865D01*
X26289000Y-4077548D01*
X26289000Y-5128517D01*
X25781000Y-5128517D01*
X25781000Y-4082115D01*
X25776525Y-4066876D01*
X25775135Y-4065671D01*
X25767452Y-4064000D01*
X24718225Y-4064000D01*
X24704694Y-4067973D01*
X24703257Y-4077966D01*
X18318869Y-4077966D01*
X8133651Y6107253D01*
X8126111Y6115539D01*
X8121999Y6122018D01*
X8072347Y6168644D01*
X8069506Y6171398D01*
X8049769Y6191135D01*
X8046572Y6193615D01*
X8037550Y6201320D01*
X8005320Y6231586D01*
X7998374Y6235405D01*
X7998371Y6235407D01*
X7987565Y6241348D01*
X7971046Y6252199D01*
X7969870Y6253111D01*
X7955040Y6264614D01*
X7947771Y6267759D01*
X7947767Y6267762D01*
X7914462Y6282174D01*
X7903812Y6287391D01*
X7865059Y6308695D01*
X7845436Y6313733D01*
X7826733Y6320137D01*
X7815419Y6325033D01*
X7815418Y6325033D01*
X7808144Y6328181D01*
X7800321Y6329420D01*
X7800311Y6329423D01*
X7764475Y6335099D01*
X7752855Y6337505D01*
X7717710Y6346528D01*
X7717709Y6346528D01*
X7710029Y6348500D01*
X7689775Y6348500D01*
X7670064Y6350051D01*
X7657885Y6351980D01*
X7650056Y6353220D01*
X7642164Y6352474D01*
X7606038Y6349059D01*
X7594180Y6348500D01*
X-3501706Y6348500D01*
X-3569827Y6368502D01*
X-3590801Y6385405D01*
X-4042842Y6837446D01*
X-4076868Y6899758D01*
X-4079057Y6913371D01*
X-4095732Y7072029D01*
X-4095732Y7072031D01*
X-4096422Y7078592D01*
X-4155437Y7260220D01*
X-4250924Y7425608D01*
X-4378711Y7567530D01*
X-4533212Y7679782D01*
X-4539240Y7682466D01*
X-4539242Y7682467D01*
X-4701643Y7754772D01*
X-4707676Y7757458D01*
X-4732777Y7762793D01*
X-4740395Y7764413D01*
X-4802868Y7798142D01*
X-4834029Y7848722D01*
X-4878398Y7985274D01*
X-4880439Y7991556D01*
X-4975926Y8156944D01*
X-5103713Y8298866D01*
X-5258214Y8411118D01*
X-5264242Y8413802D01*
X-5264244Y8413803D01*
X-5426647Y8486109D01*
X-5426648Y8486109D01*
X-5432678Y8488794D01*
X-5526079Y8508647D01*
X-5613022Y8527128D01*
X-5613027Y8527128D01*
X-5619479Y8528500D01*
X-5810453Y8528500D01*
X-5816905Y8527128D01*
X-5816910Y8527128D01*
X-5903853Y8508647D01*
X-5997254Y8488794D01*
X-6003284Y8486109D01*
X-6003285Y8486109D01*
X-6165688Y8413803D01*
X-6165690Y8413802D01*
X-6171718Y8411118D01*
X-6326219Y8298866D01*
X-6454006Y8156944D01*
X-6549493Y7991556D01*
X-6608508Y7809928D01*
X-6609198Y7803367D01*
X-6609198Y7803365D01*
X-6614023Y7757458D01*
X-6628470Y7620000D01*
X-8629095Y7620000D01*
X-6839500Y9409595D01*
X-6777188Y9443621D01*
X-6750405Y9446500D01*
X-6694513Y9446500D01*
X-6688061Y9447872D01*
X-6688056Y9447872D01*
X-6601113Y9466353D01*
X-6507712Y9486206D01*
X-6501681Y9488891D01*
X-6339278Y9561197D01*
X-6339276Y9561198D01*
X-6333248Y9563882D01*
X-6300597Y9587604D01*
X-6223782Y9643414D01*
X-6178747Y9676134D01*
X-6174013Y9681392D01*
X-6055379Y9813148D01*
X-6055378Y9813149D01*
X-6050960Y9818056D01*
X-5955473Y9983444D01*
X-5896458Y10165072D01*
X-5876496Y10355000D01*
X-5891240Y10495286D01*
X-5895768Y10538365D01*
X-5895768Y10538367D01*
X-5896458Y10544928D01*
X-5955473Y10726556D01*
X-6050960Y10891944D01*
X-6171762Y11026109D01*
X-6174325Y11028955D01*
X-6174326Y11028956D01*
X-6178747Y11033866D01*
X-6333248Y11146118D01*
X-6339276Y11148802D01*
X-6339278Y11148803D01*
X-6432692Y11190393D01*
X-6486787Y11236373D01*
X-6507437Y11304300D01*
X-6488085Y11372608D01*
X-6434874Y11419610D01*
X-6381443Y11431500D01*
X-3883200Y11431500D01*
X-3815079Y11411498D01*
X-3795853Y11395157D01*
X-3795580Y11395460D01*
X-3790668Y11391037D01*
X-3786253Y11386134D01*
X-3631752Y11273882D01*
X-3625724Y11271198D01*
X-3625722Y11271197D01*
X-3519252Y11223794D01*
X-3457288Y11196206D01*
X-3363888Y11176353D01*
X-3276944Y11157872D01*
X-3276939Y11157872D01*
X-3270487Y11156500D01*
X-3079513Y11156500D01*
X-3073061Y11157872D01*
X-3073056Y11157872D01*
X-2986112Y11176353D01*
X-2892712Y11196206D01*
X-2830748Y11223794D01*
X-2724278Y11271197D01*
X-2724276Y11271198D01*
X-2718248Y11273882D01*
X-2563747Y11386134D01*
X-2559325Y11391045D01*
X-2440379Y11523148D01*
X-2440378Y11523149D01*
X-2435960Y11528056D01*
X-2354317Y11669465D01*
X-2343777Y11687721D01*
X-2343776Y11687722D01*
X-2340473Y11693444D01*
X-2281458Y11875072D01*
X-2275159Y11935000D01*
X-1678504Y11935000D01*
X-1677814Y11928435D01*
X-1673646Y11888783D01*
X-1658542Y11745072D01*
X-1599527Y11563444D01*
X-1504040Y11398056D01*
X-1499622Y11393149D01*
X-1499621Y11393148D01*
X-1489813Y11382255D01*
X-1376253Y11256134D01*
X-1221752Y11143882D01*
X-1215724Y11141198D01*
X-1215722Y11141197D01*
X-1053319Y11068891D01*
X-1047288Y11066206D01*
X-953888Y11046353D01*
X-866944Y11027872D01*
X-866939Y11027872D01*
X-860487Y11026500D01*
X-804594Y11026500D01*
X-736473Y11006498D01*
X-715499Y10989595D01*
X-87470Y10361565D01*
X506348Y9767747D01*
X513888Y9759461D01*
X518000Y9752982D01*
X523777Y9747557D01*
X567651Y9706357D01*
X570493Y9703602D01*
X590230Y9683865D01*
X593427Y9681385D01*
X602447Y9673682D01*
X634679Y9643414D01*
X641625Y9639595D01*
X641628Y9639593D01*
X652434Y9633652D01*
X668953Y9622801D01*
X684959Y9610386D01*
X692228Y9607241D01*
X692232Y9607238D01*
X725537Y9592826D01*
X736187Y9587609D01*
X774940Y9566305D01*
X782615Y9564334D01*
X782616Y9564334D01*
X794562Y9561267D01*
X813267Y9554863D01*
X831855Y9546819D01*
X839678Y9545580D01*
X839688Y9545577D01*
X875524Y9539901D01*
X887144Y9537495D01*
X922289Y9528472D01*
X929970Y9526500D01*
X950224Y9526500D01*
X969934Y9524949D01*
X989943Y9521780D01*
X997835Y9522526D01*
X1033961Y9525941D01*
X1045819Y9526500D01*
X8181800Y9526500D01*
X8249921Y9506498D01*
X8269147Y9490157D01*
X8269420Y9490460D01*
X8274332Y9486037D01*
X8278747Y9481134D01*
X8300329Y9465454D01*
X8377212Y9409595D01*
X8433248Y9368882D01*
X8439276Y9366198D01*
X8439278Y9366197D01*
X8601681Y9293891D01*
X8607712Y9291206D01*
X8701113Y9271353D01*
X8788056Y9252872D01*
X8788061Y9252872D01*
X8794513Y9251500D01*
X8985487Y9251500D01*
X8991939Y9252872D01*
X8991944Y9252872D01*
X9078887Y9271353D01*
X9172288Y9291206D01*
X9178319Y9293891D01*
X9340722Y9366197D01*
X9340724Y9366198D01*
X9346752Y9368882D01*
X9501253Y9481134D01*
X9505820Y9486206D01*
X9624621Y9618148D01*
X9624622Y9618149D01*
X9629040Y9623056D01*
X9724527Y9788444D01*
X9783542Y9970072D01*
X9784948Y9983444D01*
X9802814Y10153435D01*
X9803504Y10160000D01*
X9783542Y10349928D01*
X9724527Y10531556D01*
X9629040Y10696944D01*
X9520774Y10817186D01*
X9514264Y10830750D01*
X9514160Y10830773D01*
X9500484Y10839425D01*
X9352094Y10947237D01*
X9352093Y10947238D01*
X9346752Y10951118D01*
X9340724Y10953802D01*
X9340722Y10953803D01*
X9178319Y11026109D01*
X9178318Y11026109D01*
X9172288Y11028794D01*
X9078887Y11048647D01*
X8991944Y11067128D01*
X8991939Y11067128D01*
X8985487Y11068500D01*
X8794513Y11068500D01*
X8788061Y11067128D01*
X8788056Y11067128D01*
X8701113Y11048647D01*
X8607712Y11028794D01*
X8601682Y11026109D01*
X8601681Y11026109D01*
X8439278Y10953803D01*
X8439276Y10953802D01*
X8433248Y10951118D01*
X8427907Y10947238D01*
X8427906Y10947237D01*
X8351802Y10891944D01*
X8278747Y10838866D01*
X8274332Y10833963D01*
X8269420Y10829540D01*
X8268295Y10830789D01*
X8214986Y10797949D01*
X8181800Y10793500D01*
X1324594Y10793500D01*
X1256473Y10813502D01*
X1235499Y10830405D01*
X182122Y11883783D01*
X148096Y11946095D01*
X145907Y11959708D01*
X129232Y12118365D01*
X129232Y12118367D01*
X128542Y12124928D01*
X69527Y12306556D01*
X-25960Y12471944D01*
X-140895Y12599593D01*
X-149325Y12608955D01*
X-149326Y12608956D01*
X-153747Y12613866D01*
X-294052Y12715804D01*
X-302906Y12722237D01*
X-302907Y12722238D01*
X-308248Y12726118D01*
X-314276Y12728802D01*
X-314278Y12728803D01*
X-476681Y12801109D01*
X-476682Y12801109D01*
X-482712Y12803794D01*
X-595359Y12827738D01*
X-663056Y12842128D01*
X-663061Y12842128D01*
X-669513Y12843500D01*
X-860487Y12843500D01*
X-866939Y12842128D01*
X-866944Y12842128D01*
X-934641Y12827738D01*
X-1047288Y12803794D01*
X-1053318Y12801109D01*
X-1053319Y12801109D01*
X-1215722Y12728803D01*
X-1215724Y12728802D01*
X-1221752Y12726118D01*
X-1227093Y12722238D01*
X-1227094Y12722237D01*
X-1235948Y12715804D01*
X-1376253Y12613866D01*
X-1380674Y12608956D01*
X-1380675Y12608955D01*
X-1389104Y12599593D01*
X-1504040Y12471944D01*
X-1599527Y12306556D01*
X-1658542Y12124928D01*
X-1659232Y12118367D01*
X-1659232Y12118365D01*
X-1672338Y11993668D01*
X-1678504Y11935000D01*
X-2275159Y11935000D01*
X-2272562Y11959708D01*
X-2262186Y12058435D01*
X-2261496Y12065000D01*
X-2268454Y12131206D01*
X-2280768Y12248365D01*
X-2280768Y12248367D01*
X-2281458Y12254928D01*
X-2340473Y12436556D01*
X-2362178Y12474151D01*
X-2411644Y12559828D01*
X-2435960Y12601944D01*
X-2446694Y12613866D01*
X-2559325Y12738955D01*
X-2559326Y12738956D01*
X-2563747Y12743866D01*
X-2718248Y12856118D01*
X-2724276Y12858802D01*
X-2724278Y12858803D01*
X-2886681Y12931109D01*
X-2886682Y12931109D01*
X-2892712Y12933794D01*
X-2986112Y12953647D01*
X-3073056Y12972128D01*
X-3073061Y12972128D01*
X-3079513Y12973500D01*
X-3270487Y12973500D01*
X-3276939Y12972128D01*
X-3276944Y12972128D01*
X-3363888Y12953647D01*
X-3457288Y12933794D01*
X-3463318Y12931109D01*
X-3463319Y12931109D01*
X-3625722Y12858803D01*
X-3625724Y12858802D01*
X-3631752Y12856118D01*
X-3786253Y12743866D01*
X-3790668Y12738963D01*
X-3795580Y12734540D01*
X-3796705Y12735789D01*
X-3850014Y12702949D01*
X-3883200Y12698500D01*
X-7546800Y12698500D01*
X-7614921Y12718502D01*
X-7634147Y12734843D01*
X-7634420Y12734540D01*
X-7639332Y12738963D01*
X-7643747Y12743866D01*
X-7798248Y12856118D01*
X-7804274Y12858801D01*
X-7804281Y12858805D01*
X-7949786Y12923587D01*
X-8003882Y12969567D01*
X-8024532Y13037494D01*
X-8018371Y13077630D01*
X-7998498Y13138794D01*
X-7996458Y13145072D01*
X-7976496Y13335000D01*
X-7979482Y13363414D01*
X-7995768Y13518365D01*
X-7995768Y13518367D01*
X-7996458Y13524928D01*
X-8055473Y13706556D01*
X-8061567Y13717112D01*
X-8132092Y13839264D01*
X-8150960Y13871944D01*
X-8161848Y13884037D01*
X-8274325Y14008955D01*
X-8274326Y14008956D01*
X-8278747Y14013866D01*
X-8433248Y14126118D01*
X-8439276Y14128802D01*
X-8439278Y14128803D01*
X-8601681Y14201109D01*
X-8601682Y14201109D01*
X-8607712Y14203794D01*
X-8701112Y14223647D01*
X-8788056Y14242128D01*
X-8788061Y14242128D01*
X-8794513Y14243500D01*
X-8985487Y14243500D01*
X-8991939Y14242128D01*
X-8991944Y14242128D01*
X-9078888Y14223647D01*
X-9172288Y14203794D01*
X-9178318Y14201109D01*
X-9178319Y14201109D01*
X-9340722Y14128803D01*
X-9340724Y14128802D01*
X-9346752Y14126118D01*
X-9495908Y14017749D01*
X-9500482Y14014426D01*
X-9506551Y14012260D01*
X-9520776Y13992184D01*
X-9629040Y13871944D01*
X-9647908Y13839264D01*
X-9718432Y13717112D01*
X-9724527Y13706556D01*
X-9783542Y13524928D01*
X-9800517Y13363414D01*
X-9800907Y13359707D01*
X-9827920Y13294050D01*
X-9837122Y13283782D01*
X-11406435Y11714470D01*
X-11468747Y11680444D01*
X-11539563Y11685509D01*
X-11596398Y11728056D01*
X-11621209Y11794576D01*
X-11621530Y11803565D01*
X-11621530Y12195376D01*
X-11601528Y12263497D01*
X-11584625Y12284471D01*
X-10282467Y13586629D01*
X-9703507Y14165588D01*
X-9680147Y14178344D01*
X-9674323Y14193303D01*
X-9663638Y14205457D01*
X-8939500Y14929595D01*
X-8877188Y14963621D01*
X-8850405Y14966500D01*
X-8794513Y14966500D01*
X-8788061Y14967872D01*
X-8788056Y14967872D01*
X-8696121Y14987414D01*
X-8607712Y15006206D01*
X-8601681Y15008891D01*
X-8439278Y15081197D01*
X-8439276Y15081198D01*
X-8433248Y15083882D01*
X-8399361Y15108502D01*
X-8364385Y15133914D01*
X-8278747Y15196134D01*
X-8239220Y15240033D01*
X-8155379Y15333148D01*
X-8155378Y15333149D01*
X-8150960Y15338056D01*
X-8055473Y15503444D01*
X-7996458Y15685072D01*
X-7995112Y15697872D01*
X-7977186Y15868435D01*
X-7976496Y15875000D01*
X-7978007Y15889376D01*
X-7995768Y16058365D01*
X-7995768Y16058367D01*
X-7996458Y16064928D01*
X-8011611Y16111564D01*
X-8013639Y16182530D01*
X-7976977Y16243328D01*
X-7913265Y16274653D01*
X-7891778Y16276499D01*
X-3110928Y16276499D01*
X-3042807Y16256497D01*
X-2996314Y16202841D01*
X-2991095Y16189436D01*
X-2974527Y16138444D01*
X-2879040Y15973056D01*
X-2751253Y15831134D01*
X-2702005Y15795353D01*
X-2620596Y15736206D01*
X-2596752Y15718882D01*
X-2590724Y15716198D01*
X-2590722Y15716197D01*
X-2428319Y15643891D01*
X-2422288Y15641206D01*
X-2328888Y15621353D01*
X-2241944Y15602872D01*
X-2241939Y15602872D01*
X-2235487Y15601500D01*
X-2044513Y15601500D01*
X-2038061Y15602872D01*
X-2038056Y15602872D01*
X-1951112Y15621353D01*
X-1857712Y15641206D01*
X-1851681Y15643891D01*
X-1689278Y15716197D01*
X-1689276Y15716198D01*
X-1683248Y15718882D01*
X-1659403Y15736206D01*
X-1577995Y15795353D01*
X-1528747Y15831134D01*
X-1400960Y15973056D01*
X-1305473Y16138444D01*
X-1246458Y16320072D01*
X-1226496Y16510000D01*
X-1237171Y16611565D01*
X-1245768Y16693365D01*
X-1245768Y16693367D01*
X-1246458Y16699928D01*
X-1305473Y16881556D01*
X-1400960Y17046944D01*
X-1498609Y17155395D01*
X-1524325Y17183955D01*
X-1524326Y17183956D01*
X-1528747Y17188866D01*
X-1683248Y17301118D01*
X-1689276Y17303802D01*
X-1689278Y17303803D01*
X-1851681Y17376109D01*
X-1851682Y17376109D01*
X-1857712Y17378794D01*
X-1951113Y17398647D01*
X-2038056Y17417128D01*
X-2038061Y17417128D01*
X-2044513Y17418500D01*
X-2117619Y17418500D01*
X-2178330Y17434091D01*
X-2182440Y17436351D01*
X-2198952Y17447198D01*
X-2205393Y17452194D01*
X-2214958Y17459613D01*
X-2222227Y17462758D01*
X-2222231Y17462761D01*
X-2255536Y17477173D01*
X-2266186Y17482390D01*
X-2304939Y17503694D01*
X-2324562Y17508732D01*
X-2343265Y17515136D01*
X-2354579Y17520032D01*
X-2354580Y17520032D01*
X-2361854Y17523180D01*
X-2369677Y17524419D01*
X-2369687Y17524422D01*
X-2405523Y17530098D01*
X-2417143Y17532504D01*
X-2452288Y17541527D01*
X-2452289Y17541527D01*
X-2459969Y17543499D01*
X-2480223Y17543499D01*
X-2499934Y17545050D01*
X-2512113Y17546979D01*
X-2519942Y17548219D01*
X-2527834Y17547473D01*
X-2563960Y17544058D01*
X-2575818Y17543499D01*
X-17446285Y17543499D01*
X-17514406Y17563501D01*
X-17560899Y17617157D01*
X-17571003Y17687431D01*
X-17559242Y17725326D01*
X-17497406Y17850442D01*
X-17493607Y17860037D01*
X-17431700Y18063794D01*
X-17429521Y18073875D01*
X-17401486Y18286822D01*
X-17400967Y18293497D01*
X-17399504Y18353345D01*
X-17399698Y18360063D01*
X-17417295Y18574105D01*
X-17418980Y18584285D01*
X-17470862Y18790834D01*
X-17474182Y18800585D01*
X-17559104Y18995895D01*
X-17563971Y19004970D01*
X-17679650Y19183783D01*
X-17685940Y19191952D01*
X-17760118Y19273472D01*
X-17772165Y19280807D01*
X-17781131Y19274732D01*
X-18631822Y18103857D01*
X-18688044Y18060503D01*
X-18758780Y18054428D01*
X-18807819Y18075982D01*
X-19116864Y18300516D01*
X-19976051Y18924752D01*
X-19988280Y18929115D01*
X-19999025Y18917480D01*
X-20038738Y18831926D01*
X-20042301Y18822239D01*
X-20099212Y18617028D01*
X-20101143Y18606909D01*
X-20123774Y18395135D01*
X-20124026Y18384846D01*
X-20111767Y18172232D01*
X-20110331Y18162012D01*
X-20063511Y17954263D01*
X-20060431Y17944434D01*
X-20014934Y17832386D01*
X-20007838Y17761745D01*
X-20040060Y17698481D01*
X-20101370Y17662681D01*
X-20133216Y17658991D01*
X-20344970Y17661578D01*
X-20344972Y17661578D01*
X-20350140Y17661641D01*
X-20570960Y17627851D01*
X-20783295Y17558449D01*
X-20981444Y17455299D01*
X-20985577Y17452196D01*
X-20985580Y17452194D01*
X-21155951Y17324276D01*
X-21160086Y17321171D01*
X-21314422Y17159668D01*
X-21317336Y17155396D01*
X-21317337Y17155395D01*
X-21329647Y17137349D01*
X-21440308Y16975126D01*
X-21455674Y16942022D01*
X-21526999Y16788365D01*
X-21534363Y16772501D01*
X-21594062Y16557236D01*
X-21617800Y16335111D01*
X-21617503Y16329958D01*
X-21617503Y16329955D01*
X-21606122Y16132567D01*
X-21604941Y16112091D01*
X-21603804Y16107045D01*
X-21603803Y16107039D01*
X-21593911Y16063148D01*
X-21555829Y15894167D01*
X-21553885Y15889380D01*
X-21553884Y15889376D01*
X-21508452Y15777488D01*
X-21501356Y15706847D01*
X-21533579Y15643584D01*
X-21594888Y15607784D01*
X-21626732Y15604094D01*
X-21784674Y15606024D01*
X-21837945Y15606675D01*
X-21837947Y15606675D01*
X-21843114Y15606738D01*
X-22063934Y15572948D01*
X-22276269Y15503546D01*
X-22306582Y15487766D01*
X-22372961Y15453211D01*
X-22474418Y15400396D01*
X-22478551Y15397293D01*
X-22478554Y15397291D01*
X-22648925Y15269373D01*
X-22653060Y15266268D01*
X-22656632Y15262530D01*
X-22733049Y15182564D01*
X-22807396Y15104765D01*
X-22810310Y15100493D01*
X-22810311Y15100492D01*
X-22822621Y15082446D01*
X-22933282Y14920223D01*
X-22949022Y14886313D01*
X-23025155Y14722298D01*
X-23027337Y14717598D01*
X-23087036Y14502333D01*
X-23110774Y14280208D01*
X-23110477Y14275055D01*
X-23110477Y14275052D01*
X-23101666Y14122237D01*
X-23097915Y14057188D01*
X-23087789Y14012260D01*
X-23086037Y14004484D01*
X-23090573Y13933632D01*
X-23132694Y13876480D01*
X-23199027Y13851174D01*
X-23242520Y13855335D01*
X-23355119Y13886456D01*
X-23355121Y13886456D01*
X-23363771Y13888847D01*
X-23372747Y13888714D01*
X-23372748Y13888714D01*
X-23428320Y13887889D01*
X-23509412Y13886686D01*
X-23575712Y13866226D01*
X-23640013Y13846383D01*
X-23640014Y13846382D01*
X-23648593Y13843735D01*
X-23770125Y13763448D01*
X-23775429Y13757599D01*
X-23775432Y13757596D01*
X-23809850Y13719638D01*
X-23812140Y13717112D01*
X-23814142Y13714356D01*
X-23814144Y13714354D01*
X-24738361Y12442279D01*
X-24867960Y12263901D01*
X-24899044Y12209624D01*
X-24906683Y12181986D01*
X-24922971Y12123051D01*
X-24937847Y12069229D01*
X-24935686Y11923588D01*
X-24892735Y11784407D01*
X-24812448Y11662875D01*
X-24806599Y11657571D01*
X-24806596Y11657568D01*
X-24768638Y11623150D01*
X-24766112Y11620860D01*
X-24763356Y11618858D01*
X-24763354Y11618856D01*
X-23315654Y10567040D01*
X-23312901Y10565040D01*
X-23258624Y10533956D01*
X-23227200Y10525271D01*
X-23126881Y10497544D01*
X-23126879Y10497544D01*
X-23118229Y10495153D01*
X-23109253Y10495286D01*
X-23109252Y10495286D01*
X-23053680Y10496111D01*
X-22972588Y10497314D01*
X-22861628Y10531556D01*
X-22841987Y10537617D01*
X-22841986Y10537618D01*
X-22833407Y10540265D01*
X-22711875Y10620552D01*
X-22706571Y10626401D01*
X-22706568Y10626404D01*
X-22672150Y10664362D01*
X-22672146Y10664367D01*
X-22669860Y10666888D01*
X-22626508Y10726556D01*
X-21616040Y12117346D01*
X-21616039Y12117348D01*
X-21614040Y12120099D01*
X-21582956Y12174376D01*
X-21560693Y12254928D01*
X-21546544Y12306119D01*
X-21546544Y12306121D01*
X-21544153Y12314771D01*
X-21546314Y12460412D01*
X-21583858Y12582071D01*
X-21586617Y12591013D01*
X-21586618Y12591014D01*
X-21589265Y12599593D01*
X-21659284Y12705582D01*
X-21680143Y12773445D01*
X-21661001Y12841813D01*
X-21607936Y12888979D01*
X-21570163Y12900013D01*
X-21469737Y12912878D01*
X-21469736Y12912878D01*
X-21464609Y12913535D01*
X-21451323Y12917521D01*
X-21255596Y12976242D01*
X-21255591Y12976244D01*
X-21250641Y12977729D01*
X-21050031Y13076007D01*
X-20868165Y13205730D01*
X-20709929Y13363414D01*
X-20650431Y13446214D01*
X-20582590Y13540626D01*
X-20579572Y13544826D01*
X-20499640Y13706556D01*
X-20482889Y13740450D01*
X-20482888Y13740452D01*
X-20480595Y13745092D01*
X-20448125Y13851963D01*
X-20417160Y13953880D01*
X-20417160Y13953882D01*
X-20415655Y13958834D01*
X-20386496Y14180313D01*
X-20386414Y14183663D01*
X-20384951Y14243538D01*
X-20384951Y14243542D01*
X-20384869Y14246903D01*
X-20403173Y14469542D01*
X-20457594Y14686201D01*
X-20494261Y14770529D01*
X-20503080Y14840976D01*
X-20472414Y14905008D01*
X-20411997Y14942295D01*
X-20374096Y14946686D01*
X-20293928Y14943746D01*
X-20198378Y14940242D01*
X-20198374Y14940242D01*
X-20193214Y14940053D01*
X-20188094Y14940709D01*
X-20188092Y14940709D01*
X-19976763Y14967781D01*
X-19976762Y14967781D01*
X-19971635Y14968438D01*
X-19966685Y14969923D01*
X-19762622Y15031145D01*
X-19762617Y15031147D01*
X-19757667Y15032632D01*
X-19557057Y15130910D01*
X-19375191Y15260633D01*
X-19216955Y15418317D01*
X-19086598Y15599729D01*
X-19082440Y15608141D01*
X-18989915Y15795353D01*
X-18989912Y15795360D01*
X-18987621Y15799995D01*
X-18922681Y16013737D01*
X-18902510Y16166946D01*
X-18873787Y16231873D01*
X-18814522Y16270964D01*
X-18777588Y16276499D01*
X-9888222Y16276499D01*
X-9820101Y16256497D01*
X-9773608Y16202841D01*
X-9763504Y16132567D01*
X-9768388Y16111568D01*
X-9783542Y16064928D01*
X-9797613Y15931045D01*
X-9800907Y15899707D01*
X-9827920Y15834050D01*
X-9837122Y15823782D01*
X-12647283Y13013622D01*
X-12655569Y13006082D01*
X-12662048Y13001970D01*
X-12667473Y12996193D01*
X-12708673Y12952319D01*
X-12711428Y12949477D01*
X-12731165Y12929740D01*
X-12733645Y12926543D01*
X-12741348Y12917523D01*
X-12771616Y12885291D01*
X-12775435Y12878345D01*
X-12775437Y12878342D01*
X-12781378Y12867536D01*
X-12792229Y12851017D01*
X-12804644Y12835011D01*
X-12807789Y12827742D01*
X-12807792Y12827738D01*
X-12822204Y12794433D01*
X-12827421Y12783783D01*
X-12848725Y12745030D01*
X-12850696Y12737355D01*
X-12850696Y12737354D01*
X-12853763Y12725408D01*
X-12860167Y12706704D01*
X-12860652Y12705582D01*
X-12868211Y12688115D01*
X-12869450Y12680292D01*
X-12869453Y12680282D01*
X-12875129Y12644446D01*
X-12877535Y12632826D01*
X-12886067Y12599593D01*
X-12888530Y12590000D01*
X-12888530Y12569746D01*
X-12890081Y12550036D01*
X-12893250Y12530027D01*
X-12892504Y12522135D01*
X-12889089Y12486009D01*
X-12888530Y12474151D01*
X-12888530Y7744564D01*
X-12908532Y7676443D01*
X-12925435Y7655469D01*
X-18640500Y1940405D01*
X-18702812Y1906379D01*
X-18729595Y1903500D01*
X-24758195Y1903500D01*
X-24826316Y1923502D01*
X-24863987Y1961060D01*
X-24952178Y2097383D01*
X-24952180Y2097386D01*
X-24954986Y2101723D01*
X-24971227Y2119572D01*
X-25102202Y2263512D01*
X-25133254Y2327358D01*
X-25124859Y2397857D01*
X-25079683Y2452625D01*
X-25053239Y2466294D01*
X-24946703Y2506233D01*
X-24938295Y2509385D01*
X-24821739Y2596739D01*
X-24734385Y2713295D01*
X-24683255Y2849684D01*
X-24676500Y2911866D01*
X-24676500Y4708134D01*
X-24683255Y4770316D01*
X-24734385Y4906705D01*
X-24821739Y5023261D01*
X-24938295Y5110615D01*
X-25074684Y5161745D01*
X-25136866Y5168500D01*
X-26933134Y5168500D01*
X-26995316Y5161745D01*
X-27131705Y5110615D01*
X-27248261Y5023261D01*
X-27335615Y4906705D01*
X-27386745Y4770316D01*
X-27393500Y4708134D01*
X-27393500Y2911866D01*
X-27386745Y2849684D01*
X-27335615Y2713295D01*
X-27248261Y2596739D01*
X-27131705Y2509385D01*
X-27123296Y2506233D01*
X-27123295Y2506232D01*
X-27014549Y2465465D01*
X-26957784Y2422824D01*
X-26933084Y2356262D01*
X-26948291Y2286913D01*
X-26967684Y2260432D01*
X-27061048Y2162732D01*
X-27094371Y2127862D01*
X-27097285Y2123590D01*
X-27097286Y2123589D01*
X-27158376Y2034034D01*
X-27220257Y1943320D01*
X-27234102Y1913493D01*
X-27296105Y1779918D01*
X-27314312Y1740695D01*
X-27374011Y1525430D01*
X-27397749Y1303305D01*
X-27397452Y1298152D01*
X-27397452Y1298149D01*
X-27391989Y1203410D01*
X-27384890Y1080285D01*
X-27383753Y1075239D01*
X-27383752Y1075233D01*
X-27369394Y1011525D01*
X-27335778Y862361D01*
X-27280100Y725242D01*
X-27258183Y671267D01*
X-27251734Y655384D01*
X-27237269Y631780D01*
X-27137709Y469312D01*
X-27135013Y464912D01*
X-26988750Y296062D01*
X-26816874Y153368D01*
X-26746405Y112189D01*
X-26743555Y110524D01*
X-26694831Y58886D01*
X-26681760Y-10897D01*
X-26708491Y-76669D01*
X-26748945Y-110027D01*
X-26761393Y-116507D01*
X-26765526Y-119610D01*
X-26765529Y-119612D01*
X-26935900Y-247530D01*
X-26940035Y-250635D01*
X-26943607Y-254373D01*
X-27066344Y-382810D01*
X-27094371Y-412138D01*
X-27220257Y-596680D01*
X-27314312Y-799305D01*
X-27374011Y-1014570D01*
X-27397749Y-1236695D01*
X-29447491Y-1236695D01*
X-29832607Y-38556D01*
X-29832607Y38557D01*
X-24142420Y17741359D01*
X-24097358Y17804127D01*
X-24034696Y17850442D01*
X-22008664Y19347944D01*
X-19687737Y19347944D01*
X-19679256Y19337042D01*
X-18832925Y18722145D01*
X-18817965Y18716807D01*
X-18816174Y18717224D01*
X-18810307Y18722456D01*
X-18192388Y19572948D01*
X-18187515Y19586605D01*
X-18197067Y19596065D01*
X-18198970Y19597116D01*
X-18208361Y19601337D01*
X-18409117Y19672429D01*
X-18419087Y19675063D01*
X-18628749Y19712408D01*
X-18639003Y19713378D01*
X-18851960Y19715981D01*
X-18862244Y19715261D01*
X-19072755Y19683048D01*
X-19082783Y19680659D01*
X-19285208Y19614497D01*
X-19294717Y19610500D01*
X-19483613Y19512167D01*
X-19492338Y19506673D01*
X-19662643Y19378804D01*
X-19670350Y19371961D01*
X-19681180Y19360628D01*
X-19687737Y19347944D01*
X-22008664Y19347944D01*
X-17207525Y22896612D01*
X-13005282Y22896612D01*
X-13003652Y22887196D01*
X-12921357Y22752903D01*
X-12915274Y22744592D01*
X-12775838Y22583624D01*
X-12768471Y22576408D01*
X-12604617Y22440375D01*
X-12596170Y22434460D01*
X-12412295Y22327012D01*
X-12403009Y22322562D01*
X-12204050Y22246588D01*
X-12194152Y22243712D01*
X-11985456Y22201253D01*
X-11975228Y22200034D01*
X-11762401Y22192229D01*
X-11752115Y22192696D01*
X-11666325Y22203686D01*
X-11654289Y22208960D01*
X-11654392Y22224563D01*
X-11976531Y23216003D01*
X-11985496Y23229114D01*
X-11987191Y23229830D01*
X-11995013Y23229046D01*
X-12993641Y22904572D01*
X-13005282Y22896612D01*
X-17207525Y22896612D01*
X-16281009Y23581428D01*
X-13181001Y23581428D01*
X-13170521Y23399668D01*
X-13165775Y23386388D01*
X-13156995Y23385638D01*
X-12156339Y23710771D01*
X-12143228Y23719736D01*
X-12142512Y23721431D01*
X-12143296Y23729253D01*
X-12467389Y24726711D01*
X-12475068Y24737941D01*
X-12489713Y24735233D01*
X-12540584Y24708751D01*
X-12549319Y24703250D01*
X-12719618Y24575386D01*
X-12727325Y24568543D01*
X-12874461Y24414574D01*
X-12880947Y24406564D01*
X-13000953Y24230642D01*
X-13006051Y24221668D01*
X-13095713Y24028508D01*
X-13099276Y24018821D01*
X-13156187Y23813610D01*
X-13158118Y23803491D01*
X-13180749Y23591717D01*
X-13181001Y23581428D01*
X-16281009Y23581428D01*
X-14499798Y24897975D01*
X-11984371Y24897975D01*
X-11984093Y24883202D01*
X-11551979Y23553291D01*
X-11170355Y22378772D01*
X-11162378Y22367107D01*
X-11148529Y22369493D01*
X-11125957Y22380552D01*
X-11117106Y22385827D01*
X-10943723Y22509499D01*
X-10935851Y22516152D01*
X-10784999Y22666479D01*
X-10778321Y22674326D01*
X-10654048Y22847271D01*
X-10648738Y22856108D01*
X-10554381Y23047024D01*
X-10550585Y23056611D01*
X-10492103Y23249098D01*
X-10453161Y23308463D01*
X-10388307Y23337350D01*
X-10318131Y23326589D01*
X-10291061Y23309415D01*
X-10185241Y23221562D01*
X-9992367Y23108856D01*
X-9987542Y23107014D01*
X-9987541Y23107013D01*
X-9914755Y23079219D01*
X-9783675Y23029164D01*
X-9778607Y23028133D01*
X-9778604Y23028132D01*
X-9671350Y23006311D01*
X-9564770Y22984627D01*
X-9559595Y22984437D01*
X-9559593Y22984437D01*
X-9346694Y22976630D01*
X-9346690Y22976630D01*
X-9341530Y22976441D01*
X-9336410Y22977097D01*
X-9336408Y22977097D01*
X-9125079Y23004169D01*
X-9125078Y23004169D01*
X-9119951Y23004826D01*
X-9115001Y23006311D01*
X-8910938Y23067533D01*
X-8910933Y23067535D01*
X-8905983Y23069020D01*
X-8705373Y23167298D01*
X-8523507Y23297021D01*
X-8516494Y23304009D01*
X-8368932Y23451057D01*
X-8365271Y23454705D01*
X-8305773Y23537505D01*
X-8237932Y23631917D01*
X-8234914Y23636117D01*
X-8227759Y23650593D01*
X-8138231Y23831741D01*
X-8138230Y23831743D01*
X-8135937Y23836383D01*
X-8076001Y24033655D01*
X-8037060Y24093019D01*
X-7972206Y24121906D01*
X-7902030Y24111145D01*
X-7874960Y24093971D01*
X-7769558Y24006465D01*
X-7576684Y23893759D01*
X-7367992Y23814067D01*
X-7362924Y23813036D01*
X-7362921Y23813035D01*
X-7316010Y23803491D01*
X-7149087Y23769530D01*
X-7143912Y23769340D01*
X-7143910Y23769340D01*
X-6931011Y23761533D01*
X-6931007Y23761533D01*
X-6925847Y23761344D01*
X-6920727Y23762000D01*
X-6920725Y23762000D01*
X-6709396Y23789072D01*
X-6709395Y23789072D01*
X-6704268Y23789729D01*
X-6699311Y23791216D01*
X-6699307Y23791217D01*
X-6655661Y23804311D01*
X-6584666Y23804729D01*
X-6533201Y23775476D01*
X-6513006Y23756512D01*
X-6506060Y23752693D01*
X-6506057Y23752691D01*
X-6495251Y23746750D01*
X-6478732Y23735899D01*
X-6462726Y23723484D01*
X-6455457Y23720339D01*
X-6455453Y23720336D01*
X-6422148Y23705924D01*
X-6411498Y23700707D01*
X-6372745Y23679403D01*
X-6365070Y23677432D01*
X-6365069Y23677432D01*
X-6353123Y23674365D01*
X-6334418Y23667961D01*
X-6315830Y23659917D01*
X-6308007Y23658678D01*
X-6307997Y23658675D01*
X-6272161Y23652999D01*
X-6260541Y23650593D01*
X-6225396Y23641570D01*
X-6217715Y23639598D01*
X-6197461Y23639598D01*
X-6177751Y23638047D01*
X-6157742Y23634878D01*
X-6149850Y23635624D01*
X-6113724Y23639039D01*
X-6101866Y23639598D01*
X-4464690Y23639598D01*
X-4396569Y23619596D01*
X-4375595Y23602693D01*
X-3211497Y22438595D01*
X-3177471Y22376283D01*
X-3182536Y22305468D01*
X-3225083Y22248632D01*
X-3291603Y22223821D01*
X-3300592Y22223500D01*
X-3731233Y22223500D01*
X-3742416Y22224027D01*
X-3749909Y22225702D01*
X-3757835Y22225453D01*
X-3757836Y22225453D01*
X-3817999Y22223562D01*
X-3821957Y22223500D01*
X-3849856Y22223500D01*
X-3853846Y22222996D01*
X-3865680Y22222064D01*
X-3909889Y22220674D01*
X-3917503Y22218462D01*
X-3917508Y22218461D01*
X-3929341Y22215023D01*
X-3948704Y22211012D01*
X-3968797Y22208474D01*
X-3976164Y22205557D01*
X-3976169Y22205556D01*
X-4009908Y22192198D01*
X-4021135Y22188354D01*
X-4063593Y22176018D01*
X-4070419Y22171981D01*
X-4081028Y22165707D01*
X-4098776Y22157012D01*
X-4117617Y22149552D01*
X-4124033Y22144890D01*
X-4124034Y22144890D01*
X-4153387Y22123564D01*
X-4163307Y22117048D01*
X-4194535Y22098580D01*
X-4194538Y22098578D01*
X-4201362Y22094542D01*
X-4215683Y22080221D01*
X-4230716Y22067381D01*
X-4247107Y22055472D01*
X-4252158Y22049366D01*
X-4275298Y22021395D01*
X-4283288Y22012616D01*
X-5665500Y20630405D01*
X-5727812Y20596379D01*
X-5754595Y20593500D01*
X-5810487Y20593500D01*
X-5816939Y20592128D01*
X-5816944Y20592128D01*
X-5903888Y20573647D01*
X-5997288Y20553794D01*
X-6003318Y20551109D01*
X-6003319Y20551109D01*
X-6165722Y20478803D01*
X-6165724Y20478802D01*
X-6171752Y20476118D01*
X-6326253Y20363866D01*
X-6454040Y20221944D01*
X-6549527Y20056556D01*
X-6608542Y19874928D01*
X-6609232Y19868367D01*
X-6609232Y19868365D01*
X-6625521Y19713378D01*
X-6628504Y19685000D01*
X-6627814Y19678435D01*
X-6609761Y19506673D01*
X-6608542Y19495072D01*
X-6549527Y19313444D01*
X-6454040Y19148056D01*
X-6449622Y19143149D01*
X-6449621Y19143148D01*
X-6337314Y19018418D01*
X-6326253Y19006134D01*
X-6259870Y18957904D01*
X-6203294Y18916799D01*
X-6171752Y18893882D01*
X-6165724Y18891198D01*
X-6165722Y18891197D01*
X-6003319Y18818891D01*
X-5997288Y18816206D01*
X-5923797Y18800585D01*
X-5816944Y18777872D01*
X-5816939Y18777872D01*
X-5810487Y18776500D01*
X-5619513Y18776500D01*
X-5613061Y18777872D01*
X-5613056Y18777872D01*
X-5506203Y18800585D01*
X-5432712Y18816206D01*
X-5426681Y18818891D01*
X-5264278Y18891197D01*
X-5264276Y18891198D01*
X-5258248Y18893882D01*
X-5226705Y18916799D01*
X-5170130Y18957904D01*
X-5103747Y19006134D01*
X-5092686Y19018418D01*
X-4980379Y19143148D01*
X-4980378Y19143149D01*
X-4975960Y19148056D01*
X-4880473Y19313444D01*
X-4821458Y19495072D01*
X-4819977Y19509158D01*
X-4804093Y19660293D01*
X-4777080Y19725950D01*
X-4767878Y19736218D01*
X-3584500Y20919595D01*
X-3522188Y20953621D01*
X-3495405Y20956500D01*
X-3248200Y20956500D01*
X-3180079Y20936498D01*
X-3160853Y20920157D01*
X-3160580Y20920460D01*
X-3155668Y20916037D01*
X-3151253Y20911134D01*
X-2996752Y20798882D01*
X-2990724Y20796198D01*
X-2990722Y20796197D01*
X-2861484Y20738657D01*
X-2822288Y20721206D01*
X-2728887Y20701353D01*
X-2641944Y20682872D01*
X-2641939Y20682872D01*
X-2635487Y20681500D01*
X-2444513Y20681500D01*
X-2438061Y20682872D01*
X-2438056Y20682872D01*
X-2351113Y20701353D01*
X-2257712Y20721206D01*
X-2218516Y20738657D01*
X-2089278Y20796197D01*
X-2089276Y20796198D01*
X-2083248Y20798882D01*
X-1928747Y20911134D01*
X-1901647Y20941232D01*
X-1841201Y20978470D01*
X-1770217Y20977118D01*
X-1718917Y20946015D01*
X694595Y18532503D01*
X728621Y18470191D01*
X731500Y18443408D01*
X731500Y17307524D01*
X711498Y17239403D01*
X699142Y17223221D01*
X625960Y17141944D01*
X530473Y16976556D01*
X471458Y16794928D01*
X470768Y16788367D01*
X470768Y16788365D01*
X462133Y16706206D01*
X451496Y16605000D01*
X452186Y16598435D01*
X470518Y16424019D01*
X471458Y16415072D01*
X530473Y16233444D01*
X625960Y16068056D01*
X630378Y16063149D01*
X630379Y16063148D01*
X691169Y15995634D01*
X753747Y15926134D01*
X908248Y15813882D01*
X914276Y15811198D01*
X914278Y15811197D01*
X1076681Y15738891D01*
X1082712Y15736206D01*
X1164215Y15718882D01*
X1263056Y15697872D01*
X1263061Y15697872D01*
X1269513Y15696500D01*
X1460487Y15696500D01*
X1466939Y15697872D01*
X1466944Y15697872D01*
X1565785Y15718882D01*
X1647288Y15736206D01*
X1653319Y15738891D01*
X1815722Y15811197D01*
X1815724Y15811198D01*
X1821752Y15813882D01*
X1976253Y15926134D01*
X2038831Y15995634D01*
X2099621Y16063148D01*
X2099622Y16063149D01*
X2104040Y16068056D01*
X2199527Y16233444D01*
X2258542Y16415072D01*
X2259483Y16424019D01*
X2277814Y16598435D01*
X2278504Y16605000D01*
X2267867Y16706206D01*
X2259232Y16788365D01*
X2259232Y16788367D01*
X2258542Y16794928D01*
X2199527Y16976556D01*
X2104040Y17141944D01*
X2030863Y17223215D01*
X2000147Y17287221D01*
X1998500Y17307524D01*
X1998500Y18679234D01*
X1999027Y18690417D01*
X2000702Y18697910D01*
X1998562Y18766001D01*
X1998500Y18769958D01*
X1998500Y18797858D01*
X1997996Y18801849D01*
X1997063Y18813691D01*
X1996795Y18822239D01*
X1995674Y18857891D01*
X1990021Y18877350D01*
X1986012Y18896709D01*
X1985846Y18898019D01*
X1983474Y18916799D01*
X1980558Y18924165D01*
X1980556Y18924171D01*
X1967200Y18957904D01*
X1963355Y18969134D01*
X1953230Y19003985D01*
X1953230Y19003986D01*
X1951019Y19011595D01*
X1940705Y19029036D01*
X1932008Y19046789D01*
X1927472Y19058244D01*
X1924552Y19065619D01*
X1898563Y19101390D01*
X1892047Y19111310D01*
X1873578Y19142539D01*
X1869542Y19149364D01*
X1855221Y19163685D01*
X1842380Y19178719D01*
X1835131Y19188696D01*
X1830472Y19195109D01*
X1796395Y19223300D01*
X1787616Y19231290D01*
X-3587828Y24606735D01*
X-3621854Y24669047D01*
X-3616789Y24739862D01*
X-3574242Y24796698D01*
X-3537669Y24815663D01*
X-3298024Y24893528D01*
X-3240973Y24919168D01*
X-3234801Y24924086D01*
X-3234798Y24924088D01*
X-3161680Y24982354D01*
X-3127059Y25009942D01*
X-3043202Y25129038D01*
X-3029246Y25169917D01*
X-2999041Y25258389D01*
X-2999041Y25258390D01*
X-2996141Y25266884D01*
X-2989660Y25412397D01*
X2989660Y25412397D01*
X2996141Y25266884D01*
X2999041Y25258390D01*
X2999041Y25258389D01*
X3029246Y25169917D01*
X3043202Y25129038D01*
X3127059Y25009942D01*
X3161680Y24982354D01*
X3234798Y24924088D01*
X3234801Y24924086D01*
X3240973Y24919168D01*
X3298024Y24893528D01*
X5006377Y24338451D01*
X5027056Y24334131D01*
X5089646Y24300619D01*
X5124182Y24238589D01*
X5119700Y24167734D01*
X5090381Y24121699D01*
X4247747Y23279065D01*
X4239461Y23271525D01*
X4232982Y23267413D01*
X4227557Y23261636D01*
X4186357Y23217762D01*
X4183602Y23214920D01*
X4163865Y23195183D01*
X4161385Y23191986D01*
X4153682Y23182966D01*
X4123414Y23150734D01*
X4119595Y23143788D01*
X4119593Y23143785D01*
X4113652Y23132979D01*
X4102801Y23116460D01*
X4090386Y23100454D01*
X4087241Y23093185D01*
X4087238Y23093181D01*
X4072826Y23059876D01*
X4067609Y23049226D01*
X4046305Y23010473D01*
X4044334Y23002798D01*
X4044334Y23002797D01*
X4041267Y22990851D01*
X4034863Y22972147D01*
X4026819Y22953558D01*
X4025580Y22945735D01*
X4025577Y22945725D01*
X4019901Y22909889D01*
X4017495Y22898269D01*
X4017070Y22896612D01*
X4006500Y22855443D01*
X4006500Y22835189D01*
X4004949Y22815479D01*
X4001780Y22795470D01*
X4002526Y22787578D01*
X4005941Y22751452D01*
X4006500Y22739594D01*
X4006500Y19557524D01*
X3986498Y19489403D01*
X3974142Y19473221D01*
X3900960Y19391944D01*
X3805473Y19226556D01*
X3746458Y19044928D01*
X3745768Y19038367D01*
X3745768Y19038365D01*
X3728845Y18877350D01*
X3726496Y18855000D01*
X3727186Y18848435D01*
X3744970Y18679234D01*
X3746458Y18665072D01*
X3805473Y18483444D01*
X3808776Y18477722D01*
X3808777Y18477721D01*
X3822460Y18454022D01*
X3900960Y18318056D01*
X3905378Y18313149D01*
X3905379Y18313148D01*
X3943231Y18271109D01*
X4028747Y18176134D01*
X4183248Y18063882D01*
X4189276Y18061198D01*
X4189278Y18061197D01*
X4322415Y18001921D01*
X4357712Y17986206D01*
X4451112Y17966353D01*
X4538056Y17947872D01*
X4538061Y17947872D01*
X4544513Y17946500D01*
X4735487Y17946500D01*
X4741939Y17947872D01*
X4741944Y17947872D01*
X4828888Y17966353D01*
X4922288Y17986206D01*
X4957585Y18001921D01*
X5090722Y18061197D01*
X5090724Y18061198D01*
X5096752Y18063882D01*
X5181026Y18125111D01*
X5247893Y18148969D01*
X5317045Y18132889D01*
X5366525Y18081975D01*
X5380625Y18012393D01*
X5357022Y17949113D01*
X5355379Y17946852D01*
X5350960Y17941944D01*
X5347661Y17936231D01*
X5347658Y17936226D01*
X5271391Y17804127D01*
X5255473Y17776556D01*
X5196458Y17594928D01*
X5195768Y17588367D01*
X5195768Y17588365D01*
X5184082Y17477173D01*
X5176496Y17405000D01*
X5177186Y17398435D01*
X5185700Y17317433D01*
X5196458Y17215072D01*
X5255473Y17033444D01*
X5258776Y17027722D01*
X5258777Y17027721D01*
X5339862Y16887279D01*
X5348566Y16872203D01*
X5348566Y16872202D01*
X5350960Y16868056D01*
X5350202Y16867618D01*
X5372202Y16805973D01*
X5356126Y16736820D01*
X5305216Y16687337D01*
X5297657Y16683664D01*
X5264278Y16668803D01*
X5264276Y16668802D01*
X5258248Y16666118D01*
X5103747Y16553866D01*
X4975960Y16411944D01*
X4880473Y16246556D01*
X4821458Y16064928D01*
X4820768Y16058367D01*
X4820768Y16058365D01*
X4803007Y15889376D01*
X4801496Y15875000D01*
X4802186Y15868435D01*
X4820113Y15697872D01*
X4821458Y15685072D01*
X4880473Y15503444D01*
X4975960Y15338056D01*
X4980378Y15333149D01*
X4980379Y15333148D01*
X5064220Y15240033D01*
X5103747Y15196134D01*
X5189385Y15133914D01*
X5224362Y15108502D01*
X5258248Y15083882D01*
X5264276Y15081198D01*
X5264278Y15081197D01*
X5426681Y15008891D01*
X5432712Y15006206D01*
X5521121Y14987414D01*
X5613056Y14967872D01*
X5613061Y14967872D01*
X5619513Y14966500D01*
X5675406Y14966500D01*
X5743527Y14946498D01*
X5764501Y14929595D01*
X9663640Y11030456D01*
X9674601Y11010383D01*
X9680501Y11008772D01*
X9703504Y10990592D01*
X15129604Y5564491D01*
X19816348Y877747D01*
X19823888Y869461D01*
X19828000Y862982D01*
X19833777Y857557D01*
X19877651Y816357D01*
X19880493Y813602D01*
X19900230Y793865D01*
X19903427Y791385D01*
X19912447Y783682D01*
X19944679Y753414D01*
X19951625Y749595D01*
X19951628Y749593D01*
X19962434Y743652D01*
X19978953Y732801D01*
X19994959Y720386D01*
X20002228Y717241D01*
X20002232Y717238D01*
X20035537Y702826D01*
X20046187Y697609D01*
X20084940Y676305D01*
X20092615Y674334D01*
X20092616Y674334D01*
X20104562Y671267D01*
X20123267Y664863D01*
X20141855Y656819D01*
X20149678Y655580D01*
X20149688Y655577D01*
X20185524Y649901D01*
X20197144Y647495D01*
X20228959Y639327D01*
X20239970Y636500D01*
X20260224Y636500D01*
X20279934Y634949D01*
X20299943Y631780D01*
X20307835Y632526D01*
X20326580Y634298D01*
X20343962Y635941D01*
X20355819Y636500D01*
X24759274Y636500D01*
X24827395Y616498D01*
X24866707Y576335D01*
X24934987Y464912D01*
X25081250Y296062D01*
X25253126Y153368D01*
X25323595Y112189D01*
X25326445Y110524D01*
X25375169Y58886D01*
X25388240Y-10897D01*
X25361509Y-76669D01*
X25321055Y-110027D01*
X25308607Y-116507D01*
X25304474Y-119610D01*
X25304471Y-119612D01*
X25134100Y-247530D01*
X25129965Y-250635D01*
X25126393Y-254373D01*
X25003656Y-382810D01*
X24975629Y-412138D01*
X24849743Y-596680D01*
X24755688Y-799305D01*
X24695989Y-1014570D01*
X24672251Y-1236695D01*
X24672548Y-1241848D01*
X24672548Y-1241851D01*
X24678011Y-1336590D01*
X24685110Y-1459715D01*
X24686247Y-1464761D01*
X24686248Y-1464767D01*
X24706119Y-1552939D01*
X24734222Y-1677639D01*
X24818266Y-1884616D01*
X24934987Y-2075088D01*
X25081250Y-2243938D01*
X25253126Y-2386632D01*
X25308288Y-2418866D01*
X25326955Y-2429774D01*
X25375679Y-2481412D01*
X25388750Y-2551195D01*
X25362019Y-2616967D01*
X25321562Y-2650327D01*
X25313457Y-2654546D01*
X25304738Y-2660036D01*
X25134433Y-2787905D01*
X25126726Y-2794748D01*
X24979590Y-2948717D01*
X24973104Y-2956727D01*
X24853098Y-3132649D01*
X24848000Y-3141623D01*
X24758338Y-3334783D01*
X24754775Y-3344470D01*
X24699389Y-3544183D01*
X24700912Y-3552607D01*
X24713292Y-3556000D01*
X27353344Y-3556000D01*
X27366875Y-3552027D01*
X27368180Y-3542947D01*
X27326214Y-3375875D01*
X27322894Y-3366124D01*
X27237972Y-3170814D01*
X27233105Y-3161739D01*
X27117426Y-2982926D01*
X27111136Y-2974757D01*
X26967806Y-2817240D01*
X26960273Y-2810215D01*
X26793139Y-2678222D01*
X26784556Y-2672520D01*
X26747602Y-2652120D01*
X26697631Y-2601687D01*
X26682859Y-2532245D01*
X26707975Y-2465839D01*
X26735327Y-2439232D01*
X26763879Y-2418866D01*
X26914860Y-2311173D01*
X27073096Y-2153489D01*
X27132594Y-2070689D01*
X27200435Y-1976277D01*
X27203453Y-1972077D01*
X27302430Y-1771811D01*
X27367370Y-1558069D01*
X27396529Y-1336590D01*
X27398156Y-1270000D01*
X27379852Y-1047361D01*
X27325431Y-830702D01*
X27236354Y-625840D01*
X27196906Y-564862D01*
X27117822Y-442617D01*
X27117820Y-442614D01*
X27115014Y-438277D01*
X26964670Y-273051D01*
X26960619Y-269852D01*
X26960615Y-269848D01*
X26793414Y-137800D01*
X26793410Y-137798D01*
X26789359Y-134598D01*
X26748053Y-111796D01*
X26698084Y-61364D01*
X26683312Y8079D01*
X26708428Y74484D01*
X26735780Y101091D01*
X26797731Y145280D01*
X26914860Y228827D01*
X27073096Y386511D01*
X27132594Y469311D01*
X27200435Y563723D01*
X27203453Y567923D01*
X27207145Y575392D01*
X27300136Y763547D01*
X27300137Y763549D01*
X27302430Y768189D01*
X27348249Y918995D01*
X27365865Y976977D01*
X27365865Y976979D01*
X27367370Y981931D01*
X27396529Y1203410D01*
X27398156Y1270000D01*
X27379852Y1492639D01*
X27325431Y1709298D01*
X27236354Y1914160D01*
X27132105Y2075305D01*
X27117822Y2097383D01*
X27117820Y2097386D01*
X27115014Y2101723D01*
X27098773Y2119572D01*
X26967798Y2263512D01*
X26936746Y2327358D01*
X26945141Y2397857D01*
X26990317Y2452625D01*
X27016761Y2466294D01*
X27123297Y2506233D01*
X27131705Y2509385D01*
X27248261Y2596739D01*
X27335615Y2713295D01*
X27386745Y2849684D01*
X27393500Y2911866D01*
X27393500Y4708134D01*
X27386745Y4770316D01*
X27335615Y4906705D01*
X27248261Y5023261D01*
X27131705Y5110615D01*
X26995316Y5161745D01*
X26933134Y5168500D01*
X25136866Y5168500D01*
X25074684Y5161745D01*
X24938295Y5110615D01*
X24821739Y5023261D01*
X24734385Y4906705D01*
X24683255Y4770316D01*
X24676500Y4708134D01*
X24676500Y2911866D01*
X24683255Y2849684D01*
X24734385Y2713295D01*
X24821739Y2596739D01*
X24938295Y2509385D01*
X24946704Y2506233D01*
X24946705Y2506232D01*
X25055451Y2465465D01*
X25112216Y2422824D01*
X25136916Y2356262D01*
X25121709Y2286913D01*
X25102316Y2260432D01*
X25008952Y2162732D01*
X24975629Y2127862D01*
X24972715Y2123590D01*
X24972714Y2123589D01*
X24860095Y1958496D01*
X24805184Y1913493D01*
X24756007Y1903500D01*
X20634594Y1903500D01*
X20566473Y1923502D01*
X20545499Y1940405D01*
X7032694Y15453211D01*
X6998668Y15515523D01*
X7003733Y15586338D01*
X7046280Y15643174D01*
X7112800Y15667985D01*
X7121789Y15668306D01*
X7133418Y15668306D01*
X7153128Y15666755D01*
X7173137Y15663586D01*
X7181029Y15664332D01*
X7217155Y15667747D01*
X7229013Y15668306D01*
X19106325Y15668306D01*
X19174446Y15648304D01*
X19213758Y15608141D01*
X19216290Y15604009D01*
X19282038Y15496718D01*
X19428301Y15327868D01*
X19600177Y15185174D01*
X19793051Y15072468D01*
X20001743Y14992776D01*
X20006811Y14991745D01*
X20006814Y14991744D01*
X20114068Y14969923D01*
X20220648Y14948239D01*
X20225823Y14948049D01*
X20225825Y14948049D01*
X20438724Y14940242D01*
X20438728Y14940242D01*
X20443888Y14940053D01*
X20488702Y14945794D01*
X20558812Y14934610D01*
X20611745Y14887297D01*
X20630697Y14818876D01*
X20618999Y14767764D01*
X20597894Y14722298D01*
X20597892Y14722293D01*
X20595713Y14717598D01*
X20536014Y14502333D01*
X20512276Y14280208D01*
X20512573Y14275055D01*
X20512573Y14275052D01*
X20521384Y14122237D01*
X20525135Y14057188D01*
X20526272Y14052142D01*
X20526273Y14052136D01*
X20539491Y13993485D01*
X20574247Y13839264D01*
X20658291Y13632287D01*
X20775012Y13441815D01*
X20921275Y13272965D01*
X21093151Y13130271D01*
X21286025Y13017565D01*
X21290850Y13015723D01*
X21290851Y13015722D01*
X21363637Y12987928D01*
X21494717Y12937873D01*
X21499785Y12936842D01*
X21499788Y12936841D01*
X21704135Y12895266D01*
X21766900Y12862085D01*
X21801762Y12800237D01*
X21797653Y12729359D01*
X21784146Y12702345D01*
X21716265Y12599593D01*
X21713618Y12591014D01*
X21713617Y12591013D01*
X21710858Y12582071D01*
X21673314Y12460412D01*
X21671153Y12314771D01*
X21673544Y12306121D01*
X21673544Y12306119D01*
X21687693Y12254928D01*
X21709956Y12174376D01*
X21741040Y12120099D01*
X21743039Y12117348D01*
X21743040Y12117346D01*
X22753509Y10726556D01*
X22796860Y10666888D01*
X22799146Y10664367D01*
X22799150Y10664362D01*
X22833568Y10626404D01*
X22833571Y10626401D01*
X22838875Y10620552D01*
X22960407Y10540265D01*
X22968986Y10537618D01*
X22968987Y10537617D01*
X22988628Y10531556D01*
X23099588Y10497314D01*
X23180680Y10496111D01*
X23236252Y10495286D01*
X23236253Y10495286D01*
X23245229Y10495153D01*
X23253879Y10497544D01*
X23253881Y10497544D01*
X23354200Y10525271D01*
X23385624Y10533956D01*
X23439901Y10565040D01*
X23442654Y10567040D01*
X24890354Y11618856D01*
X24890356Y11618858D01*
X24893112Y11620860D01*
X24895638Y11623150D01*
X24933596Y11657568D01*
X24933599Y11657571D01*
X24939448Y11662875D01*
X25019735Y11784407D01*
X25062686Y11923588D01*
X25064847Y12069229D01*
X25049972Y12123051D01*
X25033683Y12181986D01*
X25026044Y12209624D01*
X24994960Y12263901D01*
X24865361Y12442279D01*
X23941144Y13714354D01*
X23941142Y13714356D01*
X23939140Y13717112D01*
X23936850Y13719638D01*
X23902432Y13757596D01*
X23902429Y13757599D01*
X23897125Y13763448D01*
X23775593Y13843735D01*
X23767014Y13846382D01*
X23767013Y13846383D01*
X23702712Y13866226D01*
X23636412Y13886686D01*
X23555320Y13887889D01*
X23499748Y13888714D01*
X23499747Y13888714D01*
X23490771Y13888847D01*
X23482121Y13886456D01*
X23482119Y13886456D01*
X23370445Y13855591D01*
X23299457Y13856723D01*
X23240351Y13896055D01*
X23211891Y13961098D01*
X23211957Y13993485D01*
X23214714Y14014426D01*
X23236554Y14180313D01*
X23236636Y14183663D01*
X23238099Y14243538D01*
X23238099Y14243542D01*
X23238181Y14246903D01*
X23219877Y14469542D01*
X23165456Y14686201D01*
X23076379Y14891063D01*
X22955039Y15078626D01*
X22804695Y15243852D01*
X22800644Y15247051D01*
X22800640Y15247055D01*
X22633439Y15379103D01*
X22633435Y15379105D01*
X22629384Y15382305D01*
X22433814Y15490265D01*
X22428945Y15491989D01*
X22428941Y15491991D01*
X22228112Y15563108D01*
X22228108Y15563109D01*
X22223237Y15564834D01*
X22218144Y15565741D01*
X22218141Y15565742D01*
X22008398Y15603103D01*
X22008392Y15603104D01*
X22003309Y15604009D01*
X21929477Y15604911D01*
X21785106Y15606675D01*
X21785104Y15606675D01*
X21779936Y15606738D01*
X21774728Y15605941D01*
X21774690Y15605946D01*
X21769670Y15605595D01*
X21769597Y15606632D01*
X21704367Y15615415D01*
X21650296Y15661424D01*
X21629684Y15729363D01*
X21642722Y15786320D01*
X21649481Y15799995D01*
X21714421Y16013737D01*
X21743580Y16235216D01*
X21744100Y16256497D01*
X21745125Y16298441D01*
X21745125Y16298445D01*
X21745207Y16301806D01*
X21726903Y16524445D01*
X21672482Y16741104D01*
X21583405Y16945966D01*
X21518079Y17046944D01*
X21464873Y17129189D01*
X21464871Y17129192D01*
X21462065Y17133529D01*
X21311721Y17298755D01*
X21307670Y17301954D01*
X21307666Y17301958D01*
X21140465Y17434006D01*
X21140461Y17434008D01*
X21136410Y17437208D01*
X21129324Y17441120D01*
X21059740Y17479532D01*
X20940840Y17545168D01*
X20935971Y17546892D01*
X20935967Y17546894D01*
X20735138Y17618011D01*
X20735134Y17618012D01*
X20730263Y17619737D01*
X20725170Y17620644D01*
X20725167Y17620645D01*
X20515424Y17658006D01*
X20515418Y17658007D01*
X20510335Y17658912D01*
X20436503Y17659814D01*
X20292132Y17661578D01*
X20292130Y17661578D01*
X20286962Y17661641D01*
X20281161Y17660753D01*
X20280882Y17660791D01*
X20276696Y17660498D01*
X20276636Y17661362D01*
X20210801Y17670219D01*
X20156725Y17716223D01*
X20136106Y17784160D01*
X20149144Y17841130D01*
X20153746Y17850442D01*
X20157545Y17860037D01*
X20219452Y18063794D01*
X20221631Y18073875D01*
X20249666Y18286822D01*
X20250185Y18293497D01*
X20251648Y18353345D01*
X20251454Y18360063D01*
X20233857Y18574105D01*
X20232172Y18584285D01*
X20180290Y18790834D01*
X20176970Y18800585D01*
X20125420Y18919144D01*
X20116383Y18929967D01*
X20106504Y18927261D01*
X19243864Y18300516D01*
X18832883Y18001921D01*
X17971573Y17376143D01*
X17962963Y17364976D01*
X17967187Y17356969D01*
X18103509Y17243793D01*
X18111957Y17237878D01*
X18227955Y17170094D01*
X18276679Y17118455D01*
X18289750Y17048672D01*
X18263019Y16982900D01*
X18204972Y16942022D01*
X18164385Y16935306D01*
X7507788Y16935306D01*
X7439667Y16955308D01*
X7418693Y16972211D01*
X7037122Y17353782D01*
X7003096Y17416094D01*
X7000907Y17429707D01*
X6999708Y17441120D01*
X6983542Y17594928D01*
X6924527Y17776556D01*
X6829040Y17941944D01*
X6823703Y17947872D01*
X6705675Y18078955D01*
X6705674Y18078956D01*
X6701253Y18083866D01*
X6546752Y18196118D01*
X6540724Y18198802D01*
X6540722Y18198803D01*
X6378319Y18271109D01*
X6378318Y18271109D01*
X6372288Y18273794D01*
X6246572Y18300516D01*
X6191944Y18312128D01*
X6191939Y18312128D01*
X6185487Y18313500D01*
X5994513Y18313500D01*
X5988061Y18312128D01*
X5988056Y18312128D01*
X5933428Y18300516D01*
X5807712Y18273794D01*
X5801682Y18271109D01*
X5801681Y18271109D01*
X5639278Y18198803D01*
X5639276Y18198802D01*
X5633248Y18196118D01*
X5627907Y18192238D01*
X5627906Y18192237D01*
X5548974Y18134889D01*
X5482107Y18111031D01*
X5412955Y18127111D01*
X5363475Y18178025D01*
X5349375Y18247607D01*
X5372978Y18310887D01*
X5374621Y18313148D01*
X5379040Y18318056D01*
X5382339Y18323769D01*
X5382342Y18323774D01*
X5417602Y18384846D01*
X17527126Y18384846D01*
X17539385Y18172232D01*
X17540821Y18162012D01*
X17587641Y17954263D01*
X17590721Y17944434D01*
X17651968Y17793596D01*
X17660740Y17782554D01*
X17669769Y17784792D01*
X18519633Y18402254D01*
X18529331Y18414831D01*
X18529488Y18416665D01*
X18526325Y18423862D01*
X17910036Y19272111D01*
X17899507Y19280230D01*
X17886049Y19272808D01*
X17833666Y19217992D01*
X17827180Y19209982D01*
X17707174Y19034060D01*
X17702076Y19025086D01*
X17612414Y18831926D01*
X17608851Y18822239D01*
X17551940Y18617028D01*
X17550009Y18606909D01*
X17527378Y18395135D01*
X17527126Y18384846D01*
X5417602Y18384846D01*
X5471223Y18477721D01*
X5471224Y18477722D01*
X5474527Y18483444D01*
X5533542Y18665072D01*
X5535031Y18679234D01*
X5552814Y18848435D01*
X5553504Y18855000D01*
X5551155Y18877350D01*
X5534232Y19038365D01*
X5534232Y19038367D01*
X5533542Y19044928D01*
X5474527Y19226556D01*
X5379040Y19391944D01*
X5305863Y19473215D01*
X5275147Y19537221D01*
X5273500Y19557524D01*
X5273500Y19584877D01*
X18315746Y19584877D01*
X18320512Y19571401D01*
X18934621Y18726152D01*
X18947198Y18716454D01*
X18949032Y18716297D01*
X18956229Y18719460D01*
X19807816Y19338174D01*
X19816845Y19349883D01*
X19812923Y19357619D01*
X19647215Y19488487D01*
X19638628Y19494192D01*
X19452193Y19597110D01*
X19442781Y19601340D01*
X19242035Y19672429D01*
X19232065Y19675063D01*
X19022403Y19712408D01*
X19012149Y19713378D01*
X18799192Y19715981D01*
X18788908Y19715261D01*
X18578397Y19683048D01*
X18568369Y19680659D01*
X18365944Y19614497D01*
X18356435Y19610500D01*
X18325830Y19594568D01*
X18315746Y19584877D01*
X5273500Y19584877D01*
X5273500Y22204883D01*
X11652358Y22204883D01*
X11661556Y22200191D01*
X11662881Y22200033D01*
X11875701Y22192229D01*
X11885987Y22192696D01*
X12097236Y22219757D01*
X12107313Y22221899D01*
X12311306Y22283100D01*
X12320893Y22286858D01*
X12512146Y22380552D01*
X12520996Y22385827D01*
X12694379Y22509499D01*
X12702251Y22516152D01*
X12853103Y22666479D01*
X12859781Y22674326D01*
X12984054Y22847270D01*
X12989363Y22856106D01*
X13002568Y22882825D01*
X13004994Y22896670D01*
X12993301Y22904683D01*
X11999360Y23227633D01*
X11983481Y23228087D01*
X11981906Y23227137D01*
X11977942Y23220347D01*
X11652779Y22219596D01*
X11652358Y22204883D01*
X5273500Y22204883D01*
X5273500Y22460819D01*
X5293502Y22528940D01*
X5310405Y22549914D01*
X6532233Y23771742D01*
X6594545Y23805768D01*
X6646446Y23806118D01*
X6826281Y23769530D01*
X6831456Y23769340D01*
X6831458Y23769340D01*
X7044357Y23761533D01*
X7044361Y23761533D01*
X7049521Y23761344D01*
X7054641Y23762000D01*
X7054643Y23762000D01*
X7265972Y23789072D01*
X7265973Y23789072D01*
X7271100Y23789729D01*
X7319704Y23804311D01*
X7480113Y23852436D01*
X7480118Y23852438D01*
X7485068Y23853923D01*
X7685678Y23952201D01*
X7867544Y24081924D01*
X7871202Y24085569D01*
X7875158Y24088912D01*
X7876174Y24087709D01*
X7932338Y24118240D01*
X8003144Y24113043D01*
X8059900Y24070390D01*
X8081807Y24022771D01*
X8102589Y23930555D01*
X8146207Y23823136D01*
X8184329Y23729253D01*
X8186633Y23723578D01*
X8229884Y23652999D01*
X8290985Y23553291D01*
X8303354Y23533106D01*
X8449617Y23364256D01*
X8561853Y23271076D01*
X8612397Y23229114D01*
X8621493Y23221562D01*
X8814367Y23108856D01*
X8819192Y23107014D01*
X8819193Y23107013D01*
X8891979Y23079219D01*
X9023059Y23029164D01*
X9028127Y23028133D01*
X9028130Y23028132D01*
X9135384Y23006311D01*
X9241964Y22984627D01*
X9247139Y22984437D01*
X9247141Y22984437D01*
X9460040Y22976630D01*
X9460044Y22976630D01*
X9465204Y22976441D01*
X9470324Y22977097D01*
X9470326Y22977097D01*
X9681655Y23004169D01*
X9681656Y23004169D01*
X9686783Y23004826D01*
X9691733Y23006311D01*
X9895796Y23067533D01*
X9895801Y23067535D01*
X9900751Y23069020D01*
X10101361Y23167298D01*
X10283227Y23297021D01*
X10286885Y23300666D01*
X10290841Y23304009D01*
X10291752Y23302931D01*
X10348405Y23333749D01*
X10419213Y23328571D01*
X10475981Y23285934D01*
X10497909Y23238287D01*
X10517616Y23150845D01*
X10520696Y23141016D01*
X10600821Y22943688D01*
X10605464Y22934497D01*
X10716745Y22752903D01*
X10722828Y22744592D01*
X10862264Y22583624D01*
X10869631Y22576408D01*
X11033485Y22440375D01*
X11041932Y22434460D01*
X11149429Y22371644D01*
X11163116Y22368248D01*
X11169577Y22376376D01*
X11551980Y23553291D01*
X11605406Y23717721D01*
X12144255Y23717721D01*
X12145205Y23716146D01*
X12151995Y23712183D01*
X13149138Y23388192D01*
X13162353Y23387814D01*
X13168904Y23401847D01*
X13179641Y23483404D01*
X13180160Y23490079D01*
X13181623Y23549927D01*
X13181429Y23556645D01*
X13163832Y23770687D01*
X13162147Y23780867D01*
X13110265Y23987416D01*
X13106945Y23997167D01*
X13022023Y24192477D01*
X13017156Y24201552D01*
X12901477Y24380365D01*
X12895187Y24388534D01*
X12751857Y24546051D01*
X12744324Y24553076D01*
X12577186Y24685073D01*
X12568613Y24690769D01*
X12488740Y24734861D01*
X12475991Y24737696D01*
X12466812Y24724932D01*
X12144709Y23733600D01*
X12144255Y23717721D01*
X11605406Y23717721D01*
X11984680Y24885008D01*
X11985086Y24899210D01*
X11972599Y24905388D01*
X11952375Y24908991D01*
X11942125Y24909960D01*
X11729167Y24912563D01*
X11718883Y24911843D01*
X11508372Y24879630D01*
X11498344Y24877241D01*
X11295919Y24811079D01*
X11286410Y24807082D01*
X11097514Y24708749D01*
X11088789Y24703255D01*
X10923816Y24579389D01*
X10857331Y24554483D01*
X10787936Y24569475D01*
X10737662Y24619606D01*
X10725959Y24649454D01*
X10711065Y24708749D01*
X10693798Y24777492D01*
X10604721Y24982354D01*
X10483381Y25169917D01*
X10333037Y25335143D01*
X10328986Y25338342D01*
X10328982Y25338346D01*
X10161781Y25470394D01*
X10161777Y25470396D01*
X10157726Y25473596D01*
X9962156Y25581556D01*
X9957287Y25583280D01*
X9957283Y25583282D01*
X9756454Y25654399D01*
X9756450Y25654400D01*
X9751579Y25656125D01*
X9746486Y25657032D01*
X9746483Y25657033D01*
X9536740Y25694394D01*
X9536734Y25694395D01*
X9531651Y25695300D01*
X9457819Y25696202D01*
X9313448Y25697966D01*
X9313446Y25697966D01*
X9308278Y25698029D01*
X9087458Y25664239D01*
X8875123Y25594837D01*
X8676974Y25491687D01*
X8672841Y25488584D01*
X8672838Y25488582D01*
X8508001Y25364819D01*
X8441516Y25339913D01*
X8372120Y25354905D01*
X8321847Y25405036D01*
X8310144Y25434883D01*
X8299599Y25476863D01*
X8278115Y25562395D01*
X8189038Y25767257D01*
X8067698Y25954820D01*
X7917354Y26120046D01*
X7913303Y26123245D01*
X7913299Y26123249D01*
X7746098Y26255297D01*
X7746094Y26255299D01*
X7742043Y26258499D01*
X7546473Y26366459D01*
X7541604Y26368183D01*
X7541600Y26368185D01*
X7340771Y26439302D01*
X7340767Y26439303D01*
X7335896Y26441028D01*
X7330803Y26441935D01*
X7330800Y26441936D01*
X7121057Y26479297D01*
X7121051Y26479298D01*
X7115968Y26480203D01*
X7042136Y26481105D01*
X6897765Y26482869D01*
X6897763Y26482869D01*
X6892595Y26482932D01*
X6671775Y26449142D01*
X6459440Y26379740D01*
X6387667Y26342377D01*
X6337556Y26316291D01*
X6267897Y26302578D01*
X6201882Y26328703D01*
X6160470Y26386371D01*
X6153501Y26422447D01*
X6150928Y26480203D01*
X6147859Y26549116D01*
X6100798Y26686962D01*
X6016941Y26806058D01*
X5972413Y26841541D01*
X5909202Y26891912D01*
X5909199Y26891914D01*
X5903027Y26896832D01*
X5845976Y26922472D01*
X4137623Y27477549D01*
X4134293Y27478245D01*
X4134288Y27478246D01*
X4084134Y27488724D01*
X4084131Y27488724D01*
X4076397Y27490340D01*
X3930884Y27483859D01*
X3922390Y27480959D01*
X3922389Y27480959D01*
X3801532Y27439698D01*
X3793038Y27436798D01*
X3785700Y27431631D01*
X3681284Y27358111D01*
X3681282Y27358109D01*
X3673942Y27352941D01*
X3668346Y27345918D01*
X3588088Y27245202D01*
X3588086Y27245199D01*
X3583168Y27239027D01*
X3557528Y27181976D01*
X3002451Y25473623D01*
X3001755Y25470293D01*
X3001754Y25470288D01*
X2994358Y25434883D01*
X2989660Y25412397D01*
X-2989660Y25412397D01*
X-2994357Y25434883D01*
X-3001754Y25470288D01*
X-3001755Y25470293D01*
X-3002451Y25473623D01*
X-3557528Y27181976D01*
X-3583168Y27239027D01*
X-3588086Y27245199D01*
X-3588088Y27245202D01*
X-3668346Y27345918D01*
X-3673942Y27352941D01*
X-3681282Y27358109D01*
X-3681284Y27358111D01*
X-3785700Y27431631D01*
X-3793038Y27436798D01*
X-3801532Y27439698D01*
X-3922389Y27480959D01*
X-3922390Y27480959D01*
X-3930884Y27483859D01*
X-4076397Y27490340D01*
X-4084131Y27488724D01*
X-4084134Y27488724D01*
X-4134288Y27478246D01*
X-4134293Y27478245D01*
X-4137623Y27477549D01*
X-5845976Y26922472D01*
X-5903027Y26896832D01*
X-5909199Y26891914D01*
X-5909202Y26891912D01*
X-5972413Y26841541D01*
X-6016941Y26806058D01*
X-6100798Y26686962D01*
X-6147859Y26549116D01*
X-6150928Y26480203D01*
X-6153510Y26422242D01*
X-6176523Y26355079D01*
X-6232194Y26311020D01*
X-6302848Y26304053D01*
X-6340278Y26317540D01*
X-6360500Y26328703D01*
X-6428895Y26366459D01*
X-6433764Y26368183D01*
X-6433768Y26368185D01*
X-6634597Y26439302D01*
X-6634601Y26439303D01*
X-6639472Y26441028D01*
X-6644565Y26441935D01*
X-6644568Y26441936D01*
X-6854311Y26479297D01*
X-6854317Y26479298D01*
X-6859400Y26480203D01*
X-6933232Y26481105D01*
X-7077603Y26482869D01*
X-7077605Y26482869D01*
X-7082773Y26482932D01*
X-7303593Y26449142D01*
X-7515928Y26379740D01*
X-7714077Y26276590D01*
X-7718210Y26273487D01*
X-7718213Y26273485D01*
X-7742437Y26255297D01*
X-7892719Y26142462D01*
X-8047055Y25980959D01*
X-8172941Y25796417D01*
X-8266996Y25593792D01*
X-8296174Y25488582D01*
X-8312296Y25430448D01*
X-8349775Y25370151D01*
X-8413904Y25339688D01*
X-8484322Y25348732D01*
X-8511805Y25365239D01*
X-8644953Y25470394D01*
X-8644957Y25470396D01*
X-8649008Y25473596D01*
X-8844578Y25581556D01*
X-8849447Y25583280D01*
X-8849451Y25583282D01*
X-9050280Y25654399D01*
X-9050284Y25654400D01*
X-9055155Y25656125D01*
X-9060248Y25657032D01*
X-9060251Y25657033D01*
X-9269994Y25694394D01*
X-9270000Y25694395D01*
X-9275083Y25695300D01*
X-9348915Y25696202D01*
X-9493286Y25697966D01*
X-9493288Y25697966D01*
X-9498456Y25698029D01*
X-9719276Y25664239D01*
X-9931611Y25594837D01*
X-10129760Y25491687D01*
X-10133893Y25488584D01*
X-10133896Y25488582D01*
X-10298733Y25364819D01*
X-10308402Y25357559D01*
X-10462738Y25196056D01*
X-10588624Y25011514D01*
X-10634555Y24912563D01*
X-10664756Y24847500D01*
X-10682679Y24808889D01*
X-10707964Y24717715D01*
X-10728124Y24645022D01*
X-10765603Y24584724D01*
X-10829732Y24554261D01*
X-10900150Y24563305D01*
X-10927633Y24579812D01*
X-11060912Y24685069D01*
X-11069499Y24690774D01*
X-11255934Y24793692D01*
X-11265346Y24797922D01*
X-11466092Y24869011D01*
X-11476062Y24871645D01*
X-11685724Y24908990D01*
X-11695978Y24909960D01*
X-11908935Y24912563D01*
X-11919220Y24911843D01*
X-11971979Y24903770D01*
X-11984371Y24897975D01*
X-14499798Y24897975D01*
X-9948545Y28261945D01*
X-9914674Y28279754D01*
X-9263779Y28503875D01*
X-9259596Y28505234D01*
X-9049412Y28569494D01*
X-9012573Y28575000D01*
X9012573Y28575000D01*
X9049412Y28569494D01*
G37*
%TD.AperFunction*%
%TD*%
M02*
