%TF.GenerationSoftware,KiCad,Pcbnew,6.0.11+dfsg-1~bpo11+1*%
%TF.CreationDate,2023-02-26T17:05:11+01:00*%
%TF.ProjectId,ultrasonic_board,756c7472-6173-46f6-9e69-635f626f6172,rev?*%
%TF.SameCoordinates,PX8b48bd0PY4eb9cf0*%
%TF.FileFunction,Legend,Top*%
%TF.FilePolarity,Positive*%
%FSLAX46Y46*%
G04 Gerber Fmt 4.6, Leading zero omitted, Abs format (unit mm)*
G04 Created by KiCad (PCBNEW 6.0.11+dfsg-1~bpo11+1) date 2023-02-26 17:05:11*
%MOMM*%
%LPD*%
G01*
G04 APERTURE LIST*
%ADD10C,0.150000*%
%ADD11C,0.120000*%
G04 APERTURE END LIST*
D10*
X-19367524Y-13168380D02*
X-19558000Y-13168380D01*
X-19653239Y-13216000D01*
X-19700858Y-13263619D01*
X-19796096Y-13406476D01*
X-19843715Y-13596952D01*
X-19843715Y-13977904D01*
X-19796096Y-14073142D01*
X-19748477Y-14120761D01*
X-19653239Y-14168380D01*
X-19462762Y-14168380D01*
X-19367524Y-14120761D01*
X-19319905Y-14073142D01*
X-19272286Y-13977904D01*
X-19272286Y-13739809D01*
X-19319905Y-13644571D01*
X-19367524Y-13596952D01*
X-19462762Y-13549333D01*
X-19653239Y-13549333D01*
X-19748477Y-13596952D01*
X-19796096Y-13644571D01*
X-19843715Y-13739809D01*
X19335714Y13263620D02*
X18764285Y13263620D01*
X19050000Y13263620D02*
X19050000Y14263620D01*
X18954761Y14120762D01*
X18859523Y14025524D01*
X18764285Y13977905D01*
X7270761Y-22232952D02*
X7175523Y-22185333D01*
X7127904Y-22137714D01*
X7080285Y-22042476D01*
X7080285Y-21994857D01*
X7127904Y-21899619D01*
X7175523Y-21852000D01*
X7270761Y-21804380D01*
X7461238Y-21804380D01*
X7556476Y-21852000D01*
X7604095Y-21899619D01*
X7651714Y-21994857D01*
X7651714Y-22042476D01*
X7604095Y-22137714D01*
X7556476Y-22185333D01*
X7461238Y-22232952D01*
X7270761Y-22232952D01*
X7175523Y-22280571D01*
X7127904Y-22328190D01*
X7080285Y-22423428D01*
X7080285Y-22613904D01*
X7127904Y-22709142D01*
X7175523Y-22756761D01*
X7270761Y-22804380D01*
X7461238Y-22804380D01*
X7556476Y-22756761D01*
X7604095Y-22709142D01*
X7651714Y-22613904D01*
X7651714Y-22423428D01*
X7604095Y-22328190D01*
X7556476Y-22280571D01*
X7461238Y-22232952D01*
X-7945239Y5389620D02*
X-8278572Y5865810D01*
X-8516667Y5389620D02*
X-8516667Y6389620D01*
X-8135715Y6389620D01*
X-8040477Y6342000D01*
X-7992858Y6294381D01*
X-7945239Y6199143D01*
X-7945239Y6056286D01*
X-7992858Y5961048D01*
X-8040477Y5913429D01*
X-8135715Y5865810D01*
X-8516667Y5865810D01*
X-7564286Y5437239D02*
X-7421429Y5389620D01*
X-7183334Y5389620D01*
X-7088096Y5437239D01*
X-7040477Y5484858D01*
X-6992858Y5580096D01*
X-6992858Y5675334D01*
X-7040477Y5770572D01*
X-7088096Y5818191D01*
X-7183334Y5865810D01*
X-7373810Y5913429D01*
X-7469048Y5961048D01*
X-7516667Y6008667D01*
X-7564286Y6103905D01*
X-7564286Y6199143D01*
X-7516667Y6294381D01*
X-7469048Y6342000D01*
X-7373810Y6389620D01*
X-7135715Y6389620D01*
X-6992858Y6342000D01*
X-6135715Y6056286D02*
X-6135715Y5389620D01*
X-6373810Y6437239D02*
X-6611905Y5722953D01*
X-5992858Y5722953D01*
X-5469048Y5961048D02*
X-5564286Y6008667D01*
X-5611905Y6056286D01*
X-5659524Y6151524D01*
X-5659524Y6199143D01*
X-5611905Y6294381D01*
X-5564286Y6342000D01*
X-5469048Y6389620D01*
X-5278572Y6389620D01*
X-5183334Y6342000D01*
X-5135715Y6294381D01*
X-5088096Y6199143D01*
X-5088096Y6151524D01*
X-5135715Y6056286D01*
X-5183334Y6008667D01*
X-5278572Y5961048D01*
X-5469048Y5961048D01*
X-5564286Y5913429D01*
X-5611905Y5865810D01*
X-5659524Y5770572D01*
X-5659524Y5580096D01*
X-5611905Y5484858D01*
X-5564286Y5437239D01*
X-5469048Y5389620D01*
X-5278572Y5389620D01*
X-5183334Y5437239D01*
X-5135715Y5484858D01*
X-5088096Y5580096D01*
X-5088096Y5770572D01*
X-5135715Y5865810D01*
X-5183334Y5913429D01*
X-5278572Y5961048D01*
X-4183334Y6389620D02*
X-4659524Y6389620D01*
X-4707143Y5913429D01*
X-4659524Y5961048D01*
X-4564286Y6008667D01*
X-4326191Y6008667D01*
X-4230953Y5961048D01*
X-4183334Y5913429D01*
X-4135715Y5818191D01*
X-4135715Y5580096D01*
X-4183334Y5484858D01*
X-4230953Y5437239D01*
X-4326191Y5389620D01*
X-4564286Y5389620D01*
X-4659524Y5437239D01*
X-4707143Y5484858D01*
X18605523Y-14676380D02*
X18796000Y-14676380D01*
X18891238Y-14628761D01*
X18938857Y-14581142D01*
X19034095Y-14438285D01*
X19081714Y-14247809D01*
X19081714Y-13866857D01*
X19034095Y-13771619D01*
X18986476Y-13724000D01*
X18891238Y-13676380D01*
X18700761Y-13676380D01*
X18605523Y-13724000D01*
X18557904Y-13771619D01*
X18510285Y-13866857D01*
X18510285Y-14104952D01*
X18557904Y-14200190D01*
X18605523Y-14247809D01*
X18700761Y-14295428D01*
X18891238Y-14295428D01*
X18986476Y-14247809D01*
X19034095Y-14200190D01*
X19081714Y-14104952D01*
X5119809Y5389620D02*
X5119809Y6389620D01*
X5548380Y6294381D02*
X5596000Y6342000D01*
X5691238Y6389620D01*
X5929333Y6389620D01*
X6024571Y6342000D01*
X6072190Y6294381D01*
X6119809Y6199143D01*
X6119809Y6103905D01*
X6072190Y5961048D01*
X5500761Y5389620D01*
X6119809Y5389620D01*
X7119809Y5484858D02*
X7072190Y5437239D01*
X6929333Y5389620D01*
X6834095Y5389620D01*
X6691238Y5437239D01*
X6596000Y5532477D01*
X6548380Y5627715D01*
X6500761Y5818191D01*
X6500761Y5961048D01*
X6548380Y6151524D01*
X6596000Y6246762D01*
X6691238Y6342000D01*
X6834095Y6389620D01*
X6929333Y6389620D01*
X7072190Y6342000D01*
X7119809Y6294381D01*
X7080285Y22550381D02*
X7127904Y22598000D01*
X7223142Y22645620D01*
X7461238Y22645620D01*
X7556476Y22598000D01*
X7604095Y22550381D01*
X7651714Y22455143D01*
X7651714Y22359905D01*
X7604095Y22217048D01*
X7032666Y21645620D01*
X7651714Y21645620D01*
X23320380Y293620D02*
X23415619Y293620D01*
X23510857Y246000D01*
X23558476Y198381D01*
X23606095Y103143D01*
X23653714Y-87333D01*
X23653714Y-325428D01*
X23606095Y-515904D01*
X23558476Y-611142D01*
X23510857Y-658761D01*
X23415619Y-706380D01*
X23320380Y-706380D01*
X23225142Y-658761D01*
X23177523Y-611142D01*
X23129904Y-515904D01*
X23082285Y-325428D01*
X23082285Y-87333D01*
X23129904Y103143D01*
X23177523Y198381D01*
X23225142Y246000D01*
X23320380Y293620D01*
X-18859524Y13930286D02*
X-18859524Y13263620D01*
X-19097620Y14311239D02*
X-19335715Y13596953D01*
X-18716667Y13596953D01*
X1849619Y-21534380D02*
X1516285Y-21058190D01*
X1278190Y-21534380D02*
X1278190Y-20534380D01*
X1659142Y-20534380D01*
X1754380Y-20582000D01*
X1802000Y-20629619D01*
X1849619Y-20724857D01*
X1849619Y-20867714D01*
X1802000Y-20962952D01*
X1754380Y-21010571D01*
X1659142Y-21058190D01*
X1278190Y-21058190D01*
X2278190Y-21010571D02*
X2611523Y-21010571D01*
X2754380Y-21534380D02*
X2278190Y-21534380D01*
X2278190Y-20534380D01*
X2754380Y-20534380D01*
X3135333Y-21486761D02*
X3278190Y-21534380D01*
X3516285Y-21534380D01*
X3611523Y-21486761D01*
X3659142Y-21439142D01*
X3706761Y-21343904D01*
X3706761Y-21248666D01*
X3659142Y-21153428D01*
X3611523Y-21105809D01*
X3516285Y-21058190D01*
X3325809Y-21010571D01*
X3230571Y-20962952D01*
X3182952Y-20915333D01*
X3135333Y-20820095D01*
X3135333Y-20724857D01*
X3182952Y-20629619D01*
X3230571Y-20582000D01*
X3325809Y-20534380D01*
X3563904Y-20534380D01*
X3706761Y-20582000D01*
X4135333Y-21010571D02*
X4468666Y-21010571D01*
X4611523Y-21534380D02*
X4135333Y-21534380D01*
X4135333Y-20534380D01*
X4611523Y-20534380D01*
X4897238Y-20534380D02*
X5468666Y-20534380D01*
X5182952Y-21534380D02*
X5182952Y-20534380D01*
X-1142858Y6389620D02*
X-1142858Y6151524D01*
X-1380953Y6246762D02*
X-1142858Y6151524D01*
X-904762Y6246762D01*
X-1285715Y5961048D02*
X-1142858Y6151524D01*
X-1000000Y5961048D01*
X-380953Y5389620D02*
X-476191Y5437239D01*
X-523810Y5484858D01*
X-571429Y5580096D01*
X-571429Y5865810D01*
X-523810Y5961048D01*
X-476191Y6008667D01*
X-380953Y6056286D01*
X-238096Y6056286D01*
X-142858Y6008667D01*
X-95239Y5961048D01*
X-47620Y5865810D01*
X-47620Y5580096D01*
X-95239Y5484858D01*
X-142858Y5437239D01*
X-238096Y5389620D01*
X-380953Y5389620D01*
X380952Y5389620D02*
X380952Y6056286D01*
X380952Y5865810D02*
X428571Y5961048D01*
X476190Y6008667D01*
X571428Y6056286D01*
X666666Y6056286D01*
X1142857Y6389620D02*
X1142857Y6151524D01*
X904761Y6246762D02*
X1142857Y6151524D01*
X1380952Y6246762D01*
X1000000Y5961048D02*
X1142857Y6151524D01*
X1285714Y5961048D01*
X-7953334Y22899620D02*
X-7334286Y22899620D01*
X-7667620Y22518667D01*
X-7524762Y22518667D01*
X-7429524Y22471048D01*
X-7381905Y22423429D01*
X-7334286Y22328191D01*
X-7334286Y22090096D01*
X-7381905Y21994858D01*
X-7429524Y21947239D01*
X-7524762Y21899620D01*
X-7810477Y21899620D01*
X-7905715Y21947239D01*
X-7953334Y21994858D01*
X-23383905Y547620D02*
X-23860096Y547620D01*
X-23907715Y71429D01*
X-23860096Y119048D01*
X-23764858Y166667D01*
X-23526762Y166667D01*
X-23431524Y119048D01*
X-23383905Y71429D01*
X-23336286Y-23809D01*
X-23336286Y-261904D01*
X-23383905Y-357142D01*
X-23431524Y-404761D01*
X-23526762Y-452380D01*
X-23764858Y-452380D01*
X-23860096Y-404761D01*
X-23907715Y-357142D01*
X3127714Y-11628380D02*
X2651523Y-11628380D01*
X2651523Y-10628380D01*
X3461047Y-11104571D02*
X3794380Y-11104571D01*
X3937238Y-11628380D02*
X3461047Y-11628380D01*
X3461047Y-10628380D01*
X3937238Y-10628380D01*
X4365809Y-11628380D02*
X4365809Y-10628380D01*
X4603904Y-10628380D01*
X4746761Y-10676000D01*
X4842000Y-10771238D01*
X4889619Y-10866476D01*
X4937238Y-11056952D01*
X4937238Y-11199809D01*
X4889619Y-11390285D01*
X4842000Y-11485523D01*
X4746761Y-11580761D01*
X4603904Y-11628380D01*
X4365809Y-11628380D01*
X6080095Y-11580761D02*
X6175333Y-11628380D01*
X6365809Y-11628380D01*
X6461047Y-11580761D01*
X6508666Y-11485523D01*
X6508666Y-11437904D01*
X6461047Y-11342666D01*
X6365809Y-11295047D01*
X6222952Y-11295047D01*
X6127714Y-11247428D01*
X6080095Y-11152190D01*
X6080095Y-11104571D01*
X6127714Y-11009333D01*
X6222952Y-10961714D01*
X6365809Y-10961714D01*
X6461047Y-11009333D01*
X6794380Y-10961714D02*
X7175333Y-10961714D01*
X6937238Y-10628380D02*
X6937238Y-11485523D01*
X6984857Y-11580761D01*
X7080095Y-11628380D01*
X7175333Y-11628380D01*
X7508666Y-11628380D02*
X7508666Y-10961714D01*
X7508666Y-11152190D02*
X7556285Y-11056952D01*
X7603904Y-11009333D01*
X7699142Y-10961714D01*
X7794380Y-10961714D01*
X8127714Y-11628380D02*
X8127714Y-10961714D01*
X8127714Y-10628380D02*
X8080095Y-10676000D01*
X8127714Y-10723619D01*
X8175333Y-10676000D01*
X8127714Y-10628380D01*
X8127714Y-10723619D01*
X8603904Y-10961714D02*
X8603904Y-11961714D01*
X8603904Y-11009333D02*
X8699142Y-10961714D01*
X8889619Y-10961714D01*
X8984857Y-11009333D01*
X9032476Y-11056952D01*
X9080095Y-11152190D01*
X9080095Y-11437904D01*
X9032476Y-11533142D01*
X8984857Y-11580761D01*
X8889619Y-11628380D01*
X8699142Y-11628380D01*
X8603904Y-11580761D01*
X15649380Y-10587333D02*
X15649380Y-11063523D01*
X14649380Y-11063523D01*
X15601761Y-9873047D02*
X15649380Y-9968285D01*
X15649380Y-10158761D01*
X15601761Y-10254000D01*
X15506523Y-10301619D01*
X15125571Y-10301619D01*
X15030333Y-10254000D01*
X14982714Y-10158761D01*
X14982714Y-9968285D01*
X15030333Y-9873047D01*
X15125571Y-9825428D01*
X15220809Y-9825428D01*
X15316047Y-10301619D01*
X15601761Y-9444476D02*
X15649380Y-9349238D01*
X15649380Y-9158761D01*
X15601761Y-9063523D01*
X15506523Y-9015904D01*
X15458904Y-9015904D01*
X15363666Y-9063523D01*
X15316047Y-9158761D01*
X15316047Y-9301619D01*
X15268428Y-9396857D01*
X15173190Y-9444476D01*
X15125571Y-9444476D01*
X15030333Y-9396857D01*
X14982714Y-9301619D01*
X14982714Y-9158761D01*
X15030333Y-9063523D01*
X15125571Y-7825428D02*
X15125571Y-7492095D01*
X15649380Y-7349238D02*
X15649380Y-7825428D01*
X14649380Y-7825428D01*
X14649380Y-7349238D01*
X15554142Y-6920666D02*
X15601761Y-6873047D01*
X15649380Y-6920666D01*
X15601761Y-6968285D01*
X15554142Y-6920666D01*
X15649380Y-6920666D01*
X15601761Y-6492095D02*
X15649380Y-6349238D01*
X15649380Y-6111142D01*
X15601761Y-6015904D01*
X15554142Y-5968285D01*
X15458904Y-5920666D01*
X15363666Y-5920666D01*
X15268428Y-5968285D01*
X15220809Y-6015904D01*
X15173190Y-6111142D01*
X15125571Y-6301619D01*
X15077952Y-6396857D01*
X15030333Y-6444476D01*
X14935095Y-6492095D01*
X14839857Y-6492095D01*
X14744619Y-6444476D01*
X14697000Y-6396857D01*
X14649380Y-6301619D01*
X14649380Y-6063523D01*
X14697000Y-5920666D01*
X15554142Y-5492095D02*
X15601761Y-5444476D01*
X15649380Y-5492095D01*
X15601761Y-5539714D01*
X15554142Y-5492095D01*
X15649380Y-5492095D01*
X15554142Y-4444476D02*
X15601761Y-4492095D01*
X15649380Y-4634952D01*
X15649380Y-4730190D01*
X15601761Y-4873047D01*
X15506523Y-4968285D01*
X15411285Y-5015904D01*
X15220809Y-5063523D01*
X15077952Y-5063523D01*
X14887476Y-5015904D01*
X14792238Y-4968285D01*
X14697000Y-4873047D01*
X14649380Y-4730190D01*
X14649380Y-4634952D01*
X14697000Y-4492095D01*
X14744619Y-4444476D01*
X15554142Y-4015904D02*
X15601761Y-3968285D01*
X15649380Y-4015904D01*
X15601761Y-4063523D01*
X15554142Y-4015904D01*
X15649380Y-4015904D01*
X15649380Y-2968285D02*
X15173190Y-3301619D01*
X15649380Y-3539714D02*
X14649380Y-3539714D01*
X14649380Y-3158761D01*
X14697000Y-3063523D01*
X14744619Y-3015904D01*
X14839857Y-2968285D01*
X14982714Y-2968285D01*
X15077952Y-3015904D01*
X15125571Y-3063523D01*
X15173190Y-3158761D01*
X15173190Y-3539714D01*
X15649380Y-2396857D02*
X15601761Y-2492095D01*
X15554142Y-2539714D01*
X15458904Y-2587333D01*
X15173190Y-2587333D01*
X15077952Y-2539714D01*
X15030333Y-2492095D01*
X14982714Y-2396857D01*
X14982714Y-2254000D01*
X15030333Y-2158761D01*
X15077952Y-2111142D01*
X15173190Y-2063523D01*
X15458904Y-2063523D01*
X15554142Y-2111142D01*
X15601761Y-2158761D01*
X15649380Y-2254000D01*
X15649380Y-2396857D01*
X15554142Y-1634952D02*
X15601761Y-1587333D01*
X15649380Y-1634952D01*
X15601761Y-1682571D01*
X15554142Y-1634952D01*
X15649380Y-1634952D01*
X15554142Y-587333D02*
X15601761Y-634952D01*
X15649380Y-777809D01*
X15649380Y-873047D01*
X15601761Y-1015904D01*
X15506523Y-1111142D01*
X15411285Y-1158761D01*
X15220809Y-1206380D01*
X15077952Y-1206380D01*
X14887476Y-1158761D01*
X14792238Y-1111142D01*
X14697000Y-1015904D01*
X14649380Y-873047D01*
X14649380Y-777809D01*
X14697000Y-634952D01*
X14744619Y-587333D01*
X15554142Y-158761D02*
X15601761Y-111142D01*
X15649380Y-158761D01*
X15601761Y-206380D01*
X15554142Y-158761D01*
X15649380Y-158761D01*
X15601761Y269810D02*
X15649380Y412667D01*
X15649380Y650762D01*
X15601761Y746000D01*
X15554142Y793620D01*
X15458904Y841239D01*
X15363666Y841239D01*
X15268428Y793620D01*
X15220809Y746000D01*
X15173190Y650762D01*
X15125571Y460286D01*
X15077952Y365048D01*
X15030333Y317429D01*
X14935095Y269810D01*
X14839857Y269810D01*
X14744619Y317429D01*
X14697000Y365048D01*
X14649380Y460286D01*
X14649380Y698381D01*
X14697000Y841239D01*
X15268428Y2031715D02*
X15268428Y2793620D01*
X14649380Y4031715D02*
X15458904Y4031715D01*
X15554142Y4079334D01*
X15601761Y4126953D01*
X15649380Y4222191D01*
X15649380Y4412667D01*
X15601761Y4507905D01*
X15554142Y4555524D01*
X15458904Y4603143D01*
X14649380Y4603143D01*
X15601761Y5031715D02*
X15649380Y5174572D01*
X15649380Y5412667D01*
X15601761Y5507905D01*
X15554142Y5555524D01*
X15458904Y5603143D01*
X15363666Y5603143D01*
X15268428Y5555524D01*
X15220809Y5507905D01*
X15173190Y5412667D01*
X15125571Y5222191D01*
X15077952Y5126953D01*
X15030333Y5079334D01*
X14935095Y5031715D01*
X14839857Y5031715D01*
X14744619Y5079334D01*
X14697000Y5126953D01*
X14649380Y5222191D01*
X14649380Y5460286D01*
X14697000Y5603143D01*
X15649380Y6793620D02*
X14649380Y6793620D01*
X15030333Y6793620D02*
X14982714Y6888858D01*
X14982714Y7079334D01*
X15030333Y7174572D01*
X15077952Y7222191D01*
X15173190Y7269810D01*
X15458904Y7269810D01*
X15554142Y7222191D01*
X15601761Y7174572D01*
X15649380Y7079334D01*
X15649380Y6888858D01*
X15601761Y6793620D01*
X15649380Y7841239D02*
X15601761Y7746000D01*
X15554142Y7698381D01*
X15458904Y7650762D01*
X15173190Y7650762D01*
X15077952Y7698381D01*
X15030333Y7746000D01*
X14982714Y7841239D01*
X14982714Y7984096D01*
X15030333Y8079334D01*
X15077952Y8126953D01*
X15173190Y8174572D01*
X15458904Y8174572D01*
X15554142Y8126953D01*
X15601761Y8079334D01*
X15649380Y7984096D01*
X15649380Y7841239D01*
X15649380Y9031715D02*
X15125571Y9031715D01*
X15030333Y8984096D01*
X14982714Y8888858D01*
X14982714Y8698381D01*
X15030333Y8603143D01*
X15601761Y9031715D02*
X15649380Y8936477D01*
X15649380Y8698381D01*
X15601761Y8603143D01*
X15506523Y8555524D01*
X15411285Y8555524D01*
X15316047Y8603143D01*
X15268428Y8698381D01*
X15268428Y8936477D01*
X15220809Y9031715D01*
X15649380Y9507905D02*
X14982714Y9507905D01*
X15173190Y9507905D02*
X15077952Y9555524D01*
X15030333Y9603143D01*
X14982714Y9698381D01*
X14982714Y9793620D01*
X15649380Y10555524D02*
X14649380Y10555524D01*
X15601761Y10555524D02*
X15649380Y10460286D01*
X15649380Y10269810D01*
X15601761Y10174572D01*
X15554142Y10126953D01*
X15458904Y10079334D01*
X15173190Y10079334D01*
X15077952Y10126953D01*
X15030333Y10174572D01*
X14982714Y10269810D01*
X14982714Y10460286D01*
X15030333Y10555524D01*
X16354619Y-11373047D02*
X16307000Y-11325428D01*
X16259380Y-11230190D01*
X16259380Y-10992095D01*
X16307000Y-10896857D01*
X16354619Y-10849238D01*
X16449857Y-10801619D01*
X16545095Y-10801619D01*
X16687952Y-10849238D01*
X17259380Y-11420666D01*
X17259380Y-10801619D01*
X16259380Y-10182571D02*
X16259380Y-10087333D01*
X16307000Y-9992095D01*
X16354619Y-9944476D01*
X16449857Y-9896857D01*
X16640333Y-9849238D01*
X16878428Y-9849238D01*
X17068904Y-9896857D01*
X17164142Y-9944476D01*
X17211761Y-9992095D01*
X17259380Y-10087333D01*
X17259380Y-10182571D01*
X17211761Y-10277809D01*
X17164142Y-10325428D01*
X17068904Y-10373047D01*
X16878428Y-10420666D01*
X16640333Y-10420666D01*
X16449857Y-10373047D01*
X16354619Y-10325428D01*
X16307000Y-10277809D01*
X16259380Y-10182571D01*
X16354619Y-9468285D02*
X16307000Y-9420666D01*
X16259380Y-9325428D01*
X16259380Y-9087333D01*
X16307000Y-8992095D01*
X16354619Y-8944476D01*
X16449857Y-8896857D01*
X16545095Y-8896857D01*
X16687952Y-8944476D01*
X17259380Y-9515904D01*
X17259380Y-8896857D01*
X16259380Y-8563523D02*
X16259380Y-7944476D01*
X16640333Y-8277809D01*
X16640333Y-8134952D01*
X16687952Y-8039714D01*
X16735571Y-7992095D01*
X16830809Y-7944476D01*
X17068904Y-7944476D01*
X17164142Y-7992095D01*
X17211761Y-8039714D01*
X17259380Y-8134952D01*
X17259380Y-8420666D01*
X17211761Y-8515904D01*
X17164142Y-8563523D01*
X16259380Y-6896857D02*
X16259380Y-6325428D01*
X17259380Y-6611142D02*
X16259380Y-6611142D01*
X17259380Y-5992095D02*
X16259380Y-5992095D01*
X17259380Y-5563523D02*
X16735571Y-5563523D01*
X16640333Y-5611142D01*
X16592714Y-5706380D01*
X16592714Y-5849238D01*
X16640333Y-5944476D01*
X16687952Y-5992095D01*
X17211761Y-4706380D02*
X17259380Y-4801619D01*
X17259380Y-4992095D01*
X17211761Y-5087333D01*
X17116523Y-5134952D01*
X16735571Y-5134952D01*
X16640333Y-5087333D01*
X16592714Y-4992095D01*
X16592714Y-4801619D01*
X16640333Y-4706380D01*
X16735571Y-4658761D01*
X16830809Y-4658761D01*
X16926047Y-5134952D01*
X17164142Y-2896857D02*
X17211761Y-2944476D01*
X17259380Y-3087333D01*
X17259380Y-3182571D01*
X17211761Y-3325428D01*
X17116523Y-3420666D01*
X17021285Y-3468285D01*
X16830809Y-3515904D01*
X16687952Y-3515904D01*
X16497476Y-3468285D01*
X16402238Y-3420666D01*
X16307000Y-3325428D01*
X16259380Y-3182571D01*
X16259380Y-3087333D01*
X16307000Y-2944476D01*
X16354619Y-2896857D01*
X17259380Y-2468285D02*
X16259380Y-2468285D01*
X17259380Y-2039714D02*
X16735571Y-2039714D01*
X16640333Y-2087333D01*
X16592714Y-2182571D01*
X16592714Y-2325428D01*
X16640333Y-2420666D01*
X16687952Y-2468285D01*
X17211761Y-1182571D02*
X17259380Y-1277809D01*
X17259380Y-1468285D01*
X17211761Y-1563523D01*
X17116523Y-1611142D01*
X16735571Y-1611142D01*
X16640333Y-1563523D01*
X16592714Y-1468285D01*
X16592714Y-1277809D01*
X16640333Y-1182571D01*
X16735571Y-1134952D01*
X16830809Y-1134952D01*
X16926047Y-1611142D01*
X17259380Y-706380D02*
X16592714Y-706380D01*
X16783190Y-706380D02*
X16687952Y-658761D01*
X16640333Y-611142D01*
X16592714Y-515904D01*
X16592714Y-420666D01*
X17259380Y-87333D02*
X16592714Y-87333D01*
X16783190Y-87333D02*
X16687952Y-39714D01*
X16640333Y7905D01*
X16592714Y103143D01*
X16592714Y198381D01*
X16592714Y436477D02*
X17259380Y674572D01*
X16592714Y912667D02*
X17259380Y674572D01*
X17497476Y579334D01*
X17545095Y531715D01*
X17592714Y436477D01*
X17259380Y2198381D02*
X17211761Y2103143D01*
X17164142Y2055524D01*
X17068904Y2007905D01*
X16783190Y2007905D01*
X16687952Y2055524D01*
X16640333Y2103143D01*
X16592714Y2198381D01*
X16592714Y2341239D01*
X16640333Y2436477D01*
X16687952Y2484096D01*
X16783190Y2531715D01*
X17068904Y2531715D01*
X17164142Y2484096D01*
X17211761Y2436477D01*
X17259380Y2341239D01*
X17259380Y2198381D01*
X16592714Y2960286D02*
X17259380Y2960286D01*
X16687952Y2960286D02*
X16640333Y3007905D01*
X16592714Y3103143D01*
X16592714Y3246000D01*
X16640333Y3341239D01*
X16735571Y3388858D01*
X17259380Y3388858D01*
X16592714Y4484096D02*
X16592714Y4865048D01*
X16259380Y4626953D02*
X17116523Y4626953D01*
X17211761Y4674572D01*
X17259380Y4769810D01*
X17259380Y4865048D01*
X17259380Y5198381D02*
X16259380Y5198381D01*
X17259380Y5626953D02*
X16735571Y5626953D01*
X16640333Y5579334D01*
X16592714Y5484096D01*
X16592714Y5341239D01*
X16640333Y5246000D01*
X16687952Y5198381D01*
X17211761Y6484096D02*
X17259380Y6388858D01*
X17259380Y6198381D01*
X17211761Y6103143D01*
X17116523Y6055524D01*
X16735571Y6055524D01*
X16640333Y6103143D01*
X16592714Y6198381D01*
X16592714Y6388858D01*
X16640333Y6484096D01*
X16735571Y6531715D01*
X16830809Y6531715D01*
X16926047Y6055524D01*
X17164142Y8293620D02*
X17211761Y8246000D01*
X17259380Y8103143D01*
X17259380Y8007905D01*
X17211761Y7865048D01*
X17116523Y7769810D01*
X17021285Y7722191D01*
X16830809Y7674572D01*
X16687952Y7674572D01*
X16497476Y7722191D01*
X16402238Y7769810D01*
X16307000Y7865048D01*
X16259380Y8007905D01*
X16259380Y8103143D01*
X16307000Y8246000D01*
X16354619Y8293620D01*
X17259380Y9150762D02*
X16735571Y9150762D01*
X16640333Y9103143D01*
X16592714Y9007905D01*
X16592714Y8817429D01*
X16640333Y8722191D01*
X17211761Y9150762D02*
X17259380Y9055524D01*
X17259380Y8817429D01*
X17211761Y8722191D01*
X17116523Y8674572D01*
X17021285Y8674572D01*
X16926047Y8722191D01*
X16878428Y8817429D01*
X16878428Y9055524D01*
X16830809Y9150762D01*
X17259380Y9626953D02*
X16259380Y9626953D01*
X16878428Y9722191D02*
X17259380Y10007905D01*
X16592714Y10007905D02*
X16973666Y9626953D01*
X17211761Y10817429D02*
X17259380Y10722191D01*
X17259380Y10531715D01*
X17211761Y10436477D01*
X17116523Y10388858D01*
X16735571Y10388858D01*
X16640333Y10436477D01*
X16592714Y10531715D01*
X16592714Y10722191D01*
X16640333Y10817429D01*
X16735571Y10865048D01*
X16830809Y10865048D01*
X16926047Y10388858D01*
X-7953334Y-21804380D02*
X-7286667Y-21804380D01*
X-7715239Y-22804380D01*
D11*
%TO.C,C1*%
X-17145580Y12190000D02*
X-16864420Y12190000D01*
X-17145580Y13210000D02*
X-16864420Y13210000D01*
%TO.C,C2*%
X-14110580Y510000D02*
X-13829420Y510000D01*
X-14110580Y-510000D02*
X-13829420Y-510000D01*
%TO.C,C3*%
X-9909604Y-18058000D02*
X-9909604Y-20327000D01*
X-9629604Y-13928000D02*
X-9629604Y-15978000D01*
X-9469604Y-18058000D02*
X-9469604Y-19963000D01*
X-8309604Y-16070000D02*
X-8309604Y-17966000D01*
X-12270604Y-12938000D02*
X-12270604Y-21098000D01*
X-10069604Y-13600000D02*
X-10069604Y-15978000D01*
X-11149604Y-13104000D02*
X-11149604Y-15978000D01*
X-8589604Y-15287000D02*
X-8589604Y-18749000D01*
X-11509604Y-13016000D02*
X-11509604Y-21020000D01*
X-9469604Y-14073000D02*
X-9469604Y-15978000D01*
X-11349604Y-18058000D02*
X-11349604Y-20985000D01*
X-10789604Y-18058000D02*
X-10789604Y-20808000D01*
X-9709604Y-18058000D02*
X-9709604Y-20174000D01*
X-11109604Y-13116000D02*
X-11109604Y-15978000D01*
X-11029604Y-13141000D02*
X-11029604Y-15978000D01*
X-9029604Y-14564000D02*
X-9029604Y-19472000D01*
X-9669604Y-18058000D02*
X-9669604Y-20142000D01*
X-12310604Y-12938000D02*
X-12310604Y-21098000D01*
X-11229604Y-13082000D02*
X-11229604Y-15978000D01*
X-8509604Y-15466000D02*
X-8509604Y-18570000D01*
X-9229604Y-14321000D02*
X-9229604Y-19715000D01*
X-9069604Y-14513000D02*
X-9069604Y-19523000D01*
X-8469604Y-15565000D02*
X-8469604Y-18471000D01*
X-11870604Y-12961000D02*
X-11870604Y-21075000D01*
X-10149604Y-18058000D02*
X-10149604Y-20487000D01*
X-10029604Y-13626000D02*
X-10029604Y-15978000D01*
X-10429604Y-18058000D02*
X-10429604Y-20645000D01*
X-10909604Y-13183000D02*
X-10909604Y-15978000D01*
X-8669604Y-15128000D02*
X-8669604Y-18908000D01*
X-10509604Y-13352000D02*
X-10509604Y-15978000D01*
X-8749604Y-14984000D02*
X-8749604Y-19052000D01*
X-8829604Y-14852000D02*
X-8829604Y-19184000D01*
X-11029604Y-18058000D02*
X-11029604Y-20895000D01*
X-11830604Y-12966000D02*
X-11830604Y-21070000D01*
X-10669604Y-18058000D02*
X-10669604Y-20758000D01*
X-9989604Y-18058000D02*
X-9989604Y-20383000D01*
X-10549604Y-18058000D02*
X-10549604Y-20704000D01*
X-12230604Y-12938000D02*
X-12230604Y-21098000D01*
X-9109604Y-14462000D02*
X-9109604Y-19574000D01*
X-9389604Y-14151000D02*
X-9389604Y-15978000D01*
X-10029604Y-18058000D02*
X-10029604Y-20410000D01*
X-9829604Y-13768000D02*
X-9829604Y-15978000D01*
X-10189604Y-13525000D02*
X-10189604Y-15978000D01*
X-10749604Y-18058000D02*
X-10749604Y-20792000D01*
X-9749604Y-18058000D02*
X-9749604Y-20207000D01*
X-10989604Y-13155000D02*
X-10989604Y-15978000D01*
X-8629604Y-15205000D02*
X-8629604Y-18831000D01*
X-11389604Y-18058000D02*
X-11389604Y-20994000D01*
X-12150604Y-12941000D02*
X-12150604Y-21095000D01*
X-9389604Y-18058000D02*
X-9389604Y-19885000D01*
X-11549604Y-13008000D02*
X-11549604Y-21028000D01*
X-12110604Y-12942000D02*
X-12110604Y-21094000D01*
X-11750604Y-12976000D02*
X-11750604Y-21060000D01*
X-8989604Y-14618000D02*
X-8989604Y-19418000D01*
X-10349604Y-13434000D02*
X-10349604Y-15978000D01*
X-10229604Y-18058000D02*
X-10229604Y-20535000D01*
X-8869604Y-14790000D02*
X-8869604Y-19246000D01*
X-9309604Y-14234000D02*
X-9309604Y-19802000D01*
X-11790604Y-12970000D02*
X-11790604Y-21066000D01*
X-11910604Y-12957000D02*
X-11910604Y-21079000D01*
X-9629604Y-18058000D02*
X-9629604Y-20108000D01*
X-10549604Y-13332000D02*
X-10549604Y-15978000D01*
X-9509604Y-14035000D02*
X-9509604Y-15978000D01*
X-10389604Y-18058000D02*
X-10389604Y-20624000D01*
X-9949604Y-13680000D02*
X-9949604Y-15978000D01*
X-8429604Y-15672000D02*
X-8429604Y-18364000D01*
X-11670604Y-12988000D02*
X-11670604Y-21048000D01*
X-10629604Y-18058000D02*
X-10629604Y-20740000D01*
X-11429604Y-18058000D02*
X-11429604Y-21003000D01*
X-10709604Y-13261000D02*
X-10709604Y-15978000D01*
X-11149604Y-18058000D02*
X-11149604Y-20932000D01*
X-9789604Y-13798000D02*
X-9789604Y-15978000D01*
X-9589604Y-13963000D02*
X-9589604Y-15978000D01*
X-11469604Y-13024000D02*
X-11469604Y-21012000D01*
X-9589604Y-18058000D02*
X-9589604Y-20073000D01*
X-10109604Y-18058000D02*
X-10109604Y-20462000D01*
X-8949604Y-14673000D02*
X-8949604Y-19363000D01*
X-9669604Y-13894000D02*
X-9669604Y-15978000D01*
X-9709604Y-13862000D02*
X-9709604Y-15978000D01*
X-10429604Y-13391000D02*
X-10429604Y-15978000D01*
X-8269604Y-16250000D02*
X-8269604Y-17786000D01*
X-11950604Y-12953000D02*
X-11950604Y-21083000D01*
X-11589604Y-13001000D02*
X-11589604Y-21035000D01*
X-12070604Y-12944000D02*
X-12070604Y-21092000D01*
X-9949604Y-18058000D02*
X-9949604Y-20356000D01*
X-10109604Y-13574000D02*
X-10109604Y-15978000D01*
X-11269604Y-13071000D02*
X-11269604Y-15978000D01*
X-9829604Y-18058000D02*
X-9829604Y-20268000D01*
X-8789604Y-14916000D02*
X-8789604Y-19120000D01*
X-9149604Y-14414000D02*
X-9149604Y-19622000D01*
X-11309604Y-13061000D02*
X-11309604Y-15978000D01*
X-10269604Y-18058000D02*
X-10269604Y-20558000D01*
X-10069604Y-18058000D02*
X-10069604Y-20436000D01*
X-10629604Y-13296000D02*
X-10629604Y-15978000D01*
X-9189604Y-14367000D02*
X-9189604Y-19669000D01*
X-9909604Y-13709000D02*
X-9909604Y-15978000D01*
X-9789604Y-18058000D02*
X-9789604Y-20238000D01*
X-10269604Y-13478000D02*
X-10269604Y-15978000D01*
X-10829604Y-13213000D02*
X-10829604Y-15978000D01*
X-12030604Y-12947000D02*
X-12030604Y-21089000D01*
X-10749604Y-13244000D02*
X-10749604Y-15978000D01*
X-11990604Y-12950000D02*
X-11990604Y-21086000D01*
X-8709604Y-15054000D02*
X-8709604Y-18982000D01*
X-10469604Y-13371000D02*
X-10469604Y-15978000D01*
X-10909604Y-18058000D02*
X-10909604Y-20853000D01*
X-10189604Y-18058000D02*
X-10189604Y-20511000D01*
X-11710604Y-12981000D02*
X-11710604Y-21055000D01*
X-11189604Y-13093000D02*
X-11189604Y-15978000D01*
X-10309604Y-18058000D02*
X-10309604Y-20580000D01*
X-11069604Y-18058000D02*
X-11069604Y-20907000D01*
X-10589604Y-13314000D02*
X-10589604Y-15978000D01*
X-11269604Y-18058000D02*
X-11269604Y-20965000D01*
X-10229604Y-13501000D02*
X-10229604Y-15978000D01*
X-9749604Y-13829000D02*
X-9749604Y-15978000D01*
X-10869604Y-13197000D02*
X-10869604Y-15978000D01*
X-8389604Y-15789000D02*
X-8389604Y-18247000D01*
X-9269604Y-14277000D02*
X-9269604Y-19759000D01*
X-10469604Y-18058000D02*
X-10469604Y-20665000D01*
X-10149604Y-13549000D02*
X-10149604Y-15978000D01*
X-10389604Y-13412000D02*
X-10389604Y-15978000D01*
X-9429604Y-18058000D02*
X-9429604Y-19925000D01*
X-9509604Y-18058000D02*
X-9509604Y-20001000D01*
X-11630604Y-12994000D02*
X-11630604Y-21042000D01*
X-16320302Y-14303000D02*
X-16320302Y-15103000D01*
X-10589604Y-18058000D02*
X-10589604Y-20722000D01*
X-11309604Y-18058000D02*
X-11309604Y-20975000D01*
X-11069604Y-13129000D02*
X-11069604Y-15978000D01*
X-10669604Y-13278000D02*
X-10669604Y-15978000D01*
X-10309604Y-13456000D02*
X-10309604Y-15978000D01*
X-11429604Y-13033000D02*
X-11429604Y-15978000D01*
X-10869604Y-18058000D02*
X-10869604Y-20839000D01*
X-9549604Y-18058000D02*
X-9549604Y-20037000D01*
X-9349604Y-14192000D02*
X-9349604Y-19844000D01*
X-9429604Y-14111000D02*
X-9429604Y-15978000D01*
X-10949604Y-13168000D02*
X-10949604Y-15978000D01*
X-10989604Y-18058000D02*
X-10989604Y-20881000D01*
X-11349604Y-13051000D02*
X-11349604Y-15978000D01*
X-11189604Y-18058000D02*
X-11189604Y-20943000D01*
X-9989604Y-13653000D02*
X-9989604Y-15978000D01*
X-10789604Y-13228000D02*
X-10789604Y-15978000D01*
X-11389604Y-13042000D02*
X-11389604Y-15978000D01*
X-8549604Y-15373000D02*
X-8549604Y-18663000D01*
X-12190604Y-12939000D02*
X-12190604Y-21097000D01*
X-9549604Y-13999000D02*
X-9549604Y-15978000D01*
X-10349604Y-18058000D02*
X-10349604Y-20602000D01*
X-10509604Y-18058000D02*
X-10509604Y-20684000D01*
X-10709604Y-18058000D02*
X-10709604Y-20775000D01*
X-16720302Y-14703000D02*
X-15920302Y-14703000D01*
X-9869604Y-18058000D02*
X-9869604Y-20298000D01*
X-8349604Y-15920000D02*
X-8349604Y-18116000D01*
X-10949604Y-18058000D02*
X-10949604Y-20868000D01*
X-9869604Y-13738000D02*
X-9869604Y-15978000D01*
X-11229604Y-18058000D02*
X-11229604Y-20954000D01*
X-8229604Y-16485000D02*
X-8229604Y-17551000D01*
X-8909604Y-14731000D02*
X-8909604Y-19305000D01*
X-10829604Y-18058000D02*
X-10829604Y-20823000D01*
X-11109604Y-18058000D02*
X-11109604Y-20920000D01*
X-8190604Y-17018000D02*
G75*
G03*
X-8190604Y-17018000I-4120000J0D01*
G01*
%TO.C,C4*%
X-2680580Y-2665000D02*
X-2399420Y-2665000D01*
X-2680580Y-3685000D02*
X-2399420Y-3685000D01*
%TO.C,J1*%
X2375000Y-3955000D02*
X2375000Y-4555000D01*
X3425000Y-8445000D02*
X8005000Y-8445000D01*
X1505000Y-4985000D02*
X1505000Y-8985000D01*
X4915000Y-4555000D02*
X6515000Y-4555000D01*
X9055000Y-4555000D02*
X9055000Y-3955000D01*
X7455000Y-3955000D02*
X7455000Y-4555000D01*
X3175000Y-8975000D02*
X8255000Y-8975000D01*
X4915000Y-3955000D02*
X4915000Y-4555000D01*
X1795000Y-3955000D02*
X1795000Y-9975000D01*
X3975000Y-4555000D02*
X3975000Y-3955000D01*
X3175000Y-9975000D02*
X3175000Y-8975000D01*
X3425000Y-9975000D02*
X3425000Y-8975000D01*
X9635000Y-9975000D02*
X9635000Y-3955000D01*
X7455000Y-4555000D02*
X9055000Y-4555000D01*
X8255000Y-8975000D02*
X8255000Y-9975000D01*
X6515000Y-4555000D02*
X6515000Y-3955000D01*
X8005000Y-9975000D02*
X8005000Y-8975000D01*
X1795000Y-9975000D02*
X9635000Y-9975000D01*
X3175000Y-8975000D02*
X3425000Y-8445000D01*
X9635000Y-3955000D02*
X1795000Y-3955000D01*
X8005000Y-8445000D02*
X8255000Y-8975000D01*
X2375000Y-4555000D02*
X3975000Y-4555000D01*
%TO.C,J2*%
X-6985000Y-5020000D02*
X-4385000Y-5020000D01*
X-9585000Y-6350000D02*
X-9585000Y-5020000D01*
X-9585000Y-5020000D02*
X-8255000Y-5020000D01*
X-6985000Y-7620000D02*
X-6985000Y-5020000D01*
X-9585000Y-7620000D02*
X-6985000Y-7620000D01*
X-9585000Y-12760000D02*
X-4385000Y-12760000D01*
X-4385000Y-5020000D02*
X-4385000Y-12760000D01*
X-9585000Y-7620000D02*
X-9585000Y-12760000D01*
%TO.C,J3*%
X9910000Y-1720000D02*
X9910000Y-720000D01*
X3340000Y3700000D02*
X3340000Y4300000D01*
X2790000Y-1720000D02*
X2790000Y-720000D01*
X4280000Y3700000D02*
X5880000Y3700000D01*
X1740000Y4300000D02*
X1740000Y3700000D01*
X4280000Y4300000D02*
X4280000Y3700000D01*
X2790000Y-190000D02*
X9910000Y-190000D01*
X9360000Y4300000D02*
X9360000Y3700000D01*
X9910000Y-190000D02*
X10160000Y-720000D01*
X8420000Y3700000D02*
X8420000Y4300000D01*
X6820000Y3700000D02*
X8420000Y3700000D01*
X11540000Y4300000D02*
X1160000Y4300000D01*
X2540000Y-720000D02*
X10160000Y-720000D01*
X10960000Y3700000D02*
X10960000Y4300000D01*
X2540000Y-720000D02*
X2790000Y-190000D01*
X6820000Y4300000D02*
X6820000Y3700000D01*
X11540000Y-1720000D02*
X11540000Y4300000D01*
X2540000Y-1720000D02*
X2540000Y-720000D01*
X1160000Y4300000D02*
X1160000Y-1720000D01*
X1740000Y3700000D02*
X3340000Y3700000D01*
X1160000Y-1720000D02*
X11540000Y-1720000D01*
X5880000Y3700000D02*
X5880000Y4300000D01*
X870000Y3270000D02*
X870000Y-730000D01*
X10160000Y-720000D02*
X10160000Y-1720000D01*
X9360000Y3700000D02*
X10960000Y3700000D01*
%TO.C,J4*%
X-6820000Y3700000D02*
X-6820000Y4300000D01*
X-5880000Y3700000D02*
X-4280000Y3700000D01*
X-11540000Y-1720000D02*
X-1160000Y-1720000D01*
X-10960000Y3700000D02*
X-9360000Y3700000D01*
X-10160000Y-720000D02*
X-2540000Y-720000D01*
X-10160000Y-1720000D02*
X-10160000Y-720000D01*
X-10160000Y-720000D02*
X-9910000Y-190000D01*
X-9910000Y-190000D02*
X-2790000Y-190000D01*
X-5880000Y4300000D02*
X-5880000Y3700000D01*
X-8420000Y3700000D02*
X-6820000Y3700000D01*
X-1740000Y3700000D02*
X-1740000Y4300000D01*
X-4280000Y3700000D02*
X-4280000Y4300000D01*
X-2790000Y-190000D02*
X-2540000Y-720000D01*
X-1160000Y4300000D02*
X-11540000Y4300000D01*
X-10960000Y4300000D02*
X-10960000Y3700000D01*
X-9910000Y-1720000D02*
X-9910000Y-720000D01*
X-2790000Y-1720000D02*
X-2790000Y-720000D01*
X-11540000Y4300000D02*
X-11540000Y-1720000D01*
X-3340000Y3700000D02*
X-1740000Y3700000D01*
X-3340000Y4300000D02*
X-3340000Y3700000D01*
X-2540000Y-720000D02*
X-2540000Y-1720000D01*
X-9360000Y3700000D02*
X-9360000Y4300000D01*
X-11830000Y3270000D02*
X-11830000Y-730000D01*
X-8420000Y4300000D02*
X-8420000Y3700000D01*
X-1160000Y-1720000D02*
X-1160000Y4300000D01*
%TO.C,J5*%
X26035000Y5140000D02*
X27365000Y5140000D01*
X24705000Y2540000D02*
X24705000Y-5140000D01*
X24705000Y2540000D02*
X27365000Y2540000D01*
X27365000Y2540000D02*
X27365000Y-5140000D01*
X27365000Y5140000D02*
X27365000Y3810000D01*
X24705000Y-5140000D02*
X27365000Y-5140000D01*
%TO.C,J6*%
X19183315Y20214456D02*
X17031329Y18650948D01*
X21545520Y12437697D02*
X17031329Y18650948D01*
X23697505Y14001206D02*
X19183315Y20214456D01*
X23073762Y10334253D02*
X22292007Y11410246D01*
X24149754Y11116007D02*
X23073762Y10334253D01*
X23697505Y14001206D02*
X21545520Y12437697D01*
%TO.C,J7*%
X12672963Y21877393D02*
X13494948Y24407203D01*
X6190834Y26780454D02*
X13494948Y24407203D01*
X3307095Y26318993D02*
X3718087Y27583898D01*
X5368849Y24250643D02*
X12672963Y21877393D01*
X5368849Y24250643D02*
X6190834Y26780454D01*
X3718087Y27583898D02*
X4982993Y27172905D01*
%TO.C,J8*%
X-6190834Y26780454D02*
X-5368849Y24250643D01*
X-2896102Y25054087D02*
X-4161007Y24643095D01*
X-5368849Y24250643D02*
X-12672963Y21877393D01*
X-3307095Y26318993D02*
X-2896102Y25054087D01*
X-6190834Y26780454D02*
X-13494948Y24407203D01*
X-13494948Y24407203D02*
X-12672963Y21877393D01*
%TO.C,J9*%
X-23570505Y14001206D02*
X-19056315Y20214456D01*
X-16904329Y18650948D02*
X-19056315Y20214456D01*
X-25098747Y11897762D02*
X-24316993Y12973754D01*
X-21418520Y12437697D02*
X-16904329Y18650948D01*
X-21418520Y12437697D02*
X-23570505Y14001206D01*
X-24022754Y11116007D02*
X-25098747Y11897762D01*
%TO.C,J10*%
X-27365000Y-5140000D02*
X-24705000Y-5140000D01*
X-24705000Y5140000D02*
X-24705000Y3810000D01*
X-27365000Y2540000D02*
X-24705000Y2540000D01*
X-24705000Y2540000D02*
X-24705000Y-5140000D01*
X-26035000Y5140000D02*
X-24705000Y5140000D01*
X-27365000Y2540000D02*
X-27365000Y-5140000D01*
%TO.C,J11*%
X-18014246Y-19490993D02*
X-19090238Y-20272747D01*
X-19090238Y-20272747D02*
X-19871993Y-19196754D01*
X-18466495Y-16605794D02*
X-20618480Y-18169303D01*
X-20618480Y-18169303D02*
X-25132671Y-11956052D01*
X-22980685Y-10392544D02*
X-25132671Y-11956052D01*
X-18466495Y-16605794D02*
X-22980685Y-10392544D01*
%TO.C,J12*%
X-10192166Y-22622546D02*
X-2888052Y-24995797D01*
X-13075905Y-23084007D02*
X-12664913Y-21819102D01*
X-11014151Y-25152357D02*
X-10192166Y-22622546D01*
X-3710037Y-27525607D02*
X-2888052Y-24995797D01*
X-12664913Y-21819102D02*
X-11400007Y-22230095D01*
X-11014151Y-25152357D02*
X-3710037Y-27525607D01*
%TO.C,J13*%
X13486898Y-24348913D02*
X12221993Y-24759905D01*
X10192166Y-22622546D02*
X2888052Y-24995797D01*
X11014151Y-25152357D02*
X3710037Y-27525607D01*
X10192166Y-22622546D02*
X11014151Y-25152357D01*
X13075905Y-23084007D02*
X13486898Y-24348913D01*
X2888052Y-24995797D02*
X3710037Y-27525607D01*
%TO.C,J14*%
X24624671Y-12718052D02*
X22472685Y-11154544D01*
X20110480Y-18931303D02*
X17958495Y-17367794D01*
X20110480Y-18931303D02*
X24624671Y-12718052D01*
X17506246Y-20252993D02*
X16430253Y-19471238D01*
X17958495Y-17367794D02*
X22472685Y-11154544D01*
X16430253Y-19471238D02*
X17212007Y-18395246D01*
%TO.C,R1*%
X-5952258Y-15762500D02*
X-5477742Y-15762500D01*
X-5952258Y-14717500D02*
X-5477742Y-14717500D01*
%TO.C,R2*%
X-6747742Y-3697500D02*
X-7222258Y-3697500D01*
X-6747742Y-2652500D02*
X-7222258Y-2652500D01*
%TO.C,R3*%
X10747742Y13447500D02*
X11222258Y13447500D01*
X10747742Y14492500D02*
X11222258Y14492500D01*
%TO.C,SW1*%
X6750000Y-16970000D02*
X6750000Y-15470000D01*
X-250000Y-15470000D02*
X-250000Y-16970000D01*
X1000000Y-19470000D02*
X5500000Y-19470000D01*
X5500000Y-12970000D02*
X1000000Y-12970000D01*
D10*
%TO.C,U1*%
X-4260000Y10980000D02*
X-3935000Y10980000D01*
X-4260000Y18230000D02*
X-3935000Y18230000D01*
X-4260000Y18005000D02*
X-5685000Y18005000D01*
X2990000Y18230000D02*
X2665000Y18230000D01*
X-4260000Y18230000D02*
X-4260000Y18005000D01*
X-4260000Y10980000D02*
X-4260000Y11305000D01*
X2990000Y10980000D02*
X2665000Y10980000D01*
X2990000Y18230000D02*
X2990000Y17905000D01*
X2990000Y10980000D02*
X2990000Y11305000D01*
D11*
%TO.C,U2*%
X-15260000Y8890000D02*
X-15260000Y6940000D01*
X-15260000Y8890000D02*
X-15260000Y10840000D01*
X-10140000Y8890000D02*
X-10140000Y6940000D01*
X-10140000Y8890000D02*
X-10140000Y12340000D01*
%TO.C,Y1*%
X-15865000Y11145000D02*
X-20965000Y11145000D01*
X-20965000Y11145000D02*
X-20965000Y-1455000D01*
X-15865000Y-1455000D02*
X-15865000Y11145000D01*
%TO.C,D1*%
X13452500Y13010000D02*
X16137500Y13010000D01*
X16137500Y14930000D02*
X13452500Y14930000D01*
X16137500Y13010000D02*
X16137500Y14930000D01*
%TD*%
M02*
