%TF.GenerationSoftware,KiCad,Pcbnew,6.0.11+dfsg-1~bpo11+1*%
%TF.CreationDate,2023-02-26T17:05:11+01:00*%
%TF.ProjectId,ultrasonic_board,756c7472-6173-46f6-9e69-635f626f6172,rev?*%
%TF.SameCoordinates,PX8b48bd0PY4eb9cf0*%
%TF.FileFunction,Copper,L1,Top*%
%TF.FilePolarity,Positive*%
%FSLAX46Y46*%
G04 Gerber Fmt 4.6, Leading zero omitted, Abs format (unit mm)*
G04 Created by KiCad (PCBNEW 6.0.11+dfsg-1~bpo11+1) date 2023-02-26 17:05:11*
%MOMM*%
%LPD*%
G01*
G04 APERTURE LIST*
G04 Aperture macros list*
%AMRoundRect*
0 Rectangle with rounded corners*
0 $1 Rounding radius*
0 $2 $3 $4 $5 $6 $7 $8 $9 X,Y pos of 4 corners*
0 Add a 4 corners polygon primitive as box body*
4,1,4,$2,$3,$4,$5,$6,$7,$8,$9,$2,$3,0*
0 Add four circle primitives for the rounded corners*
1,1,$1+$1,$2,$3*
1,1,$1+$1,$4,$5*
1,1,$1+$1,$6,$7*
1,1,$1+$1,$8,$9*
0 Add four rect primitives between the rounded corners*
20,1,$1+$1,$2,$3,$4,$5,0*
20,1,$1+$1,$4,$5,$6,$7,0*
20,1,$1+$1,$6,$7,$8,$9,0*
20,1,$1+$1,$8,$9,$2,$3,0*%
%AMHorizOval*
0 Thick line with rounded ends*
0 $1 width*
0 $2 $3 position (X,Y) of the first rounded end (center of the circle)*
0 $4 $5 position (X,Y) of the second rounded end (center of the circle)*
0 Add line between two ends*
20,1,$1,$2,$3,$4,$5,0*
0 Add two circle primitives to create the rounded ends*
1,1,$1,$2,$3*
1,1,$1,$4,$5*%
%AMRotRect*
0 Rectangle, with rotation*
0 The origin of the aperture is its center*
0 $1 length*
0 $2 width*
0 $3 Rotation angle, in degrees counterclockwise*
0 Add horizontal line*
21,1,$1,$2,0,0,$3*%
G04 Aperture macros list end*
%TA.AperFunction,SMDPad,CuDef*%
%ADD10RoundRect,0.225000X-0.225000X-0.250000X0.225000X-0.250000X0.225000X0.250000X-0.225000X0.250000X0*%
%TD*%
%TA.AperFunction,ComponentPad*%
%ADD11R,1.600000X1.600000*%
%TD*%
%TA.AperFunction,ComponentPad*%
%ADD12C,1.600000*%
%TD*%
%TA.AperFunction,ComponentPad*%
%ADD13RoundRect,0.249999X-0.620001X-0.845001X0.620001X-0.845001X0.620001X0.845001X-0.620001X0.845001X0*%
%TD*%
%TA.AperFunction,ComponentPad*%
%ADD14O,1.740000X2.190000*%
%TD*%
%TA.AperFunction,ComponentPad*%
%ADD15R,1.700000X1.700000*%
%TD*%
%TA.AperFunction,ComponentPad*%
%ADD16O,1.700000X1.700000*%
%TD*%
%TA.AperFunction,ComponentPad*%
%ADD17RotRect,1.700000X1.700000X216.000000*%
%TD*%
%TA.AperFunction,ComponentPad*%
%ADD18HorizOval,1.700000X0.000000X0.000000X0.000000X0.000000X0*%
%TD*%
%TA.AperFunction,ComponentPad*%
%ADD19RotRect,1.700000X1.700000X72.000000*%
%TD*%
%TA.AperFunction,ComponentPad*%
%ADD20HorizOval,1.700000X0.000000X0.000000X0.000000X0.000000X0*%
%TD*%
%TA.AperFunction,ComponentPad*%
%ADD21RotRect,1.700000X1.700000X288.000000*%
%TD*%
%TA.AperFunction,ComponentPad*%
%ADD22HorizOval,1.700000X0.000000X0.000000X0.000000X0.000000X0*%
%TD*%
%TA.AperFunction,ComponentPad*%
%ADD23RotRect,1.700000X1.700000X144.000000*%
%TD*%
%TA.AperFunction,ComponentPad*%
%ADD24HorizOval,1.700000X0.000000X0.000000X0.000000X0.000000X0*%
%TD*%
%TA.AperFunction,SMDPad,CuDef*%
%ADD25RoundRect,0.200000X-0.200000X-0.275000X0.200000X-0.275000X0.200000X0.275000X-0.200000X0.275000X0*%
%TD*%
%TA.AperFunction,SMDPad,CuDef*%
%ADD26RoundRect,0.200000X0.200000X0.275000X-0.200000X0.275000X-0.200000X-0.275000X0.200000X-0.275000X0*%
%TD*%
%TA.AperFunction,ComponentPad*%
%ADD27C,2.000000*%
%TD*%
%TA.AperFunction,SMDPad,CuDef*%
%ADD28R,1.600000X0.550000*%
%TD*%
%TA.AperFunction,SMDPad,CuDef*%
%ADD29R,0.550000X1.600000*%
%TD*%
%TA.AperFunction,SMDPad,CuDef*%
%ADD30RoundRect,0.150000X-0.150000X0.825000X-0.150000X-0.825000X0.150000X-0.825000X0.150000X0.825000X0*%
%TD*%
%TA.AperFunction,SMDPad,CuDef*%
%ADD31R,2.000000X4.500000*%
%TD*%
%TA.AperFunction,SMDPad,CuDef*%
%ADD32RoundRect,0.243750X0.243750X0.456250X-0.243750X0.456250X-0.243750X-0.456250X0.243750X-0.456250X0*%
%TD*%
%TA.AperFunction,ViaPad*%
%ADD33C,0.800000*%
%TD*%
%TA.AperFunction,Conductor*%
%ADD34C,0.250000*%
%TD*%
G04 APERTURE END LIST*
D10*
%TO.P,C1,1*%
%TO.N,/XTAL1*%
X-17780000Y12700000D03*
%TO.P,C1,2*%
%TO.N,GND*%
X-16230000Y12700000D03*
%TD*%
%TO.P,C2,1*%
%TO.N,/XTAL2*%
X-14745000Y0D03*
%TO.P,C2,2*%
%TO.N,GND*%
X-13195000Y0D03*
%TD*%
D11*
%TO.P,C3,1*%
%TO.N,+5V*%
X-14210604Y-17018000D03*
D12*
%TO.P,C3,2*%
%TO.N,GND*%
X-10410604Y-17018000D03*
%TD*%
D10*
%TO.P,C4,1*%
%TO.N,+5V*%
X-3315000Y-3175000D03*
%TO.P,C4,2*%
%TO.N,GND*%
X-1765000Y-3175000D03*
%TD*%
D13*
%TO.P,J1,1,Pin_1*%
%TO.N,+5V*%
X3175000Y-6985000D03*
D14*
%TO.P,J1,2,Pin_2*%
%TO.N,/LED_DIG*%
X5715000Y-6985000D03*
%TO.P,J1,3,Pin_3*%
%TO.N,GND*%
X8255000Y-6985000D03*
%TD*%
D15*
%TO.P,J2,1,MISO*%
%TO.N,/MISO*%
X-8255000Y-6350000D03*
D16*
%TO.P,J2,2,VCC*%
%TO.N,+5V*%
X-5715000Y-6350000D03*
%TO.P,J2,3,SCK*%
%TO.N,/SCK*%
X-8255000Y-8890000D03*
%TO.P,J2,4,MOSI*%
%TO.N,/MOSI*%
X-5715000Y-8890000D03*
%TO.P,J2,5,~{RST}*%
%TO.N,/RST*%
X-8255000Y-11430000D03*
%TO.P,J2,6,GND*%
%TO.N,GND*%
X-5715000Y-11430000D03*
%TD*%
D13*
%TO.P,J3,1,Pin_1*%
%TO.N,+5V*%
X2540000Y1270000D03*
D14*
%TO.P,J3,2,Pin_2*%
%TO.N,/I2C_SDA*%
X5080000Y1270000D03*
%TO.P,J3,3,Pin_3*%
%TO.N,/I2C_SCL*%
X7620000Y1270000D03*
%TO.P,J3,4,Pin_4*%
%TO.N,GND*%
X10160000Y1270000D03*
%TD*%
D13*
%TO.P,J4,1,Pin_1*%
%TO.N,+5V*%
X-10160000Y1270000D03*
D14*
%TO.P,J4,2,Pin_2*%
%TO.N,Net-(J4-Pad2)*%
X-7620000Y1270000D03*
%TO.P,J4,3,Pin_3*%
%TO.N,Net-(J4-Pad3)*%
X-5080000Y1270000D03*
%TO.P,J4,4,Pin_4*%
%TO.N,GND*%
X-2540000Y1270000D03*
%TD*%
D15*
%TO.P,J5,1,Pin_1*%
%TO.N,+5V*%
X26035000Y3810000D03*
D16*
%TO.P,J5,2,Pin_2*%
%TO.N,/US0*%
X26035000Y1270000D03*
%TO.P,J5,3,Pin_3*%
X26035000Y-1270000D03*
%TO.P,J5,4,Pin_4*%
%TO.N,GND*%
X26035000Y-3810000D03*
%TD*%
D17*
%TO.P,J6,1,Pin_1*%
%TO.N,+5V*%
X23368000Y12192000D03*
D18*
%TO.P,J6,2,Pin_2*%
%TO.N,/US1*%
X21875025Y14246903D03*
%TO.P,J6,3,Pin_3*%
X20382051Y16301806D03*
%TO.P,J6,4,Pin_4*%
%TO.N,GND*%
X18889076Y18356709D03*
%TD*%
D19*
%TO.P,J7,1,Pin_1*%
%TO.N,+5V*%
X4572000Y25908000D03*
D20*
%TO.P,J7,2,Pin_2*%
%TO.N,/US2*%
X6987684Y25123097D03*
%TO.P,J7,3,Pin_3*%
X9403367Y24338194D03*
%TO.P,J7,4,Pin_4*%
%TO.N,GND*%
X11819051Y23553291D03*
%TD*%
D21*
%TO.P,J8,1,Pin_1*%
%TO.N,+5V*%
X-4572000Y25908000D03*
D22*
%TO.P,J8,2,Pin_2*%
%TO.N,/US3*%
X-6987684Y25123097D03*
%TO.P,J8,3,Pin_3*%
X-9403367Y24338194D03*
%TO.P,J8,4,Pin_4*%
%TO.N,GND*%
X-11819051Y23553291D03*
%TD*%
D23*
%TO.P,J9,1,Pin_1*%
%TO.N,+5V*%
X-23241000Y12192000D03*
D24*
%TO.P,J9,2,Pin_2*%
%TO.N,/US4*%
X-21748025Y14246903D03*
%TO.P,J9,3,Pin_3*%
X-20255051Y16301806D03*
%TO.P,J9,4,Pin_4*%
%TO.N,GND*%
X-18762076Y18356709D03*
%TD*%
D15*
%TO.P,J10,1,Pin_1*%
%TO.N,+5V*%
X-26035000Y3810000D03*
D16*
%TO.P,J10,2,Pin_2*%
%TO.N,/US5*%
X-26035000Y1270000D03*
%TO.P,J10,3,Pin_3*%
X-26035000Y-1270000D03*
%TO.P,J10,4,Pin_4*%
%TO.N,GND*%
X-26035000Y-3810000D03*
%TD*%
D17*
%TO.P,J11,1,Pin_1*%
%TO.N,+5V*%
X-18796000Y-18415000D03*
D18*
%TO.P,J11,2,Pin_2*%
%TO.N,/US6*%
X-20288975Y-16360097D03*
%TO.P,J11,3,Pin_3*%
X-21781949Y-14305194D03*
%TO.P,J11,4,Pin_4*%
%TO.N,GND*%
X-23274924Y-12250291D03*
%TD*%
D19*
%TO.P,J12,1,Pin_1*%
%TO.N,+5V*%
X-11811000Y-23495000D03*
D20*
%TO.P,J12,2,Pin_2*%
%TO.N,/US7*%
X-9395316Y-24279903D03*
%TO.P,J12,3,Pin_3*%
X-6979633Y-25064806D03*
%TO.P,J12,4,Pin_4*%
%TO.N,GND*%
X-4563949Y-25849709D03*
%TD*%
D21*
%TO.P,J13,1,Pin_1*%
%TO.N,+5V*%
X11811000Y-23495000D03*
D22*
%TO.P,J13,2,Pin_2*%
%TO.N,/US8*%
X9395316Y-24279903D03*
%TO.P,J13,3,Pin_3*%
X6979633Y-25064806D03*
%TO.P,J13,4,Pin_4*%
%TO.N,GND*%
X4563949Y-25849709D03*
%TD*%
D23*
%TO.P,J14,1,Pin_1*%
%TO.N,+5V*%
X18288000Y-19177000D03*
D24*
%TO.P,J14,2,Pin_2*%
%TO.N,/US9*%
X19780975Y-17122097D03*
%TO.P,J14,3,Pin_3*%
X21273949Y-15067194D03*
%TO.P,J14,4,Pin_4*%
%TO.N,GND*%
X22766924Y-13012291D03*
%TD*%
D25*
%TO.P,R1,1*%
%TO.N,+5V*%
X-6540000Y-15240000D03*
%TO.P,R1,2*%
%TO.N,/RST*%
X-4890000Y-15240000D03*
%TD*%
D26*
%TO.P,R2,1*%
%TO.N,Net-(J4-Pad3)*%
X-6160000Y-3175000D03*
%TO.P,R2,2*%
%TO.N,Net-(J4-Pad2)*%
X-7810000Y-3175000D03*
%TD*%
D25*
%TO.P,R3,1*%
%TO.N,/LED_STAT*%
X10160000Y13970000D03*
%TO.P,R3,2*%
%TO.N,Net-(D1-Pad2)*%
X11810000Y13970000D03*
%TD*%
D27*
%TO.P,SW1,1,1*%
%TO.N,GND*%
X0Y-13970000D03*
X6500000Y-13970000D03*
%TO.P,SW1,2,2*%
%TO.N,/RST*%
X0Y-18470000D03*
X6500000Y-18470000D03*
%TD*%
D28*
%TO.P,U1,1,PD3*%
%TO.N,/US5*%
X-4885000Y17405000D03*
%TO.P,U1,2,PD4*%
%TO.N,/US6*%
X-4885000Y16605000D03*
%TO.P,U1,3,GND*%
%TO.N,GND*%
X-4885000Y15805000D03*
%TO.P,U1,4,VCC*%
%TO.N,+5V*%
X-4885000Y15005000D03*
%TO.P,U1,5,GND*%
%TO.N,GND*%
X-4885000Y14205000D03*
%TO.P,U1,6,VCC*%
%TO.N,+5V*%
X-4885000Y13405000D03*
%TO.P,U1,7,XTAL1/PB6*%
%TO.N,/XTAL1*%
X-4885000Y12605000D03*
%TO.P,U1,8,XTAL2/PB7*%
%TO.N,/XTAL2*%
X-4885000Y11805000D03*
D29*
%TO.P,U1,9,PD5*%
%TO.N,/US7*%
X-3435000Y10355000D03*
%TO.P,U1,10,PD6*%
%TO.N,/US8*%
X-2635000Y10355000D03*
%TO.P,U1,11,PD7*%
%TO.N,/US9*%
X-1835000Y10355000D03*
%TO.P,U1,12,PB0*%
%TO.N,/LED_DIG*%
X-1035000Y10355000D03*
%TO.P,U1,13,PB1*%
%TO.N,/LED_STAT*%
X-235000Y10355000D03*
%TO.P,U1,14,PB2*%
%TO.N,/RS485_TXE*%
X565000Y10355000D03*
%TO.P,U1,15,PB3*%
%TO.N,/MOSI*%
X1365000Y10355000D03*
%TO.P,U1,16,PB4*%
%TO.N,/MISO*%
X2165000Y10355000D03*
D28*
%TO.P,U1,17,PB5*%
%TO.N,/SCK*%
X3615000Y11805000D03*
%TO.P,U1,18,AVCC*%
%TO.N,+5V*%
X3615000Y12605000D03*
%TO.P,U1,19,ADC6*%
%TO.N,unconnected-(U1-Pad19)*%
X3615000Y13405000D03*
%TO.P,U1,20,AREF*%
%TO.N,unconnected-(U1-Pad20)*%
X3615000Y14205000D03*
%TO.P,U1,21,GND*%
%TO.N,GND*%
X3615000Y15005000D03*
%TO.P,U1,22,ADC7*%
%TO.N,unconnected-(U1-Pad22)*%
X3615000Y15805000D03*
%TO.P,U1,23,PC0*%
%TO.N,/US0*%
X3615000Y16605000D03*
%TO.P,U1,24,PC1*%
%TO.N,/US1*%
X3615000Y17405000D03*
D29*
%TO.P,U1,25,PC2*%
%TO.N,/US2*%
X2165000Y18855000D03*
%TO.P,U1,26,PC3*%
%TO.N,/US3*%
X1365000Y18855000D03*
%TO.P,U1,27,PC4*%
%TO.N,/I2C_SDA*%
X565000Y18855000D03*
%TO.P,U1,28,PC5*%
%TO.N,/I2C_SCL*%
X-235000Y18855000D03*
%TO.P,U1,29,~{RESET}/PC6*%
%TO.N,/RST*%
X-1035000Y18855000D03*
%TO.P,U1,30,PD0*%
%TO.N,/UART_RXD*%
X-1835000Y18855000D03*
%TO.P,U1,31,PD1*%
%TO.N,/UART_TXD*%
X-2635000Y18855000D03*
%TO.P,U1,32,PD2*%
%TO.N,/US4*%
X-3435000Y18855000D03*
%TD*%
D30*
%TO.P,U2,1,RO*%
%TO.N,/UART_RXD*%
X-10795000Y11365000D03*
%TO.P,U2,2,~{RE}*%
%TO.N,/RS485_TXE*%
X-12065000Y11365000D03*
%TO.P,U2,3,DE*%
X-13335000Y11365000D03*
%TO.P,U2,4,DI*%
%TO.N,/UART_TXD*%
X-14605000Y11365000D03*
%TO.P,U2,5,GND*%
%TO.N,GND*%
X-14605000Y6415000D03*
%TO.P,U2,6,A*%
%TO.N,Net-(J4-Pad2)*%
X-13335000Y6415000D03*
%TO.P,U2,7,B*%
%TO.N,Net-(J4-Pad3)*%
X-12065000Y6415000D03*
%TO.P,U2,8,VCC*%
%TO.N,+5V*%
X-10795000Y6415000D03*
%TD*%
D31*
%TO.P,Y1,1,1*%
%TO.N,/XTAL1*%
X-18415000Y8695000D03*
%TO.P,Y1,2,2*%
%TO.N,/XTAL2*%
X-18415000Y195000D03*
%TD*%
D32*
%TO.P,D1,1,K*%
%TO.N,GND*%
X15390000Y13970000D03*
%TO.P,D1,2,A*%
%TO.N,Net-(D1-Pad2)*%
X13515000Y13970000D03*
%TD*%
D33*
%TO.N,GND*%
X-6985000Y13970000D03*
X-14605000Y2540000D03*
X-3175000Y-5715000D03*
X1505000Y15005000D03*
%TO.N,/LED_DIG*%
X-1905000Y4989990D03*
X6424990Y4989990D03*
%TO.N,/US0*%
X5715000Y15875000D03*
%TO.N,/US4*%
X-2140000Y16510000D03*
%TO.N,/US8*%
X-5714966Y7620000D03*
%TO.N,/US1*%
X6090000Y17405000D03*
%TO.N,/US5*%
X-8890000Y15875000D03*
%TO.N,/US9*%
X-4989964Y6888664D03*
%TO.N,/US6*%
X-8890000Y13335000D03*
%TO.N,/US2*%
X4640000Y18855000D03*
%TO.N,/US7*%
X-6790000Y10355000D03*
%TO.N,/US3*%
X1365000Y16605000D03*
%TO.N,/LED_STAT*%
X-765000Y11935000D03*
X8890000Y10160000D03*
%TO.N,/RS485_TXE*%
X-8255000Y12065000D03*
X-3175000Y12065000D03*
%TO.N,/UART_RXD*%
X-5715000Y19685000D03*
X-2540000Y21590000D03*
%TD*%
D34*
%TO.N,GND*%
X1505000Y15005000D02*
X1505000Y15005000D01*
X-6985000Y13970000D02*
X-6985000Y13970000D01*
X-14605000Y2540000D02*
X-14605000Y3175000D01*
X-3175000Y-5715000D02*
X-3175000Y-5715000D01*
X3615000Y15005000D02*
X1505000Y15005000D01*
X-4885000Y14205000D02*
X-6750000Y14205000D01*
X-1765000Y-4305000D02*
X-3175000Y-5715000D01*
X-16230000Y12700000D02*
X-16230000Y15824633D01*
X-14605000Y1410000D02*
X-14605000Y2540000D01*
X-6750000Y14205000D02*
X-6985000Y13970000D01*
X-4563949Y-22846051D02*
X-4582553Y-22846051D01*
X-4582553Y-22846051D02*
X-10410604Y-17018000D01*
X-4885000Y15805000D02*
X-5935000Y15805000D01*
X-1765000Y495000D02*
X-2540000Y1270000D01*
X-5935000Y15805000D02*
X-6010001Y15729999D01*
X15240000Y13970000D02*
X15240000Y14707633D01*
X15240000Y14707633D02*
X18889076Y18356709D01*
X-16230000Y15824633D02*
X-18762076Y18356709D01*
X-6010001Y14469999D02*
X-5745002Y14205000D01*
X-5745002Y14205000D02*
X-4885000Y14205000D01*
X-6010001Y15729999D02*
X-6010001Y14469999D01*
X-4563949Y-22846051D02*
X-4563949Y-25849709D01*
X-1765000Y-3175000D02*
X-1765000Y-4305000D01*
X-13195000Y0D02*
X-14605000Y1410000D01*
X-14605000Y6415000D02*
X-14605000Y3175000D01*
X-1765000Y-3175000D02*
X-1765000Y495000D01*
%TO.N,/XTAL1*%
X-17780000Y9330000D02*
X-18415000Y8695000D01*
X-10160000Y8890000D02*
X-18220000Y8890000D01*
X-18220000Y8890000D02*
X-18415000Y8695000D01*
X-6445000Y12605000D02*
X-10160000Y8890000D01*
X-4885000Y12605000D02*
X-6445000Y12605000D01*
X-17780000Y12700000D02*
X-17780000Y9330000D01*
%TO.N,/XTAL2*%
X-14745000Y0D02*
X-17340000Y0D01*
X-15875000Y8439989D02*
X-15875000Y2735000D01*
X-17340000Y0D02*
X-18415000Y1075000D01*
X-9973600Y8439989D02*
X-15875000Y8439989D01*
X-15875000Y2735000D02*
X-18415000Y195000D01*
X-6608590Y11805000D02*
X-9973600Y8439989D01*
X-4885000Y11805000D02*
X-6608590Y11805000D01*
%TO.N,+5V*%
X-23241000Y15616787D02*
X-12275224Y26582563D01*
X-9175032Y-27024710D02*
X9175032Y-27024710D01*
X2540000Y1270000D02*
X2540000Y8253590D01*
X13970000Y-23495000D02*
X18288000Y-19177000D01*
X-3835000Y13405000D02*
X-4885000Y13405000D01*
X2565000Y12605000D02*
X1765000Y13405000D01*
X-27210001Y2634999D02*
X-26035000Y3810000D01*
X-5715000Y-6350000D02*
X-6890001Y-5174999D01*
X-4024998Y13405000D02*
X-4885000Y13405000D01*
X-15607604Y-18415000D02*
X-14210604Y-17018000D01*
X9175032Y-27024710D02*
X11811000Y-24388742D01*
X27210001Y-11432073D02*
X27210001Y2634999D01*
X4572000Y25908000D02*
X-4572000Y25908000D01*
X11811000Y-23495000D02*
X13970000Y-23495000D01*
X3175000Y635000D02*
X2540000Y1270000D01*
X11811000Y-24388742D02*
X11811000Y-23495000D01*
X-10795000Y1905000D02*
X-10160000Y1270000D01*
X2540000Y8253590D02*
X4740001Y10453591D01*
X-3759999Y13480001D02*
X-3835000Y13405000D01*
X-11811000Y-24388742D02*
X-9175032Y-27024710D01*
X-23241000Y6604000D02*
X-26035000Y3810000D01*
X-23241000Y12192000D02*
X-23241000Y6604000D01*
X4475002Y12605000D02*
X3615000Y12605000D01*
X-9365001Y-5174999D02*
X-18796000Y-14605998D01*
X-3835000Y15005000D02*
X-3759999Y14929999D01*
X-11811000Y-23495000D02*
X-11811000Y-24388742D01*
X-19973074Y-18415000D02*
X-27210001Y-11178073D01*
X27210001Y2634999D02*
X26035000Y3810000D01*
X-13716000Y-23495000D02*
X-18796000Y-18415000D01*
X-10795000Y6415000D02*
X-10795000Y1905000D01*
X26035000Y3810000D02*
X26035000Y9525000D01*
X-6890001Y-5174999D02*
X-9365001Y-5174999D01*
X-4885000Y15005000D02*
X-3835000Y15005000D01*
X26035000Y9525000D02*
X23368000Y12192000D01*
X-11811000Y-23495000D02*
X-13716000Y-23495000D01*
X19465074Y-19177000D02*
X27210001Y-11432073D01*
X-12432604Y-15240000D02*
X-14210604Y-17018000D01*
X-12275224Y26582563D02*
X-5246563Y26582563D01*
X-3315000Y-3950000D02*
X-5715000Y-6350000D01*
X-27210001Y-11178073D02*
X-27210001Y2634999D01*
X4740001Y12340001D02*
X4475002Y12605000D01*
X3615000Y12605000D02*
X2565000Y12605000D01*
X-5246563Y26582563D02*
X-4572000Y25908000D01*
X-18796000Y-18415000D02*
X-19973074Y-18415000D01*
X-3315000Y-3175000D02*
X-3315000Y-3950000D01*
X-23241000Y12192000D02*
X-23241000Y15616787D01*
X4740001Y10453591D02*
X4740001Y12340001D01*
X-18796000Y-18415000D02*
X-15607604Y-18415000D01*
X18288000Y-19177000D02*
X19465074Y-19177000D01*
X-6540000Y-15240000D02*
X-12432604Y-15240000D01*
X1765000Y13405000D02*
X-4885000Y13405000D01*
X-18796000Y-14605998D02*
X-18796000Y-18415000D01*
X3175000Y-6985000D02*
X3175000Y635000D01*
X-3759999Y14929999D02*
X-3759999Y13480001D01*
%TO.N,/LED_DIG*%
X-1035000Y10355000D02*
X-1035000Y5859990D01*
X6424990Y-6275010D02*
X6424990Y4989990D01*
X5715000Y-6985000D02*
X6424990Y-6275010D01*
X-1035000Y5859990D02*
X-1905000Y4989990D01*
%TO.N,/MISO*%
X635000Y7775000D02*
X2165000Y9305000D01*
X2165000Y9305000D02*
X2165000Y10355000D01*
X-8255000Y-6350000D02*
X-6890001Y-7714999D01*
X635000Y-4279002D02*
X635000Y7775000D01*
X-6890001Y-7714999D02*
X-6890001Y-9454001D01*
X-6279001Y-10065001D02*
X-5150999Y-10065001D01*
X-5150999Y-10065001D02*
X635000Y-4279002D01*
X-6890001Y-9454001D02*
X-6279001Y-10065001D01*
%TO.N,/SCK*%
X-5150999Y-12605001D02*
X-6279001Y-12605001D01*
X1270000Y-6184002D02*
X-5150999Y-12605001D01*
X3615000Y9965000D02*
X3615000Y11805000D01*
X1270000Y7620000D02*
X1270000Y-6184002D01*
X-7079999Y-10065001D02*
X-8255000Y-8890000D01*
X-7079999Y-11804003D02*
X-7079999Y-10065001D01*
X1270000Y7620000D02*
X3615000Y9965000D01*
X-6279001Y-12605001D02*
X-7079999Y-11804003D01*
%TO.N,/MOSI*%
X184990Y8124990D02*
X1365000Y9305000D01*
X-5080000Y-8890000D02*
X184990Y-3625010D01*
X-5715000Y-8890000D02*
X-5080000Y-8890000D01*
X1365000Y9305000D02*
X1365000Y10355000D01*
X184990Y-3625010D02*
X184990Y8124990D01*
%TO.N,/RST*%
X-1035000Y18855000D02*
X-1035000Y19921410D01*
X5792800Y20880020D02*
X10885010Y15787810D01*
X6500000Y-18470000D02*
X0Y-18470000D01*
X-76389Y20880021D02*
X5792800Y20880020D01*
X10885010Y2459989D02*
X11355010Y1989989D01*
X0Y-18470000D02*
X-1660000Y-18470000D01*
X-1660000Y-18470000D02*
X-4890000Y-15240000D01*
X-4890000Y-14795000D02*
X-8255000Y-11430000D01*
X-1035000Y19921410D02*
X-76389Y20880021D01*
X11355010Y1989989D02*
X11355010Y-13614990D01*
X-4890000Y-15240000D02*
X-4890000Y-14795000D01*
X11355010Y-13614990D02*
X6500000Y-18470000D01*
X10885010Y15787810D02*
X10885010Y2459989D01*
%TO.N,/I2C_SDA*%
X6985000Y18415000D02*
X5419999Y19980001D01*
X565000Y19905000D02*
X565000Y18855000D01*
X5419999Y19980001D02*
X640001Y19980001D01*
X5080000Y1270000D02*
X5080000Y6350000D01*
X6985000Y8255000D02*
X6985000Y18415000D01*
X5080000Y6350000D02*
X6985000Y8255000D01*
X640001Y19980001D02*
X565000Y19905000D01*
%TO.N,/I2C_SCL*%
X110011Y20430011D02*
X-235000Y20085000D01*
X7620000Y1270000D02*
X7620000Y18416410D01*
X7620000Y18416410D02*
X5606399Y20430011D01*
X5606399Y20430011D02*
X110011Y20430011D01*
X-235000Y20085000D02*
X-235000Y18855000D01*
%TO.N,/US0*%
X5715000Y15875000D02*
X5715000Y15875000D01*
X26035000Y1270000D02*
X26035000Y-1270000D01*
X4985000Y16605000D02*
X5715000Y15875000D01*
X3615000Y16605000D02*
X4985000Y16605000D01*
%TO.N,/US4*%
X-2140000Y16510000D02*
X-2140000Y16510000D01*
X-3435000Y17805000D02*
X-2140000Y16510000D01*
X-20255051Y15739877D02*
X-20255051Y16301806D01*
X-3435000Y18855000D02*
X-3435000Y17805000D01*
X-21748025Y14246903D02*
X-20255051Y15739877D01*
%TO.N,/US8*%
X7764536Y-24279903D02*
X6979633Y-25064806D01*
X9395316Y-24279903D02*
X7764536Y-24279903D01*
X-2635000Y9305000D02*
X-4320000Y7620000D01*
X-2635000Y10355000D02*
X-2635000Y9305000D01*
X-4320000Y7620000D02*
X-5714966Y7620000D01*
%TO.N,/US1*%
X6090000Y17405000D02*
X6090000Y17405000D01*
X3615000Y17405000D02*
X6090000Y17405000D01*
X20382051Y16301806D02*
X21875025Y14808832D01*
X21875025Y14808832D02*
X21875025Y14246903D01*
%TO.N,/US5*%
X-8890000Y15875000D02*
X-8890000Y15875000D01*
X-7465000Y15875000D02*
X-8890000Y15875000D01*
X-26035000Y-1270000D02*
X-26035000Y1270000D01*
X-5935000Y17405000D02*
X-7465000Y15875000D01*
X-4885000Y17405000D02*
X-5935000Y17405000D01*
%TO.N,/US9*%
X-1835000Y10355000D02*
X-1835000Y9305000D01*
X19780975Y-16560168D02*
X19780975Y-17122097D01*
X21273949Y-15067194D02*
X19780975Y-16560168D01*
X-1835000Y9305000D02*
X-4251336Y6888664D01*
X-4251336Y6888664D02*
X-4989964Y6888664D01*
%TO.N,/US6*%
X-8890000Y13335000D02*
X-8890000Y13335000D01*
X-20288975Y-16360097D02*
X-21781949Y-14867123D01*
X-4885000Y16605000D02*
X-5935000Y16605000D01*
X-8890000Y13650000D02*
X-8890000Y13335000D01*
X-5935000Y16605000D02*
X-8890000Y13650000D01*
X-21781949Y-14867123D02*
X-21781949Y-14305194D01*
%TO.N,/US2*%
X4640000Y18855000D02*
X4640000Y18855000D01*
X8618464Y25123097D02*
X9403367Y24338194D01*
X2165000Y18855000D02*
X4640000Y18855000D01*
X6987684Y25123097D02*
X8618464Y25123097D01*
%TO.N,/US7*%
X-6790000Y10355000D02*
X-6790000Y10355000D01*
X-6979633Y-25064806D02*
X-8610413Y-25064806D01*
X-8610413Y-25064806D02*
X-9395316Y-24279903D01*
X-3435000Y10355000D02*
X-6790000Y10355000D01*
%TO.N,/US3*%
X1365000Y16605000D02*
X1365000Y16605000D01*
X-9403367Y24338194D02*
X-7772587Y24338194D01*
X1365000Y18855000D02*
X1365000Y16605000D01*
X-7772587Y24338194D02*
X-6987684Y25123097D01*
%TO.N,Net-(J4-Pad2)*%
X-7810000Y-3175000D02*
X-7810000Y1080000D01*
X-13335000Y6415000D02*
X-13335000Y2166810D01*
X-13335000Y2166810D02*
X-11018180Y-150010D01*
X-11018180Y-150010D02*
X-9040010Y-150010D01*
X-9040010Y-150010D02*
X-7620000Y1270000D01*
X-7810000Y1080000D02*
X-7620000Y1270000D01*
%TO.N,Net-(D1-Pad2)*%
X13665000Y13970000D02*
X11810000Y13970000D01*
%TO.N,Net-(J4-Pad3)*%
X-11739990Y7715010D02*
X-10448242Y7715010D01*
X-12065000Y7390000D02*
X-11739990Y7715010D01*
X-10448242Y7715010D02*
X-5080000Y2346768D01*
X-5080000Y2346768D02*
X-5080000Y1270000D01*
X-12065000Y6415000D02*
X-12065000Y7390000D01*
X-6160000Y190000D02*
X-5080000Y1270000D01*
X-6160000Y-3175000D02*
X-6160000Y190000D01*
%TO.N,/LED_STAT*%
X-765000Y11935000D02*
X-895000Y12065000D01*
X8890000Y10160000D02*
X8890000Y10160000D01*
X-235000Y10355000D02*
X-235000Y11405000D01*
X10160000Y11430000D02*
X8890000Y10160000D01*
X-235000Y11405000D02*
X-765000Y11935000D01*
X10160000Y13970000D02*
X10160000Y11430000D01*
%TO.N,/RS485_TXE*%
X-3175000Y12065000D02*
X-3175000Y12065000D01*
X-8255000Y12065000D02*
X-8255000Y12065000D01*
X-11739990Y10064990D02*
X-10255010Y10064990D01*
X565000Y11678002D02*
X-416999Y12660001D01*
X-10255010Y10064990D02*
X-8255000Y12065000D01*
X-416999Y12660001D02*
X-2579999Y12660001D01*
X-13335000Y11365000D02*
X-12065000Y11365000D01*
X565000Y10355000D02*
X565000Y11678002D01*
X-12065000Y10390000D02*
X-11739990Y10064990D01*
X-2579999Y12660001D02*
X-3175000Y12065000D01*
X-12065000Y11365000D02*
X-12065000Y10390000D01*
%TO.N,/UART_RXD*%
X-2540000Y21590000D02*
X-2540000Y21590000D01*
X-5715000Y19685000D02*
X-5715000Y19685000D01*
X-1835000Y18855000D02*
X-1835000Y20885000D01*
X-10795000Y11365000D02*
X-10795000Y15513590D01*
X-6623590Y19685000D02*
X-5715000Y19685000D01*
X-10795000Y15513590D02*
X-6623590Y19685000D01*
X-1835000Y20885000D02*
X-2540000Y21590000D01*
%TO.N,/UART_TXD*%
X-2635000Y19905000D02*
X-2635000Y18855000D01*
X-3685000Y20955000D02*
X-2635000Y19905000D01*
X-5990000Y20955000D02*
X-3685000Y20955000D01*
X-14605000Y11365000D02*
X-14605000Y12340000D01*
X-14605000Y12340000D02*
X-5990000Y20955000D01*
%TD*%
M02*
