%TF.GenerationSoftware,KiCad,Pcbnew,6.0.11+dfsg-1~bpo11+1*%
%TF.CreationDate,2023-02-26T17:05:11+01:00*%
%TF.ProjectId,ultrasonic_board,756c7472-6173-46f6-9e69-635f626f6172,rev?*%
%TF.SameCoordinates,PX8b48bd0PY4eb9cf0*%
%TF.FileFunction,Soldermask,Top*%
%TF.FilePolarity,Negative*%
%FSLAX46Y46*%
G04 Gerber Fmt 4.6, Leading zero omitted, Abs format (unit mm)*
G04 Created by KiCad (PCBNEW 6.0.11+dfsg-1~bpo11+1) date 2023-02-26 17:05:11*
%MOMM*%
%LPD*%
G01*
G04 APERTURE LIST*
G04 Aperture macros list*
%AMRoundRect*
0 Rectangle with rounded corners*
0 $1 Rounding radius*
0 $2 $3 $4 $5 $6 $7 $8 $9 X,Y pos of 4 corners*
0 Add a 4 corners polygon primitive as box body*
4,1,4,$2,$3,$4,$5,$6,$7,$8,$9,$2,$3,0*
0 Add four circle primitives for the rounded corners*
1,1,$1+$1,$2,$3*
1,1,$1+$1,$4,$5*
1,1,$1+$1,$6,$7*
1,1,$1+$1,$8,$9*
0 Add four rect primitives between the rounded corners*
20,1,$1+$1,$2,$3,$4,$5,0*
20,1,$1+$1,$4,$5,$6,$7,0*
20,1,$1+$1,$6,$7,$8,$9,0*
20,1,$1+$1,$8,$9,$2,$3,0*%
%AMHorizOval*
0 Thick line with rounded ends*
0 $1 width*
0 $2 $3 position (X,Y) of the first rounded end (center of the circle)*
0 $4 $5 position (X,Y) of the second rounded end (center of the circle)*
0 Add line between two ends*
20,1,$1,$2,$3,$4,$5,0*
0 Add two circle primitives to create the rounded ends*
1,1,$1,$2,$3*
1,1,$1,$4,$5*%
%AMRotRect*
0 Rectangle, with rotation*
0 The origin of the aperture is its center*
0 $1 length*
0 $2 width*
0 $3 Rotation angle, in degrees counterclockwise*
0 Add horizontal line*
21,1,$1,$2,0,0,$3*%
G04 Aperture macros list end*
%ADD10RoundRect,0.225000X-0.225000X-0.250000X0.225000X-0.250000X0.225000X0.250000X-0.225000X0.250000X0*%
%ADD11R,1.600000X1.600000*%
%ADD12C,1.600000*%
%ADD13RoundRect,0.249999X-0.620001X-0.845001X0.620001X-0.845001X0.620001X0.845001X-0.620001X0.845001X0*%
%ADD14O,1.740000X2.190000*%
%ADD15R,1.700000X1.700000*%
%ADD16O,1.700000X1.700000*%
%ADD17RotRect,1.700000X1.700000X216.000000*%
%ADD18HorizOval,1.700000X0.000000X0.000000X0.000000X0.000000X0*%
%ADD19RotRect,1.700000X1.700000X72.000000*%
%ADD20HorizOval,1.700000X0.000000X0.000000X0.000000X0.000000X0*%
%ADD21RotRect,1.700000X1.700000X288.000000*%
%ADD22HorizOval,1.700000X0.000000X0.000000X0.000000X0.000000X0*%
%ADD23RotRect,1.700000X1.700000X144.000000*%
%ADD24HorizOval,1.700000X0.000000X0.000000X0.000000X0.000000X0*%
%ADD25RoundRect,0.200000X-0.200000X-0.275000X0.200000X-0.275000X0.200000X0.275000X-0.200000X0.275000X0*%
%ADD26RoundRect,0.200000X0.200000X0.275000X-0.200000X0.275000X-0.200000X-0.275000X0.200000X-0.275000X0*%
%ADD27C,2.000000*%
%ADD28R,1.600000X0.550000*%
%ADD29R,0.550000X1.600000*%
%ADD30RoundRect,0.150000X-0.150000X0.825000X-0.150000X-0.825000X0.150000X-0.825000X0.150000X0.825000X0*%
%ADD31R,2.000000X4.500000*%
%ADD32RoundRect,0.243750X0.243750X0.456250X-0.243750X0.456250X-0.243750X-0.456250X0.243750X-0.456250X0*%
G04 APERTURE END LIST*
D10*
%TO.C,C1*%
X-17780000Y12700000D03*
X-16230000Y12700000D03*
%TD*%
%TO.C,C2*%
X-14745000Y0D03*
X-13195000Y0D03*
%TD*%
D11*
%TO.C,C3*%
X-14210604Y-17018000D03*
D12*
X-10410604Y-17018000D03*
%TD*%
D10*
%TO.C,C4*%
X-3315000Y-3175000D03*
X-1765000Y-3175000D03*
%TD*%
D13*
%TO.C,J1*%
X3175000Y-6985000D03*
D14*
X5715000Y-6985000D03*
X8255000Y-6985000D03*
%TD*%
D15*
%TO.C,J2*%
X-8255000Y-6350000D03*
D16*
X-5715000Y-6350000D03*
X-8255000Y-8890000D03*
X-5715000Y-8890000D03*
X-8255000Y-11430000D03*
X-5715000Y-11430000D03*
%TD*%
D13*
%TO.C,J3*%
X2540000Y1270000D03*
D14*
X5080000Y1270000D03*
X7620000Y1270000D03*
X10160000Y1270000D03*
%TD*%
D13*
%TO.C,J4*%
X-10160000Y1270000D03*
D14*
X-7620000Y1270000D03*
X-5080000Y1270000D03*
X-2540000Y1270000D03*
%TD*%
D15*
%TO.C,J5*%
X26035000Y3810000D03*
D16*
X26035000Y1270000D03*
X26035000Y-1270000D03*
X26035000Y-3810000D03*
%TD*%
D17*
%TO.C,J6*%
X23368000Y12192000D03*
D18*
X21875025Y14246903D03*
X20382051Y16301806D03*
X18889076Y18356709D03*
%TD*%
D19*
%TO.C,J7*%
X4572000Y25908000D03*
D20*
X6987684Y25123097D03*
X9403367Y24338194D03*
X11819051Y23553291D03*
%TD*%
D21*
%TO.C,J8*%
X-4572000Y25908000D03*
D22*
X-6987684Y25123097D03*
X-9403367Y24338194D03*
X-11819051Y23553291D03*
%TD*%
D23*
%TO.C,J9*%
X-23241000Y12192000D03*
D24*
X-21748025Y14246903D03*
X-20255051Y16301806D03*
X-18762076Y18356709D03*
%TD*%
D15*
%TO.C,J10*%
X-26035000Y3810000D03*
D16*
X-26035000Y1270000D03*
X-26035000Y-1270000D03*
X-26035000Y-3810000D03*
%TD*%
D17*
%TO.C,J11*%
X-18796000Y-18415000D03*
D18*
X-20288975Y-16360097D03*
X-21781949Y-14305194D03*
X-23274924Y-12250291D03*
%TD*%
D19*
%TO.C,J12*%
X-11811000Y-23495000D03*
D20*
X-9395316Y-24279903D03*
X-6979633Y-25064806D03*
X-4563949Y-25849709D03*
%TD*%
D21*
%TO.C,J13*%
X11811000Y-23495000D03*
D22*
X9395316Y-24279903D03*
X6979633Y-25064806D03*
X4563949Y-25849709D03*
%TD*%
D23*
%TO.C,J14*%
X18288000Y-19177000D03*
D24*
X19780975Y-17122097D03*
X21273949Y-15067194D03*
X22766924Y-13012291D03*
%TD*%
D25*
%TO.C,R1*%
X-6540000Y-15240000D03*
X-4890000Y-15240000D03*
%TD*%
D26*
%TO.C,R2*%
X-6160000Y-3175000D03*
X-7810000Y-3175000D03*
%TD*%
D25*
%TO.C,R3*%
X10160000Y13970000D03*
X11810000Y13970000D03*
%TD*%
D27*
%TO.C,SW1*%
X0Y-13970000D03*
X6500000Y-13970000D03*
X0Y-18470000D03*
X6500000Y-18470000D03*
%TD*%
D28*
%TO.C,U1*%
X-4885000Y17405000D03*
X-4885000Y16605000D03*
X-4885000Y15805000D03*
X-4885000Y15005000D03*
X-4885000Y14205000D03*
X-4885000Y13405000D03*
X-4885000Y12605000D03*
X-4885000Y11805000D03*
D29*
X-3435000Y10355000D03*
X-2635000Y10355000D03*
X-1835000Y10355000D03*
X-1035000Y10355000D03*
X-235000Y10355000D03*
X565000Y10355000D03*
X1365000Y10355000D03*
X2165000Y10355000D03*
D28*
X3615000Y11805000D03*
X3615000Y12605000D03*
X3615000Y13405000D03*
X3615000Y14205000D03*
X3615000Y15005000D03*
X3615000Y15805000D03*
X3615000Y16605000D03*
X3615000Y17405000D03*
D29*
X2165000Y18855000D03*
X1365000Y18855000D03*
X565000Y18855000D03*
X-235000Y18855000D03*
X-1035000Y18855000D03*
X-1835000Y18855000D03*
X-2635000Y18855000D03*
X-3435000Y18855000D03*
%TD*%
D30*
%TO.C,U2*%
X-10795000Y11365000D03*
X-12065000Y11365000D03*
X-13335000Y11365000D03*
X-14605000Y11365000D03*
X-14605000Y6415000D03*
X-13335000Y6415000D03*
X-12065000Y6415000D03*
X-10795000Y6415000D03*
%TD*%
D31*
%TO.C,Y1*%
X-18415000Y8695000D03*
X-18415000Y195000D03*
%TD*%
D32*
%TO.C,D1*%
X15390000Y13970000D03*
X13515000Y13970000D03*
%TD*%
M02*
