%TF.GenerationSoftware,KiCad,Pcbnew,5.1.9+dfsg1-1*%
%TF.CreationDate,2021-11-12T22:38:19+01:00*%
%TF.ProjectId,motor_board_v2,6d6f746f-725f-4626-9f61-72645f76322e,rev?*%
%TF.SameCoordinates,Original*%
%TF.FileFunction,Copper,L2,Bot*%
%TF.FilePolarity,Positive*%
%FSLAX46Y46*%
G04 Gerber Fmt 4.6, Leading zero omitted, Abs format (unit mm)*
G04 Created by KiCad (PCBNEW 5.1.9+dfsg1-1) date 2021-11-12 22:38:19*
%MOMM*%
%LPD*%
G01*
G04 APERTURE LIST*
%TA.AperFunction,ComponentPad*%
%ADD10R,1.600000X1.600000*%
%TD*%
%TA.AperFunction,ComponentPad*%
%ADD11C,1.600000*%
%TD*%
%TA.AperFunction,ComponentPad*%
%ADD12O,2.190000X1.740000*%
%TD*%
%TA.AperFunction,ComponentPad*%
%ADD13O,1.740000X2.190000*%
%TD*%
%TA.AperFunction,ComponentPad*%
%ADD14R,1.700000X1.700000*%
%TD*%
%TA.AperFunction,ComponentPad*%
%ADD15O,1.700000X1.700000*%
%TD*%
%TA.AperFunction,ComponentPad*%
%ADD16O,1.750000X1.200000*%
%TD*%
%TA.AperFunction,ComponentPad*%
%ADD17O,1.200000X1.750000*%
%TD*%
%TA.AperFunction,ComponentPad*%
%ADD18R,3.500000X3.500000*%
%TD*%
%TA.AperFunction,ComponentPad*%
%ADD19C,2.000000*%
%TD*%
%TA.AperFunction,ViaPad*%
%ADD20C,0.800000*%
%TD*%
%TA.AperFunction,Conductor*%
%ADD21C,0.250000*%
%TD*%
%TA.AperFunction,Conductor*%
%ADD22C,0.254000*%
%TD*%
%TA.AperFunction,Conductor*%
%ADD23C,0.100000*%
%TD*%
G04 APERTURE END LIST*
D10*
%TO.P,C1,1*%
%TO.N,+5V*%
X189992000Y-45212000D03*
D11*
%TO.P,C1,2*%
%TO.N,GND*%
X189992000Y-42712000D03*
%TD*%
%TO.P,C5,2*%
%TO.N,GND*%
X210820000Y-72684000D03*
D10*
%TO.P,C5,1*%
%TO.N,+12V*%
X210820000Y-75184000D03*
%TD*%
%TO.P,I2C,1*%
%TO.N,+5V*%
%TA.AperFunction,ComponentPad*%
G36*
G01*
X188043001Y-58274000D02*
X186352999Y-58274000D01*
G75*
G02*
X186103000Y-58024001I0J249999D01*
G01*
X186103000Y-56783999D01*
G75*
G02*
X186352999Y-56534000I249999J0D01*
G01*
X188043001Y-56534000D01*
G75*
G02*
X188293000Y-56783999I0J-249999D01*
G01*
X188293000Y-58024001D01*
G75*
G02*
X188043001Y-58274000I-249999J0D01*
G01*
G37*
%TD.AperFunction*%
D12*
%TO.P,I2C,2*%
%TO.N,/I2C_SDA*%
X187198000Y-54864000D03*
%TO.P,I2C,3*%
%TO.N,/I2C_SCL*%
X187198000Y-52324000D03*
%TO.P,I2C,4*%
%TO.N,GND*%
X187198000Y-49784000D03*
%TD*%
D13*
%TO.P,UART,4*%
%TO.N,GND*%
X204978000Y-83312000D03*
%TO.P,UART,3*%
%TO.N,/UART_RX*%
X202438000Y-83312000D03*
%TO.P,UART,2*%
%TO.N,/UART_TX*%
X199898000Y-83312000D03*
%TO.P,UART,1*%
%TO.N,Net-(J2-Pad1)*%
%TA.AperFunction,ComponentPad*%
G36*
G01*
X196488000Y-84157001D02*
X196488000Y-82466999D01*
G75*
G02*
X196737999Y-82217000I249999J0D01*
G01*
X197978001Y-82217000D01*
G75*
G02*
X198228000Y-82466999I0J-249999D01*
G01*
X198228000Y-84157001D01*
G75*
G02*
X197978001Y-84407000I-249999J0D01*
G01*
X196737999Y-84407000D01*
G75*
G02*
X196488000Y-84157001I0J249999D01*
G01*
G37*
%TD.AperFunction*%
%TD*%
D14*
%TO.P,ISP,1*%
%TO.N,/ENC1A*%
X217170000Y-58928000D03*
D15*
%TO.P,ISP,2*%
%TO.N,+5V*%
X219710000Y-58928000D03*
%TO.P,ISP,3*%
%TO.N,/ENC1B*%
X217170000Y-56388000D03*
%TO.P,ISP,4*%
%TO.N,/OC2A*%
X219710000Y-56388000D03*
%TO.P,ISP,5*%
%TO.N,/RST*%
X217170000Y-53848000D03*
%TO.P,ISP,6*%
%TO.N,GND*%
X219710000Y-53848000D03*
%TD*%
%TO.P,Motor 1,1*%
%TO.N,/ENC1B*%
%TA.AperFunction,ComponentPad*%
G36*
G01*
X189366999Y-62900000D02*
X190617001Y-62900000D01*
G75*
G02*
X190867000Y-63149999I0J-249999D01*
G01*
X190867000Y-63850001D01*
G75*
G02*
X190617001Y-64100000I-249999J0D01*
G01*
X189366999Y-64100000D01*
G75*
G02*
X189117000Y-63850001I0J249999D01*
G01*
X189117000Y-63149999D01*
G75*
G02*
X189366999Y-62900000I249999J0D01*
G01*
G37*
%TD.AperFunction*%
D16*
%TO.P,Motor 1,2*%
%TO.N,/ENC1A*%
X189992000Y-65500000D03*
%TO.P,Motor 1,3*%
%TO.N,GND*%
X189992000Y-67500000D03*
%TO.P,Motor 1,4*%
%TO.N,+5V*%
X189992000Y-69500000D03*
%TO.P,Motor 1,5*%
%TO.N,Net-(J4-Pad5)*%
X189992000Y-71500000D03*
%TO.P,Motor 1,6*%
%TO.N,Net-(J4-Pad6)*%
X189992000Y-73500000D03*
%TD*%
D17*
%TO.P,Motor 2,6*%
%TO.N,Net-(J5-Pad6)*%
X201836000Y-40132000D03*
%TO.P,Motor 2,5*%
%TO.N,Net-(J5-Pad5)*%
X203836000Y-40132000D03*
%TO.P,Motor 2,4*%
%TO.N,+5V*%
X205836000Y-40132000D03*
%TO.P,Motor 2,3*%
%TO.N,GND*%
X207836000Y-40132000D03*
%TO.P,Motor 2,2*%
%TO.N,/ENC2A*%
X209836000Y-40132000D03*
%TO.P,Motor 2,1*%
%TO.N,/ENC2B*%
%TA.AperFunction,ComponentPad*%
G36*
G01*
X212436000Y-39506999D02*
X212436000Y-40757001D01*
G75*
G02*
X212186001Y-41007000I-249999J0D01*
G01*
X211485999Y-41007000D01*
G75*
G02*
X211236000Y-40757001I0J249999D01*
G01*
X211236000Y-39506999D01*
G75*
G02*
X211485999Y-39257000I249999J0D01*
G01*
X212186001Y-39257000D01*
G75*
G02*
X212436000Y-39506999I0J-249999D01*
G01*
G37*
%TD.AperFunction*%
%TD*%
%TO.P,Motor 3,1*%
%TO.N,/ENC3B*%
%TA.AperFunction,ComponentPad*%
G36*
G01*
X224653001Y-74260000D02*
X223402999Y-74260000D01*
G75*
G02*
X223153000Y-74010001I0J249999D01*
G01*
X223153000Y-73309999D01*
G75*
G02*
X223402999Y-73060000I249999J0D01*
G01*
X224653001Y-73060000D01*
G75*
G02*
X224903000Y-73309999I0J-249999D01*
G01*
X224903000Y-74010001D01*
G75*
G02*
X224653001Y-74260000I-249999J0D01*
G01*
G37*
%TD.AperFunction*%
D16*
%TO.P,Motor 3,2*%
%TO.N,/ENC3A*%
X224028000Y-71660000D03*
%TO.P,Motor 3,3*%
%TO.N,GND*%
X224028000Y-69660000D03*
%TO.P,Motor 3,4*%
%TO.N,+5V*%
X224028000Y-67660000D03*
%TO.P,Motor 3,5*%
%TO.N,Net-(J6-Pad5)*%
X224028000Y-65660000D03*
%TO.P,Motor 3,6*%
%TO.N,Net-(J6-Pad6)*%
X224028000Y-63660000D03*
%TD*%
D18*
%TO.P,12V,1*%
%TO.N,+12V*%
X220980000Y-83566000D03*
%TO.P,12V,2*%
%TO.N,GND*%
%TA.AperFunction,ComponentPad*%
G36*
G01*
X228480000Y-82566000D02*
X228480000Y-84566000D01*
G75*
G02*
X227730000Y-85316000I-750000J0D01*
G01*
X226230000Y-85316000D01*
G75*
G02*
X225480000Y-84566000I0J750000D01*
G01*
X225480000Y-82566000D01*
G75*
G02*
X226230000Y-81816000I750000J0D01*
G01*
X227730000Y-81816000D01*
G75*
G02*
X228480000Y-82566000I0J-750000D01*
G01*
G37*
%TD.AperFunction*%
%TO.P,12V,3*%
%TO.N,N/C*%
%TA.AperFunction,ComponentPad*%
G36*
G01*
X225730000Y-77991000D02*
X225730000Y-79741000D01*
G75*
G02*
X224855000Y-80616000I-875000J0D01*
G01*
X223105000Y-80616000D01*
G75*
G02*
X222230000Y-79741000I0J875000D01*
G01*
X222230000Y-77991000D01*
G75*
G02*
X223105000Y-77116000I875000J0D01*
G01*
X224855000Y-77116000D01*
G75*
G02*
X225730000Y-77991000I0J-875000D01*
G01*
G37*
%TD.AperFunction*%
%TD*%
D19*
%TO.P,RESET,2*%
%TO.N,GND*%
X223012000Y-45030000D03*
%TO.P,RESET,1*%
%TO.N,/RST*%
X223012000Y-49530000D03*
%TO.P,RESET,2*%
%TO.N,GND*%
X216512000Y-45030000D03*
%TO.P,RESET,1*%
%TO.N,/RST*%
X216512000Y-49530000D03*
%TD*%
D20*
%TO.N,+5V*%
X215136000Y-62486000D03*
X211836000Y-65278000D03*
%TO.N,GND*%
X199644000Y-56896000D03*
X213868000Y-59436000D03*
%TO.N,/UART_RX*%
X204216000Y-53086000D03*
%TO.N,/UART_TX*%
X202692000Y-53594000D03*
%TO.N,/ENC1A*%
X210820000Y-64516000D03*
%TO.N,/ENC1B*%
X209550000Y-62230000D03*
X214374784Y-66235970D03*
%TO.N,/RST*%
X209042000Y-56896000D03*
%TO.N,/ENC2A*%
X213868000Y-56388000D03*
%TO.N,/ENC2B*%
X212852000Y-55372000D03*
%TO.N,/ENC3B*%
X207001992Y-58657980D03*
%TO.N,/ENC3A*%
X207010000Y-57658000D03*
%TO.N,/OC2B*%
X202506000Y-55050000D03*
X205740000Y-65278000D03*
%TO.N,/OC1A*%
X209296000Y-50292008D03*
X206429940Y-62019695D03*
%TO.N,/OC1B*%
X210316662Y-50287350D03*
X207264000Y-61214000D03*
%TO.N,/STATUS*%
X213614000Y-70866000D03*
X211582000Y-78232000D03*
%TD*%
D21*
%TO.N,+5V*%
X224028000Y-67660000D02*
X220310000Y-67660000D01*
X220310000Y-67660000D02*
X215136000Y-62486000D01*
X211836000Y-66097685D02*
X211836000Y-65278000D01*
X189992000Y-69500000D02*
X208433685Y-69500000D01*
X208433685Y-69500000D02*
X211836000Y-66097685D01*
%TO.N,/UART_RX*%
X204216000Y-53086000D02*
X203816001Y-52686001D01*
X203816001Y-52686001D02*
X195089588Y-52686001D01*
X195089588Y-52686001D02*
X186493989Y-61281600D01*
X186493989Y-61281600D02*
X186493989Y-74726179D01*
X186493989Y-74726179D02*
X196499820Y-84732010D01*
X196499820Y-84732010D02*
X201017990Y-84732010D01*
X201017990Y-84732010D02*
X202438000Y-83312000D01*
%TO.N,/UART_TX*%
X194413990Y-81891990D02*
X198477990Y-81891990D01*
X186944000Y-74422000D02*
X194413990Y-81891990D01*
X194818000Y-53594000D02*
X186944000Y-61468000D01*
X186944000Y-61468000D02*
X186944000Y-74422000D01*
X198477990Y-81891990D02*
X199898000Y-83312000D01*
X202692000Y-53594000D02*
X194818000Y-53594000D01*
%TO.N,/ENC1A*%
X191117000Y-65500000D02*
X193592000Y-67975000D01*
X189992000Y-65500000D02*
X191117000Y-65500000D01*
X193592000Y-67975000D02*
X208885000Y-67975000D01*
X208885000Y-67975000D02*
X210820000Y-66040000D01*
X210820000Y-66040000D02*
X210820000Y-64516000D01*
%TO.N,/ENC1B*%
X208573010Y-67524990D02*
X209550000Y-66548000D01*
X189992000Y-63500000D02*
X194016990Y-67524990D01*
X209550000Y-66548000D02*
X209550000Y-62230000D01*
X194016990Y-67524990D02*
X208573010Y-67524990D01*
X214085002Y-63913999D02*
X214085002Y-65946188D01*
X212401003Y-62230000D02*
X214085002Y-63913999D01*
X214085002Y-65946188D02*
X214374784Y-66235970D01*
X209550000Y-62230000D02*
X212401003Y-62230000D01*
%TO.N,/RST*%
X214033003Y-57295999D02*
X215138000Y-56191002D01*
X209441999Y-57295999D02*
X214033003Y-57295999D01*
X209042000Y-56896000D02*
X209441999Y-57295999D01*
X215138000Y-56191002D02*
X215138000Y-55118000D01*
X216408000Y-53848000D02*
X217170000Y-53848000D01*
X215138000Y-55118000D02*
X216408000Y-53848000D01*
X217170000Y-50188000D02*
X216512000Y-49530000D01*
X217170000Y-53848000D02*
X217170000Y-50188000D01*
%TO.N,/ENC2A*%
X211036010Y-38931990D02*
X209836000Y-40132000D01*
X212424180Y-38931990D02*
X211036010Y-38931990D01*
X213868000Y-40375810D02*
X212424180Y-38931990D01*
X213868000Y-56388000D02*
X213868000Y-40375810D01*
%TO.N,/ENC2B*%
X212852000Y-41148000D02*
X211836000Y-40132000D01*
X212852000Y-55372000D02*
X212852000Y-41148000D01*
%TO.N,/ENC3B*%
X224028000Y-73660000D02*
X214535012Y-64167012D01*
X214535012Y-64167012D02*
X214535012Y-63727599D01*
X207567677Y-58657980D02*
X207001992Y-58657980D01*
X209465393Y-58657980D02*
X207567677Y-58657980D01*
X214535012Y-63727599D02*
X209465393Y-58657980D01*
%TO.N,/ENC3A*%
X207138410Y-57658000D02*
X207010000Y-57658000D01*
X222903000Y-71660000D02*
X224028000Y-71660000D01*
X207010000Y-57658000D02*
X209101824Y-57658000D01*
X214985023Y-63541199D02*
X214985023Y-63795197D01*
X214985023Y-63795197D02*
X222849826Y-71660000D01*
X222849826Y-71660000D02*
X222903000Y-71660000D01*
X209101824Y-57658000D02*
X214985023Y-63541199D01*
%TO.N,/OC2B*%
X202506000Y-62044000D02*
X205740000Y-65278000D01*
X202506000Y-55050000D02*
X202506000Y-62044000D01*
%TO.N,/OC1A*%
X205580987Y-54007021D02*
X205580987Y-61170742D01*
X205580987Y-61170742D02*
X206429940Y-62019695D01*
X209296000Y-50292008D02*
X205580987Y-54007021D01*
%TO.N,/OC1B*%
X206030998Y-59980998D02*
X207264000Y-61214000D01*
X210316662Y-50853035D02*
X206030998Y-55138699D01*
X210316662Y-50287350D02*
X210316662Y-50853035D01*
X206030998Y-55138699D02*
X206030998Y-59980998D01*
%TO.N,/STATUS*%
X213614000Y-70866000D02*
X213614000Y-76200000D01*
X213614000Y-76200000D02*
X211582000Y-78232000D01*
X211582000Y-78232000D02*
X211582000Y-78232000D01*
%TD*%
D22*
%TO.N,GND*%
X230480001Y-88240000D02*
X183540000Y-88240000D01*
X183540000Y-86189117D01*
X183685000Y-86189117D01*
X183685000Y-86530883D01*
X183751675Y-86866081D01*
X183882463Y-87181831D01*
X184072337Y-87465998D01*
X184314002Y-87707663D01*
X184598169Y-87897537D01*
X184913919Y-88028325D01*
X185249117Y-88095000D01*
X185590883Y-88095000D01*
X185926081Y-88028325D01*
X186241831Y-87897537D01*
X186525998Y-87707663D01*
X186767663Y-87465998D01*
X186957537Y-87181831D01*
X187088325Y-86866081D01*
X187155000Y-86530883D01*
X187155000Y-86189117D01*
X187088325Y-85853919D01*
X186957537Y-85538169D01*
X186767663Y-85254002D01*
X186525998Y-85012337D01*
X186241831Y-84822463D01*
X185926081Y-84691675D01*
X185590883Y-84625000D01*
X185249117Y-84625000D01*
X184913919Y-84691675D01*
X184598169Y-84822463D01*
X184314002Y-85012337D01*
X184072337Y-85254002D01*
X183882463Y-85538169D01*
X183751675Y-85853919D01*
X183685000Y-86189117D01*
X183540000Y-86189117D01*
X183540000Y-52324000D01*
X185460718Y-52324000D01*
X185489776Y-52619032D01*
X185575834Y-52902725D01*
X185715583Y-53164179D01*
X185903655Y-53393345D01*
X186132821Y-53581417D01*
X186156362Y-53594000D01*
X186132821Y-53606583D01*
X185903655Y-53794655D01*
X185715583Y-54023821D01*
X185575834Y-54285275D01*
X185489776Y-54568968D01*
X185460718Y-54864000D01*
X185489776Y-55159032D01*
X185575834Y-55442725D01*
X185715583Y-55704179D01*
X185903655Y-55933345D01*
X185969114Y-55987066D01*
X185859613Y-56045595D01*
X185725038Y-56156038D01*
X185614595Y-56290613D01*
X185532528Y-56444149D01*
X185481992Y-56610745D01*
X185464928Y-56783999D01*
X185464928Y-58024001D01*
X185481992Y-58197255D01*
X185532528Y-58363851D01*
X185614595Y-58517387D01*
X185725038Y-58651962D01*
X185859613Y-58762405D01*
X186013149Y-58844472D01*
X186179745Y-58895008D01*
X186352999Y-58912072D01*
X187788716Y-58912072D01*
X185982992Y-60717796D01*
X185953988Y-60741599D01*
X185914494Y-60789723D01*
X185859015Y-60857324D01*
X185824577Y-60921753D01*
X185788443Y-60989354D01*
X185744986Y-61132615D01*
X185733989Y-61244268D01*
X185733989Y-61244278D01*
X185730313Y-61281600D01*
X185733989Y-61318922D01*
X185733990Y-74688847D01*
X185730313Y-74726179D01*
X185733990Y-74763512D01*
X185744987Y-74875165D01*
X185751936Y-74898072D01*
X185788443Y-75018425D01*
X185859015Y-75150455D01*
X185930190Y-75237181D01*
X185953989Y-75266180D01*
X185982987Y-75289978D01*
X195936021Y-85243013D01*
X195959819Y-85272011D01*
X195988817Y-85295809D01*
X196075543Y-85366984D01*
X196207573Y-85437556D01*
X196350834Y-85481013D01*
X196462487Y-85492010D01*
X196462497Y-85492010D01*
X196499820Y-85495686D01*
X196537143Y-85492010D01*
X200980668Y-85492010D01*
X201017990Y-85495686D01*
X201055312Y-85492010D01*
X201055323Y-85492010D01*
X201166976Y-85481013D01*
X201310237Y-85437556D01*
X201442266Y-85366984D01*
X201557991Y-85272011D01*
X201581793Y-85243008D01*
X201883337Y-84941465D01*
X202142969Y-85020224D01*
X202438000Y-85049282D01*
X202733032Y-85020224D01*
X203016725Y-84934166D01*
X203278179Y-84794417D01*
X203507345Y-84606345D01*
X203695417Y-84377179D01*
X203710560Y-84348848D01*
X203803292Y-84489433D01*
X204011674Y-84700306D01*
X204257191Y-84866474D01*
X204530409Y-84981551D01*
X204617969Y-84998302D01*
X204851000Y-84877246D01*
X204851000Y-83439000D01*
X205105000Y-83439000D01*
X205105000Y-84877246D01*
X205338031Y-84998302D01*
X205425591Y-84981551D01*
X205698809Y-84866474D01*
X205944326Y-84700306D01*
X206152708Y-84489433D01*
X206315947Y-84241958D01*
X206427769Y-83967392D01*
X206483877Y-83676286D01*
X206328376Y-83439000D01*
X205105000Y-83439000D01*
X204851000Y-83439000D01*
X204831000Y-83439000D01*
X204831000Y-83185000D01*
X204851000Y-83185000D01*
X204851000Y-81746754D01*
X205105000Y-81746754D01*
X205105000Y-83185000D01*
X206328376Y-83185000D01*
X206483877Y-82947714D01*
X206427769Y-82656608D01*
X206315947Y-82382042D01*
X206152708Y-82134567D01*
X205944326Y-81923694D01*
X205785206Y-81816000D01*
X218591928Y-81816000D01*
X218591928Y-85316000D01*
X218604188Y-85440482D01*
X218640498Y-85560180D01*
X218699463Y-85670494D01*
X218778815Y-85767185D01*
X218875506Y-85846537D01*
X218985820Y-85905502D01*
X219105518Y-85941812D01*
X219230000Y-85954072D01*
X222730000Y-85954072D01*
X222854482Y-85941812D01*
X222974180Y-85905502D01*
X223084494Y-85846537D01*
X223181185Y-85767185D01*
X223260537Y-85670494D01*
X223319502Y-85560180D01*
X223355812Y-85440482D01*
X223368072Y-85316000D01*
X224841928Y-85316000D01*
X224854188Y-85440482D01*
X224890498Y-85560180D01*
X224949463Y-85670494D01*
X225028815Y-85767185D01*
X225125506Y-85846537D01*
X225235820Y-85905502D01*
X225355518Y-85941812D01*
X225480000Y-85954072D01*
X226694250Y-85951000D01*
X226853000Y-85792250D01*
X226853000Y-83693000D01*
X227107000Y-83693000D01*
X227107000Y-85792250D01*
X227265750Y-85951000D01*
X228480000Y-85954072D01*
X228604482Y-85941812D01*
X228724180Y-85905502D01*
X228834494Y-85846537D01*
X228931185Y-85767185D01*
X229010537Y-85670494D01*
X229069502Y-85560180D01*
X229105812Y-85440482D01*
X229118072Y-85316000D01*
X229115000Y-83851750D01*
X228956250Y-83693000D01*
X227107000Y-83693000D01*
X226853000Y-83693000D01*
X225003750Y-83693000D01*
X224845000Y-83851750D01*
X224841928Y-85316000D01*
X223368072Y-85316000D01*
X223368072Y-81816000D01*
X224841928Y-81816000D01*
X224845000Y-83280250D01*
X225003750Y-83439000D01*
X226853000Y-83439000D01*
X226853000Y-81339750D01*
X227107000Y-81339750D01*
X227107000Y-83439000D01*
X228956250Y-83439000D01*
X229115000Y-83280250D01*
X229118072Y-81816000D01*
X229105812Y-81691518D01*
X229069502Y-81571820D01*
X229010537Y-81461506D01*
X228931185Y-81364815D01*
X228834494Y-81285463D01*
X228724180Y-81226498D01*
X228604482Y-81190188D01*
X228480000Y-81177928D01*
X227265750Y-81181000D01*
X227107000Y-81339750D01*
X226853000Y-81339750D01*
X226694250Y-81181000D01*
X225480000Y-81177928D01*
X225355518Y-81190188D01*
X225235820Y-81226498D01*
X225125506Y-81285463D01*
X225028815Y-81364815D01*
X224949463Y-81461506D01*
X224890498Y-81571820D01*
X224854188Y-81691518D01*
X224841928Y-81816000D01*
X223368072Y-81816000D01*
X223355812Y-81691518D01*
X223319502Y-81571820D01*
X223260537Y-81461506D01*
X223181185Y-81364815D01*
X223084494Y-81285463D01*
X223007869Y-81244506D01*
X223105000Y-81254072D01*
X224855000Y-81254072D01*
X225150186Y-81224999D01*
X225434028Y-81138896D01*
X225695618Y-80999073D01*
X225924903Y-80810903D01*
X226113073Y-80581618D01*
X226252896Y-80320028D01*
X226338999Y-80036186D01*
X226368072Y-79741000D01*
X226368072Y-77991000D01*
X226338999Y-77695814D01*
X226252896Y-77411972D01*
X226113073Y-77150382D01*
X225924903Y-76921097D01*
X225695618Y-76732927D01*
X225434028Y-76593104D01*
X225150186Y-76507001D01*
X224855000Y-76477928D01*
X223105000Y-76477928D01*
X222809814Y-76507001D01*
X222525972Y-76593104D01*
X222264382Y-76732927D01*
X222035097Y-76921097D01*
X221846927Y-77150382D01*
X221707104Y-77411972D01*
X221621001Y-77695814D01*
X221591928Y-77991000D01*
X221591928Y-79741000D01*
X221621001Y-80036186D01*
X221707104Y-80320028D01*
X221846927Y-80581618D01*
X222035097Y-80810903D01*
X222264382Y-80999073D01*
X222525972Y-81138896D01*
X222654643Y-81177928D01*
X219230000Y-81177928D01*
X219105518Y-81190188D01*
X218985820Y-81226498D01*
X218875506Y-81285463D01*
X218778815Y-81364815D01*
X218699463Y-81461506D01*
X218640498Y-81571820D01*
X218604188Y-81691518D01*
X218591928Y-81816000D01*
X205785206Y-81816000D01*
X205698809Y-81757526D01*
X205425591Y-81642449D01*
X205338031Y-81625698D01*
X205105000Y-81746754D01*
X204851000Y-81746754D01*
X204617969Y-81625698D01*
X204530409Y-81642449D01*
X204257191Y-81757526D01*
X204011674Y-81923694D01*
X203803292Y-82134567D01*
X203710560Y-82275152D01*
X203695417Y-82246821D01*
X203507345Y-82017655D01*
X203278178Y-81829583D01*
X203016724Y-81689834D01*
X202733031Y-81603776D01*
X202438000Y-81574718D01*
X202142968Y-81603776D01*
X201859275Y-81689834D01*
X201597821Y-81829583D01*
X201368655Y-82017655D01*
X201180583Y-82246822D01*
X201168000Y-82270363D01*
X201155417Y-82246821D01*
X200967345Y-82017655D01*
X200738178Y-81829583D01*
X200476724Y-81689834D01*
X200193031Y-81603776D01*
X199898000Y-81574718D01*
X199602968Y-81603776D01*
X199343336Y-81682535D01*
X199041793Y-81380992D01*
X199017991Y-81351989D01*
X198902266Y-81257016D01*
X198770237Y-81186444D01*
X198626976Y-81142987D01*
X198515323Y-81131990D01*
X198515312Y-81131990D01*
X198477990Y-81128314D01*
X198440668Y-81131990D01*
X194728792Y-81131990D01*
X191726863Y-78130061D01*
X210547000Y-78130061D01*
X210547000Y-78333939D01*
X210586774Y-78533898D01*
X210664795Y-78722256D01*
X210778063Y-78891774D01*
X210922226Y-79035937D01*
X211091744Y-79149205D01*
X211280102Y-79227226D01*
X211480061Y-79267000D01*
X211683939Y-79267000D01*
X211883898Y-79227226D01*
X212072256Y-79149205D01*
X212241774Y-79035937D01*
X212385937Y-78891774D01*
X212499205Y-78722256D01*
X212577226Y-78533898D01*
X212617000Y-78333939D01*
X212617000Y-78271801D01*
X214125003Y-76763799D01*
X214154001Y-76740001D01*
X214180332Y-76707917D01*
X214248974Y-76624277D01*
X214319546Y-76492247D01*
X214363003Y-76348986D01*
X214374000Y-76237333D01*
X214374000Y-76237323D01*
X214377676Y-76200000D01*
X214374000Y-76162677D01*
X214374000Y-71569711D01*
X214417937Y-71525774D01*
X214531205Y-71356256D01*
X214609226Y-71167898D01*
X214649000Y-70967939D01*
X214649000Y-70764061D01*
X214609226Y-70564102D01*
X214531205Y-70375744D01*
X214417937Y-70206226D01*
X214273774Y-70062063D01*
X214104256Y-69948795D01*
X213915898Y-69870774D01*
X213715939Y-69831000D01*
X213512061Y-69831000D01*
X213312102Y-69870774D01*
X213123744Y-69948795D01*
X212954226Y-70062063D01*
X212810063Y-70206226D01*
X212696795Y-70375744D01*
X212618774Y-70564102D01*
X212579000Y-70764061D01*
X212579000Y-70967939D01*
X212618774Y-71167898D01*
X212696795Y-71356256D01*
X212810063Y-71525774D01*
X212854000Y-71569711D01*
X212854001Y-75885197D01*
X211542199Y-77197000D01*
X211480061Y-77197000D01*
X211280102Y-77236774D01*
X211091744Y-77314795D01*
X210922226Y-77428063D01*
X210778063Y-77572226D01*
X210664795Y-77741744D01*
X210586774Y-77930102D01*
X210547000Y-78130061D01*
X191726863Y-78130061D01*
X187704000Y-74107199D01*
X187704000Y-61782801D01*
X195132802Y-54354000D01*
X201738289Y-54354000D01*
X201702063Y-54390226D01*
X201588795Y-54559744D01*
X201510774Y-54748102D01*
X201471000Y-54948061D01*
X201471000Y-55151939D01*
X201510774Y-55351898D01*
X201588795Y-55540256D01*
X201702063Y-55709774D01*
X201746000Y-55753711D01*
X201746001Y-62006668D01*
X201742324Y-62044000D01*
X201746001Y-62081333D01*
X201748133Y-62102974D01*
X201756998Y-62192985D01*
X201800454Y-62336246D01*
X201871026Y-62468276D01*
X201923240Y-62531898D01*
X201966000Y-62584001D01*
X201994998Y-62607799D01*
X204705000Y-65317802D01*
X204705000Y-65379939D01*
X204744774Y-65579898D01*
X204822795Y-65768256D01*
X204936063Y-65937774D01*
X205080226Y-66081937D01*
X205249744Y-66195205D01*
X205438102Y-66273226D01*
X205638061Y-66313000D01*
X205841939Y-66313000D01*
X206041898Y-66273226D01*
X206230256Y-66195205D01*
X206399774Y-66081937D01*
X206543937Y-65937774D01*
X206657205Y-65768256D01*
X206735226Y-65579898D01*
X206775000Y-65379939D01*
X206775000Y-65176061D01*
X206735226Y-64976102D01*
X206657205Y-64787744D01*
X206543937Y-64618226D01*
X206399774Y-64474063D01*
X206230256Y-64360795D01*
X206041898Y-64282774D01*
X205841939Y-64243000D01*
X205779802Y-64243000D01*
X203266000Y-61729199D01*
X203266000Y-55753711D01*
X203309937Y-55709774D01*
X203423205Y-55540256D01*
X203501226Y-55351898D01*
X203541000Y-55151939D01*
X203541000Y-54948061D01*
X203501226Y-54748102D01*
X203423205Y-54559744D01*
X203326412Y-54414883D01*
X203351774Y-54397937D01*
X203495937Y-54253774D01*
X203609205Y-54084256D01*
X203660763Y-53959786D01*
X203725744Y-54003205D01*
X203914102Y-54081226D01*
X204114061Y-54121000D01*
X204317939Y-54121000D01*
X204517898Y-54081226D01*
X204706256Y-54003205D01*
X204825536Y-53923505D01*
X204820987Y-53969689D01*
X204820987Y-53969699D01*
X204817311Y-54007021D01*
X204820987Y-54044344D01*
X204820988Y-61133410D01*
X204817311Y-61170742D01*
X204820988Y-61208075D01*
X204831985Y-61319728D01*
X204844177Y-61359921D01*
X204875441Y-61462988D01*
X204946013Y-61595018D01*
X204981514Y-61638275D01*
X205040987Y-61710743D01*
X205069985Y-61734541D01*
X205394940Y-62059496D01*
X205394940Y-62121634D01*
X205434714Y-62321593D01*
X205512735Y-62509951D01*
X205626003Y-62679469D01*
X205770166Y-62823632D01*
X205939684Y-62936900D01*
X206128042Y-63014921D01*
X206328001Y-63054695D01*
X206531879Y-63054695D01*
X206731838Y-63014921D01*
X206920196Y-62936900D01*
X207089714Y-62823632D01*
X207233877Y-62679469D01*
X207347145Y-62509951D01*
X207425166Y-62321593D01*
X207442640Y-62233743D01*
X207565898Y-62209226D01*
X207754256Y-62131205D01*
X207923774Y-62017937D01*
X208067937Y-61873774D01*
X208181205Y-61704256D01*
X208259226Y-61515898D01*
X208299000Y-61315939D01*
X208299000Y-61112061D01*
X208259226Y-60912102D01*
X208181205Y-60723744D01*
X208067937Y-60554226D01*
X207923774Y-60410063D01*
X207754256Y-60296795D01*
X207565898Y-60218774D01*
X207365939Y-60179000D01*
X207303802Y-60179000D01*
X206797353Y-59672552D01*
X206900053Y-59692980D01*
X207103931Y-59692980D01*
X207303890Y-59653206D01*
X207492248Y-59575185D01*
X207661766Y-59461917D01*
X207705703Y-59417980D01*
X209150592Y-59417980D01*
X211202612Y-61470000D01*
X210253711Y-61470000D01*
X210209774Y-61426063D01*
X210040256Y-61312795D01*
X209851898Y-61234774D01*
X209651939Y-61195000D01*
X209448061Y-61195000D01*
X209248102Y-61234774D01*
X209059744Y-61312795D01*
X208890226Y-61426063D01*
X208746063Y-61570226D01*
X208632795Y-61739744D01*
X208554774Y-61928102D01*
X208515000Y-62128061D01*
X208515000Y-62331939D01*
X208554774Y-62531898D01*
X208632795Y-62720256D01*
X208746063Y-62889774D01*
X208790001Y-62933712D01*
X208790000Y-66233198D01*
X208258209Y-66764990D01*
X194331793Y-66764990D01*
X191497158Y-63930356D01*
X191505072Y-63850001D01*
X191505072Y-63149999D01*
X191488008Y-62976745D01*
X191437472Y-62810149D01*
X191355405Y-62656613D01*
X191244962Y-62522038D01*
X191110387Y-62411595D01*
X190956851Y-62329528D01*
X190790255Y-62278992D01*
X190617001Y-62261928D01*
X189366999Y-62261928D01*
X189193745Y-62278992D01*
X189027149Y-62329528D01*
X188873613Y-62411595D01*
X188739038Y-62522038D01*
X188628595Y-62656613D01*
X188546528Y-62810149D01*
X188495992Y-62976745D01*
X188478928Y-63149999D01*
X188478928Y-63850001D01*
X188495992Y-64023255D01*
X188546528Y-64189851D01*
X188628595Y-64343387D01*
X188739038Y-64477962D01*
X188873613Y-64588405D01*
X188878111Y-64590809D01*
X188839498Y-64622498D01*
X188685167Y-64810551D01*
X188570489Y-65025099D01*
X188499870Y-65257898D01*
X188476025Y-65500000D01*
X188499870Y-65742102D01*
X188570489Y-65974901D01*
X188685167Y-66189449D01*
X188839498Y-66377502D01*
X188989348Y-66500481D01*
X188925275Y-66543693D01*
X188753922Y-66716526D01*
X188619579Y-66919467D01*
X188527409Y-67144718D01*
X188523538Y-67182391D01*
X188648269Y-67373000D01*
X189865000Y-67373000D01*
X189865000Y-67353000D01*
X190119000Y-67353000D01*
X190119000Y-67373000D01*
X191335731Y-67373000D01*
X191460462Y-67182391D01*
X191456591Y-67144718D01*
X191364421Y-66919467D01*
X191230078Y-66716526D01*
X191058725Y-66543693D01*
X190994652Y-66500481D01*
X191021031Y-66478832D01*
X193028201Y-68486003D01*
X193051999Y-68515001D01*
X193080997Y-68538799D01*
X193167724Y-68609974D01*
X193299753Y-68680546D01*
X193443014Y-68724003D01*
X193592000Y-68738677D01*
X193629333Y-68735000D01*
X208123884Y-68735000D01*
X208118884Y-68740000D01*
X191240933Y-68740000D01*
X191144502Y-68622498D01*
X190994652Y-68499519D01*
X191058725Y-68456307D01*
X191230078Y-68283474D01*
X191364421Y-68080533D01*
X191456591Y-67855282D01*
X191460462Y-67817609D01*
X191335731Y-67627000D01*
X190119000Y-67627000D01*
X190119000Y-67647000D01*
X189865000Y-67647000D01*
X189865000Y-67627000D01*
X188648269Y-67627000D01*
X188523538Y-67817609D01*
X188527409Y-67855282D01*
X188619579Y-68080533D01*
X188753922Y-68283474D01*
X188925275Y-68456307D01*
X188989348Y-68499519D01*
X188839498Y-68622498D01*
X188685167Y-68810551D01*
X188570489Y-69025099D01*
X188499870Y-69257898D01*
X188476025Y-69500000D01*
X188499870Y-69742102D01*
X188570489Y-69974901D01*
X188685167Y-70189449D01*
X188839498Y-70377502D01*
X188988762Y-70500000D01*
X188839498Y-70622498D01*
X188685167Y-70810551D01*
X188570489Y-71025099D01*
X188499870Y-71257898D01*
X188476025Y-71500000D01*
X188499870Y-71742102D01*
X188570489Y-71974901D01*
X188685167Y-72189449D01*
X188839498Y-72377502D01*
X188988762Y-72500000D01*
X188839498Y-72622498D01*
X188685167Y-72810551D01*
X188570489Y-73025099D01*
X188499870Y-73257898D01*
X188476025Y-73500000D01*
X188499870Y-73742102D01*
X188570489Y-73974901D01*
X188685167Y-74189449D01*
X188839498Y-74377502D01*
X189027551Y-74531833D01*
X189242099Y-74646511D01*
X189474898Y-74717130D01*
X189656335Y-74735000D01*
X190327665Y-74735000D01*
X190509102Y-74717130D01*
X190741901Y-74646511D01*
X190956449Y-74531833D01*
X191136584Y-74384000D01*
X209381928Y-74384000D01*
X209381928Y-75984000D01*
X209394188Y-76108482D01*
X209430498Y-76228180D01*
X209489463Y-76338494D01*
X209568815Y-76435185D01*
X209665506Y-76514537D01*
X209775820Y-76573502D01*
X209895518Y-76609812D01*
X210020000Y-76622072D01*
X211620000Y-76622072D01*
X211744482Y-76609812D01*
X211864180Y-76573502D01*
X211974494Y-76514537D01*
X212071185Y-76435185D01*
X212150537Y-76338494D01*
X212209502Y-76228180D01*
X212245812Y-76108482D01*
X212258072Y-75984000D01*
X212258072Y-74384000D01*
X212245812Y-74259518D01*
X212209502Y-74139820D01*
X212150537Y-74029506D01*
X212071185Y-73932815D01*
X211974494Y-73853463D01*
X211864180Y-73794498D01*
X211744482Y-73758188D01*
X211620000Y-73745928D01*
X211612785Y-73745928D01*
X211633097Y-73676702D01*
X210820000Y-72863605D01*
X210006903Y-73676702D01*
X210027215Y-73745928D01*
X210020000Y-73745928D01*
X209895518Y-73758188D01*
X209775820Y-73794498D01*
X209665506Y-73853463D01*
X209568815Y-73932815D01*
X209489463Y-74029506D01*
X209430498Y-74139820D01*
X209394188Y-74259518D01*
X209381928Y-74384000D01*
X191136584Y-74384000D01*
X191144502Y-74377502D01*
X191298833Y-74189449D01*
X191413511Y-73974901D01*
X191484130Y-73742102D01*
X191507975Y-73500000D01*
X191484130Y-73257898D01*
X191413511Y-73025099D01*
X191298833Y-72810551D01*
X191252844Y-72754512D01*
X209379783Y-72754512D01*
X209421213Y-73034130D01*
X209516397Y-73300292D01*
X209583329Y-73425514D01*
X209827298Y-73497097D01*
X210640395Y-72684000D01*
X210999605Y-72684000D01*
X211812702Y-73497097D01*
X212056671Y-73425514D01*
X212177571Y-73170004D01*
X212246300Y-72895816D01*
X212260217Y-72613488D01*
X212218787Y-72333870D01*
X212123603Y-72067708D01*
X212056671Y-71942486D01*
X211812702Y-71870903D01*
X210999605Y-72684000D01*
X210640395Y-72684000D01*
X209827298Y-71870903D01*
X209583329Y-71942486D01*
X209462429Y-72197996D01*
X209393700Y-72472184D01*
X209379783Y-72754512D01*
X191252844Y-72754512D01*
X191144502Y-72622498D01*
X190995238Y-72500000D01*
X191144502Y-72377502D01*
X191298833Y-72189449D01*
X191413511Y-71974901D01*
X191484130Y-71742102D01*
X191489133Y-71691298D01*
X210006903Y-71691298D01*
X210820000Y-72504395D01*
X211633097Y-71691298D01*
X211561514Y-71447329D01*
X211306004Y-71326429D01*
X211031816Y-71257700D01*
X210749488Y-71243783D01*
X210469870Y-71285213D01*
X210203708Y-71380397D01*
X210078486Y-71447329D01*
X210006903Y-71691298D01*
X191489133Y-71691298D01*
X191507975Y-71500000D01*
X191484130Y-71257898D01*
X191413511Y-71025099D01*
X191298833Y-70810551D01*
X191144502Y-70622498D01*
X190995238Y-70500000D01*
X191144502Y-70377502D01*
X191240933Y-70260000D01*
X208396363Y-70260000D01*
X208433685Y-70263676D01*
X208471007Y-70260000D01*
X208471018Y-70260000D01*
X208582671Y-70249003D01*
X208725932Y-70205546D01*
X208857961Y-70134974D01*
X208973686Y-70040001D01*
X208997489Y-70010997D01*
X212347004Y-66661483D01*
X212376001Y-66637686D01*
X212447140Y-66551003D01*
X212470974Y-66521962D01*
X212541546Y-66389932D01*
X212543055Y-66384956D01*
X212585003Y-66246671D01*
X212596000Y-66135018D01*
X212596000Y-66135008D01*
X212599676Y-66097686D01*
X212596000Y-66060363D01*
X212596000Y-65981711D01*
X212639937Y-65937774D01*
X212753205Y-65768256D01*
X212831226Y-65579898D01*
X212871000Y-65379939D01*
X212871000Y-65176061D01*
X212831226Y-64976102D01*
X212753205Y-64787744D01*
X212639937Y-64618226D01*
X212495774Y-64474063D01*
X212326256Y-64360795D01*
X212137898Y-64282774D01*
X211937939Y-64243000D01*
X211820974Y-64243000D01*
X211815226Y-64214102D01*
X211737205Y-64025744D01*
X211623937Y-63856226D01*
X211479774Y-63712063D01*
X211310256Y-63598795D01*
X211121898Y-63520774D01*
X210921939Y-63481000D01*
X210718061Y-63481000D01*
X210518102Y-63520774D01*
X210329744Y-63598795D01*
X210310000Y-63611987D01*
X210310000Y-62990000D01*
X212086202Y-62990000D01*
X213325002Y-64228801D01*
X213325003Y-65908856D01*
X213321326Y-65946188D01*
X213325003Y-65983521D01*
X213336000Y-66095174D01*
X213342953Y-66118097D01*
X213339784Y-66134031D01*
X213339784Y-66337909D01*
X213379558Y-66537868D01*
X213457579Y-66726226D01*
X213570847Y-66895744D01*
X213715010Y-67039907D01*
X213884528Y-67153175D01*
X214072886Y-67231196D01*
X214272845Y-67270970D01*
X214476723Y-67270970D01*
X214676682Y-67231196D01*
X214865040Y-67153175D01*
X215034558Y-67039907D01*
X215178721Y-66895744D01*
X215291989Y-66726226D01*
X215370010Y-66537868D01*
X215409784Y-66337909D01*
X215409784Y-66134031D01*
X215405452Y-66112254D01*
X222522842Y-73229645D01*
X222514928Y-73309999D01*
X222514928Y-74010001D01*
X222531992Y-74183255D01*
X222582528Y-74349851D01*
X222664595Y-74503387D01*
X222775038Y-74637962D01*
X222909613Y-74748405D01*
X223063149Y-74830472D01*
X223229745Y-74881008D01*
X223402999Y-74898072D01*
X224653001Y-74898072D01*
X224826255Y-74881008D01*
X224992851Y-74830472D01*
X225146387Y-74748405D01*
X225280962Y-74637962D01*
X225391405Y-74503387D01*
X225473472Y-74349851D01*
X225524008Y-74183255D01*
X225541072Y-74010001D01*
X225541072Y-73309999D01*
X225524008Y-73136745D01*
X225473472Y-72970149D01*
X225391405Y-72816613D01*
X225280962Y-72682038D01*
X225146387Y-72571595D01*
X225141889Y-72569191D01*
X225180502Y-72537502D01*
X225334833Y-72349449D01*
X225449511Y-72134901D01*
X225520130Y-71902102D01*
X225543975Y-71660000D01*
X225520130Y-71417898D01*
X225449511Y-71185099D01*
X225334833Y-70970551D01*
X225180502Y-70782498D01*
X225030652Y-70659519D01*
X225094725Y-70616307D01*
X225266078Y-70443474D01*
X225400421Y-70240533D01*
X225492591Y-70015282D01*
X225496462Y-69977609D01*
X225371731Y-69787000D01*
X224155000Y-69787000D01*
X224155000Y-69807000D01*
X223901000Y-69807000D01*
X223901000Y-69787000D01*
X222684269Y-69787000D01*
X222559538Y-69977609D01*
X222563409Y-70015282D01*
X222655579Y-70240533D01*
X222789922Y-70443474D01*
X222961275Y-70616307D01*
X223025348Y-70659519D01*
X222969764Y-70705136D01*
X220684628Y-68420000D01*
X222779067Y-68420000D01*
X222875498Y-68537502D01*
X223025348Y-68660481D01*
X222961275Y-68703693D01*
X222789922Y-68876526D01*
X222655579Y-69079467D01*
X222563409Y-69304718D01*
X222559538Y-69342391D01*
X222684269Y-69533000D01*
X223901000Y-69533000D01*
X223901000Y-69513000D01*
X224155000Y-69513000D01*
X224155000Y-69533000D01*
X225371731Y-69533000D01*
X225496462Y-69342391D01*
X225492591Y-69304718D01*
X225400421Y-69079467D01*
X225266078Y-68876526D01*
X225094725Y-68703693D01*
X225030652Y-68660481D01*
X225180502Y-68537502D01*
X225334833Y-68349449D01*
X225449511Y-68134901D01*
X225520130Y-67902102D01*
X225543975Y-67660000D01*
X225520130Y-67417898D01*
X225449511Y-67185099D01*
X225334833Y-66970551D01*
X225180502Y-66782498D01*
X225031238Y-66660000D01*
X225180502Y-66537502D01*
X225334833Y-66349449D01*
X225449511Y-66134901D01*
X225520130Y-65902102D01*
X225543975Y-65660000D01*
X225520130Y-65417898D01*
X225449511Y-65185099D01*
X225334833Y-64970551D01*
X225180502Y-64782498D01*
X225031238Y-64660000D01*
X225180502Y-64537502D01*
X225334833Y-64349449D01*
X225449511Y-64134901D01*
X225520130Y-63902102D01*
X225543975Y-63660000D01*
X225520130Y-63417898D01*
X225449511Y-63185099D01*
X225334833Y-62970551D01*
X225180502Y-62782498D01*
X224992449Y-62628167D01*
X224777901Y-62513489D01*
X224545102Y-62442870D01*
X224363665Y-62425000D01*
X223692335Y-62425000D01*
X223510898Y-62442870D01*
X223278099Y-62513489D01*
X223063551Y-62628167D01*
X222875498Y-62782498D01*
X222721167Y-62970551D01*
X222606489Y-63185099D01*
X222535870Y-63417898D01*
X222512025Y-63660000D01*
X222535870Y-63902102D01*
X222606489Y-64134901D01*
X222721167Y-64349449D01*
X222875498Y-64537502D01*
X223024762Y-64660000D01*
X222875498Y-64782498D01*
X222721167Y-64970551D01*
X222606489Y-65185099D01*
X222535870Y-65417898D01*
X222512025Y-65660000D01*
X222535870Y-65902102D01*
X222606489Y-66134901D01*
X222721167Y-66349449D01*
X222875498Y-66537502D01*
X223024762Y-66660000D01*
X222875498Y-66782498D01*
X222779067Y-66900000D01*
X220624802Y-66900000D01*
X216171000Y-62446199D01*
X216171000Y-62384061D01*
X216131226Y-62184102D01*
X216053205Y-61995744D01*
X215939937Y-61826226D01*
X215795774Y-61682063D01*
X215626256Y-61568795D01*
X215437898Y-61490774D01*
X215237939Y-61451000D01*
X215034061Y-61451000D01*
X214834102Y-61490774D01*
X214645744Y-61568795D01*
X214476226Y-61682063D01*
X214338457Y-61819832D01*
X210574624Y-58055999D01*
X213995681Y-58055999D01*
X214033003Y-58059675D01*
X214070325Y-58055999D01*
X214070336Y-58055999D01*
X214181989Y-58045002D01*
X214325250Y-58001545D01*
X214457279Y-57930973D01*
X214573004Y-57836000D01*
X214596807Y-57806997D01*
X215649004Y-56754800D01*
X215678001Y-56731003D01*
X215715135Y-56685756D01*
X215742068Y-56821158D01*
X215854010Y-57091411D01*
X216016525Y-57334632D01*
X216148380Y-57466487D01*
X216075820Y-57488498D01*
X215965506Y-57547463D01*
X215868815Y-57626815D01*
X215789463Y-57723506D01*
X215730498Y-57833820D01*
X215694188Y-57953518D01*
X215681928Y-58078000D01*
X215681928Y-59778000D01*
X215694188Y-59902482D01*
X215730498Y-60022180D01*
X215789463Y-60132494D01*
X215868815Y-60229185D01*
X215965506Y-60308537D01*
X216075820Y-60367502D01*
X216195518Y-60403812D01*
X216320000Y-60416072D01*
X218020000Y-60416072D01*
X218144482Y-60403812D01*
X218264180Y-60367502D01*
X218374494Y-60308537D01*
X218471185Y-60229185D01*
X218550537Y-60132494D01*
X218609502Y-60022180D01*
X218631513Y-59949620D01*
X218763368Y-60081475D01*
X219006589Y-60243990D01*
X219276842Y-60355932D01*
X219563740Y-60413000D01*
X219856260Y-60413000D01*
X220143158Y-60355932D01*
X220413411Y-60243990D01*
X220656632Y-60081475D01*
X220863475Y-59874632D01*
X221025990Y-59631411D01*
X221137932Y-59361158D01*
X221195000Y-59074260D01*
X221195000Y-58781740D01*
X221137932Y-58494842D01*
X221025990Y-58224589D01*
X220863475Y-57981368D01*
X220656632Y-57774525D01*
X220482240Y-57658000D01*
X220656632Y-57541475D01*
X220863475Y-57334632D01*
X221025990Y-57091411D01*
X221137932Y-56821158D01*
X221195000Y-56534260D01*
X221195000Y-56241740D01*
X221137932Y-55954842D01*
X221025990Y-55684589D01*
X220863475Y-55441368D01*
X220656632Y-55234525D01*
X220474466Y-55112805D01*
X220591355Y-55043178D01*
X220807588Y-54848269D01*
X220981641Y-54614920D01*
X221065377Y-54439117D01*
X226865000Y-54439117D01*
X226865000Y-54780883D01*
X226931675Y-55116081D01*
X227062463Y-55431831D01*
X227252337Y-55715998D01*
X227494002Y-55957663D01*
X227778169Y-56147537D01*
X228093919Y-56278325D01*
X228429117Y-56345000D01*
X228770883Y-56345000D01*
X229106081Y-56278325D01*
X229421831Y-56147537D01*
X229705998Y-55957663D01*
X229947663Y-55715998D01*
X230137537Y-55431831D01*
X230268325Y-55116081D01*
X230335000Y-54780883D01*
X230335000Y-54439117D01*
X230268325Y-54103919D01*
X230137537Y-53788169D01*
X229947663Y-53504002D01*
X229705998Y-53262337D01*
X229421831Y-53072463D01*
X229106081Y-52941675D01*
X228770883Y-52875000D01*
X228429117Y-52875000D01*
X228093919Y-52941675D01*
X227778169Y-53072463D01*
X227494002Y-53262337D01*
X227252337Y-53504002D01*
X227062463Y-53788169D01*
X226931675Y-54103919D01*
X226865000Y-54439117D01*
X221065377Y-54439117D01*
X221106825Y-54352099D01*
X221151476Y-54204890D01*
X221030155Y-53975000D01*
X219837000Y-53975000D01*
X219837000Y-53995000D01*
X219583000Y-53995000D01*
X219583000Y-53975000D01*
X219563000Y-53975000D01*
X219563000Y-53721000D01*
X219583000Y-53721000D01*
X219583000Y-52527186D01*
X219837000Y-52527186D01*
X219837000Y-53721000D01*
X221030155Y-53721000D01*
X221151476Y-53491110D01*
X221106825Y-53343901D01*
X220981641Y-53081080D01*
X220807588Y-52847731D01*
X220591355Y-52652822D01*
X220341252Y-52503843D01*
X220066891Y-52406519D01*
X219837000Y-52527186D01*
X219583000Y-52527186D01*
X219353109Y-52406519D01*
X219078748Y-52503843D01*
X218828645Y-52652822D01*
X218612412Y-52847731D01*
X218441100Y-53077406D01*
X218323475Y-52901368D01*
X218116632Y-52694525D01*
X217930000Y-52569822D01*
X217930000Y-50350735D01*
X217960918Y-50304463D01*
X218084168Y-50006912D01*
X218147000Y-49691033D01*
X218147000Y-49368967D01*
X221377000Y-49368967D01*
X221377000Y-49691033D01*
X221439832Y-50006912D01*
X221563082Y-50304463D01*
X221742013Y-50572252D01*
X221969748Y-50799987D01*
X222237537Y-50978918D01*
X222535088Y-51102168D01*
X222850967Y-51165000D01*
X223173033Y-51165000D01*
X223488912Y-51102168D01*
X223786463Y-50978918D01*
X224054252Y-50799987D01*
X224281987Y-50572252D01*
X224460918Y-50304463D01*
X224584168Y-50006912D01*
X224647000Y-49691033D01*
X224647000Y-49368967D01*
X224584168Y-49053088D01*
X224460918Y-48755537D01*
X224281987Y-48487748D01*
X224054252Y-48260013D01*
X223786463Y-48081082D01*
X223488912Y-47957832D01*
X223173033Y-47895000D01*
X222850967Y-47895000D01*
X222535088Y-47957832D01*
X222237537Y-48081082D01*
X221969748Y-48260013D01*
X221742013Y-48487748D01*
X221563082Y-48755537D01*
X221439832Y-49053088D01*
X221377000Y-49368967D01*
X218147000Y-49368967D01*
X218084168Y-49053088D01*
X217960918Y-48755537D01*
X217781987Y-48487748D01*
X217554252Y-48260013D01*
X217286463Y-48081082D01*
X216988912Y-47957832D01*
X216673033Y-47895000D01*
X216350967Y-47895000D01*
X216035088Y-47957832D01*
X215737537Y-48081082D01*
X215469748Y-48260013D01*
X215242013Y-48487748D01*
X215063082Y-48755537D01*
X214939832Y-49053088D01*
X214877000Y-49368967D01*
X214877000Y-49691033D01*
X214939832Y-50006912D01*
X215063082Y-50304463D01*
X215242013Y-50572252D01*
X215469748Y-50799987D01*
X215737537Y-50978918D01*
X216035088Y-51102168D01*
X216350967Y-51165000D01*
X216410001Y-51165000D01*
X216410000Y-52569821D01*
X216223368Y-52694525D01*
X216016525Y-52901368D01*
X215854010Y-53144589D01*
X215742068Y-53414842D01*
X215736037Y-53445161D01*
X214628000Y-54553199D01*
X214628000Y-46165413D01*
X215556192Y-46165413D01*
X215651956Y-46429814D01*
X215941571Y-46570704D01*
X216253108Y-46652384D01*
X216574595Y-46671718D01*
X216893675Y-46627961D01*
X217198088Y-46522795D01*
X217372044Y-46429814D01*
X217467808Y-46165413D01*
X222056192Y-46165413D01*
X222151956Y-46429814D01*
X222441571Y-46570704D01*
X222753108Y-46652384D01*
X223074595Y-46671718D01*
X223393675Y-46627961D01*
X223698088Y-46522795D01*
X223872044Y-46429814D01*
X223967808Y-46165413D01*
X223012000Y-45209605D01*
X222056192Y-46165413D01*
X217467808Y-46165413D01*
X216512000Y-45209605D01*
X215556192Y-46165413D01*
X214628000Y-46165413D01*
X214628000Y-45092595D01*
X214870282Y-45092595D01*
X214914039Y-45411675D01*
X215019205Y-45716088D01*
X215112186Y-45890044D01*
X215376587Y-45985808D01*
X216332395Y-45030000D01*
X216691605Y-45030000D01*
X217647413Y-45985808D01*
X217911814Y-45890044D01*
X218052704Y-45600429D01*
X218134384Y-45288892D01*
X218146189Y-45092595D01*
X221370282Y-45092595D01*
X221414039Y-45411675D01*
X221519205Y-45716088D01*
X221612186Y-45890044D01*
X221876587Y-45985808D01*
X222832395Y-45030000D01*
X223191605Y-45030000D01*
X224147413Y-45985808D01*
X224411814Y-45890044D01*
X224552704Y-45600429D01*
X224634384Y-45288892D01*
X224653718Y-44967405D01*
X224609961Y-44648325D01*
X224504795Y-44343912D01*
X224411814Y-44169956D01*
X224147413Y-44074192D01*
X223191605Y-45030000D01*
X222832395Y-45030000D01*
X221876587Y-44074192D01*
X221612186Y-44169956D01*
X221471296Y-44459571D01*
X221389616Y-44771108D01*
X221370282Y-45092595D01*
X218146189Y-45092595D01*
X218153718Y-44967405D01*
X218109961Y-44648325D01*
X218004795Y-44343912D01*
X217911814Y-44169956D01*
X217647413Y-44074192D01*
X216691605Y-45030000D01*
X216332395Y-45030000D01*
X215376587Y-44074192D01*
X215112186Y-44169956D01*
X214971296Y-44459571D01*
X214889616Y-44771108D01*
X214870282Y-45092595D01*
X214628000Y-45092595D01*
X214628000Y-43894587D01*
X215556192Y-43894587D01*
X216512000Y-44850395D01*
X217467808Y-43894587D01*
X222056192Y-43894587D01*
X223012000Y-44850395D01*
X223967808Y-43894587D01*
X223872044Y-43630186D01*
X223582429Y-43489296D01*
X223270892Y-43407616D01*
X222949405Y-43388282D01*
X222630325Y-43432039D01*
X222325912Y-43537205D01*
X222151956Y-43630186D01*
X222056192Y-43894587D01*
X217467808Y-43894587D01*
X217372044Y-43630186D01*
X217082429Y-43489296D01*
X216770892Y-43407616D01*
X216449405Y-43388282D01*
X216130325Y-43432039D01*
X215825912Y-43537205D01*
X215651956Y-43630186D01*
X215556192Y-43894587D01*
X214628000Y-43894587D01*
X214628000Y-40413133D01*
X214631676Y-40375810D01*
X214628000Y-40338487D01*
X214628000Y-40338477D01*
X214617003Y-40226824D01*
X214573546Y-40083563D01*
X214502974Y-39951534D01*
X214408001Y-39835809D01*
X214379003Y-39812011D01*
X212987984Y-38420993D01*
X212964181Y-38391989D01*
X212848456Y-38297016D01*
X212716427Y-38226444D01*
X212573166Y-38182987D01*
X212461513Y-38171990D01*
X212461502Y-38171990D01*
X212424180Y-38168314D01*
X212386858Y-38171990D01*
X211073332Y-38171990D01*
X211036009Y-38168314D01*
X210998686Y-38171990D01*
X210998677Y-38171990D01*
X210887024Y-38182987D01*
X210743763Y-38226444D01*
X210611734Y-38297016D01*
X210611732Y-38297017D01*
X210611733Y-38297017D01*
X210525006Y-38368191D01*
X210525002Y-38368195D01*
X210496009Y-38391989D01*
X210472215Y-38420982D01*
X210212545Y-38680653D01*
X210078102Y-38639870D01*
X209836000Y-38616025D01*
X209593899Y-38639870D01*
X209361100Y-38710489D01*
X209146552Y-38825167D01*
X208958499Y-38979498D01*
X208835520Y-39129349D01*
X208792307Y-39065275D01*
X208619474Y-38893922D01*
X208416533Y-38759579D01*
X208191282Y-38667409D01*
X208153609Y-38663538D01*
X207963000Y-38788269D01*
X207963000Y-40005000D01*
X207983000Y-40005000D01*
X207983000Y-40259000D01*
X207963000Y-40259000D01*
X207963000Y-41475731D01*
X208153609Y-41600462D01*
X208191282Y-41596591D01*
X208416533Y-41504421D01*
X208619474Y-41370078D01*
X208792307Y-41198725D01*
X208835519Y-41134651D01*
X208958498Y-41284502D01*
X209146551Y-41438833D01*
X209361099Y-41553511D01*
X209593898Y-41624130D01*
X209836000Y-41647975D01*
X210078101Y-41624130D01*
X210310900Y-41553511D01*
X210525448Y-41438833D01*
X210713502Y-41284502D01*
X210745191Y-41245889D01*
X210747595Y-41250387D01*
X210858038Y-41384962D01*
X210992613Y-41495405D01*
X211146149Y-41577472D01*
X211312745Y-41628008D01*
X211485999Y-41645072D01*
X212092001Y-41645072D01*
X212092000Y-54668289D01*
X212048063Y-54712226D01*
X211934795Y-54881744D01*
X211856774Y-55070102D01*
X211817000Y-55270061D01*
X211817000Y-55473939D01*
X211856774Y-55673898D01*
X211934795Y-55862256D01*
X212048063Y-56031774D01*
X212192226Y-56175937D01*
X212361744Y-56289205D01*
X212550102Y-56367226D01*
X212750061Y-56407000D01*
X212833000Y-56407000D01*
X212833000Y-56489939D01*
X212842162Y-56535999D01*
X210013159Y-56535999D01*
X209959205Y-56405744D01*
X209845937Y-56236226D01*
X209701774Y-56092063D01*
X209532256Y-55978795D01*
X209343898Y-55900774D01*
X209143939Y-55861000D01*
X208940061Y-55861000D01*
X208740102Y-55900774D01*
X208551744Y-55978795D01*
X208382226Y-56092063D01*
X208238063Y-56236226D01*
X208124795Y-56405744D01*
X208046774Y-56594102D01*
X208007000Y-56794061D01*
X208007000Y-56898000D01*
X207713711Y-56898000D01*
X207669774Y-56854063D01*
X207500256Y-56740795D01*
X207311898Y-56662774D01*
X207111939Y-56623000D01*
X206908061Y-56623000D01*
X206790998Y-56646285D01*
X206790998Y-55453500D01*
X210827665Y-51416834D01*
X210856663Y-51393036D01*
X210910851Y-51327008D01*
X210951636Y-51277312D01*
X211022208Y-51145282D01*
X211038587Y-51091287D01*
X211065649Y-51002074D01*
X211120599Y-50947124D01*
X211233867Y-50777606D01*
X211311888Y-50589248D01*
X211351662Y-50389289D01*
X211351662Y-50185411D01*
X211311888Y-49985452D01*
X211233867Y-49797094D01*
X211120599Y-49627576D01*
X210976436Y-49483413D01*
X210806918Y-49370145D01*
X210618560Y-49292124D01*
X210418601Y-49252350D01*
X210214723Y-49252350D01*
X210014764Y-49292124D01*
X209826406Y-49370145D01*
X209802845Y-49385888D01*
X209786256Y-49374803D01*
X209597898Y-49296782D01*
X209397939Y-49257008D01*
X209194061Y-49257008D01*
X208994102Y-49296782D01*
X208805744Y-49374803D01*
X208636226Y-49488071D01*
X208492063Y-49632234D01*
X208378795Y-49801752D01*
X208300774Y-49990110D01*
X208261000Y-50190069D01*
X208261000Y-50252206D01*
X205232559Y-53280648D01*
X205251000Y-53187939D01*
X205251000Y-52984061D01*
X205211226Y-52784102D01*
X205133205Y-52595744D01*
X205019937Y-52426226D01*
X204875774Y-52282063D01*
X204706256Y-52168795D01*
X204517898Y-52090774D01*
X204317939Y-52051000D01*
X204240226Y-52051000D01*
X204108248Y-51980455D01*
X203964987Y-51936998D01*
X203853334Y-51926001D01*
X203853323Y-51926001D01*
X203816001Y-51922325D01*
X203778679Y-51926001D01*
X195126913Y-51926001D01*
X195089588Y-51922325D01*
X195052263Y-51926001D01*
X195052255Y-51926001D01*
X194940602Y-51936998D01*
X194797341Y-51980455D01*
X194665312Y-52051027D01*
X194549587Y-52146000D01*
X194525789Y-52174998D01*
X188931072Y-57769716D01*
X188931072Y-56783999D01*
X188914008Y-56610745D01*
X188863472Y-56444149D01*
X188781405Y-56290613D01*
X188670962Y-56156038D01*
X188536387Y-56045595D01*
X188426886Y-55987066D01*
X188492345Y-55933345D01*
X188680417Y-55704179D01*
X188820166Y-55442725D01*
X188906224Y-55159032D01*
X188935282Y-54864000D01*
X188906224Y-54568968D01*
X188820166Y-54285275D01*
X188680417Y-54023821D01*
X188492345Y-53794655D01*
X188263179Y-53606583D01*
X188239638Y-53594000D01*
X188263179Y-53581417D01*
X188492345Y-53393345D01*
X188680417Y-53164179D01*
X188820166Y-52902725D01*
X188906224Y-52619032D01*
X188935282Y-52324000D01*
X188906224Y-52028968D01*
X188820166Y-51745275D01*
X188680417Y-51483821D01*
X188492345Y-51254655D01*
X188263179Y-51066583D01*
X188234848Y-51051440D01*
X188375433Y-50958708D01*
X188586306Y-50750326D01*
X188752474Y-50504809D01*
X188867551Y-50231591D01*
X188884302Y-50144031D01*
X188763246Y-49911000D01*
X187325000Y-49911000D01*
X187325000Y-49931000D01*
X187071000Y-49931000D01*
X187071000Y-49911000D01*
X185632754Y-49911000D01*
X185511698Y-50144031D01*
X185528449Y-50231591D01*
X185643526Y-50504809D01*
X185809694Y-50750326D01*
X186020567Y-50958708D01*
X186161152Y-51051440D01*
X186132821Y-51066583D01*
X185903655Y-51254655D01*
X185715583Y-51483821D01*
X185575834Y-51745275D01*
X185489776Y-52028968D01*
X185460718Y-52324000D01*
X183540000Y-52324000D01*
X183540000Y-49423969D01*
X185511698Y-49423969D01*
X185632754Y-49657000D01*
X187071000Y-49657000D01*
X187071000Y-48433624D01*
X187325000Y-48433624D01*
X187325000Y-49657000D01*
X188763246Y-49657000D01*
X188884302Y-49423969D01*
X188867551Y-49336409D01*
X188752474Y-49063191D01*
X188586306Y-48817674D01*
X188375433Y-48609292D01*
X188127958Y-48446053D01*
X187853392Y-48334231D01*
X187562286Y-48278123D01*
X187325000Y-48433624D01*
X187071000Y-48433624D01*
X186833714Y-48278123D01*
X186542608Y-48334231D01*
X186268042Y-48446053D01*
X186020567Y-48609292D01*
X185809694Y-48817674D01*
X185643526Y-49063191D01*
X185528449Y-49336409D01*
X185511698Y-49423969D01*
X183540000Y-49423969D01*
X183540000Y-44412000D01*
X188553928Y-44412000D01*
X188553928Y-46012000D01*
X188566188Y-46136482D01*
X188602498Y-46256180D01*
X188661463Y-46366494D01*
X188740815Y-46463185D01*
X188837506Y-46542537D01*
X188947820Y-46601502D01*
X189067518Y-46637812D01*
X189192000Y-46650072D01*
X190792000Y-46650072D01*
X190916482Y-46637812D01*
X191036180Y-46601502D01*
X191146494Y-46542537D01*
X191243185Y-46463185D01*
X191322537Y-46366494D01*
X191381502Y-46256180D01*
X191417812Y-46136482D01*
X191430072Y-46012000D01*
X191430072Y-44412000D01*
X191417812Y-44287518D01*
X191381502Y-44167820D01*
X191322537Y-44057506D01*
X191243185Y-43960815D01*
X191146494Y-43881463D01*
X191036180Y-43822498D01*
X190916482Y-43786188D01*
X190792000Y-43773928D01*
X190784785Y-43773928D01*
X190805097Y-43704702D01*
X189992000Y-42891605D01*
X189178903Y-43704702D01*
X189199215Y-43773928D01*
X189192000Y-43773928D01*
X189067518Y-43786188D01*
X188947820Y-43822498D01*
X188837506Y-43881463D01*
X188740815Y-43960815D01*
X188661463Y-44057506D01*
X188602498Y-44167820D01*
X188566188Y-44287518D01*
X188553928Y-44412000D01*
X183540000Y-44412000D01*
X183540000Y-42782512D01*
X188551783Y-42782512D01*
X188593213Y-43062130D01*
X188688397Y-43328292D01*
X188755329Y-43453514D01*
X188999298Y-43525097D01*
X189812395Y-42712000D01*
X190171605Y-42712000D01*
X190984702Y-43525097D01*
X191228671Y-43453514D01*
X191349571Y-43198004D01*
X191418300Y-42923816D01*
X191432217Y-42641488D01*
X191390787Y-42361870D01*
X191295603Y-42095708D01*
X191228671Y-41970486D01*
X190984702Y-41898903D01*
X190171605Y-42712000D01*
X189812395Y-42712000D01*
X188999298Y-41898903D01*
X188755329Y-41970486D01*
X188634429Y-42225996D01*
X188565700Y-42500184D01*
X188551783Y-42782512D01*
X183540000Y-42782512D01*
X183540000Y-41719298D01*
X189178903Y-41719298D01*
X189992000Y-42532395D01*
X190805097Y-41719298D01*
X190733514Y-41475329D01*
X190478004Y-41354429D01*
X190203816Y-41285700D01*
X189921488Y-41271783D01*
X189641870Y-41313213D01*
X189375708Y-41408397D01*
X189250486Y-41475329D01*
X189178903Y-41719298D01*
X183540000Y-41719298D01*
X183540000Y-39796335D01*
X200601000Y-39796335D01*
X200601000Y-40467664D01*
X200618870Y-40649101D01*
X200689489Y-40881900D01*
X200804167Y-41096448D01*
X200958498Y-41284502D01*
X201146551Y-41438833D01*
X201361099Y-41553511D01*
X201593898Y-41624130D01*
X201836000Y-41647975D01*
X202078101Y-41624130D01*
X202310900Y-41553511D01*
X202525448Y-41438833D01*
X202713502Y-41284502D01*
X202836000Y-41135237D01*
X202958498Y-41284502D01*
X203146551Y-41438833D01*
X203361099Y-41553511D01*
X203593898Y-41624130D01*
X203836000Y-41647975D01*
X204078101Y-41624130D01*
X204310900Y-41553511D01*
X204525448Y-41438833D01*
X204713502Y-41284502D01*
X204836000Y-41135237D01*
X204958498Y-41284502D01*
X205146551Y-41438833D01*
X205361099Y-41553511D01*
X205593898Y-41624130D01*
X205836000Y-41647975D01*
X206078101Y-41624130D01*
X206310900Y-41553511D01*
X206525448Y-41438833D01*
X206713502Y-41284502D01*
X206836481Y-41134652D01*
X206879693Y-41198725D01*
X207052526Y-41370078D01*
X207255467Y-41504421D01*
X207480718Y-41596591D01*
X207518391Y-41600462D01*
X207709000Y-41475731D01*
X207709000Y-40259000D01*
X207689000Y-40259000D01*
X207689000Y-40005000D01*
X207709000Y-40005000D01*
X207709000Y-38788269D01*
X207518391Y-38663538D01*
X207480718Y-38667409D01*
X207255467Y-38759579D01*
X207052526Y-38893922D01*
X206879693Y-39065275D01*
X206836481Y-39129348D01*
X206713502Y-38979498D01*
X206525449Y-38825167D01*
X206310901Y-38710489D01*
X206078102Y-38639870D01*
X205836000Y-38616025D01*
X205593899Y-38639870D01*
X205361100Y-38710489D01*
X205146552Y-38825167D01*
X204958499Y-38979498D01*
X204836001Y-39128763D01*
X204713502Y-38979498D01*
X204525449Y-38825167D01*
X204310901Y-38710489D01*
X204078102Y-38639870D01*
X203836000Y-38616025D01*
X203593899Y-38639870D01*
X203361100Y-38710489D01*
X203146552Y-38825167D01*
X202958499Y-38979498D01*
X202836001Y-39128763D01*
X202713502Y-38979498D01*
X202525449Y-38825167D01*
X202310901Y-38710489D01*
X202078102Y-38639870D01*
X201836000Y-38616025D01*
X201593899Y-38639870D01*
X201361100Y-38710489D01*
X201146552Y-38825167D01*
X200958499Y-38979498D01*
X200804168Y-39167551D01*
X200689489Y-39382099D01*
X200618870Y-39614898D01*
X200601000Y-39796335D01*
X183540000Y-39796335D01*
X183540000Y-35389117D01*
X183685000Y-35389117D01*
X183685000Y-35730883D01*
X183751675Y-36066081D01*
X183882463Y-36381831D01*
X184072337Y-36665998D01*
X184314002Y-36907663D01*
X184598169Y-37097537D01*
X184913919Y-37228325D01*
X185249117Y-37295000D01*
X185590883Y-37295000D01*
X185926081Y-37228325D01*
X186241831Y-37097537D01*
X186525998Y-36907663D01*
X186767663Y-36665998D01*
X186957537Y-36381831D01*
X187088325Y-36066081D01*
X187155000Y-35730883D01*
X187155000Y-35389117D01*
X187088325Y-35053919D01*
X186957537Y-34738169D01*
X186767663Y-34454002D01*
X186525998Y-34212337D01*
X186241831Y-34022463D01*
X185926081Y-33891675D01*
X185590883Y-33825000D01*
X185249117Y-33825000D01*
X184913919Y-33891675D01*
X184598169Y-34022463D01*
X184314002Y-34212337D01*
X184072337Y-34454002D01*
X183882463Y-34738169D01*
X183751675Y-35053919D01*
X183685000Y-35389117D01*
X183540000Y-35389117D01*
X183540000Y-33680000D01*
X230480000Y-33680000D01*
X230480001Y-88240000D01*
%TA.AperFunction,Conductor*%
D23*
G36*
X230480001Y-88240000D02*
G01*
X183540000Y-88240000D01*
X183540000Y-86189117D01*
X183685000Y-86189117D01*
X183685000Y-86530883D01*
X183751675Y-86866081D01*
X183882463Y-87181831D01*
X184072337Y-87465998D01*
X184314002Y-87707663D01*
X184598169Y-87897537D01*
X184913919Y-88028325D01*
X185249117Y-88095000D01*
X185590883Y-88095000D01*
X185926081Y-88028325D01*
X186241831Y-87897537D01*
X186525998Y-87707663D01*
X186767663Y-87465998D01*
X186957537Y-87181831D01*
X187088325Y-86866081D01*
X187155000Y-86530883D01*
X187155000Y-86189117D01*
X187088325Y-85853919D01*
X186957537Y-85538169D01*
X186767663Y-85254002D01*
X186525998Y-85012337D01*
X186241831Y-84822463D01*
X185926081Y-84691675D01*
X185590883Y-84625000D01*
X185249117Y-84625000D01*
X184913919Y-84691675D01*
X184598169Y-84822463D01*
X184314002Y-85012337D01*
X184072337Y-85254002D01*
X183882463Y-85538169D01*
X183751675Y-85853919D01*
X183685000Y-86189117D01*
X183540000Y-86189117D01*
X183540000Y-52324000D01*
X185460718Y-52324000D01*
X185489776Y-52619032D01*
X185575834Y-52902725D01*
X185715583Y-53164179D01*
X185903655Y-53393345D01*
X186132821Y-53581417D01*
X186156362Y-53594000D01*
X186132821Y-53606583D01*
X185903655Y-53794655D01*
X185715583Y-54023821D01*
X185575834Y-54285275D01*
X185489776Y-54568968D01*
X185460718Y-54864000D01*
X185489776Y-55159032D01*
X185575834Y-55442725D01*
X185715583Y-55704179D01*
X185903655Y-55933345D01*
X185969114Y-55987066D01*
X185859613Y-56045595D01*
X185725038Y-56156038D01*
X185614595Y-56290613D01*
X185532528Y-56444149D01*
X185481992Y-56610745D01*
X185464928Y-56783999D01*
X185464928Y-58024001D01*
X185481992Y-58197255D01*
X185532528Y-58363851D01*
X185614595Y-58517387D01*
X185725038Y-58651962D01*
X185859613Y-58762405D01*
X186013149Y-58844472D01*
X186179745Y-58895008D01*
X186352999Y-58912072D01*
X187788716Y-58912072D01*
X185982992Y-60717796D01*
X185953988Y-60741599D01*
X185914494Y-60789723D01*
X185859015Y-60857324D01*
X185824577Y-60921753D01*
X185788443Y-60989354D01*
X185744986Y-61132615D01*
X185733989Y-61244268D01*
X185733989Y-61244278D01*
X185730313Y-61281600D01*
X185733989Y-61318922D01*
X185733990Y-74688847D01*
X185730313Y-74726179D01*
X185733990Y-74763512D01*
X185744987Y-74875165D01*
X185751936Y-74898072D01*
X185788443Y-75018425D01*
X185859015Y-75150455D01*
X185930190Y-75237181D01*
X185953989Y-75266180D01*
X185982987Y-75289978D01*
X195936021Y-85243013D01*
X195959819Y-85272011D01*
X195988817Y-85295809D01*
X196075543Y-85366984D01*
X196207573Y-85437556D01*
X196350834Y-85481013D01*
X196462487Y-85492010D01*
X196462497Y-85492010D01*
X196499820Y-85495686D01*
X196537143Y-85492010D01*
X200980668Y-85492010D01*
X201017990Y-85495686D01*
X201055312Y-85492010D01*
X201055323Y-85492010D01*
X201166976Y-85481013D01*
X201310237Y-85437556D01*
X201442266Y-85366984D01*
X201557991Y-85272011D01*
X201581793Y-85243008D01*
X201883337Y-84941465D01*
X202142969Y-85020224D01*
X202438000Y-85049282D01*
X202733032Y-85020224D01*
X203016725Y-84934166D01*
X203278179Y-84794417D01*
X203507345Y-84606345D01*
X203695417Y-84377179D01*
X203710560Y-84348848D01*
X203803292Y-84489433D01*
X204011674Y-84700306D01*
X204257191Y-84866474D01*
X204530409Y-84981551D01*
X204617969Y-84998302D01*
X204851000Y-84877246D01*
X204851000Y-83439000D01*
X205105000Y-83439000D01*
X205105000Y-84877246D01*
X205338031Y-84998302D01*
X205425591Y-84981551D01*
X205698809Y-84866474D01*
X205944326Y-84700306D01*
X206152708Y-84489433D01*
X206315947Y-84241958D01*
X206427769Y-83967392D01*
X206483877Y-83676286D01*
X206328376Y-83439000D01*
X205105000Y-83439000D01*
X204851000Y-83439000D01*
X204831000Y-83439000D01*
X204831000Y-83185000D01*
X204851000Y-83185000D01*
X204851000Y-81746754D01*
X205105000Y-81746754D01*
X205105000Y-83185000D01*
X206328376Y-83185000D01*
X206483877Y-82947714D01*
X206427769Y-82656608D01*
X206315947Y-82382042D01*
X206152708Y-82134567D01*
X205944326Y-81923694D01*
X205785206Y-81816000D01*
X218591928Y-81816000D01*
X218591928Y-85316000D01*
X218604188Y-85440482D01*
X218640498Y-85560180D01*
X218699463Y-85670494D01*
X218778815Y-85767185D01*
X218875506Y-85846537D01*
X218985820Y-85905502D01*
X219105518Y-85941812D01*
X219230000Y-85954072D01*
X222730000Y-85954072D01*
X222854482Y-85941812D01*
X222974180Y-85905502D01*
X223084494Y-85846537D01*
X223181185Y-85767185D01*
X223260537Y-85670494D01*
X223319502Y-85560180D01*
X223355812Y-85440482D01*
X223368072Y-85316000D01*
X224841928Y-85316000D01*
X224854188Y-85440482D01*
X224890498Y-85560180D01*
X224949463Y-85670494D01*
X225028815Y-85767185D01*
X225125506Y-85846537D01*
X225235820Y-85905502D01*
X225355518Y-85941812D01*
X225480000Y-85954072D01*
X226694250Y-85951000D01*
X226853000Y-85792250D01*
X226853000Y-83693000D01*
X227107000Y-83693000D01*
X227107000Y-85792250D01*
X227265750Y-85951000D01*
X228480000Y-85954072D01*
X228604482Y-85941812D01*
X228724180Y-85905502D01*
X228834494Y-85846537D01*
X228931185Y-85767185D01*
X229010537Y-85670494D01*
X229069502Y-85560180D01*
X229105812Y-85440482D01*
X229118072Y-85316000D01*
X229115000Y-83851750D01*
X228956250Y-83693000D01*
X227107000Y-83693000D01*
X226853000Y-83693000D01*
X225003750Y-83693000D01*
X224845000Y-83851750D01*
X224841928Y-85316000D01*
X223368072Y-85316000D01*
X223368072Y-81816000D01*
X224841928Y-81816000D01*
X224845000Y-83280250D01*
X225003750Y-83439000D01*
X226853000Y-83439000D01*
X226853000Y-81339750D01*
X227107000Y-81339750D01*
X227107000Y-83439000D01*
X228956250Y-83439000D01*
X229115000Y-83280250D01*
X229118072Y-81816000D01*
X229105812Y-81691518D01*
X229069502Y-81571820D01*
X229010537Y-81461506D01*
X228931185Y-81364815D01*
X228834494Y-81285463D01*
X228724180Y-81226498D01*
X228604482Y-81190188D01*
X228480000Y-81177928D01*
X227265750Y-81181000D01*
X227107000Y-81339750D01*
X226853000Y-81339750D01*
X226694250Y-81181000D01*
X225480000Y-81177928D01*
X225355518Y-81190188D01*
X225235820Y-81226498D01*
X225125506Y-81285463D01*
X225028815Y-81364815D01*
X224949463Y-81461506D01*
X224890498Y-81571820D01*
X224854188Y-81691518D01*
X224841928Y-81816000D01*
X223368072Y-81816000D01*
X223355812Y-81691518D01*
X223319502Y-81571820D01*
X223260537Y-81461506D01*
X223181185Y-81364815D01*
X223084494Y-81285463D01*
X223007869Y-81244506D01*
X223105000Y-81254072D01*
X224855000Y-81254072D01*
X225150186Y-81224999D01*
X225434028Y-81138896D01*
X225695618Y-80999073D01*
X225924903Y-80810903D01*
X226113073Y-80581618D01*
X226252896Y-80320028D01*
X226338999Y-80036186D01*
X226368072Y-79741000D01*
X226368072Y-77991000D01*
X226338999Y-77695814D01*
X226252896Y-77411972D01*
X226113073Y-77150382D01*
X225924903Y-76921097D01*
X225695618Y-76732927D01*
X225434028Y-76593104D01*
X225150186Y-76507001D01*
X224855000Y-76477928D01*
X223105000Y-76477928D01*
X222809814Y-76507001D01*
X222525972Y-76593104D01*
X222264382Y-76732927D01*
X222035097Y-76921097D01*
X221846927Y-77150382D01*
X221707104Y-77411972D01*
X221621001Y-77695814D01*
X221591928Y-77991000D01*
X221591928Y-79741000D01*
X221621001Y-80036186D01*
X221707104Y-80320028D01*
X221846927Y-80581618D01*
X222035097Y-80810903D01*
X222264382Y-80999073D01*
X222525972Y-81138896D01*
X222654643Y-81177928D01*
X219230000Y-81177928D01*
X219105518Y-81190188D01*
X218985820Y-81226498D01*
X218875506Y-81285463D01*
X218778815Y-81364815D01*
X218699463Y-81461506D01*
X218640498Y-81571820D01*
X218604188Y-81691518D01*
X218591928Y-81816000D01*
X205785206Y-81816000D01*
X205698809Y-81757526D01*
X205425591Y-81642449D01*
X205338031Y-81625698D01*
X205105000Y-81746754D01*
X204851000Y-81746754D01*
X204617969Y-81625698D01*
X204530409Y-81642449D01*
X204257191Y-81757526D01*
X204011674Y-81923694D01*
X203803292Y-82134567D01*
X203710560Y-82275152D01*
X203695417Y-82246821D01*
X203507345Y-82017655D01*
X203278178Y-81829583D01*
X203016724Y-81689834D01*
X202733031Y-81603776D01*
X202438000Y-81574718D01*
X202142968Y-81603776D01*
X201859275Y-81689834D01*
X201597821Y-81829583D01*
X201368655Y-82017655D01*
X201180583Y-82246822D01*
X201168000Y-82270363D01*
X201155417Y-82246821D01*
X200967345Y-82017655D01*
X200738178Y-81829583D01*
X200476724Y-81689834D01*
X200193031Y-81603776D01*
X199898000Y-81574718D01*
X199602968Y-81603776D01*
X199343336Y-81682535D01*
X199041793Y-81380992D01*
X199017991Y-81351989D01*
X198902266Y-81257016D01*
X198770237Y-81186444D01*
X198626976Y-81142987D01*
X198515323Y-81131990D01*
X198515312Y-81131990D01*
X198477990Y-81128314D01*
X198440668Y-81131990D01*
X194728792Y-81131990D01*
X191726863Y-78130061D01*
X210547000Y-78130061D01*
X210547000Y-78333939D01*
X210586774Y-78533898D01*
X210664795Y-78722256D01*
X210778063Y-78891774D01*
X210922226Y-79035937D01*
X211091744Y-79149205D01*
X211280102Y-79227226D01*
X211480061Y-79267000D01*
X211683939Y-79267000D01*
X211883898Y-79227226D01*
X212072256Y-79149205D01*
X212241774Y-79035937D01*
X212385937Y-78891774D01*
X212499205Y-78722256D01*
X212577226Y-78533898D01*
X212617000Y-78333939D01*
X212617000Y-78271801D01*
X214125003Y-76763799D01*
X214154001Y-76740001D01*
X214180332Y-76707917D01*
X214248974Y-76624277D01*
X214319546Y-76492247D01*
X214363003Y-76348986D01*
X214374000Y-76237333D01*
X214374000Y-76237323D01*
X214377676Y-76200000D01*
X214374000Y-76162677D01*
X214374000Y-71569711D01*
X214417937Y-71525774D01*
X214531205Y-71356256D01*
X214609226Y-71167898D01*
X214649000Y-70967939D01*
X214649000Y-70764061D01*
X214609226Y-70564102D01*
X214531205Y-70375744D01*
X214417937Y-70206226D01*
X214273774Y-70062063D01*
X214104256Y-69948795D01*
X213915898Y-69870774D01*
X213715939Y-69831000D01*
X213512061Y-69831000D01*
X213312102Y-69870774D01*
X213123744Y-69948795D01*
X212954226Y-70062063D01*
X212810063Y-70206226D01*
X212696795Y-70375744D01*
X212618774Y-70564102D01*
X212579000Y-70764061D01*
X212579000Y-70967939D01*
X212618774Y-71167898D01*
X212696795Y-71356256D01*
X212810063Y-71525774D01*
X212854000Y-71569711D01*
X212854001Y-75885197D01*
X211542199Y-77197000D01*
X211480061Y-77197000D01*
X211280102Y-77236774D01*
X211091744Y-77314795D01*
X210922226Y-77428063D01*
X210778063Y-77572226D01*
X210664795Y-77741744D01*
X210586774Y-77930102D01*
X210547000Y-78130061D01*
X191726863Y-78130061D01*
X187704000Y-74107199D01*
X187704000Y-61782801D01*
X195132802Y-54354000D01*
X201738289Y-54354000D01*
X201702063Y-54390226D01*
X201588795Y-54559744D01*
X201510774Y-54748102D01*
X201471000Y-54948061D01*
X201471000Y-55151939D01*
X201510774Y-55351898D01*
X201588795Y-55540256D01*
X201702063Y-55709774D01*
X201746000Y-55753711D01*
X201746001Y-62006668D01*
X201742324Y-62044000D01*
X201746001Y-62081333D01*
X201748133Y-62102974D01*
X201756998Y-62192985D01*
X201800454Y-62336246D01*
X201871026Y-62468276D01*
X201923240Y-62531898D01*
X201966000Y-62584001D01*
X201994998Y-62607799D01*
X204705000Y-65317802D01*
X204705000Y-65379939D01*
X204744774Y-65579898D01*
X204822795Y-65768256D01*
X204936063Y-65937774D01*
X205080226Y-66081937D01*
X205249744Y-66195205D01*
X205438102Y-66273226D01*
X205638061Y-66313000D01*
X205841939Y-66313000D01*
X206041898Y-66273226D01*
X206230256Y-66195205D01*
X206399774Y-66081937D01*
X206543937Y-65937774D01*
X206657205Y-65768256D01*
X206735226Y-65579898D01*
X206775000Y-65379939D01*
X206775000Y-65176061D01*
X206735226Y-64976102D01*
X206657205Y-64787744D01*
X206543937Y-64618226D01*
X206399774Y-64474063D01*
X206230256Y-64360795D01*
X206041898Y-64282774D01*
X205841939Y-64243000D01*
X205779802Y-64243000D01*
X203266000Y-61729199D01*
X203266000Y-55753711D01*
X203309937Y-55709774D01*
X203423205Y-55540256D01*
X203501226Y-55351898D01*
X203541000Y-55151939D01*
X203541000Y-54948061D01*
X203501226Y-54748102D01*
X203423205Y-54559744D01*
X203326412Y-54414883D01*
X203351774Y-54397937D01*
X203495937Y-54253774D01*
X203609205Y-54084256D01*
X203660763Y-53959786D01*
X203725744Y-54003205D01*
X203914102Y-54081226D01*
X204114061Y-54121000D01*
X204317939Y-54121000D01*
X204517898Y-54081226D01*
X204706256Y-54003205D01*
X204825536Y-53923505D01*
X204820987Y-53969689D01*
X204820987Y-53969699D01*
X204817311Y-54007021D01*
X204820987Y-54044344D01*
X204820988Y-61133410D01*
X204817311Y-61170742D01*
X204820988Y-61208075D01*
X204831985Y-61319728D01*
X204844177Y-61359921D01*
X204875441Y-61462988D01*
X204946013Y-61595018D01*
X204981514Y-61638275D01*
X205040987Y-61710743D01*
X205069985Y-61734541D01*
X205394940Y-62059496D01*
X205394940Y-62121634D01*
X205434714Y-62321593D01*
X205512735Y-62509951D01*
X205626003Y-62679469D01*
X205770166Y-62823632D01*
X205939684Y-62936900D01*
X206128042Y-63014921D01*
X206328001Y-63054695D01*
X206531879Y-63054695D01*
X206731838Y-63014921D01*
X206920196Y-62936900D01*
X207089714Y-62823632D01*
X207233877Y-62679469D01*
X207347145Y-62509951D01*
X207425166Y-62321593D01*
X207442640Y-62233743D01*
X207565898Y-62209226D01*
X207754256Y-62131205D01*
X207923774Y-62017937D01*
X208067937Y-61873774D01*
X208181205Y-61704256D01*
X208259226Y-61515898D01*
X208299000Y-61315939D01*
X208299000Y-61112061D01*
X208259226Y-60912102D01*
X208181205Y-60723744D01*
X208067937Y-60554226D01*
X207923774Y-60410063D01*
X207754256Y-60296795D01*
X207565898Y-60218774D01*
X207365939Y-60179000D01*
X207303802Y-60179000D01*
X206797353Y-59672552D01*
X206900053Y-59692980D01*
X207103931Y-59692980D01*
X207303890Y-59653206D01*
X207492248Y-59575185D01*
X207661766Y-59461917D01*
X207705703Y-59417980D01*
X209150592Y-59417980D01*
X211202612Y-61470000D01*
X210253711Y-61470000D01*
X210209774Y-61426063D01*
X210040256Y-61312795D01*
X209851898Y-61234774D01*
X209651939Y-61195000D01*
X209448061Y-61195000D01*
X209248102Y-61234774D01*
X209059744Y-61312795D01*
X208890226Y-61426063D01*
X208746063Y-61570226D01*
X208632795Y-61739744D01*
X208554774Y-61928102D01*
X208515000Y-62128061D01*
X208515000Y-62331939D01*
X208554774Y-62531898D01*
X208632795Y-62720256D01*
X208746063Y-62889774D01*
X208790001Y-62933712D01*
X208790000Y-66233198D01*
X208258209Y-66764990D01*
X194331793Y-66764990D01*
X191497158Y-63930356D01*
X191505072Y-63850001D01*
X191505072Y-63149999D01*
X191488008Y-62976745D01*
X191437472Y-62810149D01*
X191355405Y-62656613D01*
X191244962Y-62522038D01*
X191110387Y-62411595D01*
X190956851Y-62329528D01*
X190790255Y-62278992D01*
X190617001Y-62261928D01*
X189366999Y-62261928D01*
X189193745Y-62278992D01*
X189027149Y-62329528D01*
X188873613Y-62411595D01*
X188739038Y-62522038D01*
X188628595Y-62656613D01*
X188546528Y-62810149D01*
X188495992Y-62976745D01*
X188478928Y-63149999D01*
X188478928Y-63850001D01*
X188495992Y-64023255D01*
X188546528Y-64189851D01*
X188628595Y-64343387D01*
X188739038Y-64477962D01*
X188873613Y-64588405D01*
X188878111Y-64590809D01*
X188839498Y-64622498D01*
X188685167Y-64810551D01*
X188570489Y-65025099D01*
X188499870Y-65257898D01*
X188476025Y-65500000D01*
X188499870Y-65742102D01*
X188570489Y-65974901D01*
X188685167Y-66189449D01*
X188839498Y-66377502D01*
X188989348Y-66500481D01*
X188925275Y-66543693D01*
X188753922Y-66716526D01*
X188619579Y-66919467D01*
X188527409Y-67144718D01*
X188523538Y-67182391D01*
X188648269Y-67373000D01*
X189865000Y-67373000D01*
X189865000Y-67353000D01*
X190119000Y-67353000D01*
X190119000Y-67373000D01*
X191335731Y-67373000D01*
X191460462Y-67182391D01*
X191456591Y-67144718D01*
X191364421Y-66919467D01*
X191230078Y-66716526D01*
X191058725Y-66543693D01*
X190994652Y-66500481D01*
X191021031Y-66478832D01*
X193028201Y-68486003D01*
X193051999Y-68515001D01*
X193080997Y-68538799D01*
X193167724Y-68609974D01*
X193299753Y-68680546D01*
X193443014Y-68724003D01*
X193592000Y-68738677D01*
X193629333Y-68735000D01*
X208123884Y-68735000D01*
X208118884Y-68740000D01*
X191240933Y-68740000D01*
X191144502Y-68622498D01*
X190994652Y-68499519D01*
X191058725Y-68456307D01*
X191230078Y-68283474D01*
X191364421Y-68080533D01*
X191456591Y-67855282D01*
X191460462Y-67817609D01*
X191335731Y-67627000D01*
X190119000Y-67627000D01*
X190119000Y-67647000D01*
X189865000Y-67647000D01*
X189865000Y-67627000D01*
X188648269Y-67627000D01*
X188523538Y-67817609D01*
X188527409Y-67855282D01*
X188619579Y-68080533D01*
X188753922Y-68283474D01*
X188925275Y-68456307D01*
X188989348Y-68499519D01*
X188839498Y-68622498D01*
X188685167Y-68810551D01*
X188570489Y-69025099D01*
X188499870Y-69257898D01*
X188476025Y-69500000D01*
X188499870Y-69742102D01*
X188570489Y-69974901D01*
X188685167Y-70189449D01*
X188839498Y-70377502D01*
X188988762Y-70500000D01*
X188839498Y-70622498D01*
X188685167Y-70810551D01*
X188570489Y-71025099D01*
X188499870Y-71257898D01*
X188476025Y-71500000D01*
X188499870Y-71742102D01*
X188570489Y-71974901D01*
X188685167Y-72189449D01*
X188839498Y-72377502D01*
X188988762Y-72500000D01*
X188839498Y-72622498D01*
X188685167Y-72810551D01*
X188570489Y-73025099D01*
X188499870Y-73257898D01*
X188476025Y-73500000D01*
X188499870Y-73742102D01*
X188570489Y-73974901D01*
X188685167Y-74189449D01*
X188839498Y-74377502D01*
X189027551Y-74531833D01*
X189242099Y-74646511D01*
X189474898Y-74717130D01*
X189656335Y-74735000D01*
X190327665Y-74735000D01*
X190509102Y-74717130D01*
X190741901Y-74646511D01*
X190956449Y-74531833D01*
X191136584Y-74384000D01*
X209381928Y-74384000D01*
X209381928Y-75984000D01*
X209394188Y-76108482D01*
X209430498Y-76228180D01*
X209489463Y-76338494D01*
X209568815Y-76435185D01*
X209665506Y-76514537D01*
X209775820Y-76573502D01*
X209895518Y-76609812D01*
X210020000Y-76622072D01*
X211620000Y-76622072D01*
X211744482Y-76609812D01*
X211864180Y-76573502D01*
X211974494Y-76514537D01*
X212071185Y-76435185D01*
X212150537Y-76338494D01*
X212209502Y-76228180D01*
X212245812Y-76108482D01*
X212258072Y-75984000D01*
X212258072Y-74384000D01*
X212245812Y-74259518D01*
X212209502Y-74139820D01*
X212150537Y-74029506D01*
X212071185Y-73932815D01*
X211974494Y-73853463D01*
X211864180Y-73794498D01*
X211744482Y-73758188D01*
X211620000Y-73745928D01*
X211612785Y-73745928D01*
X211633097Y-73676702D01*
X210820000Y-72863605D01*
X210006903Y-73676702D01*
X210027215Y-73745928D01*
X210020000Y-73745928D01*
X209895518Y-73758188D01*
X209775820Y-73794498D01*
X209665506Y-73853463D01*
X209568815Y-73932815D01*
X209489463Y-74029506D01*
X209430498Y-74139820D01*
X209394188Y-74259518D01*
X209381928Y-74384000D01*
X191136584Y-74384000D01*
X191144502Y-74377502D01*
X191298833Y-74189449D01*
X191413511Y-73974901D01*
X191484130Y-73742102D01*
X191507975Y-73500000D01*
X191484130Y-73257898D01*
X191413511Y-73025099D01*
X191298833Y-72810551D01*
X191252844Y-72754512D01*
X209379783Y-72754512D01*
X209421213Y-73034130D01*
X209516397Y-73300292D01*
X209583329Y-73425514D01*
X209827298Y-73497097D01*
X210640395Y-72684000D01*
X210999605Y-72684000D01*
X211812702Y-73497097D01*
X212056671Y-73425514D01*
X212177571Y-73170004D01*
X212246300Y-72895816D01*
X212260217Y-72613488D01*
X212218787Y-72333870D01*
X212123603Y-72067708D01*
X212056671Y-71942486D01*
X211812702Y-71870903D01*
X210999605Y-72684000D01*
X210640395Y-72684000D01*
X209827298Y-71870903D01*
X209583329Y-71942486D01*
X209462429Y-72197996D01*
X209393700Y-72472184D01*
X209379783Y-72754512D01*
X191252844Y-72754512D01*
X191144502Y-72622498D01*
X190995238Y-72500000D01*
X191144502Y-72377502D01*
X191298833Y-72189449D01*
X191413511Y-71974901D01*
X191484130Y-71742102D01*
X191489133Y-71691298D01*
X210006903Y-71691298D01*
X210820000Y-72504395D01*
X211633097Y-71691298D01*
X211561514Y-71447329D01*
X211306004Y-71326429D01*
X211031816Y-71257700D01*
X210749488Y-71243783D01*
X210469870Y-71285213D01*
X210203708Y-71380397D01*
X210078486Y-71447329D01*
X210006903Y-71691298D01*
X191489133Y-71691298D01*
X191507975Y-71500000D01*
X191484130Y-71257898D01*
X191413511Y-71025099D01*
X191298833Y-70810551D01*
X191144502Y-70622498D01*
X190995238Y-70500000D01*
X191144502Y-70377502D01*
X191240933Y-70260000D01*
X208396363Y-70260000D01*
X208433685Y-70263676D01*
X208471007Y-70260000D01*
X208471018Y-70260000D01*
X208582671Y-70249003D01*
X208725932Y-70205546D01*
X208857961Y-70134974D01*
X208973686Y-70040001D01*
X208997489Y-70010997D01*
X212347004Y-66661483D01*
X212376001Y-66637686D01*
X212447140Y-66551003D01*
X212470974Y-66521962D01*
X212541546Y-66389932D01*
X212543055Y-66384956D01*
X212585003Y-66246671D01*
X212596000Y-66135018D01*
X212596000Y-66135008D01*
X212599676Y-66097686D01*
X212596000Y-66060363D01*
X212596000Y-65981711D01*
X212639937Y-65937774D01*
X212753205Y-65768256D01*
X212831226Y-65579898D01*
X212871000Y-65379939D01*
X212871000Y-65176061D01*
X212831226Y-64976102D01*
X212753205Y-64787744D01*
X212639937Y-64618226D01*
X212495774Y-64474063D01*
X212326256Y-64360795D01*
X212137898Y-64282774D01*
X211937939Y-64243000D01*
X211820974Y-64243000D01*
X211815226Y-64214102D01*
X211737205Y-64025744D01*
X211623937Y-63856226D01*
X211479774Y-63712063D01*
X211310256Y-63598795D01*
X211121898Y-63520774D01*
X210921939Y-63481000D01*
X210718061Y-63481000D01*
X210518102Y-63520774D01*
X210329744Y-63598795D01*
X210310000Y-63611987D01*
X210310000Y-62990000D01*
X212086202Y-62990000D01*
X213325002Y-64228801D01*
X213325003Y-65908856D01*
X213321326Y-65946188D01*
X213325003Y-65983521D01*
X213336000Y-66095174D01*
X213342953Y-66118097D01*
X213339784Y-66134031D01*
X213339784Y-66337909D01*
X213379558Y-66537868D01*
X213457579Y-66726226D01*
X213570847Y-66895744D01*
X213715010Y-67039907D01*
X213884528Y-67153175D01*
X214072886Y-67231196D01*
X214272845Y-67270970D01*
X214476723Y-67270970D01*
X214676682Y-67231196D01*
X214865040Y-67153175D01*
X215034558Y-67039907D01*
X215178721Y-66895744D01*
X215291989Y-66726226D01*
X215370010Y-66537868D01*
X215409784Y-66337909D01*
X215409784Y-66134031D01*
X215405452Y-66112254D01*
X222522842Y-73229645D01*
X222514928Y-73309999D01*
X222514928Y-74010001D01*
X222531992Y-74183255D01*
X222582528Y-74349851D01*
X222664595Y-74503387D01*
X222775038Y-74637962D01*
X222909613Y-74748405D01*
X223063149Y-74830472D01*
X223229745Y-74881008D01*
X223402999Y-74898072D01*
X224653001Y-74898072D01*
X224826255Y-74881008D01*
X224992851Y-74830472D01*
X225146387Y-74748405D01*
X225280962Y-74637962D01*
X225391405Y-74503387D01*
X225473472Y-74349851D01*
X225524008Y-74183255D01*
X225541072Y-74010001D01*
X225541072Y-73309999D01*
X225524008Y-73136745D01*
X225473472Y-72970149D01*
X225391405Y-72816613D01*
X225280962Y-72682038D01*
X225146387Y-72571595D01*
X225141889Y-72569191D01*
X225180502Y-72537502D01*
X225334833Y-72349449D01*
X225449511Y-72134901D01*
X225520130Y-71902102D01*
X225543975Y-71660000D01*
X225520130Y-71417898D01*
X225449511Y-71185099D01*
X225334833Y-70970551D01*
X225180502Y-70782498D01*
X225030652Y-70659519D01*
X225094725Y-70616307D01*
X225266078Y-70443474D01*
X225400421Y-70240533D01*
X225492591Y-70015282D01*
X225496462Y-69977609D01*
X225371731Y-69787000D01*
X224155000Y-69787000D01*
X224155000Y-69807000D01*
X223901000Y-69807000D01*
X223901000Y-69787000D01*
X222684269Y-69787000D01*
X222559538Y-69977609D01*
X222563409Y-70015282D01*
X222655579Y-70240533D01*
X222789922Y-70443474D01*
X222961275Y-70616307D01*
X223025348Y-70659519D01*
X222969764Y-70705136D01*
X220684628Y-68420000D01*
X222779067Y-68420000D01*
X222875498Y-68537502D01*
X223025348Y-68660481D01*
X222961275Y-68703693D01*
X222789922Y-68876526D01*
X222655579Y-69079467D01*
X222563409Y-69304718D01*
X222559538Y-69342391D01*
X222684269Y-69533000D01*
X223901000Y-69533000D01*
X223901000Y-69513000D01*
X224155000Y-69513000D01*
X224155000Y-69533000D01*
X225371731Y-69533000D01*
X225496462Y-69342391D01*
X225492591Y-69304718D01*
X225400421Y-69079467D01*
X225266078Y-68876526D01*
X225094725Y-68703693D01*
X225030652Y-68660481D01*
X225180502Y-68537502D01*
X225334833Y-68349449D01*
X225449511Y-68134901D01*
X225520130Y-67902102D01*
X225543975Y-67660000D01*
X225520130Y-67417898D01*
X225449511Y-67185099D01*
X225334833Y-66970551D01*
X225180502Y-66782498D01*
X225031238Y-66660000D01*
X225180502Y-66537502D01*
X225334833Y-66349449D01*
X225449511Y-66134901D01*
X225520130Y-65902102D01*
X225543975Y-65660000D01*
X225520130Y-65417898D01*
X225449511Y-65185099D01*
X225334833Y-64970551D01*
X225180502Y-64782498D01*
X225031238Y-64660000D01*
X225180502Y-64537502D01*
X225334833Y-64349449D01*
X225449511Y-64134901D01*
X225520130Y-63902102D01*
X225543975Y-63660000D01*
X225520130Y-63417898D01*
X225449511Y-63185099D01*
X225334833Y-62970551D01*
X225180502Y-62782498D01*
X224992449Y-62628167D01*
X224777901Y-62513489D01*
X224545102Y-62442870D01*
X224363665Y-62425000D01*
X223692335Y-62425000D01*
X223510898Y-62442870D01*
X223278099Y-62513489D01*
X223063551Y-62628167D01*
X222875498Y-62782498D01*
X222721167Y-62970551D01*
X222606489Y-63185099D01*
X222535870Y-63417898D01*
X222512025Y-63660000D01*
X222535870Y-63902102D01*
X222606489Y-64134901D01*
X222721167Y-64349449D01*
X222875498Y-64537502D01*
X223024762Y-64660000D01*
X222875498Y-64782498D01*
X222721167Y-64970551D01*
X222606489Y-65185099D01*
X222535870Y-65417898D01*
X222512025Y-65660000D01*
X222535870Y-65902102D01*
X222606489Y-66134901D01*
X222721167Y-66349449D01*
X222875498Y-66537502D01*
X223024762Y-66660000D01*
X222875498Y-66782498D01*
X222779067Y-66900000D01*
X220624802Y-66900000D01*
X216171000Y-62446199D01*
X216171000Y-62384061D01*
X216131226Y-62184102D01*
X216053205Y-61995744D01*
X215939937Y-61826226D01*
X215795774Y-61682063D01*
X215626256Y-61568795D01*
X215437898Y-61490774D01*
X215237939Y-61451000D01*
X215034061Y-61451000D01*
X214834102Y-61490774D01*
X214645744Y-61568795D01*
X214476226Y-61682063D01*
X214338457Y-61819832D01*
X210574624Y-58055999D01*
X213995681Y-58055999D01*
X214033003Y-58059675D01*
X214070325Y-58055999D01*
X214070336Y-58055999D01*
X214181989Y-58045002D01*
X214325250Y-58001545D01*
X214457279Y-57930973D01*
X214573004Y-57836000D01*
X214596807Y-57806997D01*
X215649004Y-56754800D01*
X215678001Y-56731003D01*
X215715135Y-56685756D01*
X215742068Y-56821158D01*
X215854010Y-57091411D01*
X216016525Y-57334632D01*
X216148380Y-57466487D01*
X216075820Y-57488498D01*
X215965506Y-57547463D01*
X215868815Y-57626815D01*
X215789463Y-57723506D01*
X215730498Y-57833820D01*
X215694188Y-57953518D01*
X215681928Y-58078000D01*
X215681928Y-59778000D01*
X215694188Y-59902482D01*
X215730498Y-60022180D01*
X215789463Y-60132494D01*
X215868815Y-60229185D01*
X215965506Y-60308537D01*
X216075820Y-60367502D01*
X216195518Y-60403812D01*
X216320000Y-60416072D01*
X218020000Y-60416072D01*
X218144482Y-60403812D01*
X218264180Y-60367502D01*
X218374494Y-60308537D01*
X218471185Y-60229185D01*
X218550537Y-60132494D01*
X218609502Y-60022180D01*
X218631513Y-59949620D01*
X218763368Y-60081475D01*
X219006589Y-60243990D01*
X219276842Y-60355932D01*
X219563740Y-60413000D01*
X219856260Y-60413000D01*
X220143158Y-60355932D01*
X220413411Y-60243990D01*
X220656632Y-60081475D01*
X220863475Y-59874632D01*
X221025990Y-59631411D01*
X221137932Y-59361158D01*
X221195000Y-59074260D01*
X221195000Y-58781740D01*
X221137932Y-58494842D01*
X221025990Y-58224589D01*
X220863475Y-57981368D01*
X220656632Y-57774525D01*
X220482240Y-57658000D01*
X220656632Y-57541475D01*
X220863475Y-57334632D01*
X221025990Y-57091411D01*
X221137932Y-56821158D01*
X221195000Y-56534260D01*
X221195000Y-56241740D01*
X221137932Y-55954842D01*
X221025990Y-55684589D01*
X220863475Y-55441368D01*
X220656632Y-55234525D01*
X220474466Y-55112805D01*
X220591355Y-55043178D01*
X220807588Y-54848269D01*
X220981641Y-54614920D01*
X221065377Y-54439117D01*
X226865000Y-54439117D01*
X226865000Y-54780883D01*
X226931675Y-55116081D01*
X227062463Y-55431831D01*
X227252337Y-55715998D01*
X227494002Y-55957663D01*
X227778169Y-56147537D01*
X228093919Y-56278325D01*
X228429117Y-56345000D01*
X228770883Y-56345000D01*
X229106081Y-56278325D01*
X229421831Y-56147537D01*
X229705998Y-55957663D01*
X229947663Y-55715998D01*
X230137537Y-55431831D01*
X230268325Y-55116081D01*
X230335000Y-54780883D01*
X230335000Y-54439117D01*
X230268325Y-54103919D01*
X230137537Y-53788169D01*
X229947663Y-53504002D01*
X229705998Y-53262337D01*
X229421831Y-53072463D01*
X229106081Y-52941675D01*
X228770883Y-52875000D01*
X228429117Y-52875000D01*
X228093919Y-52941675D01*
X227778169Y-53072463D01*
X227494002Y-53262337D01*
X227252337Y-53504002D01*
X227062463Y-53788169D01*
X226931675Y-54103919D01*
X226865000Y-54439117D01*
X221065377Y-54439117D01*
X221106825Y-54352099D01*
X221151476Y-54204890D01*
X221030155Y-53975000D01*
X219837000Y-53975000D01*
X219837000Y-53995000D01*
X219583000Y-53995000D01*
X219583000Y-53975000D01*
X219563000Y-53975000D01*
X219563000Y-53721000D01*
X219583000Y-53721000D01*
X219583000Y-52527186D01*
X219837000Y-52527186D01*
X219837000Y-53721000D01*
X221030155Y-53721000D01*
X221151476Y-53491110D01*
X221106825Y-53343901D01*
X220981641Y-53081080D01*
X220807588Y-52847731D01*
X220591355Y-52652822D01*
X220341252Y-52503843D01*
X220066891Y-52406519D01*
X219837000Y-52527186D01*
X219583000Y-52527186D01*
X219353109Y-52406519D01*
X219078748Y-52503843D01*
X218828645Y-52652822D01*
X218612412Y-52847731D01*
X218441100Y-53077406D01*
X218323475Y-52901368D01*
X218116632Y-52694525D01*
X217930000Y-52569822D01*
X217930000Y-50350735D01*
X217960918Y-50304463D01*
X218084168Y-50006912D01*
X218147000Y-49691033D01*
X218147000Y-49368967D01*
X221377000Y-49368967D01*
X221377000Y-49691033D01*
X221439832Y-50006912D01*
X221563082Y-50304463D01*
X221742013Y-50572252D01*
X221969748Y-50799987D01*
X222237537Y-50978918D01*
X222535088Y-51102168D01*
X222850967Y-51165000D01*
X223173033Y-51165000D01*
X223488912Y-51102168D01*
X223786463Y-50978918D01*
X224054252Y-50799987D01*
X224281987Y-50572252D01*
X224460918Y-50304463D01*
X224584168Y-50006912D01*
X224647000Y-49691033D01*
X224647000Y-49368967D01*
X224584168Y-49053088D01*
X224460918Y-48755537D01*
X224281987Y-48487748D01*
X224054252Y-48260013D01*
X223786463Y-48081082D01*
X223488912Y-47957832D01*
X223173033Y-47895000D01*
X222850967Y-47895000D01*
X222535088Y-47957832D01*
X222237537Y-48081082D01*
X221969748Y-48260013D01*
X221742013Y-48487748D01*
X221563082Y-48755537D01*
X221439832Y-49053088D01*
X221377000Y-49368967D01*
X218147000Y-49368967D01*
X218084168Y-49053088D01*
X217960918Y-48755537D01*
X217781987Y-48487748D01*
X217554252Y-48260013D01*
X217286463Y-48081082D01*
X216988912Y-47957832D01*
X216673033Y-47895000D01*
X216350967Y-47895000D01*
X216035088Y-47957832D01*
X215737537Y-48081082D01*
X215469748Y-48260013D01*
X215242013Y-48487748D01*
X215063082Y-48755537D01*
X214939832Y-49053088D01*
X214877000Y-49368967D01*
X214877000Y-49691033D01*
X214939832Y-50006912D01*
X215063082Y-50304463D01*
X215242013Y-50572252D01*
X215469748Y-50799987D01*
X215737537Y-50978918D01*
X216035088Y-51102168D01*
X216350967Y-51165000D01*
X216410001Y-51165000D01*
X216410000Y-52569821D01*
X216223368Y-52694525D01*
X216016525Y-52901368D01*
X215854010Y-53144589D01*
X215742068Y-53414842D01*
X215736037Y-53445161D01*
X214628000Y-54553199D01*
X214628000Y-46165413D01*
X215556192Y-46165413D01*
X215651956Y-46429814D01*
X215941571Y-46570704D01*
X216253108Y-46652384D01*
X216574595Y-46671718D01*
X216893675Y-46627961D01*
X217198088Y-46522795D01*
X217372044Y-46429814D01*
X217467808Y-46165413D01*
X222056192Y-46165413D01*
X222151956Y-46429814D01*
X222441571Y-46570704D01*
X222753108Y-46652384D01*
X223074595Y-46671718D01*
X223393675Y-46627961D01*
X223698088Y-46522795D01*
X223872044Y-46429814D01*
X223967808Y-46165413D01*
X223012000Y-45209605D01*
X222056192Y-46165413D01*
X217467808Y-46165413D01*
X216512000Y-45209605D01*
X215556192Y-46165413D01*
X214628000Y-46165413D01*
X214628000Y-45092595D01*
X214870282Y-45092595D01*
X214914039Y-45411675D01*
X215019205Y-45716088D01*
X215112186Y-45890044D01*
X215376587Y-45985808D01*
X216332395Y-45030000D01*
X216691605Y-45030000D01*
X217647413Y-45985808D01*
X217911814Y-45890044D01*
X218052704Y-45600429D01*
X218134384Y-45288892D01*
X218146189Y-45092595D01*
X221370282Y-45092595D01*
X221414039Y-45411675D01*
X221519205Y-45716088D01*
X221612186Y-45890044D01*
X221876587Y-45985808D01*
X222832395Y-45030000D01*
X223191605Y-45030000D01*
X224147413Y-45985808D01*
X224411814Y-45890044D01*
X224552704Y-45600429D01*
X224634384Y-45288892D01*
X224653718Y-44967405D01*
X224609961Y-44648325D01*
X224504795Y-44343912D01*
X224411814Y-44169956D01*
X224147413Y-44074192D01*
X223191605Y-45030000D01*
X222832395Y-45030000D01*
X221876587Y-44074192D01*
X221612186Y-44169956D01*
X221471296Y-44459571D01*
X221389616Y-44771108D01*
X221370282Y-45092595D01*
X218146189Y-45092595D01*
X218153718Y-44967405D01*
X218109961Y-44648325D01*
X218004795Y-44343912D01*
X217911814Y-44169956D01*
X217647413Y-44074192D01*
X216691605Y-45030000D01*
X216332395Y-45030000D01*
X215376587Y-44074192D01*
X215112186Y-44169956D01*
X214971296Y-44459571D01*
X214889616Y-44771108D01*
X214870282Y-45092595D01*
X214628000Y-45092595D01*
X214628000Y-43894587D01*
X215556192Y-43894587D01*
X216512000Y-44850395D01*
X217467808Y-43894587D01*
X222056192Y-43894587D01*
X223012000Y-44850395D01*
X223967808Y-43894587D01*
X223872044Y-43630186D01*
X223582429Y-43489296D01*
X223270892Y-43407616D01*
X222949405Y-43388282D01*
X222630325Y-43432039D01*
X222325912Y-43537205D01*
X222151956Y-43630186D01*
X222056192Y-43894587D01*
X217467808Y-43894587D01*
X217372044Y-43630186D01*
X217082429Y-43489296D01*
X216770892Y-43407616D01*
X216449405Y-43388282D01*
X216130325Y-43432039D01*
X215825912Y-43537205D01*
X215651956Y-43630186D01*
X215556192Y-43894587D01*
X214628000Y-43894587D01*
X214628000Y-40413133D01*
X214631676Y-40375810D01*
X214628000Y-40338487D01*
X214628000Y-40338477D01*
X214617003Y-40226824D01*
X214573546Y-40083563D01*
X214502974Y-39951534D01*
X214408001Y-39835809D01*
X214379003Y-39812011D01*
X212987984Y-38420993D01*
X212964181Y-38391989D01*
X212848456Y-38297016D01*
X212716427Y-38226444D01*
X212573166Y-38182987D01*
X212461513Y-38171990D01*
X212461502Y-38171990D01*
X212424180Y-38168314D01*
X212386858Y-38171990D01*
X211073332Y-38171990D01*
X211036009Y-38168314D01*
X210998686Y-38171990D01*
X210998677Y-38171990D01*
X210887024Y-38182987D01*
X210743763Y-38226444D01*
X210611734Y-38297016D01*
X210611732Y-38297017D01*
X210611733Y-38297017D01*
X210525006Y-38368191D01*
X210525002Y-38368195D01*
X210496009Y-38391989D01*
X210472215Y-38420982D01*
X210212545Y-38680653D01*
X210078102Y-38639870D01*
X209836000Y-38616025D01*
X209593899Y-38639870D01*
X209361100Y-38710489D01*
X209146552Y-38825167D01*
X208958499Y-38979498D01*
X208835520Y-39129349D01*
X208792307Y-39065275D01*
X208619474Y-38893922D01*
X208416533Y-38759579D01*
X208191282Y-38667409D01*
X208153609Y-38663538D01*
X207963000Y-38788269D01*
X207963000Y-40005000D01*
X207983000Y-40005000D01*
X207983000Y-40259000D01*
X207963000Y-40259000D01*
X207963000Y-41475731D01*
X208153609Y-41600462D01*
X208191282Y-41596591D01*
X208416533Y-41504421D01*
X208619474Y-41370078D01*
X208792307Y-41198725D01*
X208835519Y-41134651D01*
X208958498Y-41284502D01*
X209146551Y-41438833D01*
X209361099Y-41553511D01*
X209593898Y-41624130D01*
X209836000Y-41647975D01*
X210078101Y-41624130D01*
X210310900Y-41553511D01*
X210525448Y-41438833D01*
X210713502Y-41284502D01*
X210745191Y-41245889D01*
X210747595Y-41250387D01*
X210858038Y-41384962D01*
X210992613Y-41495405D01*
X211146149Y-41577472D01*
X211312745Y-41628008D01*
X211485999Y-41645072D01*
X212092001Y-41645072D01*
X212092000Y-54668289D01*
X212048063Y-54712226D01*
X211934795Y-54881744D01*
X211856774Y-55070102D01*
X211817000Y-55270061D01*
X211817000Y-55473939D01*
X211856774Y-55673898D01*
X211934795Y-55862256D01*
X212048063Y-56031774D01*
X212192226Y-56175937D01*
X212361744Y-56289205D01*
X212550102Y-56367226D01*
X212750061Y-56407000D01*
X212833000Y-56407000D01*
X212833000Y-56489939D01*
X212842162Y-56535999D01*
X210013159Y-56535999D01*
X209959205Y-56405744D01*
X209845937Y-56236226D01*
X209701774Y-56092063D01*
X209532256Y-55978795D01*
X209343898Y-55900774D01*
X209143939Y-55861000D01*
X208940061Y-55861000D01*
X208740102Y-55900774D01*
X208551744Y-55978795D01*
X208382226Y-56092063D01*
X208238063Y-56236226D01*
X208124795Y-56405744D01*
X208046774Y-56594102D01*
X208007000Y-56794061D01*
X208007000Y-56898000D01*
X207713711Y-56898000D01*
X207669774Y-56854063D01*
X207500256Y-56740795D01*
X207311898Y-56662774D01*
X207111939Y-56623000D01*
X206908061Y-56623000D01*
X206790998Y-56646285D01*
X206790998Y-55453500D01*
X210827665Y-51416834D01*
X210856663Y-51393036D01*
X210910851Y-51327008D01*
X210951636Y-51277312D01*
X211022208Y-51145282D01*
X211038587Y-51091287D01*
X211065649Y-51002074D01*
X211120599Y-50947124D01*
X211233867Y-50777606D01*
X211311888Y-50589248D01*
X211351662Y-50389289D01*
X211351662Y-50185411D01*
X211311888Y-49985452D01*
X211233867Y-49797094D01*
X211120599Y-49627576D01*
X210976436Y-49483413D01*
X210806918Y-49370145D01*
X210618560Y-49292124D01*
X210418601Y-49252350D01*
X210214723Y-49252350D01*
X210014764Y-49292124D01*
X209826406Y-49370145D01*
X209802845Y-49385888D01*
X209786256Y-49374803D01*
X209597898Y-49296782D01*
X209397939Y-49257008D01*
X209194061Y-49257008D01*
X208994102Y-49296782D01*
X208805744Y-49374803D01*
X208636226Y-49488071D01*
X208492063Y-49632234D01*
X208378795Y-49801752D01*
X208300774Y-49990110D01*
X208261000Y-50190069D01*
X208261000Y-50252206D01*
X205232559Y-53280648D01*
X205251000Y-53187939D01*
X205251000Y-52984061D01*
X205211226Y-52784102D01*
X205133205Y-52595744D01*
X205019937Y-52426226D01*
X204875774Y-52282063D01*
X204706256Y-52168795D01*
X204517898Y-52090774D01*
X204317939Y-52051000D01*
X204240226Y-52051000D01*
X204108248Y-51980455D01*
X203964987Y-51936998D01*
X203853334Y-51926001D01*
X203853323Y-51926001D01*
X203816001Y-51922325D01*
X203778679Y-51926001D01*
X195126913Y-51926001D01*
X195089588Y-51922325D01*
X195052263Y-51926001D01*
X195052255Y-51926001D01*
X194940602Y-51936998D01*
X194797341Y-51980455D01*
X194665312Y-52051027D01*
X194549587Y-52146000D01*
X194525789Y-52174998D01*
X188931072Y-57769716D01*
X188931072Y-56783999D01*
X188914008Y-56610745D01*
X188863472Y-56444149D01*
X188781405Y-56290613D01*
X188670962Y-56156038D01*
X188536387Y-56045595D01*
X188426886Y-55987066D01*
X188492345Y-55933345D01*
X188680417Y-55704179D01*
X188820166Y-55442725D01*
X188906224Y-55159032D01*
X188935282Y-54864000D01*
X188906224Y-54568968D01*
X188820166Y-54285275D01*
X188680417Y-54023821D01*
X188492345Y-53794655D01*
X188263179Y-53606583D01*
X188239638Y-53594000D01*
X188263179Y-53581417D01*
X188492345Y-53393345D01*
X188680417Y-53164179D01*
X188820166Y-52902725D01*
X188906224Y-52619032D01*
X188935282Y-52324000D01*
X188906224Y-52028968D01*
X188820166Y-51745275D01*
X188680417Y-51483821D01*
X188492345Y-51254655D01*
X188263179Y-51066583D01*
X188234848Y-51051440D01*
X188375433Y-50958708D01*
X188586306Y-50750326D01*
X188752474Y-50504809D01*
X188867551Y-50231591D01*
X188884302Y-50144031D01*
X188763246Y-49911000D01*
X187325000Y-49911000D01*
X187325000Y-49931000D01*
X187071000Y-49931000D01*
X187071000Y-49911000D01*
X185632754Y-49911000D01*
X185511698Y-50144031D01*
X185528449Y-50231591D01*
X185643526Y-50504809D01*
X185809694Y-50750326D01*
X186020567Y-50958708D01*
X186161152Y-51051440D01*
X186132821Y-51066583D01*
X185903655Y-51254655D01*
X185715583Y-51483821D01*
X185575834Y-51745275D01*
X185489776Y-52028968D01*
X185460718Y-52324000D01*
X183540000Y-52324000D01*
X183540000Y-49423969D01*
X185511698Y-49423969D01*
X185632754Y-49657000D01*
X187071000Y-49657000D01*
X187071000Y-48433624D01*
X187325000Y-48433624D01*
X187325000Y-49657000D01*
X188763246Y-49657000D01*
X188884302Y-49423969D01*
X188867551Y-49336409D01*
X188752474Y-49063191D01*
X188586306Y-48817674D01*
X188375433Y-48609292D01*
X188127958Y-48446053D01*
X187853392Y-48334231D01*
X187562286Y-48278123D01*
X187325000Y-48433624D01*
X187071000Y-48433624D01*
X186833714Y-48278123D01*
X186542608Y-48334231D01*
X186268042Y-48446053D01*
X186020567Y-48609292D01*
X185809694Y-48817674D01*
X185643526Y-49063191D01*
X185528449Y-49336409D01*
X185511698Y-49423969D01*
X183540000Y-49423969D01*
X183540000Y-44412000D01*
X188553928Y-44412000D01*
X188553928Y-46012000D01*
X188566188Y-46136482D01*
X188602498Y-46256180D01*
X188661463Y-46366494D01*
X188740815Y-46463185D01*
X188837506Y-46542537D01*
X188947820Y-46601502D01*
X189067518Y-46637812D01*
X189192000Y-46650072D01*
X190792000Y-46650072D01*
X190916482Y-46637812D01*
X191036180Y-46601502D01*
X191146494Y-46542537D01*
X191243185Y-46463185D01*
X191322537Y-46366494D01*
X191381502Y-46256180D01*
X191417812Y-46136482D01*
X191430072Y-46012000D01*
X191430072Y-44412000D01*
X191417812Y-44287518D01*
X191381502Y-44167820D01*
X191322537Y-44057506D01*
X191243185Y-43960815D01*
X191146494Y-43881463D01*
X191036180Y-43822498D01*
X190916482Y-43786188D01*
X190792000Y-43773928D01*
X190784785Y-43773928D01*
X190805097Y-43704702D01*
X189992000Y-42891605D01*
X189178903Y-43704702D01*
X189199215Y-43773928D01*
X189192000Y-43773928D01*
X189067518Y-43786188D01*
X188947820Y-43822498D01*
X188837506Y-43881463D01*
X188740815Y-43960815D01*
X188661463Y-44057506D01*
X188602498Y-44167820D01*
X188566188Y-44287518D01*
X188553928Y-44412000D01*
X183540000Y-44412000D01*
X183540000Y-42782512D01*
X188551783Y-42782512D01*
X188593213Y-43062130D01*
X188688397Y-43328292D01*
X188755329Y-43453514D01*
X188999298Y-43525097D01*
X189812395Y-42712000D01*
X190171605Y-42712000D01*
X190984702Y-43525097D01*
X191228671Y-43453514D01*
X191349571Y-43198004D01*
X191418300Y-42923816D01*
X191432217Y-42641488D01*
X191390787Y-42361870D01*
X191295603Y-42095708D01*
X191228671Y-41970486D01*
X190984702Y-41898903D01*
X190171605Y-42712000D01*
X189812395Y-42712000D01*
X188999298Y-41898903D01*
X188755329Y-41970486D01*
X188634429Y-42225996D01*
X188565700Y-42500184D01*
X188551783Y-42782512D01*
X183540000Y-42782512D01*
X183540000Y-41719298D01*
X189178903Y-41719298D01*
X189992000Y-42532395D01*
X190805097Y-41719298D01*
X190733514Y-41475329D01*
X190478004Y-41354429D01*
X190203816Y-41285700D01*
X189921488Y-41271783D01*
X189641870Y-41313213D01*
X189375708Y-41408397D01*
X189250486Y-41475329D01*
X189178903Y-41719298D01*
X183540000Y-41719298D01*
X183540000Y-39796335D01*
X200601000Y-39796335D01*
X200601000Y-40467664D01*
X200618870Y-40649101D01*
X200689489Y-40881900D01*
X200804167Y-41096448D01*
X200958498Y-41284502D01*
X201146551Y-41438833D01*
X201361099Y-41553511D01*
X201593898Y-41624130D01*
X201836000Y-41647975D01*
X202078101Y-41624130D01*
X202310900Y-41553511D01*
X202525448Y-41438833D01*
X202713502Y-41284502D01*
X202836000Y-41135237D01*
X202958498Y-41284502D01*
X203146551Y-41438833D01*
X203361099Y-41553511D01*
X203593898Y-41624130D01*
X203836000Y-41647975D01*
X204078101Y-41624130D01*
X204310900Y-41553511D01*
X204525448Y-41438833D01*
X204713502Y-41284502D01*
X204836000Y-41135237D01*
X204958498Y-41284502D01*
X205146551Y-41438833D01*
X205361099Y-41553511D01*
X205593898Y-41624130D01*
X205836000Y-41647975D01*
X206078101Y-41624130D01*
X206310900Y-41553511D01*
X206525448Y-41438833D01*
X206713502Y-41284502D01*
X206836481Y-41134652D01*
X206879693Y-41198725D01*
X207052526Y-41370078D01*
X207255467Y-41504421D01*
X207480718Y-41596591D01*
X207518391Y-41600462D01*
X207709000Y-41475731D01*
X207709000Y-40259000D01*
X207689000Y-40259000D01*
X207689000Y-40005000D01*
X207709000Y-40005000D01*
X207709000Y-38788269D01*
X207518391Y-38663538D01*
X207480718Y-38667409D01*
X207255467Y-38759579D01*
X207052526Y-38893922D01*
X206879693Y-39065275D01*
X206836481Y-39129348D01*
X206713502Y-38979498D01*
X206525449Y-38825167D01*
X206310901Y-38710489D01*
X206078102Y-38639870D01*
X205836000Y-38616025D01*
X205593899Y-38639870D01*
X205361100Y-38710489D01*
X205146552Y-38825167D01*
X204958499Y-38979498D01*
X204836001Y-39128763D01*
X204713502Y-38979498D01*
X204525449Y-38825167D01*
X204310901Y-38710489D01*
X204078102Y-38639870D01*
X203836000Y-38616025D01*
X203593899Y-38639870D01*
X203361100Y-38710489D01*
X203146552Y-38825167D01*
X202958499Y-38979498D01*
X202836001Y-39128763D01*
X202713502Y-38979498D01*
X202525449Y-38825167D01*
X202310901Y-38710489D01*
X202078102Y-38639870D01*
X201836000Y-38616025D01*
X201593899Y-38639870D01*
X201361100Y-38710489D01*
X201146552Y-38825167D01*
X200958499Y-38979498D01*
X200804168Y-39167551D01*
X200689489Y-39382099D01*
X200618870Y-39614898D01*
X200601000Y-39796335D01*
X183540000Y-39796335D01*
X183540000Y-35389117D01*
X183685000Y-35389117D01*
X183685000Y-35730883D01*
X183751675Y-36066081D01*
X183882463Y-36381831D01*
X184072337Y-36665998D01*
X184314002Y-36907663D01*
X184598169Y-37097537D01*
X184913919Y-37228325D01*
X185249117Y-37295000D01*
X185590883Y-37295000D01*
X185926081Y-37228325D01*
X186241831Y-37097537D01*
X186525998Y-36907663D01*
X186767663Y-36665998D01*
X186957537Y-36381831D01*
X187088325Y-36066081D01*
X187155000Y-35730883D01*
X187155000Y-35389117D01*
X187088325Y-35053919D01*
X186957537Y-34738169D01*
X186767663Y-34454002D01*
X186525998Y-34212337D01*
X186241831Y-34022463D01*
X185926081Y-33891675D01*
X185590883Y-33825000D01*
X185249117Y-33825000D01*
X184913919Y-33891675D01*
X184598169Y-34022463D01*
X184314002Y-34212337D01*
X184072337Y-34454002D01*
X183882463Y-34738169D01*
X183751675Y-35053919D01*
X183685000Y-35389117D01*
X183540000Y-35389117D01*
X183540000Y-33680000D01*
X230480000Y-33680000D01*
X230480001Y-88240000D01*
G37*
%TD.AperFunction*%
%TD*%
M02*
