M48
; DRILL file {KiCad 5.1.9+dfsg1-1} date Fri Nov 12 22:38:22 2021
; FORMAT={-:-/ absolute / inch / decimal}
; #@! TF.CreationDate,2021-11-12T22:38:22+01:00
; #@! TF.GenerationSoftware,Kicad,Pcbnew,5.1.9+dfsg1-1
; #@! TF.FileFunction,Plated,1,2,PTH
FMAT,2
INCH
T1C0.0157
T2C0.0295
T3C0.0315
T4C0.0394
T5C0.0433
T6C0.0469
%
G90
G05
T1
X7.86Y-2.24
X7.9727Y-2.1673
X7.98Y-2.11
X8.04Y-2.09
X8.1Y-2.57
X8.1272Y-2.4417
X8.1497Y-2.3094
X8.15Y-2.27
X8.16Y-2.41
X8.23Y-2.24
X8.24Y-1.98
X8.25Y-2.45
X8.2802Y-1.9798
X8.3Y-2.54
X8.33Y-3.08
X8.34Y-2.57
X8.38Y-2.18
X8.41Y-2.79
X8.42Y-2.22
X8.42Y-2.34
X8.44Y-2.6077
X8.4699Y-2.4601
T2
X7.48Y-2.5
X7.48Y-2.5787
X7.48Y-2.6575
X7.48Y-2.7362
X7.48Y-2.815
X7.48Y-2.8937
X7.9463Y-1.58
X8.025Y-1.58
X8.1038Y-1.58
X8.1825Y-1.58
X8.2613Y-1.58
X8.34Y-1.58
X8.82Y-2.5063
X8.82Y-2.585
X8.82Y-2.6638
X8.82Y-2.7425
X8.82Y-2.8213
X8.82Y-2.9
T3
X7.48Y-1.6816
X7.48Y-1.78
X8.3Y-2.8616
X8.3Y-2.96
T4
X8.55Y-2.12
X8.55Y-2.22
X8.55Y-2.32
X8.65Y-2.12
X8.65Y-2.22
X8.65Y-2.32
T5
X8.5241Y-1.7728
X8.5241Y-1.95
X8.78Y-1.7728
X8.78Y-1.95
T6
X7.37Y-1.96
X7.37Y-2.06
X7.37Y-2.16
X7.37Y-2.26
X7.77Y-3.28
X7.87Y-3.28
X7.97Y-3.28
X8.07Y-3.28
T4
G00X8.7Y-3.3294
M15
G01X8.7Y-3.2506
M16
G05
G00X8.8575Y-3.105
M15
G01X8.7787Y-3.105
M16
G05
G00X8.9362Y-3.3294
M15
G01X8.9362Y-3.2506
M16
G05
T0
M30
