%TF.GenerationSoftware,KiCad,Pcbnew,5.1.9+dfsg1-1*%
%TF.CreationDate,2021-11-12T22:38:19+01:00*%
%TF.ProjectId,motor_board_v2,6d6f746f-725f-4626-9f61-72645f76322e,rev?*%
%TF.SameCoordinates,Original*%
%TF.FileFunction,Legend,Top*%
%TF.FilePolarity,Positive*%
%FSLAX46Y46*%
G04 Gerber Fmt 4.6, Leading zero omitted, Abs format (unit mm)*
G04 Created by KiCad (PCBNEW 5.1.9+dfsg1-1) date 2021-11-12 22:38:19*
%MOMM*%
%LPD*%
G01*
G04 APERTURE LIST*
%ADD10C,0.120000*%
%ADD11C,0.150000*%
G04 APERTURE END LIST*
D10*
%TO.C,C1*%
X187838000Y-47147241D02*
X188468000Y-47147241D01*
X188153000Y-47462241D02*
X188153000Y-46832241D01*
X189590000Y-40721000D02*
X190394000Y-40721000D01*
X189359000Y-40761000D02*
X190625000Y-40761000D01*
X189190000Y-40801000D02*
X190794000Y-40801000D01*
X189052000Y-40841000D02*
X190932000Y-40841000D01*
X188933000Y-40881000D02*
X191051000Y-40881000D01*
X188827000Y-40921000D02*
X191157000Y-40921000D01*
X188730000Y-40961000D02*
X191254000Y-40961000D01*
X188642000Y-41001000D02*
X191342000Y-41001000D01*
X188560000Y-41041000D02*
X191424000Y-41041000D01*
X188483000Y-41081000D02*
X191501000Y-41081000D01*
X188411000Y-41121000D02*
X191573000Y-41121000D01*
X188342000Y-41161000D02*
X191642000Y-41161000D01*
X188278000Y-41201000D02*
X191706000Y-41201000D01*
X188216000Y-41241000D02*
X191768000Y-41241000D01*
X188158000Y-41281000D02*
X191826000Y-41281000D01*
X188102000Y-41321000D02*
X191882000Y-41321000D01*
X188048000Y-41361000D02*
X191936000Y-41361000D01*
X187997000Y-41401000D02*
X191987000Y-41401000D01*
X187948000Y-41441000D02*
X192036000Y-41441000D01*
X187900000Y-41481000D02*
X192084000Y-41481000D01*
X187855000Y-41521000D02*
X192129000Y-41521000D01*
X187810000Y-41561000D02*
X192174000Y-41561000D01*
X187768000Y-41601000D02*
X192216000Y-41601000D01*
X187727000Y-41641000D02*
X192257000Y-41641000D01*
X191032000Y-41681000D02*
X192297000Y-41681000D01*
X187687000Y-41681000D02*
X188952000Y-41681000D01*
X191032000Y-41721000D02*
X192335000Y-41721000D01*
X187649000Y-41721000D02*
X188952000Y-41721000D01*
X191032000Y-41761000D02*
X192372000Y-41761000D01*
X187612000Y-41761000D02*
X188952000Y-41761000D01*
X191032000Y-41801000D02*
X192408000Y-41801000D01*
X187576000Y-41801000D02*
X188952000Y-41801000D01*
X191032000Y-41841000D02*
X192442000Y-41841000D01*
X187542000Y-41841000D02*
X188952000Y-41841000D01*
X191032000Y-41881000D02*
X192476000Y-41881000D01*
X187508000Y-41881000D02*
X188952000Y-41881000D01*
X191032000Y-41921000D02*
X192508000Y-41921000D01*
X187476000Y-41921000D02*
X188952000Y-41921000D01*
X191032000Y-41961000D02*
X192540000Y-41961000D01*
X187444000Y-41961000D02*
X188952000Y-41961000D01*
X191032000Y-42001000D02*
X192570000Y-42001000D01*
X187414000Y-42001000D02*
X188952000Y-42001000D01*
X191032000Y-42041000D02*
X192599000Y-42041000D01*
X187385000Y-42041000D02*
X188952000Y-42041000D01*
X191032000Y-42081000D02*
X192628000Y-42081000D01*
X187356000Y-42081000D02*
X188952000Y-42081000D01*
X191032000Y-42121000D02*
X192656000Y-42121000D01*
X187328000Y-42121000D02*
X188952000Y-42121000D01*
X191032000Y-42161000D02*
X192682000Y-42161000D01*
X187302000Y-42161000D02*
X188952000Y-42161000D01*
X191032000Y-42201000D02*
X192708000Y-42201000D01*
X187276000Y-42201000D02*
X188952000Y-42201000D01*
X191032000Y-42241000D02*
X192734000Y-42241000D01*
X187250000Y-42241000D02*
X188952000Y-42241000D01*
X191032000Y-42281000D02*
X192758000Y-42281000D01*
X187226000Y-42281000D02*
X188952000Y-42281000D01*
X191032000Y-42321000D02*
X192782000Y-42321000D01*
X187202000Y-42321000D02*
X188952000Y-42321000D01*
X191032000Y-42361000D02*
X192804000Y-42361000D01*
X187180000Y-42361000D02*
X188952000Y-42361000D01*
X191032000Y-42401000D02*
X192826000Y-42401000D01*
X187158000Y-42401000D02*
X188952000Y-42401000D01*
X191032000Y-42441000D02*
X192848000Y-42441000D01*
X187136000Y-42441000D02*
X188952000Y-42441000D01*
X191032000Y-42481000D02*
X192868000Y-42481000D01*
X187116000Y-42481000D02*
X188952000Y-42481000D01*
X191032000Y-42521000D02*
X192888000Y-42521000D01*
X187096000Y-42521000D02*
X188952000Y-42521000D01*
X191032000Y-42561000D02*
X192908000Y-42561000D01*
X187076000Y-42561000D02*
X188952000Y-42561000D01*
X191032000Y-42601000D02*
X192926000Y-42601000D01*
X187058000Y-42601000D02*
X188952000Y-42601000D01*
X191032000Y-42641000D02*
X192944000Y-42641000D01*
X187040000Y-42641000D02*
X188952000Y-42641000D01*
X191032000Y-42681000D02*
X192962000Y-42681000D01*
X187022000Y-42681000D02*
X188952000Y-42681000D01*
X191032000Y-42721000D02*
X192978000Y-42721000D01*
X187006000Y-42721000D02*
X188952000Y-42721000D01*
X191032000Y-42761000D02*
X192994000Y-42761000D01*
X186990000Y-42761000D02*
X188952000Y-42761000D01*
X191032000Y-42801000D02*
X193010000Y-42801000D01*
X186974000Y-42801000D02*
X188952000Y-42801000D01*
X191032000Y-42841000D02*
X193025000Y-42841000D01*
X186959000Y-42841000D02*
X188952000Y-42841000D01*
X191032000Y-42881000D02*
X193039000Y-42881000D01*
X186945000Y-42881000D02*
X188952000Y-42881000D01*
X191032000Y-42921000D02*
X193053000Y-42921000D01*
X186931000Y-42921000D02*
X188952000Y-42921000D01*
X191032000Y-42961000D02*
X193066000Y-42961000D01*
X186918000Y-42961000D02*
X188952000Y-42961000D01*
X191032000Y-43001000D02*
X193078000Y-43001000D01*
X186906000Y-43001000D02*
X188952000Y-43001000D01*
X191032000Y-43041000D02*
X193090000Y-43041000D01*
X186894000Y-43041000D02*
X188952000Y-43041000D01*
X191032000Y-43081000D02*
X193102000Y-43081000D01*
X186882000Y-43081000D02*
X188952000Y-43081000D01*
X191032000Y-43121000D02*
X193113000Y-43121000D01*
X186871000Y-43121000D02*
X188952000Y-43121000D01*
X191032000Y-43161000D02*
X193123000Y-43161000D01*
X186861000Y-43161000D02*
X188952000Y-43161000D01*
X191032000Y-43201000D02*
X193133000Y-43201000D01*
X186851000Y-43201000D02*
X188952000Y-43201000D01*
X191032000Y-43241000D02*
X193142000Y-43241000D01*
X186842000Y-43241000D02*
X188952000Y-43241000D01*
X191032000Y-43282000D02*
X193151000Y-43282000D01*
X186833000Y-43282000D02*
X188952000Y-43282000D01*
X191032000Y-43322000D02*
X193159000Y-43322000D01*
X186825000Y-43322000D02*
X188952000Y-43322000D01*
X191032000Y-43362000D02*
X193167000Y-43362000D01*
X186817000Y-43362000D02*
X188952000Y-43362000D01*
X191032000Y-43402000D02*
X193174000Y-43402000D01*
X186810000Y-43402000D02*
X188952000Y-43402000D01*
X191032000Y-43442000D02*
X193181000Y-43442000D01*
X186803000Y-43442000D02*
X188952000Y-43442000D01*
X191032000Y-43482000D02*
X193187000Y-43482000D01*
X186797000Y-43482000D02*
X188952000Y-43482000D01*
X191032000Y-43522000D02*
X193193000Y-43522000D01*
X186791000Y-43522000D02*
X188952000Y-43522000D01*
X191032000Y-43562000D02*
X193198000Y-43562000D01*
X186786000Y-43562000D02*
X188952000Y-43562000D01*
X191032000Y-43602000D02*
X193203000Y-43602000D01*
X186781000Y-43602000D02*
X188952000Y-43602000D01*
X191032000Y-43642000D02*
X193207000Y-43642000D01*
X186777000Y-43642000D02*
X188952000Y-43642000D01*
X191032000Y-43682000D02*
X193210000Y-43682000D01*
X186774000Y-43682000D02*
X188952000Y-43682000D01*
X191032000Y-43722000D02*
X193214000Y-43722000D01*
X186770000Y-43722000D02*
X188952000Y-43722000D01*
X186768000Y-43762000D02*
X193216000Y-43762000D01*
X186765000Y-43802000D02*
X193219000Y-43802000D01*
X186764000Y-43842000D02*
X193220000Y-43842000D01*
X186762000Y-43882000D02*
X193222000Y-43882000D01*
X186762000Y-43922000D02*
X193222000Y-43922000D01*
X186762000Y-43962000D02*
X193222000Y-43962000D01*
X193262000Y-43962000D02*
G75*
G03*
X193262000Y-43962000I-3270000J0D01*
G01*
%TO.C,C2*%
X195587252Y-38127000D02*
X195064748Y-38127000D01*
X195587252Y-39597000D02*
X195064748Y-39597000D01*
%TO.C,C3*%
X198909000Y-53586748D02*
X198909000Y-54109252D01*
X200379000Y-53586748D02*
X200379000Y-54109252D01*
%TO.C,C4*%
X198909000Y-60459252D02*
X198909000Y-59936748D01*
X200379000Y-60459252D02*
X200379000Y-59936748D01*
%TO.C,C5*%
X214090000Y-73934000D02*
G75*
G03*
X214090000Y-73934000I-3270000J0D01*
G01*
X207590000Y-73934000D02*
X214050000Y-73934000D01*
X207590000Y-73894000D02*
X214050000Y-73894000D01*
X207590000Y-73854000D02*
X214050000Y-73854000D01*
X207592000Y-73814000D02*
X214048000Y-73814000D01*
X207593000Y-73774000D02*
X214047000Y-73774000D01*
X207596000Y-73734000D02*
X214044000Y-73734000D01*
X207598000Y-73694000D02*
X209780000Y-73694000D01*
X211860000Y-73694000D02*
X214042000Y-73694000D01*
X207602000Y-73654000D02*
X209780000Y-73654000D01*
X211860000Y-73654000D02*
X214038000Y-73654000D01*
X207605000Y-73614000D02*
X209780000Y-73614000D01*
X211860000Y-73614000D02*
X214035000Y-73614000D01*
X207609000Y-73574000D02*
X209780000Y-73574000D01*
X211860000Y-73574000D02*
X214031000Y-73574000D01*
X207614000Y-73534000D02*
X209780000Y-73534000D01*
X211860000Y-73534000D02*
X214026000Y-73534000D01*
X207619000Y-73494000D02*
X209780000Y-73494000D01*
X211860000Y-73494000D02*
X214021000Y-73494000D01*
X207625000Y-73454000D02*
X209780000Y-73454000D01*
X211860000Y-73454000D02*
X214015000Y-73454000D01*
X207631000Y-73414000D02*
X209780000Y-73414000D01*
X211860000Y-73414000D02*
X214009000Y-73414000D01*
X207638000Y-73374000D02*
X209780000Y-73374000D01*
X211860000Y-73374000D02*
X214002000Y-73374000D01*
X207645000Y-73334000D02*
X209780000Y-73334000D01*
X211860000Y-73334000D02*
X213995000Y-73334000D01*
X207653000Y-73294000D02*
X209780000Y-73294000D01*
X211860000Y-73294000D02*
X213987000Y-73294000D01*
X207661000Y-73254000D02*
X209780000Y-73254000D01*
X211860000Y-73254000D02*
X213979000Y-73254000D01*
X207670000Y-73213000D02*
X209780000Y-73213000D01*
X211860000Y-73213000D02*
X213970000Y-73213000D01*
X207679000Y-73173000D02*
X209780000Y-73173000D01*
X211860000Y-73173000D02*
X213961000Y-73173000D01*
X207689000Y-73133000D02*
X209780000Y-73133000D01*
X211860000Y-73133000D02*
X213951000Y-73133000D01*
X207699000Y-73093000D02*
X209780000Y-73093000D01*
X211860000Y-73093000D02*
X213941000Y-73093000D01*
X207710000Y-73053000D02*
X209780000Y-73053000D01*
X211860000Y-73053000D02*
X213930000Y-73053000D01*
X207722000Y-73013000D02*
X209780000Y-73013000D01*
X211860000Y-73013000D02*
X213918000Y-73013000D01*
X207734000Y-72973000D02*
X209780000Y-72973000D01*
X211860000Y-72973000D02*
X213906000Y-72973000D01*
X207746000Y-72933000D02*
X209780000Y-72933000D01*
X211860000Y-72933000D02*
X213894000Y-72933000D01*
X207759000Y-72893000D02*
X209780000Y-72893000D01*
X211860000Y-72893000D02*
X213881000Y-72893000D01*
X207773000Y-72853000D02*
X209780000Y-72853000D01*
X211860000Y-72853000D02*
X213867000Y-72853000D01*
X207787000Y-72813000D02*
X209780000Y-72813000D01*
X211860000Y-72813000D02*
X213853000Y-72813000D01*
X207802000Y-72773000D02*
X209780000Y-72773000D01*
X211860000Y-72773000D02*
X213838000Y-72773000D01*
X207818000Y-72733000D02*
X209780000Y-72733000D01*
X211860000Y-72733000D02*
X213822000Y-72733000D01*
X207834000Y-72693000D02*
X209780000Y-72693000D01*
X211860000Y-72693000D02*
X213806000Y-72693000D01*
X207850000Y-72653000D02*
X209780000Y-72653000D01*
X211860000Y-72653000D02*
X213790000Y-72653000D01*
X207868000Y-72613000D02*
X209780000Y-72613000D01*
X211860000Y-72613000D02*
X213772000Y-72613000D01*
X207886000Y-72573000D02*
X209780000Y-72573000D01*
X211860000Y-72573000D02*
X213754000Y-72573000D01*
X207904000Y-72533000D02*
X209780000Y-72533000D01*
X211860000Y-72533000D02*
X213736000Y-72533000D01*
X207924000Y-72493000D02*
X209780000Y-72493000D01*
X211860000Y-72493000D02*
X213716000Y-72493000D01*
X207944000Y-72453000D02*
X209780000Y-72453000D01*
X211860000Y-72453000D02*
X213696000Y-72453000D01*
X207964000Y-72413000D02*
X209780000Y-72413000D01*
X211860000Y-72413000D02*
X213676000Y-72413000D01*
X207986000Y-72373000D02*
X209780000Y-72373000D01*
X211860000Y-72373000D02*
X213654000Y-72373000D01*
X208008000Y-72333000D02*
X209780000Y-72333000D01*
X211860000Y-72333000D02*
X213632000Y-72333000D01*
X208030000Y-72293000D02*
X209780000Y-72293000D01*
X211860000Y-72293000D02*
X213610000Y-72293000D01*
X208054000Y-72253000D02*
X209780000Y-72253000D01*
X211860000Y-72253000D02*
X213586000Y-72253000D01*
X208078000Y-72213000D02*
X209780000Y-72213000D01*
X211860000Y-72213000D02*
X213562000Y-72213000D01*
X208104000Y-72173000D02*
X209780000Y-72173000D01*
X211860000Y-72173000D02*
X213536000Y-72173000D01*
X208130000Y-72133000D02*
X209780000Y-72133000D01*
X211860000Y-72133000D02*
X213510000Y-72133000D01*
X208156000Y-72093000D02*
X209780000Y-72093000D01*
X211860000Y-72093000D02*
X213484000Y-72093000D01*
X208184000Y-72053000D02*
X209780000Y-72053000D01*
X211860000Y-72053000D02*
X213456000Y-72053000D01*
X208213000Y-72013000D02*
X209780000Y-72013000D01*
X211860000Y-72013000D02*
X213427000Y-72013000D01*
X208242000Y-71973000D02*
X209780000Y-71973000D01*
X211860000Y-71973000D02*
X213398000Y-71973000D01*
X208272000Y-71933000D02*
X209780000Y-71933000D01*
X211860000Y-71933000D02*
X213368000Y-71933000D01*
X208304000Y-71893000D02*
X209780000Y-71893000D01*
X211860000Y-71893000D02*
X213336000Y-71893000D01*
X208336000Y-71853000D02*
X209780000Y-71853000D01*
X211860000Y-71853000D02*
X213304000Y-71853000D01*
X208370000Y-71813000D02*
X209780000Y-71813000D01*
X211860000Y-71813000D02*
X213270000Y-71813000D01*
X208404000Y-71773000D02*
X209780000Y-71773000D01*
X211860000Y-71773000D02*
X213236000Y-71773000D01*
X208440000Y-71733000D02*
X209780000Y-71733000D01*
X211860000Y-71733000D02*
X213200000Y-71733000D01*
X208477000Y-71693000D02*
X209780000Y-71693000D01*
X211860000Y-71693000D02*
X213163000Y-71693000D01*
X208515000Y-71653000D02*
X209780000Y-71653000D01*
X211860000Y-71653000D02*
X213125000Y-71653000D01*
X208555000Y-71613000D02*
X213085000Y-71613000D01*
X208596000Y-71573000D02*
X213044000Y-71573000D01*
X208638000Y-71533000D02*
X213002000Y-71533000D01*
X208683000Y-71493000D02*
X212957000Y-71493000D01*
X208728000Y-71453000D02*
X212912000Y-71453000D01*
X208776000Y-71413000D02*
X212864000Y-71413000D01*
X208825000Y-71373000D02*
X212815000Y-71373000D01*
X208876000Y-71333000D02*
X212764000Y-71333000D01*
X208930000Y-71293000D02*
X212710000Y-71293000D01*
X208986000Y-71253000D02*
X212654000Y-71253000D01*
X209044000Y-71213000D02*
X212596000Y-71213000D01*
X209106000Y-71173000D02*
X212534000Y-71173000D01*
X209170000Y-71133000D02*
X212470000Y-71133000D01*
X209239000Y-71093000D02*
X212401000Y-71093000D01*
X209311000Y-71053000D02*
X212329000Y-71053000D01*
X209388000Y-71013000D02*
X212252000Y-71013000D01*
X209470000Y-70973000D02*
X212170000Y-70973000D01*
X209558000Y-70933000D02*
X212082000Y-70933000D01*
X209655000Y-70893000D02*
X211985000Y-70893000D01*
X209761000Y-70853000D02*
X211879000Y-70853000D01*
X209880000Y-70813000D02*
X211760000Y-70813000D01*
X210018000Y-70773000D02*
X211622000Y-70773000D01*
X210187000Y-70733000D02*
X211453000Y-70733000D01*
X210418000Y-70693000D02*
X211222000Y-70693000D01*
X208981000Y-77434241D02*
X208981000Y-76804241D01*
X208666000Y-77119241D02*
X209296000Y-77119241D01*
%TO.C,C6*%
X203735000Y-74429252D02*
X203735000Y-73906748D01*
X205205000Y-74429252D02*
X205205000Y-73906748D01*
%TO.C,I2C*%
X184768000Y-48984000D02*
X184168000Y-48984000D01*
X184768000Y-50584000D02*
X184768000Y-48984000D01*
X184168000Y-50584000D02*
X184768000Y-50584000D01*
X184768000Y-51524000D02*
X184168000Y-51524000D01*
X184768000Y-53124000D02*
X184768000Y-51524000D01*
X184168000Y-53124000D02*
X184768000Y-53124000D01*
X184768000Y-54064000D02*
X184168000Y-54064000D01*
X184768000Y-55664000D02*
X184768000Y-54064000D01*
X184168000Y-55664000D02*
X184768000Y-55664000D01*
X184768000Y-56604000D02*
X184168000Y-56604000D01*
X184768000Y-58204000D02*
X184768000Y-56604000D01*
X184168000Y-58204000D02*
X184768000Y-58204000D01*
X190188000Y-50034000D02*
X189188000Y-50034000D01*
X190188000Y-57154000D02*
X189188000Y-57154000D01*
X188658000Y-50034000D02*
X189188000Y-49784000D01*
X188658000Y-57154000D02*
X188658000Y-50034000D01*
X189188000Y-57404000D02*
X188658000Y-57154000D01*
X189188000Y-49784000D02*
X190188000Y-49784000D01*
X189188000Y-57404000D02*
X189188000Y-49784000D01*
X190188000Y-57404000D02*
X189188000Y-57404000D01*
X185198000Y-59074000D02*
X189198000Y-59074000D01*
X184168000Y-48404000D02*
X184168000Y-58784000D01*
X190188000Y-48404000D02*
X184168000Y-48404000D01*
X190188000Y-58784000D02*
X190188000Y-48404000D01*
X184168000Y-58784000D02*
X190188000Y-58784000D01*
%TO.C,UART*%
X195978000Y-80282000D02*
X195978000Y-86302000D01*
X195978000Y-86302000D02*
X206358000Y-86302000D01*
X206358000Y-86302000D02*
X206358000Y-80282000D01*
X206358000Y-80282000D02*
X195978000Y-80282000D01*
X195688000Y-81312000D02*
X195688000Y-85312000D01*
X197358000Y-86302000D02*
X197358000Y-85302000D01*
X197358000Y-85302000D02*
X204978000Y-85302000D01*
X204978000Y-85302000D02*
X204978000Y-86302000D01*
X197358000Y-85302000D02*
X197608000Y-84772000D01*
X197608000Y-84772000D02*
X204728000Y-84772000D01*
X204728000Y-84772000D02*
X204978000Y-85302000D01*
X197608000Y-86302000D02*
X197608000Y-85302000D01*
X204728000Y-86302000D02*
X204728000Y-85302000D01*
X196558000Y-80282000D02*
X196558000Y-80882000D01*
X196558000Y-80882000D02*
X198158000Y-80882000D01*
X198158000Y-80882000D02*
X198158000Y-80282000D01*
X199098000Y-80282000D02*
X199098000Y-80882000D01*
X199098000Y-80882000D02*
X200698000Y-80882000D01*
X200698000Y-80882000D02*
X200698000Y-80282000D01*
X201638000Y-80282000D02*
X201638000Y-80882000D01*
X201638000Y-80882000D02*
X203238000Y-80882000D01*
X203238000Y-80882000D02*
X203238000Y-80282000D01*
X204178000Y-80282000D02*
X204178000Y-80882000D01*
X204178000Y-80882000D02*
X205778000Y-80882000D01*
X205778000Y-80882000D02*
X205778000Y-80282000D01*
%TO.C,ISP*%
X217170000Y-60258000D02*
X215840000Y-60258000D01*
X215840000Y-60258000D02*
X215840000Y-58928000D01*
X218440000Y-60258000D02*
X218440000Y-57658000D01*
X218440000Y-57658000D02*
X215840000Y-57658000D01*
X215840000Y-57658000D02*
X215840000Y-52518000D01*
X221040000Y-52518000D02*
X215840000Y-52518000D01*
X221040000Y-60258000D02*
X221040000Y-52518000D01*
X221040000Y-60258000D02*
X218440000Y-60258000D01*
%TO.C,Motor 1*%
X189852000Y-62640000D02*
X191067000Y-62640000D01*
X185892000Y-62700000D02*
X183632000Y-62700000D01*
X185892000Y-63200000D02*
X183632000Y-63200000D01*
X187492000Y-73800000D02*
X187492000Y-74800000D01*
X185892000Y-73800000D02*
X187492000Y-73800000D01*
X185892000Y-74800000D02*
X185892000Y-73800000D01*
X187492000Y-74800000D02*
X185892000Y-74800000D01*
X187492000Y-63200000D02*
X187492000Y-62200000D01*
X185892000Y-63200000D02*
X187492000Y-63200000D01*
X185892000Y-62200000D02*
X185892000Y-63200000D01*
X187492000Y-62200000D02*
X185892000Y-62200000D01*
X189852000Y-75560000D02*
X189852000Y-74640000D01*
X189852000Y-61440000D02*
X189852000Y-62360000D01*
X187992000Y-73000000D02*
X183632000Y-73000000D01*
X187992000Y-64000000D02*
X187992000Y-73000000D01*
X183632000Y-64000000D02*
X187992000Y-64000000D01*
X189852000Y-74640000D02*
X189852000Y-74360000D01*
X191452000Y-74640000D02*
X189852000Y-74640000D01*
X191452000Y-75560000D02*
X191452000Y-74640000D01*
X183632000Y-75560000D02*
X191452000Y-75560000D01*
X183632000Y-61440000D02*
X183632000Y-75560000D01*
X191452000Y-61440000D02*
X183632000Y-61440000D01*
X191452000Y-62360000D02*
X191452000Y-61440000D01*
X189852000Y-62360000D02*
X191452000Y-62360000D01*
X189852000Y-62640000D02*
X189852000Y-62360000D01*
%TO.C,Motor 2*%
X212696000Y-39992000D02*
X212976000Y-39992000D01*
X212976000Y-39992000D02*
X212976000Y-41592000D01*
X212976000Y-41592000D02*
X213896000Y-41592000D01*
X213896000Y-41592000D02*
X213896000Y-33772000D01*
X213896000Y-33772000D02*
X199776000Y-33772000D01*
X199776000Y-33772000D02*
X199776000Y-41592000D01*
X199776000Y-41592000D02*
X200696000Y-41592000D01*
X200696000Y-41592000D02*
X200696000Y-39992000D01*
X200696000Y-39992000D02*
X200976000Y-39992000D01*
X211336000Y-33772000D02*
X211336000Y-38132000D01*
X211336000Y-38132000D02*
X202336000Y-38132000D01*
X202336000Y-38132000D02*
X202336000Y-33772000D01*
X213896000Y-39992000D02*
X212976000Y-39992000D01*
X199776000Y-39992000D02*
X200696000Y-39992000D01*
X213136000Y-37632000D02*
X213136000Y-36032000D01*
X213136000Y-36032000D02*
X212136000Y-36032000D01*
X212136000Y-36032000D02*
X212136000Y-37632000D01*
X212136000Y-37632000D02*
X213136000Y-37632000D01*
X200536000Y-37632000D02*
X200536000Y-36032000D01*
X200536000Y-36032000D02*
X201536000Y-36032000D01*
X201536000Y-36032000D02*
X201536000Y-37632000D01*
X201536000Y-37632000D02*
X200536000Y-37632000D01*
X212136000Y-36032000D02*
X212136000Y-33772000D01*
X212636000Y-36032000D02*
X212636000Y-33772000D01*
X212696000Y-39992000D02*
X212696000Y-41207000D01*
%TO.C,Motor 3*%
X224168000Y-74520000D02*
X222953000Y-74520000D01*
X228128000Y-74460000D02*
X230388000Y-74460000D01*
X228128000Y-73960000D02*
X230388000Y-73960000D01*
X226528000Y-63360000D02*
X226528000Y-62360000D01*
X228128000Y-63360000D02*
X226528000Y-63360000D01*
X228128000Y-62360000D02*
X228128000Y-63360000D01*
X226528000Y-62360000D02*
X228128000Y-62360000D01*
X226528000Y-73960000D02*
X226528000Y-74960000D01*
X228128000Y-73960000D02*
X226528000Y-73960000D01*
X228128000Y-74960000D02*
X228128000Y-73960000D01*
X226528000Y-74960000D02*
X228128000Y-74960000D01*
X224168000Y-61600000D02*
X224168000Y-62520000D01*
X224168000Y-75720000D02*
X224168000Y-74800000D01*
X226028000Y-64160000D02*
X230388000Y-64160000D01*
X226028000Y-73160000D02*
X226028000Y-64160000D01*
X230388000Y-73160000D02*
X226028000Y-73160000D01*
X224168000Y-62520000D02*
X224168000Y-62800000D01*
X222568000Y-62520000D02*
X224168000Y-62520000D01*
X222568000Y-61600000D02*
X222568000Y-62520000D01*
X230388000Y-61600000D02*
X222568000Y-61600000D01*
X230388000Y-75720000D02*
X230388000Y-61600000D01*
X222568000Y-75720000D02*
X230388000Y-75720000D01*
X222568000Y-74800000D02*
X222568000Y-75720000D01*
X224168000Y-74800000D02*
X222568000Y-74800000D01*
X224168000Y-74520000D02*
X224168000Y-74800000D01*
%TO.C,12V*%
X220080000Y-88166000D02*
X220080000Y-85566000D01*
X234780000Y-88166000D02*
X220080000Y-88166000D01*
X220080000Y-78966000D02*
X221980000Y-78966000D01*
X220080000Y-81666000D02*
X220080000Y-78966000D01*
X234780000Y-78966000D02*
X234780000Y-88166000D01*
X225980000Y-78966000D02*
X234780000Y-78966000D01*
X220930000Y-88366000D02*
X219880000Y-88366000D01*
X219880000Y-87316000D02*
X219880000Y-88366000D01*
%TO.C,R1*%
X215752000Y-39912936D02*
X215752000Y-41367064D01*
X217572000Y-39912936D02*
X217572000Y-41367064D01*
%TO.C,RESET*%
X216262000Y-46530000D02*
X216262000Y-48030000D01*
X217512000Y-50530000D02*
X222012000Y-50530000D01*
X223262000Y-48030000D02*
X223262000Y-46530000D01*
X222012000Y-44030000D02*
X217512000Y-44030000D01*
D11*
%TO.C,U1*%
X203131000Y-56036000D02*
X201706000Y-56036000D01*
X210381000Y-55811000D02*
X210056000Y-55811000D01*
X210381000Y-63061000D02*
X210056000Y-63061000D01*
X203131000Y-63061000D02*
X203456000Y-63061000D01*
X203131000Y-55811000D02*
X203456000Y-55811000D01*
X203131000Y-63061000D02*
X203131000Y-62736000D01*
X210381000Y-63061000D02*
X210381000Y-62736000D01*
X210381000Y-55811000D02*
X210381000Y-56136000D01*
X203131000Y-55811000D02*
X203131000Y-56036000D01*
D10*
%TO.C,U2*%
X193274000Y-68580000D02*
X193274000Y-72030000D01*
X193274000Y-68580000D02*
X193274000Y-66630000D01*
X198394000Y-68580000D02*
X198394000Y-70530000D01*
X198394000Y-68580000D02*
X198394000Y-66630000D01*
%TO.C,U3*%
X206756000Y-48788000D02*
X208706000Y-48788000D01*
X206756000Y-48788000D02*
X204806000Y-48788000D01*
X206756000Y-43668000D02*
X208706000Y-43668000D01*
X206756000Y-43668000D02*
X203306000Y-43668000D01*
%TO.C,U4*%
X220746000Y-68580000D02*
X220746000Y-65130000D01*
X220746000Y-68580000D02*
X220746000Y-70530000D01*
X215626000Y-68580000D02*
X215626000Y-66630000D01*
X215626000Y-68580000D02*
X215626000Y-70530000D01*
%TO.C,Y1*%
X193030000Y-50450000D02*
X193030000Y-63050000D01*
X198130000Y-50450000D02*
X193030000Y-50450000D01*
X198130000Y-63050000D02*
X198130000Y-50450000D01*
%TO.C,5V*%
X213079000Y-86575000D02*
X213079000Y-84290000D01*
X211609000Y-86575000D02*
X213079000Y-86575000D01*
X211609000Y-84290000D02*
X211609000Y-86575000D01*
%TO.C,12V*%
X214149000Y-84290000D02*
X214149000Y-86575000D01*
X214149000Y-86575000D02*
X215619000Y-86575000D01*
X215619000Y-86575000D02*
X215619000Y-84290000D01*
%TO.C,ST*%
X210539000Y-86575000D02*
X210539000Y-84290000D01*
X209069000Y-86575000D02*
X210539000Y-86575000D01*
X209069000Y-84290000D02*
X209069000Y-86575000D01*
%TO.C,R2*%
X211434000Y-80317937D02*
X211434000Y-81772065D01*
X213254000Y-80317937D02*
X213254000Y-81772065D01*
%TO.C,R3*%
X215794000Y-80317937D02*
X215794000Y-81772065D01*
X213974000Y-80317937D02*
X213974000Y-81772065D01*
%TO.C,R4*%
X208894000Y-80298936D02*
X208894000Y-81753064D01*
X210714000Y-80298936D02*
X210714000Y-81753064D01*
%TO.C,C1*%
D11*
X185949142Y-44128666D02*
X185996761Y-44176285D01*
X186044380Y-44319142D01*
X186044380Y-44414380D01*
X185996761Y-44557238D01*
X185901523Y-44652476D01*
X185806285Y-44700095D01*
X185615809Y-44747714D01*
X185472952Y-44747714D01*
X185282476Y-44700095D01*
X185187238Y-44652476D01*
X185092000Y-44557238D01*
X185044380Y-44414380D01*
X185044380Y-44319142D01*
X185092000Y-44176285D01*
X185139619Y-44128666D01*
X186044380Y-43176285D02*
X186044380Y-43747714D01*
X186044380Y-43462000D02*
X185044380Y-43462000D01*
X185187238Y-43557238D01*
X185282476Y-43652476D01*
X185330095Y-43747714D01*
%TO.C,C2*%
X195159333Y-40899142D02*
X195111714Y-40946761D01*
X194968857Y-40994380D01*
X194873619Y-40994380D01*
X194730761Y-40946761D01*
X194635523Y-40851523D01*
X194587904Y-40756285D01*
X194540285Y-40565809D01*
X194540285Y-40422952D01*
X194587904Y-40232476D01*
X194635523Y-40137238D01*
X194730761Y-40042000D01*
X194873619Y-39994380D01*
X194968857Y-39994380D01*
X195111714Y-40042000D01*
X195159333Y-40089619D01*
X195540285Y-40089619D02*
X195587904Y-40042000D01*
X195683142Y-39994380D01*
X195921238Y-39994380D01*
X196016476Y-40042000D01*
X196064095Y-40089619D01*
X196111714Y-40184857D01*
X196111714Y-40280095D01*
X196064095Y-40422952D01*
X195492666Y-40994380D01*
X196111714Y-40994380D01*
%TO.C,C3*%
X200001142Y-51220666D02*
X200048761Y-51268285D01*
X200096380Y-51411142D01*
X200096380Y-51506380D01*
X200048761Y-51649238D01*
X199953523Y-51744476D01*
X199858285Y-51792095D01*
X199667809Y-51839714D01*
X199524952Y-51839714D01*
X199334476Y-51792095D01*
X199239238Y-51744476D01*
X199144000Y-51649238D01*
X199096380Y-51506380D01*
X199096380Y-51411142D01*
X199144000Y-51268285D01*
X199191619Y-51220666D01*
X199096380Y-50887333D02*
X199096380Y-50268285D01*
X199477333Y-50601619D01*
X199477333Y-50458761D01*
X199524952Y-50363523D01*
X199572571Y-50315904D01*
X199667809Y-50268285D01*
X199905904Y-50268285D01*
X200001142Y-50315904D01*
X200048761Y-50363523D01*
X200096380Y-50458761D01*
X200096380Y-50744476D01*
X200048761Y-50839714D01*
X200001142Y-50887333D01*
%TO.C,C4*%
X199493142Y-63158666D02*
X199540761Y-63206285D01*
X199588380Y-63349142D01*
X199588380Y-63444380D01*
X199540761Y-63587238D01*
X199445523Y-63682476D01*
X199350285Y-63730095D01*
X199159809Y-63777714D01*
X199016952Y-63777714D01*
X198826476Y-63730095D01*
X198731238Y-63682476D01*
X198636000Y-63587238D01*
X198588380Y-63444380D01*
X198588380Y-63349142D01*
X198636000Y-63206285D01*
X198683619Y-63158666D01*
X198921714Y-62301523D02*
X199588380Y-62301523D01*
X198540761Y-62539619D02*
X199255047Y-62777714D01*
X199255047Y-62158666D01*
%TO.C,C5*%
X207097333Y-71477142D02*
X207049714Y-71524761D01*
X206906857Y-71572380D01*
X206811619Y-71572380D01*
X206668761Y-71524761D01*
X206573523Y-71429523D01*
X206525904Y-71334285D01*
X206478285Y-71143809D01*
X206478285Y-71000952D01*
X206525904Y-70810476D01*
X206573523Y-70715238D01*
X206668761Y-70620000D01*
X206811619Y-70572380D01*
X206906857Y-70572380D01*
X207049714Y-70620000D01*
X207097333Y-70667619D01*
X208002095Y-70572380D02*
X207525904Y-70572380D01*
X207478285Y-71048571D01*
X207525904Y-71000952D01*
X207621142Y-70953333D01*
X207859238Y-70953333D01*
X207954476Y-71000952D01*
X208002095Y-71048571D01*
X208049714Y-71143809D01*
X208049714Y-71381904D01*
X208002095Y-71477142D01*
X207954476Y-71524761D01*
X207859238Y-71572380D01*
X207621142Y-71572380D01*
X207525904Y-71524761D01*
X207478285Y-71477142D01*
%TO.C,C6*%
X203147142Y-74334666D02*
X203194761Y-74382285D01*
X203242380Y-74525142D01*
X203242380Y-74620380D01*
X203194761Y-74763238D01*
X203099523Y-74858476D01*
X203004285Y-74906095D01*
X202813809Y-74953714D01*
X202670952Y-74953714D01*
X202480476Y-74906095D01*
X202385238Y-74858476D01*
X202290000Y-74763238D01*
X202242380Y-74620380D01*
X202242380Y-74525142D01*
X202290000Y-74382285D01*
X202337619Y-74334666D01*
X202242380Y-73477523D02*
X202242380Y-73668000D01*
X202290000Y-73763238D01*
X202337619Y-73810857D01*
X202480476Y-73906095D01*
X202670952Y-73953714D01*
X203051904Y-73953714D01*
X203147142Y-73906095D01*
X203194761Y-73858476D01*
X203242380Y-73763238D01*
X203242380Y-73572761D01*
X203194761Y-73477523D01*
X203147142Y-73429904D01*
X203051904Y-73382285D01*
X202813809Y-73382285D01*
X202718571Y-73429904D01*
X202670952Y-73477523D01*
X202623333Y-73572761D01*
X202623333Y-73763238D01*
X202670952Y-73858476D01*
X202718571Y-73906095D01*
X202813809Y-73953714D01*
%TO.C,I2C*%
X191968380Y-54570190D02*
X190968380Y-54570190D01*
X191063619Y-54141619D02*
X191016000Y-54094000D01*
X190968380Y-53998761D01*
X190968380Y-53760666D01*
X191016000Y-53665428D01*
X191063619Y-53617809D01*
X191158857Y-53570190D01*
X191254095Y-53570190D01*
X191396952Y-53617809D01*
X191968380Y-54189238D01*
X191968380Y-53570190D01*
X191873142Y-52570190D02*
X191920761Y-52617809D01*
X191968380Y-52760666D01*
X191968380Y-52855904D01*
X191920761Y-52998761D01*
X191825523Y-53094000D01*
X191730285Y-53141619D01*
X191539809Y-53189238D01*
X191396952Y-53189238D01*
X191206476Y-53141619D01*
X191111238Y-53094000D01*
X191016000Y-52998761D01*
X190968380Y-52855904D01*
X190968380Y-52760666D01*
X191016000Y-52617809D01*
X191063619Y-52570190D01*
%TO.C,UART*%
X199572761Y-78644380D02*
X199572761Y-79453904D01*
X199620380Y-79549142D01*
X199668000Y-79596761D01*
X199763238Y-79644380D01*
X199953714Y-79644380D01*
X200048952Y-79596761D01*
X200096571Y-79549142D01*
X200144190Y-79453904D01*
X200144190Y-78644380D01*
X200572761Y-79358666D02*
X201048952Y-79358666D01*
X200477523Y-79644380D02*
X200810857Y-78644380D01*
X201144190Y-79644380D01*
X202048952Y-79644380D02*
X201715619Y-79168190D01*
X201477523Y-79644380D02*
X201477523Y-78644380D01*
X201858476Y-78644380D01*
X201953714Y-78692000D01*
X202001333Y-78739619D01*
X202048952Y-78834857D01*
X202048952Y-78977714D01*
X202001333Y-79072952D01*
X201953714Y-79120571D01*
X201858476Y-79168190D01*
X201477523Y-79168190D01*
X202334666Y-78644380D02*
X202906095Y-78644380D01*
X202620380Y-79644380D02*
X202620380Y-78644380D01*
%TO.C,ISP*%
X222035809Y-56586380D02*
X222035809Y-55586380D01*
X222464380Y-56538761D02*
X222607238Y-56586380D01*
X222845333Y-56586380D01*
X222940571Y-56538761D01*
X222988190Y-56491142D01*
X223035809Y-56395904D01*
X223035809Y-56300666D01*
X222988190Y-56205428D01*
X222940571Y-56157809D01*
X222845333Y-56110190D01*
X222654857Y-56062571D01*
X222559619Y-56014952D01*
X222512000Y-55967333D01*
X222464380Y-55872095D01*
X222464380Y-55776857D01*
X222512000Y-55681619D01*
X222559619Y-55634000D01*
X222654857Y-55586380D01*
X222892952Y-55586380D01*
X223035809Y-55634000D01*
X223464380Y-56586380D02*
X223464380Y-55586380D01*
X223845333Y-55586380D01*
X223940571Y-55634000D01*
X223988190Y-55681619D01*
X224035809Y-55776857D01*
X224035809Y-55919714D01*
X223988190Y-56014952D01*
X223940571Y-56062571D01*
X223845333Y-56110190D01*
X223464380Y-56110190D01*
%TO.C,Motor 1*%
X185015523Y-77414380D02*
X185015523Y-76414380D01*
X185348857Y-77128666D01*
X185682190Y-76414380D01*
X185682190Y-77414380D01*
X186301238Y-77414380D02*
X186206000Y-77366761D01*
X186158380Y-77319142D01*
X186110761Y-77223904D01*
X186110761Y-76938190D01*
X186158380Y-76842952D01*
X186206000Y-76795333D01*
X186301238Y-76747714D01*
X186444095Y-76747714D01*
X186539333Y-76795333D01*
X186586952Y-76842952D01*
X186634571Y-76938190D01*
X186634571Y-77223904D01*
X186586952Y-77319142D01*
X186539333Y-77366761D01*
X186444095Y-77414380D01*
X186301238Y-77414380D01*
X186920285Y-76747714D02*
X187301238Y-76747714D01*
X187063142Y-76414380D02*
X187063142Y-77271523D01*
X187110761Y-77366761D01*
X187206000Y-77414380D01*
X187301238Y-77414380D01*
X187777428Y-77414380D02*
X187682190Y-77366761D01*
X187634571Y-77319142D01*
X187586952Y-77223904D01*
X187586952Y-76938190D01*
X187634571Y-76842952D01*
X187682190Y-76795333D01*
X187777428Y-76747714D01*
X187920285Y-76747714D01*
X188015523Y-76795333D01*
X188063142Y-76842952D01*
X188110761Y-76938190D01*
X188110761Y-77223904D01*
X188063142Y-77319142D01*
X188015523Y-77366761D01*
X187920285Y-77414380D01*
X187777428Y-77414380D01*
X188539333Y-77414380D02*
X188539333Y-76747714D01*
X188539333Y-76938190D02*
X188586952Y-76842952D01*
X188634571Y-76795333D01*
X188729809Y-76747714D01*
X188825047Y-76747714D01*
X190444095Y-77414380D02*
X189872666Y-77414380D01*
X190158380Y-77414380D02*
X190158380Y-76414380D01*
X190063142Y-76557238D01*
X189967904Y-76652476D01*
X189872666Y-76700095D01*
%TO.C,Motor 2*%
X193397523Y-34996380D02*
X193397523Y-33996380D01*
X193730857Y-34710666D01*
X194064190Y-33996380D01*
X194064190Y-34996380D01*
X194683238Y-34996380D02*
X194588000Y-34948761D01*
X194540380Y-34901142D01*
X194492761Y-34805904D01*
X194492761Y-34520190D01*
X194540380Y-34424952D01*
X194588000Y-34377333D01*
X194683238Y-34329714D01*
X194826095Y-34329714D01*
X194921333Y-34377333D01*
X194968952Y-34424952D01*
X195016571Y-34520190D01*
X195016571Y-34805904D01*
X194968952Y-34901142D01*
X194921333Y-34948761D01*
X194826095Y-34996380D01*
X194683238Y-34996380D01*
X195302285Y-34329714D02*
X195683238Y-34329714D01*
X195445142Y-33996380D02*
X195445142Y-34853523D01*
X195492761Y-34948761D01*
X195588000Y-34996380D01*
X195683238Y-34996380D01*
X196159428Y-34996380D02*
X196064190Y-34948761D01*
X196016571Y-34901142D01*
X195968952Y-34805904D01*
X195968952Y-34520190D01*
X196016571Y-34424952D01*
X196064190Y-34377333D01*
X196159428Y-34329714D01*
X196302285Y-34329714D01*
X196397523Y-34377333D01*
X196445142Y-34424952D01*
X196492761Y-34520190D01*
X196492761Y-34805904D01*
X196445142Y-34901142D01*
X196397523Y-34948761D01*
X196302285Y-34996380D01*
X196159428Y-34996380D01*
X196921333Y-34996380D02*
X196921333Y-34329714D01*
X196921333Y-34520190D02*
X196968952Y-34424952D01*
X197016571Y-34377333D01*
X197111809Y-34329714D01*
X197207047Y-34329714D01*
X198254666Y-34091619D02*
X198302285Y-34044000D01*
X198397523Y-33996380D01*
X198635619Y-33996380D01*
X198730857Y-34044000D01*
X198778476Y-34091619D01*
X198826095Y-34186857D01*
X198826095Y-34282095D01*
X198778476Y-34424952D01*
X198207047Y-34996380D01*
X198826095Y-34996380D01*
%TO.C,Motor 3*%
X223877523Y-60650380D02*
X223877523Y-59650380D01*
X224210857Y-60364666D01*
X224544190Y-59650380D01*
X224544190Y-60650380D01*
X225163238Y-60650380D02*
X225068000Y-60602761D01*
X225020380Y-60555142D01*
X224972761Y-60459904D01*
X224972761Y-60174190D01*
X225020380Y-60078952D01*
X225068000Y-60031333D01*
X225163238Y-59983714D01*
X225306095Y-59983714D01*
X225401333Y-60031333D01*
X225448952Y-60078952D01*
X225496571Y-60174190D01*
X225496571Y-60459904D01*
X225448952Y-60555142D01*
X225401333Y-60602761D01*
X225306095Y-60650380D01*
X225163238Y-60650380D01*
X225782285Y-59983714D02*
X226163238Y-59983714D01*
X225925142Y-59650380D02*
X225925142Y-60507523D01*
X225972761Y-60602761D01*
X226068000Y-60650380D01*
X226163238Y-60650380D01*
X226639428Y-60650380D02*
X226544190Y-60602761D01*
X226496571Y-60555142D01*
X226448952Y-60459904D01*
X226448952Y-60174190D01*
X226496571Y-60078952D01*
X226544190Y-60031333D01*
X226639428Y-59983714D01*
X226782285Y-59983714D01*
X226877523Y-60031333D01*
X226925142Y-60078952D01*
X226972761Y-60174190D01*
X226972761Y-60459904D01*
X226925142Y-60555142D01*
X226877523Y-60602761D01*
X226782285Y-60650380D01*
X226639428Y-60650380D01*
X227401333Y-60650380D02*
X227401333Y-59983714D01*
X227401333Y-60174190D02*
X227448952Y-60078952D01*
X227496571Y-60031333D01*
X227591809Y-59983714D01*
X227687047Y-59983714D01*
X228687047Y-59650380D02*
X229306095Y-59650380D01*
X228972761Y-60031333D01*
X229115619Y-60031333D01*
X229210857Y-60078952D01*
X229258476Y-60126571D01*
X229306095Y-60221809D01*
X229306095Y-60459904D01*
X229258476Y-60555142D01*
X229210857Y-60602761D01*
X229115619Y-60650380D01*
X228829904Y-60650380D01*
X228734666Y-60602761D01*
X228687047Y-60555142D01*
%TO.C,12V*%
X227218952Y-78268380D02*
X226647523Y-78268380D01*
X226933238Y-78268380D02*
X226933238Y-77268380D01*
X226838000Y-77411238D01*
X226742761Y-77506476D01*
X226647523Y-77554095D01*
X227599904Y-77363619D02*
X227647523Y-77316000D01*
X227742761Y-77268380D01*
X227980857Y-77268380D01*
X228076095Y-77316000D01*
X228123714Y-77363619D01*
X228171333Y-77458857D01*
X228171333Y-77554095D01*
X228123714Y-77696952D01*
X227552285Y-78268380D01*
X228171333Y-78268380D01*
X228457047Y-77268380D02*
X228790380Y-78268380D01*
X229123714Y-77268380D01*
%TO.C,R1*%
X216495333Y-38044380D02*
X216162000Y-37568190D01*
X215923904Y-38044380D02*
X215923904Y-37044380D01*
X216304857Y-37044380D01*
X216400095Y-37092000D01*
X216447714Y-37139619D01*
X216495333Y-37234857D01*
X216495333Y-37377714D01*
X216447714Y-37472952D01*
X216400095Y-37520571D01*
X216304857Y-37568190D01*
X215923904Y-37568190D01*
X217447714Y-38044380D02*
X216876285Y-38044380D01*
X217162000Y-38044380D02*
X217162000Y-37044380D01*
X217066761Y-37187238D01*
X216971523Y-37282476D01*
X216876285Y-37330095D01*
%TO.C,RESET*%
X219019619Y-43124380D02*
X218686285Y-42648190D01*
X218448190Y-43124380D02*
X218448190Y-42124380D01*
X218829142Y-42124380D01*
X218924380Y-42172000D01*
X218972000Y-42219619D01*
X219019619Y-42314857D01*
X219019619Y-42457714D01*
X218972000Y-42552952D01*
X218924380Y-42600571D01*
X218829142Y-42648190D01*
X218448190Y-42648190D01*
X219448190Y-42600571D02*
X219781523Y-42600571D01*
X219924380Y-43124380D02*
X219448190Y-43124380D01*
X219448190Y-42124380D01*
X219924380Y-42124380D01*
X220305333Y-43076761D02*
X220448190Y-43124380D01*
X220686285Y-43124380D01*
X220781523Y-43076761D01*
X220829142Y-43029142D01*
X220876761Y-42933904D01*
X220876761Y-42838666D01*
X220829142Y-42743428D01*
X220781523Y-42695809D01*
X220686285Y-42648190D01*
X220495809Y-42600571D01*
X220400571Y-42552952D01*
X220352952Y-42505333D01*
X220305333Y-42410095D01*
X220305333Y-42314857D01*
X220352952Y-42219619D01*
X220400571Y-42172000D01*
X220495809Y-42124380D01*
X220733904Y-42124380D01*
X220876761Y-42172000D01*
X221305333Y-42600571D02*
X221638666Y-42600571D01*
X221781523Y-43124380D02*
X221305333Y-43124380D01*
X221305333Y-42124380D01*
X221781523Y-42124380D01*
X222067238Y-42124380D02*
X222638666Y-42124380D01*
X222352952Y-43124380D02*
X222352952Y-42124380D01*
%TO.C,U1*%
X210312095Y-52792380D02*
X210312095Y-53601904D01*
X210359714Y-53697142D01*
X210407333Y-53744761D01*
X210502571Y-53792380D01*
X210693047Y-53792380D01*
X210788285Y-53744761D01*
X210835904Y-53697142D01*
X210883523Y-53601904D01*
X210883523Y-52792380D01*
X211883523Y-53792380D02*
X211312095Y-53792380D01*
X211597809Y-53792380D02*
X211597809Y-52792380D01*
X211502571Y-52935238D01*
X211407333Y-53030476D01*
X211312095Y-53078095D01*
%TO.C,U2*%
X198588380Y-69087904D02*
X199397904Y-69087904D01*
X199493142Y-69040285D01*
X199540761Y-68992666D01*
X199588380Y-68897428D01*
X199588380Y-68706952D01*
X199540761Y-68611714D01*
X199493142Y-68564095D01*
X199397904Y-68516476D01*
X198588380Y-68516476D01*
X198683619Y-68087904D02*
X198636000Y-68040285D01*
X198588380Y-67945047D01*
X198588380Y-67706952D01*
X198636000Y-67611714D01*
X198683619Y-67564095D01*
X198778857Y-67516476D01*
X198874095Y-67516476D01*
X199016952Y-67564095D01*
X199588380Y-68135523D01*
X199588380Y-67516476D01*
%TO.C,U3*%
X205994095Y-49236380D02*
X205994095Y-50045904D01*
X206041714Y-50141142D01*
X206089333Y-50188761D01*
X206184571Y-50236380D01*
X206375047Y-50236380D01*
X206470285Y-50188761D01*
X206517904Y-50141142D01*
X206565523Y-50045904D01*
X206565523Y-49236380D01*
X206946476Y-49236380D02*
X207565523Y-49236380D01*
X207232190Y-49617333D01*
X207375047Y-49617333D01*
X207470285Y-49664952D01*
X207517904Y-49712571D01*
X207565523Y-49807809D01*
X207565523Y-50045904D01*
X207517904Y-50141142D01*
X207470285Y-50188761D01*
X207375047Y-50236380D01*
X207089333Y-50236380D01*
X206994095Y-50188761D01*
X206946476Y-50141142D01*
%TO.C,U4*%
X214082380Y-69341904D02*
X214891904Y-69341904D01*
X214987142Y-69294285D01*
X215034761Y-69246666D01*
X215082380Y-69151428D01*
X215082380Y-68960952D01*
X215034761Y-68865714D01*
X214987142Y-68818095D01*
X214891904Y-68770476D01*
X214082380Y-68770476D01*
X214415714Y-67865714D02*
X215082380Y-67865714D01*
X214034761Y-68103809D02*
X214749047Y-68341904D01*
X214749047Y-67722857D01*
%TO.C,Y1*%
X192254190Y-60420190D02*
X192730380Y-60420190D01*
X191730380Y-60753523D02*
X192254190Y-60420190D01*
X191730380Y-60086857D01*
X192730380Y-59229714D02*
X192730380Y-59801142D01*
X192730380Y-59515428D02*
X191730380Y-59515428D01*
X191873238Y-59610666D01*
X191968476Y-59705904D01*
X192016095Y-59801142D01*
%TO.C,5V*%
X212153523Y-87082380D02*
X211677333Y-87082380D01*
X211629714Y-87558571D01*
X211677333Y-87510952D01*
X211772571Y-87463333D01*
X212010666Y-87463333D01*
X212105904Y-87510952D01*
X212153523Y-87558571D01*
X212201142Y-87653809D01*
X212201142Y-87891904D01*
X212153523Y-87987142D01*
X212105904Y-88034761D01*
X212010666Y-88082380D01*
X211772571Y-88082380D01*
X211677333Y-88034761D01*
X211629714Y-87987142D01*
X212486857Y-87082380D02*
X212820190Y-88082380D01*
X213153523Y-87082380D01*
%TO.C,12V*%
X214518952Y-88082380D02*
X213947523Y-88082380D01*
X214233238Y-88082380D02*
X214233238Y-87082380D01*
X214138000Y-87225238D01*
X214042761Y-87320476D01*
X213947523Y-87368095D01*
X214899904Y-87177619D02*
X214947523Y-87130000D01*
X215042761Y-87082380D01*
X215280857Y-87082380D01*
X215376095Y-87130000D01*
X215423714Y-87177619D01*
X215471333Y-87272857D01*
X215471333Y-87368095D01*
X215423714Y-87510952D01*
X214852285Y-88082380D01*
X215471333Y-88082380D01*
X215757047Y-87082380D02*
X216090380Y-88082380D01*
X216423714Y-87082380D01*
%TO.C,ST*%
X209137333Y-88034761D02*
X209280190Y-88082380D01*
X209518285Y-88082380D01*
X209613523Y-88034761D01*
X209661142Y-87987142D01*
X209708761Y-87891904D01*
X209708761Y-87796666D01*
X209661142Y-87701428D01*
X209613523Y-87653809D01*
X209518285Y-87606190D01*
X209327809Y-87558571D01*
X209232571Y-87510952D01*
X209184952Y-87463333D01*
X209137333Y-87368095D01*
X209137333Y-87272857D01*
X209184952Y-87177619D01*
X209232571Y-87130000D01*
X209327809Y-87082380D01*
X209565904Y-87082380D01*
X209708761Y-87130000D01*
X209994476Y-87082380D02*
X210565904Y-87082380D01*
X210280190Y-88082380D02*
X210280190Y-87082380D01*
%TO.C,R2*%
X212177333Y-78430380D02*
X211844000Y-77954190D01*
X211605904Y-78430380D02*
X211605904Y-77430380D01*
X211986857Y-77430380D01*
X212082095Y-77478000D01*
X212129714Y-77525619D01*
X212177333Y-77620857D01*
X212177333Y-77763714D01*
X212129714Y-77858952D01*
X212082095Y-77906571D01*
X211986857Y-77954190D01*
X211605904Y-77954190D01*
X212558285Y-77525619D02*
X212605904Y-77478000D01*
X212701142Y-77430380D01*
X212939238Y-77430380D01*
X213034476Y-77478000D01*
X213082095Y-77525619D01*
X213129714Y-77620857D01*
X213129714Y-77716095D01*
X213082095Y-77858952D01*
X212510666Y-78430380D01*
X213129714Y-78430380D01*
%TO.C,R3*%
X214717333Y-78430380D02*
X214384000Y-77954190D01*
X214145904Y-78430380D02*
X214145904Y-77430380D01*
X214526857Y-77430380D01*
X214622095Y-77478000D01*
X214669714Y-77525619D01*
X214717333Y-77620857D01*
X214717333Y-77763714D01*
X214669714Y-77858952D01*
X214622095Y-77906571D01*
X214526857Y-77954190D01*
X214145904Y-77954190D01*
X215050666Y-77430380D02*
X215669714Y-77430380D01*
X215336380Y-77811333D01*
X215479238Y-77811333D01*
X215574476Y-77858952D01*
X215622095Y-77906571D01*
X215669714Y-78001809D01*
X215669714Y-78239904D01*
X215622095Y-78335142D01*
X215574476Y-78382761D01*
X215479238Y-78430380D01*
X215193523Y-78430380D01*
X215098285Y-78382761D01*
X215050666Y-78335142D01*
%TO.C,R4*%
X209637333Y-78430380D02*
X209304000Y-77954190D01*
X209065904Y-78430380D02*
X209065904Y-77430380D01*
X209446857Y-77430380D01*
X209542095Y-77478000D01*
X209589714Y-77525619D01*
X209637333Y-77620857D01*
X209637333Y-77763714D01*
X209589714Y-77858952D01*
X209542095Y-77906571D01*
X209446857Y-77954190D01*
X209065904Y-77954190D01*
X210494476Y-77763714D02*
X210494476Y-78430380D01*
X210256380Y-77382761D02*
X210018285Y-78097047D01*
X210637333Y-78097047D01*
%TD*%
M02*
