%TF.GenerationSoftware,KiCad,Pcbnew,5.1.9+dfsg1-1*%
%TF.CreationDate,2021-11-12T22:38:19+01:00*%
%TF.ProjectId,motor_board_v2,6d6f746f-725f-4626-9f61-72645f76322e,rev?*%
%TF.SameCoordinates,Original*%
%TF.FileFunction,Paste,Top*%
%TF.FilePolarity,Positive*%
%FSLAX46Y46*%
G04 Gerber Fmt 4.6, Leading zero omitted, Abs format (unit mm)*
G04 Created by KiCad (PCBNEW 5.1.9+dfsg1-1) date 2021-11-12 22:38:19*
%MOMM*%
%LPD*%
G01*
G04 APERTURE LIST*
%ADD10R,1.600000X0.550000*%
%ADD11R,0.550000X1.600000*%
%ADD12R,2.000000X4.500000*%
G04 APERTURE END LIST*
%TO.C,C2*%
G36*
G01*
X196776000Y-38387000D02*
X196776000Y-39337000D01*
G75*
G02*
X196526000Y-39587000I-250000J0D01*
G01*
X196026000Y-39587000D01*
G75*
G02*
X195776000Y-39337000I0J250000D01*
G01*
X195776000Y-38387000D01*
G75*
G02*
X196026000Y-38137000I250000J0D01*
G01*
X196526000Y-38137000D01*
G75*
G02*
X196776000Y-38387000I0J-250000D01*
G01*
G37*
G36*
G01*
X194876000Y-38387000D02*
X194876000Y-39337000D01*
G75*
G02*
X194626000Y-39587000I-250000J0D01*
G01*
X194126000Y-39587000D01*
G75*
G02*
X193876000Y-39337000I0J250000D01*
G01*
X193876000Y-38387000D01*
G75*
G02*
X194126000Y-38137000I250000J0D01*
G01*
X194626000Y-38137000D01*
G75*
G02*
X194876000Y-38387000I0J-250000D01*
G01*
G37*
%TD*%
%TO.C,C3*%
G36*
G01*
X199169000Y-52398000D02*
X200119000Y-52398000D01*
G75*
G02*
X200369000Y-52648000I0J-250000D01*
G01*
X200369000Y-53148000D01*
G75*
G02*
X200119000Y-53398000I-250000J0D01*
G01*
X199169000Y-53398000D01*
G75*
G02*
X198919000Y-53148000I0J250000D01*
G01*
X198919000Y-52648000D01*
G75*
G02*
X199169000Y-52398000I250000J0D01*
G01*
G37*
G36*
G01*
X199169000Y-54298000D02*
X200119000Y-54298000D01*
G75*
G02*
X200369000Y-54548000I0J-250000D01*
G01*
X200369000Y-55048000D01*
G75*
G02*
X200119000Y-55298000I-250000J0D01*
G01*
X199169000Y-55298000D01*
G75*
G02*
X198919000Y-55048000I0J250000D01*
G01*
X198919000Y-54548000D01*
G75*
G02*
X199169000Y-54298000I250000J0D01*
G01*
G37*
%TD*%
%TO.C,C4*%
G36*
G01*
X200119000Y-59748000D02*
X199169000Y-59748000D01*
G75*
G02*
X198919000Y-59498000I0J250000D01*
G01*
X198919000Y-58998000D01*
G75*
G02*
X199169000Y-58748000I250000J0D01*
G01*
X200119000Y-58748000D01*
G75*
G02*
X200369000Y-58998000I0J-250000D01*
G01*
X200369000Y-59498000D01*
G75*
G02*
X200119000Y-59748000I-250000J0D01*
G01*
G37*
G36*
G01*
X200119000Y-61648000D02*
X199169000Y-61648000D01*
G75*
G02*
X198919000Y-61398000I0J250000D01*
G01*
X198919000Y-60898000D01*
G75*
G02*
X199169000Y-60648000I250000J0D01*
G01*
X200119000Y-60648000D01*
G75*
G02*
X200369000Y-60898000I0J-250000D01*
G01*
X200369000Y-61398000D01*
G75*
G02*
X200119000Y-61648000I-250000J0D01*
G01*
G37*
%TD*%
%TO.C,C6*%
G36*
G01*
X204945000Y-73718000D02*
X203995000Y-73718000D01*
G75*
G02*
X203745000Y-73468000I0J250000D01*
G01*
X203745000Y-72968000D01*
G75*
G02*
X203995000Y-72718000I250000J0D01*
G01*
X204945000Y-72718000D01*
G75*
G02*
X205195000Y-72968000I0J-250000D01*
G01*
X205195000Y-73468000D01*
G75*
G02*
X204945000Y-73718000I-250000J0D01*
G01*
G37*
G36*
G01*
X204945000Y-75618000D02*
X203995000Y-75618000D01*
G75*
G02*
X203745000Y-75368000I0J250000D01*
G01*
X203745000Y-74868000D01*
G75*
G02*
X203995000Y-74618000I250000J0D01*
G01*
X204945000Y-74618000D01*
G75*
G02*
X205195000Y-74868000I0J-250000D01*
G01*
X205195000Y-75368000D01*
G75*
G02*
X204945000Y-75618000I-250000J0D01*
G01*
G37*
%TD*%
%TO.C,R1*%
G36*
G01*
X216036999Y-38615000D02*
X217287001Y-38615000D01*
G75*
G02*
X217537000Y-38864999I0J-249999D01*
G01*
X217537000Y-39490001D01*
G75*
G02*
X217287001Y-39740000I-249999J0D01*
G01*
X216036999Y-39740000D01*
G75*
G02*
X215787000Y-39490001I0J249999D01*
G01*
X215787000Y-38864999D01*
G75*
G02*
X216036999Y-38615000I249999J0D01*
G01*
G37*
G36*
G01*
X216036999Y-41540000D02*
X217287001Y-41540000D01*
G75*
G02*
X217537000Y-41789999I0J-249999D01*
G01*
X217537000Y-42415001D01*
G75*
G02*
X217287001Y-42665000I-249999J0D01*
G01*
X216036999Y-42665000D01*
G75*
G02*
X215787000Y-42415001I0J249999D01*
G01*
X215787000Y-41789999D01*
G75*
G02*
X216036999Y-41540000I249999J0D01*
G01*
G37*
%TD*%
D10*
%TO.C,U1*%
X202506000Y-56636000D03*
X202506000Y-57436000D03*
X202506000Y-58236000D03*
X202506000Y-59036000D03*
X202506000Y-59836000D03*
X202506000Y-60636000D03*
X202506000Y-61436000D03*
X202506000Y-62236000D03*
D11*
X203956000Y-63686000D03*
X204756000Y-63686000D03*
X205556000Y-63686000D03*
X206356000Y-63686000D03*
X207156000Y-63686000D03*
X207956000Y-63686000D03*
X208756000Y-63686000D03*
X209556000Y-63686000D03*
D10*
X211006000Y-62236000D03*
X211006000Y-61436000D03*
X211006000Y-60636000D03*
X211006000Y-59836000D03*
X211006000Y-59036000D03*
X211006000Y-58236000D03*
X211006000Y-57436000D03*
X211006000Y-56636000D03*
D11*
X209556000Y-55186000D03*
X208756000Y-55186000D03*
X207956000Y-55186000D03*
X207156000Y-55186000D03*
X206356000Y-55186000D03*
X205556000Y-55186000D03*
X204756000Y-55186000D03*
X203956000Y-55186000D03*
%TD*%
%TO.C,U2*%
G36*
G01*
X194079000Y-72030000D02*
X193779000Y-72030000D01*
G75*
G02*
X193629000Y-71880000I0J150000D01*
G01*
X193629000Y-70580000D01*
G75*
G02*
X193779000Y-70430000I150000J0D01*
G01*
X194079000Y-70430000D01*
G75*
G02*
X194229000Y-70580000I0J-150000D01*
G01*
X194229000Y-71880000D01*
G75*
G02*
X194079000Y-72030000I-150000J0D01*
G01*
G37*
G36*
G01*
X195349000Y-72030000D02*
X195049000Y-72030000D01*
G75*
G02*
X194899000Y-71880000I0J150000D01*
G01*
X194899000Y-70580000D01*
G75*
G02*
X195049000Y-70430000I150000J0D01*
G01*
X195349000Y-70430000D01*
G75*
G02*
X195499000Y-70580000I0J-150000D01*
G01*
X195499000Y-71880000D01*
G75*
G02*
X195349000Y-72030000I-150000J0D01*
G01*
G37*
G36*
G01*
X196619000Y-72030000D02*
X196319000Y-72030000D01*
G75*
G02*
X196169000Y-71880000I0J150000D01*
G01*
X196169000Y-70580000D01*
G75*
G02*
X196319000Y-70430000I150000J0D01*
G01*
X196619000Y-70430000D01*
G75*
G02*
X196769000Y-70580000I0J-150000D01*
G01*
X196769000Y-71880000D01*
G75*
G02*
X196619000Y-72030000I-150000J0D01*
G01*
G37*
G36*
G01*
X197889000Y-72030000D02*
X197589000Y-72030000D01*
G75*
G02*
X197439000Y-71880000I0J150000D01*
G01*
X197439000Y-70580000D01*
G75*
G02*
X197589000Y-70430000I150000J0D01*
G01*
X197889000Y-70430000D01*
G75*
G02*
X198039000Y-70580000I0J-150000D01*
G01*
X198039000Y-71880000D01*
G75*
G02*
X197889000Y-72030000I-150000J0D01*
G01*
G37*
G36*
G01*
X197889000Y-66730000D02*
X197589000Y-66730000D01*
G75*
G02*
X197439000Y-66580000I0J150000D01*
G01*
X197439000Y-65280000D01*
G75*
G02*
X197589000Y-65130000I150000J0D01*
G01*
X197889000Y-65130000D01*
G75*
G02*
X198039000Y-65280000I0J-150000D01*
G01*
X198039000Y-66580000D01*
G75*
G02*
X197889000Y-66730000I-150000J0D01*
G01*
G37*
G36*
G01*
X196619000Y-66730000D02*
X196319000Y-66730000D01*
G75*
G02*
X196169000Y-66580000I0J150000D01*
G01*
X196169000Y-65280000D01*
G75*
G02*
X196319000Y-65130000I150000J0D01*
G01*
X196619000Y-65130000D01*
G75*
G02*
X196769000Y-65280000I0J-150000D01*
G01*
X196769000Y-66580000D01*
G75*
G02*
X196619000Y-66730000I-150000J0D01*
G01*
G37*
G36*
G01*
X195349000Y-66730000D02*
X195049000Y-66730000D01*
G75*
G02*
X194899000Y-66580000I0J150000D01*
G01*
X194899000Y-65280000D01*
G75*
G02*
X195049000Y-65130000I150000J0D01*
G01*
X195349000Y-65130000D01*
G75*
G02*
X195499000Y-65280000I0J-150000D01*
G01*
X195499000Y-66580000D01*
G75*
G02*
X195349000Y-66730000I-150000J0D01*
G01*
G37*
G36*
G01*
X194079000Y-66730000D02*
X193779000Y-66730000D01*
G75*
G02*
X193629000Y-66580000I0J150000D01*
G01*
X193629000Y-65280000D01*
G75*
G02*
X193779000Y-65130000I150000J0D01*
G01*
X194079000Y-65130000D01*
G75*
G02*
X194229000Y-65280000I0J-150000D01*
G01*
X194229000Y-66580000D01*
G75*
G02*
X194079000Y-66730000I-150000J0D01*
G01*
G37*
G36*
G01*
X195436500Y-69665000D02*
X194631500Y-69665000D01*
G75*
G02*
X194389000Y-69422500I0J242500D01*
G01*
X194389000Y-68937500D01*
G75*
G02*
X194631500Y-68695000I242500J0D01*
G01*
X195436500Y-68695000D01*
G75*
G02*
X195679000Y-68937500I0J-242500D01*
G01*
X195679000Y-69422500D01*
G75*
G02*
X195436500Y-69665000I-242500J0D01*
G01*
G37*
G36*
G01*
X197036500Y-69665000D02*
X196231500Y-69665000D01*
G75*
G02*
X195989000Y-69422500I0J242500D01*
G01*
X195989000Y-68937500D01*
G75*
G02*
X196231500Y-68695000I242500J0D01*
G01*
X197036500Y-68695000D01*
G75*
G02*
X197279000Y-68937500I0J-242500D01*
G01*
X197279000Y-69422500D01*
G75*
G02*
X197036500Y-69665000I-242500J0D01*
G01*
G37*
G36*
G01*
X195436500Y-68465000D02*
X194631500Y-68465000D01*
G75*
G02*
X194389000Y-68222500I0J242500D01*
G01*
X194389000Y-67737500D01*
G75*
G02*
X194631500Y-67495000I242500J0D01*
G01*
X195436500Y-67495000D01*
G75*
G02*
X195679000Y-67737500I0J-242500D01*
G01*
X195679000Y-68222500D01*
G75*
G02*
X195436500Y-68465000I-242500J0D01*
G01*
G37*
G36*
G01*
X197036500Y-68465000D02*
X196231500Y-68465000D01*
G75*
G02*
X195989000Y-68222500I0J242500D01*
G01*
X195989000Y-67737500D01*
G75*
G02*
X196231500Y-67495000I242500J0D01*
G01*
X197036500Y-67495000D01*
G75*
G02*
X197279000Y-67737500I0J-242500D01*
G01*
X197279000Y-68222500D01*
G75*
G02*
X197036500Y-68465000I-242500J0D01*
G01*
G37*
%TD*%
%TO.C,U3*%
G36*
G01*
X206871000Y-47430500D02*
X206871000Y-46625500D01*
G75*
G02*
X207113500Y-46383000I242500J0D01*
G01*
X207598500Y-46383000D01*
G75*
G02*
X207841000Y-46625500I0J-242500D01*
G01*
X207841000Y-47430500D01*
G75*
G02*
X207598500Y-47673000I-242500J0D01*
G01*
X207113500Y-47673000D01*
G75*
G02*
X206871000Y-47430500I0J242500D01*
G01*
G37*
G36*
G01*
X206871000Y-45830500D02*
X206871000Y-45025500D01*
G75*
G02*
X207113500Y-44783000I242500J0D01*
G01*
X207598500Y-44783000D01*
G75*
G02*
X207841000Y-45025500I0J-242500D01*
G01*
X207841000Y-45830500D01*
G75*
G02*
X207598500Y-46073000I-242500J0D01*
G01*
X207113500Y-46073000D01*
G75*
G02*
X206871000Y-45830500I0J242500D01*
G01*
G37*
G36*
G01*
X205671000Y-47430500D02*
X205671000Y-46625500D01*
G75*
G02*
X205913500Y-46383000I242500J0D01*
G01*
X206398500Y-46383000D01*
G75*
G02*
X206641000Y-46625500I0J-242500D01*
G01*
X206641000Y-47430500D01*
G75*
G02*
X206398500Y-47673000I-242500J0D01*
G01*
X205913500Y-47673000D01*
G75*
G02*
X205671000Y-47430500I0J242500D01*
G01*
G37*
G36*
G01*
X205671000Y-45830500D02*
X205671000Y-45025500D01*
G75*
G02*
X205913500Y-44783000I242500J0D01*
G01*
X206398500Y-44783000D01*
G75*
G02*
X206641000Y-45025500I0J-242500D01*
G01*
X206641000Y-45830500D01*
G75*
G02*
X206398500Y-46073000I-242500J0D01*
G01*
X205913500Y-46073000D01*
G75*
G02*
X205671000Y-45830500I0J242500D01*
G01*
G37*
G36*
G01*
X208606000Y-44473000D02*
X208606000Y-44173000D01*
G75*
G02*
X208756000Y-44023000I150000J0D01*
G01*
X210056000Y-44023000D01*
G75*
G02*
X210206000Y-44173000I0J-150000D01*
G01*
X210206000Y-44473000D01*
G75*
G02*
X210056000Y-44623000I-150000J0D01*
G01*
X208756000Y-44623000D01*
G75*
G02*
X208606000Y-44473000I0J150000D01*
G01*
G37*
G36*
G01*
X208606000Y-45743000D02*
X208606000Y-45443000D01*
G75*
G02*
X208756000Y-45293000I150000J0D01*
G01*
X210056000Y-45293000D01*
G75*
G02*
X210206000Y-45443000I0J-150000D01*
G01*
X210206000Y-45743000D01*
G75*
G02*
X210056000Y-45893000I-150000J0D01*
G01*
X208756000Y-45893000D01*
G75*
G02*
X208606000Y-45743000I0J150000D01*
G01*
G37*
G36*
G01*
X208606000Y-47013000D02*
X208606000Y-46713000D01*
G75*
G02*
X208756000Y-46563000I150000J0D01*
G01*
X210056000Y-46563000D01*
G75*
G02*
X210206000Y-46713000I0J-150000D01*
G01*
X210206000Y-47013000D01*
G75*
G02*
X210056000Y-47163000I-150000J0D01*
G01*
X208756000Y-47163000D01*
G75*
G02*
X208606000Y-47013000I0J150000D01*
G01*
G37*
G36*
G01*
X208606000Y-48283000D02*
X208606000Y-47983000D01*
G75*
G02*
X208756000Y-47833000I150000J0D01*
G01*
X210056000Y-47833000D01*
G75*
G02*
X210206000Y-47983000I0J-150000D01*
G01*
X210206000Y-48283000D01*
G75*
G02*
X210056000Y-48433000I-150000J0D01*
G01*
X208756000Y-48433000D01*
G75*
G02*
X208606000Y-48283000I0J150000D01*
G01*
G37*
G36*
G01*
X203306000Y-48283000D02*
X203306000Y-47983000D01*
G75*
G02*
X203456000Y-47833000I150000J0D01*
G01*
X204756000Y-47833000D01*
G75*
G02*
X204906000Y-47983000I0J-150000D01*
G01*
X204906000Y-48283000D01*
G75*
G02*
X204756000Y-48433000I-150000J0D01*
G01*
X203456000Y-48433000D01*
G75*
G02*
X203306000Y-48283000I0J150000D01*
G01*
G37*
G36*
G01*
X203306000Y-47013000D02*
X203306000Y-46713000D01*
G75*
G02*
X203456000Y-46563000I150000J0D01*
G01*
X204756000Y-46563000D01*
G75*
G02*
X204906000Y-46713000I0J-150000D01*
G01*
X204906000Y-47013000D01*
G75*
G02*
X204756000Y-47163000I-150000J0D01*
G01*
X203456000Y-47163000D01*
G75*
G02*
X203306000Y-47013000I0J150000D01*
G01*
G37*
G36*
G01*
X203306000Y-45743000D02*
X203306000Y-45443000D01*
G75*
G02*
X203456000Y-45293000I150000J0D01*
G01*
X204756000Y-45293000D01*
G75*
G02*
X204906000Y-45443000I0J-150000D01*
G01*
X204906000Y-45743000D01*
G75*
G02*
X204756000Y-45893000I-150000J0D01*
G01*
X203456000Y-45893000D01*
G75*
G02*
X203306000Y-45743000I0J150000D01*
G01*
G37*
G36*
G01*
X203306000Y-44473000D02*
X203306000Y-44173000D01*
G75*
G02*
X203456000Y-44023000I150000J0D01*
G01*
X204756000Y-44023000D01*
G75*
G02*
X204906000Y-44173000I0J-150000D01*
G01*
X204906000Y-44473000D01*
G75*
G02*
X204756000Y-44623000I-150000J0D01*
G01*
X203456000Y-44623000D01*
G75*
G02*
X203306000Y-44473000I0J150000D01*
G01*
G37*
%TD*%
%TO.C,U4*%
G36*
G01*
X219941000Y-65130000D02*
X220241000Y-65130000D01*
G75*
G02*
X220391000Y-65280000I0J-150000D01*
G01*
X220391000Y-66580000D01*
G75*
G02*
X220241000Y-66730000I-150000J0D01*
G01*
X219941000Y-66730000D01*
G75*
G02*
X219791000Y-66580000I0J150000D01*
G01*
X219791000Y-65280000D01*
G75*
G02*
X219941000Y-65130000I150000J0D01*
G01*
G37*
G36*
G01*
X218671000Y-65130000D02*
X218971000Y-65130000D01*
G75*
G02*
X219121000Y-65280000I0J-150000D01*
G01*
X219121000Y-66580000D01*
G75*
G02*
X218971000Y-66730000I-150000J0D01*
G01*
X218671000Y-66730000D01*
G75*
G02*
X218521000Y-66580000I0J150000D01*
G01*
X218521000Y-65280000D01*
G75*
G02*
X218671000Y-65130000I150000J0D01*
G01*
G37*
G36*
G01*
X217401000Y-65130000D02*
X217701000Y-65130000D01*
G75*
G02*
X217851000Y-65280000I0J-150000D01*
G01*
X217851000Y-66580000D01*
G75*
G02*
X217701000Y-66730000I-150000J0D01*
G01*
X217401000Y-66730000D01*
G75*
G02*
X217251000Y-66580000I0J150000D01*
G01*
X217251000Y-65280000D01*
G75*
G02*
X217401000Y-65130000I150000J0D01*
G01*
G37*
G36*
G01*
X216131000Y-65130000D02*
X216431000Y-65130000D01*
G75*
G02*
X216581000Y-65280000I0J-150000D01*
G01*
X216581000Y-66580000D01*
G75*
G02*
X216431000Y-66730000I-150000J0D01*
G01*
X216131000Y-66730000D01*
G75*
G02*
X215981000Y-66580000I0J150000D01*
G01*
X215981000Y-65280000D01*
G75*
G02*
X216131000Y-65130000I150000J0D01*
G01*
G37*
G36*
G01*
X216131000Y-70430000D02*
X216431000Y-70430000D01*
G75*
G02*
X216581000Y-70580000I0J-150000D01*
G01*
X216581000Y-71880000D01*
G75*
G02*
X216431000Y-72030000I-150000J0D01*
G01*
X216131000Y-72030000D01*
G75*
G02*
X215981000Y-71880000I0J150000D01*
G01*
X215981000Y-70580000D01*
G75*
G02*
X216131000Y-70430000I150000J0D01*
G01*
G37*
G36*
G01*
X217401000Y-70430000D02*
X217701000Y-70430000D01*
G75*
G02*
X217851000Y-70580000I0J-150000D01*
G01*
X217851000Y-71880000D01*
G75*
G02*
X217701000Y-72030000I-150000J0D01*
G01*
X217401000Y-72030000D01*
G75*
G02*
X217251000Y-71880000I0J150000D01*
G01*
X217251000Y-70580000D01*
G75*
G02*
X217401000Y-70430000I150000J0D01*
G01*
G37*
G36*
G01*
X218671000Y-70430000D02*
X218971000Y-70430000D01*
G75*
G02*
X219121000Y-70580000I0J-150000D01*
G01*
X219121000Y-71880000D01*
G75*
G02*
X218971000Y-72030000I-150000J0D01*
G01*
X218671000Y-72030000D01*
G75*
G02*
X218521000Y-71880000I0J150000D01*
G01*
X218521000Y-70580000D01*
G75*
G02*
X218671000Y-70430000I150000J0D01*
G01*
G37*
G36*
G01*
X219941000Y-70430000D02*
X220241000Y-70430000D01*
G75*
G02*
X220391000Y-70580000I0J-150000D01*
G01*
X220391000Y-71880000D01*
G75*
G02*
X220241000Y-72030000I-150000J0D01*
G01*
X219941000Y-72030000D01*
G75*
G02*
X219791000Y-71880000I0J150000D01*
G01*
X219791000Y-70580000D01*
G75*
G02*
X219941000Y-70430000I150000J0D01*
G01*
G37*
G36*
G01*
X218583500Y-67495000D02*
X219388500Y-67495000D01*
G75*
G02*
X219631000Y-67737500I0J-242500D01*
G01*
X219631000Y-68222500D01*
G75*
G02*
X219388500Y-68465000I-242500J0D01*
G01*
X218583500Y-68465000D01*
G75*
G02*
X218341000Y-68222500I0J242500D01*
G01*
X218341000Y-67737500D01*
G75*
G02*
X218583500Y-67495000I242500J0D01*
G01*
G37*
G36*
G01*
X216983500Y-67495000D02*
X217788500Y-67495000D01*
G75*
G02*
X218031000Y-67737500I0J-242500D01*
G01*
X218031000Y-68222500D01*
G75*
G02*
X217788500Y-68465000I-242500J0D01*
G01*
X216983500Y-68465000D01*
G75*
G02*
X216741000Y-68222500I0J242500D01*
G01*
X216741000Y-67737500D01*
G75*
G02*
X216983500Y-67495000I242500J0D01*
G01*
G37*
G36*
G01*
X218583500Y-68695000D02*
X219388500Y-68695000D01*
G75*
G02*
X219631000Y-68937500I0J-242500D01*
G01*
X219631000Y-69422500D01*
G75*
G02*
X219388500Y-69665000I-242500J0D01*
G01*
X218583500Y-69665000D01*
G75*
G02*
X218341000Y-69422500I0J242500D01*
G01*
X218341000Y-68937500D01*
G75*
G02*
X218583500Y-68695000I242500J0D01*
G01*
G37*
G36*
G01*
X216983500Y-68695000D02*
X217788500Y-68695000D01*
G75*
G02*
X218031000Y-68937500I0J-242500D01*
G01*
X218031000Y-69422500D01*
G75*
G02*
X217788500Y-69665000I-242500J0D01*
G01*
X216983500Y-69665000D01*
G75*
G02*
X216741000Y-69422500I0J242500D01*
G01*
X216741000Y-68937500D01*
G75*
G02*
X216983500Y-68695000I242500J0D01*
G01*
G37*
%TD*%
D12*
%TO.C,Y1*%
X195580000Y-52900000D03*
X195580000Y-61400000D03*
%TD*%
%TO.C,5V*%
G36*
G01*
X212600250Y-86315000D02*
X212087750Y-86315000D01*
G75*
G02*
X211869000Y-86096250I0J218750D01*
G01*
X211869000Y-85658750D01*
G75*
G02*
X212087750Y-85440000I218750J0D01*
G01*
X212600250Y-85440000D01*
G75*
G02*
X212819000Y-85658750I0J-218750D01*
G01*
X212819000Y-86096250D01*
G75*
G02*
X212600250Y-86315000I-218750J0D01*
G01*
G37*
G36*
G01*
X212600250Y-84740000D02*
X212087750Y-84740000D01*
G75*
G02*
X211869000Y-84521250I0J218750D01*
G01*
X211869000Y-84083750D01*
G75*
G02*
X212087750Y-83865000I218750J0D01*
G01*
X212600250Y-83865000D01*
G75*
G02*
X212819000Y-84083750I0J-218750D01*
G01*
X212819000Y-84521250D01*
G75*
G02*
X212600250Y-84740000I-218750J0D01*
G01*
G37*
%TD*%
%TO.C,12V*%
G36*
G01*
X215140250Y-84740000D02*
X214627750Y-84740000D01*
G75*
G02*
X214409000Y-84521250I0J218750D01*
G01*
X214409000Y-84083750D01*
G75*
G02*
X214627750Y-83865000I218750J0D01*
G01*
X215140250Y-83865000D01*
G75*
G02*
X215359000Y-84083750I0J-218750D01*
G01*
X215359000Y-84521250D01*
G75*
G02*
X215140250Y-84740000I-218750J0D01*
G01*
G37*
G36*
G01*
X215140250Y-86315000D02*
X214627750Y-86315000D01*
G75*
G02*
X214409000Y-86096250I0J218750D01*
G01*
X214409000Y-85658750D01*
G75*
G02*
X214627750Y-85440000I218750J0D01*
G01*
X215140250Y-85440000D01*
G75*
G02*
X215359000Y-85658750I0J-218750D01*
G01*
X215359000Y-86096250D01*
G75*
G02*
X215140250Y-86315000I-218750J0D01*
G01*
G37*
%TD*%
%TO.C,ST*%
G36*
G01*
X210060250Y-86315000D02*
X209547750Y-86315000D01*
G75*
G02*
X209329000Y-86096250I0J218750D01*
G01*
X209329000Y-85658750D01*
G75*
G02*
X209547750Y-85440000I218750J0D01*
G01*
X210060250Y-85440000D01*
G75*
G02*
X210279000Y-85658750I0J-218750D01*
G01*
X210279000Y-86096250D01*
G75*
G02*
X210060250Y-86315000I-218750J0D01*
G01*
G37*
G36*
G01*
X210060250Y-84740000D02*
X209547750Y-84740000D01*
G75*
G02*
X209329000Y-84521250I0J218750D01*
G01*
X209329000Y-84083750D01*
G75*
G02*
X209547750Y-83865000I218750J0D01*
G01*
X210060250Y-83865000D01*
G75*
G02*
X210279000Y-84083750I0J-218750D01*
G01*
X210279000Y-84521250D01*
G75*
G02*
X210060250Y-84740000I-218750J0D01*
G01*
G37*
%TD*%
%TO.C,R2*%
G36*
G01*
X211718999Y-79020001D02*
X212969001Y-79020001D01*
G75*
G02*
X213219000Y-79270000I0J-249999D01*
G01*
X213219000Y-79895002D01*
G75*
G02*
X212969001Y-80145001I-249999J0D01*
G01*
X211718999Y-80145001D01*
G75*
G02*
X211469000Y-79895002I0J249999D01*
G01*
X211469000Y-79270000D01*
G75*
G02*
X211718999Y-79020001I249999J0D01*
G01*
G37*
G36*
G01*
X211718999Y-81945001D02*
X212969001Y-81945001D01*
G75*
G02*
X213219000Y-82195000I0J-249999D01*
G01*
X213219000Y-82820002D01*
G75*
G02*
X212969001Y-83070001I-249999J0D01*
G01*
X211718999Y-83070001D01*
G75*
G02*
X211469000Y-82820002I0J249999D01*
G01*
X211469000Y-82195000D01*
G75*
G02*
X211718999Y-81945001I249999J0D01*
G01*
G37*
%TD*%
%TO.C,R3*%
G36*
G01*
X214258999Y-81945001D02*
X215509001Y-81945001D01*
G75*
G02*
X215759000Y-82195000I0J-249999D01*
G01*
X215759000Y-82820002D01*
G75*
G02*
X215509001Y-83070001I-249999J0D01*
G01*
X214258999Y-83070001D01*
G75*
G02*
X214009000Y-82820002I0J249999D01*
G01*
X214009000Y-82195000D01*
G75*
G02*
X214258999Y-81945001I249999J0D01*
G01*
G37*
G36*
G01*
X214258999Y-79020001D02*
X215509001Y-79020001D01*
G75*
G02*
X215759000Y-79270000I0J-249999D01*
G01*
X215759000Y-79895002D01*
G75*
G02*
X215509001Y-80145001I-249999J0D01*
G01*
X214258999Y-80145001D01*
G75*
G02*
X214009000Y-79895002I0J249999D01*
G01*
X214009000Y-79270000D01*
G75*
G02*
X214258999Y-79020001I249999J0D01*
G01*
G37*
%TD*%
%TO.C,R4*%
G36*
G01*
X209178999Y-79001000D02*
X210429001Y-79001000D01*
G75*
G02*
X210679000Y-79250999I0J-249999D01*
G01*
X210679000Y-79876001D01*
G75*
G02*
X210429001Y-80126000I-249999J0D01*
G01*
X209178999Y-80126000D01*
G75*
G02*
X208929000Y-79876001I0J249999D01*
G01*
X208929000Y-79250999D01*
G75*
G02*
X209178999Y-79001000I249999J0D01*
G01*
G37*
G36*
G01*
X209178999Y-81926000D02*
X210429001Y-81926000D01*
G75*
G02*
X210679000Y-82175999I0J-249999D01*
G01*
X210679000Y-82801001D01*
G75*
G02*
X210429001Y-83051000I-249999J0D01*
G01*
X209178999Y-83051000D01*
G75*
G02*
X208929000Y-82801001I0J249999D01*
G01*
X208929000Y-82175999D01*
G75*
G02*
X209178999Y-81926000I249999J0D01*
G01*
G37*
%TD*%
M02*
