%TF.GenerationSoftware,KiCad,Pcbnew,5.1.9+dfsg1-1*%
%TF.CreationDate,2021-12-22T14:06:06+01:00*%
%TF.ProjectId,adapter,61646170-7465-4722-9e6b-696361645f70,rev?*%
%TF.SameCoordinates,Original*%
%TF.FileFunction,Copper,L1,Top*%
%TF.FilePolarity,Positive*%
%FSLAX46Y46*%
G04 Gerber Fmt 4.6, Leading zero omitted, Abs format (unit mm)*
G04 Created by KiCad (PCBNEW 5.1.9+dfsg1-1) date 2021-12-22 14:06:06*
%MOMM*%
%LPD*%
G01*
G04 APERTURE LIST*
%TA.AperFunction,ComponentPad*%
%ADD10O,1.740000X2.190000*%
%TD*%
%TA.AperFunction,ConnectorPad*%
%ADD11R,0.560000X4.000000*%
%TD*%
%TA.AperFunction,ViaPad*%
%ADD12C,0.800000*%
%TD*%
%TA.AperFunction,Conductor*%
%ADD13C,0.250000*%
%TD*%
G04 APERTURE END LIST*
%TO.P,J1,1*%
%TO.N,Net-(J1-Pad1)*%
%TA.AperFunction,ComponentPad*%
G36*
G01*
X141586000Y-51224999D02*
X141586000Y-52915001D01*
G75*
G02*
X141336001Y-53165000I-249999J0D01*
G01*
X140095999Y-53165000D01*
G75*
G02*
X139846000Y-52915001I0J249999D01*
G01*
X139846000Y-51224999D01*
G75*
G02*
X140095999Y-50975000I249999J0D01*
G01*
X141336001Y-50975000D01*
G75*
G02*
X141586000Y-51224999I0J-249999D01*
G01*
G37*
%TD.AperFunction*%
D10*
%TO.P,J1,2*%
%TO.N,Net-(J1-Pad2)*%
X138176000Y-52070000D03*
%TO.P,J1,3*%
%TO.N,Net-(J1-Pad3)*%
X135636000Y-52070000D03*
%TO.P,J1,4*%
%TO.N,Net-(J1-Pad4)*%
X133096000Y-52070000D03*
%TO.P,J1,5*%
%TO.N,Net-(J1-Pad5)*%
X130556000Y-52070000D03*
%TO.P,J1,6*%
%TO.N,Net-(J1-Pad6)*%
X128016000Y-52070000D03*
%TD*%
D11*
%TO.P,J2,3*%
%TO.N,Net-(J1-Pad2)*%
X136515000Y-44490000D03*
%TO.P,J2,1*%
%TO.N,Net-(J1-Pad1)*%
X137785000Y-44490000D03*
%TO.P,J2,5*%
%TO.N,Net-(J1-Pad3)*%
X135245000Y-44490000D03*
%TO.P,J2,9*%
%TO.N,Net-(J1-Pad5)*%
X132705000Y-44490000D03*
%TO.P,J2,11*%
%TO.N,Net-(J2-Pad11)*%
X131435000Y-44490000D03*
%TO.P,J2,7*%
%TO.N,Net-(J1-Pad4)*%
X133975000Y-44490000D03*
%TD*%
D12*
%TO.N,Net-(J1-Pad1)*%
X137785000Y-47889000D03*
%TO.N,Net-(J1-Pad2)*%
X136515000Y-47889000D03*
%TO.N,Net-(J1-Pad3)*%
X135245000Y-47889000D03*
%TO.N,Net-(J1-Pad4)*%
X133975000Y-47889000D03*
%TO.N,Net-(J1-Pad5)*%
X132705000Y-47889000D03*
%TD*%
D13*
%TO.N,Net-(J1-Pad1)*%
X137785000Y-49139000D02*
X140716000Y-52070000D01*
X137785000Y-44490000D02*
X137785000Y-47889000D01*
X137785000Y-47889000D02*
X137785000Y-49139000D01*
%TO.N,Net-(J1-Pad2)*%
X136515000Y-50409000D02*
X138176000Y-52070000D01*
X136515000Y-44490000D02*
X136515000Y-47889000D01*
X136515000Y-47889000D02*
X136515000Y-50409000D01*
%TO.N,Net-(J1-Pad3)*%
X135245000Y-51679000D02*
X135636000Y-52070000D01*
X135245000Y-44490000D02*
X135245000Y-47889000D01*
X135245000Y-47889000D02*
X135245000Y-51679000D01*
%TO.N,Net-(J1-Pad4)*%
X133975000Y-51191000D02*
X133096000Y-52070000D01*
X133975000Y-44490000D02*
X133975000Y-47889000D01*
X133975000Y-47889000D02*
X133975000Y-51191000D01*
%TO.N,Net-(J1-Pad5)*%
X132705000Y-49921000D02*
X130556000Y-52070000D01*
X132705000Y-44490000D02*
X132705000Y-47889000D01*
X132705000Y-47889000D02*
X132705000Y-49921000D01*
%TD*%
M02*
