%TF.GenerationSoftware,KiCad,Pcbnew,5.1.9+dfsg1-1*%
%TF.CreationDate,2021-12-22T14:02:19+01:00*%
%TF.ProjectId,lidar_board,6c696461-725f-4626-9f61-72642e6b6963,rev?*%
%TF.SameCoordinates,Original*%
%TF.FileFunction,Legend,Top*%
%TF.FilePolarity,Positive*%
%FSLAX46Y46*%
G04 Gerber Fmt 4.6, Leading zero omitted, Abs format (unit mm)*
G04 Created by KiCad (PCBNEW 5.1.9+dfsg1-1) date 2021-12-22 14:02:19*
%MOMM*%
%LPD*%
G01*
G04 APERTURE LIST*
%ADD10C,0.300000*%
%ADD11C,0.120000*%
%ADD12C,0.150000*%
G04 APERTURE END LIST*
D10*
X173832380Y-77182857D02*
X173415714Y-76611428D01*
X173118095Y-77182857D02*
X173118095Y-75982857D01*
X173594285Y-75982857D01*
X173713333Y-76040000D01*
X173772857Y-76097142D01*
X173832380Y-76211428D01*
X173832380Y-76382857D01*
X173772857Y-76497142D01*
X173713333Y-76554285D01*
X173594285Y-76611428D01*
X173118095Y-76611428D01*
X174546666Y-77182857D02*
X174427619Y-77125714D01*
X174368095Y-77068571D01*
X174308571Y-76954285D01*
X174308571Y-76611428D01*
X174368095Y-76497142D01*
X174427619Y-76440000D01*
X174546666Y-76382857D01*
X174725238Y-76382857D01*
X174844285Y-76440000D01*
X174903809Y-76497142D01*
X174963333Y-76611428D01*
X174963333Y-76954285D01*
X174903809Y-77068571D01*
X174844285Y-77125714D01*
X174725238Y-77182857D01*
X174546666Y-77182857D01*
X175499047Y-77182857D02*
X175499047Y-75982857D01*
X175499047Y-76440000D02*
X175618095Y-76382857D01*
X175856190Y-76382857D01*
X175975238Y-76440000D01*
X176034761Y-76497142D01*
X176094285Y-76611428D01*
X176094285Y-76954285D01*
X176034761Y-77068571D01*
X175975238Y-77125714D01*
X175856190Y-77182857D01*
X175618095Y-77182857D01*
X175499047Y-77125714D01*
X176808571Y-77182857D02*
X176689523Y-77125714D01*
X176630000Y-77068571D01*
X176570476Y-76954285D01*
X176570476Y-76611428D01*
X176630000Y-76497142D01*
X176689523Y-76440000D01*
X176808571Y-76382857D01*
X176987142Y-76382857D01*
X177106190Y-76440000D01*
X177165714Y-76497142D01*
X177225238Y-76611428D01*
X177225238Y-76954285D01*
X177165714Y-77068571D01*
X177106190Y-77125714D01*
X176987142Y-77182857D01*
X176808571Y-77182857D01*
X177760952Y-77182857D02*
X177760952Y-76382857D01*
X177760952Y-76611428D02*
X177820476Y-76497142D01*
X177880000Y-76440000D01*
X177999047Y-76382857D01*
X178118095Y-76382857D01*
X178713333Y-77182857D02*
X178594285Y-77125714D01*
X178534761Y-77068571D01*
X178475238Y-76954285D01*
X178475238Y-76611428D01*
X178534761Y-76497142D01*
X178594285Y-76440000D01*
X178713333Y-76382857D01*
X178891904Y-76382857D01*
X179010952Y-76440000D01*
X179070476Y-76497142D01*
X179130000Y-76611428D01*
X179130000Y-76954285D01*
X179070476Y-77068571D01*
X179010952Y-77125714D01*
X178891904Y-77182857D01*
X178713333Y-77182857D01*
X180201428Y-77125714D02*
X180082380Y-77182857D01*
X179844285Y-77182857D01*
X179725238Y-77125714D01*
X179665714Y-77068571D01*
X179606190Y-76954285D01*
X179606190Y-76611428D01*
X179665714Y-76497142D01*
X179725238Y-76440000D01*
X179844285Y-76382857D01*
X180082380Y-76382857D01*
X180201428Y-76440000D01*
X180737142Y-77182857D02*
X180737142Y-75982857D01*
X180856190Y-76725714D02*
X181213333Y-77182857D01*
X181213333Y-76382857D02*
X180737142Y-76840000D01*
X182880000Y-77182857D02*
X182760952Y-77125714D01*
X182701428Y-77011428D01*
X182701428Y-75982857D01*
X183356190Y-77182857D02*
X183356190Y-76382857D01*
X183356190Y-75982857D02*
X183296666Y-76040000D01*
X183356190Y-76097142D01*
X183415714Y-76040000D01*
X183356190Y-75982857D01*
X183356190Y-76097142D01*
X184487142Y-77182857D02*
X184487142Y-75982857D01*
X184487142Y-77125714D02*
X184368095Y-77182857D01*
X184130000Y-77182857D01*
X184010952Y-77125714D01*
X183951428Y-77068571D01*
X183891904Y-76954285D01*
X183891904Y-76611428D01*
X183951428Y-76497142D01*
X184010952Y-76440000D01*
X184130000Y-76382857D01*
X184368095Y-76382857D01*
X184487142Y-76440000D01*
X185618095Y-77182857D02*
X185618095Y-76554285D01*
X185558571Y-76440000D01*
X185439523Y-76382857D01*
X185201428Y-76382857D01*
X185082380Y-76440000D01*
X185618095Y-77125714D02*
X185499047Y-77182857D01*
X185201428Y-77182857D01*
X185082380Y-77125714D01*
X185022857Y-77011428D01*
X185022857Y-76897142D01*
X185082380Y-76782857D01*
X185201428Y-76725714D01*
X185499047Y-76725714D01*
X185618095Y-76668571D01*
X186213333Y-77182857D02*
X186213333Y-76382857D01*
X186213333Y-76611428D02*
X186272857Y-76497142D01*
X186332380Y-76440000D01*
X186451428Y-76382857D01*
X186570476Y-76382857D01*
X187939523Y-77182857D02*
X187939523Y-75982857D01*
X187939523Y-76440000D02*
X188058571Y-76382857D01*
X188296666Y-76382857D01*
X188415714Y-76440000D01*
X188475238Y-76497142D01*
X188534761Y-76611428D01*
X188534761Y-76954285D01*
X188475238Y-77068571D01*
X188415714Y-77125714D01*
X188296666Y-77182857D01*
X188058571Y-77182857D01*
X187939523Y-77125714D01*
X189249047Y-77182857D02*
X189129999Y-77125714D01*
X189070476Y-77068571D01*
X189010952Y-76954285D01*
X189010952Y-76611428D01*
X189070476Y-76497142D01*
X189129999Y-76440000D01*
X189249047Y-76382857D01*
X189427619Y-76382857D01*
X189546666Y-76440000D01*
X189606190Y-76497142D01*
X189665714Y-76611428D01*
X189665714Y-76954285D01*
X189606190Y-77068571D01*
X189546666Y-77125714D01*
X189427619Y-77182857D01*
X189249047Y-77182857D01*
X190737142Y-77182857D02*
X190737142Y-76554285D01*
X190677619Y-76440000D01*
X190558571Y-76382857D01*
X190320476Y-76382857D01*
X190201428Y-76440000D01*
X190737142Y-77125714D02*
X190618095Y-77182857D01*
X190320476Y-77182857D01*
X190201428Y-77125714D01*
X190141904Y-77011428D01*
X190141904Y-76897142D01*
X190201428Y-76782857D01*
X190320476Y-76725714D01*
X190618095Y-76725714D01*
X190737142Y-76668571D01*
X191332380Y-77182857D02*
X191332380Y-76382857D01*
X191332380Y-76611428D02*
X191391904Y-76497142D01*
X191451428Y-76440000D01*
X191570476Y-76382857D01*
X191689523Y-76382857D01*
X192641904Y-77182857D02*
X192641904Y-75982857D01*
X192641904Y-77125714D02*
X192522857Y-77182857D01*
X192284761Y-77182857D01*
X192165714Y-77125714D01*
X192106190Y-77068571D01*
X192046666Y-76954285D01*
X192046666Y-76611428D01*
X192106190Y-76497142D01*
X192165714Y-76440000D01*
X192284761Y-76382857D01*
X192522857Y-76382857D01*
X192641904Y-76440000D01*
X175766904Y-79282857D02*
X175171666Y-79282857D01*
X175171666Y-78082857D01*
X176659761Y-79225714D02*
X176540714Y-79282857D01*
X176302619Y-79282857D01*
X176183571Y-79225714D01*
X176124047Y-79111428D01*
X176124047Y-78654285D01*
X176183571Y-78540000D01*
X176302619Y-78482857D01*
X176540714Y-78482857D01*
X176659761Y-78540000D01*
X176719285Y-78654285D01*
X176719285Y-78768571D01*
X176124047Y-78882857D01*
X177195476Y-79225714D02*
X177314523Y-79282857D01*
X177552619Y-79282857D01*
X177671666Y-79225714D01*
X177731190Y-79111428D01*
X177731190Y-79054285D01*
X177671666Y-78940000D01*
X177552619Y-78882857D01*
X177374047Y-78882857D01*
X177255000Y-78825714D01*
X177195476Y-78711428D01*
X177195476Y-78654285D01*
X177255000Y-78540000D01*
X177374047Y-78482857D01*
X177552619Y-78482857D01*
X177671666Y-78540000D01*
X179219285Y-78654285D02*
X179635952Y-78654285D01*
X179814523Y-79282857D02*
X179219285Y-79282857D01*
X179219285Y-78082857D01*
X179814523Y-78082857D01*
X180350238Y-79168571D02*
X180409761Y-79225714D01*
X180350238Y-79282857D01*
X180290714Y-79225714D01*
X180350238Y-79168571D01*
X180350238Y-79282857D01*
X180885952Y-79225714D02*
X181064523Y-79282857D01*
X181362142Y-79282857D01*
X181481190Y-79225714D01*
X181540714Y-79168571D01*
X181600238Y-79054285D01*
X181600238Y-78940000D01*
X181540714Y-78825714D01*
X181481190Y-78768571D01*
X181362142Y-78711428D01*
X181124047Y-78654285D01*
X181005000Y-78597142D01*
X180945476Y-78540000D01*
X180885952Y-78425714D01*
X180885952Y-78311428D01*
X180945476Y-78197142D01*
X181005000Y-78140000D01*
X181124047Y-78082857D01*
X181421666Y-78082857D01*
X181600238Y-78140000D01*
X182135952Y-79168571D02*
X182195476Y-79225714D01*
X182135952Y-79282857D01*
X182076428Y-79225714D01*
X182135952Y-79168571D01*
X182135952Y-79282857D01*
X183445476Y-79168571D02*
X183385952Y-79225714D01*
X183207380Y-79282857D01*
X183088333Y-79282857D01*
X182909761Y-79225714D01*
X182790714Y-79111428D01*
X182731190Y-78997142D01*
X182671666Y-78768571D01*
X182671666Y-78597142D01*
X182731190Y-78368571D01*
X182790714Y-78254285D01*
X182909761Y-78140000D01*
X183088333Y-78082857D01*
X183207380Y-78082857D01*
X183385952Y-78140000D01*
X183445476Y-78197142D01*
X183981190Y-79168571D02*
X184040714Y-79225714D01*
X183981190Y-79282857D01*
X183921666Y-79225714D01*
X183981190Y-79168571D01*
X183981190Y-79282857D01*
X185290714Y-79282857D02*
X184874047Y-78711428D01*
X184576428Y-79282857D02*
X184576428Y-78082857D01*
X185052619Y-78082857D01*
X185171666Y-78140000D01*
X185231190Y-78197142D01*
X185290714Y-78311428D01*
X185290714Y-78482857D01*
X185231190Y-78597142D01*
X185171666Y-78654285D01*
X185052619Y-78711428D01*
X184576428Y-78711428D01*
X186005000Y-79282857D02*
X185885952Y-79225714D01*
X185826428Y-79168571D01*
X185766904Y-79054285D01*
X185766904Y-78711428D01*
X185826428Y-78597142D01*
X185885952Y-78540000D01*
X186005000Y-78482857D01*
X186183571Y-78482857D01*
X186302619Y-78540000D01*
X186362142Y-78597142D01*
X186421666Y-78711428D01*
X186421666Y-79054285D01*
X186362142Y-79168571D01*
X186302619Y-79225714D01*
X186183571Y-79282857D01*
X186005000Y-79282857D01*
X186957380Y-79168571D02*
X187016904Y-79225714D01*
X186957380Y-79282857D01*
X186897857Y-79225714D01*
X186957380Y-79168571D01*
X186957380Y-79282857D01*
X188266904Y-79168571D02*
X188207380Y-79225714D01*
X188028809Y-79282857D01*
X187909761Y-79282857D01*
X187731190Y-79225714D01*
X187612142Y-79111428D01*
X187552619Y-78997142D01*
X187493095Y-78768571D01*
X187493095Y-78597142D01*
X187552619Y-78368571D01*
X187612142Y-78254285D01*
X187731190Y-78140000D01*
X187909761Y-78082857D01*
X188028809Y-78082857D01*
X188207380Y-78140000D01*
X188266904Y-78197142D01*
X188802619Y-79168571D02*
X188862142Y-79225714D01*
X188802619Y-79282857D01*
X188743095Y-79225714D01*
X188802619Y-79168571D01*
X188802619Y-79282857D01*
X189338333Y-79225714D02*
X189516904Y-79282857D01*
X189814523Y-79282857D01*
X189933571Y-79225714D01*
X189993095Y-79168571D01*
X190052619Y-79054285D01*
X190052619Y-78940000D01*
X189993095Y-78825714D01*
X189933571Y-78768571D01*
X189814523Y-78711428D01*
X189576428Y-78654285D01*
X189457380Y-78597142D01*
X189397857Y-78540000D01*
X189338333Y-78425714D01*
X189338333Y-78311428D01*
X189397857Y-78197142D01*
X189457380Y-78140000D01*
X189576428Y-78082857D01*
X189874047Y-78082857D01*
X190052619Y-78140000D01*
X190588333Y-79168571D02*
X190647857Y-79225714D01*
X190588333Y-79282857D01*
X190528809Y-79225714D01*
X190588333Y-79168571D01*
X190588333Y-79282857D01*
X173445476Y-81040000D02*
X174040714Y-81040000D01*
X173326428Y-81382857D02*
X173743095Y-80182857D01*
X174159761Y-81382857D01*
X175112142Y-80582857D02*
X175112142Y-81554285D01*
X175052619Y-81668571D01*
X174993095Y-81725714D01*
X174874047Y-81782857D01*
X174695476Y-81782857D01*
X174576428Y-81725714D01*
X175112142Y-81325714D02*
X174993095Y-81382857D01*
X174755000Y-81382857D01*
X174635952Y-81325714D01*
X174576428Y-81268571D01*
X174516904Y-81154285D01*
X174516904Y-80811428D01*
X174576428Y-80697142D01*
X174635952Y-80640000D01*
X174755000Y-80582857D01*
X174993095Y-80582857D01*
X175112142Y-80640000D01*
X176183571Y-81325714D02*
X176064523Y-81382857D01*
X175826428Y-81382857D01*
X175707380Y-81325714D01*
X175647857Y-81211428D01*
X175647857Y-80754285D01*
X175707380Y-80640000D01*
X175826428Y-80582857D01*
X176064523Y-80582857D01*
X176183571Y-80640000D01*
X176243095Y-80754285D01*
X176243095Y-80868571D01*
X175647857Y-80982857D01*
X177909761Y-81382857D02*
X177790714Y-81325714D01*
X177731190Y-81268571D01*
X177671666Y-81154285D01*
X177671666Y-80811428D01*
X177731190Y-80697142D01*
X177790714Y-80640000D01*
X177909761Y-80582857D01*
X178088333Y-80582857D01*
X178207380Y-80640000D01*
X178266904Y-80697142D01*
X178326428Y-80811428D01*
X178326428Y-81154285D01*
X178266904Y-81268571D01*
X178207380Y-81325714D01*
X178088333Y-81382857D01*
X177909761Y-81382857D01*
X178683571Y-80582857D02*
X179159761Y-80582857D01*
X178862142Y-81382857D02*
X178862142Y-80354285D01*
X178921666Y-80240000D01*
X179040714Y-80182857D01*
X179159761Y-80182857D01*
X180945476Y-80754285D02*
X181124047Y-80811428D01*
X181183571Y-80868571D01*
X181243095Y-80982857D01*
X181243095Y-81154285D01*
X181183571Y-81268571D01*
X181124047Y-81325714D01*
X181005000Y-81382857D01*
X180528809Y-81382857D01*
X180528809Y-80182857D01*
X180945476Y-80182857D01*
X181064523Y-80240000D01*
X181124047Y-80297142D01*
X181183571Y-80411428D01*
X181183571Y-80525714D01*
X181124047Y-80640000D01*
X181064523Y-80697142D01*
X180945476Y-80754285D01*
X180528809Y-80754285D01*
X181957380Y-81382857D02*
X181838333Y-81325714D01*
X181778809Y-81268571D01*
X181719285Y-81154285D01*
X181719285Y-80811428D01*
X181778809Y-80697142D01*
X181838333Y-80640000D01*
X181957380Y-80582857D01*
X182135952Y-80582857D01*
X182255000Y-80640000D01*
X182314523Y-80697142D01*
X182374047Y-80811428D01*
X182374047Y-81154285D01*
X182314523Y-81268571D01*
X182255000Y-81325714D01*
X182135952Y-81382857D01*
X181957380Y-81382857D01*
X182731190Y-80582857D02*
X183207380Y-80582857D01*
X182909761Y-80182857D02*
X182909761Y-81211428D01*
X182969285Y-81325714D01*
X183088333Y-81382857D01*
X183207380Y-81382857D01*
X183564523Y-81325714D02*
X183683571Y-81382857D01*
X183921666Y-81382857D01*
X184040714Y-81325714D01*
X184100238Y-81211428D01*
X184100238Y-81154285D01*
X184040714Y-81040000D01*
X183921666Y-80982857D01*
X183743095Y-80982857D01*
X183624047Y-80925714D01*
X183564523Y-80811428D01*
X183564523Y-80754285D01*
X183624047Y-80640000D01*
X183743095Y-80582857D01*
X183921666Y-80582857D01*
X184040714Y-80640000D01*
X185588333Y-80925714D02*
X186540714Y-80925714D01*
X188028809Y-80297142D02*
X188088333Y-80240000D01*
X188207380Y-80182857D01*
X188505000Y-80182857D01*
X188624047Y-80240000D01*
X188683571Y-80297142D01*
X188743095Y-80411428D01*
X188743095Y-80525714D01*
X188683571Y-80697142D01*
X187969285Y-81382857D01*
X188743095Y-81382857D01*
X189516904Y-80182857D02*
X189635952Y-80182857D01*
X189755000Y-80240000D01*
X189814523Y-80297142D01*
X189874047Y-80411428D01*
X189933571Y-80640000D01*
X189933571Y-80925714D01*
X189874047Y-81154285D01*
X189814523Y-81268571D01*
X189755000Y-81325714D01*
X189635952Y-81382857D01*
X189516904Y-81382857D01*
X189397857Y-81325714D01*
X189338333Y-81268571D01*
X189278809Y-81154285D01*
X189219285Y-80925714D01*
X189219285Y-80640000D01*
X189278809Y-80411428D01*
X189338333Y-80297142D01*
X189397857Y-80240000D01*
X189516904Y-80182857D01*
X190409761Y-80297142D02*
X190469285Y-80240000D01*
X190588333Y-80182857D01*
X190885952Y-80182857D01*
X191005000Y-80240000D01*
X191064523Y-80297142D01*
X191124047Y-80411428D01*
X191124047Y-80525714D01*
X191064523Y-80697142D01*
X190350238Y-81382857D01*
X191124047Y-81382857D01*
X191600238Y-80297142D02*
X191659761Y-80240000D01*
X191778809Y-80182857D01*
X192076428Y-80182857D01*
X192195476Y-80240000D01*
X192255000Y-80297142D01*
X192314523Y-80411428D01*
X192314523Y-80525714D01*
X192255000Y-80697142D01*
X191540714Y-81382857D01*
X192314523Y-81382857D01*
D11*
%TO.C,C1*%
X170656000Y-112288000D02*
G75*
G03*
X170656000Y-112288000I-3270000J0D01*
G01*
X164156000Y-112288000D02*
X170616000Y-112288000D01*
X164156000Y-112248000D02*
X170616000Y-112248000D01*
X164156000Y-112208000D02*
X170616000Y-112208000D01*
X164158000Y-112168000D02*
X170614000Y-112168000D01*
X164159000Y-112128000D02*
X170613000Y-112128000D01*
X164162000Y-112088000D02*
X170610000Y-112088000D01*
X164164000Y-112048000D02*
X166346000Y-112048000D01*
X168426000Y-112048000D02*
X170608000Y-112048000D01*
X164168000Y-112008000D02*
X166346000Y-112008000D01*
X168426000Y-112008000D02*
X170604000Y-112008000D01*
X164171000Y-111968000D02*
X166346000Y-111968000D01*
X168426000Y-111968000D02*
X170601000Y-111968000D01*
X164175000Y-111928000D02*
X166346000Y-111928000D01*
X168426000Y-111928000D02*
X170597000Y-111928000D01*
X164180000Y-111888000D02*
X166346000Y-111888000D01*
X168426000Y-111888000D02*
X170592000Y-111888000D01*
X164185000Y-111848000D02*
X166346000Y-111848000D01*
X168426000Y-111848000D02*
X170587000Y-111848000D01*
X164191000Y-111808000D02*
X166346000Y-111808000D01*
X168426000Y-111808000D02*
X170581000Y-111808000D01*
X164197000Y-111768000D02*
X166346000Y-111768000D01*
X168426000Y-111768000D02*
X170575000Y-111768000D01*
X164204000Y-111728000D02*
X166346000Y-111728000D01*
X168426000Y-111728000D02*
X170568000Y-111728000D01*
X164211000Y-111688000D02*
X166346000Y-111688000D01*
X168426000Y-111688000D02*
X170561000Y-111688000D01*
X164219000Y-111648000D02*
X166346000Y-111648000D01*
X168426000Y-111648000D02*
X170553000Y-111648000D01*
X164227000Y-111608000D02*
X166346000Y-111608000D01*
X168426000Y-111608000D02*
X170545000Y-111608000D01*
X164236000Y-111567000D02*
X166346000Y-111567000D01*
X168426000Y-111567000D02*
X170536000Y-111567000D01*
X164245000Y-111527000D02*
X166346000Y-111527000D01*
X168426000Y-111527000D02*
X170527000Y-111527000D01*
X164255000Y-111487000D02*
X166346000Y-111487000D01*
X168426000Y-111487000D02*
X170517000Y-111487000D01*
X164265000Y-111447000D02*
X166346000Y-111447000D01*
X168426000Y-111447000D02*
X170507000Y-111447000D01*
X164276000Y-111407000D02*
X166346000Y-111407000D01*
X168426000Y-111407000D02*
X170496000Y-111407000D01*
X164288000Y-111367000D02*
X166346000Y-111367000D01*
X168426000Y-111367000D02*
X170484000Y-111367000D01*
X164300000Y-111327000D02*
X166346000Y-111327000D01*
X168426000Y-111327000D02*
X170472000Y-111327000D01*
X164312000Y-111287000D02*
X166346000Y-111287000D01*
X168426000Y-111287000D02*
X170460000Y-111287000D01*
X164325000Y-111247000D02*
X166346000Y-111247000D01*
X168426000Y-111247000D02*
X170447000Y-111247000D01*
X164339000Y-111207000D02*
X166346000Y-111207000D01*
X168426000Y-111207000D02*
X170433000Y-111207000D01*
X164353000Y-111167000D02*
X166346000Y-111167000D01*
X168426000Y-111167000D02*
X170419000Y-111167000D01*
X164368000Y-111127000D02*
X166346000Y-111127000D01*
X168426000Y-111127000D02*
X170404000Y-111127000D01*
X164384000Y-111087000D02*
X166346000Y-111087000D01*
X168426000Y-111087000D02*
X170388000Y-111087000D01*
X164400000Y-111047000D02*
X166346000Y-111047000D01*
X168426000Y-111047000D02*
X170372000Y-111047000D01*
X164416000Y-111007000D02*
X166346000Y-111007000D01*
X168426000Y-111007000D02*
X170356000Y-111007000D01*
X164434000Y-110967000D02*
X166346000Y-110967000D01*
X168426000Y-110967000D02*
X170338000Y-110967000D01*
X164452000Y-110927000D02*
X166346000Y-110927000D01*
X168426000Y-110927000D02*
X170320000Y-110927000D01*
X164470000Y-110887000D02*
X166346000Y-110887000D01*
X168426000Y-110887000D02*
X170302000Y-110887000D01*
X164490000Y-110847000D02*
X166346000Y-110847000D01*
X168426000Y-110847000D02*
X170282000Y-110847000D01*
X164510000Y-110807000D02*
X166346000Y-110807000D01*
X168426000Y-110807000D02*
X170262000Y-110807000D01*
X164530000Y-110767000D02*
X166346000Y-110767000D01*
X168426000Y-110767000D02*
X170242000Y-110767000D01*
X164552000Y-110727000D02*
X166346000Y-110727000D01*
X168426000Y-110727000D02*
X170220000Y-110727000D01*
X164574000Y-110687000D02*
X166346000Y-110687000D01*
X168426000Y-110687000D02*
X170198000Y-110687000D01*
X164596000Y-110647000D02*
X166346000Y-110647000D01*
X168426000Y-110647000D02*
X170176000Y-110647000D01*
X164620000Y-110607000D02*
X166346000Y-110607000D01*
X168426000Y-110607000D02*
X170152000Y-110607000D01*
X164644000Y-110567000D02*
X166346000Y-110567000D01*
X168426000Y-110567000D02*
X170128000Y-110567000D01*
X164670000Y-110527000D02*
X166346000Y-110527000D01*
X168426000Y-110527000D02*
X170102000Y-110527000D01*
X164696000Y-110487000D02*
X166346000Y-110487000D01*
X168426000Y-110487000D02*
X170076000Y-110487000D01*
X164722000Y-110447000D02*
X166346000Y-110447000D01*
X168426000Y-110447000D02*
X170050000Y-110447000D01*
X164750000Y-110407000D02*
X166346000Y-110407000D01*
X168426000Y-110407000D02*
X170022000Y-110407000D01*
X164779000Y-110367000D02*
X166346000Y-110367000D01*
X168426000Y-110367000D02*
X169993000Y-110367000D01*
X164808000Y-110327000D02*
X166346000Y-110327000D01*
X168426000Y-110327000D02*
X169964000Y-110327000D01*
X164838000Y-110287000D02*
X166346000Y-110287000D01*
X168426000Y-110287000D02*
X169934000Y-110287000D01*
X164870000Y-110247000D02*
X166346000Y-110247000D01*
X168426000Y-110247000D02*
X169902000Y-110247000D01*
X164902000Y-110207000D02*
X166346000Y-110207000D01*
X168426000Y-110207000D02*
X169870000Y-110207000D01*
X164936000Y-110167000D02*
X166346000Y-110167000D01*
X168426000Y-110167000D02*
X169836000Y-110167000D01*
X164970000Y-110127000D02*
X166346000Y-110127000D01*
X168426000Y-110127000D02*
X169802000Y-110127000D01*
X165006000Y-110087000D02*
X166346000Y-110087000D01*
X168426000Y-110087000D02*
X169766000Y-110087000D01*
X165043000Y-110047000D02*
X166346000Y-110047000D01*
X168426000Y-110047000D02*
X169729000Y-110047000D01*
X165081000Y-110007000D02*
X166346000Y-110007000D01*
X168426000Y-110007000D02*
X169691000Y-110007000D01*
X165121000Y-109967000D02*
X169651000Y-109967000D01*
X165162000Y-109927000D02*
X169610000Y-109927000D01*
X165204000Y-109887000D02*
X169568000Y-109887000D01*
X165249000Y-109847000D02*
X169523000Y-109847000D01*
X165294000Y-109807000D02*
X169478000Y-109807000D01*
X165342000Y-109767000D02*
X169430000Y-109767000D01*
X165391000Y-109727000D02*
X169381000Y-109727000D01*
X165442000Y-109687000D02*
X169330000Y-109687000D01*
X165496000Y-109647000D02*
X169276000Y-109647000D01*
X165552000Y-109607000D02*
X169220000Y-109607000D01*
X165610000Y-109567000D02*
X169162000Y-109567000D01*
X165672000Y-109527000D02*
X169100000Y-109527000D01*
X165736000Y-109487000D02*
X169036000Y-109487000D01*
X165805000Y-109447000D02*
X168967000Y-109447000D01*
X165877000Y-109407000D02*
X168895000Y-109407000D01*
X165954000Y-109367000D02*
X168818000Y-109367000D01*
X166036000Y-109327000D02*
X168736000Y-109327000D01*
X166124000Y-109287000D02*
X168648000Y-109287000D01*
X166221000Y-109247000D02*
X168551000Y-109247000D01*
X166327000Y-109207000D02*
X168445000Y-109207000D01*
X166446000Y-109167000D02*
X168326000Y-109167000D01*
X166584000Y-109127000D02*
X168188000Y-109127000D01*
X166753000Y-109087000D02*
X168019000Y-109087000D01*
X166984000Y-109047000D02*
X167788000Y-109047000D01*
X165547000Y-115788241D02*
X165547000Y-115158241D01*
X165232000Y-115473241D02*
X165862000Y-115473241D01*
%TO.C,C2*%
X176118759Y-92588000D02*
X176118759Y-93218000D01*
X175803759Y-92903000D02*
X176433759Y-92903000D01*
X182545000Y-94340000D02*
X182545000Y-95144000D01*
X182505000Y-94109000D02*
X182505000Y-95375000D01*
X182465000Y-93940000D02*
X182465000Y-95544000D01*
X182425000Y-93802000D02*
X182425000Y-95682000D01*
X182385000Y-93683000D02*
X182385000Y-95801000D01*
X182345000Y-93577000D02*
X182345000Y-95907000D01*
X182305000Y-93480000D02*
X182305000Y-96004000D01*
X182265000Y-93392000D02*
X182265000Y-96092000D01*
X182225000Y-93310000D02*
X182225000Y-96174000D01*
X182185000Y-93233000D02*
X182185000Y-96251000D01*
X182145000Y-93161000D02*
X182145000Y-96323000D01*
X182105000Y-93092000D02*
X182105000Y-96392000D01*
X182065000Y-93028000D02*
X182065000Y-96456000D01*
X182025000Y-92966000D02*
X182025000Y-96518000D01*
X181985000Y-92908000D02*
X181985000Y-96576000D01*
X181945000Y-92852000D02*
X181945000Y-96632000D01*
X181905000Y-92798000D02*
X181905000Y-96686000D01*
X181865000Y-92747000D02*
X181865000Y-96737000D01*
X181825000Y-92698000D02*
X181825000Y-96786000D01*
X181785000Y-92650000D02*
X181785000Y-96834000D01*
X181745000Y-92605000D02*
X181745000Y-96879000D01*
X181705000Y-92560000D02*
X181705000Y-96924000D01*
X181665000Y-92518000D02*
X181665000Y-96966000D01*
X181625000Y-92477000D02*
X181625000Y-97007000D01*
X181585000Y-95782000D02*
X181585000Y-97047000D01*
X181585000Y-92437000D02*
X181585000Y-93702000D01*
X181545000Y-95782000D02*
X181545000Y-97085000D01*
X181545000Y-92399000D02*
X181545000Y-93702000D01*
X181505000Y-95782000D02*
X181505000Y-97122000D01*
X181505000Y-92362000D02*
X181505000Y-93702000D01*
X181465000Y-95782000D02*
X181465000Y-97158000D01*
X181465000Y-92326000D02*
X181465000Y-93702000D01*
X181425000Y-95782000D02*
X181425000Y-97192000D01*
X181425000Y-92292000D02*
X181425000Y-93702000D01*
X181385000Y-95782000D02*
X181385000Y-97226000D01*
X181385000Y-92258000D02*
X181385000Y-93702000D01*
X181345000Y-95782000D02*
X181345000Y-97258000D01*
X181345000Y-92226000D02*
X181345000Y-93702000D01*
X181305000Y-95782000D02*
X181305000Y-97290000D01*
X181305000Y-92194000D02*
X181305000Y-93702000D01*
X181265000Y-95782000D02*
X181265000Y-97320000D01*
X181265000Y-92164000D02*
X181265000Y-93702000D01*
X181225000Y-95782000D02*
X181225000Y-97349000D01*
X181225000Y-92135000D02*
X181225000Y-93702000D01*
X181185000Y-95782000D02*
X181185000Y-97378000D01*
X181185000Y-92106000D02*
X181185000Y-93702000D01*
X181145000Y-95782000D02*
X181145000Y-97406000D01*
X181145000Y-92078000D02*
X181145000Y-93702000D01*
X181105000Y-95782000D02*
X181105000Y-97432000D01*
X181105000Y-92052000D02*
X181105000Y-93702000D01*
X181065000Y-95782000D02*
X181065000Y-97458000D01*
X181065000Y-92026000D02*
X181065000Y-93702000D01*
X181025000Y-95782000D02*
X181025000Y-97484000D01*
X181025000Y-92000000D02*
X181025000Y-93702000D01*
X180985000Y-95782000D02*
X180985000Y-97508000D01*
X180985000Y-91976000D02*
X180985000Y-93702000D01*
X180945000Y-95782000D02*
X180945000Y-97532000D01*
X180945000Y-91952000D02*
X180945000Y-93702000D01*
X180905000Y-95782000D02*
X180905000Y-97554000D01*
X180905000Y-91930000D02*
X180905000Y-93702000D01*
X180865000Y-95782000D02*
X180865000Y-97576000D01*
X180865000Y-91908000D02*
X180865000Y-93702000D01*
X180825000Y-95782000D02*
X180825000Y-97598000D01*
X180825000Y-91886000D02*
X180825000Y-93702000D01*
X180785000Y-95782000D02*
X180785000Y-97618000D01*
X180785000Y-91866000D02*
X180785000Y-93702000D01*
X180745000Y-95782000D02*
X180745000Y-97638000D01*
X180745000Y-91846000D02*
X180745000Y-93702000D01*
X180705000Y-95782000D02*
X180705000Y-97658000D01*
X180705000Y-91826000D02*
X180705000Y-93702000D01*
X180665000Y-95782000D02*
X180665000Y-97676000D01*
X180665000Y-91808000D02*
X180665000Y-93702000D01*
X180625000Y-95782000D02*
X180625000Y-97694000D01*
X180625000Y-91790000D02*
X180625000Y-93702000D01*
X180585000Y-95782000D02*
X180585000Y-97712000D01*
X180585000Y-91772000D02*
X180585000Y-93702000D01*
X180545000Y-95782000D02*
X180545000Y-97728000D01*
X180545000Y-91756000D02*
X180545000Y-93702000D01*
X180505000Y-95782000D02*
X180505000Y-97744000D01*
X180505000Y-91740000D02*
X180505000Y-93702000D01*
X180465000Y-95782000D02*
X180465000Y-97760000D01*
X180465000Y-91724000D02*
X180465000Y-93702000D01*
X180425000Y-95782000D02*
X180425000Y-97775000D01*
X180425000Y-91709000D02*
X180425000Y-93702000D01*
X180385000Y-95782000D02*
X180385000Y-97789000D01*
X180385000Y-91695000D02*
X180385000Y-93702000D01*
X180345000Y-95782000D02*
X180345000Y-97803000D01*
X180345000Y-91681000D02*
X180345000Y-93702000D01*
X180305000Y-95782000D02*
X180305000Y-97816000D01*
X180305000Y-91668000D02*
X180305000Y-93702000D01*
X180265000Y-95782000D02*
X180265000Y-97828000D01*
X180265000Y-91656000D02*
X180265000Y-93702000D01*
X180225000Y-95782000D02*
X180225000Y-97840000D01*
X180225000Y-91644000D02*
X180225000Y-93702000D01*
X180185000Y-95782000D02*
X180185000Y-97852000D01*
X180185000Y-91632000D02*
X180185000Y-93702000D01*
X180145000Y-95782000D02*
X180145000Y-97863000D01*
X180145000Y-91621000D02*
X180145000Y-93702000D01*
X180105000Y-95782000D02*
X180105000Y-97873000D01*
X180105000Y-91611000D02*
X180105000Y-93702000D01*
X180065000Y-95782000D02*
X180065000Y-97883000D01*
X180065000Y-91601000D02*
X180065000Y-93702000D01*
X180025000Y-95782000D02*
X180025000Y-97892000D01*
X180025000Y-91592000D02*
X180025000Y-93702000D01*
X179984000Y-95782000D02*
X179984000Y-97901000D01*
X179984000Y-91583000D02*
X179984000Y-93702000D01*
X179944000Y-95782000D02*
X179944000Y-97909000D01*
X179944000Y-91575000D02*
X179944000Y-93702000D01*
X179904000Y-95782000D02*
X179904000Y-97917000D01*
X179904000Y-91567000D02*
X179904000Y-93702000D01*
X179864000Y-95782000D02*
X179864000Y-97924000D01*
X179864000Y-91560000D02*
X179864000Y-93702000D01*
X179824000Y-95782000D02*
X179824000Y-97931000D01*
X179824000Y-91553000D02*
X179824000Y-93702000D01*
X179784000Y-95782000D02*
X179784000Y-97937000D01*
X179784000Y-91547000D02*
X179784000Y-93702000D01*
X179744000Y-95782000D02*
X179744000Y-97943000D01*
X179744000Y-91541000D02*
X179744000Y-93702000D01*
X179704000Y-95782000D02*
X179704000Y-97948000D01*
X179704000Y-91536000D02*
X179704000Y-93702000D01*
X179664000Y-95782000D02*
X179664000Y-97953000D01*
X179664000Y-91531000D02*
X179664000Y-93702000D01*
X179624000Y-95782000D02*
X179624000Y-97957000D01*
X179624000Y-91527000D02*
X179624000Y-93702000D01*
X179584000Y-95782000D02*
X179584000Y-97960000D01*
X179584000Y-91524000D02*
X179584000Y-93702000D01*
X179544000Y-95782000D02*
X179544000Y-97964000D01*
X179544000Y-91520000D02*
X179544000Y-93702000D01*
X179504000Y-91518000D02*
X179504000Y-97966000D01*
X179464000Y-91515000D02*
X179464000Y-97969000D01*
X179424000Y-91514000D02*
X179424000Y-97970000D01*
X179384000Y-91512000D02*
X179384000Y-97972000D01*
X179344000Y-91512000D02*
X179344000Y-97972000D01*
X179304000Y-91512000D02*
X179304000Y-97972000D01*
X182574000Y-94742000D02*
G75*
G03*
X182574000Y-94742000I-3270000J0D01*
G01*
%TO.C,C3*%
X162079000Y-101912748D02*
X162079000Y-102435252D01*
X163549000Y-101912748D02*
X163549000Y-102435252D01*
%TO.C,D1*%
X175670000Y-98934000D02*
X175670000Y-102234000D01*
X175670000Y-102234000D02*
X181070000Y-102234000D01*
X175670000Y-98934000D02*
X181070000Y-98934000D01*
%TO.C,Power*%
X177254000Y-88619000D02*
X179539000Y-88619000D01*
X179539000Y-88619000D02*
X179539000Y-87149000D01*
X179539000Y-87149000D02*
X177254000Y-87149000D01*
%TO.C,Status*%
X179539000Y-84609000D02*
X177254000Y-84609000D01*
X179539000Y-86079000D02*
X179539000Y-84609000D01*
X177254000Y-86079000D02*
X179539000Y-86079000D01*
%TO.C,D4*%
X168754000Y-79374000D02*
X163354000Y-79374000D01*
X168754000Y-76074000D02*
X163354000Y-76074000D01*
X168754000Y-79374000D02*
X168754000Y-76074000D01*
%TO.C,J1*%
X186662000Y-105272000D02*
X189262000Y-105272000D01*
X186662000Y-119972000D02*
X186662000Y-105272000D01*
X195862000Y-105272000D02*
X195862000Y-107172000D01*
X193162000Y-105272000D02*
X195862000Y-105272000D01*
X195862000Y-119972000D02*
X186662000Y-119972000D01*
X195862000Y-111172000D02*
X195862000Y-119972000D01*
X186462000Y-106122000D02*
X186462000Y-105072000D01*
X187512000Y-105072000D02*
X186462000Y-105072000D01*
%TO.C,UART*%
X166606000Y-87012000D02*
X160586000Y-87012000D01*
X160586000Y-87012000D02*
X160586000Y-97392000D01*
X160586000Y-97392000D02*
X166606000Y-97392000D01*
X166606000Y-97392000D02*
X166606000Y-87012000D01*
X165576000Y-86722000D02*
X161576000Y-86722000D01*
X160586000Y-88392000D02*
X161586000Y-88392000D01*
X161586000Y-88392000D02*
X161586000Y-96012000D01*
X161586000Y-96012000D02*
X160586000Y-96012000D01*
X161586000Y-88392000D02*
X162116000Y-88642000D01*
X162116000Y-88642000D02*
X162116000Y-95762000D01*
X162116000Y-95762000D02*
X161586000Y-96012000D01*
X160586000Y-88642000D02*
X161586000Y-88642000D01*
X160586000Y-95762000D02*
X161586000Y-95762000D01*
X166606000Y-87592000D02*
X166006000Y-87592000D01*
X166006000Y-87592000D02*
X166006000Y-89192000D01*
X166006000Y-89192000D02*
X166606000Y-89192000D01*
X166606000Y-90132000D02*
X166006000Y-90132000D01*
X166006000Y-90132000D02*
X166006000Y-91732000D01*
X166006000Y-91732000D02*
X166606000Y-91732000D01*
X166606000Y-92672000D02*
X166006000Y-92672000D01*
X166006000Y-92672000D02*
X166006000Y-94272000D01*
X166006000Y-94272000D02*
X166606000Y-94272000D01*
X166606000Y-95212000D02*
X166006000Y-95212000D01*
X166006000Y-95212000D02*
X166006000Y-96812000D01*
X166006000Y-96812000D02*
X166606000Y-96812000D01*
%TO.C,I2C*%
X160058000Y-110092000D02*
X160058000Y-109492000D01*
X158458000Y-110092000D02*
X160058000Y-110092000D01*
X158458000Y-109492000D02*
X158458000Y-110092000D01*
X157518000Y-110092000D02*
X157518000Y-109492000D01*
X155918000Y-110092000D02*
X157518000Y-110092000D01*
X155918000Y-109492000D02*
X155918000Y-110092000D01*
X154978000Y-110092000D02*
X154978000Y-109492000D01*
X153378000Y-110092000D02*
X154978000Y-110092000D01*
X153378000Y-109492000D02*
X153378000Y-110092000D01*
X152438000Y-110092000D02*
X152438000Y-109492000D01*
X150838000Y-110092000D02*
X152438000Y-110092000D01*
X150838000Y-109492000D02*
X150838000Y-110092000D01*
X159008000Y-115512000D02*
X159008000Y-114512000D01*
X151888000Y-115512000D02*
X151888000Y-114512000D01*
X159008000Y-113982000D02*
X159258000Y-114512000D01*
X151888000Y-113982000D02*
X159008000Y-113982000D01*
X151638000Y-114512000D02*
X151888000Y-113982000D01*
X159258000Y-114512000D02*
X159258000Y-115512000D01*
X151638000Y-114512000D02*
X159258000Y-114512000D01*
X151638000Y-115512000D02*
X151638000Y-114512000D01*
X149968000Y-110522000D02*
X149968000Y-114522000D01*
X160638000Y-109492000D02*
X150258000Y-109492000D01*
X160638000Y-115512000D02*
X160638000Y-109492000D01*
X150258000Y-115512000D02*
X160638000Y-115512000D01*
X150258000Y-109492000D02*
X150258000Y-115512000D01*
X148120000Y-110092000D02*
X148120000Y-109492000D01*
X146520000Y-110092000D02*
X148120000Y-110092000D01*
X146520000Y-109492000D02*
X146520000Y-110092000D01*
X145580000Y-110092000D02*
X145580000Y-109492000D01*
X143980000Y-110092000D02*
X145580000Y-110092000D01*
X143980000Y-109492000D02*
X143980000Y-110092000D01*
X143040000Y-110092000D02*
X143040000Y-109492000D01*
X141440000Y-110092000D02*
X143040000Y-110092000D01*
X141440000Y-109492000D02*
X141440000Y-110092000D01*
X140500000Y-110092000D02*
X140500000Y-109492000D01*
X138900000Y-110092000D02*
X140500000Y-110092000D01*
X138900000Y-109492000D02*
X138900000Y-110092000D01*
X147070000Y-115512000D02*
X147070000Y-114512000D01*
X139950000Y-115512000D02*
X139950000Y-114512000D01*
X147070000Y-113982000D02*
X147320000Y-114512000D01*
X139950000Y-113982000D02*
X147070000Y-113982000D01*
X139700000Y-114512000D02*
X139950000Y-113982000D01*
X147320000Y-114512000D02*
X147320000Y-115512000D01*
X139700000Y-114512000D02*
X147320000Y-114512000D01*
X139700000Y-115512000D02*
X139700000Y-114512000D01*
X138030000Y-110522000D02*
X138030000Y-114522000D01*
X148700000Y-109492000D02*
X138320000Y-109492000D01*
X148700000Y-115512000D02*
X148700000Y-109492000D01*
X138320000Y-115512000D02*
X148700000Y-115512000D01*
X138320000Y-109492000D02*
X138320000Y-115512000D01*
%TO.C,L1*%
X184862000Y-102920000D02*
X184862000Y-105920000D01*
X172262000Y-102920000D02*
X184862000Y-102920000D01*
X172262000Y-105920000D02*
X172262000Y-102920000D01*
X172262000Y-115520000D02*
X172262000Y-112520000D01*
X184862000Y-115520000D02*
X172262000Y-115520000D01*
X184862000Y-112520000D02*
X184862000Y-115520000D01*
%TO.C,Q1*%
X165156000Y-80520000D02*
X165156000Y-81980000D01*
X161996000Y-80520000D02*
X161996000Y-82680000D01*
X161996000Y-80520000D02*
X162926000Y-80520000D01*
X165156000Y-80520000D02*
X164226000Y-80520000D01*
%TO.C,R1*%
X157191064Y-105770000D02*
X155736936Y-105770000D01*
X157191064Y-107590000D02*
X155736936Y-107590000D01*
%TO.C,R2*%
X173262936Y-86974000D02*
X174717064Y-86974000D01*
X173262936Y-88794000D02*
X174717064Y-88794000D01*
%TO.C,R3*%
X140750936Y-106786000D02*
X142205064Y-106786000D01*
X140750936Y-108606000D02*
X142205064Y-108606000D01*
%TO.C,R4*%
X173330937Y-86285001D02*
X174785065Y-86285001D01*
X173330937Y-84465001D02*
X174785065Y-84465001D01*
%TO.C,R5*%
X159364000Y-80044936D02*
X159364000Y-81499064D01*
X161184000Y-80044936D02*
X161184000Y-81499064D01*
%TO.C,Reset*%
X183372000Y-89828000D02*
X187872000Y-89828000D01*
X182122000Y-85828000D02*
X182122000Y-87328000D01*
X187872000Y-83328000D02*
X183372000Y-83328000D01*
X189122000Y-87328000D02*
X189122000Y-85828000D01*
%TO.C,Boot*%
X199282000Y-87328000D02*
X199282000Y-85828000D01*
X198032000Y-83328000D02*
X193532000Y-83328000D01*
X192282000Y-85828000D02*
X192282000Y-87328000D01*
X193532000Y-89828000D02*
X198032000Y-89828000D01*
%TO.C,U1*%
X189328000Y-101024000D02*
X188228000Y-101024000D01*
X189328000Y-101974000D02*
X189328000Y-101024000D01*
X190828000Y-101974000D02*
X189328000Y-101974000D01*
X189328000Y-92524000D02*
X184203000Y-92524000D01*
X189328000Y-91574000D02*
X189328000Y-92524000D01*
X190828000Y-91574000D02*
X189328000Y-91574000D01*
%TO.C,U2*%
X150706000Y-106088000D02*
X147706000Y-106088000D01*
X150706000Y-108288000D02*
X148506000Y-108288000D01*
%TO.C,U3*%
X164230000Y-108240000D02*
X164230000Y-102230000D01*
X171050000Y-105990000D02*
X171050000Y-102230000D01*
X164230000Y-102230000D02*
X165490000Y-102230000D01*
X171050000Y-102230000D02*
X169790000Y-102230000D01*
%TO.C,U4*%
X139145000Y-103862000D02*
X139145000Y-104242000D01*
X132725000Y-103862000D02*
X139145000Y-103862000D01*
X132725000Y-85622000D02*
X139145000Y-85622000D01*
X132725000Y-103862000D02*
X132725000Y-85622000D01*
X158470000Y-85622000D02*
X158470000Y-86622000D01*
X157690000Y-85622000D02*
X158470000Y-85622000D01*
X158470000Y-103862000D02*
X158470000Y-102862000D01*
X157690000Y-103862000D02*
X158470000Y-103862000D01*
%TO.C,Lidar*%
X141440000Y-81932000D02*
X141440000Y-82532000D01*
X143040000Y-81932000D02*
X141440000Y-81932000D01*
X143040000Y-82532000D02*
X143040000Y-81932000D01*
X143980000Y-81932000D02*
X143980000Y-82532000D01*
X145580000Y-81932000D02*
X143980000Y-81932000D01*
X145580000Y-82532000D02*
X145580000Y-81932000D01*
X146520000Y-81932000D02*
X146520000Y-82532000D01*
X148120000Y-81932000D02*
X146520000Y-81932000D01*
X148120000Y-82532000D02*
X148120000Y-81932000D01*
X149060000Y-81932000D02*
X149060000Y-82532000D01*
X150660000Y-81932000D02*
X149060000Y-81932000D01*
X150660000Y-82532000D02*
X150660000Y-81932000D01*
X151600000Y-81932000D02*
X151600000Y-82532000D01*
X153200000Y-81932000D02*
X151600000Y-81932000D01*
X153200000Y-82532000D02*
X153200000Y-81932000D01*
X154140000Y-81932000D02*
X154140000Y-82532000D01*
X155740000Y-81932000D02*
X154140000Y-81932000D01*
X155740000Y-82532000D02*
X155740000Y-81932000D01*
X142490000Y-76512000D02*
X142490000Y-77512000D01*
X154690000Y-76512000D02*
X154690000Y-77512000D01*
X142490000Y-78042000D02*
X142240000Y-77512000D01*
X154690000Y-78042000D02*
X142490000Y-78042000D01*
X154940000Y-77512000D02*
X154690000Y-78042000D01*
X142240000Y-77512000D02*
X142240000Y-76512000D01*
X154940000Y-77512000D02*
X142240000Y-77512000D01*
X154940000Y-76512000D02*
X154940000Y-77512000D01*
X156610000Y-81502000D02*
X156610000Y-77502000D01*
X140860000Y-82532000D02*
X156320000Y-82532000D01*
X140860000Y-76512000D02*
X140860000Y-82532000D01*
X156320000Y-76512000D02*
X140860000Y-76512000D01*
X156320000Y-82532000D02*
X156320000Y-76512000D01*
%TO.C,R6*%
X138282000Y-77250936D02*
X138282000Y-78705064D01*
X140102000Y-77250936D02*
X140102000Y-78705064D01*
%TO.C,Power*%
D12*
X176077809Y-89766380D02*
X176077809Y-88766380D01*
X176458761Y-88766380D01*
X176554000Y-88814000D01*
X176601619Y-88861619D01*
X176649238Y-88956857D01*
X176649238Y-89099714D01*
X176601619Y-89194952D01*
X176554000Y-89242571D01*
X176458761Y-89290190D01*
X176077809Y-89290190D01*
X177220666Y-89766380D02*
X177125428Y-89718761D01*
X177077809Y-89671142D01*
X177030190Y-89575904D01*
X177030190Y-89290190D01*
X177077809Y-89194952D01*
X177125428Y-89147333D01*
X177220666Y-89099714D01*
X177363523Y-89099714D01*
X177458761Y-89147333D01*
X177506380Y-89194952D01*
X177554000Y-89290190D01*
X177554000Y-89575904D01*
X177506380Y-89671142D01*
X177458761Y-89718761D01*
X177363523Y-89766380D01*
X177220666Y-89766380D01*
X177887333Y-89099714D02*
X178077809Y-89766380D01*
X178268285Y-89290190D01*
X178458761Y-89766380D01*
X178649238Y-89099714D01*
X179411142Y-89718761D02*
X179315904Y-89766380D01*
X179125428Y-89766380D01*
X179030190Y-89718761D01*
X178982571Y-89623523D01*
X178982571Y-89242571D01*
X179030190Y-89147333D01*
X179125428Y-89099714D01*
X179315904Y-89099714D01*
X179411142Y-89147333D01*
X179458761Y-89242571D01*
X179458761Y-89337809D01*
X178982571Y-89433047D01*
X179887333Y-89766380D02*
X179887333Y-89099714D01*
X179887333Y-89290190D02*
X179934952Y-89194952D01*
X179982571Y-89147333D01*
X180077809Y-89099714D01*
X180173047Y-89099714D01*
%TO.C,Status*%
X175887333Y-84224761D02*
X176030190Y-84272380D01*
X176268285Y-84272380D01*
X176363523Y-84224761D01*
X176411142Y-84177142D01*
X176458761Y-84081904D01*
X176458761Y-83986666D01*
X176411142Y-83891428D01*
X176363523Y-83843809D01*
X176268285Y-83796190D01*
X176077809Y-83748571D01*
X175982571Y-83700952D01*
X175934952Y-83653333D01*
X175887333Y-83558095D01*
X175887333Y-83462857D01*
X175934952Y-83367619D01*
X175982571Y-83320000D01*
X176077809Y-83272380D01*
X176315904Y-83272380D01*
X176458761Y-83320000D01*
X176744476Y-83605714D02*
X177125428Y-83605714D01*
X176887333Y-83272380D02*
X176887333Y-84129523D01*
X176934952Y-84224761D01*
X177030190Y-84272380D01*
X177125428Y-84272380D01*
X177887333Y-84272380D02*
X177887333Y-83748571D01*
X177839714Y-83653333D01*
X177744476Y-83605714D01*
X177554000Y-83605714D01*
X177458761Y-83653333D01*
X177887333Y-84224761D02*
X177792095Y-84272380D01*
X177554000Y-84272380D01*
X177458761Y-84224761D01*
X177411142Y-84129523D01*
X177411142Y-84034285D01*
X177458761Y-83939047D01*
X177554000Y-83891428D01*
X177792095Y-83891428D01*
X177887333Y-83843809D01*
X178220666Y-83605714D02*
X178601619Y-83605714D01*
X178363523Y-83272380D02*
X178363523Y-84129523D01*
X178411142Y-84224761D01*
X178506380Y-84272380D01*
X178601619Y-84272380D01*
X179363523Y-83605714D02*
X179363523Y-84272380D01*
X178934952Y-83605714D02*
X178934952Y-84129523D01*
X178982571Y-84224761D01*
X179077809Y-84272380D01*
X179220666Y-84272380D01*
X179315904Y-84224761D01*
X179363523Y-84177142D01*
X179792095Y-84224761D02*
X179887333Y-84272380D01*
X180077809Y-84272380D01*
X180173047Y-84224761D01*
X180220666Y-84129523D01*
X180220666Y-84081904D01*
X180173047Y-83986666D01*
X180077809Y-83939047D01*
X179934952Y-83939047D01*
X179839714Y-83891428D01*
X179792095Y-83796190D01*
X179792095Y-83748571D01*
X179839714Y-83653333D01*
X179934952Y-83605714D01*
X180077809Y-83605714D01*
X180173047Y-83653333D01*
%TO.C,UART*%
X167148380Y-93797238D02*
X167957904Y-93797238D01*
X168053142Y-93749619D01*
X168100761Y-93702000D01*
X168148380Y-93606761D01*
X168148380Y-93416285D01*
X168100761Y-93321047D01*
X168053142Y-93273428D01*
X167957904Y-93225809D01*
X167148380Y-93225809D01*
X167862666Y-92797238D02*
X167862666Y-92321047D01*
X168148380Y-92892476D02*
X167148380Y-92559142D01*
X168148380Y-92225809D01*
X168148380Y-91321047D02*
X167672190Y-91654380D01*
X168148380Y-91892476D02*
X167148380Y-91892476D01*
X167148380Y-91511523D01*
X167196000Y-91416285D01*
X167243619Y-91368666D01*
X167338857Y-91321047D01*
X167481714Y-91321047D01*
X167576952Y-91368666D01*
X167624571Y-91416285D01*
X167672190Y-91511523D01*
X167672190Y-91892476D01*
X167148380Y-91035333D02*
X167148380Y-90463904D01*
X168148380Y-90749619D02*
X167148380Y-90749619D01*
%TO.C,I2C*%
X154471809Y-108910380D02*
X154471809Y-107910380D01*
X154900380Y-108005619D02*
X154948000Y-107958000D01*
X155043238Y-107910380D01*
X155281333Y-107910380D01*
X155376571Y-107958000D01*
X155424190Y-108005619D01*
X155471809Y-108100857D01*
X155471809Y-108196095D01*
X155424190Y-108338952D01*
X154852761Y-108910380D01*
X155471809Y-108910380D01*
X156471809Y-108815142D02*
X156424190Y-108862761D01*
X156281333Y-108910380D01*
X156186095Y-108910380D01*
X156043238Y-108862761D01*
X155948000Y-108767523D01*
X155900380Y-108672285D01*
X155852761Y-108481809D01*
X155852761Y-108338952D01*
X155900380Y-108148476D01*
X155948000Y-108053238D01*
X156043238Y-107958000D01*
X156186095Y-107910380D01*
X156281333Y-107910380D01*
X156424190Y-107958000D01*
X156471809Y-108005619D01*
X144311809Y-108910380D02*
X144311809Y-107910380D01*
X144740380Y-108005619D02*
X144788000Y-107958000D01*
X144883238Y-107910380D01*
X145121333Y-107910380D01*
X145216571Y-107958000D01*
X145264190Y-108005619D01*
X145311809Y-108100857D01*
X145311809Y-108196095D01*
X145264190Y-108338952D01*
X144692761Y-108910380D01*
X145311809Y-108910380D01*
X146311809Y-108815142D02*
X146264190Y-108862761D01*
X146121333Y-108910380D01*
X146026095Y-108910380D01*
X145883238Y-108862761D01*
X145788000Y-108767523D01*
X145740380Y-108672285D01*
X145692761Y-108481809D01*
X145692761Y-108338952D01*
X145740380Y-108148476D01*
X145788000Y-108053238D01*
X145883238Y-107958000D01*
X146026095Y-107910380D01*
X146121333Y-107910380D01*
X146264190Y-107958000D01*
X146311809Y-108005619D01*
%TO.C,Reset*%
X184689904Y-82748380D02*
X184356571Y-82272190D01*
X184118476Y-82748380D02*
X184118476Y-81748380D01*
X184499428Y-81748380D01*
X184594666Y-81796000D01*
X184642285Y-81843619D01*
X184689904Y-81938857D01*
X184689904Y-82081714D01*
X184642285Y-82176952D01*
X184594666Y-82224571D01*
X184499428Y-82272190D01*
X184118476Y-82272190D01*
X185499428Y-82700761D02*
X185404190Y-82748380D01*
X185213714Y-82748380D01*
X185118476Y-82700761D01*
X185070857Y-82605523D01*
X185070857Y-82224571D01*
X185118476Y-82129333D01*
X185213714Y-82081714D01*
X185404190Y-82081714D01*
X185499428Y-82129333D01*
X185547047Y-82224571D01*
X185547047Y-82319809D01*
X185070857Y-82415047D01*
X185928000Y-82700761D02*
X186023238Y-82748380D01*
X186213714Y-82748380D01*
X186308952Y-82700761D01*
X186356571Y-82605523D01*
X186356571Y-82557904D01*
X186308952Y-82462666D01*
X186213714Y-82415047D01*
X186070857Y-82415047D01*
X185975619Y-82367428D01*
X185928000Y-82272190D01*
X185928000Y-82224571D01*
X185975619Y-82129333D01*
X186070857Y-82081714D01*
X186213714Y-82081714D01*
X186308952Y-82129333D01*
X187166095Y-82700761D02*
X187070857Y-82748380D01*
X186880380Y-82748380D01*
X186785142Y-82700761D01*
X186737523Y-82605523D01*
X186737523Y-82224571D01*
X186785142Y-82129333D01*
X186880380Y-82081714D01*
X187070857Y-82081714D01*
X187166095Y-82129333D01*
X187213714Y-82224571D01*
X187213714Y-82319809D01*
X186737523Y-82415047D01*
X187499428Y-82081714D02*
X187880380Y-82081714D01*
X187642285Y-81748380D02*
X187642285Y-82605523D01*
X187689904Y-82700761D01*
X187785142Y-82748380D01*
X187880380Y-82748380D01*
%TO.C,Boot*%
X194662952Y-82256571D02*
X194805809Y-82304190D01*
X194853428Y-82351809D01*
X194901047Y-82447047D01*
X194901047Y-82589904D01*
X194853428Y-82685142D01*
X194805809Y-82732761D01*
X194710571Y-82780380D01*
X194329619Y-82780380D01*
X194329619Y-81780380D01*
X194662952Y-81780380D01*
X194758190Y-81828000D01*
X194805809Y-81875619D01*
X194853428Y-81970857D01*
X194853428Y-82066095D01*
X194805809Y-82161333D01*
X194758190Y-82208952D01*
X194662952Y-82256571D01*
X194329619Y-82256571D01*
X195472476Y-82780380D02*
X195377238Y-82732761D01*
X195329619Y-82685142D01*
X195282000Y-82589904D01*
X195282000Y-82304190D01*
X195329619Y-82208952D01*
X195377238Y-82161333D01*
X195472476Y-82113714D01*
X195615333Y-82113714D01*
X195710571Y-82161333D01*
X195758190Y-82208952D01*
X195805809Y-82304190D01*
X195805809Y-82589904D01*
X195758190Y-82685142D01*
X195710571Y-82732761D01*
X195615333Y-82780380D01*
X195472476Y-82780380D01*
X196377238Y-82780380D02*
X196282000Y-82732761D01*
X196234380Y-82685142D01*
X196186761Y-82589904D01*
X196186761Y-82304190D01*
X196234380Y-82208952D01*
X196282000Y-82161333D01*
X196377238Y-82113714D01*
X196520095Y-82113714D01*
X196615333Y-82161333D01*
X196662952Y-82208952D01*
X196710571Y-82304190D01*
X196710571Y-82589904D01*
X196662952Y-82685142D01*
X196615333Y-82732761D01*
X196520095Y-82780380D01*
X196377238Y-82780380D01*
X196996285Y-82113714D02*
X197377238Y-82113714D01*
X197139142Y-81780380D02*
X197139142Y-82637523D01*
X197186761Y-82732761D01*
X197282000Y-82780380D01*
X197377238Y-82780380D01*
%TO.C,Lidar*%
X147447142Y-84074380D02*
X146970952Y-84074380D01*
X146970952Y-83074380D01*
X147780476Y-84074380D02*
X147780476Y-83407714D01*
X147780476Y-83074380D02*
X147732857Y-83122000D01*
X147780476Y-83169619D01*
X147828095Y-83122000D01*
X147780476Y-83074380D01*
X147780476Y-83169619D01*
X148685238Y-84074380D02*
X148685238Y-83074380D01*
X148685238Y-84026761D02*
X148590000Y-84074380D01*
X148399523Y-84074380D01*
X148304285Y-84026761D01*
X148256666Y-83979142D01*
X148209047Y-83883904D01*
X148209047Y-83598190D01*
X148256666Y-83502952D01*
X148304285Y-83455333D01*
X148399523Y-83407714D01*
X148590000Y-83407714D01*
X148685238Y-83455333D01*
X149590000Y-84074380D02*
X149590000Y-83550571D01*
X149542380Y-83455333D01*
X149447142Y-83407714D01*
X149256666Y-83407714D01*
X149161428Y-83455333D01*
X149590000Y-84026761D02*
X149494761Y-84074380D01*
X149256666Y-84074380D01*
X149161428Y-84026761D01*
X149113809Y-83931523D01*
X149113809Y-83836285D01*
X149161428Y-83741047D01*
X149256666Y-83693428D01*
X149494761Y-83693428D01*
X149590000Y-83645809D01*
X150066190Y-84074380D02*
X150066190Y-83407714D01*
X150066190Y-83598190D02*
X150113809Y-83502952D01*
X150161428Y-83455333D01*
X150256666Y-83407714D01*
X150351904Y-83407714D01*
%TD*%
M02*
