M48
; DRILL file {KiCad 5.1.5+dfsg1-2build2} date lun. 02 nov. 2020 19:27:43
; FORMAT={-:-/ absolute / inch / decimal}
; #@! TF.CreationDate,2020-11-02T19:27:43+01:00
; #@! TF.GenerationSoftware,Kicad,Pcbnew,5.1.5+dfsg1-2build2
; #@! TF.FileFunction,Plated,1,2,PTH
FMAT,2
INCH
T1C0.0276
T2C0.0315
T3C0.0394
T4C0.0472
%
G90
G05
T1
X1.25Y-3.85
X1.55Y-3.85
X0.25Y-3.85
X0.55Y-3.85
X1.75Y-3.85
X2.05Y-3.85
X0.25Y-3.45
X0.55Y-3.45
X1.25Y-4.25
X1.55Y-4.25
X1.75Y-4.25
X2.05Y-4.25
X0.75Y-4.25
X1.05Y-4.25
X1.25Y-3.45
X1.55Y-3.45
X0.75Y-3.45
X1.05Y-3.45
X1.75Y-3.45
X2.05Y-3.45
X0.25Y-4.25
X0.55Y-4.25
X0.75Y-3.85
X1.05Y-3.85
T2
X0.25Y-4.35
X0.25Y-4.5
X0.35Y-2.25
X0.55Y-4.35
X0.55Y-4.6
X0.6Y-2.0
X0.625Y-0.675
X0.75Y-4.35
X0.75Y-4.5
X0.85Y-0.75
X1.05Y-4.35
X1.05Y-4.6
X1.25Y-4.35
X1.25Y-4.5
X1.55Y-4.35
X1.55Y-4.6
X1.75Y-4.35
X1.75Y-4.5
X2.05Y-4.35
X2.05Y-4.6
X0.2Y-2.8531
X0.2Y-3.05
X0.705Y-2.15
X1.005Y-2.15
X0.905Y-2.3
X1.205Y-2.3
X0.305Y-2.425
X0.305Y-2.725
X0.405Y-2.425
X0.405Y-2.725
X0.505Y-2.425
X0.505Y-2.725
X0.605Y-2.425
X0.605Y-2.725
X0.705Y-2.425
X0.705Y-2.725
X0.805Y-2.425
X0.805Y-2.725
X0.905Y-2.425
X0.905Y-2.725
X1.005Y-2.425
X1.005Y-2.725
X1.105Y-2.425
X1.105Y-2.725
X1.205Y-2.425
X1.205Y-2.725
X1.305Y-2.425
X1.305Y-2.725
X1.405Y-2.425
X1.405Y-2.725
X1.505Y-2.425
X1.505Y-2.725
X1.605Y-2.425
X1.605Y-2.725
X0.15Y-0.825
X0.15Y-0.925
X0.15Y-1.025
X0.15Y-1.125
X0.15Y-1.225
X0.15Y-1.325
X0.15Y-1.425
X0.15Y-1.525
X0.15Y-1.6848
X0.15Y-1.7848
X0.15Y-1.8848
X0.15Y-1.9848
X0.15Y-2.0848
X0.15Y-2.1848
X0.15Y-2.2848
X0.15Y-2.3848
X0.15Y-2.4848
X0.15Y-2.5848
X2.05Y-0.825
X2.05Y-0.925
X2.05Y-1.025
X2.05Y-1.125
X2.05Y-1.225
X2.05Y-1.325
X2.05Y-1.525
X2.05Y-1.625
X2.05Y-1.725
X2.05Y-1.825
X2.05Y-1.925
X2.05Y-2.025
X2.05Y-2.125
X2.05Y-2.225
T3
X1.32Y-1.8063
X1.32Y-2.2
X2.05Y-2.45
X2.05Y-2.55
T4
X0.3Y-0.2
X0.3Y-0.3
X0.3Y-0.4
X0.3Y-0.5
X0.9Y-3.65
X1.0Y-3.65
X1.1Y-3.65
X0.6Y-0.2
X0.6Y-0.3
X0.6Y-0.4
X0.6Y-0.5
X0.4Y-3.25
X0.5Y-3.25
X0.6Y-3.25
X1.2Y-0.2
X1.3Y-0.2
X0.9Y-4.05
X1.0Y-4.05
X1.1Y-4.05
X1.55Y-0.5
X1.65Y-0.5
X1.75Y-0.5
X1.85Y-0.5
X0.4Y-4.05
X0.5Y-4.05
X0.6Y-4.05
X0.4Y-3.65
X0.5Y-3.65
X0.6Y-3.65
X1.9Y-3.65
X2.0Y-3.65
X2.1Y-3.65
X0.9Y-0.2
X1.0Y-0.2
X1.4Y-3.65
X1.5Y-3.65
X1.6Y-3.65
X1.4Y-4.05
X1.5Y-4.05
X1.6Y-4.05
X1.2Y-0.5
X1.3Y-0.5
X1.55Y-0.2
X1.65Y-0.2
X1.75Y-0.2
X1.85Y-0.2
X0.9Y-0.5
X1.0Y-0.5
X1.9Y-4.05
X2.0Y-4.05
X2.1Y-4.05
X0.9Y-3.25
X1.0Y-3.25
X1.1Y-3.25
X1.4Y-3.25
X1.5Y-3.25
X1.6Y-3.25
X1.9Y-3.25
X2.0Y-3.25
X2.1Y-3.25
T0
M30
