%TF.GenerationSoftware,KiCad,Pcbnew,5.1.9+dfsg1-1*%
%TF.CreationDate,2021-11-11T20:26:25+01:00*%
%TF.ProjectId,lidar_board,6c696461-725f-4626-9f61-72642e6b6963,rev?*%
%TF.SameCoordinates,Original*%
%TF.FileFunction,Soldermask,Bot*%
%TF.FilePolarity,Negative*%
%FSLAX46Y46*%
G04 Gerber Fmt 4.6, Leading zero omitted, Abs format (unit mm)*
G04 Created by KiCad (PCBNEW 5.1.9+dfsg1-1) date 2021-11-11 20:26:25*
%MOMM*%
%LPD*%
G01*
G04 APERTURE LIST*
%ADD10C,2.200000*%
%ADD11C,1.600000*%
%ADD12R,1.600000X1.600000*%
%ADD13R,3.500000X3.500000*%
%ADD14O,2.190000X1.740000*%
%ADD15O,1.740000X2.190000*%
%ADD16R,0.560000X4.000000*%
%ADD17C,2.000000*%
G04 APERTURE END LIST*
D10*
%TO.C,REF\u002A\u002A*%
X135128000Y-77978000D03*
%TD*%
%TO.C,REF\u002A\u002A*%
X198882000Y-77978000D03*
%TD*%
%TO.C,REF\u002A\u002A*%
X135128000Y-113792000D03*
%TD*%
%TO.C,REF\u002A\u002A*%
X198882000Y-113792000D03*
%TD*%
D11*
%TO.C,C1*%
X167386000Y-111038000D03*
D12*
X167386000Y-113538000D03*
%TD*%
%TO.C,C2*%
X178054000Y-94742000D03*
D11*
X180554000Y-94742000D03*
%TD*%
D13*
%TO.C,J1*%
X191262000Y-106172000D03*
G36*
G01*
X192262000Y-113672000D02*
X190262000Y-113672000D01*
G75*
G02*
X189512000Y-112922000I0J750000D01*
G01*
X189512000Y-111422000D01*
G75*
G02*
X190262000Y-110672000I750000J0D01*
G01*
X192262000Y-110672000D01*
G75*
G02*
X193012000Y-111422000I0J-750000D01*
G01*
X193012000Y-112922000D01*
G75*
G02*
X192262000Y-113672000I-750000J0D01*
G01*
G37*
G36*
G01*
X196837000Y-110922000D02*
X195087000Y-110922000D01*
G75*
G02*
X194212000Y-110047000I0J875000D01*
G01*
X194212000Y-108297000D01*
G75*
G02*
X195087000Y-107422000I875000J0D01*
G01*
X196837000Y-107422000D01*
G75*
G02*
X197712000Y-108297000I0J-875000D01*
G01*
X197712000Y-110047000D01*
G75*
G02*
X196837000Y-110922000I-875000J0D01*
G01*
G37*
%TD*%
D14*
%TO.C,J2*%
X163576000Y-96012000D03*
X163576000Y-93472000D03*
X163576000Y-90932000D03*
G36*
G01*
X162730999Y-87522000D02*
X164421001Y-87522000D01*
G75*
G02*
X164671000Y-87771999I0J-249999D01*
G01*
X164671000Y-89012001D01*
G75*
G02*
X164421001Y-89262000I-249999J0D01*
G01*
X162730999Y-89262000D01*
G75*
G02*
X162481000Y-89012001I0J249999D01*
G01*
X162481000Y-87771999D01*
G75*
G02*
X162730999Y-87522000I249999J0D01*
G01*
G37*
%TD*%
%TO.C,I2C*%
G36*
G01*
X150768000Y-113367001D02*
X150768000Y-111676999D01*
G75*
G02*
X151017999Y-111427000I249999J0D01*
G01*
X152258001Y-111427000D01*
G75*
G02*
X152508000Y-111676999I0J-249999D01*
G01*
X152508000Y-113367001D01*
G75*
G02*
X152258001Y-113617000I-249999J0D01*
G01*
X151017999Y-113617000D01*
G75*
G02*
X150768000Y-113367001I0J249999D01*
G01*
G37*
D15*
X154178000Y-112522000D03*
X156718000Y-112522000D03*
X159258000Y-112522000D03*
%TD*%
%TO.C,I2C*%
G36*
G01*
X138830000Y-113367001D02*
X138830000Y-111676999D01*
G75*
G02*
X139079999Y-111427000I249999J0D01*
G01*
X140320001Y-111427000D01*
G75*
G02*
X140570000Y-111676999I0J-249999D01*
G01*
X140570000Y-113367001D01*
G75*
G02*
X140320001Y-113617000I-249999J0D01*
G01*
X139079999Y-113617000D01*
G75*
G02*
X138830000Y-113367001I0J249999D01*
G01*
G37*
X142240000Y-112522000D03*
X144780000Y-112522000D03*
X147320000Y-112522000D03*
%TD*%
D16*
%TO.C,J5*%
X153787000Y-72938000D03*
X156327000Y-72938000D03*
X160137000Y-72938000D03*
X158867000Y-72938000D03*
X155057000Y-72938000D03*
X157597000Y-72938000D03*
%TD*%
D17*
%TO.C,Reset*%
X188872000Y-84328000D03*
X188872000Y-88828000D03*
X182372000Y-84328000D03*
X182372000Y-88828000D03*
%TD*%
%TO.C,Boot*%
X192532000Y-88828000D03*
X192532000Y-84328000D03*
X199032000Y-88828000D03*
X199032000Y-84328000D03*
%TD*%
M02*
