G04 #@! TF.GenerationSoftware,KiCad,Pcbnew,5.1.5+dfsg1-2build2*
G04 #@! TF.CreationDate,2020-11-09T00:10:50+01:00*
G04 #@! TF.ProjectId,motherboard,6d6f7468-6572-4626-9f61-72642e6b6963,rev?*
G04 #@! TF.SameCoordinates,Original*
G04 #@! TF.FileFunction,Copper,L1,Top*
G04 #@! TF.FilePolarity,Positive*
%FSLAX46Y46*%
G04 Gerber Fmt 4.6, Leading zero omitted, Abs format (unit mm)*
G04 Created by KiCad (PCBNEW 5.1.5+dfsg1-2build2) date 2020-11-09 00:10:50*
%MOMM*%
%LPD*%
G04 APERTURE LIST*
%ADD10O,1.600000X1.600000*%
%ADD11R,1.600000X1.600000*%
%ADD12C,1.600000*%
%ADD13O,2.200000X1.740000*%
%ADD14C,0.100000*%
%ADD15R,4.200000X1.350000*%
%ADD16R,3.600000X1.270000*%
%ADD17R,1.050000X1.500000*%
%ADD18O,1.050000X1.500000*%
%ADD19R,2.000000X1.000000*%
%ADD20R,3.500120X3.500120*%
%ADD21C,3.500120*%
%ADD22C,0.800000*%
%ADD23C,0.600000*%
%ADD24C,0.250000*%
G04 APERTURE END LIST*
D10*
X96012000Y-102108000D03*
X98552000Y-102108000D03*
X58932000Y-102108000D03*
X98552000Y-53848000D03*
X61472000Y-102108000D03*
X96012000Y-53848000D03*
X64012000Y-102108000D03*
X93472000Y-53848000D03*
X66552000Y-102108000D03*
X90932000Y-53848000D03*
X69092000Y-102108000D03*
X88392000Y-53848000D03*
X71632000Y-102108000D03*
X85852000Y-53848000D03*
X74172000Y-102108000D03*
X80772000Y-53848000D03*
X76712000Y-102108000D03*
X78232000Y-53848000D03*
X80772000Y-102108000D03*
X75692000Y-53848000D03*
X83312000Y-102108000D03*
X73152000Y-53848000D03*
X85852000Y-102108000D03*
X70612000Y-53848000D03*
X88392000Y-102108000D03*
X68072000Y-53848000D03*
X90932000Y-102108000D03*
X65532000Y-53848000D03*
X93472000Y-102108000D03*
D11*
X62992000Y-53848000D03*
D10*
X56392000Y-102108000D03*
X53852000Y-102108000D03*
X60706000Y-69723000D03*
D12*
X60706000Y-72263000D03*
D10*
X60706000Y-64516000D03*
D12*
X60706000Y-67056000D03*
X42672000Y-57912000D03*
D10*
X45212000Y-57912000D03*
D12*
X78105000Y-61468000D03*
D10*
X88105000Y-61468000D03*
D13*
X107696000Y-78232000D03*
G04 #@! TA.AperFunction,ComponentPad*
D14*
G36*
X108570505Y-79903204D02*
G01*
X108594773Y-79906804D01*
X108618572Y-79912765D01*
X108641671Y-79921030D01*
X108663850Y-79931520D01*
X108684893Y-79944132D01*
X108704599Y-79958747D01*
X108722777Y-79975223D01*
X108739253Y-79993401D01*
X108753868Y-80013107D01*
X108766480Y-80034150D01*
X108776970Y-80056329D01*
X108785235Y-80079428D01*
X108791196Y-80103227D01*
X108794796Y-80127495D01*
X108796000Y-80151999D01*
X108796000Y-81392001D01*
X108794796Y-81416505D01*
X108791196Y-81440773D01*
X108785235Y-81464572D01*
X108776970Y-81487671D01*
X108766480Y-81509850D01*
X108753868Y-81530893D01*
X108739253Y-81550599D01*
X108722777Y-81568777D01*
X108704599Y-81585253D01*
X108684893Y-81599868D01*
X108663850Y-81612480D01*
X108641671Y-81622970D01*
X108618572Y-81631235D01*
X108594773Y-81637196D01*
X108570505Y-81640796D01*
X108546001Y-81642000D01*
X106845999Y-81642000D01*
X106821495Y-81640796D01*
X106797227Y-81637196D01*
X106773428Y-81631235D01*
X106750329Y-81622970D01*
X106728150Y-81612480D01*
X106707107Y-81599868D01*
X106687401Y-81585253D01*
X106669223Y-81568777D01*
X106652747Y-81550599D01*
X106638132Y-81530893D01*
X106625520Y-81509850D01*
X106615030Y-81487671D01*
X106606765Y-81464572D01*
X106600804Y-81440773D01*
X106597204Y-81416505D01*
X106596000Y-81392001D01*
X106596000Y-80151999D01*
X106597204Y-80127495D01*
X106600804Y-80103227D01*
X106606765Y-80079428D01*
X106615030Y-80056329D01*
X106625520Y-80034150D01*
X106638132Y-80013107D01*
X106652747Y-79993401D01*
X106669223Y-79975223D01*
X106687401Y-79958747D01*
X106707107Y-79944132D01*
X106728150Y-79931520D01*
X106750329Y-79921030D01*
X106773428Y-79912765D01*
X106797227Y-79906804D01*
X106821495Y-79903204D01*
X106845999Y-79902000D01*
X108546001Y-79902000D01*
X108570505Y-79903204D01*
G37*
G04 #@! TD.AperFunction*
D13*
X107696000Y-54356000D03*
X107696000Y-56896000D03*
X107696000Y-59436000D03*
G04 #@! TA.AperFunction,ComponentPad*
D14*
G36*
X108570505Y-61107204D02*
G01*
X108594773Y-61110804D01*
X108618572Y-61116765D01*
X108641671Y-61125030D01*
X108663850Y-61135520D01*
X108684893Y-61148132D01*
X108704599Y-61162747D01*
X108722777Y-61179223D01*
X108739253Y-61197401D01*
X108753868Y-61217107D01*
X108766480Y-61238150D01*
X108776970Y-61260329D01*
X108785235Y-61283428D01*
X108791196Y-61307227D01*
X108794796Y-61331495D01*
X108796000Y-61355999D01*
X108796000Y-62596001D01*
X108794796Y-62620505D01*
X108791196Y-62644773D01*
X108785235Y-62668572D01*
X108776970Y-62691671D01*
X108766480Y-62713850D01*
X108753868Y-62734893D01*
X108739253Y-62754599D01*
X108722777Y-62772777D01*
X108704599Y-62789253D01*
X108684893Y-62803868D01*
X108663850Y-62816480D01*
X108641671Y-62826970D01*
X108618572Y-62835235D01*
X108594773Y-62841196D01*
X108570505Y-62844796D01*
X108546001Y-62846000D01*
X106845999Y-62846000D01*
X106821495Y-62844796D01*
X106797227Y-62841196D01*
X106773428Y-62835235D01*
X106750329Y-62826970D01*
X106728150Y-62816480D01*
X106707107Y-62803868D01*
X106687401Y-62789253D01*
X106669223Y-62772777D01*
X106652747Y-62754599D01*
X106638132Y-62734893D01*
X106625520Y-62713850D01*
X106615030Y-62691671D01*
X106606765Y-62668572D01*
X106600804Y-62644773D01*
X106597204Y-62620505D01*
X106596000Y-62596001D01*
X106596000Y-61355999D01*
X106597204Y-61331495D01*
X106600804Y-61307227D01*
X106606765Y-61283428D01*
X106615030Y-61260329D01*
X106625520Y-61238150D01*
X106638132Y-61217107D01*
X106652747Y-61197401D01*
X106669223Y-61179223D01*
X106687401Y-61162747D01*
X106707107Y-61148132D01*
X106728150Y-61135520D01*
X106750329Y-61125030D01*
X106773428Y-61116765D01*
X106797227Y-61110804D01*
X106821495Y-61107204D01*
X106845999Y-61106000D01*
X108546001Y-61106000D01*
X108570505Y-61107204D01*
G37*
G04 #@! TD.AperFunction*
G04 #@! TA.AperFunction,ComponentPad*
G36*
X116190505Y-79903204D02*
G01*
X116214773Y-79906804D01*
X116238572Y-79912765D01*
X116261671Y-79921030D01*
X116283850Y-79931520D01*
X116304893Y-79944132D01*
X116324599Y-79958747D01*
X116342777Y-79975223D01*
X116359253Y-79993401D01*
X116373868Y-80013107D01*
X116386480Y-80034150D01*
X116396970Y-80056329D01*
X116405235Y-80079428D01*
X116411196Y-80103227D01*
X116414796Y-80127495D01*
X116416000Y-80151999D01*
X116416000Y-81392001D01*
X116414796Y-81416505D01*
X116411196Y-81440773D01*
X116405235Y-81464572D01*
X116396970Y-81487671D01*
X116386480Y-81509850D01*
X116373868Y-81530893D01*
X116359253Y-81550599D01*
X116342777Y-81568777D01*
X116324599Y-81585253D01*
X116304893Y-81599868D01*
X116283850Y-81612480D01*
X116261671Y-81622970D01*
X116238572Y-81631235D01*
X116214773Y-81637196D01*
X116190505Y-81640796D01*
X116166001Y-81642000D01*
X114465999Y-81642000D01*
X114441495Y-81640796D01*
X114417227Y-81637196D01*
X114393428Y-81631235D01*
X114370329Y-81622970D01*
X114348150Y-81612480D01*
X114327107Y-81599868D01*
X114307401Y-81585253D01*
X114289223Y-81568777D01*
X114272747Y-81550599D01*
X114258132Y-81530893D01*
X114245520Y-81509850D01*
X114235030Y-81487671D01*
X114226765Y-81464572D01*
X114220804Y-81440773D01*
X114217204Y-81416505D01*
X114216000Y-81392001D01*
X114216000Y-80151999D01*
X114217204Y-80127495D01*
X114220804Y-80103227D01*
X114226765Y-80079428D01*
X114235030Y-80056329D01*
X114245520Y-80034150D01*
X114258132Y-80013107D01*
X114272747Y-79993401D01*
X114289223Y-79975223D01*
X114307401Y-79958747D01*
X114327107Y-79944132D01*
X114348150Y-79931520D01*
X114370329Y-79921030D01*
X114393428Y-79912765D01*
X114417227Y-79906804D01*
X114441495Y-79903204D01*
X114465999Y-79902000D01*
X116166001Y-79902000D01*
X116190505Y-79903204D01*
G37*
G04 #@! TD.AperFunction*
D13*
X115316000Y-78232000D03*
G04 #@! TA.AperFunction,ComponentPad*
D14*
G36*
X116190505Y-61107204D02*
G01*
X116214773Y-61110804D01*
X116238572Y-61116765D01*
X116261671Y-61125030D01*
X116283850Y-61135520D01*
X116304893Y-61148132D01*
X116324599Y-61162747D01*
X116342777Y-61179223D01*
X116359253Y-61197401D01*
X116373868Y-61217107D01*
X116386480Y-61238150D01*
X116396970Y-61260329D01*
X116405235Y-61283428D01*
X116411196Y-61307227D01*
X116414796Y-61331495D01*
X116416000Y-61355999D01*
X116416000Y-62596001D01*
X116414796Y-62620505D01*
X116411196Y-62644773D01*
X116405235Y-62668572D01*
X116396970Y-62691671D01*
X116386480Y-62713850D01*
X116373868Y-62734893D01*
X116359253Y-62754599D01*
X116342777Y-62772777D01*
X116324599Y-62789253D01*
X116304893Y-62803868D01*
X116283850Y-62816480D01*
X116261671Y-62826970D01*
X116238572Y-62835235D01*
X116214773Y-62841196D01*
X116190505Y-62844796D01*
X116166001Y-62846000D01*
X114465999Y-62846000D01*
X114441495Y-62844796D01*
X114417227Y-62841196D01*
X114393428Y-62835235D01*
X114370329Y-62826970D01*
X114348150Y-62816480D01*
X114327107Y-62803868D01*
X114307401Y-62789253D01*
X114289223Y-62772777D01*
X114272747Y-62754599D01*
X114258132Y-62734893D01*
X114245520Y-62713850D01*
X114235030Y-62691671D01*
X114226765Y-62668572D01*
X114220804Y-62644773D01*
X114217204Y-62620505D01*
X114216000Y-62596001D01*
X114216000Y-61355999D01*
X114217204Y-61331495D01*
X114220804Y-61307227D01*
X114226765Y-61283428D01*
X114235030Y-61260329D01*
X114245520Y-61238150D01*
X114258132Y-61217107D01*
X114272747Y-61197401D01*
X114289223Y-61179223D01*
X114307401Y-61162747D01*
X114327107Y-61148132D01*
X114348150Y-61135520D01*
X114370329Y-61125030D01*
X114393428Y-61116765D01*
X114417227Y-61110804D01*
X114441495Y-61107204D01*
X114465999Y-61106000D01*
X116166001Y-61106000D01*
X116190505Y-61107204D01*
G37*
G04 #@! TD.AperFunction*
D13*
X115316000Y-59436000D03*
X115316000Y-56896000D03*
X115316000Y-54356000D03*
X107696000Y-84836000D03*
G04 #@! TA.AperFunction,ComponentPad*
D14*
G36*
X108570505Y-86507204D02*
G01*
X108594773Y-86510804D01*
X108618572Y-86516765D01*
X108641671Y-86525030D01*
X108663850Y-86535520D01*
X108684893Y-86548132D01*
X108704599Y-86562747D01*
X108722777Y-86579223D01*
X108739253Y-86597401D01*
X108753868Y-86617107D01*
X108766480Y-86638150D01*
X108776970Y-86660329D01*
X108785235Y-86683428D01*
X108791196Y-86707227D01*
X108794796Y-86731495D01*
X108796000Y-86755999D01*
X108796000Y-87996001D01*
X108794796Y-88020505D01*
X108791196Y-88044773D01*
X108785235Y-88068572D01*
X108776970Y-88091671D01*
X108766480Y-88113850D01*
X108753868Y-88134893D01*
X108739253Y-88154599D01*
X108722777Y-88172777D01*
X108704599Y-88189253D01*
X108684893Y-88203868D01*
X108663850Y-88216480D01*
X108641671Y-88226970D01*
X108618572Y-88235235D01*
X108594773Y-88241196D01*
X108570505Y-88244796D01*
X108546001Y-88246000D01*
X106845999Y-88246000D01*
X106821495Y-88244796D01*
X106797227Y-88241196D01*
X106773428Y-88235235D01*
X106750329Y-88226970D01*
X106728150Y-88216480D01*
X106707107Y-88203868D01*
X106687401Y-88189253D01*
X106669223Y-88172777D01*
X106652747Y-88154599D01*
X106638132Y-88134893D01*
X106625520Y-88113850D01*
X106615030Y-88091671D01*
X106606765Y-88068572D01*
X106600804Y-88044773D01*
X106597204Y-88020505D01*
X106596000Y-87996001D01*
X106596000Y-86755999D01*
X106597204Y-86731495D01*
X106600804Y-86707227D01*
X106606765Y-86683428D01*
X106615030Y-86660329D01*
X106625520Y-86638150D01*
X106638132Y-86617107D01*
X106652747Y-86597401D01*
X106669223Y-86579223D01*
X106687401Y-86562747D01*
X106707107Y-86548132D01*
X106728150Y-86535520D01*
X106750329Y-86525030D01*
X106773428Y-86516765D01*
X106797227Y-86510804D01*
X106821495Y-86507204D01*
X106845999Y-86506000D01*
X108546001Y-86506000D01*
X108570505Y-86507204D01*
G37*
G04 #@! TD.AperFunction*
D15*
X118364000Y-97821000D03*
X118364000Y-92171000D03*
D16*
X118564000Y-94996000D03*
G04 #@! TA.AperFunction,ComponentPad*
D14*
G36*
X108570505Y-72791204D02*
G01*
X108594773Y-72794804D01*
X108618572Y-72800765D01*
X108641671Y-72809030D01*
X108663850Y-72819520D01*
X108684893Y-72832132D01*
X108704599Y-72846747D01*
X108722777Y-72863223D01*
X108739253Y-72881401D01*
X108753868Y-72901107D01*
X108766480Y-72922150D01*
X108776970Y-72944329D01*
X108785235Y-72967428D01*
X108791196Y-72991227D01*
X108794796Y-73015495D01*
X108796000Y-73039999D01*
X108796000Y-74280001D01*
X108794796Y-74304505D01*
X108791196Y-74328773D01*
X108785235Y-74352572D01*
X108776970Y-74375671D01*
X108766480Y-74397850D01*
X108753868Y-74418893D01*
X108739253Y-74438599D01*
X108722777Y-74456777D01*
X108704599Y-74473253D01*
X108684893Y-74487868D01*
X108663850Y-74500480D01*
X108641671Y-74510970D01*
X108618572Y-74519235D01*
X108594773Y-74525196D01*
X108570505Y-74528796D01*
X108546001Y-74530000D01*
X106845999Y-74530000D01*
X106821495Y-74528796D01*
X106797227Y-74525196D01*
X106773428Y-74519235D01*
X106750329Y-74510970D01*
X106728150Y-74500480D01*
X106707107Y-74487868D01*
X106687401Y-74473253D01*
X106669223Y-74456777D01*
X106652747Y-74438599D01*
X106638132Y-74418893D01*
X106625520Y-74397850D01*
X106615030Y-74375671D01*
X106606765Y-74352572D01*
X106600804Y-74328773D01*
X106597204Y-74304505D01*
X106596000Y-74280001D01*
X106596000Y-73039999D01*
X106597204Y-73015495D01*
X106600804Y-72991227D01*
X106606765Y-72967428D01*
X106615030Y-72944329D01*
X106625520Y-72922150D01*
X106638132Y-72901107D01*
X106652747Y-72881401D01*
X106669223Y-72863223D01*
X106687401Y-72846747D01*
X106707107Y-72832132D01*
X106728150Y-72819520D01*
X106750329Y-72809030D01*
X106773428Y-72800765D01*
X106797227Y-72794804D01*
X106821495Y-72791204D01*
X106845999Y-72790000D01*
X108546001Y-72790000D01*
X108570505Y-72791204D01*
G37*
G04 #@! TD.AperFunction*
D13*
X107696000Y-71120000D03*
X107696000Y-68580000D03*
X107696000Y-66040000D03*
G04 #@! TA.AperFunction,ComponentPad*
D14*
G36*
X116190505Y-86507204D02*
G01*
X116214773Y-86510804D01*
X116238572Y-86516765D01*
X116261671Y-86525030D01*
X116283850Y-86535520D01*
X116304893Y-86548132D01*
X116324599Y-86562747D01*
X116342777Y-86579223D01*
X116359253Y-86597401D01*
X116373868Y-86617107D01*
X116386480Y-86638150D01*
X116396970Y-86660329D01*
X116405235Y-86683428D01*
X116411196Y-86707227D01*
X116414796Y-86731495D01*
X116416000Y-86755999D01*
X116416000Y-87996001D01*
X116414796Y-88020505D01*
X116411196Y-88044773D01*
X116405235Y-88068572D01*
X116396970Y-88091671D01*
X116386480Y-88113850D01*
X116373868Y-88134893D01*
X116359253Y-88154599D01*
X116342777Y-88172777D01*
X116324599Y-88189253D01*
X116304893Y-88203868D01*
X116283850Y-88216480D01*
X116261671Y-88226970D01*
X116238572Y-88235235D01*
X116214773Y-88241196D01*
X116190505Y-88244796D01*
X116166001Y-88246000D01*
X114465999Y-88246000D01*
X114441495Y-88244796D01*
X114417227Y-88241196D01*
X114393428Y-88235235D01*
X114370329Y-88226970D01*
X114348150Y-88216480D01*
X114327107Y-88203868D01*
X114307401Y-88189253D01*
X114289223Y-88172777D01*
X114272747Y-88154599D01*
X114258132Y-88134893D01*
X114245520Y-88113850D01*
X114235030Y-88091671D01*
X114226765Y-88068572D01*
X114220804Y-88044773D01*
X114217204Y-88020505D01*
X114216000Y-87996001D01*
X114216000Y-86755999D01*
X114217204Y-86731495D01*
X114220804Y-86707227D01*
X114226765Y-86683428D01*
X114235030Y-86660329D01*
X114245520Y-86638150D01*
X114258132Y-86617107D01*
X114272747Y-86597401D01*
X114289223Y-86579223D01*
X114307401Y-86562747D01*
X114327107Y-86548132D01*
X114348150Y-86535520D01*
X114370329Y-86525030D01*
X114393428Y-86516765D01*
X114417227Y-86510804D01*
X114441495Y-86507204D01*
X114465999Y-86506000D01*
X116166001Y-86506000D01*
X116190505Y-86507204D01*
G37*
G04 #@! TD.AperFunction*
D13*
X115316000Y-84836000D03*
X115316000Y-66040000D03*
X115316000Y-68580000D03*
X115316000Y-71120000D03*
G04 #@! TA.AperFunction,ComponentPad*
D14*
G36*
X116190505Y-72791204D02*
G01*
X116214773Y-72794804D01*
X116238572Y-72800765D01*
X116261671Y-72809030D01*
X116283850Y-72819520D01*
X116304893Y-72832132D01*
X116324599Y-72846747D01*
X116342777Y-72863223D01*
X116359253Y-72881401D01*
X116373868Y-72901107D01*
X116386480Y-72922150D01*
X116396970Y-72944329D01*
X116405235Y-72967428D01*
X116411196Y-72991227D01*
X116414796Y-73015495D01*
X116416000Y-73039999D01*
X116416000Y-74280001D01*
X116414796Y-74304505D01*
X116411196Y-74328773D01*
X116405235Y-74352572D01*
X116396970Y-74375671D01*
X116386480Y-74397850D01*
X116373868Y-74418893D01*
X116359253Y-74438599D01*
X116342777Y-74456777D01*
X116324599Y-74473253D01*
X116304893Y-74487868D01*
X116283850Y-74500480D01*
X116261671Y-74510970D01*
X116238572Y-74519235D01*
X116214773Y-74525196D01*
X116190505Y-74528796D01*
X116166001Y-74530000D01*
X114465999Y-74530000D01*
X114441495Y-74528796D01*
X114417227Y-74525196D01*
X114393428Y-74519235D01*
X114370329Y-74510970D01*
X114348150Y-74500480D01*
X114327107Y-74487868D01*
X114307401Y-74473253D01*
X114289223Y-74456777D01*
X114272747Y-74438599D01*
X114258132Y-74418893D01*
X114245520Y-74397850D01*
X114235030Y-74375671D01*
X114226765Y-74352572D01*
X114220804Y-74328773D01*
X114217204Y-74304505D01*
X114216000Y-74280001D01*
X114216000Y-73039999D01*
X114217204Y-73015495D01*
X114220804Y-72991227D01*
X114226765Y-72967428D01*
X114235030Y-72944329D01*
X114245520Y-72922150D01*
X114258132Y-72901107D01*
X114272747Y-72881401D01*
X114289223Y-72863223D01*
X114307401Y-72846747D01*
X114327107Y-72832132D01*
X114348150Y-72819520D01*
X114370329Y-72809030D01*
X114393428Y-72800765D01*
X114417227Y-72794804D01*
X114441495Y-72791204D01*
X114465999Y-72790000D01*
X116166001Y-72790000D01*
X116190505Y-72791204D01*
G37*
G04 #@! TD.AperFunction*
G04 #@! TA.AperFunction,ComponentPad*
G36*
X5954505Y-74315204D02*
G01*
X5978773Y-74318804D01*
X6002572Y-74324765D01*
X6025671Y-74333030D01*
X6047850Y-74343520D01*
X6068893Y-74356132D01*
X6088599Y-74370747D01*
X6106777Y-74387223D01*
X6123253Y-74405401D01*
X6137868Y-74425107D01*
X6150480Y-74446150D01*
X6160970Y-74468329D01*
X6169235Y-74491428D01*
X6175196Y-74515227D01*
X6178796Y-74539495D01*
X6180000Y-74563999D01*
X6180000Y-75804001D01*
X6178796Y-75828505D01*
X6175196Y-75852773D01*
X6169235Y-75876572D01*
X6160970Y-75899671D01*
X6150480Y-75921850D01*
X6137868Y-75942893D01*
X6123253Y-75962599D01*
X6106777Y-75980777D01*
X6088599Y-75997253D01*
X6068893Y-76011868D01*
X6047850Y-76024480D01*
X6025671Y-76034970D01*
X6002572Y-76043235D01*
X5978773Y-76049196D01*
X5954505Y-76052796D01*
X5930001Y-76054000D01*
X4229999Y-76054000D01*
X4205495Y-76052796D01*
X4181227Y-76049196D01*
X4157428Y-76043235D01*
X4134329Y-76034970D01*
X4112150Y-76024480D01*
X4091107Y-76011868D01*
X4071401Y-75997253D01*
X4053223Y-75980777D01*
X4036747Y-75962599D01*
X4022132Y-75942893D01*
X4009520Y-75921850D01*
X3999030Y-75899671D01*
X3990765Y-75876572D01*
X3984804Y-75852773D01*
X3981204Y-75828505D01*
X3980000Y-75804001D01*
X3980000Y-74563999D01*
X3981204Y-74539495D01*
X3984804Y-74515227D01*
X3990765Y-74491428D01*
X3999030Y-74468329D01*
X4009520Y-74446150D01*
X4022132Y-74425107D01*
X4036747Y-74405401D01*
X4053223Y-74387223D01*
X4071401Y-74370747D01*
X4091107Y-74356132D01*
X4112150Y-74343520D01*
X4134329Y-74333030D01*
X4157428Y-74324765D01*
X4181227Y-74318804D01*
X4205495Y-74315204D01*
X4229999Y-74314000D01*
X5930001Y-74314000D01*
X5954505Y-74315204D01*
G37*
G04 #@! TD.AperFunction*
D13*
X5080000Y-77724000D03*
X5080000Y-80264000D03*
X31496000Y-61976000D03*
X31496000Y-59436000D03*
G04 #@! TA.AperFunction,ComponentPad*
D14*
G36*
X32370505Y-56027204D02*
G01*
X32394773Y-56030804D01*
X32418572Y-56036765D01*
X32441671Y-56045030D01*
X32463850Y-56055520D01*
X32484893Y-56068132D01*
X32504599Y-56082747D01*
X32522777Y-56099223D01*
X32539253Y-56117401D01*
X32553868Y-56137107D01*
X32566480Y-56158150D01*
X32576970Y-56180329D01*
X32585235Y-56203428D01*
X32591196Y-56227227D01*
X32594796Y-56251495D01*
X32596000Y-56275999D01*
X32596000Y-57516001D01*
X32594796Y-57540505D01*
X32591196Y-57564773D01*
X32585235Y-57588572D01*
X32576970Y-57611671D01*
X32566480Y-57633850D01*
X32553868Y-57654893D01*
X32539253Y-57674599D01*
X32522777Y-57692777D01*
X32504599Y-57709253D01*
X32484893Y-57723868D01*
X32463850Y-57736480D01*
X32441671Y-57746970D01*
X32418572Y-57755235D01*
X32394773Y-57761196D01*
X32370505Y-57764796D01*
X32346001Y-57766000D01*
X30645999Y-57766000D01*
X30621495Y-57764796D01*
X30597227Y-57761196D01*
X30573428Y-57755235D01*
X30550329Y-57746970D01*
X30528150Y-57736480D01*
X30507107Y-57723868D01*
X30487401Y-57709253D01*
X30469223Y-57692777D01*
X30452747Y-57674599D01*
X30438132Y-57654893D01*
X30425520Y-57633850D01*
X30415030Y-57611671D01*
X30406765Y-57588572D01*
X30400804Y-57564773D01*
X30397204Y-57540505D01*
X30396000Y-57516001D01*
X30396000Y-56275999D01*
X30397204Y-56251495D01*
X30400804Y-56227227D01*
X30406765Y-56203428D01*
X30415030Y-56180329D01*
X30425520Y-56158150D01*
X30438132Y-56137107D01*
X30452747Y-56117401D01*
X30469223Y-56099223D01*
X30487401Y-56082747D01*
X30507107Y-56068132D01*
X30528150Y-56055520D01*
X30550329Y-56045030D01*
X30573428Y-56036765D01*
X30597227Y-56030804D01*
X30621495Y-56027204D01*
X30645999Y-56026000D01*
X32346001Y-56026000D01*
X32370505Y-56027204D01*
G37*
G04 #@! TD.AperFunction*
G04 #@! TA.AperFunction,ComponentPad*
G36*
X19162505Y-65171204D02*
G01*
X19186773Y-65174804D01*
X19210572Y-65180765D01*
X19233671Y-65189030D01*
X19255850Y-65199520D01*
X19276893Y-65212132D01*
X19296599Y-65226747D01*
X19314777Y-65243223D01*
X19331253Y-65261401D01*
X19345868Y-65281107D01*
X19358480Y-65302150D01*
X19368970Y-65324329D01*
X19377235Y-65347428D01*
X19383196Y-65371227D01*
X19386796Y-65395495D01*
X19388000Y-65419999D01*
X19388000Y-66660001D01*
X19386796Y-66684505D01*
X19383196Y-66708773D01*
X19377235Y-66732572D01*
X19368970Y-66755671D01*
X19358480Y-66777850D01*
X19345868Y-66798893D01*
X19331253Y-66818599D01*
X19314777Y-66836777D01*
X19296599Y-66853253D01*
X19276893Y-66867868D01*
X19255850Y-66880480D01*
X19233671Y-66890970D01*
X19210572Y-66899235D01*
X19186773Y-66905196D01*
X19162505Y-66908796D01*
X19138001Y-66910000D01*
X17437999Y-66910000D01*
X17413495Y-66908796D01*
X17389227Y-66905196D01*
X17365428Y-66899235D01*
X17342329Y-66890970D01*
X17320150Y-66880480D01*
X17299107Y-66867868D01*
X17279401Y-66853253D01*
X17261223Y-66836777D01*
X17244747Y-66818599D01*
X17230132Y-66798893D01*
X17217520Y-66777850D01*
X17207030Y-66755671D01*
X17198765Y-66732572D01*
X17192804Y-66708773D01*
X17189204Y-66684505D01*
X17188000Y-66660001D01*
X17188000Y-65419999D01*
X17189204Y-65395495D01*
X17192804Y-65371227D01*
X17198765Y-65347428D01*
X17207030Y-65324329D01*
X17217520Y-65302150D01*
X17230132Y-65281107D01*
X17244747Y-65261401D01*
X17261223Y-65243223D01*
X17279401Y-65226747D01*
X17299107Y-65212132D01*
X17320150Y-65199520D01*
X17342329Y-65189030D01*
X17365428Y-65180765D01*
X17389227Y-65174804D01*
X17413495Y-65171204D01*
X17437999Y-65170000D01*
X19138001Y-65170000D01*
X19162505Y-65171204D01*
G37*
G04 #@! TD.AperFunction*
D13*
X18288000Y-68580000D03*
X18288000Y-71120000D03*
G04 #@! TA.AperFunction,ComponentPad*
D14*
G36*
X5954505Y-65171204D02*
G01*
X5978773Y-65174804D01*
X6002572Y-65180765D01*
X6025671Y-65189030D01*
X6047850Y-65199520D01*
X6068893Y-65212132D01*
X6088599Y-65226747D01*
X6106777Y-65243223D01*
X6123253Y-65261401D01*
X6137868Y-65281107D01*
X6150480Y-65302150D01*
X6160970Y-65324329D01*
X6169235Y-65347428D01*
X6175196Y-65371227D01*
X6178796Y-65395495D01*
X6180000Y-65419999D01*
X6180000Y-66660001D01*
X6178796Y-66684505D01*
X6175196Y-66708773D01*
X6169235Y-66732572D01*
X6160970Y-66755671D01*
X6150480Y-66777850D01*
X6137868Y-66798893D01*
X6123253Y-66818599D01*
X6106777Y-66836777D01*
X6088599Y-66853253D01*
X6068893Y-66867868D01*
X6047850Y-66880480D01*
X6025671Y-66890970D01*
X6002572Y-66899235D01*
X5978773Y-66905196D01*
X5954505Y-66908796D01*
X5930001Y-66910000D01*
X4229999Y-66910000D01*
X4205495Y-66908796D01*
X4181227Y-66905196D01*
X4157428Y-66899235D01*
X4134329Y-66890970D01*
X4112150Y-66880480D01*
X4091107Y-66867868D01*
X4071401Y-66853253D01*
X4053223Y-66836777D01*
X4036747Y-66818599D01*
X4022132Y-66798893D01*
X4009520Y-66777850D01*
X3999030Y-66755671D01*
X3990765Y-66732572D01*
X3984804Y-66708773D01*
X3981204Y-66684505D01*
X3980000Y-66660001D01*
X3980000Y-65419999D01*
X3981204Y-65395495D01*
X3984804Y-65371227D01*
X3990765Y-65347428D01*
X3999030Y-65324329D01*
X4009520Y-65302150D01*
X4022132Y-65281107D01*
X4036747Y-65261401D01*
X4053223Y-65243223D01*
X4071401Y-65226747D01*
X4091107Y-65212132D01*
X4112150Y-65199520D01*
X4134329Y-65189030D01*
X4157428Y-65180765D01*
X4181227Y-65174804D01*
X4205495Y-65171204D01*
X4229999Y-65170000D01*
X5930001Y-65170000D01*
X5954505Y-65171204D01*
G37*
G04 #@! TD.AperFunction*
D13*
X5080000Y-68580000D03*
X5080000Y-71120000D03*
X18288000Y-61976000D03*
X18288000Y-59436000D03*
G04 #@! TA.AperFunction,ComponentPad*
D14*
G36*
X19162505Y-56027204D02*
G01*
X19186773Y-56030804D01*
X19210572Y-56036765D01*
X19233671Y-56045030D01*
X19255850Y-56055520D01*
X19276893Y-56068132D01*
X19296599Y-56082747D01*
X19314777Y-56099223D01*
X19331253Y-56117401D01*
X19345868Y-56137107D01*
X19358480Y-56158150D01*
X19368970Y-56180329D01*
X19377235Y-56203428D01*
X19383196Y-56227227D01*
X19386796Y-56251495D01*
X19388000Y-56275999D01*
X19388000Y-57516001D01*
X19386796Y-57540505D01*
X19383196Y-57564773D01*
X19377235Y-57588572D01*
X19368970Y-57611671D01*
X19358480Y-57633850D01*
X19345868Y-57654893D01*
X19331253Y-57674599D01*
X19314777Y-57692777D01*
X19296599Y-57709253D01*
X19276893Y-57723868D01*
X19255850Y-57736480D01*
X19233671Y-57746970D01*
X19210572Y-57755235D01*
X19186773Y-57761196D01*
X19162505Y-57764796D01*
X19138001Y-57766000D01*
X17437999Y-57766000D01*
X17413495Y-57764796D01*
X17389227Y-57761196D01*
X17365428Y-57755235D01*
X17342329Y-57746970D01*
X17320150Y-57736480D01*
X17299107Y-57723868D01*
X17279401Y-57709253D01*
X17261223Y-57692777D01*
X17244747Y-57674599D01*
X17230132Y-57654893D01*
X17217520Y-57633850D01*
X17207030Y-57611671D01*
X17198765Y-57588572D01*
X17192804Y-57564773D01*
X17189204Y-57540505D01*
X17188000Y-57516001D01*
X17188000Y-56275999D01*
X17189204Y-56251495D01*
X17192804Y-56227227D01*
X17198765Y-56203428D01*
X17207030Y-56180329D01*
X17217520Y-56158150D01*
X17230132Y-56137107D01*
X17244747Y-56117401D01*
X17261223Y-56099223D01*
X17279401Y-56082747D01*
X17299107Y-56068132D01*
X17320150Y-56055520D01*
X17342329Y-56045030D01*
X17365428Y-56036765D01*
X17389227Y-56030804D01*
X17413495Y-56027204D01*
X17437999Y-56026000D01*
X19138001Y-56026000D01*
X19162505Y-56027204D01*
G37*
G04 #@! TD.AperFunction*
D13*
X31496000Y-89408000D03*
X31496000Y-86868000D03*
G04 #@! TA.AperFunction,ComponentPad*
D14*
G36*
X32370505Y-83459204D02*
G01*
X32394773Y-83462804D01*
X32418572Y-83468765D01*
X32441671Y-83477030D01*
X32463850Y-83487520D01*
X32484893Y-83500132D01*
X32504599Y-83514747D01*
X32522777Y-83531223D01*
X32539253Y-83549401D01*
X32553868Y-83569107D01*
X32566480Y-83590150D01*
X32576970Y-83612329D01*
X32585235Y-83635428D01*
X32591196Y-83659227D01*
X32594796Y-83683495D01*
X32596000Y-83707999D01*
X32596000Y-84948001D01*
X32594796Y-84972505D01*
X32591196Y-84996773D01*
X32585235Y-85020572D01*
X32576970Y-85043671D01*
X32566480Y-85065850D01*
X32553868Y-85086893D01*
X32539253Y-85106599D01*
X32522777Y-85124777D01*
X32504599Y-85141253D01*
X32484893Y-85155868D01*
X32463850Y-85168480D01*
X32441671Y-85178970D01*
X32418572Y-85187235D01*
X32394773Y-85193196D01*
X32370505Y-85196796D01*
X32346001Y-85198000D01*
X30645999Y-85198000D01*
X30621495Y-85196796D01*
X30597227Y-85193196D01*
X30573428Y-85187235D01*
X30550329Y-85178970D01*
X30528150Y-85168480D01*
X30507107Y-85155868D01*
X30487401Y-85141253D01*
X30469223Y-85124777D01*
X30452747Y-85106599D01*
X30438132Y-85086893D01*
X30425520Y-85065850D01*
X30415030Y-85043671D01*
X30406765Y-85020572D01*
X30400804Y-84996773D01*
X30397204Y-84972505D01*
X30396000Y-84948001D01*
X30396000Y-83707999D01*
X30397204Y-83683495D01*
X30400804Y-83659227D01*
X30406765Y-83635428D01*
X30415030Y-83612329D01*
X30425520Y-83590150D01*
X30438132Y-83569107D01*
X30452747Y-83549401D01*
X30469223Y-83531223D01*
X30487401Y-83514747D01*
X30507107Y-83500132D01*
X30528150Y-83487520D01*
X30550329Y-83477030D01*
X30573428Y-83468765D01*
X30597227Y-83462804D01*
X30621495Y-83459204D01*
X30645999Y-83458000D01*
X32346001Y-83458000D01*
X32370505Y-83459204D01*
G37*
G04 #@! TD.AperFunction*
G04 #@! TA.AperFunction,ComponentPad*
G36*
X19162505Y-83459204D02*
G01*
X19186773Y-83462804D01*
X19210572Y-83468765D01*
X19233671Y-83477030D01*
X19255850Y-83487520D01*
X19276893Y-83500132D01*
X19296599Y-83514747D01*
X19314777Y-83531223D01*
X19331253Y-83549401D01*
X19345868Y-83569107D01*
X19358480Y-83590150D01*
X19368970Y-83612329D01*
X19377235Y-83635428D01*
X19383196Y-83659227D01*
X19386796Y-83683495D01*
X19388000Y-83707999D01*
X19388000Y-84948001D01*
X19386796Y-84972505D01*
X19383196Y-84996773D01*
X19377235Y-85020572D01*
X19368970Y-85043671D01*
X19358480Y-85065850D01*
X19345868Y-85086893D01*
X19331253Y-85106599D01*
X19314777Y-85124777D01*
X19296599Y-85141253D01*
X19276893Y-85155868D01*
X19255850Y-85168480D01*
X19233671Y-85178970D01*
X19210572Y-85187235D01*
X19186773Y-85193196D01*
X19162505Y-85196796D01*
X19138001Y-85198000D01*
X17437999Y-85198000D01*
X17413495Y-85196796D01*
X17389227Y-85193196D01*
X17365428Y-85187235D01*
X17342329Y-85178970D01*
X17320150Y-85168480D01*
X17299107Y-85155868D01*
X17279401Y-85141253D01*
X17261223Y-85124777D01*
X17244747Y-85106599D01*
X17230132Y-85086893D01*
X17217520Y-85065850D01*
X17207030Y-85043671D01*
X17198765Y-85020572D01*
X17192804Y-84996773D01*
X17189204Y-84972505D01*
X17188000Y-84948001D01*
X17188000Y-83707999D01*
X17189204Y-83683495D01*
X17192804Y-83659227D01*
X17198765Y-83635428D01*
X17207030Y-83612329D01*
X17217520Y-83590150D01*
X17230132Y-83569107D01*
X17244747Y-83549401D01*
X17261223Y-83531223D01*
X17279401Y-83514747D01*
X17299107Y-83500132D01*
X17320150Y-83487520D01*
X17342329Y-83477030D01*
X17365428Y-83468765D01*
X17389227Y-83462804D01*
X17413495Y-83459204D01*
X17437999Y-83458000D01*
X19138001Y-83458000D01*
X19162505Y-83459204D01*
G37*
G04 #@! TD.AperFunction*
D13*
X18288000Y-86868000D03*
X18288000Y-89408000D03*
G04 #@! TA.AperFunction,ComponentPad*
D14*
G36*
X5954505Y-56027204D02*
G01*
X5978773Y-56030804D01*
X6002572Y-56036765D01*
X6025671Y-56045030D01*
X6047850Y-56055520D01*
X6068893Y-56068132D01*
X6088599Y-56082747D01*
X6106777Y-56099223D01*
X6123253Y-56117401D01*
X6137868Y-56137107D01*
X6150480Y-56158150D01*
X6160970Y-56180329D01*
X6169235Y-56203428D01*
X6175196Y-56227227D01*
X6178796Y-56251495D01*
X6180000Y-56275999D01*
X6180000Y-57516001D01*
X6178796Y-57540505D01*
X6175196Y-57564773D01*
X6169235Y-57588572D01*
X6160970Y-57611671D01*
X6150480Y-57633850D01*
X6137868Y-57654893D01*
X6123253Y-57674599D01*
X6106777Y-57692777D01*
X6088599Y-57709253D01*
X6068893Y-57723868D01*
X6047850Y-57736480D01*
X6025671Y-57746970D01*
X6002572Y-57755235D01*
X5978773Y-57761196D01*
X5954505Y-57764796D01*
X5930001Y-57766000D01*
X4229999Y-57766000D01*
X4205495Y-57764796D01*
X4181227Y-57761196D01*
X4157428Y-57755235D01*
X4134329Y-57746970D01*
X4112150Y-57736480D01*
X4091107Y-57723868D01*
X4071401Y-57709253D01*
X4053223Y-57692777D01*
X4036747Y-57674599D01*
X4022132Y-57654893D01*
X4009520Y-57633850D01*
X3999030Y-57611671D01*
X3990765Y-57588572D01*
X3984804Y-57564773D01*
X3981204Y-57540505D01*
X3980000Y-57516001D01*
X3980000Y-56275999D01*
X3981204Y-56251495D01*
X3984804Y-56227227D01*
X3990765Y-56203428D01*
X3999030Y-56180329D01*
X4009520Y-56158150D01*
X4022132Y-56137107D01*
X4036747Y-56117401D01*
X4053223Y-56099223D01*
X4071401Y-56082747D01*
X4091107Y-56068132D01*
X4112150Y-56055520D01*
X4134329Y-56045030D01*
X4157428Y-56036765D01*
X4181227Y-56030804D01*
X4205495Y-56027204D01*
X4229999Y-56026000D01*
X5930001Y-56026000D01*
X5954505Y-56027204D01*
G37*
G04 #@! TD.AperFunction*
D13*
X5080000Y-59436000D03*
X5080000Y-61976000D03*
X31496000Y-80264000D03*
X31496000Y-77724000D03*
G04 #@! TA.AperFunction,ComponentPad*
D14*
G36*
X32370505Y-74315204D02*
G01*
X32394773Y-74318804D01*
X32418572Y-74324765D01*
X32441671Y-74333030D01*
X32463850Y-74343520D01*
X32484893Y-74356132D01*
X32504599Y-74370747D01*
X32522777Y-74387223D01*
X32539253Y-74405401D01*
X32553868Y-74425107D01*
X32566480Y-74446150D01*
X32576970Y-74468329D01*
X32585235Y-74491428D01*
X32591196Y-74515227D01*
X32594796Y-74539495D01*
X32596000Y-74563999D01*
X32596000Y-75804001D01*
X32594796Y-75828505D01*
X32591196Y-75852773D01*
X32585235Y-75876572D01*
X32576970Y-75899671D01*
X32566480Y-75921850D01*
X32553868Y-75942893D01*
X32539253Y-75962599D01*
X32522777Y-75980777D01*
X32504599Y-75997253D01*
X32484893Y-76011868D01*
X32463850Y-76024480D01*
X32441671Y-76034970D01*
X32418572Y-76043235D01*
X32394773Y-76049196D01*
X32370505Y-76052796D01*
X32346001Y-76054000D01*
X30645999Y-76054000D01*
X30621495Y-76052796D01*
X30597227Y-76049196D01*
X30573428Y-76043235D01*
X30550329Y-76034970D01*
X30528150Y-76024480D01*
X30507107Y-76011868D01*
X30487401Y-75997253D01*
X30469223Y-75980777D01*
X30452747Y-75962599D01*
X30438132Y-75942893D01*
X30425520Y-75921850D01*
X30415030Y-75899671D01*
X30406765Y-75876572D01*
X30400804Y-75852773D01*
X30397204Y-75828505D01*
X30396000Y-75804001D01*
X30396000Y-74563999D01*
X30397204Y-74539495D01*
X30400804Y-74515227D01*
X30406765Y-74491428D01*
X30415030Y-74468329D01*
X30425520Y-74446150D01*
X30438132Y-74425107D01*
X30452747Y-74405401D01*
X30469223Y-74387223D01*
X30487401Y-74370747D01*
X30507107Y-74356132D01*
X30528150Y-74343520D01*
X30550329Y-74333030D01*
X30573428Y-74324765D01*
X30597227Y-74318804D01*
X30621495Y-74315204D01*
X30645999Y-74314000D01*
X32346001Y-74314000D01*
X32370505Y-74315204D01*
G37*
G04 #@! TD.AperFunction*
D13*
X18288000Y-80264000D03*
X18288000Y-77724000D03*
G04 #@! TA.AperFunction,ComponentPad*
D14*
G36*
X19162505Y-74315204D02*
G01*
X19186773Y-74318804D01*
X19210572Y-74324765D01*
X19233671Y-74333030D01*
X19255850Y-74343520D01*
X19276893Y-74356132D01*
X19296599Y-74370747D01*
X19314777Y-74387223D01*
X19331253Y-74405401D01*
X19345868Y-74425107D01*
X19358480Y-74446150D01*
X19368970Y-74468329D01*
X19377235Y-74491428D01*
X19383196Y-74515227D01*
X19386796Y-74539495D01*
X19388000Y-74563999D01*
X19388000Y-75804001D01*
X19386796Y-75828505D01*
X19383196Y-75852773D01*
X19377235Y-75876572D01*
X19368970Y-75899671D01*
X19358480Y-75921850D01*
X19345868Y-75942893D01*
X19331253Y-75962599D01*
X19314777Y-75980777D01*
X19296599Y-75997253D01*
X19276893Y-76011868D01*
X19255850Y-76024480D01*
X19233671Y-76034970D01*
X19210572Y-76043235D01*
X19186773Y-76049196D01*
X19162505Y-76052796D01*
X19138001Y-76054000D01*
X17437999Y-76054000D01*
X17413495Y-76052796D01*
X17389227Y-76049196D01*
X17365428Y-76043235D01*
X17342329Y-76034970D01*
X17320150Y-76024480D01*
X17299107Y-76011868D01*
X17279401Y-75997253D01*
X17261223Y-75980777D01*
X17244747Y-75962599D01*
X17230132Y-75942893D01*
X17217520Y-75921850D01*
X17207030Y-75899671D01*
X17198765Y-75876572D01*
X17192804Y-75852773D01*
X17189204Y-75828505D01*
X17188000Y-75804001D01*
X17188000Y-74563999D01*
X17189204Y-74539495D01*
X17192804Y-74515227D01*
X17198765Y-74491428D01*
X17207030Y-74468329D01*
X17217520Y-74446150D01*
X17230132Y-74425107D01*
X17244747Y-74405401D01*
X17261223Y-74387223D01*
X17279401Y-74370747D01*
X17299107Y-74356132D01*
X17320150Y-74343520D01*
X17342329Y-74333030D01*
X17365428Y-74324765D01*
X17389227Y-74318804D01*
X17413495Y-74315204D01*
X17437999Y-74314000D01*
X19138001Y-74314000D01*
X19162505Y-74315204D01*
G37*
G04 #@! TD.AperFunction*
D13*
X5080000Y-89408000D03*
X5080000Y-86868000D03*
G04 #@! TA.AperFunction,ComponentPad*
D14*
G36*
X5954505Y-83459204D02*
G01*
X5978773Y-83462804D01*
X6002572Y-83468765D01*
X6025671Y-83477030D01*
X6047850Y-83487520D01*
X6068893Y-83500132D01*
X6088599Y-83514747D01*
X6106777Y-83531223D01*
X6123253Y-83549401D01*
X6137868Y-83569107D01*
X6150480Y-83590150D01*
X6160970Y-83612329D01*
X6169235Y-83635428D01*
X6175196Y-83659227D01*
X6178796Y-83683495D01*
X6180000Y-83707999D01*
X6180000Y-84948001D01*
X6178796Y-84972505D01*
X6175196Y-84996773D01*
X6169235Y-85020572D01*
X6160970Y-85043671D01*
X6150480Y-85065850D01*
X6137868Y-85086893D01*
X6123253Y-85106599D01*
X6106777Y-85124777D01*
X6088599Y-85141253D01*
X6068893Y-85155868D01*
X6047850Y-85168480D01*
X6025671Y-85178970D01*
X6002572Y-85187235D01*
X5978773Y-85193196D01*
X5954505Y-85196796D01*
X5930001Y-85198000D01*
X4229999Y-85198000D01*
X4205495Y-85196796D01*
X4181227Y-85193196D01*
X4157428Y-85187235D01*
X4134329Y-85178970D01*
X4112150Y-85168480D01*
X4091107Y-85155868D01*
X4071401Y-85141253D01*
X4053223Y-85124777D01*
X4036747Y-85106599D01*
X4022132Y-85086893D01*
X4009520Y-85065850D01*
X3999030Y-85043671D01*
X3990765Y-85020572D01*
X3984804Y-84996773D01*
X3981204Y-84972505D01*
X3980000Y-84948001D01*
X3980000Y-83707999D01*
X3981204Y-83683495D01*
X3984804Y-83659227D01*
X3990765Y-83635428D01*
X3999030Y-83612329D01*
X4009520Y-83590150D01*
X4022132Y-83569107D01*
X4036747Y-83549401D01*
X4053223Y-83531223D01*
X4071401Y-83514747D01*
X4091107Y-83500132D01*
X4112150Y-83487520D01*
X4134329Y-83477030D01*
X4157428Y-83468765D01*
X4181227Y-83462804D01*
X4205495Y-83459204D01*
X4229999Y-83458000D01*
X5930001Y-83458000D01*
X5954505Y-83459204D01*
G37*
G04 #@! TD.AperFunction*
G04 #@! TA.AperFunction,ComponentPad*
G36*
X32370505Y-65171204D02*
G01*
X32394773Y-65174804D01*
X32418572Y-65180765D01*
X32441671Y-65189030D01*
X32463850Y-65199520D01*
X32484893Y-65212132D01*
X32504599Y-65226747D01*
X32522777Y-65243223D01*
X32539253Y-65261401D01*
X32553868Y-65281107D01*
X32566480Y-65302150D01*
X32576970Y-65324329D01*
X32585235Y-65347428D01*
X32591196Y-65371227D01*
X32594796Y-65395495D01*
X32596000Y-65419999D01*
X32596000Y-66660001D01*
X32594796Y-66684505D01*
X32591196Y-66708773D01*
X32585235Y-66732572D01*
X32576970Y-66755671D01*
X32566480Y-66777850D01*
X32553868Y-66798893D01*
X32539253Y-66818599D01*
X32522777Y-66836777D01*
X32504599Y-66853253D01*
X32484893Y-66867868D01*
X32463850Y-66880480D01*
X32441671Y-66890970D01*
X32418572Y-66899235D01*
X32394773Y-66905196D01*
X32370505Y-66908796D01*
X32346001Y-66910000D01*
X30645999Y-66910000D01*
X30621495Y-66908796D01*
X30597227Y-66905196D01*
X30573428Y-66899235D01*
X30550329Y-66890970D01*
X30528150Y-66880480D01*
X30507107Y-66867868D01*
X30487401Y-66853253D01*
X30469223Y-66836777D01*
X30452747Y-66818599D01*
X30438132Y-66798893D01*
X30425520Y-66777850D01*
X30415030Y-66755671D01*
X30406765Y-66732572D01*
X30400804Y-66708773D01*
X30397204Y-66684505D01*
X30396000Y-66660001D01*
X30396000Y-65419999D01*
X30397204Y-65395495D01*
X30400804Y-65371227D01*
X30406765Y-65347428D01*
X30415030Y-65324329D01*
X30425520Y-65302150D01*
X30438132Y-65281107D01*
X30452747Y-65261401D01*
X30469223Y-65243223D01*
X30487401Y-65226747D01*
X30507107Y-65212132D01*
X30528150Y-65199520D01*
X30550329Y-65189030D01*
X30573428Y-65180765D01*
X30597227Y-65174804D01*
X30621495Y-65171204D01*
X30645999Y-65170000D01*
X32346001Y-65170000D01*
X32370505Y-65171204D01*
G37*
G04 #@! TD.AperFunction*
D13*
X31496000Y-68580000D03*
X31496000Y-71120000D03*
D17*
X63881000Y-80264000D03*
D18*
X66421000Y-80264000D03*
X65151000Y-80264000D03*
X65151000Y-75184000D03*
X66421000Y-75184000D03*
D17*
X63881000Y-75184000D03*
X63881000Y-69723000D03*
D18*
X66421000Y-69723000D03*
X65151000Y-69723000D03*
X65151000Y-64516000D03*
X66421000Y-64516000D03*
D17*
X63881000Y-64516000D03*
D18*
X65151000Y-85344000D03*
X66421000Y-85344000D03*
D17*
X63881000Y-85344000D03*
D19*
X75439000Y-66025000D03*
X75439000Y-68025000D03*
X75439000Y-70025000D03*
X75439000Y-72025000D03*
X75439000Y-74025000D03*
X75439000Y-76025000D03*
X75439000Y-78025000D03*
X75439000Y-80025000D03*
X91439000Y-80025000D03*
X91439000Y-78025000D03*
X91439000Y-76025000D03*
X91439000Y-74025000D03*
X91439000Y-72025000D03*
X91439000Y-70025000D03*
X91439000Y-68025000D03*
X91439000Y-66025000D03*
D11*
X37084000Y-61468000D03*
D10*
X44704000Y-94488000D03*
X37084000Y-64008000D03*
X44704000Y-91948000D03*
X37084000Y-66548000D03*
X44704000Y-89408000D03*
X37084000Y-69088000D03*
X44704000Y-86868000D03*
X37084000Y-71628000D03*
X44704000Y-84328000D03*
X37084000Y-74168000D03*
X44704000Y-81788000D03*
X37084000Y-76708000D03*
X44704000Y-79248000D03*
X37084000Y-79248000D03*
X44704000Y-76708000D03*
X37084000Y-81788000D03*
X44704000Y-74168000D03*
X37084000Y-84328000D03*
X44704000Y-71628000D03*
X37084000Y-86868000D03*
X44704000Y-69088000D03*
X37084000Y-89408000D03*
X44704000Y-66548000D03*
X37084000Y-91948000D03*
X44704000Y-64008000D03*
X37084000Y-94488000D03*
X44704000Y-61468000D03*
X60706000Y-80264000D03*
D12*
X60706000Y-82804000D03*
D10*
X60706000Y-74930000D03*
D12*
X60706000Y-77470000D03*
X69596000Y-82804000D03*
D10*
X69596000Y-80264000D03*
D12*
X69596000Y-77597000D03*
D10*
X69596000Y-75057000D03*
D12*
X69596000Y-72263000D03*
D10*
X69596000Y-69723000D03*
D12*
X69596000Y-67056000D03*
D10*
X69596000Y-64516000D03*
X60706000Y-85598000D03*
D12*
X60706000Y-88138000D03*
X69596000Y-88138000D03*
D10*
X69596000Y-85598000D03*
X39624000Y-57912000D03*
D12*
X37084000Y-57912000D03*
D10*
X23368000Y-56388000D03*
D12*
X23368000Y-66548000D03*
X10160000Y-66548000D03*
D10*
X10160000Y-56388000D03*
X-3048000Y-56388000D03*
D12*
X-3048000Y-66548000D03*
X26416000Y-73660000D03*
D10*
X26416000Y-63500000D03*
D12*
X13208000Y-73660000D03*
D10*
X13208000Y-63500000D03*
X0Y-63500000D03*
D12*
X0Y-73660000D03*
X23368000Y-82296000D03*
D10*
X23368000Y-72136000D03*
X10160000Y-72136000D03*
D12*
X10160000Y-82296000D03*
D10*
X-3048000Y-72136000D03*
D12*
X-3048000Y-82296000D03*
X26416000Y-91440000D03*
D10*
X26416000Y-81280000D03*
X13208000Y-81788000D03*
D12*
X13208000Y-91948000D03*
X0Y-91948000D03*
D10*
X0Y-81788000D03*
G04 #@! TA.AperFunction,ComponentPad*
D14*
G36*
X32370505Y-92603204D02*
G01*
X32394773Y-92606804D01*
X32418572Y-92612765D01*
X32441671Y-92621030D01*
X32463850Y-92631520D01*
X32484893Y-92644132D01*
X32504599Y-92658747D01*
X32522777Y-92675223D01*
X32539253Y-92693401D01*
X32553868Y-92713107D01*
X32566480Y-92734150D01*
X32576970Y-92756329D01*
X32585235Y-92779428D01*
X32591196Y-92803227D01*
X32594796Y-92827495D01*
X32596000Y-92851999D01*
X32596000Y-94092001D01*
X32594796Y-94116505D01*
X32591196Y-94140773D01*
X32585235Y-94164572D01*
X32576970Y-94187671D01*
X32566480Y-94209850D01*
X32553868Y-94230893D01*
X32539253Y-94250599D01*
X32522777Y-94268777D01*
X32504599Y-94285253D01*
X32484893Y-94299868D01*
X32463850Y-94312480D01*
X32441671Y-94322970D01*
X32418572Y-94331235D01*
X32394773Y-94337196D01*
X32370505Y-94340796D01*
X32346001Y-94342000D01*
X30645999Y-94342000D01*
X30621495Y-94340796D01*
X30597227Y-94337196D01*
X30573428Y-94331235D01*
X30550329Y-94322970D01*
X30528150Y-94312480D01*
X30507107Y-94299868D01*
X30487401Y-94285253D01*
X30469223Y-94268777D01*
X30452747Y-94250599D01*
X30438132Y-94230893D01*
X30425520Y-94209850D01*
X30415030Y-94187671D01*
X30406765Y-94164572D01*
X30400804Y-94140773D01*
X30397204Y-94116505D01*
X30396000Y-94092001D01*
X30396000Y-92851999D01*
X30397204Y-92827495D01*
X30400804Y-92803227D01*
X30406765Y-92779428D01*
X30415030Y-92756329D01*
X30425520Y-92734150D01*
X30438132Y-92713107D01*
X30452747Y-92693401D01*
X30469223Y-92675223D01*
X30487401Y-92658747D01*
X30507107Y-92644132D01*
X30528150Y-92631520D01*
X30550329Y-92621030D01*
X30573428Y-92612765D01*
X30597227Y-92606804D01*
X30621495Y-92603204D01*
X30645999Y-92602000D01*
X32346001Y-92602000D01*
X32370505Y-92603204D01*
G37*
G04 #@! TD.AperFunction*
D13*
X31496000Y-96012000D03*
X31496000Y-98552000D03*
X18288000Y-98552000D03*
X18288000Y-96012000D03*
G04 #@! TA.AperFunction,ComponentPad*
D14*
G36*
X19162505Y-92603204D02*
G01*
X19186773Y-92606804D01*
X19210572Y-92612765D01*
X19233671Y-92621030D01*
X19255850Y-92631520D01*
X19276893Y-92644132D01*
X19296599Y-92658747D01*
X19314777Y-92675223D01*
X19331253Y-92693401D01*
X19345868Y-92713107D01*
X19358480Y-92734150D01*
X19368970Y-92756329D01*
X19377235Y-92779428D01*
X19383196Y-92803227D01*
X19386796Y-92827495D01*
X19388000Y-92851999D01*
X19388000Y-94092001D01*
X19386796Y-94116505D01*
X19383196Y-94140773D01*
X19377235Y-94164572D01*
X19368970Y-94187671D01*
X19358480Y-94209850D01*
X19345868Y-94230893D01*
X19331253Y-94250599D01*
X19314777Y-94268777D01*
X19296599Y-94285253D01*
X19276893Y-94299868D01*
X19255850Y-94312480D01*
X19233671Y-94322970D01*
X19210572Y-94331235D01*
X19186773Y-94337196D01*
X19162505Y-94340796D01*
X19138001Y-94342000D01*
X17437999Y-94342000D01*
X17413495Y-94340796D01*
X17389227Y-94337196D01*
X17365428Y-94331235D01*
X17342329Y-94322970D01*
X17320150Y-94312480D01*
X17299107Y-94299868D01*
X17279401Y-94285253D01*
X17261223Y-94268777D01*
X17244747Y-94250599D01*
X17230132Y-94230893D01*
X17217520Y-94209850D01*
X17207030Y-94187671D01*
X17198765Y-94164572D01*
X17192804Y-94140773D01*
X17189204Y-94116505D01*
X17188000Y-94092001D01*
X17188000Y-92851999D01*
X17189204Y-92827495D01*
X17192804Y-92803227D01*
X17198765Y-92779428D01*
X17207030Y-92756329D01*
X17217520Y-92734150D01*
X17230132Y-92713107D01*
X17244747Y-92693401D01*
X17261223Y-92675223D01*
X17279401Y-92658747D01*
X17299107Y-92644132D01*
X17320150Y-92631520D01*
X17342329Y-92621030D01*
X17365428Y-92612765D01*
X17389227Y-92606804D01*
X17413495Y-92603204D01*
X17437999Y-92602000D01*
X19138001Y-92602000D01*
X19162505Y-92603204D01*
G37*
G04 #@! TD.AperFunction*
G04 #@! TA.AperFunction,ComponentPad*
G36*
X5954505Y-92603204D02*
G01*
X5978773Y-92606804D01*
X6002572Y-92612765D01*
X6025671Y-92621030D01*
X6047850Y-92631520D01*
X6068893Y-92644132D01*
X6088599Y-92658747D01*
X6106777Y-92675223D01*
X6123253Y-92693401D01*
X6137868Y-92713107D01*
X6150480Y-92734150D01*
X6160970Y-92756329D01*
X6169235Y-92779428D01*
X6175196Y-92803227D01*
X6178796Y-92827495D01*
X6180000Y-92851999D01*
X6180000Y-94092001D01*
X6178796Y-94116505D01*
X6175196Y-94140773D01*
X6169235Y-94164572D01*
X6160970Y-94187671D01*
X6150480Y-94209850D01*
X6137868Y-94230893D01*
X6123253Y-94250599D01*
X6106777Y-94268777D01*
X6088599Y-94285253D01*
X6068893Y-94299868D01*
X6047850Y-94312480D01*
X6025671Y-94322970D01*
X6002572Y-94331235D01*
X5978773Y-94337196D01*
X5954505Y-94340796D01*
X5930001Y-94342000D01*
X4229999Y-94342000D01*
X4205495Y-94340796D01*
X4181227Y-94337196D01*
X4157428Y-94331235D01*
X4134329Y-94322970D01*
X4112150Y-94312480D01*
X4091107Y-94299868D01*
X4071401Y-94285253D01*
X4053223Y-94268777D01*
X4036747Y-94250599D01*
X4022132Y-94230893D01*
X4009520Y-94209850D01*
X3999030Y-94187671D01*
X3990765Y-94164572D01*
X3984804Y-94140773D01*
X3981204Y-94116505D01*
X3980000Y-94092001D01*
X3980000Y-92851999D01*
X3981204Y-92827495D01*
X3984804Y-92803227D01*
X3990765Y-92779428D01*
X3999030Y-92756329D01*
X4009520Y-92734150D01*
X4022132Y-92713107D01*
X4036747Y-92693401D01*
X4053223Y-92675223D01*
X4071401Y-92658747D01*
X4091107Y-92644132D01*
X4112150Y-92631520D01*
X4134329Y-92621030D01*
X4157428Y-92612765D01*
X4181227Y-92606804D01*
X4205495Y-92603204D01*
X4229999Y-92602000D01*
X5930001Y-92602000D01*
X5954505Y-92603204D01*
G37*
G04 #@! TD.AperFunction*
D13*
X5080000Y-96012000D03*
X5080000Y-98552000D03*
D20*
X46228000Y-100584000D03*
D21*
X41148000Y-100584000D03*
D12*
X23368000Y-88900000D03*
D10*
X23368000Y-99060000D03*
X10160000Y-99060000D03*
D12*
X10160000Y-88900000D03*
X-3048000Y-88900000D03*
D10*
X-3048000Y-99060000D03*
D22*
X98806000Y-81407000D03*
X72871000Y-62357000D03*
X75438000Y-86233000D03*
X59944000Y-98425000D03*
X60071000Y-99695000D03*
X59563000Y-91186000D03*
X94615000Y-69850000D03*
D23*
X65151000Y-80264000D02*
X65151000Y-75184000D01*
X65151000Y-75184000D02*
X65151000Y-69723000D01*
X65151000Y-69723000D02*
X65151000Y-64516000D01*
X65151000Y-76534000D02*
X65151000Y-75184000D01*
X66214000Y-77597000D02*
X65151000Y-76534000D01*
X69596000Y-77597000D02*
X66214000Y-77597000D01*
X65151000Y-71073000D02*
X65151000Y-69723000D01*
X66341000Y-72263000D02*
X65151000Y-71073000D01*
X69596000Y-72263000D02*
X66341000Y-72263000D01*
X65151000Y-65866000D02*
X65151000Y-64516000D01*
X66341000Y-67056000D02*
X65151000Y-65866000D01*
X69596000Y-67056000D02*
X66341000Y-67056000D01*
X65151000Y-81614000D02*
X65151000Y-80264000D01*
X66341000Y-82804000D02*
X65151000Y-81614000D01*
X69596000Y-82804000D02*
X66341000Y-82804000D01*
X65151000Y-86694000D02*
X65151000Y-85344000D01*
X66595000Y-88138000D02*
X65151000Y-86694000D01*
X69596000Y-88138000D02*
X66595000Y-88138000D01*
X65151000Y-85344000D02*
X65151000Y-80264000D01*
X65151000Y-59309000D02*
X65151000Y-64516000D01*
X70612000Y-53848000D02*
X65151000Y-59309000D01*
X70612000Y-54979370D02*
X70612000Y-53848000D01*
X70612000Y-56195002D02*
X70612000Y-54979370D01*
X77384999Y-62968001D02*
X70612000Y-56195002D01*
X91142003Y-62968001D02*
X77384999Y-62968001D01*
X95715001Y-67540999D02*
X91142003Y-62968001D01*
X95715001Y-70378001D02*
X95715001Y-67540999D01*
X94068002Y-72025000D02*
X95715001Y-70378001D01*
X91439000Y-72025000D02*
X94068002Y-72025000D01*
D24*
X107696000Y-78232000D02*
X105283000Y-78232000D01*
X105283000Y-78232000D02*
X97028000Y-69977000D01*
X97028000Y-69977000D02*
X97028000Y-66548000D01*
X85852000Y-55372000D02*
X85852000Y-53848000D01*
X97028000Y-66548000D02*
X85852000Y-55372000D01*
D23*
X93039000Y-78025000D02*
X96421000Y-81407000D01*
X91439000Y-78025000D02*
X93039000Y-78025000D01*
X96421000Y-81407000D02*
X98806000Y-81407000D01*
X98806000Y-81407000D02*
X98806000Y-81407000D01*
X75439000Y-81125000D02*
X75438000Y-81126000D01*
X75439000Y-80025000D02*
X75439000Y-81125000D01*
X75438000Y-81126000D02*
X75438000Y-86233000D01*
X75439000Y-64925000D02*
X72871000Y-62357000D01*
X75439000Y-66025000D02*
X75439000Y-64925000D01*
X72871000Y-62357000D02*
X72871000Y-62357000D01*
X75438000Y-86233000D02*
X75438000Y-86233000D01*
D24*
X109701968Y-78232000D02*
X108431968Y-76962000D01*
X115316000Y-78232000D02*
X109701968Y-78232000D01*
X108431968Y-76962000D02*
X104649410Y-76962000D01*
X97478010Y-69790600D02*
X97478009Y-66361599D01*
X104649410Y-76962000D02*
X97478010Y-69790600D01*
X88392000Y-57275590D02*
X88392000Y-53848000D01*
X97478009Y-66361599D02*
X88392000Y-57275590D01*
X60960000Y-85344000D02*
X60706000Y-85598000D01*
X63881000Y-85344000D02*
X60960000Y-85344000D01*
X59380999Y-88774001D02*
X60522998Y-89916000D01*
X59380999Y-86923001D02*
X59380999Y-88774001D01*
X60706000Y-85598000D02*
X59380999Y-86923001D01*
X81280000Y-89916000D02*
X93472000Y-102108000D01*
X60522998Y-89916000D02*
X81280000Y-89916000D01*
X85311999Y-52722999D02*
X89806999Y-52722999D01*
X84726999Y-53307999D02*
X85311999Y-52722999D01*
X84726999Y-54883409D02*
X84726999Y-53307999D01*
X89806999Y-52722999D02*
X90132001Y-53048001D01*
X96577990Y-66734400D02*
X84726999Y-54883409D01*
X96577990Y-75067990D02*
X96577990Y-66734400D01*
X106346000Y-84836000D02*
X96577990Y-75067990D01*
X90132001Y-53048001D02*
X90932000Y-53848000D01*
X107696000Y-84836000D02*
X106346000Y-84836000D01*
X90132001Y-102907999D02*
X90932000Y-102108000D01*
X89606999Y-103433001D02*
X90132001Y-102907999D01*
X52726999Y-102648001D02*
X53511999Y-103433001D01*
X52726999Y-94890999D02*
X52726999Y-102648001D01*
X53511999Y-103433001D02*
X89606999Y-103433001D01*
X44704000Y-86868000D02*
X52726999Y-94890999D01*
X97928018Y-58304018D02*
X94271999Y-54647999D01*
X97928018Y-66458050D02*
X97928018Y-58304018D01*
X106524978Y-75055010D02*
X97928018Y-66458050D01*
X94271999Y-54647999D02*
X93472000Y-53848000D01*
X114059009Y-75055010D02*
X106524978Y-75055010D01*
X116941010Y-77937011D02*
X114059009Y-75055010D01*
X116941010Y-82090990D02*
X116941010Y-77937011D01*
X115316000Y-83716000D02*
X116941010Y-82090990D01*
X115316000Y-84836000D02*
X115316000Y-83716000D01*
X115316000Y-56896000D02*
X107696000Y-56896000D01*
X96811999Y-53048001D02*
X96012000Y-53848000D01*
X97137001Y-52722999D02*
X96811999Y-53048001D01*
X102172999Y-52722999D02*
X97137001Y-52722999D01*
X106346000Y-56896000D02*
X102172999Y-52722999D01*
X107696000Y-56896000D02*
X106346000Y-56896000D01*
X115316000Y-59436000D02*
X107696000Y-59436000D01*
X104140000Y-59436000D02*
X98552000Y-53848000D01*
X107696000Y-59436000D02*
X104140000Y-59436000D01*
X44704000Y-71628000D02*
X52832000Y-79756000D01*
X52832000Y-79756000D02*
X52832000Y-91313000D01*
X52832000Y-91313000D02*
X59944000Y-98425000D01*
X59944000Y-98425000D02*
X59944000Y-98425000D01*
D23*
X-3048000Y-88900000D02*
X0Y-91948000D01*
X9360001Y-89699999D02*
X10160000Y-88900000D01*
X7911999Y-91148001D02*
X9360001Y-89699999D01*
X799999Y-91148001D02*
X7911999Y-91148001D01*
X0Y-91948000D02*
X799999Y-91148001D01*
X10160000Y-88900000D02*
X13208000Y-91948000D01*
X22568001Y-89699999D02*
X23368000Y-88900000D01*
X14859350Y-91428020D02*
X20839980Y-91428020D01*
X14339370Y-91948000D02*
X14859350Y-91428020D01*
X20839980Y-91428020D02*
X22568001Y-89699999D01*
X13208000Y-91948000D02*
X14339370Y-91948000D01*
X23876000Y-88900000D02*
X26416000Y-91440000D01*
X23368000Y-88900000D02*
X23876000Y-88900000D01*
X9028630Y-82296000D02*
X10160000Y-82296000D01*
X4595260Y-82296000D02*
X9028630Y-82296000D01*
X2587259Y-80287999D02*
X4595260Y-82296000D01*
X-1039999Y-80287999D02*
X2587259Y-80287999D01*
X-3048000Y-82296000D02*
X-1039999Y-80287999D01*
X12168001Y-80287999D02*
X13866999Y-80287999D01*
X10160000Y-82296000D02*
X12168001Y-80287999D01*
X15875000Y-82296000D02*
X23368000Y-82296000D01*
X13866999Y-80287999D02*
X15875000Y-82296000D01*
X-3048000Y-87768630D02*
X-3048000Y-82296000D01*
X-3048000Y-88900000D02*
X-3048000Y-87768630D01*
X-3847999Y-67347999D02*
X-3048000Y-66548000D01*
X-4548001Y-68048001D02*
X-3847999Y-67347999D01*
X-4548001Y-79664629D02*
X-4548001Y-68048001D01*
X-3048000Y-81164630D02*
X-4548001Y-79664629D01*
X-3048000Y-82296000D02*
X-3048000Y-81164630D01*
X0Y-72528630D02*
X0Y-73660000D01*
X0Y-70727370D02*
X0Y-72528630D01*
X-3048000Y-67679370D02*
X0Y-70727370D01*
X-3048000Y-66548000D02*
X-3048000Y-67679370D01*
X799999Y-72860001D02*
X7022999Y-72860001D01*
X0Y-73660000D02*
X799999Y-72860001D01*
X13208000Y-72528630D02*
X13208000Y-73660000D01*
X11315369Y-70635999D02*
X13208000Y-72528630D01*
X9247001Y-70635999D02*
X11315369Y-70635999D01*
X7022999Y-72860001D02*
X9247001Y-70635999D01*
X14859350Y-73140020D02*
X20204980Y-73140020D01*
X14339370Y-73660000D02*
X14859350Y-73140020D01*
X13208000Y-73660000D02*
X14339370Y-73660000D01*
X26416000Y-72528630D02*
X26416000Y-73660000D01*
X24523369Y-70635999D02*
X26416000Y-72528630D01*
X22647999Y-70635999D02*
X24523369Y-70635999D01*
X20204980Y-73079018D02*
X22647999Y-70635999D01*
X20204980Y-73140020D02*
X20204980Y-73079018D01*
X8081990Y-64469990D02*
X9360001Y-65748001D01*
X9360001Y-65748001D02*
X10160000Y-66548000D01*
X1397259Y-61999999D02*
X3867250Y-64469990D01*
X-720001Y-61999999D02*
X1397259Y-61999999D01*
X3867250Y-64469990D02*
X8081990Y-64469990D01*
X-3048000Y-64327998D02*
X-720001Y-61999999D01*
X-3048000Y-66548000D02*
X-3048000Y-64327998D01*
X12487999Y-61999999D02*
X13866999Y-61999999D01*
X10160000Y-64327998D02*
X12487999Y-61999999D01*
X10160000Y-66548000D02*
X10160000Y-64327998D01*
X22568001Y-65748001D02*
X23368000Y-66548000D01*
X21289990Y-64469990D02*
X22568001Y-65748001D01*
X16336990Y-64469990D02*
X21289990Y-64469990D01*
X13866999Y-61999999D02*
X16336990Y-64469990D01*
X45503999Y-83528001D02*
X44704000Y-84328000D01*
X46204001Y-82827999D02*
X45503999Y-83528001D01*
X46204001Y-80748001D02*
X46204001Y-82827999D01*
X44704000Y-79248000D02*
X46204001Y-80748001D01*
X113616000Y-54356000D02*
X107696000Y-54356000D01*
X115316000Y-54356000D02*
X113616000Y-54356000D01*
X115316000Y-66040000D02*
X107696000Y-66040000D01*
X117016000Y-54356000D02*
X115316000Y-54356000D01*
X117116010Y-54456010D02*
X117016000Y-54356000D01*
X117116010Y-65939990D02*
X117116010Y-54456010D01*
X117016000Y-66040000D02*
X117116010Y-65939990D01*
X115316000Y-66040000D02*
X117016000Y-66040000D01*
D24*
X43378999Y-72842999D02*
X43904001Y-73368001D01*
X43378999Y-60876371D02*
X43378999Y-72842999D01*
X43904001Y-73368001D02*
X44704000Y-74168000D01*
X45212000Y-59043370D02*
X43378999Y-60876371D01*
X45212000Y-57912000D02*
X45212000Y-59043370D01*
X44704000Y-74168000D02*
X52070000Y-81534000D01*
X52070000Y-81534000D02*
X52070000Y-91694000D01*
X52070000Y-91694000D02*
X60071000Y-99695000D01*
X60071000Y-99695000D02*
X60071000Y-99695000D01*
X63881000Y-80264000D02*
X60706000Y-80264000D01*
X60706000Y-80264000D02*
X58930989Y-82039011D01*
X58930989Y-89406989D02*
X71632000Y-102108000D01*
X58930989Y-82039011D02*
X58930989Y-89406989D01*
X63106000Y-69723000D02*
X60706000Y-69723000D01*
X63881000Y-69723000D02*
X63106000Y-69723000D01*
X59574630Y-69723000D02*
X58030969Y-71266661D01*
X60706000Y-69723000D02*
X59574630Y-69723000D01*
X58030969Y-91046969D02*
X58030969Y-71266660D01*
X69092000Y-102108000D02*
X58030969Y-91046969D01*
X63881000Y-64516000D02*
X60706000Y-64516000D01*
X57580959Y-93136959D02*
X66552000Y-102108000D01*
X57580960Y-67641040D02*
X57580959Y-93136959D01*
X60706000Y-64516000D02*
X57580960Y-67641040D01*
X60960000Y-75184000D02*
X60706000Y-74930000D01*
X63881000Y-75184000D02*
X60960000Y-75184000D01*
X60706000Y-74930000D02*
X58480979Y-77155021D01*
X58480980Y-77155020D02*
X58480980Y-90103980D01*
X58480979Y-77155021D02*
X58480980Y-77155020D01*
X58480980Y-90103980D02*
X59563000Y-91186000D01*
X59563000Y-91186000D02*
X59563000Y-91186000D01*
X32004000Y-61468000D02*
X31496000Y-61976000D01*
X37084000Y-61468000D02*
X32004000Y-61468000D01*
X28956000Y-61976000D02*
X23368000Y-56388000D01*
X31496000Y-61976000D02*
X28956000Y-61976000D01*
X18518000Y-71120000D02*
X18288000Y-71120000D01*
X16938000Y-71120000D02*
X13208000Y-67390000D01*
X13208000Y-64631370D02*
X13208000Y-63500000D01*
X13208000Y-67390000D02*
X13208000Y-64631370D01*
X18288000Y-71120000D02*
X16938000Y-71120000D01*
X21397020Y-69360980D02*
X19638000Y-71120000D01*
X27704980Y-69360980D02*
X21397020Y-69360980D01*
X19638000Y-71120000D02*
X18288000Y-71120000D01*
X30771999Y-72427999D02*
X27704980Y-69360980D01*
X36284001Y-72427999D02*
X30771999Y-72427999D01*
X37084000Y-71628000D02*
X36284001Y-72427999D01*
X0Y-67390000D02*
X0Y-64631370D01*
X3730000Y-71120000D02*
X0Y-67390000D01*
X0Y-64631370D02*
X0Y-63500000D01*
X5080000Y-71120000D02*
X3730000Y-71120000D01*
X35952630Y-74168000D02*
X37084000Y-74168000D01*
X34662639Y-72878009D02*
X35952630Y-74168000D01*
X19802248Y-72315010D02*
X22306269Y-69810989D01*
X27932119Y-72878009D02*
X34662639Y-72878009D01*
X22306269Y-69810989D02*
X24865100Y-69810990D01*
X14161120Y-72315010D02*
X19802248Y-72315010D01*
X11657099Y-69810989D02*
X14161120Y-72315010D01*
X24865100Y-69810990D02*
X27932119Y-72878009D01*
X5310000Y-71120000D02*
X6619011Y-69810989D01*
X6619011Y-69810989D02*
X11657099Y-69810989D01*
X5080000Y-71120000D02*
X5310000Y-71120000D01*
X18518000Y-61976000D02*
X18288000Y-61976000D01*
X19638000Y-60856000D02*
X18518000Y-61976000D01*
X30351590Y-64008000D02*
X27199590Y-60856000D01*
X27199590Y-60856000D02*
X19638000Y-60856000D01*
X37084000Y-64008000D02*
X30351590Y-64008000D01*
X15748000Y-61976000D02*
X10160000Y-56388000D01*
X18288000Y-61976000D02*
X15748000Y-61976000D01*
X19809000Y-62374999D02*
X19012989Y-63171010D01*
X29225992Y-64644990D02*
X26956001Y-62374999D01*
X26956001Y-62374999D02*
X19809000Y-62374999D01*
X32667022Y-64644990D02*
X29225992Y-64644990D01*
X34570032Y-66548000D02*
X32667022Y-64644990D01*
X6430000Y-61976000D02*
X5080000Y-61976000D01*
X37084000Y-66548000D02*
X34570032Y-66548000D01*
X2540000Y-61976000D02*
X-3048000Y-56388000D01*
X5080000Y-61976000D02*
X2540000Y-61976000D01*
X16204750Y-63171010D02*
X14208729Y-61174989D01*
X7231011Y-61174989D02*
X6430000Y-61976000D01*
X14208729Y-61174989D02*
X7231011Y-61174989D01*
X19012989Y-63171010D02*
X16204750Y-63171010D01*
X35952630Y-76708000D02*
X34417000Y-78243630D01*
X37084000Y-76708000D02*
X35952630Y-76708000D01*
X32846000Y-80264000D02*
X31496000Y-80264000D01*
X34417000Y-78693000D02*
X32846000Y-80264000D01*
X34417000Y-78243630D02*
X34417000Y-78693000D01*
X23368000Y-73267370D02*
X23368000Y-72136000D01*
X23368000Y-73486000D02*
X23368000Y-73267370D01*
X30146000Y-80264000D02*
X23368000Y-73486000D01*
X31496000Y-80264000D02*
X30146000Y-80264000D01*
X34872990Y-81459010D02*
X30532010Y-81459010D01*
X37084000Y-79248000D02*
X34872990Y-81459010D01*
X30532010Y-81459010D02*
X28067000Y-78994000D01*
X18518000Y-80264000D02*
X18288000Y-80264000D01*
X19788000Y-78994000D02*
X18518000Y-80264000D01*
X28067000Y-78994000D02*
X19788000Y-78994000D01*
X10160000Y-73267370D02*
X10160000Y-72136000D01*
X10160000Y-73486000D02*
X10160000Y-73267370D01*
X16938000Y-80264000D02*
X10160000Y-73486000D01*
X18288000Y-80264000D02*
X16938000Y-80264000D01*
X37084000Y-69088000D02*
X35814000Y-69088000D01*
X33782000Y-71120000D02*
X31496000Y-71120000D01*
X35814000Y-69088000D02*
X33782000Y-71120000D01*
X26416000Y-67390000D02*
X26416000Y-64631370D01*
X26416000Y-64631370D02*
X26416000Y-63500000D01*
X30146000Y-71120000D02*
X26416000Y-67390000D01*
X31496000Y-71120000D02*
X30146000Y-71120000D01*
X74939000Y-74025000D02*
X72517000Y-76447000D01*
X75439000Y-74025000D02*
X74939000Y-74025000D01*
X72517000Y-77343000D02*
X69596000Y-80264000D01*
X72517000Y-76447000D02*
X72517000Y-77343000D01*
X69596000Y-80264000D02*
X66421000Y-80264000D01*
X72628000Y-72025000D02*
X69596000Y-75057000D01*
X75439000Y-72025000D02*
X72628000Y-72025000D01*
X66548000Y-75057000D02*
X66421000Y-75184000D01*
X69596000Y-75057000D02*
X66548000Y-75057000D01*
X69898000Y-70025000D02*
X69596000Y-69723000D01*
X75439000Y-70025000D02*
X69898000Y-70025000D01*
X69596000Y-69723000D02*
X66421000Y-69723000D01*
X73105000Y-68025000D02*
X69596000Y-64516000D01*
X75439000Y-68025000D02*
X73105000Y-68025000D01*
X69596000Y-64516000D02*
X66421000Y-64516000D01*
X66675000Y-85598000D02*
X66421000Y-85344000D01*
X69596000Y-85598000D02*
X66675000Y-85598000D01*
X92689000Y-70025000D02*
X92864000Y-69850000D01*
X91439000Y-70025000D02*
X92689000Y-70025000D01*
X92864000Y-69850000D02*
X94615000Y-69850000D01*
X94615000Y-69850000D02*
X94615000Y-69850000D01*
X43904001Y-80988001D02*
X44704000Y-81788000D01*
X42928989Y-80012989D02*
X43904001Y-80988001D01*
X42928989Y-64888359D02*
X42928989Y-80012989D01*
X37084000Y-59043370D02*
X42928989Y-64888359D01*
X37084000Y-57912000D02*
X37084000Y-59043370D01*
X91439000Y-80025000D02*
X93360000Y-80025000D01*
X93360000Y-80025000D02*
X99822000Y-86487000D01*
X99822000Y-86487000D02*
X99822000Y-89535000D01*
X105283000Y-94996000D02*
X118564000Y-94996000D01*
X99822000Y-89535000D02*
X105283000Y-94996000D01*
X20317000Y-80154999D02*
X19012989Y-81459010D01*
X26956001Y-80154999D02*
X20317000Y-80154999D01*
X28710021Y-81909019D02*
X26956001Y-80154999D01*
X35831611Y-81909019D02*
X28710021Y-81909019D01*
X35952630Y-81788000D02*
X35831611Y-81909019D01*
X37084000Y-81788000D02*
X35952630Y-81788000D01*
X-3048000Y-73267370D02*
X-3048000Y-72136000D01*
X-3048000Y-73486000D02*
X-3048000Y-73267370D01*
X3730000Y-80264000D02*
X-3048000Y-73486000D01*
X5080000Y-80264000D02*
X3730000Y-80264000D01*
X6430000Y-80264000D02*
X5080000Y-80264000D01*
X7231011Y-79462989D02*
X6430000Y-80264000D01*
X15500579Y-79462989D02*
X7231011Y-79462989D01*
X17496600Y-81459010D02*
X15500579Y-79462989D01*
X19012989Y-81459010D02*
X17496600Y-81459010D01*
X32004000Y-89408000D02*
X31496000Y-89408000D01*
X37084000Y-84328000D02*
X32004000Y-89408000D01*
X26416000Y-82411370D02*
X26416000Y-81280000D01*
X26416000Y-85678000D02*
X26416000Y-82411370D01*
X30146000Y-89408000D02*
X26416000Y-85678000D01*
X31496000Y-89408000D02*
X30146000Y-89408000D01*
X18518000Y-89408000D02*
X18288000Y-89408000D01*
X20801010Y-87124990D02*
X18518000Y-89408000D01*
X27226580Y-87124990D02*
X20801010Y-87124990D01*
X30704600Y-90603010D02*
X27226580Y-87124990D01*
X33348990Y-90603010D02*
X30704600Y-90603010D01*
X37084000Y-86868000D02*
X33348990Y-90603010D01*
X13208000Y-82919370D02*
X13208000Y-81788000D01*
X13208000Y-85678000D02*
X13208000Y-82919370D01*
X16938000Y-89408000D02*
X13208000Y-85678000D01*
X18288000Y-89408000D02*
X16938000Y-89408000D01*
X8263001Y-87574999D02*
X6430000Y-89408000D01*
X10796001Y-87574999D02*
X8263001Y-87574999D01*
X13824012Y-90603010D02*
X10796001Y-87574999D01*
X6430000Y-89408000D02*
X5080000Y-89408000D01*
X19012989Y-90603010D02*
X13824012Y-90603010D01*
X22041000Y-87574999D02*
X19012989Y-90603010D01*
X24512001Y-87574999D02*
X22041000Y-87574999D01*
X27990022Y-91053020D02*
X24512001Y-87574999D01*
X35438980Y-91053020D02*
X27990022Y-91053020D01*
X37084000Y-89408000D02*
X35438980Y-91053020D01*
X0Y-82919370D02*
X0Y-81788000D01*
X0Y-85678000D02*
X0Y-82919370D01*
X3730000Y-89408000D02*
X0Y-85678000D01*
X5080000Y-89408000D02*
X3730000Y-89408000D01*
X32846000Y-97432000D02*
X31726000Y-98552000D01*
X32846000Y-96864842D02*
X32846000Y-97432000D01*
X36284001Y-93426841D02*
X32846000Y-96864842D01*
X36284001Y-92747999D02*
X36284001Y-93426841D01*
X31726000Y-98552000D02*
X31496000Y-98552000D01*
X37084000Y-91948000D02*
X36284001Y-92747999D01*
X23876000Y-98552000D02*
X23368000Y-99060000D01*
X31496000Y-98552000D02*
X23876000Y-98552000D01*
X18288000Y-99672000D02*
X18288000Y-98552000D01*
X18801001Y-100185001D02*
X18288000Y-99672000D01*
X32518369Y-100185001D02*
X18801001Y-100185001D01*
X37084000Y-95619370D02*
X32518369Y-100185001D01*
X37084000Y-94488000D02*
X37084000Y-95619370D01*
X17780000Y-99060000D02*
X18288000Y-98552000D01*
X10160000Y-99060000D02*
X17780000Y-99060000D01*
X8513010Y-100635010D02*
X34492990Y-100635010D01*
X6430000Y-98552000D02*
X8513010Y-100635010D01*
X5080000Y-98552000D02*
X6430000Y-98552000D01*
X40640000Y-94488000D02*
X44704000Y-94488000D01*
X34492990Y-100635010D02*
X40640000Y-94488000D01*
X-2540000Y-98552000D02*
X-3048000Y-99060000D01*
X5080000Y-98552000D02*
X-2540000Y-98552000D01*
M02*
