# Created by FreeCAD <http://www.freecadweb.org>
v -23.201859 35.000000 4.300000
v -23.201859 40.000000 -1.300000
v -23.201859 35.000000 -1.300000
v -23.201859 40.000000 4.300000
v -19.401857 40.000000 -1.300000
v -19.401857 40.000000 4.300000
v -18.001858 40.000000 2.900000
v -18.001858 40.000000 0.100000
v -19.401857 35.000000 4.300000
v -23.201859 -40.000000 -1.300000
v -23.201859 -40.000000 4.300000
v -23.201859 40.000000 -21.299999
v -23.201859 35.000000 -31.299999
v -23.201859 37.000000 -31.299999
v -17.201859 40.000000 4.300000
v -17.201859 40.000000 -21.299999
v -17.201859 35.000000 4.300000
v -19.401857 -40.000000 4.300000
v -23.201859 -40.000000 -1.300000
v -19.401857 -40.000000 4.300000
v -23.201859 -40.000000 4.300000
v -18.001858 -40.000000 2.900000
v -18.001858 -40.000000 0.100000
v -19.401857 -40.000000 -1.300000
v -19.401857 -40.000000 -1.300000
v -19.401857 35.000000 -1.300000
v -17.201859 35.000000 -31.299999
v -18.001858 35.000000 0.100000
v -18.001858 35.000000 2.900000
v -17.201859 37.000000 -31.299999
v -18.001858 -40.000000 2.900000
v -18.001858 -40.000000 0.100000
v -21.875000 -39.986195 0.000000
v -16.875000 -39.986195 0.000000
v -21.875000 -39.986195 3.000000
v -16.875000 -39.986195 3.000000
v -16.875000 -39.490540 0.000000
v -16.875000 -39.490540 3.000000
v -13.500000 -38.262142 0.000000
v -13.500000 -38.262142 3.000000
v -13.500000 -36.997860 0.000000
v -13.500000 -36.997860 3.000000
v -16.875000 -35.769459 0.000000
v -16.875000 -35.769459 3.000000
v -16.875000 -34.778152 0.000000
v -16.875000 -34.778152 3.000000
v -13.500000 -33.549751 0.000000
v -13.500000 -33.549751 3.000000
v -13.500000 -32.285469 0.000000
v -13.500000 -32.285469 3.000000
v -16.875000 -31.057070 0.000000
v -16.875000 -31.057070 3.000000
v -16.875000 -30.065763 0.000000
v -16.875000 -30.065763 3.000000
v -13.500000 -28.837364 0.000000
v -13.500000 -28.837364 3.000000
v -13.500000 -27.573080 0.000000
v -13.500000 -27.573080 3.000000
v -16.875000 -26.344681 0.000000
v -16.875000 -26.344681 3.000000
v -16.875000 -25.353374 0.000000
v -16.875000 -25.353374 3.000000
v -13.500000 -24.124975 0.000000
v -13.500000 -24.124975 3.000000
v -13.500000 -22.860691 0.000000
v -13.500000 -22.860691 3.000000
v -16.875000 -21.632292 0.000000
v -16.875000 -21.632292 3.000000
v -16.875000 -20.640985 0.000000
v -16.875000 -20.640985 3.000000
v -13.500000 -19.412586 0.000000
v -13.500000 -19.412586 3.000000
v -13.500000 -18.148302 0.000000
v -13.500000 -18.148302 3.000000
v -16.875000 -16.919903 0.000000
v -16.875000 -16.919903 3.000000
v -16.875000 -15.928596 0.000000
v -16.875000 -15.928596 3.000000
v -13.500000 -14.700197 0.000000
v -13.500000 -14.700197 3.000000
v -13.500000 -13.435913 0.000000
v -13.500000 -13.435913 3.000000
v -16.875000 -12.207514 0.000000
v -16.875000 -12.207514 3.000000
v -16.875000 -11.216208 0.000000
v -16.875000 -11.216208 3.000000
v -13.500000 -9.987808 0.000000
v -13.500000 -9.987808 3.000000
v -13.500000 -8.723524 0.000000
v -13.500000 -8.723524 3.000000
v -16.875000 -7.495125 0.000000
v -16.875000 -7.495125 3.000000
v -16.875000 -6.503819 0.000000
v -16.875000 -6.503819 3.000000
v -13.500000 -5.275419 0.000000
v -13.500000 -5.275419 3.000000
v -13.500000 -4.011135 0.000000
v -13.500000 -4.011135 3.000000
v -16.875000 -2.782736 0.000000
v -16.875000 -2.782736 3.000000
v -16.875000 -1.791430 0.000000
v -16.875000 -1.791430 3.000000
v -13.500000 -0.563030 0.000000
v -13.500000 -0.563030 3.000000
v -13.500000 0.701254 0.000000
v -13.500000 0.701254 3.000000
v -16.875000 1.929653 0.000000
v -16.875000 1.929653 3.000000
v -16.875000 2.920959 0.000000
v -16.875000 2.920959 3.000000
v -13.500000 4.149359 0.000000
v -13.500000 4.149359 3.000000
v -13.500000 5.413643 0.000000
v -13.500000 5.413643 3.000000
v -16.875000 6.642042 0.000000
v -16.875000 6.642042 3.000000
v -16.875000 7.633348 0.000000
v -16.875000 7.633348 3.000000
v -13.500000 8.861748 0.000000
v -13.500000 8.861748 3.000000
v -13.500000 10.126032 0.000000
v -13.500000 10.126032 3.000000
v -16.875000 11.354431 0.000000
v -16.875000 11.354431 3.000000
v -16.875000 12.345737 0.000000
v -16.875000 12.345737 3.000000
v -13.500000 13.574137 0.000000
v -13.500000 13.574137 3.000000
v -13.500000 14.838421 0.000000
v -13.500000 14.838421 3.000000
v -16.875000 16.066820 0.000000
v -16.875000 16.066820 3.000000
v -16.875000 17.058126 0.000000
v -16.875000 17.058126 3.000000
v -13.500000 18.286526 0.000000
v -13.500000 18.286526 3.000000
v -13.500000 19.550810 0.000000
v -13.500000 19.550810 3.000000
v -16.875000 20.779209 0.000000
v -16.875000 20.779209 3.000000
v -16.875000 21.274862 0.000000
v -16.875000 21.274862 3.000000
v -21.875000 21.274862 0.000000
v -21.875000 21.274862 3.000000
vn -1.000000 0.000000 0.000000
vn -1.000000 -0.000000 -0.000000
vn 0.000000 1.000000 0.000000
vn 0.000000 1.000000 0.000000
vn 0.000000 1.000000 0.000000
vn 0.000000 1.000000 0.000000
vn 0.000000 0.000000 1.000000
vn 0.000000 0.000000 1.000000
vn -1.000000 0.000000 0.000000
vn -1.000000 -0.000000 -0.000000
vn -1.000000 0.000000 0.000000
vn -1.000000 0.000000 0.000000
vn -1.000000 0.000000 0.000000
vn 0.000000 1.000000 -0.000000
vn 0.000000 1.000000 0.000000
vn 0.000000 1.000000 0.000000
vn 0.000000 1.000000 -0.000000
vn 0.000000 1.000000 0.000000
vn 0.000000 1.000000 0.000000
vn 0.000000 0.000000 1.000000
vn -0.000000 0.000000 1.000000
vn 0.000000 0.000000 1.000000
vn 0.000000 0.000000 1.000000
vn 0.000000 -1.000000 0.000000
vn -0.000000 -1.000000 -0.000000
vn -0.000000 -1.000000 0.000000
vn 0.000000 -1.000000 0.000000
vn 0.000000 0.000000 -1.000000
vn 0.000000 0.000000 -1.000000
vn 0.000000 -1.000000 -0.000000
vn 0.000000 -1.000000 0.000000
vn 0.000000 -1.000000 0.000000
vn 0.000000 -1.000000 -0.000000
vn 0.000000 -1.000000 0.000000
vn 0.000000 -1.000000 0.000000
vn 0.000000 0.000000 -1.000000
vn 0.000000 0.000000 -1.000000
vn 0.000000 0.957826 -0.287348
vn 0.000000 0.957826 -0.287348
vn 1.000000 -0.000000 0.000000
vn 1.000000 0.000000 0.000000
vn 1.000000 0.000000 0.000000
vn 0.707107 0.000000 0.707107
vn 0.707107 0.000000 0.707107
vn 1.000000 0.000000 0.000000
vn 1.000000 0.000000 -0.000000
vn 0.707107 0.000000 -0.707107
vn 0.707107 0.000000 -0.707107
vn 0.000000 -1.000000 0.000000
vn 0.000000 -1.000000 0.000000
vn 1.000000 0.000000 0.000000
vn 1.000000 -0.000000 0.000000
vn 0.342020 -0.939693 0.000000
vn 0.342020 -0.939693 0.000000
vn 1.000000 0.000000 0.000000
vn 1.000000 -0.000000 0.000000
vn 0.342021 0.939692 -0.000000
vn 0.342021 0.939692 0.000000
vn 1.000000 0.000000 0.000000
vn 1.000000 -0.000000 0.000000
vn 0.342021 -0.939692 0.000000
vn 0.342021 -0.939692 0.000000
vn 1.000000 0.000000 0.000000
vn 1.000000 -0.000000 0.000000
vn 0.342020 0.939693 -0.000000
vn 0.342020 0.939693 0.000000
vn 1.000000 0.000000 0.000000
vn 1.000000 -0.000000 0.000000
vn 0.342020 -0.939693 0.000000
vn 0.342020 -0.939693 0.000000
vn 1.000000 0.000000 0.000000
vn 1.000000 -0.000000 0.000000
vn 0.342020 0.939693 -0.000000
vn 0.342020 0.939693 0.000000
vn 1.000000 0.000000 0.000000
vn 1.000000 -0.000000 0.000000
vn 0.342020 -0.939693 0.000000
vn 0.342020 -0.939693 0.000000
vn 1.000000 0.000000 0.000000
vn 1.000000 -0.000000 0.000000
vn 0.342020 0.939693 -0.000000
vn 0.342020 0.939693 0.000000
vn 1.000000 0.000000 0.000000
vn 1.000000 -0.000000 0.000000
vn 0.342020 -0.939693 0.000000
vn 0.342020 -0.939693 0.000000
vn 1.000000 0.000000 0.000000
vn 1.000000 -0.000000 0.000000
vn 0.342020 0.939693 -0.000000
vn 0.342020 0.939693 0.000000
vn 1.000000 0.000000 0.000000
vn 1.000000 -0.000000 0.000000
vn 0.342020 -0.939693 0.000000
vn 0.342020 -0.939693 0.000000
vn 1.000000 0.000000 0.000000
vn 1.000000 -0.000000 0.000000
vn 0.342020 0.939693 -0.000000
vn 0.342020 0.939693 0.000000
vn 1.000000 0.000000 0.000000
vn 1.000000 -0.000000 0.000000
vn 0.342020 -0.939693 0.000000
vn 0.342020 -0.939693 0.000000
vn 1.000000 0.000000 0.000000
vn 1.000000 -0.000000 0.000000
vn 0.342020 0.939693 -0.000000
vn 0.342020 0.939693 0.000000
vn 1.000000 0.000000 0.000000
vn 1.000000 -0.000000 0.000000
vn 0.342020 -0.939693 0.000000
vn 0.342020 -0.939693 0.000000
vn 1.000000 0.000000 0.000000
vn 1.000000 -0.000000 0.000000
vn 0.342020 0.939693 -0.000000
vn 0.342020 0.939693 0.000000
vn 1.000000 0.000000 0.000000
vn 1.000000 -0.000000 0.000000
vn 0.342020 -0.939693 0.000000
vn 0.342020 -0.939693 0.000000
vn 1.000000 0.000000 0.000000
vn 1.000000 -0.000000 0.000000
vn 0.342020 0.939693 -0.000000
vn 0.342020 0.939693 0.000000
vn 1.000000 0.000000 0.000000
vn 1.000000 -0.000000 0.000000
vn 0.342020 -0.939693 0.000000
vn 0.342020 -0.939693 0.000000
vn 1.000000 0.000000 0.000000
vn 1.000000 -0.000000 0.000000
vn 0.342020 0.939693 -0.000000
vn 0.342020 0.939693 0.000000
vn 1.000000 0.000000 0.000000
vn 1.000000 -0.000000 0.000000
vn 0.342020 -0.939693 0.000000
vn 0.342020 -0.939693 0.000000
vn 1.000000 0.000000 0.000000
vn 1.000000 -0.000000 0.000000
vn 0.342020 0.939693 -0.000000
vn 0.342020 0.939693 0.000000
vn 1.000000 0.000000 0.000000
vn 1.000000 -0.000000 0.000000
vn 0.342020 -0.939693 0.000000
vn 0.342020 -0.939693 0.000000
vn 1.000000 0.000000 0.000000
vn 1.000000 -0.000000 0.000000
vn 0.342020 0.939693 -0.000000
vn 0.342020 0.939693 0.000000
vn 1.000000 0.000000 0.000000
vn 1.000000 -0.000000 0.000000
vn 0.342020 -0.939693 0.000000
vn 0.342020 -0.939693 0.000000
vn 1.000000 0.000000 0.000000
vn 1.000000 -0.000000 0.000000
vn 0.342020 0.939693 -0.000000
vn 0.342020 0.939693 0.000000
vn 1.000000 0.000000 0.000000
vn 1.000000 -0.000000 0.000000
vn 0.000000 1.000000 -0.000000
vn 0.000000 1.000000 0.000000
vn -1.000000 0.000000 0.000000
vn -1.000000 -0.000000 0.000000
vn 0.000000 0.000000 -1.000000
vn 0.000000 0.000000 -1.000000
vn 0.000000 0.000000 -1.000000
vn 0.000000 0.000000 -1.000000
vn 0.000000 0.000000 -1.000000
vn 0.000000 0.000000 -1.000000
vn 0.000000 0.000000 -1.000000
vn 0.000000 0.000000 -1.000000
vn 0.000000 0.000000 -1.000000
vn 0.000000 0.000000 -1.000000
vn 0.000000 0.000000 -1.000000
vn 0.000000 0.000000 -1.000000
vn 0.000000 0.000000 -1.000000
vn 0.000000 0.000000 -1.000000
vn 0.000000 0.000000 -1.000000
vn 0.000000 0.000000 -1.000000
vn 0.000000 0.000000 -1.000000
vn 0.000000 0.000000 -1.000000
vn 0.000000 0.000000 -1.000000
vn 0.000000 0.000000 -1.000000
vn 0.000000 0.000000 -1.000000
vn 0.000000 0.000000 -1.000000
vn 0.000000 0.000000 -1.000000
vn 0.000000 0.000000 -1.000000
vn 0.000000 0.000000 -1.000000
vn 0.000000 0.000000 -1.000000
vn 0.000000 0.000000 -1.000000
vn 0.000000 0.000000 -1.000000
vn 0.000000 0.000000 -1.000000
vn 0.000000 0.000000 -1.000000
vn 0.000000 0.000000 -1.000000
vn 0.000000 0.000000 -1.000000
vn 0.000000 0.000000 -1.000000
vn 0.000000 0.000000 -1.000000
vn 0.000000 0.000000 -1.000000
vn 0.000000 0.000000 -1.000000
vn 0.000000 0.000000 -1.000000
vn 0.000000 0.000000 -1.000000
vn 0.000000 0.000000 -1.000000
vn 0.000000 0.000000 -1.000000
vn 0.000000 0.000000 -1.000000
vn 0.000000 0.000000 -1.000000
vn 0.000000 0.000000 -1.000000
vn 0.000000 0.000000 -1.000000
vn 0.000000 0.000000 -1.000000
vn 0.000000 0.000000 -1.000000
vn 0.000000 0.000000 -1.000000
vn 0.000000 0.000000 -1.000000
vn 0.000000 0.000000 -1.000000
vn 0.000000 0.000000 -1.000000
vn 0.000000 0.000000 -1.000000
vn 0.000000 0.000000 -1.000000
vn 0.000000 0.000000 -1.000000
vn 0.000000 0.000000 -1.000000
vn 0.000000 0.000000 1.000000
vn 0.000000 0.000000 1.000000
vn 0.000000 0.000000 1.000000
vn 0.000000 0.000000 1.000000
vn 0.000000 0.000000 1.000000
vn 0.000000 0.000000 1.000000
vn 0.000000 0.000000 1.000000
vn 0.000000 0.000000 1.000000
vn 0.000000 0.000000 1.000000
vn 0.000000 0.000000 1.000000
vn 0.000000 0.000000 1.000000
vn 0.000000 0.000000 1.000000
vn 0.000000 0.000000 1.000000
vn 0.000000 0.000000 1.000000
vn 0.000000 0.000000 1.000000
vn 0.000000 0.000000 1.000000
vn 0.000000 0.000000 1.000000
vn 0.000000 0.000000 1.000000
vn 0.000000 0.000000 1.000000
vn 0.000000 0.000000 1.000000
vn 0.000000 0.000000 1.000000
vn 0.000000 0.000000 1.000000
vn 0.000000 0.000000 1.000000
vn 0.000000 0.000000 1.000000
vn 0.000000 0.000000 1.000000
vn 0.000000 0.000000 1.000000
vn 0.000000 0.000000 1.000000
vn 0.000000 0.000000 1.000000
vn 0.000000 0.000000 1.000000
vn 0.000000 0.000000 1.000000
vn 0.000000 0.000000 1.000000
vn 0.000000 0.000000 1.000000
vn 0.000000 0.000000 1.000000
vn 0.000000 0.000000 1.000000
vn 0.000000 0.000000 1.000000
vn 0.000000 0.000000 1.000000
vn 0.000000 0.000000 1.000000
vn 0.000000 0.000000 1.000000
vn 0.000000 0.000000 1.000000
vn 0.000000 0.000000 1.000000
vn 0.000000 0.000000 1.000000
vn 0.000000 0.000000 1.000000
vn 0.000000 0.000000 1.000000
vn 0.000000 0.000000 1.000000
vn 0.000000 0.000000 1.000000
vn 0.000000 0.000000 1.000000
vn 0.000000 0.000000 1.000000
vn 0.000000 0.000000 1.000000
vn 0.000000 0.000000 1.000000
vn 0.000000 0.000000 1.000000
vn 0.000000 0.000000 1.000000
vn 0.000000 0.000000 1.000000
vn 0.000000 0.000000 1.000000
vn 0.000000 0.000000 1.000000
g Rail et pince
f 1//1 2//1 3//1
f 4//2 2//2 1//2
f 4//3 5//3 2//3
f 6//4 7//4 8//4
f 6//5 8//5 5//5
f 6//6 5//6 4//6
f 4//7 1//7 9//7
f 6//8 4//8 9//8
f 3//9 10//9 11//9
f 1//10 3//10 11//10
f 12//11 3//11 2//11
f 13//12 12//12 14//12
f 13//13 3//13 12//13
f 7//14 6//14 15//14
f 8//15 7//15 15//15
f 16//16 5//16 8//16
f 16//17 8//17 15//17
f 12//18 2//18 5//18
f 12//19 5//19 16//19
f 15//20 9//20 17//20
f 6//21 9//21 15//21
f 1//22 11//22 18//22
f 9//23 1//23 18//23
f 19//24 20//24 21//24
f 22//25 20//25 23//25
f 23//26 20//26 24//26
f 24//27 20//27 19//27
f 3//28 25//28 10//28
f 3//29 26//29 25//29
f 26//30 13//30 27//30
f 26//31 27//31 28//31
f 17//32 29//32 28//32
f 17//33 28//33 27//33
f 3//34 13//34 26//34
f 9//35 29//35 17//35
f 13//36 14//36 30//36
f 13//37 30//37 27//37
f 14//38 12//38 16//38
f 14//39 16//39 30//39
f 17//40 16//40 15//40
f 16//41 27//41 30//41
f 17//42 27//42 16//42
f 29//43 18//43 31//43
f 29//44 9//44 18//44
f 28//45 31//45 32//45
f 28//46 29//46 31//46
f 26//47 32//47 25//47
f 26//48 28//48 32//48
g involuterack
f 33//49 34//49 35//49
f 35//50 34//50 36//50
f 34//51 37//51 36//51
f 36//52 37//52 38//52
f 37//53 39//53 38//53
f 38//54 39//54 40//54
f 39//55 41//55 40//55
f 40//56 41//56 42//56
f 41//57 43//57 42//57
f 42//58 43//58 44//58
f 43//59 45//59 44//59
f 44//60 45//60 46//60
f 45//61 47//61 46//61
f 46//62 47//62 48//62
f 47//63 49//63 48//63
f 48//64 49//64 50//64
f 49//65 51//65 50//65
f 50//66 51//66 52//66
f 51//67 53//67 52//67
f 52//68 53//68 54//68
f 53//69 55//69 54//69
f 54//70 55//70 56//70
f 55//71 57//71 56//71
f 56//72 57//72 58//72
f 57//73 59//73 58//73
f 58//74 59//74 60//74
f 59//75 61//75 60//75
f 60//76 61//76 62//76
f 61//77 63//77 62//77
f 62//78 63//78 64//78
f 63//79 65//79 64//79
f 64//80 65//80 66//80
f 65//81 67//81 66//81
f 66//82 67//82 68//82
f 67//83 69//83 68//83
f 68//84 69//84 70//84
f 69//85 71//85 70//85
f 70//86 71//86 72//86
f 71//87 73//87 72//87
f 72//88 73//88 74//88
f 73//89 75//89 74//89
f 74//90 75//90 76//90
f 75//91 77//91 76//91
f 76//92 77//92 78//92
f 77//93 79//93 78//93
f 78//94 79//94 80//94
f 79//95 81//95 80//95
f 80//96 81//96 82//96
f 81//97 83//97 82//97
f 82//98 83//98 84//98
f 83//99 85//99 84//99
f 84//100 85//100 86//100
f 85//101 87//101 86//101
f 86//102 87//102 88//102
f 87//103 89//103 88//103
f 88//104 89//104 90//104
f 89//105 91//105 90//105
f 90//106 91//106 92//106
f 91//107 93//107 92//107
f 92//108 93//108 94//108
f 93//109 95//109 94//109
f 94//110 95//110 96//110
f 95//111 97//111 96//111
f 96//112 97//112 98//112
f 97//113 99//113 98//113
f 98//114 99//114 100//114
f 99//115 101//115 100//115
f 100//116 101//116 102//116
f 101//117 103//117 102//117
f 102//118 103//118 104//118
f 103//119 105//119 104//119
f 104//120 105//120 106//120
f 105//121 107//121 106//121
f 106//122 107//122 108//122
f 107//123 109//123 108//123
f 108//124 109//124 110//124
f 109//125 111//125 110//125
f 110//126 111//126 112//126
f 111//127 113//127 112//127
f 112//128 113//128 114//128
f 113//129 115//129 114//129
f 114//130 115//130 116//130
f 115//131 117//131 116//131
f 116//132 117//132 118//132
f 117//133 119//133 118//133
f 118//134 119//134 120//134
f 119//135 121//135 120//135
f 120//136 121//136 122//136
f 121//137 123//137 122//137
f 122//138 123//138 124//138
f 123//139 125//139 124//139
f 124//140 125//140 126//140
f 125//141 127//141 126//141
f 126//142 127//142 128//142
f 127//143 129//143 128//143
f 128//144 129//144 130//144
f 129//145 131//145 130//145
f 130//146 131//146 132//146
f 131//147 133//147 132//147
f 132//148 133//148 134//148
f 133//149 135//149 134//149
f 134//150 135//150 136//150
f 135//151 137//151 136//151
f 136//152 137//152 138//152
f 137//153 139//153 138//153
f 138//154 139//154 140//154
f 139//155 141//155 140//155
f 140//156 141//156 142//156
f 141//157 143//157 142//157
f 142//158 143//158 144//158
f 143//159 33//159 144//159
f 144//160 33//160 35//160
f 107//161 105//161 101//161
f 101//162 105//162 103//162
f 33//163 37//163 34//163
f 33//164 43//164 37//164
f 109//165 113//165 111//165
f 115//166 113//166 109//166
f 33//167 45//167 43//167
f 37//168 41//168 39//168
f 43//169 41//169 37//169
f 33//170 51//170 45//170
f 117//171 121//171 119//171
f 123//172 121//172 117//172
f 33//173 53//173 51//173
f 101//174 143//174 107//174
f 45//175 49//175 47//175
f 107//176 143//176 109//176
f 109//177 143//177 115//177
f 115//178 143//178 117//178
f 117//179 143//179 123//179
f 51//180 49//180 45//180
f 123//181 143//181 125//181
f 125//182 143//182 131//182
f 33//183 59//183 53//183
f 143//184 133//184 131//184
f 125//185 129//185 127//185
f 131//186 129//186 125//186
f 33//187 61//187 59//187
f 53//188 57//188 55//188
f 143//189 139//189 133//189
f 59//190 57//190 53//190
f 143//191 141//191 139//191
f 33//192 67//192 61//192
f 133//193 137//193 135//193
f 33//194 69//194 67//194
f 139//195 137//195 133//195
f 61//196 65//196 63//196
f 33//197 143//197 69//197
f 69//198 143//198 75//198
f 75//199 143//199 77//199
f 77//200 143//200 83//200
f 67//201 65//201 61//201
f 83//202 143//202 85//202
f 85//203 143//203 91//203
f 91//204 143//204 93//204
f 93//205 143//205 99//205
f 99//206 143//206 101//206
f 69//207 73//207 71//207
f 75//208 73//208 69//208
f 83//209 81//209 77//209
f 77//210 81//210 79//210
f 91//211 89//211 85//211
f 85//212 89//212 87//212
f 99//213 97//213 93//213
f 93//214 97//214 95//214
f 106//215 108//215 102//215
f 106//216 102//216 104//216
f 38//217 35//217 36//217
f 44//218 35//218 38//218
f 114//219 110//219 112//219
f 114//220 116//220 110//220
f 46//221 35//221 44//221
f 42//222 38//222 40//222
f 42//223 44//223 38//223
f 52//224 35//224 46//224
f 122//225 118//225 120//225
f 122//226 124//226 118//226
f 54//227 35//227 52//227
f 144//228 102//228 108//228
f 50//229 46//229 48//229
f 144//230 108//230 110//230
f 144//231 110//231 116//231
f 144//232 116//232 118//232
f 144//233 118//233 124//233
f 50//234 52//234 46//234
f 144//235 124//235 126//235
f 144//236 126//236 132//236
f 60//237 35//237 54//237
f 134//238 144//238 132//238
f 130//239 126//239 128//239
f 130//240 132//240 126//240
f 62//241 35//241 60//241
f 58//242 54//242 56//242
f 140//243 144//243 134//243
f 58//244 60//244 54//244
f 142//245 144//245 140//245
f 68//246 35//246 62//246
f 138//247 134//247 136//247
f 70//248 35//248 68//248
f 138//249 140//249 134//249
f 66//250 62//250 64//250
f 144//251 35//251 70//251
f 144//252 70//252 76//252
f 144//253 76//253 78//253
f 144//254 78//254 84//254
f 66//255 68//255 62//255
f 144//256 84//256 86//256
f 144//257 86//257 92//257
f 144//258 92//258 94//258
f 144//259 94//259 100//259
f 144//260 100//260 102//260
f 74//261 70//261 72//261
f 74//262 76//262 70//262
f 82//263 84//263 78//263
f 82//264 78//264 80//264
f 90//265 92//265 86//265
f 90//266 86//266 88//266
f 98//267 100//267 94//267
f 98//268 94//268 96//268
