%TF.GenerationSoftware,KiCad,Pcbnew,5.1.9+dfsg1-1*%
%TF.CreationDate,2021-09-29T19:21:48+02:00*%
%TF.ProjectId,main_board,6d61696e-5f62-46f6-9172-642e6b696361,rev?*%
%TF.SameCoordinates,Original*%
%TF.FileFunction,Copper,L1,Top*%
%TF.FilePolarity,Positive*%
%FSLAX46Y46*%
G04 Gerber Fmt 4.6, Leading zero omitted, Abs format (unit mm)*
G04 Created by KiCad (PCBNEW 5.1.9+dfsg1-1) date 2021-09-29 19:21:48*
%MOMM*%
%LPD*%
G01*
G04 APERTURE LIST*
%TA.AperFunction,ComponentPad*%
%ADD10R,1.600000X1.600000*%
%TD*%
%TA.AperFunction,ComponentPad*%
%ADD11C,1.600000*%
%TD*%
%TA.AperFunction,SMDPad,CuDef*%
%ADD12R,1.800000X2.500000*%
%TD*%
%TA.AperFunction,ComponentPad*%
%ADD13R,3.500000X3.500000*%
%TD*%
%TA.AperFunction,ComponentPad*%
%ADD14R,1.700000X1.700000*%
%TD*%
%TA.AperFunction,ComponentPad*%
%ADD15O,1.700000X1.700000*%
%TD*%
%TA.AperFunction,ComponentPad*%
%ADD16O,2.190000X1.740000*%
%TD*%
%TA.AperFunction,SMDPad,CuDef*%
%ADD17R,2.900000X5.400000*%
%TD*%
%TA.AperFunction,ComponentPad*%
%ADD18C,2.000000*%
%TD*%
%TA.AperFunction,SMDPad,CuDef*%
%ADD19R,4.600000X1.100000*%
%TD*%
%TA.AperFunction,SMDPad,CuDef*%
%ADD20R,9.400000X10.800000*%
%TD*%
%TA.AperFunction,SMDPad,CuDef*%
%ADD21R,3.800000X2.000000*%
%TD*%
%TA.AperFunction,SMDPad,CuDef*%
%ADD22R,1.500000X2.000000*%
%TD*%
%TA.AperFunction,SMDPad,CuDef*%
%ADD23R,5.000000X5.000000*%
%TD*%
%TA.AperFunction,SMDPad,CuDef*%
%ADD24R,0.900000X2.000000*%
%TD*%
%TA.AperFunction,SMDPad,CuDef*%
%ADD25R,2.000000X0.900000*%
%TD*%
%TA.AperFunction,SMDPad,CuDef*%
%ADD26R,0.800000X0.300000*%
%TD*%
%TA.AperFunction,ComponentPad*%
%ADD27C,1.700000*%
%TD*%
%TA.AperFunction,ViaPad*%
%ADD28C,0.800000*%
%TD*%
%TA.AperFunction,Conductor*%
%ADD29C,0.500000*%
%TD*%
%TA.AperFunction,Conductor*%
%ADD30C,0.250000*%
%TD*%
G04 APERTURE END LIST*
D10*
%TO.P,C1,1*%
%TO.N,+5V*%
X45085000Y-78105000D03*
D11*
%TO.P,C1,2*%
%TO.N,GND*%
X45085000Y-75605000D03*
%TD*%
%TO.P,C2,2*%
%TO.N,GND*%
X67905000Y-60960000D03*
D10*
%TO.P,C2,1*%
%TO.N,+3V3*%
X65405000Y-60960000D03*
%TD*%
%TO.P,C3,2*%
%TO.N,GND*%
%TA.AperFunction,SMDPad,CuDef*%
G36*
G01*
X72865000Y-71940000D02*
X71915000Y-71940000D01*
G75*
G02*
X71665000Y-71690000I0J250000D01*
G01*
X71665000Y-71190000D01*
G75*
G02*
X71915000Y-70940000I250000J0D01*
G01*
X72865000Y-70940000D01*
G75*
G02*
X73115000Y-71190000I0J-250000D01*
G01*
X73115000Y-71690000D01*
G75*
G02*
X72865000Y-71940000I-250000J0D01*
G01*
G37*
%TD.AperFunction*%
%TO.P,C3,1*%
%TO.N,+3V3*%
%TA.AperFunction,SMDPad,CuDef*%
G36*
G01*
X72865000Y-73840000D02*
X71915000Y-73840000D01*
G75*
G02*
X71665000Y-73590000I0J250000D01*
G01*
X71665000Y-73090000D01*
G75*
G02*
X71915000Y-72840000I250000J0D01*
G01*
X72865000Y-72840000D01*
G75*
G02*
X73115000Y-73090000I0J-250000D01*
G01*
X73115000Y-73590000D01*
G75*
G02*
X72865000Y-73840000I-250000J0D01*
G01*
G37*
%TD.AperFunction*%
%TD*%
%TO.P,C4,1*%
%TO.N,+3V3*%
%TA.AperFunction,SMDPad,CuDef*%
G36*
G01*
X117295000Y-69055000D02*
X117295000Y-68105000D01*
G75*
G02*
X117545000Y-67855000I250000J0D01*
G01*
X118045000Y-67855000D01*
G75*
G02*
X118295000Y-68105000I0J-250000D01*
G01*
X118295000Y-69055000D01*
G75*
G02*
X118045000Y-69305000I-250000J0D01*
G01*
X117545000Y-69305000D01*
G75*
G02*
X117295000Y-69055000I0J250000D01*
G01*
G37*
%TD.AperFunction*%
%TO.P,C4,2*%
%TO.N,GND*%
%TA.AperFunction,SMDPad,CuDef*%
G36*
G01*
X119195000Y-69055000D02*
X119195000Y-68105000D01*
G75*
G02*
X119445000Y-67855000I250000J0D01*
G01*
X119945000Y-67855000D01*
G75*
G02*
X120195000Y-68105000I0J-250000D01*
G01*
X120195000Y-69055000D01*
G75*
G02*
X119945000Y-69305000I-250000J0D01*
G01*
X119445000Y-69305000D01*
G75*
G02*
X119195000Y-69055000I0J250000D01*
G01*
G37*
%TD.AperFunction*%
%TD*%
%TO.P,C5,1*%
%TO.N,+3V3*%
X109220000Y-67310000D03*
D11*
%TO.P,C5,2*%
%TO.N,GND*%
X109220000Y-64810000D03*
%TD*%
%TO.P,C6,2*%
%TO.N,GND*%
%TA.AperFunction,SMDPad,CuDef*%
G36*
G01*
X90620000Y-67150000D02*
X90620000Y-66200000D01*
G75*
G02*
X90870000Y-65950000I250000J0D01*
G01*
X91370000Y-65950000D01*
G75*
G02*
X91620000Y-66200000I0J-250000D01*
G01*
X91620000Y-67150000D01*
G75*
G02*
X91370000Y-67400000I-250000J0D01*
G01*
X90870000Y-67400000D01*
G75*
G02*
X90620000Y-67150000I0J250000D01*
G01*
G37*
%TD.AperFunction*%
%TO.P,C6,1*%
%TO.N,Net-(C6-Pad1)*%
%TA.AperFunction,SMDPad,CuDef*%
G36*
G01*
X88720000Y-67150000D02*
X88720000Y-66200000D01*
G75*
G02*
X88970000Y-65950000I250000J0D01*
G01*
X89470000Y-65950000D01*
G75*
G02*
X89720000Y-66200000I0J-250000D01*
G01*
X89720000Y-67150000D01*
G75*
G02*
X89470000Y-67400000I-250000J0D01*
G01*
X88970000Y-67400000D01*
G75*
G02*
X88720000Y-67150000I0J250000D01*
G01*
G37*
%TD.AperFunction*%
%TD*%
%TO.P,C7,1*%
%TO.N,+3V3*%
%TA.AperFunction,SMDPad,CuDef*%
G36*
G01*
X83005000Y-67150000D02*
X83005000Y-66200000D01*
G75*
G02*
X83255000Y-65950000I250000J0D01*
G01*
X83755000Y-65950000D01*
G75*
G02*
X84005000Y-66200000I0J-250000D01*
G01*
X84005000Y-67150000D01*
G75*
G02*
X83755000Y-67400000I-250000J0D01*
G01*
X83255000Y-67400000D01*
G75*
G02*
X83005000Y-67150000I0J250000D01*
G01*
G37*
%TD.AperFunction*%
%TO.P,C7,2*%
%TO.N,GND*%
%TA.AperFunction,SMDPad,CuDef*%
G36*
G01*
X84905000Y-67150000D02*
X84905000Y-66200000D01*
G75*
G02*
X85155000Y-65950000I250000J0D01*
G01*
X85655000Y-65950000D01*
G75*
G02*
X85905000Y-66200000I0J-250000D01*
G01*
X85905000Y-67150000D01*
G75*
G02*
X85655000Y-67400000I-250000J0D01*
G01*
X85155000Y-67400000D01*
G75*
G02*
X84905000Y-67150000I0J250000D01*
G01*
G37*
%TD.AperFunction*%
%TD*%
%TO.P,C8,1*%
%TO.N,Net-(C8-Pad1)*%
%TA.AperFunction,SMDPad,CuDef*%
G36*
G01*
X86815000Y-57625000D02*
X86815000Y-56675000D01*
G75*
G02*
X87065000Y-56425000I250000J0D01*
G01*
X87565000Y-56425000D01*
G75*
G02*
X87815000Y-56675000I0J-250000D01*
G01*
X87815000Y-57625000D01*
G75*
G02*
X87565000Y-57875000I-250000J0D01*
G01*
X87065000Y-57875000D01*
G75*
G02*
X86815000Y-57625000I0J250000D01*
G01*
G37*
%TD.AperFunction*%
%TO.P,C8,2*%
%TO.N,GND*%
%TA.AperFunction,SMDPad,CuDef*%
G36*
G01*
X88715000Y-57625000D02*
X88715000Y-56675000D01*
G75*
G02*
X88965000Y-56425000I250000J0D01*
G01*
X89465000Y-56425000D01*
G75*
G02*
X89715000Y-56675000I0J-250000D01*
G01*
X89715000Y-57625000D01*
G75*
G02*
X89465000Y-57875000I-250000J0D01*
G01*
X88965000Y-57875000D01*
G75*
G02*
X88715000Y-57625000I0J250000D01*
G01*
G37*
%TD.AperFunction*%
%TD*%
D12*
%TO.P,D1,1*%
%TO.N,Net-(D1-Pad1)*%
X55245000Y-77375000D03*
%TO.P,D1,2*%
%TO.N,GND*%
X55245000Y-81375000D03*
%TD*%
%TO.P,D2,2*%
%TO.N,Net-(D2-Pad2)*%
%TA.AperFunction,SMDPad,CuDef*%
G36*
G01*
X43530000Y-81536250D02*
X43530000Y-81023750D01*
G75*
G02*
X43748750Y-80805000I218750J0D01*
G01*
X44186250Y-80805000D01*
G75*
G02*
X44405000Y-81023750I0J-218750D01*
G01*
X44405000Y-81536250D01*
G75*
G02*
X44186250Y-81755000I-218750J0D01*
G01*
X43748750Y-81755000D01*
G75*
G02*
X43530000Y-81536250I0J218750D01*
G01*
G37*
%TD.AperFunction*%
%TO.P,D2,1*%
%TO.N,GND*%
%TA.AperFunction,SMDPad,CuDef*%
G36*
G01*
X41955000Y-81536250D02*
X41955000Y-81023750D01*
G75*
G02*
X42173750Y-80805000I218750J0D01*
G01*
X42611250Y-80805000D01*
G75*
G02*
X42830000Y-81023750I0J-218750D01*
G01*
X42830000Y-81536250D01*
G75*
G02*
X42611250Y-81755000I-218750J0D01*
G01*
X42173750Y-81755000D01*
G75*
G02*
X41955000Y-81536250I0J218750D01*
G01*
G37*
%TD.AperFunction*%
%TD*%
%TO.P,D3,1*%
%TO.N,GND*%
%TA.AperFunction,SMDPad,CuDef*%
G36*
G01*
X42107500Y-83441250D02*
X42107500Y-82928750D01*
G75*
G02*
X42326250Y-82710000I218750J0D01*
G01*
X42763750Y-82710000D01*
G75*
G02*
X42982500Y-82928750I0J-218750D01*
G01*
X42982500Y-83441250D01*
G75*
G02*
X42763750Y-83660000I-218750J0D01*
G01*
X42326250Y-83660000D01*
G75*
G02*
X42107500Y-83441250I0J218750D01*
G01*
G37*
%TD.AperFunction*%
%TO.P,D3,2*%
%TO.N,Net-(D3-Pad2)*%
%TA.AperFunction,SMDPad,CuDef*%
G36*
G01*
X43682500Y-83441250D02*
X43682500Y-82928750D01*
G75*
G02*
X43901250Y-82710000I218750J0D01*
G01*
X44338750Y-82710000D01*
G75*
G02*
X44557500Y-82928750I0J-218750D01*
G01*
X44557500Y-83441250D01*
G75*
G02*
X44338750Y-83660000I-218750J0D01*
G01*
X43901250Y-83660000D01*
G75*
G02*
X43682500Y-83441250I0J218750D01*
G01*
G37*
%TD.AperFunction*%
%TD*%
%TO.P,D4,1*%
%TO.N,GND*%
%TA.AperFunction,SMDPad,CuDef*%
G36*
G01*
X41955000Y-85346250D02*
X41955000Y-84833750D01*
G75*
G02*
X42173750Y-84615000I218750J0D01*
G01*
X42611250Y-84615000D01*
G75*
G02*
X42830000Y-84833750I0J-218750D01*
G01*
X42830000Y-85346250D01*
G75*
G02*
X42611250Y-85565000I-218750J0D01*
G01*
X42173750Y-85565000D01*
G75*
G02*
X41955000Y-85346250I0J218750D01*
G01*
G37*
%TD.AperFunction*%
%TO.P,D4,2*%
%TO.N,Net-(D4-Pad2)*%
%TA.AperFunction,SMDPad,CuDef*%
G36*
G01*
X43530000Y-85346250D02*
X43530000Y-84833750D01*
G75*
G02*
X43748750Y-84615000I218750J0D01*
G01*
X44186250Y-84615000D01*
G75*
G02*
X44405000Y-84833750I0J-218750D01*
G01*
X44405000Y-85346250D01*
G75*
G02*
X44186250Y-85565000I-218750J0D01*
G01*
X43748750Y-85565000D01*
G75*
G02*
X43530000Y-85346250I0J218750D01*
G01*
G37*
%TD.AperFunction*%
%TD*%
D13*
%TO.P,12V in,1*%
%TO.N,Net-(J1-Pad1)*%
X52705000Y-86360000D03*
%TO.P,12V in,2*%
%TO.N,GND*%
%TA.AperFunction,ComponentPad*%
G36*
G01*
X53705000Y-93860000D02*
X51705000Y-93860000D01*
G75*
G02*
X50955000Y-93110000I0J750000D01*
G01*
X50955000Y-91610000D01*
G75*
G02*
X51705000Y-90860000I750000J0D01*
G01*
X53705000Y-90860000D01*
G75*
G02*
X54455000Y-91610000I0J-750000D01*
G01*
X54455000Y-93110000D01*
G75*
G02*
X53705000Y-93860000I-750000J0D01*
G01*
G37*
%TD.AperFunction*%
%TO.P,12V in,3*%
%TO.N,N/C*%
%TA.AperFunction,ComponentPad*%
G36*
G01*
X58280000Y-91110000D02*
X56530000Y-91110000D01*
G75*
G02*
X55655000Y-90235000I0J875000D01*
G01*
X55655000Y-88485000D01*
G75*
G02*
X56530000Y-87610000I875000J0D01*
G01*
X58280000Y-87610000D01*
G75*
G02*
X59155000Y-88485000I0J-875000D01*
G01*
X59155000Y-90235000D01*
G75*
G02*
X58280000Y-91110000I-875000J0D01*
G01*
G37*
%TD.AperFunction*%
%TD*%
D14*
%TO.P,Raspberry Pi header,1*%
%TO.N,Net-(J2-Pad1)*%
X49530000Y-45720000D03*
D15*
%TO.P,Raspberry Pi header,2*%
%TO.N,+5V*%
X49530000Y-43180000D03*
%TO.P,Raspberry Pi header,3*%
%TO.N,Net-(J2-Pad3)*%
X52070000Y-45720000D03*
%TO.P,Raspberry Pi header,4*%
%TO.N,+5V*%
X52070000Y-43180000D03*
%TO.P,Raspberry Pi header,5*%
%TO.N,Net-(J2-Pad5)*%
X54610000Y-45720000D03*
%TO.P,Raspberry Pi header,6*%
%TO.N,GND*%
X54610000Y-43180000D03*
%TO.P,Raspberry Pi header,7*%
%TO.N,Net-(J2-Pad7)*%
X57150000Y-45720000D03*
%TO.P,Raspberry Pi header,8*%
%TO.N,/UART_MOSI*%
X57150000Y-43180000D03*
%TO.P,Raspberry Pi header,9*%
%TO.N,GND*%
X59690000Y-45720000D03*
%TO.P,Raspberry Pi header,10*%
%TO.N,/UART_MISO*%
X59690000Y-43180000D03*
%TO.P,Raspberry Pi header,11*%
%TO.N,Net-(J2-Pad11)*%
X62230000Y-45720000D03*
%TO.P,Raspberry Pi header,12*%
%TO.N,Net-(J2-Pad12)*%
X62230000Y-43180000D03*
%TO.P,Raspberry Pi header,13*%
%TO.N,Net-(J2-Pad13)*%
X64770000Y-45720000D03*
%TO.P,Raspberry Pi header,14*%
%TO.N,GND*%
X64770000Y-43180000D03*
%TO.P,Raspberry Pi header,15*%
%TO.N,/BTN_B*%
X67310000Y-45720000D03*
%TO.P,Raspberry Pi header,16*%
%TO.N,/BTN_A*%
X67310000Y-43180000D03*
%TO.P,Raspberry Pi header,17*%
%TO.N,Net-(J2-Pad17)*%
X69850000Y-45720000D03*
%TO.P,Raspberry Pi header,18*%
%TO.N,/SIDE_BTN*%
X69850000Y-43180000D03*
%TO.P,Raspberry Pi header,19*%
%TO.N,/SPI_MOSI*%
X72390000Y-45720000D03*
%TO.P,Raspberry Pi header,20*%
%TO.N,GND*%
X72390000Y-43180000D03*
%TO.P,Raspberry Pi header,21*%
%TO.N,/SPI_MISO*%
X74930000Y-45720000D03*
%TO.P,Raspberry Pi header,22*%
%TO.N,/TRIG_BTN*%
X74930000Y-43180000D03*
%TO.P,Raspberry Pi header,23*%
%TO.N,/SPI_CLK*%
X77470000Y-45720000D03*
%TO.P,Raspberry Pi header,24*%
%TO.N,/SPI_CS0*%
X77470000Y-43180000D03*
%TO.P,Raspberry Pi header,25*%
%TO.N,GND*%
X80010000Y-45720000D03*
%TO.P,Raspberry Pi header,26*%
%TO.N,Net-(J2-Pad26)*%
X80010000Y-43180000D03*
%TO.P,Raspberry Pi header,27*%
%TO.N,Net-(J2-Pad27)*%
X82550000Y-45720000D03*
%TO.P,Raspberry Pi header,28*%
%TO.N,Net-(J2-Pad28)*%
X82550000Y-43180000D03*
%TO.P,Raspberry Pi header,29*%
%TO.N,Net-(J2-Pad29)*%
X85090000Y-45720000D03*
%TO.P,Raspberry Pi header,30*%
%TO.N,GND*%
X85090000Y-43180000D03*
%TO.P,Raspberry Pi header,31*%
%TO.N,Net-(J2-Pad31)*%
X87630000Y-45720000D03*
%TO.P,Raspberry Pi header,32*%
%TO.N,Net-(J2-Pad32)*%
X87630000Y-43180000D03*
%TO.P,Raspberry Pi header,33*%
%TO.N,Net-(J2-Pad33)*%
X90170000Y-45720000D03*
%TO.P,Raspberry Pi header,34*%
%TO.N,GND*%
X90170000Y-43180000D03*
%TO.P,Raspberry Pi header,35*%
%TO.N,Net-(J2-Pad35)*%
X92710000Y-45720000D03*
%TO.P,Raspberry Pi header,36*%
%TO.N,Net-(J2-Pad36)*%
X92710000Y-43180000D03*
%TO.P,Raspberry Pi header,37*%
%TO.N,Net-(J2-Pad37)*%
X95250000Y-45720000D03*
%TO.P,Raspberry Pi header,38*%
%TO.N,Net-(J2-Pad38)*%
X95250000Y-43180000D03*
%TO.P,Raspberry Pi header,39*%
%TO.N,GND*%
X97790000Y-45720000D03*
%TO.P,Raspberry Pi header,40*%
%TO.N,Net-(J2-Pad40)*%
X97790000Y-43180000D03*
%TD*%
%TO.P,Trigger,1*%
%TO.N,GND*%
%TA.AperFunction,ComponentPad*%
G36*
G01*
X45930001Y-52940000D02*
X44239999Y-52940000D01*
G75*
G02*
X43990000Y-52690001I0J249999D01*
G01*
X43990000Y-51449999D01*
G75*
G02*
X44239999Y-51200000I249999J0D01*
G01*
X45930001Y-51200000D01*
G75*
G02*
X46180000Y-51449999I0J-249999D01*
G01*
X46180000Y-52690001D01*
G75*
G02*
X45930001Y-52940000I-249999J0D01*
G01*
G37*
%TD.AperFunction*%
D16*
%TO.P,Trigger,2*%
%TO.N,/TRIG_BTN*%
X45085000Y-49530000D03*
%TD*%
%TO.P,Side,2*%
%TO.N,/SIDE_BTN*%
X45085000Y-55880000D03*
%TO.P,Side,1*%
%TO.N,GND*%
%TA.AperFunction,ComponentPad*%
G36*
G01*
X45930001Y-59290000D02*
X44239999Y-59290000D01*
G75*
G02*
X43990000Y-59040001I0J249999D01*
G01*
X43990000Y-57799999D01*
G75*
G02*
X44239999Y-57550000I249999J0D01*
G01*
X45930001Y-57550000D01*
G75*
G02*
X46180000Y-57799999I0J-249999D01*
G01*
X46180000Y-59040001D01*
G75*
G02*
X45930001Y-59290000I-249999J0D01*
G01*
G37*
%TD.AperFunction*%
%TD*%
%TO.P,A,1*%
%TO.N,GND*%
%TA.AperFunction,ComponentPad*%
G36*
G01*
X45930001Y-65640000D02*
X44239999Y-65640000D01*
G75*
G02*
X43990000Y-65390001I0J249999D01*
G01*
X43990000Y-64149999D01*
G75*
G02*
X44239999Y-63900000I249999J0D01*
G01*
X45930001Y-63900000D01*
G75*
G02*
X46180000Y-64149999I0J-249999D01*
G01*
X46180000Y-65390001D01*
G75*
G02*
X45930001Y-65640000I-249999J0D01*
G01*
G37*
%TD.AperFunction*%
%TO.P,A,2*%
%TO.N,/BTN_A*%
X45085000Y-62230000D03*
%TD*%
%TO.P,B,2*%
%TO.N,/BTN_B*%
X45085000Y-68580000D03*
%TO.P,B,1*%
%TO.N,GND*%
%TA.AperFunction,ComponentPad*%
G36*
G01*
X45930001Y-71990000D02*
X44239999Y-71990000D01*
G75*
G02*
X43990000Y-71740001I0J249999D01*
G01*
X43990000Y-70499999D01*
G75*
G02*
X44239999Y-70250000I249999J0D01*
G01*
X45930001Y-70250000D01*
G75*
G02*
X46180000Y-70499999I0J-249999D01*
G01*
X46180000Y-71740001D01*
G75*
G02*
X45930001Y-71990000I-249999J0D01*
G01*
G37*
%TD.AperFunction*%
%TD*%
%TO.P,J7,1*%
%TO.N,+5V*%
%TA.AperFunction,ComponentPad*%
G36*
G01*
X124035001Y-63100000D02*
X122344999Y-63100000D01*
G75*
G02*
X122095000Y-62850001I0J249999D01*
G01*
X122095000Y-61609999D01*
G75*
G02*
X122344999Y-61360000I249999J0D01*
G01*
X124035001Y-61360000D01*
G75*
G02*
X124285000Y-61609999I0J-249999D01*
G01*
X124285000Y-62850001D01*
G75*
G02*
X124035001Y-63100000I-249999J0D01*
G01*
G37*
%TD.AperFunction*%
%TO.P,J7,2*%
%TO.N,Net-(J7-Pad2)*%
X123190000Y-59690000D03*
%TO.P,J7,3*%
%TO.N,Net-(J7-Pad3)*%
X123190000Y-57150000D03*
%TO.P,J7,4*%
%TO.N,GND*%
X123190000Y-54610000D03*
%TD*%
%TO.P,I2C periph,1*%
%TO.N,+5V*%
%TA.AperFunction,ComponentPad*%
G36*
G01*
X117050001Y-63100000D02*
X115359999Y-63100000D01*
G75*
G02*
X115110000Y-62850001I0J249999D01*
G01*
X115110000Y-61609999D01*
G75*
G02*
X115359999Y-61360000I249999J0D01*
G01*
X117050001Y-61360000D01*
G75*
G02*
X117300000Y-61609999I0J-249999D01*
G01*
X117300000Y-62850001D01*
G75*
G02*
X117050001Y-63100000I-249999J0D01*
G01*
G37*
%TD.AperFunction*%
%TO.P,I2C periph,2*%
%TO.N,Net-(J7-Pad2)*%
X116205000Y-59690000D03*
%TO.P,I2C periph,3*%
%TO.N,Net-(J7-Pad3)*%
X116205000Y-57150000D03*
%TO.P,I2C periph,4*%
%TO.N,GND*%
X116205000Y-54610000D03*
%TD*%
%TO.P,I2C motor,4*%
%TO.N,GND*%
X116205000Y-43180000D03*
%TO.P,I2C motor,3*%
%TO.N,Net-(J10-Pad3)*%
X116205000Y-45720000D03*
%TO.P,I2C motor,2*%
%TO.N,Net-(J10-Pad2)*%
X116205000Y-48260000D03*
%TO.P,I2C motor,1*%
%TO.N,+5V*%
%TA.AperFunction,ComponentPad*%
G36*
G01*
X117050001Y-51670000D02*
X115359999Y-51670000D01*
G75*
G02*
X115110000Y-51420001I0J249999D01*
G01*
X115110000Y-50179999D01*
G75*
G02*
X115359999Y-49930000I249999J0D01*
G01*
X117050001Y-49930000D01*
G75*
G02*
X117300000Y-50179999I0J-249999D01*
G01*
X117300000Y-51420001D01*
G75*
G02*
X117050001Y-51670000I-249999J0D01*
G01*
G37*
%TD.AperFunction*%
%TD*%
%TO.P,J10,4*%
%TO.N,GND*%
X123190000Y-43180000D03*
%TO.P,J10,3*%
%TO.N,Net-(J10-Pad3)*%
X123190000Y-45720000D03*
%TO.P,J10,2*%
%TO.N,Net-(J10-Pad2)*%
X123190000Y-48260000D03*
%TO.P,J10,1*%
%TO.N,+5V*%
%TA.AperFunction,ComponentPad*%
G36*
G01*
X124035001Y-51670000D02*
X122344999Y-51670000D01*
G75*
G02*
X122095000Y-51420001I0J249999D01*
G01*
X122095000Y-50179999D01*
G75*
G02*
X122344999Y-49930000I249999J0D01*
G01*
X124035001Y-49930000D01*
G75*
G02*
X124285000Y-50179999I0J-249999D01*
G01*
X124285000Y-51420001D01*
G75*
G02*
X124035001Y-51670000I-249999J0D01*
G01*
G37*
%TD.AperFunction*%
%TD*%
D17*
%TO.P,L1,1*%
%TO.N,Net-(D1-Pad1)*%
X50930000Y-67945000D03*
%TO.P,L1,2*%
%TO.N,+5V*%
X60830000Y-67945000D03*
%TD*%
%TO.P,R1,2*%
%TO.N,Net-(D2-Pad2)*%
%TA.AperFunction,SMDPad,CuDef*%
G36*
G01*
X49795000Y-81905001D02*
X49795000Y-80654999D01*
G75*
G02*
X50044999Y-80405000I249999J0D01*
G01*
X50670001Y-80405000D01*
G75*
G02*
X50920000Y-80654999I0J-249999D01*
G01*
X50920000Y-81905001D01*
G75*
G02*
X50670001Y-82155000I-249999J0D01*
G01*
X50044999Y-82155000D01*
G75*
G02*
X49795000Y-81905001I0J249999D01*
G01*
G37*
%TD.AperFunction*%
%TO.P,R1,1*%
%TO.N,+5V*%
%TA.AperFunction,SMDPad,CuDef*%
G36*
G01*
X46870000Y-81905001D02*
X46870000Y-80654999D01*
G75*
G02*
X47119999Y-80405000I249999J0D01*
G01*
X47745001Y-80405000D01*
G75*
G02*
X47995000Y-80654999I0J-249999D01*
G01*
X47995000Y-81905001D01*
G75*
G02*
X47745001Y-82155000I-249999J0D01*
G01*
X47119999Y-82155000D01*
G75*
G02*
X46870000Y-81905001I0J249999D01*
G01*
G37*
%TD.AperFunction*%
%TD*%
%TO.P,R2,1*%
%TO.N,+3V3*%
%TA.AperFunction,SMDPad,CuDef*%
G36*
G01*
X114944999Y-65285000D02*
X116195001Y-65285000D01*
G75*
G02*
X116445000Y-65534999I0J-249999D01*
G01*
X116445000Y-66160001D01*
G75*
G02*
X116195001Y-66410000I-249999J0D01*
G01*
X114944999Y-66410000D01*
G75*
G02*
X114695000Y-66160001I0J249999D01*
G01*
X114695000Y-65534999D01*
G75*
G02*
X114944999Y-65285000I249999J0D01*
G01*
G37*
%TD.AperFunction*%
%TO.P,R2,2*%
%TO.N,Net-(R2-Pad2)*%
%TA.AperFunction,SMDPad,CuDef*%
G36*
G01*
X114944999Y-68210000D02*
X116195001Y-68210000D01*
G75*
G02*
X116445000Y-68459999I0J-249999D01*
G01*
X116445000Y-69085001D01*
G75*
G02*
X116195001Y-69335000I-249999J0D01*
G01*
X114944999Y-69335000D01*
G75*
G02*
X114695000Y-69085001I0J249999D01*
G01*
X114695000Y-68459999D01*
G75*
G02*
X114944999Y-68210000I249999J0D01*
G01*
G37*
%TD.AperFunction*%
%TD*%
%TO.P,R3,1*%
%TO.N,+3V3*%
%TA.AperFunction,SMDPad,CuDef*%
G36*
G01*
X49650000Y-83194999D02*
X49650000Y-84445001D01*
G75*
G02*
X49400001Y-84695000I-249999J0D01*
G01*
X48774999Y-84695000D01*
G75*
G02*
X48525000Y-84445001I0J249999D01*
G01*
X48525000Y-83194999D01*
G75*
G02*
X48774999Y-82945000I249999J0D01*
G01*
X49400001Y-82945000D01*
G75*
G02*
X49650000Y-83194999I0J-249999D01*
G01*
G37*
%TD.AperFunction*%
%TO.P,R3,2*%
%TO.N,Net-(D3-Pad2)*%
%TA.AperFunction,SMDPad,CuDef*%
G36*
G01*
X46725000Y-83194999D02*
X46725000Y-84445001D01*
G75*
G02*
X46475001Y-84695000I-249999J0D01*
G01*
X45849999Y-84695000D01*
G75*
G02*
X45600000Y-84445001I0J249999D01*
G01*
X45600000Y-83194999D01*
G75*
G02*
X45849999Y-82945000I249999J0D01*
G01*
X46475001Y-82945000D01*
G75*
G02*
X46725000Y-83194999I0J-249999D01*
G01*
G37*
%TD.AperFunction*%
%TD*%
%TO.P,R4,2*%
%TO.N,Net-(D4-Pad2)*%
%TA.AperFunction,SMDPad,CuDef*%
G36*
G01*
X46980001Y-86730000D02*
X45729999Y-86730000D01*
G75*
G02*
X45480000Y-86480001I0J249999D01*
G01*
X45480000Y-85854999D01*
G75*
G02*
X45729999Y-85605000I249999J0D01*
G01*
X46980001Y-85605000D01*
G75*
G02*
X47230000Y-85854999I0J-249999D01*
G01*
X47230000Y-86480001D01*
G75*
G02*
X46980001Y-86730000I-249999J0D01*
G01*
G37*
%TD.AperFunction*%
%TO.P,R4,1*%
%TO.N,Net-(R4-Pad1)*%
%TA.AperFunction,SMDPad,CuDef*%
G36*
G01*
X46980001Y-89655000D02*
X45729999Y-89655000D01*
G75*
G02*
X45480000Y-89405001I0J249999D01*
G01*
X45480000Y-88779999D01*
G75*
G02*
X45729999Y-88530000I249999J0D01*
G01*
X46980001Y-88530000D01*
G75*
G02*
X47230000Y-88779999I0J-249999D01*
G01*
X47230000Y-89405001D01*
G75*
G02*
X46980001Y-89655000I-249999J0D01*
G01*
G37*
%TD.AperFunction*%
%TD*%
%TO.P,R5,2*%
%TO.N,Net-(R5-Pad2)*%
%TA.AperFunction,SMDPad,CuDef*%
G36*
G01*
X110120000Y-55870001D02*
X110120000Y-54619999D01*
G75*
G02*
X110369999Y-54370000I249999J0D01*
G01*
X110995001Y-54370000D01*
G75*
G02*
X111245000Y-54619999I0J-249999D01*
G01*
X111245000Y-55870001D01*
G75*
G02*
X110995001Y-56120000I-249999J0D01*
G01*
X110369999Y-56120000D01*
G75*
G02*
X110120000Y-55870001I0J249999D01*
G01*
G37*
%TD.AperFunction*%
%TO.P,R5,1*%
%TO.N,+5V*%
%TA.AperFunction,SMDPad,CuDef*%
G36*
G01*
X107195000Y-55870001D02*
X107195000Y-54619999D01*
G75*
G02*
X107444999Y-54370000I249999J0D01*
G01*
X108070001Y-54370000D01*
G75*
G02*
X108320000Y-54619999I0J-249999D01*
G01*
X108320000Y-55870001D01*
G75*
G02*
X108070001Y-56120000I-249999J0D01*
G01*
X107444999Y-56120000D01*
G75*
G02*
X107195000Y-55870001I0J249999D01*
G01*
G37*
%TD.AperFunction*%
%TD*%
%TO.P,R6,1*%
%TO.N,+5V*%
%TA.AperFunction,SMDPad,CuDef*%
G36*
G01*
X107195000Y-45075001D02*
X107195000Y-43824999D01*
G75*
G02*
X107444999Y-43575000I249999J0D01*
G01*
X108070001Y-43575000D01*
G75*
G02*
X108320000Y-43824999I0J-249999D01*
G01*
X108320000Y-45075001D01*
G75*
G02*
X108070001Y-45325000I-249999J0D01*
G01*
X107444999Y-45325000D01*
G75*
G02*
X107195000Y-45075001I0J249999D01*
G01*
G37*
%TD.AperFunction*%
%TO.P,R6,2*%
%TO.N,Net-(R6-Pad2)*%
%TA.AperFunction,SMDPad,CuDef*%
G36*
G01*
X110120000Y-45075001D02*
X110120000Y-43824999D01*
G75*
G02*
X110369999Y-43575000I249999J0D01*
G01*
X110995001Y-43575000D01*
G75*
G02*
X111245000Y-43824999I0J-249999D01*
G01*
X111245000Y-45075001D01*
G75*
G02*
X110995001Y-45325000I-249999J0D01*
G01*
X110369999Y-45325000D01*
G75*
G02*
X110120000Y-45075001I0J249999D01*
G01*
G37*
%TD.AperFunction*%
%TD*%
D18*
%TO.P,RESET,1*%
%TO.N,GND*%
X61445000Y-93980000D03*
%TO.P,RESET,2*%
%TO.N,Net-(R2-Pad2)*%
X61445000Y-89480000D03*
%TO.P,RESET,1*%
%TO.N,GND*%
X67945000Y-93980000D03*
%TO.P,RESET,2*%
%TO.N,Net-(R2-Pad2)*%
X67945000Y-89480000D03*
%TD*%
%TO.P,BOOT,2*%
%TO.N,Net-(SW2-Pad2)*%
X71120000Y-94035000D03*
%TO.P,BOOT,1*%
%TO.N,GND*%
X71120000Y-89535000D03*
%TO.P,BOOT,2*%
%TO.N,Net-(SW2-Pad2)*%
X77620000Y-94035000D03*
%TO.P,BOOT,1*%
%TO.N,GND*%
X77620000Y-89535000D03*
%TD*%
D19*
%TO.P,U1,1*%
%TO.N,Net-(J1-Pad1)*%
X60900000Y-77245000D03*
%TO.P,U1,2*%
%TO.N,Net-(D1-Pad1)*%
X60900000Y-78945000D03*
%TO.P,U1,3*%
%TO.N,GND*%
X60900000Y-80645000D03*
%TO.P,U1,4*%
%TO.N,+5V*%
X60900000Y-82345000D03*
%TO.P,U1,5*%
%TO.N,GND*%
X60900000Y-84045000D03*
D20*
%TO.P,U1,3*%
X70050000Y-80645000D03*
%TD*%
D21*
%TO.P,U2,2*%
%TO.N,+3V3*%
X67310000Y-73000000D03*
D22*
X67310000Y-66700000D03*
%TO.P,U2,3*%
%TO.N,+5V*%
X65010000Y-66700000D03*
%TO.P,U2,1*%
%TO.N,GND*%
X69610000Y-66700000D03*
%TD*%
D23*
%TO.P,ESP32,39*%
%TO.N,GND*%
X111880000Y-79010000D03*
D24*
%TO.P,ESP32,1*%
X119380000Y-71510000D03*
%TO.P,ESP32,2*%
%TO.N,+3V3*%
X118110000Y-71510000D03*
%TO.P,ESP32,3*%
%TO.N,Net-(R2-Pad2)*%
X116840000Y-71510000D03*
%TO.P,ESP32,4*%
%TO.N,Net-(U3-Pad4)*%
X115570000Y-71510000D03*
%TO.P,ESP32,5*%
%TO.N,Net-(U3-Pad5)*%
X114300000Y-71510000D03*
%TO.P,ESP32,6*%
%TO.N,Net-(U3-Pad6)*%
X113030000Y-71510000D03*
%TO.P,ESP32,7*%
%TO.N,Net-(U3-Pad7)*%
X111760000Y-71510000D03*
%TO.P,ESP32,8*%
%TO.N,/SPI_CLK*%
X110490000Y-71510000D03*
%TO.P,ESP32,9*%
%TO.N,/SPI_CS0*%
X109220000Y-71510000D03*
%TO.P,ESP32,10*%
%TO.N,/BTN_B*%
X107950000Y-71510000D03*
%TO.P,ESP32,11*%
%TO.N,/SPI_MISO*%
X106680000Y-71510000D03*
%TO.P,ESP32,12*%
%TO.N,/SPI_MOSI*%
X105410000Y-71510000D03*
%TO.P,ESP32,13*%
%TO.N,/JTAG_TMS*%
X104140000Y-71510000D03*
%TO.P,ESP32,14*%
%TO.N,/JTAG_TDI*%
X102870000Y-71510000D03*
D25*
%TO.P,ESP32,15*%
%TO.N,GND*%
X101870000Y-74295000D03*
%TO.P,ESP32,16*%
%TO.N,/JTAG_TCK*%
X101870000Y-75565000D03*
%TO.P,ESP32,17*%
%TO.N,Net-(U3-Pad17)*%
X101870000Y-76835000D03*
%TO.P,ESP32,18*%
%TO.N,Net-(U3-Pad18)*%
X101870000Y-78105000D03*
%TO.P,ESP32,19*%
%TO.N,Net-(U3-Pad19)*%
X101870000Y-79375000D03*
%TO.P,ESP32,20*%
%TO.N,Net-(U3-Pad20)*%
X101870000Y-80645000D03*
%TO.P,ESP32,21*%
%TO.N,Net-(U3-Pad21)*%
X101870000Y-81915000D03*
%TO.P,ESP32,22*%
%TO.N,Net-(U3-Pad22)*%
X101870000Y-83185000D03*
%TO.P,ESP32,23*%
%TO.N,/JTAG_TDO*%
X101870000Y-84455000D03*
%TO.P,ESP32,24*%
%TO.N,Net-(R4-Pad1)*%
X101870000Y-85725000D03*
D24*
%TO.P,ESP32,25*%
%TO.N,Net-(SW2-Pad2)*%
X102870000Y-88510000D03*
%TO.P,ESP32,26*%
%TO.N,Net-(U3-Pad26)*%
X104140000Y-88510000D03*
%TO.P,ESP32,27*%
%TO.N,/SDA_PERIPH*%
X105410000Y-88510000D03*
%TO.P,ESP32,28*%
%TO.N,/SCL_PERIPH*%
X106680000Y-88510000D03*
%TO.P,ESP32,29*%
%TO.N,Net-(U3-Pad29)*%
X107950000Y-88510000D03*
%TO.P,ESP32,30*%
%TO.N,/SDA_MOTOR*%
X109220000Y-88510000D03*
%TO.P,ESP32,31*%
%TO.N,/SCL_MOTOR*%
X110490000Y-88510000D03*
%TO.P,ESP32,32*%
%TO.N,Net-(U3-Pad32)*%
X111760000Y-88510000D03*
%TO.P,ESP32,33*%
%TO.N,/TRIG_BTN*%
X113030000Y-88510000D03*
%TO.P,ESP32,34*%
%TO.N,/UART_MOSI*%
X114300000Y-88510000D03*
%TO.P,ESP32,35*%
%TO.N,/UART_MISO*%
X115570000Y-88510000D03*
%TO.P,ESP32,36*%
%TO.N,/SIDE_BTN*%
X116840000Y-88510000D03*
%TO.P,ESP32,37*%
%TO.N,/BTN_A*%
X118110000Y-88510000D03*
%TO.P,ESP32,38*%
%TO.N,GND*%
X119380000Y-88510000D03*
%TD*%
D26*
%TO.P,U4,1*%
%TO.N,+3V3*%
X107670000Y-57670000D03*
%TO.P,U4,2*%
%TO.N,/SCL_PERIPH*%
X107670000Y-58170000D03*
%TO.P,U4,3*%
%TO.N,/SDA_PERIPH*%
X107670000Y-58670000D03*
%TO.P,U4,4*%
%TO.N,GND*%
X107670000Y-59170000D03*
%TO.P,U4,5*%
%TO.N,Net-(J7-Pad2)*%
X110770000Y-59170000D03*
%TO.P,U4,6*%
%TO.N,Net-(J7-Pad3)*%
X110770000Y-58670000D03*
%TO.P,U4,7*%
%TO.N,Net-(R5-Pad2)*%
X110770000Y-58170000D03*
%TO.P,U4,8*%
X110770000Y-57670000D03*
%TD*%
%TO.P,U5,8*%
%TO.N,Net-(R6-Pad2)*%
X110770000Y-46875000D03*
%TO.P,U5,7*%
X110770000Y-47375000D03*
%TO.P,U5,6*%
%TO.N,Net-(J10-Pad3)*%
X110770000Y-47875000D03*
%TO.P,U5,5*%
%TO.N,Net-(J10-Pad2)*%
X110770000Y-48375000D03*
%TO.P,U5,4*%
%TO.N,GND*%
X107670000Y-48375000D03*
%TO.P,U5,3*%
%TO.N,/SDA_MOTOR*%
X107670000Y-47875000D03*
%TO.P,U5,2*%
%TO.N,/SCL_MOTOR*%
X107670000Y-47375000D03*
%TO.P,U5,1*%
%TO.N,+3V3*%
X107670000Y-46875000D03*
%TD*%
%TO.P,U6,1*%
%TO.N,GND*%
%TA.AperFunction,SMDPad,CuDef*%
G36*
G01*
X85115001Y-59915001D02*
X85115001Y-59765001D01*
G75*
G02*
X85190001Y-59690001I75000J0D01*
G01*
X85890001Y-59690001D01*
G75*
G02*
X85965001Y-59765001I0J-75000D01*
G01*
X85965001Y-59915001D01*
G75*
G02*
X85890001Y-59990001I-75000J0D01*
G01*
X85190001Y-59990001D01*
G75*
G02*
X85115001Y-59915001I0J75000D01*
G01*
G37*
%TD.AperFunction*%
%TO.P,U6,2*%
%TO.N,N/C*%
%TA.AperFunction,SMDPad,CuDef*%
G36*
G01*
X85115001Y-60415001D02*
X85115001Y-60265001D01*
G75*
G02*
X85190001Y-60190001I75000J0D01*
G01*
X85890001Y-60190001D01*
G75*
G02*
X85965001Y-60265001I0J-75000D01*
G01*
X85965001Y-60415001D01*
G75*
G02*
X85890001Y-60490001I-75000J0D01*
G01*
X85190001Y-60490001D01*
G75*
G02*
X85115001Y-60415001I0J75000D01*
G01*
G37*
%TD.AperFunction*%
%TO.P,U6,3*%
%TA.AperFunction,SMDPad,CuDef*%
G36*
G01*
X85115001Y-60915001D02*
X85115001Y-60765001D01*
G75*
G02*
X85190001Y-60690001I75000J0D01*
G01*
X85890001Y-60690001D01*
G75*
G02*
X85965001Y-60765001I0J-75000D01*
G01*
X85965001Y-60915001D01*
G75*
G02*
X85890001Y-60990001I-75000J0D01*
G01*
X85190001Y-60990001D01*
G75*
G02*
X85115001Y-60915001I0J75000D01*
G01*
G37*
%TD.AperFunction*%
%TO.P,U6,4*%
%TA.AperFunction,SMDPad,CuDef*%
G36*
G01*
X85115001Y-61415001D02*
X85115001Y-61265001D01*
G75*
G02*
X85190001Y-61190001I75000J0D01*
G01*
X85890001Y-61190001D01*
G75*
G02*
X85965001Y-61265001I0J-75000D01*
G01*
X85965001Y-61415001D01*
G75*
G02*
X85890001Y-61490001I-75000J0D01*
G01*
X85190001Y-61490001D01*
G75*
G02*
X85115001Y-61415001I0J75000D01*
G01*
G37*
%TD.AperFunction*%
%TO.P,U6,5*%
%TA.AperFunction,SMDPad,CuDef*%
G36*
G01*
X85115001Y-61915001D02*
X85115001Y-61765001D01*
G75*
G02*
X85190001Y-61690001I75000J0D01*
G01*
X85890001Y-61690001D01*
G75*
G02*
X85965001Y-61765001I0J-75000D01*
G01*
X85965001Y-61915001D01*
G75*
G02*
X85890001Y-61990001I-75000J0D01*
G01*
X85190001Y-61990001D01*
G75*
G02*
X85115001Y-61915001I0J75000D01*
G01*
G37*
%TD.AperFunction*%
%TO.P,U6,6*%
%TO.N,Net-(U6-Pad6)*%
%TA.AperFunction,SMDPad,CuDef*%
G36*
G01*
X85115001Y-62415001D02*
X85115001Y-62265001D01*
G75*
G02*
X85190001Y-62190001I75000J0D01*
G01*
X85890001Y-62190001D01*
G75*
G02*
X85965001Y-62265001I0J-75000D01*
G01*
X85965001Y-62415001D01*
G75*
G02*
X85890001Y-62490001I-75000J0D01*
G01*
X85190001Y-62490001D01*
G75*
G02*
X85115001Y-62415001I0J75000D01*
G01*
G37*
%TD.AperFunction*%
%TO.P,U6,7*%
%TO.N,Net-(U6-Pad7)*%
%TA.AperFunction,SMDPad,CuDef*%
G36*
G01*
X86315001Y-63465001D02*
X86165001Y-63465001D01*
G75*
G02*
X86090001Y-63390001I0J75000D01*
G01*
X86090001Y-62690001D01*
G75*
G02*
X86165001Y-62615001I75000J0D01*
G01*
X86315001Y-62615001D01*
G75*
G02*
X86390001Y-62690001I0J-75000D01*
G01*
X86390001Y-63390001D01*
G75*
G02*
X86315001Y-63465001I-75000J0D01*
G01*
G37*
%TD.AperFunction*%
%TO.P,U6,8*%
%TO.N,+3V3*%
%TA.AperFunction,SMDPad,CuDef*%
G36*
G01*
X86815001Y-63465001D02*
X86665001Y-63465001D01*
G75*
G02*
X86590001Y-63390001I0J75000D01*
G01*
X86590001Y-62690001D01*
G75*
G02*
X86665001Y-62615001I75000J0D01*
G01*
X86815001Y-62615001D01*
G75*
G02*
X86890001Y-62690001I0J-75000D01*
G01*
X86890001Y-63390001D01*
G75*
G02*
X86815001Y-63465001I-75000J0D01*
G01*
G37*
%TD.AperFunction*%
%TO.P,U6,9*%
%TO.N,GND*%
%TA.AperFunction,SMDPad,CuDef*%
G36*
G01*
X87315001Y-63465001D02*
X87165001Y-63465001D01*
G75*
G02*
X87090001Y-63390001I0J75000D01*
G01*
X87090001Y-62690001D01*
G75*
G02*
X87165001Y-62615001I75000J0D01*
G01*
X87315001Y-62615001D01*
G75*
G02*
X87390001Y-62690001I0J-75000D01*
G01*
X87390001Y-63390001D01*
G75*
G02*
X87315001Y-63465001I-75000J0D01*
G01*
G37*
%TD.AperFunction*%
%TO.P,U6,10*%
%TO.N,Net-(C6-Pad1)*%
%TA.AperFunction,SMDPad,CuDef*%
G36*
G01*
X87815001Y-63465001D02*
X87665001Y-63465001D01*
G75*
G02*
X87590001Y-63390001I0J75000D01*
G01*
X87590001Y-62690001D01*
G75*
G02*
X87665001Y-62615001I75000J0D01*
G01*
X87815001Y-62615001D01*
G75*
G02*
X87890001Y-62690001I0J-75000D01*
G01*
X87890001Y-63390001D01*
G75*
G02*
X87815001Y-63465001I-75000J0D01*
G01*
G37*
%TD.AperFunction*%
%TO.P,U6,11*%
%TO.N,GND*%
%TA.AperFunction,SMDPad,CuDef*%
G36*
G01*
X88315001Y-63465001D02*
X88165001Y-63465001D01*
G75*
G02*
X88090001Y-63390001I0J75000D01*
G01*
X88090001Y-62690001D01*
G75*
G02*
X88165001Y-62615001I75000J0D01*
G01*
X88315001Y-62615001D01*
G75*
G02*
X88390001Y-62690001I0J-75000D01*
G01*
X88390001Y-63390001D01*
G75*
G02*
X88315001Y-63465001I-75000J0D01*
G01*
G37*
%TD.AperFunction*%
%TO.P,U6,12*%
%TO.N,Net-(U6-Pad12)*%
%TA.AperFunction,SMDPad,CuDef*%
G36*
G01*
X88815001Y-63465001D02*
X88665001Y-63465001D01*
G75*
G02*
X88590001Y-63390001I0J75000D01*
G01*
X88590001Y-62690001D01*
G75*
G02*
X88665001Y-62615001I75000J0D01*
G01*
X88815001Y-62615001D01*
G75*
G02*
X88890001Y-62690001I0J-75000D01*
G01*
X88890001Y-63390001D01*
G75*
G02*
X88815001Y-63465001I-75000J0D01*
G01*
G37*
%TD.AperFunction*%
%TO.P,U6,13*%
%TO.N,+3V3*%
%TA.AperFunction,SMDPad,CuDef*%
G36*
G01*
X89015001Y-62415001D02*
X89015001Y-62265001D01*
G75*
G02*
X89090001Y-62190001I75000J0D01*
G01*
X89790001Y-62190001D01*
G75*
G02*
X89865001Y-62265001I0J-75000D01*
G01*
X89865001Y-62415001D01*
G75*
G02*
X89790001Y-62490001I-75000J0D01*
G01*
X89090001Y-62490001D01*
G75*
G02*
X89015001Y-62415001I0J75000D01*
G01*
G37*
%TD.AperFunction*%
%TO.P,U6,14*%
%TO.N,N/C*%
%TA.AperFunction,SMDPad,CuDef*%
G36*
G01*
X89015001Y-61915001D02*
X89015001Y-61765001D01*
G75*
G02*
X89090001Y-61690001I75000J0D01*
G01*
X89790001Y-61690001D01*
G75*
G02*
X89865001Y-61765001I0J-75000D01*
G01*
X89865001Y-61915001D01*
G75*
G02*
X89790001Y-61990001I-75000J0D01*
G01*
X89090001Y-61990001D01*
G75*
G02*
X89015001Y-61915001I0J75000D01*
G01*
G37*
%TD.AperFunction*%
%TO.P,U6,15*%
%TA.AperFunction,SMDPad,CuDef*%
G36*
G01*
X89015001Y-61415001D02*
X89015001Y-61265001D01*
G75*
G02*
X89090001Y-61190001I75000J0D01*
G01*
X89790001Y-61190001D01*
G75*
G02*
X89865001Y-61265001I0J-75000D01*
G01*
X89865001Y-61415001D01*
G75*
G02*
X89790001Y-61490001I-75000J0D01*
G01*
X89090001Y-61490001D01*
G75*
G02*
X89015001Y-61415001I0J75000D01*
G01*
G37*
%TD.AperFunction*%
%TO.P,U6,16*%
%TA.AperFunction,SMDPad,CuDef*%
G36*
G01*
X89015001Y-60915001D02*
X89015001Y-60765001D01*
G75*
G02*
X89090001Y-60690001I75000J0D01*
G01*
X89790001Y-60690001D01*
G75*
G02*
X89865001Y-60765001I0J-75000D01*
G01*
X89865001Y-60915001D01*
G75*
G02*
X89790001Y-60990001I-75000J0D01*
G01*
X89090001Y-60990001D01*
G75*
G02*
X89015001Y-60915001I0J75000D01*
G01*
G37*
%TD.AperFunction*%
%TO.P,U6,17*%
%TA.AperFunction,SMDPad,CuDef*%
G36*
G01*
X89015001Y-60415001D02*
X89015001Y-60265001D01*
G75*
G02*
X89090001Y-60190001I75000J0D01*
G01*
X89790001Y-60190001D01*
G75*
G02*
X89865001Y-60265001I0J-75000D01*
G01*
X89865001Y-60415001D01*
G75*
G02*
X89790001Y-60490001I-75000J0D01*
G01*
X89090001Y-60490001D01*
G75*
G02*
X89015001Y-60415001I0J75000D01*
G01*
G37*
%TD.AperFunction*%
%TO.P,U6,18*%
%TO.N,GND*%
%TA.AperFunction,SMDPad,CuDef*%
G36*
G01*
X89015001Y-59915001D02*
X89015001Y-59765001D01*
G75*
G02*
X89090001Y-59690001I75000J0D01*
G01*
X89790001Y-59690001D01*
G75*
G02*
X89865001Y-59765001I0J-75000D01*
G01*
X89865001Y-59915001D01*
G75*
G02*
X89790001Y-59990001I-75000J0D01*
G01*
X89090001Y-59990001D01*
G75*
G02*
X89015001Y-59915001I0J75000D01*
G01*
G37*
%TD.AperFunction*%
%TO.P,U6,19*%
%TO.N,N/C*%
%TA.AperFunction,SMDPad,CuDef*%
G36*
G01*
X88815001Y-59565001D02*
X88665001Y-59565001D01*
G75*
G02*
X88590001Y-59490001I0J75000D01*
G01*
X88590001Y-58790001D01*
G75*
G02*
X88665001Y-58715001I75000J0D01*
G01*
X88815001Y-58715001D01*
G75*
G02*
X88890001Y-58790001I0J-75000D01*
G01*
X88890001Y-59490001D01*
G75*
G02*
X88815001Y-59565001I-75000J0D01*
G01*
G37*
%TD.AperFunction*%
%TO.P,U6,20*%
%TO.N,Net-(C8-Pad1)*%
%TA.AperFunction,SMDPad,CuDef*%
G36*
G01*
X88315001Y-59565001D02*
X88165001Y-59565001D01*
G75*
G02*
X88090001Y-59490001I0J75000D01*
G01*
X88090001Y-58790001D01*
G75*
G02*
X88165001Y-58715001I75000J0D01*
G01*
X88315001Y-58715001D01*
G75*
G02*
X88390001Y-58790001I0J-75000D01*
G01*
X88390001Y-59490001D01*
G75*
G02*
X88315001Y-59565001I-75000J0D01*
G01*
G37*
%TD.AperFunction*%
%TO.P,U6,21*%
%TO.N,N/C*%
%TA.AperFunction,SMDPad,CuDef*%
G36*
G01*
X87815001Y-59565001D02*
X87665001Y-59565001D01*
G75*
G02*
X87590001Y-59490001I0J75000D01*
G01*
X87590001Y-58790001D01*
G75*
G02*
X87665001Y-58715001I75000J0D01*
G01*
X87815001Y-58715001D01*
G75*
G02*
X87890001Y-58790001I0J-75000D01*
G01*
X87890001Y-59490001D01*
G75*
G02*
X87815001Y-59565001I-75000J0D01*
G01*
G37*
%TD.AperFunction*%
%TO.P,U6,22*%
%TA.AperFunction,SMDPad,CuDef*%
G36*
G01*
X87315001Y-59565001D02*
X87165001Y-59565001D01*
G75*
G02*
X87090001Y-59490001I0J75000D01*
G01*
X87090001Y-58790001D01*
G75*
G02*
X87165001Y-58715001I75000J0D01*
G01*
X87315001Y-58715001D01*
G75*
G02*
X87390001Y-58790001I0J-75000D01*
G01*
X87390001Y-59490001D01*
G75*
G02*
X87315001Y-59565001I-75000J0D01*
G01*
G37*
%TD.AperFunction*%
%TO.P,U6,23*%
%TO.N,/SCL_PERIPH*%
%TA.AperFunction,SMDPad,CuDef*%
G36*
G01*
X86815001Y-59565001D02*
X86665001Y-59565001D01*
G75*
G02*
X86590001Y-59490001I0J75000D01*
G01*
X86590001Y-58790001D01*
G75*
G02*
X86665001Y-58715001I75000J0D01*
G01*
X86815001Y-58715001D01*
G75*
G02*
X86890001Y-58790001I0J-75000D01*
G01*
X86890001Y-59490001D01*
G75*
G02*
X86815001Y-59565001I-75000J0D01*
G01*
G37*
%TD.AperFunction*%
%TO.P,U6,24*%
%TO.N,/SDA_PERIPH*%
%TA.AperFunction,SMDPad,CuDef*%
G36*
G01*
X86315001Y-59565001D02*
X86165001Y-59565001D01*
G75*
G02*
X86090001Y-59490001I0J75000D01*
G01*
X86090001Y-58790001D01*
G75*
G02*
X86165001Y-58715001I75000J0D01*
G01*
X86315001Y-58715001D01*
G75*
G02*
X86390001Y-58790001I0J-75000D01*
G01*
X86390001Y-59490001D01*
G75*
G02*
X86315001Y-59565001I-75000J0D01*
G01*
G37*
%TD.AperFunction*%
%TD*%
%TO.P,JTAG,1*%
%TO.N,Net-(J11-Pad1)*%
%TA.AperFunction,ComponentPad*%
G36*
G01*
X88685000Y-78070000D02*
X88685000Y-76870000D01*
G75*
G02*
X88935000Y-76620000I250000J0D01*
G01*
X90135000Y-76620000D01*
G75*
G02*
X90385000Y-76870000I0J-250000D01*
G01*
X90385000Y-78070000D01*
G75*
G02*
X90135000Y-78320000I-250000J0D01*
G01*
X88935000Y-78320000D01*
G75*
G02*
X88685000Y-78070000I0J250000D01*
G01*
G37*
%TD.AperFunction*%
D27*
%TO.P,JTAG,3*%
%TO.N,GND*%
X89535000Y-80010000D03*
%TO.P,JTAG,5*%
X89535000Y-82550000D03*
%TO.P,JTAG,7*%
X89535000Y-85090000D03*
%TO.P,JTAG,9*%
X89535000Y-87630000D03*
%TO.P,JTAG,2*%
%TO.N,/JTAG_TMS*%
X92075000Y-77470000D03*
%TO.P,JTAG,4*%
%TO.N,/JTAG_TCK*%
X92075000Y-80010000D03*
%TO.P,JTAG,6*%
%TO.N,/JTAG_TDO*%
X92075000Y-82550000D03*
%TO.P,JTAG,8*%
%TO.N,/JTAG_TDI*%
X92075000Y-85090000D03*
%TO.P,JTAG,10*%
%TO.N,Net-(J11-Pad10)*%
X92075000Y-87630000D03*
%TD*%
%TO.P,UART,1*%
%TO.N,Net-(J12-Pad1)*%
%TA.AperFunction,ComponentPad*%
G36*
G01*
X80220001Y-85960000D02*
X78529999Y-85960000D01*
G75*
G02*
X78280000Y-85710001I0J249999D01*
G01*
X78280000Y-84469999D01*
G75*
G02*
X78529999Y-84220000I249999J0D01*
G01*
X80220001Y-84220000D01*
G75*
G02*
X80470000Y-84469999I0J-249999D01*
G01*
X80470000Y-85710001D01*
G75*
G02*
X80220001Y-85960000I-249999J0D01*
G01*
G37*
%TD.AperFunction*%
D16*
%TO.P,UART,2*%
%TO.N,/UART_MISO*%
X79375000Y-82550000D03*
%TO.P,UART,3*%
%TO.N,/UART_MOSI*%
X79375000Y-80010000D03*
%TO.P,UART,4*%
%TO.N,GND*%
X79375000Y-77470000D03*
%TD*%
D28*
%TO.N,GND*%
X110490000Y-80645000D03*
X113665000Y-77470000D03*
X107315000Y-50165000D03*
X105410000Y-63500000D03*
X113590000Y-80720000D03*
X110415000Y-77545000D03*
X112002500Y-79132500D03*
X119695000Y-66360000D03*
X86835000Y-65245000D03*
X83970001Y-59840001D03*
X88265000Y-55245000D03*
X57150000Y-84455000D03*
X52070000Y-78740000D03*
%TO.N,+3V3*%
X49087500Y-86802500D03*
X75885000Y-73340000D03*
%TO.N,/UART_MOSI*%
X113665000Y-93345000D03*
%TO.N,/UART_MISO*%
X115570000Y-92710000D03*
%TO.N,/BTN_B*%
X98425000Y-69850000D03*
X67945000Y-57150000D03*
X67310000Y-53975000D03*
%TO.N,/BTN_A*%
X69215000Y-53975000D03*
X71120000Y-57150000D03*
%TO.N,/SIDE_BTN*%
X77470000Y-53975000D03*
X81597500Y-54292500D03*
%TO.N,/SPI_MOSI*%
X100330000Y-69850000D03*
%TO.N,/SPI_MISO*%
X101227903Y-68842903D03*
%TO.N,/SPI_CLK*%
X106045000Y-67219990D03*
%TO.N,/SPI_CS0*%
X101600000Y-66675000D03*
%TO.N,Net-(R2-Pad2)*%
X112837500Y-68772500D03*
%TO.N,Net-(R4-Pad1)*%
X99060000Y-87630000D03*
X85090000Y-87630000D03*
%TO.N,Net-(SW2-Pad2)*%
X100965000Y-92044892D03*
%TO.N,/SDA_PERIPH*%
X105712499Y-61262499D03*
X95250000Y-54610011D03*
%TO.N,/SCL_PERIPH*%
X95250000Y-55880000D03*
X107315000Y-60960000D03*
%TO.N,/JTAG_TMS*%
X98425000Y-78105000D03*
%TO.N,/JTAG_TCK*%
X99060000Y-79375000D03*
%TO.N,/JTAG_TDO*%
X97790000Y-82550000D03*
%TO.N,/JTAG_TDI*%
X97790000Y-80645000D03*
%TD*%
D29*
%TO.N,+5V*%
X116205000Y-50800000D02*
X111474998Y-50800000D01*
X123190000Y-50800000D02*
X116205000Y-50800000D01*
X123190000Y-62230000D02*
X116205000Y-62230000D01*
X48957510Y-79754990D02*
X47432500Y-81280000D01*
X51042800Y-79754990D02*
X48957510Y-79754990D01*
X51570010Y-80282200D02*
X51042800Y-79754990D01*
X51570010Y-82050010D02*
X51570010Y-80282200D01*
X52795001Y-83275001D02*
X51570010Y-82050010D01*
X56665001Y-83275001D02*
X52795001Y-83275001D01*
X57595002Y-82345000D02*
X56665001Y-83275001D01*
X60900000Y-82345000D02*
X57595002Y-82345000D01*
X45085000Y-78932500D02*
X47432500Y-81280000D01*
X45085000Y-78105000D02*
X45085000Y-78932500D01*
X62075000Y-66700000D02*
X60830000Y-67945000D01*
X65010000Y-66700000D02*
X62075000Y-66700000D01*
X49530000Y-43180000D02*
X52070000Y-43180000D01*
X111474998Y-51527502D02*
X111474998Y-50800000D01*
X107757500Y-55245000D02*
X111474998Y-51527502D01*
X53370001Y-41879999D02*
X52070000Y-43180000D01*
X105187499Y-41879999D02*
X53370001Y-41879999D01*
X107757500Y-44450000D02*
X105187499Y-41879999D01*
X109855000Y-46547500D02*
X107757500Y-44450000D01*
X109855000Y-49180002D02*
X109855000Y-46547500D01*
X111474998Y-50800000D02*
X109855000Y-49180002D01*
X109855000Y-57342500D02*
X107757500Y-55245000D01*
X109855000Y-59975002D02*
X109855000Y-57342500D01*
X112109998Y-62230000D02*
X109855000Y-59975002D01*
X116205000Y-62230000D02*
X112109998Y-62230000D01*
X46630010Y-76559990D02*
X45085000Y-78105000D01*
X49119999Y-64794999D02*
X46630010Y-67284988D01*
X57679999Y-64794999D02*
X49119999Y-64794999D01*
X60830000Y-67945000D02*
X57679999Y-64794999D01*
X43539990Y-47967929D02*
X43539990Y-72199970D01*
X43539990Y-72199970D02*
X46630010Y-75289990D01*
X48327919Y-43180000D02*
X43539990Y-47967929D01*
X49530000Y-43180000D02*
X48327919Y-43180000D01*
X46630010Y-75289990D02*
X46630010Y-76559990D01*
X46630010Y-67284988D02*
X46630010Y-75289990D01*
%TO.N,GND*%
X119695000Y-71195000D02*
X119380000Y-71510000D01*
X119695000Y-68580000D02*
X119695000Y-71195000D01*
D30*
X87240001Y-64839999D02*
X87240001Y-63040001D01*
X85405000Y-66675000D02*
X86835000Y-65245000D01*
X88240001Y-63795001D02*
X88240001Y-63040001D01*
X91120000Y-66675000D02*
X88240001Y-63795001D01*
X86455010Y-67725010D02*
X85405000Y-66675000D01*
X90069990Y-67725010D02*
X86455010Y-67725010D01*
X91120000Y-66675000D02*
X90069990Y-67725010D01*
X89440001Y-57375001D02*
X89440001Y-59840001D01*
X89215000Y-57150000D02*
X89440001Y-57375001D01*
D29*
X119380000Y-86510000D02*
X113590000Y-80720000D01*
X119380000Y-88510000D02*
X119380000Y-86510000D01*
X107165000Y-74295000D02*
X110415000Y-77545000D01*
X101870000Y-74295000D02*
X107165000Y-74295000D01*
X42392500Y-83032500D02*
X42545000Y-83185000D01*
X42392500Y-81280000D02*
X42392500Y-83032500D01*
X42545000Y-84937500D02*
X42392500Y-85090000D01*
X42545000Y-83185000D02*
X42545000Y-84937500D01*
X42392500Y-78297500D02*
X42392500Y-81280000D01*
X45085000Y-75605000D02*
X42392500Y-78297500D01*
D30*
X107430000Y-48375000D02*
X107315000Y-48490000D01*
X107670000Y-48375000D02*
X107430000Y-48375000D01*
X107315000Y-48490000D02*
X107315000Y-50165000D01*
X107315000Y-50165000D02*
X107315000Y-50165000D01*
X106437500Y-60162500D02*
X106437500Y-62472500D01*
X107430000Y-59170000D02*
X106437500Y-60162500D01*
X107670000Y-59170000D02*
X107430000Y-59170000D01*
X106437500Y-62472500D02*
X105410000Y-63500000D01*
X105410000Y-63500000D02*
X105410000Y-63500000D01*
D29*
X113590000Y-80720000D02*
X112002500Y-79132500D01*
X110415000Y-77545000D02*
X111880000Y-79010000D01*
X112002500Y-79132500D02*
X111880000Y-79010000D01*
D30*
X119695000Y-68580000D02*
X119695000Y-66360000D01*
X119695000Y-66360000D02*
X119695000Y-66355000D01*
X86835000Y-65245000D02*
X87240001Y-64839999D01*
X85540001Y-59840001D02*
X83970001Y-59840001D01*
X83970001Y-59840001D02*
X83970001Y-59840001D01*
X89215000Y-57150000D02*
X89215000Y-56195000D01*
X89215000Y-56195000D02*
X88265000Y-55245000D01*
X88265000Y-55245000D02*
X88265000Y-55245000D01*
X76200000Y-80645000D02*
X79375000Y-77470000D01*
X70050000Y-80645000D02*
X76200000Y-80645000D01*
X55975000Y-80645000D02*
X55245000Y-81375000D01*
X60900000Y-80645000D02*
X55975000Y-80645000D01*
D29*
X60900000Y-84045000D02*
X57560000Y-84045000D01*
X57560000Y-84045000D02*
X57150000Y-84455000D01*
X57150000Y-84455000D02*
X57150000Y-84455000D01*
X55245000Y-81375000D02*
X54705000Y-81375000D01*
X54705000Y-81375000D02*
X52070000Y-78740000D01*
X52070000Y-78740000D02*
X52070000Y-78740000D01*
X72390000Y-69480000D02*
X69610000Y-66700000D01*
X72390000Y-71440000D02*
X72390000Y-69480000D01*
X69610000Y-62665000D02*
X67905000Y-60960000D01*
X69610000Y-66700000D02*
X69610000Y-62665000D01*
D30*
X96614999Y-44544999D02*
X97790000Y-45720000D01*
X91534999Y-44544999D02*
X96614999Y-44544999D01*
X90170000Y-43180000D02*
X91534999Y-44544999D01*
X86265001Y-44355001D02*
X85090000Y-43180000D01*
X88994999Y-44355001D02*
X86265001Y-44355001D01*
X90170000Y-43180000D02*
X88994999Y-44355001D01*
X81374999Y-44355001D02*
X80010000Y-45720000D01*
X83914999Y-44355001D02*
X81374999Y-44355001D01*
X85090000Y-43180000D02*
X83914999Y-44355001D01*
X58514999Y-44544999D02*
X59690000Y-45720000D01*
X55974999Y-44544999D02*
X58514999Y-44544999D01*
X54610000Y-43180000D02*
X55974999Y-44544999D01*
X63405001Y-44544999D02*
X64770000Y-43180000D01*
X60865001Y-44544999D02*
X63405001Y-44544999D01*
X59690000Y-45720000D02*
X60865001Y-44544999D01*
D29*
%TO.N,+3V3*%
X118110000Y-68895000D02*
X118110000Y-71510000D01*
X117795000Y-68580000D02*
X118110000Y-68895000D01*
X117795000Y-68072500D02*
X115570000Y-65847500D01*
X117795000Y-68580000D02*
X117795000Y-68072500D01*
X110682500Y-65847500D02*
X109220000Y-67310000D01*
X115570000Y-65847500D02*
X110682500Y-65847500D01*
X67310000Y-62865000D02*
X65405000Y-60960000D01*
X67310000Y-66700000D02*
X67310000Y-62865000D01*
X67310000Y-73000000D02*
X67310000Y-66700000D01*
X72050000Y-73000000D02*
X72390000Y-73340000D01*
X67310000Y-73000000D02*
X72050000Y-73000000D01*
X72390000Y-73340000D02*
X75885000Y-73340000D01*
D30*
X106869990Y-56869990D02*
X107670000Y-57670000D01*
X106869990Y-53150010D02*
X106869990Y-56869990D01*
X108395001Y-51624999D02*
X106869990Y-53150010D01*
X108395001Y-46964999D02*
X108395001Y-51624999D01*
X108305002Y-46875000D02*
X108395001Y-46964999D01*
X107670000Y-46875000D02*
X108305002Y-46875000D01*
X86740001Y-63530703D02*
X86740001Y-63040001D01*
X83595704Y-66675000D02*
X86740001Y-63530703D01*
X83505000Y-66675000D02*
X83595704Y-66675000D01*
X83505000Y-68580000D02*
X78745000Y-73340000D01*
X83505000Y-66675000D02*
X83505000Y-68580000D01*
X85005020Y-68175020D02*
X83505000Y-66675000D01*
X91945010Y-67388180D02*
X91158170Y-68175020D01*
X91158170Y-68175020D02*
X85005020Y-68175020D01*
X91945010Y-64640010D02*
X91945010Y-67388180D01*
X89645001Y-62340001D02*
X91945010Y-64640010D01*
X89440001Y-62340001D02*
X89645001Y-62340001D01*
X108094999Y-66184999D02*
X109220000Y-67310000D01*
X108094999Y-64269999D02*
X108094999Y-66184999D01*
X109220000Y-63144998D02*
X108094999Y-64269999D01*
X109220000Y-57785000D02*
X109220000Y-63144998D01*
X109105000Y-57670000D02*
X109220000Y-57785000D01*
X107670000Y-57670000D02*
X109105000Y-57670000D01*
D29*
X83820000Y-84455000D02*
X83820000Y-78415000D01*
X95409990Y-96044990D02*
X83820000Y-84455000D01*
X83820000Y-78415000D02*
X78745000Y-73340000D01*
X120280001Y-75180001D02*
X120280001Y-93714999D01*
X117950010Y-96044990D02*
X95409990Y-96044990D01*
X120280001Y-93714999D02*
X117950010Y-96044990D01*
X118110000Y-73010000D02*
X120280001Y-75180001D01*
X118110000Y-71510000D02*
X118110000Y-73010000D01*
X49087500Y-83820000D02*
X49087500Y-86802500D01*
X49087500Y-86802500D02*
X49087500Y-86802500D01*
X75885000Y-73340000D02*
X78745000Y-73340000D01*
D30*
%TO.N,Net-(C6-Pad1)*%
X87740001Y-65195001D02*
X87740001Y-63040001D01*
X89220000Y-66675000D02*
X87740001Y-65195001D01*
%TO.N,Net-(C8-Pad1)*%
X88240001Y-58075001D02*
X88240001Y-59140001D01*
X87315000Y-57150000D02*
X88240001Y-58075001D01*
D29*
%TO.N,Net-(D1-Pad1)*%
X56815000Y-78945000D02*
X55245000Y-77375000D01*
X60900000Y-78945000D02*
X56815000Y-78945000D01*
X55245000Y-72260000D02*
X50930000Y-67945000D01*
X55245000Y-77375000D02*
X55245000Y-72260000D01*
D30*
%TO.N,Net-(D2-Pad2)*%
X49593968Y-81280000D02*
X50357500Y-81280000D01*
X48193958Y-82680010D02*
X49593968Y-81280000D01*
X46798978Y-82680010D02*
X48193958Y-82680010D01*
X45398968Y-81280000D02*
X46798978Y-82680010D01*
X43967500Y-81280000D02*
X45398968Y-81280000D01*
%TO.N,Net-(D3-Pad2)*%
X44670001Y-83735001D02*
X44120000Y-83185000D01*
X46162500Y-83735001D02*
X44670001Y-83735001D01*
%TO.N,Net-(D4-Pad2)*%
X45045000Y-86167500D02*
X43967500Y-85090000D01*
X46355000Y-86167500D02*
X45045000Y-86167500D01*
D29*
%TO.N,Net-(J1-Pad1)*%
X63220002Y-77245000D02*
X60900000Y-77245000D01*
X63850001Y-77874999D02*
X63220002Y-77245000D01*
X63850001Y-85115001D02*
X63850001Y-77874999D01*
X62605002Y-86360000D02*
X63850001Y-85115001D01*
X52705000Y-86360000D02*
X62605002Y-86360000D01*
D30*
%TO.N,/UART_MOSI*%
X114300000Y-92710000D02*
X114300000Y-88510000D01*
X113665000Y-93345000D02*
X114300000Y-92710000D01*
%TO.N,/UART_MISO*%
X115570000Y-88510000D02*
X115570000Y-91440000D01*
X115570000Y-91440000D02*
X115570000Y-92710000D01*
%TO.N,/BTN_B*%
X101575904Y-68117902D02*
X100157098Y-68117902D01*
X101952904Y-68494902D02*
X101575904Y-68117902D01*
X106184902Y-68494902D02*
X101952904Y-68494902D01*
X107950000Y-70260000D02*
X106184902Y-68494902D01*
X107950000Y-71510000D02*
X107950000Y-70260000D01*
X100157098Y-68117902D02*
X98425000Y-69850000D01*
X98425000Y-69850000D02*
X98425000Y-69850000D01*
X55880000Y-56515000D02*
X67310000Y-56515000D01*
X45085000Y-67310000D02*
X55880000Y-56515000D01*
X45085000Y-68580000D02*
X45085000Y-67310000D01*
X67310000Y-45720000D02*
X67310000Y-53975000D01*
X67310000Y-56515000D02*
X67945000Y-57150000D01*
X67945000Y-57150000D02*
X67945000Y-57150000D01*
X67310000Y-53975000D02*
X67310000Y-53975000D01*
%TO.N,/BTN_A*%
X51435000Y-55880000D02*
X45085000Y-62230000D01*
X68485001Y-44355001D02*
X68485001Y-53245001D01*
X67310000Y-43180000D02*
X68485001Y-44355001D01*
X68485001Y-53245001D02*
X69215000Y-53975000D01*
X69215000Y-53975000D02*
X69215000Y-53975000D01*
X69850000Y-55880000D02*
X71120000Y-57150000D01*
X69850000Y-55880000D02*
X51435000Y-55880000D01*
X71120000Y-57150000D02*
X71120000Y-57150000D01*
X96889978Y-64996558D02*
X96889978Y-55176978D01*
X93899967Y-67986568D02*
X96889978Y-64996558D01*
X99468494Y-95469979D02*
X93899967Y-89901452D01*
X118110000Y-88510000D02*
X118110000Y-93345000D01*
X115985022Y-95469979D02*
X99468494Y-95469979D01*
X118110000Y-93345000D02*
X115985022Y-95469979D01*
X94152978Y-52439978D02*
X88527200Y-52439978D01*
X85087178Y-55880000D02*
X69850000Y-55880000D01*
X88527200Y-52439978D02*
X85087178Y-55880000D01*
X93899967Y-89901452D02*
X93899967Y-67986568D01*
X96889978Y-55176978D02*
X94152978Y-52439978D01*
%TO.N,/SIDE_BTN*%
X50798590Y-55880000D02*
X51248600Y-55429990D01*
X45085000Y-55880000D02*
X50798590Y-55880000D01*
X67494990Y-55429990D02*
X67496400Y-55429990D01*
X51248600Y-55429990D02*
X67494990Y-55429990D01*
X71025001Y-44355001D02*
X71025001Y-51975001D01*
X69850000Y-43180000D02*
X71025001Y-44355001D01*
X71025001Y-51975001D02*
X73025000Y-53975000D01*
X73025000Y-53975000D02*
X77470000Y-53975000D01*
X77470000Y-53975000D02*
X77470000Y-53975000D01*
X80460010Y-55429990D02*
X67494990Y-55429990D01*
X82455010Y-53434990D02*
X81597500Y-54292500D01*
X86895777Y-53434990D02*
X82455010Y-53434990D01*
X88340800Y-51989967D02*
X86895777Y-53434990D01*
X94339378Y-51989967D02*
X88340800Y-51989967D01*
X97339989Y-54990578D02*
X94339378Y-51989967D01*
X94349978Y-68172968D02*
X97339989Y-65182958D01*
X115798622Y-95019968D02*
X99654894Y-95019968D01*
X99654894Y-95019968D02*
X94349978Y-89715052D01*
X116840000Y-93978590D02*
X115798622Y-95019968D01*
X94349978Y-89715052D02*
X94349978Y-68172968D01*
X97339989Y-65182958D02*
X97339989Y-54990578D01*
X116840000Y-88510000D02*
X116840000Y-93978590D01*
X81597500Y-54292500D02*
X80460010Y-55429990D01*
%TO.N,/SPI_MOSI*%
X100330000Y-69850000D02*
X104515002Y-69850000D01*
X105410000Y-70744998D02*
X105410000Y-71510000D01*
X104515002Y-69850000D02*
X105410000Y-70744998D01*
%TO.N,/SPI_MISO*%
X106680000Y-70744998D02*
X106680000Y-71510000D01*
X101600000Y-69215000D02*
X105150002Y-69215000D01*
X105150002Y-69215000D02*
X106680000Y-70744998D01*
X101227903Y-68842903D02*
X101600000Y-69215000D01*
%TO.N,/TRIG_BTN*%
X94799989Y-89528635D02*
X94799989Y-68359369D01*
X99841311Y-94569957D02*
X94799989Y-89528635D01*
X94799989Y-68359369D02*
X97790000Y-65369358D01*
X86709377Y-52984979D02*
X81632200Y-52984979D01*
X88154400Y-51539956D02*
X86709377Y-52984979D01*
X113030000Y-88510000D02*
X113030000Y-92075000D01*
X46430000Y-49530000D02*
X45085000Y-49530000D01*
X51879980Y-54979980D02*
X46430000Y-49530000D01*
X113030000Y-92075000D02*
X110535043Y-94569957D01*
X97790000Y-65369358D02*
X97790000Y-54804178D01*
X79637200Y-54979979D02*
X51879980Y-54979980D01*
X81632200Y-52984979D02*
X79637200Y-54979979D01*
X94525778Y-51539956D02*
X88154400Y-51539956D01*
X97790000Y-54804178D02*
X94525778Y-51539956D01*
X110535043Y-94569957D02*
X99841311Y-94569957D01*
X80455977Y-52984979D02*
X81632200Y-52984979D01*
X73754999Y-46284001D02*
X80455977Y-52984979D01*
X73754999Y-44355001D02*
X73754999Y-46284001D01*
X74930000Y-43180000D02*
X73754999Y-44355001D01*
%TO.N,/SPI_CLK*%
X106964992Y-67219990D02*
X106045000Y-67219990D01*
X110490000Y-70744998D02*
X106964992Y-67219990D01*
X110490000Y-71510000D02*
X110490000Y-70744998D01*
%TO.N,/SPI_CS0*%
X106420002Y-67945000D02*
X109220000Y-70744998D01*
X104971998Y-67945000D02*
X106420002Y-67945000D01*
X101600000Y-66675000D02*
X103701998Y-66675000D01*
X103701998Y-66675000D02*
X104971998Y-67945000D01*
X109220000Y-70744998D02*
X109220000Y-71510000D01*
%TO.N,Net-(J7-Pad2)*%
X123190000Y-59690000D02*
X116205000Y-59690000D01*
X111290000Y-59690000D02*
X110770000Y-59170000D01*
X116205000Y-59690000D02*
X111290000Y-59690000D01*
%TO.N,Net-(J7-Pad3)*%
X123190000Y-57150000D02*
X116205000Y-57150000D01*
X114685000Y-58670000D02*
X110770000Y-58670000D01*
X116205000Y-57150000D02*
X114685000Y-58670000D01*
%TO.N,Net-(J10-Pad3)*%
X123190000Y-45720000D02*
X116205000Y-45720000D01*
X114050000Y-47875000D02*
X110770000Y-47875000D01*
X116205000Y-45720000D02*
X114050000Y-47875000D01*
%TO.N,Net-(J10-Pad2)*%
X123190000Y-48260000D02*
X116205000Y-48260000D01*
X116090000Y-48375000D02*
X110770000Y-48375000D01*
X116205000Y-48260000D02*
X116090000Y-48375000D01*
%TO.N,Net-(R2-Pad2)*%
X116840000Y-70042500D02*
X115570000Y-68772500D01*
X116840000Y-71510000D02*
X116840000Y-70042500D01*
X61445000Y-89480000D02*
X67945000Y-89480000D01*
X115570000Y-68772500D02*
X112837500Y-68772500D01*
X112837500Y-68772500D02*
X112837500Y-68772500D01*
%TO.N,Net-(R4-Pad1)*%
X101870000Y-85725000D02*
X100965000Y-85725000D01*
X100965000Y-85725000D02*
X99060000Y-87630000D01*
X99060000Y-87630000D02*
X99060000Y-87630000D01*
X54225430Y-89092500D02*
X46355000Y-89092500D01*
X56032940Y-87284990D02*
X54225430Y-89092500D01*
X84744990Y-87284990D02*
X56032940Y-87284990D01*
X85090000Y-87630000D02*
X84744990Y-87284990D01*
%TO.N,Net-(R5-Pad2)*%
X110682500Y-57582500D02*
X110770000Y-57670000D01*
X110682500Y-55245000D02*
X110682500Y-57582500D01*
X110770000Y-57670000D02*
X110770000Y-58170000D01*
%TO.N,Net-(R6-Pad2)*%
X110682500Y-46787500D02*
X110770000Y-46875000D01*
X110682500Y-44450000D02*
X110682500Y-46787500D01*
X110770000Y-46875000D02*
X110770000Y-47375000D01*
%TO.N,Net-(SW2-Pad2)*%
X71120000Y-94035000D02*
X77620000Y-94035000D01*
X102870000Y-90139892D02*
X100965000Y-92044892D01*
X102870000Y-88510000D02*
X102870000Y-90139892D01*
%TO.N,/SDA_MOTOR*%
X106045000Y-48850000D02*
X107020000Y-47875000D01*
X107020000Y-47875000D02*
X107670000Y-47875000D01*
X105310065Y-93669935D02*
X100214111Y-93669935D01*
X109220000Y-89760000D02*
X105310065Y-93669935D01*
X106045000Y-58387178D02*
X106045000Y-48850000D01*
X95700008Y-89155832D02*
X95700008Y-68732168D01*
X109220000Y-88510000D02*
X109220000Y-89760000D01*
X95700008Y-68732168D02*
X106045000Y-58387178D01*
X100214111Y-93669935D02*
X95700008Y-89155832D01*
%TO.N,/SCL_MOTOR*%
X106883590Y-47375000D02*
X107670000Y-47375000D01*
X110490000Y-89760000D02*
X106130054Y-94119946D01*
X95249997Y-89342232D02*
X95249997Y-68545771D01*
X105410000Y-48848590D02*
X106883590Y-47375000D01*
X110490000Y-88510000D02*
X110490000Y-89760000D01*
X105410000Y-58385768D02*
X105410000Y-48848590D01*
X106130054Y-94119946D02*
X100027711Y-94119946D01*
X100027711Y-94119946D02*
X95249997Y-89342232D01*
X95249997Y-68545771D02*
X105410000Y-58385768D01*
%TO.N,/SDA_PERIPH*%
X107034998Y-58670000D02*
X107670000Y-58670000D01*
X95250000Y-54610000D02*
X95250000Y-54610000D01*
X105712499Y-59992499D02*
X105712499Y-61262499D01*
X105712499Y-59992499D02*
X107034998Y-58670000D01*
X105712499Y-61262499D02*
X105712499Y-61262499D01*
X96600030Y-69104968D02*
X105712499Y-59992499D01*
X105410000Y-88510000D02*
X105410000Y-89760000D01*
X100586911Y-92769913D02*
X96600030Y-88783032D01*
X96600030Y-88783032D02*
X96600030Y-69104968D01*
X102400087Y-92769913D02*
X100586911Y-92769913D01*
X105410000Y-89760000D02*
X102400087Y-92769913D01*
X86240001Y-59140001D02*
X86039980Y-58939980D01*
X86039979Y-55563610D02*
X88713600Y-52889989D01*
X88713600Y-52889989D02*
X93529978Y-52889989D01*
X93529978Y-52889989D02*
X95250000Y-54610011D01*
X86039980Y-58939980D02*
X86039979Y-55563610D01*
%TO.N,/SCL_PERIPH*%
X95250000Y-55880000D02*
X95250000Y-55880000D01*
X108395001Y-58259999D02*
X108395001Y-59879999D01*
X108305002Y-58170000D02*
X108395001Y-58259999D01*
X107670000Y-58170000D02*
X108305002Y-58170000D01*
X108395001Y-59879999D02*
X107315000Y-60960000D01*
X107315000Y-60960000D02*
X107315000Y-60960000D01*
X96150019Y-88969432D02*
X96150019Y-68918568D01*
X106680000Y-88510000D02*
X106680000Y-89760000D01*
X106898588Y-58170000D02*
X107670000Y-58170000D01*
X96150019Y-68918568D02*
X106898588Y-58170000D01*
X100400511Y-93219924D02*
X96150019Y-88969432D01*
X103220076Y-93219924D02*
X100400511Y-93219924D01*
X106680000Y-89760000D02*
X103220076Y-93219924D01*
X86489990Y-55750010D02*
X88900000Y-53340000D01*
X92710000Y-53340000D02*
X95250000Y-55880000D01*
X88900000Y-53340000D02*
X92710000Y-53340000D01*
X86489990Y-58399288D02*
X86489990Y-55750010D01*
X86740001Y-58649299D02*
X86489990Y-58399288D01*
X86740001Y-59140001D02*
X86740001Y-58649299D01*
%TO.N,/JTAG_TMS*%
X104140000Y-72760000D02*
X103875000Y-73025000D01*
X104140000Y-71510000D02*
X104140000Y-72760000D01*
X101104998Y-73025000D02*
X103875000Y-73025000D01*
X98425000Y-75704998D02*
X101104998Y-73025000D01*
X98425000Y-78105000D02*
X98425000Y-75704998D01*
%TO.N,/JTAG_TCK*%
X101104998Y-75565000D02*
X101870000Y-75565000D01*
X99459999Y-77209999D02*
X101104998Y-75565000D01*
X99459999Y-78975001D02*
X99459999Y-77209999D01*
X99060000Y-79375000D02*
X99459999Y-78975001D01*
%TO.N,/JTAG_TDO*%
X101870000Y-84455000D02*
X99695000Y-84455000D01*
X99695000Y-84455000D02*
X97790000Y-82550000D01*
X97790000Y-82550000D02*
X97790000Y-82550000D01*
%TO.N,/JTAG_TDI*%
X99305000Y-71510000D02*
X102870000Y-71510000D01*
X97155000Y-73660000D02*
X99305000Y-71510000D01*
X97155000Y-80010000D02*
X97155000Y-73660000D01*
X97790000Y-80645000D02*
X97155000Y-80010000D01*
%TD*%
M02*
