%TF.GenerationSoftware,KiCad,Pcbnew,5.1.9+dfsg1-1*%
%TF.CreationDate,2021-09-29T19:21:48+02:00*%
%TF.ProjectId,main_board,6d61696e-5f62-46f6-9172-642e6b696361,rev?*%
%TF.SameCoordinates,Original*%
%TF.FileFunction,Soldermask,Top*%
%TF.FilePolarity,Negative*%
%FSLAX46Y46*%
G04 Gerber Fmt 4.6, Leading zero omitted, Abs format (unit mm)*
G04 Created by KiCad (PCBNEW 5.1.9+dfsg1-1) date 2021-09-29 19:21:48*
%MOMM*%
%LPD*%
G01*
G04 APERTURE LIST*
%ADD10C,2.700000*%
%ADD11R,1.600000X1.600000*%
%ADD12C,1.600000*%
%ADD13R,1.800000X2.500000*%
%ADD14R,3.500000X3.500000*%
%ADD15R,1.700000X1.700000*%
%ADD16O,1.700000X1.700000*%
%ADD17O,2.190000X1.740000*%
%ADD18R,2.900000X5.400000*%
%ADD19C,2.000000*%
%ADD20R,4.600000X1.100000*%
%ADD21R,9.400000X10.800000*%
%ADD22R,3.800000X2.000000*%
%ADD23R,1.500000X2.000000*%
%ADD24R,5.000000X5.000000*%
%ADD25R,0.900000X2.000000*%
%ADD26R,2.000000X0.900000*%
%ADD27R,0.800000X0.300000*%
%ADD28C,1.700000*%
G04 APERTURE END LIST*
D10*
%TO.C,REF\u002A\u002A*%
X82550000Y-93345000D03*
%TD*%
%TO.C,REF\u002A\u002A*%
X44450000Y-93345000D03*
%TD*%
%TO.C,REF\u002A\u002A*%
X102870000Y-44450000D03*
%TD*%
%TO.C,REF\u002A\u002A*%
X44450000Y-44450000D03*
%TD*%
D11*
%TO.C,C1*%
X45085000Y-78105000D03*
D12*
X45085000Y-75605000D03*
%TD*%
%TO.C,C2*%
X67905000Y-60960000D03*
D11*
X65405000Y-60960000D03*
%TD*%
%TO.C,C3*%
G36*
G01*
X72865000Y-71940000D02*
X71915000Y-71940000D01*
G75*
G02*
X71665000Y-71690000I0J250000D01*
G01*
X71665000Y-71190000D01*
G75*
G02*
X71915000Y-70940000I250000J0D01*
G01*
X72865000Y-70940000D01*
G75*
G02*
X73115000Y-71190000I0J-250000D01*
G01*
X73115000Y-71690000D01*
G75*
G02*
X72865000Y-71940000I-250000J0D01*
G01*
G37*
G36*
G01*
X72865000Y-73840000D02*
X71915000Y-73840000D01*
G75*
G02*
X71665000Y-73590000I0J250000D01*
G01*
X71665000Y-73090000D01*
G75*
G02*
X71915000Y-72840000I250000J0D01*
G01*
X72865000Y-72840000D01*
G75*
G02*
X73115000Y-73090000I0J-250000D01*
G01*
X73115000Y-73590000D01*
G75*
G02*
X72865000Y-73840000I-250000J0D01*
G01*
G37*
%TD*%
%TO.C,C4*%
G36*
G01*
X117295000Y-69055000D02*
X117295000Y-68105000D01*
G75*
G02*
X117545000Y-67855000I250000J0D01*
G01*
X118045000Y-67855000D01*
G75*
G02*
X118295000Y-68105000I0J-250000D01*
G01*
X118295000Y-69055000D01*
G75*
G02*
X118045000Y-69305000I-250000J0D01*
G01*
X117545000Y-69305000D01*
G75*
G02*
X117295000Y-69055000I0J250000D01*
G01*
G37*
G36*
G01*
X119195000Y-69055000D02*
X119195000Y-68105000D01*
G75*
G02*
X119445000Y-67855000I250000J0D01*
G01*
X119945000Y-67855000D01*
G75*
G02*
X120195000Y-68105000I0J-250000D01*
G01*
X120195000Y-69055000D01*
G75*
G02*
X119945000Y-69305000I-250000J0D01*
G01*
X119445000Y-69305000D01*
G75*
G02*
X119195000Y-69055000I0J250000D01*
G01*
G37*
%TD*%
%TO.C,C5*%
X109220000Y-67310000D03*
D12*
X109220000Y-64810000D03*
%TD*%
%TO.C,C6*%
G36*
G01*
X90620000Y-67150000D02*
X90620000Y-66200000D01*
G75*
G02*
X90870000Y-65950000I250000J0D01*
G01*
X91370000Y-65950000D01*
G75*
G02*
X91620000Y-66200000I0J-250000D01*
G01*
X91620000Y-67150000D01*
G75*
G02*
X91370000Y-67400000I-250000J0D01*
G01*
X90870000Y-67400000D01*
G75*
G02*
X90620000Y-67150000I0J250000D01*
G01*
G37*
G36*
G01*
X88720000Y-67150000D02*
X88720000Y-66200000D01*
G75*
G02*
X88970000Y-65950000I250000J0D01*
G01*
X89470000Y-65950000D01*
G75*
G02*
X89720000Y-66200000I0J-250000D01*
G01*
X89720000Y-67150000D01*
G75*
G02*
X89470000Y-67400000I-250000J0D01*
G01*
X88970000Y-67400000D01*
G75*
G02*
X88720000Y-67150000I0J250000D01*
G01*
G37*
%TD*%
%TO.C,C7*%
G36*
G01*
X83005000Y-67150000D02*
X83005000Y-66200000D01*
G75*
G02*
X83255000Y-65950000I250000J0D01*
G01*
X83755000Y-65950000D01*
G75*
G02*
X84005000Y-66200000I0J-250000D01*
G01*
X84005000Y-67150000D01*
G75*
G02*
X83755000Y-67400000I-250000J0D01*
G01*
X83255000Y-67400000D01*
G75*
G02*
X83005000Y-67150000I0J250000D01*
G01*
G37*
G36*
G01*
X84905000Y-67150000D02*
X84905000Y-66200000D01*
G75*
G02*
X85155000Y-65950000I250000J0D01*
G01*
X85655000Y-65950000D01*
G75*
G02*
X85905000Y-66200000I0J-250000D01*
G01*
X85905000Y-67150000D01*
G75*
G02*
X85655000Y-67400000I-250000J0D01*
G01*
X85155000Y-67400000D01*
G75*
G02*
X84905000Y-67150000I0J250000D01*
G01*
G37*
%TD*%
%TO.C,C8*%
G36*
G01*
X86815000Y-57625000D02*
X86815000Y-56675000D01*
G75*
G02*
X87065000Y-56425000I250000J0D01*
G01*
X87565000Y-56425000D01*
G75*
G02*
X87815000Y-56675000I0J-250000D01*
G01*
X87815000Y-57625000D01*
G75*
G02*
X87565000Y-57875000I-250000J0D01*
G01*
X87065000Y-57875000D01*
G75*
G02*
X86815000Y-57625000I0J250000D01*
G01*
G37*
G36*
G01*
X88715000Y-57625000D02*
X88715000Y-56675000D01*
G75*
G02*
X88965000Y-56425000I250000J0D01*
G01*
X89465000Y-56425000D01*
G75*
G02*
X89715000Y-56675000I0J-250000D01*
G01*
X89715000Y-57625000D01*
G75*
G02*
X89465000Y-57875000I-250000J0D01*
G01*
X88965000Y-57875000D01*
G75*
G02*
X88715000Y-57625000I0J250000D01*
G01*
G37*
%TD*%
D13*
%TO.C,D1*%
X55245000Y-77375000D03*
X55245000Y-81375000D03*
%TD*%
%TO.C,D2*%
G36*
G01*
X43530000Y-81536250D02*
X43530000Y-81023750D01*
G75*
G02*
X43748750Y-80805000I218750J0D01*
G01*
X44186250Y-80805000D01*
G75*
G02*
X44405000Y-81023750I0J-218750D01*
G01*
X44405000Y-81536250D01*
G75*
G02*
X44186250Y-81755000I-218750J0D01*
G01*
X43748750Y-81755000D01*
G75*
G02*
X43530000Y-81536250I0J218750D01*
G01*
G37*
G36*
G01*
X41955000Y-81536250D02*
X41955000Y-81023750D01*
G75*
G02*
X42173750Y-80805000I218750J0D01*
G01*
X42611250Y-80805000D01*
G75*
G02*
X42830000Y-81023750I0J-218750D01*
G01*
X42830000Y-81536250D01*
G75*
G02*
X42611250Y-81755000I-218750J0D01*
G01*
X42173750Y-81755000D01*
G75*
G02*
X41955000Y-81536250I0J218750D01*
G01*
G37*
%TD*%
%TO.C,D3*%
G36*
G01*
X42107500Y-83441250D02*
X42107500Y-82928750D01*
G75*
G02*
X42326250Y-82710000I218750J0D01*
G01*
X42763750Y-82710000D01*
G75*
G02*
X42982500Y-82928750I0J-218750D01*
G01*
X42982500Y-83441250D01*
G75*
G02*
X42763750Y-83660000I-218750J0D01*
G01*
X42326250Y-83660000D01*
G75*
G02*
X42107500Y-83441250I0J218750D01*
G01*
G37*
G36*
G01*
X43682500Y-83441250D02*
X43682500Y-82928750D01*
G75*
G02*
X43901250Y-82710000I218750J0D01*
G01*
X44338750Y-82710000D01*
G75*
G02*
X44557500Y-82928750I0J-218750D01*
G01*
X44557500Y-83441250D01*
G75*
G02*
X44338750Y-83660000I-218750J0D01*
G01*
X43901250Y-83660000D01*
G75*
G02*
X43682500Y-83441250I0J218750D01*
G01*
G37*
%TD*%
%TO.C,D4*%
G36*
G01*
X41955000Y-85346250D02*
X41955000Y-84833750D01*
G75*
G02*
X42173750Y-84615000I218750J0D01*
G01*
X42611250Y-84615000D01*
G75*
G02*
X42830000Y-84833750I0J-218750D01*
G01*
X42830000Y-85346250D01*
G75*
G02*
X42611250Y-85565000I-218750J0D01*
G01*
X42173750Y-85565000D01*
G75*
G02*
X41955000Y-85346250I0J218750D01*
G01*
G37*
G36*
G01*
X43530000Y-85346250D02*
X43530000Y-84833750D01*
G75*
G02*
X43748750Y-84615000I218750J0D01*
G01*
X44186250Y-84615000D01*
G75*
G02*
X44405000Y-84833750I0J-218750D01*
G01*
X44405000Y-85346250D01*
G75*
G02*
X44186250Y-85565000I-218750J0D01*
G01*
X43748750Y-85565000D01*
G75*
G02*
X43530000Y-85346250I0J218750D01*
G01*
G37*
%TD*%
D14*
%TO.C,12V in*%
X52705000Y-86360000D03*
G36*
G01*
X53705000Y-93860000D02*
X51705000Y-93860000D01*
G75*
G02*
X50955000Y-93110000I0J750000D01*
G01*
X50955000Y-91610000D01*
G75*
G02*
X51705000Y-90860000I750000J0D01*
G01*
X53705000Y-90860000D01*
G75*
G02*
X54455000Y-91610000I0J-750000D01*
G01*
X54455000Y-93110000D01*
G75*
G02*
X53705000Y-93860000I-750000J0D01*
G01*
G37*
G36*
G01*
X58280000Y-91110000D02*
X56530000Y-91110000D01*
G75*
G02*
X55655000Y-90235000I0J875000D01*
G01*
X55655000Y-88485000D01*
G75*
G02*
X56530000Y-87610000I875000J0D01*
G01*
X58280000Y-87610000D01*
G75*
G02*
X59155000Y-88485000I0J-875000D01*
G01*
X59155000Y-90235000D01*
G75*
G02*
X58280000Y-91110000I-875000J0D01*
G01*
G37*
%TD*%
D15*
%TO.C,Raspberry Pi header*%
X49530000Y-45720000D03*
D16*
X49530000Y-43180000D03*
X52070000Y-45720000D03*
X52070000Y-43180000D03*
X54610000Y-45720000D03*
X54610000Y-43180000D03*
X57150000Y-45720000D03*
X57150000Y-43180000D03*
X59690000Y-45720000D03*
X59690000Y-43180000D03*
X62230000Y-45720000D03*
X62230000Y-43180000D03*
X64770000Y-45720000D03*
X64770000Y-43180000D03*
X67310000Y-45720000D03*
X67310000Y-43180000D03*
X69850000Y-45720000D03*
X69850000Y-43180000D03*
X72390000Y-45720000D03*
X72390000Y-43180000D03*
X74930000Y-45720000D03*
X74930000Y-43180000D03*
X77470000Y-45720000D03*
X77470000Y-43180000D03*
X80010000Y-45720000D03*
X80010000Y-43180000D03*
X82550000Y-45720000D03*
X82550000Y-43180000D03*
X85090000Y-45720000D03*
X85090000Y-43180000D03*
X87630000Y-45720000D03*
X87630000Y-43180000D03*
X90170000Y-45720000D03*
X90170000Y-43180000D03*
X92710000Y-45720000D03*
X92710000Y-43180000D03*
X95250000Y-45720000D03*
X95250000Y-43180000D03*
X97790000Y-45720000D03*
X97790000Y-43180000D03*
%TD*%
%TO.C,Trigger*%
G36*
G01*
X45930001Y-52940000D02*
X44239999Y-52940000D01*
G75*
G02*
X43990000Y-52690001I0J249999D01*
G01*
X43990000Y-51449999D01*
G75*
G02*
X44239999Y-51200000I249999J0D01*
G01*
X45930001Y-51200000D01*
G75*
G02*
X46180000Y-51449999I0J-249999D01*
G01*
X46180000Y-52690001D01*
G75*
G02*
X45930001Y-52940000I-249999J0D01*
G01*
G37*
D17*
X45085000Y-49530000D03*
%TD*%
%TO.C,Side*%
X45085000Y-55880000D03*
G36*
G01*
X45930001Y-59290000D02*
X44239999Y-59290000D01*
G75*
G02*
X43990000Y-59040001I0J249999D01*
G01*
X43990000Y-57799999D01*
G75*
G02*
X44239999Y-57550000I249999J0D01*
G01*
X45930001Y-57550000D01*
G75*
G02*
X46180000Y-57799999I0J-249999D01*
G01*
X46180000Y-59040001D01*
G75*
G02*
X45930001Y-59290000I-249999J0D01*
G01*
G37*
%TD*%
%TO.C,A*%
G36*
G01*
X45930001Y-65640000D02*
X44239999Y-65640000D01*
G75*
G02*
X43990000Y-65390001I0J249999D01*
G01*
X43990000Y-64149999D01*
G75*
G02*
X44239999Y-63900000I249999J0D01*
G01*
X45930001Y-63900000D01*
G75*
G02*
X46180000Y-64149999I0J-249999D01*
G01*
X46180000Y-65390001D01*
G75*
G02*
X45930001Y-65640000I-249999J0D01*
G01*
G37*
X45085000Y-62230000D03*
%TD*%
%TO.C,B*%
X45085000Y-68580000D03*
G36*
G01*
X45930001Y-71990000D02*
X44239999Y-71990000D01*
G75*
G02*
X43990000Y-71740001I0J249999D01*
G01*
X43990000Y-70499999D01*
G75*
G02*
X44239999Y-70250000I249999J0D01*
G01*
X45930001Y-70250000D01*
G75*
G02*
X46180000Y-70499999I0J-249999D01*
G01*
X46180000Y-71740001D01*
G75*
G02*
X45930001Y-71990000I-249999J0D01*
G01*
G37*
%TD*%
%TO.C,J7*%
G36*
G01*
X124035001Y-63100000D02*
X122344999Y-63100000D01*
G75*
G02*
X122095000Y-62850001I0J249999D01*
G01*
X122095000Y-61609999D01*
G75*
G02*
X122344999Y-61360000I249999J0D01*
G01*
X124035001Y-61360000D01*
G75*
G02*
X124285000Y-61609999I0J-249999D01*
G01*
X124285000Y-62850001D01*
G75*
G02*
X124035001Y-63100000I-249999J0D01*
G01*
G37*
X123190000Y-59690000D03*
X123190000Y-57150000D03*
X123190000Y-54610000D03*
%TD*%
%TO.C,I2C periph*%
G36*
G01*
X117050001Y-63100000D02*
X115359999Y-63100000D01*
G75*
G02*
X115110000Y-62850001I0J249999D01*
G01*
X115110000Y-61609999D01*
G75*
G02*
X115359999Y-61360000I249999J0D01*
G01*
X117050001Y-61360000D01*
G75*
G02*
X117300000Y-61609999I0J-249999D01*
G01*
X117300000Y-62850001D01*
G75*
G02*
X117050001Y-63100000I-249999J0D01*
G01*
G37*
X116205000Y-59690000D03*
X116205000Y-57150000D03*
X116205000Y-54610000D03*
%TD*%
%TO.C,I2C motor*%
X116205000Y-43180000D03*
X116205000Y-45720000D03*
X116205000Y-48260000D03*
G36*
G01*
X117050001Y-51670000D02*
X115359999Y-51670000D01*
G75*
G02*
X115110000Y-51420001I0J249999D01*
G01*
X115110000Y-50179999D01*
G75*
G02*
X115359999Y-49930000I249999J0D01*
G01*
X117050001Y-49930000D01*
G75*
G02*
X117300000Y-50179999I0J-249999D01*
G01*
X117300000Y-51420001D01*
G75*
G02*
X117050001Y-51670000I-249999J0D01*
G01*
G37*
%TD*%
%TO.C,J10*%
X123190000Y-43180000D03*
X123190000Y-45720000D03*
X123190000Y-48260000D03*
G36*
G01*
X124035001Y-51670000D02*
X122344999Y-51670000D01*
G75*
G02*
X122095000Y-51420001I0J249999D01*
G01*
X122095000Y-50179999D01*
G75*
G02*
X122344999Y-49930000I249999J0D01*
G01*
X124035001Y-49930000D01*
G75*
G02*
X124285000Y-50179999I0J-249999D01*
G01*
X124285000Y-51420001D01*
G75*
G02*
X124035001Y-51670000I-249999J0D01*
G01*
G37*
%TD*%
D18*
%TO.C,L1*%
X50930000Y-67945000D03*
X60830000Y-67945000D03*
%TD*%
%TO.C,R1*%
G36*
G01*
X49795000Y-81905001D02*
X49795000Y-80654999D01*
G75*
G02*
X50044999Y-80405000I249999J0D01*
G01*
X50670001Y-80405000D01*
G75*
G02*
X50920000Y-80654999I0J-249999D01*
G01*
X50920000Y-81905001D01*
G75*
G02*
X50670001Y-82155000I-249999J0D01*
G01*
X50044999Y-82155000D01*
G75*
G02*
X49795000Y-81905001I0J249999D01*
G01*
G37*
G36*
G01*
X46870000Y-81905001D02*
X46870000Y-80654999D01*
G75*
G02*
X47119999Y-80405000I249999J0D01*
G01*
X47745001Y-80405000D01*
G75*
G02*
X47995000Y-80654999I0J-249999D01*
G01*
X47995000Y-81905001D01*
G75*
G02*
X47745001Y-82155000I-249999J0D01*
G01*
X47119999Y-82155000D01*
G75*
G02*
X46870000Y-81905001I0J249999D01*
G01*
G37*
%TD*%
%TO.C,R2*%
G36*
G01*
X114944999Y-65285000D02*
X116195001Y-65285000D01*
G75*
G02*
X116445000Y-65534999I0J-249999D01*
G01*
X116445000Y-66160001D01*
G75*
G02*
X116195001Y-66410000I-249999J0D01*
G01*
X114944999Y-66410000D01*
G75*
G02*
X114695000Y-66160001I0J249999D01*
G01*
X114695000Y-65534999D01*
G75*
G02*
X114944999Y-65285000I249999J0D01*
G01*
G37*
G36*
G01*
X114944999Y-68210000D02*
X116195001Y-68210000D01*
G75*
G02*
X116445000Y-68459999I0J-249999D01*
G01*
X116445000Y-69085001D01*
G75*
G02*
X116195001Y-69335000I-249999J0D01*
G01*
X114944999Y-69335000D01*
G75*
G02*
X114695000Y-69085001I0J249999D01*
G01*
X114695000Y-68459999D01*
G75*
G02*
X114944999Y-68210000I249999J0D01*
G01*
G37*
%TD*%
%TO.C,R3*%
G36*
G01*
X49650000Y-83194999D02*
X49650000Y-84445001D01*
G75*
G02*
X49400001Y-84695000I-249999J0D01*
G01*
X48774999Y-84695000D01*
G75*
G02*
X48525000Y-84445001I0J249999D01*
G01*
X48525000Y-83194999D01*
G75*
G02*
X48774999Y-82945000I249999J0D01*
G01*
X49400001Y-82945000D01*
G75*
G02*
X49650000Y-83194999I0J-249999D01*
G01*
G37*
G36*
G01*
X46725000Y-83194999D02*
X46725000Y-84445001D01*
G75*
G02*
X46475001Y-84695000I-249999J0D01*
G01*
X45849999Y-84695000D01*
G75*
G02*
X45600000Y-84445001I0J249999D01*
G01*
X45600000Y-83194999D01*
G75*
G02*
X45849999Y-82945000I249999J0D01*
G01*
X46475001Y-82945000D01*
G75*
G02*
X46725000Y-83194999I0J-249999D01*
G01*
G37*
%TD*%
%TO.C,R4*%
G36*
G01*
X46980001Y-86730000D02*
X45729999Y-86730000D01*
G75*
G02*
X45480000Y-86480001I0J249999D01*
G01*
X45480000Y-85854999D01*
G75*
G02*
X45729999Y-85605000I249999J0D01*
G01*
X46980001Y-85605000D01*
G75*
G02*
X47230000Y-85854999I0J-249999D01*
G01*
X47230000Y-86480001D01*
G75*
G02*
X46980001Y-86730000I-249999J0D01*
G01*
G37*
G36*
G01*
X46980001Y-89655000D02*
X45729999Y-89655000D01*
G75*
G02*
X45480000Y-89405001I0J249999D01*
G01*
X45480000Y-88779999D01*
G75*
G02*
X45729999Y-88530000I249999J0D01*
G01*
X46980001Y-88530000D01*
G75*
G02*
X47230000Y-88779999I0J-249999D01*
G01*
X47230000Y-89405001D01*
G75*
G02*
X46980001Y-89655000I-249999J0D01*
G01*
G37*
%TD*%
%TO.C,R5*%
G36*
G01*
X110120000Y-55870001D02*
X110120000Y-54619999D01*
G75*
G02*
X110369999Y-54370000I249999J0D01*
G01*
X110995001Y-54370000D01*
G75*
G02*
X111245000Y-54619999I0J-249999D01*
G01*
X111245000Y-55870001D01*
G75*
G02*
X110995001Y-56120000I-249999J0D01*
G01*
X110369999Y-56120000D01*
G75*
G02*
X110120000Y-55870001I0J249999D01*
G01*
G37*
G36*
G01*
X107195000Y-55870001D02*
X107195000Y-54619999D01*
G75*
G02*
X107444999Y-54370000I249999J0D01*
G01*
X108070001Y-54370000D01*
G75*
G02*
X108320000Y-54619999I0J-249999D01*
G01*
X108320000Y-55870001D01*
G75*
G02*
X108070001Y-56120000I-249999J0D01*
G01*
X107444999Y-56120000D01*
G75*
G02*
X107195000Y-55870001I0J249999D01*
G01*
G37*
%TD*%
%TO.C,R6*%
G36*
G01*
X107195000Y-45075001D02*
X107195000Y-43824999D01*
G75*
G02*
X107444999Y-43575000I249999J0D01*
G01*
X108070001Y-43575000D01*
G75*
G02*
X108320000Y-43824999I0J-249999D01*
G01*
X108320000Y-45075001D01*
G75*
G02*
X108070001Y-45325000I-249999J0D01*
G01*
X107444999Y-45325000D01*
G75*
G02*
X107195000Y-45075001I0J249999D01*
G01*
G37*
G36*
G01*
X110120000Y-45075001D02*
X110120000Y-43824999D01*
G75*
G02*
X110369999Y-43575000I249999J0D01*
G01*
X110995001Y-43575000D01*
G75*
G02*
X111245000Y-43824999I0J-249999D01*
G01*
X111245000Y-45075001D01*
G75*
G02*
X110995001Y-45325000I-249999J0D01*
G01*
X110369999Y-45325000D01*
G75*
G02*
X110120000Y-45075001I0J249999D01*
G01*
G37*
%TD*%
D19*
%TO.C,RESET*%
X61445000Y-93980000D03*
X61445000Y-89480000D03*
X67945000Y-93980000D03*
X67945000Y-89480000D03*
%TD*%
%TO.C,BOOT*%
X71120000Y-94035000D03*
X71120000Y-89535000D03*
X77620000Y-94035000D03*
X77620000Y-89535000D03*
%TD*%
D20*
%TO.C,U1*%
X60900000Y-77245000D03*
X60900000Y-78945000D03*
X60900000Y-80645000D03*
X60900000Y-82345000D03*
X60900000Y-84045000D03*
D21*
X70050000Y-80645000D03*
%TD*%
D22*
%TO.C,U2*%
X67310000Y-73000000D03*
D23*
X67310000Y-66700000D03*
X65010000Y-66700000D03*
X69610000Y-66700000D03*
%TD*%
D24*
%TO.C,ESP32*%
X111880000Y-79010000D03*
D25*
X119380000Y-71510000D03*
X118110000Y-71510000D03*
X116840000Y-71510000D03*
X115570000Y-71510000D03*
X114300000Y-71510000D03*
X113030000Y-71510000D03*
X111760000Y-71510000D03*
X110490000Y-71510000D03*
X109220000Y-71510000D03*
X107950000Y-71510000D03*
X106680000Y-71510000D03*
X105410000Y-71510000D03*
X104140000Y-71510000D03*
X102870000Y-71510000D03*
D26*
X101870000Y-74295000D03*
X101870000Y-75565000D03*
X101870000Y-76835000D03*
X101870000Y-78105000D03*
X101870000Y-79375000D03*
X101870000Y-80645000D03*
X101870000Y-81915000D03*
X101870000Y-83185000D03*
X101870000Y-84455000D03*
X101870000Y-85725000D03*
D25*
X102870000Y-88510000D03*
X104140000Y-88510000D03*
X105410000Y-88510000D03*
X106680000Y-88510000D03*
X107950000Y-88510000D03*
X109220000Y-88510000D03*
X110490000Y-88510000D03*
X111760000Y-88510000D03*
X113030000Y-88510000D03*
X114300000Y-88510000D03*
X115570000Y-88510000D03*
X116840000Y-88510000D03*
X118110000Y-88510000D03*
X119380000Y-88510000D03*
%TD*%
D27*
%TO.C,U4*%
X107670000Y-57670000D03*
X107670000Y-58170000D03*
X107670000Y-58670000D03*
X107670000Y-59170000D03*
X110770000Y-59170000D03*
X110770000Y-58670000D03*
X110770000Y-58170000D03*
X110770000Y-57670000D03*
%TD*%
%TO.C,U5*%
X110770000Y-46875000D03*
X110770000Y-47375000D03*
X110770000Y-47875000D03*
X110770000Y-48375000D03*
X107670000Y-48375000D03*
X107670000Y-47875000D03*
X107670000Y-47375000D03*
X107670000Y-46875000D03*
%TD*%
%TO.C,U6*%
G36*
G01*
X85115001Y-59915001D02*
X85115001Y-59765001D01*
G75*
G02*
X85190001Y-59690001I75000J0D01*
G01*
X85890001Y-59690001D01*
G75*
G02*
X85965001Y-59765001I0J-75000D01*
G01*
X85965001Y-59915001D01*
G75*
G02*
X85890001Y-59990001I-75000J0D01*
G01*
X85190001Y-59990001D01*
G75*
G02*
X85115001Y-59915001I0J75000D01*
G01*
G37*
G36*
G01*
X85115001Y-60415001D02*
X85115001Y-60265001D01*
G75*
G02*
X85190001Y-60190001I75000J0D01*
G01*
X85890001Y-60190001D01*
G75*
G02*
X85965001Y-60265001I0J-75000D01*
G01*
X85965001Y-60415001D01*
G75*
G02*
X85890001Y-60490001I-75000J0D01*
G01*
X85190001Y-60490001D01*
G75*
G02*
X85115001Y-60415001I0J75000D01*
G01*
G37*
G36*
G01*
X85115001Y-60915001D02*
X85115001Y-60765001D01*
G75*
G02*
X85190001Y-60690001I75000J0D01*
G01*
X85890001Y-60690001D01*
G75*
G02*
X85965001Y-60765001I0J-75000D01*
G01*
X85965001Y-60915001D01*
G75*
G02*
X85890001Y-60990001I-75000J0D01*
G01*
X85190001Y-60990001D01*
G75*
G02*
X85115001Y-60915001I0J75000D01*
G01*
G37*
G36*
G01*
X85115001Y-61415001D02*
X85115001Y-61265001D01*
G75*
G02*
X85190001Y-61190001I75000J0D01*
G01*
X85890001Y-61190001D01*
G75*
G02*
X85965001Y-61265001I0J-75000D01*
G01*
X85965001Y-61415001D01*
G75*
G02*
X85890001Y-61490001I-75000J0D01*
G01*
X85190001Y-61490001D01*
G75*
G02*
X85115001Y-61415001I0J75000D01*
G01*
G37*
G36*
G01*
X85115001Y-61915001D02*
X85115001Y-61765001D01*
G75*
G02*
X85190001Y-61690001I75000J0D01*
G01*
X85890001Y-61690001D01*
G75*
G02*
X85965001Y-61765001I0J-75000D01*
G01*
X85965001Y-61915001D01*
G75*
G02*
X85890001Y-61990001I-75000J0D01*
G01*
X85190001Y-61990001D01*
G75*
G02*
X85115001Y-61915001I0J75000D01*
G01*
G37*
G36*
G01*
X85115001Y-62415001D02*
X85115001Y-62265001D01*
G75*
G02*
X85190001Y-62190001I75000J0D01*
G01*
X85890001Y-62190001D01*
G75*
G02*
X85965001Y-62265001I0J-75000D01*
G01*
X85965001Y-62415001D01*
G75*
G02*
X85890001Y-62490001I-75000J0D01*
G01*
X85190001Y-62490001D01*
G75*
G02*
X85115001Y-62415001I0J75000D01*
G01*
G37*
G36*
G01*
X86315001Y-63465001D02*
X86165001Y-63465001D01*
G75*
G02*
X86090001Y-63390001I0J75000D01*
G01*
X86090001Y-62690001D01*
G75*
G02*
X86165001Y-62615001I75000J0D01*
G01*
X86315001Y-62615001D01*
G75*
G02*
X86390001Y-62690001I0J-75000D01*
G01*
X86390001Y-63390001D01*
G75*
G02*
X86315001Y-63465001I-75000J0D01*
G01*
G37*
G36*
G01*
X86815001Y-63465001D02*
X86665001Y-63465001D01*
G75*
G02*
X86590001Y-63390001I0J75000D01*
G01*
X86590001Y-62690001D01*
G75*
G02*
X86665001Y-62615001I75000J0D01*
G01*
X86815001Y-62615001D01*
G75*
G02*
X86890001Y-62690001I0J-75000D01*
G01*
X86890001Y-63390001D01*
G75*
G02*
X86815001Y-63465001I-75000J0D01*
G01*
G37*
G36*
G01*
X87315001Y-63465001D02*
X87165001Y-63465001D01*
G75*
G02*
X87090001Y-63390001I0J75000D01*
G01*
X87090001Y-62690001D01*
G75*
G02*
X87165001Y-62615001I75000J0D01*
G01*
X87315001Y-62615001D01*
G75*
G02*
X87390001Y-62690001I0J-75000D01*
G01*
X87390001Y-63390001D01*
G75*
G02*
X87315001Y-63465001I-75000J0D01*
G01*
G37*
G36*
G01*
X87815001Y-63465001D02*
X87665001Y-63465001D01*
G75*
G02*
X87590001Y-63390001I0J75000D01*
G01*
X87590001Y-62690001D01*
G75*
G02*
X87665001Y-62615001I75000J0D01*
G01*
X87815001Y-62615001D01*
G75*
G02*
X87890001Y-62690001I0J-75000D01*
G01*
X87890001Y-63390001D01*
G75*
G02*
X87815001Y-63465001I-75000J0D01*
G01*
G37*
G36*
G01*
X88315001Y-63465001D02*
X88165001Y-63465001D01*
G75*
G02*
X88090001Y-63390001I0J75000D01*
G01*
X88090001Y-62690001D01*
G75*
G02*
X88165001Y-62615001I75000J0D01*
G01*
X88315001Y-62615001D01*
G75*
G02*
X88390001Y-62690001I0J-75000D01*
G01*
X88390001Y-63390001D01*
G75*
G02*
X88315001Y-63465001I-75000J0D01*
G01*
G37*
G36*
G01*
X88815001Y-63465001D02*
X88665001Y-63465001D01*
G75*
G02*
X88590001Y-63390001I0J75000D01*
G01*
X88590001Y-62690001D01*
G75*
G02*
X88665001Y-62615001I75000J0D01*
G01*
X88815001Y-62615001D01*
G75*
G02*
X88890001Y-62690001I0J-75000D01*
G01*
X88890001Y-63390001D01*
G75*
G02*
X88815001Y-63465001I-75000J0D01*
G01*
G37*
G36*
G01*
X89015001Y-62415001D02*
X89015001Y-62265001D01*
G75*
G02*
X89090001Y-62190001I75000J0D01*
G01*
X89790001Y-62190001D01*
G75*
G02*
X89865001Y-62265001I0J-75000D01*
G01*
X89865001Y-62415001D01*
G75*
G02*
X89790001Y-62490001I-75000J0D01*
G01*
X89090001Y-62490001D01*
G75*
G02*
X89015001Y-62415001I0J75000D01*
G01*
G37*
G36*
G01*
X89015001Y-61915001D02*
X89015001Y-61765001D01*
G75*
G02*
X89090001Y-61690001I75000J0D01*
G01*
X89790001Y-61690001D01*
G75*
G02*
X89865001Y-61765001I0J-75000D01*
G01*
X89865001Y-61915001D01*
G75*
G02*
X89790001Y-61990001I-75000J0D01*
G01*
X89090001Y-61990001D01*
G75*
G02*
X89015001Y-61915001I0J75000D01*
G01*
G37*
G36*
G01*
X89015001Y-61415001D02*
X89015001Y-61265001D01*
G75*
G02*
X89090001Y-61190001I75000J0D01*
G01*
X89790001Y-61190001D01*
G75*
G02*
X89865001Y-61265001I0J-75000D01*
G01*
X89865001Y-61415001D01*
G75*
G02*
X89790001Y-61490001I-75000J0D01*
G01*
X89090001Y-61490001D01*
G75*
G02*
X89015001Y-61415001I0J75000D01*
G01*
G37*
G36*
G01*
X89015001Y-60915001D02*
X89015001Y-60765001D01*
G75*
G02*
X89090001Y-60690001I75000J0D01*
G01*
X89790001Y-60690001D01*
G75*
G02*
X89865001Y-60765001I0J-75000D01*
G01*
X89865001Y-60915001D01*
G75*
G02*
X89790001Y-60990001I-75000J0D01*
G01*
X89090001Y-60990001D01*
G75*
G02*
X89015001Y-60915001I0J75000D01*
G01*
G37*
G36*
G01*
X89015001Y-60415001D02*
X89015001Y-60265001D01*
G75*
G02*
X89090001Y-60190001I75000J0D01*
G01*
X89790001Y-60190001D01*
G75*
G02*
X89865001Y-60265001I0J-75000D01*
G01*
X89865001Y-60415001D01*
G75*
G02*
X89790001Y-60490001I-75000J0D01*
G01*
X89090001Y-60490001D01*
G75*
G02*
X89015001Y-60415001I0J75000D01*
G01*
G37*
G36*
G01*
X89015001Y-59915001D02*
X89015001Y-59765001D01*
G75*
G02*
X89090001Y-59690001I75000J0D01*
G01*
X89790001Y-59690001D01*
G75*
G02*
X89865001Y-59765001I0J-75000D01*
G01*
X89865001Y-59915001D01*
G75*
G02*
X89790001Y-59990001I-75000J0D01*
G01*
X89090001Y-59990001D01*
G75*
G02*
X89015001Y-59915001I0J75000D01*
G01*
G37*
G36*
G01*
X88815001Y-59565001D02*
X88665001Y-59565001D01*
G75*
G02*
X88590001Y-59490001I0J75000D01*
G01*
X88590001Y-58790001D01*
G75*
G02*
X88665001Y-58715001I75000J0D01*
G01*
X88815001Y-58715001D01*
G75*
G02*
X88890001Y-58790001I0J-75000D01*
G01*
X88890001Y-59490001D01*
G75*
G02*
X88815001Y-59565001I-75000J0D01*
G01*
G37*
G36*
G01*
X88315001Y-59565001D02*
X88165001Y-59565001D01*
G75*
G02*
X88090001Y-59490001I0J75000D01*
G01*
X88090001Y-58790001D01*
G75*
G02*
X88165001Y-58715001I75000J0D01*
G01*
X88315001Y-58715001D01*
G75*
G02*
X88390001Y-58790001I0J-75000D01*
G01*
X88390001Y-59490001D01*
G75*
G02*
X88315001Y-59565001I-75000J0D01*
G01*
G37*
G36*
G01*
X87815001Y-59565001D02*
X87665001Y-59565001D01*
G75*
G02*
X87590001Y-59490001I0J75000D01*
G01*
X87590001Y-58790001D01*
G75*
G02*
X87665001Y-58715001I75000J0D01*
G01*
X87815001Y-58715001D01*
G75*
G02*
X87890001Y-58790001I0J-75000D01*
G01*
X87890001Y-59490001D01*
G75*
G02*
X87815001Y-59565001I-75000J0D01*
G01*
G37*
G36*
G01*
X87315001Y-59565001D02*
X87165001Y-59565001D01*
G75*
G02*
X87090001Y-59490001I0J75000D01*
G01*
X87090001Y-58790001D01*
G75*
G02*
X87165001Y-58715001I75000J0D01*
G01*
X87315001Y-58715001D01*
G75*
G02*
X87390001Y-58790001I0J-75000D01*
G01*
X87390001Y-59490001D01*
G75*
G02*
X87315001Y-59565001I-75000J0D01*
G01*
G37*
G36*
G01*
X86815001Y-59565001D02*
X86665001Y-59565001D01*
G75*
G02*
X86590001Y-59490001I0J75000D01*
G01*
X86590001Y-58790001D01*
G75*
G02*
X86665001Y-58715001I75000J0D01*
G01*
X86815001Y-58715001D01*
G75*
G02*
X86890001Y-58790001I0J-75000D01*
G01*
X86890001Y-59490001D01*
G75*
G02*
X86815001Y-59565001I-75000J0D01*
G01*
G37*
G36*
G01*
X86315001Y-59565001D02*
X86165001Y-59565001D01*
G75*
G02*
X86090001Y-59490001I0J75000D01*
G01*
X86090001Y-58790001D01*
G75*
G02*
X86165001Y-58715001I75000J0D01*
G01*
X86315001Y-58715001D01*
G75*
G02*
X86390001Y-58790001I0J-75000D01*
G01*
X86390001Y-59490001D01*
G75*
G02*
X86315001Y-59565001I-75000J0D01*
G01*
G37*
%TD*%
%TO.C,JTAG*%
G36*
G01*
X88685000Y-78070000D02*
X88685000Y-76870000D01*
G75*
G02*
X88935000Y-76620000I250000J0D01*
G01*
X90135000Y-76620000D01*
G75*
G02*
X90385000Y-76870000I0J-250000D01*
G01*
X90385000Y-78070000D01*
G75*
G02*
X90135000Y-78320000I-250000J0D01*
G01*
X88935000Y-78320000D01*
G75*
G02*
X88685000Y-78070000I0J250000D01*
G01*
G37*
D28*
X89535000Y-80010000D03*
X89535000Y-82550000D03*
X89535000Y-85090000D03*
X89535000Y-87630000D03*
X92075000Y-77470000D03*
X92075000Y-80010000D03*
X92075000Y-82550000D03*
X92075000Y-85090000D03*
X92075000Y-87630000D03*
%TD*%
%TO.C,UART*%
G36*
G01*
X80220001Y-85960000D02*
X78529999Y-85960000D01*
G75*
G02*
X78280000Y-85710001I0J249999D01*
G01*
X78280000Y-84469999D01*
G75*
G02*
X78529999Y-84220000I249999J0D01*
G01*
X80220001Y-84220000D01*
G75*
G02*
X80470000Y-84469999I0J-249999D01*
G01*
X80470000Y-85710001D01*
G75*
G02*
X80220001Y-85960000I-249999J0D01*
G01*
G37*
D17*
X79375000Y-82550000D03*
X79375000Y-80010000D03*
X79375000Y-77470000D03*
%TD*%
M02*
