%TF.GenerationSoftware,KiCad,Pcbnew,5.1.9+dfsg1-1*%
%TF.CreationDate,2021-09-29T19:21:48+02:00*%
%TF.ProjectId,main_board,6d61696e-5f62-46f6-9172-642e6b696361,rev?*%
%TF.SameCoordinates,Original*%
%TF.FileFunction,Soldermask,Bot*%
%TF.FilePolarity,Negative*%
%FSLAX46Y46*%
G04 Gerber Fmt 4.6, Leading zero omitted, Abs format (unit mm)*
G04 Created by KiCad (PCBNEW 5.1.9+dfsg1-1) date 2021-09-29 19:21:48*
%MOMM*%
%LPD*%
G01*
G04 APERTURE LIST*
%ADD10C,2.700000*%
%ADD11R,1.600000X1.600000*%
%ADD12C,1.600000*%
%ADD13R,3.500000X3.500000*%
%ADD14R,1.700000X1.700000*%
%ADD15O,1.700000X1.700000*%
%ADD16O,2.190000X1.740000*%
%ADD17C,2.000000*%
%ADD18C,1.700000*%
G04 APERTURE END LIST*
D10*
%TO.C,REF\u002A\u002A*%
X82550000Y-93345000D03*
%TD*%
%TO.C,REF\u002A\u002A*%
X44450000Y-93345000D03*
%TD*%
%TO.C,REF\u002A\u002A*%
X102870000Y-44450000D03*
%TD*%
%TO.C,REF\u002A\u002A*%
X44450000Y-44450000D03*
%TD*%
D11*
%TO.C,C1*%
X45085000Y-78105000D03*
D12*
X45085000Y-75605000D03*
%TD*%
%TO.C,C2*%
X67905000Y-60960000D03*
D11*
X65405000Y-60960000D03*
%TD*%
%TO.C,C5*%
X109220000Y-67310000D03*
D12*
X109220000Y-64810000D03*
%TD*%
D13*
%TO.C,12V in*%
X52705000Y-86360000D03*
G36*
G01*
X53705000Y-93860000D02*
X51705000Y-93860000D01*
G75*
G02*
X50955000Y-93110000I0J750000D01*
G01*
X50955000Y-91610000D01*
G75*
G02*
X51705000Y-90860000I750000J0D01*
G01*
X53705000Y-90860000D01*
G75*
G02*
X54455000Y-91610000I0J-750000D01*
G01*
X54455000Y-93110000D01*
G75*
G02*
X53705000Y-93860000I-750000J0D01*
G01*
G37*
G36*
G01*
X58280000Y-91110000D02*
X56530000Y-91110000D01*
G75*
G02*
X55655000Y-90235000I0J875000D01*
G01*
X55655000Y-88485000D01*
G75*
G02*
X56530000Y-87610000I875000J0D01*
G01*
X58280000Y-87610000D01*
G75*
G02*
X59155000Y-88485000I0J-875000D01*
G01*
X59155000Y-90235000D01*
G75*
G02*
X58280000Y-91110000I-875000J0D01*
G01*
G37*
%TD*%
D14*
%TO.C,Raspberry Pi header*%
X49530000Y-45720000D03*
D15*
X49530000Y-43180000D03*
X52070000Y-45720000D03*
X52070000Y-43180000D03*
X54610000Y-45720000D03*
X54610000Y-43180000D03*
X57150000Y-45720000D03*
X57150000Y-43180000D03*
X59690000Y-45720000D03*
X59690000Y-43180000D03*
X62230000Y-45720000D03*
X62230000Y-43180000D03*
X64770000Y-45720000D03*
X64770000Y-43180000D03*
X67310000Y-45720000D03*
X67310000Y-43180000D03*
X69850000Y-45720000D03*
X69850000Y-43180000D03*
X72390000Y-45720000D03*
X72390000Y-43180000D03*
X74930000Y-45720000D03*
X74930000Y-43180000D03*
X77470000Y-45720000D03*
X77470000Y-43180000D03*
X80010000Y-45720000D03*
X80010000Y-43180000D03*
X82550000Y-45720000D03*
X82550000Y-43180000D03*
X85090000Y-45720000D03*
X85090000Y-43180000D03*
X87630000Y-45720000D03*
X87630000Y-43180000D03*
X90170000Y-45720000D03*
X90170000Y-43180000D03*
X92710000Y-45720000D03*
X92710000Y-43180000D03*
X95250000Y-45720000D03*
X95250000Y-43180000D03*
X97790000Y-45720000D03*
X97790000Y-43180000D03*
%TD*%
%TO.C,Trigger*%
G36*
G01*
X45930001Y-52940000D02*
X44239999Y-52940000D01*
G75*
G02*
X43990000Y-52690001I0J249999D01*
G01*
X43990000Y-51449999D01*
G75*
G02*
X44239999Y-51200000I249999J0D01*
G01*
X45930001Y-51200000D01*
G75*
G02*
X46180000Y-51449999I0J-249999D01*
G01*
X46180000Y-52690001D01*
G75*
G02*
X45930001Y-52940000I-249999J0D01*
G01*
G37*
D16*
X45085000Y-49530000D03*
%TD*%
%TO.C,Side*%
X45085000Y-55880000D03*
G36*
G01*
X45930001Y-59290000D02*
X44239999Y-59290000D01*
G75*
G02*
X43990000Y-59040001I0J249999D01*
G01*
X43990000Y-57799999D01*
G75*
G02*
X44239999Y-57550000I249999J0D01*
G01*
X45930001Y-57550000D01*
G75*
G02*
X46180000Y-57799999I0J-249999D01*
G01*
X46180000Y-59040001D01*
G75*
G02*
X45930001Y-59290000I-249999J0D01*
G01*
G37*
%TD*%
%TO.C,A*%
G36*
G01*
X45930001Y-65640000D02*
X44239999Y-65640000D01*
G75*
G02*
X43990000Y-65390001I0J249999D01*
G01*
X43990000Y-64149999D01*
G75*
G02*
X44239999Y-63900000I249999J0D01*
G01*
X45930001Y-63900000D01*
G75*
G02*
X46180000Y-64149999I0J-249999D01*
G01*
X46180000Y-65390001D01*
G75*
G02*
X45930001Y-65640000I-249999J0D01*
G01*
G37*
X45085000Y-62230000D03*
%TD*%
%TO.C,B*%
X45085000Y-68580000D03*
G36*
G01*
X45930001Y-71990000D02*
X44239999Y-71990000D01*
G75*
G02*
X43990000Y-71740001I0J249999D01*
G01*
X43990000Y-70499999D01*
G75*
G02*
X44239999Y-70250000I249999J0D01*
G01*
X45930001Y-70250000D01*
G75*
G02*
X46180000Y-70499999I0J-249999D01*
G01*
X46180000Y-71740001D01*
G75*
G02*
X45930001Y-71990000I-249999J0D01*
G01*
G37*
%TD*%
%TO.C,J7*%
G36*
G01*
X124035001Y-63100000D02*
X122344999Y-63100000D01*
G75*
G02*
X122095000Y-62850001I0J249999D01*
G01*
X122095000Y-61609999D01*
G75*
G02*
X122344999Y-61360000I249999J0D01*
G01*
X124035001Y-61360000D01*
G75*
G02*
X124285000Y-61609999I0J-249999D01*
G01*
X124285000Y-62850001D01*
G75*
G02*
X124035001Y-63100000I-249999J0D01*
G01*
G37*
X123190000Y-59690000D03*
X123190000Y-57150000D03*
X123190000Y-54610000D03*
%TD*%
%TO.C,I2C periph*%
G36*
G01*
X117050001Y-63100000D02*
X115359999Y-63100000D01*
G75*
G02*
X115110000Y-62850001I0J249999D01*
G01*
X115110000Y-61609999D01*
G75*
G02*
X115359999Y-61360000I249999J0D01*
G01*
X117050001Y-61360000D01*
G75*
G02*
X117300000Y-61609999I0J-249999D01*
G01*
X117300000Y-62850001D01*
G75*
G02*
X117050001Y-63100000I-249999J0D01*
G01*
G37*
X116205000Y-59690000D03*
X116205000Y-57150000D03*
X116205000Y-54610000D03*
%TD*%
%TO.C,I2C motor*%
X116205000Y-43180000D03*
X116205000Y-45720000D03*
X116205000Y-48260000D03*
G36*
G01*
X117050001Y-51670000D02*
X115359999Y-51670000D01*
G75*
G02*
X115110000Y-51420001I0J249999D01*
G01*
X115110000Y-50179999D01*
G75*
G02*
X115359999Y-49930000I249999J0D01*
G01*
X117050001Y-49930000D01*
G75*
G02*
X117300000Y-50179999I0J-249999D01*
G01*
X117300000Y-51420001D01*
G75*
G02*
X117050001Y-51670000I-249999J0D01*
G01*
G37*
%TD*%
%TO.C,J10*%
X123190000Y-43180000D03*
X123190000Y-45720000D03*
X123190000Y-48260000D03*
G36*
G01*
X124035001Y-51670000D02*
X122344999Y-51670000D01*
G75*
G02*
X122095000Y-51420001I0J249999D01*
G01*
X122095000Y-50179999D01*
G75*
G02*
X122344999Y-49930000I249999J0D01*
G01*
X124035001Y-49930000D01*
G75*
G02*
X124285000Y-50179999I0J-249999D01*
G01*
X124285000Y-51420001D01*
G75*
G02*
X124035001Y-51670000I-249999J0D01*
G01*
G37*
%TD*%
D17*
%TO.C,RESET*%
X61445000Y-93980000D03*
X61445000Y-89480000D03*
X67945000Y-93980000D03*
X67945000Y-89480000D03*
%TD*%
%TO.C,BOOT*%
X71120000Y-94035000D03*
X71120000Y-89535000D03*
X77620000Y-94035000D03*
X77620000Y-89535000D03*
%TD*%
%TO.C,JTAG*%
G36*
G01*
X88685000Y-78070000D02*
X88685000Y-76870000D01*
G75*
G02*
X88935000Y-76620000I250000J0D01*
G01*
X90135000Y-76620000D01*
G75*
G02*
X90385000Y-76870000I0J-250000D01*
G01*
X90385000Y-78070000D01*
G75*
G02*
X90135000Y-78320000I-250000J0D01*
G01*
X88935000Y-78320000D01*
G75*
G02*
X88685000Y-78070000I0J250000D01*
G01*
G37*
D18*
X89535000Y-80010000D03*
X89535000Y-82550000D03*
X89535000Y-85090000D03*
X89535000Y-87630000D03*
X92075000Y-77470000D03*
X92075000Y-80010000D03*
X92075000Y-82550000D03*
X92075000Y-85090000D03*
X92075000Y-87630000D03*
%TD*%
%TO.C,UART*%
G36*
G01*
X80220001Y-85960000D02*
X78529999Y-85960000D01*
G75*
G02*
X78280000Y-85710001I0J249999D01*
G01*
X78280000Y-84469999D01*
G75*
G02*
X78529999Y-84220000I249999J0D01*
G01*
X80220001Y-84220000D01*
G75*
G02*
X80470000Y-84469999I0J-249999D01*
G01*
X80470000Y-85710001D01*
G75*
G02*
X80220001Y-85960000I-249999J0D01*
G01*
G37*
D16*
X79375000Y-82550000D03*
X79375000Y-80010000D03*
X79375000Y-77470000D03*
%TD*%
M02*
