M48
; DRILL file {KiCad 5.1.9+dfsg1-1} date Wed Sep 29 19:21:51 2021
; FORMAT={-:-/ absolute / inch / decimal}
; #@! TF.CreationDate,2021-09-29T19:21:51+02:00
; #@! TF.GenerationSoftware,Kicad,Pcbnew,5.1.9+dfsg1-1
; #@! TF.FileFunction,Plated,1,2,PTH
FMAT,2
INCH
T1C0.0157
T2C0.0315
T3C0.0394
T4C0.0433
T5C0.0469
%
G90
G05
T1
X1.9326Y-3.4174
X2.05Y-3.1
X2.25Y-3.325
X2.65Y-2.125
X2.675Y-2.25
X2.725Y-2.125
X2.8Y-2.25
X2.9876Y-2.8874
X3.05Y-2.125
X3.2125Y-2.1375
X3.3059Y-2.3559
X3.35Y-3.45
X3.4187Y-2.5687
X3.475Y-2.175
X3.75Y-2.15
X3.75Y-2.2
X3.85Y-3.175
X3.85Y-3.25
X3.875Y-2.75
X3.875Y-3.075
X3.9Y-3.125
X3.9Y-3.45
X3.95Y-2.75
X3.975Y-3.6238
X3.9854Y-2.7104
X4.0Y-2.625
X4.15Y-2.5
X4.1619Y-2.4119
X4.175Y-2.6465
X4.225Y-1.975
X4.225Y-2.4
X4.347Y-3.053
X4.35Y-3.175
X4.4095Y-3.1155
X4.4424Y-2.7076
X4.472Y-3.178
X4.475Y-3.05
X4.475Y-3.675
X4.55Y-3.65
X4.7124Y-2.6126
T2
X1.775Y-2.9766
X1.775Y-3.075
X2.575Y-2.4
X2.6734Y-2.4
X4.3Y-2.5516
X4.3Y-2.65
T3
X1.95Y-1.7
X1.95Y-1.8
X2.05Y-1.7
X2.05Y-1.8
X2.15Y-1.7
X2.15Y-1.8
X2.25Y-1.7
X2.25Y-1.8
X2.35Y-1.7
X2.35Y-1.8
X2.45Y-1.7
X2.45Y-1.8
X2.55Y-1.7
X2.55Y-1.8
X2.65Y-1.7
X2.65Y-1.8
X2.75Y-1.7
X2.75Y-1.8
X2.85Y-1.7
X2.85Y-1.8
X2.95Y-1.7
X2.95Y-1.8
X3.05Y-1.7
X3.05Y-1.8
X3.15Y-1.7
X3.15Y-1.8
X3.25Y-1.7
X3.25Y-1.8
X3.35Y-1.7
X3.35Y-1.8
X3.45Y-1.7
X3.45Y-1.8
X3.525Y-3.05
X3.525Y-3.15
X3.525Y-3.25
X3.525Y-3.35
X3.525Y-3.45
X3.55Y-1.7
X3.55Y-1.8
X3.625Y-3.05
X3.625Y-3.15
X3.625Y-3.25
X3.625Y-3.35
X3.625Y-3.45
X3.65Y-1.7
X3.65Y-1.8
X3.75Y-1.7
X3.75Y-1.8
X3.85Y-1.7
X3.85Y-1.8
T4
X2.4191Y-3.5228
X2.4191Y-3.7
X2.675Y-3.5228
X2.675Y-3.7
X2.8Y-3.525
X2.8Y-3.7022
X3.0559Y-3.525
X3.0559Y-3.7022
T5
X1.775Y-1.95
X1.775Y-2.05
X1.775Y-2.2
X1.775Y-2.3
X1.775Y-2.45
X1.775Y-2.55
X1.775Y-2.7
X1.775Y-2.8
X3.125Y-3.05
X3.125Y-3.15
X3.125Y-3.25
X3.125Y-3.35
X4.575Y-1.7
X4.575Y-1.8
X4.575Y-1.9
X4.575Y-2.0
X4.575Y-2.15
X4.575Y-2.25
X4.575Y-2.35
X4.575Y-2.45
X4.85Y-1.7
X4.85Y-1.8
X4.85Y-1.9
X4.85Y-2.0
X4.85Y-2.15
X4.85Y-2.25
X4.85Y-2.35
X4.85Y-2.45
T3
G00X2.0356Y-3.4
M15
G01X2.1144Y-3.4
M16
G05
G00X2.0356Y-3.6362
M15
G01X2.1144Y-3.6362
M16
G05
G00X2.26Y-3.5575
M15
G01X2.26Y-3.4787
M16
G05
T0
M30
