%TF.GenerationSoftware,KiCad,Pcbnew,5.1.9+dfsg1-1*%
%TF.CreationDate,2021-09-29T19:21:48+02:00*%
%TF.ProjectId,main_board,6d61696e-5f62-46f6-9172-642e6b696361,rev?*%
%TF.SameCoordinates,Original*%
%TF.FileFunction,Legend,Top*%
%TF.FilePolarity,Positive*%
%FSLAX46Y46*%
G04 Gerber Fmt 4.6, Leading zero omitted, Abs format (unit mm)*
G04 Created by KiCad (PCBNEW 5.1.9+dfsg1-1) date 2021-09-29 19:21:48*
%MOMM*%
%LPD*%
G01*
G04 APERTURE LIST*
%ADD10C,0.120000*%
%ADD11C,0.150000*%
G04 APERTURE END LIST*
D10*
%TO.C,C1*%
X48355000Y-76855000D02*
G75*
G03*
X48355000Y-76855000I-3270000J0D01*
G01*
X41855000Y-76855000D02*
X48315000Y-76855000D01*
X41855000Y-76815000D02*
X48315000Y-76815000D01*
X41855000Y-76775000D02*
X48315000Y-76775000D01*
X41857000Y-76735000D02*
X48313000Y-76735000D01*
X41858000Y-76695000D02*
X48312000Y-76695000D01*
X41861000Y-76655000D02*
X48309000Y-76655000D01*
X41863000Y-76615000D02*
X44045000Y-76615000D01*
X46125000Y-76615000D02*
X48307000Y-76615000D01*
X41867000Y-76575000D02*
X44045000Y-76575000D01*
X46125000Y-76575000D02*
X48303000Y-76575000D01*
X41870000Y-76535000D02*
X44045000Y-76535000D01*
X46125000Y-76535000D02*
X48300000Y-76535000D01*
X41874000Y-76495000D02*
X44045000Y-76495000D01*
X46125000Y-76495000D02*
X48296000Y-76495000D01*
X41879000Y-76455000D02*
X44045000Y-76455000D01*
X46125000Y-76455000D02*
X48291000Y-76455000D01*
X41884000Y-76415000D02*
X44045000Y-76415000D01*
X46125000Y-76415000D02*
X48286000Y-76415000D01*
X41890000Y-76375000D02*
X44045000Y-76375000D01*
X46125000Y-76375000D02*
X48280000Y-76375000D01*
X41896000Y-76335000D02*
X44045000Y-76335000D01*
X46125000Y-76335000D02*
X48274000Y-76335000D01*
X41903000Y-76295000D02*
X44045000Y-76295000D01*
X46125000Y-76295000D02*
X48267000Y-76295000D01*
X41910000Y-76255000D02*
X44045000Y-76255000D01*
X46125000Y-76255000D02*
X48260000Y-76255000D01*
X41918000Y-76215000D02*
X44045000Y-76215000D01*
X46125000Y-76215000D02*
X48252000Y-76215000D01*
X41926000Y-76175000D02*
X44045000Y-76175000D01*
X46125000Y-76175000D02*
X48244000Y-76175000D01*
X41935000Y-76134000D02*
X44045000Y-76134000D01*
X46125000Y-76134000D02*
X48235000Y-76134000D01*
X41944000Y-76094000D02*
X44045000Y-76094000D01*
X46125000Y-76094000D02*
X48226000Y-76094000D01*
X41954000Y-76054000D02*
X44045000Y-76054000D01*
X46125000Y-76054000D02*
X48216000Y-76054000D01*
X41964000Y-76014000D02*
X44045000Y-76014000D01*
X46125000Y-76014000D02*
X48206000Y-76014000D01*
X41975000Y-75974000D02*
X44045000Y-75974000D01*
X46125000Y-75974000D02*
X48195000Y-75974000D01*
X41987000Y-75934000D02*
X44045000Y-75934000D01*
X46125000Y-75934000D02*
X48183000Y-75934000D01*
X41999000Y-75894000D02*
X44045000Y-75894000D01*
X46125000Y-75894000D02*
X48171000Y-75894000D01*
X42011000Y-75854000D02*
X44045000Y-75854000D01*
X46125000Y-75854000D02*
X48159000Y-75854000D01*
X42024000Y-75814000D02*
X44045000Y-75814000D01*
X46125000Y-75814000D02*
X48146000Y-75814000D01*
X42038000Y-75774000D02*
X44045000Y-75774000D01*
X46125000Y-75774000D02*
X48132000Y-75774000D01*
X42052000Y-75734000D02*
X44045000Y-75734000D01*
X46125000Y-75734000D02*
X48118000Y-75734000D01*
X42067000Y-75694000D02*
X44045000Y-75694000D01*
X46125000Y-75694000D02*
X48103000Y-75694000D01*
X42083000Y-75654000D02*
X44045000Y-75654000D01*
X46125000Y-75654000D02*
X48087000Y-75654000D01*
X42099000Y-75614000D02*
X44045000Y-75614000D01*
X46125000Y-75614000D02*
X48071000Y-75614000D01*
X42115000Y-75574000D02*
X44045000Y-75574000D01*
X46125000Y-75574000D02*
X48055000Y-75574000D01*
X42133000Y-75534000D02*
X44045000Y-75534000D01*
X46125000Y-75534000D02*
X48037000Y-75534000D01*
X42151000Y-75494000D02*
X44045000Y-75494000D01*
X46125000Y-75494000D02*
X48019000Y-75494000D01*
X42169000Y-75454000D02*
X44045000Y-75454000D01*
X46125000Y-75454000D02*
X48001000Y-75454000D01*
X42189000Y-75414000D02*
X44045000Y-75414000D01*
X46125000Y-75414000D02*
X47981000Y-75414000D01*
X42209000Y-75374000D02*
X44045000Y-75374000D01*
X46125000Y-75374000D02*
X47961000Y-75374000D01*
X42229000Y-75334000D02*
X44045000Y-75334000D01*
X46125000Y-75334000D02*
X47941000Y-75334000D01*
X42251000Y-75294000D02*
X44045000Y-75294000D01*
X46125000Y-75294000D02*
X47919000Y-75294000D01*
X42273000Y-75254000D02*
X44045000Y-75254000D01*
X46125000Y-75254000D02*
X47897000Y-75254000D01*
X42295000Y-75214000D02*
X44045000Y-75214000D01*
X46125000Y-75214000D02*
X47875000Y-75214000D01*
X42319000Y-75174000D02*
X44045000Y-75174000D01*
X46125000Y-75174000D02*
X47851000Y-75174000D01*
X42343000Y-75134000D02*
X44045000Y-75134000D01*
X46125000Y-75134000D02*
X47827000Y-75134000D01*
X42369000Y-75094000D02*
X44045000Y-75094000D01*
X46125000Y-75094000D02*
X47801000Y-75094000D01*
X42395000Y-75054000D02*
X44045000Y-75054000D01*
X46125000Y-75054000D02*
X47775000Y-75054000D01*
X42421000Y-75014000D02*
X44045000Y-75014000D01*
X46125000Y-75014000D02*
X47749000Y-75014000D01*
X42449000Y-74974000D02*
X44045000Y-74974000D01*
X46125000Y-74974000D02*
X47721000Y-74974000D01*
X42478000Y-74934000D02*
X44045000Y-74934000D01*
X46125000Y-74934000D02*
X47692000Y-74934000D01*
X42507000Y-74894000D02*
X44045000Y-74894000D01*
X46125000Y-74894000D02*
X47663000Y-74894000D01*
X42537000Y-74854000D02*
X44045000Y-74854000D01*
X46125000Y-74854000D02*
X47633000Y-74854000D01*
X42569000Y-74814000D02*
X44045000Y-74814000D01*
X46125000Y-74814000D02*
X47601000Y-74814000D01*
X42601000Y-74774000D02*
X44045000Y-74774000D01*
X46125000Y-74774000D02*
X47569000Y-74774000D01*
X42635000Y-74734000D02*
X44045000Y-74734000D01*
X46125000Y-74734000D02*
X47535000Y-74734000D01*
X42669000Y-74694000D02*
X44045000Y-74694000D01*
X46125000Y-74694000D02*
X47501000Y-74694000D01*
X42705000Y-74654000D02*
X44045000Y-74654000D01*
X46125000Y-74654000D02*
X47465000Y-74654000D01*
X42742000Y-74614000D02*
X44045000Y-74614000D01*
X46125000Y-74614000D02*
X47428000Y-74614000D01*
X42780000Y-74574000D02*
X44045000Y-74574000D01*
X46125000Y-74574000D02*
X47390000Y-74574000D01*
X42820000Y-74534000D02*
X47350000Y-74534000D01*
X42861000Y-74494000D02*
X47309000Y-74494000D01*
X42903000Y-74454000D02*
X47267000Y-74454000D01*
X42948000Y-74414000D02*
X47222000Y-74414000D01*
X42993000Y-74374000D02*
X47177000Y-74374000D01*
X43041000Y-74334000D02*
X47129000Y-74334000D01*
X43090000Y-74294000D02*
X47080000Y-74294000D01*
X43141000Y-74254000D02*
X47029000Y-74254000D01*
X43195000Y-74214000D02*
X46975000Y-74214000D01*
X43251000Y-74174000D02*
X46919000Y-74174000D01*
X43309000Y-74134000D02*
X46861000Y-74134000D01*
X43371000Y-74094000D02*
X46799000Y-74094000D01*
X43435000Y-74054000D02*
X46735000Y-74054000D01*
X43504000Y-74014000D02*
X46666000Y-74014000D01*
X43576000Y-73974000D02*
X46594000Y-73974000D01*
X43653000Y-73934000D02*
X46517000Y-73934000D01*
X43735000Y-73894000D02*
X46435000Y-73894000D01*
X43823000Y-73854000D02*
X46347000Y-73854000D01*
X43920000Y-73814000D02*
X46250000Y-73814000D01*
X44026000Y-73774000D02*
X46144000Y-73774000D01*
X44145000Y-73734000D02*
X46025000Y-73734000D01*
X44283000Y-73694000D02*
X45887000Y-73694000D01*
X44452000Y-73654000D02*
X45718000Y-73654000D01*
X44683000Y-73614000D02*
X45487000Y-73614000D01*
X43246000Y-80355241D02*
X43246000Y-79725241D01*
X42931000Y-80040241D02*
X43561000Y-80040241D01*
%TO.C,C2*%
X63469759Y-58806000D02*
X63469759Y-59436000D01*
X63154759Y-59121000D02*
X63784759Y-59121000D01*
X69896000Y-60558000D02*
X69896000Y-61362000D01*
X69856000Y-60327000D02*
X69856000Y-61593000D01*
X69816000Y-60158000D02*
X69816000Y-61762000D01*
X69776000Y-60020000D02*
X69776000Y-61900000D01*
X69736000Y-59901000D02*
X69736000Y-62019000D01*
X69696000Y-59795000D02*
X69696000Y-62125000D01*
X69656000Y-59698000D02*
X69656000Y-62222000D01*
X69616000Y-59610000D02*
X69616000Y-62310000D01*
X69576000Y-59528000D02*
X69576000Y-62392000D01*
X69536000Y-59451000D02*
X69536000Y-62469000D01*
X69496000Y-59379000D02*
X69496000Y-62541000D01*
X69456000Y-59310000D02*
X69456000Y-62610000D01*
X69416000Y-59246000D02*
X69416000Y-62674000D01*
X69376000Y-59184000D02*
X69376000Y-62736000D01*
X69336000Y-59126000D02*
X69336000Y-62794000D01*
X69296000Y-59070000D02*
X69296000Y-62850000D01*
X69256000Y-59016000D02*
X69256000Y-62904000D01*
X69216000Y-58965000D02*
X69216000Y-62955000D01*
X69176000Y-58916000D02*
X69176000Y-63004000D01*
X69136000Y-58868000D02*
X69136000Y-63052000D01*
X69096000Y-58823000D02*
X69096000Y-63097000D01*
X69056000Y-58778000D02*
X69056000Y-63142000D01*
X69016000Y-58736000D02*
X69016000Y-63184000D01*
X68976000Y-58695000D02*
X68976000Y-63225000D01*
X68936000Y-62000000D02*
X68936000Y-63265000D01*
X68936000Y-58655000D02*
X68936000Y-59920000D01*
X68896000Y-62000000D02*
X68896000Y-63303000D01*
X68896000Y-58617000D02*
X68896000Y-59920000D01*
X68856000Y-62000000D02*
X68856000Y-63340000D01*
X68856000Y-58580000D02*
X68856000Y-59920000D01*
X68816000Y-62000000D02*
X68816000Y-63376000D01*
X68816000Y-58544000D02*
X68816000Y-59920000D01*
X68776000Y-62000000D02*
X68776000Y-63410000D01*
X68776000Y-58510000D02*
X68776000Y-59920000D01*
X68736000Y-62000000D02*
X68736000Y-63444000D01*
X68736000Y-58476000D02*
X68736000Y-59920000D01*
X68696000Y-62000000D02*
X68696000Y-63476000D01*
X68696000Y-58444000D02*
X68696000Y-59920000D01*
X68656000Y-62000000D02*
X68656000Y-63508000D01*
X68656000Y-58412000D02*
X68656000Y-59920000D01*
X68616000Y-62000000D02*
X68616000Y-63538000D01*
X68616000Y-58382000D02*
X68616000Y-59920000D01*
X68576000Y-62000000D02*
X68576000Y-63567000D01*
X68576000Y-58353000D02*
X68576000Y-59920000D01*
X68536000Y-62000000D02*
X68536000Y-63596000D01*
X68536000Y-58324000D02*
X68536000Y-59920000D01*
X68496000Y-62000000D02*
X68496000Y-63624000D01*
X68496000Y-58296000D02*
X68496000Y-59920000D01*
X68456000Y-62000000D02*
X68456000Y-63650000D01*
X68456000Y-58270000D02*
X68456000Y-59920000D01*
X68416000Y-62000000D02*
X68416000Y-63676000D01*
X68416000Y-58244000D02*
X68416000Y-59920000D01*
X68376000Y-62000000D02*
X68376000Y-63702000D01*
X68376000Y-58218000D02*
X68376000Y-59920000D01*
X68336000Y-62000000D02*
X68336000Y-63726000D01*
X68336000Y-58194000D02*
X68336000Y-59920000D01*
X68296000Y-62000000D02*
X68296000Y-63750000D01*
X68296000Y-58170000D02*
X68296000Y-59920000D01*
X68256000Y-62000000D02*
X68256000Y-63772000D01*
X68256000Y-58148000D02*
X68256000Y-59920000D01*
X68216000Y-62000000D02*
X68216000Y-63794000D01*
X68216000Y-58126000D02*
X68216000Y-59920000D01*
X68176000Y-62000000D02*
X68176000Y-63816000D01*
X68176000Y-58104000D02*
X68176000Y-59920000D01*
X68136000Y-62000000D02*
X68136000Y-63836000D01*
X68136000Y-58084000D02*
X68136000Y-59920000D01*
X68096000Y-62000000D02*
X68096000Y-63856000D01*
X68096000Y-58064000D02*
X68096000Y-59920000D01*
X68056000Y-62000000D02*
X68056000Y-63876000D01*
X68056000Y-58044000D02*
X68056000Y-59920000D01*
X68016000Y-62000000D02*
X68016000Y-63894000D01*
X68016000Y-58026000D02*
X68016000Y-59920000D01*
X67976000Y-62000000D02*
X67976000Y-63912000D01*
X67976000Y-58008000D02*
X67976000Y-59920000D01*
X67936000Y-62000000D02*
X67936000Y-63930000D01*
X67936000Y-57990000D02*
X67936000Y-59920000D01*
X67896000Y-62000000D02*
X67896000Y-63946000D01*
X67896000Y-57974000D02*
X67896000Y-59920000D01*
X67856000Y-62000000D02*
X67856000Y-63962000D01*
X67856000Y-57958000D02*
X67856000Y-59920000D01*
X67816000Y-62000000D02*
X67816000Y-63978000D01*
X67816000Y-57942000D02*
X67816000Y-59920000D01*
X67776000Y-62000000D02*
X67776000Y-63993000D01*
X67776000Y-57927000D02*
X67776000Y-59920000D01*
X67736000Y-62000000D02*
X67736000Y-64007000D01*
X67736000Y-57913000D02*
X67736000Y-59920000D01*
X67696000Y-62000000D02*
X67696000Y-64021000D01*
X67696000Y-57899000D02*
X67696000Y-59920000D01*
X67656000Y-62000000D02*
X67656000Y-64034000D01*
X67656000Y-57886000D02*
X67656000Y-59920000D01*
X67616000Y-62000000D02*
X67616000Y-64046000D01*
X67616000Y-57874000D02*
X67616000Y-59920000D01*
X67576000Y-62000000D02*
X67576000Y-64058000D01*
X67576000Y-57862000D02*
X67576000Y-59920000D01*
X67536000Y-62000000D02*
X67536000Y-64070000D01*
X67536000Y-57850000D02*
X67536000Y-59920000D01*
X67496000Y-62000000D02*
X67496000Y-64081000D01*
X67496000Y-57839000D02*
X67496000Y-59920000D01*
X67456000Y-62000000D02*
X67456000Y-64091000D01*
X67456000Y-57829000D02*
X67456000Y-59920000D01*
X67416000Y-62000000D02*
X67416000Y-64101000D01*
X67416000Y-57819000D02*
X67416000Y-59920000D01*
X67376000Y-62000000D02*
X67376000Y-64110000D01*
X67376000Y-57810000D02*
X67376000Y-59920000D01*
X67335000Y-62000000D02*
X67335000Y-64119000D01*
X67335000Y-57801000D02*
X67335000Y-59920000D01*
X67295000Y-62000000D02*
X67295000Y-64127000D01*
X67295000Y-57793000D02*
X67295000Y-59920000D01*
X67255000Y-62000000D02*
X67255000Y-64135000D01*
X67255000Y-57785000D02*
X67255000Y-59920000D01*
X67215000Y-62000000D02*
X67215000Y-64142000D01*
X67215000Y-57778000D02*
X67215000Y-59920000D01*
X67175000Y-62000000D02*
X67175000Y-64149000D01*
X67175000Y-57771000D02*
X67175000Y-59920000D01*
X67135000Y-62000000D02*
X67135000Y-64155000D01*
X67135000Y-57765000D02*
X67135000Y-59920000D01*
X67095000Y-62000000D02*
X67095000Y-64161000D01*
X67095000Y-57759000D02*
X67095000Y-59920000D01*
X67055000Y-62000000D02*
X67055000Y-64166000D01*
X67055000Y-57754000D02*
X67055000Y-59920000D01*
X67015000Y-62000000D02*
X67015000Y-64171000D01*
X67015000Y-57749000D02*
X67015000Y-59920000D01*
X66975000Y-62000000D02*
X66975000Y-64175000D01*
X66975000Y-57745000D02*
X66975000Y-59920000D01*
X66935000Y-62000000D02*
X66935000Y-64178000D01*
X66935000Y-57742000D02*
X66935000Y-59920000D01*
X66895000Y-62000000D02*
X66895000Y-64182000D01*
X66895000Y-57738000D02*
X66895000Y-59920000D01*
X66855000Y-57736000D02*
X66855000Y-64184000D01*
X66815000Y-57733000D02*
X66815000Y-64187000D01*
X66775000Y-57732000D02*
X66775000Y-64188000D01*
X66735000Y-57730000D02*
X66735000Y-64190000D01*
X66695000Y-57730000D02*
X66695000Y-64190000D01*
X66655000Y-57730000D02*
X66655000Y-64190000D01*
X69925000Y-60960000D02*
G75*
G03*
X69925000Y-60960000I-3270000J0D01*
G01*
%TO.C,C3*%
X73125000Y-72651252D02*
X73125000Y-72128748D01*
X71655000Y-72651252D02*
X71655000Y-72128748D01*
%TO.C,C4*%
X118483748Y-67845000D02*
X119006252Y-67845000D01*
X118483748Y-69315000D02*
X119006252Y-69315000D01*
%TO.C,C5*%
X112490000Y-66060000D02*
G75*
G03*
X112490000Y-66060000I-3270000J0D01*
G01*
X105990000Y-66060000D02*
X112450000Y-66060000D01*
X105990000Y-66020000D02*
X112450000Y-66020000D01*
X105990000Y-65980000D02*
X112450000Y-65980000D01*
X105992000Y-65940000D02*
X112448000Y-65940000D01*
X105993000Y-65900000D02*
X112447000Y-65900000D01*
X105996000Y-65860000D02*
X112444000Y-65860000D01*
X105998000Y-65820000D02*
X108180000Y-65820000D01*
X110260000Y-65820000D02*
X112442000Y-65820000D01*
X106002000Y-65780000D02*
X108180000Y-65780000D01*
X110260000Y-65780000D02*
X112438000Y-65780000D01*
X106005000Y-65740000D02*
X108180000Y-65740000D01*
X110260000Y-65740000D02*
X112435000Y-65740000D01*
X106009000Y-65700000D02*
X108180000Y-65700000D01*
X110260000Y-65700000D02*
X112431000Y-65700000D01*
X106014000Y-65660000D02*
X108180000Y-65660000D01*
X110260000Y-65660000D02*
X112426000Y-65660000D01*
X106019000Y-65620000D02*
X108180000Y-65620000D01*
X110260000Y-65620000D02*
X112421000Y-65620000D01*
X106025000Y-65580000D02*
X108180000Y-65580000D01*
X110260000Y-65580000D02*
X112415000Y-65580000D01*
X106031000Y-65540000D02*
X108180000Y-65540000D01*
X110260000Y-65540000D02*
X112409000Y-65540000D01*
X106038000Y-65500000D02*
X108180000Y-65500000D01*
X110260000Y-65500000D02*
X112402000Y-65500000D01*
X106045000Y-65460000D02*
X108180000Y-65460000D01*
X110260000Y-65460000D02*
X112395000Y-65460000D01*
X106053000Y-65420000D02*
X108180000Y-65420000D01*
X110260000Y-65420000D02*
X112387000Y-65420000D01*
X106061000Y-65380000D02*
X108180000Y-65380000D01*
X110260000Y-65380000D02*
X112379000Y-65380000D01*
X106070000Y-65339000D02*
X108180000Y-65339000D01*
X110260000Y-65339000D02*
X112370000Y-65339000D01*
X106079000Y-65299000D02*
X108180000Y-65299000D01*
X110260000Y-65299000D02*
X112361000Y-65299000D01*
X106089000Y-65259000D02*
X108180000Y-65259000D01*
X110260000Y-65259000D02*
X112351000Y-65259000D01*
X106099000Y-65219000D02*
X108180000Y-65219000D01*
X110260000Y-65219000D02*
X112341000Y-65219000D01*
X106110000Y-65179000D02*
X108180000Y-65179000D01*
X110260000Y-65179000D02*
X112330000Y-65179000D01*
X106122000Y-65139000D02*
X108180000Y-65139000D01*
X110260000Y-65139000D02*
X112318000Y-65139000D01*
X106134000Y-65099000D02*
X108180000Y-65099000D01*
X110260000Y-65099000D02*
X112306000Y-65099000D01*
X106146000Y-65059000D02*
X108180000Y-65059000D01*
X110260000Y-65059000D02*
X112294000Y-65059000D01*
X106159000Y-65019000D02*
X108180000Y-65019000D01*
X110260000Y-65019000D02*
X112281000Y-65019000D01*
X106173000Y-64979000D02*
X108180000Y-64979000D01*
X110260000Y-64979000D02*
X112267000Y-64979000D01*
X106187000Y-64939000D02*
X108180000Y-64939000D01*
X110260000Y-64939000D02*
X112253000Y-64939000D01*
X106202000Y-64899000D02*
X108180000Y-64899000D01*
X110260000Y-64899000D02*
X112238000Y-64899000D01*
X106218000Y-64859000D02*
X108180000Y-64859000D01*
X110260000Y-64859000D02*
X112222000Y-64859000D01*
X106234000Y-64819000D02*
X108180000Y-64819000D01*
X110260000Y-64819000D02*
X112206000Y-64819000D01*
X106250000Y-64779000D02*
X108180000Y-64779000D01*
X110260000Y-64779000D02*
X112190000Y-64779000D01*
X106268000Y-64739000D02*
X108180000Y-64739000D01*
X110260000Y-64739000D02*
X112172000Y-64739000D01*
X106286000Y-64699000D02*
X108180000Y-64699000D01*
X110260000Y-64699000D02*
X112154000Y-64699000D01*
X106304000Y-64659000D02*
X108180000Y-64659000D01*
X110260000Y-64659000D02*
X112136000Y-64659000D01*
X106324000Y-64619000D02*
X108180000Y-64619000D01*
X110260000Y-64619000D02*
X112116000Y-64619000D01*
X106344000Y-64579000D02*
X108180000Y-64579000D01*
X110260000Y-64579000D02*
X112096000Y-64579000D01*
X106364000Y-64539000D02*
X108180000Y-64539000D01*
X110260000Y-64539000D02*
X112076000Y-64539000D01*
X106386000Y-64499000D02*
X108180000Y-64499000D01*
X110260000Y-64499000D02*
X112054000Y-64499000D01*
X106408000Y-64459000D02*
X108180000Y-64459000D01*
X110260000Y-64459000D02*
X112032000Y-64459000D01*
X106430000Y-64419000D02*
X108180000Y-64419000D01*
X110260000Y-64419000D02*
X112010000Y-64419000D01*
X106454000Y-64379000D02*
X108180000Y-64379000D01*
X110260000Y-64379000D02*
X111986000Y-64379000D01*
X106478000Y-64339000D02*
X108180000Y-64339000D01*
X110260000Y-64339000D02*
X111962000Y-64339000D01*
X106504000Y-64299000D02*
X108180000Y-64299000D01*
X110260000Y-64299000D02*
X111936000Y-64299000D01*
X106530000Y-64259000D02*
X108180000Y-64259000D01*
X110260000Y-64259000D02*
X111910000Y-64259000D01*
X106556000Y-64219000D02*
X108180000Y-64219000D01*
X110260000Y-64219000D02*
X111884000Y-64219000D01*
X106584000Y-64179000D02*
X108180000Y-64179000D01*
X110260000Y-64179000D02*
X111856000Y-64179000D01*
X106613000Y-64139000D02*
X108180000Y-64139000D01*
X110260000Y-64139000D02*
X111827000Y-64139000D01*
X106642000Y-64099000D02*
X108180000Y-64099000D01*
X110260000Y-64099000D02*
X111798000Y-64099000D01*
X106672000Y-64059000D02*
X108180000Y-64059000D01*
X110260000Y-64059000D02*
X111768000Y-64059000D01*
X106704000Y-64019000D02*
X108180000Y-64019000D01*
X110260000Y-64019000D02*
X111736000Y-64019000D01*
X106736000Y-63979000D02*
X108180000Y-63979000D01*
X110260000Y-63979000D02*
X111704000Y-63979000D01*
X106770000Y-63939000D02*
X108180000Y-63939000D01*
X110260000Y-63939000D02*
X111670000Y-63939000D01*
X106804000Y-63899000D02*
X108180000Y-63899000D01*
X110260000Y-63899000D02*
X111636000Y-63899000D01*
X106840000Y-63859000D02*
X108180000Y-63859000D01*
X110260000Y-63859000D02*
X111600000Y-63859000D01*
X106877000Y-63819000D02*
X108180000Y-63819000D01*
X110260000Y-63819000D02*
X111563000Y-63819000D01*
X106915000Y-63779000D02*
X108180000Y-63779000D01*
X110260000Y-63779000D02*
X111525000Y-63779000D01*
X106955000Y-63739000D02*
X111485000Y-63739000D01*
X106996000Y-63699000D02*
X111444000Y-63699000D01*
X107038000Y-63659000D02*
X111402000Y-63659000D01*
X107083000Y-63619000D02*
X111357000Y-63619000D01*
X107128000Y-63579000D02*
X111312000Y-63579000D01*
X107176000Y-63539000D02*
X111264000Y-63539000D01*
X107225000Y-63499000D02*
X111215000Y-63499000D01*
X107276000Y-63459000D02*
X111164000Y-63459000D01*
X107330000Y-63419000D02*
X111110000Y-63419000D01*
X107386000Y-63379000D02*
X111054000Y-63379000D01*
X107444000Y-63339000D02*
X110996000Y-63339000D01*
X107506000Y-63299000D02*
X110934000Y-63299000D01*
X107570000Y-63259000D02*
X110870000Y-63259000D01*
X107639000Y-63219000D02*
X110801000Y-63219000D01*
X107711000Y-63179000D02*
X110729000Y-63179000D01*
X107788000Y-63139000D02*
X110652000Y-63139000D01*
X107870000Y-63099000D02*
X110570000Y-63099000D01*
X107958000Y-63059000D02*
X110482000Y-63059000D01*
X108055000Y-63019000D02*
X110385000Y-63019000D01*
X108161000Y-62979000D02*
X110279000Y-62979000D01*
X108280000Y-62939000D02*
X110160000Y-62939000D01*
X108418000Y-62899000D02*
X110022000Y-62899000D01*
X108587000Y-62859000D02*
X109853000Y-62859000D01*
X108818000Y-62819000D02*
X109622000Y-62819000D01*
X107381000Y-69560241D02*
X107381000Y-68930241D01*
X107066000Y-69245241D02*
X107696000Y-69245241D01*
%TO.C,C6*%
X89908748Y-67410000D02*
X90431252Y-67410000D01*
X89908748Y-65940000D02*
X90431252Y-65940000D01*
%TO.C,C7*%
X84193748Y-65940000D02*
X84716252Y-65940000D01*
X84193748Y-67410000D02*
X84716252Y-67410000D01*
%TO.C,C8*%
X88003748Y-56415000D02*
X88526252Y-56415000D01*
X88003748Y-57885000D02*
X88526252Y-57885000D01*
%TO.C,D1*%
X56895000Y-75975000D02*
X53595000Y-75975000D01*
X53595000Y-75975000D02*
X53595000Y-81375000D01*
X56895000Y-75975000D02*
X56895000Y-81375000D01*
%TO.C,D2*%
X41695000Y-82015000D02*
X43980000Y-82015000D01*
X41695000Y-80545000D02*
X41695000Y-82015000D01*
X43980000Y-80545000D02*
X41695000Y-80545000D01*
%TO.C,D3*%
X44132500Y-82450000D02*
X41847500Y-82450000D01*
X41847500Y-82450000D02*
X41847500Y-83920000D01*
X41847500Y-83920000D02*
X44132500Y-83920000D01*
%TO.C,D4*%
X43980000Y-84355000D02*
X41695000Y-84355000D01*
X41695000Y-84355000D02*
X41695000Y-85825000D01*
X41695000Y-85825000D02*
X43980000Y-85825000D01*
%TO.C,12V in*%
X48955000Y-85260000D02*
X47905000Y-85260000D01*
X47905000Y-86310000D02*
X47905000Y-85260000D01*
X57305000Y-91360000D02*
X57305000Y-100160000D01*
X57305000Y-100160000D02*
X48105000Y-100160000D01*
X54605000Y-85460000D02*
X57305000Y-85460000D01*
X57305000Y-85460000D02*
X57305000Y-87360000D01*
X48105000Y-100160000D02*
X48105000Y-85460000D01*
X48105000Y-85460000D02*
X50705000Y-85460000D01*
%TO.C,Raspberry Pi header*%
X99120000Y-47050000D02*
X99120000Y-41850000D01*
X50800000Y-47050000D02*
X99120000Y-47050000D01*
X48200000Y-41850000D02*
X99120000Y-41850000D01*
X50800000Y-47050000D02*
X50800000Y-44450000D01*
X50800000Y-44450000D02*
X48200000Y-44450000D01*
X48200000Y-44450000D02*
X48200000Y-41850000D01*
X49530000Y-47050000D02*
X48200000Y-47050000D01*
X48200000Y-47050000D02*
X48200000Y-45720000D01*
%TO.C,Trigger*%
X42055000Y-53450000D02*
X48075000Y-53450000D01*
X48075000Y-53450000D02*
X48075000Y-48150000D01*
X48075000Y-48150000D02*
X42055000Y-48150000D01*
X42055000Y-48150000D02*
X42055000Y-53450000D01*
X43085000Y-53740000D02*
X47085000Y-53740000D01*
X48075000Y-52070000D02*
X47075000Y-52070000D01*
X47075000Y-52070000D02*
X47075000Y-49530000D01*
X47075000Y-49530000D02*
X48075000Y-49530000D01*
X47075000Y-52070000D02*
X46545000Y-51820000D01*
X46545000Y-51820000D02*
X46545000Y-49780000D01*
X46545000Y-49780000D02*
X47075000Y-49530000D01*
X48075000Y-51820000D02*
X47075000Y-51820000D01*
X48075000Y-49780000D02*
X47075000Y-49780000D01*
X42055000Y-52870000D02*
X42655000Y-52870000D01*
X42655000Y-52870000D02*
X42655000Y-51270000D01*
X42655000Y-51270000D02*
X42055000Y-51270000D01*
X42055000Y-50330000D02*
X42655000Y-50330000D01*
X42655000Y-50330000D02*
X42655000Y-48730000D01*
X42655000Y-48730000D02*
X42055000Y-48730000D01*
%TO.C,Side*%
X42655000Y-55080000D02*
X42055000Y-55080000D01*
X42655000Y-56680000D02*
X42655000Y-55080000D01*
X42055000Y-56680000D02*
X42655000Y-56680000D01*
X42655000Y-57620000D02*
X42055000Y-57620000D01*
X42655000Y-59220000D02*
X42655000Y-57620000D01*
X42055000Y-59220000D02*
X42655000Y-59220000D01*
X48075000Y-56130000D02*
X47075000Y-56130000D01*
X48075000Y-58170000D02*
X47075000Y-58170000D01*
X46545000Y-56130000D02*
X47075000Y-55880000D01*
X46545000Y-58170000D02*
X46545000Y-56130000D01*
X47075000Y-58420000D02*
X46545000Y-58170000D01*
X47075000Y-55880000D02*
X48075000Y-55880000D01*
X47075000Y-58420000D02*
X47075000Y-55880000D01*
X48075000Y-58420000D02*
X47075000Y-58420000D01*
X43085000Y-60090000D02*
X47085000Y-60090000D01*
X42055000Y-54500000D02*
X42055000Y-59800000D01*
X48075000Y-54500000D02*
X42055000Y-54500000D01*
X48075000Y-59800000D02*
X48075000Y-54500000D01*
X42055000Y-59800000D02*
X48075000Y-59800000D01*
%TO.C,A*%
X42055000Y-66150000D02*
X48075000Y-66150000D01*
X48075000Y-66150000D02*
X48075000Y-60850000D01*
X48075000Y-60850000D02*
X42055000Y-60850000D01*
X42055000Y-60850000D02*
X42055000Y-66150000D01*
X43085000Y-66440000D02*
X47085000Y-66440000D01*
X48075000Y-64770000D02*
X47075000Y-64770000D01*
X47075000Y-64770000D02*
X47075000Y-62230000D01*
X47075000Y-62230000D02*
X48075000Y-62230000D01*
X47075000Y-64770000D02*
X46545000Y-64520000D01*
X46545000Y-64520000D02*
X46545000Y-62480000D01*
X46545000Y-62480000D02*
X47075000Y-62230000D01*
X48075000Y-64520000D02*
X47075000Y-64520000D01*
X48075000Y-62480000D02*
X47075000Y-62480000D01*
X42055000Y-65570000D02*
X42655000Y-65570000D01*
X42655000Y-65570000D02*
X42655000Y-63970000D01*
X42655000Y-63970000D02*
X42055000Y-63970000D01*
X42055000Y-63030000D02*
X42655000Y-63030000D01*
X42655000Y-63030000D02*
X42655000Y-61430000D01*
X42655000Y-61430000D02*
X42055000Y-61430000D01*
%TO.C,B*%
X42655000Y-67780000D02*
X42055000Y-67780000D01*
X42655000Y-69380000D02*
X42655000Y-67780000D01*
X42055000Y-69380000D02*
X42655000Y-69380000D01*
X42655000Y-70320000D02*
X42055000Y-70320000D01*
X42655000Y-71920000D02*
X42655000Y-70320000D01*
X42055000Y-71920000D02*
X42655000Y-71920000D01*
X48075000Y-68830000D02*
X47075000Y-68830000D01*
X48075000Y-70870000D02*
X47075000Y-70870000D01*
X46545000Y-68830000D02*
X47075000Y-68580000D01*
X46545000Y-70870000D02*
X46545000Y-68830000D01*
X47075000Y-71120000D02*
X46545000Y-70870000D01*
X47075000Y-68580000D02*
X48075000Y-68580000D01*
X47075000Y-71120000D02*
X47075000Y-68580000D01*
X48075000Y-71120000D02*
X47075000Y-71120000D01*
X43085000Y-72790000D02*
X47085000Y-72790000D01*
X42055000Y-67200000D02*
X42055000Y-72500000D01*
X48075000Y-67200000D02*
X42055000Y-67200000D01*
X48075000Y-72500000D02*
X48075000Y-67200000D01*
X42055000Y-72500000D02*
X48075000Y-72500000D01*
%TO.C,J7*%
X120160000Y-63610000D02*
X126180000Y-63610000D01*
X126180000Y-63610000D02*
X126180000Y-53230000D01*
X126180000Y-53230000D02*
X120160000Y-53230000D01*
X120160000Y-53230000D02*
X120160000Y-63610000D01*
X121190000Y-63900000D02*
X125190000Y-63900000D01*
X126180000Y-62230000D02*
X125180000Y-62230000D01*
X125180000Y-62230000D02*
X125180000Y-54610000D01*
X125180000Y-54610000D02*
X126180000Y-54610000D01*
X125180000Y-62230000D02*
X124650000Y-61980000D01*
X124650000Y-61980000D02*
X124650000Y-54860000D01*
X124650000Y-54860000D02*
X125180000Y-54610000D01*
X126180000Y-61980000D02*
X125180000Y-61980000D01*
X126180000Y-54860000D02*
X125180000Y-54860000D01*
X120160000Y-63030000D02*
X120760000Y-63030000D01*
X120760000Y-63030000D02*
X120760000Y-61430000D01*
X120760000Y-61430000D02*
X120160000Y-61430000D01*
X120160000Y-60490000D02*
X120760000Y-60490000D01*
X120760000Y-60490000D02*
X120760000Y-58890000D01*
X120760000Y-58890000D02*
X120160000Y-58890000D01*
X120160000Y-57950000D02*
X120760000Y-57950000D01*
X120760000Y-57950000D02*
X120760000Y-56350000D01*
X120760000Y-56350000D02*
X120160000Y-56350000D01*
X120160000Y-55410000D02*
X120760000Y-55410000D01*
X120760000Y-55410000D02*
X120760000Y-53810000D01*
X120760000Y-53810000D02*
X120160000Y-53810000D01*
%TO.C,I2C periph*%
X113175000Y-63610000D02*
X119195000Y-63610000D01*
X119195000Y-63610000D02*
X119195000Y-53230000D01*
X119195000Y-53230000D02*
X113175000Y-53230000D01*
X113175000Y-53230000D02*
X113175000Y-63610000D01*
X114205000Y-63900000D02*
X118205000Y-63900000D01*
X119195000Y-62230000D02*
X118195000Y-62230000D01*
X118195000Y-62230000D02*
X118195000Y-54610000D01*
X118195000Y-54610000D02*
X119195000Y-54610000D01*
X118195000Y-62230000D02*
X117665000Y-61980000D01*
X117665000Y-61980000D02*
X117665000Y-54860000D01*
X117665000Y-54860000D02*
X118195000Y-54610000D01*
X119195000Y-61980000D02*
X118195000Y-61980000D01*
X119195000Y-54860000D02*
X118195000Y-54860000D01*
X113175000Y-63030000D02*
X113775000Y-63030000D01*
X113775000Y-63030000D02*
X113775000Y-61430000D01*
X113775000Y-61430000D02*
X113175000Y-61430000D01*
X113175000Y-60490000D02*
X113775000Y-60490000D01*
X113775000Y-60490000D02*
X113775000Y-58890000D01*
X113775000Y-58890000D02*
X113175000Y-58890000D01*
X113175000Y-57950000D02*
X113775000Y-57950000D01*
X113775000Y-57950000D02*
X113775000Y-56350000D01*
X113775000Y-56350000D02*
X113175000Y-56350000D01*
X113175000Y-55410000D02*
X113775000Y-55410000D01*
X113775000Y-55410000D02*
X113775000Y-53810000D01*
X113775000Y-53810000D02*
X113175000Y-53810000D01*
%TO.C,I2C motor*%
X113775000Y-42380000D02*
X113175000Y-42380000D01*
X113775000Y-43980000D02*
X113775000Y-42380000D01*
X113175000Y-43980000D02*
X113775000Y-43980000D01*
X113775000Y-44920000D02*
X113175000Y-44920000D01*
X113775000Y-46520000D02*
X113775000Y-44920000D01*
X113175000Y-46520000D02*
X113775000Y-46520000D01*
X113775000Y-47460000D02*
X113175000Y-47460000D01*
X113775000Y-49060000D02*
X113775000Y-47460000D01*
X113175000Y-49060000D02*
X113775000Y-49060000D01*
X113775000Y-50000000D02*
X113175000Y-50000000D01*
X113775000Y-51600000D02*
X113775000Y-50000000D01*
X113175000Y-51600000D02*
X113775000Y-51600000D01*
X119195000Y-43430000D02*
X118195000Y-43430000D01*
X119195000Y-50550000D02*
X118195000Y-50550000D01*
X117665000Y-43430000D02*
X118195000Y-43180000D01*
X117665000Y-50550000D02*
X117665000Y-43430000D01*
X118195000Y-50800000D02*
X117665000Y-50550000D01*
X118195000Y-43180000D02*
X119195000Y-43180000D01*
X118195000Y-50800000D02*
X118195000Y-43180000D01*
X119195000Y-50800000D02*
X118195000Y-50800000D01*
X114205000Y-52470000D02*
X118205000Y-52470000D01*
X113175000Y-41800000D02*
X113175000Y-52180000D01*
X119195000Y-41800000D02*
X113175000Y-41800000D01*
X119195000Y-52180000D02*
X119195000Y-41800000D01*
X113175000Y-52180000D02*
X119195000Y-52180000D01*
%TO.C,J10*%
X120760000Y-42380000D02*
X120160000Y-42380000D01*
X120760000Y-43980000D02*
X120760000Y-42380000D01*
X120160000Y-43980000D02*
X120760000Y-43980000D01*
X120760000Y-44920000D02*
X120160000Y-44920000D01*
X120760000Y-46520000D02*
X120760000Y-44920000D01*
X120160000Y-46520000D02*
X120760000Y-46520000D01*
X120760000Y-47460000D02*
X120160000Y-47460000D01*
X120760000Y-49060000D02*
X120760000Y-47460000D01*
X120160000Y-49060000D02*
X120760000Y-49060000D01*
X120760000Y-50000000D02*
X120160000Y-50000000D01*
X120760000Y-51600000D02*
X120760000Y-50000000D01*
X120160000Y-51600000D02*
X120760000Y-51600000D01*
X126180000Y-43430000D02*
X125180000Y-43430000D01*
X126180000Y-50550000D02*
X125180000Y-50550000D01*
X124650000Y-43430000D02*
X125180000Y-43180000D01*
X124650000Y-50550000D02*
X124650000Y-43430000D01*
X125180000Y-50800000D02*
X124650000Y-50550000D01*
X125180000Y-43180000D02*
X126180000Y-43180000D01*
X125180000Y-50800000D02*
X125180000Y-43180000D01*
X126180000Y-50800000D02*
X125180000Y-50800000D01*
X121190000Y-52470000D02*
X125190000Y-52470000D01*
X120160000Y-41800000D02*
X120160000Y-52180000D01*
X126180000Y-41800000D02*
X120160000Y-41800000D01*
X126180000Y-52180000D02*
X126180000Y-41800000D01*
X120160000Y-52180000D02*
X126180000Y-52180000D01*
%TO.C,L1*%
X62180000Y-71245000D02*
X62180000Y-74245000D01*
X62180000Y-74245000D02*
X49580000Y-74245000D01*
X49580000Y-74245000D02*
X49580000Y-71245000D01*
X49580000Y-64645000D02*
X49580000Y-61645000D01*
X49580000Y-61645000D02*
X62180000Y-61645000D01*
X62180000Y-61645000D02*
X62180000Y-64645000D01*
%TO.C,R1*%
X48167936Y-82190000D02*
X49622064Y-82190000D01*
X48167936Y-80370000D02*
X49622064Y-80370000D01*
%TO.C,R2*%
X116480000Y-66582936D02*
X116480000Y-68037064D01*
X114660000Y-66582936D02*
X114660000Y-68037064D01*
%TO.C,R3*%
X48352064Y-84730000D02*
X46897936Y-84730000D01*
X48352064Y-82910000D02*
X46897936Y-82910000D01*
%TO.C,R4*%
X47265000Y-88357064D02*
X47265000Y-86902936D01*
X45445000Y-88357064D02*
X45445000Y-86902936D01*
%TO.C,R5*%
X108492936Y-56155000D02*
X109947064Y-56155000D01*
X108492936Y-54335000D02*
X109947064Y-54335000D01*
%TO.C,R6*%
X108492936Y-43540000D02*
X109947064Y-43540000D01*
X108492936Y-45360000D02*
X109947064Y-45360000D01*
%TO.C,RESET*%
X61195000Y-90980000D02*
X61195000Y-92480000D01*
X62445000Y-94980000D02*
X66945000Y-94980000D01*
X68195000Y-92480000D02*
X68195000Y-90980000D01*
X66945000Y-88480000D02*
X62445000Y-88480000D01*
%TO.C,BOOT*%
X72120000Y-95035000D02*
X76620000Y-95035000D01*
X70870000Y-91035000D02*
X70870000Y-92535000D01*
X76620000Y-88535000D02*
X72120000Y-88535000D01*
X77870000Y-92535000D02*
X77870000Y-91035000D01*
%TO.C,U1*%
X65225000Y-75445000D02*
X63725000Y-75445000D01*
X63725000Y-75445000D02*
X63725000Y-76395000D01*
X63725000Y-76395000D02*
X58600000Y-76395000D01*
X65225000Y-85845000D02*
X63725000Y-85845000D01*
X63725000Y-85845000D02*
X63725000Y-84895000D01*
X63725000Y-84895000D02*
X62625000Y-84895000D01*
%TO.C,U2*%
X63900000Y-71760000D02*
X65160000Y-71760000D01*
X70720000Y-71760000D02*
X69460000Y-71760000D01*
X63900000Y-68000000D02*
X63900000Y-71760000D01*
X70720000Y-65750000D02*
X70720000Y-71760000D01*
%TO.C,ESP32*%
X102025000Y-70890000D02*
X101245000Y-70890000D01*
X101245000Y-70890000D02*
X101245000Y-71890000D01*
X102025000Y-89130000D02*
X101245000Y-89130000D01*
X101245000Y-89130000D02*
X101245000Y-88130000D01*
X126990000Y-70890000D02*
X126990000Y-89130000D01*
X126990000Y-89130000D02*
X120570000Y-89130000D01*
X126990000Y-70890000D02*
X120570000Y-70890000D01*
X120570000Y-70890000D02*
X120570000Y-70510000D01*
%TO.C,U4*%
X110320000Y-59520000D02*
X108120000Y-59520000D01*
X110320000Y-57320000D02*
X107320000Y-57320000D01*
%TO.C,U5*%
X110320000Y-46525000D02*
X107320000Y-46525000D01*
X110320000Y-48725000D02*
X108120000Y-48725000D01*
D11*
%TO.C,U6*%
X89640001Y-58940001D02*
X89640001Y-59465001D01*
X85340001Y-63240001D02*
X85340001Y-62715001D01*
X89640001Y-63240001D02*
X89640001Y-62715001D01*
X85340001Y-58940001D02*
X85865001Y-58940001D01*
X85340001Y-63240001D02*
X85865001Y-63240001D01*
X89640001Y-63240001D02*
X89115001Y-63240001D01*
X89640001Y-58940001D02*
X89115001Y-58940001D01*
D10*
%TO.C,JTAG*%
X86245000Y-72260000D02*
X95365000Y-72260000D01*
X95365000Y-72260000D02*
X95365000Y-92840000D01*
X95365000Y-92840000D02*
X86245000Y-92840000D01*
X86245000Y-92840000D02*
X86245000Y-72260000D01*
X86245000Y-80500000D02*
X87555000Y-80500000D01*
X87555000Y-80500000D02*
X87555000Y-73560000D01*
X87555000Y-73560000D02*
X94055000Y-73560000D01*
X94055000Y-73560000D02*
X94055000Y-91540000D01*
X94055000Y-91540000D02*
X87555000Y-91540000D01*
X87555000Y-91540000D02*
X87555000Y-84600000D01*
X87555000Y-84600000D02*
X87555000Y-84600000D01*
X87555000Y-84600000D02*
X86245000Y-84600000D01*
X85855000Y-77470000D02*
X84855000Y-76970000D01*
X84855000Y-76970000D02*
X84855000Y-77970000D01*
X84855000Y-77970000D02*
X85855000Y-77470000D01*
%TO.C,UART*%
X76345000Y-86470000D02*
X82365000Y-86470000D01*
X82365000Y-86470000D02*
X82365000Y-76090000D01*
X82365000Y-76090000D02*
X76345000Y-76090000D01*
X76345000Y-76090000D02*
X76345000Y-86470000D01*
X77375000Y-86760000D02*
X81375000Y-86760000D01*
X82365000Y-85090000D02*
X81365000Y-85090000D01*
X81365000Y-85090000D02*
X81365000Y-77470000D01*
X81365000Y-77470000D02*
X82365000Y-77470000D01*
X81365000Y-85090000D02*
X80835000Y-84840000D01*
X80835000Y-84840000D02*
X80835000Y-77720000D01*
X80835000Y-77720000D02*
X81365000Y-77470000D01*
X82365000Y-84840000D02*
X81365000Y-84840000D01*
X82365000Y-77720000D02*
X81365000Y-77720000D01*
X76345000Y-85890000D02*
X76945000Y-85890000D01*
X76945000Y-85890000D02*
X76945000Y-84290000D01*
X76945000Y-84290000D02*
X76345000Y-84290000D01*
X76345000Y-83350000D02*
X76945000Y-83350000D01*
X76945000Y-83350000D02*
X76945000Y-81750000D01*
X76945000Y-81750000D02*
X76345000Y-81750000D01*
X76345000Y-80810000D02*
X76945000Y-80810000D01*
X76945000Y-80810000D02*
X76945000Y-79210000D01*
X76945000Y-79210000D02*
X76345000Y-79210000D01*
X76345000Y-78270000D02*
X76945000Y-78270000D01*
X76945000Y-78270000D02*
X76945000Y-76670000D01*
X76945000Y-76670000D02*
X76345000Y-76670000D01*
%TO.C,12V in*%
D11*
X58907380Y-95670476D02*
X58907380Y-96241904D01*
X58907380Y-95956190D02*
X57907380Y-95956190D01*
X58050238Y-96051428D01*
X58145476Y-96146666D01*
X58193095Y-96241904D01*
X58002619Y-95289523D02*
X57955000Y-95241904D01*
X57907380Y-95146666D01*
X57907380Y-94908571D01*
X57955000Y-94813333D01*
X58002619Y-94765714D01*
X58097857Y-94718095D01*
X58193095Y-94718095D01*
X58335952Y-94765714D01*
X58907380Y-95337142D01*
X58907380Y-94718095D01*
X57907380Y-94432380D02*
X58907380Y-94099047D01*
X57907380Y-93765714D01*
X58907380Y-92670476D02*
X58240714Y-92670476D01*
X57907380Y-92670476D02*
X57955000Y-92718095D01*
X58002619Y-92670476D01*
X57955000Y-92622857D01*
X57907380Y-92670476D01*
X58002619Y-92670476D01*
X58240714Y-92194285D02*
X58907380Y-92194285D01*
X58335952Y-92194285D02*
X58288333Y-92146666D01*
X58240714Y-92051428D01*
X58240714Y-91908571D01*
X58288333Y-91813333D01*
X58383571Y-91765714D01*
X58907380Y-91765714D01*
%TO.C,Raspberry Pi header*%
X54690238Y-48712380D02*
X54356904Y-48236190D01*
X54118809Y-48712380D02*
X54118809Y-47712380D01*
X54499761Y-47712380D01*
X54595000Y-47760000D01*
X54642619Y-47807619D01*
X54690238Y-47902857D01*
X54690238Y-48045714D01*
X54642619Y-48140952D01*
X54595000Y-48188571D01*
X54499761Y-48236190D01*
X54118809Y-48236190D01*
X55547380Y-48712380D02*
X55547380Y-48188571D01*
X55499761Y-48093333D01*
X55404523Y-48045714D01*
X55214047Y-48045714D01*
X55118809Y-48093333D01*
X55547380Y-48664761D02*
X55452142Y-48712380D01*
X55214047Y-48712380D01*
X55118809Y-48664761D01*
X55071190Y-48569523D01*
X55071190Y-48474285D01*
X55118809Y-48379047D01*
X55214047Y-48331428D01*
X55452142Y-48331428D01*
X55547380Y-48283809D01*
X55975952Y-48664761D02*
X56071190Y-48712380D01*
X56261666Y-48712380D01*
X56356904Y-48664761D01*
X56404523Y-48569523D01*
X56404523Y-48521904D01*
X56356904Y-48426666D01*
X56261666Y-48379047D01*
X56118809Y-48379047D01*
X56023571Y-48331428D01*
X55975952Y-48236190D01*
X55975952Y-48188571D01*
X56023571Y-48093333D01*
X56118809Y-48045714D01*
X56261666Y-48045714D01*
X56356904Y-48093333D01*
X56833095Y-48045714D02*
X56833095Y-49045714D01*
X56833095Y-48093333D02*
X56928333Y-48045714D01*
X57118809Y-48045714D01*
X57214047Y-48093333D01*
X57261666Y-48140952D01*
X57309285Y-48236190D01*
X57309285Y-48521904D01*
X57261666Y-48617142D01*
X57214047Y-48664761D01*
X57118809Y-48712380D01*
X56928333Y-48712380D01*
X56833095Y-48664761D01*
X57737857Y-48712380D02*
X57737857Y-47712380D01*
X57737857Y-48093333D02*
X57833095Y-48045714D01*
X58023571Y-48045714D01*
X58118809Y-48093333D01*
X58166428Y-48140952D01*
X58214047Y-48236190D01*
X58214047Y-48521904D01*
X58166428Y-48617142D01*
X58118809Y-48664761D01*
X58023571Y-48712380D01*
X57833095Y-48712380D01*
X57737857Y-48664761D01*
X59023571Y-48664761D02*
X58928333Y-48712380D01*
X58737857Y-48712380D01*
X58642619Y-48664761D01*
X58595000Y-48569523D01*
X58595000Y-48188571D01*
X58642619Y-48093333D01*
X58737857Y-48045714D01*
X58928333Y-48045714D01*
X59023571Y-48093333D01*
X59071190Y-48188571D01*
X59071190Y-48283809D01*
X58595000Y-48379047D01*
X59499761Y-48712380D02*
X59499761Y-48045714D01*
X59499761Y-48236190D02*
X59547380Y-48140952D01*
X59595000Y-48093333D01*
X59690238Y-48045714D01*
X59785476Y-48045714D01*
X60118809Y-48712380D02*
X60118809Y-48045714D01*
X60118809Y-48236190D02*
X60166428Y-48140952D01*
X60214047Y-48093333D01*
X60309285Y-48045714D01*
X60404523Y-48045714D01*
X60642619Y-48045714D02*
X60880714Y-48712380D01*
X61118809Y-48045714D02*
X60880714Y-48712380D01*
X60785476Y-48950476D01*
X60737857Y-48998095D01*
X60642619Y-49045714D01*
X62261666Y-48712380D02*
X62261666Y-47712380D01*
X62642619Y-47712380D01*
X62737857Y-47760000D01*
X62785476Y-47807619D01*
X62833095Y-47902857D01*
X62833095Y-48045714D01*
X62785476Y-48140952D01*
X62737857Y-48188571D01*
X62642619Y-48236190D01*
X62261666Y-48236190D01*
X63261666Y-48712380D02*
X63261666Y-48045714D01*
X63261666Y-47712380D02*
X63214047Y-47760000D01*
X63261666Y-47807619D01*
X63309285Y-47760000D01*
X63261666Y-47712380D01*
X63261666Y-47807619D01*
X64499761Y-48712380D02*
X64499761Y-47712380D01*
X64928333Y-48712380D02*
X64928333Y-48188571D01*
X64880714Y-48093333D01*
X64785476Y-48045714D01*
X64642619Y-48045714D01*
X64547380Y-48093333D01*
X64499761Y-48140952D01*
X65785476Y-48664761D02*
X65690238Y-48712380D01*
X65499761Y-48712380D01*
X65404523Y-48664761D01*
X65356904Y-48569523D01*
X65356904Y-48188571D01*
X65404523Y-48093333D01*
X65499761Y-48045714D01*
X65690238Y-48045714D01*
X65785476Y-48093333D01*
X65833095Y-48188571D01*
X65833095Y-48283809D01*
X65356904Y-48379047D01*
X66690238Y-48712380D02*
X66690238Y-48188571D01*
X66642619Y-48093333D01*
X66547380Y-48045714D01*
X66356904Y-48045714D01*
X66261666Y-48093333D01*
X66690238Y-48664761D02*
X66595000Y-48712380D01*
X66356904Y-48712380D01*
X66261666Y-48664761D01*
X66214047Y-48569523D01*
X66214047Y-48474285D01*
X66261666Y-48379047D01*
X66356904Y-48331428D01*
X66595000Y-48331428D01*
X66690238Y-48283809D01*
X67595000Y-48712380D02*
X67595000Y-47712380D01*
X67595000Y-48664761D02*
X67499761Y-48712380D01*
X67309285Y-48712380D01*
X67214047Y-48664761D01*
X67166428Y-48617142D01*
X67118809Y-48521904D01*
X67118809Y-48236190D01*
X67166428Y-48140952D01*
X67214047Y-48093333D01*
X67309285Y-48045714D01*
X67499761Y-48045714D01*
X67595000Y-48093333D01*
X68452142Y-48664761D02*
X68356904Y-48712380D01*
X68166428Y-48712380D01*
X68071190Y-48664761D01*
X68023571Y-48569523D01*
X68023571Y-48188571D01*
X68071190Y-48093333D01*
X68166428Y-48045714D01*
X68356904Y-48045714D01*
X68452142Y-48093333D01*
X68499761Y-48188571D01*
X68499761Y-48283809D01*
X68023571Y-48379047D01*
X68928333Y-48712380D02*
X68928333Y-48045714D01*
X68928333Y-48236190D02*
X68975952Y-48140952D01*
X69023571Y-48093333D01*
X69118809Y-48045714D01*
X69214047Y-48045714D01*
%TO.C,Trigger*%
X48982380Y-53276190D02*
X48982380Y-52704761D01*
X49982380Y-52990476D02*
X48982380Y-52990476D01*
X49982380Y-52371428D02*
X49315714Y-52371428D01*
X49506190Y-52371428D02*
X49410952Y-52323809D01*
X49363333Y-52276190D01*
X49315714Y-52180952D01*
X49315714Y-52085714D01*
X49982380Y-51752380D02*
X49315714Y-51752380D01*
X48982380Y-51752380D02*
X49030000Y-51800000D01*
X49077619Y-51752380D01*
X49030000Y-51704761D01*
X48982380Y-51752380D01*
X49077619Y-51752380D01*
X49315714Y-50847619D02*
X50125238Y-50847619D01*
X50220476Y-50895238D01*
X50268095Y-50942857D01*
X50315714Y-51038095D01*
X50315714Y-51180952D01*
X50268095Y-51276190D01*
X49934761Y-50847619D02*
X49982380Y-50942857D01*
X49982380Y-51133333D01*
X49934761Y-51228571D01*
X49887142Y-51276190D01*
X49791904Y-51323809D01*
X49506190Y-51323809D01*
X49410952Y-51276190D01*
X49363333Y-51228571D01*
X49315714Y-51133333D01*
X49315714Y-50942857D01*
X49363333Y-50847619D01*
X49315714Y-49942857D02*
X50125238Y-49942857D01*
X50220476Y-49990476D01*
X50268095Y-50038095D01*
X50315714Y-50133333D01*
X50315714Y-50276190D01*
X50268095Y-50371428D01*
X49934761Y-49942857D02*
X49982380Y-50038095D01*
X49982380Y-50228571D01*
X49934761Y-50323809D01*
X49887142Y-50371428D01*
X49791904Y-50419047D01*
X49506190Y-50419047D01*
X49410952Y-50371428D01*
X49363333Y-50323809D01*
X49315714Y-50228571D01*
X49315714Y-50038095D01*
X49363333Y-49942857D01*
X49934761Y-49085714D02*
X49982380Y-49180952D01*
X49982380Y-49371428D01*
X49934761Y-49466666D01*
X49839523Y-49514285D01*
X49458571Y-49514285D01*
X49363333Y-49466666D01*
X49315714Y-49371428D01*
X49315714Y-49180952D01*
X49363333Y-49085714D01*
X49458571Y-49038095D01*
X49553809Y-49038095D01*
X49649047Y-49514285D01*
X49982380Y-48609523D02*
X49315714Y-48609523D01*
X49506190Y-48609523D02*
X49410952Y-48561904D01*
X49363333Y-48514285D01*
X49315714Y-48419047D01*
X49315714Y-48323809D01*
%TO.C,Side*%
X49934761Y-58554761D02*
X49982380Y-58411904D01*
X49982380Y-58173809D01*
X49934761Y-58078571D01*
X49887142Y-58030952D01*
X49791904Y-57983333D01*
X49696666Y-57983333D01*
X49601428Y-58030952D01*
X49553809Y-58078571D01*
X49506190Y-58173809D01*
X49458571Y-58364285D01*
X49410952Y-58459523D01*
X49363333Y-58507142D01*
X49268095Y-58554761D01*
X49172857Y-58554761D01*
X49077619Y-58507142D01*
X49030000Y-58459523D01*
X48982380Y-58364285D01*
X48982380Y-58126190D01*
X49030000Y-57983333D01*
X49982380Y-57554761D02*
X49315714Y-57554761D01*
X48982380Y-57554761D02*
X49030000Y-57602380D01*
X49077619Y-57554761D01*
X49030000Y-57507142D01*
X48982380Y-57554761D01*
X49077619Y-57554761D01*
X49982380Y-56650000D02*
X48982380Y-56650000D01*
X49934761Y-56650000D02*
X49982380Y-56745238D01*
X49982380Y-56935714D01*
X49934761Y-57030952D01*
X49887142Y-57078571D01*
X49791904Y-57126190D01*
X49506190Y-57126190D01*
X49410952Y-57078571D01*
X49363333Y-57030952D01*
X49315714Y-56935714D01*
X49315714Y-56745238D01*
X49363333Y-56650000D01*
X49934761Y-55792857D02*
X49982380Y-55888095D01*
X49982380Y-56078571D01*
X49934761Y-56173809D01*
X49839523Y-56221428D01*
X49458571Y-56221428D01*
X49363333Y-56173809D01*
X49315714Y-56078571D01*
X49315714Y-55888095D01*
X49363333Y-55792857D01*
X49458571Y-55745238D01*
X49553809Y-55745238D01*
X49649047Y-56221428D01*
%TO.C,A*%
X49696666Y-60563095D02*
X49696666Y-60086904D01*
X49982380Y-60658333D02*
X48982380Y-60325000D01*
X49982380Y-59991666D01*
%TO.C,B*%
X48188571Y-73588571D02*
X48236190Y-73445714D01*
X48283809Y-73398095D01*
X48379047Y-73350476D01*
X48521904Y-73350476D01*
X48617142Y-73398095D01*
X48664761Y-73445714D01*
X48712380Y-73540952D01*
X48712380Y-73921904D01*
X47712380Y-73921904D01*
X47712380Y-73588571D01*
X47760000Y-73493333D01*
X47807619Y-73445714D01*
X47902857Y-73398095D01*
X47998095Y-73398095D01*
X48093333Y-73445714D01*
X48140952Y-73493333D01*
X48188571Y-73588571D01*
X48188571Y-73921904D01*
%TO.C,I2C periph*%
X112537380Y-62110476D02*
X111537380Y-62110476D01*
X111632619Y-61681904D02*
X111585000Y-61634285D01*
X111537380Y-61539047D01*
X111537380Y-61300952D01*
X111585000Y-61205714D01*
X111632619Y-61158095D01*
X111727857Y-61110476D01*
X111823095Y-61110476D01*
X111965952Y-61158095D01*
X112537380Y-61729523D01*
X112537380Y-61110476D01*
X112442142Y-60110476D02*
X112489761Y-60158095D01*
X112537380Y-60300952D01*
X112537380Y-60396190D01*
X112489761Y-60539047D01*
X112394523Y-60634285D01*
X112299285Y-60681904D01*
X112108809Y-60729523D01*
X111965952Y-60729523D01*
X111775476Y-60681904D01*
X111680238Y-60634285D01*
X111585000Y-60539047D01*
X111537380Y-60396190D01*
X111537380Y-60300952D01*
X111585000Y-60158095D01*
X111632619Y-60110476D01*
X111870714Y-58920000D02*
X112870714Y-58920000D01*
X111918333Y-58920000D02*
X111870714Y-58824761D01*
X111870714Y-58634285D01*
X111918333Y-58539047D01*
X111965952Y-58491428D01*
X112061190Y-58443809D01*
X112346904Y-58443809D01*
X112442142Y-58491428D01*
X112489761Y-58539047D01*
X112537380Y-58634285D01*
X112537380Y-58824761D01*
X112489761Y-58920000D01*
X112489761Y-57634285D02*
X112537380Y-57729523D01*
X112537380Y-57920000D01*
X112489761Y-58015238D01*
X112394523Y-58062857D01*
X112013571Y-58062857D01*
X111918333Y-58015238D01*
X111870714Y-57920000D01*
X111870714Y-57729523D01*
X111918333Y-57634285D01*
X112013571Y-57586666D01*
X112108809Y-57586666D01*
X112204047Y-58062857D01*
X112537380Y-57158095D02*
X111870714Y-57158095D01*
X112061190Y-57158095D02*
X111965952Y-57110476D01*
X111918333Y-57062857D01*
X111870714Y-56967619D01*
X111870714Y-56872380D01*
X112537380Y-56539047D02*
X111870714Y-56539047D01*
X111537380Y-56539047D02*
X111585000Y-56586666D01*
X111632619Y-56539047D01*
X111585000Y-56491428D01*
X111537380Y-56539047D01*
X111632619Y-56539047D01*
X111870714Y-56062857D02*
X112870714Y-56062857D01*
X111918333Y-56062857D02*
X111870714Y-55967619D01*
X111870714Y-55777142D01*
X111918333Y-55681904D01*
X111965952Y-55634285D01*
X112061190Y-55586666D01*
X112346904Y-55586666D01*
X112442142Y-55634285D01*
X112489761Y-55681904D01*
X112537380Y-55777142D01*
X112537380Y-55967619D01*
X112489761Y-56062857D01*
X112537380Y-55158095D02*
X111537380Y-55158095D01*
X112537380Y-54729523D02*
X112013571Y-54729523D01*
X111918333Y-54777142D01*
X111870714Y-54872380D01*
X111870714Y-55015238D01*
X111918333Y-55110476D01*
X111965952Y-55158095D01*
%TO.C,I2C motor*%
X112537380Y-50513809D02*
X111537380Y-50513809D01*
X111632619Y-50085238D02*
X111585000Y-50037619D01*
X111537380Y-49942380D01*
X111537380Y-49704285D01*
X111585000Y-49609047D01*
X111632619Y-49561428D01*
X111727857Y-49513809D01*
X111823095Y-49513809D01*
X111965952Y-49561428D01*
X112537380Y-50132857D01*
X112537380Y-49513809D01*
X112442142Y-48513809D02*
X112489761Y-48561428D01*
X112537380Y-48704285D01*
X112537380Y-48799523D01*
X112489761Y-48942380D01*
X112394523Y-49037619D01*
X112299285Y-49085238D01*
X112108809Y-49132857D01*
X111965952Y-49132857D01*
X111775476Y-49085238D01*
X111680238Y-49037619D01*
X111585000Y-48942380D01*
X111537380Y-48799523D01*
X111537380Y-48704285D01*
X111585000Y-48561428D01*
X111632619Y-48513809D01*
X112537380Y-47323333D02*
X111870714Y-47323333D01*
X111965952Y-47323333D02*
X111918333Y-47275714D01*
X111870714Y-47180476D01*
X111870714Y-47037619D01*
X111918333Y-46942380D01*
X112013571Y-46894761D01*
X112537380Y-46894761D01*
X112013571Y-46894761D02*
X111918333Y-46847142D01*
X111870714Y-46751904D01*
X111870714Y-46609047D01*
X111918333Y-46513809D01*
X112013571Y-46466190D01*
X112537380Y-46466190D01*
X112537380Y-45847142D02*
X112489761Y-45942380D01*
X112442142Y-45990000D01*
X112346904Y-46037619D01*
X112061190Y-46037619D01*
X111965952Y-45990000D01*
X111918333Y-45942380D01*
X111870714Y-45847142D01*
X111870714Y-45704285D01*
X111918333Y-45609047D01*
X111965952Y-45561428D01*
X112061190Y-45513809D01*
X112346904Y-45513809D01*
X112442142Y-45561428D01*
X112489761Y-45609047D01*
X112537380Y-45704285D01*
X112537380Y-45847142D01*
X111870714Y-45228095D02*
X111870714Y-44847142D01*
X111537380Y-45085238D02*
X112394523Y-45085238D01*
X112489761Y-45037619D01*
X112537380Y-44942380D01*
X112537380Y-44847142D01*
X112537380Y-44370952D02*
X112489761Y-44466190D01*
X112442142Y-44513809D01*
X112346904Y-44561428D01*
X112061190Y-44561428D01*
X111965952Y-44513809D01*
X111918333Y-44466190D01*
X111870714Y-44370952D01*
X111870714Y-44228095D01*
X111918333Y-44132857D01*
X111965952Y-44085238D01*
X112061190Y-44037619D01*
X112346904Y-44037619D01*
X112442142Y-44085238D01*
X112489761Y-44132857D01*
X112537380Y-44228095D01*
X112537380Y-44370952D01*
X112537380Y-43609047D02*
X111870714Y-43609047D01*
X112061190Y-43609047D02*
X111965952Y-43561428D01*
X111918333Y-43513809D01*
X111870714Y-43418571D01*
X111870714Y-43323333D01*
%TO.C,RESET*%
X63242619Y-96432380D02*
X62909285Y-95956190D01*
X62671190Y-96432380D02*
X62671190Y-95432380D01*
X63052142Y-95432380D01*
X63147380Y-95480000D01*
X63195000Y-95527619D01*
X63242619Y-95622857D01*
X63242619Y-95765714D01*
X63195000Y-95860952D01*
X63147380Y-95908571D01*
X63052142Y-95956190D01*
X62671190Y-95956190D01*
X63671190Y-95908571D02*
X64004523Y-95908571D01*
X64147380Y-96432380D02*
X63671190Y-96432380D01*
X63671190Y-95432380D01*
X64147380Y-95432380D01*
X64528333Y-96384761D02*
X64671190Y-96432380D01*
X64909285Y-96432380D01*
X65004523Y-96384761D01*
X65052142Y-96337142D01*
X65099761Y-96241904D01*
X65099761Y-96146666D01*
X65052142Y-96051428D01*
X65004523Y-96003809D01*
X64909285Y-95956190D01*
X64718809Y-95908571D01*
X64623571Y-95860952D01*
X64575952Y-95813333D01*
X64528333Y-95718095D01*
X64528333Y-95622857D01*
X64575952Y-95527619D01*
X64623571Y-95480000D01*
X64718809Y-95432380D01*
X64956904Y-95432380D01*
X65099761Y-95480000D01*
X65528333Y-95908571D02*
X65861666Y-95908571D01*
X66004523Y-96432380D02*
X65528333Y-96432380D01*
X65528333Y-95432380D01*
X66004523Y-95432380D01*
X66290238Y-95432380D02*
X66861666Y-95432380D01*
X66575952Y-96432380D02*
X66575952Y-95432380D01*
%TO.C,BOOT*%
X73012857Y-95813571D02*
X73155714Y-95861190D01*
X73203333Y-95908809D01*
X73250952Y-96004047D01*
X73250952Y-96146904D01*
X73203333Y-96242142D01*
X73155714Y-96289761D01*
X73060476Y-96337380D01*
X72679523Y-96337380D01*
X72679523Y-95337380D01*
X73012857Y-95337380D01*
X73108095Y-95385000D01*
X73155714Y-95432619D01*
X73203333Y-95527857D01*
X73203333Y-95623095D01*
X73155714Y-95718333D01*
X73108095Y-95765952D01*
X73012857Y-95813571D01*
X72679523Y-95813571D01*
X73870000Y-95337380D02*
X74060476Y-95337380D01*
X74155714Y-95385000D01*
X74250952Y-95480238D01*
X74298571Y-95670714D01*
X74298571Y-96004047D01*
X74250952Y-96194523D01*
X74155714Y-96289761D01*
X74060476Y-96337380D01*
X73870000Y-96337380D01*
X73774761Y-96289761D01*
X73679523Y-96194523D01*
X73631904Y-96004047D01*
X73631904Y-95670714D01*
X73679523Y-95480238D01*
X73774761Y-95385000D01*
X73870000Y-95337380D01*
X74917619Y-95337380D02*
X75108095Y-95337380D01*
X75203333Y-95385000D01*
X75298571Y-95480238D01*
X75346190Y-95670714D01*
X75346190Y-96004047D01*
X75298571Y-96194523D01*
X75203333Y-96289761D01*
X75108095Y-96337380D01*
X74917619Y-96337380D01*
X74822380Y-96289761D01*
X74727142Y-96194523D01*
X74679523Y-96004047D01*
X74679523Y-95670714D01*
X74727142Y-95480238D01*
X74822380Y-95385000D01*
X74917619Y-95337380D01*
X75631904Y-95337380D02*
X76203333Y-95337380D01*
X75917619Y-96337380D02*
X75917619Y-95337380D01*
%TO.C,ESP32*%
X100552142Y-69328571D02*
X100885476Y-69328571D01*
X101028333Y-69852380D02*
X100552142Y-69852380D01*
X100552142Y-68852380D01*
X101028333Y-68852380D01*
X101409285Y-69804761D02*
X101552142Y-69852380D01*
X101790238Y-69852380D01*
X101885476Y-69804761D01*
X101933095Y-69757142D01*
X101980714Y-69661904D01*
X101980714Y-69566666D01*
X101933095Y-69471428D01*
X101885476Y-69423809D01*
X101790238Y-69376190D01*
X101599761Y-69328571D01*
X101504523Y-69280952D01*
X101456904Y-69233333D01*
X101409285Y-69138095D01*
X101409285Y-69042857D01*
X101456904Y-68947619D01*
X101504523Y-68900000D01*
X101599761Y-68852380D01*
X101837857Y-68852380D01*
X101980714Y-68900000D01*
X102409285Y-69852380D02*
X102409285Y-68852380D01*
X102790238Y-68852380D01*
X102885476Y-68900000D01*
X102933095Y-68947619D01*
X102980714Y-69042857D01*
X102980714Y-69185714D01*
X102933095Y-69280952D01*
X102885476Y-69328571D01*
X102790238Y-69376190D01*
X102409285Y-69376190D01*
X103314047Y-68852380D02*
X103933095Y-68852380D01*
X103599761Y-69233333D01*
X103742619Y-69233333D01*
X103837857Y-69280952D01*
X103885476Y-69328571D01*
X103933095Y-69423809D01*
X103933095Y-69661904D01*
X103885476Y-69757142D01*
X103837857Y-69804761D01*
X103742619Y-69852380D01*
X103456904Y-69852380D01*
X103361666Y-69804761D01*
X103314047Y-69757142D01*
X104314047Y-68947619D02*
X104361666Y-68900000D01*
X104456904Y-68852380D01*
X104695000Y-68852380D01*
X104790238Y-68900000D01*
X104837857Y-68947619D01*
X104885476Y-69042857D01*
X104885476Y-69138095D01*
X104837857Y-69280952D01*
X104266428Y-69852380D01*
X104885476Y-69852380D01*
%TO.C,JTAG*%
X89638333Y-70822380D02*
X89638333Y-71536666D01*
X89590714Y-71679523D01*
X89495476Y-71774761D01*
X89352619Y-71822380D01*
X89257380Y-71822380D01*
X89971666Y-70822380D02*
X90543095Y-70822380D01*
X90257380Y-71822380D02*
X90257380Y-70822380D01*
X90828809Y-71536666D02*
X91305000Y-71536666D01*
X90733571Y-71822380D02*
X91066904Y-70822380D01*
X91400238Y-71822380D01*
X92257380Y-70870000D02*
X92162142Y-70822380D01*
X92019285Y-70822380D01*
X91876428Y-70870000D01*
X91781190Y-70965238D01*
X91733571Y-71060476D01*
X91685952Y-71250952D01*
X91685952Y-71393809D01*
X91733571Y-71584285D01*
X91781190Y-71679523D01*
X91876428Y-71774761D01*
X92019285Y-71822380D01*
X92114523Y-71822380D01*
X92257380Y-71774761D01*
X92305000Y-71727142D01*
X92305000Y-71393809D01*
X92114523Y-71393809D01*
%TO.C,UART*%
X83272380Y-82875238D02*
X84081904Y-82875238D01*
X84177142Y-82827619D01*
X84224761Y-82780000D01*
X84272380Y-82684761D01*
X84272380Y-82494285D01*
X84224761Y-82399047D01*
X84177142Y-82351428D01*
X84081904Y-82303809D01*
X83272380Y-82303809D01*
X83986666Y-81875238D02*
X83986666Y-81399047D01*
X84272380Y-81970476D02*
X83272380Y-81637142D01*
X84272380Y-81303809D01*
X84272380Y-80399047D02*
X83796190Y-80732380D01*
X84272380Y-80970476D02*
X83272380Y-80970476D01*
X83272380Y-80589523D01*
X83320000Y-80494285D01*
X83367619Y-80446666D01*
X83462857Y-80399047D01*
X83605714Y-80399047D01*
X83700952Y-80446666D01*
X83748571Y-80494285D01*
X83796190Y-80589523D01*
X83796190Y-80970476D01*
X83272380Y-80113333D02*
X83272380Y-79541904D01*
X84272380Y-79827619D02*
X83272380Y-79827619D01*
%TD*%
M02*
