%TF.GenerationSoftware,KiCad,Pcbnew,5.99.0+really5.1.10+dfsg1-1*%
%TF.CreationDate,2022-04-25T00:01:12+02:00*%
%TF.ProjectId,mini_accessory,6d696e69-5f61-4636-9365-73736f72792e,rev?*%
%TF.SameCoordinates,Original*%
%TF.FileFunction,Paste,Top*%
%TF.FilePolarity,Positive*%
%FSLAX46Y46*%
G04 Gerber Fmt 4.6, Leading zero omitted, Abs format (unit mm)*
G04 Created by KiCad (PCBNEW 5.99.0+really5.1.10+dfsg1-1) date 2022-04-25 00:01:12*
%MOMM*%
%LPD*%
G01*
G04 APERTURE LIST*
%ADD10R,2.300000X2.500000*%
%ADD11R,4.600000X1.100000*%
%ADD12R,4.550000X5.250000*%
%ADD13R,1.600000X0.550000*%
%ADD14R,0.550000X1.600000*%
%ADD15R,4.500000X2.000000*%
%ADD16R,5.400000X2.900000*%
G04 APERTURE END LIST*
%TO.C,C2*%
G36*
G01*
X90620000Y-67785000D02*
X90620000Y-66835000D01*
G75*
G02*
X90870000Y-66585000I250000J0D01*
G01*
X91370000Y-66585000D01*
G75*
G02*
X91620000Y-66835000I0J-250000D01*
G01*
X91620000Y-67785000D01*
G75*
G02*
X91370000Y-68035000I-250000J0D01*
G01*
X90870000Y-68035000D01*
G75*
G02*
X90620000Y-67785000I0J250000D01*
G01*
G37*
G36*
G01*
X88720000Y-67785000D02*
X88720000Y-66835000D01*
G75*
G02*
X88970000Y-66585000I250000J0D01*
G01*
X89470000Y-66585000D01*
G75*
G02*
X89720000Y-66835000I0J-250000D01*
G01*
X89720000Y-67785000D01*
G75*
G02*
X89470000Y-68035000I-250000J0D01*
G01*
X88970000Y-68035000D01*
G75*
G02*
X88720000Y-67785000I0J250000D01*
G01*
G37*
%TD*%
%TO.C,C4*%
G36*
G01*
X103010000Y-71595000D02*
X103010000Y-70645000D01*
G75*
G02*
X103260000Y-70395000I250000J0D01*
G01*
X103760000Y-70395000D01*
G75*
G02*
X104010000Y-70645000I0J-250000D01*
G01*
X104010000Y-71595000D01*
G75*
G02*
X103760000Y-71845000I-250000J0D01*
G01*
X103260000Y-71845000D01*
G75*
G02*
X103010000Y-71595000I0J250000D01*
G01*
G37*
G36*
G01*
X104910000Y-71595000D02*
X104910000Y-70645000D01*
G75*
G02*
X105160000Y-70395000I250000J0D01*
G01*
X105660000Y-70395000D01*
G75*
G02*
X105910000Y-70645000I0J-250000D01*
G01*
X105910000Y-71595000D01*
G75*
G02*
X105660000Y-71845000I-250000J0D01*
G01*
X105160000Y-71845000D01*
G75*
G02*
X104910000Y-71595000I0J250000D01*
G01*
G37*
%TD*%
%TO.C,C5*%
G36*
G01*
X111940000Y-75725000D02*
X111940000Y-76675000D01*
G75*
G02*
X111690000Y-76925000I-250000J0D01*
G01*
X111190000Y-76925000D01*
G75*
G02*
X110940000Y-76675000I0J250000D01*
G01*
X110940000Y-75725000D01*
G75*
G02*
X111190000Y-75475000I250000J0D01*
G01*
X111690000Y-75475000D01*
G75*
G02*
X111940000Y-75725000I0J-250000D01*
G01*
G37*
G36*
G01*
X110040000Y-75725000D02*
X110040000Y-76675000D01*
G75*
G02*
X109790000Y-76925000I-250000J0D01*
G01*
X109290000Y-76925000D01*
G75*
G02*
X109040000Y-76675000I0J250000D01*
G01*
X109040000Y-75725000D01*
G75*
G02*
X109290000Y-75475000I250000J0D01*
G01*
X109790000Y-75475000D01*
G75*
G02*
X110040000Y-75725000I0J-250000D01*
G01*
G37*
%TD*%
%TO.C,C6*%
G36*
G01*
X104590000Y-76675000D02*
X104590000Y-75725000D01*
G75*
G02*
X104840000Y-75475000I250000J0D01*
G01*
X105340000Y-75475000D01*
G75*
G02*
X105590000Y-75725000I0J-250000D01*
G01*
X105590000Y-76675000D01*
G75*
G02*
X105340000Y-76925000I-250000J0D01*
G01*
X104840000Y-76925000D01*
G75*
G02*
X104590000Y-76675000I0J250000D01*
G01*
G37*
G36*
G01*
X102690000Y-76675000D02*
X102690000Y-75725000D01*
G75*
G02*
X102940000Y-75475000I250000J0D01*
G01*
X103440000Y-75475000D01*
G75*
G02*
X103690000Y-75725000I0J-250000D01*
G01*
X103690000Y-76675000D01*
G75*
G02*
X103440000Y-76925000I-250000J0D01*
G01*
X102940000Y-76925000D01*
G75*
G02*
X102690000Y-76675000I0J250000D01*
G01*
G37*
%TD*%
%TO.C,C7*%
G36*
G01*
X93505000Y-78560000D02*
X94455000Y-78560000D01*
G75*
G02*
X94705000Y-78810000I0J-250000D01*
G01*
X94705000Y-79310000D01*
G75*
G02*
X94455000Y-79560000I-250000J0D01*
G01*
X93505000Y-79560000D01*
G75*
G02*
X93255000Y-79310000I0J250000D01*
G01*
X93255000Y-78810000D01*
G75*
G02*
X93505000Y-78560000I250000J0D01*
G01*
G37*
G36*
G01*
X93505000Y-80460000D02*
X94455000Y-80460000D01*
G75*
G02*
X94705000Y-80710000I0J-250000D01*
G01*
X94705000Y-81210000D01*
G75*
G02*
X94455000Y-81460000I-250000J0D01*
G01*
X93505000Y-81460000D01*
G75*
G02*
X93255000Y-81210000I0J250000D01*
G01*
X93255000Y-80710000D01*
G75*
G02*
X93505000Y-80460000I250000J0D01*
G01*
G37*
%TD*%
%TO.C,Logic*%
G36*
G01*
X131823750Y-57500000D02*
X132336250Y-57500000D01*
G75*
G02*
X132555000Y-57718750I0J-218750D01*
G01*
X132555000Y-58156250D01*
G75*
G02*
X132336250Y-58375000I-218750J0D01*
G01*
X131823750Y-58375000D01*
G75*
G02*
X131605000Y-58156250I0J218750D01*
G01*
X131605000Y-57718750D01*
G75*
G02*
X131823750Y-57500000I218750J0D01*
G01*
G37*
G36*
G01*
X131823750Y-55925000D02*
X132336250Y-55925000D01*
G75*
G02*
X132555000Y-56143750I0J-218750D01*
G01*
X132555000Y-56581250D01*
G75*
G02*
X132336250Y-56800000I-218750J0D01*
G01*
X131823750Y-56800000D01*
G75*
G02*
X131605000Y-56581250I0J218750D01*
G01*
X131605000Y-56143750D01*
G75*
G02*
X131823750Y-55925000I218750J0D01*
G01*
G37*
%TD*%
%TO.C,Power*%
G36*
G01*
X134363750Y-55925000D02*
X134876250Y-55925000D01*
G75*
G02*
X135095000Y-56143750I0J-218750D01*
G01*
X135095000Y-56581250D01*
G75*
G02*
X134876250Y-56800000I-218750J0D01*
G01*
X134363750Y-56800000D01*
G75*
G02*
X134145000Y-56581250I0J218750D01*
G01*
X134145000Y-56143750D01*
G75*
G02*
X134363750Y-55925000I218750J0D01*
G01*
G37*
G36*
G01*
X134363750Y-57500000D02*
X134876250Y-57500000D01*
G75*
G02*
X135095000Y-57718750I0J-218750D01*
G01*
X135095000Y-58156250D01*
G75*
G02*
X134876250Y-58375000I-218750J0D01*
G01*
X134363750Y-58375000D01*
G75*
G02*
X134145000Y-58156250I0J218750D01*
G01*
X134145000Y-57718750D01*
G75*
G02*
X134363750Y-57500000I218750J0D01*
G01*
G37*
%TD*%
D10*
%TO.C,D3*%
X95250000Y-63890000D03*
X95250000Y-68190000D03*
%TD*%
%TO.C,R1*%
G36*
G01*
X132355000Y-60535000D02*
X131805000Y-60535000D01*
G75*
G02*
X131605000Y-60335000I0J200000D01*
G01*
X131605000Y-59935000D01*
G75*
G02*
X131805000Y-59735000I200000J0D01*
G01*
X132355000Y-59735000D01*
G75*
G02*
X132555000Y-59935000I0J-200000D01*
G01*
X132555000Y-60335000D01*
G75*
G02*
X132355000Y-60535000I-200000J0D01*
G01*
G37*
G36*
G01*
X132355000Y-62185000D02*
X131805000Y-62185000D01*
G75*
G02*
X131605000Y-61985000I0J200000D01*
G01*
X131605000Y-61585000D01*
G75*
G02*
X131805000Y-61385000I200000J0D01*
G01*
X132355000Y-61385000D01*
G75*
G02*
X132555000Y-61585000I0J-200000D01*
G01*
X132555000Y-61985000D01*
G75*
G02*
X132355000Y-62185000I-200000J0D01*
G01*
G37*
%TD*%
%TO.C,R2*%
G36*
G01*
X134895000Y-62185000D02*
X134345000Y-62185000D01*
G75*
G02*
X134145000Y-61985000I0J200000D01*
G01*
X134145000Y-61585000D01*
G75*
G02*
X134345000Y-61385000I200000J0D01*
G01*
X134895000Y-61385000D01*
G75*
G02*
X135095000Y-61585000I0J-200000D01*
G01*
X135095000Y-61985000D01*
G75*
G02*
X134895000Y-62185000I-200000J0D01*
G01*
G37*
G36*
G01*
X134895000Y-60535000D02*
X134345000Y-60535000D01*
G75*
G02*
X134145000Y-60335000I0J200000D01*
G01*
X134145000Y-59935000D01*
G75*
G02*
X134345000Y-59735000I200000J0D01*
G01*
X134895000Y-59735000D01*
G75*
G02*
X135095000Y-59935000I0J-200000D01*
G01*
X135095000Y-60335000D01*
G75*
G02*
X134895000Y-60535000I-200000J0D01*
G01*
G37*
%TD*%
%TO.C,R3*%
G36*
G01*
X81325000Y-81555000D02*
X81325000Y-81005000D01*
G75*
G02*
X81525000Y-80805000I200000J0D01*
G01*
X81925000Y-80805000D01*
G75*
G02*
X82125000Y-81005000I0J-200000D01*
G01*
X82125000Y-81555000D01*
G75*
G02*
X81925000Y-81755000I-200000J0D01*
G01*
X81525000Y-81755000D01*
G75*
G02*
X81325000Y-81555000I0J200000D01*
G01*
G37*
G36*
G01*
X82975000Y-81555000D02*
X82975000Y-81005000D01*
G75*
G02*
X83175000Y-80805000I200000J0D01*
G01*
X83575000Y-80805000D01*
G75*
G02*
X83775000Y-81005000I0J-200000D01*
G01*
X83775000Y-81555000D01*
G75*
G02*
X83575000Y-81755000I-200000J0D01*
G01*
X83175000Y-81755000D01*
G75*
G02*
X82975000Y-81555000I0J200000D01*
G01*
G37*
%TD*%
%TO.C,R4*%
G36*
G01*
X129585000Y-73935000D02*
X129585000Y-73385000D01*
G75*
G02*
X129785000Y-73185000I200000J0D01*
G01*
X130185000Y-73185000D01*
G75*
G02*
X130385000Y-73385000I0J-200000D01*
G01*
X130385000Y-73935000D01*
G75*
G02*
X130185000Y-74135000I-200000J0D01*
G01*
X129785000Y-74135000D01*
G75*
G02*
X129585000Y-73935000I0J200000D01*
G01*
G37*
G36*
G01*
X131235000Y-73935000D02*
X131235000Y-73385000D01*
G75*
G02*
X131435000Y-73185000I200000J0D01*
G01*
X131835000Y-73185000D01*
G75*
G02*
X132035000Y-73385000I0J-200000D01*
G01*
X132035000Y-73935000D01*
G75*
G02*
X131835000Y-74135000I-200000J0D01*
G01*
X131435000Y-74135000D01*
G75*
G02*
X131235000Y-73935000I0J200000D01*
G01*
G37*
%TD*%
%TO.C,R5*%
G36*
G01*
X82975000Y-84095000D02*
X82975000Y-83545000D01*
G75*
G02*
X83175000Y-83345000I200000J0D01*
G01*
X83575000Y-83345000D01*
G75*
G02*
X83775000Y-83545000I0J-200000D01*
G01*
X83775000Y-84095000D01*
G75*
G02*
X83575000Y-84295000I-200000J0D01*
G01*
X83175000Y-84295000D01*
G75*
G02*
X82975000Y-84095000I0J200000D01*
G01*
G37*
G36*
G01*
X81325000Y-84095000D02*
X81325000Y-83545000D01*
G75*
G02*
X81525000Y-83345000I200000J0D01*
G01*
X81925000Y-83345000D01*
G75*
G02*
X82125000Y-83545000I0J-200000D01*
G01*
X82125000Y-84095000D01*
G75*
G02*
X81925000Y-84295000I-200000J0D01*
G01*
X81525000Y-84295000D01*
G75*
G02*
X81325000Y-84095000I0J200000D01*
G01*
G37*
%TD*%
D11*
%TO.C,U1*%
X114875000Y-58830000D03*
X114875000Y-60530000D03*
X114875000Y-62230000D03*
X114875000Y-63930000D03*
X114875000Y-65630000D03*
D12*
X126450000Y-65005000D03*
X121600000Y-59455000D03*
X126450000Y-59455000D03*
X121600000Y-65005000D03*
%TD*%
D13*
%TO.C,U2*%
X115130000Y-73400000D03*
X115130000Y-74200000D03*
X115130000Y-75000000D03*
X115130000Y-75800000D03*
X115130000Y-76600000D03*
X115130000Y-77400000D03*
X115130000Y-78200000D03*
X115130000Y-79000000D03*
D14*
X116580000Y-80450000D03*
X117380000Y-80450000D03*
X118180000Y-80450000D03*
X118980000Y-80450000D03*
X119780000Y-80450000D03*
X120580000Y-80450000D03*
X121380000Y-80450000D03*
X122180000Y-80450000D03*
D13*
X123630000Y-79000000D03*
X123630000Y-78200000D03*
X123630000Y-77400000D03*
X123630000Y-76600000D03*
X123630000Y-75800000D03*
X123630000Y-75000000D03*
X123630000Y-74200000D03*
X123630000Y-73400000D03*
D14*
X122180000Y-71950000D03*
X121380000Y-71950000D03*
X120580000Y-71950000D03*
X119780000Y-71950000D03*
X118980000Y-71950000D03*
X118180000Y-71950000D03*
X117380000Y-71950000D03*
X116580000Y-71950000D03*
%TD*%
D15*
%TO.C,Y1*%
X109660000Y-80010000D03*
X101160000Y-80010000D03*
%TD*%
D16*
%TO.C,L1*%
X105410000Y-57280000D03*
X105410000Y-67180000D03*
%TD*%
M02*
