%TF.GenerationSoftware,KiCad,Pcbnew,5.99.0+really5.1.10+dfsg1-1*%
%TF.CreationDate,2022-04-25T00:01:12+02:00*%
%TF.ProjectId,mini_accessory,6d696e69-5f61-4636-9365-73736f72792e,rev?*%
%TF.SameCoordinates,Original*%
%TF.FileFunction,Copper,L2,Bot*%
%TF.FilePolarity,Positive*%
%FSLAX46Y46*%
G04 Gerber Fmt 4.6, Leading zero omitted, Abs format (unit mm)*
G04 Created by KiCad (PCBNEW 5.99.0+really5.1.10+dfsg1-1) date 2022-04-25 00:01:12*
%MOMM*%
%LPD*%
G01*
G04 APERTURE LIST*
%TA.AperFunction,ComponentPad*%
%ADD10R,1.600000X1.600000*%
%TD*%
%TA.AperFunction,ComponentPad*%
%ADD11C,1.600000*%
%TD*%
%TA.AperFunction,ComponentPad*%
%ADD12R,3.500000X3.500000*%
%TD*%
%TA.AperFunction,ComponentPad*%
%ADD13O,2.190000X1.740000*%
%TD*%
%TA.AperFunction,ComponentPad*%
%ADD14R,1.700000X1.700000*%
%TD*%
%TA.AperFunction,ComponentPad*%
%ADD15O,1.700000X1.700000*%
%TD*%
%TA.AperFunction,ComponentPad*%
%ADD16O,1.740000X2.190000*%
%TD*%
%TA.AperFunction,ComponentPad*%
%ADD17C,2.000000*%
%TD*%
%TA.AperFunction,ViaPad*%
%ADD18C,0.800000*%
%TD*%
%TA.AperFunction,Conductor*%
%ADD19C,0.250000*%
%TD*%
%TA.AperFunction,Conductor*%
%ADD20C,0.254000*%
%TD*%
%TA.AperFunction,Conductor*%
%ADD21C,0.100000*%
%TD*%
G04 APERTURE END LIST*
D10*
%TO.P,C1,1*%
%TO.N,Net-(C1-Pad1)*%
X92710000Y-58420000D03*
D11*
%TO.P,C1,2*%
%TO.N,GND*%
X95210000Y-58420000D03*
%TD*%
D10*
%TO.P,C3,1*%
%TO.N,+5VP*%
X100330000Y-73660000D03*
D11*
%TO.P,C3,2*%
%TO.N,GND*%
X97830000Y-73660000D03*
%TD*%
D12*
%TO.P,12V,1*%
%TO.N,Net-(C1-Pad1)*%
X87630000Y-60960000D03*
%TO.P,12V,2*%
%TO.N,GND*%
%TA.AperFunction,ComponentPad*%
G36*
G01*
X80130000Y-61960000D02*
X80130000Y-59960000D01*
G75*
G02*
X80880000Y-59210000I750000J0D01*
G01*
X82380000Y-59210000D01*
G75*
G02*
X83130000Y-59960000I0J-750000D01*
G01*
X83130000Y-61960000D01*
G75*
G02*
X82380000Y-62710000I-750000J0D01*
G01*
X80880000Y-62710000D01*
G75*
G02*
X80130000Y-61960000I0J750000D01*
G01*
G37*
%TD.AperFunction*%
%TO.P,12V,3*%
%TO.N,N/C*%
%TA.AperFunction,ComponentPad*%
G36*
G01*
X82880000Y-66535000D02*
X82880000Y-64785000D01*
G75*
G02*
X83755000Y-63910000I875000J0D01*
G01*
X85505000Y-63910000D01*
G75*
G02*
X86380000Y-64785000I0J-875000D01*
G01*
X86380000Y-66535000D01*
G75*
G02*
X85505000Y-67410000I-875000J0D01*
G01*
X83755000Y-67410000D01*
G75*
G02*
X82880000Y-66535000I0J875000D01*
G01*
G37*
%TD.AperFunction*%
%TD*%
D13*
%TO.P,I2C,4*%
%TO.N,GND*%
X81280000Y-71120000D03*
%TO.P,I2C,3*%
%TO.N,/SCL*%
X81280000Y-73660000D03*
%TO.P,I2C,2*%
%TO.N,/SDA*%
X81280000Y-76200000D03*
%TO.P,I2C,1*%
%TO.N,+5V*%
%TA.AperFunction,ComponentPad*%
G36*
G01*
X82125001Y-79610000D02*
X80434999Y-79610000D01*
G75*
G02*
X80185000Y-79360001I0J249999D01*
G01*
X80185000Y-78119999D01*
G75*
G02*
X80434999Y-77870000I249999J0D01*
G01*
X82125001Y-77870000D01*
G75*
G02*
X82375000Y-78119999I0J-249999D01*
G01*
X82375000Y-79360001D01*
G75*
G02*
X82125001Y-79610000I-249999J0D01*
G01*
G37*
%TD.AperFunction*%
%TD*%
D14*
%TO.P,J3,1*%
%TO.N,/MISO*%
X133350000Y-66040000D03*
D15*
%TO.P,J3,2*%
%TO.N,+5V*%
X135890000Y-66040000D03*
%TO.P,J3,3*%
%TO.N,/SCK*%
X133350000Y-68580000D03*
%TO.P,J3,4*%
%TO.N,/MOSI*%
X135890000Y-68580000D03*
%TO.P,J3,5*%
%TO.N,/RST*%
X133350000Y-71120000D03*
%TO.P,J3,6*%
%TO.N,GND*%
X135890000Y-71120000D03*
%TD*%
%TO.P,J4,1*%
%TO.N,+5V*%
%TA.AperFunction,ComponentPad*%
G36*
G01*
X89745001Y-79610000D02*
X88054999Y-79610000D01*
G75*
G02*
X87805000Y-79360001I0J249999D01*
G01*
X87805000Y-78119999D01*
G75*
G02*
X88054999Y-77870000I249999J0D01*
G01*
X89745001Y-77870000D01*
G75*
G02*
X89995000Y-78119999I0J-249999D01*
G01*
X89995000Y-79360001D01*
G75*
G02*
X89745001Y-79610000I-249999J0D01*
G01*
G37*
%TD.AperFunction*%
D13*
%TO.P,J4,2*%
%TO.N,/SDA*%
X88900000Y-76200000D03*
%TO.P,J4,3*%
%TO.N,/SCL*%
X88900000Y-73660000D03*
%TO.P,J4,4*%
%TO.N,GND*%
X88900000Y-71120000D03*
%TD*%
%TO.P,Servo 0,1*%
%TO.N,GND*%
%TA.AperFunction,ComponentPad*%
G36*
G01*
X96920000Y-89745001D02*
X96920000Y-88054999D01*
G75*
G02*
X97169999Y-87805000I249999J0D01*
G01*
X98410001Y-87805000D01*
G75*
G02*
X98660000Y-88054999I0J-249999D01*
G01*
X98660000Y-89745001D01*
G75*
G02*
X98410001Y-89995000I-249999J0D01*
G01*
X97169999Y-89995000D01*
G75*
G02*
X96920000Y-89745001I0J249999D01*
G01*
G37*
%TD.AperFunction*%
D16*
%TO.P,Servo 0,2*%
%TO.N,+5VP*%
X100330000Y-88900000D03*
%TO.P,Servo 0,3*%
%TO.N,/SERVO0*%
X102870000Y-88900000D03*
%TD*%
%TO.P,US 0,1*%
%TO.N,GND*%
%TA.AperFunction,ComponentPad*%
G36*
G01*
X125330000Y-88054999D02*
X125330000Y-89745001D01*
G75*
G02*
X125080001Y-89995000I-249999J0D01*
G01*
X123839999Y-89995000D01*
G75*
G02*
X123590000Y-89745001I0J249999D01*
G01*
X123590000Y-88054999D01*
G75*
G02*
X123839999Y-87805000I249999J0D01*
G01*
X125080001Y-87805000D01*
G75*
G02*
X125330000Y-88054999I0J-249999D01*
G01*
G37*
%TD.AperFunction*%
%TO.P,US 0,2*%
%TO.N,/US0*%
X121920000Y-88900000D03*
%TO.P,US 0,3*%
X119380000Y-88900000D03*
%TO.P,US 0,4*%
%TO.N,+5V*%
X116840000Y-88900000D03*
%TD*%
%TO.P,Servo 1,1*%
%TO.N,GND*%
%TA.AperFunction,ComponentPad*%
G36*
G01*
X93110000Y-97365001D02*
X93110000Y-95674999D01*
G75*
G02*
X93359999Y-95425000I249999J0D01*
G01*
X94600001Y-95425000D01*
G75*
G02*
X94850000Y-95674999I0J-249999D01*
G01*
X94850000Y-97365001D01*
G75*
G02*
X94600001Y-97615000I-249999J0D01*
G01*
X93359999Y-97615000D01*
G75*
G02*
X93110000Y-97365001I0J249999D01*
G01*
G37*
%TD.AperFunction*%
%TO.P,Servo 1,2*%
%TO.N,+5VP*%
X96520000Y-96520000D03*
%TO.P,Servo 1,3*%
%TO.N,/SERVO1*%
X99060000Y-96520000D03*
%TD*%
%TO.P,US 1,1*%
%TO.N,GND*%
%TA.AperFunction,ComponentPad*%
G36*
G01*
X125330000Y-95674999D02*
X125330000Y-97365001D01*
G75*
G02*
X125080001Y-97615000I-249999J0D01*
G01*
X123839999Y-97615000D01*
G75*
G02*
X123590000Y-97365001I0J249999D01*
G01*
X123590000Y-95674999D01*
G75*
G02*
X123839999Y-95425000I249999J0D01*
G01*
X125080001Y-95425000D01*
G75*
G02*
X125330000Y-95674999I0J-249999D01*
G01*
G37*
%TD.AperFunction*%
%TO.P,US 1,2*%
%TO.N,/US1*%
X121920000Y-96520000D03*
%TO.P,US 1,3*%
X119380000Y-96520000D03*
%TO.P,US 1,4*%
%TO.N,+5V*%
X116840000Y-96520000D03*
%TD*%
D13*
%TO.P,US 2,4*%
%TO.N,+5V*%
X110490000Y-96520000D03*
%TO.P,US 2,3*%
%TO.N,/US2*%
X110490000Y-93980000D03*
%TO.P,US 2,2*%
X110490000Y-91440000D03*
%TO.P,US 2,1*%
%TO.N,GND*%
%TA.AperFunction,ComponentPad*%
G36*
G01*
X109644999Y-88030000D02*
X111335001Y-88030000D01*
G75*
G02*
X111585000Y-88279999I0J-249999D01*
G01*
X111585000Y-89520001D01*
G75*
G02*
X111335001Y-89770000I-249999J0D01*
G01*
X109644999Y-89770000D01*
G75*
G02*
X109395000Y-89520001I0J249999D01*
G01*
X109395000Y-88279999D01*
G75*
G02*
X109644999Y-88030000I249999J0D01*
G01*
G37*
%TD.AperFunction*%
%TD*%
D16*
%TO.P,Servo 2,3*%
%TO.N,/SERVO2*%
X93980000Y-88900000D03*
%TO.P,Servo 2,2*%
%TO.N,+5VP*%
X91440000Y-88900000D03*
%TO.P,Servo 2,1*%
%TO.N,GND*%
%TA.AperFunction,ComponentPad*%
G36*
G01*
X88030000Y-89745001D02*
X88030000Y-88054999D01*
G75*
G02*
X88279999Y-87805000I249999J0D01*
G01*
X89520001Y-87805000D01*
G75*
G02*
X89770000Y-88054999I0J-249999D01*
G01*
X89770000Y-89745001D01*
G75*
G02*
X89520001Y-89995000I-249999J0D01*
G01*
X88279999Y-89995000D01*
G75*
G02*
X88030000Y-89745001I0J249999D01*
G01*
G37*
%TD.AperFunction*%
%TD*%
D17*
%TO.P,RESET,2*%
%TO.N,/RST*%
X137160000Y-76780000D03*
%TO.P,RESET,1*%
%TO.N,GND*%
X137160000Y-81280000D03*
%TO.P,RESET,2*%
%TO.N,/RST*%
X130660000Y-76780000D03*
%TO.P,RESET,1*%
%TO.N,GND*%
X130660000Y-81280000D03*
%TD*%
D18*
%TO.N,GND*%
X105090000Y-73980000D03*
X118520000Y-65630000D03*
%TO.N,+5V*%
X130810000Y-63500000D03*
X118015000Y-78200000D03*
X139065000Y-69850000D03*
%TO.N,/US0*%
X125730000Y-73660000D03*
%TO.N,/US1*%
X126480000Y-71120000D03*
%TO.N,/US2*%
X124460000Y-69850000D03*
%TO.N,/SERVO2*%
X110490000Y-72390000D03*
%TD*%
D19*
%TO.N,+5V*%
X135890000Y-66040000D02*
X133350000Y-63500000D01*
X133350000Y-63500000D02*
X130810000Y-63500000D01*
X109069990Y-95099990D02*
X110490000Y-96520000D01*
X109069990Y-87145010D02*
X109069990Y-95099990D01*
X118015000Y-78200000D02*
X109069990Y-87145010D01*
X139065000Y-69215000D02*
X135890000Y-66040000D01*
X139065000Y-69850000D02*
X139065000Y-69215000D01*
%TO.N,/SDA*%
X88900000Y-76200000D02*
X81280000Y-76200000D01*
%TO.N,/US0*%
X125730000Y-73660000D02*
X125730000Y-83820000D01*
X121920000Y-87630000D02*
X121920000Y-88900000D01*
X125730000Y-83820000D02*
X121920000Y-87630000D01*
%TO.N,/US1*%
X126480000Y-71120000D02*
X126480000Y-84340000D01*
X123115010Y-95324990D02*
X121920000Y-96520000D01*
X123115010Y-87704990D02*
X123115010Y-95324990D01*
X126480000Y-84340000D02*
X123115010Y-87704990D01*
%TO.N,/US2*%
X124460000Y-69850000D02*
X124460000Y-83820000D01*
X124460000Y-83820000D02*
X123190000Y-85090000D01*
X112385001Y-91440000D02*
X110490000Y-91440000D01*
X118735001Y-85090000D02*
X112385001Y-91440000D01*
X123190000Y-85090000D02*
X118735001Y-85090000D01*
%TO.N,/SERVO2*%
X110490000Y-72390000D02*
X93980000Y-88900000D01*
%TD*%
D20*
%TO.N,GND*%
X140310001Y-100940000D02*
X78130000Y-100940000D01*
X78130000Y-98889117D01*
X136695000Y-98889117D01*
X136695000Y-99230883D01*
X136761675Y-99566081D01*
X136892463Y-99881831D01*
X137082337Y-100165998D01*
X137324002Y-100407663D01*
X137608169Y-100597537D01*
X137923919Y-100728325D01*
X138259117Y-100795000D01*
X138600883Y-100795000D01*
X138936081Y-100728325D01*
X139251831Y-100597537D01*
X139535998Y-100407663D01*
X139777663Y-100165998D01*
X139967537Y-99881831D01*
X140098325Y-99566081D01*
X140165000Y-99230883D01*
X140165000Y-98889117D01*
X140098325Y-98553919D01*
X139967537Y-98238169D01*
X139777663Y-97954002D01*
X139535998Y-97712337D01*
X139251831Y-97522463D01*
X138936081Y-97391675D01*
X138600883Y-97325000D01*
X138259117Y-97325000D01*
X137923919Y-97391675D01*
X137608169Y-97522463D01*
X137324002Y-97712337D01*
X137082337Y-97954002D01*
X136892463Y-98238169D01*
X136761675Y-98553919D01*
X136695000Y-98889117D01*
X78130000Y-98889117D01*
X78130000Y-96349117D01*
X79545000Y-96349117D01*
X79545000Y-96690883D01*
X79611675Y-97026081D01*
X79742463Y-97341831D01*
X79932337Y-97625998D01*
X80174002Y-97867663D01*
X80458169Y-98057537D01*
X80773919Y-98188325D01*
X81109117Y-98255000D01*
X81450883Y-98255000D01*
X81786081Y-98188325D01*
X82101831Y-98057537D01*
X82385998Y-97867663D01*
X82627663Y-97625998D01*
X82635011Y-97615000D01*
X92471928Y-97615000D01*
X92484188Y-97739482D01*
X92520498Y-97859180D01*
X92579463Y-97969494D01*
X92658815Y-98066185D01*
X92755506Y-98145537D01*
X92865820Y-98204502D01*
X92985518Y-98240812D01*
X93110000Y-98253072D01*
X93694250Y-98250000D01*
X93853000Y-98091250D01*
X93853000Y-96647000D01*
X92633750Y-96647000D01*
X92475000Y-96805750D01*
X92471928Y-97615000D01*
X82635011Y-97615000D01*
X82817537Y-97341831D01*
X82948325Y-97026081D01*
X83015000Y-96690883D01*
X83015000Y-96349117D01*
X82948325Y-96013919D01*
X82817537Y-95698169D01*
X82635012Y-95425000D01*
X92471928Y-95425000D01*
X92475000Y-96234250D01*
X92633750Y-96393000D01*
X93853000Y-96393000D01*
X93853000Y-94948750D01*
X94107000Y-94948750D01*
X94107000Y-96393000D01*
X94127000Y-96393000D01*
X94127000Y-96647000D01*
X94107000Y-96647000D01*
X94107000Y-98091250D01*
X94265750Y-98250000D01*
X94850000Y-98253072D01*
X94974482Y-98240812D01*
X95094180Y-98204502D01*
X95204494Y-98145537D01*
X95301185Y-98066185D01*
X95380537Y-97969494D01*
X95439502Y-97859180D01*
X95452615Y-97815953D01*
X95679822Y-98002417D01*
X95941276Y-98142166D01*
X96224969Y-98228224D01*
X96520000Y-98257282D01*
X96815032Y-98228224D01*
X97098725Y-98142166D01*
X97360179Y-98002417D01*
X97589345Y-97814345D01*
X97777417Y-97585179D01*
X97790000Y-97561638D01*
X97802583Y-97585179D01*
X97990655Y-97814345D01*
X98219822Y-98002417D01*
X98481276Y-98142166D01*
X98764969Y-98228224D01*
X99060000Y-98257282D01*
X99355032Y-98228224D01*
X99638725Y-98142166D01*
X99900179Y-98002417D01*
X100129345Y-97814345D01*
X100317417Y-97585179D01*
X100457166Y-97323724D01*
X100543224Y-97040031D01*
X100565000Y-96818935D01*
X100565000Y-96221064D01*
X100543224Y-95999968D01*
X100457166Y-95716275D01*
X100317417Y-95454821D01*
X100129345Y-95225655D01*
X99900178Y-95037583D01*
X99638724Y-94897834D01*
X99355031Y-94811776D01*
X99060000Y-94782718D01*
X98764968Y-94811776D01*
X98481275Y-94897834D01*
X98219821Y-95037583D01*
X97990655Y-95225655D01*
X97802583Y-95454822D01*
X97790000Y-95478363D01*
X97777417Y-95454821D01*
X97589345Y-95225655D01*
X97360178Y-95037583D01*
X97098724Y-94897834D01*
X96815031Y-94811776D01*
X96520000Y-94782718D01*
X96224968Y-94811776D01*
X95941275Y-94897834D01*
X95679821Y-95037583D01*
X95452615Y-95224047D01*
X95439502Y-95180820D01*
X95380537Y-95070506D01*
X95301185Y-94973815D01*
X95204494Y-94894463D01*
X95094180Y-94835498D01*
X94974482Y-94799188D01*
X94850000Y-94786928D01*
X94265750Y-94790000D01*
X94107000Y-94948750D01*
X93853000Y-94948750D01*
X93694250Y-94790000D01*
X93110000Y-94786928D01*
X92985518Y-94799188D01*
X92865820Y-94835498D01*
X92755506Y-94894463D01*
X92658815Y-94973815D01*
X92579463Y-95070506D01*
X92520498Y-95180820D01*
X92484188Y-95300518D01*
X92471928Y-95425000D01*
X82635012Y-95425000D01*
X82627663Y-95414002D01*
X82385998Y-95172337D01*
X82101831Y-94982463D01*
X81786081Y-94851675D01*
X81450883Y-94785000D01*
X81109117Y-94785000D01*
X80773919Y-94851675D01*
X80458169Y-94982463D01*
X80174002Y-95172337D01*
X79932337Y-95414002D01*
X79742463Y-95698169D01*
X79611675Y-96013919D01*
X79545000Y-96349117D01*
X78130000Y-96349117D01*
X78130000Y-89995000D01*
X87391928Y-89995000D01*
X87404188Y-90119482D01*
X87440498Y-90239180D01*
X87499463Y-90349494D01*
X87578815Y-90446185D01*
X87675506Y-90525537D01*
X87785820Y-90584502D01*
X87905518Y-90620812D01*
X88030000Y-90633072D01*
X88614250Y-90630000D01*
X88773000Y-90471250D01*
X88773000Y-89027000D01*
X87553750Y-89027000D01*
X87395000Y-89185750D01*
X87391928Y-89995000D01*
X78130000Y-89995000D01*
X78130000Y-87805000D01*
X87391928Y-87805000D01*
X87395000Y-88614250D01*
X87553750Y-88773000D01*
X88773000Y-88773000D01*
X88773000Y-87328750D01*
X89027000Y-87328750D01*
X89027000Y-88773000D01*
X89047000Y-88773000D01*
X89047000Y-89027000D01*
X89027000Y-89027000D01*
X89027000Y-90471250D01*
X89185750Y-90630000D01*
X89770000Y-90633072D01*
X89894482Y-90620812D01*
X90014180Y-90584502D01*
X90124494Y-90525537D01*
X90221185Y-90446185D01*
X90300537Y-90349494D01*
X90359502Y-90239180D01*
X90372615Y-90195953D01*
X90599822Y-90382417D01*
X90861276Y-90522166D01*
X91144969Y-90608224D01*
X91440000Y-90637282D01*
X91735032Y-90608224D01*
X92018725Y-90522166D01*
X92280179Y-90382417D01*
X92509345Y-90194345D01*
X92697417Y-89965179D01*
X92710000Y-89941638D01*
X92722583Y-89965179D01*
X92910655Y-90194345D01*
X93139822Y-90382417D01*
X93401276Y-90522166D01*
X93684969Y-90608224D01*
X93980000Y-90637282D01*
X94275032Y-90608224D01*
X94558725Y-90522166D01*
X94820179Y-90382417D01*
X95049345Y-90194345D01*
X95212943Y-89995000D01*
X96281928Y-89995000D01*
X96294188Y-90119482D01*
X96330498Y-90239180D01*
X96389463Y-90349494D01*
X96468815Y-90446185D01*
X96565506Y-90525537D01*
X96675820Y-90584502D01*
X96795518Y-90620812D01*
X96920000Y-90633072D01*
X97504250Y-90630000D01*
X97663000Y-90471250D01*
X97663000Y-89027000D01*
X96443750Y-89027000D01*
X96285000Y-89185750D01*
X96281928Y-89995000D01*
X95212943Y-89995000D01*
X95237417Y-89965179D01*
X95377166Y-89703724D01*
X95463224Y-89420031D01*
X95485000Y-89198935D01*
X95485000Y-88601064D01*
X95473231Y-88481570D01*
X96302855Y-87651946D01*
X96294188Y-87680518D01*
X96281928Y-87805000D01*
X96285000Y-88614250D01*
X96443750Y-88773000D01*
X97663000Y-88773000D01*
X97663000Y-87328750D01*
X97917000Y-87328750D01*
X97917000Y-88773000D01*
X97937000Y-88773000D01*
X97937000Y-89027000D01*
X97917000Y-89027000D01*
X97917000Y-90471250D01*
X98075750Y-90630000D01*
X98660000Y-90633072D01*
X98784482Y-90620812D01*
X98904180Y-90584502D01*
X99014494Y-90525537D01*
X99111185Y-90446185D01*
X99190537Y-90349494D01*
X99249502Y-90239180D01*
X99262615Y-90195953D01*
X99489822Y-90382417D01*
X99751276Y-90522166D01*
X100034969Y-90608224D01*
X100330000Y-90637282D01*
X100625032Y-90608224D01*
X100908725Y-90522166D01*
X101170179Y-90382417D01*
X101399345Y-90194345D01*
X101587417Y-89965179D01*
X101600000Y-89941638D01*
X101612583Y-89965179D01*
X101800655Y-90194345D01*
X102029822Y-90382417D01*
X102291276Y-90522166D01*
X102574969Y-90608224D01*
X102870000Y-90637282D01*
X103165032Y-90608224D01*
X103448725Y-90522166D01*
X103710179Y-90382417D01*
X103939345Y-90194345D01*
X104127417Y-89965179D01*
X104267166Y-89703724D01*
X104353224Y-89420031D01*
X104375000Y-89198935D01*
X104375000Y-88601064D01*
X104353224Y-88379968D01*
X104267166Y-88096275D01*
X104127417Y-87834821D01*
X103939345Y-87605655D01*
X103710178Y-87417583D01*
X103448724Y-87277834D01*
X103165031Y-87191776D01*
X102870000Y-87162718D01*
X102574968Y-87191776D01*
X102291275Y-87277834D01*
X102029821Y-87417583D01*
X101800655Y-87605655D01*
X101612583Y-87834822D01*
X101600000Y-87858363D01*
X101587417Y-87834821D01*
X101399345Y-87605655D01*
X101170178Y-87417583D01*
X100908724Y-87277834D01*
X100625031Y-87191776D01*
X100330000Y-87162718D01*
X100034968Y-87191776D01*
X99751275Y-87277834D01*
X99489821Y-87417583D01*
X99262615Y-87604047D01*
X99249502Y-87560820D01*
X99190537Y-87450506D01*
X99111185Y-87353815D01*
X99014494Y-87274463D01*
X98904180Y-87215498D01*
X98784482Y-87179188D01*
X98660000Y-87166928D01*
X98075750Y-87170000D01*
X97917000Y-87328750D01*
X97663000Y-87328750D01*
X97504250Y-87170000D01*
X96920000Y-87166928D01*
X96795518Y-87179188D01*
X96766946Y-87187855D01*
X96809791Y-87145010D01*
X108306314Y-87145010D01*
X108309990Y-87182332D01*
X108309991Y-95062658D01*
X108306314Y-95099990D01*
X108320988Y-95248975D01*
X108364444Y-95392236D01*
X108435016Y-95524266D01*
X108506191Y-95610992D01*
X108529990Y-95639991D01*
X108558988Y-95663789D01*
X108860535Y-95965336D01*
X108781776Y-96224968D01*
X108752718Y-96520000D01*
X108781776Y-96815032D01*
X108867834Y-97098725D01*
X109007583Y-97360179D01*
X109195655Y-97589345D01*
X109424821Y-97777417D01*
X109686275Y-97917166D01*
X109969968Y-98003224D01*
X110191064Y-98025000D01*
X110788936Y-98025000D01*
X111010032Y-98003224D01*
X111293725Y-97917166D01*
X111555179Y-97777417D01*
X111784345Y-97589345D01*
X111972417Y-97360179D01*
X112112166Y-97098725D01*
X112198224Y-96815032D01*
X112227282Y-96520000D01*
X112198224Y-96224968D01*
X112112166Y-95941275D01*
X111972417Y-95679821D01*
X111784345Y-95450655D01*
X111555179Y-95262583D01*
X111531638Y-95250000D01*
X111555179Y-95237417D01*
X111784345Y-95049345D01*
X111972417Y-94820179D01*
X112112166Y-94558725D01*
X112198224Y-94275032D01*
X112227282Y-93980000D01*
X112198224Y-93684968D01*
X112112166Y-93401275D01*
X111972417Y-93139821D01*
X111784345Y-92910655D01*
X111555179Y-92722583D01*
X111531638Y-92710000D01*
X111555179Y-92697417D01*
X111784345Y-92509345D01*
X111972417Y-92280179D01*
X112015273Y-92200000D01*
X112347679Y-92200000D01*
X112385001Y-92203676D01*
X112422323Y-92200000D01*
X112422334Y-92200000D01*
X112533987Y-92189003D01*
X112677248Y-92145546D01*
X112809277Y-92074974D01*
X112925002Y-91980001D01*
X112948805Y-91950997D01*
X115385403Y-89514400D01*
X115442834Y-89703724D01*
X115582583Y-89965178D01*
X115770655Y-90194345D01*
X115999821Y-90382417D01*
X116261275Y-90522166D01*
X116544968Y-90608224D01*
X116840000Y-90637282D01*
X117135031Y-90608224D01*
X117418724Y-90522166D01*
X117680178Y-90382417D01*
X117909345Y-90194345D01*
X118097417Y-89965179D01*
X118110000Y-89941637D01*
X118122583Y-89965178D01*
X118310655Y-90194345D01*
X118539821Y-90382417D01*
X118801275Y-90522166D01*
X119084968Y-90608224D01*
X119380000Y-90637282D01*
X119675031Y-90608224D01*
X119958724Y-90522166D01*
X120220178Y-90382417D01*
X120449345Y-90194345D01*
X120637417Y-89965179D01*
X120650000Y-89941637D01*
X120662583Y-89965178D01*
X120850655Y-90194345D01*
X121079821Y-90382417D01*
X121341275Y-90522166D01*
X121624968Y-90608224D01*
X121920000Y-90637282D01*
X122215031Y-90608224D01*
X122355010Y-90565761D01*
X122355011Y-94854238D01*
X122215032Y-94811776D01*
X121920000Y-94782718D01*
X121624969Y-94811776D01*
X121341276Y-94897834D01*
X121079822Y-95037583D01*
X120850655Y-95225655D01*
X120662583Y-95454821D01*
X120650000Y-95478362D01*
X120637417Y-95454821D01*
X120449345Y-95225655D01*
X120220179Y-95037583D01*
X119958725Y-94897834D01*
X119675032Y-94811776D01*
X119380000Y-94782718D01*
X119084969Y-94811776D01*
X118801276Y-94897834D01*
X118539822Y-95037583D01*
X118310655Y-95225655D01*
X118122583Y-95454821D01*
X118110000Y-95478362D01*
X118097417Y-95454821D01*
X117909345Y-95225655D01*
X117680179Y-95037583D01*
X117418725Y-94897834D01*
X117135032Y-94811776D01*
X116840000Y-94782718D01*
X116544969Y-94811776D01*
X116261276Y-94897834D01*
X115999822Y-95037583D01*
X115770655Y-95225655D01*
X115582583Y-95454821D01*
X115442834Y-95716275D01*
X115356776Y-95999968D01*
X115335000Y-96221064D01*
X115335000Y-96818935D01*
X115356776Y-97040031D01*
X115442834Y-97323724D01*
X115582583Y-97585178D01*
X115770655Y-97814345D01*
X115999821Y-98002417D01*
X116261275Y-98142166D01*
X116544968Y-98228224D01*
X116840000Y-98257282D01*
X117135031Y-98228224D01*
X117418724Y-98142166D01*
X117680178Y-98002417D01*
X117909345Y-97814345D01*
X118097417Y-97585179D01*
X118110000Y-97561637D01*
X118122583Y-97585178D01*
X118310655Y-97814345D01*
X118539821Y-98002417D01*
X118801275Y-98142166D01*
X119084968Y-98228224D01*
X119380000Y-98257282D01*
X119675031Y-98228224D01*
X119958724Y-98142166D01*
X120220178Y-98002417D01*
X120449345Y-97814345D01*
X120637417Y-97585179D01*
X120650000Y-97561637D01*
X120662583Y-97585178D01*
X120850655Y-97814345D01*
X121079821Y-98002417D01*
X121341275Y-98142166D01*
X121624968Y-98228224D01*
X121920000Y-98257282D01*
X122215031Y-98228224D01*
X122498724Y-98142166D01*
X122760178Y-98002417D01*
X122987385Y-97815953D01*
X123000498Y-97859180D01*
X123059463Y-97969494D01*
X123138815Y-98066185D01*
X123235506Y-98145537D01*
X123345820Y-98204502D01*
X123465518Y-98240812D01*
X123590000Y-98253072D01*
X124174250Y-98250000D01*
X124333000Y-98091250D01*
X124333000Y-96647000D01*
X124587000Y-96647000D01*
X124587000Y-98091250D01*
X124745750Y-98250000D01*
X125330000Y-98253072D01*
X125454482Y-98240812D01*
X125574180Y-98204502D01*
X125684494Y-98145537D01*
X125781185Y-98066185D01*
X125860537Y-97969494D01*
X125919502Y-97859180D01*
X125955812Y-97739482D01*
X125968072Y-97615000D01*
X125965000Y-96805750D01*
X125806250Y-96647000D01*
X124587000Y-96647000D01*
X124333000Y-96647000D01*
X124313000Y-96647000D01*
X124313000Y-96393000D01*
X124333000Y-96393000D01*
X124333000Y-94948750D01*
X124587000Y-94948750D01*
X124587000Y-96393000D01*
X125806250Y-96393000D01*
X125965000Y-96234250D01*
X125968072Y-95425000D01*
X125955812Y-95300518D01*
X125919502Y-95180820D01*
X125860537Y-95070506D01*
X125781185Y-94973815D01*
X125684494Y-94894463D01*
X125574180Y-94835498D01*
X125454482Y-94799188D01*
X125330000Y-94786928D01*
X124745750Y-94790000D01*
X124587000Y-94948750D01*
X124333000Y-94948750D01*
X124174250Y-94790000D01*
X123875010Y-94788427D01*
X123875010Y-90631573D01*
X124174250Y-90630000D01*
X124333000Y-90471250D01*
X124333000Y-89027000D01*
X124587000Y-89027000D01*
X124587000Y-90471250D01*
X124745750Y-90630000D01*
X125330000Y-90633072D01*
X125454482Y-90620812D01*
X125574180Y-90584502D01*
X125684494Y-90525537D01*
X125781185Y-90446185D01*
X125860537Y-90349494D01*
X125919502Y-90239180D01*
X125955812Y-90119482D01*
X125968072Y-89995000D01*
X125965000Y-89185750D01*
X125806250Y-89027000D01*
X124587000Y-89027000D01*
X124333000Y-89027000D01*
X124313000Y-89027000D01*
X124313000Y-88773000D01*
X124333000Y-88773000D01*
X124333000Y-88753000D01*
X124587000Y-88753000D01*
X124587000Y-88773000D01*
X125806250Y-88773000D01*
X125965000Y-88614250D01*
X125968072Y-87805000D01*
X125955812Y-87680518D01*
X125919502Y-87560820D01*
X125860537Y-87450506D01*
X125781185Y-87353815D01*
X125684494Y-87274463D01*
X125574180Y-87215498D01*
X125454482Y-87179188D01*
X125330000Y-87166928D01*
X124745750Y-87170000D01*
X124587002Y-87328748D01*
X124587002Y-87307799D01*
X126991008Y-84903795D01*
X127020001Y-84880001D01*
X127043795Y-84851008D01*
X127043799Y-84851004D01*
X127114973Y-84764277D01*
X127114974Y-84764276D01*
X127185546Y-84632247D01*
X127229003Y-84488986D01*
X127240000Y-84377333D01*
X127240000Y-84377324D01*
X127243676Y-84340001D01*
X127240000Y-84302678D01*
X127240000Y-82415413D01*
X129704192Y-82415413D01*
X129799956Y-82679814D01*
X130089571Y-82820704D01*
X130401108Y-82902384D01*
X130722595Y-82921718D01*
X131041675Y-82877961D01*
X131346088Y-82772795D01*
X131520044Y-82679814D01*
X131615808Y-82415413D01*
X136204192Y-82415413D01*
X136299956Y-82679814D01*
X136589571Y-82820704D01*
X136901108Y-82902384D01*
X137222595Y-82921718D01*
X137541675Y-82877961D01*
X137846088Y-82772795D01*
X138020044Y-82679814D01*
X138115808Y-82415413D01*
X137160000Y-81459605D01*
X136204192Y-82415413D01*
X131615808Y-82415413D01*
X130660000Y-81459605D01*
X129704192Y-82415413D01*
X127240000Y-82415413D01*
X127240000Y-81342595D01*
X129018282Y-81342595D01*
X129062039Y-81661675D01*
X129167205Y-81966088D01*
X129260186Y-82140044D01*
X129524587Y-82235808D01*
X130480395Y-81280000D01*
X130839605Y-81280000D01*
X131795413Y-82235808D01*
X132059814Y-82140044D01*
X132200704Y-81850429D01*
X132282384Y-81538892D01*
X132294189Y-81342595D01*
X135518282Y-81342595D01*
X135562039Y-81661675D01*
X135667205Y-81966088D01*
X135760186Y-82140044D01*
X136024587Y-82235808D01*
X136980395Y-81280000D01*
X137339605Y-81280000D01*
X138295413Y-82235808D01*
X138559814Y-82140044D01*
X138700704Y-81850429D01*
X138782384Y-81538892D01*
X138801718Y-81217405D01*
X138757961Y-80898325D01*
X138652795Y-80593912D01*
X138559814Y-80419956D01*
X138295413Y-80324192D01*
X137339605Y-81280000D01*
X136980395Y-81280000D01*
X136024587Y-80324192D01*
X135760186Y-80419956D01*
X135619296Y-80709571D01*
X135537616Y-81021108D01*
X135518282Y-81342595D01*
X132294189Y-81342595D01*
X132301718Y-81217405D01*
X132257961Y-80898325D01*
X132152795Y-80593912D01*
X132059814Y-80419956D01*
X131795413Y-80324192D01*
X130839605Y-81280000D01*
X130480395Y-81280000D01*
X129524587Y-80324192D01*
X129260186Y-80419956D01*
X129119296Y-80709571D01*
X129037616Y-81021108D01*
X129018282Y-81342595D01*
X127240000Y-81342595D01*
X127240000Y-80144587D01*
X129704192Y-80144587D01*
X130660000Y-81100395D01*
X131615808Y-80144587D01*
X136204192Y-80144587D01*
X137160000Y-81100395D01*
X138115808Y-80144587D01*
X138020044Y-79880186D01*
X137730429Y-79739296D01*
X137418892Y-79657616D01*
X137097405Y-79638282D01*
X136778325Y-79682039D01*
X136473912Y-79787205D01*
X136299956Y-79880186D01*
X136204192Y-80144587D01*
X131615808Y-80144587D01*
X131520044Y-79880186D01*
X131230429Y-79739296D01*
X130918892Y-79657616D01*
X130597405Y-79638282D01*
X130278325Y-79682039D01*
X129973912Y-79787205D01*
X129799956Y-79880186D01*
X129704192Y-80144587D01*
X127240000Y-80144587D01*
X127240000Y-76618967D01*
X129025000Y-76618967D01*
X129025000Y-76941033D01*
X129087832Y-77256912D01*
X129211082Y-77554463D01*
X129390013Y-77822252D01*
X129617748Y-78049987D01*
X129885537Y-78228918D01*
X130183088Y-78352168D01*
X130498967Y-78415000D01*
X130821033Y-78415000D01*
X131136912Y-78352168D01*
X131434463Y-78228918D01*
X131702252Y-78049987D01*
X131929987Y-77822252D01*
X132108918Y-77554463D01*
X132232168Y-77256912D01*
X132295000Y-76941033D01*
X132295000Y-76618967D01*
X135525000Y-76618967D01*
X135525000Y-76941033D01*
X135587832Y-77256912D01*
X135711082Y-77554463D01*
X135890013Y-77822252D01*
X136117748Y-78049987D01*
X136385537Y-78228918D01*
X136683088Y-78352168D01*
X136998967Y-78415000D01*
X137321033Y-78415000D01*
X137636912Y-78352168D01*
X137934463Y-78228918D01*
X138202252Y-78049987D01*
X138429987Y-77822252D01*
X138608918Y-77554463D01*
X138732168Y-77256912D01*
X138795000Y-76941033D01*
X138795000Y-76618967D01*
X138732168Y-76303088D01*
X138608918Y-76005537D01*
X138429987Y-75737748D01*
X138202252Y-75510013D01*
X137934463Y-75331082D01*
X137636912Y-75207832D01*
X137321033Y-75145000D01*
X136998967Y-75145000D01*
X136683088Y-75207832D01*
X136385537Y-75331082D01*
X136117748Y-75510013D01*
X135890013Y-75737748D01*
X135711082Y-76005537D01*
X135587832Y-76303088D01*
X135525000Y-76618967D01*
X132295000Y-76618967D01*
X132232168Y-76303088D01*
X132108918Y-76005537D01*
X131929987Y-75737748D01*
X131702252Y-75510013D01*
X131434463Y-75331082D01*
X131136912Y-75207832D01*
X130821033Y-75145000D01*
X130498967Y-75145000D01*
X130183088Y-75207832D01*
X129885537Y-75331082D01*
X129617748Y-75510013D01*
X129390013Y-75737748D01*
X129211082Y-76005537D01*
X129087832Y-76303088D01*
X129025000Y-76618967D01*
X127240000Y-76618967D01*
X127240000Y-71823711D01*
X127283937Y-71779774D01*
X127397205Y-71610256D01*
X127475226Y-71421898D01*
X127515000Y-71221939D01*
X127515000Y-71018061D01*
X127475226Y-70818102D01*
X127397205Y-70629744D01*
X127283937Y-70460226D01*
X127139774Y-70316063D01*
X126970256Y-70202795D01*
X126781898Y-70124774D01*
X126581939Y-70085000D01*
X126378061Y-70085000D01*
X126178102Y-70124774D01*
X125989744Y-70202795D01*
X125820226Y-70316063D01*
X125676063Y-70460226D01*
X125562795Y-70629744D01*
X125484774Y-70818102D01*
X125445000Y-71018061D01*
X125445000Y-71221939D01*
X125484774Y-71421898D01*
X125562795Y-71610256D01*
X125676063Y-71779774D01*
X125720000Y-71823711D01*
X125720000Y-72625000D01*
X125628061Y-72625000D01*
X125428102Y-72664774D01*
X125239744Y-72742795D01*
X125220000Y-72755987D01*
X125220000Y-70553711D01*
X125263937Y-70509774D01*
X125377205Y-70340256D01*
X125455226Y-70151898D01*
X125495000Y-69951939D01*
X125495000Y-69748061D01*
X125455226Y-69548102D01*
X125377205Y-69359744D01*
X125263937Y-69190226D01*
X125119774Y-69046063D01*
X124950256Y-68932795D01*
X124761898Y-68854774D01*
X124561939Y-68815000D01*
X124358061Y-68815000D01*
X124158102Y-68854774D01*
X123969744Y-68932795D01*
X123800226Y-69046063D01*
X123656063Y-69190226D01*
X123542795Y-69359744D01*
X123464774Y-69548102D01*
X123425000Y-69748061D01*
X123425000Y-69951939D01*
X123464774Y-70151898D01*
X123542795Y-70340256D01*
X123656063Y-70509774D01*
X123700000Y-70553711D01*
X123700001Y-83505197D01*
X122875199Y-84330000D01*
X118772323Y-84330000D01*
X118735000Y-84326324D01*
X118697677Y-84330000D01*
X118697668Y-84330000D01*
X118586015Y-84340997D01*
X118442754Y-84384454D01*
X118310724Y-84455026D01*
X118269343Y-84488987D01*
X118195000Y-84549999D01*
X118171202Y-84578997D01*
X112070200Y-90680000D01*
X112015273Y-90680000D01*
X111972417Y-90599821D01*
X111785953Y-90372615D01*
X111829180Y-90359502D01*
X111939494Y-90300537D01*
X112036185Y-90221185D01*
X112115537Y-90124494D01*
X112174502Y-90014180D01*
X112210812Y-89894482D01*
X112223072Y-89770000D01*
X112220000Y-89185750D01*
X112061250Y-89027000D01*
X110617000Y-89027000D01*
X110617000Y-89047000D01*
X110363000Y-89047000D01*
X110363000Y-89027000D01*
X110343000Y-89027000D01*
X110343000Y-88773000D01*
X110363000Y-88773000D01*
X110363000Y-87553750D01*
X110617000Y-87553750D01*
X110617000Y-88773000D01*
X112061250Y-88773000D01*
X112220000Y-88614250D01*
X112223072Y-88030000D01*
X112210812Y-87905518D01*
X112174502Y-87785820D01*
X112115537Y-87675506D01*
X112036185Y-87578815D01*
X111939494Y-87499463D01*
X111829180Y-87440498D01*
X111709482Y-87404188D01*
X111585000Y-87391928D01*
X110775750Y-87395000D01*
X110617000Y-87553750D01*
X110363000Y-87553750D01*
X110204250Y-87395000D01*
X109895971Y-87393830D01*
X118054803Y-79235000D01*
X118116939Y-79235000D01*
X118316898Y-79195226D01*
X118505256Y-79117205D01*
X118674774Y-79003937D01*
X118818937Y-78859774D01*
X118932205Y-78690256D01*
X119010226Y-78501898D01*
X119050000Y-78301939D01*
X119050000Y-78098061D01*
X119010226Y-77898102D01*
X118932205Y-77709744D01*
X118818937Y-77540226D01*
X118674774Y-77396063D01*
X118505256Y-77282795D01*
X118316898Y-77204774D01*
X118116939Y-77165000D01*
X117913061Y-77165000D01*
X117713102Y-77204774D01*
X117524744Y-77282795D01*
X117355226Y-77396063D01*
X117211063Y-77540226D01*
X117097795Y-77709744D01*
X117019774Y-77898102D01*
X116980000Y-78098061D01*
X116980000Y-78160197D01*
X108558993Y-86581206D01*
X108529989Y-86605009D01*
X108474861Y-86672184D01*
X108435016Y-86720734D01*
X108364445Y-86852763D01*
X108364444Y-86852764D01*
X108320987Y-86996025D01*
X108309990Y-87107678D01*
X108309990Y-87107688D01*
X108306314Y-87145010D01*
X96809791Y-87145010D01*
X110529802Y-73425000D01*
X110591939Y-73425000D01*
X110791898Y-73385226D01*
X110980256Y-73307205D01*
X111149774Y-73193937D01*
X111293937Y-73049774D01*
X111407205Y-72880256D01*
X111485226Y-72691898D01*
X111525000Y-72491939D01*
X111525000Y-72288061D01*
X111485226Y-72088102D01*
X111407205Y-71899744D01*
X111293937Y-71730226D01*
X111149774Y-71586063D01*
X110980256Y-71472795D01*
X110791898Y-71394774D01*
X110591939Y-71355000D01*
X110388061Y-71355000D01*
X110188102Y-71394774D01*
X109999744Y-71472795D01*
X109830226Y-71586063D01*
X109686063Y-71730226D01*
X109572795Y-71899744D01*
X109494774Y-72088102D01*
X109455000Y-72288061D01*
X109455000Y-72350198D01*
X94534664Y-87270535D01*
X94275031Y-87191776D01*
X93980000Y-87162718D01*
X93684968Y-87191776D01*
X93401275Y-87277834D01*
X93139821Y-87417583D01*
X92910655Y-87605655D01*
X92722583Y-87834822D01*
X92710000Y-87858363D01*
X92697417Y-87834821D01*
X92509345Y-87605655D01*
X92280178Y-87417583D01*
X92018724Y-87277834D01*
X91735031Y-87191776D01*
X91440000Y-87162718D01*
X91144968Y-87191776D01*
X90861275Y-87277834D01*
X90599821Y-87417583D01*
X90372615Y-87604047D01*
X90359502Y-87560820D01*
X90300537Y-87450506D01*
X90221185Y-87353815D01*
X90124494Y-87274463D01*
X90014180Y-87215498D01*
X89894482Y-87179188D01*
X89770000Y-87166928D01*
X89185750Y-87170000D01*
X89027000Y-87328750D01*
X88773000Y-87328750D01*
X88614250Y-87170000D01*
X88030000Y-87166928D01*
X87905518Y-87179188D01*
X87785820Y-87215498D01*
X87675506Y-87274463D01*
X87578815Y-87353815D01*
X87499463Y-87450506D01*
X87440498Y-87560820D01*
X87404188Y-87680518D01*
X87391928Y-87805000D01*
X78130000Y-87805000D01*
X78130000Y-73660000D01*
X79542718Y-73660000D01*
X79571776Y-73955032D01*
X79657834Y-74238725D01*
X79797583Y-74500179D01*
X79985655Y-74729345D01*
X80214821Y-74917417D01*
X80238362Y-74930000D01*
X80214821Y-74942583D01*
X79985655Y-75130655D01*
X79797583Y-75359821D01*
X79657834Y-75621275D01*
X79571776Y-75904968D01*
X79542718Y-76200000D01*
X79571776Y-76495032D01*
X79657834Y-76778725D01*
X79797583Y-77040179D01*
X79985655Y-77269345D01*
X80051114Y-77323066D01*
X79941613Y-77381595D01*
X79807038Y-77492038D01*
X79696595Y-77626613D01*
X79614528Y-77780149D01*
X79563992Y-77946745D01*
X79546928Y-78119999D01*
X79546928Y-79360001D01*
X79563992Y-79533255D01*
X79614528Y-79699851D01*
X79696595Y-79853387D01*
X79807038Y-79987962D01*
X79941613Y-80098405D01*
X80095149Y-80180472D01*
X80261745Y-80231008D01*
X80434999Y-80248072D01*
X82125001Y-80248072D01*
X82298255Y-80231008D01*
X82464851Y-80180472D01*
X82618387Y-80098405D01*
X82752962Y-79987962D01*
X82863405Y-79853387D01*
X82945472Y-79699851D01*
X82996008Y-79533255D01*
X83013072Y-79360001D01*
X83013072Y-78119999D01*
X82996008Y-77946745D01*
X82945472Y-77780149D01*
X82863405Y-77626613D01*
X82752962Y-77492038D01*
X82618387Y-77381595D01*
X82508886Y-77323066D01*
X82574345Y-77269345D01*
X82762417Y-77040179D01*
X82805273Y-76960000D01*
X87374727Y-76960000D01*
X87417583Y-77040179D01*
X87605655Y-77269345D01*
X87671114Y-77323066D01*
X87561613Y-77381595D01*
X87427038Y-77492038D01*
X87316595Y-77626613D01*
X87234528Y-77780149D01*
X87183992Y-77946745D01*
X87166928Y-78119999D01*
X87166928Y-79360001D01*
X87183992Y-79533255D01*
X87234528Y-79699851D01*
X87316595Y-79853387D01*
X87427038Y-79987962D01*
X87561613Y-80098405D01*
X87715149Y-80180472D01*
X87881745Y-80231008D01*
X88054999Y-80248072D01*
X89745001Y-80248072D01*
X89918255Y-80231008D01*
X90084851Y-80180472D01*
X90238387Y-80098405D01*
X90372962Y-79987962D01*
X90483405Y-79853387D01*
X90565472Y-79699851D01*
X90616008Y-79533255D01*
X90633072Y-79360001D01*
X90633072Y-78119999D01*
X90616008Y-77946745D01*
X90565472Y-77780149D01*
X90483405Y-77626613D01*
X90372962Y-77492038D01*
X90238387Y-77381595D01*
X90128886Y-77323066D01*
X90194345Y-77269345D01*
X90382417Y-77040179D01*
X90522166Y-76778725D01*
X90608224Y-76495032D01*
X90637282Y-76200000D01*
X90608224Y-75904968D01*
X90522166Y-75621275D01*
X90382417Y-75359821D01*
X90194345Y-75130655D01*
X89965179Y-74942583D01*
X89941638Y-74930000D01*
X89965179Y-74917417D01*
X90194345Y-74729345D01*
X90257244Y-74652702D01*
X97016903Y-74652702D01*
X97088486Y-74896671D01*
X97343996Y-75017571D01*
X97618184Y-75086300D01*
X97900512Y-75100217D01*
X98180130Y-75058787D01*
X98446292Y-74963603D01*
X98571514Y-74896671D01*
X98643097Y-74652702D01*
X97830000Y-73839605D01*
X97016903Y-74652702D01*
X90257244Y-74652702D01*
X90382417Y-74500179D01*
X90522166Y-74238725D01*
X90608224Y-73955032D01*
X90630337Y-73730512D01*
X96389783Y-73730512D01*
X96431213Y-74010130D01*
X96526397Y-74276292D01*
X96593329Y-74401514D01*
X96837298Y-74473097D01*
X97650395Y-73660000D01*
X98009605Y-73660000D01*
X98822702Y-74473097D01*
X98891928Y-74452785D01*
X98891928Y-74460000D01*
X98904188Y-74584482D01*
X98940498Y-74704180D01*
X98999463Y-74814494D01*
X99078815Y-74911185D01*
X99175506Y-74990537D01*
X99285820Y-75049502D01*
X99405518Y-75085812D01*
X99530000Y-75098072D01*
X101130000Y-75098072D01*
X101254482Y-75085812D01*
X101374180Y-75049502D01*
X101484494Y-74990537D01*
X101581185Y-74911185D01*
X101660537Y-74814494D01*
X101719502Y-74704180D01*
X101755812Y-74584482D01*
X101768072Y-74460000D01*
X101768072Y-72860000D01*
X101755812Y-72735518D01*
X101719502Y-72615820D01*
X101660537Y-72505506D01*
X101581185Y-72408815D01*
X101484494Y-72329463D01*
X101374180Y-72270498D01*
X101254482Y-72234188D01*
X101130000Y-72221928D01*
X99530000Y-72221928D01*
X99405518Y-72234188D01*
X99285820Y-72270498D01*
X99175506Y-72329463D01*
X99078815Y-72408815D01*
X98999463Y-72505506D01*
X98940498Y-72615820D01*
X98904188Y-72735518D01*
X98891928Y-72860000D01*
X98891928Y-72867215D01*
X98822702Y-72846903D01*
X98009605Y-73660000D01*
X97650395Y-73660000D01*
X96837298Y-72846903D01*
X96593329Y-72918486D01*
X96472429Y-73173996D01*
X96403700Y-73448184D01*
X96389783Y-73730512D01*
X90630337Y-73730512D01*
X90637282Y-73660000D01*
X90608224Y-73364968D01*
X90522166Y-73081275D01*
X90382417Y-72819821D01*
X90257245Y-72667298D01*
X97016903Y-72667298D01*
X97830000Y-73480395D01*
X98643097Y-72667298D01*
X98571514Y-72423329D01*
X98316004Y-72302429D01*
X98041816Y-72233700D01*
X97759488Y-72219783D01*
X97479870Y-72261213D01*
X97213708Y-72356397D01*
X97088486Y-72423329D01*
X97016903Y-72667298D01*
X90257245Y-72667298D01*
X90194345Y-72590655D01*
X89965179Y-72402583D01*
X89936848Y-72387440D01*
X90077433Y-72294708D01*
X90288306Y-72086326D01*
X90454474Y-71840809D01*
X90569551Y-71567591D01*
X90586302Y-71480031D01*
X90465246Y-71247000D01*
X89027000Y-71247000D01*
X89027000Y-71267000D01*
X88773000Y-71267000D01*
X88773000Y-71247000D01*
X87334754Y-71247000D01*
X87213698Y-71480031D01*
X87230449Y-71567591D01*
X87345526Y-71840809D01*
X87511694Y-72086326D01*
X87722567Y-72294708D01*
X87863152Y-72387440D01*
X87834821Y-72402583D01*
X87605655Y-72590655D01*
X87417583Y-72819821D01*
X87277834Y-73081275D01*
X87191776Y-73364968D01*
X87162718Y-73660000D01*
X87191776Y-73955032D01*
X87277834Y-74238725D01*
X87417583Y-74500179D01*
X87605655Y-74729345D01*
X87834821Y-74917417D01*
X87858362Y-74930000D01*
X87834821Y-74942583D01*
X87605655Y-75130655D01*
X87417583Y-75359821D01*
X87374727Y-75440000D01*
X82805273Y-75440000D01*
X82762417Y-75359821D01*
X82574345Y-75130655D01*
X82345179Y-74942583D01*
X82321638Y-74930000D01*
X82345179Y-74917417D01*
X82574345Y-74729345D01*
X82762417Y-74500179D01*
X82902166Y-74238725D01*
X82988224Y-73955032D01*
X83017282Y-73660000D01*
X82988224Y-73364968D01*
X82902166Y-73081275D01*
X82762417Y-72819821D01*
X82574345Y-72590655D01*
X82345179Y-72402583D01*
X82316848Y-72387440D01*
X82457433Y-72294708D01*
X82668306Y-72086326D01*
X82834474Y-71840809D01*
X82949551Y-71567591D01*
X82966302Y-71480031D01*
X82845246Y-71247000D01*
X81407000Y-71247000D01*
X81407000Y-71267000D01*
X81153000Y-71267000D01*
X81153000Y-71247000D01*
X79714754Y-71247000D01*
X79593698Y-71480031D01*
X79610449Y-71567591D01*
X79725526Y-71840809D01*
X79891694Y-72086326D01*
X80102567Y-72294708D01*
X80243152Y-72387440D01*
X80214821Y-72402583D01*
X79985655Y-72590655D01*
X79797583Y-72819821D01*
X79657834Y-73081275D01*
X79571776Y-73364968D01*
X79542718Y-73660000D01*
X78130000Y-73660000D01*
X78130000Y-70759969D01*
X79593698Y-70759969D01*
X79714754Y-70993000D01*
X81153000Y-70993000D01*
X81153000Y-69769624D01*
X81407000Y-69769624D01*
X81407000Y-70993000D01*
X82845246Y-70993000D01*
X82966302Y-70759969D01*
X87213698Y-70759969D01*
X87334754Y-70993000D01*
X88773000Y-70993000D01*
X88773000Y-69769624D01*
X89027000Y-69769624D01*
X89027000Y-70993000D01*
X90465246Y-70993000D01*
X90586302Y-70759969D01*
X90569551Y-70672409D01*
X90454474Y-70399191D01*
X90288306Y-70153674D01*
X90077433Y-69945292D01*
X89829958Y-69782053D01*
X89555392Y-69670231D01*
X89264286Y-69614123D01*
X89027000Y-69769624D01*
X88773000Y-69769624D01*
X88535714Y-69614123D01*
X88244608Y-69670231D01*
X87970042Y-69782053D01*
X87722567Y-69945292D01*
X87511694Y-70153674D01*
X87345526Y-70399191D01*
X87230449Y-70672409D01*
X87213698Y-70759969D01*
X82966302Y-70759969D01*
X82949551Y-70672409D01*
X82834474Y-70399191D01*
X82668306Y-70153674D01*
X82457433Y-69945292D01*
X82209958Y-69782053D01*
X81935392Y-69670231D01*
X81644286Y-69614123D01*
X81407000Y-69769624D01*
X81153000Y-69769624D01*
X80915714Y-69614123D01*
X80624608Y-69670231D01*
X80350042Y-69782053D01*
X80102567Y-69945292D01*
X79891694Y-70153674D01*
X79725526Y-70399191D01*
X79610449Y-70672409D01*
X79593698Y-70759969D01*
X78130000Y-70759969D01*
X78130000Y-64785000D01*
X82241928Y-64785000D01*
X82241928Y-66535000D01*
X82271001Y-66830186D01*
X82357104Y-67114028D01*
X82496927Y-67375618D01*
X82685097Y-67604903D01*
X82914382Y-67793073D01*
X83175972Y-67932896D01*
X83459814Y-68018999D01*
X83755000Y-68048072D01*
X85505000Y-68048072D01*
X85800186Y-68018999D01*
X86084028Y-67932896D01*
X86345618Y-67793073D01*
X86574903Y-67604903D01*
X86763073Y-67375618D01*
X86902896Y-67114028D01*
X86988999Y-66830186D01*
X87018072Y-66535000D01*
X87018072Y-64785000D01*
X86988999Y-64489814D01*
X86902896Y-64205972D01*
X86763073Y-63944382D01*
X86574903Y-63715097D01*
X86345618Y-63526927D01*
X86104528Y-63398061D01*
X129775000Y-63398061D01*
X129775000Y-63601939D01*
X129814774Y-63801898D01*
X129892795Y-63990256D01*
X130006063Y-64159774D01*
X130150226Y-64303937D01*
X130319744Y-64417205D01*
X130508102Y-64495226D01*
X130708061Y-64535000D01*
X130911939Y-64535000D01*
X131111898Y-64495226D01*
X131300256Y-64417205D01*
X131469774Y-64303937D01*
X131513711Y-64260000D01*
X133035199Y-64260000D01*
X133327127Y-64551928D01*
X132500000Y-64551928D01*
X132375518Y-64564188D01*
X132255820Y-64600498D01*
X132145506Y-64659463D01*
X132048815Y-64738815D01*
X131969463Y-64835506D01*
X131910498Y-64945820D01*
X131874188Y-65065518D01*
X131861928Y-65190000D01*
X131861928Y-66890000D01*
X131874188Y-67014482D01*
X131910498Y-67134180D01*
X131969463Y-67244494D01*
X132048815Y-67341185D01*
X132145506Y-67420537D01*
X132255820Y-67479502D01*
X132328380Y-67501513D01*
X132196525Y-67633368D01*
X132034010Y-67876589D01*
X131922068Y-68146842D01*
X131865000Y-68433740D01*
X131865000Y-68726260D01*
X131922068Y-69013158D01*
X132034010Y-69283411D01*
X132196525Y-69526632D01*
X132403368Y-69733475D01*
X132577760Y-69850000D01*
X132403368Y-69966525D01*
X132196525Y-70173368D01*
X132034010Y-70416589D01*
X131922068Y-70686842D01*
X131865000Y-70973740D01*
X131865000Y-71266260D01*
X131922068Y-71553158D01*
X132034010Y-71823411D01*
X132196525Y-72066632D01*
X132403368Y-72273475D01*
X132646589Y-72435990D01*
X132916842Y-72547932D01*
X133203740Y-72605000D01*
X133496260Y-72605000D01*
X133783158Y-72547932D01*
X134053411Y-72435990D01*
X134296632Y-72273475D01*
X134503475Y-72066632D01*
X134621100Y-71890594D01*
X134792412Y-72120269D01*
X135008645Y-72315178D01*
X135258748Y-72464157D01*
X135533109Y-72561481D01*
X135763000Y-72440814D01*
X135763000Y-71247000D01*
X136017000Y-71247000D01*
X136017000Y-72440814D01*
X136246891Y-72561481D01*
X136521252Y-72464157D01*
X136771355Y-72315178D01*
X136987588Y-72120269D01*
X137161641Y-71886920D01*
X137286825Y-71624099D01*
X137331476Y-71476890D01*
X137210155Y-71247000D01*
X136017000Y-71247000D01*
X135763000Y-71247000D01*
X135743000Y-71247000D01*
X135743000Y-70993000D01*
X135763000Y-70993000D01*
X135763000Y-70973000D01*
X136017000Y-70973000D01*
X136017000Y-70993000D01*
X137210155Y-70993000D01*
X137331476Y-70763110D01*
X137286825Y-70615901D01*
X137161641Y-70353080D01*
X136987588Y-70119731D01*
X136771355Y-69924822D01*
X136654466Y-69855195D01*
X136836632Y-69733475D01*
X137043475Y-69526632D01*
X137205990Y-69283411D01*
X137317932Y-69013158D01*
X137375000Y-68726260D01*
X137375000Y-68599802D01*
X138144030Y-69368832D01*
X138069774Y-69548102D01*
X138030000Y-69748061D01*
X138030000Y-69951939D01*
X138069774Y-70151898D01*
X138147795Y-70340256D01*
X138261063Y-70509774D01*
X138405226Y-70653937D01*
X138574744Y-70767205D01*
X138763102Y-70845226D01*
X138963061Y-70885000D01*
X139166939Y-70885000D01*
X139366898Y-70845226D01*
X139555256Y-70767205D01*
X139724774Y-70653937D01*
X139868937Y-70509774D01*
X139982205Y-70340256D01*
X140060226Y-70151898D01*
X140100000Y-69951939D01*
X140100000Y-69748061D01*
X140060226Y-69548102D01*
X139982205Y-69359744D01*
X139868937Y-69190226D01*
X139821572Y-69142861D01*
X139814003Y-69066014D01*
X139770546Y-68922753D01*
X139712950Y-68815000D01*
X139699974Y-68790723D01*
X139628799Y-68703997D01*
X139605001Y-68674999D01*
X139576003Y-68651201D01*
X137331209Y-66406408D01*
X137375000Y-66186260D01*
X137375000Y-65893740D01*
X137317932Y-65606842D01*
X137205990Y-65336589D01*
X137043475Y-65093368D01*
X136836632Y-64886525D01*
X136593411Y-64724010D01*
X136323158Y-64612068D01*
X136036260Y-64555000D01*
X135743740Y-64555000D01*
X135523593Y-64598790D01*
X133913804Y-62989003D01*
X133890001Y-62959999D01*
X133774276Y-62865026D01*
X133642247Y-62794454D01*
X133498986Y-62750997D01*
X133387333Y-62740000D01*
X133387322Y-62740000D01*
X133350000Y-62736324D01*
X133312678Y-62740000D01*
X131513711Y-62740000D01*
X131469774Y-62696063D01*
X131300256Y-62582795D01*
X131111898Y-62504774D01*
X130911939Y-62465000D01*
X130708061Y-62465000D01*
X130508102Y-62504774D01*
X130319744Y-62582795D01*
X130150226Y-62696063D01*
X130006063Y-62840226D01*
X129892795Y-63009744D01*
X129814774Y-63198102D01*
X129775000Y-63398061D01*
X86104528Y-63398061D01*
X86084028Y-63387104D01*
X85955357Y-63348072D01*
X89380000Y-63348072D01*
X89504482Y-63335812D01*
X89624180Y-63299502D01*
X89734494Y-63240537D01*
X89831185Y-63161185D01*
X89910537Y-63064494D01*
X89969502Y-62954180D01*
X90005812Y-62834482D01*
X90018072Y-62710000D01*
X90018072Y-59210000D01*
X90005812Y-59085518D01*
X89969502Y-58965820D01*
X89910537Y-58855506D01*
X89831185Y-58758815D01*
X89734494Y-58679463D01*
X89624180Y-58620498D01*
X89504482Y-58584188D01*
X89380000Y-58571928D01*
X85880000Y-58571928D01*
X85755518Y-58584188D01*
X85635820Y-58620498D01*
X85525506Y-58679463D01*
X85428815Y-58758815D01*
X85349463Y-58855506D01*
X85290498Y-58965820D01*
X85254188Y-59085518D01*
X85241928Y-59210000D01*
X85241928Y-62710000D01*
X85254188Y-62834482D01*
X85290498Y-62954180D01*
X85349463Y-63064494D01*
X85428815Y-63161185D01*
X85525506Y-63240537D01*
X85602131Y-63281494D01*
X85505000Y-63271928D01*
X83755000Y-63271928D01*
X83459814Y-63301001D01*
X83175972Y-63387104D01*
X82914382Y-63526927D01*
X82685097Y-63715097D01*
X82496927Y-63944382D01*
X82357104Y-64205972D01*
X82271001Y-64489814D01*
X82241928Y-64785000D01*
X78130000Y-64785000D01*
X78130000Y-62710000D01*
X79491928Y-62710000D01*
X79504188Y-62834482D01*
X79540498Y-62954180D01*
X79599463Y-63064494D01*
X79678815Y-63161185D01*
X79775506Y-63240537D01*
X79885820Y-63299502D01*
X80005518Y-63335812D01*
X80130000Y-63348072D01*
X81344250Y-63345000D01*
X81503000Y-63186250D01*
X81503000Y-61087000D01*
X81757000Y-61087000D01*
X81757000Y-63186250D01*
X81915750Y-63345000D01*
X83130000Y-63348072D01*
X83254482Y-63335812D01*
X83374180Y-63299502D01*
X83484494Y-63240537D01*
X83581185Y-63161185D01*
X83660537Y-63064494D01*
X83719502Y-62954180D01*
X83755812Y-62834482D01*
X83768072Y-62710000D01*
X83765000Y-61245750D01*
X83606250Y-61087000D01*
X81757000Y-61087000D01*
X81503000Y-61087000D01*
X79653750Y-61087000D01*
X79495000Y-61245750D01*
X79491928Y-62710000D01*
X78130000Y-62710000D01*
X78130000Y-59210000D01*
X79491928Y-59210000D01*
X79495000Y-60674250D01*
X79653750Y-60833000D01*
X81503000Y-60833000D01*
X81503000Y-58733750D01*
X81757000Y-58733750D01*
X81757000Y-60833000D01*
X83606250Y-60833000D01*
X83765000Y-60674250D01*
X83768072Y-59210000D01*
X83755812Y-59085518D01*
X83719502Y-58965820D01*
X83660537Y-58855506D01*
X83581185Y-58758815D01*
X83484494Y-58679463D01*
X83374180Y-58620498D01*
X83254482Y-58584188D01*
X83130000Y-58571928D01*
X81915750Y-58575000D01*
X81757000Y-58733750D01*
X81503000Y-58733750D01*
X81344250Y-58575000D01*
X80130000Y-58571928D01*
X80005518Y-58584188D01*
X79885820Y-58620498D01*
X79775506Y-58679463D01*
X79678815Y-58758815D01*
X79599463Y-58855506D01*
X79540498Y-58965820D01*
X79504188Y-59085518D01*
X79491928Y-59210000D01*
X78130000Y-59210000D01*
X78130000Y-57620000D01*
X91271928Y-57620000D01*
X91271928Y-59220000D01*
X91284188Y-59344482D01*
X91320498Y-59464180D01*
X91379463Y-59574494D01*
X91458815Y-59671185D01*
X91555506Y-59750537D01*
X91665820Y-59809502D01*
X91785518Y-59845812D01*
X91910000Y-59858072D01*
X93510000Y-59858072D01*
X93634482Y-59845812D01*
X93754180Y-59809502D01*
X93864494Y-59750537D01*
X93961185Y-59671185D01*
X94040537Y-59574494D01*
X94099502Y-59464180D01*
X94115117Y-59412702D01*
X94396903Y-59412702D01*
X94468486Y-59656671D01*
X94723996Y-59777571D01*
X94998184Y-59846300D01*
X95280512Y-59860217D01*
X95560130Y-59818787D01*
X95826292Y-59723603D01*
X95951514Y-59656671D01*
X96023097Y-59412702D01*
X95210000Y-58599605D01*
X94396903Y-59412702D01*
X94115117Y-59412702D01*
X94135812Y-59344482D01*
X94148072Y-59220000D01*
X94148072Y-59212785D01*
X94217298Y-59233097D01*
X95030395Y-58420000D01*
X95389605Y-58420000D01*
X96202702Y-59233097D01*
X96446671Y-59161514D01*
X96567571Y-58906004D01*
X96636300Y-58631816D01*
X96650217Y-58349488D01*
X96608787Y-58069870D01*
X96513603Y-57803708D01*
X96446671Y-57678486D01*
X96202702Y-57606903D01*
X95389605Y-58420000D01*
X95030395Y-58420000D01*
X94217298Y-57606903D01*
X94148072Y-57627215D01*
X94148072Y-57620000D01*
X94135812Y-57495518D01*
X94115118Y-57427298D01*
X94396903Y-57427298D01*
X95210000Y-58240395D01*
X96023097Y-57427298D01*
X95951514Y-57183329D01*
X95696004Y-57062429D01*
X95421816Y-56993700D01*
X95139488Y-56979783D01*
X94859870Y-57021213D01*
X94593708Y-57116397D01*
X94468486Y-57183329D01*
X94396903Y-57427298D01*
X94115118Y-57427298D01*
X94099502Y-57375820D01*
X94040537Y-57265506D01*
X93961185Y-57168815D01*
X93864494Y-57089463D01*
X93754180Y-57030498D01*
X93634482Y-56994188D01*
X93510000Y-56981928D01*
X91910000Y-56981928D01*
X91785518Y-56994188D01*
X91665820Y-57030498D01*
X91555506Y-57089463D01*
X91458815Y-57168815D01*
X91379463Y-57265506D01*
X91320498Y-57375820D01*
X91284188Y-57495518D01*
X91271928Y-57620000D01*
X78130000Y-57620000D01*
X78130000Y-56979117D01*
X136695000Y-56979117D01*
X136695000Y-57320883D01*
X136761675Y-57656081D01*
X136892463Y-57971831D01*
X137082337Y-58255998D01*
X137324002Y-58497663D01*
X137608169Y-58687537D01*
X137923919Y-58818325D01*
X138259117Y-58885000D01*
X138600883Y-58885000D01*
X138936081Y-58818325D01*
X139251831Y-58687537D01*
X139535998Y-58497663D01*
X139777663Y-58255998D01*
X139967537Y-57971831D01*
X140098325Y-57656081D01*
X140165000Y-57320883D01*
X140165000Y-56979117D01*
X140098325Y-56643919D01*
X139967537Y-56328169D01*
X139777663Y-56044002D01*
X139535998Y-55802337D01*
X139251831Y-55612463D01*
X138936081Y-55481675D01*
X138600883Y-55415000D01*
X138259117Y-55415000D01*
X137923919Y-55481675D01*
X137608169Y-55612463D01*
X137324002Y-55802337D01*
X137082337Y-56044002D01*
X136892463Y-56328169D01*
X136761675Y-56643919D01*
X136695000Y-56979117D01*
X78130000Y-56979117D01*
X78130000Y-55270000D01*
X140310000Y-55270000D01*
X140310001Y-100940000D01*
%TA.AperFunction,Conductor*%
D21*
G36*
X140310001Y-100940000D02*
G01*
X78130000Y-100940000D01*
X78130000Y-98889117D01*
X136695000Y-98889117D01*
X136695000Y-99230883D01*
X136761675Y-99566081D01*
X136892463Y-99881831D01*
X137082337Y-100165998D01*
X137324002Y-100407663D01*
X137608169Y-100597537D01*
X137923919Y-100728325D01*
X138259117Y-100795000D01*
X138600883Y-100795000D01*
X138936081Y-100728325D01*
X139251831Y-100597537D01*
X139535998Y-100407663D01*
X139777663Y-100165998D01*
X139967537Y-99881831D01*
X140098325Y-99566081D01*
X140165000Y-99230883D01*
X140165000Y-98889117D01*
X140098325Y-98553919D01*
X139967537Y-98238169D01*
X139777663Y-97954002D01*
X139535998Y-97712337D01*
X139251831Y-97522463D01*
X138936081Y-97391675D01*
X138600883Y-97325000D01*
X138259117Y-97325000D01*
X137923919Y-97391675D01*
X137608169Y-97522463D01*
X137324002Y-97712337D01*
X137082337Y-97954002D01*
X136892463Y-98238169D01*
X136761675Y-98553919D01*
X136695000Y-98889117D01*
X78130000Y-98889117D01*
X78130000Y-96349117D01*
X79545000Y-96349117D01*
X79545000Y-96690883D01*
X79611675Y-97026081D01*
X79742463Y-97341831D01*
X79932337Y-97625998D01*
X80174002Y-97867663D01*
X80458169Y-98057537D01*
X80773919Y-98188325D01*
X81109117Y-98255000D01*
X81450883Y-98255000D01*
X81786081Y-98188325D01*
X82101831Y-98057537D01*
X82385998Y-97867663D01*
X82627663Y-97625998D01*
X82635011Y-97615000D01*
X92471928Y-97615000D01*
X92484188Y-97739482D01*
X92520498Y-97859180D01*
X92579463Y-97969494D01*
X92658815Y-98066185D01*
X92755506Y-98145537D01*
X92865820Y-98204502D01*
X92985518Y-98240812D01*
X93110000Y-98253072D01*
X93694250Y-98250000D01*
X93853000Y-98091250D01*
X93853000Y-96647000D01*
X92633750Y-96647000D01*
X92475000Y-96805750D01*
X92471928Y-97615000D01*
X82635011Y-97615000D01*
X82817537Y-97341831D01*
X82948325Y-97026081D01*
X83015000Y-96690883D01*
X83015000Y-96349117D01*
X82948325Y-96013919D01*
X82817537Y-95698169D01*
X82635012Y-95425000D01*
X92471928Y-95425000D01*
X92475000Y-96234250D01*
X92633750Y-96393000D01*
X93853000Y-96393000D01*
X93853000Y-94948750D01*
X94107000Y-94948750D01*
X94107000Y-96393000D01*
X94127000Y-96393000D01*
X94127000Y-96647000D01*
X94107000Y-96647000D01*
X94107000Y-98091250D01*
X94265750Y-98250000D01*
X94850000Y-98253072D01*
X94974482Y-98240812D01*
X95094180Y-98204502D01*
X95204494Y-98145537D01*
X95301185Y-98066185D01*
X95380537Y-97969494D01*
X95439502Y-97859180D01*
X95452615Y-97815953D01*
X95679822Y-98002417D01*
X95941276Y-98142166D01*
X96224969Y-98228224D01*
X96520000Y-98257282D01*
X96815032Y-98228224D01*
X97098725Y-98142166D01*
X97360179Y-98002417D01*
X97589345Y-97814345D01*
X97777417Y-97585179D01*
X97790000Y-97561638D01*
X97802583Y-97585179D01*
X97990655Y-97814345D01*
X98219822Y-98002417D01*
X98481276Y-98142166D01*
X98764969Y-98228224D01*
X99060000Y-98257282D01*
X99355032Y-98228224D01*
X99638725Y-98142166D01*
X99900179Y-98002417D01*
X100129345Y-97814345D01*
X100317417Y-97585179D01*
X100457166Y-97323724D01*
X100543224Y-97040031D01*
X100565000Y-96818935D01*
X100565000Y-96221064D01*
X100543224Y-95999968D01*
X100457166Y-95716275D01*
X100317417Y-95454821D01*
X100129345Y-95225655D01*
X99900178Y-95037583D01*
X99638724Y-94897834D01*
X99355031Y-94811776D01*
X99060000Y-94782718D01*
X98764968Y-94811776D01*
X98481275Y-94897834D01*
X98219821Y-95037583D01*
X97990655Y-95225655D01*
X97802583Y-95454822D01*
X97790000Y-95478363D01*
X97777417Y-95454821D01*
X97589345Y-95225655D01*
X97360178Y-95037583D01*
X97098724Y-94897834D01*
X96815031Y-94811776D01*
X96520000Y-94782718D01*
X96224968Y-94811776D01*
X95941275Y-94897834D01*
X95679821Y-95037583D01*
X95452615Y-95224047D01*
X95439502Y-95180820D01*
X95380537Y-95070506D01*
X95301185Y-94973815D01*
X95204494Y-94894463D01*
X95094180Y-94835498D01*
X94974482Y-94799188D01*
X94850000Y-94786928D01*
X94265750Y-94790000D01*
X94107000Y-94948750D01*
X93853000Y-94948750D01*
X93694250Y-94790000D01*
X93110000Y-94786928D01*
X92985518Y-94799188D01*
X92865820Y-94835498D01*
X92755506Y-94894463D01*
X92658815Y-94973815D01*
X92579463Y-95070506D01*
X92520498Y-95180820D01*
X92484188Y-95300518D01*
X92471928Y-95425000D01*
X82635012Y-95425000D01*
X82627663Y-95414002D01*
X82385998Y-95172337D01*
X82101831Y-94982463D01*
X81786081Y-94851675D01*
X81450883Y-94785000D01*
X81109117Y-94785000D01*
X80773919Y-94851675D01*
X80458169Y-94982463D01*
X80174002Y-95172337D01*
X79932337Y-95414002D01*
X79742463Y-95698169D01*
X79611675Y-96013919D01*
X79545000Y-96349117D01*
X78130000Y-96349117D01*
X78130000Y-89995000D01*
X87391928Y-89995000D01*
X87404188Y-90119482D01*
X87440498Y-90239180D01*
X87499463Y-90349494D01*
X87578815Y-90446185D01*
X87675506Y-90525537D01*
X87785820Y-90584502D01*
X87905518Y-90620812D01*
X88030000Y-90633072D01*
X88614250Y-90630000D01*
X88773000Y-90471250D01*
X88773000Y-89027000D01*
X87553750Y-89027000D01*
X87395000Y-89185750D01*
X87391928Y-89995000D01*
X78130000Y-89995000D01*
X78130000Y-87805000D01*
X87391928Y-87805000D01*
X87395000Y-88614250D01*
X87553750Y-88773000D01*
X88773000Y-88773000D01*
X88773000Y-87328750D01*
X89027000Y-87328750D01*
X89027000Y-88773000D01*
X89047000Y-88773000D01*
X89047000Y-89027000D01*
X89027000Y-89027000D01*
X89027000Y-90471250D01*
X89185750Y-90630000D01*
X89770000Y-90633072D01*
X89894482Y-90620812D01*
X90014180Y-90584502D01*
X90124494Y-90525537D01*
X90221185Y-90446185D01*
X90300537Y-90349494D01*
X90359502Y-90239180D01*
X90372615Y-90195953D01*
X90599822Y-90382417D01*
X90861276Y-90522166D01*
X91144969Y-90608224D01*
X91440000Y-90637282D01*
X91735032Y-90608224D01*
X92018725Y-90522166D01*
X92280179Y-90382417D01*
X92509345Y-90194345D01*
X92697417Y-89965179D01*
X92710000Y-89941638D01*
X92722583Y-89965179D01*
X92910655Y-90194345D01*
X93139822Y-90382417D01*
X93401276Y-90522166D01*
X93684969Y-90608224D01*
X93980000Y-90637282D01*
X94275032Y-90608224D01*
X94558725Y-90522166D01*
X94820179Y-90382417D01*
X95049345Y-90194345D01*
X95212943Y-89995000D01*
X96281928Y-89995000D01*
X96294188Y-90119482D01*
X96330498Y-90239180D01*
X96389463Y-90349494D01*
X96468815Y-90446185D01*
X96565506Y-90525537D01*
X96675820Y-90584502D01*
X96795518Y-90620812D01*
X96920000Y-90633072D01*
X97504250Y-90630000D01*
X97663000Y-90471250D01*
X97663000Y-89027000D01*
X96443750Y-89027000D01*
X96285000Y-89185750D01*
X96281928Y-89995000D01*
X95212943Y-89995000D01*
X95237417Y-89965179D01*
X95377166Y-89703724D01*
X95463224Y-89420031D01*
X95485000Y-89198935D01*
X95485000Y-88601064D01*
X95473231Y-88481570D01*
X96302855Y-87651946D01*
X96294188Y-87680518D01*
X96281928Y-87805000D01*
X96285000Y-88614250D01*
X96443750Y-88773000D01*
X97663000Y-88773000D01*
X97663000Y-87328750D01*
X97917000Y-87328750D01*
X97917000Y-88773000D01*
X97937000Y-88773000D01*
X97937000Y-89027000D01*
X97917000Y-89027000D01*
X97917000Y-90471250D01*
X98075750Y-90630000D01*
X98660000Y-90633072D01*
X98784482Y-90620812D01*
X98904180Y-90584502D01*
X99014494Y-90525537D01*
X99111185Y-90446185D01*
X99190537Y-90349494D01*
X99249502Y-90239180D01*
X99262615Y-90195953D01*
X99489822Y-90382417D01*
X99751276Y-90522166D01*
X100034969Y-90608224D01*
X100330000Y-90637282D01*
X100625032Y-90608224D01*
X100908725Y-90522166D01*
X101170179Y-90382417D01*
X101399345Y-90194345D01*
X101587417Y-89965179D01*
X101600000Y-89941638D01*
X101612583Y-89965179D01*
X101800655Y-90194345D01*
X102029822Y-90382417D01*
X102291276Y-90522166D01*
X102574969Y-90608224D01*
X102870000Y-90637282D01*
X103165032Y-90608224D01*
X103448725Y-90522166D01*
X103710179Y-90382417D01*
X103939345Y-90194345D01*
X104127417Y-89965179D01*
X104267166Y-89703724D01*
X104353224Y-89420031D01*
X104375000Y-89198935D01*
X104375000Y-88601064D01*
X104353224Y-88379968D01*
X104267166Y-88096275D01*
X104127417Y-87834821D01*
X103939345Y-87605655D01*
X103710178Y-87417583D01*
X103448724Y-87277834D01*
X103165031Y-87191776D01*
X102870000Y-87162718D01*
X102574968Y-87191776D01*
X102291275Y-87277834D01*
X102029821Y-87417583D01*
X101800655Y-87605655D01*
X101612583Y-87834822D01*
X101600000Y-87858363D01*
X101587417Y-87834821D01*
X101399345Y-87605655D01*
X101170178Y-87417583D01*
X100908724Y-87277834D01*
X100625031Y-87191776D01*
X100330000Y-87162718D01*
X100034968Y-87191776D01*
X99751275Y-87277834D01*
X99489821Y-87417583D01*
X99262615Y-87604047D01*
X99249502Y-87560820D01*
X99190537Y-87450506D01*
X99111185Y-87353815D01*
X99014494Y-87274463D01*
X98904180Y-87215498D01*
X98784482Y-87179188D01*
X98660000Y-87166928D01*
X98075750Y-87170000D01*
X97917000Y-87328750D01*
X97663000Y-87328750D01*
X97504250Y-87170000D01*
X96920000Y-87166928D01*
X96795518Y-87179188D01*
X96766946Y-87187855D01*
X96809791Y-87145010D01*
X108306314Y-87145010D01*
X108309990Y-87182332D01*
X108309991Y-95062658D01*
X108306314Y-95099990D01*
X108320988Y-95248975D01*
X108364444Y-95392236D01*
X108435016Y-95524266D01*
X108506191Y-95610992D01*
X108529990Y-95639991D01*
X108558988Y-95663789D01*
X108860535Y-95965336D01*
X108781776Y-96224968D01*
X108752718Y-96520000D01*
X108781776Y-96815032D01*
X108867834Y-97098725D01*
X109007583Y-97360179D01*
X109195655Y-97589345D01*
X109424821Y-97777417D01*
X109686275Y-97917166D01*
X109969968Y-98003224D01*
X110191064Y-98025000D01*
X110788936Y-98025000D01*
X111010032Y-98003224D01*
X111293725Y-97917166D01*
X111555179Y-97777417D01*
X111784345Y-97589345D01*
X111972417Y-97360179D01*
X112112166Y-97098725D01*
X112198224Y-96815032D01*
X112227282Y-96520000D01*
X112198224Y-96224968D01*
X112112166Y-95941275D01*
X111972417Y-95679821D01*
X111784345Y-95450655D01*
X111555179Y-95262583D01*
X111531638Y-95250000D01*
X111555179Y-95237417D01*
X111784345Y-95049345D01*
X111972417Y-94820179D01*
X112112166Y-94558725D01*
X112198224Y-94275032D01*
X112227282Y-93980000D01*
X112198224Y-93684968D01*
X112112166Y-93401275D01*
X111972417Y-93139821D01*
X111784345Y-92910655D01*
X111555179Y-92722583D01*
X111531638Y-92710000D01*
X111555179Y-92697417D01*
X111784345Y-92509345D01*
X111972417Y-92280179D01*
X112015273Y-92200000D01*
X112347679Y-92200000D01*
X112385001Y-92203676D01*
X112422323Y-92200000D01*
X112422334Y-92200000D01*
X112533987Y-92189003D01*
X112677248Y-92145546D01*
X112809277Y-92074974D01*
X112925002Y-91980001D01*
X112948805Y-91950997D01*
X115385403Y-89514400D01*
X115442834Y-89703724D01*
X115582583Y-89965178D01*
X115770655Y-90194345D01*
X115999821Y-90382417D01*
X116261275Y-90522166D01*
X116544968Y-90608224D01*
X116840000Y-90637282D01*
X117135031Y-90608224D01*
X117418724Y-90522166D01*
X117680178Y-90382417D01*
X117909345Y-90194345D01*
X118097417Y-89965179D01*
X118110000Y-89941637D01*
X118122583Y-89965178D01*
X118310655Y-90194345D01*
X118539821Y-90382417D01*
X118801275Y-90522166D01*
X119084968Y-90608224D01*
X119380000Y-90637282D01*
X119675031Y-90608224D01*
X119958724Y-90522166D01*
X120220178Y-90382417D01*
X120449345Y-90194345D01*
X120637417Y-89965179D01*
X120650000Y-89941637D01*
X120662583Y-89965178D01*
X120850655Y-90194345D01*
X121079821Y-90382417D01*
X121341275Y-90522166D01*
X121624968Y-90608224D01*
X121920000Y-90637282D01*
X122215031Y-90608224D01*
X122355010Y-90565761D01*
X122355011Y-94854238D01*
X122215032Y-94811776D01*
X121920000Y-94782718D01*
X121624969Y-94811776D01*
X121341276Y-94897834D01*
X121079822Y-95037583D01*
X120850655Y-95225655D01*
X120662583Y-95454821D01*
X120650000Y-95478362D01*
X120637417Y-95454821D01*
X120449345Y-95225655D01*
X120220179Y-95037583D01*
X119958725Y-94897834D01*
X119675032Y-94811776D01*
X119380000Y-94782718D01*
X119084969Y-94811776D01*
X118801276Y-94897834D01*
X118539822Y-95037583D01*
X118310655Y-95225655D01*
X118122583Y-95454821D01*
X118110000Y-95478362D01*
X118097417Y-95454821D01*
X117909345Y-95225655D01*
X117680179Y-95037583D01*
X117418725Y-94897834D01*
X117135032Y-94811776D01*
X116840000Y-94782718D01*
X116544969Y-94811776D01*
X116261276Y-94897834D01*
X115999822Y-95037583D01*
X115770655Y-95225655D01*
X115582583Y-95454821D01*
X115442834Y-95716275D01*
X115356776Y-95999968D01*
X115335000Y-96221064D01*
X115335000Y-96818935D01*
X115356776Y-97040031D01*
X115442834Y-97323724D01*
X115582583Y-97585178D01*
X115770655Y-97814345D01*
X115999821Y-98002417D01*
X116261275Y-98142166D01*
X116544968Y-98228224D01*
X116840000Y-98257282D01*
X117135031Y-98228224D01*
X117418724Y-98142166D01*
X117680178Y-98002417D01*
X117909345Y-97814345D01*
X118097417Y-97585179D01*
X118110000Y-97561637D01*
X118122583Y-97585178D01*
X118310655Y-97814345D01*
X118539821Y-98002417D01*
X118801275Y-98142166D01*
X119084968Y-98228224D01*
X119380000Y-98257282D01*
X119675031Y-98228224D01*
X119958724Y-98142166D01*
X120220178Y-98002417D01*
X120449345Y-97814345D01*
X120637417Y-97585179D01*
X120650000Y-97561637D01*
X120662583Y-97585178D01*
X120850655Y-97814345D01*
X121079821Y-98002417D01*
X121341275Y-98142166D01*
X121624968Y-98228224D01*
X121920000Y-98257282D01*
X122215031Y-98228224D01*
X122498724Y-98142166D01*
X122760178Y-98002417D01*
X122987385Y-97815953D01*
X123000498Y-97859180D01*
X123059463Y-97969494D01*
X123138815Y-98066185D01*
X123235506Y-98145537D01*
X123345820Y-98204502D01*
X123465518Y-98240812D01*
X123590000Y-98253072D01*
X124174250Y-98250000D01*
X124333000Y-98091250D01*
X124333000Y-96647000D01*
X124587000Y-96647000D01*
X124587000Y-98091250D01*
X124745750Y-98250000D01*
X125330000Y-98253072D01*
X125454482Y-98240812D01*
X125574180Y-98204502D01*
X125684494Y-98145537D01*
X125781185Y-98066185D01*
X125860537Y-97969494D01*
X125919502Y-97859180D01*
X125955812Y-97739482D01*
X125968072Y-97615000D01*
X125965000Y-96805750D01*
X125806250Y-96647000D01*
X124587000Y-96647000D01*
X124333000Y-96647000D01*
X124313000Y-96647000D01*
X124313000Y-96393000D01*
X124333000Y-96393000D01*
X124333000Y-94948750D01*
X124587000Y-94948750D01*
X124587000Y-96393000D01*
X125806250Y-96393000D01*
X125965000Y-96234250D01*
X125968072Y-95425000D01*
X125955812Y-95300518D01*
X125919502Y-95180820D01*
X125860537Y-95070506D01*
X125781185Y-94973815D01*
X125684494Y-94894463D01*
X125574180Y-94835498D01*
X125454482Y-94799188D01*
X125330000Y-94786928D01*
X124745750Y-94790000D01*
X124587000Y-94948750D01*
X124333000Y-94948750D01*
X124174250Y-94790000D01*
X123875010Y-94788427D01*
X123875010Y-90631573D01*
X124174250Y-90630000D01*
X124333000Y-90471250D01*
X124333000Y-89027000D01*
X124587000Y-89027000D01*
X124587000Y-90471250D01*
X124745750Y-90630000D01*
X125330000Y-90633072D01*
X125454482Y-90620812D01*
X125574180Y-90584502D01*
X125684494Y-90525537D01*
X125781185Y-90446185D01*
X125860537Y-90349494D01*
X125919502Y-90239180D01*
X125955812Y-90119482D01*
X125968072Y-89995000D01*
X125965000Y-89185750D01*
X125806250Y-89027000D01*
X124587000Y-89027000D01*
X124333000Y-89027000D01*
X124313000Y-89027000D01*
X124313000Y-88773000D01*
X124333000Y-88773000D01*
X124333000Y-88753000D01*
X124587000Y-88753000D01*
X124587000Y-88773000D01*
X125806250Y-88773000D01*
X125965000Y-88614250D01*
X125968072Y-87805000D01*
X125955812Y-87680518D01*
X125919502Y-87560820D01*
X125860537Y-87450506D01*
X125781185Y-87353815D01*
X125684494Y-87274463D01*
X125574180Y-87215498D01*
X125454482Y-87179188D01*
X125330000Y-87166928D01*
X124745750Y-87170000D01*
X124587002Y-87328748D01*
X124587002Y-87307799D01*
X126991008Y-84903795D01*
X127020001Y-84880001D01*
X127043795Y-84851008D01*
X127043799Y-84851004D01*
X127114973Y-84764277D01*
X127114974Y-84764276D01*
X127185546Y-84632247D01*
X127229003Y-84488986D01*
X127240000Y-84377333D01*
X127240000Y-84377324D01*
X127243676Y-84340001D01*
X127240000Y-84302678D01*
X127240000Y-82415413D01*
X129704192Y-82415413D01*
X129799956Y-82679814D01*
X130089571Y-82820704D01*
X130401108Y-82902384D01*
X130722595Y-82921718D01*
X131041675Y-82877961D01*
X131346088Y-82772795D01*
X131520044Y-82679814D01*
X131615808Y-82415413D01*
X136204192Y-82415413D01*
X136299956Y-82679814D01*
X136589571Y-82820704D01*
X136901108Y-82902384D01*
X137222595Y-82921718D01*
X137541675Y-82877961D01*
X137846088Y-82772795D01*
X138020044Y-82679814D01*
X138115808Y-82415413D01*
X137160000Y-81459605D01*
X136204192Y-82415413D01*
X131615808Y-82415413D01*
X130660000Y-81459605D01*
X129704192Y-82415413D01*
X127240000Y-82415413D01*
X127240000Y-81342595D01*
X129018282Y-81342595D01*
X129062039Y-81661675D01*
X129167205Y-81966088D01*
X129260186Y-82140044D01*
X129524587Y-82235808D01*
X130480395Y-81280000D01*
X130839605Y-81280000D01*
X131795413Y-82235808D01*
X132059814Y-82140044D01*
X132200704Y-81850429D01*
X132282384Y-81538892D01*
X132294189Y-81342595D01*
X135518282Y-81342595D01*
X135562039Y-81661675D01*
X135667205Y-81966088D01*
X135760186Y-82140044D01*
X136024587Y-82235808D01*
X136980395Y-81280000D01*
X137339605Y-81280000D01*
X138295413Y-82235808D01*
X138559814Y-82140044D01*
X138700704Y-81850429D01*
X138782384Y-81538892D01*
X138801718Y-81217405D01*
X138757961Y-80898325D01*
X138652795Y-80593912D01*
X138559814Y-80419956D01*
X138295413Y-80324192D01*
X137339605Y-81280000D01*
X136980395Y-81280000D01*
X136024587Y-80324192D01*
X135760186Y-80419956D01*
X135619296Y-80709571D01*
X135537616Y-81021108D01*
X135518282Y-81342595D01*
X132294189Y-81342595D01*
X132301718Y-81217405D01*
X132257961Y-80898325D01*
X132152795Y-80593912D01*
X132059814Y-80419956D01*
X131795413Y-80324192D01*
X130839605Y-81280000D01*
X130480395Y-81280000D01*
X129524587Y-80324192D01*
X129260186Y-80419956D01*
X129119296Y-80709571D01*
X129037616Y-81021108D01*
X129018282Y-81342595D01*
X127240000Y-81342595D01*
X127240000Y-80144587D01*
X129704192Y-80144587D01*
X130660000Y-81100395D01*
X131615808Y-80144587D01*
X136204192Y-80144587D01*
X137160000Y-81100395D01*
X138115808Y-80144587D01*
X138020044Y-79880186D01*
X137730429Y-79739296D01*
X137418892Y-79657616D01*
X137097405Y-79638282D01*
X136778325Y-79682039D01*
X136473912Y-79787205D01*
X136299956Y-79880186D01*
X136204192Y-80144587D01*
X131615808Y-80144587D01*
X131520044Y-79880186D01*
X131230429Y-79739296D01*
X130918892Y-79657616D01*
X130597405Y-79638282D01*
X130278325Y-79682039D01*
X129973912Y-79787205D01*
X129799956Y-79880186D01*
X129704192Y-80144587D01*
X127240000Y-80144587D01*
X127240000Y-76618967D01*
X129025000Y-76618967D01*
X129025000Y-76941033D01*
X129087832Y-77256912D01*
X129211082Y-77554463D01*
X129390013Y-77822252D01*
X129617748Y-78049987D01*
X129885537Y-78228918D01*
X130183088Y-78352168D01*
X130498967Y-78415000D01*
X130821033Y-78415000D01*
X131136912Y-78352168D01*
X131434463Y-78228918D01*
X131702252Y-78049987D01*
X131929987Y-77822252D01*
X132108918Y-77554463D01*
X132232168Y-77256912D01*
X132295000Y-76941033D01*
X132295000Y-76618967D01*
X135525000Y-76618967D01*
X135525000Y-76941033D01*
X135587832Y-77256912D01*
X135711082Y-77554463D01*
X135890013Y-77822252D01*
X136117748Y-78049987D01*
X136385537Y-78228918D01*
X136683088Y-78352168D01*
X136998967Y-78415000D01*
X137321033Y-78415000D01*
X137636912Y-78352168D01*
X137934463Y-78228918D01*
X138202252Y-78049987D01*
X138429987Y-77822252D01*
X138608918Y-77554463D01*
X138732168Y-77256912D01*
X138795000Y-76941033D01*
X138795000Y-76618967D01*
X138732168Y-76303088D01*
X138608918Y-76005537D01*
X138429987Y-75737748D01*
X138202252Y-75510013D01*
X137934463Y-75331082D01*
X137636912Y-75207832D01*
X137321033Y-75145000D01*
X136998967Y-75145000D01*
X136683088Y-75207832D01*
X136385537Y-75331082D01*
X136117748Y-75510013D01*
X135890013Y-75737748D01*
X135711082Y-76005537D01*
X135587832Y-76303088D01*
X135525000Y-76618967D01*
X132295000Y-76618967D01*
X132232168Y-76303088D01*
X132108918Y-76005537D01*
X131929987Y-75737748D01*
X131702252Y-75510013D01*
X131434463Y-75331082D01*
X131136912Y-75207832D01*
X130821033Y-75145000D01*
X130498967Y-75145000D01*
X130183088Y-75207832D01*
X129885537Y-75331082D01*
X129617748Y-75510013D01*
X129390013Y-75737748D01*
X129211082Y-76005537D01*
X129087832Y-76303088D01*
X129025000Y-76618967D01*
X127240000Y-76618967D01*
X127240000Y-71823711D01*
X127283937Y-71779774D01*
X127397205Y-71610256D01*
X127475226Y-71421898D01*
X127515000Y-71221939D01*
X127515000Y-71018061D01*
X127475226Y-70818102D01*
X127397205Y-70629744D01*
X127283937Y-70460226D01*
X127139774Y-70316063D01*
X126970256Y-70202795D01*
X126781898Y-70124774D01*
X126581939Y-70085000D01*
X126378061Y-70085000D01*
X126178102Y-70124774D01*
X125989744Y-70202795D01*
X125820226Y-70316063D01*
X125676063Y-70460226D01*
X125562795Y-70629744D01*
X125484774Y-70818102D01*
X125445000Y-71018061D01*
X125445000Y-71221939D01*
X125484774Y-71421898D01*
X125562795Y-71610256D01*
X125676063Y-71779774D01*
X125720000Y-71823711D01*
X125720000Y-72625000D01*
X125628061Y-72625000D01*
X125428102Y-72664774D01*
X125239744Y-72742795D01*
X125220000Y-72755987D01*
X125220000Y-70553711D01*
X125263937Y-70509774D01*
X125377205Y-70340256D01*
X125455226Y-70151898D01*
X125495000Y-69951939D01*
X125495000Y-69748061D01*
X125455226Y-69548102D01*
X125377205Y-69359744D01*
X125263937Y-69190226D01*
X125119774Y-69046063D01*
X124950256Y-68932795D01*
X124761898Y-68854774D01*
X124561939Y-68815000D01*
X124358061Y-68815000D01*
X124158102Y-68854774D01*
X123969744Y-68932795D01*
X123800226Y-69046063D01*
X123656063Y-69190226D01*
X123542795Y-69359744D01*
X123464774Y-69548102D01*
X123425000Y-69748061D01*
X123425000Y-69951939D01*
X123464774Y-70151898D01*
X123542795Y-70340256D01*
X123656063Y-70509774D01*
X123700000Y-70553711D01*
X123700001Y-83505197D01*
X122875199Y-84330000D01*
X118772323Y-84330000D01*
X118735000Y-84326324D01*
X118697677Y-84330000D01*
X118697668Y-84330000D01*
X118586015Y-84340997D01*
X118442754Y-84384454D01*
X118310724Y-84455026D01*
X118269343Y-84488987D01*
X118195000Y-84549999D01*
X118171202Y-84578997D01*
X112070200Y-90680000D01*
X112015273Y-90680000D01*
X111972417Y-90599821D01*
X111785953Y-90372615D01*
X111829180Y-90359502D01*
X111939494Y-90300537D01*
X112036185Y-90221185D01*
X112115537Y-90124494D01*
X112174502Y-90014180D01*
X112210812Y-89894482D01*
X112223072Y-89770000D01*
X112220000Y-89185750D01*
X112061250Y-89027000D01*
X110617000Y-89027000D01*
X110617000Y-89047000D01*
X110363000Y-89047000D01*
X110363000Y-89027000D01*
X110343000Y-89027000D01*
X110343000Y-88773000D01*
X110363000Y-88773000D01*
X110363000Y-87553750D01*
X110617000Y-87553750D01*
X110617000Y-88773000D01*
X112061250Y-88773000D01*
X112220000Y-88614250D01*
X112223072Y-88030000D01*
X112210812Y-87905518D01*
X112174502Y-87785820D01*
X112115537Y-87675506D01*
X112036185Y-87578815D01*
X111939494Y-87499463D01*
X111829180Y-87440498D01*
X111709482Y-87404188D01*
X111585000Y-87391928D01*
X110775750Y-87395000D01*
X110617000Y-87553750D01*
X110363000Y-87553750D01*
X110204250Y-87395000D01*
X109895971Y-87393830D01*
X118054803Y-79235000D01*
X118116939Y-79235000D01*
X118316898Y-79195226D01*
X118505256Y-79117205D01*
X118674774Y-79003937D01*
X118818937Y-78859774D01*
X118932205Y-78690256D01*
X119010226Y-78501898D01*
X119050000Y-78301939D01*
X119050000Y-78098061D01*
X119010226Y-77898102D01*
X118932205Y-77709744D01*
X118818937Y-77540226D01*
X118674774Y-77396063D01*
X118505256Y-77282795D01*
X118316898Y-77204774D01*
X118116939Y-77165000D01*
X117913061Y-77165000D01*
X117713102Y-77204774D01*
X117524744Y-77282795D01*
X117355226Y-77396063D01*
X117211063Y-77540226D01*
X117097795Y-77709744D01*
X117019774Y-77898102D01*
X116980000Y-78098061D01*
X116980000Y-78160197D01*
X108558993Y-86581206D01*
X108529989Y-86605009D01*
X108474861Y-86672184D01*
X108435016Y-86720734D01*
X108364445Y-86852763D01*
X108364444Y-86852764D01*
X108320987Y-86996025D01*
X108309990Y-87107678D01*
X108309990Y-87107688D01*
X108306314Y-87145010D01*
X96809791Y-87145010D01*
X110529802Y-73425000D01*
X110591939Y-73425000D01*
X110791898Y-73385226D01*
X110980256Y-73307205D01*
X111149774Y-73193937D01*
X111293937Y-73049774D01*
X111407205Y-72880256D01*
X111485226Y-72691898D01*
X111525000Y-72491939D01*
X111525000Y-72288061D01*
X111485226Y-72088102D01*
X111407205Y-71899744D01*
X111293937Y-71730226D01*
X111149774Y-71586063D01*
X110980256Y-71472795D01*
X110791898Y-71394774D01*
X110591939Y-71355000D01*
X110388061Y-71355000D01*
X110188102Y-71394774D01*
X109999744Y-71472795D01*
X109830226Y-71586063D01*
X109686063Y-71730226D01*
X109572795Y-71899744D01*
X109494774Y-72088102D01*
X109455000Y-72288061D01*
X109455000Y-72350198D01*
X94534664Y-87270535D01*
X94275031Y-87191776D01*
X93980000Y-87162718D01*
X93684968Y-87191776D01*
X93401275Y-87277834D01*
X93139821Y-87417583D01*
X92910655Y-87605655D01*
X92722583Y-87834822D01*
X92710000Y-87858363D01*
X92697417Y-87834821D01*
X92509345Y-87605655D01*
X92280178Y-87417583D01*
X92018724Y-87277834D01*
X91735031Y-87191776D01*
X91440000Y-87162718D01*
X91144968Y-87191776D01*
X90861275Y-87277834D01*
X90599821Y-87417583D01*
X90372615Y-87604047D01*
X90359502Y-87560820D01*
X90300537Y-87450506D01*
X90221185Y-87353815D01*
X90124494Y-87274463D01*
X90014180Y-87215498D01*
X89894482Y-87179188D01*
X89770000Y-87166928D01*
X89185750Y-87170000D01*
X89027000Y-87328750D01*
X88773000Y-87328750D01*
X88614250Y-87170000D01*
X88030000Y-87166928D01*
X87905518Y-87179188D01*
X87785820Y-87215498D01*
X87675506Y-87274463D01*
X87578815Y-87353815D01*
X87499463Y-87450506D01*
X87440498Y-87560820D01*
X87404188Y-87680518D01*
X87391928Y-87805000D01*
X78130000Y-87805000D01*
X78130000Y-73660000D01*
X79542718Y-73660000D01*
X79571776Y-73955032D01*
X79657834Y-74238725D01*
X79797583Y-74500179D01*
X79985655Y-74729345D01*
X80214821Y-74917417D01*
X80238362Y-74930000D01*
X80214821Y-74942583D01*
X79985655Y-75130655D01*
X79797583Y-75359821D01*
X79657834Y-75621275D01*
X79571776Y-75904968D01*
X79542718Y-76200000D01*
X79571776Y-76495032D01*
X79657834Y-76778725D01*
X79797583Y-77040179D01*
X79985655Y-77269345D01*
X80051114Y-77323066D01*
X79941613Y-77381595D01*
X79807038Y-77492038D01*
X79696595Y-77626613D01*
X79614528Y-77780149D01*
X79563992Y-77946745D01*
X79546928Y-78119999D01*
X79546928Y-79360001D01*
X79563992Y-79533255D01*
X79614528Y-79699851D01*
X79696595Y-79853387D01*
X79807038Y-79987962D01*
X79941613Y-80098405D01*
X80095149Y-80180472D01*
X80261745Y-80231008D01*
X80434999Y-80248072D01*
X82125001Y-80248072D01*
X82298255Y-80231008D01*
X82464851Y-80180472D01*
X82618387Y-80098405D01*
X82752962Y-79987962D01*
X82863405Y-79853387D01*
X82945472Y-79699851D01*
X82996008Y-79533255D01*
X83013072Y-79360001D01*
X83013072Y-78119999D01*
X82996008Y-77946745D01*
X82945472Y-77780149D01*
X82863405Y-77626613D01*
X82752962Y-77492038D01*
X82618387Y-77381595D01*
X82508886Y-77323066D01*
X82574345Y-77269345D01*
X82762417Y-77040179D01*
X82805273Y-76960000D01*
X87374727Y-76960000D01*
X87417583Y-77040179D01*
X87605655Y-77269345D01*
X87671114Y-77323066D01*
X87561613Y-77381595D01*
X87427038Y-77492038D01*
X87316595Y-77626613D01*
X87234528Y-77780149D01*
X87183992Y-77946745D01*
X87166928Y-78119999D01*
X87166928Y-79360001D01*
X87183992Y-79533255D01*
X87234528Y-79699851D01*
X87316595Y-79853387D01*
X87427038Y-79987962D01*
X87561613Y-80098405D01*
X87715149Y-80180472D01*
X87881745Y-80231008D01*
X88054999Y-80248072D01*
X89745001Y-80248072D01*
X89918255Y-80231008D01*
X90084851Y-80180472D01*
X90238387Y-80098405D01*
X90372962Y-79987962D01*
X90483405Y-79853387D01*
X90565472Y-79699851D01*
X90616008Y-79533255D01*
X90633072Y-79360001D01*
X90633072Y-78119999D01*
X90616008Y-77946745D01*
X90565472Y-77780149D01*
X90483405Y-77626613D01*
X90372962Y-77492038D01*
X90238387Y-77381595D01*
X90128886Y-77323066D01*
X90194345Y-77269345D01*
X90382417Y-77040179D01*
X90522166Y-76778725D01*
X90608224Y-76495032D01*
X90637282Y-76200000D01*
X90608224Y-75904968D01*
X90522166Y-75621275D01*
X90382417Y-75359821D01*
X90194345Y-75130655D01*
X89965179Y-74942583D01*
X89941638Y-74930000D01*
X89965179Y-74917417D01*
X90194345Y-74729345D01*
X90257244Y-74652702D01*
X97016903Y-74652702D01*
X97088486Y-74896671D01*
X97343996Y-75017571D01*
X97618184Y-75086300D01*
X97900512Y-75100217D01*
X98180130Y-75058787D01*
X98446292Y-74963603D01*
X98571514Y-74896671D01*
X98643097Y-74652702D01*
X97830000Y-73839605D01*
X97016903Y-74652702D01*
X90257244Y-74652702D01*
X90382417Y-74500179D01*
X90522166Y-74238725D01*
X90608224Y-73955032D01*
X90630337Y-73730512D01*
X96389783Y-73730512D01*
X96431213Y-74010130D01*
X96526397Y-74276292D01*
X96593329Y-74401514D01*
X96837298Y-74473097D01*
X97650395Y-73660000D01*
X98009605Y-73660000D01*
X98822702Y-74473097D01*
X98891928Y-74452785D01*
X98891928Y-74460000D01*
X98904188Y-74584482D01*
X98940498Y-74704180D01*
X98999463Y-74814494D01*
X99078815Y-74911185D01*
X99175506Y-74990537D01*
X99285820Y-75049502D01*
X99405518Y-75085812D01*
X99530000Y-75098072D01*
X101130000Y-75098072D01*
X101254482Y-75085812D01*
X101374180Y-75049502D01*
X101484494Y-74990537D01*
X101581185Y-74911185D01*
X101660537Y-74814494D01*
X101719502Y-74704180D01*
X101755812Y-74584482D01*
X101768072Y-74460000D01*
X101768072Y-72860000D01*
X101755812Y-72735518D01*
X101719502Y-72615820D01*
X101660537Y-72505506D01*
X101581185Y-72408815D01*
X101484494Y-72329463D01*
X101374180Y-72270498D01*
X101254482Y-72234188D01*
X101130000Y-72221928D01*
X99530000Y-72221928D01*
X99405518Y-72234188D01*
X99285820Y-72270498D01*
X99175506Y-72329463D01*
X99078815Y-72408815D01*
X98999463Y-72505506D01*
X98940498Y-72615820D01*
X98904188Y-72735518D01*
X98891928Y-72860000D01*
X98891928Y-72867215D01*
X98822702Y-72846903D01*
X98009605Y-73660000D01*
X97650395Y-73660000D01*
X96837298Y-72846903D01*
X96593329Y-72918486D01*
X96472429Y-73173996D01*
X96403700Y-73448184D01*
X96389783Y-73730512D01*
X90630337Y-73730512D01*
X90637282Y-73660000D01*
X90608224Y-73364968D01*
X90522166Y-73081275D01*
X90382417Y-72819821D01*
X90257245Y-72667298D01*
X97016903Y-72667298D01*
X97830000Y-73480395D01*
X98643097Y-72667298D01*
X98571514Y-72423329D01*
X98316004Y-72302429D01*
X98041816Y-72233700D01*
X97759488Y-72219783D01*
X97479870Y-72261213D01*
X97213708Y-72356397D01*
X97088486Y-72423329D01*
X97016903Y-72667298D01*
X90257245Y-72667298D01*
X90194345Y-72590655D01*
X89965179Y-72402583D01*
X89936848Y-72387440D01*
X90077433Y-72294708D01*
X90288306Y-72086326D01*
X90454474Y-71840809D01*
X90569551Y-71567591D01*
X90586302Y-71480031D01*
X90465246Y-71247000D01*
X89027000Y-71247000D01*
X89027000Y-71267000D01*
X88773000Y-71267000D01*
X88773000Y-71247000D01*
X87334754Y-71247000D01*
X87213698Y-71480031D01*
X87230449Y-71567591D01*
X87345526Y-71840809D01*
X87511694Y-72086326D01*
X87722567Y-72294708D01*
X87863152Y-72387440D01*
X87834821Y-72402583D01*
X87605655Y-72590655D01*
X87417583Y-72819821D01*
X87277834Y-73081275D01*
X87191776Y-73364968D01*
X87162718Y-73660000D01*
X87191776Y-73955032D01*
X87277834Y-74238725D01*
X87417583Y-74500179D01*
X87605655Y-74729345D01*
X87834821Y-74917417D01*
X87858362Y-74930000D01*
X87834821Y-74942583D01*
X87605655Y-75130655D01*
X87417583Y-75359821D01*
X87374727Y-75440000D01*
X82805273Y-75440000D01*
X82762417Y-75359821D01*
X82574345Y-75130655D01*
X82345179Y-74942583D01*
X82321638Y-74930000D01*
X82345179Y-74917417D01*
X82574345Y-74729345D01*
X82762417Y-74500179D01*
X82902166Y-74238725D01*
X82988224Y-73955032D01*
X83017282Y-73660000D01*
X82988224Y-73364968D01*
X82902166Y-73081275D01*
X82762417Y-72819821D01*
X82574345Y-72590655D01*
X82345179Y-72402583D01*
X82316848Y-72387440D01*
X82457433Y-72294708D01*
X82668306Y-72086326D01*
X82834474Y-71840809D01*
X82949551Y-71567591D01*
X82966302Y-71480031D01*
X82845246Y-71247000D01*
X81407000Y-71247000D01*
X81407000Y-71267000D01*
X81153000Y-71267000D01*
X81153000Y-71247000D01*
X79714754Y-71247000D01*
X79593698Y-71480031D01*
X79610449Y-71567591D01*
X79725526Y-71840809D01*
X79891694Y-72086326D01*
X80102567Y-72294708D01*
X80243152Y-72387440D01*
X80214821Y-72402583D01*
X79985655Y-72590655D01*
X79797583Y-72819821D01*
X79657834Y-73081275D01*
X79571776Y-73364968D01*
X79542718Y-73660000D01*
X78130000Y-73660000D01*
X78130000Y-70759969D01*
X79593698Y-70759969D01*
X79714754Y-70993000D01*
X81153000Y-70993000D01*
X81153000Y-69769624D01*
X81407000Y-69769624D01*
X81407000Y-70993000D01*
X82845246Y-70993000D01*
X82966302Y-70759969D01*
X87213698Y-70759969D01*
X87334754Y-70993000D01*
X88773000Y-70993000D01*
X88773000Y-69769624D01*
X89027000Y-69769624D01*
X89027000Y-70993000D01*
X90465246Y-70993000D01*
X90586302Y-70759969D01*
X90569551Y-70672409D01*
X90454474Y-70399191D01*
X90288306Y-70153674D01*
X90077433Y-69945292D01*
X89829958Y-69782053D01*
X89555392Y-69670231D01*
X89264286Y-69614123D01*
X89027000Y-69769624D01*
X88773000Y-69769624D01*
X88535714Y-69614123D01*
X88244608Y-69670231D01*
X87970042Y-69782053D01*
X87722567Y-69945292D01*
X87511694Y-70153674D01*
X87345526Y-70399191D01*
X87230449Y-70672409D01*
X87213698Y-70759969D01*
X82966302Y-70759969D01*
X82949551Y-70672409D01*
X82834474Y-70399191D01*
X82668306Y-70153674D01*
X82457433Y-69945292D01*
X82209958Y-69782053D01*
X81935392Y-69670231D01*
X81644286Y-69614123D01*
X81407000Y-69769624D01*
X81153000Y-69769624D01*
X80915714Y-69614123D01*
X80624608Y-69670231D01*
X80350042Y-69782053D01*
X80102567Y-69945292D01*
X79891694Y-70153674D01*
X79725526Y-70399191D01*
X79610449Y-70672409D01*
X79593698Y-70759969D01*
X78130000Y-70759969D01*
X78130000Y-64785000D01*
X82241928Y-64785000D01*
X82241928Y-66535000D01*
X82271001Y-66830186D01*
X82357104Y-67114028D01*
X82496927Y-67375618D01*
X82685097Y-67604903D01*
X82914382Y-67793073D01*
X83175972Y-67932896D01*
X83459814Y-68018999D01*
X83755000Y-68048072D01*
X85505000Y-68048072D01*
X85800186Y-68018999D01*
X86084028Y-67932896D01*
X86345618Y-67793073D01*
X86574903Y-67604903D01*
X86763073Y-67375618D01*
X86902896Y-67114028D01*
X86988999Y-66830186D01*
X87018072Y-66535000D01*
X87018072Y-64785000D01*
X86988999Y-64489814D01*
X86902896Y-64205972D01*
X86763073Y-63944382D01*
X86574903Y-63715097D01*
X86345618Y-63526927D01*
X86104528Y-63398061D01*
X129775000Y-63398061D01*
X129775000Y-63601939D01*
X129814774Y-63801898D01*
X129892795Y-63990256D01*
X130006063Y-64159774D01*
X130150226Y-64303937D01*
X130319744Y-64417205D01*
X130508102Y-64495226D01*
X130708061Y-64535000D01*
X130911939Y-64535000D01*
X131111898Y-64495226D01*
X131300256Y-64417205D01*
X131469774Y-64303937D01*
X131513711Y-64260000D01*
X133035199Y-64260000D01*
X133327127Y-64551928D01*
X132500000Y-64551928D01*
X132375518Y-64564188D01*
X132255820Y-64600498D01*
X132145506Y-64659463D01*
X132048815Y-64738815D01*
X131969463Y-64835506D01*
X131910498Y-64945820D01*
X131874188Y-65065518D01*
X131861928Y-65190000D01*
X131861928Y-66890000D01*
X131874188Y-67014482D01*
X131910498Y-67134180D01*
X131969463Y-67244494D01*
X132048815Y-67341185D01*
X132145506Y-67420537D01*
X132255820Y-67479502D01*
X132328380Y-67501513D01*
X132196525Y-67633368D01*
X132034010Y-67876589D01*
X131922068Y-68146842D01*
X131865000Y-68433740D01*
X131865000Y-68726260D01*
X131922068Y-69013158D01*
X132034010Y-69283411D01*
X132196525Y-69526632D01*
X132403368Y-69733475D01*
X132577760Y-69850000D01*
X132403368Y-69966525D01*
X132196525Y-70173368D01*
X132034010Y-70416589D01*
X131922068Y-70686842D01*
X131865000Y-70973740D01*
X131865000Y-71266260D01*
X131922068Y-71553158D01*
X132034010Y-71823411D01*
X132196525Y-72066632D01*
X132403368Y-72273475D01*
X132646589Y-72435990D01*
X132916842Y-72547932D01*
X133203740Y-72605000D01*
X133496260Y-72605000D01*
X133783158Y-72547932D01*
X134053411Y-72435990D01*
X134296632Y-72273475D01*
X134503475Y-72066632D01*
X134621100Y-71890594D01*
X134792412Y-72120269D01*
X135008645Y-72315178D01*
X135258748Y-72464157D01*
X135533109Y-72561481D01*
X135763000Y-72440814D01*
X135763000Y-71247000D01*
X136017000Y-71247000D01*
X136017000Y-72440814D01*
X136246891Y-72561481D01*
X136521252Y-72464157D01*
X136771355Y-72315178D01*
X136987588Y-72120269D01*
X137161641Y-71886920D01*
X137286825Y-71624099D01*
X137331476Y-71476890D01*
X137210155Y-71247000D01*
X136017000Y-71247000D01*
X135763000Y-71247000D01*
X135743000Y-71247000D01*
X135743000Y-70993000D01*
X135763000Y-70993000D01*
X135763000Y-70973000D01*
X136017000Y-70973000D01*
X136017000Y-70993000D01*
X137210155Y-70993000D01*
X137331476Y-70763110D01*
X137286825Y-70615901D01*
X137161641Y-70353080D01*
X136987588Y-70119731D01*
X136771355Y-69924822D01*
X136654466Y-69855195D01*
X136836632Y-69733475D01*
X137043475Y-69526632D01*
X137205990Y-69283411D01*
X137317932Y-69013158D01*
X137375000Y-68726260D01*
X137375000Y-68599802D01*
X138144030Y-69368832D01*
X138069774Y-69548102D01*
X138030000Y-69748061D01*
X138030000Y-69951939D01*
X138069774Y-70151898D01*
X138147795Y-70340256D01*
X138261063Y-70509774D01*
X138405226Y-70653937D01*
X138574744Y-70767205D01*
X138763102Y-70845226D01*
X138963061Y-70885000D01*
X139166939Y-70885000D01*
X139366898Y-70845226D01*
X139555256Y-70767205D01*
X139724774Y-70653937D01*
X139868937Y-70509774D01*
X139982205Y-70340256D01*
X140060226Y-70151898D01*
X140100000Y-69951939D01*
X140100000Y-69748061D01*
X140060226Y-69548102D01*
X139982205Y-69359744D01*
X139868937Y-69190226D01*
X139821572Y-69142861D01*
X139814003Y-69066014D01*
X139770546Y-68922753D01*
X139712950Y-68815000D01*
X139699974Y-68790723D01*
X139628799Y-68703997D01*
X139605001Y-68674999D01*
X139576003Y-68651201D01*
X137331209Y-66406408D01*
X137375000Y-66186260D01*
X137375000Y-65893740D01*
X137317932Y-65606842D01*
X137205990Y-65336589D01*
X137043475Y-65093368D01*
X136836632Y-64886525D01*
X136593411Y-64724010D01*
X136323158Y-64612068D01*
X136036260Y-64555000D01*
X135743740Y-64555000D01*
X135523593Y-64598790D01*
X133913804Y-62989003D01*
X133890001Y-62959999D01*
X133774276Y-62865026D01*
X133642247Y-62794454D01*
X133498986Y-62750997D01*
X133387333Y-62740000D01*
X133387322Y-62740000D01*
X133350000Y-62736324D01*
X133312678Y-62740000D01*
X131513711Y-62740000D01*
X131469774Y-62696063D01*
X131300256Y-62582795D01*
X131111898Y-62504774D01*
X130911939Y-62465000D01*
X130708061Y-62465000D01*
X130508102Y-62504774D01*
X130319744Y-62582795D01*
X130150226Y-62696063D01*
X130006063Y-62840226D01*
X129892795Y-63009744D01*
X129814774Y-63198102D01*
X129775000Y-63398061D01*
X86104528Y-63398061D01*
X86084028Y-63387104D01*
X85955357Y-63348072D01*
X89380000Y-63348072D01*
X89504482Y-63335812D01*
X89624180Y-63299502D01*
X89734494Y-63240537D01*
X89831185Y-63161185D01*
X89910537Y-63064494D01*
X89969502Y-62954180D01*
X90005812Y-62834482D01*
X90018072Y-62710000D01*
X90018072Y-59210000D01*
X90005812Y-59085518D01*
X89969502Y-58965820D01*
X89910537Y-58855506D01*
X89831185Y-58758815D01*
X89734494Y-58679463D01*
X89624180Y-58620498D01*
X89504482Y-58584188D01*
X89380000Y-58571928D01*
X85880000Y-58571928D01*
X85755518Y-58584188D01*
X85635820Y-58620498D01*
X85525506Y-58679463D01*
X85428815Y-58758815D01*
X85349463Y-58855506D01*
X85290498Y-58965820D01*
X85254188Y-59085518D01*
X85241928Y-59210000D01*
X85241928Y-62710000D01*
X85254188Y-62834482D01*
X85290498Y-62954180D01*
X85349463Y-63064494D01*
X85428815Y-63161185D01*
X85525506Y-63240537D01*
X85602131Y-63281494D01*
X85505000Y-63271928D01*
X83755000Y-63271928D01*
X83459814Y-63301001D01*
X83175972Y-63387104D01*
X82914382Y-63526927D01*
X82685097Y-63715097D01*
X82496927Y-63944382D01*
X82357104Y-64205972D01*
X82271001Y-64489814D01*
X82241928Y-64785000D01*
X78130000Y-64785000D01*
X78130000Y-62710000D01*
X79491928Y-62710000D01*
X79504188Y-62834482D01*
X79540498Y-62954180D01*
X79599463Y-63064494D01*
X79678815Y-63161185D01*
X79775506Y-63240537D01*
X79885820Y-63299502D01*
X80005518Y-63335812D01*
X80130000Y-63348072D01*
X81344250Y-63345000D01*
X81503000Y-63186250D01*
X81503000Y-61087000D01*
X81757000Y-61087000D01*
X81757000Y-63186250D01*
X81915750Y-63345000D01*
X83130000Y-63348072D01*
X83254482Y-63335812D01*
X83374180Y-63299502D01*
X83484494Y-63240537D01*
X83581185Y-63161185D01*
X83660537Y-63064494D01*
X83719502Y-62954180D01*
X83755812Y-62834482D01*
X83768072Y-62710000D01*
X83765000Y-61245750D01*
X83606250Y-61087000D01*
X81757000Y-61087000D01*
X81503000Y-61087000D01*
X79653750Y-61087000D01*
X79495000Y-61245750D01*
X79491928Y-62710000D01*
X78130000Y-62710000D01*
X78130000Y-59210000D01*
X79491928Y-59210000D01*
X79495000Y-60674250D01*
X79653750Y-60833000D01*
X81503000Y-60833000D01*
X81503000Y-58733750D01*
X81757000Y-58733750D01*
X81757000Y-60833000D01*
X83606250Y-60833000D01*
X83765000Y-60674250D01*
X83768072Y-59210000D01*
X83755812Y-59085518D01*
X83719502Y-58965820D01*
X83660537Y-58855506D01*
X83581185Y-58758815D01*
X83484494Y-58679463D01*
X83374180Y-58620498D01*
X83254482Y-58584188D01*
X83130000Y-58571928D01*
X81915750Y-58575000D01*
X81757000Y-58733750D01*
X81503000Y-58733750D01*
X81344250Y-58575000D01*
X80130000Y-58571928D01*
X80005518Y-58584188D01*
X79885820Y-58620498D01*
X79775506Y-58679463D01*
X79678815Y-58758815D01*
X79599463Y-58855506D01*
X79540498Y-58965820D01*
X79504188Y-59085518D01*
X79491928Y-59210000D01*
X78130000Y-59210000D01*
X78130000Y-57620000D01*
X91271928Y-57620000D01*
X91271928Y-59220000D01*
X91284188Y-59344482D01*
X91320498Y-59464180D01*
X91379463Y-59574494D01*
X91458815Y-59671185D01*
X91555506Y-59750537D01*
X91665820Y-59809502D01*
X91785518Y-59845812D01*
X91910000Y-59858072D01*
X93510000Y-59858072D01*
X93634482Y-59845812D01*
X93754180Y-59809502D01*
X93864494Y-59750537D01*
X93961185Y-59671185D01*
X94040537Y-59574494D01*
X94099502Y-59464180D01*
X94115117Y-59412702D01*
X94396903Y-59412702D01*
X94468486Y-59656671D01*
X94723996Y-59777571D01*
X94998184Y-59846300D01*
X95280512Y-59860217D01*
X95560130Y-59818787D01*
X95826292Y-59723603D01*
X95951514Y-59656671D01*
X96023097Y-59412702D01*
X95210000Y-58599605D01*
X94396903Y-59412702D01*
X94115117Y-59412702D01*
X94135812Y-59344482D01*
X94148072Y-59220000D01*
X94148072Y-59212785D01*
X94217298Y-59233097D01*
X95030395Y-58420000D01*
X95389605Y-58420000D01*
X96202702Y-59233097D01*
X96446671Y-59161514D01*
X96567571Y-58906004D01*
X96636300Y-58631816D01*
X96650217Y-58349488D01*
X96608787Y-58069870D01*
X96513603Y-57803708D01*
X96446671Y-57678486D01*
X96202702Y-57606903D01*
X95389605Y-58420000D01*
X95030395Y-58420000D01*
X94217298Y-57606903D01*
X94148072Y-57627215D01*
X94148072Y-57620000D01*
X94135812Y-57495518D01*
X94115118Y-57427298D01*
X94396903Y-57427298D01*
X95210000Y-58240395D01*
X96023097Y-57427298D01*
X95951514Y-57183329D01*
X95696004Y-57062429D01*
X95421816Y-56993700D01*
X95139488Y-56979783D01*
X94859870Y-57021213D01*
X94593708Y-57116397D01*
X94468486Y-57183329D01*
X94396903Y-57427298D01*
X94115118Y-57427298D01*
X94099502Y-57375820D01*
X94040537Y-57265506D01*
X93961185Y-57168815D01*
X93864494Y-57089463D01*
X93754180Y-57030498D01*
X93634482Y-56994188D01*
X93510000Y-56981928D01*
X91910000Y-56981928D01*
X91785518Y-56994188D01*
X91665820Y-57030498D01*
X91555506Y-57089463D01*
X91458815Y-57168815D01*
X91379463Y-57265506D01*
X91320498Y-57375820D01*
X91284188Y-57495518D01*
X91271928Y-57620000D01*
X78130000Y-57620000D01*
X78130000Y-56979117D01*
X136695000Y-56979117D01*
X136695000Y-57320883D01*
X136761675Y-57656081D01*
X136892463Y-57971831D01*
X137082337Y-58255998D01*
X137324002Y-58497663D01*
X137608169Y-58687537D01*
X137923919Y-58818325D01*
X138259117Y-58885000D01*
X138600883Y-58885000D01*
X138936081Y-58818325D01*
X139251831Y-58687537D01*
X139535998Y-58497663D01*
X139777663Y-58255998D01*
X139967537Y-57971831D01*
X140098325Y-57656081D01*
X140165000Y-57320883D01*
X140165000Y-56979117D01*
X140098325Y-56643919D01*
X139967537Y-56328169D01*
X139777663Y-56044002D01*
X139535998Y-55802337D01*
X139251831Y-55612463D01*
X138936081Y-55481675D01*
X138600883Y-55415000D01*
X138259117Y-55415000D01*
X137923919Y-55481675D01*
X137608169Y-55612463D01*
X137324002Y-55802337D01*
X137082337Y-56044002D01*
X136892463Y-56328169D01*
X136761675Y-56643919D01*
X136695000Y-56979117D01*
X78130000Y-56979117D01*
X78130000Y-55270000D01*
X140310000Y-55270000D01*
X140310001Y-100940000D01*
G37*
%TD.AperFunction*%
%TD*%
M02*
