%TF.GenerationSoftware,KiCad,Pcbnew,5.99.0+really5.1.10+dfsg1-1*%
%TF.CreationDate,2022-04-25T00:01:12+02:00*%
%TF.ProjectId,mini_accessory,6d696e69-5f61-4636-9365-73736f72792e,rev?*%
%TF.SameCoordinates,Original*%
%TF.FileFunction,Soldermask,Bot*%
%TF.FilePolarity,Negative*%
%FSLAX46Y46*%
G04 Gerber Fmt 4.6, Leading zero omitted, Abs format (unit mm)*
G04 Created by KiCad (PCBNEW 5.99.0+really5.1.10+dfsg1-1) date 2022-04-25 00:01:12*
%MOMM*%
%LPD*%
G01*
G04 APERTURE LIST*
%ADD10C,2.200000*%
%ADD11R,1.600000X1.600000*%
%ADD12C,1.600000*%
%ADD13R,3.500000X3.500000*%
%ADD14O,2.190000X1.740000*%
%ADD15R,1.700000X1.700000*%
%ADD16O,1.700000X1.700000*%
%ADD17O,1.740000X2.190000*%
%ADD18C,2.000000*%
G04 APERTURE END LIST*
D10*
%TO.C,REF\u002A\u002A*%
X81280000Y-96520000D03*
%TD*%
%TO.C,REF\u002A\u002A*%
X138430000Y-99060000D03*
%TD*%
%TO.C,REF\u002A\u002A*%
X138430000Y-57150000D03*
%TD*%
D11*
%TO.C,C1*%
X92710000Y-58420000D03*
D12*
X95210000Y-58420000D03*
%TD*%
D11*
%TO.C,C3*%
X100330000Y-73660000D03*
D12*
X97830000Y-73660000D03*
%TD*%
D13*
%TO.C,12V*%
X87630000Y-60960000D03*
G36*
G01*
X80130000Y-61960000D02*
X80130000Y-59960000D01*
G75*
G02*
X80880000Y-59210000I750000J0D01*
G01*
X82380000Y-59210000D01*
G75*
G02*
X83130000Y-59960000I0J-750000D01*
G01*
X83130000Y-61960000D01*
G75*
G02*
X82380000Y-62710000I-750000J0D01*
G01*
X80880000Y-62710000D01*
G75*
G02*
X80130000Y-61960000I0J750000D01*
G01*
G37*
G36*
G01*
X82880000Y-66535000D02*
X82880000Y-64785000D01*
G75*
G02*
X83755000Y-63910000I875000J0D01*
G01*
X85505000Y-63910000D01*
G75*
G02*
X86380000Y-64785000I0J-875000D01*
G01*
X86380000Y-66535000D01*
G75*
G02*
X85505000Y-67410000I-875000J0D01*
G01*
X83755000Y-67410000D01*
G75*
G02*
X82880000Y-66535000I0J875000D01*
G01*
G37*
%TD*%
D14*
%TO.C,I2C*%
X81280000Y-71120000D03*
X81280000Y-73660000D03*
X81280000Y-76200000D03*
G36*
G01*
X82125001Y-79610000D02*
X80434999Y-79610000D01*
G75*
G02*
X80185000Y-79360001I0J249999D01*
G01*
X80185000Y-78119999D01*
G75*
G02*
X80434999Y-77870000I249999J0D01*
G01*
X82125001Y-77870000D01*
G75*
G02*
X82375000Y-78119999I0J-249999D01*
G01*
X82375000Y-79360001D01*
G75*
G02*
X82125001Y-79610000I-249999J0D01*
G01*
G37*
%TD*%
D15*
%TO.C,J3*%
X133350000Y-66040000D03*
D16*
X135890000Y-66040000D03*
X133350000Y-68580000D03*
X135890000Y-68580000D03*
X133350000Y-71120000D03*
X135890000Y-71120000D03*
%TD*%
%TO.C,J4*%
G36*
G01*
X89745001Y-79610000D02*
X88054999Y-79610000D01*
G75*
G02*
X87805000Y-79360001I0J249999D01*
G01*
X87805000Y-78119999D01*
G75*
G02*
X88054999Y-77870000I249999J0D01*
G01*
X89745001Y-77870000D01*
G75*
G02*
X89995000Y-78119999I0J-249999D01*
G01*
X89995000Y-79360001D01*
G75*
G02*
X89745001Y-79610000I-249999J0D01*
G01*
G37*
D14*
X88900000Y-76200000D03*
X88900000Y-73660000D03*
X88900000Y-71120000D03*
%TD*%
%TO.C,Servo 0*%
G36*
G01*
X96920000Y-89745001D02*
X96920000Y-88054999D01*
G75*
G02*
X97169999Y-87805000I249999J0D01*
G01*
X98410001Y-87805000D01*
G75*
G02*
X98660000Y-88054999I0J-249999D01*
G01*
X98660000Y-89745001D01*
G75*
G02*
X98410001Y-89995000I-249999J0D01*
G01*
X97169999Y-89995000D01*
G75*
G02*
X96920000Y-89745001I0J249999D01*
G01*
G37*
D17*
X100330000Y-88900000D03*
X102870000Y-88900000D03*
%TD*%
%TO.C,US 0*%
G36*
G01*
X125330000Y-88054999D02*
X125330000Y-89745001D01*
G75*
G02*
X125080001Y-89995000I-249999J0D01*
G01*
X123839999Y-89995000D01*
G75*
G02*
X123590000Y-89745001I0J249999D01*
G01*
X123590000Y-88054999D01*
G75*
G02*
X123839999Y-87805000I249999J0D01*
G01*
X125080001Y-87805000D01*
G75*
G02*
X125330000Y-88054999I0J-249999D01*
G01*
G37*
X121920000Y-88900000D03*
X119380000Y-88900000D03*
X116840000Y-88900000D03*
%TD*%
%TO.C,Servo 1*%
G36*
G01*
X93110000Y-97365001D02*
X93110000Y-95674999D01*
G75*
G02*
X93359999Y-95425000I249999J0D01*
G01*
X94600001Y-95425000D01*
G75*
G02*
X94850000Y-95674999I0J-249999D01*
G01*
X94850000Y-97365001D01*
G75*
G02*
X94600001Y-97615000I-249999J0D01*
G01*
X93359999Y-97615000D01*
G75*
G02*
X93110000Y-97365001I0J249999D01*
G01*
G37*
X96520000Y-96520000D03*
X99060000Y-96520000D03*
%TD*%
%TO.C,US 1*%
G36*
G01*
X125330000Y-95674999D02*
X125330000Y-97365001D01*
G75*
G02*
X125080001Y-97615000I-249999J0D01*
G01*
X123839999Y-97615000D01*
G75*
G02*
X123590000Y-97365001I0J249999D01*
G01*
X123590000Y-95674999D01*
G75*
G02*
X123839999Y-95425000I249999J0D01*
G01*
X125080001Y-95425000D01*
G75*
G02*
X125330000Y-95674999I0J-249999D01*
G01*
G37*
X121920000Y-96520000D03*
X119380000Y-96520000D03*
X116840000Y-96520000D03*
%TD*%
D14*
%TO.C,US 2*%
X110490000Y-96520000D03*
X110490000Y-93980000D03*
X110490000Y-91440000D03*
G36*
G01*
X109644999Y-88030000D02*
X111335001Y-88030000D01*
G75*
G02*
X111585000Y-88279999I0J-249999D01*
G01*
X111585000Y-89520001D01*
G75*
G02*
X111335001Y-89770000I-249999J0D01*
G01*
X109644999Y-89770000D01*
G75*
G02*
X109395000Y-89520001I0J249999D01*
G01*
X109395000Y-88279999D01*
G75*
G02*
X109644999Y-88030000I249999J0D01*
G01*
G37*
%TD*%
D17*
%TO.C,Servo 2*%
X93980000Y-88900000D03*
X91440000Y-88900000D03*
G36*
G01*
X88030000Y-89745001D02*
X88030000Y-88054999D01*
G75*
G02*
X88279999Y-87805000I249999J0D01*
G01*
X89520001Y-87805000D01*
G75*
G02*
X89770000Y-88054999I0J-249999D01*
G01*
X89770000Y-89745001D01*
G75*
G02*
X89520001Y-89995000I-249999J0D01*
G01*
X88279999Y-89995000D01*
G75*
G02*
X88030000Y-89745001I0J249999D01*
G01*
G37*
%TD*%
D18*
%TO.C,RESET*%
X137160000Y-76780000D03*
X137160000Y-81280000D03*
X130660000Y-76780000D03*
X130660000Y-81280000D03*
%TD*%
M02*
