M48
; DRILL file {KiCad 5.99.0+really5.1.10+dfsg1-1} date Mon Apr 25 00:01:14 2022
; FORMAT={-:-/ absolute / inch / decimal}
; #@! TF.CreationDate,2022-04-25T00:01:14+02:00
; #@! TF.GenerationSoftware,Kicad,Pcbnew,5.99.0+really5.1.10+dfsg1-1
; #@! TF.FileFunction,Plated,1,2,PTH
FMAT,2
INCH
T1C0.0157
T2C0.0315
T3C0.0394
T4C0.0433
T5C0.0469
%
G90
G05
T1
X4.1374Y-2.9126
X4.35Y-2.85
X4.6463Y-3.0787
X4.6661Y-2.5839
X4.9Y-2.75
X4.95Y-2.9
X4.9795Y-2.8
X5.15Y-2.5
X5.475Y-2.75
T2
X3.65Y-2.3
X3.7484Y-2.3
X3.8516Y-2.9
X3.95Y-2.9
T3
X5.25Y-2.6
X5.25Y-2.7
X5.25Y-2.8
X5.35Y-2.6
X5.35Y-2.7
X5.35Y-2.8
T4
X5.1441Y-3.0228
X5.1441Y-3.2
X5.4Y-3.0228
X5.4Y-3.2
T5
X3.2Y-2.8
X3.2Y-2.9
X3.2Y-3.0
X3.2Y-3.1
X3.5Y-2.8
X3.5Y-2.9
X3.5Y-3.0
X3.5Y-3.1
X3.5Y-3.5
X3.6Y-3.5
X3.7Y-3.5
X3.7Y-3.8
X3.8Y-3.8
X3.85Y-3.5
X3.9Y-3.8
X3.95Y-3.5
X4.05Y-3.5
X4.35Y-3.5
X4.35Y-3.6
X4.35Y-3.7
X4.35Y-3.8
X4.6Y-3.5
X4.6Y-3.8
X4.7Y-3.5
X4.7Y-3.8
X4.8Y-3.5
X4.8Y-3.8
X4.9Y-3.5
X4.9Y-3.8
T3
G00X3.2138Y-2.3606
M15
G01X3.2138Y-2.4394
M16
G05
G00X3.2925Y-2.585
M15
G01X3.3713Y-2.585
M16
G05
G00X3.45Y-2.3606
M15
G01X3.45Y-2.4394
M16
G05
T0
M30
