%TF.GenerationSoftware,KiCad,Pcbnew,5.99.0+really5.1.10+dfsg1-1*%
%TF.CreationDate,2022-04-25T00:01:12+02:00*%
%TF.ProjectId,mini_accessory,6d696e69-5f61-4636-9365-73736f72792e,rev?*%
%TF.SameCoordinates,Original*%
%TF.FileFunction,Copper,L1,Top*%
%TF.FilePolarity,Positive*%
%FSLAX46Y46*%
G04 Gerber Fmt 4.6, Leading zero omitted, Abs format (unit mm)*
G04 Created by KiCad (PCBNEW 5.99.0+really5.1.10+dfsg1-1) date 2022-04-25 00:01:12*
%MOMM*%
%LPD*%
G01*
G04 APERTURE LIST*
%TA.AperFunction,ComponentPad*%
%ADD10R,1.600000X1.600000*%
%TD*%
%TA.AperFunction,ComponentPad*%
%ADD11C,1.600000*%
%TD*%
%TA.AperFunction,SMDPad,CuDef*%
%ADD12R,2.300000X2.500000*%
%TD*%
%TA.AperFunction,ComponentPad*%
%ADD13R,3.500000X3.500000*%
%TD*%
%TA.AperFunction,ComponentPad*%
%ADD14O,2.190000X1.740000*%
%TD*%
%TA.AperFunction,ComponentPad*%
%ADD15R,1.700000X1.700000*%
%TD*%
%TA.AperFunction,ComponentPad*%
%ADD16O,1.700000X1.700000*%
%TD*%
%TA.AperFunction,ComponentPad*%
%ADD17O,1.740000X2.190000*%
%TD*%
%TA.AperFunction,ComponentPad*%
%ADD18C,2.000000*%
%TD*%
%TA.AperFunction,SMDPad,CuDef*%
%ADD19R,4.600000X1.100000*%
%TD*%
%TA.AperFunction,SMDPad,CuDef*%
%ADD20R,9.400000X10.800000*%
%TD*%
%TA.AperFunction,SMDPad,CuDef*%
%ADD21R,1.600000X0.550000*%
%TD*%
%TA.AperFunction,SMDPad,CuDef*%
%ADD22R,0.550000X1.600000*%
%TD*%
%TA.AperFunction,SMDPad,CuDef*%
%ADD23R,4.500000X2.000000*%
%TD*%
%TA.AperFunction,SMDPad,CuDef*%
%ADD24R,5.400000X2.900000*%
%TD*%
%TA.AperFunction,ViaPad*%
%ADD25C,0.800000*%
%TD*%
%TA.AperFunction,Conductor*%
%ADD26C,0.250000*%
%TD*%
G04 APERTURE END LIST*
D10*
%TO.P,C1,1*%
%TO.N,Net-(C1-Pad1)*%
X92710000Y-58420000D03*
D11*
%TO.P,C1,2*%
%TO.N,GND*%
X95210000Y-58420000D03*
%TD*%
%TO.P,C2,2*%
%TO.N,GND*%
%TA.AperFunction,SMDPad,CuDef*%
G36*
G01*
X90620000Y-67785000D02*
X90620000Y-66835000D01*
G75*
G02*
X90870000Y-66585000I250000J0D01*
G01*
X91370000Y-66585000D01*
G75*
G02*
X91620000Y-66835000I0J-250000D01*
G01*
X91620000Y-67785000D01*
G75*
G02*
X91370000Y-68035000I-250000J0D01*
G01*
X90870000Y-68035000D01*
G75*
G02*
X90620000Y-67785000I0J250000D01*
G01*
G37*
%TD.AperFunction*%
%TO.P,C2,1*%
%TO.N,Net-(C1-Pad1)*%
%TA.AperFunction,SMDPad,CuDef*%
G36*
G01*
X88720000Y-67785000D02*
X88720000Y-66835000D01*
G75*
G02*
X88970000Y-66585000I250000J0D01*
G01*
X89470000Y-66585000D01*
G75*
G02*
X89720000Y-66835000I0J-250000D01*
G01*
X89720000Y-67785000D01*
G75*
G02*
X89470000Y-68035000I-250000J0D01*
G01*
X88970000Y-68035000D01*
G75*
G02*
X88720000Y-67785000I0J250000D01*
G01*
G37*
%TD.AperFunction*%
%TD*%
D10*
%TO.P,C3,1*%
%TO.N,+5VP*%
X100330000Y-73660000D03*
D11*
%TO.P,C3,2*%
%TO.N,GND*%
X97830000Y-73660000D03*
%TD*%
%TO.P,C4,1*%
%TO.N,+5VP*%
%TA.AperFunction,SMDPad,CuDef*%
G36*
G01*
X103010000Y-71595000D02*
X103010000Y-70645000D01*
G75*
G02*
X103260000Y-70395000I250000J0D01*
G01*
X103760000Y-70395000D01*
G75*
G02*
X104010000Y-70645000I0J-250000D01*
G01*
X104010000Y-71595000D01*
G75*
G02*
X103760000Y-71845000I-250000J0D01*
G01*
X103260000Y-71845000D01*
G75*
G02*
X103010000Y-71595000I0J250000D01*
G01*
G37*
%TD.AperFunction*%
%TO.P,C4,2*%
%TO.N,GND*%
%TA.AperFunction,SMDPad,CuDef*%
G36*
G01*
X104910000Y-71595000D02*
X104910000Y-70645000D01*
G75*
G02*
X105160000Y-70395000I250000J0D01*
G01*
X105660000Y-70395000D01*
G75*
G02*
X105910000Y-70645000I0J-250000D01*
G01*
X105910000Y-71595000D01*
G75*
G02*
X105660000Y-71845000I-250000J0D01*
G01*
X105160000Y-71845000D01*
G75*
G02*
X104910000Y-71595000I0J250000D01*
G01*
G37*
%TD.AperFunction*%
%TD*%
%TO.P,C5,1*%
%TO.N,/XTAL1*%
%TA.AperFunction,SMDPad,CuDef*%
G36*
G01*
X111940000Y-75725000D02*
X111940000Y-76675000D01*
G75*
G02*
X111690000Y-76925000I-250000J0D01*
G01*
X111190000Y-76925000D01*
G75*
G02*
X110940000Y-76675000I0J250000D01*
G01*
X110940000Y-75725000D01*
G75*
G02*
X111190000Y-75475000I250000J0D01*
G01*
X111690000Y-75475000D01*
G75*
G02*
X111940000Y-75725000I0J-250000D01*
G01*
G37*
%TD.AperFunction*%
%TO.P,C5,2*%
%TO.N,GND*%
%TA.AperFunction,SMDPad,CuDef*%
G36*
G01*
X110040000Y-75725000D02*
X110040000Y-76675000D01*
G75*
G02*
X109790000Y-76925000I-250000J0D01*
G01*
X109290000Y-76925000D01*
G75*
G02*
X109040000Y-76675000I0J250000D01*
G01*
X109040000Y-75725000D01*
G75*
G02*
X109290000Y-75475000I250000J0D01*
G01*
X109790000Y-75475000D01*
G75*
G02*
X110040000Y-75725000I0J-250000D01*
G01*
G37*
%TD.AperFunction*%
%TD*%
%TO.P,C6,2*%
%TO.N,GND*%
%TA.AperFunction,SMDPad,CuDef*%
G36*
G01*
X104590000Y-76675000D02*
X104590000Y-75725000D01*
G75*
G02*
X104840000Y-75475000I250000J0D01*
G01*
X105340000Y-75475000D01*
G75*
G02*
X105590000Y-75725000I0J-250000D01*
G01*
X105590000Y-76675000D01*
G75*
G02*
X105340000Y-76925000I-250000J0D01*
G01*
X104840000Y-76925000D01*
G75*
G02*
X104590000Y-76675000I0J250000D01*
G01*
G37*
%TD.AperFunction*%
%TO.P,C6,1*%
%TO.N,/XTAL2*%
%TA.AperFunction,SMDPad,CuDef*%
G36*
G01*
X102690000Y-76675000D02*
X102690000Y-75725000D01*
G75*
G02*
X102940000Y-75475000I250000J0D01*
G01*
X103440000Y-75475000D01*
G75*
G02*
X103690000Y-75725000I0J-250000D01*
G01*
X103690000Y-76675000D01*
G75*
G02*
X103440000Y-76925000I-250000J0D01*
G01*
X102940000Y-76925000D01*
G75*
G02*
X102690000Y-76675000I0J250000D01*
G01*
G37*
%TD.AperFunction*%
%TD*%
%TO.P,C7,1*%
%TO.N,+5V*%
%TA.AperFunction,SMDPad,CuDef*%
G36*
G01*
X93505000Y-78560000D02*
X94455000Y-78560000D01*
G75*
G02*
X94705000Y-78810000I0J-250000D01*
G01*
X94705000Y-79310000D01*
G75*
G02*
X94455000Y-79560000I-250000J0D01*
G01*
X93505000Y-79560000D01*
G75*
G02*
X93255000Y-79310000I0J250000D01*
G01*
X93255000Y-78810000D01*
G75*
G02*
X93505000Y-78560000I250000J0D01*
G01*
G37*
%TD.AperFunction*%
%TO.P,C7,2*%
%TO.N,GND*%
%TA.AperFunction,SMDPad,CuDef*%
G36*
G01*
X93505000Y-80460000D02*
X94455000Y-80460000D01*
G75*
G02*
X94705000Y-80710000I0J-250000D01*
G01*
X94705000Y-81210000D01*
G75*
G02*
X94455000Y-81460000I-250000J0D01*
G01*
X93505000Y-81460000D01*
G75*
G02*
X93255000Y-81210000I0J250000D01*
G01*
X93255000Y-80710000D01*
G75*
G02*
X93505000Y-80460000I250000J0D01*
G01*
G37*
%TD.AperFunction*%
%TD*%
%TO.P,Logic,2*%
%TO.N,Net-(D1-Pad2)*%
%TA.AperFunction,SMDPad,CuDef*%
G36*
G01*
X131823750Y-57500000D02*
X132336250Y-57500000D01*
G75*
G02*
X132555000Y-57718750I0J-218750D01*
G01*
X132555000Y-58156250D01*
G75*
G02*
X132336250Y-58375000I-218750J0D01*
G01*
X131823750Y-58375000D01*
G75*
G02*
X131605000Y-58156250I0J218750D01*
G01*
X131605000Y-57718750D01*
G75*
G02*
X131823750Y-57500000I218750J0D01*
G01*
G37*
%TD.AperFunction*%
%TO.P,Logic,1*%
%TO.N,GND*%
%TA.AperFunction,SMDPad,CuDef*%
G36*
G01*
X131823750Y-55925000D02*
X132336250Y-55925000D01*
G75*
G02*
X132555000Y-56143750I0J-218750D01*
G01*
X132555000Y-56581250D01*
G75*
G02*
X132336250Y-56800000I-218750J0D01*
G01*
X131823750Y-56800000D01*
G75*
G02*
X131605000Y-56581250I0J218750D01*
G01*
X131605000Y-56143750D01*
G75*
G02*
X131823750Y-55925000I218750J0D01*
G01*
G37*
%TD.AperFunction*%
%TD*%
%TO.P,Power,1*%
%TO.N,GND*%
%TA.AperFunction,SMDPad,CuDef*%
G36*
G01*
X134363750Y-55925000D02*
X134876250Y-55925000D01*
G75*
G02*
X135095000Y-56143750I0J-218750D01*
G01*
X135095000Y-56581250D01*
G75*
G02*
X134876250Y-56800000I-218750J0D01*
G01*
X134363750Y-56800000D01*
G75*
G02*
X134145000Y-56581250I0J218750D01*
G01*
X134145000Y-56143750D01*
G75*
G02*
X134363750Y-55925000I218750J0D01*
G01*
G37*
%TD.AperFunction*%
%TO.P,Power,2*%
%TO.N,Net-(D2-Pad2)*%
%TA.AperFunction,SMDPad,CuDef*%
G36*
G01*
X134363750Y-57500000D02*
X134876250Y-57500000D01*
G75*
G02*
X135095000Y-57718750I0J-218750D01*
G01*
X135095000Y-58156250D01*
G75*
G02*
X134876250Y-58375000I-218750J0D01*
G01*
X134363750Y-58375000D01*
G75*
G02*
X134145000Y-58156250I0J218750D01*
G01*
X134145000Y-57718750D01*
G75*
G02*
X134363750Y-57500000I218750J0D01*
G01*
G37*
%TD.AperFunction*%
%TD*%
D12*
%TO.P,D3,1*%
%TO.N,Net-(D3-Pad1)*%
X95250000Y-63890000D03*
%TO.P,D3,2*%
%TO.N,GND*%
X95250000Y-68190000D03*
%TD*%
D13*
%TO.P,12V,1*%
%TO.N,Net-(C1-Pad1)*%
X87630000Y-60960000D03*
%TO.P,12V,2*%
%TO.N,GND*%
%TA.AperFunction,ComponentPad*%
G36*
G01*
X80130000Y-61960000D02*
X80130000Y-59960000D01*
G75*
G02*
X80880000Y-59210000I750000J0D01*
G01*
X82380000Y-59210000D01*
G75*
G02*
X83130000Y-59960000I0J-750000D01*
G01*
X83130000Y-61960000D01*
G75*
G02*
X82380000Y-62710000I-750000J0D01*
G01*
X80880000Y-62710000D01*
G75*
G02*
X80130000Y-61960000I0J750000D01*
G01*
G37*
%TD.AperFunction*%
%TO.P,12V,3*%
%TO.N,N/C*%
%TA.AperFunction,ComponentPad*%
G36*
G01*
X82880000Y-66535000D02*
X82880000Y-64785000D01*
G75*
G02*
X83755000Y-63910000I875000J0D01*
G01*
X85505000Y-63910000D01*
G75*
G02*
X86380000Y-64785000I0J-875000D01*
G01*
X86380000Y-66535000D01*
G75*
G02*
X85505000Y-67410000I-875000J0D01*
G01*
X83755000Y-67410000D01*
G75*
G02*
X82880000Y-66535000I0J875000D01*
G01*
G37*
%TD.AperFunction*%
%TD*%
D14*
%TO.P,I2C,4*%
%TO.N,GND*%
X81280000Y-71120000D03*
%TO.P,I2C,3*%
%TO.N,/SCL*%
X81280000Y-73660000D03*
%TO.P,I2C,2*%
%TO.N,/SDA*%
X81280000Y-76200000D03*
%TO.P,I2C,1*%
%TO.N,+5V*%
%TA.AperFunction,ComponentPad*%
G36*
G01*
X82125001Y-79610000D02*
X80434999Y-79610000D01*
G75*
G02*
X80185000Y-79360001I0J249999D01*
G01*
X80185000Y-78119999D01*
G75*
G02*
X80434999Y-77870000I249999J0D01*
G01*
X82125001Y-77870000D01*
G75*
G02*
X82375000Y-78119999I0J-249999D01*
G01*
X82375000Y-79360001D01*
G75*
G02*
X82125001Y-79610000I-249999J0D01*
G01*
G37*
%TD.AperFunction*%
%TD*%
D15*
%TO.P,J3,1*%
%TO.N,/MISO*%
X133350000Y-66040000D03*
D16*
%TO.P,J3,2*%
%TO.N,+5V*%
X135890000Y-66040000D03*
%TO.P,J3,3*%
%TO.N,/SCK*%
X133350000Y-68580000D03*
%TO.P,J3,4*%
%TO.N,/MOSI*%
X135890000Y-68580000D03*
%TO.P,J3,5*%
%TO.N,/RST*%
X133350000Y-71120000D03*
%TO.P,J3,6*%
%TO.N,GND*%
X135890000Y-71120000D03*
%TD*%
%TO.P,J4,1*%
%TO.N,+5V*%
%TA.AperFunction,ComponentPad*%
G36*
G01*
X89745001Y-79610000D02*
X88054999Y-79610000D01*
G75*
G02*
X87805000Y-79360001I0J249999D01*
G01*
X87805000Y-78119999D01*
G75*
G02*
X88054999Y-77870000I249999J0D01*
G01*
X89745001Y-77870000D01*
G75*
G02*
X89995000Y-78119999I0J-249999D01*
G01*
X89995000Y-79360001D01*
G75*
G02*
X89745001Y-79610000I-249999J0D01*
G01*
G37*
%TD.AperFunction*%
D14*
%TO.P,J4,2*%
%TO.N,/SDA*%
X88900000Y-76200000D03*
%TO.P,J4,3*%
%TO.N,/SCL*%
X88900000Y-73660000D03*
%TO.P,J4,4*%
%TO.N,GND*%
X88900000Y-71120000D03*
%TD*%
%TO.P,Servo 0,1*%
%TO.N,GND*%
%TA.AperFunction,ComponentPad*%
G36*
G01*
X96920000Y-89745001D02*
X96920000Y-88054999D01*
G75*
G02*
X97169999Y-87805000I249999J0D01*
G01*
X98410001Y-87805000D01*
G75*
G02*
X98660000Y-88054999I0J-249999D01*
G01*
X98660000Y-89745001D01*
G75*
G02*
X98410001Y-89995000I-249999J0D01*
G01*
X97169999Y-89995000D01*
G75*
G02*
X96920000Y-89745001I0J249999D01*
G01*
G37*
%TD.AperFunction*%
D17*
%TO.P,Servo 0,2*%
%TO.N,+5VP*%
X100330000Y-88900000D03*
%TO.P,Servo 0,3*%
%TO.N,/SERVO0*%
X102870000Y-88900000D03*
%TD*%
%TO.P,US 0,1*%
%TO.N,GND*%
%TA.AperFunction,ComponentPad*%
G36*
G01*
X125330000Y-88054999D02*
X125330000Y-89745001D01*
G75*
G02*
X125080001Y-89995000I-249999J0D01*
G01*
X123839999Y-89995000D01*
G75*
G02*
X123590000Y-89745001I0J249999D01*
G01*
X123590000Y-88054999D01*
G75*
G02*
X123839999Y-87805000I249999J0D01*
G01*
X125080001Y-87805000D01*
G75*
G02*
X125330000Y-88054999I0J-249999D01*
G01*
G37*
%TD.AperFunction*%
%TO.P,US 0,2*%
%TO.N,/US0*%
X121920000Y-88900000D03*
%TO.P,US 0,3*%
X119380000Y-88900000D03*
%TO.P,US 0,4*%
%TO.N,+5V*%
X116840000Y-88900000D03*
%TD*%
%TO.P,Servo 1,1*%
%TO.N,GND*%
%TA.AperFunction,ComponentPad*%
G36*
G01*
X93110000Y-97365001D02*
X93110000Y-95674999D01*
G75*
G02*
X93359999Y-95425000I249999J0D01*
G01*
X94600001Y-95425000D01*
G75*
G02*
X94850000Y-95674999I0J-249999D01*
G01*
X94850000Y-97365001D01*
G75*
G02*
X94600001Y-97615000I-249999J0D01*
G01*
X93359999Y-97615000D01*
G75*
G02*
X93110000Y-97365001I0J249999D01*
G01*
G37*
%TD.AperFunction*%
%TO.P,Servo 1,2*%
%TO.N,+5VP*%
X96520000Y-96520000D03*
%TO.P,Servo 1,3*%
%TO.N,/SERVO1*%
X99060000Y-96520000D03*
%TD*%
%TO.P,US 1,1*%
%TO.N,GND*%
%TA.AperFunction,ComponentPad*%
G36*
G01*
X125330000Y-95674999D02*
X125330000Y-97365001D01*
G75*
G02*
X125080001Y-97615000I-249999J0D01*
G01*
X123839999Y-97615000D01*
G75*
G02*
X123590000Y-97365001I0J249999D01*
G01*
X123590000Y-95674999D01*
G75*
G02*
X123839999Y-95425000I249999J0D01*
G01*
X125080001Y-95425000D01*
G75*
G02*
X125330000Y-95674999I0J-249999D01*
G01*
G37*
%TD.AperFunction*%
%TO.P,US 1,2*%
%TO.N,/US1*%
X121920000Y-96520000D03*
%TO.P,US 1,3*%
X119380000Y-96520000D03*
%TO.P,US 1,4*%
%TO.N,+5V*%
X116840000Y-96520000D03*
%TD*%
D14*
%TO.P,US 2,4*%
%TO.N,+5V*%
X110490000Y-96520000D03*
%TO.P,US 2,3*%
%TO.N,/US2*%
X110490000Y-93980000D03*
%TO.P,US 2,2*%
X110490000Y-91440000D03*
%TO.P,US 2,1*%
%TO.N,GND*%
%TA.AperFunction,ComponentPad*%
G36*
G01*
X109644999Y-88030000D02*
X111335001Y-88030000D01*
G75*
G02*
X111585000Y-88279999I0J-249999D01*
G01*
X111585000Y-89520001D01*
G75*
G02*
X111335001Y-89770000I-249999J0D01*
G01*
X109644999Y-89770000D01*
G75*
G02*
X109395000Y-89520001I0J249999D01*
G01*
X109395000Y-88279999D01*
G75*
G02*
X109644999Y-88030000I249999J0D01*
G01*
G37*
%TD.AperFunction*%
%TD*%
D17*
%TO.P,Servo 2,3*%
%TO.N,/SERVO2*%
X93980000Y-88900000D03*
%TO.P,Servo 2,2*%
%TO.N,+5VP*%
X91440000Y-88900000D03*
%TO.P,Servo 2,1*%
%TO.N,GND*%
%TA.AperFunction,ComponentPad*%
G36*
G01*
X88030000Y-89745001D02*
X88030000Y-88054999D01*
G75*
G02*
X88279999Y-87805000I249999J0D01*
G01*
X89520001Y-87805000D01*
G75*
G02*
X89770000Y-88054999I0J-249999D01*
G01*
X89770000Y-89745001D01*
G75*
G02*
X89520001Y-89995000I-249999J0D01*
G01*
X88279999Y-89995000D01*
G75*
G02*
X88030000Y-89745001I0J249999D01*
G01*
G37*
%TD.AperFunction*%
%TD*%
%TO.P,R1,2*%
%TO.N,Net-(D1-Pad2)*%
%TA.AperFunction,SMDPad,CuDef*%
G36*
G01*
X132355000Y-60535000D02*
X131805000Y-60535000D01*
G75*
G02*
X131605000Y-60335000I0J200000D01*
G01*
X131605000Y-59935000D01*
G75*
G02*
X131805000Y-59735000I200000J0D01*
G01*
X132355000Y-59735000D01*
G75*
G02*
X132555000Y-59935000I0J-200000D01*
G01*
X132555000Y-60335000D01*
G75*
G02*
X132355000Y-60535000I-200000J0D01*
G01*
G37*
%TD.AperFunction*%
%TO.P,R1,1*%
%TO.N,+5V*%
%TA.AperFunction,SMDPad,CuDef*%
G36*
G01*
X132355000Y-62185000D02*
X131805000Y-62185000D01*
G75*
G02*
X131605000Y-61985000I0J200000D01*
G01*
X131605000Y-61585000D01*
G75*
G02*
X131805000Y-61385000I200000J0D01*
G01*
X132355000Y-61385000D01*
G75*
G02*
X132555000Y-61585000I0J-200000D01*
G01*
X132555000Y-61985000D01*
G75*
G02*
X132355000Y-62185000I-200000J0D01*
G01*
G37*
%TD.AperFunction*%
%TD*%
%TO.P,R2,1*%
%TO.N,+5VP*%
%TA.AperFunction,SMDPad,CuDef*%
G36*
G01*
X134895000Y-62185000D02*
X134345000Y-62185000D01*
G75*
G02*
X134145000Y-61985000I0J200000D01*
G01*
X134145000Y-61585000D01*
G75*
G02*
X134345000Y-61385000I200000J0D01*
G01*
X134895000Y-61385000D01*
G75*
G02*
X135095000Y-61585000I0J-200000D01*
G01*
X135095000Y-61985000D01*
G75*
G02*
X134895000Y-62185000I-200000J0D01*
G01*
G37*
%TD.AperFunction*%
%TO.P,R2,2*%
%TO.N,Net-(D2-Pad2)*%
%TA.AperFunction,SMDPad,CuDef*%
G36*
G01*
X134895000Y-60535000D02*
X134345000Y-60535000D01*
G75*
G02*
X134145000Y-60335000I0J200000D01*
G01*
X134145000Y-59935000D01*
G75*
G02*
X134345000Y-59735000I200000J0D01*
G01*
X134895000Y-59735000D01*
G75*
G02*
X135095000Y-59935000I0J-200000D01*
G01*
X135095000Y-60335000D01*
G75*
G02*
X134895000Y-60535000I-200000J0D01*
G01*
G37*
%TD.AperFunction*%
%TD*%
%TO.P,R3,1*%
%TO.N,+5V*%
%TA.AperFunction,SMDPad,CuDef*%
G36*
G01*
X81325000Y-81555000D02*
X81325000Y-81005000D01*
G75*
G02*
X81525000Y-80805000I200000J0D01*
G01*
X81925000Y-80805000D01*
G75*
G02*
X82125000Y-81005000I0J-200000D01*
G01*
X82125000Y-81555000D01*
G75*
G02*
X81925000Y-81755000I-200000J0D01*
G01*
X81525000Y-81755000D01*
G75*
G02*
X81325000Y-81555000I0J200000D01*
G01*
G37*
%TD.AperFunction*%
%TO.P,R3,2*%
%TO.N,/SDA*%
%TA.AperFunction,SMDPad,CuDef*%
G36*
G01*
X82975000Y-81555000D02*
X82975000Y-81005000D01*
G75*
G02*
X83175000Y-80805000I200000J0D01*
G01*
X83575000Y-80805000D01*
G75*
G02*
X83775000Y-81005000I0J-200000D01*
G01*
X83775000Y-81555000D01*
G75*
G02*
X83575000Y-81755000I-200000J0D01*
G01*
X83175000Y-81755000D01*
G75*
G02*
X82975000Y-81555000I0J200000D01*
G01*
G37*
%TD.AperFunction*%
%TD*%
%TO.P,R4,1*%
%TO.N,+5V*%
%TA.AperFunction,SMDPad,CuDef*%
G36*
G01*
X129585000Y-73935000D02*
X129585000Y-73385000D01*
G75*
G02*
X129785000Y-73185000I200000J0D01*
G01*
X130185000Y-73185000D01*
G75*
G02*
X130385000Y-73385000I0J-200000D01*
G01*
X130385000Y-73935000D01*
G75*
G02*
X130185000Y-74135000I-200000J0D01*
G01*
X129785000Y-74135000D01*
G75*
G02*
X129585000Y-73935000I0J200000D01*
G01*
G37*
%TD.AperFunction*%
%TO.P,R4,2*%
%TO.N,/RST*%
%TA.AperFunction,SMDPad,CuDef*%
G36*
G01*
X131235000Y-73935000D02*
X131235000Y-73385000D01*
G75*
G02*
X131435000Y-73185000I200000J0D01*
G01*
X131835000Y-73185000D01*
G75*
G02*
X132035000Y-73385000I0J-200000D01*
G01*
X132035000Y-73935000D01*
G75*
G02*
X131835000Y-74135000I-200000J0D01*
G01*
X131435000Y-74135000D01*
G75*
G02*
X131235000Y-73935000I0J200000D01*
G01*
G37*
%TD.AperFunction*%
%TD*%
%TO.P,R5,2*%
%TO.N,/SCL*%
%TA.AperFunction,SMDPad,CuDef*%
G36*
G01*
X82975000Y-84095000D02*
X82975000Y-83545000D01*
G75*
G02*
X83175000Y-83345000I200000J0D01*
G01*
X83575000Y-83345000D01*
G75*
G02*
X83775000Y-83545000I0J-200000D01*
G01*
X83775000Y-84095000D01*
G75*
G02*
X83575000Y-84295000I-200000J0D01*
G01*
X83175000Y-84295000D01*
G75*
G02*
X82975000Y-84095000I0J200000D01*
G01*
G37*
%TD.AperFunction*%
%TO.P,R5,1*%
%TO.N,+5V*%
%TA.AperFunction,SMDPad,CuDef*%
G36*
G01*
X81325000Y-84095000D02*
X81325000Y-83545000D01*
G75*
G02*
X81525000Y-83345000I200000J0D01*
G01*
X81925000Y-83345000D01*
G75*
G02*
X82125000Y-83545000I0J-200000D01*
G01*
X82125000Y-84095000D01*
G75*
G02*
X81925000Y-84295000I-200000J0D01*
G01*
X81525000Y-84295000D01*
G75*
G02*
X81325000Y-84095000I0J200000D01*
G01*
G37*
%TD.AperFunction*%
%TD*%
D18*
%TO.P,RESET,2*%
%TO.N,/RST*%
X137160000Y-76780000D03*
%TO.P,RESET,1*%
%TO.N,GND*%
X137160000Y-81280000D03*
%TO.P,RESET,2*%
%TO.N,/RST*%
X130660000Y-76780000D03*
%TO.P,RESET,1*%
%TO.N,GND*%
X130660000Y-81280000D03*
%TD*%
D19*
%TO.P,U1,1*%
%TO.N,Net-(C1-Pad1)*%
X114875000Y-58830000D03*
%TO.P,U1,2*%
%TO.N,Net-(D3-Pad1)*%
X114875000Y-60530000D03*
%TO.P,U1,3*%
%TO.N,GND*%
X114875000Y-62230000D03*
%TO.P,U1,4*%
%TO.N,+5VP*%
X114875000Y-63930000D03*
%TO.P,U1,5*%
%TO.N,GND*%
X114875000Y-65630000D03*
D20*
%TO.P,U1,3*%
X124025000Y-62230000D03*
%TD*%
D21*
%TO.P,U2,1*%
%TO.N,/SERVO2*%
X115130000Y-73400000D03*
%TO.P,U2,2*%
%TO.N,Net-(U2-Pad2)*%
X115130000Y-74200000D03*
%TO.P,U2,3*%
%TO.N,GND*%
X115130000Y-75000000D03*
%TO.P,U2,4*%
%TO.N,+5V*%
X115130000Y-75800000D03*
%TO.P,U2,5*%
%TO.N,GND*%
X115130000Y-76600000D03*
%TO.P,U2,6*%
%TO.N,+5V*%
X115130000Y-77400000D03*
%TO.P,U2,7*%
%TO.N,/XTAL1*%
X115130000Y-78200000D03*
%TO.P,U2,8*%
%TO.N,/XTAL2*%
X115130000Y-79000000D03*
D22*
%TO.P,U2,9*%
%TO.N,/SERVO0*%
X116580000Y-80450000D03*
%TO.P,U2,10*%
%TO.N,Net-(U2-Pad10)*%
X117380000Y-80450000D03*
%TO.P,U2,11*%
%TO.N,Net-(U2-Pad11)*%
X118180000Y-80450000D03*
%TO.P,U2,12*%
%TO.N,Net-(U2-Pad12)*%
X118980000Y-80450000D03*
%TO.P,U2,13*%
%TO.N,Net-(U2-Pad13)*%
X119780000Y-80450000D03*
%TO.P,U2,14*%
%TO.N,/SERVO1*%
X120580000Y-80450000D03*
%TO.P,U2,15*%
%TO.N,/MOSI*%
X121380000Y-80450000D03*
%TO.P,U2,16*%
%TO.N,/MISO*%
X122180000Y-80450000D03*
D21*
%TO.P,U2,17*%
%TO.N,/SCK*%
X123630000Y-79000000D03*
%TO.P,U2,18*%
%TO.N,+5V*%
X123630000Y-78200000D03*
%TO.P,U2,19*%
%TO.N,Net-(U2-Pad19)*%
X123630000Y-77400000D03*
%TO.P,U2,20*%
%TO.N,Net-(U2-Pad20)*%
X123630000Y-76600000D03*
%TO.P,U2,21*%
%TO.N,GND*%
X123630000Y-75800000D03*
%TO.P,U2,22*%
%TO.N,Net-(U2-Pad22)*%
X123630000Y-75000000D03*
%TO.P,U2,23*%
%TO.N,/US0*%
X123630000Y-74200000D03*
%TO.P,U2,24*%
%TO.N,/US1*%
X123630000Y-73400000D03*
D22*
%TO.P,U2,25*%
%TO.N,/US2*%
X122180000Y-71950000D03*
%TO.P,U2,26*%
%TO.N,Net-(U2-Pad26)*%
X121380000Y-71950000D03*
%TO.P,U2,27*%
%TO.N,Net-(U2-Pad27)*%
X120580000Y-71950000D03*
%TO.P,U2,28*%
%TO.N,Net-(U2-Pad28)*%
X119780000Y-71950000D03*
%TO.P,U2,29*%
%TO.N,/RST*%
X118980000Y-71950000D03*
%TO.P,U2,30*%
%TO.N,Net-(U2-Pad30)*%
X118180000Y-71950000D03*
%TO.P,U2,31*%
%TO.N,Net-(U2-Pad31)*%
X117380000Y-71950000D03*
%TO.P,U2,32*%
%TO.N,Net-(U2-Pad32)*%
X116580000Y-71950000D03*
%TD*%
D23*
%TO.P,Y1,1*%
%TO.N,/XTAL1*%
X109660000Y-80010000D03*
%TO.P,Y1,2*%
%TO.N,/XTAL2*%
X101160000Y-80010000D03*
%TD*%
D24*
%TO.P,L1,1*%
%TO.N,Net-(D3-Pad1)*%
X105410000Y-57280000D03*
%TO.P,L1,2*%
%TO.N,+5VP*%
X105410000Y-67180000D03*
%TD*%
D25*
%TO.N,GND*%
X105090000Y-73980000D03*
X118520000Y-65630000D03*
%TO.N,+5V*%
X130810000Y-63500000D03*
X118015000Y-78200000D03*
X139065000Y-69850000D03*
%TO.N,/US0*%
X125730000Y-73660000D03*
%TO.N,/US1*%
X126480000Y-71120000D03*
%TO.N,/US2*%
X124460000Y-69850000D03*
%TO.N,/SERVO2*%
X110490000Y-72390000D03*
%TD*%
D26*
%TO.N,Net-(C1-Pad1)*%
X90170000Y-58420000D02*
X87630000Y-60960000D01*
X92710000Y-58420000D02*
X90170000Y-58420000D01*
X89220000Y-62550000D02*
X87630000Y-60960000D01*
X89220000Y-67310000D02*
X89220000Y-62550000D01*
X111549999Y-55504999D02*
X114875000Y-58830000D01*
X95625001Y-55504999D02*
X111549999Y-55504999D01*
X92710000Y-58420000D02*
X95625001Y-55504999D01*
%TO.N,GND*%
X92000000Y-68190000D02*
X91120000Y-67310000D01*
X95250000Y-68190000D02*
X92000000Y-68190000D01*
X91120000Y-68900000D02*
X88900000Y-71120000D01*
X91120000Y-67310000D02*
X91120000Y-68900000D01*
X114875000Y-62230000D02*
X124025000Y-62230000D01*
X109540000Y-76200000D02*
X105090000Y-76200000D01*
X105090000Y-71440000D02*
X105410000Y-71120000D01*
X105090000Y-76200000D02*
X105090000Y-73980000D01*
X110590010Y-75149990D02*
X109540000Y-76200000D01*
X111928180Y-75149990D02*
X110590010Y-75149990D01*
X113378190Y-76600000D02*
X111928180Y-75149990D01*
X115130000Y-76600000D02*
X113378190Y-76600000D01*
X134620000Y-56362500D02*
X132080000Y-56362500D01*
X129892500Y-56362500D02*
X124025000Y-62230000D01*
X132080000Y-56362500D02*
X129892500Y-56362500D01*
X115130000Y-75000000D02*
X114230000Y-75000000D01*
X114230000Y-75000000D02*
X113030000Y-76200000D01*
X121969998Y-75000000D02*
X115130000Y-75000000D01*
X122769998Y-75800000D02*
X121969998Y-75000000D01*
X123630000Y-75800000D02*
X122769998Y-75800000D01*
X97830000Y-77110000D02*
X97830000Y-73660000D01*
X93980000Y-80960000D02*
X97830000Y-77110000D01*
X105090000Y-73980000D02*
X105090000Y-71440000D01*
X120625000Y-65630000D02*
X124025000Y-62230000D01*
X114875000Y-65630000D02*
X118520000Y-65630000D01*
X118520000Y-65630000D02*
X120625000Y-65630000D01*
%TO.N,+5VP*%
X108660000Y-63930000D02*
X105410000Y-67180000D01*
X114875000Y-63930000D02*
X108660000Y-63930000D01*
X105410000Y-69220000D02*
X103510000Y-71120000D01*
X105410000Y-67180000D02*
X105410000Y-69220000D01*
X102870000Y-71120000D02*
X100330000Y-73660000D01*
X103510000Y-71120000D02*
X102870000Y-71120000D01*
X98584999Y-87154999D02*
X100330000Y-88900000D01*
X98584999Y-75405001D02*
X98584999Y-87154999D01*
X100330000Y-73660000D02*
X98584999Y-75405001D01*
X92860010Y-90320010D02*
X91440000Y-88900000D01*
X98909990Y-90320010D02*
X92860010Y-90320010D01*
X100330000Y-88900000D02*
X98909990Y-90320010D01*
X96520000Y-92710000D02*
X100330000Y-88900000D01*
X96520000Y-96520000D02*
X96520000Y-92710000D01*
X106185001Y-67955001D02*
X105410000Y-67180000D01*
X128985001Y-67955001D02*
X106185001Y-67955001D01*
X129050001Y-67890001D02*
X128985001Y-67955001D01*
X129050001Y-63597521D02*
X129050001Y-67890001D01*
X131587532Y-61059990D02*
X129050001Y-63597521D01*
X133894990Y-61059990D02*
X131587532Y-61059990D01*
X134620000Y-61785000D02*
X133894990Y-61059990D01*
%TO.N,/XTAL1*%
X111440000Y-78230000D02*
X109660000Y-80010000D01*
X111440000Y-76200000D02*
X111440000Y-78230000D01*
X114050000Y-78230000D02*
X111440000Y-78230000D01*
X114080000Y-78200000D02*
X114050000Y-78230000D01*
X115130000Y-78200000D02*
X114080000Y-78200000D01*
%TO.N,/XTAL2*%
X103190000Y-77980000D02*
X101160000Y-80010000D01*
X103190000Y-76200000D02*
X103190000Y-77980000D01*
X112794999Y-81335001D02*
X115130000Y-79000000D01*
X102485001Y-81335001D02*
X112794999Y-81335001D01*
X101160000Y-80010000D02*
X102485001Y-81335001D01*
%TO.N,+5V*%
X81725000Y-83820000D02*
X81725000Y-81280000D01*
X81725000Y-79185000D02*
X81280000Y-78740000D01*
X81725000Y-81280000D02*
X81725000Y-79185000D01*
X88900000Y-79512478D02*
X88900000Y-78740000D01*
X83792468Y-84620010D02*
X88900000Y-79512478D01*
X82525010Y-84620010D02*
X83792468Y-84620010D01*
X81725000Y-83820000D02*
X82525010Y-84620010D01*
X89220000Y-79060000D02*
X88900000Y-78740000D01*
X93980000Y-79060000D02*
X89220000Y-79060000D01*
X116840000Y-96520000D02*
X110490000Y-96520000D01*
X116840000Y-96520000D02*
X116840000Y-88900000D01*
X116790002Y-78200000D02*
X115990002Y-77400000D01*
X123630000Y-78200000D02*
X118015000Y-78200000D01*
X115990002Y-77400000D02*
X115130000Y-77400000D01*
X116255001Y-77135001D02*
X115990002Y-77400000D01*
X116255001Y-76064999D02*
X116255001Y-77135001D01*
X115990002Y-75800000D02*
X116255001Y-76064999D01*
X115130000Y-75800000D02*
X115990002Y-75800000D01*
X81725000Y-86543190D02*
X81725000Y-83820000D01*
X93121820Y-97940010D02*
X81725000Y-86543190D01*
X109069990Y-97940010D02*
X93121820Y-97940010D01*
X110490000Y-96520000D02*
X109069990Y-97940010D01*
X118260010Y-87479990D02*
X116840000Y-88900000D01*
X120166420Y-87479990D02*
X118260010Y-87479990D01*
X129334999Y-78311411D02*
X120166420Y-87479990D01*
X129334999Y-74310001D02*
X129334999Y-78311411D01*
X129985000Y-73660000D02*
X129334999Y-74310001D01*
X132080000Y-61785000D02*
X132080000Y-62230000D01*
X132080000Y-62230000D02*
X130810000Y-63500000D01*
X130810000Y-63500000D02*
X130810000Y-63500000D01*
X118015000Y-78200000D02*
X116790002Y-78200000D01*
X137589591Y-78311411D02*
X139065000Y-76836002D01*
X129334999Y-78311411D02*
X137589591Y-78311411D01*
X139065000Y-76836002D02*
X139065000Y-69850000D01*
X139065000Y-69850000D02*
X139065000Y-69850000D01*
%TO.N,Net-(D1-Pad2)*%
X132080000Y-57937500D02*
X132080000Y-60135000D01*
%TO.N,Net-(D2-Pad2)*%
X134620000Y-57937500D02*
X134620000Y-60135000D01*
%TO.N,Net-(D3-Pad1)*%
X98800000Y-63890000D02*
X105410000Y-57280000D01*
X95250000Y-63890000D02*
X98800000Y-63890000D01*
X108660000Y-60530000D02*
X105410000Y-57280000D01*
X114875000Y-60530000D02*
X108660000Y-60530000D01*
%TO.N,/SCL*%
X84100010Y-76480010D02*
X81280000Y-73660000D01*
X84100010Y-83094990D02*
X84100010Y-76480010D01*
X83375000Y-83820000D02*
X84100010Y-83094990D01*
X88900000Y-73660000D02*
X81280000Y-73660000D01*
%TO.N,/SDA*%
X81280000Y-76461810D02*
X81280000Y-76200000D01*
X83375000Y-78556810D02*
X81280000Y-76461810D01*
X83375000Y-81280000D02*
X83375000Y-78556810D01*
%TO.N,/MISO*%
X131260011Y-68129989D02*
X133350000Y-66040000D01*
X131260011Y-70531101D02*
X131260011Y-68129989D01*
X125923590Y-80450000D02*
X126549989Y-79823601D01*
X122180000Y-80450000D02*
X125923590Y-80450000D01*
X126549989Y-79823601D02*
X126549989Y-75241122D01*
X126549989Y-75241122D02*
X131260011Y-70531101D01*
%TO.N,/SCK*%
X134525001Y-64929999D02*
X134525001Y-67404999D01*
X134460001Y-64864999D02*
X134525001Y-64929999D01*
X132239999Y-64864999D02*
X134460001Y-64864999D01*
X124680000Y-79000000D02*
X126099978Y-77580022D01*
X126099978Y-77580022D02*
X126099978Y-75054722D01*
X126099978Y-75054722D02*
X130810000Y-70344702D01*
X123630000Y-79000000D02*
X124680000Y-79000000D01*
X130810000Y-70344702D02*
X130810000Y-66294998D01*
X134525001Y-67404999D02*
X133350000Y-68580000D01*
X130810000Y-66294998D02*
X132239999Y-64864999D01*
%TO.N,/MOSI*%
X132672521Y-69755001D02*
X134714999Y-69755001D01*
X121455001Y-81575001D02*
X125434999Y-81575001D01*
X127000000Y-80010000D02*
X127000000Y-75427522D01*
X134714999Y-69755001D02*
X135890000Y-68580000D01*
X127000000Y-75427522D02*
X132672521Y-69755001D01*
X125434999Y-81575001D02*
X127000000Y-80010000D01*
X121380000Y-80450000D02*
X121380000Y-81500000D01*
X121380000Y-81500000D02*
X121455001Y-81575001D01*
%TO.N,/RST*%
X131635000Y-72835000D02*
X131635000Y-73660000D01*
X133350000Y-71120000D02*
X131635000Y-72835000D01*
X131635000Y-75805000D02*
X130660000Y-76780000D01*
X131635000Y-73660000D02*
X131635000Y-75805000D01*
X137160000Y-76780000D02*
X130660000Y-76780000D01*
X118980000Y-71089998D02*
X121489998Y-68580000D01*
X118980000Y-71950000D02*
X118980000Y-71089998D01*
X133986410Y-71120000D02*
X133350000Y-71120000D01*
X135256410Y-69850000D02*
X133986410Y-71120000D01*
X136359002Y-69850000D02*
X135256410Y-69850000D01*
X137065001Y-69144001D02*
X136359002Y-69850000D01*
X137065001Y-65475999D02*
X137065001Y-69144001D01*
X136003991Y-64414989D02*
X137065001Y-65475999D01*
X130359991Y-66108597D02*
X132053599Y-64414989D01*
X132053599Y-64414989D02*
X136003991Y-64414989D01*
X129540000Y-68580000D02*
X130359990Y-67760010D01*
X130359990Y-67760010D02*
X130359991Y-66108597D01*
X121489998Y-68580000D02*
X129540000Y-68580000D01*
%TO.N,/SERVO0*%
X102870000Y-88900000D02*
X102870000Y-86360000D01*
X102870000Y-86360000D02*
X105410000Y-83820000D01*
X116580000Y-81540000D02*
X116580000Y-80450000D01*
X114300000Y-83820000D02*
X116580000Y-81540000D01*
X105410000Y-83820000D02*
X114300000Y-83820000D01*
%TO.N,/US0*%
X121920000Y-88900000D02*
X119380000Y-88900000D01*
X123630000Y-74200000D02*
X125190000Y-74200000D01*
X125190000Y-74200000D02*
X125730000Y-73660000D01*
X125730000Y-73660000D02*
X125730000Y-73660000D01*
%TO.N,/SERVO1*%
X99060000Y-96520000D02*
X104140000Y-91440000D01*
X104140000Y-91440000D02*
X104140000Y-87630000D01*
X104140000Y-87630000D02*
X106680000Y-85090000D01*
X120580000Y-81500000D02*
X120580000Y-80450000D01*
X116990000Y-85090000D02*
X120580000Y-81500000D01*
X106680000Y-85090000D02*
X116990000Y-85090000D01*
%TO.N,/US1*%
X121920000Y-96520000D02*
X119380000Y-96520000D01*
X124200000Y-73400000D02*
X126480000Y-71120000D01*
X123630000Y-73400000D02*
X124200000Y-73400000D01*
X126480000Y-71120000D02*
X126480000Y-71120000D01*
%TO.N,/US2*%
X110490000Y-93980000D02*
X110490000Y-91440000D01*
X122180000Y-71380000D02*
X123710000Y-69850000D01*
X122180000Y-71950000D02*
X122180000Y-71380000D01*
X123710000Y-69850000D02*
X124460000Y-69850000D01*
X124460000Y-69850000D02*
X124460000Y-69850000D01*
%TO.N,/SERVO2*%
X114560000Y-73400000D02*
X113550000Y-72390000D01*
X115130000Y-73400000D02*
X114560000Y-73400000D01*
X113550000Y-72390000D02*
X110490000Y-72390000D01*
X110490000Y-72390000D02*
X110490000Y-72390000D01*
%TD*%
M02*
