%TF.GenerationSoftware,KiCad,Pcbnew,6.0.11+dfsg-1~bpo11+1*%
%TF.CreationDate,2023-07-11T21:35:55+02:00*%
%TF.ProjectId,main_board,6d61696e-5f62-46f6-9172-642e6b696361,rev?*%
%TF.SameCoordinates,PX3b1adc0PY158f0b0*%
%TF.FileFunction,Copper,L1,Top*%
%TF.FilePolarity,Positive*%
%FSLAX46Y46*%
G04 Gerber Fmt 4.6, Leading zero omitted, Abs format (unit mm)*
G04 Created by KiCad (PCBNEW 6.0.11+dfsg-1~bpo11+1) date 2023-07-11 21:35:55*
%MOMM*%
%LPD*%
G01*
G04 APERTURE LIST*
G04 Aperture macros list*
%AMRoundRect*
0 Rectangle with rounded corners*
0 $1 Rounding radius*
0 $2 $3 $4 $5 $6 $7 $8 $9 X,Y pos of 4 corners*
0 Add a 4 corners polygon primitive as box body*
4,1,4,$2,$3,$4,$5,$6,$7,$8,$9,$2,$3,0*
0 Add four circle primitives for the rounded corners*
1,1,$1+$1,$2,$3*
1,1,$1+$1,$4,$5*
1,1,$1+$1,$6,$7*
1,1,$1+$1,$8,$9*
0 Add four rect primitives between the rounded corners*
20,1,$1+$1,$2,$3,$4,$5,0*
20,1,$1+$1,$4,$5,$6,$7,0*
20,1,$1+$1,$6,$7,$8,$9,0*
20,1,$1+$1,$8,$9,$2,$3,0*%
G04 Aperture macros list end*
%TA.AperFunction,SMDPad,CuDef*%
%ADD10RoundRect,0.250000X0.312500X0.625000X-0.312500X0.625000X-0.312500X-0.625000X0.312500X-0.625000X0*%
%TD*%
%TA.AperFunction,SMDPad,CuDef*%
%ADD11R,2.500000X1.800000*%
%TD*%
%TA.AperFunction,ComponentPad*%
%ADD12RoundRect,0.250000X-0.620000X-0.845000X0.620000X-0.845000X0.620000X0.845000X-0.620000X0.845000X0*%
%TD*%
%TA.AperFunction,ComponentPad*%
%ADD13O,1.740000X2.190000*%
%TD*%
%TA.AperFunction,ComponentPad*%
%ADD14R,2.000000X2.000000*%
%TD*%
%TA.AperFunction,ComponentPad*%
%ADD15C,2.000000*%
%TD*%
%TA.AperFunction,SMDPad,CuDef*%
%ADD16RoundRect,0.250000X0.250000X0.475000X-0.250000X0.475000X-0.250000X-0.475000X0.250000X-0.475000X0*%
%TD*%
%TA.AperFunction,SMDPad,CuDef*%
%ADD17RoundRect,0.200000X0.200000X0.275000X-0.200000X0.275000X-0.200000X-0.275000X0.200000X-0.275000X0*%
%TD*%
%TA.AperFunction,ComponentPad*%
%ADD18R,3.500000X3.500000*%
%TD*%
%TA.AperFunction,ComponentPad*%
%ADD19RoundRect,0.750000X-0.750000X-1.000000X0.750000X-1.000000X0.750000X1.000000X-0.750000X1.000000X0*%
%TD*%
%TA.AperFunction,ComponentPad*%
%ADD20RoundRect,0.875000X-0.875000X-0.875000X0.875000X-0.875000X0.875000X0.875000X-0.875000X0.875000X0*%
%TD*%
%TA.AperFunction,SMDPad,CuDef*%
%ADD21RoundRect,0.250000X-1.450000X0.312500X-1.450000X-0.312500X1.450000X-0.312500X1.450000X0.312500X0*%
%TD*%
%TA.AperFunction,SMDPad,CuDef*%
%ADD22RoundRect,0.218750X-0.381250X0.218750X-0.381250X-0.218750X0.381250X-0.218750X0.381250X0.218750X0*%
%TD*%
%TA.AperFunction,SMDPad,CuDef*%
%ADD23RoundRect,0.200000X-0.200000X-0.275000X0.200000X-0.275000X0.200000X0.275000X-0.200000X0.275000X0*%
%TD*%
%TA.AperFunction,SMDPad,CuDef*%
%ADD24RoundRect,0.218750X-0.256250X0.218750X-0.256250X-0.218750X0.256250X-0.218750X0.256250X0.218750X0*%
%TD*%
%TA.AperFunction,SMDPad,CuDef*%
%ADD25RoundRect,0.150000X0.512500X0.150000X-0.512500X0.150000X-0.512500X-0.150000X0.512500X-0.150000X0*%
%TD*%
%TA.AperFunction,SMDPad,CuDef*%
%ADD26RoundRect,0.200000X-0.275000X0.200000X-0.275000X-0.200000X0.275000X-0.200000X0.275000X0.200000X0*%
%TD*%
%TA.AperFunction,ComponentPad*%
%ADD27C,2.340000*%
%TD*%
%TA.AperFunction,SMDPad,CuDef*%
%ADD28RoundRect,0.150000X0.587500X0.150000X-0.587500X0.150000X-0.587500X-0.150000X0.587500X-0.150000X0*%
%TD*%
%TA.AperFunction,SMDPad,CuDef*%
%ADD29R,1.400000X1.300000*%
%TD*%
%TA.AperFunction,SMDPad,CuDef*%
%ADD30RoundRect,0.150000X0.150000X-0.512500X0.150000X0.512500X-0.150000X0.512500X-0.150000X-0.512500X0*%
%TD*%
%TA.AperFunction,SMDPad,CuDef*%
%ADD31R,1.500000X2.000000*%
%TD*%
%TA.AperFunction,SMDPad,CuDef*%
%ADD32R,3.800000X2.000000*%
%TD*%
%TA.AperFunction,SMDPad,CuDef*%
%ADD33RoundRect,0.250000X-0.475000X0.250000X-0.475000X-0.250000X0.475000X-0.250000X0.475000X0.250000X0*%
%TD*%
%TA.AperFunction,SMDPad,CuDef*%
%ADD34RoundRect,0.150000X0.150000X-0.825000X0.150000X0.825000X-0.150000X0.825000X-0.150000X-0.825000X0*%
%TD*%
%TA.AperFunction,SMDPad,CuDef*%
%ADD35R,0.800000X0.300000*%
%TD*%
%TA.AperFunction,SMDPad,CuDef*%
%ADD36RoundRect,0.150000X-0.512500X-0.150000X0.512500X-0.150000X0.512500X0.150000X-0.512500X0.150000X0*%
%TD*%
%TA.AperFunction,ComponentPad*%
%ADD37R,1.600000X1.600000*%
%TD*%
%TA.AperFunction,ComponentPad*%
%ADD38C,1.600000*%
%TD*%
%TA.AperFunction,SMDPad,CuDef*%
%ADD39RoundRect,0.250000X0.475000X-0.250000X0.475000X0.250000X-0.475000X0.250000X-0.475000X-0.250000X0*%
%TD*%
%TA.AperFunction,SMDPad,CuDef*%
%ADD40RoundRect,0.150000X-0.587500X-0.150000X0.587500X-0.150000X0.587500X0.150000X-0.587500X0.150000X0*%
%TD*%
%TA.AperFunction,SMDPad,CuDef*%
%ADD41RoundRect,0.250000X0.625000X-0.312500X0.625000X0.312500X-0.625000X0.312500X-0.625000X-0.312500X0*%
%TD*%
%TA.AperFunction,SMDPad,CuDef*%
%ADD42R,1.500000X0.900000*%
%TD*%
%TA.AperFunction,SMDPad,CuDef*%
%ADD43R,0.900000X1.500000*%
%TD*%
%TA.AperFunction,HeatsinkPad*%
%ADD44C,0.475000*%
%TD*%
%TA.AperFunction,SMDPad,CuDef*%
%ADD45R,1.050000X1.050000*%
%TD*%
%TA.AperFunction,SMDPad,CuDef*%
%ADD46R,4.200000X4.200000*%
%TD*%
%TA.AperFunction,SMDPad,CuDef*%
%ADD47RoundRect,0.200000X0.275000X-0.200000X0.275000X0.200000X-0.275000X0.200000X-0.275000X-0.200000X0*%
%TD*%
%TA.AperFunction,SMDPad,CuDef*%
%ADD48RoundRect,0.062500X0.062500X-0.337500X0.062500X0.337500X-0.062500X0.337500X-0.062500X-0.337500X0*%
%TD*%
%TA.AperFunction,SMDPad,CuDef*%
%ADD49RoundRect,0.062500X0.337500X-0.062500X0.337500X0.062500X-0.337500X0.062500X-0.337500X-0.062500X0*%
%TD*%
%TA.AperFunction,SMDPad,CuDef*%
%ADD50R,3.350000X3.350000*%
%TD*%
%TA.AperFunction,SMDPad,CuDef*%
%ADD51R,1.300000X1.400000*%
%TD*%
%TA.AperFunction,SMDPad,CuDef*%
%ADD52R,4.600000X1.100000*%
%TD*%
%TA.AperFunction,SMDPad,CuDef*%
%ADD53R,9.400000X10.800000*%
%TD*%
%TA.AperFunction,SMDPad,CuDef*%
%ADD54R,5.400000X2.900000*%
%TD*%
%TA.AperFunction,ComponentPad*%
%ADD55RoundRect,0.250000X0.845000X-0.620000X0.845000X0.620000X-0.845000X0.620000X-0.845000X-0.620000X0*%
%TD*%
%TA.AperFunction,ComponentPad*%
%ADD56O,2.190000X1.740000*%
%TD*%
%TA.AperFunction,ComponentPad*%
%ADD57R,3.200000X2.000000*%
%TD*%
%TA.AperFunction,ComponentPad*%
%ADD58C,6.500000*%
%TD*%
%TA.AperFunction,ComponentPad*%
%ADD59R,1.500000X3.000000*%
%TD*%
%TA.AperFunction,ComponentPad*%
%ADD60O,1.500000X3.000000*%
%TD*%
%TA.AperFunction,ComponentPad*%
%ADD61R,1.400000X1.400000*%
%TD*%
%TA.AperFunction,ComponentPad*%
%ADD62C,1.400000*%
%TD*%
%TA.AperFunction,ComponentPad*%
%ADD63C,3.000000*%
%TD*%
%TA.AperFunction,ViaPad*%
%ADD64C,0.800000*%
%TD*%
%TA.AperFunction,Conductor*%
%ADD65C,0.250000*%
%TD*%
G04 APERTURE END LIST*
D10*
%TO.P,R1,1*%
%TO.N,Net-(R1-Pad1)*%
X41848500Y-2540000D03*
%TO.P,R1,2*%
%TO.N,+5V*%
X38923500Y-2540000D03*
%TD*%
D11*
%TO.P,D203,1,K*%
%TO.N,Net-(D203-Pad1)*%
X4794000Y-31750000D03*
%TO.P,D203,2,A*%
%TO.N,GND*%
X794000Y-31750000D03*
%TD*%
D12*
%TO.P,J3,1,Pin_1*%
%TO.N,GND*%
X37846000Y-48026000D03*
D13*
%TO.P,J3,2,Pin_2*%
%TO.N,/TRIG_BTN*%
X40386000Y-48026000D03*
%TD*%
D12*
%TO.P,J7,1,Pin_1*%
%TO.N,+5V*%
X71120000Y-7112000D03*
D13*
%TO.P,J7,2,Pin_2*%
%TO.N,Net-(J7-Pad2)*%
X73660000Y-7112000D03*
%TO.P,J7,3,Pin_3*%
%TO.N,Net-(J7-Pad3)*%
X76200000Y-7112000D03*
%TO.P,J7,4,Pin_4*%
%TO.N,GND*%
X78740000Y-7112000D03*
%TD*%
D14*
%TO.P,C202,1*%
%TO.N,+12V*%
X3759354Y-24638000D03*
D15*
%TO.P,C202,2*%
%TO.N,GND*%
X-1240646Y-24638000D03*
%TD*%
D16*
%TO.P,C203,1*%
%TO.N,+12V*%
X5776000Y-18288000D03*
%TO.P,C203,2*%
%TO.N,GND*%
X3876000Y-18288000D03*
%TD*%
D17*
%TO.P,R9,1*%
%TO.N,/INPUT_A*%
X22161000Y-44958000D03*
%TO.P,R9,2*%
%TO.N,Net-(R12-Pad2)*%
X20511000Y-44958000D03*
%TD*%
D18*
%TO.P,J1,1,Pin_1*%
%TO.N,/Power supply/12V_in*%
X6508000Y-10218500D03*
D19*
%TO.P,J1,2,Pin_2*%
%TO.N,GND*%
X508000Y-10218500D03*
D20*
%TO.P,J1,3*%
%TO.N,N/C*%
X3508000Y-14918500D03*
%TD*%
D21*
%TO.P,F201,1*%
%TO.N,Net-(D201-Pad1)*%
X12446000Y-12721500D03*
%TO.P,F201,2*%
%TO.N,Net-(C201-Pad1)*%
X12446000Y-16996500D03*
%TD*%
D15*
%TO.P,SW301,1*%
%TO.N,/BOOT*%
X59944000Y-21336000D03*
X66444000Y-21336000D03*
%TO.P,SW301,2*%
%TO.N,GND*%
X59944000Y-25836000D03*
X66444000Y-25836000D03*
%TD*%
D17*
%TO.P,R307,1*%
%TO.N,Net-(U302-Pad24)*%
X64452000Y-29591000D03*
%TO.P,R307,2*%
%TO.N,Net-(Q302-Pad2)*%
X62802000Y-29591000D03*
%TD*%
D22*
%TO.P,FB201,1*%
%TO.N,Net-(C201-Pad1)*%
X7620000Y-16463500D03*
%TO.P,FB201,2*%
%TO.N,+12V*%
X7620000Y-18588500D03*
%TD*%
D23*
%TO.P,R6,1*%
%TO.N,+5V*%
X85281000Y-13970000D03*
%TO.P,R6,2*%
%TO.N,Net-(R6-Pad2)*%
X86931000Y-13970000D03*
%TD*%
D24*
%TO.P,D205,1,K*%
%TO.N,GND*%
X39370000Y-6324500D03*
%TO.P,D205,2,A*%
%TO.N,Net-(D205-Pad2)*%
X39370000Y-7899500D03*
%TD*%
D12*
%TO.P,J9,1,Pin_1*%
%TO.N,+5V*%
X82804000Y-7112000D03*
D13*
%TO.P,J9,2,Pin_2*%
%TO.N,Net-(J10-Pad2)*%
X85344000Y-7112000D03*
%TO.P,J9,3,Pin_3*%
%TO.N,Net-(J10-Pad3)*%
X87884000Y-7112000D03*
%TO.P,J9,4,Pin_4*%
%TO.N,GND*%
X90424000Y-7112000D03*
%TD*%
D25*
%TO.P,U11,1,IO1*%
%TO.N,Net-(J10-Pad2)*%
X82417500Y-13650000D03*
%TO.P,U11,2,VN*%
%TO.N,GND*%
X82417500Y-12700000D03*
%TO.P,U11,3,IO2*%
%TO.N,Net-(J10-Pad3)*%
X82417500Y-11750000D03*
%TO.P,U11,4,IO3*%
%TO.N,Net-(J7-Pad3)*%
X80142500Y-11750000D03*
%TO.P,U11,5,VP*%
%TO.N,+5V*%
X80142500Y-12700000D03*
%TO.P,U11,6,IO4*%
%TO.N,Net-(J7-Pad2)*%
X80142500Y-13650000D03*
%TD*%
D26*
%TO.P,R301,1*%
%TO.N,Net-(R301-Pad1)*%
X70358000Y-36513000D03*
%TO.P,R301,2*%
%TO.N,GND*%
X70358000Y-38163000D03*
%TD*%
D27*
%TO.P,RV1,1,1*%
%TO.N,GND*%
X57872000Y-573000D03*
%TO.P,RV1,2,2*%
%TO.N,Net-(RV1-Pad2)*%
X52872000Y-3073000D03*
%TO.P,RV1,3,3*%
%TO.N,+5V*%
X57872000Y-5573000D03*
%TD*%
D28*
%TO.P,Q301,1,B*%
%TO.N,Net-(Q301-Pad1)*%
X57579500Y-34732000D03*
%TO.P,Q301,2,E*%
%TO.N,Net-(Q301-Pad2)*%
X57579500Y-32832000D03*
%TO.P,Q301,3,C*%
%TO.N,/BOOT*%
X55704500Y-33782000D03*
%TD*%
D29*
%TO.P,D206,1,A1*%
%TO.N,+3V3*%
X31496000Y-33708000D03*
%TO.P,D206,2,A2*%
%TO.N,GND*%
X31496000Y-30808000D03*
%TD*%
D12*
%TO.P,J4,1,Pin_1*%
%TO.N,GND*%
X44704000Y-48026000D03*
D13*
%TO.P,J4,2,Pin_2*%
%TO.N,/SIDE_BTN*%
X47244000Y-48026000D03*
%TD*%
D23*
%TO.P,R304,1*%
%TO.N,Net-(Q301-Pad2)*%
X59373000Y-32766000D03*
%TO.P,R304,2*%
%TO.N,Net-(Q302-Pad1)*%
X61023000Y-32766000D03*
%TD*%
D26*
%TO.P,R12,1*%
%TO.N,+3V3*%
X18034000Y-42101000D03*
%TO.P,R12,2*%
%TO.N,Net-(R12-Pad2)*%
X18034000Y-43751000D03*
%TD*%
D16*
%TO.P,C12,1*%
%TO.N,/INPUT_A*%
X22286000Y-46736000D03*
%TO.P,C12,2*%
%TO.N,GND*%
X20386000Y-46736000D03*
%TD*%
D30*
%TO.P,U9,1,IO1*%
%TO.N,/TRIG_BTN*%
X41976000Y-43047500D03*
%TO.P,U9,2,VN*%
%TO.N,GND*%
X42926000Y-43047500D03*
%TO.P,U9,3,IO2*%
%TO.N,/SIDE_BTN*%
X43876000Y-43047500D03*
%TO.P,U9,4,IO3*%
%TO.N,/UART_MISO*%
X43876000Y-40772500D03*
%TO.P,U9,5,VP*%
%TO.N,+3V3*%
X42926000Y-40772500D03*
%TO.P,U9,6,IO4*%
%TO.N,/UART_MOSI*%
X41976000Y-40772500D03*
%TD*%
D31*
%TO.P,U202,1,GND*%
%TO.N,GND*%
X28970000Y-30886000D03*
%TO.P,U202,2,VO*%
%TO.N,+3V3*%
X26670000Y-30886000D03*
D32*
X26670000Y-37186000D03*
D31*
%TO.P,U202,3,VI*%
%TO.N,+5V*%
X24370000Y-30886000D03*
%TD*%
D23*
%TO.P,R5,1*%
%TO.N,+5V*%
X71565000Y-13970000D03*
%TO.P,R5,2*%
%TO.N,Net-(R5-Pad2)*%
X73215000Y-13970000D03*
%TD*%
D33*
%TO.P,C4,1*%
%TO.N,+3V3*%
X106680000Y-37912000D03*
%TO.P,C4,2*%
%TO.N,GND*%
X106680000Y-39812000D03*
%TD*%
D24*
%TO.P,D204,1,K*%
%TO.N,GND*%
X33528000Y-6324500D03*
%TO.P,D204,2,A*%
%TO.N,Net-(D204-Pad2)*%
X33528000Y-7899500D03*
%TD*%
D34*
%TO.P,U8,1,RO*%
%TO.N,/UART2_RX*%
X105537000Y-10095000D03*
%TO.P,U8,2,~{RE}*%
%TO.N,/RS485_TXE*%
X106807000Y-10095000D03*
%TO.P,U8,3,DE*%
X108077000Y-10095000D03*
%TO.P,U8,4,DI*%
%TO.N,/UART2_TX*%
X109347000Y-10095000D03*
%TO.P,U8,5,GND*%
%TO.N,GND*%
X109347000Y-5145000D03*
%TO.P,U8,6,A*%
%TO.N,Net-(D8-Pad2)*%
X108077000Y-5145000D03*
%TO.P,U8,7,B*%
%TO.N,Net-(D8-Pad1)*%
X106807000Y-5145000D03*
%TO.P,U8,8,VCC*%
%TO.N,+5V*%
X105537000Y-5145000D03*
%TD*%
D17*
%TO.P,R13,1*%
%TO.N,+3V3*%
X6921000Y-49022000D03*
%TO.P,R13,2*%
%TO.N,Net-(R13-Pad2)*%
X5271000Y-49022000D03*
%TD*%
D23*
%TO.P,R303,1*%
%TO.N,Net-(Q302-Pad2)*%
X59373000Y-29210000D03*
%TO.P,R303,2*%
%TO.N,Net-(Q301-Pad1)*%
X61023000Y-29210000D03*
%TD*%
D35*
%TO.P,U4,1,GND*%
%TO.N,GND*%
X76480000Y-12688000D03*
%TO.P,U4,2,VREF1*%
%TO.N,+3V3*%
X76480000Y-12188000D03*
%TO.P,U4,3,SCL1*%
%TO.N,/SCL_PERIPH*%
X76480000Y-11688000D03*
%TO.P,U4,4,SDA1*%
%TO.N,/SDA_PERIPH*%
X76480000Y-11188000D03*
%TO.P,U4,5,SDA2*%
%TO.N,Net-(J7-Pad2)*%
X73380000Y-11188000D03*
%TO.P,U4,6,SCL2*%
%TO.N,Net-(J7-Pad3)*%
X73380000Y-11688000D03*
%TO.P,U4,7,VREF2*%
%TO.N,Net-(R5-Pad2)*%
X73380000Y-12188000D03*
%TO.P,U4,8,EN*%
X73380000Y-12688000D03*
%TD*%
D23*
%TO.P,R14,1*%
%TO.N,Net-(R13-Pad2)*%
X5779000Y-51054000D03*
%TO.P,R14,2*%
%TO.N,/INPUT_SW*%
X7429000Y-51054000D03*
%TD*%
D35*
%TO.P,U5,1,GND*%
%TO.N,GND*%
X90196000Y-12688000D03*
%TO.P,U5,2,VREF1*%
%TO.N,+3V3*%
X90196000Y-12188000D03*
%TO.P,U5,3,SCL1*%
%TO.N,/SCL_MOTOR*%
X90196000Y-11688000D03*
%TO.P,U5,4,SDA1*%
%TO.N,/SDA_MOTOR*%
X90196000Y-11188000D03*
%TO.P,U5,5,SDA2*%
%TO.N,Net-(J10-Pad2)*%
X87096000Y-11188000D03*
%TO.P,U5,6,SCL2*%
%TO.N,Net-(J10-Pad3)*%
X87096000Y-11688000D03*
%TO.P,U5,7,VREF2*%
%TO.N,Net-(R6-Pad2)*%
X87096000Y-12188000D03*
%TO.P,U5,8,EN*%
X87096000Y-12688000D03*
%TD*%
D17*
%TO.P,R308,1*%
%TO.N,Net-(U302-Pad28)*%
X60769000Y-36322000D03*
%TO.P,R308,2*%
%TO.N,Net-(Q301-Pad2)*%
X59119000Y-36322000D03*
%TD*%
D36*
%TO.P,U301,1,IO1*%
%TO.N,Net-(J301-Pad1)*%
X57282500Y-38166000D03*
%TO.P,U301,2,VN*%
%TO.N,GND*%
X57282500Y-39116000D03*
%TO.P,U301,3,IO2*%
%TO.N,unconnected-(U301-Pad3)*%
X57282500Y-40066000D03*
%TO.P,U301,4,IO3*%
%TO.N,Net-(J301-Pad2)*%
X59557500Y-40066000D03*
%TO.P,U301,5,VP*%
%TO.N,Net-(U301-Pad5)*%
X59557500Y-39116000D03*
%TO.P,U301,6,IO4*%
%TO.N,Net-(J301-Pad3)*%
X59557500Y-38166000D03*
%TD*%
D16*
%TO.P,C13,1*%
%TO.N,/INPUT_B*%
X22286000Y-48768000D03*
%TO.P,C13,2*%
%TO.N,GND*%
X20386000Y-48768000D03*
%TD*%
D12*
%TO.P,J10,1,Pin_1*%
%TO.N,+5V*%
X82804000Y-254000D03*
D13*
%TO.P,J10,2,Pin_2*%
%TO.N,Net-(J10-Pad2)*%
X85344000Y-254000D03*
%TO.P,J10,3,Pin_3*%
%TO.N,Net-(J10-Pad3)*%
X87884000Y-254000D03*
%TO.P,J10,4,Pin_4*%
%TO.N,GND*%
X90424000Y-254000D03*
%TD*%
D16*
%TO.P,C301,1*%
%TO.N,+3V3*%
X67752000Y-39497000D03*
%TO.P,C301,2*%
%TO.N,GND*%
X65852000Y-39497000D03*
%TD*%
D12*
%TO.P,J13,1,Pin_1*%
%TO.N,+5V*%
X94488000Y-274000D03*
D13*
%TO.P,J13,2,Pin_2*%
%TO.N,Net-(D8-Pad2)*%
X97028000Y-274000D03*
%TO.P,J13,3,Pin_3*%
%TO.N,Net-(D8-Pad1)*%
X99568000Y-274000D03*
%TO.P,J13,4,Pin_4*%
%TO.N,GND*%
X102108000Y-274000D03*
%TD*%
D11*
%TO.P,D201,1,K*%
%TO.N,Net-(D201-Pad1)*%
X13430000Y-6350000D03*
%TO.P,D201,2,A*%
%TO.N,/Power supply/12V_in*%
X9430000Y-6350000D03*
%TD*%
D17*
%TO.P,R11,1*%
%TO.N,Net-(R10-Pad1)*%
X18097000Y-53340000D03*
%TO.P,R11,2*%
%TO.N,+3V3*%
X16447000Y-53340000D03*
%TD*%
D37*
%TO.P,C204,1*%
%TO.N,+5V*%
X9056380Y-36576000D03*
D38*
%TO.P,C204,2*%
%TO.N,GND*%
X6556380Y-36576000D03*
%TD*%
D39*
%TO.P,C206,1*%
%TO.N,+3V3*%
X33782000Y-32700000D03*
%TO.P,C206,2*%
%TO.N,GND*%
X33782000Y-30800000D03*
%TD*%
D40*
%TO.P,D8,1,K*%
%TO.N,Net-(D8-Pad1)*%
X105996500Y188000D03*
%TO.P,D8,2,K*%
%TO.N,Net-(D8-Pad2)*%
X105996500Y-1712000D03*
%TO.P,D8,3,A*%
%TO.N,GND*%
X107871500Y-762000D03*
%TD*%
D41*
%TO.P,R201,1*%
%TO.N,+5V*%
X33528000Y-12638500D03*
%TO.P,R201,2*%
%TO.N,Net-(D204-Pad2)*%
X33528000Y-9713500D03*
%TD*%
D15*
%TO.P,SW302,1*%
%TO.N,GND*%
X50090000Y-21372000D03*
X56590000Y-21372000D03*
%TO.P,SW302,2*%
%TO.N,/RESET*%
X50090000Y-25872000D03*
X56590000Y-25872000D03*
%TD*%
D39*
%TO.P,C14,1*%
%TO.N,/INPUT_SW*%
X9144000Y-49210000D03*
%TO.P,C14,2*%
%TO.N,GND*%
X9144000Y-47310000D03*
%TD*%
D23*
%TO.P,R305,1*%
%TO.N,+3V3*%
X52261000Y-29210000D03*
%TO.P,R305,2*%
%TO.N,/RESET*%
X53911000Y-29210000D03*
%TD*%
D14*
%TO.P,C201,1*%
%TO.N,Net-(C201-Pad1)*%
X22098000Y-13183217D03*
D15*
%TO.P,C201,2*%
%TO.N,GND*%
X22098000Y-8183217D03*
%TD*%
D42*
%TO.P,U3,1,GND*%
%TO.N,GND*%
X104508000Y-39283000D03*
%TO.P,U3,2,VDD*%
%TO.N,+3V3*%
X104508000Y-38013000D03*
%TO.P,U3,3,EN*%
%TO.N,/RESET*%
X104508000Y-36743000D03*
%TO.P,U3,4,SENSOR_VP*%
%TO.N,unconnected-(U3-Pad4)*%
X104508000Y-35473000D03*
%TO.P,U3,5,SENSOR_VN*%
%TO.N,unconnected-(U3-Pad5)*%
X104508000Y-34203000D03*
%TO.P,U3,6,IO34*%
%TO.N,/INPUT_A*%
X104508000Y-32933000D03*
%TO.P,U3,7,IO35*%
%TO.N,/INPUT_B*%
X104508000Y-31663000D03*
%TO.P,U3,8,IO32*%
%TO.N,/LCD_DB6*%
X104508000Y-30393000D03*
%TO.P,U3,9,IO33*%
%TO.N,/LCD_DB7*%
X104508000Y-29123000D03*
%TO.P,U3,10,IO25*%
%TO.N,/SIDE_BTN*%
X104508000Y-27853000D03*
%TO.P,U3,11,IO26*%
%TO.N,/LCD_DB4*%
X104508000Y-26583000D03*
%TO.P,U3,12,IO27*%
%TO.N,/LCD_DB5*%
X104508000Y-25313000D03*
%TO.P,U3,13,IO14*%
%TO.N,/LCD_RS*%
X104508000Y-24043000D03*
%TO.P,U3,14,IO12*%
%TO.N,unconnected-(U3-Pad14)*%
X104508000Y-22773000D03*
D43*
%TO.P,U3,15,GND*%
%TO.N,GND*%
X101468000Y-21523000D03*
%TO.P,U3,16,IO13*%
%TO.N,/TRIG_BTN*%
X100198000Y-21523000D03*
%TO.P,U3,17,SHD/SD2*%
%TO.N,unconnected-(U3-Pad17)*%
X98928000Y-21523000D03*
%TO.P,U3,18,SWP/SD3*%
%TO.N,unconnected-(U3-Pad18)*%
X97658000Y-21523000D03*
%TO.P,U3,19,SCS/CMD*%
%TO.N,unconnected-(U3-Pad19)*%
X96388000Y-21523000D03*
%TO.P,U3,20,SCK/CLK*%
%TO.N,unconnected-(U3-Pad20)*%
X95118000Y-21523000D03*
%TO.P,U3,21,SDO/SD0*%
%TO.N,unconnected-(U3-Pad21)*%
X93848000Y-21523000D03*
%TO.P,U3,22,SDI/SD1*%
%TO.N,unconnected-(U3-Pad22)*%
X92578000Y-21523000D03*
%TO.P,U3,23,IO15*%
%TO.N,unconnected-(U3-Pad23)*%
X91308000Y-21523000D03*
%TO.P,U3,24,IO2*%
%TO.N,Net-(R4-Pad1)*%
X90038000Y-21523000D03*
D42*
%TO.P,U3,25,IO0*%
%TO.N,/BOOT*%
X87008000Y-22773000D03*
%TO.P,U3,26,IO4*%
%TO.N,/RS485_TXE*%
X87008000Y-24043000D03*
%TO.P,U3,27,IO16*%
%TO.N,/SDA_PERIPH*%
X87008000Y-25313000D03*
%TO.P,U3,28,IO17*%
%TO.N,/SCL_PERIPH*%
X87008000Y-26583000D03*
%TO.P,U3,29,IO5*%
%TO.N,/INPUT_SW*%
X87008000Y-27853000D03*
%TO.P,U3,30,IO18*%
%TO.N,/SDA_MOTOR*%
X87008000Y-29123000D03*
%TO.P,U3,31,IO19*%
%TO.N,/SCL_MOTOR*%
X87008000Y-30393000D03*
%TO.P,U3,32,NC*%
%TO.N,unconnected-(U3-Pad32)*%
X87008000Y-31663000D03*
%TO.P,U3,33,IO21*%
%TO.N,/UART2_RX*%
X87008000Y-32933000D03*
%TO.P,U3,34,RXD0/IO3*%
%TO.N,/UART_MOSI*%
X87008000Y-34203000D03*
%TO.P,U3,35,TXD0/IO1*%
%TO.N,/UART_MISO*%
X87008000Y-35473000D03*
%TO.P,U3,36,IO22*%
%TO.N,/UART2_TX*%
X87008000Y-36743000D03*
%TO.P,U3,37,IO23*%
%TO.N,/LCD_E*%
X87008000Y-38013000D03*
%TO.P,U3,38,GND*%
%TO.N,GND*%
X87008000Y-39283000D03*
D44*
%TO.P,U3,39,GND*%
X94913000Y-32705500D03*
D45*
X96438000Y-31943000D03*
X94913000Y-31943000D03*
X96438000Y-30418000D03*
D44*
X95675500Y-33468000D03*
X95675500Y-30418000D03*
X95675500Y-31943000D03*
D45*
X97963000Y-33468000D03*
D44*
X97200500Y-33468000D03*
D46*
X96438000Y-31943000D03*
D45*
X94913000Y-33468000D03*
X97963000Y-31943000D03*
D44*
X97200500Y-31943000D03*
D45*
X97963000Y-30418000D03*
X94913000Y-30418000D03*
D44*
X96438000Y-31180500D03*
D45*
X96438000Y-33468000D03*
D44*
X97963000Y-31180500D03*
X96438000Y-32705500D03*
X97200500Y-30418000D03*
X94913000Y-31180500D03*
X97963000Y-32705500D03*
%TD*%
D28*
%TO.P,Q302,1,B*%
%TO.N,Net-(Q302-Pad1)*%
X57579500Y-31176000D03*
%TO.P,Q302,2,E*%
%TO.N,Net-(Q302-Pad2)*%
X57579500Y-29276000D03*
%TO.P,Q302,3,C*%
%TO.N,/RESET*%
X55704500Y-30226000D03*
%TD*%
D47*
%TO.P,R306,1*%
%TO.N,+5V*%
X61468000Y-40703000D03*
%TO.P,R306,2*%
%TO.N,Net-(U301-Pad5)*%
X61468000Y-39053000D03*
%TD*%
D41*
%TO.P,R202,1*%
%TO.N,+3V3*%
X39370000Y-12638500D03*
%TO.P,R202,2*%
%TO.N,Net-(D205-Pad2)*%
X39370000Y-9713500D03*
%TD*%
D48*
%TO.P,U302,1,~{DCD}*%
%TO.N,unconnected-(U302-Pad1)*%
X64794000Y-37248000D03*
%TO.P,U302,2,~{RI}/CLK*%
%TO.N,unconnected-(U302-Pad2)*%
X65294000Y-37248000D03*
%TO.P,U302,3,GND*%
%TO.N,GND*%
X65794000Y-37248000D03*
%TO.P,U302,4,D+*%
%TO.N,Net-(J301-Pad3)*%
X66294000Y-37248000D03*
%TO.P,U302,5,D-*%
%TO.N,Net-(J301-Pad2)*%
X66794000Y-37248000D03*
%TO.P,U302,6,VDD*%
%TO.N,+3V3*%
X67294000Y-37248000D03*
%TO.P,U302,7,VREGIN*%
X67794000Y-37248000D03*
D49*
%TO.P,U302,8,VBUS*%
%TO.N,Net-(R301-Pad1)*%
X68744000Y-36298000D03*
%TO.P,U302,9,~{RST}*%
%TO.N,unconnected-(U302-Pad9)*%
X68744000Y-35798000D03*
%TO.P,U302,10,NC*%
%TO.N,unconnected-(U302-Pad10)*%
X68744000Y-35298000D03*
%TO.P,U302,11,~{SUSPEND}*%
%TO.N,unconnected-(U302-Pad11)*%
X68744000Y-34798000D03*
%TO.P,U302,12,SUSPEND*%
%TO.N,unconnected-(U302-Pad12)*%
X68744000Y-34298000D03*
%TO.P,U302,13,CHREN*%
%TO.N,unconnected-(U302-Pad13)*%
X68744000Y-33798000D03*
%TO.P,U302,14,CHR1*%
%TO.N,unconnected-(U302-Pad14)*%
X68744000Y-33298000D03*
D48*
%TO.P,U302,15,CHR0*%
%TO.N,unconnected-(U302-Pad15)*%
X67794000Y-32348000D03*
%TO.P,U302,16,~{WAKEUP}/GPIO.3*%
%TO.N,unconnected-(U302-Pad16)*%
X67294000Y-32348000D03*
%TO.P,U302,17,RS485/GPIO.2*%
%TO.N,unconnected-(U302-Pad17)*%
X66794000Y-32348000D03*
%TO.P,U302,18,~{RXT}/GPIO.1*%
%TO.N,unconnected-(U302-Pad18)*%
X66294000Y-32348000D03*
%TO.P,U302,19,~{TXT}/GPIO.0*%
%TO.N,unconnected-(U302-Pad19)*%
X65794000Y-32348000D03*
%TO.P,U302,20,GPIO.6*%
%TO.N,unconnected-(U302-Pad20)*%
X65294000Y-32348000D03*
%TO.P,U302,21,GPIO.5*%
%TO.N,unconnected-(U302-Pad21)*%
X64794000Y-32348000D03*
D49*
%TO.P,U302,22,GPIO.4*%
%TO.N,unconnected-(U302-Pad22)*%
X63844000Y-33298000D03*
%TO.P,U302,23,~{CTS}*%
%TO.N,unconnected-(U302-Pad23)*%
X63844000Y-33798000D03*
%TO.P,U302,24,~{RTS}*%
%TO.N,Net-(U302-Pad24)*%
X63844000Y-34298000D03*
%TO.P,U302,25,RXD*%
%TO.N,/UART_MOSI*%
X63844000Y-34798000D03*
%TO.P,U302,26,TXD*%
%TO.N,/UART_MISO*%
X63844000Y-35298000D03*
%TO.P,U302,27,~{DSR}*%
%TO.N,unconnected-(U302-Pad27)*%
X63844000Y-35798000D03*
%TO.P,U302,28,~{DTR}*%
%TO.N,Net-(U302-Pad28)*%
X63844000Y-36298000D03*
D50*
%TO.P,U302,29,GND*%
%TO.N,GND*%
X66294000Y-34798000D03*
%TD*%
D51*
%TO.P,D202,1,A1*%
%TO.N,Net-(D201-Pad1)*%
X12012000Y-9706000D03*
%TO.P,D202,2,A2*%
%TO.N,GND*%
X14912000Y-9706000D03*
%TD*%
D24*
%TO.P,D4,1,K*%
%TO.N,GND*%
X44958000Y-6324500D03*
%TO.P,D4,2,A*%
%TO.N,Net-(D4-Pad2)*%
X44958000Y-7899500D03*
%TD*%
D37*
%TO.P,C205,1*%
%TO.N,+3V3*%
X19304000Y-37084000D03*
D38*
%TO.P,C205,2*%
%TO.N,GND*%
X16804000Y-37084000D03*
%TD*%
D52*
%TO.P,U201,1,VIN*%
%TO.N,+12V*%
X25213000Y-19206000D03*
%TO.P,U201,2,OUT*%
%TO.N,Net-(D203-Pad1)*%
X25213000Y-20906000D03*
%TO.P,U201,3,GND*%
%TO.N,GND*%
X25213000Y-22606000D03*
D53*
X34363000Y-22606000D03*
D52*
%TO.P,U201,4,FB*%
%TO.N,+5V*%
X25213000Y-24306000D03*
%TO.P,U201,5,~{ON}/OFF*%
%TO.N,GND*%
X25213000Y-26006000D03*
%TD*%
D23*
%TO.P,R10,1*%
%TO.N,Net-(R10-Pad1)*%
X20511000Y-51054000D03*
%TO.P,R10,2*%
%TO.N,/INPUT_B*%
X22161000Y-51054000D03*
%TD*%
%TO.P,R302,1*%
%TO.N,Net-(J301-Pad1)*%
X66485000Y-43434000D03*
%TO.P,R302,2*%
%TO.N,Net-(R301-Pad1)*%
X68135000Y-43434000D03*
%TD*%
D12*
%TO.P,J14,1,Pin_1*%
%TO.N,+5V*%
X94488000Y-7112000D03*
D13*
%TO.P,J14,2,Pin_2*%
%TO.N,Net-(D8-Pad2)*%
X97028000Y-7112000D03*
%TO.P,J14,3,Pin_3*%
%TO.N,Net-(D8-Pad1)*%
X99568000Y-7112000D03*
%TO.P,J14,4,Pin_4*%
%TO.N,GND*%
X102108000Y-7112000D03*
%TD*%
D12*
%TO.P,J8,1,Pin_1*%
%TO.N,+5V*%
X71120000Y-274000D03*
D13*
%TO.P,J8,2,Pin_2*%
%TO.N,Net-(J7-Pad2)*%
X73660000Y-274000D03*
%TO.P,J8,3,Pin_3*%
%TO.N,Net-(J7-Pad3)*%
X76200000Y-274000D03*
%TO.P,J8,4,Pin_4*%
%TO.N,GND*%
X78740000Y-274000D03*
%TD*%
D54*
%TO.P,L201,1,1*%
%TO.N,Net-(D203-Pad1)*%
X15748000Y-21382264D03*
%TO.P,L201,2,2*%
%TO.N,+5V*%
X15748000Y-31282264D03*
%TD*%
D55*
%TO.P,J302,1,Pin_1*%
%TO.N,unconnected-(J302-Pad1)*%
X76728000Y-38100000D03*
D56*
%TO.P,J302,2,Pin_2*%
%TO.N,/UART_MISO*%
X76728000Y-35560000D03*
%TO.P,J302,3,Pin_3*%
%TO.N,/UART_MOSI*%
X76728000Y-33020000D03*
%TO.P,J302,4,Pin_4*%
%TO.N,GND*%
X76728000Y-30480000D03*
%TD*%
D41*
%TO.P,R4,1*%
%TO.N,Net-(R4-Pad1)*%
X44958000Y-12638500D03*
%TO.P,R4,2*%
%TO.N,Net-(D4-Pad2)*%
X44958000Y-9713500D03*
%TD*%
D14*
%TO.P,SW3,A,A*%
%TO.N,Net-(R12-Pad2)*%
X18172000Y-46014000D03*
D15*
%TO.P,SW3,B,B*%
%TO.N,Net-(R10-Pad1)*%
X18172000Y-51014000D03*
%TO.P,SW3,C,C*%
%TO.N,GND*%
X18172000Y-48514000D03*
D57*
%TO.P,SW3,MP*%
%TO.N,N/C*%
X10672000Y-42914000D03*
X10672000Y-54114000D03*
D15*
%TO.P,SW3,S1,S1*%
%TO.N,Net-(R13-Pad2)*%
X3672000Y-51014000D03*
%TO.P,SW3,S2,S2*%
%TO.N,GND*%
X3672000Y-46014000D03*
%TD*%
D58*
%TO.P,U7,*%
%TO.N,*%
X115031000Y-37057500D03*
X31000Y-37057500D03*
X115031000Y-57500D03*
X31000Y-57500D03*
D59*
%TO.P,U7,1,VSS*%
%TO.N,GND*%
X40531000Y942500D03*
D60*
%TO.P,U7,2,VDD*%
%TO.N,+5V*%
X37991000Y942500D03*
%TO.P,U7,3,VO*%
%TO.N,Net-(RV1-Pad2)*%
X35451000Y942500D03*
%TO.P,U7,4,RS*%
%TO.N,/LCD_RS*%
X32911000Y942500D03*
%TO.P,U7,5,R/~{W}*%
%TO.N,GND*%
X30371000Y942500D03*
%TO.P,U7,6,E*%
%TO.N,/LCD_E*%
X27831000Y942500D03*
%TO.P,U7,7,DB0*%
%TO.N,unconnected-(U7-Pad7)*%
X25291000Y942500D03*
%TO.P,U7,8,DB1*%
%TO.N,unconnected-(U7-Pad8)*%
X22751000Y942500D03*
%TO.P,U7,9,DB2*%
%TO.N,unconnected-(U7-Pad9)*%
X20211000Y942500D03*
%TO.P,U7,10,DB3*%
%TO.N,unconnected-(U7-Pad10)*%
X17671000Y942500D03*
%TO.P,U7,11,DB4*%
%TO.N,/LCD_DB4*%
X15131000Y942500D03*
%TO.P,U7,12,DB5*%
%TO.N,/LCD_DB5*%
X12591000Y942500D03*
%TO.P,U7,13,DB6*%
%TO.N,/LCD_DB6*%
X10051000Y942500D03*
%TO.P,U7,14,DB7*%
%TO.N,/LCD_DB7*%
X7511000Y942500D03*
%TO.P,U7,15,A/VEE*%
%TO.N,Net-(R1-Pad1)*%
X43071000Y942500D03*
%TO.P,U7,16,K*%
%TO.N,GND*%
X45611000Y942500D03*
D14*
%TO.P,U7,A1,A1*%
%TO.N,unconnected-(U7-PadA1)*%
X116031000Y-13057500D03*
%TO.P,U7,A2,A2*%
%TO.N,unconnected-(U7-PadA2)*%
X116031000Y-24057500D03*
%TO.P,U7,K1,K1*%
%TO.N,unconnected-(U7-PadK1)*%
X116031000Y-17057500D03*
%TO.P,U7,K2,K2*%
%TO.N,unconnected-(U7-PadK2)*%
X116031000Y-28057500D03*
%TD*%
D61*
%TO.P,J301,1,VBUS*%
%TO.N,Net-(J301-Pad1)*%
X61976000Y-45720000D03*
D62*
%TO.P,J301,2,D-*%
%TO.N,Net-(J301-Pad2)*%
X64476000Y-45720000D03*
%TO.P,J301,3,D+*%
%TO.N,Net-(J301-Pad3)*%
X64476000Y-48920000D03*
%TO.P,J301,4,GND*%
%TO.N,GND*%
X61976000Y-48920000D03*
D63*
%TO.P,J301,5,Shield*%
X69246000Y-48430000D03*
X57206000Y-48430000D03*
%TD*%
D64*
%TO.N,+5V*%
X71755000Y-12319000D03*
X62726500Y-40513000D03*
X83947000Y-14224000D03*
X77851000Y-13716000D03*
%TO.N,GND*%
X29845000Y-28956000D03*
X107823000Y127000D03*
X63881000Y-30861000D03*
X54864000Y-39497000D03*
X78740000Y-15367000D03*
X31877000Y-28956000D03*
X36957000Y-28956000D03*
X70358000Y-39624000D03*
X34925000Y-28956000D03*
X28829000Y-28956000D03*
X33909000Y-28956000D03*
X64897000Y-41402000D03*
X32893000Y-28956000D03*
X102362000Y-18669000D03*
X89281000Y-14097000D03*
X30861000Y-28956000D03*
X35941000Y-28956000D03*
X90678000Y-37808500D03*
X100088548Y-38223051D03*
X42316500Y-6324500D03*
X85090000Y-12827000D03*
%TO.N,+3V3*%
X50705000Y-30766000D03*
X67310000Y-41275000D03*
X81915000Y-36830000D03*
X78105000Y-11811000D03*
X91313000Y-12700000D03*
X98424613Y-37130813D03*
X84074000Y-28194000D03*
X41656000Y-28321000D03*
%TO.N,/INPUT_A*%
X24257000Y-46228000D03*
X101473000Y-35687000D03*
%TO.N,/INPUT_B*%
X101509701Y-34326701D03*
X24447500Y-50355500D03*
%TO.N,/INPUT_SW*%
X102685000Y-31808000D03*
X11303000Y-50927000D03*
%TO.N,/UART_MOSI*%
X45148500Y-34480500D03*
X83820000Y-33655000D03*
X61976000Y-34417000D03*
%TO.N,/UART_MISO*%
X52387500Y-35750500D03*
X62039500Y-35750500D03*
X83693000Y-35941000D03*
%TO.N,/TRIG_BTN*%
X81915000Y-16510000D03*
X82296000Y-18542000D03*
%TO.N,/LCD_RS*%
X107442000Y-20447000D03*
%TO.N,/RS485_TXE*%
X107442000Y-12446000D03*
X98552000Y-24257000D03*
%TO.N,/UART2_RX*%
X89154000Y-33655000D03*
X105537000Y-12573000D03*
%TO.N,/UART2_TX*%
X109347000Y-12319000D03*
X89154000Y-35560000D03*
%TO.N,/LCD_E*%
X99314000Y-28829000D03*
%TO.N,/SDA_MOTOR*%
X89154000Y-28956000D03*
X93599000Y-11430000D03*
%TO.N,/SCL_MOTOR*%
X89027000Y-30607000D03*
X92646500Y-12001500D03*
%TO.N,/SDA_PERIPH*%
X89344500Y-25336500D03*
X73279000Y-15531500D03*
%TO.N,/SCL_PERIPH*%
X74958271Y-14807000D03*
X89027000Y-26924000D03*
%TO.N,Net-(J301-Pad2)*%
X62654500Y-43898500D03*
%TO.N,/RESET*%
X83693000Y-30226000D03*
X98501749Y-36126849D03*
%TD*%
D65*
%TO.N,+5V*%
X32131000Y-6477521D02*
X32131000Y-11241500D01*
X78867000Y-12700000D02*
X77851000Y-13716000D01*
X62536500Y-40703000D02*
X61468000Y-40703000D01*
X85281000Y-13970000D02*
X84201000Y-13970000D01*
X71120000Y-7112000D02*
X69581000Y-5573000D01*
X40828500Y-4445000D02*
X38923500Y-2540000D01*
X62726500Y-40513000D02*
X62536500Y-40703000D01*
X69581000Y-5573000D02*
X57872000Y-5573000D01*
X71565000Y-12509000D02*
X71755000Y-12319000D01*
X102498985Y-8636000D02*
X96012000Y-8636000D01*
X105537000Y-5597985D02*
X102498985Y-8636000D01*
X36068521Y-2540000D02*
X32131000Y-6477521D01*
X49007000Y-5573000D02*
X47879000Y-4445000D01*
X37991000Y942500D02*
X37991000Y-1607500D01*
X94488000Y-274000D02*
X93048000Y1166000D01*
X72540000Y1146000D02*
X71120000Y-274000D01*
X57872000Y-5573000D02*
X49007000Y-5573000D01*
X71120000Y-274000D02*
X71120000Y-7112000D01*
X96012000Y-8636000D02*
X94488000Y-7112000D01*
X84224000Y1166000D02*
X82804000Y-254000D01*
X47879000Y-4445000D02*
X40828500Y-4445000D01*
X71565000Y-13970000D02*
X71565000Y-12509000D01*
X81404000Y1146000D02*
X72540000Y1146000D01*
X93048000Y1166000D02*
X84224000Y1166000D01*
X32131000Y-11241500D02*
X33528000Y-12638500D01*
X37991000Y-1607500D02*
X38923500Y-2540000D01*
X82804000Y-254000D02*
X81404000Y1146000D01*
X80142500Y-12700000D02*
X78867000Y-12700000D01*
X84201000Y-13970000D02*
X83947000Y-14224000D01*
X38923500Y-2540000D02*
X36068521Y-2540000D01*
X82804000Y-7112000D02*
X82804000Y-254000D01*
X94488000Y-274000D02*
X94488000Y-7112000D01*
%TO.N,GND*%
X109347000Y-2237500D02*
X107871500Y-762000D01*
X20386000Y-48768000D02*
X18426000Y-48768000D01*
X4968000Y-47310000D02*
X3672000Y-46014000D01*
X42926000Y-46248000D02*
X44704000Y-48026000D01*
X89281000Y-14097000D02*
X89281000Y-13603000D01*
X42926000Y-43047500D02*
X42926000Y-46248000D01*
X76480000Y-12688000D02*
X76480000Y-13869000D01*
X63881000Y-32385000D02*
X63881000Y-30861000D01*
X57282500Y-39116000D02*
X55245000Y-39116000D01*
X90678000Y-37808500D02*
X89203500Y-39283000D01*
X106151000Y-39283000D02*
X106680000Y-39812000D01*
X85090000Y-12827000D02*
X84963000Y-12700000D01*
X101148497Y-39283000D02*
X104508000Y-39283000D01*
X65794000Y-37248000D02*
X65794000Y-35298000D01*
X66294000Y-34798000D02*
X63881000Y-32385000D01*
X107871500Y78500D02*
X107871500Y-762000D01*
X107823000Y127000D02*
X107871500Y78500D01*
X64643000Y-41148000D02*
X64897000Y-41402000D01*
X20386000Y-46736000D02*
X20386000Y-48768000D01*
X9144000Y-47310000D02*
X4968000Y-47310000D01*
X64643000Y-40706000D02*
X64643000Y-41148000D01*
X109347000Y-5145000D02*
X109347000Y-2237500D01*
X44958000Y-6324500D02*
X42316500Y-6324500D01*
X84963000Y-12700000D02*
X82417500Y-12700000D01*
X76480000Y-13869000D02*
X77978000Y-15367000D01*
X101468000Y-21523000D02*
X101468000Y-19563000D01*
X89203500Y-39283000D02*
X87008000Y-39283000D01*
X55245000Y-39116000D02*
X54864000Y-39497000D01*
X42316500Y-6324500D02*
X39370000Y-6324500D01*
X77978000Y-15367000D02*
X78740000Y-15367000D01*
X70358000Y-38163000D02*
X70358000Y-39624000D01*
X100088548Y-38223051D02*
X101148497Y-39283000D01*
X65852000Y-39497000D02*
X64643000Y-40706000D01*
X104508000Y-39283000D02*
X106151000Y-39283000D01*
X33528000Y-6324500D02*
X39370000Y-6324500D01*
X101468000Y-19563000D02*
X102362000Y-18669000D01*
X89281000Y-13603000D02*
X90196000Y-12688000D01*
%TO.N,+3V3*%
X91313000Y-12700000D02*
X91313000Y-12319000D01*
X50705000Y-30766000D02*
X42926000Y-38545000D01*
X67752000Y-39497000D02*
X67752000Y-40833000D01*
X11492000Y-48385000D02*
X16447000Y-53340000D01*
X100169618Y-37130813D02*
X101051805Y-38013000D01*
X76480000Y-12188000D02*
X77728000Y-12188000D01*
X84418000Y-28538000D02*
X84418000Y-30771000D01*
X33782000Y-32700000D02*
X37277000Y-32700000D01*
X18034000Y-42101000D02*
X19304000Y-40831000D01*
X6921000Y-49022000D02*
X7558000Y-48385000D01*
X101051805Y-38013000D02*
X104508000Y-38013000D01*
X37277000Y-32700000D02*
X41656000Y-28321000D01*
X41783000Y-28194000D02*
X41783000Y-15051500D01*
X98424613Y-37130813D02*
X100169618Y-37130813D01*
X106680000Y-37912000D02*
X104609000Y-37912000D01*
X91313000Y-12319000D02*
X91182000Y-12188000D01*
X52261000Y-29210000D02*
X50705000Y-30766000D01*
X91182000Y-12188000D02*
X90196000Y-12188000D01*
X81915000Y-33274000D02*
X81915000Y-36830000D01*
X67752000Y-39497000D02*
X67752000Y-37290000D01*
X17776000Y-42101000D02*
X11492000Y-48385000D01*
X42926000Y-38545000D02*
X42926000Y-40772500D01*
X67752000Y-37290000D02*
X67794000Y-37248000D01*
X7558000Y-48385000D02*
X11492000Y-48385000D01*
X67794000Y-37248000D02*
X67294000Y-37248000D01*
X19304000Y-40831000D02*
X19304000Y-37084000D01*
X41656000Y-28321000D02*
X41783000Y-28194000D01*
X84418000Y-30771000D02*
X81915000Y-33274000D01*
X41783000Y-15051500D02*
X39370000Y-12638500D01*
X77728000Y-12188000D02*
X78105000Y-11811000D01*
X67752000Y-40833000D02*
X67310000Y-41275000D01*
X84074000Y-28194000D02*
X84418000Y-28538000D01*
%TO.N,/INPUT_A*%
X101473000Y-35388000D02*
X103928000Y-32933000D01*
X23749000Y-46736000D02*
X24257000Y-46228000D01*
X22161000Y-44958000D02*
X22161000Y-46611000D01*
X101473000Y-35687000D02*
X101473000Y-35388000D01*
X22286000Y-46736000D02*
X23749000Y-46736000D01*
%TO.N,/INPUT_B*%
X101509701Y-34081299D02*
X103928000Y-31663000D01*
X22286000Y-48768000D02*
X22286000Y-50929000D01*
X101509701Y-34326701D02*
X101509701Y-34081299D01*
X23749000Y-51054000D02*
X24447500Y-50355500D01*
X22161000Y-51054000D02*
X23749000Y-51054000D01*
%TO.N,/INPUT_SW*%
X9586000Y-49210000D02*
X11303000Y-50927000D01*
X102685000Y-31808000D02*
X102685000Y-30405490D01*
X100132510Y-27853000D02*
X87008000Y-27853000D01*
X7429000Y-50925000D02*
X9144000Y-49210000D01*
X102685000Y-30405490D02*
X100132510Y-27853000D01*
%TO.N,Net-(D4-Pad2)*%
X44958000Y-9713500D02*
X44958000Y-7899500D01*
%TO.N,Net-(D8-Pad1)*%
X105038500Y1146000D02*
X105996500Y188000D01*
X108712000Y-6156751D02*
X108423751Y-6445000D01*
X108712000Y-3018249D02*
X108712000Y-6156751D01*
X105996500Y-302749D02*
X108712000Y-3018249D01*
X108423751Y-6445000D02*
X107664000Y-6445000D01*
X107664000Y-6445000D02*
X106807000Y-5588000D01*
X100988000Y1146000D02*
X105038500Y1146000D01*
X105996500Y188000D02*
X105996500Y-302749D01*
X100988000Y1146000D02*
X99568000Y-274000D01*
%TO.N,Net-(D8-Pad2)*%
X98466000Y-1712000D02*
X97028000Y-274000D01*
X97028000Y-274000D02*
X97028000Y-7112000D01*
X108077000Y-5145000D02*
X108077000Y-3792500D01*
X108077000Y-3792500D02*
X105996500Y-1712000D01*
X105996500Y-1712000D02*
X98466000Y-1712000D01*
%TO.N,/UART_MOSI*%
X63844000Y-34798000D02*
X62357000Y-34798000D01*
X41976000Y-37653000D02*
X41976000Y-40772500D01*
X84368000Y-34203000D02*
X83820000Y-33655000D01*
X45148500Y-34480500D02*
X41976000Y-37653000D01*
X62357000Y-34798000D02*
X61976000Y-34417000D01*
X87008000Y-34203000D02*
X84368000Y-34203000D01*
%TO.N,/UART_MISO*%
X84161000Y-35473000D02*
X83693000Y-35941000D01*
X48898000Y-35750500D02*
X43876000Y-40772500D01*
X63844000Y-35298000D02*
X62492000Y-35298000D01*
X52387500Y-35750500D02*
X48898000Y-35750500D01*
X62492000Y-35298000D02*
X62039500Y-35750500D01*
X87008000Y-35473000D02*
X84161000Y-35473000D01*
%TO.N,Net-(D204-Pad2)*%
X33528000Y-9713500D02*
X33528000Y-7899500D01*
%TO.N,Net-(D205-Pad2)*%
X39370000Y-9713500D02*
X39370000Y-7899500D01*
%TO.N,Net-(R1-Pad1)*%
X43071000Y942500D02*
X43071000Y-1317500D01*
X43071000Y-1317500D02*
X41848500Y-2540000D01*
%TO.N,Net-(R12-Pad2)*%
X20511000Y-44958000D02*
X19455000Y-46014000D01*
X19455000Y-46014000D02*
X18172000Y-46014000D01*
X18172000Y-46014000D02*
X18172000Y-43889000D01*
%TO.N,Net-(R10-Pad1)*%
X20511000Y-51054000D02*
X18212000Y-51054000D01*
X18172000Y-51014000D02*
X18172000Y-53265000D01*
%TO.N,/SIDE_BTN*%
X101600000Y-24384000D02*
X101600000Y-25525000D01*
X87503000Y-19304000D02*
X87503000Y-21590000D01*
X44127000Y-21530604D02*
X48200604Y-17457000D01*
X43876000Y-43047500D02*
X47244000Y-46415500D01*
X85656000Y-17457000D02*
X87503000Y-19304000D01*
X47244000Y-46415500D02*
X47244000Y-48026000D01*
X87503000Y-21590000D02*
X89408000Y-23495000D01*
X47244000Y-48026000D02*
X45824000Y-49446000D01*
X100711000Y-23495000D02*
X101600000Y-24384000D01*
X44127000Y-27499604D02*
X44127000Y-21530604D01*
X45824000Y-49446000D02*
X39891015Y-49446000D01*
X48200604Y-17457000D02*
X85656000Y-17457000D01*
X39191000Y-48745985D02*
X39191000Y-43163000D01*
X89408000Y-23495000D02*
X100711000Y-23495000D01*
X39891015Y-49446000D02*
X39191000Y-48745985D01*
X39936000Y-42418000D02*
X39936000Y-31690604D01*
X101600000Y-25525000D02*
X103928000Y-27853000D01*
X39191000Y-43163000D02*
X39936000Y-42418000D01*
X39936000Y-31690604D02*
X44127000Y-27499604D01*
%TO.N,Net-(R13-Pad2)*%
X5779000Y-51054000D02*
X5779000Y-49530000D01*
X5779000Y-49530000D02*
X5271000Y-49022000D01*
X5779000Y-51054000D02*
X3712000Y-51054000D01*
%TO.N,Net-(RV1-Pad2)*%
X52872000Y-3073000D02*
X47031500Y2767500D01*
X37276000Y2767500D02*
X35451000Y942500D01*
X47031500Y2767500D02*
X37276000Y2767500D01*
%TO.N,/TRIG_BTN*%
X44577000Y-21717000D02*
X48387000Y-17907000D01*
X81026000Y-18542000D02*
X82296000Y-18542000D01*
X89720000Y-23045000D02*
X87953000Y-21278000D01*
X87953000Y-21278000D02*
X87953000Y-19117604D01*
X40386000Y-31877000D02*
X44577000Y-27686000D01*
X40386000Y-44637500D02*
X40386000Y-48026000D01*
X41976000Y-43047500D02*
X40386000Y-44637500D01*
X100198000Y-22523000D02*
X99676000Y-23045000D01*
X100198000Y-21523000D02*
X100198000Y-22523000D01*
X44577000Y-27686000D02*
X44577000Y-21717000D01*
X82412000Y-17007000D02*
X81915000Y-16510000D01*
X40386000Y-48026000D02*
X40386000Y-31877000D01*
X87953000Y-19117604D02*
X85842396Y-17007000D01*
X80391000Y-17907000D02*
X81026000Y-18542000D01*
X48387000Y-17907000D02*
X80391000Y-17907000D01*
X85842396Y-17007000D02*
X82412000Y-17007000D01*
X99676000Y-23045000D02*
X89720000Y-23045000D01*
%TO.N,/LCD_DB6*%
X111459000Y-24442000D02*
X111459000Y-329812D01*
X35333604Y4163396D02*
X8461616Y4163396D01*
X105508000Y-30393000D02*
X111459000Y-24442000D01*
X6436000Y2137780D02*
X6436000Y-252780D01*
X108128188Y3001000D02*
X49708188Y3001000D01*
X111459000Y-329812D02*
X108128188Y3001000D01*
X7072220Y-889000D02*
X8219500Y-889000D01*
X35737708Y4567500D02*
X35333604Y4163396D01*
X6436000Y-252780D02*
X7072220Y-889000D01*
X8219500Y-889000D02*
X10051000Y942500D01*
X49708188Y3001000D02*
X48141688Y4567500D01*
X48141688Y4567500D02*
X35737708Y4567500D01*
X104508000Y-30393000D02*
X105508000Y-30393000D01*
X8461616Y4163396D02*
X6436000Y2137780D01*
%TO.N,/LCD_DB7*%
X107941792Y2551000D02*
X49521792Y2551000D01*
X111009000Y-516208D02*
X107941792Y2551000D01*
X10262500Y3694000D02*
X7511000Y942500D01*
X105508000Y-29123000D02*
X111009000Y-23622000D01*
X35924104Y4117500D02*
X35500604Y3694000D01*
X49521792Y2551000D02*
X47955292Y4117500D01*
X47955292Y4117500D02*
X35924104Y4117500D01*
X104508000Y-29123000D02*
X105508000Y-29123000D01*
X35500604Y3694000D02*
X10262500Y3694000D01*
X111009000Y-23622000D02*
X111009000Y-516208D01*
%TO.N,/LCD_DB4*%
X105508000Y-26583000D02*
X110559000Y-21532000D01*
X47768896Y3667500D02*
X36110500Y3667500D01*
X104508000Y-26583000D02*
X105508000Y-26583000D01*
X110559000Y-21532000D02*
X110559000Y-702604D01*
X12622220Y3244000D02*
X11516000Y2137780D01*
X49335396Y2101000D02*
X47768896Y3667500D01*
X11516000Y-252780D02*
X12145720Y-882500D01*
X36110500Y3667500D02*
X35687000Y3244000D01*
X35687000Y3244000D02*
X12622220Y3244000D01*
X110559000Y-702604D02*
X107755396Y2101000D01*
X11516000Y2137780D02*
X11516000Y-252780D01*
X107755396Y2101000D02*
X49335396Y2101000D01*
X13306000Y-882500D02*
X15131000Y942500D01*
X12145720Y-882500D02*
X13306000Y-882500D01*
%TO.N,/LCD_DB5*%
X35941000Y2794000D02*
X14442500Y2794000D01*
X47582500Y3217500D02*
X36364500Y3217500D01*
X104508000Y-25313000D02*
X105508000Y-25313000D01*
X49149000Y1651000D02*
X47582500Y3217500D01*
X14442500Y2794000D02*
X12591000Y942500D01*
X110109000Y-889000D02*
X107569000Y1651000D01*
X110109000Y-20712000D02*
X110109000Y-889000D01*
X105508000Y-25313000D02*
X110109000Y-20712000D01*
X36364500Y3217500D02*
X35941000Y2794000D01*
X107569000Y1651000D02*
X49149000Y1651000D01*
%TO.N,/LCD_RS*%
X105508000Y-24043000D02*
X107442000Y-22109000D01*
X104508000Y-24043000D02*
X105508000Y-24043000D01*
X107442000Y-22109000D02*
X107442000Y-20447000D01*
%TO.N,Net-(J7-Pad2)*%
X71616000Y-11188000D02*
X73380000Y-11188000D01*
X70840000Y-11964000D02*
X71616000Y-11188000D01*
X72633538Y-16256000D02*
X70840000Y-14462462D01*
X73660000Y-7112000D02*
X73660000Y-10908000D01*
X70840000Y-14462462D02*
X70840000Y-11964000D01*
X80142500Y-15234500D02*
X79121000Y-16256000D01*
X80142500Y-13650000D02*
X80142500Y-15234500D01*
X79121000Y-16256000D02*
X72633538Y-16256000D01*
X73660000Y-274000D02*
X73660000Y-7112000D01*
X73660000Y-10908000D02*
X73380000Y-11188000D01*
%TO.N,Net-(J7-Pad3)*%
X74080000Y-11688000D02*
X73380000Y-11688000D01*
X76200000Y-7112000D02*
X76200000Y-9568000D01*
X76200000Y-9568000D02*
X74080000Y-11688000D01*
X78529000Y-9568000D02*
X76200000Y-9568000D01*
X80142500Y-11181500D02*
X78529000Y-9568000D01*
X80142500Y-11750000D02*
X80142500Y-11181500D01*
X76200000Y-274000D02*
X76200000Y-7112000D01*
%TO.N,Net-(J10-Pad3)*%
X82479500Y-11688000D02*
X87096000Y-11688000D01*
X87884000Y-7112000D02*
X87884000Y-254000D01*
X87096000Y-11688000D02*
X87796000Y-11688000D01*
X87796000Y-11688000D02*
X87884000Y-11600000D01*
X87884000Y-11600000D02*
X87884000Y-7112000D01*
%TO.N,Net-(J10-Pad2)*%
X81430000Y-13046751D02*
X81430000Y-11403249D01*
X85725000Y-11049000D02*
X85864000Y-11188000D01*
X81784249Y-11049000D02*
X85725000Y-11049000D01*
X85344000Y-9436000D02*
X87096000Y-11188000D01*
X85344000Y-7112000D02*
X85344000Y-254000D01*
X85864000Y-11188000D02*
X87096000Y-11188000D01*
X82033249Y-13650000D02*
X81430000Y-13046751D01*
X81430000Y-11403249D02*
X81784249Y-11049000D01*
X85344000Y-7112000D02*
X85344000Y-9436000D01*
%TO.N,Net-(R4-Pad1)*%
X90038000Y-21523000D02*
X90038000Y-20566208D01*
X80392695Y-17007000D02*
X49326500Y-17007000D01*
X49326500Y-17007000D02*
X44958000Y-12638500D01*
X81614695Y-15785000D02*
X80392695Y-17007000D01*
X85256792Y-15785000D02*
X81614695Y-15785000D01*
X90038000Y-20566208D02*
X85256792Y-15785000D01*
%TO.N,Net-(R5-Pad2)*%
X73215000Y-12853000D02*
X73380000Y-12688000D01*
X73215000Y-13970000D02*
X73215000Y-12853000D01*
X73380000Y-12688000D02*
X73380000Y-12188000D01*
%TO.N,Net-(R6-Pad2)*%
X87096000Y-12188000D02*
X87096000Y-12688000D01*
X87096000Y-12688000D02*
X87096000Y-13805000D01*
%TO.N,/RS485_TXE*%
X98338000Y-24043000D02*
X87008000Y-24043000D01*
X106807000Y-11811000D02*
X107442000Y-12446000D01*
X106807000Y-10095000D02*
X106807000Y-11811000D01*
X108077000Y-10095000D02*
X106807000Y-10095000D01*
X98552000Y-24257000D02*
X98338000Y-24043000D01*
%TO.N,/UART2_RX*%
X105537000Y-10095000D02*
X105537000Y-12573000D01*
X88432000Y-32933000D02*
X89154000Y-33655000D01*
X87008000Y-32933000D02*
X88432000Y-32933000D01*
%TO.N,/UART2_TX*%
X87008000Y-36743000D02*
X87971000Y-36743000D01*
X109347000Y-10095000D02*
X109347000Y-12319000D01*
X87971000Y-36743000D02*
X89154000Y-35560000D01*
%TO.N,/LCD_E*%
X94013000Y-29518000D02*
X94013000Y-33448195D01*
X94013000Y-33448195D02*
X89448195Y-38013000D01*
X94702000Y-28829000D02*
X94013000Y-29518000D01*
X89448195Y-38013000D02*
X87008000Y-38013000D01*
X99314000Y-28829000D02*
X94702000Y-28829000D01*
%TO.N,/SDA_MOTOR*%
X87008000Y-29123000D02*
X88987000Y-29123000D01*
X88987000Y-29123000D02*
X89154000Y-28956000D01*
X93357000Y-11188000D02*
X93599000Y-11430000D01*
X90196000Y-11188000D02*
X93357000Y-11188000D01*
%TO.N,/SCL_MOTOR*%
X90196000Y-11688000D02*
X92333000Y-11688000D01*
X92333000Y-11688000D02*
X92646500Y-12001500D01*
X88813000Y-30393000D02*
X89027000Y-30607000D01*
X87008000Y-30393000D02*
X88813000Y-30393000D01*
%TO.N,/SDA_PERIPH*%
X89321000Y-25313000D02*
X89344500Y-25336500D01*
X87008000Y-25313000D02*
X89321000Y-25313000D01*
X74295000Y-14515500D02*
X74295000Y-12673000D01*
X74295000Y-12673000D02*
X75780000Y-11188000D01*
X73279000Y-15531500D02*
X74295000Y-14515500D01*
X75780000Y-11188000D02*
X76480000Y-11188000D01*
%TO.N,/SCL_PERIPH*%
X74958271Y-14807000D02*
X75488698Y-14276573D01*
X75488698Y-14276573D02*
X75488698Y-12115698D01*
X87008000Y-26583000D02*
X88686000Y-26583000D01*
X75920396Y-11684000D02*
X76476000Y-11684000D01*
X88686000Y-26583000D02*
X89027000Y-26924000D01*
X75488698Y-12115698D02*
X75920396Y-11684000D01*
%TO.N,Net-(J301-Pad1)*%
X57666751Y-38166000D02*
X58547000Y-39046249D01*
X63451000Y-48531396D02*
X63451000Y-49344569D01*
X63451000Y-49344569D02*
X64144431Y-50038000D01*
X58547000Y-44704000D02*
X59817000Y-45974000D01*
X61722000Y-45974000D02*
X61976000Y-45720000D01*
X64144431Y-50038000D02*
X64807569Y-50038000D01*
X64807569Y-50038000D02*
X66485000Y-48360569D01*
X58547000Y-39046249D02*
X58547000Y-44704000D01*
X59817000Y-45974000D02*
X61722000Y-45974000D01*
X66485000Y-48360569D02*
X66485000Y-43434000D01*
X61976000Y-47056396D02*
X63451000Y-48531396D01*
X61976000Y-45720000D02*
X61976000Y-47056396D01*
%TO.N,Net-(J301-Pad2)*%
X62654500Y-43898500D02*
X59557500Y-40801500D01*
X64476000Y-45720000D02*
X63901000Y-45145000D01*
X63901000Y-45145000D02*
X63901000Y-39605396D01*
X66203404Y-38423000D02*
X66794000Y-37832404D01*
X65083396Y-38423000D02*
X66203404Y-38423000D01*
X66794000Y-37832404D02*
X66794000Y-37248000D01*
X59557500Y-40801500D02*
X59557500Y-40066000D01*
X63901000Y-39605396D02*
X65083396Y-38423000D01*
%TO.N,Net-(J301-Pad3)*%
X63451000Y-47895000D02*
X63451000Y-39419000D01*
X62198000Y-38166000D02*
X63451000Y-39419000D01*
X63451000Y-39419000D02*
X64897000Y-37973000D01*
X66294000Y-37696008D02*
X66294000Y-37248000D01*
X64476000Y-48920000D02*
X63451000Y-47895000D01*
X59557500Y-38166000D02*
X62198000Y-38166000D01*
X64897000Y-37973000D02*
X66017008Y-37973000D01*
X66017008Y-37973000D02*
X66294000Y-37696008D01*
%TO.N,Net-(Q301-Pad1)*%
X56795249Y-32207000D02*
X56488751Y-32513498D01*
X61023000Y-29210000D02*
X61023000Y-29909000D01*
X56488751Y-32513498D02*
X56488751Y-33157000D01*
X58714538Y-32207000D02*
X56795249Y-32207000D01*
X57579500Y-34247749D02*
X57579500Y-34732000D01*
X58955538Y-31966000D02*
X58714538Y-32207000D01*
X56488751Y-33157000D02*
X57579500Y-34247749D01*
X61023000Y-29909000D02*
X58966000Y-31966000D01*
X58966000Y-31966000D02*
X58955538Y-31966000D01*
%TO.N,Net-(Q301-Pad2)*%
X59373000Y-32766000D02*
X59373000Y-36068000D01*
X59373000Y-32766000D02*
X57645500Y-32766000D01*
X59373000Y-36068000D02*
X59119000Y-36322000D01*
%TO.N,/BOOT*%
X49911000Y-24003000D02*
X57277000Y-24003000D01*
X52986000Y-28602000D02*
X51943000Y-27559000D01*
X59944000Y-21336000D02*
X66444000Y-21336000D01*
X48641000Y-26543000D02*
X48641000Y-25273000D01*
X48641000Y-25273000D02*
X49911000Y-24003000D01*
X57277000Y-24003000D02*
X59944000Y-21336000D01*
X49657000Y-27559000D02*
X48641000Y-26543000D01*
X51943000Y-27559000D02*
X49657000Y-27559000D01*
X55704500Y-33782000D02*
X52986000Y-31063500D01*
X52986000Y-31063500D02*
X52986000Y-28602000D01*
X87008000Y-22773000D02*
X67881000Y-22773000D01*
X67881000Y-22773000D02*
X66444000Y-21336000D01*
%TO.N,Net-(Q302-Pad1)*%
X61849000Y-31940000D02*
X61023000Y-32766000D01*
X60298000Y-29997604D02*
X60298000Y-28717538D01*
X61849000Y-28761665D02*
X61849000Y-31940000D01*
X60605538Y-28410000D02*
X61497335Y-28410000D01*
X59119604Y-31176000D02*
X60298000Y-29997604D01*
X60298000Y-28717538D02*
X60605538Y-28410000D01*
X57579500Y-31176000D02*
X59119604Y-31176000D01*
X61497335Y-28410000D02*
X61849000Y-28761665D01*
%TO.N,Net-(Q302-Pad2)*%
X61683731Y-27960000D02*
X60419142Y-27960000D01*
X62299000Y-28575269D02*
X61683731Y-27960000D01*
X60419142Y-27960000D02*
X59373000Y-29006142D01*
X59373000Y-29210000D02*
X57645500Y-29210000D01*
X62299000Y-29088000D02*
X62802000Y-29591000D01*
X62299000Y-28575269D02*
X62299000Y-29088000D01*
%TO.N,/RESET*%
X56590000Y-25872000D02*
X50090000Y-25872000D01*
X76858833Y-24407833D02*
X58054167Y-24407833D01*
X83693000Y-30226000D02*
X82677000Y-30226000D01*
X100017154Y-36126849D02*
X100633305Y-36743000D01*
X82677000Y-30226000D02*
X76858833Y-24407833D01*
X55704500Y-30226000D02*
X54927000Y-30226000D01*
X58054167Y-24407833D02*
X56590000Y-25872000D01*
X54927000Y-30226000D02*
X53911000Y-29210000D01*
X53911000Y-29210000D02*
X53911000Y-28551000D01*
X53911000Y-28551000D02*
X56590000Y-25872000D01*
X98501749Y-36126849D02*
X100017154Y-36126849D01*
X100633305Y-36743000D02*
X104508000Y-36743000D01*
%TO.N,Net-(R301-Pad1)*%
X68744000Y-42825000D02*
X68744000Y-36298000D01*
X68135000Y-43434000D02*
X68744000Y-42825000D01*
X68744000Y-36298000D02*
X70143000Y-36298000D01*
%TO.N,Net-(U301-Pad5)*%
X59557500Y-39116000D02*
X61405000Y-39116000D01*
X61405000Y-39116000D02*
X61468000Y-39053000D01*
%TO.N,Net-(U302-Pad24)*%
X63119000Y-34163000D02*
X63254000Y-34298000D01*
X64019462Y-29591000D02*
X63119000Y-30491462D01*
X64452000Y-29591000D02*
X64019462Y-29591000D01*
X63119000Y-30491462D02*
X63119000Y-34163000D01*
X63254000Y-34298000D02*
X63844000Y-34298000D01*
%TO.N,Net-(U302-Pad28)*%
X63844000Y-36298000D02*
X63016000Y-36298000D01*
X61150000Y-36703000D02*
X60769000Y-36322000D01*
X63016000Y-36298000D02*
X62611000Y-36703000D01*
X62611000Y-36703000D02*
X61150000Y-36703000D01*
%TD*%
%TA.AperFunction,Conductor*%
%TO.N,GND*%
G36*
X3953188Y-17527078D02*
G01*
X4057963Y-17540872D01*
X4089735Y-17549385D01*
X4179674Y-17586639D01*
X4208160Y-17603086D01*
X4285393Y-17662349D01*
X4308651Y-17685607D01*
X4367914Y-17762840D01*
X4384361Y-17791326D01*
X4421615Y-17881265D01*
X4430128Y-17913037D01*
X4443922Y-18017812D01*
X4445000Y-18034258D01*
X4445000Y-18707635D01*
X4443922Y-18724081D01*
X4430128Y-18828856D01*
X4421615Y-18860628D01*
X4384360Y-18950569D01*
X4367916Y-18979052D01*
X4303572Y-19062906D01*
X4292712Y-19075288D01*
X508000Y-22860000D01*
X635000Y-25908000D01*
X650903Y-25964383D01*
X995960Y-27187765D01*
X2012052Y-30790274D01*
X2014114Y-30798684D01*
X2025507Y-30853158D01*
X2027879Y-30870299D01*
X2031703Y-30925849D01*
X2032000Y-30934502D01*
X2032000Y-32130742D01*
X2030922Y-32147188D01*
X2017128Y-32251963D01*
X2008615Y-32283735D01*
X1971361Y-32373674D01*
X1954914Y-32402160D01*
X1895651Y-32479393D01*
X1872393Y-32502651D01*
X1795160Y-32561914D01*
X1766674Y-32578361D01*
X1676735Y-32615615D01*
X1644963Y-32624128D01*
X1540188Y-32637922D01*
X1523742Y-32639000D01*
X-180165Y-32639000D01*
X-197988Y-32637733D01*
X-311327Y-32621538D01*
X-345547Y-32611555D01*
X-441584Y-32567999D01*
X-471632Y-32548835D01*
X-551624Y-32480129D01*
X-575107Y-32453312D01*
X-637593Y-32357369D01*
X-646258Y-32341743D01*
X-3001627Y-27277703D01*
X-3006447Y-27265783D01*
X-3033455Y-27187765D01*
X-3039339Y-27162769D01*
X-3049968Y-27080899D01*
X-3050971Y-27068081D01*
X-3076300Y-26130885D01*
X-3083333Y-25870670D01*
X-2108486Y-25870670D01*
X-2102759Y-25878320D01*
X-1931604Y-25983205D01*
X-1922809Y-25987687D01*
X-1712658Y-26074734D01*
X-1703273Y-26077783D01*
X-1482092Y-26130885D01*
X-1472345Y-26132428D01*
X-1245576Y-26150275D01*
X-1235716Y-26150275D01*
X-1008947Y-26132428D01*
X-999200Y-26130885D01*
X-778019Y-26077783D01*
X-768634Y-26074734D01*
X-558483Y-25987687D01*
X-549688Y-25983205D01*
X-382201Y-25880568D01*
X-372739Y-25870110D01*
X-376522Y-25861334D01*
X-1227834Y-25010022D01*
X-1241778Y-25002408D01*
X-1243611Y-25002539D01*
X-1250226Y-25006790D01*
X-2101726Y-25858290D01*
X-2108486Y-25870670D01*
X-3083333Y-25870670D01*
X-3116515Y-24642930D01*
X-2752921Y-24642930D01*
X-2735074Y-24869699D01*
X-2733531Y-24879446D01*
X-2680429Y-25100627D01*
X-2677380Y-25110012D01*
X-2590333Y-25320163D01*
X-2585851Y-25328958D01*
X-2483214Y-25496445D01*
X-2472756Y-25505907D01*
X-2463980Y-25502124D01*
X-1612668Y-24650812D01*
X-1606290Y-24639132D01*
X-876238Y-24639132D01*
X-876107Y-24640965D01*
X-871856Y-24647580D01*
X-20356Y-25499080D01*
X-7976Y-25505840D01*
X-326Y-25500113D01*
X104559Y-25328958D01*
X109041Y-25320163D01*
X196088Y-25110012D01*
X199137Y-25100627D01*
X252239Y-24879446D01*
X253782Y-24869699D01*
X271629Y-24642930D01*
X271629Y-24633070D01*
X253782Y-24406301D01*
X252239Y-24396554D01*
X199137Y-24175373D01*
X196088Y-24165988D01*
X109041Y-23955837D01*
X104559Y-23947042D01*
X1922Y-23779555D01*
X-8536Y-23770093D01*
X-17312Y-23773876D01*
X-868624Y-24625188D01*
X-876238Y-24639132D01*
X-1606290Y-24639132D01*
X-1605054Y-24636868D01*
X-1605185Y-24635035D01*
X-1609436Y-24628420D01*
X-2460936Y-23776920D01*
X-2473316Y-23770160D01*
X-2480966Y-23775887D01*
X-2585851Y-23947042D01*
X-2590333Y-23955837D01*
X-2677380Y-24165988D01*
X-2680429Y-24175373D01*
X-2733531Y-24396554D01*
X-2735074Y-24406301D01*
X-2752921Y-24633070D01*
X-2752921Y-24642930D01*
X-3116515Y-24642930D01*
X-3149629Y-23417710D01*
X-3149948Y-23405890D01*
X-2108553Y-23405890D01*
X-2104770Y-23414666D01*
X-1253458Y-24265978D01*
X-1239514Y-24273592D01*
X-1237681Y-24273461D01*
X-1231066Y-24269210D01*
X-379566Y-23417710D01*
X-372806Y-23405330D01*
X-378533Y-23397680D01*
X-549688Y-23292795D01*
X-558483Y-23288313D01*
X-768634Y-23201266D01*
X-778019Y-23198217D01*
X-999200Y-23145115D01*
X-1008947Y-23143572D01*
X-1235716Y-23125725D01*
X-1245576Y-23125725D01*
X-1472345Y-23143572D01*
X-1482092Y-23145115D01*
X-1703273Y-23198217D01*
X-1712658Y-23201266D01*
X-1922809Y-23288313D01*
X-1931604Y-23292795D01*
X-2099091Y-23395432D01*
X-2108553Y-23405890D01*
X-3149948Y-23405890D01*
X-3167911Y-22741281D01*
X-3166912Y-22721683D01*
X-3150767Y-22597103D01*
X-3139775Y-22559553D01*
X-3090440Y-22454940D01*
X-3068459Y-22422573D01*
X-2982601Y-22330866D01*
X-2968116Y-22317630D01*
X3031181Y-17638180D01*
X3048616Y-17626766D01*
X3165834Y-17563213D01*
X3205118Y-17549704D01*
X3336625Y-17527724D01*
X3357396Y-17526000D01*
X3936742Y-17526000D01*
X3953188Y-17527078D01*
G37*
%TD.AperFunction*%
%TD*%
%TA.AperFunction,Conductor*%
%TO.N,GND*%
G36*
X38497188Y-17146078D02*
G01*
X38601963Y-17159872D01*
X38633735Y-17168385D01*
X38723674Y-17205639D01*
X38752160Y-17222086D01*
X38829393Y-17281349D01*
X38852651Y-17304607D01*
X38911914Y-17381840D01*
X38928361Y-17410326D01*
X38965615Y-17500265D01*
X38974128Y-17532037D01*
X38987922Y-17636812D01*
X38989000Y-17653258D01*
X38989000Y-27799690D01*
X38987422Y-27819568D01*
X38967287Y-27945600D01*
X38954900Y-27983377D01*
X38901133Y-28087857D01*
X38877596Y-28119890D01*
X38786734Y-28209538D01*
X38771482Y-28222370D01*
X34661126Y-31158338D01*
X34646951Y-31167109D01*
X34552537Y-31217209D01*
X34521353Y-31228785D01*
X34497481Y-31234200D01*
X34417122Y-31252427D01*
X34400658Y-31255031D01*
X34219480Y-31271502D01*
X33784368Y-31311057D01*
X33159759Y-31367840D01*
X33159752Y-31367841D01*
X33147000Y-31369000D01*
X32295373Y-31490661D01*
X32290936Y-31491214D01*
X32262363Y-31494266D01*
X32253452Y-31494900D01*
X32231209Y-31495690D01*
X32224690Y-31495921D01*
X32220223Y-31496000D01*
X30861000Y-31496000D01*
X30784029Y-31521657D01*
X30784025Y-31521658D01*
X30513978Y-31611674D01*
X29799783Y-31849739D01*
X29790050Y-31852554D01*
X29726815Y-31868117D01*
X29706831Y-31871360D01*
X29675607Y-31873877D01*
X29641909Y-31876593D01*
X29631786Y-31877000D01*
X28702258Y-31877000D01*
X28685812Y-31875922D01*
X28581037Y-31862128D01*
X28549265Y-31853615D01*
X28459326Y-31816361D01*
X28430840Y-31799914D01*
X28353607Y-31740651D01*
X28330349Y-31717393D01*
X28271086Y-31640160D01*
X28254639Y-31611674D01*
X28217385Y-31521735D01*
X28208872Y-31489963D01*
X28195078Y-31385188D01*
X28194000Y-31368742D01*
X28194000Y-26797000D01*
X23495258Y-26797000D01*
X23478812Y-26795922D01*
X23374037Y-26782128D01*
X23342265Y-26773615D01*
X23252326Y-26736361D01*
X23223840Y-26719914D01*
X23146607Y-26660651D01*
X23123349Y-26637393D01*
X23064086Y-26560160D01*
X23047639Y-26531674D01*
X23010385Y-26441735D01*
X23001872Y-26409963D01*
X22988078Y-26305188D01*
X22987000Y-26288742D01*
X22987000Y-25908258D01*
X22988078Y-25891812D01*
X23001872Y-25787037D01*
X23010385Y-25755265D01*
X23047639Y-25665326D01*
X23064086Y-25636840D01*
X23123349Y-25559607D01*
X23146607Y-25536349D01*
X23223840Y-25477086D01*
X23252326Y-25460639D01*
X23342265Y-25423385D01*
X23374037Y-25414872D01*
X23478812Y-25401078D01*
X23495258Y-25400000D01*
X28194000Y-25400000D01*
X28194000Y-23622000D01*
X28006349Y-23471880D01*
X28006348Y-23471878D01*
X27695957Y-23223566D01*
X27559000Y-23114000D01*
X23368258Y-23114000D01*
X23351812Y-23112922D01*
X23247037Y-23099128D01*
X23215265Y-23090615D01*
X23125326Y-23053361D01*
X23096840Y-23036914D01*
X23019607Y-22977651D01*
X22996349Y-22954393D01*
X22937086Y-22877160D01*
X22920639Y-22848674D01*
X22883385Y-22758735D01*
X22874872Y-22726963D01*
X22861112Y-22622446D01*
X22861112Y-22589554D01*
X22874872Y-22485037D01*
X22883385Y-22453265D01*
X22920639Y-22363326D01*
X22937086Y-22334840D01*
X22996349Y-22257607D01*
X23019607Y-22234349D01*
X23096840Y-22175086D01*
X23125326Y-22158639D01*
X23215265Y-22121385D01*
X23247037Y-22112872D01*
X23351812Y-22099078D01*
X23368258Y-22098000D01*
X27940000Y-22098000D01*
X29473924Y-17496229D01*
X29481568Y-17478140D01*
X29539430Y-17366419D01*
X29562641Y-17334852D01*
X29644933Y-17253337D01*
X29676722Y-17230425D01*
X29780077Y-17178133D01*
X29817367Y-17166095D01*
X29869240Y-17157930D01*
X29941642Y-17146533D01*
X29961233Y-17145000D01*
X38480742Y-17145000D01*
X38497188Y-17146078D01*
G37*
%TD.AperFunction*%
%TD*%
%TA.AperFunction,Conductor*%
%TO.N,+12V*%
G36*
X8231201Y-19235871D02*
G01*
X8227694Y-19244547D01*
X8227693Y-19244548D01*
X8198493Y-19316780D01*
X6040818Y-24654188D01*
X5971880Y-24824718D01*
X5963622Y-24841455D01*
X5923726Y-24909160D01*
X5902904Y-24944495D01*
X5879463Y-24973433D01*
X5798254Y-25047829D01*
X5767381Y-25068649D01*
X5667975Y-25116055D01*
X5632361Y-25126941D01*
X5514074Y-25144616D01*
X5495453Y-25146000D01*
X5393354Y-25146000D01*
X5325233Y-25125998D01*
X5278740Y-25072342D01*
X5267354Y-25020000D01*
X5267354Y-24910115D01*
X5262879Y-24894876D01*
X5261489Y-24893671D01*
X5253806Y-24892000D01*
X2269470Y-24892000D01*
X2254231Y-24896475D01*
X2253025Y-24897867D01*
X2249001Y-24916364D01*
X2214976Y-24978676D01*
X2152664Y-25012701D01*
X2081848Y-25007636D01*
X2025919Y-24966284D01*
X1982086Y-24909160D01*
X1965639Y-24880674D01*
X1928385Y-24790735D01*
X1919872Y-24758963D01*
X1906078Y-24654188D01*
X1905000Y-24637742D01*
X1905000Y-23593328D01*
X2251354Y-23593328D01*
X2251355Y-24365885D01*
X2255830Y-24381124D01*
X2257220Y-24382329D01*
X2264903Y-24384000D01*
X3487239Y-24384000D01*
X3502478Y-24379525D01*
X3503683Y-24378135D01*
X3505354Y-24370452D01*
X3505354Y-24365885D01*
X4013354Y-24365885D01*
X4017829Y-24381124D01*
X4019219Y-24382329D01*
X4026902Y-24384000D01*
X5249239Y-24384000D01*
X5264478Y-24379525D01*
X5265683Y-24378135D01*
X5267354Y-24370452D01*
X5267353Y-23593331D01*
X5266983Y-23586510D01*
X5261459Y-23535648D01*
X5257833Y-23520396D01*
X5212678Y-23399946D01*
X5204140Y-23384351D01*
X5127639Y-23282276D01*
X5115078Y-23269715D01*
X5013003Y-23193214D01*
X4997408Y-23184676D01*
X4876960Y-23139522D01*
X4861705Y-23135895D01*
X4810840Y-23130369D01*
X4804026Y-23130000D01*
X4031469Y-23130000D01*
X4016230Y-23134475D01*
X4015025Y-23135865D01*
X4013354Y-23143548D01*
X4013354Y-24365885D01*
X3505354Y-24365885D01*
X3505354Y-23148116D01*
X3500879Y-23132877D01*
X3499489Y-23131672D01*
X3491806Y-23130001D01*
X2714685Y-23130001D01*
X2707864Y-23130371D01*
X2657002Y-23135895D01*
X2641750Y-23139521D01*
X2521300Y-23184676D01*
X2505705Y-23193214D01*
X2403630Y-23269715D01*
X2391069Y-23282276D01*
X2314568Y-23384351D01*
X2306030Y-23399946D01*
X2260876Y-23520394D01*
X2257249Y-23535649D01*
X2251723Y-23586514D01*
X2251354Y-23593328D01*
X1905000Y-23593328D01*
X1905000Y-23423627D01*
X1906728Y-23402832D01*
X1928759Y-23271175D01*
X1942299Y-23231850D01*
X2005993Y-23114536D01*
X2017434Y-23097085D01*
X4584361Y-19811418D01*
X5080000Y-19177000D01*
X8255000Y-19177000D01*
X8231201Y-19235871D01*
G37*
%TD.AperFunction*%
%TD*%
%TA.AperFunction,Conductor*%
%TO.N,+5V*%
G36*
X27067188Y-23750078D02*
G01*
X27171963Y-23763872D01*
X27203735Y-23772385D01*
X27293674Y-23809639D01*
X27322160Y-23826086D01*
X27399393Y-23885349D01*
X27422651Y-23908607D01*
X27481914Y-23985840D01*
X27498361Y-24014326D01*
X27535615Y-24104265D01*
X27544128Y-24136037D01*
X27557922Y-24240812D01*
X27559000Y-24257258D01*
X27559000Y-24383742D01*
X27557922Y-24400188D01*
X27544128Y-24504963D01*
X27535615Y-24536735D01*
X27498361Y-24626674D01*
X27481914Y-24655160D01*
X27422651Y-24732393D01*
X27399393Y-24755651D01*
X27322160Y-24814914D01*
X27293674Y-24831361D01*
X27203735Y-24868615D01*
X27171963Y-24877128D01*
X27067188Y-24890922D01*
X27050742Y-24892000D01*
X22860000Y-24892000D01*
X22783029Y-24917657D01*
X22783025Y-24917658D01*
X22427615Y-25036128D01*
X22427613Y-25036129D01*
X22098000Y-25146000D01*
X21971000Y-28829000D01*
X23610929Y-29353777D01*
X24788907Y-29730730D01*
X24807270Y-29738246D01*
X24882097Y-29776006D01*
X24915844Y-29793035D01*
X24920657Y-29795464D01*
X24952739Y-29818610D01*
X25035653Y-29901063D01*
X25058977Y-29933016D01*
X25112233Y-30037107D01*
X25124500Y-30074717D01*
X25144438Y-30200149D01*
X25146000Y-30219929D01*
X25146000Y-31421209D01*
X25144663Y-31439516D01*
X25127579Y-31555852D01*
X25117053Y-31590919D01*
X25071183Y-31689009D01*
X25051019Y-31719570D01*
X24978884Y-31800332D01*
X24950788Y-31823804D01*
X24883011Y-31865372D01*
X24858480Y-31880417D01*
X24824820Y-31894820D01*
X24711138Y-31924884D01*
X24693105Y-31928271D01*
X21578093Y-32280914D01*
X18415000Y-32639000D01*
X18376027Y-32649751D01*
X18376012Y-32649755D01*
X14883765Y-33613133D01*
X14883761Y-33613134D01*
X14879253Y-33614378D01*
X14879250Y-33614379D01*
X14732000Y-33655000D01*
X14629556Y-33774518D01*
X14629550Y-33774524D01*
X12447433Y-36320329D01*
X11350572Y-37600000D01*
X11077559Y-37918515D01*
X11064839Y-37931361D01*
X11000534Y-37987588D01*
X10977583Y-38007655D01*
X10947296Y-38027273D01*
X10850319Y-38071876D01*
X10815713Y-38082104D01*
X10701010Y-38098701D01*
X10682966Y-38100000D01*
X10067458Y-38100000D01*
X9999337Y-38079998D01*
X9952844Y-38026342D01*
X9942740Y-37956068D01*
X9972234Y-37891488D01*
X10023228Y-37856018D01*
X10094434Y-37829324D01*
X10110029Y-37820786D01*
X10212104Y-37744285D01*
X10224665Y-37731724D01*
X10301166Y-37629649D01*
X10309704Y-37614054D01*
X10354858Y-37493606D01*
X10358485Y-37478351D01*
X10364011Y-37427486D01*
X10364380Y-37420672D01*
X10364380Y-36848115D01*
X10359905Y-36832876D01*
X10358515Y-36831671D01*
X10350832Y-36830000D01*
X8928380Y-36830000D01*
X8860259Y-36809998D01*
X8813766Y-36756342D01*
X8802380Y-36704000D01*
X8802380Y-36303885D01*
X9310380Y-36303885D01*
X9314855Y-36319124D01*
X9316245Y-36320329D01*
X9323928Y-36322000D01*
X10346264Y-36322000D01*
X10361503Y-36317525D01*
X10362708Y-36316135D01*
X10364379Y-36308452D01*
X10364379Y-35731331D01*
X10364009Y-35724510D01*
X10358485Y-35673648D01*
X10354859Y-35658396D01*
X10309704Y-35537946D01*
X10301166Y-35522351D01*
X10224665Y-35420276D01*
X10212104Y-35407715D01*
X10110029Y-35331214D01*
X10094434Y-35322676D01*
X9973986Y-35277522D01*
X9958731Y-35273895D01*
X9907866Y-35268369D01*
X9901052Y-35268000D01*
X9328495Y-35268001D01*
X9313256Y-35272476D01*
X9312051Y-35273866D01*
X9310380Y-35281549D01*
X9310380Y-36303885D01*
X8802380Y-36303885D01*
X8802380Y-35286116D01*
X8793754Y-35256739D01*
X8793754Y-35185743D01*
X8803531Y-35161839D01*
X8861474Y-35053449D01*
X8872636Y-35036140D01*
X10711147Y-32640506D01*
X12876788Y-29818610D01*
X12892825Y-29797713D01*
X12900422Y-29788717D01*
X12951873Y-29733272D01*
X12969414Y-29717598D01*
X13030276Y-29672682D01*
X13040065Y-29666141D01*
X22733617Y-23825154D01*
X22748801Y-23817355D01*
X22849294Y-23774068D01*
X22882110Y-23764945D01*
X22990525Y-23750156D01*
X23007555Y-23749000D01*
X27050742Y-23749000D01*
X27067188Y-23750078D01*
G37*
%TD.AperFunction*%
%TD*%
%TA.AperFunction,Conductor*%
%TO.N,Net-(D201-Pad1)*%
G36*
X14367188Y-5208078D02*
G01*
X14471963Y-5221872D01*
X14503735Y-5230385D01*
X14593674Y-5267639D01*
X14622160Y-5284086D01*
X14699393Y-5343349D01*
X14722651Y-5366607D01*
X14781914Y-5443840D01*
X14798361Y-5472326D01*
X14835615Y-5562265D01*
X14844128Y-5594037D01*
X14857922Y-5698812D01*
X14859000Y-5715258D01*
X14859000Y-7070593D01*
X14857931Y-7086970D01*
X14844254Y-7191307D01*
X14835812Y-7222953D01*
X14798865Y-7312575D01*
X14782553Y-7340976D01*
X14723755Y-7418049D01*
X14700673Y-7441286D01*
X14617441Y-7505672D01*
X14603836Y-7514846D01*
X13335000Y-8255000D01*
X13335000Y-10541000D01*
X13463353Y-10683614D01*
X13465918Y-10686464D01*
X13465926Y-10686474D01*
X14344495Y-11662663D01*
X14354066Y-11674700D01*
X14410640Y-11755527D01*
X14425050Y-11782638D01*
X14457616Y-11867504D01*
X14465041Y-11897294D01*
X14477061Y-11995218D01*
X14478000Y-12010569D01*
X14478000Y-13094660D01*
X14476510Y-13113982D01*
X14457482Y-13236594D01*
X14445770Y-13273420D01*
X14394862Y-13375692D01*
X14372540Y-13407237D01*
X14293031Y-13489270D01*
X14262199Y-13512566D01*
X14161564Y-13566646D01*
X14125129Y-13579500D01*
X14003169Y-13602348D01*
X13983910Y-13604440D01*
X11406631Y-13684980D01*
X10938034Y-13699624D01*
X10921237Y-13699027D01*
X10896945Y-13696534D01*
X10814037Y-13688026D01*
X10781428Y-13680192D01*
X10688849Y-13644362D01*
X10659464Y-13628202D01*
X10579623Y-13569217D01*
X10555537Y-13545873D01*
X10494089Y-13467915D01*
X10477017Y-13439043D01*
X10438315Y-13347636D01*
X10429464Y-13315280D01*
X10423843Y-13273420D01*
X10415121Y-13208478D01*
X10414000Y-13191707D01*
X10414000Y-11851636D01*
X10414092Y-11846826D01*
X10415273Y-11815914D01*
X10416006Y-11806333D01*
X10419538Y-11775612D01*
X10420178Y-11770844D01*
X10909337Y-8591310D01*
X10911202Y-8581694D01*
X10925577Y-8520412D01*
X10931513Y-8501761D01*
X10955210Y-8443433D01*
X10959246Y-8434510D01*
X11401613Y-7549775D01*
X11402473Y-7548055D01*
X11402476Y-7548048D01*
X11430000Y-7493000D01*
X11458223Y-7366000D01*
X11849144Y-5606852D01*
X11853950Y-5590527D01*
X11858730Y-5577590D01*
X11891766Y-5488167D01*
X11907725Y-5458180D01*
X11966483Y-5376621D01*
X11989874Y-5351987D01*
X12068283Y-5289090D01*
X12097403Y-5271601D01*
X12106628Y-5267639D01*
X12189767Y-5231934D01*
X12222499Y-5222860D01*
X12281079Y-5214891D01*
X12330634Y-5208150D01*
X12347618Y-5207000D01*
X14350742Y-5207000D01*
X14367188Y-5208078D01*
G37*
%TD.AperFunction*%
%TD*%
%TA.AperFunction,Conductor*%
%TO.N,+12V*%
G36*
X6105793Y-17273551D02*
G01*
X6194029Y-17287526D01*
X6231514Y-17299706D01*
X6302168Y-17335707D01*
X6334057Y-17358876D01*
X6390124Y-17414943D01*
X6413293Y-17446832D01*
X6449294Y-17517486D01*
X6461474Y-17554971D01*
X6477000Y-17653000D01*
X6477000Y-18034000D01*
X8497277Y-18034000D01*
X8498665Y-18034008D01*
X8500033Y-18034023D01*
X8507579Y-18034106D01*
X8510363Y-18034168D01*
X8519383Y-18034468D01*
X8520765Y-18034521D01*
X13011875Y-18233242D01*
X15684500Y-18351500D01*
X22860000Y-18669000D01*
X27050742Y-18669000D01*
X27067188Y-18670078D01*
X27171963Y-18683872D01*
X27203735Y-18692385D01*
X27293674Y-18729639D01*
X27322160Y-18746086D01*
X27399393Y-18805349D01*
X27422651Y-18828607D01*
X27481914Y-18905840D01*
X27498361Y-18934326D01*
X27535615Y-19024265D01*
X27544128Y-19056037D01*
X27557922Y-19160812D01*
X27559000Y-19177258D01*
X27559000Y-19303742D01*
X27557922Y-19320188D01*
X27544128Y-19424963D01*
X27535615Y-19456735D01*
X27498361Y-19546674D01*
X27481914Y-19575160D01*
X27422651Y-19652393D01*
X27399393Y-19675651D01*
X27322160Y-19734914D01*
X27293674Y-19751361D01*
X27203735Y-19788615D01*
X27171963Y-19797128D01*
X27067188Y-19810922D01*
X27050742Y-19812000D01*
X22885645Y-19812000D01*
X22882606Y-19811963D01*
X22879882Y-19811897D01*
X22863060Y-19811491D01*
X22857023Y-19811200D01*
X22837434Y-19809781D01*
X22834481Y-19809530D01*
X20118298Y-19546674D01*
X18941642Y-19432804D01*
X18941635Y-19432803D01*
X18923000Y-19431000D01*
X13295899Y-19295407D01*
X8388021Y-19177145D01*
X8388007Y-19177145D01*
X8382000Y-19177000D01*
X5080000Y-19177000D01*
X5080000Y-17780258D01*
X5081078Y-17763812D01*
X5094872Y-17659037D01*
X5103385Y-17627265D01*
X5140639Y-17537326D01*
X5157086Y-17508840D01*
X5216349Y-17431607D01*
X5239607Y-17408349D01*
X5316840Y-17349086D01*
X5345326Y-17332639D01*
X5435265Y-17295385D01*
X5467037Y-17286872D01*
X5571812Y-17273078D01*
X5588258Y-17272000D01*
X6086083Y-17272000D01*
X6105793Y-17273551D01*
G37*
%TD.AperFunction*%
%TD*%
%TA.AperFunction,Conductor*%
%TO.N,GND*%
G36*
X23257188Y-6351078D02*
G01*
X23361963Y-6364872D01*
X23393735Y-6373385D01*
X23483674Y-6410639D01*
X23512160Y-6427086D01*
X23589393Y-6486349D01*
X23612651Y-6509607D01*
X23671914Y-6586840D01*
X23688361Y-6615326D01*
X23725615Y-6705265D01*
X23734128Y-6737037D01*
X23747922Y-6841812D01*
X23749000Y-6858258D01*
X23749000Y-7595044D01*
X23728998Y-7663165D01*
X23675342Y-7709658D01*
X23605068Y-7719762D01*
X23540488Y-7690268D01*
X23506591Y-7643262D01*
X23447687Y-7501054D01*
X23443205Y-7492259D01*
X23340568Y-7324772D01*
X23330110Y-7315310D01*
X23321334Y-7319093D01*
X22470022Y-8170405D01*
X22462408Y-8184349D01*
X22462539Y-8186182D01*
X22466790Y-8192797D01*
X23318290Y-9044297D01*
X23330670Y-9051057D01*
X23338320Y-9045330D01*
X23443205Y-8874175D01*
X23447687Y-8865380D01*
X23506591Y-8723172D01*
X23551139Y-8667891D01*
X23618503Y-8645470D01*
X23687294Y-8663028D01*
X23735672Y-8714990D01*
X23749000Y-8771390D01*
X23749000Y-9796678D01*
X23747526Y-9815897D01*
X23728699Y-9937880D01*
X23717109Y-9974531D01*
X23666720Y-10076387D01*
X23644619Y-10107838D01*
X23565859Y-10189768D01*
X23535306Y-10213091D01*
X23435513Y-10267460D01*
X23399353Y-10280485D01*
X23368658Y-10286470D01*
X23278205Y-10304108D01*
X23259060Y-10306339D01*
X15090376Y-10628788D01*
X14625181Y-10647151D01*
X14608293Y-10646684D01*
X14500470Y-10636439D01*
X14467634Y-10628788D01*
X14374373Y-10593352D01*
X14344744Y-10577269D01*
X14264219Y-10518374D01*
X14239914Y-10495010D01*
X14177888Y-10416871D01*
X14160648Y-10387897D01*
X14121561Y-10296103D01*
X14112622Y-10263596D01*
X14098133Y-10156266D01*
X14097000Y-10139410D01*
X14097000Y-9415887D01*
X21230160Y-9415887D01*
X21235887Y-9423537D01*
X21407042Y-9528422D01*
X21415837Y-9532904D01*
X21625988Y-9619951D01*
X21635373Y-9623000D01*
X21856554Y-9676102D01*
X21866301Y-9677645D01*
X22093070Y-9695492D01*
X22102930Y-9695492D01*
X22329699Y-9677645D01*
X22339446Y-9676102D01*
X22560627Y-9623000D01*
X22570012Y-9619951D01*
X22780163Y-9532904D01*
X22788958Y-9528422D01*
X22956445Y-9425785D01*
X22965907Y-9415327D01*
X22962124Y-9406551D01*
X22110812Y-8555239D01*
X22096868Y-8547625D01*
X22095035Y-8547756D01*
X22088420Y-8552007D01*
X21236920Y-9403507D01*
X21230160Y-9415887D01*
X14097000Y-9415887D01*
X14097000Y-9051037D01*
X14098025Y-9035001D01*
X14111140Y-8932791D01*
X14119237Y-8901757D01*
X14154704Y-8813691D01*
X14170374Y-8785708D01*
X14226924Y-8709451D01*
X14249152Y-8686330D01*
X14329443Y-8621737D01*
X14342580Y-8612483D01*
X15034918Y-8188147D01*
X20585725Y-8188147D01*
X20603572Y-8414916D01*
X20605115Y-8424663D01*
X20658217Y-8645844D01*
X20661266Y-8655229D01*
X20748313Y-8865380D01*
X20752795Y-8874175D01*
X20855432Y-9041662D01*
X20865890Y-9051124D01*
X20874666Y-9047341D01*
X21725978Y-8196029D01*
X21733592Y-8182085D01*
X21733461Y-8180252D01*
X21729210Y-8173637D01*
X20877710Y-7322137D01*
X20865330Y-7315377D01*
X20857680Y-7321104D01*
X20752795Y-7492259D01*
X20748313Y-7501054D01*
X20661266Y-7711205D01*
X20658217Y-7720590D01*
X20605115Y-7941771D01*
X20603572Y-7951518D01*
X20585725Y-8178287D01*
X20585725Y-8188147D01*
X15034918Y-8188147D01*
X15251854Y-8055186D01*
X17053247Y-6951107D01*
X21230093Y-6951107D01*
X21233876Y-6959883D01*
X22085188Y-7811195D01*
X22099132Y-7818809D01*
X22100965Y-7818678D01*
X22107580Y-7814427D01*
X22959080Y-6962927D01*
X22965840Y-6950547D01*
X22960113Y-6942897D01*
X22788958Y-6838012D01*
X22780163Y-6833530D01*
X22570012Y-6746483D01*
X22560627Y-6743434D01*
X22339446Y-6690332D01*
X22329699Y-6688789D01*
X22102930Y-6670942D01*
X22093070Y-6670942D01*
X21866301Y-6688789D01*
X21856554Y-6690332D01*
X21635373Y-6743434D01*
X21625988Y-6746483D01*
X21415837Y-6833530D01*
X21407042Y-6838012D01*
X21239555Y-6940649D01*
X21230093Y-6951107D01*
X17053247Y-6951107D01*
X17906370Y-6428225D01*
X17921692Y-6420227D01*
X18023331Y-6375762D01*
X18056558Y-6366389D01*
X18166453Y-6351187D01*
X18183706Y-6350000D01*
X23240742Y-6350000D01*
X23257188Y-6351078D01*
G37*
%TD.AperFunction*%
%TD*%
%TA.AperFunction,Conductor*%
%TO.N,Net-(C201-Pad1)*%
G36*
X23892188Y-11177078D02*
G01*
X23996963Y-11190872D01*
X24028735Y-11199385D01*
X24118674Y-11236639D01*
X24147160Y-11253086D01*
X24224393Y-11312349D01*
X24247651Y-11335607D01*
X24306914Y-11412840D01*
X24323361Y-11441326D01*
X24360615Y-11531265D01*
X24369128Y-11563037D01*
X24382922Y-11667812D01*
X24384000Y-11684258D01*
X24384000Y-14219048D01*
X24382946Y-14235308D01*
X24374421Y-14300821D01*
X24369463Y-14338917D01*
X24361139Y-14370356D01*
X24324698Y-14459453D01*
X24308606Y-14487713D01*
X24250578Y-14564512D01*
X24227790Y-14587710D01*
X24159508Y-14641243D01*
X24152036Y-14647101D01*
X24124067Y-14663695D01*
X24028076Y-14704969D01*
X24012722Y-14710424D01*
X23365198Y-14894289D01*
X23294204Y-14893655D01*
X23287540Y-14889288D01*
X23237594Y-14929626D01*
X23223676Y-14934474D01*
X14168162Y-17505793D01*
X14159708Y-17507881D01*
X14104877Y-17519425D01*
X14087626Y-17521827D01*
X14040267Y-17525108D01*
X14031733Y-17525699D01*
X14023026Y-17526000D01*
X10567515Y-17526000D01*
X10564375Y-17525961D01*
X10555067Y-17525729D01*
X10544157Y-17525457D01*
X10537897Y-17525144D01*
X10517764Y-17523637D01*
X10514686Y-17523368D01*
X7738316Y-17245732D01*
X7190488Y-17190949D01*
X7172245Y-17187757D01*
X7118795Y-17174292D01*
X7057208Y-17158777D01*
X7023102Y-17144602D01*
X6929461Y-17088342D01*
X6900929Y-17064883D01*
X6827628Y-16983886D01*
X6807124Y-16953161D01*
X6760461Y-16854387D01*
X6749749Y-16819035D01*
X6732361Y-16701691D01*
X6731000Y-16683222D01*
X6731000Y-16256258D01*
X6732078Y-16239812D01*
X6745872Y-16135037D01*
X6754385Y-16103265D01*
X6791639Y-16013326D01*
X6808086Y-15984840D01*
X6867349Y-15907607D01*
X6890607Y-15884349D01*
X6967840Y-15825086D01*
X6996326Y-15808639D01*
X7086265Y-15771385D01*
X7118037Y-15762872D01*
X7222812Y-15749078D01*
X7239258Y-15748000D01*
X8439366Y-15748000D01*
X8447570Y-15748267D01*
X8500244Y-15751704D01*
X8516510Y-15753836D01*
X8551465Y-15760756D01*
X8568283Y-15764086D01*
X8576264Y-15765938D01*
X9446500Y-15998000D01*
X10414000Y-16256000D01*
X14097000Y-16256000D01*
X14265328Y-16118590D01*
X16581440Y-14227886D01*
X20590001Y-14227886D01*
X20590371Y-14234707D01*
X20595895Y-14285569D01*
X20599521Y-14300821D01*
X20644676Y-14421271D01*
X20653214Y-14436866D01*
X20729715Y-14538941D01*
X20742276Y-14551502D01*
X20844351Y-14628003D01*
X20859946Y-14636541D01*
X20980394Y-14681695D01*
X20995649Y-14685322D01*
X21046514Y-14690848D01*
X21053328Y-14691217D01*
X21825885Y-14691217D01*
X21841124Y-14686742D01*
X21842329Y-14685352D01*
X21844000Y-14677669D01*
X21844000Y-14673101D01*
X22352000Y-14673101D01*
X22356475Y-14688340D01*
X22357865Y-14689545D01*
X22365548Y-14691216D01*
X23142669Y-14691216D01*
X23149493Y-14690846D01*
X23175647Y-14688006D01*
X23235197Y-14698683D01*
X23263610Y-14666479D01*
X23286551Y-14655099D01*
X23336054Y-14636541D01*
X23351649Y-14628003D01*
X23453724Y-14551502D01*
X23466285Y-14538941D01*
X23542786Y-14436866D01*
X23551324Y-14421271D01*
X23596478Y-14300823D01*
X23600105Y-14285568D01*
X23605631Y-14234703D01*
X23606000Y-14227889D01*
X23606000Y-13455332D01*
X23601525Y-13440093D01*
X23600135Y-13438888D01*
X23592452Y-13437217D01*
X22370115Y-13437217D01*
X22354876Y-13441692D01*
X22353671Y-13443082D01*
X22352000Y-13450765D01*
X22352000Y-14673101D01*
X21844000Y-14673101D01*
X21844000Y-13455332D01*
X21839525Y-13440093D01*
X21838135Y-13438888D01*
X21830452Y-13437217D01*
X20608116Y-13437217D01*
X20592877Y-13441692D01*
X20591672Y-13443082D01*
X20590001Y-13450765D01*
X20590001Y-14227886D01*
X16581440Y-14227886D01*
X18194500Y-12911102D01*
X20590000Y-12911102D01*
X20594475Y-12926341D01*
X20595865Y-12927546D01*
X20603548Y-12929217D01*
X21825885Y-12929217D01*
X21841124Y-12924742D01*
X21842329Y-12923352D01*
X21844000Y-12915669D01*
X21844000Y-12911102D01*
X22352000Y-12911102D01*
X22356475Y-12926341D01*
X22357865Y-12927546D01*
X22365548Y-12929217D01*
X23587884Y-12929217D01*
X23603123Y-12924742D01*
X23604328Y-12923352D01*
X23605999Y-12915669D01*
X23605999Y-12138548D01*
X23605629Y-12131727D01*
X23600105Y-12080865D01*
X23596479Y-12065613D01*
X23551324Y-11945163D01*
X23542786Y-11929568D01*
X23466285Y-11827493D01*
X23453724Y-11814932D01*
X23351649Y-11738431D01*
X23336054Y-11729893D01*
X23215606Y-11684739D01*
X23200351Y-11681112D01*
X23149486Y-11675586D01*
X23142672Y-11675217D01*
X22370115Y-11675217D01*
X22354876Y-11679692D01*
X22353671Y-11681082D01*
X22352000Y-11688765D01*
X22352000Y-12911102D01*
X21844000Y-12911102D01*
X21844000Y-11693333D01*
X21839525Y-11678094D01*
X21838135Y-11676889D01*
X21830452Y-11675218D01*
X21053331Y-11675218D01*
X21046510Y-11675588D01*
X20995648Y-11681112D01*
X20980396Y-11684738D01*
X20859946Y-11729893D01*
X20844351Y-11738431D01*
X20742276Y-11814932D01*
X20729715Y-11827493D01*
X20653214Y-11929568D01*
X20644676Y-11945163D01*
X20599522Y-12065611D01*
X20595895Y-12080866D01*
X20590369Y-12131731D01*
X20590000Y-12138545D01*
X20590000Y-12911102D01*
X18194500Y-12911102D01*
X20173608Y-11295503D01*
X20191396Y-11283359D01*
X20311366Y-11215707D01*
X20351795Y-11201300D01*
X20487518Y-11177841D01*
X20508977Y-11176000D01*
X23875742Y-11176000D01*
X23892188Y-11177078D01*
G37*
%TD.AperFunction*%
%TD*%
%TA.AperFunction,Conductor*%
%TO.N,Net-(D203-Pad1)*%
G36*
X18514532Y-19939054D02*
G01*
X18522443Y-19939286D01*
X18538265Y-19939749D01*
X18545623Y-19940180D01*
X18561390Y-19941569D01*
X18569269Y-19942263D01*
X18572935Y-19942640D01*
X20529330Y-20172804D01*
X22860000Y-20447000D01*
X26796742Y-20447000D01*
X26813188Y-20448078D01*
X26917963Y-20461872D01*
X26949735Y-20470385D01*
X27039674Y-20507639D01*
X27068160Y-20524086D01*
X27145393Y-20583349D01*
X27168651Y-20606607D01*
X27227914Y-20683840D01*
X27244361Y-20712326D01*
X27281615Y-20802265D01*
X27290128Y-20834037D01*
X27303888Y-20938554D01*
X27303888Y-20971446D01*
X27290128Y-21075963D01*
X27281615Y-21107735D01*
X27244361Y-21197674D01*
X27227914Y-21226160D01*
X27168651Y-21303393D01*
X27145393Y-21326651D01*
X27068160Y-21385914D01*
X27039674Y-21402361D01*
X26949735Y-21439615D01*
X26917963Y-21448128D01*
X26813188Y-21461922D01*
X26796742Y-21463000D01*
X22860000Y-21463000D01*
X22786810Y-21486002D01*
X22786808Y-21486003D01*
X20637500Y-22161500D01*
X18492770Y-22835558D01*
X18483519Y-22838083D01*
X18423474Y-22852040D01*
X18404530Y-22854947D01*
X18379274Y-22856873D01*
X18343063Y-22859635D01*
X18333481Y-22860000D01*
X13081000Y-22860000D01*
X12931609Y-23071864D01*
X12928712Y-23075973D01*
X6251190Y-32545912D01*
X6238355Y-32561340D01*
X6148617Y-32653221D01*
X6116477Y-32677040D01*
X6011497Y-32731470D01*
X5973511Y-32744010D01*
X5846700Y-32764402D01*
X5826696Y-32766000D01*
X3937258Y-32766000D01*
X3920812Y-32764922D01*
X3816037Y-32751128D01*
X3784265Y-32742615D01*
X3694326Y-32705361D01*
X3665840Y-32688914D01*
X3588607Y-32629651D01*
X3565349Y-32606393D01*
X3506086Y-32529160D01*
X3489639Y-32500674D01*
X3452385Y-32410735D01*
X3443872Y-32378963D01*
X3430078Y-32274188D01*
X3429000Y-32257742D01*
X3429000Y-31057877D01*
X3429916Y-31042715D01*
X3441642Y-30945980D01*
X3448886Y-30916535D01*
X3480675Y-30832557D01*
X3494745Y-30805695D01*
X3550021Y-30725437D01*
X3559376Y-30713469D01*
X11754875Y-21439615D01*
X12925841Y-20114575D01*
X12938513Y-20102127D01*
X13025197Y-20028239D01*
X13055146Y-20009266D01*
X13150774Y-19966156D01*
X13184819Y-19956279D01*
X13297593Y-19940252D01*
X13315308Y-19939000D01*
X18510844Y-19939000D01*
X18514532Y-19939054D01*
G37*
%TD.AperFunction*%
%TD*%
%TA.AperFunction,Conductor*%
%TO.N,/Power supply/12V_in*%
G36*
X9414188Y-4573078D02*
G01*
X9518963Y-4586872D01*
X9550735Y-4595385D01*
X9640674Y-4632639D01*
X9669160Y-4649086D01*
X9746393Y-4708349D01*
X9769651Y-4731607D01*
X9828914Y-4808840D01*
X9845361Y-4837326D01*
X9882615Y-4927265D01*
X9891128Y-4959037D01*
X9904922Y-5063812D01*
X9906000Y-5080258D01*
X9906000Y-8059832D01*
X9905744Y-8067864D01*
X9902449Y-8119451D01*
X9900404Y-8135388D01*
X9890575Y-8186113D01*
X9888796Y-8193949D01*
X9243605Y-10667180D01*
X9238379Y-10682898D01*
X9198321Y-10781261D01*
X9181944Y-10809977D01*
X9122741Y-10887877D01*
X9099468Y-10911336D01*
X9022035Y-10971160D01*
X8993460Y-10987759D01*
X8940448Y-11009840D01*
X8869874Y-11017569D01*
X8806325Y-10985916D01*
X8769976Y-10924930D01*
X8766000Y-10893527D01*
X8766000Y-10490615D01*
X8761525Y-10475376D01*
X8760135Y-10474171D01*
X8752452Y-10472500D01*
X4268116Y-10472500D01*
X4252877Y-10476975D01*
X4251672Y-10478365D01*
X4250001Y-10486048D01*
X4250001Y-10923000D01*
X4229999Y-10991121D01*
X4176343Y-11037614D01*
X4124001Y-11049000D01*
X3810258Y-11049000D01*
X3793812Y-11047922D01*
X3689037Y-11034128D01*
X3657265Y-11025615D01*
X3567326Y-10988361D01*
X3538840Y-10971914D01*
X3461607Y-10912651D01*
X3438349Y-10889393D01*
X3379086Y-10812160D01*
X3362639Y-10783674D01*
X3325385Y-10693735D01*
X3316872Y-10661963D01*
X3303078Y-10557188D01*
X3302000Y-10540742D01*
X3302000Y-8423828D01*
X4250000Y-8423828D01*
X4250001Y-9946385D01*
X4254476Y-9961624D01*
X4255866Y-9962829D01*
X4263549Y-9964500D01*
X6235885Y-9964500D01*
X6251124Y-9960025D01*
X6252329Y-9958635D01*
X6254000Y-9950952D01*
X6254000Y-9946385D01*
X6762000Y-9946385D01*
X6766475Y-9961624D01*
X6767865Y-9962829D01*
X6775548Y-9964500D01*
X8747885Y-9964500D01*
X8763124Y-9960025D01*
X8764329Y-9958635D01*
X8766000Y-9950952D01*
X8765999Y-8423831D01*
X8765629Y-8417010D01*
X8760105Y-8366148D01*
X8756479Y-8350896D01*
X8711324Y-8230446D01*
X8702786Y-8214851D01*
X8626285Y-8112776D01*
X8613724Y-8100215D01*
X8511649Y-8023714D01*
X8496054Y-8015176D01*
X8375606Y-7970022D01*
X8360351Y-7966395D01*
X8309486Y-7960869D01*
X8302672Y-7960500D01*
X6780115Y-7960500D01*
X6764876Y-7964975D01*
X6763671Y-7966365D01*
X6762000Y-7974048D01*
X6762000Y-9946385D01*
X6254000Y-9946385D01*
X6254000Y-7978616D01*
X6249525Y-7963377D01*
X6248135Y-7962172D01*
X6240452Y-7960501D01*
X4713331Y-7960501D01*
X4706510Y-7960871D01*
X4655648Y-7966395D01*
X4640396Y-7970021D01*
X4519946Y-8015176D01*
X4504351Y-8023714D01*
X4402276Y-8100215D01*
X4389715Y-8112776D01*
X4313214Y-8214851D01*
X4304676Y-8230446D01*
X4259522Y-8350894D01*
X4255895Y-8366149D01*
X4250369Y-8417014D01*
X4250000Y-8423828D01*
X3302000Y-8423828D01*
X3302000Y-5080258D01*
X3303078Y-5063812D01*
X3316872Y-4959037D01*
X3325385Y-4927265D01*
X3362639Y-4837326D01*
X3379086Y-4808840D01*
X3438349Y-4731607D01*
X3461607Y-4708349D01*
X3538840Y-4649086D01*
X3567326Y-4632639D01*
X3657265Y-4595385D01*
X3689037Y-4586872D01*
X3793812Y-4573078D01*
X3810258Y-4572000D01*
X9397742Y-4572000D01*
X9414188Y-4573078D01*
G37*
%TD.AperFunction*%
%TD*%
%TA.AperFunction,Conductor*%
%TO.N,+3V3*%
G36*
X27067188Y-29846078D02*
G01*
X27171963Y-29859872D01*
X27203735Y-29868385D01*
X27293674Y-29905639D01*
X27322160Y-29922086D01*
X27399393Y-29981349D01*
X27422651Y-30004607D01*
X27481914Y-30081840D01*
X27498361Y-30110326D01*
X27535615Y-30200265D01*
X27544128Y-30232037D01*
X27557922Y-30336812D01*
X27559000Y-30353258D01*
X27559000Y-31877000D01*
X27940000Y-32385000D01*
X28144323Y-32417261D01*
X28144325Y-32417262D01*
X28581345Y-32486265D01*
X30353000Y-32766000D01*
X32258000Y-32766000D01*
X32740712Y-32283288D01*
X32753094Y-32272428D01*
X32836948Y-32208084D01*
X32865431Y-32191640D01*
X32955372Y-32154385D01*
X32987144Y-32145872D01*
X33091919Y-32132078D01*
X33108365Y-32131000D01*
X34162742Y-32131000D01*
X34179188Y-32132078D01*
X34283963Y-32145872D01*
X34315735Y-32154385D01*
X34405674Y-32191639D01*
X34434160Y-32208086D01*
X34511393Y-32267349D01*
X34534651Y-32290607D01*
X34593914Y-32367840D01*
X34610361Y-32396326D01*
X34647615Y-32486265D01*
X34656128Y-32518037D01*
X34669922Y-32622812D01*
X34671000Y-32639258D01*
X34671000Y-32932762D01*
X34669650Y-32951159D01*
X34652396Y-33068062D01*
X34641766Y-33103288D01*
X34595456Y-33201758D01*
X34575103Y-33232411D01*
X34502320Y-33313304D01*
X34473980Y-33336770D01*
X34408713Y-33376343D01*
X34372934Y-33398037D01*
X34356510Y-33406417D01*
X32356267Y-34248624D01*
X32356264Y-34248626D01*
X32258000Y-34290000D01*
X32185162Y-34367861D01*
X32185160Y-34367863D01*
X32182898Y-34370281D01*
X32182897Y-34370282D01*
X31368784Y-35240541D01*
X28729077Y-38062297D01*
X28716518Y-38074008D01*
X28631047Y-38143445D01*
X28601749Y-38161239D01*
X28508704Y-38201609D01*
X28475693Y-38210849D01*
X28366593Y-38225829D01*
X28349453Y-38227000D01*
X24765000Y-38227000D01*
X24754384Y-38227452D01*
X24754376Y-38227452D01*
X22777242Y-38311585D01*
X20606354Y-38403964D01*
X20537446Y-38386876D01*
X20488714Y-38335246D01*
X20475632Y-38265465D01*
X20500173Y-38202513D01*
X20548786Y-38137649D01*
X20557324Y-38122054D01*
X20602478Y-38001606D01*
X20606105Y-37986351D01*
X20611631Y-37935486D01*
X20612000Y-37928672D01*
X20612000Y-37356115D01*
X20607525Y-37340876D01*
X20606135Y-37339671D01*
X20598452Y-37338000D01*
X19176000Y-37338000D01*
X19107879Y-37317998D01*
X19061386Y-37264342D01*
X19050000Y-37212000D01*
X19050000Y-36811885D01*
X19558000Y-36811885D01*
X19562475Y-36827124D01*
X19563865Y-36828329D01*
X19571548Y-36830000D01*
X20593884Y-36830000D01*
X20609123Y-36825525D01*
X20610328Y-36824135D01*
X20611999Y-36816452D01*
X20611999Y-36239331D01*
X20611629Y-36232510D01*
X20606105Y-36181648D01*
X20602479Y-36166396D01*
X20557324Y-36045946D01*
X20548786Y-36030351D01*
X20472285Y-35928276D01*
X20459724Y-35915715D01*
X20357649Y-35839214D01*
X20342054Y-35830676D01*
X20221606Y-35785522D01*
X20206351Y-35781895D01*
X20155486Y-35776369D01*
X20148672Y-35776000D01*
X19576115Y-35776000D01*
X19560876Y-35780475D01*
X19559671Y-35781865D01*
X19558000Y-35789548D01*
X19558000Y-36811885D01*
X19050000Y-36811885D01*
X19050000Y-35794116D01*
X19045525Y-35778877D01*
X19044135Y-35777672D01*
X19036452Y-35776001D01*
X18934824Y-35776001D01*
X18866703Y-35755999D01*
X18820210Y-35702343D01*
X18810075Y-35632298D01*
X18813239Y-35610008D01*
X18823090Y-35576006D01*
X18866101Y-35480466D01*
X18885031Y-35450539D01*
X18952927Y-35370746D01*
X18979441Y-35347267D01*
X19066853Y-35289525D01*
X19098853Y-35274351D01*
X19207473Y-35240541D01*
X19224752Y-35236473D01*
X23308990Y-34574164D01*
X23308993Y-34574163D01*
X23314446Y-34573279D01*
X23495000Y-34544000D01*
X25414567Y-32304505D01*
X25434667Y-32285680D01*
X25476081Y-32254642D01*
X25483261Y-32249261D01*
X25570615Y-32132705D01*
X25573767Y-32124297D01*
X25575835Y-32120520D01*
X25590688Y-32099031D01*
X25658205Y-32020261D01*
X25658206Y-32020260D01*
X25781000Y-31877000D01*
X25781000Y-30353258D01*
X25782078Y-30336812D01*
X25795872Y-30232037D01*
X25804385Y-30200265D01*
X25841639Y-30110326D01*
X25858086Y-30081840D01*
X25917349Y-30004607D01*
X25940607Y-29981349D01*
X26017840Y-29922086D01*
X26046326Y-29905639D01*
X26136265Y-29868385D01*
X26168037Y-29859872D01*
X26272812Y-29846078D01*
X26289258Y-29845000D01*
X27050742Y-29845000D01*
X27067188Y-29846078D01*
G37*
%TD.AperFunction*%
%TD*%
M02*
