%TF.GenerationSoftware,KiCad,Pcbnew,6.0.11+dfsg-1~bpo11+1*%
%TF.CreationDate,2023-07-11T21:35:55+02:00*%
%TF.ProjectId,main_board,6d61696e-5f62-46f6-9172-642e6b696361,rev?*%
%TF.SameCoordinates,PX3b1adc0PY158f0b0*%
%TF.FileFunction,Soldermask,Top*%
%TF.FilePolarity,Negative*%
%FSLAX46Y46*%
G04 Gerber Fmt 4.6, Leading zero omitted, Abs format (unit mm)*
G04 Created by KiCad (PCBNEW 6.0.11+dfsg-1~bpo11+1) date 2023-07-11 21:35:55*
%MOMM*%
%LPD*%
G01*
G04 APERTURE LIST*
G04 Aperture macros list*
%AMRoundRect*
0 Rectangle with rounded corners*
0 $1 Rounding radius*
0 $2 $3 $4 $5 $6 $7 $8 $9 X,Y pos of 4 corners*
0 Add a 4 corners polygon primitive as box body*
4,1,4,$2,$3,$4,$5,$6,$7,$8,$9,$2,$3,0*
0 Add four circle primitives for the rounded corners*
1,1,$1+$1,$2,$3*
1,1,$1+$1,$4,$5*
1,1,$1+$1,$6,$7*
1,1,$1+$1,$8,$9*
0 Add four rect primitives between the rounded corners*
20,1,$1+$1,$2,$3,$4,$5,0*
20,1,$1+$1,$4,$5,$6,$7,0*
20,1,$1+$1,$6,$7,$8,$9,0*
20,1,$1+$1,$8,$9,$2,$3,0*%
G04 Aperture macros list end*
%ADD10RoundRect,0.250000X0.312500X0.625000X-0.312500X0.625000X-0.312500X-0.625000X0.312500X-0.625000X0*%
%ADD11R,2.500000X1.800000*%
%ADD12RoundRect,0.250000X-0.620000X-0.845000X0.620000X-0.845000X0.620000X0.845000X-0.620000X0.845000X0*%
%ADD13O,1.740000X2.190000*%
%ADD14R,2.000000X2.000000*%
%ADD15C,2.000000*%
%ADD16RoundRect,0.250000X0.250000X0.475000X-0.250000X0.475000X-0.250000X-0.475000X0.250000X-0.475000X0*%
%ADD17RoundRect,0.200000X0.200000X0.275000X-0.200000X0.275000X-0.200000X-0.275000X0.200000X-0.275000X0*%
%ADD18R,3.500000X3.500000*%
%ADD19RoundRect,0.750000X-0.750000X-1.000000X0.750000X-1.000000X0.750000X1.000000X-0.750000X1.000000X0*%
%ADD20RoundRect,0.875000X-0.875000X-0.875000X0.875000X-0.875000X0.875000X0.875000X-0.875000X0.875000X0*%
%ADD21RoundRect,0.250000X-1.450000X0.312500X-1.450000X-0.312500X1.450000X-0.312500X1.450000X0.312500X0*%
%ADD22RoundRect,0.218750X-0.381250X0.218750X-0.381250X-0.218750X0.381250X-0.218750X0.381250X0.218750X0*%
%ADD23RoundRect,0.200000X-0.200000X-0.275000X0.200000X-0.275000X0.200000X0.275000X-0.200000X0.275000X0*%
%ADD24RoundRect,0.218750X-0.256250X0.218750X-0.256250X-0.218750X0.256250X-0.218750X0.256250X0.218750X0*%
%ADD25RoundRect,0.150000X0.512500X0.150000X-0.512500X0.150000X-0.512500X-0.150000X0.512500X-0.150000X0*%
%ADD26RoundRect,0.200000X-0.275000X0.200000X-0.275000X-0.200000X0.275000X-0.200000X0.275000X0.200000X0*%
%ADD27C,2.340000*%
%ADD28RoundRect,0.150000X0.587500X0.150000X-0.587500X0.150000X-0.587500X-0.150000X0.587500X-0.150000X0*%
%ADD29R,1.400000X1.300000*%
%ADD30RoundRect,0.150000X0.150000X-0.512500X0.150000X0.512500X-0.150000X0.512500X-0.150000X-0.512500X0*%
%ADD31R,1.500000X2.000000*%
%ADD32R,3.800000X2.000000*%
%ADD33RoundRect,0.250000X-0.475000X0.250000X-0.475000X-0.250000X0.475000X-0.250000X0.475000X0.250000X0*%
%ADD34RoundRect,0.150000X0.150000X-0.825000X0.150000X0.825000X-0.150000X0.825000X-0.150000X-0.825000X0*%
%ADD35R,0.800000X0.300000*%
%ADD36RoundRect,0.150000X-0.512500X-0.150000X0.512500X-0.150000X0.512500X0.150000X-0.512500X0.150000X0*%
%ADD37R,1.600000X1.600000*%
%ADD38C,1.600000*%
%ADD39RoundRect,0.250000X0.475000X-0.250000X0.475000X0.250000X-0.475000X0.250000X-0.475000X-0.250000X0*%
%ADD40RoundRect,0.150000X-0.587500X-0.150000X0.587500X-0.150000X0.587500X0.150000X-0.587500X0.150000X0*%
%ADD41RoundRect,0.250000X0.625000X-0.312500X0.625000X0.312500X-0.625000X0.312500X-0.625000X-0.312500X0*%
%ADD42R,1.500000X0.900000*%
%ADD43R,0.900000X1.500000*%
%ADD44C,0.475000*%
%ADD45R,4.200000X4.200000*%
%ADD46RoundRect,0.200000X0.275000X-0.200000X0.275000X0.200000X-0.275000X0.200000X-0.275000X-0.200000X0*%
%ADD47RoundRect,0.062500X0.062500X-0.337500X0.062500X0.337500X-0.062500X0.337500X-0.062500X-0.337500X0*%
%ADD48RoundRect,0.062500X0.337500X-0.062500X0.337500X0.062500X-0.337500X0.062500X-0.337500X-0.062500X0*%
%ADD49R,3.350000X3.350000*%
%ADD50R,1.300000X1.400000*%
%ADD51R,4.600000X1.100000*%
%ADD52R,9.400000X10.800000*%
%ADD53R,5.400000X2.900000*%
%ADD54RoundRect,0.250000X0.845000X-0.620000X0.845000X0.620000X-0.845000X0.620000X-0.845000X-0.620000X0*%
%ADD55O,2.190000X1.740000*%
%ADD56R,3.200000X2.000000*%
%ADD57C,6.500000*%
%ADD58R,1.500000X3.000000*%
%ADD59O,1.500000X3.000000*%
%ADD60R,1.400000X1.400000*%
%ADD61C,1.400000*%
%ADD62C,3.000000*%
G04 APERTURE END LIST*
D10*
%TO.C,R1*%
X41848500Y-2540000D03*
X38923500Y-2540000D03*
%TD*%
D11*
%TO.C,D203*%
X4794000Y-31750000D03*
X794000Y-31750000D03*
%TD*%
D12*
%TO.C,J3*%
X37846000Y-48026000D03*
D13*
X40386000Y-48026000D03*
%TD*%
D12*
%TO.C,J7*%
X71120000Y-7112000D03*
D13*
X73660000Y-7112000D03*
X76200000Y-7112000D03*
X78740000Y-7112000D03*
%TD*%
D14*
%TO.C,C202*%
X3759354Y-24638000D03*
D15*
X-1240646Y-24638000D03*
%TD*%
D16*
%TO.C,C203*%
X5776000Y-18288000D03*
X3876000Y-18288000D03*
%TD*%
D17*
%TO.C,R9*%
X22161000Y-44958000D03*
X20511000Y-44958000D03*
%TD*%
D18*
%TO.C,J1*%
X6508000Y-10218500D03*
D19*
X508000Y-10218500D03*
D20*
X3508000Y-14918500D03*
%TD*%
D21*
%TO.C,F201*%
X12446000Y-12721500D03*
X12446000Y-16996500D03*
%TD*%
D15*
%TO.C,SW301*%
X59944000Y-21336000D03*
X66444000Y-21336000D03*
X59944000Y-25836000D03*
X66444000Y-25836000D03*
%TD*%
D17*
%TO.C,R307*%
X64452000Y-29591000D03*
X62802000Y-29591000D03*
%TD*%
D22*
%TO.C,FB201*%
X7620000Y-16463500D03*
X7620000Y-18588500D03*
%TD*%
D23*
%TO.C,R6*%
X85281000Y-13970000D03*
X86931000Y-13970000D03*
%TD*%
D24*
%TO.C,D205*%
X39370000Y-6324500D03*
X39370000Y-7899500D03*
%TD*%
D12*
%TO.C,J9*%
X82804000Y-7112000D03*
D13*
X85344000Y-7112000D03*
X87884000Y-7112000D03*
X90424000Y-7112000D03*
%TD*%
D25*
%TO.C,U11*%
X82417500Y-13650000D03*
X82417500Y-12700000D03*
X82417500Y-11750000D03*
X80142500Y-11750000D03*
X80142500Y-12700000D03*
X80142500Y-13650000D03*
%TD*%
D26*
%TO.C,R301*%
X70358000Y-36513000D03*
X70358000Y-38163000D03*
%TD*%
D27*
%TO.C,RV1*%
X57872000Y-573000D03*
X52872000Y-3073000D03*
X57872000Y-5573000D03*
%TD*%
D28*
%TO.C,Q301*%
X57579500Y-34732000D03*
X57579500Y-32832000D03*
X55704500Y-33782000D03*
%TD*%
D29*
%TO.C,D206*%
X31496000Y-33708000D03*
X31496000Y-30808000D03*
%TD*%
D12*
%TO.C,J4*%
X44704000Y-48026000D03*
D13*
X47244000Y-48026000D03*
%TD*%
D23*
%TO.C,R304*%
X59373000Y-32766000D03*
X61023000Y-32766000D03*
%TD*%
D26*
%TO.C,R12*%
X18034000Y-42101000D03*
X18034000Y-43751000D03*
%TD*%
D16*
%TO.C,C12*%
X22286000Y-46736000D03*
X20386000Y-46736000D03*
%TD*%
D30*
%TO.C,U9*%
X41976000Y-43047500D03*
X42926000Y-43047500D03*
X43876000Y-43047500D03*
X43876000Y-40772500D03*
X42926000Y-40772500D03*
X41976000Y-40772500D03*
%TD*%
D31*
%TO.C,U202*%
X28970000Y-30886000D03*
X26670000Y-30886000D03*
D32*
X26670000Y-37186000D03*
D31*
X24370000Y-30886000D03*
%TD*%
D23*
%TO.C,R5*%
X71565000Y-13970000D03*
X73215000Y-13970000D03*
%TD*%
D33*
%TO.C,C4*%
X106680000Y-37912000D03*
X106680000Y-39812000D03*
%TD*%
D24*
%TO.C,D204*%
X33528000Y-6324500D03*
X33528000Y-7899500D03*
%TD*%
D34*
%TO.C,U8*%
X105537000Y-10095000D03*
X106807000Y-10095000D03*
X108077000Y-10095000D03*
X109347000Y-10095000D03*
X109347000Y-5145000D03*
X108077000Y-5145000D03*
X106807000Y-5145000D03*
X105537000Y-5145000D03*
%TD*%
D17*
%TO.C,R13*%
X6921000Y-49022000D03*
X5271000Y-49022000D03*
%TD*%
D23*
%TO.C,R303*%
X59373000Y-29210000D03*
X61023000Y-29210000D03*
%TD*%
D35*
%TO.C,U4*%
X76480000Y-12688000D03*
X76480000Y-12188000D03*
X76480000Y-11688000D03*
X76480000Y-11188000D03*
X73380000Y-11188000D03*
X73380000Y-11688000D03*
X73380000Y-12188000D03*
X73380000Y-12688000D03*
%TD*%
D23*
%TO.C,R14*%
X5779000Y-51054000D03*
X7429000Y-51054000D03*
%TD*%
D35*
%TO.C,U5*%
X90196000Y-12688000D03*
X90196000Y-12188000D03*
X90196000Y-11688000D03*
X90196000Y-11188000D03*
X87096000Y-11188000D03*
X87096000Y-11688000D03*
X87096000Y-12188000D03*
X87096000Y-12688000D03*
%TD*%
D17*
%TO.C,R308*%
X60769000Y-36322000D03*
X59119000Y-36322000D03*
%TD*%
D36*
%TO.C,U301*%
X57282500Y-38166000D03*
X57282500Y-39116000D03*
X57282500Y-40066000D03*
X59557500Y-40066000D03*
X59557500Y-39116000D03*
X59557500Y-38166000D03*
%TD*%
D16*
%TO.C,C13*%
X22286000Y-48768000D03*
X20386000Y-48768000D03*
%TD*%
D12*
%TO.C,J10*%
X82804000Y-254000D03*
D13*
X85344000Y-254000D03*
X87884000Y-254000D03*
X90424000Y-254000D03*
%TD*%
D16*
%TO.C,C301*%
X67752000Y-39497000D03*
X65852000Y-39497000D03*
%TD*%
D12*
%TO.C,J13*%
X94488000Y-274000D03*
D13*
X97028000Y-274000D03*
X99568000Y-274000D03*
X102108000Y-274000D03*
%TD*%
D11*
%TO.C,D201*%
X13430000Y-6350000D03*
X9430000Y-6350000D03*
%TD*%
D17*
%TO.C,R11*%
X18097000Y-53340000D03*
X16447000Y-53340000D03*
%TD*%
D37*
%TO.C,C204*%
X9056380Y-36576000D03*
D38*
X6556380Y-36576000D03*
%TD*%
D39*
%TO.C,C206*%
X33782000Y-32700000D03*
X33782000Y-30800000D03*
%TD*%
D40*
%TO.C,D8*%
X105996500Y188000D03*
X105996500Y-1712000D03*
X107871500Y-762000D03*
%TD*%
D41*
%TO.C,R201*%
X33528000Y-12638500D03*
X33528000Y-9713500D03*
%TD*%
D15*
%TO.C,SW302*%
X50090000Y-21372000D03*
X56590000Y-21372000D03*
X50090000Y-25872000D03*
X56590000Y-25872000D03*
%TD*%
D39*
%TO.C,C14*%
X9144000Y-49210000D03*
X9144000Y-47310000D03*
%TD*%
D23*
%TO.C,R305*%
X52261000Y-29210000D03*
X53911000Y-29210000D03*
%TD*%
D14*
%TO.C,C201*%
X22098000Y-13183217D03*
D15*
X22098000Y-8183217D03*
%TD*%
D42*
%TO.C,U3*%
X104508000Y-39283000D03*
X104508000Y-38013000D03*
X104508000Y-36743000D03*
X104508000Y-35473000D03*
X104508000Y-34203000D03*
X104508000Y-32933000D03*
X104508000Y-31663000D03*
X104508000Y-30393000D03*
X104508000Y-29123000D03*
X104508000Y-27853000D03*
X104508000Y-26583000D03*
X104508000Y-25313000D03*
X104508000Y-24043000D03*
X104508000Y-22773000D03*
D43*
X101468000Y-21523000D03*
X100198000Y-21523000D03*
X98928000Y-21523000D03*
X97658000Y-21523000D03*
X96388000Y-21523000D03*
X95118000Y-21523000D03*
X93848000Y-21523000D03*
X92578000Y-21523000D03*
X91308000Y-21523000D03*
X90038000Y-21523000D03*
D42*
X87008000Y-22773000D03*
X87008000Y-24043000D03*
X87008000Y-25313000D03*
X87008000Y-26583000D03*
X87008000Y-27853000D03*
X87008000Y-29123000D03*
X87008000Y-30393000D03*
X87008000Y-31663000D03*
X87008000Y-32933000D03*
X87008000Y-34203000D03*
X87008000Y-35473000D03*
X87008000Y-36743000D03*
X87008000Y-38013000D03*
X87008000Y-39283000D03*
D44*
X94913000Y-32705500D03*
X95675500Y-33468000D03*
X95675500Y-30418000D03*
X95675500Y-31943000D03*
X97200500Y-33468000D03*
D45*
X96438000Y-31943000D03*
D44*
X97200500Y-31943000D03*
X96438000Y-31180500D03*
X97963000Y-31180500D03*
X96438000Y-32705500D03*
X97200500Y-30418000D03*
X94913000Y-31180500D03*
X97963000Y-32705500D03*
%TD*%
D28*
%TO.C,Q302*%
X57579500Y-31176000D03*
X57579500Y-29276000D03*
X55704500Y-30226000D03*
%TD*%
D46*
%TO.C,R306*%
X61468000Y-40703000D03*
X61468000Y-39053000D03*
%TD*%
D41*
%TO.C,R202*%
X39370000Y-12638500D03*
X39370000Y-9713500D03*
%TD*%
D47*
%TO.C,U302*%
X64794000Y-37248000D03*
X65294000Y-37248000D03*
X65794000Y-37248000D03*
X66294000Y-37248000D03*
X66794000Y-37248000D03*
X67294000Y-37248000D03*
X67794000Y-37248000D03*
D48*
X68744000Y-36298000D03*
X68744000Y-35798000D03*
X68744000Y-35298000D03*
X68744000Y-34798000D03*
X68744000Y-34298000D03*
X68744000Y-33798000D03*
X68744000Y-33298000D03*
D47*
X67794000Y-32348000D03*
X67294000Y-32348000D03*
X66794000Y-32348000D03*
X66294000Y-32348000D03*
X65794000Y-32348000D03*
X65294000Y-32348000D03*
X64794000Y-32348000D03*
D48*
X63844000Y-33298000D03*
X63844000Y-33798000D03*
X63844000Y-34298000D03*
X63844000Y-34798000D03*
X63844000Y-35298000D03*
X63844000Y-35798000D03*
X63844000Y-36298000D03*
D49*
X66294000Y-34798000D03*
%TD*%
D50*
%TO.C,D202*%
X12012000Y-9706000D03*
X14912000Y-9706000D03*
%TD*%
D24*
%TO.C,D4*%
X44958000Y-6324500D03*
X44958000Y-7899500D03*
%TD*%
D37*
%TO.C,C205*%
X19304000Y-37084000D03*
D38*
X16804000Y-37084000D03*
%TD*%
D51*
%TO.C,U201*%
X25213000Y-19206000D03*
X25213000Y-20906000D03*
X25213000Y-22606000D03*
D52*
X34363000Y-22606000D03*
D51*
X25213000Y-24306000D03*
X25213000Y-26006000D03*
%TD*%
D23*
%TO.C,R10*%
X20511000Y-51054000D03*
X22161000Y-51054000D03*
%TD*%
%TO.C,R302*%
X66485000Y-43434000D03*
X68135000Y-43434000D03*
%TD*%
D12*
%TO.C,J14*%
X94488000Y-7112000D03*
D13*
X97028000Y-7112000D03*
X99568000Y-7112000D03*
X102108000Y-7112000D03*
%TD*%
D12*
%TO.C,J8*%
X71120000Y-274000D03*
D13*
X73660000Y-274000D03*
X76200000Y-274000D03*
X78740000Y-274000D03*
%TD*%
D53*
%TO.C,L201*%
X15748000Y-21382264D03*
X15748000Y-31282264D03*
%TD*%
D54*
%TO.C,J302*%
X76728000Y-38100000D03*
D55*
X76728000Y-35560000D03*
X76728000Y-33020000D03*
X76728000Y-30480000D03*
%TD*%
D41*
%TO.C,R4*%
X44958000Y-12638500D03*
X44958000Y-9713500D03*
%TD*%
D14*
%TO.C,SW3*%
X18172000Y-46014000D03*
D15*
X18172000Y-51014000D03*
X18172000Y-48514000D03*
D56*
X10672000Y-42914000D03*
X10672000Y-54114000D03*
D15*
X3672000Y-51014000D03*
X3672000Y-46014000D03*
%TD*%
D57*
%TO.C,U7*%
X115031000Y-37057500D03*
X31000Y-37057500D03*
X115031000Y-57500D03*
X31000Y-57500D03*
D58*
X40531000Y942500D03*
D59*
X37991000Y942500D03*
X35451000Y942500D03*
X32911000Y942500D03*
X30371000Y942500D03*
X27831000Y942500D03*
X25291000Y942500D03*
X22751000Y942500D03*
X20211000Y942500D03*
X17671000Y942500D03*
X15131000Y942500D03*
X12591000Y942500D03*
X10051000Y942500D03*
X7511000Y942500D03*
X43071000Y942500D03*
X45611000Y942500D03*
D14*
X116031000Y-13057500D03*
X116031000Y-24057500D03*
X116031000Y-17057500D03*
X116031000Y-28057500D03*
%TD*%
D60*
%TO.C,J301*%
X61976000Y-45720000D03*
D61*
X64476000Y-45720000D03*
X64476000Y-48920000D03*
X61976000Y-48920000D03*
D62*
X69246000Y-48430000D03*
X57206000Y-48430000D03*
%TD*%
M02*
