M48
; DRILL file {KiCad 6.0.11+dfsg-1~bpo11+1} date mar. 11 juil. 2023 21:35:57
; FORMAT={-:-/ absolute / inch / decimal}
; #@! TF.CreationDate,2023-07-11T21:35:57+02:00
; #@! TF.GenerationSoftware,Kicad,Pcbnew,6.0.11+dfsg-1~bpo11+1
; #@! TF.FileFunction,Plated,1,2,PTH
FMAT,2
INCH
; #@! TA.AperFunction,Plated,PTH,ComponentDrill
T1C0.0118
; #@! TA.AperFunction,Plated,PTH,ViaDrill
T2C0.0157
; #@! TA.AperFunction,Plated,PTH,ComponentDrill
T3C0.0315
; #@! TA.AperFunction,Plated,PTH,ComponentDrill
T4C0.0362
; #@! TA.AperFunction,Plated,PTH,ComponentDrill
T5C0.0394
; #@! TA.AperFunction,Plated,PTH,ComponentDrill
T6C0.0433
; #@! TA.AperFunction,Plated,PTH,ComponentDrill
T7C0.0469
; #@! TA.AperFunction,Plated,PTH,ComponentDrill
T8C0.0512
; #@! TA.AperFunction,Plated,PTH,ComponentDrill
T9C0.0591
; #@! TA.AperFunction,Plated,PTH,ComponentDrill
T10C0.0906
; #@! TA.AperFunction,Plated,PTH,ComponentDrill
T11C0.1378
%
G90
G05
T1
X3.7367Y-1.2276
X3.7367Y-1.2876
X3.7668Y-1.1976
X3.7668Y-1.2576
X3.7668Y-1.3176
X3.7968Y-1.2276
X3.7968Y-1.2876
X3.8268Y-1.1976
X3.8268Y-1.2576
X3.8268Y-1.3176
X3.8568Y-1.2276
X3.8568Y-1.2876
T2
X0.445Y-2.005
X0.955Y-1.82
X0.9625Y-1.9825
X1.135Y-1.14
X1.175Y-1.14
X1.215Y-1.14
X1.255Y-1.14
X1.295Y-1.14
X1.335Y-1.14
X1.375Y-1.14
X1.415Y-1.14
X1.455Y-1.14
X1.64Y-1.115
X1.666Y-0.249
X1.7775Y-1.3575
X1.9963Y-1.2113
X2.0625Y-1.4075
X2.16Y-1.555
X2.44Y-1.355
X2.4425Y-1.4075
X2.4667Y-1.7283
X2.4695Y-1.595
X2.515Y-1.215
X2.555Y-1.63
X2.65Y-1.625
X2.77Y-1.56
X2.825Y-0.485
X2.885Y-0.6115
X2.9511Y-0.583
X3.065Y-0.54
X3.075Y-0.465
X3.1Y-0.605
X3.225Y-0.65
X3.225Y-1.45
X3.24Y-0.73
X3.295Y-1.19
X3.295Y-1.415
X3.3Y-1.325
X3.305Y-0.56
X3.31Y-1.11
X3.35Y-0.505
X3.505Y-1.06
X3.505Y-1.205
X3.51Y-1.14
X3.51Y-1.325
X3.51Y-1.4
X3.515Y-0.555
X3.5175Y-0.9975
X3.57Y-1.4885
X3.595Y-0.5
X3.6475Y-0.4725
X3.685Y-0.45
X3.875Y-1.4618
X3.878Y-1.4223
X3.88Y-0.955
X3.91Y-1.135
X3.9405Y-1.5048
X3.995Y-1.405
X3.9964Y-1.3514
X4.03Y-0.735
X4.0427Y-1.2523
X4.155Y-0.495
X4.23Y-0.49
X4.23Y-0.805
X4.245Y0.005
X4.305Y-0.485
T3
X0.2581Y-1.44
X0.3566Y-1.44
X0.6616Y-1.46
X0.76Y-1.46
T4
X2.44Y-1.8
X2.44Y-1.926
X2.5384Y-1.8
X2.5384Y-1.926
T5
X-0.0488Y-0.97
X0.1446Y-1.8116
X0.1446Y-2.0084
X0.148Y-0.97
X0.2957Y0.0371
X0.3957Y0.0371
X0.4957Y0.0371
X0.5957Y0.0371
X0.6957Y0.0371
X0.7154Y-1.8116
X0.7154Y-1.91
X0.7154Y-2.0084
X0.7957Y0.0371
X0.87Y-0.3222
X0.87Y-0.519
X0.8957Y0.0371
X0.9957Y0.0371
X1.0957Y0.0371
X1.1957Y0.0371
X1.2957Y0.0371
X1.3957Y0.0371
X1.4957Y0.0371
X1.5957Y0.0371
X1.6957Y0.0371
X1.7957Y0.0371
X4.5681Y-0.5141
X4.5681Y-0.6716
X4.5681Y-0.9471
X4.5681Y-1.1046
T6
X1.972Y-0.8414
X1.972Y-1.0186
X2.228Y-0.8414
X2.228Y-1.0186
X2.36Y-0.84
X2.36Y-1.0172
X2.6159Y-0.84
X2.6159Y-1.0172
T7
X1.49Y-1.8908
X1.59Y-1.8908
X1.76Y-1.8908
X1.86Y-1.8908
X2.8Y-0.0108
X2.8Y-0.28
X2.9Y-0.0108
X2.9Y-0.28
X3.0Y-0.0108
X3.0Y-0.28
X3.0208Y-1.2
X3.0208Y-1.3
X3.0208Y-1.4
X3.0208Y-1.5
X3.1Y-0.0108
X3.1Y-0.28
X3.26Y-0.01
X3.26Y-0.28
X3.36Y-0.01
X3.36Y-0.28
X3.46Y-0.01
X3.46Y-0.28
X3.56Y-0.01
X3.56Y-0.28
X3.72Y-0.0108
X3.72Y-0.28
X3.82Y-0.0108
X3.82Y-0.28
X3.92Y-0.0108
X3.92Y-0.28
X4.02Y-0.0108
X4.02Y-0.28
T8
X2.0816Y-0.121
X2.2784Y-0.0226
X2.2784Y-0.2194
T10
X2.2522Y-1.9067
X2.7262Y-1.9067
T11
X0.0012Y-0.0023
X0.0012Y-1.459
X4.5288Y-0.0023
X4.5288Y-1.459
T5
G00X0.02Y-0.3629
M15
G01X0.02Y-0.4417
M16
G05
G00X0.0987Y-0.5873
M15
G01X0.1775Y-0.5873
M16
G05
G00X0.2562Y-0.3629
M15
G01X0.2562Y-0.4417
M16
G05
T9
G00X0.4457Y-1.6895
M15
G01X0.3946Y-1.6895
M16
G05
G00X0.4457Y-2.1305
M15
G01X0.3946Y-2.1305
M16
G05
T0
M30
