%TF.GenerationSoftware,KiCad,Pcbnew,6.0.11+dfsg-1*%
%TF.CreationDate,2023-11-04T21:56:29+01:00*%
%TF.ProjectId,main_board,6d61696e-5f62-46f6-9172-642e6b696361,rev?*%
%TF.SameCoordinates,PX63add28PY3f58108*%
%TF.FileFunction,Copper,L1,Top*%
%TF.FilePolarity,Positive*%
%FSLAX46Y46*%
G04 Gerber Fmt 4.6, Leading zero omitted, Abs format (unit mm)*
G04 Created by KiCad (PCBNEW 6.0.11+dfsg-1) date 2023-11-04 21:56:29*
%MOMM*%
%LPD*%
G01*
G04 APERTURE LIST*
G04 Aperture macros list*
%AMRoundRect*
0 Rectangle with rounded corners*
0 $1 Rounding radius*
0 $2 $3 $4 $5 $6 $7 $8 $9 X,Y pos of 4 corners*
0 Add a 4 corners polygon primitive as box body*
4,1,4,$2,$3,$4,$5,$6,$7,$8,$9,$2,$3,0*
0 Add four circle primitives for the rounded corners*
1,1,$1+$1,$2,$3*
1,1,$1+$1,$4,$5*
1,1,$1+$1,$6,$7*
1,1,$1+$1,$8,$9*
0 Add four rect primitives between the rounded corners*
20,1,$1+$1,$2,$3,$4,$5,0*
20,1,$1+$1,$4,$5,$6,$7,0*
20,1,$1+$1,$6,$7,$8,$9,0*
20,1,$1+$1,$8,$9,$2,$3,0*%
G04 Aperture macros list end*
%TA.AperFunction,SMDPad,CuDef*%
%ADD10RoundRect,0.150000X-0.512500X-0.150000X0.512500X-0.150000X0.512500X0.150000X-0.512500X0.150000X0*%
%TD*%
%TA.AperFunction,SMDPad,CuDef*%
%ADD11RoundRect,0.200000X-0.200000X-0.275000X0.200000X-0.275000X0.200000X0.275000X-0.200000X0.275000X0*%
%TD*%
%TA.AperFunction,SMDPad,CuDef*%
%ADD12R,1.300000X1.400000*%
%TD*%
%TA.AperFunction,SMDPad,CuDef*%
%ADD13RoundRect,0.250000X0.475000X-0.250000X0.475000X0.250000X-0.475000X0.250000X-0.475000X-0.250000X0*%
%TD*%
%TA.AperFunction,SMDPad,CuDef*%
%ADD14RoundRect,0.250000X-0.312500X-0.625000X0.312500X-0.625000X0.312500X0.625000X-0.312500X0.625000X0*%
%TD*%
%TA.AperFunction,SMDPad,CuDef*%
%ADD15RoundRect,0.250000X-0.250000X-0.475000X0.250000X-0.475000X0.250000X0.475000X-0.250000X0.475000X0*%
%TD*%
%TA.AperFunction,ComponentPad*%
%ADD16RoundRect,0.250000X0.845000X-0.620000X0.845000X0.620000X-0.845000X0.620000X-0.845000X-0.620000X0*%
%TD*%
%TA.AperFunction,ComponentPad*%
%ADD17O,2.190000X1.740000*%
%TD*%
%TA.AperFunction,ComponentPad*%
%ADD18RoundRect,0.250000X-0.620000X-0.845000X0.620000X-0.845000X0.620000X0.845000X-0.620000X0.845000X0*%
%TD*%
%TA.AperFunction,ComponentPad*%
%ADD19O,1.740000X2.190000*%
%TD*%
%TA.AperFunction,SMDPad,CuDef*%
%ADD20RoundRect,0.250000X1.500000X1.000000X-1.500000X1.000000X-1.500000X-1.000000X1.500000X-1.000000X0*%
%TD*%
%TA.AperFunction,SMDPad,CuDef*%
%ADD21R,2.500000X1.800000*%
%TD*%
%TA.AperFunction,SMDPad,CuDef*%
%ADD22RoundRect,0.200000X0.200000X0.275000X-0.200000X0.275000X-0.200000X-0.275000X0.200000X-0.275000X0*%
%TD*%
%TA.AperFunction,SMDPad,CuDef*%
%ADD23RoundRect,0.250000X-0.475000X0.250000X-0.475000X-0.250000X0.475000X-0.250000X0.475000X0.250000X0*%
%TD*%
%TA.AperFunction,SMDPad,CuDef*%
%ADD24RoundRect,0.150000X0.512500X0.150000X-0.512500X0.150000X-0.512500X-0.150000X0.512500X-0.150000X0*%
%TD*%
%TA.AperFunction,SMDPad,CuDef*%
%ADD25RoundRect,0.200000X0.275000X-0.200000X0.275000X0.200000X-0.275000X0.200000X-0.275000X-0.200000X0*%
%TD*%
%TA.AperFunction,SMDPad,CuDef*%
%ADD26RoundRect,0.250000X-1.950000X-1.000000X1.950000X-1.000000X1.950000X1.000000X-1.950000X1.000000X0*%
%TD*%
%TA.AperFunction,SMDPad,CuDef*%
%ADD27RoundRect,0.150000X-0.587500X-0.150000X0.587500X-0.150000X0.587500X0.150000X-0.587500X0.150000X0*%
%TD*%
%TA.AperFunction,SMDPad,CuDef*%
%ADD28RoundRect,0.218750X0.256250X-0.218750X0.256250X0.218750X-0.256250X0.218750X-0.256250X-0.218750X0*%
%TD*%
%TA.AperFunction,SMDPad,CuDef*%
%ADD29R,5.400000X2.900000*%
%TD*%
%TA.AperFunction,SMDPad,CuDef*%
%ADD30RoundRect,0.150000X-0.150000X0.825000X-0.150000X-0.825000X0.150000X-0.825000X0.150000X0.825000X0*%
%TD*%
%TA.AperFunction,SMDPad,CuDef*%
%ADD31RoundRect,0.218750X-0.381250X0.218750X-0.381250X-0.218750X0.381250X-0.218750X0.381250X0.218750X0*%
%TD*%
%TA.AperFunction,SMDPad,CuDef*%
%ADD32R,2.000000X1.500000*%
%TD*%
%TA.AperFunction,SMDPad,CuDef*%
%ADD33R,2.000000X3.800000*%
%TD*%
%TA.AperFunction,SMDPad,CuDef*%
%ADD34R,1.800000X2.500000*%
%TD*%
%TA.AperFunction,SMDPad,CuDef*%
%ADD35RoundRect,0.150000X-0.150000X0.587500X-0.150000X-0.587500X0.150000X-0.587500X0.150000X0.587500X0*%
%TD*%
%TA.AperFunction,SMDPad,CuDef*%
%ADD36RoundRect,0.062500X0.062500X-0.337500X0.062500X0.337500X-0.062500X0.337500X-0.062500X-0.337500X0*%
%TD*%
%TA.AperFunction,SMDPad,CuDef*%
%ADD37RoundRect,0.062500X0.337500X-0.062500X0.337500X0.062500X-0.337500X0.062500X-0.337500X-0.062500X0*%
%TD*%
%TA.AperFunction,SMDPad,CuDef*%
%ADD38R,3.350000X3.350000*%
%TD*%
%TA.AperFunction,SMDPad,CuDef*%
%ADD39RoundRect,0.200000X-0.275000X0.200000X-0.275000X-0.200000X0.275000X-0.200000X0.275000X0.200000X0*%
%TD*%
%TA.AperFunction,SMDPad,CuDef*%
%ADD40R,2.000000X1.300000*%
%TD*%
%TA.AperFunction,SMDPad,CuDef*%
%ADD41R,2.000000X2.000000*%
%TD*%
%TA.AperFunction,SMDPad,CuDef*%
%ADD42RoundRect,0.250000X1.450000X-0.312500X1.450000X0.312500X-1.450000X0.312500X-1.450000X-0.312500X0*%
%TD*%
%TA.AperFunction,SMDPad,CuDef*%
%ADD43R,4.600000X1.100000*%
%TD*%
%TA.AperFunction,SMDPad,CuDef*%
%ADD44R,9.400000X10.800000*%
%TD*%
%TA.AperFunction,SMDPad,CuDef*%
%ADD45RoundRect,0.250000X0.250000X0.475000X-0.250000X0.475000X-0.250000X-0.475000X0.250000X-0.475000X0*%
%TD*%
%TA.AperFunction,SMDPad,CuDef*%
%ADD46R,0.800000X0.300000*%
%TD*%
%TA.AperFunction,SMDPad,CuDef*%
%ADD47RoundRect,0.150000X-0.150000X0.512500X-0.150000X-0.512500X0.150000X-0.512500X0.150000X0.512500X0*%
%TD*%
%TA.AperFunction,SMDPad,CuDef*%
%ADD48RoundRect,0.150000X0.587500X0.150000X-0.587500X0.150000X-0.587500X-0.150000X0.587500X-0.150000X0*%
%TD*%
%TA.AperFunction,SMDPad,CuDef*%
%ADD49RoundRect,0.250000X-1.500000X-1.000000X1.500000X-1.000000X1.500000X1.000000X-1.500000X1.000000X0*%
%TD*%
%TA.AperFunction,ComponentPad*%
%ADD50R,3.500000X3.500000*%
%TD*%
%TA.AperFunction,ComponentPad*%
%ADD51RoundRect,0.750000X-0.750000X-1.000000X0.750000X-1.000000X0.750000X1.000000X-0.750000X1.000000X0*%
%TD*%
%TA.AperFunction,ComponentPad*%
%ADD52RoundRect,0.875000X-0.875000X-0.875000X0.875000X-0.875000X0.875000X0.875000X-0.875000X0.875000X0*%
%TD*%
%TA.AperFunction,SMDPad,CuDef*%
%ADD53R,2.900000X5.400000*%
%TD*%
%TA.AperFunction,ComponentPad*%
%ADD54RoundRect,0.250000X-0.845000X0.620000X-0.845000X-0.620000X0.845000X-0.620000X0.845000X0.620000X0*%
%TD*%
%TA.AperFunction,ComponentPad*%
%ADD55R,2.000000X2.000000*%
%TD*%
%TA.AperFunction,ComponentPad*%
%ADD56C,2.000000*%
%TD*%
%TA.AperFunction,ComponentPad*%
%ADD57R,3.200000X2.000000*%
%TD*%
%TA.AperFunction,ComponentPad*%
%ADD58R,1.400000X1.400000*%
%TD*%
%TA.AperFunction,ComponentPad*%
%ADD59C,1.400000*%
%TD*%
%TA.AperFunction,ComponentPad*%
%ADD60C,3.000000*%
%TD*%
%TA.AperFunction,ComponentPad*%
%ADD61C,0.475000*%
%TD*%
%TA.AperFunction,ComponentPad*%
%ADD62R,1.800000X2.600000*%
%TD*%
%TA.AperFunction,ComponentPad*%
%ADD63O,1.800000X2.600000*%
%TD*%
%TA.AperFunction,ViaPad*%
%ADD64C,0.800000*%
%TD*%
%TA.AperFunction,Conductor*%
%ADD65C,0.250000*%
%TD*%
G04 APERTURE END LIST*
D10*
%TO.P,U301,1,IO1*%
%TO.N,Net-(J301-Pad1)*%
X72522500Y-49850000D03*
%TO.P,U301,2,VN*%
%TO.N,GND*%
X72522500Y-50800000D03*
%TO.P,U301,3,IO2*%
%TO.N,unconnected-(U301-Pad3)*%
X72522500Y-51750000D03*
%TO.P,U301,4,IO3*%
%TO.N,Net-(J301-Pad2)*%
X74797500Y-51750000D03*
%TO.P,U301,5,VP*%
%TO.N,Net-(R306-Pad2)*%
X74797500Y-50800000D03*
%TO.P,U301,6,IO4*%
%TO.N,Net-(J301-Pad3)*%
X74797500Y-49850000D03*
%TD*%
D11*
%TO.P,R305,1*%
%TO.N,+3V3*%
X58230000Y-46990000D03*
%TO.P,R305,2*%
%TO.N,/RESET*%
X59880000Y-46990000D03*
%TD*%
D12*
%TO.P,D202,1,A1*%
%TO.N,Net-(D201-Pad1)*%
X12245000Y-6350000D03*
%TO.P,D202,2,A2*%
%TO.N,GND*%
X9345000Y-6350000D03*
%TD*%
D13*
%TO.P,C12,1*%
%TO.N,/INPUT_A*%
X12065000Y-42860000D03*
%TO.P,C12,2*%
%TO.N,GND*%
X12065000Y-40960000D03*
%TD*%
D14*
%TO.P,R201,1*%
%TO.N,+5V*%
X63942500Y-31115000D03*
%TO.P,R201,2*%
%TO.N,Net-(D204-Pad2)*%
X66867500Y-31115000D03*
%TD*%
D15*
%TO.P,C206,1*%
%TO.N,+3V3*%
X47310000Y-22225000D03*
%TO.P,C206,2*%
%TO.N,GND*%
X49210000Y-22225000D03*
%TD*%
D16*
%TO.P,J9,1,Pin_1*%
%TO.N,+5V*%
X71775000Y-16510000D03*
D17*
%TO.P,J9,2,Pin_2*%
%TO.N,Net-(J10-Pad2)*%
X71775000Y-13970000D03*
%TO.P,J9,3,Pin_3*%
%TO.N,Net-(J10-Pad3)*%
X71775000Y-11430000D03*
%TO.P,J9,4,Pin_4*%
%TO.N,GND*%
X71775000Y-8890000D03*
%TD*%
D18*
%TO.P,J3,1,Pin_1*%
%TO.N,GND*%
X0Y-21610000D03*
D19*
%TO.P,J3,2,Pin_2*%
%TO.N,/TRIG_BTN*%
X2540000Y-21610000D03*
%TD*%
D20*
%TO.P,C1,1*%
%TO.N,+5V*%
X40715000Y-33655000D03*
%TO.P,C1,2*%
%TO.N,GND*%
X34215000Y-33655000D03*
%TD*%
D16*
%TO.P,J10,1,Pin_1*%
%TO.N,+5V*%
X78760000Y-16510000D03*
D17*
%TO.P,J10,2,Pin_2*%
%TO.N,Net-(J10-Pad2)*%
X78760000Y-13970000D03*
%TO.P,J10,3,Pin_3*%
%TO.N,Net-(J10-Pad3)*%
X78760000Y-11430000D03*
%TO.P,J10,4,Pin_4*%
%TO.N,GND*%
X78760000Y-8890000D03*
%TD*%
D21*
%TO.P,D203,1,K*%
%TO.N,Net-(D203-Pad1)*%
X11525000Y-21590000D03*
%TO.P,D203,2,A*%
%TO.N,GND*%
X7525000Y-21590000D03*
%TD*%
D14*
%TO.P,R4,1*%
%TO.N,Net-(R4-Pad1)*%
X76642500Y-31115000D03*
%TO.P,R4,2*%
%TO.N,Net-(D4-Pad2)*%
X79567500Y-31115000D03*
%TD*%
D22*
%TO.P,R306,1*%
%TO.N,+5V*%
X78295000Y-50800000D03*
%TO.P,R306,2*%
%TO.N,Net-(R306-Pad2)*%
X76645000Y-50800000D03*
%TD*%
D23*
%TO.P,C14,1*%
%TO.N,/INPUT_SW*%
X6350000Y-48580000D03*
%TO.P,C14,2*%
%TO.N,GND*%
X6350000Y-50480000D03*
%TD*%
D24*
%TO.P,U9,1,IO1*%
%TO.N,/TRIG_BTN*%
X54477500Y-47940000D03*
%TO.P,U9,2,VN*%
%TO.N,GND*%
X54477500Y-46990000D03*
%TO.P,U9,3,IO2*%
%TO.N,/SIDE_BTN*%
X54477500Y-46040000D03*
%TO.P,U9,4,IO3*%
%TO.N,/UART_TX*%
X52202500Y-46040000D03*
%TO.P,U9,5,VP*%
%TO.N,+3V3*%
X52202500Y-46990000D03*
%TO.P,U9,6,IO4*%
%TO.N,/UART_RX*%
X52202500Y-47940000D03*
%TD*%
D18*
%TO.P,J13,1,Pin_1*%
%TO.N,+5V*%
X34925000Y-50820000D03*
D19*
%TO.P,J13,2,Pin_2*%
%TO.N,Net-(U8-Pad6)*%
X37465000Y-50820000D03*
%TO.P,J13,3,Pin_3*%
%TO.N,Net-(U8-Pad7)*%
X40005000Y-50820000D03*
%TO.P,J13,4,Pin_4*%
%TO.N,GND*%
X42545000Y-50820000D03*
%TD*%
D16*
%TO.P,J8,1,Pin_1*%
%TO.N,+5V*%
X71775000Y-27940000D03*
D17*
%TO.P,J8,2,Pin_2*%
%TO.N,Net-(J7-Pad2)*%
X71775000Y-25400000D03*
%TO.P,J8,3,Pin_3*%
%TO.N,Net-(J7-Pad3)*%
X71775000Y-22860000D03*
%TO.P,J8,4,Pin_4*%
%TO.N,GND*%
X71775000Y-20320000D03*
%TD*%
D22*
%TO.P,R10,1*%
%TO.N,Net-(R10-Pad1)*%
X13525000Y-50052500D03*
%TO.P,R10,2*%
%TO.N,/INPUT_B*%
X11875000Y-50052500D03*
%TD*%
D18*
%TO.P,J4,1,Pin_1*%
%TO.N,GND*%
X0Y-28595000D03*
D19*
%TO.P,J4,2,Pin_2*%
%TO.N,/SIDE_BTN*%
X2540000Y-28595000D03*
%TD*%
D20*
%TO.P,C205,1*%
%TO.N,+3V3*%
X45795000Y-17145000D03*
%TO.P,C205,2*%
%TO.N,GND*%
X39295000Y-17145000D03*
%TD*%
D25*
%TO.P,R5,1*%
%TO.N,+5V*%
X67310000Y-27305000D03*
%TO.P,R5,2*%
%TO.N,Net-(R5-Pad2)*%
X67310000Y-25655000D03*
%TD*%
%TO.P,R307,1*%
%TO.N,Net-(R307-Pad1)*%
X67832500Y-36385000D03*
%TO.P,R307,2*%
%TO.N,Net-(Q302-Pad2)*%
X67832500Y-34735000D03*
%TD*%
D11*
%TO.P,R12,1*%
%TO.N,+3V3*%
X11875000Y-46355000D03*
%TO.P,R12,2*%
%TO.N,Net-(R12-Pad2)*%
X13525000Y-46355000D03*
%TD*%
D26*
%TO.P,C204,1*%
%TO.N,Net-(C204-Pad1)*%
X20565000Y-33655000D03*
%TO.P,C204,2*%
%TO.N,GND*%
X28965000Y-33655000D03*
%TD*%
D27*
%TO.P,Q301,1,B*%
%TO.N,Net-(Q301-Pad1)*%
X63832500Y-36515000D03*
%TO.P,Q301,2,E*%
%TO.N,Net-(Q301-Pad2)*%
X63832500Y-38415000D03*
%TO.P,Q301,3,C*%
%TO.N,/BOOT*%
X65707500Y-37465000D03*
%TD*%
D11*
%TO.P,R3,1*%
%TO.N,Net-(U8-Pad7)*%
X40450000Y-39370000D03*
%TO.P,R3,2*%
%TO.N,GND*%
X42100000Y-39370000D03*
%TD*%
D12*
%TO.P,D206,1,A1*%
%TO.N,+3V3*%
X47953000Y-19939000D03*
%TO.P,D206,2,A2*%
%TO.N,GND*%
X50853000Y-19939000D03*
%TD*%
D28*
%TO.P,D4,1,K*%
%TO.N,GND*%
X81280000Y-32537500D03*
%TO.P,D4,2,A*%
%TO.N,Net-(D4-Pad2)*%
X81280000Y-30962500D03*
%TD*%
D29*
%TO.P,L201,1,1*%
%TO.N,Net-(D203-Pad1)*%
X11430000Y-26800000D03*
%TO.P,L201,2,2*%
%TO.N,Net-(C204-Pad1)*%
X11430000Y-36700000D03*
%TD*%
D18*
%TO.P,J14,1,Pin_1*%
%TO.N,+5V*%
X34925000Y-43835000D03*
D19*
%TO.P,J14,2,Pin_2*%
%TO.N,Net-(U8-Pad6)*%
X37465000Y-43835000D03*
%TO.P,J14,3,Pin_3*%
%TO.N,Net-(U8-Pad7)*%
X40005000Y-43835000D03*
%TO.P,J14,4,Pin_4*%
%TO.N,GND*%
X42545000Y-43835000D03*
%TD*%
D30*
%TO.P,U8,1,RO*%
%TO.N,/UART2_RX*%
X49530000Y-32450000D03*
%TO.P,U8,2,~{RE}*%
%TO.N,/RS485_TXE*%
X48260000Y-32450000D03*
%TO.P,U8,3,DE*%
X46990000Y-32450000D03*
%TO.P,U8,4,DI*%
%TO.N,/UART2_TX*%
X45720000Y-32450000D03*
%TO.P,U8,5,GND*%
%TO.N,GND*%
X45720000Y-37400000D03*
%TO.P,U8,6,A*%
%TO.N,Net-(U8-Pad6)*%
X46990000Y-37400000D03*
%TO.P,U8,7,B*%
%TO.N,Net-(U8-Pad7)*%
X48260000Y-37400000D03*
%TO.P,U8,8,VCC*%
%TO.N,+5V*%
X49530000Y-37400000D03*
%TD*%
D31*
%TO.P,FB201,1*%
%TO.N,Net-(C201-Pad1)*%
X17780000Y-8462500D03*
%TO.P,FB201,2*%
%TO.N,+12V*%
X17780000Y-10587500D03*
%TD*%
D15*
%TO.P,C4,1*%
%TO.N,+3V3*%
X42865000Y-30099000D03*
%TO.P,C4,2*%
%TO.N,GND*%
X44765000Y-30099000D03*
%TD*%
D32*
%TO.P,U202,1,GND*%
%TO.N,GND*%
X36855000Y-23100000D03*
%TO.P,U202,2,VO*%
%TO.N,+3V3*%
X36855000Y-25400000D03*
D33*
X43155000Y-25400000D03*
D32*
%TO.P,U202,3,VI*%
%TO.N,+5V*%
X36855000Y-27700000D03*
%TD*%
D11*
%TO.P,R13,1*%
%TO.N,+3V3*%
X2985000Y-47625000D03*
%TO.P,R13,2*%
%TO.N,Net-(R13-Pad2)*%
X4635000Y-47625000D03*
%TD*%
%TO.P,R2,1*%
%TO.N,+5V*%
X35370000Y-39257500D03*
%TO.P,R2,2*%
%TO.N,Net-(U8-Pad6)*%
X37020000Y-39257500D03*
%TD*%
D34*
%TO.P,D201,1,K*%
%TO.N,Net-(D201-Pad1)*%
X14605000Y-9430000D03*
%TO.P,D201,2,A*%
%TO.N,/Power supply/12V_in*%
X14605000Y-13430000D03*
%TD*%
D15*
%TO.P,C301,1*%
%TO.N,+3V3*%
X75885000Y-41275000D03*
%TO.P,C301,2*%
%TO.N,GND*%
X77785000Y-41275000D03*
%TD*%
D35*
%TO.P,D8,1,K*%
%TO.N,Net-(U8-Pad7)*%
X47940000Y-40337500D03*
%TO.P,D8,2,K*%
%TO.N,Net-(U8-Pad6)*%
X46040000Y-40337500D03*
%TO.P,D8,3,A*%
%TO.N,GND*%
X46990000Y-42212500D03*
%TD*%
D15*
%TO.P,C13,1*%
%TO.N,/INPUT_B*%
X12385000Y-52070000D03*
%TO.P,C13,2*%
%TO.N,GND*%
X14285000Y-52070000D03*
%TD*%
D36*
%TO.P,U302,1,~{DCD}*%
%TO.N,unconnected-(U302-Pad1)*%
X70255000Y-40550000D03*
%TO.P,U302,2,~{RI}/CLK*%
%TO.N,unconnected-(U302-Pad2)*%
X70755000Y-40550000D03*
%TO.P,U302,3,GND*%
%TO.N,GND*%
X71255000Y-40550000D03*
%TO.P,U302,4,D+*%
%TO.N,Net-(J301-Pad3)*%
X71755000Y-40550000D03*
%TO.P,U302,5,D-*%
%TO.N,Net-(J301-Pad2)*%
X72255000Y-40550000D03*
%TO.P,U302,6,VDD*%
%TO.N,+3V3*%
X72755000Y-40550000D03*
%TO.P,U302,7,VREGIN*%
X73255000Y-40550000D03*
D37*
%TO.P,U302,8,VBUS*%
%TO.N,Net-(R301-Pad1)*%
X74205000Y-39600000D03*
%TO.P,U302,9,~{RST}*%
%TO.N,unconnected-(U302-Pad9)*%
X74205000Y-39100000D03*
%TO.P,U302,10,NC*%
%TO.N,unconnected-(U302-Pad10)*%
X74205000Y-38600000D03*
%TO.P,U302,11,~{SUSPEND}*%
%TO.N,unconnected-(U302-Pad11)*%
X74205000Y-38100000D03*
%TO.P,U302,12,SUSPEND*%
%TO.N,unconnected-(U302-Pad12)*%
X74205000Y-37600000D03*
%TO.P,U302,13,CHREN*%
%TO.N,unconnected-(U302-Pad13)*%
X74205000Y-37100000D03*
%TO.P,U302,14,CHR1*%
%TO.N,unconnected-(U302-Pad14)*%
X74205000Y-36600000D03*
D36*
%TO.P,U302,15,CHR0*%
%TO.N,unconnected-(U302-Pad15)*%
X73255000Y-35650000D03*
%TO.P,U302,16,~{WAKEUP}/GPIO.3*%
%TO.N,unconnected-(U302-Pad16)*%
X72755000Y-35650000D03*
%TO.P,U302,17,RS485/GPIO.2*%
%TO.N,unconnected-(U302-Pad17)*%
X72255000Y-35650000D03*
%TO.P,U302,18,~{RXT}/GPIO.1*%
%TO.N,unconnected-(U302-Pad18)*%
X71755000Y-35650000D03*
%TO.P,U302,19,~{TXT}/GPIO.0*%
%TO.N,unconnected-(U302-Pad19)*%
X71255000Y-35650000D03*
%TO.P,U302,20,GPIO.6*%
%TO.N,unconnected-(U302-Pad20)*%
X70755000Y-35650000D03*
%TO.P,U302,21,GPIO.5*%
%TO.N,unconnected-(U302-Pad21)*%
X70255000Y-35650000D03*
D37*
%TO.P,U302,22,GPIO.4*%
%TO.N,unconnected-(U302-Pad22)*%
X69305000Y-36600000D03*
%TO.P,U302,23,~{CTS}*%
%TO.N,unconnected-(U302-Pad23)*%
X69305000Y-37100000D03*
%TO.P,U302,24,~{RTS}*%
%TO.N,Net-(R307-Pad1)*%
X69305000Y-37600000D03*
%TO.P,U302,25,RXD*%
%TO.N,/UART_TX*%
X69305000Y-38100000D03*
%TO.P,U302,26,TXD*%
%TO.N,/UART_RX*%
X69305000Y-38600000D03*
%TO.P,U302,27,~{DSR}*%
%TO.N,unconnected-(U302-Pad27)*%
X69305000Y-39100000D03*
%TO.P,U302,28,~{DTR}*%
%TO.N,Net-(R308-Pad1)*%
X69305000Y-39600000D03*
D38*
%TO.P,U302,29,GND*%
%TO.N,GND*%
X71755000Y-38100000D03*
%TD*%
D14*
%TO.P,R202,1*%
%TO.N,+3V3*%
X70292500Y-31115000D03*
%TO.P,R202,2*%
%TO.N,Net-(D205-Pad2)*%
X73217500Y-31115000D03*
%TD*%
D11*
%TO.P,R301,1*%
%TO.N,Net-(R301-Pad1)*%
X76010000Y-39257500D03*
%TO.P,R301,2*%
%TO.N,GND*%
X77660000Y-39257500D03*
%TD*%
D39*
%TO.P,R308,1*%
%TO.N,Net-(R308-Pad1)*%
X67832500Y-40052258D03*
%TO.P,R308,2*%
%TO.N,Net-(Q301-Pad2)*%
X67832500Y-41702258D03*
%TD*%
D22*
%TO.P,R11,1*%
%TO.N,Net-(R10-Pad1)*%
X13525000Y-48260000D03*
%TO.P,R11,2*%
%TO.N,+3V3*%
X11875000Y-48260000D03*
%TD*%
D28*
%TO.P,D205,1,K*%
%TO.N,GND*%
X74930000Y-32537500D03*
%TO.P,D205,2,A*%
%TO.N,Net-(D205-Pad2)*%
X74930000Y-30962500D03*
%TD*%
D40*
%TO.P,RV1,1,1*%
%TO.N,GND*%
X61055000Y-11945000D03*
D41*
%TO.P,RV1,2,2*%
%TO.N,Net-(RV1-Pad2)*%
X57055000Y-10795000D03*
D40*
%TO.P,RV1,3,3*%
%TO.N,+5V*%
X61055000Y-9645000D03*
%TD*%
D42*
%TO.P,F201,1*%
%TO.N,Net-(D201-Pad1)*%
X15240000Y-6582500D03*
%TO.P,F201,2*%
%TO.N,Net-(C201-Pad1)*%
X15240000Y-2307500D03*
%TD*%
D43*
%TO.P,U201,1,VIN*%
%TO.N,+12V*%
X20895000Y-18190000D03*
%TO.P,U201,2,OUT*%
%TO.N,Net-(D203-Pad1)*%
X20895000Y-19890000D03*
%TO.P,U201,3,GND*%
%TO.N,GND*%
X20895000Y-21590000D03*
D44*
X30045000Y-21590000D03*
D43*
%TO.P,U201,4,FB*%
%TO.N,Net-(C204-Pad1)*%
X20895000Y-23290000D03*
%TO.P,U201,5,~{ON}/OFF*%
%TO.N,GND*%
X20895000Y-24990000D03*
%TD*%
D45*
%TO.P,C203,1*%
%TO.N,+12V*%
X16825000Y-16510000D03*
%TO.P,C203,2*%
%TO.N,GND*%
X14925000Y-16510000D03*
%TD*%
D46*
%TO.P,U5,1,GND*%
%TO.N,GND*%
X64490000Y-11315000D03*
%TO.P,U5,2,VREF1*%
%TO.N,+3V3*%
X64490000Y-11815000D03*
%TO.P,U5,3,SCL1*%
%TO.N,/SCL_MOTOR*%
X64490000Y-12315000D03*
%TO.P,U5,4,SDA1*%
%TO.N,/SDA_MOTOR*%
X64490000Y-12815000D03*
%TO.P,U5,5,SDA2*%
%TO.N,Net-(J10-Pad2)*%
X67590000Y-12815000D03*
%TO.P,U5,6,SCL2*%
%TO.N,Net-(J10-Pad3)*%
X67590000Y-12315000D03*
%TO.P,U5,7,VREF2*%
%TO.N,Net-(R6-Pad2)*%
X67590000Y-11815000D03*
%TO.P,U5,8,EN*%
X67590000Y-11315000D03*
%TD*%
D25*
%TO.P,R6,1*%
%TO.N,+5V*%
X67310000Y-15875000D03*
%TO.P,R6,2*%
%TO.N,Net-(R6-Pad2)*%
X67310000Y-14225000D03*
%TD*%
D13*
%TO.P,C2,1*%
%TO.N,+5V*%
X31750000Y-38095000D03*
%TO.P,C2,2*%
%TO.N,GND*%
X31750000Y-36195000D03*
%TD*%
D47*
%TO.P,U11,1,IO1*%
%TO.N,Net-(J10-Pad2)*%
X66990000Y-17912500D03*
%TO.P,U11,2,VN*%
%TO.N,GND*%
X66040000Y-17912500D03*
%TO.P,U11,3,IO2*%
%TO.N,Net-(J10-Pad3)*%
X65090000Y-17912500D03*
%TO.P,U11,4,IO3*%
%TO.N,Net-(J7-Pad3)*%
X65090000Y-20187500D03*
%TO.P,U11,5,VP*%
%TO.N,+5V*%
X66040000Y-20187500D03*
%TO.P,U11,6,IO4*%
%TO.N,Net-(J7-Pad2)*%
X66990000Y-20187500D03*
%TD*%
D11*
%TO.P,R9,1*%
%TO.N,/INPUT_A*%
X11875000Y-44450000D03*
%TO.P,R9,2*%
%TO.N,Net-(R12-Pad2)*%
X13525000Y-44450000D03*
%TD*%
D46*
%TO.P,U4,1,GND*%
%TO.N,GND*%
X64490000Y-22745000D03*
%TO.P,U4,2,VREF1*%
%TO.N,+3V3*%
X64490000Y-23245000D03*
%TO.P,U4,3,SCL1*%
%TO.N,/SCL_PERIPH*%
X64490000Y-23745000D03*
%TO.P,U4,4,SDA1*%
%TO.N,/SDA_PERIPH*%
X64490000Y-24245000D03*
%TO.P,U4,5,SDA2*%
%TO.N,Net-(J7-Pad2)*%
X67590000Y-24245000D03*
%TO.P,U4,6,SCL2*%
%TO.N,Net-(J7-Pad3)*%
X67590000Y-23745000D03*
%TO.P,U4,7,VREF2*%
%TO.N,Net-(R5-Pad2)*%
X67590000Y-23245000D03*
%TO.P,U4,8,EN*%
X67590000Y-22745000D03*
%TD*%
D39*
%TO.P,R304,1*%
%TO.N,Net-(Q301-Pad2)*%
X66040000Y-41720000D03*
%TO.P,R304,2*%
%TO.N,Net-(Q302-Pad1)*%
X66040000Y-43370000D03*
%TD*%
D48*
%TO.P,Q302,1,B*%
%TO.N,Net-(Q302-Pad1)*%
X63802500Y-46670000D03*
%TO.P,Q302,2,E*%
%TO.N,Net-(Q302-Pad2)*%
X63802500Y-44770000D03*
%TO.P,Q302,3,C*%
%TO.N,/RESET*%
X61927500Y-45720000D03*
%TD*%
D25*
%TO.P,R302,1*%
%TO.N,Net-(J301-Pad1)*%
X77357500Y-44640000D03*
%TO.P,R302,2*%
%TO.N,Net-(R301-Pad1)*%
X77357500Y-42990000D03*
%TD*%
D49*
%TO.P,C201,1*%
%TO.N,Net-(C201-Pad1)*%
X20245000Y-4445000D03*
%TO.P,C201,2*%
%TO.N,GND*%
X26745000Y-4445000D03*
%TD*%
D22*
%TO.P,R303,1*%
%TO.N,Net-(Q302-Pad2)*%
X66230000Y-34925000D03*
%TO.P,R303,2*%
%TO.N,Net-(Q301-Pad1)*%
X64580000Y-34925000D03*
%TD*%
D16*
%TO.P,J7,1,Pin_1*%
%TO.N,+5V*%
X78740000Y-27940000D03*
D17*
%TO.P,J7,2,Pin_2*%
%TO.N,Net-(J7-Pad2)*%
X78740000Y-25400000D03*
%TO.P,J7,3,Pin_3*%
%TO.N,Net-(J7-Pad3)*%
X78740000Y-22860000D03*
%TO.P,J7,4,Pin_4*%
%TO.N,GND*%
X78740000Y-20320000D03*
%TD*%
D49*
%TO.P,C202,1*%
%TO.N,+12V*%
X29135000Y-11430000D03*
%TO.P,C202,2*%
%TO.N,GND*%
X35635000Y-11430000D03*
%TD*%
D50*
%TO.P,J1,1,Pin_1*%
%TO.N,/Power supply/12V_in*%
X10445000Y-13012500D03*
D51*
%TO.P,J1,2,Pin_2*%
%TO.N,GND*%
X4445000Y-13012500D03*
D52*
%TO.P,J1,3*%
%TO.N,N/C*%
X7445000Y-17712500D03*
%TD*%
D14*
%TO.P,R1,1*%
%TO.N,Net-(R1-Pad1)*%
X36637500Y-1905000D03*
%TO.P,R1,2*%
%TO.N,+5V*%
X39562500Y-1905000D03*
%TD*%
D11*
%TO.P,R14,1*%
%TO.N,Net-(R13-Pad2)*%
X2985000Y-49530000D03*
%TO.P,R14,2*%
%TO.N,/INPUT_SW*%
X4635000Y-49530000D03*
%TD*%
D28*
%TO.P,D204,1,K*%
%TO.N,GND*%
X68580000Y-32537500D03*
%TO.P,D204,2,A*%
%TO.N,Net-(D204-Pad2)*%
X68580000Y-30962500D03*
%TD*%
D53*
%TO.P,L1,1,1*%
%TO.N,Net-(C204-Pad1)*%
X19815000Y-45847000D03*
%TO.P,L1,2,2*%
%TO.N,+5V*%
X29715000Y-45847000D03*
%TD*%
D54*
%TO.P,J2,1,Pin_1*%
%TO.N,unconnected-(J2-Pad1)*%
X49550000Y-43180000D03*
D17*
%TO.P,J2,2,Pin_2*%
%TO.N,/UART_TX*%
X49550000Y-45720000D03*
%TO.P,J2,3,Pin_3*%
%TO.N,/UART_RX*%
X49550000Y-48260000D03*
%TO.P,J2,4,Pin_4*%
%TO.N,GND*%
X49550000Y-50800000D03*
%TD*%
D55*
%TO.P,SW3,A,A*%
%TO.N,Net-(R12-Pad2)*%
X15505000Y-44490000D03*
D56*
%TO.P,SW3,B,B*%
%TO.N,Net-(R10-Pad1)*%
X15505000Y-49490000D03*
%TO.P,SW3,C,C*%
%TO.N,GND*%
X15505000Y-46990000D03*
D57*
%TO.P,SW3,MP*%
%TO.N,N/C*%
X8005000Y-52590000D03*
X8005000Y-41390000D03*
D56*
%TO.P,SW3,S1,S1*%
%TO.N,Net-(R13-Pad2)*%
X1005000Y-49490000D03*
%TO.P,SW3,S2,S2*%
%TO.N,GND*%
X1005000Y-44490000D03*
%TD*%
D58*
%TO.P,J301,1,VBUS*%
%TO.N,Net-(J301-Pad1)*%
X72410000Y-43872500D03*
D59*
%TO.P,J301,2,D-*%
%TO.N,Net-(J301-Pad2)*%
X74910000Y-43872500D03*
%TO.P,J301,3,D+*%
%TO.N,Net-(J301-Pad3)*%
X74910000Y-47072500D03*
%TO.P,J301,4,GND*%
%TO.N,GND*%
X72410000Y-47072500D03*
D60*
%TO.P,J301,5,Shield*%
X67640000Y-46582500D03*
X79680000Y-46582500D03*
%TD*%
D61*
%TO.P,U3,39,GND*%
%TO.N,GND*%
X46060000Y-26855000D03*
X47460000Y-26855000D03*
X48160000Y-24755000D03*
X46760000Y-24755000D03*
X46760000Y-26155000D03*
X48160000Y-26155000D03*
X47460000Y-24055000D03*
X45360000Y-26155000D03*
X46060000Y-25455000D03*
X45360000Y-24755000D03*
X46060000Y-24055000D03*
X47460000Y-25455000D03*
%TD*%
D60*
%TO.P,U7,*%
%TO.N,*%
X2890520Y-36080700D03*
X2890000Y-5080000D03*
X77889100Y-36080700D03*
X77889100Y-5080000D03*
D62*
%TO.P,U7,1,VSS*%
%TO.N,GND*%
X72390000Y-5080000D03*
D63*
%TO.P,U7,2,VDD*%
%TO.N,+5V*%
X69850000Y-5080000D03*
%TO.P,U7,3,VO*%
%TO.N,Net-(RV1-Pad2)*%
X67310000Y-5080000D03*
%TO.P,U7,4,RS*%
%TO.N,/LCD_RS*%
X64770000Y-5080000D03*
%TO.P,U7,5,R/~{W}*%
%TO.N,GND*%
X62230000Y-5080000D03*
%TO.P,U7,6,E*%
%TO.N,/LCD_E*%
X59690000Y-5080000D03*
%TO.P,U7,7,DB0*%
%TO.N,unconnected-(U7-Pad7)*%
X57150000Y-5080000D03*
%TO.P,U7,8,DB1*%
%TO.N,unconnected-(U7-Pad8)*%
X54610000Y-5080000D03*
%TO.P,U7,9,DB2*%
%TO.N,unconnected-(U7-Pad9)*%
X52070000Y-5080000D03*
%TO.P,U7,10,DB3*%
%TO.N,unconnected-(U7-Pad10)*%
X49530000Y-5080000D03*
%TO.P,U7,11,DB4*%
%TO.N,/LCD_DB4*%
X46990000Y-5080000D03*
%TO.P,U7,12,DB5*%
%TO.N,/LCD_DB5*%
X44450000Y-5080000D03*
%TO.P,U7,13,DB6*%
%TO.N,/LCD_DB6*%
X41910000Y-5080000D03*
%TO.P,U7,14,DB7*%
%TO.N,/LCD_DB7*%
X39370000Y-5080000D03*
%TO.P,U7,15,A/VEE*%
%TO.N,Net-(R1-Pad1)*%
X36830000Y-5080000D03*
%TO.P,U7,16,K*%
%TO.N,GND*%
X34290000Y-5080000D03*
%TD*%
D64*
%TO.N,GND*%
X26670000Y-29845000D03*
X36195000Y-17145000D03*
X31750000Y-28575000D03*
X33020000Y-29845000D03*
X24130000Y-24765000D03*
X27940000Y-28575000D03*
X26670000Y-28575000D03*
X64490000Y-21870000D03*
X29210000Y-29845000D03*
X34925000Y-14605000D03*
X65659000Y-16256000D03*
X34290000Y-28575000D03*
X33020000Y-28575000D03*
X70485000Y-36830000D03*
X27940000Y-31115000D03*
X33655000Y-13335000D03*
X31750000Y-29845000D03*
X75057000Y-33909000D03*
X43815000Y-36830000D03*
X81153000Y-34163000D03*
X29845000Y-14605000D03*
X29210000Y-28575000D03*
X70485000Y-39370000D03*
X24130000Y-21590000D03*
X32385000Y-14605000D03*
X73025000Y-36830000D03*
X36830000Y-16510000D03*
X53340000Y-48895000D03*
X30480000Y-28575000D03*
X31750000Y-31115000D03*
X27940000Y-29845000D03*
X34290000Y-29845000D03*
X69215000Y-33655000D03*
X36830000Y-17780000D03*
X36195000Y-13335000D03*
X10795000Y-40005000D03*
X33655000Y-14605000D03*
X29210000Y-31115000D03*
X73025000Y-39370000D03*
X30480000Y-31115000D03*
X30480000Y-29845000D03*
X34925000Y-13335000D03*
X31115000Y-14605000D03*
%TO.N,+3V3*%
X68961000Y-49657000D03*
X64389000Y-26289000D03*
X75565000Y-37211000D03*
X43307000Y-31877000D03*
X74295000Y-41275000D03*
X67945000Y-29083000D03*
X24511000Y-38100000D03*
%TO.N,/INPUT_A*%
X9779000Y-43815000D03*
%TO.N,/INPUT_B*%
X10033000Y-48387000D03*
%TO.N,/INPUT_SW*%
X47371000Y-29591000D03*
X8509000Y-47117000D03*
X52197000Y-21717000D03*
%TO.N,/SIDE_BTN*%
X41275000Y-47625000D03*
X6223000Y-31623000D03*
X18097500Y-50482500D03*
%TO.N,/TRIG_BTN*%
X19050000Y-50165000D03*
X6223000Y-29337000D03*
X41910000Y-46355000D03*
%TO.N,/LCD_DB6*%
X49657000Y-18415000D03*
%TO.N,/LCD_DB7*%
X48641000Y-18415000D03*
%TO.N,/LCD_DB4*%
X51689000Y-18415000D03*
%TO.N,/LCD_DB5*%
X50668701Y-18419299D03*
%TO.N,/LCD_RS*%
X52959000Y-16891000D03*
%TO.N,Net-(J7-Pad2)*%
X69215000Y-22225000D03*
%TO.N,Net-(R4-Pad1)*%
X68961000Y-1905000D03*
%TO.N,/RS485_TXE*%
X54483000Y-17907000D03*
%TO.N,/UART2_RX*%
X54483000Y-26797000D03*
%TO.N,/UART2_TX*%
X54737000Y-30607000D03*
%TO.N,/LCD_E*%
X54737000Y-32131000D03*
%TO.N,/SDA_MOTOR*%
X60071000Y-22987000D03*
%TO.N,/SCL_MOTOR*%
X59309000Y-20701000D03*
%TO.N,/SDA_PERIPH*%
X60833000Y-20701000D03*
%TO.N,/SCL_PERIPH*%
X61595000Y-19685000D03*
%TO.N,/UART_TX*%
X65405000Y-38735000D03*
%TO.N,/UART_RX*%
X66675000Y-39370000D03*
%TO.N,Net-(J301-Pad1)*%
X76835000Y-46990000D03*
%TO.N,/BOOT*%
X64135000Y-33020000D03*
X64135000Y-42799000D03*
%TO.N,/RESET*%
X51435000Y-38735000D03*
X59345000Y-45430000D03*
%TD*%
D65*
%TO.N,+5V*%
X66675000Y-1905000D02*
X69850000Y-5080000D01*
X78740000Y-27940000D02*
X80160000Y-26520000D01*
X43001000Y-35941000D02*
X40715000Y-33655000D01*
X78295000Y-51203858D02*
X76158858Y-53340000D01*
X80180000Y-8298000D02*
X79121000Y-7239000D01*
X65285000Y-9645000D02*
X69850000Y-5080000D01*
X39562500Y-1905000D02*
X66675000Y-1905000D01*
X63942500Y-31115000D02*
X63373000Y-31115000D01*
X67310000Y-27305000D02*
X63942500Y-30672500D01*
X80160000Y-17910000D02*
X78760000Y-16510000D01*
X71140000Y-15875000D02*
X71775000Y-16510000D01*
X76158858Y-53340000D02*
X37445000Y-53340000D01*
X61055000Y-9645000D02*
X65285000Y-9645000D01*
X63373000Y-31115000D02*
X57088000Y-37400000D01*
X63942500Y-30672500D02*
X63942500Y-31115000D01*
X78740000Y-27940000D02*
X71775000Y-27940000D01*
X80180000Y-15090000D02*
X80180000Y-8298000D01*
X65971000Y-20256500D02*
X65971000Y-25966000D01*
X78760000Y-16510000D02*
X80180000Y-15090000D01*
X78295000Y-50800000D02*
X78295000Y-51203858D01*
X65971000Y-25966000D02*
X67310000Y-27305000D01*
X49530000Y-36068000D02*
X49403000Y-35941000D01*
X79121000Y-7239000D02*
X71259000Y-7239000D01*
X69850000Y-5830000D02*
X69850000Y-5080000D01*
X67945000Y-27940000D02*
X67310000Y-27305000D01*
X67310000Y-15875000D02*
X71140000Y-15875000D01*
X37445000Y-53340000D02*
X34925000Y-50820000D01*
X57088000Y-37400000D02*
X49530000Y-37400000D01*
X66040000Y-20187500D02*
X65971000Y-20256500D01*
X71775000Y-27940000D02*
X67945000Y-27940000D01*
X78760000Y-16510000D02*
X71775000Y-16510000D01*
X71259000Y-7239000D02*
X69850000Y-5830000D01*
X49530000Y-37400000D02*
X49530000Y-36068000D01*
X49403000Y-35941000D02*
X43001000Y-35941000D01*
X80160000Y-26520000D02*
X80160000Y-17910000D01*
%TO.N,GND*%
X64490000Y-11315000D02*
X66915000Y-8890000D01*
X65659000Y-17145000D02*
X66040000Y-17526000D01*
X-320000Y-50038833D02*
X-320000Y-45815000D01*
X14798833Y-52070000D02*
X16830000Y-50038833D01*
X61685000Y-11315000D02*
X61055000Y-11945000D01*
X64490000Y-11315000D02*
X61685000Y-11315000D01*
X65659000Y-16256000D02*
X65659000Y-17145000D01*
X16830000Y-48315000D02*
X15505000Y-46990000D01*
X71857500Y-50800000D02*
X67640000Y-46582500D01*
X-320000Y-45815000D02*
X1005000Y-44490000D01*
X12605000Y-16510000D02*
X7525000Y-21590000D01*
X47460000Y-23975000D02*
X47460000Y-24055000D01*
X14285000Y-52070000D02*
X14798833Y-52070000D01*
X42100000Y-39370000D02*
X42545000Y-39815000D01*
X45367500Y-43835000D02*
X42545000Y-43835000D01*
X53340000Y-47743249D02*
X53340000Y-48895000D01*
X456167Y-50815000D02*
X-320000Y-50038833D01*
X74930000Y-33782000D02*
X75057000Y-33909000D01*
X11750000Y-40960000D02*
X10795000Y-40005000D01*
X66915000Y-8890000D02*
X71775000Y-8890000D01*
X77785000Y-41275000D02*
X77785000Y-39382500D01*
X71255000Y-40550000D02*
X71255000Y-38600000D01*
X71255000Y-38600000D02*
X71755000Y-38100000D01*
X74930000Y-32537500D02*
X74930000Y-33782000D01*
X77785000Y-39382500D02*
X77660000Y-39257500D01*
X46990000Y-42212500D02*
X45367500Y-43835000D01*
X79680000Y-43170000D02*
X79680000Y-46582500D01*
X72522500Y-50800000D02*
X71857500Y-50800000D01*
X12065000Y-40960000D02*
X11750000Y-40960000D01*
X42545000Y-39815000D02*
X42545000Y-43835000D01*
X45720000Y-37400000D02*
X44385000Y-37400000D01*
X54093249Y-46990000D02*
X53340000Y-47743249D01*
X54477500Y-46990000D02*
X54093249Y-46990000D01*
X16830000Y-50038833D02*
X16830000Y-48315000D01*
X6015000Y-50815000D02*
X456167Y-50815000D01*
X64490000Y-21870000D02*
X64490000Y-22745000D01*
X68580000Y-33020000D02*
X69215000Y-33655000D01*
X14925000Y-16510000D02*
X12605000Y-16510000D01*
X44385000Y-37400000D02*
X43815000Y-36830000D01*
X68580000Y-32537500D02*
X68580000Y-33020000D01*
X66040000Y-17526000D02*
X66040000Y-17912500D01*
X81280000Y-32537500D02*
X81153000Y-32664500D01*
X6350000Y-50480000D02*
X6015000Y-50815000D01*
X77785000Y-41275000D02*
X79680000Y-43170000D01*
X81153000Y-32664500D02*
X81153000Y-34163000D01*
%TO.N,+3V3*%
X65147000Y-11815000D02*
X64490000Y-11815000D01*
X64490000Y-23245000D02*
X63790000Y-23245000D01*
X68961000Y-49657000D02*
X60897000Y-49657000D01*
X48905015Y-46990000D02*
X52202500Y-46990000D01*
X43307000Y-31877000D02*
X43307000Y-30541000D01*
X11741000Y-53120000D02*
X9308000Y-50687000D01*
X65215000Y-23270000D02*
X65215000Y-25463000D01*
X17746000Y-53120000D02*
X11741000Y-53120000D01*
X43307000Y-30541000D02*
X42865000Y-30099000D01*
X50194985Y-49530000D02*
X48905015Y-49530000D01*
X64389000Y-26543000D02*
X64389000Y-26289000D01*
X11039695Y-46355000D02*
X11875000Y-46355000D01*
X69977000Y-31115000D02*
X67945000Y-29083000D01*
X63373000Y-15229299D02*
X65405000Y-13197299D01*
X70292500Y-31115000D02*
X69977000Y-31115000D01*
X11875000Y-46355000D02*
X4255000Y-46355000D01*
X48130000Y-48754985D02*
X48130000Y-47765015D01*
X43307000Y-31877000D02*
X43500249Y-31877000D01*
X56007000Y-34925000D02*
X64389000Y-26543000D01*
X65190000Y-23245000D02*
X65215000Y-23270000D01*
X74295000Y-41275000D02*
X73980000Y-41275000D01*
X73255000Y-40550000D02*
X72755000Y-40550000D01*
X75565000Y-36387500D02*
X75565000Y-37211000D01*
X65405000Y-13197299D02*
X65405000Y-12065000D01*
X65405000Y-12065000D02*
X65151000Y-11811000D01*
X48130000Y-47765015D02*
X48905015Y-46990000D01*
X75885000Y-41275000D02*
X74295000Y-41275000D01*
X58230000Y-46990000D02*
X55055000Y-50165000D01*
X73980000Y-41275000D02*
X73255000Y-40550000D01*
X46548249Y-34925000D02*
X56007000Y-34925000D01*
X50829985Y-50165000D02*
X50194985Y-49530000D01*
X55055000Y-50165000D02*
X50829985Y-50165000D01*
X65215000Y-25463000D02*
X64389000Y-26289000D01*
X70292500Y-31115000D02*
X75565000Y-36387500D01*
X9308000Y-48086695D02*
X11039695Y-46355000D01*
X65151000Y-11811000D02*
X65147000Y-11815000D01*
X4255000Y-46355000D02*
X2985000Y-47625000D01*
X64490000Y-23245000D02*
X65190000Y-23245000D01*
X24511000Y-38100000D02*
X24511000Y-46355000D01*
X63790000Y-23245000D02*
X63373000Y-22828000D01*
X48905015Y-49530000D02*
X48130000Y-48754985D01*
X43500249Y-31877000D02*
X46548249Y-34925000D01*
X63373000Y-22828000D02*
X63373000Y-15229299D01*
X9308000Y-50687000D02*
X9308000Y-48086695D01*
X24511000Y-46355000D02*
X17746000Y-53120000D01*
X60897000Y-49657000D02*
X58230000Y-46990000D01*
X11875000Y-48260000D02*
X11875000Y-46355000D01*
%TO.N,/INPUT_A*%
X11875000Y-44450000D02*
X10414000Y-44450000D01*
X11875000Y-44450000D02*
X11875000Y-43050000D01*
X11875000Y-43050000D02*
X12065000Y-42860000D01*
X10414000Y-44450000D02*
X9779000Y-43815000D01*
%TO.N,/INPUT_B*%
X11875000Y-51560000D02*
X12385000Y-52070000D01*
X11875000Y-50052500D02*
X11875000Y-51560000D01*
X11698500Y-50052500D02*
X10033000Y-48387000D01*
X11875000Y-50052500D02*
X11698500Y-50052500D01*
%TO.N,/INPUT_SW*%
X52197000Y-24765000D02*
X52197000Y-21717000D01*
X5400000Y-49530000D02*
X6350000Y-48580000D01*
X6350000Y-48580000D02*
X7046000Y-48580000D01*
X4635000Y-49530000D02*
X5400000Y-49530000D01*
X7046000Y-48580000D02*
X8509000Y-47117000D01*
X47371000Y-29591000D02*
X52197000Y-24765000D01*
%TO.N,Net-(D4-Pad2)*%
X79567500Y-31115000D02*
X81127500Y-31115000D01*
X81127500Y-31115000D02*
X81280000Y-30962500D01*
%TO.N,Net-(U8-Pad7)*%
X42545000Y-38100000D02*
X41275000Y-38100000D01*
X45693249Y-41400000D02*
X45415000Y-41121751D01*
X47455749Y-40337500D02*
X46393249Y-41400000D01*
X40005000Y-43835000D02*
X40005000Y-39815000D01*
X40450000Y-38925000D02*
X40450000Y-39370000D01*
X48260000Y-37400000D02*
X48260000Y-40017500D01*
X41275000Y-38100000D02*
X40450000Y-38925000D01*
X45415000Y-40970000D02*
X42545000Y-38100000D01*
X46393249Y-41400000D02*
X45693249Y-41400000D01*
X48260000Y-40017500D02*
X47940000Y-40337500D01*
X45415000Y-41121751D02*
X45415000Y-40970000D01*
X47940000Y-40337500D02*
X47455749Y-40337500D01*
X40005000Y-39815000D02*
X40450000Y-39370000D01*
X40005000Y-50820000D02*
X40005000Y-43835000D01*
%TO.N,Net-(U8-Pad6)*%
X46040000Y-40337500D02*
X43167500Y-37465000D01*
X46990000Y-39387500D02*
X46990000Y-37400000D01*
X37465000Y-39702500D02*
X37020000Y-39257500D01*
X38812500Y-37465000D02*
X37020000Y-39257500D01*
X43167500Y-37465000D02*
X38812500Y-37465000D01*
X37465000Y-50820000D02*
X37465000Y-43835000D01*
X37465000Y-43835000D02*
X37465000Y-39702500D01*
X46040000Y-40337500D02*
X46990000Y-39387500D01*
%TO.N,Net-(D204-Pad2)*%
X66867500Y-31115000D02*
X68427500Y-31115000D01*
X68427500Y-31115000D02*
X68580000Y-30962500D01*
%TO.N,Net-(D205-Pad2)*%
X73217500Y-31115000D02*
X74777500Y-31115000D01*
X74777500Y-31115000D02*
X74930000Y-30962500D01*
%TO.N,Net-(R1-Pad1)*%
X36830000Y-2097500D02*
X36637500Y-1905000D01*
X36830000Y-5080000D02*
X36830000Y-2097500D01*
%TO.N,Net-(R12-Pad2)*%
X13565000Y-44490000D02*
X13525000Y-44450000D01*
X15505000Y-44490000D02*
X13565000Y-44490000D01*
X13525000Y-46355000D02*
X13525000Y-44450000D01*
%TO.N,Net-(R10-Pad1)*%
X15505000Y-49490000D02*
X14087500Y-49490000D01*
X14087500Y-49490000D02*
X13525000Y-50052500D01*
X13525000Y-50052500D02*
X13525000Y-48260000D01*
%TO.N,/SIDE_BTN*%
X54477500Y-46040000D02*
X52962500Y-44525000D01*
X7530000Y-39280000D02*
X11340000Y-39280000D01*
X6223000Y-31623000D02*
X6535698Y-31935698D01*
X11340000Y-39280000D02*
X12065000Y-40005000D01*
X13670000Y-40005000D02*
X17280000Y-43615000D01*
X17280000Y-43615000D02*
X17280000Y-49665000D01*
X45720000Y-47625000D02*
X41275000Y-47625000D01*
X6535698Y-31935698D02*
X6535698Y-38285698D01*
X12065000Y-40005000D02*
X13670000Y-40005000D01*
X6535698Y-38285698D02*
X7530000Y-39280000D01*
X3195000Y-28595000D02*
X6223000Y-31623000D01*
X2540000Y-28595000D02*
X3195000Y-28595000D01*
X17280000Y-49665000D02*
X18097500Y-50482500D01*
X52962500Y-44525000D02*
X48820000Y-44525000D01*
X48820000Y-44525000D02*
X45720000Y-47625000D01*
%TO.N,Net-(R13-Pad2)*%
X2985000Y-49530000D02*
X1045000Y-49530000D01*
X1045000Y-49530000D02*
X1005000Y-49490000D01*
X2985000Y-49275000D02*
X4635000Y-47625000D01*
X2985000Y-49530000D02*
X2985000Y-49275000D01*
%TO.N,Net-(RV1-Pad2)*%
X67310000Y-5080000D02*
X63720000Y-8670000D01*
X63720000Y-8670000D02*
X59180000Y-8670000D01*
X59180000Y-8670000D02*
X57055000Y-10795000D01*
%TO.N,/TRIG_BTN*%
X54477500Y-47940000D02*
X54861751Y-47940000D01*
X47625000Y-42826827D02*
X47625000Y-44450000D01*
X45720000Y-46355000D02*
X41910000Y-46355000D01*
X13856396Y-39555000D02*
X17780000Y-43478604D01*
X2540000Y-21610000D02*
X2540000Y-25654000D01*
X55465000Y-47336751D02*
X55465000Y-45693249D01*
X11526396Y-38830000D02*
X12251396Y-39555000D01*
X6985698Y-30099698D02*
X6985698Y-38099302D01*
X17780000Y-43478604D02*
X17780000Y-48895000D01*
X6985698Y-38099302D02*
X7716396Y-38830000D01*
X48541827Y-41910000D02*
X47625000Y-42826827D01*
X55465000Y-45693249D02*
X51681751Y-41910000D01*
X51681751Y-41910000D02*
X48541827Y-41910000D01*
X54861751Y-47940000D02*
X55465000Y-47336751D01*
X6223000Y-29337000D02*
X6985698Y-30099698D01*
X47625000Y-44450000D02*
X45720000Y-46355000D01*
X17780000Y-48895000D02*
X19050000Y-50165000D01*
X2540000Y-25654000D02*
X6223000Y-29337000D01*
X12251396Y-39555000D02*
X13856396Y-39555000D01*
X7716396Y-38830000D02*
X11526396Y-38830000D01*
%TO.N,/LCD_DB6*%
X49403000Y-12573000D02*
X41910000Y-5080000D01*
X49403000Y-18161000D02*
X49403000Y-12573000D01*
X49657000Y-18415000D02*
X49403000Y-18161000D01*
%TO.N,/LCD_DB7*%
X48953000Y-12885000D02*
X43053000Y-6985000D01*
X48641000Y-18161000D02*
X48953000Y-17849000D01*
X48953000Y-17849000D02*
X48953000Y-12885000D01*
X41275000Y-6985000D02*
X39370000Y-5080000D01*
X48641000Y-18415000D02*
X48641000Y-18161000D01*
X43053000Y-6985000D02*
X41275000Y-6985000D01*
%TO.N,/LCD_DB4*%
X50303000Y-17029000D02*
X50303000Y-12200208D01*
X50303000Y-12200208D02*
X46101000Y-7998208D01*
X46101000Y-7998208D02*
X46101000Y-5969000D01*
X46101000Y-5969000D02*
X46990000Y-5080000D01*
X51689000Y-18415000D02*
X50303000Y-17029000D01*
%TO.N,/LCD_DB5*%
X44450000Y-6983604D02*
X44450000Y-5080000D01*
X50382000Y-18132598D02*
X50382000Y-18114695D01*
X50382000Y-18114695D02*
X49853000Y-17585695D01*
X49853000Y-17585695D02*
X49853000Y-12386604D01*
X49853000Y-12386604D02*
X44450000Y-6983604D01*
X50668701Y-18419299D02*
X50382000Y-18132598D01*
%TO.N,/LCD_RS*%
X52959000Y-11557000D02*
X52959000Y-16891000D01*
X58375000Y-6141000D02*
X52959000Y-11557000D01*
X64770000Y-5080000D02*
X63145000Y-3455000D01*
X63145000Y-3455000D02*
X59092588Y-3455000D01*
X59092588Y-3455000D02*
X58375000Y-4172588D01*
X58375000Y-4172588D02*
X58375000Y-6141000D01*
%TO.N,Net-(J7-Pad2)*%
X69027500Y-22225000D02*
X69215000Y-22225000D01*
X66990000Y-20187500D02*
X69027500Y-22225000D01*
X78740000Y-25400000D02*
X71775000Y-25400000D01*
X70620000Y-24245000D02*
X71775000Y-25400000D01*
X67590000Y-24245000D02*
X70620000Y-24245000D01*
%TO.N,Net-(J7-Pad3)*%
X78740000Y-22860000D02*
X71775000Y-22860000D01*
X70890000Y-23745000D02*
X71775000Y-22860000D01*
X68115000Y-19200000D02*
X71775000Y-22860000D01*
X65090000Y-20187500D02*
X65090000Y-19803249D01*
X65693249Y-19200000D02*
X68115000Y-19200000D01*
X67590000Y-23745000D02*
X70890000Y-23745000D01*
X65090000Y-19803249D02*
X65693249Y-19200000D01*
%TO.N,Net-(J10-Pad3)*%
X65090000Y-17912500D02*
X64934000Y-17756500D01*
X65913000Y-13335000D02*
X65913000Y-11792000D01*
X65358695Y-13880000D02*
X65368000Y-13880000D01*
X68199000Y-10287000D02*
X69342000Y-11430000D01*
X64934000Y-14304695D02*
X65358695Y-13880000D01*
X70890000Y-12315000D02*
X71775000Y-11430000D01*
X67590000Y-12315000D02*
X70890000Y-12315000D01*
X65913000Y-11792000D02*
X67418000Y-10287000D01*
X64934000Y-17756500D02*
X64934000Y-14304695D01*
X65368000Y-13880000D02*
X65913000Y-13335000D01*
X78760000Y-11430000D02*
X71775000Y-11430000D01*
X67418000Y-10287000D02*
X68199000Y-10287000D01*
X69342000Y-11430000D02*
X71775000Y-11430000D01*
%TO.N,Net-(J10-Pad2)*%
X67590000Y-12815000D02*
X70620000Y-12815000D01*
X78760000Y-13970000D02*
X71775000Y-13970000D01*
X66766000Y-15113000D02*
X68453000Y-15113000D01*
X66990000Y-16772462D02*
X66421000Y-16203462D01*
X68453000Y-15113000D02*
X69596000Y-13970000D01*
X66990000Y-17912500D02*
X66990000Y-16772462D01*
X69596000Y-13970000D02*
X71775000Y-13970000D01*
X70620000Y-12815000D02*
X71775000Y-13970000D01*
X66421000Y-15458000D02*
X66766000Y-15113000D01*
X66421000Y-16203462D02*
X66421000Y-15458000D01*
%TO.N,Net-(R4-Pad1)*%
X77295040Y-1905000D02*
X68961000Y-1905000D01*
X77842500Y-29915000D02*
X79305000Y-29915000D01*
X80630000Y-5239960D02*
X77295040Y-1905000D01*
X76642500Y-31115000D02*
X77842500Y-29915000D01*
X79305000Y-29915000D02*
X80630000Y-28590000D01*
X80630000Y-28590000D02*
X80630000Y-5239960D01*
%TO.N,Net-(R5-Pad2)*%
X66421000Y-23749000D02*
X66421000Y-24766000D01*
X67590000Y-23245000D02*
X66925000Y-23245000D01*
X66925000Y-23245000D02*
X66421000Y-23749000D01*
X66421000Y-24766000D02*
X67310000Y-25655000D01*
X67590000Y-22745000D02*
X67590000Y-23245000D01*
%TO.N,Net-(R6-Pad2)*%
X67590000Y-11315000D02*
X67590000Y-11815000D01*
X66671000Y-11815000D02*
X66421000Y-12065000D01*
X66421000Y-12065000D02*
X66421000Y-13336000D01*
X66421000Y-13336000D02*
X67310000Y-14225000D01*
X67590000Y-11815000D02*
X66671000Y-11815000D01*
%TO.N,/RS485_TXE*%
X54483000Y-24257000D02*
X54483000Y-17907000D01*
X46990000Y-32450000D02*
X48260000Y-32450000D01*
X48260000Y-32450000D02*
X48260000Y-30480000D01*
X48260000Y-30480000D02*
X54483000Y-24257000D01*
%TO.N,/UART2_RX*%
X49530000Y-32450000D02*
X49530000Y-31750000D01*
X49530000Y-31750000D02*
X54483000Y-26797000D01*
%TO.N,/UART2_TX*%
X45720000Y-32450000D02*
X45720000Y-32826751D01*
X52959000Y-30607000D02*
X54737000Y-30607000D01*
X50673000Y-32893000D02*
X52959000Y-30607000D01*
X46643249Y-33750000D02*
X50070000Y-33750000D01*
X50673000Y-33147000D02*
X50673000Y-32893000D01*
X50070000Y-33750000D02*
X50673000Y-33147000D01*
X45720000Y-32826751D02*
X46643249Y-33750000D01*
%TO.N,/LCD_E*%
X59690000Y-5462396D02*
X55499000Y-9653396D01*
X55499000Y-9653396D02*
X55499000Y-31369000D01*
X59690000Y-5080000D02*
X59690000Y-5462396D01*
X55499000Y-31369000D02*
X54737000Y-32131000D01*
%TO.N,/SDA_MOTOR*%
X60071000Y-22987000D02*
X60071000Y-17234000D01*
X60071000Y-17234000D02*
X64490000Y-12815000D01*
%TO.N,/SCL_MOTOR*%
X64490000Y-12315000D02*
X63790000Y-12315000D01*
X59309000Y-16796000D02*
X59309000Y-20701000D01*
X63790000Y-12315000D02*
X59309000Y-16796000D01*
%TO.N,/SDA_PERIPH*%
X64490000Y-24245000D02*
X62978604Y-24245000D01*
X62978604Y-24245000D02*
X60833000Y-22099396D01*
X60833000Y-22099396D02*
X60833000Y-20701000D01*
%TO.N,/SCL_PERIPH*%
X61595000Y-22225000D02*
X61595000Y-19685000D01*
X64490000Y-23745000D02*
X63115000Y-23745000D01*
X61595000Y-22225000D02*
X63115000Y-23745000D01*
%TO.N,/UART_TX*%
X66040000Y-38100000D02*
X69305000Y-38100000D01*
X51882500Y-45720000D02*
X49550000Y-45720000D01*
X52202500Y-46040000D02*
X51882500Y-45720000D01*
X65405000Y-38735000D02*
X66040000Y-38100000D01*
%TO.N,/UART_RX*%
X51882500Y-48260000D02*
X49550000Y-48260000D01*
X69305000Y-38600000D02*
X67445000Y-38600000D01*
X52202500Y-47940000D02*
X51882500Y-48260000D01*
X67445000Y-38600000D02*
X66675000Y-39370000D01*
%TO.N,Net-(R306-Pad2)*%
X76645000Y-50800000D02*
X74797500Y-50800000D01*
%TO.N,Net-(R307-Pad1)*%
X68080000Y-37600000D02*
X67832500Y-37352500D01*
X69305000Y-37600000D02*
X68080000Y-37600000D01*
X67832500Y-37352500D02*
X67832500Y-36385000D01*
%TO.N,Net-(J301-Pad1)*%
X77357500Y-44640000D02*
X76835000Y-45162500D01*
X72522500Y-49850000D02*
X73435000Y-48937500D01*
X73435000Y-44897500D02*
X72410000Y-43872500D01*
X76835000Y-45162500D02*
X76835000Y-46990000D01*
X73435000Y-48937500D02*
X73435000Y-44897500D01*
%TO.N,Net-(J301-Pad2)*%
X75935000Y-44897500D02*
X74910000Y-43872500D01*
X77370000Y-51492462D02*
X77370000Y-49430000D01*
X72255000Y-40550000D02*
X72255000Y-41217500D01*
X72255000Y-41217500D02*
X74910000Y-43872500D01*
X77370000Y-49430000D02*
X75935000Y-47995000D01*
X75935000Y-47995000D02*
X75935000Y-44897500D01*
X74797500Y-51750000D02*
X77112462Y-51750000D01*
X77112462Y-51750000D02*
X77370000Y-51492462D01*
%TO.N,Net-(J301-Pad3)*%
X74910000Y-49737500D02*
X74910000Y-47072500D01*
X71755000Y-40550000D02*
X71755000Y-41353896D01*
X74797500Y-49850000D02*
X74910000Y-49737500D01*
X73885000Y-46047500D02*
X74910000Y-47072500D01*
X71755000Y-41353896D02*
X73885000Y-43483896D01*
X73885000Y-43483896D02*
X73885000Y-46047500D01*
%TO.N,Net-(R308-Pad1)*%
X68284758Y-39600000D02*
X67832500Y-40052258D01*
X69305000Y-39600000D02*
X68284758Y-39600000D01*
%TO.N,Net-(Q301-Pad1)*%
X63832500Y-36515000D02*
X63832500Y-35672500D01*
X63832500Y-35672500D02*
X64580000Y-34925000D01*
%TO.N,Net-(Q301-Pad2)*%
X66040000Y-41720000D02*
X66040000Y-40622500D01*
X66057742Y-41702258D02*
X66040000Y-41720000D01*
X67832500Y-41702258D02*
X66057742Y-41702258D01*
X66040000Y-40622500D02*
X63832500Y-38415000D01*
%TO.N,/BOOT*%
X68707000Y-34392038D02*
X68707000Y-35179000D01*
X62611000Y-41275000D02*
X64135000Y-42799000D01*
X62611000Y-38227249D02*
X62611000Y-41275000D01*
X68707000Y-35179000D02*
X68426000Y-35460000D01*
X65707500Y-37465000D02*
X63373249Y-37465000D01*
X64135000Y-33020000D02*
X64516000Y-33401000D01*
X68426000Y-35460000D02*
X67410000Y-35460000D01*
X67715962Y-33401000D02*
X68707000Y-34392038D01*
X64516000Y-33401000D02*
X67715962Y-33401000D01*
X63373249Y-37465000D02*
X62611000Y-38227249D01*
X67410000Y-35460000D02*
X65707500Y-37162500D01*
X65707500Y-37162500D02*
X65707500Y-37465000D01*
%TO.N,Net-(Q302-Pad1)*%
X66040000Y-43370000D02*
X66040000Y-45085000D01*
X64455000Y-46670000D02*
X63802500Y-46670000D01*
X66040000Y-45085000D02*
X64455000Y-46670000D01*
%TO.N,Net-(Q302-Pad2)*%
X64378538Y-33909000D02*
X65214000Y-33909000D01*
X63802500Y-44770000D02*
X62103000Y-43070500D01*
X62103000Y-43070500D02*
X62103000Y-36184538D01*
X65214000Y-33909000D02*
X66230000Y-34925000D01*
X62103000Y-36184538D02*
X64378538Y-33909000D01*
X66230000Y-34925000D02*
X67642500Y-34925000D01*
X67642500Y-34925000D02*
X67832500Y-34735000D01*
%TO.N,/RESET*%
X51435000Y-41026853D02*
X55838147Y-45430000D01*
X59345000Y-45430000D02*
X55838147Y-45430000D01*
X59880000Y-45965000D02*
X59345000Y-45430000D01*
X59880000Y-46990000D02*
X59880000Y-45965000D01*
X61150000Y-45720000D02*
X59880000Y-46990000D01*
X51435000Y-41026853D02*
X51435000Y-38735000D01*
X61927500Y-45720000D02*
X61150000Y-45720000D01*
%TO.N,Net-(R301-Pad1)*%
X74205000Y-39600000D02*
X75667500Y-39600000D01*
X77357500Y-42990000D02*
X76960000Y-42592500D01*
X76960000Y-40207500D02*
X76010000Y-39257500D01*
X75667500Y-39600000D02*
X76010000Y-39257500D01*
X76960000Y-42592500D02*
X76960000Y-40207500D01*
%TD*%
%TA.AperFunction,Conductor*%
%TO.N,Net-(D201-Pad1)*%
G36*
X16770994Y-5963285D02*
G01*
X16838085Y-5986504D01*
X16881974Y-6042311D01*
X16891000Y-6089142D01*
X16891000Y-6959138D01*
X16880812Y-7008772D01*
X15399728Y-10464634D01*
X15354509Y-10519367D01*
X15283916Y-10541000D01*
X13911789Y-10541000D01*
X13843668Y-10520998D01*
X13805801Y-10483135D01*
X11577012Y-7016130D01*
X11557000Y-6947995D01*
X11557000Y-5847142D01*
X11577002Y-5779021D01*
X11630658Y-5732528D01*
X11688991Y-5721285D01*
X16770994Y-5963285D01*
G37*
%TD.AperFunction*%
%TD*%
%TA.AperFunction,Conductor*%
%TO.N,Net-(C201-Pad1)*%
G36*
X16908713Y-1656314D02*
G01*
X21881206Y-3148062D01*
X21940706Y-3186795D01*
X21969820Y-3251547D01*
X21971000Y-3268748D01*
X21971000Y-5660055D01*
X21950998Y-5728176D01*
X21930737Y-5752387D01*
X18451258Y-8983332D01*
X18387729Y-9015027D01*
X18365521Y-9017000D01*
X17271000Y-9017000D01*
X17202879Y-8996998D01*
X17156386Y-8943342D01*
X17145000Y-8891000D01*
X17145000Y-7776745D01*
X17158302Y-7720396D01*
X17399000Y-7239000D01*
X17399000Y-7187181D01*
X17405407Y-7147514D01*
X17435632Y-7056388D01*
X17437797Y-7049861D01*
X17448500Y-6945400D01*
X17448500Y-6219600D01*
X17437526Y-6113834D01*
X17405476Y-6017768D01*
X17399000Y-5977893D01*
X17399000Y-5207000D01*
X14031992Y-3186795D01*
X13650174Y-2957704D01*
X13602051Y-2905505D01*
X13589000Y-2849660D01*
X13589000Y-1777000D01*
X13609002Y-1708879D01*
X13662658Y-1662386D01*
X13715000Y-1651000D01*
X16872507Y-1651000D01*
X16908713Y-1656314D01*
G37*
%TD.AperFunction*%
%TD*%
%TA.AperFunction,Conductor*%
%TO.N,+3V3*%
G36*
X47567121Y-15895002D02*
G01*
X47613614Y-15948658D01*
X47625000Y-16001000D01*
X47625000Y-18415000D01*
X47633996Y-18421747D01*
X47692301Y-18465476D01*
X47734796Y-18522350D01*
X47742011Y-18553105D01*
X47747458Y-18604928D01*
X47806473Y-18786556D01*
X47901960Y-18951944D01*
X48029747Y-19093866D01*
X48184248Y-19206118D01*
X48190276Y-19208802D01*
X48190278Y-19208803D01*
X48352681Y-19281109D01*
X48358712Y-19283794D01*
X48461753Y-19305696D01*
X48541197Y-19322583D01*
X48603671Y-19356312D01*
X48637992Y-19418461D01*
X48641000Y-19445830D01*
X48641000Y-20680553D01*
X48634534Y-20720398D01*
X48502808Y-21115577D01*
X48472447Y-21164750D01*
X48360695Y-21276697D01*
X48267885Y-21427262D01*
X48212203Y-21595139D01*
X48201500Y-21699600D01*
X48201500Y-21999053D01*
X48195034Y-22038898D01*
X47907718Y-22900845D01*
X47867201Y-22959145D01*
X47801596Y-22986284D01*
X47788184Y-22987000D01*
X45085000Y-22987000D01*
X44069000Y-23495000D01*
X44069000Y-27030553D01*
X44062534Y-27070398D01*
X43307000Y-29337000D01*
X43307000Y-30735000D01*
X43286998Y-30803121D01*
X43233342Y-30849614D01*
X43181000Y-30861000D01*
X42417000Y-30861000D01*
X42348879Y-30840998D01*
X42302386Y-30787342D01*
X42291000Y-30735000D01*
X42291000Y-27305000D01*
X39382614Y-26497115D01*
X37727234Y-26037287D01*
X37727232Y-26037287D01*
X37719000Y-26035000D01*
X36067000Y-26035000D01*
X35998879Y-26014998D01*
X35952386Y-25961342D01*
X35941000Y-25909000D01*
X35941000Y-24891000D01*
X35961002Y-24822879D01*
X36014658Y-24776386D01*
X36067000Y-24765000D01*
X37719000Y-24765000D01*
X37727656Y-24762454D01*
X37727657Y-24762454D01*
X42019620Y-23500112D01*
X42019621Y-23500112D01*
X42037000Y-23495000D01*
X42170718Y-22993560D01*
X43140650Y-19356312D01*
X44044058Y-15968534D01*
X44080936Y-15907868D01*
X44144760Y-15876770D01*
X44165803Y-15875000D01*
X47499000Y-15875000D01*
X47567121Y-15895002D01*
G37*
%TD.AperFunction*%
%TD*%
%TA.AperFunction,Conductor*%
%TO.N,Net-(C204-Pad1)*%
G36*
X23183121Y-23007002D02*
G01*
X23229614Y-23060658D01*
X23241000Y-23113000D01*
X23241000Y-23623000D01*
X23220998Y-23691121D01*
X23167342Y-23737614D01*
X23115000Y-23749000D01*
X18669000Y-23749000D01*
X18658496Y-23757403D01*
X18402033Y-23962574D01*
X18367551Y-23982166D01*
X18348295Y-23989385D01*
X18341116Y-23994765D01*
X18341113Y-23994767D01*
X18238922Y-24071355D01*
X18238919Y-24071358D01*
X18231739Y-24076739D01*
X18226358Y-24083919D01*
X18226357Y-24083920D01*
X18200038Y-24119038D01*
X18177925Y-24141860D01*
X17399000Y-24765000D01*
X17907000Y-26797000D01*
X17916666Y-26808192D01*
X22702360Y-32349522D01*
X22731747Y-32414151D01*
X22733000Y-32431878D01*
X22733000Y-34659289D01*
X22730842Y-34682509D01*
X22637750Y-35179000D01*
X21209000Y-42799000D01*
X21209000Y-48261000D01*
X21188998Y-48329121D01*
X21135342Y-48375614D01*
X21083000Y-48387000D01*
X18539500Y-48387000D01*
X18471379Y-48366998D01*
X18424886Y-48313342D01*
X18413500Y-48261000D01*
X18413500Y-43557371D01*
X18414027Y-43546188D01*
X18415702Y-43538695D01*
X18413562Y-43470618D01*
X18413500Y-43466659D01*
X18413500Y-43438748D01*
X18412995Y-43434748D01*
X18412062Y-43422905D01*
X18410922Y-43386634D01*
X18410673Y-43378715D01*
X18405021Y-43359261D01*
X18401013Y-43339904D01*
X18399468Y-43327674D01*
X18399468Y-43327673D01*
X18398474Y-43319807D01*
X18395555Y-43312434D01*
X18382196Y-43278692D01*
X18378351Y-43267462D01*
X18368229Y-43232621D01*
X18368229Y-43232620D01*
X18366018Y-43225011D01*
X18361985Y-43218192D01*
X18361983Y-43218187D01*
X18355707Y-43207576D01*
X18347012Y-43189828D01*
X18339552Y-43170987D01*
X18313564Y-43135217D01*
X18307048Y-43125297D01*
X18288580Y-43094069D01*
X18288578Y-43094066D01*
X18284542Y-43087242D01*
X18270221Y-43072921D01*
X18257380Y-43057887D01*
X18250131Y-43047910D01*
X18245472Y-43041497D01*
X18239368Y-43036447D01*
X18239363Y-43036442D01*
X18211402Y-43013311D01*
X18202621Y-43005321D01*
X17688544Y-42491243D01*
X17681261Y-42483309D01*
X14108670Y-38240858D01*
X14097000Y-38227000D01*
X11753955Y-38227000D01*
X11718799Y-38221996D01*
X11711815Y-38219967D01*
X11704541Y-38216819D01*
X11696718Y-38215580D01*
X11696708Y-38215577D01*
X11660872Y-38209901D01*
X11649252Y-38207495D01*
X11614107Y-38198472D01*
X11614106Y-38198472D01*
X11606426Y-38196500D01*
X11586172Y-38196500D01*
X11566461Y-38194949D01*
X11554282Y-38193020D01*
X11546453Y-38191780D01*
X11538561Y-38192526D01*
X11502435Y-38195941D01*
X11490577Y-38196500D01*
X8889000Y-38196500D01*
X8820879Y-38176498D01*
X8774386Y-38122842D01*
X8763000Y-38070500D01*
X8763000Y-35259854D01*
X8783002Y-35191733D01*
X8836501Y-35145312D01*
X9846253Y-34682509D01*
X14859000Y-32385000D01*
X15365925Y-24781129D01*
X15372112Y-24749665D01*
X15849197Y-23318410D01*
X15889713Y-23260112D01*
X15956193Y-23232881D01*
X18408750Y-22987625D01*
X18421287Y-22987000D01*
X23115000Y-22987000D01*
X23183121Y-23007002D01*
G37*
%TD.AperFunction*%
%TD*%
%TA.AperFunction,Conductor*%
%TO.N,GND*%
G36*
X6782628Y-4964914D02*
G01*
X9935333Y-5692461D01*
X9997211Y-5727268D01*
X10030448Y-5790004D01*
X10033000Y-5815234D01*
X10033000Y-6859000D01*
X10012998Y-6927121D01*
X9959342Y-6973614D01*
X9907000Y-6985000D01*
X8763000Y-6985000D01*
X8747479Y-6995347D01*
X8747477Y-6995348D01*
X6735875Y-8336417D01*
X5715000Y-9017000D01*
X5715000Y-10684684D01*
X5694998Y-10752805D01*
X5641342Y-10799298D01*
X5571068Y-10809402D01*
X5557665Y-10806725D01*
X5404322Y-10767353D01*
X5393766Y-10765582D01*
X5260070Y-10754707D01*
X5254964Y-10754500D01*
X4717115Y-10754500D01*
X4701876Y-10758975D01*
X4700671Y-10760365D01*
X4699000Y-10768048D01*
X4699000Y-15252384D01*
X4703475Y-15267623D01*
X4704865Y-15268828D01*
X4712548Y-15270499D01*
X5103069Y-15270499D01*
X5171190Y-15290501D01*
X5217683Y-15344157D01*
X5227787Y-15414431D01*
X5199865Y-15477162D01*
X4456596Y-16369084D01*
X4456595Y-16369086D01*
X4445000Y-16383000D01*
X4445000Y-18923000D01*
X4452108Y-18929092D01*
X4452108Y-18929093D01*
X6208322Y-20434419D01*
X6223000Y-20447000D01*
X6242235Y-20448923D01*
X6242236Y-20448924D01*
X8649537Y-20689654D01*
X8715330Y-20716335D01*
X8756253Y-20774351D01*
X8763000Y-20815029D01*
X8763000Y-22353000D01*
X8742998Y-22421121D01*
X8689342Y-22467614D01*
X8637000Y-22479000D01*
X6267735Y-22479000D01*
X6199614Y-22458998D01*
X6188280Y-22450790D01*
X6067923Y-22353000D01*
X2167314Y-19183755D01*
X2151947Y-19168940D01*
X412175Y-17180629D01*
X382371Y-17116191D01*
X381000Y-17097657D01*
X381000Y-14072461D01*
X2437001Y-14072461D01*
X2437209Y-14077571D01*
X2448082Y-14211267D01*
X2449852Y-14221820D01*
X2502967Y-14428685D01*
X2506701Y-14439231D01*
X2595510Y-14633205D01*
X2601046Y-14642912D01*
X2722803Y-14818097D01*
X2729976Y-14826676D01*
X2880824Y-14977524D01*
X2889403Y-14984697D01*
X3064588Y-15106454D01*
X3074295Y-15111990D01*
X3268269Y-15200799D01*
X3278815Y-15204533D01*
X3485679Y-15257647D01*
X3496234Y-15259418D01*
X3629930Y-15270293D01*
X3635036Y-15270500D01*
X4172885Y-15270500D01*
X4188124Y-15266025D01*
X4189329Y-15264635D01*
X4191000Y-15256952D01*
X4191000Y-13284615D01*
X4186525Y-13269376D01*
X4185135Y-13268171D01*
X4177452Y-13266500D01*
X2455116Y-13266500D01*
X2439877Y-13270975D01*
X2438672Y-13272365D01*
X2437001Y-13280048D01*
X2437001Y-14072461D01*
X381000Y-14072461D01*
X381000Y-12740385D01*
X2437000Y-12740385D01*
X2441475Y-12755624D01*
X2442865Y-12756829D01*
X2450548Y-12758500D01*
X4172885Y-12758500D01*
X4188124Y-12754025D01*
X4189329Y-12752635D01*
X4191000Y-12744952D01*
X4191000Y-10772616D01*
X4186525Y-10757377D01*
X4185135Y-10756172D01*
X4177452Y-10754501D01*
X3635039Y-10754501D01*
X3629929Y-10754709D01*
X3496233Y-10765582D01*
X3485680Y-10767352D01*
X3278815Y-10820467D01*
X3268269Y-10824201D01*
X3074295Y-10913010D01*
X3064588Y-10918546D01*
X2889403Y-11040303D01*
X2880824Y-11047476D01*
X2729976Y-11198324D01*
X2722803Y-11206903D01*
X2601046Y-11382088D01*
X2595510Y-11391795D01*
X2506701Y-11585769D01*
X2502967Y-11596315D01*
X2449853Y-11803179D01*
X2448082Y-11813734D01*
X2437207Y-11947430D01*
X2437000Y-11952536D01*
X2437000Y-12740385D01*
X381000Y-12740385D01*
X381000Y-9085955D01*
X401002Y-9017834D01*
X439078Y-8979830D01*
X3576932Y-6971603D01*
X3596632Y-6961322D01*
X3785136Y-6883241D01*
X4021582Y-6745073D01*
X4237089Y-6576094D01*
X4278809Y-6533043D01*
X4295750Y-6515561D01*
X4318313Y-6497120D01*
X6686374Y-4981561D01*
X6754533Y-4961687D01*
X6782628Y-4964914D01*
G37*
%TD.AperFunction*%
%TD*%
%TA.AperFunction,Conductor*%
%TO.N,GND*%
G36*
X51234023Y-19206908D02*
G01*
X51360250Y-19263108D01*
X51414345Y-19309087D01*
X51435000Y-19378214D01*
X51435000Y-20653657D01*
X51414998Y-20721778D01*
X51403827Y-20736626D01*
X49657000Y-22733000D01*
X49653010Y-22744306D01*
X49653009Y-22744307D01*
X48140833Y-27028806D01*
X48117682Y-27068871D01*
X46609000Y-28829000D01*
X46607761Y-28830652D01*
X46607757Y-28830657D01*
X45122800Y-30810600D01*
X45065926Y-30853095D01*
X45022000Y-30861000D01*
X44195000Y-30861000D01*
X44126879Y-30840998D01*
X44080386Y-30787342D01*
X44069000Y-30735000D01*
X44069000Y-29363738D01*
X44079860Y-29312565D01*
X45079630Y-27063084D01*
X45079631Y-27063081D01*
X45085000Y-27051000D01*
X45085000Y-24807000D01*
X45105002Y-24738879D01*
X45110200Y-24731400D01*
X45809200Y-23799400D01*
X45866074Y-23756905D01*
X45910000Y-23749000D01*
X47625000Y-23749000D01*
X48895000Y-22987000D01*
X48895000Y-21746745D01*
X48908302Y-21690396D01*
X50106001Y-19294998D01*
X50154356Y-19243014D01*
X50223139Y-19225425D01*
X50269947Y-19236240D01*
X50380378Y-19285407D01*
X50380386Y-19285410D01*
X50386413Y-19288093D01*
X50479814Y-19307946D01*
X50566757Y-19326427D01*
X50566762Y-19326427D01*
X50573214Y-19327799D01*
X50764188Y-19327799D01*
X50770640Y-19326427D01*
X50770645Y-19326427D01*
X50857589Y-19307946D01*
X50950989Y-19288093D01*
X51052239Y-19243014D01*
X51119416Y-19213105D01*
X51119417Y-19213104D01*
X51125453Y-19210417D01*
X51125897Y-19211414D01*
X51188763Y-19196158D01*
X51234023Y-19206908D01*
G37*
%TD.AperFunction*%
%TD*%
%TA.AperFunction,Conductor*%
%TO.N,Net-(D203-Pad1)*%
G36*
X19525940Y-19339370D02*
G01*
X22610599Y-19427503D01*
X22678120Y-19449443D01*
X22723062Y-19504404D01*
X22733000Y-19553452D01*
X22733000Y-20321000D01*
X22712998Y-20389121D01*
X22659342Y-20435614D01*
X22607000Y-20447000D01*
X18669000Y-20447000D01*
X17147604Y-21080915D01*
X15637722Y-21710032D01*
X15637721Y-21710033D01*
X15621000Y-21717000D01*
X14097000Y-25527000D01*
X14097000Y-27946597D01*
X14076998Y-28014718D01*
X14023342Y-28061211D01*
X13976721Y-28072467D01*
X11753388Y-28173528D01*
X8640720Y-28315013D01*
X8571763Y-28298125D01*
X8522881Y-28246636D01*
X8509000Y-28189143D01*
X8509000Y-25309690D01*
X8528699Y-25242044D01*
X10277350Y-22494164D01*
X10287000Y-22479000D01*
X10287000Y-20784084D01*
X10307002Y-20715963D01*
X10363366Y-20668272D01*
X11745019Y-20076135D01*
X13817500Y-19187929D01*
X13870730Y-19177792D01*
X19525940Y-19339370D01*
G37*
%TD.AperFunction*%
%TD*%
%TA.AperFunction,Conductor*%
%TO.N,+12V*%
G36*
X30803121Y-10053002D02*
G01*
X30849614Y-10106658D01*
X30861000Y-10159000D01*
X30861000Y-12722922D01*
X30840998Y-12791043D01*
X30787342Y-12837536D01*
X30758797Y-12846655D01*
X24257000Y-14097000D01*
X23241000Y-17653000D01*
X23241000Y-18543000D01*
X23220998Y-18611121D01*
X23167342Y-18657614D01*
X23115000Y-18669000D01*
X18453149Y-18669000D01*
X18383257Y-18647838D01*
X16185108Y-17182405D01*
X16139523Y-17127976D01*
X16129000Y-17077567D01*
X16129000Y-15663000D01*
X16149002Y-15594879D01*
X16154200Y-15587400D01*
X16891000Y-14605000D01*
X17145000Y-11049000D01*
X17145000Y-10159000D01*
X17165002Y-10090879D01*
X17218658Y-10044386D01*
X17271000Y-10033000D01*
X30735000Y-10033000D01*
X30803121Y-10053002D01*
G37*
%TD.AperFunction*%
%TD*%
%TA.AperFunction,Conductor*%
%TO.N,/Power supply/12V_in*%
G36*
X10824052Y-9541601D02*
G01*
X13236521Y-10920155D01*
X13274833Y-10953989D01*
X13341739Y-11043261D01*
X13458295Y-11130615D01*
X13594684Y-11181745D01*
X13656866Y-11188500D01*
X13672663Y-11188500D01*
X13735176Y-11205101D01*
X15157125Y-12017643D01*
X15206347Y-12068807D01*
X15220094Y-12138460D01*
X15216851Y-12157598D01*
X14626879Y-14517485D01*
X14590952Y-14578721D01*
X14527623Y-14610812D01*
X14515105Y-14612491D01*
X12839464Y-14752128D01*
X12769917Y-14737852D01*
X12719129Y-14688243D01*
X12703000Y-14626563D01*
X12703000Y-13284615D01*
X12698525Y-13269376D01*
X12697135Y-13268171D01*
X12689452Y-13266500D01*
X8205116Y-13266500D01*
X8189877Y-13270975D01*
X8188672Y-13272365D01*
X8187001Y-13280048D01*
X8187001Y-14807169D01*
X8187371Y-14813990D01*
X8192895Y-14864852D01*
X8196522Y-14880107D01*
X8232183Y-14975234D01*
X8237366Y-15046041D01*
X8203445Y-15108410D01*
X8141189Y-15142539D01*
X8124666Y-15145028D01*
X7121464Y-15228628D01*
X7051917Y-15214352D01*
X7001129Y-15164743D01*
X6985000Y-15103063D01*
X6985000Y-12740385D01*
X8187000Y-12740385D01*
X8191475Y-12755624D01*
X8192865Y-12756829D01*
X8200548Y-12758500D01*
X10172885Y-12758500D01*
X10188124Y-12754025D01*
X10189329Y-12752635D01*
X10191000Y-12744952D01*
X10191000Y-12740385D01*
X10699000Y-12740385D01*
X10703475Y-12755624D01*
X10704865Y-12756829D01*
X10712548Y-12758500D01*
X12684884Y-12758500D01*
X12700123Y-12754025D01*
X12701328Y-12752635D01*
X12702999Y-12744952D01*
X12702999Y-11217831D01*
X12702629Y-11211010D01*
X12697105Y-11160148D01*
X12693479Y-11144896D01*
X12648324Y-11024446D01*
X12639786Y-11008851D01*
X12563285Y-10906776D01*
X12550724Y-10894215D01*
X12448649Y-10817714D01*
X12433054Y-10809176D01*
X12312606Y-10764022D01*
X12297351Y-10760395D01*
X12246486Y-10754869D01*
X12239672Y-10754500D01*
X10717115Y-10754500D01*
X10701876Y-10758975D01*
X10700671Y-10760365D01*
X10699000Y-10768048D01*
X10699000Y-12740385D01*
X10191000Y-12740385D01*
X10191000Y-10772616D01*
X10186525Y-10757377D01*
X10185135Y-10756172D01*
X10177452Y-10754501D01*
X8650331Y-10754501D01*
X8643510Y-10754871D01*
X8592648Y-10760395D01*
X8577396Y-10764021D01*
X8456946Y-10809176D01*
X8441351Y-10817714D01*
X8339276Y-10894215D01*
X8326715Y-10906776D01*
X8250214Y-11008851D01*
X8241676Y-11024446D01*
X8196522Y-11144894D01*
X8192895Y-11160149D01*
X8187369Y-11211014D01*
X8187000Y-11217828D01*
X8187000Y-12740385D01*
X6985000Y-12740385D01*
X6985000Y-9651000D01*
X7005002Y-9582879D01*
X7058658Y-9536386D01*
X7111000Y-9525000D01*
X10761538Y-9525000D01*
X10824052Y-9541601D01*
G37*
%TD.AperFunction*%
%TD*%
%TA.AperFunction,Conductor*%
%TO.N,+5V*%
G36*
X37961565Y-27071002D02*
G01*
X38007204Y-27122828D01*
X40513000Y-32385000D01*
X42419000Y-32385000D01*
X42487121Y-32405002D01*
X42533614Y-32458658D01*
X42545000Y-32511000D01*
X42545000Y-34834184D01*
X42524998Y-34902305D01*
X42471342Y-34948798D01*
X42458845Y-34953718D01*
X38767001Y-36184333D01*
X37973000Y-36449000D01*
X35687000Y-38735000D01*
X35687000Y-39491756D01*
X35686565Y-39502220D01*
X35468711Y-42116464D01*
X35443121Y-42182688D01*
X35385789Y-42224565D01*
X35343146Y-42232000D01*
X35197115Y-42232000D01*
X35181876Y-42236475D01*
X35180671Y-42237865D01*
X35179000Y-42245548D01*
X35179000Y-45419884D01*
X35183475Y-45435123D01*
X35184865Y-45436328D01*
X35192548Y-45437999D01*
X35307000Y-45437999D01*
X35375121Y-45458001D01*
X35421614Y-45511657D01*
X35433000Y-45563999D01*
X35433000Y-49091000D01*
X35412998Y-49159121D01*
X35359342Y-49205614D01*
X35307000Y-49217000D01*
X35197115Y-49217000D01*
X35181876Y-49221475D01*
X35180671Y-49222865D01*
X35179000Y-49230548D01*
X35179000Y-50948000D01*
X35158998Y-51016121D01*
X35105342Y-51062614D01*
X35053000Y-51074000D01*
X33565116Y-51074000D01*
X33549877Y-51078475D01*
X33548672Y-51079865D01*
X33547001Y-51087548D01*
X33547001Y-51483107D01*
X33526999Y-51551228D01*
X33473343Y-51597721D01*
X33403069Y-51607825D01*
X33353355Y-51589408D01*
X32550461Y-51078475D01*
X31716677Y-50547885D01*
X33547000Y-50547885D01*
X33551475Y-50563124D01*
X33552865Y-50564329D01*
X33560548Y-50566000D01*
X34652885Y-50566000D01*
X34668124Y-50561525D01*
X34669329Y-50560135D01*
X34671000Y-50552452D01*
X34671000Y-49235116D01*
X34666525Y-49219877D01*
X34665135Y-49218672D01*
X34657452Y-49217001D01*
X34257905Y-49217001D01*
X34251386Y-49217338D01*
X34155794Y-49227257D01*
X34142400Y-49230149D01*
X33988216Y-49281588D01*
X33975038Y-49287761D01*
X33837193Y-49373063D01*
X33825792Y-49382099D01*
X33711261Y-49496829D01*
X33702249Y-49508240D01*
X33617184Y-49646243D01*
X33611037Y-49659424D01*
X33559862Y-49813710D01*
X33556995Y-49827086D01*
X33547328Y-49921438D01*
X33547000Y-49927855D01*
X33547000Y-50547885D01*
X31716677Y-50547885D01*
X28376250Y-48422159D01*
X28329517Y-48368712D01*
X28318026Y-48321579D01*
X28154641Y-44727095D01*
X33547001Y-44727095D01*
X33547338Y-44733614D01*
X33557257Y-44829206D01*
X33560149Y-44842600D01*
X33611588Y-44996784D01*
X33617761Y-45009962D01*
X33703063Y-45147807D01*
X33712099Y-45159208D01*
X33826829Y-45273739D01*
X33838240Y-45282751D01*
X33976243Y-45367816D01*
X33989424Y-45373963D01*
X34143710Y-45425138D01*
X34157086Y-45428005D01*
X34251438Y-45437672D01*
X34257854Y-45438000D01*
X34652885Y-45438000D01*
X34668124Y-45433525D01*
X34669329Y-45432135D01*
X34671000Y-45424452D01*
X34671000Y-44107115D01*
X34666525Y-44091876D01*
X34665135Y-44090671D01*
X34657452Y-44089000D01*
X33565116Y-44089000D01*
X33549877Y-44093475D01*
X33548672Y-44094865D01*
X33547001Y-44102548D01*
X33547001Y-44727095D01*
X28154641Y-44727095D01*
X28101722Y-43562885D01*
X33547000Y-43562885D01*
X33551475Y-43578124D01*
X33552865Y-43579329D01*
X33560548Y-43581000D01*
X34652885Y-43581000D01*
X34668124Y-43576525D01*
X34669329Y-43575135D01*
X34671000Y-43567452D01*
X34671000Y-42250116D01*
X34666525Y-42234877D01*
X34665135Y-42233672D01*
X34657452Y-42232001D01*
X34257905Y-42232001D01*
X34251386Y-42232338D01*
X34155794Y-42242257D01*
X34142400Y-42245149D01*
X33988216Y-42296588D01*
X33975038Y-42302761D01*
X33837193Y-42388063D01*
X33825792Y-42397099D01*
X33711261Y-42511829D01*
X33702249Y-42523240D01*
X33617184Y-42661243D01*
X33611037Y-42674424D01*
X33559862Y-42828710D01*
X33556995Y-42842086D01*
X33547328Y-42936438D01*
X33547000Y-42942855D01*
X33547000Y-43562885D01*
X28101722Y-43562885D01*
X28068546Y-42833019D01*
X28082801Y-42768834D01*
X28200048Y-42545000D01*
X29799366Y-39491756D01*
X30825625Y-37532535D01*
X30874952Y-37481473D01*
X30937240Y-37465000D01*
X32385000Y-37465000D01*
X32394636Y-37461788D01*
X36177814Y-36200729D01*
X36177815Y-36200728D01*
X36195000Y-36195000D01*
X36610401Y-34948798D01*
X37205191Y-33164428D01*
X37205191Y-33164427D01*
X37211000Y-33147000D01*
X37206325Y-33129235D01*
X37206325Y-33129233D01*
X35945149Y-28336766D01*
X35941000Y-28304700D01*
X35941000Y-27177000D01*
X35961002Y-27108879D01*
X36014658Y-27062386D01*
X36067000Y-27051000D01*
X37893444Y-27051000D01*
X37961565Y-27071002D01*
G37*
%TD.AperFunction*%
%TD*%
%TA.AperFunction,Conductor*%
%TO.N,GND*%
G36*
X34432931Y-2941002D02*
G01*
X34453905Y-2957905D01*
X34585295Y-3089295D01*
X34619321Y-3151607D01*
X34614256Y-3222422D01*
X34571709Y-3279258D01*
X34563822Y-3282576D01*
X34548224Y-3296396D01*
X34544000Y-3311081D01*
X34544000Y-6847282D01*
X34547973Y-6860813D01*
X34558580Y-6862338D01*
X34690840Y-6834587D01*
X34701037Y-6831527D01*
X34913340Y-6747685D01*
X34922876Y-6742951D01*
X35118025Y-6624532D01*
X35126618Y-6618266D01*
X35270915Y-6493052D01*
X35335475Y-6463513D01*
X35405756Y-6473567D01*
X35460804Y-6522182D01*
X37464219Y-9777731D01*
X37465746Y-9780279D01*
X41003836Y-15845576D01*
X41021000Y-15909064D01*
X41021000Y-18370802D01*
X41000998Y-18438923D01*
X40993391Y-18449512D01*
X37973000Y-22225000D01*
X37973000Y-23623000D01*
X37952998Y-23691121D01*
X37899342Y-23737614D01*
X37847000Y-23749000D01*
X35687000Y-23749000D01*
X34671000Y-24257000D01*
X34671000Y-27813000D01*
X34673287Y-27821232D01*
X34673287Y-27821234D01*
X35936403Y-32368451D01*
X35941000Y-32402174D01*
X35941000Y-34110810D01*
X35920998Y-34178931D01*
X35904095Y-34199905D01*
X35188781Y-34915219D01*
X35167332Y-34932425D01*
X32415956Y-36683301D01*
X32348310Y-36703000D01*
X31139924Y-36703000D01*
X31091950Y-36693509D01*
X31067160Y-36683301D01*
X29686309Y-36114715D01*
X26875026Y-34957128D01*
X26819652Y-34912696D01*
X26797000Y-34840619D01*
X26797000Y-32385000D01*
X25273000Y-27051000D01*
X25261515Y-27042386D01*
X25261514Y-27042385D01*
X23255493Y-25537870D01*
X23255494Y-25537870D01*
X23241000Y-25527000D01*
X18795000Y-25527000D01*
X18726879Y-25506998D01*
X18680386Y-25453342D01*
X18669000Y-25401000D01*
X18669000Y-24637000D01*
X18689002Y-24568879D01*
X18742658Y-24522386D01*
X18795000Y-24511000D01*
X23241000Y-24511000D01*
X23256521Y-24500653D01*
X23256523Y-24500652D01*
X23744125Y-24175583D01*
X24003000Y-24003000D01*
X23749000Y-22479000D01*
X23241000Y-21971000D01*
X18795000Y-21971000D01*
X18726879Y-21950998D01*
X18680386Y-21897342D01*
X18669000Y-21845000D01*
X18669000Y-21335000D01*
X18689002Y-21266879D01*
X18742658Y-21220386D01*
X18795000Y-21209000D01*
X23241000Y-21209000D01*
X23749000Y-20701000D01*
X25254678Y-15933018D01*
X25294264Y-15874084D01*
X25329830Y-15853271D01*
X33892080Y-12579470D01*
X33892082Y-12579469D01*
X33909000Y-12573000D01*
X33909000Y-10287000D01*
X25087373Y-5750164D01*
X25035943Y-5701222D01*
X25019000Y-5638114D01*
X25019000Y-5537340D01*
X32882000Y-5537340D01*
X32882225Y-5542649D01*
X32896660Y-5712771D01*
X32898452Y-5723259D01*
X32955801Y-5944211D01*
X32959333Y-5954239D01*
X33053085Y-6162363D01*
X33058265Y-6171669D01*
X33185747Y-6361024D01*
X33192406Y-6369307D01*
X33349971Y-6534478D01*
X33357942Y-6541530D01*
X33541082Y-6677790D01*
X33550119Y-6683394D01*
X33753606Y-6786851D01*
X33763459Y-6790852D01*
X33981461Y-6858544D01*
X33991848Y-6860828D01*
X34018043Y-6864300D01*
X34032207Y-6862104D01*
X34036000Y-6848919D01*
X34036000Y-5352115D01*
X34031525Y-5336876D01*
X34030135Y-5335671D01*
X34022452Y-5334000D01*
X32900115Y-5334000D01*
X32884876Y-5338475D01*
X32883671Y-5339865D01*
X32882000Y-5347548D01*
X32882000Y-5537340D01*
X25019000Y-5537340D01*
X25019000Y-4807885D01*
X32882000Y-4807885D01*
X32886475Y-4823124D01*
X32887865Y-4824329D01*
X32895548Y-4826000D01*
X34017885Y-4826000D01*
X34033124Y-4821525D01*
X34034329Y-4820135D01*
X34036000Y-4812452D01*
X34036000Y-3312718D01*
X34032027Y-3299187D01*
X34021420Y-3297662D01*
X33889160Y-3325413D01*
X33878963Y-3328473D01*
X33666660Y-3412315D01*
X33657124Y-3417049D01*
X33461975Y-3535468D01*
X33453382Y-3541734D01*
X33280973Y-3691342D01*
X33273553Y-3698972D01*
X33128820Y-3875488D01*
X33122794Y-3884255D01*
X33009871Y-4082633D01*
X33005405Y-4092297D01*
X32927519Y-4306868D01*
X32924749Y-4317135D01*
X32883919Y-4542932D01*
X32882984Y-4551162D01*
X32882070Y-4570550D01*
X32882000Y-4573526D01*
X32882000Y-4807885D01*
X25019000Y-4807885D01*
X25019000Y-3047000D01*
X25039002Y-2978879D01*
X25092658Y-2932386D01*
X25145000Y-2921000D01*
X34364810Y-2921000D01*
X34432931Y-2941002D01*
G37*
%TD.AperFunction*%
%TD*%
M02*
