M48
; DRILL file {KiCad 6.0.11+dfsg-1} date sam. 04 nov. 2023 21:56:32
; FORMAT={-:-/ absolute / inch / decimal}
; #@! TF.CreationDate,2023-11-04T21:56:32+01:00
; #@! TF.GenerationSoftware,Kicad,Pcbnew,6.0.11+dfsg-1
; #@! TF.FileFunction,Plated,1,2,PTH
FMAT,2
INCH
; #@! TA.AperFunction,Plated,PTH,ComponentDrill
T1C0.0118
; #@! TA.AperFunction,Plated,PTH,ViaDrill
T2C0.0157
; #@! TA.AperFunction,Plated,PTH,ComponentDrill
T3C0.0362
; #@! TA.AperFunction,Plated,PTH,ComponentDrill
T4C0.0394
; #@! TA.AperFunction,Plated,PTH,ComponentDrill
T5C0.0469
; #@! TA.AperFunction,Plated,PTH,ComponentDrill
T6C0.0472
; #@! TA.AperFunction,Plated,PTH,ComponentDrill
T7C0.0591
; #@! TA.AperFunction,Plated,PTH,ComponentDrill
T8C0.0906
; #@! TA.AperFunction,Plated,PTH,ComponentDrill
T9C0.0984
%
G90
G05
T1
X1.7858Y-0.9746
X1.7858Y-1.0297
X1.8134Y-0.947
X1.8134Y-1.0022
X1.8134Y-1.0573
X1.8409Y-0.9746
X1.8409Y-1.0297
X1.8685Y-0.947
X1.8685Y-1.0022
X1.8685Y-1.0573
X1.8961Y-0.9746
X1.8961Y-1.0297
T2
X0.245Y-1.155
X0.245Y-1.245
X0.335Y-1.855
X0.385Y-1.725
X0.395Y-1.905
X0.425Y-1.575
X0.7125Y-1.9875
X0.75Y-1.975
X0.95Y-0.85
X0.95Y-0.975
X0.965Y-1.5
X1.05Y-1.125
X1.05Y-1.175
X1.1Y-1.125
X1.1Y-1.175
X1.1Y-1.225
X1.15Y-1.125
X1.15Y-1.175
X1.15Y-1.225
X1.175Y-0.575
X1.2Y-1.125
X1.2Y-1.175
X1.2Y-1.225
X1.225Y-0.575
X1.25Y-1.125
X1.25Y-1.175
X1.25Y-1.225
X1.275Y-0.575
X1.3Y-1.125
X1.3Y-1.175
X1.325Y-0.525
X1.325Y-0.575
X1.35Y-1.125
X1.35Y-1.175
X1.375Y-0.525
X1.375Y-0.575
X1.425Y-0.525
X1.425Y-0.675
X1.45Y-0.65
X1.45Y-0.7
X1.625Y-1.875
X1.65Y-1.825
X1.705Y-1.255
X1.725Y-1.45
X1.865Y-1.165
X1.915Y-0.725
X1.955Y-0.725
X1.9948Y-0.7252
X2.025Y-1.525
X2.035Y-0.725
X2.055Y-0.855
X2.085Y-0.665
X2.1Y-1.925
X2.145Y-0.705
X2.145Y-1.055
X2.155Y-1.205
X2.155Y-1.265
X2.335Y-0.815
X2.3364Y-1.7886
X2.365Y-0.905
X2.395Y-0.815
X2.425Y-0.775
X2.525Y-1.3
X2.525Y-1.685
X2.535Y-1.035
X2.539Y-0.861
X2.575Y-1.525
X2.585Y-0.64
X2.625Y-1.55
X2.675Y-1.145
X2.715Y-0.075
X2.715Y-1.955
X2.725Y-0.875
X2.725Y-1.325
X2.775Y-1.45
X2.775Y-1.55
X2.875Y-1.45
X2.875Y-1.55
X2.925Y-1.625
X2.955Y-1.335
X2.975Y-1.465
X3.025Y-1.85
X3.195Y-1.345
T3
X2.8508Y-1.7273
X2.8508Y-1.8532
X2.9492Y-1.7273
X2.9492Y-1.8532
T4
X0.0396Y-1.7516
X0.0396Y-1.9484
X0.6104Y-1.7516
X0.6104Y-1.85
X0.6104Y-1.9484
T5
X0.0Y-0.8508
X0.0Y-1.1258
X0.1Y-0.8508
X0.1Y-1.1258
X1.375Y-1.7258
X1.375Y-2.0008
X1.475Y-1.7258
X1.475Y-2.0008
X1.575Y-1.7258
X1.575Y-2.0008
X1.675Y-1.7258
X1.675Y-2.0008
X1.9508Y-1.7
X1.9508Y-1.8
X1.9508Y-1.9
X1.9508Y-2.0
X2.8258Y-0.35
X2.8258Y-0.45
X2.8258Y-0.55
X2.8258Y-0.65
X2.8258Y-0.8
X2.8258Y-0.9
X2.8258Y-1.0
X2.8258Y-1.1
X3.1Y-0.8
X3.1Y-0.9
X3.1Y-1.0
X3.1Y-1.1
X3.1008Y-0.35
X3.1008Y-0.45
X3.1008Y-0.55
X3.1008Y-0.65
T6
X1.35Y-0.2
X1.45Y-0.2
X1.55Y-0.2
X1.65Y-0.2
X1.75Y-0.2
X1.85Y-0.2
X1.95Y-0.2
X2.05Y-0.2
X2.15Y-0.2
X2.25Y-0.2
X2.35Y-0.2
X2.45Y-0.2
X2.55Y-0.2
X2.65Y-0.2
X2.75Y-0.2
X2.85Y-0.2
T8
X2.663Y-1.834
X3.137Y-1.834
T9
X0.1138Y-0.2
X0.1138Y-1.4205
X3.0665Y-0.2
X3.0665Y-1.4205
T4
G00X0.175Y-0.4729
M15
G01X0.175Y-0.5517
M16
G05
G00X0.2537Y-0.6973
M15
G01X0.3325Y-0.6973
M16
G05
G00X0.4112Y-0.4729
M15
G01X0.4112Y-0.5517
M16
G05
T7
G00X0.3407Y-1.6295
M15
G01X0.2896Y-1.6295
M16
G05
G00X0.3407Y-2.0705
M15
G01X0.2896Y-2.0705
M16
G05
T0
M30
