%TF.GenerationSoftware,KiCad,Pcbnew,6.0.11+dfsg-1~bpo11+1*%
%TF.CreationDate,2023-07-11T21:35:56+02:00*%
%TF.ProjectId,main_board,6d61696e-5f62-46f6-9172-642e6b696361,rev?*%
%TF.SameCoordinates,PX3b1adc0PY158f0b0*%
%TF.FileFunction,Soldermask,Bot*%
%TF.FilePolarity,Negative*%
%FSLAX46Y46*%
G04 Gerber Fmt 4.6, Leading zero omitted, Abs format (unit mm)*
G04 Created by KiCad (PCBNEW 6.0.11+dfsg-1~bpo11+1) date 2023-07-11 21:35:56*
%MOMM*%
%LPD*%
G01*
G04 APERTURE LIST*
G04 Aperture macros list*
%AMRoundRect*
0 Rectangle with rounded corners*
0 $1 Rounding radius*
0 $2 $3 $4 $5 $6 $7 $8 $9 X,Y pos of 4 corners*
0 Add a 4 corners polygon primitive as box body*
4,1,4,$2,$3,$4,$5,$6,$7,$8,$9,$2,$3,0*
0 Add four circle primitives for the rounded corners*
1,1,$1+$1,$2,$3*
1,1,$1+$1,$4,$5*
1,1,$1+$1,$6,$7*
1,1,$1+$1,$8,$9*
0 Add four rect primitives between the rounded corners*
20,1,$1+$1,$2,$3,$4,$5,0*
20,1,$1+$1,$4,$5,$6,$7,0*
20,1,$1+$1,$6,$7,$8,$9,0*
20,1,$1+$1,$8,$9,$2,$3,0*%
G04 Aperture macros list end*
%ADD10RoundRect,0.250000X-0.620000X-0.845000X0.620000X-0.845000X0.620000X0.845000X-0.620000X0.845000X0*%
%ADD11O,1.740000X2.190000*%
%ADD12R,2.000000X2.000000*%
%ADD13C,2.000000*%
%ADD14R,3.500000X3.500000*%
%ADD15RoundRect,0.750000X-0.750000X-1.000000X0.750000X-1.000000X0.750000X1.000000X-0.750000X1.000000X0*%
%ADD16RoundRect,0.875000X-0.875000X-0.875000X0.875000X-0.875000X0.875000X0.875000X-0.875000X0.875000X0*%
%ADD17C,2.340000*%
%ADD18R,1.600000X1.600000*%
%ADD19C,1.600000*%
%ADD20RoundRect,0.250000X0.845000X-0.620000X0.845000X0.620000X-0.845000X0.620000X-0.845000X-0.620000X0*%
%ADD21O,2.190000X1.740000*%
%ADD22R,3.200000X2.000000*%
%ADD23C,6.500000*%
%ADD24R,1.500000X3.000000*%
%ADD25O,1.500000X3.000000*%
%ADD26R,1.400000X1.400000*%
%ADD27C,1.400000*%
%ADD28C,3.000000*%
G04 APERTURE END LIST*
D10*
%TO.C,J3*%
X37846000Y-48026000D03*
D11*
X40386000Y-48026000D03*
%TD*%
D10*
%TO.C,J7*%
X71120000Y-7112000D03*
D11*
X73660000Y-7112000D03*
X76200000Y-7112000D03*
X78740000Y-7112000D03*
%TD*%
D12*
%TO.C,C202*%
X3759354Y-24638000D03*
D13*
X-1240646Y-24638000D03*
%TD*%
D14*
%TO.C,J1*%
X6508000Y-10218500D03*
D15*
X508000Y-10218500D03*
D16*
X3508000Y-14918500D03*
%TD*%
D13*
%TO.C,SW301*%
X59944000Y-21336000D03*
X66444000Y-21336000D03*
X59944000Y-25836000D03*
X66444000Y-25836000D03*
%TD*%
D10*
%TO.C,J9*%
X82804000Y-7112000D03*
D11*
X85344000Y-7112000D03*
X87884000Y-7112000D03*
X90424000Y-7112000D03*
%TD*%
D17*
%TO.C,RV1*%
X57872000Y-573000D03*
X52872000Y-3073000D03*
X57872000Y-5573000D03*
%TD*%
D10*
%TO.C,J4*%
X44704000Y-48026000D03*
D11*
X47244000Y-48026000D03*
%TD*%
D10*
%TO.C,J10*%
X82804000Y-254000D03*
D11*
X85344000Y-254000D03*
X87884000Y-254000D03*
X90424000Y-254000D03*
%TD*%
D10*
%TO.C,J13*%
X94488000Y-274000D03*
D11*
X97028000Y-274000D03*
X99568000Y-274000D03*
X102108000Y-274000D03*
%TD*%
D18*
%TO.C,C204*%
X9056380Y-36576000D03*
D19*
X6556380Y-36576000D03*
%TD*%
D13*
%TO.C,SW302*%
X50090000Y-21372000D03*
X56590000Y-21372000D03*
X50090000Y-25872000D03*
X56590000Y-25872000D03*
%TD*%
D12*
%TO.C,C201*%
X22098000Y-13183217D03*
D13*
X22098000Y-8183217D03*
%TD*%
D18*
%TO.C,C205*%
X19304000Y-37084000D03*
D19*
X16804000Y-37084000D03*
%TD*%
D10*
%TO.C,J14*%
X94488000Y-7112000D03*
D11*
X97028000Y-7112000D03*
X99568000Y-7112000D03*
X102108000Y-7112000D03*
%TD*%
D10*
%TO.C,J8*%
X71120000Y-274000D03*
D11*
X73660000Y-274000D03*
X76200000Y-274000D03*
X78740000Y-274000D03*
%TD*%
D20*
%TO.C,J302*%
X76728000Y-38100000D03*
D21*
X76728000Y-35560000D03*
X76728000Y-33020000D03*
X76728000Y-30480000D03*
%TD*%
D12*
%TO.C,SW3*%
X18172000Y-46014000D03*
D13*
X18172000Y-51014000D03*
X18172000Y-48514000D03*
D22*
X10672000Y-42914000D03*
X10672000Y-54114000D03*
D13*
X3672000Y-51014000D03*
X3672000Y-46014000D03*
%TD*%
D23*
%TO.C,U7*%
X115031000Y-37057500D03*
X31000Y-37057500D03*
X115031000Y-57500D03*
X31000Y-57500D03*
D24*
X40531000Y942500D03*
D25*
X37991000Y942500D03*
X35451000Y942500D03*
X32911000Y942500D03*
X30371000Y942500D03*
X27831000Y942500D03*
X25291000Y942500D03*
X22751000Y942500D03*
X20211000Y942500D03*
X17671000Y942500D03*
X15131000Y942500D03*
X12591000Y942500D03*
X10051000Y942500D03*
X7511000Y942500D03*
X43071000Y942500D03*
X45611000Y942500D03*
D12*
X116031000Y-13057500D03*
X116031000Y-24057500D03*
X116031000Y-17057500D03*
X116031000Y-28057500D03*
%TD*%
D26*
%TO.C,J301*%
X61976000Y-45720000D03*
D27*
X64476000Y-45720000D03*
X64476000Y-48920000D03*
X61976000Y-48920000D03*
D28*
X69246000Y-48430000D03*
X57206000Y-48430000D03*
%TD*%
M02*
