%TF.GenerationSoftware,KiCad,Pcbnew,6.0.11+dfsg-1~bpo11+1*%
%TF.CreationDate,2023-07-11T21:35:55+02:00*%
%TF.ProjectId,main_board,6d61696e-5f62-46f6-9172-642e6b696361,rev?*%
%TF.SameCoordinates,PX3b1adc0PY158f0b0*%
%TF.FileFunction,Legend,Bot*%
%TF.FilePolarity,Positive*%
%FSLAX46Y46*%
G04 Gerber Fmt 4.6, Leading zero omitted, Abs format (unit mm)*
G04 Created by KiCad (PCBNEW 6.0.11+dfsg-1~bpo11+1) date 2023-07-11 21:35:55*
%MOMM*%
%LPD*%
G01*
G04 APERTURE LIST*
%ADD10C,0.150000*%
%ADD11C,0.120000*%
G04 APERTURE END LIST*
D10*
X53808380Y-47379095D02*
X54617904Y-47379095D01*
X54713142Y-47426714D01*
X54760761Y-47474333D01*
X54808380Y-47569571D01*
X54808380Y-47760047D01*
X54760761Y-47855285D01*
X54713142Y-47902904D01*
X54617904Y-47950523D01*
X53808380Y-47950523D01*
X54760761Y-48379095D02*
X54808380Y-48521952D01*
X54808380Y-48760047D01*
X54760761Y-48855285D01*
X54713142Y-48902904D01*
X54617904Y-48950523D01*
X54522666Y-48950523D01*
X54427428Y-48902904D01*
X54379809Y-48855285D01*
X54332190Y-48760047D01*
X54284571Y-48569571D01*
X54236952Y-48474333D01*
X54189333Y-48426714D01*
X54094095Y-48379095D01*
X53998857Y-48379095D01*
X53903619Y-48426714D01*
X53856000Y-48474333D01*
X53808380Y-48569571D01*
X53808380Y-48807666D01*
X53856000Y-48950523D01*
X54284571Y-49712428D02*
X54332190Y-49855285D01*
X54379809Y-49902904D01*
X54475047Y-49950523D01*
X54617904Y-49950523D01*
X54713142Y-49902904D01*
X54760761Y-49855285D01*
X54808380Y-49760047D01*
X54808380Y-49379095D01*
X53808380Y-49379095D01*
X53808380Y-49712428D01*
X53856000Y-49807666D01*
X53903619Y-49855285D01*
X53998857Y-49902904D01*
X54094095Y-49902904D01*
X54189333Y-49855285D01*
X54236952Y-49807666D01*
X54284571Y-49712428D01*
X54284571Y-49379095D01*
X1468380Y-43609238D02*
X992190Y-43275904D01*
X1468380Y-43037809D02*
X468380Y-43037809D01*
X468380Y-43418761D01*
X516000Y-43514000D01*
X563619Y-43561619D01*
X658857Y-43609238D01*
X801714Y-43609238D01*
X896952Y-43561619D01*
X944571Y-43514000D01*
X992190Y-43418761D01*
X992190Y-43037809D01*
X1468380Y-44180666D02*
X1420761Y-44085428D01*
X1373142Y-44037809D01*
X1277904Y-43990190D01*
X992190Y-43990190D01*
X896952Y-44037809D01*
X849333Y-44085428D01*
X801714Y-44180666D01*
X801714Y-44323523D01*
X849333Y-44418761D01*
X896952Y-44466380D01*
X992190Y-44514000D01*
X1277904Y-44514000D01*
X1373142Y-44466380D01*
X1420761Y-44418761D01*
X1468380Y-44323523D01*
X1468380Y-44180666D01*
X801714Y-44799714D02*
X801714Y-45180666D01*
X468380Y-44942571D02*
X1325523Y-44942571D01*
X1420761Y-44990190D01*
X1468380Y-45085428D01*
X1468380Y-45180666D01*
X1468380Y-45942571D02*
X944571Y-45942571D01*
X849333Y-45894952D01*
X801714Y-45799714D01*
X801714Y-45609238D01*
X849333Y-45514000D01*
X1420761Y-45942571D02*
X1468380Y-45847333D01*
X1468380Y-45609238D01*
X1420761Y-45514000D01*
X1325523Y-45466380D01*
X1230285Y-45466380D01*
X1135047Y-45514000D01*
X1087428Y-45609238D01*
X1087428Y-45847333D01*
X1039809Y-45942571D01*
X1468380Y-46418761D02*
X801714Y-46418761D01*
X992190Y-46418761D02*
X896952Y-46466380D01*
X849333Y-46514000D01*
X801714Y-46609238D01*
X801714Y-46704476D01*
X801714Y-46942571D02*
X1468380Y-47180666D01*
X801714Y-47418761D02*
X1468380Y-47180666D01*
X1706476Y-47085428D01*
X1754095Y-47037809D01*
X1801714Y-46942571D01*
X1420761Y-48942571D02*
X1468380Y-48847333D01*
X1468380Y-48656857D01*
X1420761Y-48561619D01*
X1325523Y-48514000D01*
X944571Y-48514000D01*
X849333Y-48561619D01*
X801714Y-48656857D01*
X801714Y-48847333D01*
X849333Y-48942571D01*
X944571Y-48990190D01*
X1039809Y-48990190D01*
X1135047Y-48514000D01*
X801714Y-49418761D02*
X1468380Y-49418761D01*
X896952Y-49418761D02*
X849333Y-49466380D01*
X801714Y-49561619D01*
X801714Y-49704476D01*
X849333Y-49799714D01*
X944571Y-49847333D01*
X1468380Y-49847333D01*
X1420761Y-50752095D02*
X1468380Y-50656857D01*
X1468380Y-50466380D01*
X1420761Y-50371142D01*
X1373142Y-50323523D01*
X1277904Y-50275904D01*
X992190Y-50275904D01*
X896952Y-50323523D01*
X849333Y-50371142D01*
X801714Y-50466380D01*
X801714Y-50656857D01*
X849333Y-50752095D01*
X1468380Y-51323523D02*
X1420761Y-51228285D01*
X1373142Y-51180666D01*
X1277904Y-51133047D01*
X992190Y-51133047D01*
X896952Y-51180666D01*
X849333Y-51228285D01*
X801714Y-51323523D01*
X801714Y-51466380D01*
X849333Y-51561619D01*
X896952Y-51609238D01*
X992190Y-51656857D01*
X1277904Y-51656857D01*
X1373142Y-51609238D01*
X1420761Y-51561619D01*
X1468380Y-51466380D01*
X1468380Y-51323523D01*
X1468380Y-52514000D02*
X468380Y-52514000D01*
X1420761Y-52514000D02*
X1468380Y-52418761D01*
X1468380Y-52228285D01*
X1420761Y-52133047D01*
X1373142Y-52085428D01*
X1277904Y-52037809D01*
X992190Y-52037809D01*
X896952Y-52085428D01*
X849333Y-52133047D01*
X801714Y-52228285D01*
X801714Y-52418761D01*
X849333Y-52514000D01*
X1420761Y-53371142D02*
X1468380Y-53275904D01*
X1468380Y-53085428D01*
X1420761Y-52990190D01*
X1325523Y-52942571D01*
X944571Y-52942571D01*
X849333Y-52990190D01*
X801714Y-53085428D01*
X801714Y-53275904D01*
X849333Y-53371142D01*
X944571Y-53418761D01*
X1039809Y-53418761D01*
X1135047Y-52942571D01*
X1468380Y-53847333D02*
X801714Y-53847333D01*
X992190Y-53847333D02*
X896952Y-53894952D01*
X849333Y-53942571D01*
X801714Y-54037809D01*
X801714Y-54133047D01*
D11*
%TO.C,SW3*%
X10672000Y-48014000D02*
X10672000Y-49014000D01*
X11172000Y-48514000D02*
X10172000Y-48514000D01*
X4572000Y-42614000D02*
X4572000Y-45014000D01*
X18172000Y-44714000D02*
X18472000Y-44414000D01*
X4572000Y-52014000D02*
X4572000Y-54414000D01*
X18472000Y-44414000D02*
X17872000Y-44414000D01*
X8672000Y-42614000D02*
X4572000Y-42614000D01*
X4572000Y-54414000D02*
X8672000Y-54414000D01*
X12672000Y-42614000D02*
X16772000Y-42614000D01*
X16772000Y-42614000D02*
X16772000Y-54414000D01*
X4572000Y-47214000D02*
X4572000Y-49814000D01*
X12672000Y-54414000D02*
X16772000Y-54414000D01*
X17872000Y-44414000D02*
X18172000Y-44714000D01*
X13672000Y-48514000D02*
G75*
G03*
X13672000Y-48514000I-3000000J0D01*
G01*
D10*
%TO.C,U7*%
X108730000Y-4518500D02*
X108476000Y-4772500D01*
X110508000Y-4010500D02*
X110508000Y-37538500D01*
D11*
X-3609000Y3582500D02*
X-3609000Y-40697500D01*
D10*
X6876000Y-36776500D02*
X108476000Y-36776500D01*
X109746000Y-38300500D02*
X109746000Y-37538500D01*
X6876000Y-4264500D02*
X108476000Y-4264500D01*
X108476000Y-4772500D02*
X6876000Y-4772500D01*
X106444000Y-8836500D02*
X8908000Y-8836500D01*
X6876000Y-4264500D02*
X6622000Y-4518500D01*
D11*
X118671000Y-40697500D02*
X-3609000Y-40697500D01*
D10*
X8908000Y-32712500D02*
X106444000Y-32712500D01*
X107206000Y-31950500D02*
X107206000Y-9598500D01*
X6876000Y-37284500D02*
X6622000Y-37030500D01*
X106444000Y-32712500D02*
X107206000Y-31950500D01*
X5606000Y-3248500D02*
X109746000Y-3248500D01*
X8908000Y-8836500D02*
X8146000Y-9598500D01*
X109746000Y-37538500D02*
X110508000Y-37538500D01*
X6622000Y-4518500D02*
X6876000Y-4772500D01*
X107206000Y-9598500D02*
X106444000Y-8836500D01*
D11*
X118671000Y3582500D02*
X118671000Y-40697500D01*
D10*
X108476000Y-37284500D02*
X6876000Y-37284500D01*
X8146000Y-9598500D02*
X8146000Y-31950500D01*
X4844000Y-37538500D02*
X4844000Y-4010500D01*
X5606000Y-3248500D02*
X5606000Y-4010500D01*
X5606000Y-37538500D02*
X5606000Y-38300500D01*
X6622000Y-37030500D02*
X6876000Y-36776500D01*
X108730000Y-37030500D02*
X108476000Y-37284500D01*
X5606000Y-4010500D02*
X4844000Y-4010500D01*
D11*
X41531000Y3942500D02*
X39531000Y3942500D01*
D10*
X109746000Y-38300500D02*
X5606000Y-38300500D01*
X108476000Y-36776500D02*
X108730000Y-37030500D01*
X8146000Y-31950500D02*
X8908000Y-32712500D01*
X109746000Y-4010500D02*
X110508000Y-4010500D01*
X108476000Y-4264500D02*
X108730000Y-4518500D01*
X109746000Y-3248500D02*
X109746000Y-4010500D01*
D11*
X-3609000Y3582500D02*
X118671000Y3582500D01*
D10*
X4844000Y-37538500D02*
X5606000Y-37538500D01*
D11*
%TO.C,J301*%
X61476000Y-41220000D02*
X62476000Y-41220000D01*
X56176000Y-41920000D02*
X56176000Y-46720000D01*
X62476000Y-41220000D02*
X61976000Y-41720000D01*
X61976000Y-41720000D02*
X61476000Y-41220000D01*
X70276000Y-46720000D02*
X70276000Y-41920000D01*
X56176000Y-50220000D02*
X56176000Y-55020000D01*
X70276000Y-41920000D02*
X56176000Y-41920000D01*
X56176000Y-55020000D02*
X70276000Y-55020000D01*
X70276000Y-55020000D02*
X70276000Y-50220000D01*
%TD*%
M02*
