%TF.GenerationSoftware,KiCad,Pcbnew,6.0.11+dfsg-1*%
%TF.CreationDate,2023-11-04T21:56:29+01:00*%
%TF.ProjectId,main_board,6d61696e-5f62-46f6-9172-642e6b696361,rev?*%
%TF.SameCoordinates,PX63add28PY3f58108*%
%TF.FileFunction,Paste,Top*%
%TF.FilePolarity,Positive*%
%FSLAX46Y46*%
G04 Gerber Fmt 4.6, Leading zero omitted, Abs format (unit mm)*
G04 Created by KiCad (PCBNEW 6.0.11+dfsg-1) date 2023-11-04 21:56:29*
%MOMM*%
%LPD*%
G01*
G04 APERTURE LIST*
G04 Aperture macros list*
%AMRoundRect*
0 Rectangle with rounded corners*
0 $1 Rounding radius*
0 $2 $3 $4 $5 $6 $7 $8 $9 X,Y pos of 4 corners*
0 Add a 4 corners polygon primitive as box body*
4,1,4,$2,$3,$4,$5,$6,$7,$8,$9,$2,$3,0*
0 Add four circle primitives for the rounded corners*
1,1,$1+$1,$2,$3*
1,1,$1+$1,$4,$5*
1,1,$1+$1,$6,$7*
1,1,$1+$1,$8,$9*
0 Add four rect primitives between the rounded corners*
20,1,$1+$1,$2,$3,$4,$5,0*
20,1,$1+$1,$4,$5,$6,$7,0*
20,1,$1+$1,$6,$7,$8,$9,0*
20,1,$1+$1,$8,$9,$2,$3,0*%
G04 Aperture macros list end*
%ADD10RoundRect,0.150000X-0.512500X-0.150000X0.512500X-0.150000X0.512500X0.150000X-0.512500X0.150000X0*%
%ADD11RoundRect,0.200000X-0.200000X-0.275000X0.200000X-0.275000X0.200000X0.275000X-0.200000X0.275000X0*%
%ADD12R,1.300000X1.400000*%
%ADD13RoundRect,0.250000X0.475000X-0.250000X0.475000X0.250000X-0.475000X0.250000X-0.475000X-0.250000X0*%
%ADD14RoundRect,0.250000X-0.312500X-0.625000X0.312500X-0.625000X0.312500X0.625000X-0.312500X0.625000X0*%
%ADD15RoundRect,0.250000X-0.250000X-0.475000X0.250000X-0.475000X0.250000X0.475000X-0.250000X0.475000X0*%
%ADD16RoundRect,0.250000X1.500000X1.000000X-1.500000X1.000000X-1.500000X-1.000000X1.500000X-1.000000X0*%
%ADD17R,2.500000X1.800000*%
%ADD18RoundRect,0.200000X0.200000X0.275000X-0.200000X0.275000X-0.200000X-0.275000X0.200000X-0.275000X0*%
%ADD19RoundRect,0.250000X-0.475000X0.250000X-0.475000X-0.250000X0.475000X-0.250000X0.475000X0.250000X0*%
%ADD20RoundRect,0.150000X0.512500X0.150000X-0.512500X0.150000X-0.512500X-0.150000X0.512500X-0.150000X0*%
%ADD21RoundRect,0.200000X0.275000X-0.200000X0.275000X0.200000X-0.275000X0.200000X-0.275000X-0.200000X0*%
%ADD22RoundRect,0.250000X-1.950000X-1.000000X1.950000X-1.000000X1.950000X1.000000X-1.950000X1.000000X0*%
%ADD23RoundRect,0.150000X-0.587500X-0.150000X0.587500X-0.150000X0.587500X0.150000X-0.587500X0.150000X0*%
%ADD24RoundRect,0.218750X0.256250X-0.218750X0.256250X0.218750X-0.256250X0.218750X-0.256250X-0.218750X0*%
%ADD25R,5.400000X2.900000*%
%ADD26RoundRect,0.150000X-0.150000X0.825000X-0.150000X-0.825000X0.150000X-0.825000X0.150000X0.825000X0*%
%ADD27RoundRect,0.218750X-0.381250X0.218750X-0.381250X-0.218750X0.381250X-0.218750X0.381250X0.218750X0*%
%ADD28R,2.000000X1.500000*%
%ADD29R,2.000000X3.800000*%
%ADD30R,1.800000X2.500000*%
%ADD31RoundRect,0.150000X-0.150000X0.587500X-0.150000X-0.587500X0.150000X-0.587500X0.150000X0.587500X0*%
%ADD32RoundRect,0.225000X0.225000X-0.225000X0.225000X0.225000X-0.225000X0.225000X-0.225000X-0.225000X0*%
%ADD33RoundRect,0.062500X0.062500X-0.337500X0.062500X0.337500X-0.062500X0.337500X-0.062500X-0.337500X0*%
%ADD34RoundRect,0.062500X0.337500X-0.062500X0.337500X0.062500X-0.337500X0.062500X-0.337500X-0.062500X0*%
%ADD35RoundRect,0.200000X-0.275000X0.200000X-0.275000X-0.200000X0.275000X-0.200000X0.275000X0.200000X0*%
%ADD36R,2.000000X1.300000*%
%ADD37R,2.000000X2.000000*%
%ADD38RoundRect,0.250000X1.450000X-0.312500X1.450000X0.312500X-1.450000X0.312500X-1.450000X-0.312500X0*%
%ADD39R,4.550000X5.250000*%
%ADD40R,4.600000X1.100000*%
%ADD41RoundRect,0.250000X0.250000X0.475000X-0.250000X0.475000X-0.250000X-0.475000X0.250000X-0.475000X0*%
%ADD42R,0.800000X0.300000*%
%ADD43RoundRect,0.150000X-0.150000X0.512500X-0.150000X-0.512500X0.150000X-0.512500X0.150000X0.512500X0*%
%ADD44RoundRect,0.150000X0.587500X0.150000X-0.587500X0.150000X-0.587500X-0.150000X0.587500X-0.150000X0*%
%ADD45RoundRect,0.250000X-1.500000X-1.000000X1.500000X-1.000000X1.500000X1.000000X-1.500000X1.000000X0*%
%ADD46R,2.900000X5.400000*%
G04 APERTURE END LIST*
D10*
%TO.C,U301*%
X72522500Y-49850000D03*
X72522500Y-50800000D03*
X72522500Y-51750000D03*
X74797500Y-51750000D03*
X74797500Y-50800000D03*
X74797500Y-49850000D03*
%TD*%
D11*
%TO.C,R305*%
X58230000Y-46990000D03*
X59880000Y-46990000D03*
%TD*%
D12*
%TO.C,D202*%
X12245000Y-6350000D03*
X9345000Y-6350000D03*
%TD*%
D13*
%TO.C,C12*%
X12065000Y-42860000D03*
X12065000Y-40960000D03*
%TD*%
D14*
%TO.C,R201*%
X63942500Y-31115000D03*
X66867500Y-31115000D03*
%TD*%
D15*
%TO.C,C206*%
X47310000Y-22225000D03*
X49210000Y-22225000D03*
%TD*%
D16*
%TO.C,C1*%
X40715000Y-33655000D03*
X34215000Y-33655000D03*
%TD*%
D17*
%TO.C,D203*%
X11525000Y-21590000D03*
X7525000Y-21590000D03*
%TD*%
D14*
%TO.C,R4*%
X76642500Y-31115000D03*
X79567500Y-31115000D03*
%TD*%
D18*
%TO.C,R306*%
X78295000Y-50800000D03*
X76645000Y-50800000D03*
%TD*%
D19*
%TO.C,C14*%
X6350000Y-48580000D03*
X6350000Y-50480000D03*
%TD*%
D20*
%TO.C,U9*%
X54477500Y-47940000D03*
X54477500Y-46990000D03*
X54477500Y-46040000D03*
X52202500Y-46040000D03*
X52202500Y-46990000D03*
X52202500Y-47940000D03*
%TD*%
D18*
%TO.C,R10*%
X13525000Y-50052500D03*
X11875000Y-50052500D03*
%TD*%
D16*
%TO.C,C205*%
X45795000Y-17145000D03*
X39295000Y-17145000D03*
%TD*%
D21*
%TO.C,R5*%
X67310000Y-27305000D03*
X67310000Y-25655000D03*
%TD*%
%TO.C,R307*%
X67832500Y-36385000D03*
X67832500Y-34735000D03*
%TD*%
D11*
%TO.C,R12*%
X11875000Y-46355000D03*
X13525000Y-46355000D03*
%TD*%
D22*
%TO.C,C204*%
X20565000Y-33655000D03*
X28965000Y-33655000D03*
%TD*%
D23*
%TO.C,Q301*%
X63832500Y-36515000D03*
X63832500Y-38415000D03*
X65707500Y-37465000D03*
%TD*%
D11*
%TO.C,R3*%
X40450000Y-39370000D03*
X42100000Y-39370000D03*
%TD*%
D12*
%TO.C,D206*%
X47953000Y-19939000D03*
X50853000Y-19939000D03*
%TD*%
D24*
%TO.C,D4*%
X81280000Y-32537500D03*
X81280000Y-30962500D03*
%TD*%
D25*
%TO.C,L201*%
X11430000Y-26800000D03*
X11430000Y-36700000D03*
%TD*%
D26*
%TO.C,U8*%
X49530000Y-32450000D03*
X48260000Y-32450000D03*
X46990000Y-32450000D03*
X45720000Y-32450000D03*
X45720000Y-37400000D03*
X46990000Y-37400000D03*
X48260000Y-37400000D03*
X49530000Y-37400000D03*
%TD*%
D27*
%TO.C,FB201*%
X17780000Y-8462500D03*
X17780000Y-10587500D03*
%TD*%
D15*
%TO.C,C4*%
X42865000Y-30099000D03*
X44765000Y-30099000D03*
%TD*%
D28*
%TO.C,U202*%
X36855000Y-23100000D03*
X36855000Y-25400000D03*
D29*
X43155000Y-25400000D03*
D28*
X36855000Y-27700000D03*
%TD*%
D11*
%TO.C,R13*%
X2985000Y-47625000D03*
X4635000Y-47625000D03*
%TD*%
%TO.C,R2*%
X35370000Y-39257500D03*
X37020000Y-39257500D03*
%TD*%
D30*
%TO.C,D201*%
X14605000Y-9430000D03*
X14605000Y-13430000D03*
%TD*%
D15*
%TO.C,C301*%
X75885000Y-41275000D03*
X77785000Y-41275000D03*
%TD*%
D31*
%TO.C,D8*%
X47940000Y-40337500D03*
X46040000Y-40337500D03*
X46990000Y-42212500D03*
%TD*%
D15*
%TO.C,C13*%
X12385000Y-52070000D03*
X14285000Y-52070000D03*
%TD*%
D32*
%TO.C,U302*%
X72875000Y-39220000D03*
X71755000Y-36980000D03*
X72875000Y-36980000D03*
X71755000Y-38100000D03*
X71755000Y-39220000D03*
X70635000Y-38100000D03*
X72875000Y-38100000D03*
X70635000Y-36980000D03*
X70635000Y-39220000D03*
D33*
X70255000Y-40550000D03*
X70755000Y-40550000D03*
X71255000Y-40550000D03*
X71755000Y-40550000D03*
X72255000Y-40550000D03*
X72755000Y-40550000D03*
X73255000Y-40550000D03*
D34*
X74205000Y-39600000D03*
X74205000Y-39100000D03*
X74205000Y-38600000D03*
X74205000Y-38100000D03*
X74205000Y-37600000D03*
X74205000Y-37100000D03*
X74205000Y-36600000D03*
D33*
X73255000Y-35650000D03*
X72755000Y-35650000D03*
X72255000Y-35650000D03*
X71755000Y-35650000D03*
X71255000Y-35650000D03*
X70755000Y-35650000D03*
X70255000Y-35650000D03*
D34*
X69305000Y-36600000D03*
X69305000Y-37100000D03*
X69305000Y-37600000D03*
X69305000Y-38100000D03*
X69305000Y-38600000D03*
X69305000Y-39100000D03*
X69305000Y-39600000D03*
%TD*%
D14*
%TO.C,R202*%
X70292500Y-31115000D03*
X73217500Y-31115000D03*
%TD*%
D11*
%TO.C,R301*%
X76010000Y-39257500D03*
X77660000Y-39257500D03*
%TD*%
D35*
%TO.C,R308*%
X67832500Y-40052258D03*
X67832500Y-41702258D03*
%TD*%
D18*
%TO.C,R11*%
X13525000Y-48260000D03*
X11875000Y-48260000D03*
%TD*%
D24*
%TO.C,D205*%
X74930000Y-32537500D03*
X74930000Y-30962500D03*
%TD*%
D36*
%TO.C,RV1*%
X61055000Y-11945000D03*
D37*
X57055000Y-10795000D03*
D36*
X61055000Y-9645000D03*
%TD*%
D38*
%TO.C,F201*%
X15240000Y-6582500D03*
X15240000Y-2307500D03*
%TD*%
D39*
%TO.C,U201*%
X27620000Y-18815000D03*
X27620000Y-24365000D03*
X32470000Y-18815000D03*
X32470000Y-24365000D03*
D40*
X20895000Y-18190000D03*
X20895000Y-19890000D03*
X20895000Y-21590000D03*
X20895000Y-23290000D03*
X20895000Y-24990000D03*
%TD*%
D41*
%TO.C,C203*%
X16825000Y-16510000D03*
X14925000Y-16510000D03*
%TD*%
D42*
%TO.C,U5*%
X64490000Y-11315000D03*
X64490000Y-11815000D03*
X64490000Y-12315000D03*
X64490000Y-12815000D03*
X67590000Y-12815000D03*
X67590000Y-12315000D03*
X67590000Y-11815000D03*
X67590000Y-11315000D03*
%TD*%
D21*
%TO.C,R6*%
X67310000Y-15875000D03*
X67310000Y-14225000D03*
%TD*%
D13*
%TO.C,C2*%
X31750000Y-38095000D03*
X31750000Y-36195000D03*
%TD*%
D43*
%TO.C,U11*%
X66990000Y-17912500D03*
X66040000Y-17912500D03*
X65090000Y-17912500D03*
X65090000Y-20187500D03*
X66040000Y-20187500D03*
X66990000Y-20187500D03*
%TD*%
D11*
%TO.C,R9*%
X11875000Y-44450000D03*
X13525000Y-44450000D03*
%TD*%
D42*
%TO.C,U4*%
X64490000Y-22745000D03*
X64490000Y-23245000D03*
X64490000Y-23745000D03*
X64490000Y-24245000D03*
X67590000Y-24245000D03*
X67590000Y-23745000D03*
X67590000Y-23245000D03*
X67590000Y-22745000D03*
%TD*%
D35*
%TO.C,R304*%
X66040000Y-41720000D03*
X66040000Y-43370000D03*
%TD*%
D44*
%TO.C,Q302*%
X63802500Y-46670000D03*
X63802500Y-44770000D03*
X61927500Y-45720000D03*
%TD*%
D21*
%TO.C,R302*%
X77357500Y-44640000D03*
X77357500Y-42990000D03*
%TD*%
D45*
%TO.C,C201*%
X20245000Y-4445000D03*
X26745000Y-4445000D03*
%TD*%
D18*
%TO.C,R303*%
X66230000Y-34925000D03*
X64580000Y-34925000D03*
%TD*%
D45*
%TO.C,C202*%
X29135000Y-11430000D03*
X35635000Y-11430000D03*
%TD*%
D14*
%TO.C,R1*%
X36637500Y-1905000D03*
X39562500Y-1905000D03*
%TD*%
D11*
%TO.C,R14*%
X2985000Y-49530000D03*
X4635000Y-49530000D03*
%TD*%
D24*
%TO.C,D204*%
X68580000Y-32537500D03*
X68580000Y-30962500D03*
%TD*%
D46*
%TO.C,L1*%
X19815000Y-45847000D03*
X29715000Y-45847000D03*
%TD*%
M02*
