%TF.GenerationSoftware,KiCad,Pcbnew,6.0.11+dfsg-1~bpo11+1*%
%TF.CreationDate,2023-07-11T21:35:55+02:00*%
%TF.ProjectId,main_board,6d61696e-5f62-46f6-9172-642e6b696361,rev?*%
%TF.SameCoordinates,PX3b1adc0PY158f0b0*%
%TF.FileFunction,Paste,Top*%
%TF.FilePolarity,Positive*%
%FSLAX46Y46*%
G04 Gerber Fmt 4.6, Leading zero omitted, Abs format (unit mm)*
G04 Created by KiCad (PCBNEW 6.0.11+dfsg-1~bpo11+1) date 2023-07-11 21:35:55*
%MOMM*%
%LPD*%
G01*
G04 APERTURE LIST*
G04 Aperture macros list*
%AMRoundRect*
0 Rectangle with rounded corners*
0 $1 Rounding radius*
0 $2 $3 $4 $5 $6 $7 $8 $9 X,Y pos of 4 corners*
0 Add a 4 corners polygon primitive as box body*
4,1,4,$2,$3,$4,$5,$6,$7,$8,$9,$2,$3,0*
0 Add four circle primitives for the rounded corners*
1,1,$1+$1,$2,$3*
1,1,$1+$1,$4,$5*
1,1,$1+$1,$6,$7*
1,1,$1+$1,$8,$9*
0 Add four rect primitives between the rounded corners*
20,1,$1+$1,$2,$3,$4,$5,0*
20,1,$1+$1,$4,$5,$6,$7,0*
20,1,$1+$1,$6,$7,$8,$9,0*
20,1,$1+$1,$8,$9,$2,$3,0*%
G04 Aperture macros list end*
%ADD10RoundRect,0.250000X0.312500X0.625000X-0.312500X0.625000X-0.312500X-0.625000X0.312500X-0.625000X0*%
%ADD11R,2.500000X1.800000*%
%ADD12RoundRect,0.250000X0.250000X0.475000X-0.250000X0.475000X-0.250000X-0.475000X0.250000X-0.475000X0*%
%ADD13RoundRect,0.200000X0.200000X0.275000X-0.200000X0.275000X-0.200000X-0.275000X0.200000X-0.275000X0*%
%ADD14RoundRect,0.250000X-1.450000X0.312500X-1.450000X-0.312500X1.450000X-0.312500X1.450000X0.312500X0*%
%ADD15RoundRect,0.218750X-0.381250X0.218750X-0.381250X-0.218750X0.381250X-0.218750X0.381250X0.218750X0*%
%ADD16RoundRect,0.200000X-0.200000X-0.275000X0.200000X-0.275000X0.200000X0.275000X-0.200000X0.275000X0*%
%ADD17RoundRect,0.218750X-0.256250X0.218750X-0.256250X-0.218750X0.256250X-0.218750X0.256250X0.218750X0*%
%ADD18RoundRect,0.150000X0.512500X0.150000X-0.512500X0.150000X-0.512500X-0.150000X0.512500X-0.150000X0*%
%ADD19RoundRect,0.200000X-0.275000X0.200000X-0.275000X-0.200000X0.275000X-0.200000X0.275000X0.200000X0*%
%ADD20RoundRect,0.150000X0.587500X0.150000X-0.587500X0.150000X-0.587500X-0.150000X0.587500X-0.150000X0*%
%ADD21R,1.400000X1.300000*%
%ADD22RoundRect,0.150000X0.150000X-0.512500X0.150000X0.512500X-0.150000X0.512500X-0.150000X-0.512500X0*%
%ADD23R,1.500000X2.000000*%
%ADD24R,3.800000X2.000000*%
%ADD25RoundRect,0.250000X-0.475000X0.250000X-0.475000X-0.250000X0.475000X-0.250000X0.475000X0.250000X0*%
%ADD26RoundRect,0.150000X0.150000X-0.825000X0.150000X0.825000X-0.150000X0.825000X-0.150000X-0.825000X0*%
%ADD27R,0.800000X0.300000*%
%ADD28RoundRect,0.150000X-0.512500X-0.150000X0.512500X-0.150000X0.512500X0.150000X-0.512500X0.150000X0*%
%ADD29RoundRect,0.250000X0.475000X-0.250000X0.475000X0.250000X-0.475000X0.250000X-0.475000X-0.250000X0*%
%ADD30RoundRect,0.150000X-0.587500X-0.150000X0.587500X-0.150000X0.587500X0.150000X-0.587500X0.150000X0*%
%ADD31RoundRect,0.250000X0.625000X-0.312500X0.625000X0.312500X-0.625000X0.312500X-0.625000X-0.312500X0*%
%ADD32R,1.500000X0.900000*%
%ADD33R,0.900000X1.500000*%
%ADD34R,1.050000X1.050000*%
%ADD35RoundRect,0.200000X0.275000X-0.200000X0.275000X0.200000X-0.275000X0.200000X-0.275000X-0.200000X0*%
%ADD36RoundRect,0.225000X0.225000X-0.225000X0.225000X0.225000X-0.225000X0.225000X-0.225000X-0.225000X0*%
%ADD37RoundRect,0.062500X0.062500X-0.337500X0.062500X0.337500X-0.062500X0.337500X-0.062500X-0.337500X0*%
%ADD38RoundRect,0.062500X0.337500X-0.062500X0.337500X0.062500X-0.337500X0.062500X-0.337500X-0.062500X0*%
%ADD39R,1.300000X1.400000*%
%ADD40R,4.550000X5.250000*%
%ADD41R,4.600000X1.100000*%
%ADD42R,5.400000X2.900000*%
G04 APERTURE END LIST*
D10*
%TO.C,R1*%
X41848500Y-2540000D03*
X38923500Y-2540000D03*
%TD*%
D11*
%TO.C,D203*%
X4794000Y-31750000D03*
X794000Y-31750000D03*
%TD*%
D12*
%TO.C,C203*%
X5776000Y-18288000D03*
X3876000Y-18288000D03*
%TD*%
D13*
%TO.C,R9*%
X22161000Y-44958000D03*
X20511000Y-44958000D03*
%TD*%
D14*
%TO.C,F201*%
X12446000Y-12721500D03*
X12446000Y-16996500D03*
%TD*%
D13*
%TO.C,R307*%
X64452000Y-29591000D03*
X62802000Y-29591000D03*
%TD*%
D15*
%TO.C,FB201*%
X7620000Y-16463500D03*
X7620000Y-18588500D03*
%TD*%
D16*
%TO.C,R6*%
X85281000Y-13970000D03*
X86931000Y-13970000D03*
%TD*%
D17*
%TO.C,D205*%
X39370000Y-6324500D03*
X39370000Y-7899500D03*
%TD*%
D18*
%TO.C,U11*%
X82417500Y-13650000D03*
X82417500Y-12700000D03*
X82417500Y-11750000D03*
X80142500Y-11750000D03*
X80142500Y-12700000D03*
X80142500Y-13650000D03*
%TD*%
D19*
%TO.C,R301*%
X70358000Y-36513000D03*
X70358000Y-38163000D03*
%TD*%
D20*
%TO.C,Q301*%
X57579500Y-34732000D03*
X57579500Y-32832000D03*
X55704500Y-33782000D03*
%TD*%
D21*
%TO.C,D206*%
X31496000Y-33708000D03*
X31496000Y-30808000D03*
%TD*%
D16*
%TO.C,R304*%
X59373000Y-32766000D03*
X61023000Y-32766000D03*
%TD*%
D19*
%TO.C,R12*%
X18034000Y-42101000D03*
X18034000Y-43751000D03*
%TD*%
D12*
%TO.C,C12*%
X22286000Y-46736000D03*
X20386000Y-46736000D03*
%TD*%
D22*
%TO.C,U9*%
X41976000Y-43047500D03*
X42926000Y-43047500D03*
X43876000Y-43047500D03*
X43876000Y-40772500D03*
X42926000Y-40772500D03*
X41976000Y-40772500D03*
%TD*%
D23*
%TO.C,U202*%
X28970000Y-30886000D03*
X26670000Y-30886000D03*
D24*
X26670000Y-37186000D03*
D23*
X24370000Y-30886000D03*
%TD*%
D16*
%TO.C,R5*%
X71565000Y-13970000D03*
X73215000Y-13970000D03*
%TD*%
D25*
%TO.C,C4*%
X106680000Y-37912000D03*
X106680000Y-39812000D03*
%TD*%
D17*
%TO.C,D204*%
X33528000Y-6324500D03*
X33528000Y-7899500D03*
%TD*%
D26*
%TO.C,U8*%
X105537000Y-10095000D03*
X106807000Y-10095000D03*
X108077000Y-10095000D03*
X109347000Y-10095000D03*
X109347000Y-5145000D03*
X108077000Y-5145000D03*
X106807000Y-5145000D03*
X105537000Y-5145000D03*
%TD*%
D13*
%TO.C,R13*%
X6921000Y-49022000D03*
X5271000Y-49022000D03*
%TD*%
D16*
%TO.C,R303*%
X59373000Y-29210000D03*
X61023000Y-29210000D03*
%TD*%
D27*
%TO.C,U4*%
X76480000Y-12688000D03*
X76480000Y-12188000D03*
X76480000Y-11688000D03*
X76480000Y-11188000D03*
X73380000Y-11188000D03*
X73380000Y-11688000D03*
X73380000Y-12188000D03*
X73380000Y-12688000D03*
%TD*%
D16*
%TO.C,R14*%
X5779000Y-51054000D03*
X7429000Y-51054000D03*
%TD*%
D27*
%TO.C,U5*%
X90196000Y-12688000D03*
X90196000Y-12188000D03*
X90196000Y-11688000D03*
X90196000Y-11188000D03*
X87096000Y-11188000D03*
X87096000Y-11688000D03*
X87096000Y-12188000D03*
X87096000Y-12688000D03*
%TD*%
D13*
%TO.C,R308*%
X60769000Y-36322000D03*
X59119000Y-36322000D03*
%TD*%
D28*
%TO.C,U301*%
X57282500Y-38166000D03*
X57282500Y-39116000D03*
X57282500Y-40066000D03*
X59557500Y-40066000D03*
X59557500Y-39116000D03*
X59557500Y-38166000D03*
%TD*%
D12*
%TO.C,C13*%
X22286000Y-48768000D03*
X20386000Y-48768000D03*
%TD*%
%TO.C,C301*%
X67752000Y-39497000D03*
X65852000Y-39497000D03*
%TD*%
D11*
%TO.C,D201*%
X13430000Y-6350000D03*
X9430000Y-6350000D03*
%TD*%
D13*
%TO.C,R11*%
X18097000Y-53340000D03*
X16447000Y-53340000D03*
%TD*%
D29*
%TO.C,C206*%
X33782000Y-32700000D03*
X33782000Y-30800000D03*
%TD*%
D30*
%TO.C,D8*%
X105996500Y188000D03*
X105996500Y-1712000D03*
X107871500Y-762000D03*
%TD*%
D31*
%TO.C,R201*%
X33528000Y-12638500D03*
X33528000Y-9713500D03*
%TD*%
D29*
%TO.C,C14*%
X9144000Y-49210000D03*
X9144000Y-47310000D03*
%TD*%
D16*
%TO.C,R305*%
X52261000Y-29210000D03*
X53911000Y-29210000D03*
%TD*%
D32*
%TO.C,U3*%
X104508000Y-39283000D03*
X104508000Y-38013000D03*
X104508000Y-36743000D03*
X104508000Y-35473000D03*
X104508000Y-34203000D03*
X104508000Y-32933000D03*
X104508000Y-31663000D03*
X104508000Y-30393000D03*
X104508000Y-29123000D03*
X104508000Y-27853000D03*
X104508000Y-26583000D03*
X104508000Y-25313000D03*
X104508000Y-24043000D03*
X104508000Y-22773000D03*
D33*
X101468000Y-21523000D03*
X100198000Y-21523000D03*
X98928000Y-21523000D03*
X97658000Y-21523000D03*
X96388000Y-21523000D03*
X95118000Y-21523000D03*
X93848000Y-21523000D03*
X92578000Y-21523000D03*
X91308000Y-21523000D03*
X90038000Y-21523000D03*
D32*
X87008000Y-22773000D03*
X87008000Y-24043000D03*
X87008000Y-25313000D03*
X87008000Y-26583000D03*
X87008000Y-27853000D03*
X87008000Y-29123000D03*
X87008000Y-30393000D03*
X87008000Y-31663000D03*
X87008000Y-32933000D03*
X87008000Y-34203000D03*
X87008000Y-35473000D03*
X87008000Y-36743000D03*
X87008000Y-38013000D03*
X87008000Y-39283000D03*
D34*
X96438000Y-31943000D03*
X94913000Y-31943000D03*
X96438000Y-30418000D03*
X97963000Y-33468000D03*
X94913000Y-33468000D03*
X97963000Y-31943000D03*
X97963000Y-30418000D03*
X94913000Y-30418000D03*
X96438000Y-33468000D03*
%TD*%
D20*
%TO.C,Q302*%
X57579500Y-31176000D03*
X57579500Y-29276000D03*
X55704500Y-30226000D03*
%TD*%
D35*
%TO.C,R306*%
X61468000Y-40703000D03*
X61468000Y-39053000D03*
%TD*%
D31*
%TO.C,R202*%
X39370000Y-12638500D03*
X39370000Y-9713500D03*
%TD*%
D36*
%TO.C,U302*%
X67414000Y-35918000D03*
X67414000Y-33678000D03*
X67414000Y-34798000D03*
X66294000Y-35918000D03*
X66294000Y-33678000D03*
X65174000Y-33678000D03*
X65174000Y-34798000D03*
X66294000Y-34798000D03*
X65174000Y-35918000D03*
D37*
X64794000Y-37248000D03*
X65294000Y-37248000D03*
X65794000Y-37248000D03*
X66294000Y-37248000D03*
X66794000Y-37248000D03*
X67294000Y-37248000D03*
X67794000Y-37248000D03*
D38*
X68744000Y-36298000D03*
X68744000Y-35798000D03*
X68744000Y-35298000D03*
X68744000Y-34798000D03*
X68744000Y-34298000D03*
X68744000Y-33798000D03*
X68744000Y-33298000D03*
D37*
X67794000Y-32348000D03*
X67294000Y-32348000D03*
X66794000Y-32348000D03*
X66294000Y-32348000D03*
X65794000Y-32348000D03*
X65294000Y-32348000D03*
X64794000Y-32348000D03*
D38*
X63844000Y-33298000D03*
X63844000Y-33798000D03*
X63844000Y-34298000D03*
X63844000Y-34798000D03*
X63844000Y-35298000D03*
X63844000Y-35798000D03*
X63844000Y-36298000D03*
%TD*%
D39*
%TO.C,D202*%
X12012000Y-9706000D03*
X14912000Y-9706000D03*
%TD*%
D17*
%TO.C,D4*%
X44958000Y-6324500D03*
X44958000Y-7899500D03*
%TD*%
D40*
%TO.C,U201*%
X31938000Y-25381000D03*
X36788000Y-19831000D03*
X31938000Y-19831000D03*
X36788000Y-25381000D03*
D41*
X25213000Y-19206000D03*
X25213000Y-20906000D03*
X25213000Y-22606000D03*
X25213000Y-24306000D03*
X25213000Y-26006000D03*
%TD*%
D16*
%TO.C,R10*%
X20511000Y-51054000D03*
X22161000Y-51054000D03*
%TD*%
%TO.C,R302*%
X66485000Y-43434000D03*
X68135000Y-43434000D03*
%TD*%
D42*
%TO.C,L201*%
X15748000Y-21382264D03*
X15748000Y-31282264D03*
%TD*%
D31*
%TO.C,R4*%
X44958000Y-12638500D03*
X44958000Y-9713500D03*
%TD*%
M02*
