%TF.GenerationSoftware,KiCad,Pcbnew,6.0.11+dfsg-1*%
%TF.CreationDate,2023-11-04T21:56:29+01:00*%
%TF.ProjectId,main_board,6d61696e-5f62-46f6-9172-642e6b696361,rev?*%
%TF.SameCoordinates,PX63add28PY3f58108*%
%TF.FileFunction,Paste,Bot*%
%TF.FilePolarity,Positive*%
%FSLAX46Y46*%
G04 Gerber Fmt 4.6, Leading zero omitted, Abs format (unit mm)*
G04 Created by KiCad (PCBNEW 6.0.11+dfsg-1) date 2023-11-04 21:56:29*
%MOMM*%
%LPD*%
G01*
G04 APERTURE LIST*
%ADD10R,1.550000X1.300000*%
%ADD11R,1.500000X0.900000*%
%ADD12R,0.900000X1.500000*%
%ADD13R,0.900000X0.900000*%
G04 APERTURE END LIST*
D10*
%TO.C,SW301*%
X55715000Y-47915000D03*
X63665000Y-47915000D03*
X55715000Y-52415000D03*
X63665000Y-52415000D03*
%TD*%
%TO.C,SW302*%
X63665000Y-40930000D03*
X55715000Y-40930000D03*
X55715000Y-45430000D03*
X63665000Y-45430000D03*
%TD*%
D11*
%TO.C,U3*%
X39510000Y-33020000D03*
X39510000Y-31750000D03*
X39510000Y-30480000D03*
X39510000Y-29210000D03*
X39510000Y-27940000D03*
X39510000Y-26670000D03*
X39510000Y-25400000D03*
X39510000Y-24130000D03*
X39510000Y-22860000D03*
X39510000Y-21590000D03*
X39510000Y-20320000D03*
X39510000Y-19050000D03*
X39510000Y-17780000D03*
X39510000Y-16510000D03*
D12*
X42545000Y-15415000D03*
X43815000Y-15415000D03*
X45085000Y-15415000D03*
X46355000Y-15415000D03*
X47625000Y-15415000D03*
X48895000Y-15415000D03*
X50165000Y-15415000D03*
X51435000Y-15415000D03*
X52705000Y-15415000D03*
X53975000Y-15415000D03*
D11*
X57010000Y-16510000D03*
X57010000Y-17780000D03*
X57010000Y-19050000D03*
X57010000Y-20320000D03*
X57010000Y-21590000D03*
X57010000Y-22860000D03*
X57010000Y-24130000D03*
X57010000Y-25400000D03*
X57010000Y-26670000D03*
X57010000Y-27940000D03*
X57010000Y-29210000D03*
X57010000Y-30480000D03*
X57010000Y-31750000D03*
X57010000Y-33020000D03*
D13*
X46760000Y-26855000D03*
X45360000Y-24055000D03*
X45360000Y-25455000D03*
X48160000Y-24055000D03*
X48160000Y-26855000D03*
X46760000Y-25455000D03*
X46760000Y-24055000D03*
X45360000Y-26855000D03*
X48160000Y-25455000D03*
%TD*%
M02*
