%TF.GenerationSoftware,KiCad,Pcbnew,6.0.11+dfsg-1~bpo11+1*%
%TF.CreationDate,2023-02-26T16:43:03+01:00*%
%TF.ProjectId,gun_board,67756e5f-626f-4617-9264-2e6b69636164,rev?*%
%TF.SameCoordinates,PX6940178PY3a87660*%
%TF.FileFunction,Soldermask,Top*%
%TF.FilePolarity,Negative*%
%FSLAX46Y46*%
G04 Gerber Fmt 4.6, Leading zero omitted, Abs format (unit mm)*
G04 Created by KiCad (PCBNEW 6.0.11+dfsg-1~bpo11+1) date 2023-02-26 16:43:03*
%MOMM*%
%LPD*%
G01*
G04 APERTURE LIST*
G04 Aperture macros list*
%AMRoundRect*
0 Rectangle with rounded corners*
0 $1 Rounding radius*
0 $2 $3 $4 $5 $6 $7 $8 $9 X,Y pos of 4 corners*
0 Add a 4 corners polygon primitive as box body*
4,1,4,$2,$3,$4,$5,$6,$7,$8,$9,$2,$3,0*
0 Add four circle primitives for the rounded corners*
1,1,$1+$1,$2,$3*
1,1,$1+$1,$4,$5*
1,1,$1+$1,$6,$7*
1,1,$1+$1,$8,$9*
0 Add four rect primitives between the rounded corners*
20,1,$1+$1,$2,$3,$4,$5,0*
20,1,$1+$1,$4,$5,$6,$7,0*
20,1,$1+$1,$6,$7,$8,$9,0*
20,1,$1+$1,$8,$9,$2,$3,0*%
%AMFreePoly0*
4,1,9,3.862500,-0.866500,0.737500,-0.866500,0.737500,-0.450000,-0.737500,-0.450000,-0.737500,0.450000,0.737500,0.450000,0.737500,0.866500,3.862500,0.866500,3.862500,-0.866500,3.862500,-0.866500,$1*%
G04 Aperture macros list end*
%ADD10R,3.500000X3.500000*%
%ADD11RoundRect,0.750000X-0.750000X-1.000000X0.750000X-1.000000X0.750000X1.000000X-0.750000X1.000000X0*%
%ADD12RoundRect,0.875000X-0.875000X-0.875000X0.875000X-0.875000X0.875000X0.875000X-0.875000X0.875000X0*%
%ADD13R,1.600000X1.600000*%
%ADD14C,1.600000*%
%ADD15RoundRect,0.225000X-0.225000X-0.250000X0.225000X-0.250000X0.225000X0.250000X-0.225000X0.250000X0*%
%ADD16RoundRect,0.200000X-0.275000X0.200000X-0.275000X-0.200000X0.275000X-0.200000X0.275000X0.200000X0*%
%ADD17RoundRect,0.250000X0.620000X0.845000X-0.620000X0.845000X-0.620000X-0.845000X0.620000X-0.845000X0*%
%ADD18O,1.740000X2.190000*%
%ADD19RoundRect,0.200000X-0.200000X-0.275000X0.200000X-0.275000X0.200000X0.275000X-0.200000X0.275000X0*%
%ADD20R,1.100000X1.100000*%
%ADD21R,1.300000X0.900000*%
%ADD22FreePoly0,0.000000*%
%ADD23RoundRect,0.250000X0.262500X0.450000X-0.262500X0.450000X-0.262500X-0.450000X0.262500X-0.450000X0*%
%ADD24RoundRect,0.200000X0.275000X-0.200000X0.275000X0.200000X-0.275000X0.200000X-0.275000X-0.200000X0*%
%ADD25RoundRect,0.225000X-0.250000X0.225000X-0.250000X-0.225000X0.250000X-0.225000X0.250000X0.225000X0*%
%ADD26RoundRect,0.062500X-0.062500X0.375000X-0.062500X-0.375000X0.062500X-0.375000X0.062500X0.375000X0*%
%ADD27RoundRect,0.062500X-0.375000X0.062500X-0.375000X-0.062500X0.375000X-0.062500X0.375000X0.062500X0*%
%ADD28R,3.100000X3.100000*%
%ADD29RoundRect,0.225000X0.250000X-0.225000X0.250000X0.225000X-0.250000X0.225000X-0.250000X-0.225000X0*%
%ADD30C,2.200000*%
%ADD31RoundRect,0.250000X1.425000X-0.362500X1.425000X0.362500X-1.425000X0.362500X-1.425000X-0.362500X0*%
%ADD32RoundRect,0.150000X0.587500X0.150000X-0.587500X0.150000X-0.587500X-0.150000X0.587500X-0.150000X0*%
%ADD33C,2.000000*%
%ADD34RoundRect,0.250000X0.845000X-0.620000X0.845000X0.620000X-0.845000X0.620000X-0.845000X-0.620000X0*%
%ADD35O,2.190000X1.740000*%
%ADD36R,2.500000X1.800000*%
%ADD37RoundRect,0.218750X-0.218750X-0.256250X0.218750X-0.256250X0.218750X0.256250X-0.218750X0.256250X0*%
%ADD38RoundRect,0.200000X0.200000X0.275000X-0.200000X0.275000X-0.200000X-0.275000X0.200000X-0.275000X0*%
%ADD39RoundRect,0.150000X-0.150000X0.825000X-0.150000X-0.825000X0.150000X-0.825000X0.150000X0.825000X0*%
%ADD40RoundRect,0.250000X-0.620000X-0.845000X0.620000X-0.845000X0.620000X0.845000X-0.620000X0.845000X0*%
%ADD41RoundRect,0.250000X-0.262500X-0.450000X0.262500X-0.450000X0.262500X0.450000X-0.262500X0.450000X0*%
%ADD42R,2.000000X1.300000*%
%ADD43R,2.000000X2.000000*%
%ADD44RoundRect,0.150000X-0.825000X-0.150000X0.825000X-0.150000X0.825000X0.150000X-0.825000X0.150000X0*%
%ADD45RoundRect,0.250000X-0.600000X-0.600000X0.600000X-0.600000X0.600000X0.600000X-0.600000X0.600000X0*%
%ADD46C,1.700000*%
%ADD47R,5.400000X2.900000*%
%ADD48R,2.400000X2.000000*%
%ADD49RoundRect,0.150000X0.150000X-0.587500X0.150000X0.587500X-0.150000X0.587500X-0.150000X-0.587500X0*%
%ADD50R,4.600000X1.100000*%
%ADD51R,9.400000X10.800000*%
%ADD52RoundRect,0.225000X0.225000X0.250000X-0.225000X0.250000X-0.225000X-0.250000X0.225000X-0.250000X0*%
%ADD53R,1.600000X0.550000*%
%ADD54R,0.550000X1.600000*%
G04 APERTURE END LIST*
D10*
%TO.C,J2*%
X11080000Y-10472500D03*
D11*
X5080000Y-10472500D03*
D12*
X8080000Y-15172500D03*
%TD*%
D13*
%TO.C,C6*%
X28811776Y-29210000D03*
D14*
X31311776Y-29210000D03*
%TD*%
D13*
%TO.C,C4*%
X31750000Y-5080000D03*
D14*
X34250000Y-5080000D03*
%TD*%
D15*
%TO.C,C10*%
X55613000Y-20828000D03*
X57163000Y-20828000D03*
%TD*%
D16*
%TO.C,R17*%
X50800000Y-39561000D03*
X50800000Y-41211000D03*
%TD*%
D17*
%TO.C,PIO1*%
X49784000Y-61537000D03*
D18*
X47244000Y-61537000D03*
%TD*%
D19*
%TO.C,R18*%
X50737000Y-37846000D03*
X52387000Y-37846000D03*
%TD*%
D20*
%TO.C,D6*%
X36576000Y-17148000D03*
X36576000Y-14348000D03*
%TD*%
D21*
%TO.C,Q2*%
X66422000Y-22376000D03*
D22*
X66509500Y-23876000D03*
D21*
X66422000Y-25376000D03*
%TD*%
D23*
%TO.C,R11*%
X57046500Y-13970000D03*
X55221500Y-13970000D03*
%TD*%
D24*
%TO.C,R7*%
X57150000Y-42227000D03*
X57150000Y-40577000D03*
%TD*%
D25*
%TO.C,C22*%
X41588000Y-19037000D03*
X41588000Y-20587000D03*
%TD*%
D15*
%TO.C,C1*%
X29705000Y-47625000D03*
X31255000Y-47625000D03*
%TD*%
D24*
%TO.C,R12*%
X61722000Y-41973000D03*
X61722000Y-40323000D03*
%TD*%
D26*
%TO.C,U6*%
X48994000Y-29312500D03*
X48494000Y-29312500D03*
X47994000Y-29312500D03*
X47494000Y-29312500D03*
X46994000Y-29312500D03*
X46494000Y-29312500D03*
X45994000Y-29312500D03*
X45494000Y-29312500D03*
D27*
X44806500Y-30000000D03*
X44806500Y-30500000D03*
X44806500Y-31000000D03*
X44806500Y-31500000D03*
X44806500Y-32000000D03*
X44806500Y-32500000D03*
X44806500Y-33000000D03*
X44806500Y-33500000D03*
D26*
X45494000Y-34187500D03*
X45994000Y-34187500D03*
X46494000Y-34187500D03*
X46994000Y-34187500D03*
X47494000Y-34187500D03*
X47994000Y-34187500D03*
X48494000Y-34187500D03*
X48994000Y-34187500D03*
D27*
X49681500Y-33500000D03*
X49681500Y-33000000D03*
X49681500Y-32500000D03*
X49681500Y-32000000D03*
X49681500Y-31500000D03*
X49681500Y-31000000D03*
X49681500Y-30500000D03*
X49681500Y-30000000D03*
D28*
X47244000Y-31750000D03*
%TD*%
D29*
%TO.C,C18*%
X53594000Y-30747000D03*
X53594000Y-29197000D03*
%TD*%
D30*
%TO.C,REF\u002A\u002A*%
X68580000Y-2540000D03*
%TD*%
D17*
%TO.C,PIO2*%
X43372000Y-61537000D03*
D18*
X40832000Y-61537000D03*
%TD*%
D31*
%TO.C,R27*%
X62611000Y-8646500D03*
X62611000Y-2721500D03*
%TD*%
D24*
%TO.C,R22*%
X42799000Y-12097000D03*
X42799000Y-10447000D03*
%TD*%
D32*
%TO.C,Q3*%
X41450500Y-7396000D03*
X41450500Y-5496000D03*
X39575500Y-6446000D03*
%TD*%
D24*
%TO.C,R13*%
X63754000Y-41973000D03*
X63754000Y-40323000D03*
%TD*%
D33*
%TO.C,RESET*%
X21030000Y-35215000D03*
X14530000Y-35215000D03*
X21030000Y-39715000D03*
X14530000Y-39715000D03*
%TD*%
D34*
%TO.C,DCM2*%
X61508000Y-25400000D03*
D35*
X61508000Y-22860000D03*
%TD*%
D36*
%TO.C,D1*%
X18460320Y-26976380D03*
X22460320Y-26976380D03*
%TD*%
D25*
%TO.C,C21*%
X39116000Y-19037000D03*
X39116000Y-20587000D03*
%TD*%
D29*
%TO.C,C7*%
X22860000Y-31255000D03*
X22860000Y-29705000D03*
%TD*%
D15*
%TO.C,C13*%
X55626000Y-27432000D03*
X57176000Y-27432000D03*
%TD*%
D16*
%TO.C,R20*%
X36068000Y-9589000D03*
X36068000Y-11239000D03*
%TD*%
D37*
%TO.C,5V power*%
X54838500Y-52832000D03*
X56413500Y-52832000D03*
%TD*%
D38*
%TO.C,R15*%
X53911000Y-27432000D03*
X52261000Y-27432000D03*
%TD*%
D39*
%TO.C,U3*%
X15240000Y-59120000D03*
X13970000Y-59120000D03*
X12700000Y-59120000D03*
X11430000Y-59120000D03*
X11430000Y-64070000D03*
X12700000Y-64070000D03*
X13970000Y-64070000D03*
X15240000Y-64070000D03*
%TD*%
D38*
%TO.C,R2*%
X59753000Y-52832000D03*
X58103000Y-52832000D03*
%TD*%
D25*
%TO.C,C15*%
X48768000Y-39090000D03*
X48768000Y-40640000D03*
%TD*%
D24*
%TO.C,R23*%
X47625000Y-15399000D03*
X47625000Y-13749000D03*
%TD*%
D40*
%TO.C,SERVO 2*%
X25400000Y-37465000D03*
D18*
X27940000Y-37465000D03*
X30480000Y-37465000D03*
%TD*%
D15*
%TO.C,C11*%
X65519000Y-42164000D03*
X67069000Y-42164000D03*
%TD*%
D30*
%TO.C,REF\u002A\u002A*%
X68580000Y-63500000D03*
%TD*%
D41*
%TO.C,R16*%
X62333500Y-28194000D03*
X64158500Y-28194000D03*
%TD*%
D38*
%TO.C,R1*%
X59753000Y-48768000D03*
X58103000Y-48768000D03*
%TD*%
D37*
%TO.C,5V logic*%
X54838500Y-56896000D03*
X56413500Y-56896000D03*
%TD*%
D38*
%TO.C,R21*%
X41084000Y-10764000D03*
X39434000Y-10764000D03*
%TD*%
D25*
%TO.C,C19*%
X39878000Y-31750000D03*
X39878000Y-33300000D03*
%TD*%
D38*
%TO.C,R4*%
X59753000Y-56896000D03*
X58103000Y-56896000D03*
%TD*%
D25*
%TO.C,C2*%
X12700000Y-49390000D03*
X12700000Y-50940000D03*
%TD*%
D15*
%TO.C,C3*%
X29705000Y-43815000D03*
X31255000Y-43815000D03*
%TD*%
D42*
%TO.C,RV1*%
X52154000Y-16376000D03*
D43*
X56154000Y-17526000D03*
D42*
X52154000Y-18676000D03*
%TD*%
D44*
%TO.C,U4*%
X58485000Y-34671000D03*
X58485000Y-35941000D03*
X58485000Y-37211000D03*
X58485000Y-38481000D03*
X63435000Y-38481000D03*
X63435000Y-37211000D03*
X63435000Y-35941000D03*
X63435000Y-34671000D03*
%TD*%
D24*
%TO.C,R10*%
X49784000Y-20637000D03*
X49784000Y-18987000D03*
%TD*%
D45*
%TO.C,ISP*%
X4445000Y-38857000D03*
D46*
X6985000Y-38857000D03*
X4445000Y-41397000D03*
X6985000Y-41397000D03*
X4445000Y-43937000D03*
X6985000Y-43937000D03*
%TD*%
D24*
%TO.C,R8*%
X55372000Y-40703000D03*
X55372000Y-39053000D03*
%TD*%
D42*
%TO.C,RV2*%
X52122000Y-22980000D03*
D43*
X56122000Y-24130000D03*
D42*
X52122000Y-25280000D03*
%TD*%
D24*
%TO.C,R9*%
X55880000Y-37401000D03*
X55880000Y-35751000D03*
%TD*%
D19*
%TO.C,R14*%
X65691000Y-39116000D03*
X67341000Y-39116000D03*
%TD*%
D47*
%TO.C,L2*%
X10160000Y-20450000D03*
X10160000Y-30350000D03*
%TD*%
D24*
%TO.C,R6*%
X12065000Y-37655000D03*
X12065000Y-36005000D03*
%TD*%
D48*
%TO.C,Y1*%
X26670000Y-47570000D03*
X26670000Y-43870000D03*
%TD*%
D49*
%TO.C,Q4*%
X39563000Y-3319500D03*
X41463000Y-3319500D03*
X40513000Y-1444500D03*
%TD*%
D50*
%TO.C,U1*%
X20895000Y-15650000D03*
X20895000Y-17350000D03*
X20895000Y-19050000D03*
D51*
X30045000Y-19050000D03*
D50*
X20895000Y-20750000D03*
X20895000Y-22450000D03*
%TD*%
D40*
%TO.C,SERVO 1*%
X34290000Y-37465000D03*
D18*
X36830000Y-37465000D03*
X39370000Y-37465000D03*
%TD*%
D16*
%TO.C,R30*%
X41557200Y-23076400D03*
X41557200Y-24726400D03*
%TD*%
D17*
%TO.C,RS485*%
X28575000Y-61575000D03*
D18*
X26035000Y-61575000D03*
X23495000Y-61575000D03*
X20955000Y-61575000D03*
%TD*%
D52*
%TO.C,C16*%
X43955000Y-36830000D03*
X42405000Y-36830000D03*
%TD*%
D17*
%TO.C,BLDC*%
X49657000Y-3652000D03*
D18*
X47117000Y-3652000D03*
X44577000Y-3652000D03*
%TD*%
D38*
%TO.C,R24*%
X59372000Y-5430000D03*
X57722000Y-5430000D03*
%TD*%
D39*
%TO.C,U5*%
X47625000Y-47817000D03*
X46355000Y-47817000D03*
X45085000Y-47817000D03*
X43815000Y-47817000D03*
X42545000Y-47817000D03*
X41275000Y-47817000D03*
X40005000Y-47817000D03*
X38735000Y-47817000D03*
X38735000Y-52767000D03*
X40005000Y-52767000D03*
X41275000Y-52767000D03*
X42545000Y-52767000D03*
X43815000Y-52767000D03*
X45085000Y-52767000D03*
X46355000Y-52767000D03*
X47625000Y-52767000D03*
%TD*%
D15*
%TO.C,C5*%
X29235000Y-10960000D03*
X30785000Y-10960000D03*
%TD*%
D25*
%TO.C,C20*%
X36576000Y-19037000D03*
X36576000Y-20587000D03*
%TD*%
D24*
%TO.C,R25*%
X45847000Y-15399000D03*
X45847000Y-13749000D03*
%TD*%
D38*
%TO.C,R5*%
X59753000Y-60960000D03*
X58103000Y-60960000D03*
%TD*%
D24*
%TO.C,R3*%
X17780000Y-61150000D03*
X17780000Y-59500000D03*
%TD*%
D16*
%TO.C,R26*%
X37973000Y-1811000D03*
X37973000Y-3461000D03*
%TD*%
D37*
%TO.C,12V*%
X54838500Y-48768000D03*
X56413500Y-48768000D03*
%TD*%
D21*
%TO.C,Q1*%
X66676000Y-16026000D03*
D22*
X66763500Y-17526000D03*
D21*
X66676000Y-19026000D03*
%TD*%
D32*
%TO.C,Q7*%
X54658500Y-7142000D03*
X54658500Y-5242000D03*
X52783500Y-6192000D03*
%TD*%
D34*
%TO.C,DCM1*%
X61488000Y-18796000D03*
D35*
X61488000Y-16256000D03*
%TD*%
D30*
%TO.C,REF\u002A\u002A*%
X2540000Y-63500000D03*
%TD*%
D34*
%TO.C,I2C*%
X4445000Y-59182000D03*
D35*
X4445000Y-56642000D03*
X4445000Y-54102000D03*
X4445000Y-51562000D03*
%TD*%
D16*
%TO.C,R28*%
X36576000Y-23051000D03*
X36576000Y-24701000D03*
%TD*%
D19*
%TO.C,R19*%
X36005000Y-32004000D03*
X37655000Y-32004000D03*
%TD*%
D17*
%TO.C,PIO3*%
X36957000Y-61537000D03*
D18*
X34417000Y-61537000D03*
%TD*%
D15*
%TO.C,C14*%
X50787000Y-36068000D03*
X52337000Y-36068000D03*
%TD*%
%TO.C,C17*%
X46469000Y-37084000D03*
X48019000Y-37084000D03*
%TD*%
D53*
%TO.C,U2*%
X23300000Y-53600000D03*
X23300000Y-52800000D03*
X23300000Y-52000000D03*
X23300000Y-51200000D03*
X23300000Y-50400000D03*
X23300000Y-49600000D03*
X23300000Y-48800000D03*
X23300000Y-48000000D03*
D54*
X21850000Y-46550000D03*
X21050000Y-46550000D03*
X20250000Y-46550000D03*
X19450000Y-46550000D03*
X18650000Y-46550000D03*
X17850000Y-46550000D03*
X17050000Y-46550000D03*
X16250000Y-46550000D03*
D53*
X14800000Y-48000000D03*
X14800000Y-48800000D03*
X14800000Y-49600000D03*
X14800000Y-50400000D03*
X14800000Y-51200000D03*
X14800000Y-52000000D03*
X14800000Y-52800000D03*
X14800000Y-53600000D03*
D54*
X16250000Y-55050000D03*
X17050000Y-55050000D03*
X17850000Y-55050000D03*
X18650000Y-55050000D03*
X19450000Y-55050000D03*
X20250000Y-55050000D03*
X21050000Y-55050000D03*
X21850000Y-55050000D03*
%TD*%
D25*
%TO.C,C8*%
X58928000Y-40627000D03*
X58928000Y-42177000D03*
%TD*%
D49*
%TO.C,Q6*%
X48199000Y-10177500D03*
X50099000Y-10177500D03*
X49149000Y-8302500D03*
%TD*%
D16*
%TO.C,R29*%
X39116000Y-23051000D03*
X39116000Y-24701000D03*
%TD*%
D37*
%TO.C,STATUS*%
X54838500Y-60960000D03*
X56413500Y-60960000D03*
%TD*%
D20*
%TO.C,D7*%
X39116000Y-17148000D03*
X39116000Y-14348000D03*
%TD*%
D49*
%TO.C,Q8*%
X52517000Y-3319500D03*
X54417000Y-3319500D03*
X53467000Y-1444500D03*
%TD*%
%TO.C,Q5*%
X44643000Y-10177500D03*
X46543000Y-10177500D03*
X45593000Y-8302500D03*
%TD*%
D30*
%TO.C,REF\u002A\u002A*%
X2540000Y-2540000D03*
%TD*%
D20*
%TO.C,D8*%
X41588000Y-17148000D03*
X41588000Y-14348000D03*
%TD*%
D25*
%TO.C,C12*%
X65786000Y-35801000D03*
X65786000Y-37351000D03*
%TD*%
D52*
%TO.C,C9*%
X57417000Y-33020000D03*
X55867000Y-33020000D03*
%TD*%
M02*
