G04 #@! TF.GenerationSoftware,KiCad,Pcbnew,5.0.2+dfsg1-1*
G04 #@! TF.CreationDate,2019-11-28T21:10:38+01:00*
G04 #@! TF.ProjectId,carte-radio,63617274-652d-4726-9164-696f2e6b6963,rev?*
G04 #@! TF.SameCoordinates,PX44114b0PY1687170*
G04 #@! TF.FileFunction,Copper,L2,Bot*
G04 #@! TF.FilePolarity,Positive*
%FSLAX46Y46*%
G04 Gerber Fmt 4.6, Leading zero omitted, Abs format (unit mm)*
G04 Created by KiCad (PCBNEW 5.0.2+dfsg1-1) date jeu. 28 nov. 2019 21:10:38 CET*
%MOMM*%
%LPD*%
G01*
G04 APERTURE LIST*
G04 #@! TA.AperFunction,ComponentPad*
%ADD10O,1.600000X1.600000*%
G04 #@! TD*
G04 #@! TA.AperFunction,ComponentPad*
%ADD11R,1.600000X1.600000*%
G04 #@! TD*
G04 #@! TA.AperFunction,SMDPad,CuDef*
%ADD12R,4.200000X1.350000*%
G04 #@! TD*
G04 #@! TA.AperFunction,SMDPad,CuDef*
%ADD13R,3.600000X1.270000*%
G04 #@! TD*
G04 #@! TA.AperFunction,ComponentPad*
%ADD14C,1.500000*%
G04 #@! TD*
G04 #@! TA.AperFunction,ComponentPad*
%ADD15R,1.500000X1.500000*%
G04 #@! TD*
G04 #@! TA.AperFunction,ComponentPad*
%ADD16C,1.600000*%
G04 #@! TD*
G04 #@! TA.AperFunction,SMDPad,CuDef*
%ADD17R,2.999740X1.198880*%
G04 #@! TD*
G04 #@! TA.AperFunction,Conductor*
%ADD18C,1.000000*%
G04 #@! TD*
G04 #@! TA.AperFunction,Conductor*
%ADD19C,1.500000*%
G04 #@! TD*
G04 #@! TA.AperFunction,Conductor*
%ADD20C,0.254000*%
G04 #@! TD*
G04 APERTURE END LIST*
D10*
G04 #@! TO.P,A1,32*
G04 #@! TO.N,Net-(A1-Pad32)*
X15752000Y508000D03*
G04 #@! TO.P,A1,31*
G04 #@! TO.N,Net-(A1-Pad31)*
X18292000Y508000D03*
D11*
G04 #@! TO.P,A1,1*
G04 #@! TO.N,Net-(A1-Pad1)*
X24892000Y-47752000D03*
D10*
G04 #@! TO.P,A1,17*
G04 #@! TO.N,RF_INT*
X55372000Y508000D03*
G04 #@! TO.P,A1,2*
G04 #@! TO.N,Net-(A1-Pad2)*
X27432000Y-47752000D03*
G04 #@! TO.P,A1,18*
G04 #@! TO.N,Net-(A1-Pad18)*
X52832000Y508000D03*
G04 #@! TO.P,A1,3*
G04 #@! TO.N,Net-(A1-Pad3)*
X29972000Y-47752000D03*
G04 #@! TO.P,A1,19*
G04 #@! TO.N,Net-(A1-Pad19)*
X50292000Y508000D03*
G04 #@! TO.P,A1,4*
G04 #@! TO.N,3V3*
X32512000Y-47752000D03*
G04 #@! TO.P,A1,20*
G04 #@! TO.N,Net-(A1-Pad20)*
X47752000Y508000D03*
G04 #@! TO.P,A1,5*
G04 #@! TO.N,5V*
X35052000Y-47752000D03*
G04 #@! TO.P,A1,21*
G04 #@! TO.N,Net-(A1-Pad21)*
X45212000Y508000D03*
G04 #@! TO.P,A1,6*
G04 #@! TO.N,GND*
X37592000Y-47752000D03*
G04 #@! TO.P,A1,22*
G04 #@! TO.N,Net-(A1-Pad22)*
X42672000Y508000D03*
G04 #@! TO.P,A1,7*
G04 #@! TO.N,GND*
X40132000Y-47752000D03*
G04 #@! TO.P,A1,23*
G04 #@! TO.N,Net-(A1-Pad23)*
X38612000Y508000D03*
G04 #@! TO.P,A1,8*
G04 #@! TO.N,Net-(A1-Pad8)*
X42672000Y-47752000D03*
G04 #@! TO.P,A1,24*
G04 #@! TO.N,Net-(A1-Pad24)*
X36072000Y508000D03*
G04 #@! TO.P,A1,9*
G04 #@! TO.N,Net-(A1-Pad9)*
X47752000Y-47752000D03*
G04 #@! TO.P,A1,25*
G04 #@! TO.N,RF_NSS*
X33532000Y508000D03*
G04 #@! TO.P,A1,10*
G04 #@! TO.N,Net-(A1-Pad10)*
X50292000Y-47752000D03*
G04 #@! TO.P,A1,26*
G04 #@! TO.N,RF_MOSI*
X30992000Y508000D03*
G04 #@! TO.P,A1,11*
G04 #@! TO.N,Net-(A1-Pad11)*
X52832000Y-47752000D03*
G04 #@! TO.P,A1,27*
G04 #@! TO.N,RF_MISO*
X28452000Y508000D03*
G04 #@! TO.P,A1,12*
G04 #@! TO.N,Net-(A1-Pad12)*
X55372000Y-47752000D03*
G04 #@! TO.P,A1,28*
G04 #@! TO.N,RF_SCK*
X25912000Y508000D03*
G04 #@! TO.P,A1,13*
G04 #@! TO.N,Net-(A1-Pad13)*
X57912000Y-47752000D03*
G04 #@! TO.P,A1,29*
G04 #@! TO.N,GND*
X23372000Y508000D03*
G04 #@! TO.P,A1,14*
G04 #@! TO.N,Net-(A1-Pad14)*
X60452000Y-47752000D03*
G04 #@! TO.P,A1,30*
G04 #@! TO.N,Net-(A1-Pad30)*
X20832000Y508000D03*
G04 #@! TO.P,A1,15*
G04 #@! TO.N,Net-(A1-Pad15)*
X60452000Y508000D03*
G04 #@! TO.P,A1,16*
G04 #@! TO.N,Net-(A1-Pad16)*
X57912000Y508000D03*
G04 #@! TD*
D12*
G04 #@! TO.P,J1,2*
G04 #@! TO.N,GND*
X60198000Y-8097000D03*
X60198000Y-13747000D03*
D13*
G04 #@! TO.P,J1,1*
G04 #@! TO.N,Net-(J1-Pad1)*
X60398000Y-10922000D03*
G04 #@! TD*
D14*
G04 #@! TO.P,Q1,2*
G04 #@! TO.N,3V3*
X13716000Y-38354000D03*
G04 #@! TO.P,Q1,3*
G04 #@! TO.N,RF_SCK*
X11176000Y-38354000D03*
D15*
G04 #@! TO.P,Q1,1*
G04 #@! TO.N,Net-(JP1-Pad1)*
X16256000Y-38354000D03*
G04 #@! TD*
G04 #@! TO.P,Q2,1*
G04 #@! TO.N,Net-(Q2-Pad1)*
X16256000Y-21590000D03*
D14*
G04 #@! TO.P,Q2,3*
G04 #@! TO.N,RF_MOSI*
X11176000Y-21590000D03*
G04 #@! TO.P,Q2,2*
G04 #@! TO.N,3V3*
X13716000Y-21590000D03*
G04 #@! TD*
D15*
G04 #@! TO.P,Q3,1*
G04 #@! TO.N,Net-(Q3-Pad1)*
X16256000Y-29972000D03*
D14*
G04 #@! TO.P,Q3,3*
G04 #@! TO.N,RF_MISO*
X11176000Y-29972000D03*
G04 #@! TO.P,Q3,2*
G04 #@! TO.N,3V3*
X13716000Y-29972000D03*
G04 #@! TD*
G04 #@! TO.P,Q4,2*
G04 #@! TO.N,3V3*
X13716000Y-13208000D03*
G04 #@! TO.P,Q4,3*
G04 #@! TO.N,RF_NSS*
X11176000Y-13208000D03*
D15*
G04 #@! TO.P,Q4,1*
G04 #@! TO.N,Net-(Q4-Pad1)*
X16256000Y-13208000D03*
G04 #@! TD*
D14*
G04 #@! TO.P,Q5,2*
G04 #@! TO.N,3V3*
X56896000Y-20066000D03*
G04 #@! TO.P,Q5,3*
G04 #@! TO.N,Net-(JP2-Pad2)*
X56896000Y-17526000D03*
D15*
G04 #@! TO.P,Q5,1*
G04 #@! TO.N,Net-(Q5-Pad1)*
X56896000Y-22606000D03*
G04 #@! TD*
D10*
G04 #@! TO.P,R1,2*
G04 #@! TO.N,RF_SCK*
X11176000Y-34544000D03*
D16*
G04 #@! TO.P,R1,1*
G04 #@! TO.N,5V*
X3556000Y-34544000D03*
G04 #@! TD*
G04 #@! TO.P,R2,1*
G04 #@! TO.N,5V*
X3556000Y-17780000D03*
D10*
G04 #@! TO.P,R2,2*
G04 #@! TO.N,RF_MOSI*
X11176000Y-17780000D03*
G04 #@! TD*
G04 #@! TO.P,R3,2*
G04 #@! TO.N,RF_MISO*
X11176000Y-26162000D03*
D16*
G04 #@! TO.P,R3,1*
G04 #@! TO.N,5V*
X3556000Y-26162000D03*
G04 #@! TD*
D10*
G04 #@! TO.P,R4,2*
G04 #@! TO.N,RF_NSS*
X11176000Y-9398000D03*
D16*
G04 #@! TO.P,R4,1*
G04 #@! TO.N,5V*
X3556000Y-9398000D03*
G04 #@! TD*
D10*
G04 #@! TO.P,R5,2*
G04 #@! TO.N,Net-(JP2-Pad2)*
X60452000Y-19812000D03*
D16*
G04 #@! TO.P,R5,1*
G04 #@! TO.N,5V*
X60452000Y-27432000D03*
G04 #@! TD*
G04 #@! TO.P,R6,1*
G04 #@! TO.N,3V3*
X13716000Y-34544000D03*
D10*
G04 #@! TO.P,R6,2*
G04 #@! TO.N,Net-(JP1-Pad1)*
X21336000Y-34544000D03*
G04 #@! TD*
G04 #@! TO.P,R7,2*
G04 #@! TO.N,Net-(Q2-Pad1)*
X21336000Y-17780000D03*
D16*
G04 #@! TO.P,R7,1*
G04 #@! TO.N,3V3*
X13716000Y-17780000D03*
G04 #@! TD*
G04 #@! TO.P,R8,1*
G04 #@! TO.N,3V3*
X13716000Y-26162000D03*
D10*
G04 #@! TO.P,R8,2*
G04 #@! TO.N,Net-(Q3-Pad1)*
X21336000Y-26162000D03*
G04 #@! TD*
D16*
G04 #@! TO.P,R9,1*
G04 #@! TO.N,3V3*
X13716000Y-9398000D03*
D10*
G04 #@! TO.P,R9,2*
G04 #@! TO.N,Net-(Q4-Pad1)*
X21336000Y-9398000D03*
G04 #@! TD*
D16*
G04 #@! TO.P,R10,1*
G04 #@! TO.N,3V3*
X52070000Y-18796000D03*
D10*
G04 #@! TO.P,R10,2*
G04 #@! TO.N,Net-(Q5-Pad1)*
X52070000Y-26416000D03*
G04 #@! TD*
D17*
G04 #@! TO.P,U1,1*
G04 #@! TO.N,GND*
X33395920Y-24777700D03*
G04 #@! TO.P,U1,2*
G04 #@! TO.N,Net-(Q3-Pad1)*
X33395920Y-22778720D03*
G04 #@! TO.P,U1,3*
G04 #@! TO.N,Net-(Q2-Pad1)*
X33395920Y-20779740D03*
G04 #@! TO.P,U1,4*
G04 #@! TO.N,Net-(JP1-Pad2)*
X33395920Y-18778220D03*
G04 #@! TO.P,U1,5*
G04 #@! TO.N,Net-(Q4-Pad1)*
X33395920Y-16781780D03*
G04 #@! TO.P,U1,6*
G04 #@! TO.N,Net-(U1-Pad6)*
X33395920Y-14780260D03*
G04 #@! TO.P,U1,7*
G04 #@! TO.N,Net-(U1-Pad7)*
X33395920Y-12781280D03*
G04 #@! TO.P,U1,8*
G04 #@! TO.N,GND*
X33395920Y-10782300D03*
G04 #@! TO.P,U1,9*
G04 #@! TO.N,Net-(J1-Pad1)*
X48392080Y-10782300D03*
G04 #@! TO.P,U1,10*
G04 #@! TO.N,GND*
X48392080Y-12781280D03*
G04 #@! TO.P,U1,11*
G04 #@! TO.N,Net-(U1-Pad11)*
X48392080Y-14780260D03*
G04 #@! TO.P,U1,12*
G04 #@! TO.N,Net-(U1-Pad12)*
X48392080Y-16781780D03*
G04 #@! TO.P,U1,13*
G04 #@! TO.N,3V3*
X48392080Y-18778220D03*
G04 #@! TO.P,U1,14*
G04 #@! TO.N,Net-(Q5-Pad1)*
X48392080Y-20779740D03*
G04 #@! TO.P,U1,15*
G04 #@! TO.N,Net-(U1-Pad15)*
X48392080Y-22778720D03*
G04 #@! TO.P,U1,16*
G04 #@! TO.N,Net-(U1-Pad16)*
X48392080Y-24777700D03*
G04 #@! TD*
D16*
G04 #@! TO.P,JP1,1*
G04 #@! TO.N,Net-(JP1-Pad1)*
X27432000Y-31496000D03*
D10*
G04 #@! TO.P,JP1,2*
G04 #@! TO.N,Net-(JP1-Pad2)*
X27432000Y-18796000D03*
G04 #@! TD*
D16*
G04 #@! TO.P,JP2,1*
G04 #@! TO.N,RF_INT*
X54356000Y-2286000D03*
D10*
G04 #@! TO.P,JP2,2*
G04 #@! TO.N,Net-(JP2-Pad2)*
X54356000Y-17526000D03*
G04 #@! TD*
D18*
G04 #@! TO.N,RF_INT*
X54356000Y-508000D02*
X55372000Y508000D01*
X54356000Y-2286000D02*
X54356000Y-508000D01*
G04 #@! TO.N,Net-(JP2-Pad2)*
X58166000Y-17526000D02*
X60452000Y-19812000D01*
X56896000Y-17526000D02*
X58166000Y-17526000D01*
G04 #@! TO.N,3V3*
X13716000Y-38354000D02*
X13716000Y-34544000D01*
X13716000Y-34544000D02*
X13716000Y-29972000D01*
X13716000Y-29972000D02*
X13716000Y-26162000D01*
X13716000Y-26162000D02*
X13716000Y-21590000D01*
X13716000Y-21590000D02*
X13716000Y-17780000D01*
X13716000Y-17780000D02*
X13716000Y-13208000D01*
X13716000Y-13208000D02*
X13716000Y-9398000D01*
X32512000Y-46620630D02*
X29833370Y-43942000D01*
X32512000Y-47752000D02*
X32512000Y-46620630D01*
X18243340Y-43942000D02*
X13716000Y-39414660D01*
X13716000Y-39414660D02*
X13716000Y-38354000D01*
X29833370Y-43942000D02*
X18243340Y-43942000D01*
X48409860Y-18796000D02*
X48392080Y-18778220D01*
X52070000Y-18796000D02*
X48409860Y-18796000D01*
X53340000Y-20066000D02*
X52070000Y-18796000D01*
X56896000Y-20066000D02*
X53340000Y-20066000D01*
X57645999Y-20815999D02*
X56896000Y-20066000D01*
X58226001Y-20815999D02*
X57645999Y-20815999D01*
X58546001Y-26226717D02*
X58546001Y-21135999D01*
X33667368Y-46620630D02*
X34235999Y-46051999D01*
X34235999Y-46051999D02*
X34772089Y-46051999D01*
X32512000Y-46620630D02*
X33667368Y-46620630D01*
X34772089Y-46051999D02*
X36172098Y-44651989D01*
X58546001Y-21135999D02*
X58226001Y-20815999D01*
X36172098Y-44651989D02*
X40120729Y-44651989D01*
X40120729Y-44651989D02*
X58546001Y-26226717D01*
G04 #@! TO.N,5V*
X3556000Y-9398000D02*
X3556000Y-17780000D01*
X3556000Y-17780000D02*
X3556000Y-26162000D01*
X3556000Y-26162000D02*
X3556000Y-34544000D01*
X34252001Y-48551999D02*
X35052000Y-47752000D01*
X33351999Y-49452001D02*
X34252001Y-48551999D01*
X17332631Y-49452001D02*
X33351999Y-49452001D01*
X3556000Y-35675370D02*
X17332631Y-49452001D01*
X3556000Y-34544000D02*
X3556000Y-35675370D01*
X36752001Y-46051999D02*
X35851999Y-46952001D01*
X40700631Y-46051999D02*
X36752001Y-46051999D01*
X59320630Y-27432000D02*
X40700631Y-46051999D01*
X35851999Y-46952001D02*
X35052000Y-47752000D01*
X60452000Y-27432000D02*
X59320630Y-27432000D01*
G04 #@! TO.N,RF_NSS*
X11176000Y-9398000D02*
X11176000Y-13208000D01*
X32732001Y-291999D02*
X33532000Y508000D01*
X26420000Y-6604000D02*
X32732001Y-291999D01*
X13970000Y-6604000D02*
X26420000Y-6604000D01*
X11176000Y-9398000D02*
X13970000Y-6604000D01*
G04 #@! TO.N,RF_MOSI*
X11176000Y-17780000D02*
X11176000Y-21590000D01*
X30192001Y-291999D02*
X30992000Y508000D01*
X11176000Y-16648630D02*
X9475999Y-14948629D01*
X11176000Y-17780000D02*
X11176000Y-16648630D01*
X25404000Y-5080000D02*
X30192001Y-291999D01*
X9475999Y-14948629D02*
X9475999Y-8581999D01*
X9475999Y-8581999D02*
X12977998Y-5080000D01*
X12977998Y-5080000D02*
X25404000Y-5080000D01*
G04 #@! TO.N,RF_MISO*
X11176000Y-26162000D02*
X11176000Y-29972000D01*
X11176000Y-26162000D02*
X9398000Y-24384000D01*
X9398000Y-24384000D02*
X9398000Y-17018000D01*
X8075989Y-15695989D02*
X8075989Y-8002096D01*
X9398000Y-17018000D02*
X8075989Y-15695989D01*
X8075989Y-8002096D02*
X12522085Y-3556000D01*
X24388000Y-3556000D02*
X28452000Y508000D01*
X12522085Y-3556000D02*
X24388000Y-3556000D01*
G04 #@! TO.N,RF_SCK*
X11176000Y-34544000D02*
X11176000Y-38354000D01*
X23372000Y-2032000D02*
X25912000Y508000D01*
X12066173Y-2032000D02*
X23372000Y-2032000D01*
X6604000Y-7494173D02*
X12066173Y-2032000D01*
X6604000Y-16203912D02*
X6604000Y-7494173D01*
X11176000Y-34544000D02*
X11176000Y-33412630D01*
X11176000Y-33412630D02*
X9525999Y-31762629D01*
X7874000Y-25376002D02*
X7874000Y-17473912D01*
X9525999Y-31762629D02*
X9525999Y-27028001D01*
X9525999Y-27028001D02*
X7874000Y-25376002D01*
X7874000Y-17473912D02*
X6604000Y-16203912D01*
G04 #@! TO.N,Net-(J1-Pad1)*
X48506380Y-10668000D02*
X48392080Y-10782300D01*
X48531780Y-10922000D02*
X48392080Y-10782300D01*
D19*
X60258300Y-10782300D02*
X60398000Y-10922000D01*
X48392080Y-10782300D02*
X60258300Y-10782300D01*
D18*
G04 #@! TO.N,Net-(JP1-Pad1)*
X17526000Y-38354000D02*
X21336000Y-34544000D01*
X16256000Y-38354000D02*
X17526000Y-38354000D01*
G04 #@! TO.N,Net-(Q2-Pad1)*
X17526000Y-21590000D02*
X21336000Y-17780000D01*
X16256000Y-21590000D02*
X17526000Y-21590000D01*
X22135999Y-18579999D02*
X21336000Y-17780000D01*
X24335740Y-20779740D02*
X22135999Y-18579999D01*
X33395920Y-20779740D02*
X24335740Y-20779740D01*
G04 #@! TO.N,Net-(Q3-Pad1)*
X24719280Y-22778720D02*
X21336000Y-26162000D01*
X33395920Y-22778720D02*
X24719280Y-22778720D01*
X16256000Y-28222000D02*
X18316000Y-26162000D01*
X16256000Y-29972000D02*
X16256000Y-28222000D01*
X18316000Y-26162000D02*
X21336000Y-26162000D01*
G04 #@! TO.N,Net-(Q4-Pad1)*
X21336000Y-13970000D02*
X21336000Y-9398000D01*
X21336000Y-15240000D02*
X21336000Y-13970000D01*
X16256000Y-14958000D02*
X16256000Y-13208000D01*
X17808000Y-16510000D02*
X16256000Y-14958000D01*
X21336000Y-15240000D02*
X20066000Y-16510000D01*
X20066000Y-16510000D02*
X17808000Y-16510000D01*
X22877780Y-16781780D02*
X21336000Y-15240000D01*
X33395920Y-16781780D02*
X22877780Y-16781780D01*
G04 #@! TO.N,Net-(Q5-Pad1)*
X50891950Y-20779740D02*
X48392080Y-20779740D01*
X52070000Y-21957790D02*
X50891950Y-20779740D01*
X52070000Y-26416000D02*
X52070000Y-21957790D01*
X54497790Y-21957790D02*
X52070000Y-21957790D01*
X55146000Y-22606000D02*
X54497790Y-21957790D01*
X56896000Y-22606000D02*
X55146000Y-22606000D01*
G04 #@! TO.N,Net-(JP1-Pad1)*
X24384000Y-31496000D02*
X21336000Y-34544000D01*
X27432000Y-31496000D02*
X24384000Y-31496000D01*
G04 #@! TO.N,Net-(JP1-Pad2)*
X27449780Y-18778220D02*
X27432000Y-18796000D01*
X33395920Y-18778220D02*
X27449780Y-18778220D01*
G04 #@! TO.N,Net-(JP2-Pad2)*
X56896000Y-17526000D02*
X54356000Y-17526000D01*
G04 #@! TD*
D20*
G04 #@! TO.N,GND*
G36*
X62536000Y1229908D02*
X62536000Y-6833264D01*
X62424310Y-6787000D01*
X60483750Y-6787000D01*
X60325000Y-6945750D01*
X60325000Y-7970000D01*
X60345000Y-7970000D01*
X60345000Y-8224000D01*
X60325000Y-8224000D01*
X60325000Y-8244000D01*
X60071000Y-8244000D01*
X60071000Y-8224000D01*
X57621750Y-8224000D01*
X57463000Y-8382750D01*
X57463000Y-8898309D01*
X57559673Y-9131698D01*
X57738301Y-9310327D01*
X57948272Y-9397300D01*
X48255673Y-9397300D01*
X47851680Y-9477659D01*
X47765235Y-9535420D01*
X46892210Y-9535420D01*
X46644445Y-9584703D01*
X46434401Y-9725051D01*
X46294053Y-9935095D01*
X46244770Y-10182860D01*
X46244770Y-11381740D01*
X46294053Y-11629505D01*
X46395177Y-11780847D01*
X46353883Y-11822141D01*
X46257210Y-12055530D01*
X46257210Y-12495530D01*
X46415960Y-12654280D01*
X48265080Y-12654280D01*
X48265080Y-12634280D01*
X48519080Y-12634280D01*
X48519080Y-12654280D01*
X50368200Y-12654280D01*
X50526950Y-12495530D01*
X50526950Y-12167300D01*
X58411283Y-12167300D01*
X58598000Y-12204440D01*
X59824375Y-12204440D01*
X59857601Y-12226641D01*
X60398000Y-12334133D01*
X60938400Y-12226641D01*
X60971626Y-12204440D01*
X62198000Y-12204440D01*
X62445765Y-12155157D01*
X62536001Y-12094863D01*
X62536001Y-12483264D01*
X62424310Y-12437000D01*
X60483750Y-12437000D01*
X60325000Y-12595750D01*
X60325000Y-13620000D01*
X60345000Y-13620000D01*
X60345000Y-13874000D01*
X60325000Y-13874000D01*
X60325000Y-14898250D01*
X60483750Y-15057000D01*
X62424310Y-15057000D01*
X62536001Y-15010736D01*
X62536001Y-15424070D01*
X62536000Y-15424075D01*
X62536001Y-49836000D01*
X34573131Y-49836000D01*
X35133609Y-49275523D01*
X35133611Y-49275520D01*
X35229282Y-49179849D01*
X35611909Y-49103740D01*
X36086577Y-48786577D01*
X36342947Y-48402892D01*
X36439611Y-48607134D01*
X36854577Y-48983041D01*
X37242961Y-49143904D01*
X37465000Y-49021915D01*
X37465000Y-47879000D01*
X37719000Y-47879000D01*
X37719000Y-49021915D01*
X37941039Y-49143904D01*
X38329423Y-48983041D01*
X38744389Y-48607134D01*
X38862000Y-48358633D01*
X38979611Y-48607134D01*
X39394577Y-48983041D01*
X39782961Y-49143904D01*
X40005000Y-49021915D01*
X40005000Y-47879000D01*
X37719000Y-47879000D01*
X37465000Y-47879000D01*
X37445000Y-47879000D01*
X37445000Y-47625000D01*
X37465000Y-47625000D01*
X37465000Y-47605000D01*
X37719000Y-47605000D01*
X37719000Y-47625000D01*
X40005000Y-47625000D01*
X40005000Y-47605000D01*
X40259000Y-47605000D01*
X40259000Y-47625000D01*
X40279000Y-47625000D01*
X40279000Y-47879000D01*
X40259000Y-47879000D01*
X40259000Y-49021915D01*
X40481039Y-49143904D01*
X40869423Y-48983041D01*
X41284389Y-48607134D01*
X41381053Y-48402892D01*
X41637423Y-48786577D01*
X42112091Y-49103740D01*
X42530667Y-49187000D01*
X42813333Y-49187000D01*
X43231909Y-49103740D01*
X43706577Y-48786577D01*
X44023740Y-48311909D01*
X44135113Y-47752000D01*
X46288887Y-47752000D01*
X46400260Y-48311909D01*
X46717423Y-48786577D01*
X47192091Y-49103740D01*
X47610667Y-49187000D01*
X47893333Y-49187000D01*
X48311909Y-49103740D01*
X48786577Y-48786577D01*
X49022000Y-48434242D01*
X49257423Y-48786577D01*
X49732091Y-49103740D01*
X50150667Y-49187000D01*
X50433333Y-49187000D01*
X50851909Y-49103740D01*
X51326577Y-48786577D01*
X51562000Y-48434242D01*
X51797423Y-48786577D01*
X52272091Y-49103740D01*
X52690667Y-49187000D01*
X52973333Y-49187000D01*
X53391909Y-49103740D01*
X53866577Y-48786577D01*
X54102000Y-48434242D01*
X54337423Y-48786577D01*
X54812091Y-49103740D01*
X55230667Y-49187000D01*
X55513333Y-49187000D01*
X55931909Y-49103740D01*
X56406577Y-48786577D01*
X56642000Y-48434242D01*
X56877423Y-48786577D01*
X57352091Y-49103740D01*
X57770667Y-49187000D01*
X58053333Y-49187000D01*
X58471909Y-49103740D01*
X58946577Y-48786577D01*
X59182000Y-48434242D01*
X59417423Y-48786577D01*
X59892091Y-49103740D01*
X60310667Y-49187000D01*
X60593333Y-49187000D01*
X61011909Y-49103740D01*
X61486577Y-48786577D01*
X61803740Y-48311909D01*
X61915113Y-47752000D01*
X61803740Y-47192091D01*
X61486577Y-46717423D01*
X61011909Y-46400260D01*
X60593333Y-46317000D01*
X60310667Y-46317000D01*
X59892091Y-46400260D01*
X59417423Y-46717423D01*
X59182000Y-47069758D01*
X58946577Y-46717423D01*
X58471909Y-46400260D01*
X58053333Y-46317000D01*
X57770667Y-46317000D01*
X57352091Y-46400260D01*
X56877423Y-46717423D01*
X56642000Y-47069758D01*
X56406577Y-46717423D01*
X55931909Y-46400260D01*
X55513333Y-46317000D01*
X55230667Y-46317000D01*
X54812091Y-46400260D01*
X54337423Y-46717423D01*
X54102000Y-47069758D01*
X53866577Y-46717423D01*
X53391909Y-46400260D01*
X52973333Y-46317000D01*
X52690667Y-46317000D01*
X52272091Y-46400260D01*
X51797423Y-46717423D01*
X51562000Y-47069758D01*
X51326577Y-46717423D01*
X50851909Y-46400260D01*
X50433333Y-46317000D01*
X50150667Y-46317000D01*
X49732091Y-46400260D01*
X49257423Y-46717423D01*
X49022000Y-47069758D01*
X48786577Y-46717423D01*
X48311909Y-46400260D01*
X47893333Y-46317000D01*
X47610667Y-46317000D01*
X47192091Y-46400260D01*
X46717423Y-46717423D01*
X46400260Y-47192091D01*
X46288887Y-47752000D01*
X44135113Y-47752000D01*
X44023740Y-47192091D01*
X43706577Y-46717423D01*
X43231909Y-46400260D01*
X42813333Y-46317000D01*
X42530667Y-46317000D01*
X42112091Y-46400260D01*
X41646209Y-46711552D01*
X59688699Y-28669063D01*
X60166561Y-28867000D01*
X60737439Y-28867000D01*
X61264862Y-28648534D01*
X61668534Y-28244862D01*
X61887000Y-27717439D01*
X61887000Y-27146561D01*
X61668534Y-26619138D01*
X61264862Y-26215466D01*
X60737439Y-25997000D01*
X60166561Y-25997000D01*
X59696289Y-26191793D01*
X59681001Y-26114934D01*
X59681001Y-21247780D01*
X59703236Y-21135998D01*
X59681001Y-21024216D01*
X59680652Y-21022461D01*
X59892091Y-21163740D01*
X60310667Y-21247000D01*
X60593333Y-21247000D01*
X61011909Y-21163740D01*
X61486577Y-20846577D01*
X61803740Y-20371909D01*
X61915113Y-19812000D01*
X61803740Y-19252091D01*
X61486577Y-18777423D01*
X61011909Y-18460260D01*
X60629283Y-18384151D01*
X59047613Y-16802482D01*
X58984289Y-16707711D01*
X58608855Y-16456854D01*
X58277783Y-16391000D01*
X58166000Y-16368765D01*
X58054217Y-16391000D01*
X57719687Y-16391000D01*
X57680540Y-16351853D01*
X57171494Y-16141000D01*
X56620506Y-16141000D01*
X56111460Y-16351853D01*
X56072313Y-16391000D01*
X55240283Y-16391000D01*
X54915909Y-16174260D01*
X54497333Y-16091000D01*
X54214667Y-16091000D01*
X53796091Y-16174260D01*
X53321423Y-16491423D01*
X53004260Y-16966091D01*
X52892887Y-17526000D01*
X52908652Y-17605256D01*
X52882862Y-17579466D01*
X52355439Y-17361000D01*
X51784561Y-17361000D01*
X51257138Y-17579466D01*
X51175604Y-17661000D01*
X50468715Y-17661000D01*
X50490107Y-17628985D01*
X50539390Y-17381220D01*
X50539390Y-16182340D01*
X50490107Y-15934575D01*
X50387504Y-15781020D01*
X50490107Y-15627465D01*
X50539390Y-15379700D01*
X50539390Y-14180820D01*
X50509938Y-14032750D01*
X57463000Y-14032750D01*
X57463000Y-14548309D01*
X57559673Y-14781698D01*
X57738301Y-14960327D01*
X57971690Y-15057000D01*
X59912250Y-15057000D01*
X60071000Y-14898250D01*
X60071000Y-13874000D01*
X57621750Y-13874000D01*
X57463000Y-14032750D01*
X50509938Y-14032750D01*
X50490107Y-13933055D01*
X50388983Y-13781713D01*
X50430277Y-13740419D01*
X50526950Y-13507030D01*
X50526950Y-13067030D01*
X50405611Y-12945691D01*
X57463000Y-12945691D01*
X57463000Y-13461250D01*
X57621750Y-13620000D01*
X60071000Y-13620000D01*
X60071000Y-12595750D01*
X59912250Y-12437000D01*
X57971690Y-12437000D01*
X57738301Y-12533673D01*
X57559673Y-12712302D01*
X57463000Y-12945691D01*
X50405611Y-12945691D01*
X50368200Y-12908280D01*
X48519080Y-12908280D01*
X48519080Y-12928280D01*
X48265080Y-12928280D01*
X48265080Y-12908280D01*
X46415960Y-12908280D01*
X46257210Y-13067030D01*
X46257210Y-13507030D01*
X46353883Y-13740419D01*
X46395177Y-13781713D01*
X46294053Y-13933055D01*
X46244770Y-14180820D01*
X46244770Y-15379700D01*
X46294053Y-15627465D01*
X46396656Y-15781020D01*
X46294053Y-15934575D01*
X46244770Y-16182340D01*
X46244770Y-17381220D01*
X46294053Y-17628985D01*
X46394959Y-17780000D01*
X46294053Y-17931015D01*
X46244770Y-18178780D01*
X46244770Y-19377660D01*
X46294053Y-19625425D01*
X46396656Y-19778980D01*
X46294053Y-19932535D01*
X46244770Y-20180300D01*
X46244770Y-21379180D01*
X46294053Y-21626945D01*
X46395807Y-21779230D01*
X46294053Y-21931515D01*
X46244770Y-22179280D01*
X46244770Y-23378160D01*
X46294053Y-23625925D01*
X46395807Y-23778210D01*
X46294053Y-23930495D01*
X46244770Y-24178260D01*
X46244770Y-25377140D01*
X46294053Y-25624905D01*
X46434401Y-25834949D01*
X46644445Y-25975297D01*
X46892210Y-26024580D01*
X49891950Y-26024580D01*
X50139715Y-25975297D01*
X50349759Y-25834949D01*
X50490107Y-25624905D01*
X50539390Y-25377140D01*
X50539390Y-24178260D01*
X50490107Y-23930495D01*
X50388353Y-23778210D01*
X50490107Y-23625925D01*
X50539390Y-23378160D01*
X50539390Y-22179280D01*
X50502898Y-21995819D01*
X50935001Y-22427923D01*
X50935000Y-25531716D01*
X50718260Y-25856091D01*
X50606887Y-26416000D01*
X50718260Y-26975909D01*
X51035423Y-27450577D01*
X51510091Y-27767740D01*
X51928667Y-27851000D01*
X52211333Y-27851000D01*
X52629909Y-27767740D01*
X53104577Y-27450577D01*
X53421740Y-26975909D01*
X53533113Y-26416000D01*
X53421740Y-25856091D01*
X53205000Y-25531717D01*
X53205000Y-23092790D01*
X54027659Y-23092790D01*
X54264387Y-23329518D01*
X54327711Y-23424289D01*
X54703145Y-23675146D01*
X55034217Y-23741000D01*
X55145999Y-23763235D01*
X55257781Y-23741000D01*
X55639541Y-23741000D01*
X55688191Y-23813809D01*
X55898235Y-23954157D01*
X56146000Y-24003440D01*
X57411001Y-24003440D01*
X57411001Y-25756584D01*
X39650598Y-43516989D01*
X36283880Y-43516989D01*
X36172097Y-43494754D01*
X36060315Y-43516989D01*
X35729243Y-43582843D01*
X35353809Y-43833700D01*
X35290489Y-43928466D01*
X34309560Y-44909396D01*
X34235999Y-44894764D01*
X34124216Y-44916999D01*
X33793144Y-44982853D01*
X33417710Y-45233710D01*
X33354386Y-45328481D01*
X33197237Y-45485630D01*
X32982132Y-45485630D01*
X30714983Y-43218482D01*
X30651659Y-43123711D01*
X30276225Y-42872854D01*
X29945153Y-42807000D01*
X29833370Y-42784765D01*
X29721587Y-42807000D01*
X18713472Y-42807000D01*
X15657911Y-39751440D01*
X17006000Y-39751440D01*
X17253765Y-39702157D01*
X17463809Y-39561809D01*
X17500933Y-39506249D01*
X17526000Y-39511235D01*
X17637783Y-39489000D01*
X17968855Y-39423146D01*
X18344289Y-39172289D01*
X18407613Y-39077518D01*
X21513283Y-35971849D01*
X21895909Y-35895740D01*
X22370577Y-35578577D01*
X22687740Y-35103909D01*
X22763849Y-34721282D01*
X24854132Y-32631000D01*
X26537604Y-32631000D01*
X26619138Y-32712534D01*
X27146561Y-32931000D01*
X27717439Y-32931000D01*
X28244862Y-32712534D01*
X28648534Y-32308862D01*
X28867000Y-31781439D01*
X28867000Y-31210561D01*
X28648534Y-30683138D01*
X28244862Y-30279466D01*
X27717439Y-30061000D01*
X27146561Y-30061000D01*
X26619138Y-30279466D01*
X26537604Y-30361000D01*
X24495783Y-30361000D01*
X24384000Y-30338765D01*
X24272217Y-30361000D01*
X23941145Y-30426854D01*
X23565711Y-30677711D01*
X23502389Y-30772479D01*
X21158718Y-33116151D01*
X20776091Y-33192260D01*
X20301423Y-33509423D01*
X19984260Y-33984091D01*
X19908151Y-34366717D01*
X17262913Y-37011956D01*
X17253765Y-37005843D01*
X17006000Y-36956560D01*
X15506000Y-36956560D01*
X15258235Y-37005843D01*
X15048191Y-37146191D01*
X14907843Y-37356235D01*
X14869531Y-37548844D01*
X14851000Y-37530313D01*
X14851000Y-35438396D01*
X14932534Y-35356862D01*
X15151000Y-34829439D01*
X15151000Y-34258561D01*
X14932534Y-33731138D01*
X14851000Y-33649604D01*
X14851000Y-30795687D01*
X14869531Y-30777156D01*
X14907843Y-30969765D01*
X15048191Y-31179809D01*
X15258235Y-31320157D01*
X15506000Y-31369440D01*
X17006000Y-31369440D01*
X17253765Y-31320157D01*
X17463809Y-31179809D01*
X17604157Y-30969765D01*
X17653440Y-30722000D01*
X17653440Y-29222000D01*
X17604157Y-28974235D01*
X17463809Y-28764191D01*
X17391000Y-28715541D01*
X17391000Y-28692131D01*
X18786132Y-27297000D01*
X20451717Y-27297000D01*
X20776091Y-27513740D01*
X21194667Y-27597000D01*
X21477333Y-27597000D01*
X21895909Y-27513740D01*
X22370577Y-27196577D01*
X22687740Y-26721909D01*
X22763849Y-26339282D01*
X24039682Y-25063450D01*
X31261050Y-25063450D01*
X31261050Y-25503450D01*
X31357723Y-25736839D01*
X31536352Y-25915467D01*
X31769741Y-26012140D01*
X33110170Y-26012140D01*
X33268920Y-25853390D01*
X33268920Y-24904700D01*
X33522920Y-24904700D01*
X33522920Y-25853390D01*
X33681670Y-26012140D01*
X35022099Y-26012140D01*
X35255488Y-25915467D01*
X35434117Y-25736839D01*
X35530790Y-25503450D01*
X35530790Y-25063450D01*
X35372040Y-24904700D01*
X33522920Y-24904700D01*
X33268920Y-24904700D01*
X31419800Y-24904700D01*
X31261050Y-25063450D01*
X24039682Y-25063450D01*
X25189413Y-23913720D01*
X31318307Y-23913720D01*
X31261050Y-24051950D01*
X31261050Y-24491950D01*
X31419800Y-24650700D01*
X33268920Y-24650700D01*
X33268920Y-24630700D01*
X33522920Y-24630700D01*
X33522920Y-24650700D01*
X35372040Y-24650700D01*
X35530790Y-24491950D01*
X35530790Y-24051950D01*
X35434117Y-23818561D01*
X35392823Y-23777267D01*
X35493947Y-23625925D01*
X35543230Y-23378160D01*
X35543230Y-22179280D01*
X35493947Y-21931515D01*
X35392193Y-21779230D01*
X35493947Y-21626945D01*
X35543230Y-21379180D01*
X35543230Y-20180300D01*
X35493947Y-19932535D01*
X35391344Y-19778980D01*
X35493947Y-19625425D01*
X35543230Y-19377660D01*
X35543230Y-18178780D01*
X35493947Y-17931015D01*
X35393041Y-17780000D01*
X35493947Y-17628985D01*
X35543230Y-17381220D01*
X35543230Y-16182340D01*
X35493947Y-15934575D01*
X35391344Y-15781020D01*
X35493947Y-15627465D01*
X35543230Y-15379700D01*
X35543230Y-14180820D01*
X35493947Y-13933055D01*
X35392193Y-13780770D01*
X35493947Y-13628485D01*
X35543230Y-13380720D01*
X35543230Y-12181840D01*
X35493947Y-11934075D01*
X35392823Y-11782733D01*
X35434117Y-11741439D01*
X35530790Y-11508050D01*
X35530790Y-11068050D01*
X35372040Y-10909300D01*
X33522920Y-10909300D01*
X33522920Y-10929300D01*
X33268920Y-10929300D01*
X33268920Y-10909300D01*
X31419800Y-10909300D01*
X31261050Y-11068050D01*
X31261050Y-11508050D01*
X31357723Y-11741439D01*
X31399017Y-11782733D01*
X31297893Y-11934075D01*
X31248610Y-12181840D01*
X31248610Y-13380720D01*
X31297893Y-13628485D01*
X31399647Y-13780770D01*
X31297893Y-13933055D01*
X31248610Y-14180820D01*
X31248610Y-15379700D01*
X31297893Y-15627465D01*
X31310799Y-15646780D01*
X23347912Y-15646780D01*
X22471000Y-14769869D01*
X22471000Y-10282283D01*
X22621830Y-10056550D01*
X31261050Y-10056550D01*
X31261050Y-10496550D01*
X31419800Y-10655300D01*
X33268920Y-10655300D01*
X33268920Y-9706610D01*
X33522920Y-9706610D01*
X33522920Y-10655300D01*
X35372040Y-10655300D01*
X35530790Y-10496550D01*
X35530790Y-10056550D01*
X35434117Y-9823161D01*
X35255488Y-9644533D01*
X35022099Y-9547860D01*
X33681670Y-9547860D01*
X33522920Y-9706610D01*
X33268920Y-9706610D01*
X33110170Y-9547860D01*
X31769741Y-9547860D01*
X31536352Y-9644533D01*
X31357723Y-9823161D01*
X31261050Y-10056550D01*
X22621830Y-10056550D01*
X22687740Y-9957909D01*
X22799113Y-9398000D01*
X22687740Y-8838091D01*
X22370577Y-8363423D01*
X21895909Y-8046260D01*
X21477333Y-7963000D01*
X21194667Y-7963000D01*
X20776091Y-8046260D01*
X20301423Y-8363423D01*
X19984260Y-8838091D01*
X19872887Y-9398000D01*
X19984260Y-9957909D01*
X20201001Y-10282285D01*
X20201000Y-13858217D01*
X20201000Y-14769868D01*
X19595869Y-15375000D01*
X18278132Y-15375000D01*
X17391000Y-14487869D01*
X17391000Y-14464459D01*
X17463809Y-14415809D01*
X17604157Y-14205765D01*
X17653440Y-13958000D01*
X17653440Y-12458000D01*
X17604157Y-12210235D01*
X17463809Y-12000191D01*
X17253765Y-11859843D01*
X17006000Y-11810560D01*
X15506000Y-11810560D01*
X15258235Y-11859843D01*
X15048191Y-12000191D01*
X14907843Y-12210235D01*
X14869531Y-12402844D01*
X14851000Y-12384313D01*
X14851000Y-10292396D01*
X14932534Y-10210862D01*
X15151000Y-9683439D01*
X15151000Y-9112561D01*
X14932534Y-8585138D01*
X14528862Y-8181466D01*
X14153250Y-8025882D01*
X14440132Y-7739000D01*
X26308217Y-7739000D01*
X26420000Y-7761235D01*
X26531783Y-7739000D01*
X26862855Y-7673146D01*
X27238289Y-7422289D01*
X27301613Y-7327518D01*
X27333440Y-7295691D01*
X57463000Y-7295691D01*
X57463000Y-7811250D01*
X57621750Y-7970000D01*
X60071000Y-7970000D01*
X60071000Y-6945750D01*
X59912250Y-6787000D01*
X57971690Y-6787000D01*
X57738301Y-6883673D01*
X57559673Y-7062302D01*
X57463000Y-7295691D01*
X27333440Y-7295691D01*
X33613609Y-1015523D01*
X33613611Y-1015520D01*
X33709282Y-919849D01*
X34091909Y-843740D01*
X34566577Y-526577D01*
X34802000Y-174242D01*
X35037423Y-526577D01*
X35512091Y-843740D01*
X35930667Y-927000D01*
X36213333Y-927000D01*
X36631909Y-843740D01*
X37106577Y-526577D01*
X37342000Y-174242D01*
X37577423Y-526577D01*
X38052091Y-843740D01*
X38470667Y-927000D01*
X38753333Y-927000D01*
X39171909Y-843740D01*
X39646577Y-526577D01*
X39963740Y-51909D01*
X40075113Y508000D01*
X41208887Y508000D01*
X41320260Y-51909D01*
X41637423Y-526577D01*
X42112091Y-843740D01*
X42530667Y-927000D01*
X42813333Y-927000D01*
X43231909Y-843740D01*
X43706577Y-526577D01*
X43942000Y-174242D01*
X44177423Y-526577D01*
X44652091Y-843740D01*
X45070667Y-927000D01*
X45353333Y-927000D01*
X45771909Y-843740D01*
X46246577Y-526577D01*
X46482000Y-174242D01*
X46717423Y-526577D01*
X47192091Y-843740D01*
X47610667Y-927000D01*
X47893333Y-927000D01*
X48311909Y-843740D01*
X48786577Y-526577D01*
X49022000Y-174242D01*
X49257423Y-526577D01*
X49732091Y-843740D01*
X50150667Y-927000D01*
X50433333Y-927000D01*
X50851909Y-843740D01*
X51326577Y-526577D01*
X51562000Y-174242D01*
X51797423Y-526577D01*
X52272091Y-843740D01*
X52690667Y-927000D01*
X52973333Y-927000D01*
X53221000Y-877736D01*
X53221000Y-1391604D01*
X53139466Y-1473138D01*
X52921000Y-2000561D01*
X52921000Y-2571439D01*
X53139466Y-3098862D01*
X53543138Y-3502534D01*
X54070561Y-3721000D01*
X54641439Y-3721000D01*
X55168862Y-3502534D01*
X55572534Y-3098862D01*
X55791000Y-2571439D01*
X55791000Y-2000561D01*
X55572534Y-1473138D01*
X55491000Y-1391604D01*
X55491000Y-978131D01*
X55549282Y-919849D01*
X55931909Y-843740D01*
X56406577Y-526577D01*
X56642000Y-174242D01*
X56877423Y-526577D01*
X57352091Y-843740D01*
X57770667Y-927000D01*
X58053333Y-927000D01*
X58471909Y-843740D01*
X58946577Y-526577D01*
X59182000Y-174242D01*
X59417423Y-526577D01*
X59892091Y-843740D01*
X60310667Y-927000D01*
X60593333Y-927000D01*
X61011909Y-843740D01*
X61486577Y-526577D01*
X61803740Y-51909D01*
X61915113Y508000D01*
X61803740Y1067909D01*
X61486577Y1542577D01*
X61011909Y1859740D01*
X60593333Y1943000D01*
X60310667Y1943000D01*
X59892091Y1859740D01*
X59417423Y1542577D01*
X59182000Y1190242D01*
X58946577Y1542577D01*
X58471909Y1859740D01*
X58053333Y1943000D01*
X57770667Y1943000D01*
X57352091Y1859740D01*
X56877423Y1542577D01*
X56642000Y1190242D01*
X56406577Y1542577D01*
X55931909Y1859740D01*
X55513333Y1943000D01*
X55230667Y1943000D01*
X54812091Y1859740D01*
X54337423Y1542577D01*
X54102000Y1190242D01*
X53866577Y1542577D01*
X53391909Y1859740D01*
X52973333Y1943000D01*
X52690667Y1943000D01*
X52272091Y1859740D01*
X51797423Y1542577D01*
X51562000Y1190242D01*
X51326577Y1542577D01*
X50851909Y1859740D01*
X50433333Y1943000D01*
X50150667Y1943000D01*
X49732091Y1859740D01*
X49257423Y1542577D01*
X49022000Y1190242D01*
X48786577Y1542577D01*
X48311909Y1859740D01*
X47893333Y1943000D01*
X47610667Y1943000D01*
X47192091Y1859740D01*
X46717423Y1542577D01*
X46482000Y1190242D01*
X46246577Y1542577D01*
X45771909Y1859740D01*
X45353333Y1943000D01*
X45070667Y1943000D01*
X44652091Y1859740D01*
X44177423Y1542577D01*
X43942000Y1190242D01*
X43706577Y1542577D01*
X43231909Y1859740D01*
X42813333Y1943000D01*
X42530667Y1943000D01*
X42112091Y1859740D01*
X41637423Y1542577D01*
X41320260Y1067909D01*
X41208887Y508000D01*
X40075113Y508000D01*
X39963740Y1067909D01*
X39646577Y1542577D01*
X39171909Y1859740D01*
X38753333Y1943000D01*
X38470667Y1943000D01*
X38052091Y1859740D01*
X37577423Y1542577D01*
X37342000Y1190242D01*
X37106577Y1542577D01*
X36631909Y1859740D01*
X36213333Y1943000D01*
X35930667Y1943000D01*
X35512091Y1859740D01*
X35037423Y1542577D01*
X34802000Y1190242D01*
X34566577Y1542577D01*
X34091909Y1859740D01*
X33673333Y1943000D01*
X33390667Y1943000D01*
X32972091Y1859740D01*
X32497423Y1542577D01*
X32262000Y1190242D01*
X32026577Y1542577D01*
X31551909Y1859740D01*
X31133333Y1943000D01*
X30850667Y1943000D01*
X30432091Y1859740D01*
X29957423Y1542577D01*
X29722000Y1190242D01*
X29486577Y1542577D01*
X29011909Y1859740D01*
X28593333Y1943000D01*
X28310667Y1943000D01*
X27892091Y1859740D01*
X27417423Y1542577D01*
X27182000Y1190242D01*
X26946577Y1542577D01*
X26471909Y1859740D01*
X26053333Y1943000D01*
X25770667Y1943000D01*
X25352091Y1859740D01*
X24877423Y1542577D01*
X24621053Y1158892D01*
X24524389Y1363134D01*
X24109423Y1739041D01*
X23721039Y1899904D01*
X23499000Y1777915D01*
X23499000Y635000D01*
X23519000Y635000D01*
X23519000Y381000D01*
X23499000Y381000D01*
X23499000Y361000D01*
X23245000Y361000D01*
X23245000Y381000D01*
X23225000Y381000D01*
X23225000Y635000D01*
X23245000Y635000D01*
X23245000Y1777915D01*
X23022961Y1899904D01*
X22634577Y1739041D01*
X22219611Y1363134D01*
X22122947Y1158892D01*
X21866577Y1542577D01*
X21391909Y1859740D01*
X20973333Y1943000D01*
X20690667Y1943000D01*
X20272091Y1859740D01*
X19797423Y1542577D01*
X19562000Y1190242D01*
X19326577Y1542577D01*
X18851909Y1859740D01*
X18433333Y1943000D01*
X18150667Y1943000D01*
X17732091Y1859740D01*
X17257423Y1542577D01*
X17022000Y1190242D01*
X16786577Y1542577D01*
X16311909Y1859740D01*
X15893333Y1943000D01*
X15610667Y1943000D01*
X15192091Y1859740D01*
X14717423Y1542577D01*
X14400260Y1067909D01*
X14288887Y508000D01*
X14400260Y-51909D01*
X14717423Y-526577D01*
X15192091Y-843740D01*
X15459847Y-897000D01*
X12177955Y-897000D01*
X12066172Y-874765D01*
X11803569Y-927000D01*
X11623318Y-962854D01*
X11247884Y-1213711D01*
X11184562Y-1308479D01*
X5880480Y-6612562D01*
X5785712Y-6675884D01*
X5646872Y-6883673D01*
X5534854Y-7051319D01*
X5446765Y-7494173D01*
X5469001Y-7605961D01*
X5469000Y-16092129D01*
X5446765Y-16203912D01*
X5507649Y-16509999D01*
X5534854Y-16646766D01*
X5785711Y-17022201D01*
X5880482Y-17085525D01*
X6739001Y-17944045D01*
X6739000Y-25264219D01*
X6716765Y-25376002D01*
X6788540Y-25736839D01*
X6804854Y-25818856D01*
X7055711Y-26194291D01*
X7150482Y-26257615D01*
X8391000Y-27498134D01*
X8390999Y-31650846D01*
X8368764Y-31762629D01*
X8456853Y-32205483D01*
X8707710Y-32580918D01*
X8802481Y-32644242D01*
X9951661Y-33793422D01*
X9824260Y-33984091D01*
X9712887Y-34544000D01*
X9824260Y-35103909D01*
X10041000Y-35428284D01*
X10041001Y-37530312D01*
X10001853Y-37569460D01*
X9791000Y-38078506D01*
X9791000Y-38629494D01*
X10001853Y-39138540D01*
X10391460Y-39528147D01*
X10900506Y-39739000D01*
X11451494Y-39739000D01*
X11960540Y-39528147D01*
X12350147Y-39138540D01*
X12446000Y-38907130D01*
X12541853Y-39138540D01*
X12581000Y-39177687D01*
X12581000Y-39302877D01*
X12558765Y-39414660D01*
X12581000Y-39526442D01*
X12646854Y-39857514D01*
X12897711Y-40232949D01*
X12992482Y-40296273D01*
X17361729Y-44665521D01*
X17425051Y-44760289D01*
X17758142Y-44982853D01*
X17800485Y-45011146D01*
X18243340Y-45099235D01*
X18355123Y-45077000D01*
X29363239Y-45077000D01*
X30997790Y-46711552D01*
X30531909Y-46400260D01*
X30113333Y-46317000D01*
X29830667Y-46317000D01*
X29412091Y-46400260D01*
X28937423Y-46717423D01*
X28702000Y-47069758D01*
X28466577Y-46717423D01*
X27991909Y-46400260D01*
X27573333Y-46317000D01*
X27290667Y-46317000D01*
X26872091Y-46400260D01*
X26397423Y-46717423D01*
X26316785Y-46838106D01*
X26290157Y-46704235D01*
X26149809Y-46494191D01*
X25939765Y-46353843D01*
X25692000Y-46304560D01*
X24092000Y-46304560D01*
X23844235Y-46353843D01*
X23634191Y-46494191D01*
X23493843Y-46704235D01*
X23444560Y-46952000D01*
X23444560Y-48317001D01*
X17802763Y-48317001D01*
X4793063Y-35307302D01*
X4991000Y-34829439D01*
X4991000Y-34258561D01*
X4772534Y-33731138D01*
X4691000Y-33649604D01*
X4691000Y-27056396D01*
X4772534Y-26974862D01*
X4991000Y-26447439D01*
X4991000Y-25876561D01*
X4772534Y-25349138D01*
X4691000Y-25267604D01*
X4691000Y-18674396D01*
X4772534Y-18592862D01*
X4991000Y-18065439D01*
X4991000Y-17494561D01*
X4772534Y-16967138D01*
X4691000Y-16885604D01*
X4691000Y-10292396D01*
X4772534Y-10210862D01*
X4991000Y-9683439D01*
X4991000Y-9112561D01*
X4772534Y-8585138D01*
X4368862Y-8181466D01*
X3841439Y-7963000D01*
X3270561Y-7963000D01*
X2743138Y-8181466D01*
X2339466Y-8585138D01*
X2121000Y-9112561D01*
X2121000Y-9683439D01*
X2339466Y-10210862D01*
X2421000Y-10292396D01*
X2421001Y-16885603D01*
X2339466Y-16967138D01*
X2121000Y-17494561D01*
X2121000Y-18065439D01*
X2339466Y-18592862D01*
X2421000Y-18674396D01*
X2421001Y-25267603D01*
X2339466Y-25349138D01*
X2121000Y-25876561D01*
X2121000Y-26447439D01*
X2339466Y-26974862D01*
X2421000Y-27056396D01*
X2421001Y-33649603D01*
X2339466Y-33731138D01*
X2121000Y-34258561D01*
X2121000Y-34829439D01*
X2339466Y-35356862D01*
X2421000Y-35438396D01*
X2421000Y-35563587D01*
X2398765Y-35675370D01*
X2421000Y-35787153D01*
X2486854Y-36118225D01*
X2737712Y-36493659D01*
X2832480Y-36556981D01*
X16111498Y-49836000D01*
X-2592000Y-49836000D01*
X-2592000Y345113D01*
X-1735000Y345113D01*
X-1735000Y-345113D01*
X-1470862Y-982799D01*
X-982799Y-1470862D01*
X-345113Y-1735000D01*
X345113Y-1735000D01*
X982799Y-1470862D01*
X1470862Y-982799D01*
X1735000Y-345113D01*
X1735000Y345113D01*
X1470862Y982799D01*
X982799Y1470862D01*
X345113Y1735000D01*
X-345113Y1735000D01*
X-982799Y1470862D01*
X-1470862Y982799D01*
X-1735000Y345113D01*
X-2592000Y345113D01*
X-2592000Y2592000D01*
X61173910Y2592000D01*
X62536000Y1229908D01*
X62536000Y1229908D01*
G37*
X62536000Y1229908D02*
X62536000Y-6833264D01*
X62424310Y-6787000D01*
X60483750Y-6787000D01*
X60325000Y-6945750D01*
X60325000Y-7970000D01*
X60345000Y-7970000D01*
X60345000Y-8224000D01*
X60325000Y-8224000D01*
X60325000Y-8244000D01*
X60071000Y-8244000D01*
X60071000Y-8224000D01*
X57621750Y-8224000D01*
X57463000Y-8382750D01*
X57463000Y-8898309D01*
X57559673Y-9131698D01*
X57738301Y-9310327D01*
X57948272Y-9397300D01*
X48255673Y-9397300D01*
X47851680Y-9477659D01*
X47765235Y-9535420D01*
X46892210Y-9535420D01*
X46644445Y-9584703D01*
X46434401Y-9725051D01*
X46294053Y-9935095D01*
X46244770Y-10182860D01*
X46244770Y-11381740D01*
X46294053Y-11629505D01*
X46395177Y-11780847D01*
X46353883Y-11822141D01*
X46257210Y-12055530D01*
X46257210Y-12495530D01*
X46415960Y-12654280D01*
X48265080Y-12654280D01*
X48265080Y-12634280D01*
X48519080Y-12634280D01*
X48519080Y-12654280D01*
X50368200Y-12654280D01*
X50526950Y-12495530D01*
X50526950Y-12167300D01*
X58411283Y-12167300D01*
X58598000Y-12204440D01*
X59824375Y-12204440D01*
X59857601Y-12226641D01*
X60398000Y-12334133D01*
X60938400Y-12226641D01*
X60971626Y-12204440D01*
X62198000Y-12204440D01*
X62445765Y-12155157D01*
X62536001Y-12094863D01*
X62536001Y-12483264D01*
X62424310Y-12437000D01*
X60483750Y-12437000D01*
X60325000Y-12595750D01*
X60325000Y-13620000D01*
X60345000Y-13620000D01*
X60345000Y-13874000D01*
X60325000Y-13874000D01*
X60325000Y-14898250D01*
X60483750Y-15057000D01*
X62424310Y-15057000D01*
X62536001Y-15010736D01*
X62536001Y-15424070D01*
X62536000Y-15424075D01*
X62536001Y-49836000D01*
X34573131Y-49836000D01*
X35133609Y-49275523D01*
X35133611Y-49275520D01*
X35229282Y-49179849D01*
X35611909Y-49103740D01*
X36086577Y-48786577D01*
X36342947Y-48402892D01*
X36439611Y-48607134D01*
X36854577Y-48983041D01*
X37242961Y-49143904D01*
X37465000Y-49021915D01*
X37465000Y-47879000D01*
X37719000Y-47879000D01*
X37719000Y-49021915D01*
X37941039Y-49143904D01*
X38329423Y-48983041D01*
X38744389Y-48607134D01*
X38862000Y-48358633D01*
X38979611Y-48607134D01*
X39394577Y-48983041D01*
X39782961Y-49143904D01*
X40005000Y-49021915D01*
X40005000Y-47879000D01*
X37719000Y-47879000D01*
X37465000Y-47879000D01*
X37445000Y-47879000D01*
X37445000Y-47625000D01*
X37465000Y-47625000D01*
X37465000Y-47605000D01*
X37719000Y-47605000D01*
X37719000Y-47625000D01*
X40005000Y-47625000D01*
X40005000Y-47605000D01*
X40259000Y-47605000D01*
X40259000Y-47625000D01*
X40279000Y-47625000D01*
X40279000Y-47879000D01*
X40259000Y-47879000D01*
X40259000Y-49021915D01*
X40481039Y-49143904D01*
X40869423Y-48983041D01*
X41284389Y-48607134D01*
X41381053Y-48402892D01*
X41637423Y-48786577D01*
X42112091Y-49103740D01*
X42530667Y-49187000D01*
X42813333Y-49187000D01*
X43231909Y-49103740D01*
X43706577Y-48786577D01*
X44023740Y-48311909D01*
X44135113Y-47752000D01*
X46288887Y-47752000D01*
X46400260Y-48311909D01*
X46717423Y-48786577D01*
X47192091Y-49103740D01*
X47610667Y-49187000D01*
X47893333Y-49187000D01*
X48311909Y-49103740D01*
X48786577Y-48786577D01*
X49022000Y-48434242D01*
X49257423Y-48786577D01*
X49732091Y-49103740D01*
X50150667Y-49187000D01*
X50433333Y-49187000D01*
X50851909Y-49103740D01*
X51326577Y-48786577D01*
X51562000Y-48434242D01*
X51797423Y-48786577D01*
X52272091Y-49103740D01*
X52690667Y-49187000D01*
X52973333Y-49187000D01*
X53391909Y-49103740D01*
X53866577Y-48786577D01*
X54102000Y-48434242D01*
X54337423Y-48786577D01*
X54812091Y-49103740D01*
X55230667Y-49187000D01*
X55513333Y-49187000D01*
X55931909Y-49103740D01*
X56406577Y-48786577D01*
X56642000Y-48434242D01*
X56877423Y-48786577D01*
X57352091Y-49103740D01*
X57770667Y-49187000D01*
X58053333Y-49187000D01*
X58471909Y-49103740D01*
X58946577Y-48786577D01*
X59182000Y-48434242D01*
X59417423Y-48786577D01*
X59892091Y-49103740D01*
X60310667Y-49187000D01*
X60593333Y-49187000D01*
X61011909Y-49103740D01*
X61486577Y-48786577D01*
X61803740Y-48311909D01*
X61915113Y-47752000D01*
X61803740Y-47192091D01*
X61486577Y-46717423D01*
X61011909Y-46400260D01*
X60593333Y-46317000D01*
X60310667Y-46317000D01*
X59892091Y-46400260D01*
X59417423Y-46717423D01*
X59182000Y-47069758D01*
X58946577Y-46717423D01*
X58471909Y-46400260D01*
X58053333Y-46317000D01*
X57770667Y-46317000D01*
X57352091Y-46400260D01*
X56877423Y-46717423D01*
X56642000Y-47069758D01*
X56406577Y-46717423D01*
X55931909Y-46400260D01*
X55513333Y-46317000D01*
X55230667Y-46317000D01*
X54812091Y-46400260D01*
X54337423Y-46717423D01*
X54102000Y-47069758D01*
X53866577Y-46717423D01*
X53391909Y-46400260D01*
X52973333Y-46317000D01*
X52690667Y-46317000D01*
X52272091Y-46400260D01*
X51797423Y-46717423D01*
X51562000Y-47069758D01*
X51326577Y-46717423D01*
X50851909Y-46400260D01*
X50433333Y-46317000D01*
X50150667Y-46317000D01*
X49732091Y-46400260D01*
X49257423Y-46717423D01*
X49022000Y-47069758D01*
X48786577Y-46717423D01*
X48311909Y-46400260D01*
X47893333Y-46317000D01*
X47610667Y-46317000D01*
X47192091Y-46400260D01*
X46717423Y-46717423D01*
X46400260Y-47192091D01*
X46288887Y-47752000D01*
X44135113Y-47752000D01*
X44023740Y-47192091D01*
X43706577Y-46717423D01*
X43231909Y-46400260D01*
X42813333Y-46317000D01*
X42530667Y-46317000D01*
X42112091Y-46400260D01*
X41646209Y-46711552D01*
X59688699Y-28669063D01*
X60166561Y-28867000D01*
X60737439Y-28867000D01*
X61264862Y-28648534D01*
X61668534Y-28244862D01*
X61887000Y-27717439D01*
X61887000Y-27146561D01*
X61668534Y-26619138D01*
X61264862Y-26215466D01*
X60737439Y-25997000D01*
X60166561Y-25997000D01*
X59696289Y-26191793D01*
X59681001Y-26114934D01*
X59681001Y-21247780D01*
X59703236Y-21135998D01*
X59681001Y-21024216D01*
X59680652Y-21022461D01*
X59892091Y-21163740D01*
X60310667Y-21247000D01*
X60593333Y-21247000D01*
X61011909Y-21163740D01*
X61486577Y-20846577D01*
X61803740Y-20371909D01*
X61915113Y-19812000D01*
X61803740Y-19252091D01*
X61486577Y-18777423D01*
X61011909Y-18460260D01*
X60629283Y-18384151D01*
X59047613Y-16802482D01*
X58984289Y-16707711D01*
X58608855Y-16456854D01*
X58277783Y-16391000D01*
X58166000Y-16368765D01*
X58054217Y-16391000D01*
X57719687Y-16391000D01*
X57680540Y-16351853D01*
X57171494Y-16141000D01*
X56620506Y-16141000D01*
X56111460Y-16351853D01*
X56072313Y-16391000D01*
X55240283Y-16391000D01*
X54915909Y-16174260D01*
X54497333Y-16091000D01*
X54214667Y-16091000D01*
X53796091Y-16174260D01*
X53321423Y-16491423D01*
X53004260Y-16966091D01*
X52892887Y-17526000D01*
X52908652Y-17605256D01*
X52882862Y-17579466D01*
X52355439Y-17361000D01*
X51784561Y-17361000D01*
X51257138Y-17579466D01*
X51175604Y-17661000D01*
X50468715Y-17661000D01*
X50490107Y-17628985D01*
X50539390Y-17381220D01*
X50539390Y-16182340D01*
X50490107Y-15934575D01*
X50387504Y-15781020D01*
X50490107Y-15627465D01*
X50539390Y-15379700D01*
X50539390Y-14180820D01*
X50509938Y-14032750D01*
X57463000Y-14032750D01*
X57463000Y-14548309D01*
X57559673Y-14781698D01*
X57738301Y-14960327D01*
X57971690Y-15057000D01*
X59912250Y-15057000D01*
X60071000Y-14898250D01*
X60071000Y-13874000D01*
X57621750Y-13874000D01*
X57463000Y-14032750D01*
X50509938Y-14032750D01*
X50490107Y-13933055D01*
X50388983Y-13781713D01*
X50430277Y-13740419D01*
X50526950Y-13507030D01*
X50526950Y-13067030D01*
X50405611Y-12945691D01*
X57463000Y-12945691D01*
X57463000Y-13461250D01*
X57621750Y-13620000D01*
X60071000Y-13620000D01*
X60071000Y-12595750D01*
X59912250Y-12437000D01*
X57971690Y-12437000D01*
X57738301Y-12533673D01*
X57559673Y-12712302D01*
X57463000Y-12945691D01*
X50405611Y-12945691D01*
X50368200Y-12908280D01*
X48519080Y-12908280D01*
X48519080Y-12928280D01*
X48265080Y-12928280D01*
X48265080Y-12908280D01*
X46415960Y-12908280D01*
X46257210Y-13067030D01*
X46257210Y-13507030D01*
X46353883Y-13740419D01*
X46395177Y-13781713D01*
X46294053Y-13933055D01*
X46244770Y-14180820D01*
X46244770Y-15379700D01*
X46294053Y-15627465D01*
X46396656Y-15781020D01*
X46294053Y-15934575D01*
X46244770Y-16182340D01*
X46244770Y-17381220D01*
X46294053Y-17628985D01*
X46394959Y-17780000D01*
X46294053Y-17931015D01*
X46244770Y-18178780D01*
X46244770Y-19377660D01*
X46294053Y-19625425D01*
X46396656Y-19778980D01*
X46294053Y-19932535D01*
X46244770Y-20180300D01*
X46244770Y-21379180D01*
X46294053Y-21626945D01*
X46395807Y-21779230D01*
X46294053Y-21931515D01*
X46244770Y-22179280D01*
X46244770Y-23378160D01*
X46294053Y-23625925D01*
X46395807Y-23778210D01*
X46294053Y-23930495D01*
X46244770Y-24178260D01*
X46244770Y-25377140D01*
X46294053Y-25624905D01*
X46434401Y-25834949D01*
X46644445Y-25975297D01*
X46892210Y-26024580D01*
X49891950Y-26024580D01*
X50139715Y-25975297D01*
X50349759Y-25834949D01*
X50490107Y-25624905D01*
X50539390Y-25377140D01*
X50539390Y-24178260D01*
X50490107Y-23930495D01*
X50388353Y-23778210D01*
X50490107Y-23625925D01*
X50539390Y-23378160D01*
X50539390Y-22179280D01*
X50502898Y-21995819D01*
X50935001Y-22427923D01*
X50935000Y-25531716D01*
X50718260Y-25856091D01*
X50606887Y-26416000D01*
X50718260Y-26975909D01*
X51035423Y-27450577D01*
X51510091Y-27767740D01*
X51928667Y-27851000D01*
X52211333Y-27851000D01*
X52629909Y-27767740D01*
X53104577Y-27450577D01*
X53421740Y-26975909D01*
X53533113Y-26416000D01*
X53421740Y-25856091D01*
X53205000Y-25531717D01*
X53205000Y-23092790D01*
X54027659Y-23092790D01*
X54264387Y-23329518D01*
X54327711Y-23424289D01*
X54703145Y-23675146D01*
X55034217Y-23741000D01*
X55145999Y-23763235D01*
X55257781Y-23741000D01*
X55639541Y-23741000D01*
X55688191Y-23813809D01*
X55898235Y-23954157D01*
X56146000Y-24003440D01*
X57411001Y-24003440D01*
X57411001Y-25756584D01*
X39650598Y-43516989D01*
X36283880Y-43516989D01*
X36172097Y-43494754D01*
X36060315Y-43516989D01*
X35729243Y-43582843D01*
X35353809Y-43833700D01*
X35290489Y-43928466D01*
X34309560Y-44909396D01*
X34235999Y-44894764D01*
X34124216Y-44916999D01*
X33793144Y-44982853D01*
X33417710Y-45233710D01*
X33354386Y-45328481D01*
X33197237Y-45485630D01*
X32982132Y-45485630D01*
X30714983Y-43218482D01*
X30651659Y-43123711D01*
X30276225Y-42872854D01*
X29945153Y-42807000D01*
X29833370Y-42784765D01*
X29721587Y-42807000D01*
X18713472Y-42807000D01*
X15657911Y-39751440D01*
X17006000Y-39751440D01*
X17253765Y-39702157D01*
X17463809Y-39561809D01*
X17500933Y-39506249D01*
X17526000Y-39511235D01*
X17637783Y-39489000D01*
X17968855Y-39423146D01*
X18344289Y-39172289D01*
X18407613Y-39077518D01*
X21513283Y-35971849D01*
X21895909Y-35895740D01*
X22370577Y-35578577D01*
X22687740Y-35103909D01*
X22763849Y-34721282D01*
X24854132Y-32631000D01*
X26537604Y-32631000D01*
X26619138Y-32712534D01*
X27146561Y-32931000D01*
X27717439Y-32931000D01*
X28244862Y-32712534D01*
X28648534Y-32308862D01*
X28867000Y-31781439D01*
X28867000Y-31210561D01*
X28648534Y-30683138D01*
X28244862Y-30279466D01*
X27717439Y-30061000D01*
X27146561Y-30061000D01*
X26619138Y-30279466D01*
X26537604Y-30361000D01*
X24495783Y-30361000D01*
X24384000Y-30338765D01*
X24272217Y-30361000D01*
X23941145Y-30426854D01*
X23565711Y-30677711D01*
X23502389Y-30772479D01*
X21158718Y-33116151D01*
X20776091Y-33192260D01*
X20301423Y-33509423D01*
X19984260Y-33984091D01*
X19908151Y-34366717D01*
X17262913Y-37011956D01*
X17253765Y-37005843D01*
X17006000Y-36956560D01*
X15506000Y-36956560D01*
X15258235Y-37005843D01*
X15048191Y-37146191D01*
X14907843Y-37356235D01*
X14869531Y-37548844D01*
X14851000Y-37530313D01*
X14851000Y-35438396D01*
X14932534Y-35356862D01*
X15151000Y-34829439D01*
X15151000Y-34258561D01*
X14932534Y-33731138D01*
X14851000Y-33649604D01*
X14851000Y-30795687D01*
X14869531Y-30777156D01*
X14907843Y-30969765D01*
X15048191Y-31179809D01*
X15258235Y-31320157D01*
X15506000Y-31369440D01*
X17006000Y-31369440D01*
X17253765Y-31320157D01*
X17463809Y-31179809D01*
X17604157Y-30969765D01*
X17653440Y-30722000D01*
X17653440Y-29222000D01*
X17604157Y-28974235D01*
X17463809Y-28764191D01*
X17391000Y-28715541D01*
X17391000Y-28692131D01*
X18786132Y-27297000D01*
X20451717Y-27297000D01*
X20776091Y-27513740D01*
X21194667Y-27597000D01*
X21477333Y-27597000D01*
X21895909Y-27513740D01*
X22370577Y-27196577D01*
X22687740Y-26721909D01*
X22763849Y-26339282D01*
X24039682Y-25063450D01*
X31261050Y-25063450D01*
X31261050Y-25503450D01*
X31357723Y-25736839D01*
X31536352Y-25915467D01*
X31769741Y-26012140D01*
X33110170Y-26012140D01*
X33268920Y-25853390D01*
X33268920Y-24904700D01*
X33522920Y-24904700D01*
X33522920Y-25853390D01*
X33681670Y-26012140D01*
X35022099Y-26012140D01*
X35255488Y-25915467D01*
X35434117Y-25736839D01*
X35530790Y-25503450D01*
X35530790Y-25063450D01*
X35372040Y-24904700D01*
X33522920Y-24904700D01*
X33268920Y-24904700D01*
X31419800Y-24904700D01*
X31261050Y-25063450D01*
X24039682Y-25063450D01*
X25189413Y-23913720D01*
X31318307Y-23913720D01*
X31261050Y-24051950D01*
X31261050Y-24491950D01*
X31419800Y-24650700D01*
X33268920Y-24650700D01*
X33268920Y-24630700D01*
X33522920Y-24630700D01*
X33522920Y-24650700D01*
X35372040Y-24650700D01*
X35530790Y-24491950D01*
X35530790Y-24051950D01*
X35434117Y-23818561D01*
X35392823Y-23777267D01*
X35493947Y-23625925D01*
X35543230Y-23378160D01*
X35543230Y-22179280D01*
X35493947Y-21931515D01*
X35392193Y-21779230D01*
X35493947Y-21626945D01*
X35543230Y-21379180D01*
X35543230Y-20180300D01*
X35493947Y-19932535D01*
X35391344Y-19778980D01*
X35493947Y-19625425D01*
X35543230Y-19377660D01*
X35543230Y-18178780D01*
X35493947Y-17931015D01*
X35393041Y-17780000D01*
X35493947Y-17628985D01*
X35543230Y-17381220D01*
X35543230Y-16182340D01*
X35493947Y-15934575D01*
X35391344Y-15781020D01*
X35493947Y-15627465D01*
X35543230Y-15379700D01*
X35543230Y-14180820D01*
X35493947Y-13933055D01*
X35392193Y-13780770D01*
X35493947Y-13628485D01*
X35543230Y-13380720D01*
X35543230Y-12181840D01*
X35493947Y-11934075D01*
X35392823Y-11782733D01*
X35434117Y-11741439D01*
X35530790Y-11508050D01*
X35530790Y-11068050D01*
X35372040Y-10909300D01*
X33522920Y-10909300D01*
X33522920Y-10929300D01*
X33268920Y-10929300D01*
X33268920Y-10909300D01*
X31419800Y-10909300D01*
X31261050Y-11068050D01*
X31261050Y-11508050D01*
X31357723Y-11741439D01*
X31399017Y-11782733D01*
X31297893Y-11934075D01*
X31248610Y-12181840D01*
X31248610Y-13380720D01*
X31297893Y-13628485D01*
X31399647Y-13780770D01*
X31297893Y-13933055D01*
X31248610Y-14180820D01*
X31248610Y-15379700D01*
X31297893Y-15627465D01*
X31310799Y-15646780D01*
X23347912Y-15646780D01*
X22471000Y-14769869D01*
X22471000Y-10282283D01*
X22621830Y-10056550D01*
X31261050Y-10056550D01*
X31261050Y-10496550D01*
X31419800Y-10655300D01*
X33268920Y-10655300D01*
X33268920Y-9706610D01*
X33522920Y-9706610D01*
X33522920Y-10655300D01*
X35372040Y-10655300D01*
X35530790Y-10496550D01*
X35530790Y-10056550D01*
X35434117Y-9823161D01*
X35255488Y-9644533D01*
X35022099Y-9547860D01*
X33681670Y-9547860D01*
X33522920Y-9706610D01*
X33268920Y-9706610D01*
X33110170Y-9547860D01*
X31769741Y-9547860D01*
X31536352Y-9644533D01*
X31357723Y-9823161D01*
X31261050Y-10056550D01*
X22621830Y-10056550D01*
X22687740Y-9957909D01*
X22799113Y-9398000D01*
X22687740Y-8838091D01*
X22370577Y-8363423D01*
X21895909Y-8046260D01*
X21477333Y-7963000D01*
X21194667Y-7963000D01*
X20776091Y-8046260D01*
X20301423Y-8363423D01*
X19984260Y-8838091D01*
X19872887Y-9398000D01*
X19984260Y-9957909D01*
X20201001Y-10282285D01*
X20201000Y-13858217D01*
X20201000Y-14769868D01*
X19595869Y-15375000D01*
X18278132Y-15375000D01*
X17391000Y-14487869D01*
X17391000Y-14464459D01*
X17463809Y-14415809D01*
X17604157Y-14205765D01*
X17653440Y-13958000D01*
X17653440Y-12458000D01*
X17604157Y-12210235D01*
X17463809Y-12000191D01*
X17253765Y-11859843D01*
X17006000Y-11810560D01*
X15506000Y-11810560D01*
X15258235Y-11859843D01*
X15048191Y-12000191D01*
X14907843Y-12210235D01*
X14869531Y-12402844D01*
X14851000Y-12384313D01*
X14851000Y-10292396D01*
X14932534Y-10210862D01*
X15151000Y-9683439D01*
X15151000Y-9112561D01*
X14932534Y-8585138D01*
X14528862Y-8181466D01*
X14153250Y-8025882D01*
X14440132Y-7739000D01*
X26308217Y-7739000D01*
X26420000Y-7761235D01*
X26531783Y-7739000D01*
X26862855Y-7673146D01*
X27238289Y-7422289D01*
X27301613Y-7327518D01*
X27333440Y-7295691D01*
X57463000Y-7295691D01*
X57463000Y-7811250D01*
X57621750Y-7970000D01*
X60071000Y-7970000D01*
X60071000Y-6945750D01*
X59912250Y-6787000D01*
X57971690Y-6787000D01*
X57738301Y-6883673D01*
X57559673Y-7062302D01*
X57463000Y-7295691D01*
X27333440Y-7295691D01*
X33613609Y-1015523D01*
X33613611Y-1015520D01*
X33709282Y-919849D01*
X34091909Y-843740D01*
X34566577Y-526577D01*
X34802000Y-174242D01*
X35037423Y-526577D01*
X35512091Y-843740D01*
X35930667Y-927000D01*
X36213333Y-927000D01*
X36631909Y-843740D01*
X37106577Y-526577D01*
X37342000Y-174242D01*
X37577423Y-526577D01*
X38052091Y-843740D01*
X38470667Y-927000D01*
X38753333Y-927000D01*
X39171909Y-843740D01*
X39646577Y-526577D01*
X39963740Y-51909D01*
X40075113Y508000D01*
X41208887Y508000D01*
X41320260Y-51909D01*
X41637423Y-526577D01*
X42112091Y-843740D01*
X42530667Y-927000D01*
X42813333Y-927000D01*
X43231909Y-843740D01*
X43706577Y-526577D01*
X43942000Y-174242D01*
X44177423Y-526577D01*
X44652091Y-843740D01*
X45070667Y-927000D01*
X45353333Y-927000D01*
X45771909Y-843740D01*
X46246577Y-526577D01*
X46482000Y-174242D01*
X46717423Y-526577D01*
X47192091Y-843740D01*
X47610667Y-927000D01*
X47893333Y-927000D01*
X48311909Y-843740D01*
X48786577Y-526577D01*
X49022000Y-174242D01*
X49257423Y-526577D01*
X49732091Y-843740D01*
X50150667Y-927000D01*
X50433333Y-927000D01*
X50851909Y-843740D01*
X51326577Y-526577D01*
X51562000Y-174242D01*
X51797423Y-526577D01*
X52272091Y-843740D01*
X52690667Y-927000D01*
X52973333Y-927000D01*
X53221000Y-877736D01*
X53221000Y-1391604D01*
X53139466Y-1473138D01*
X52921000Y-2000561D01*
X52921000Y-2571439D01*
X53139466Y-3098862D01*
X53543138Y-3502534D01*
X54070561Y-3721000D01*
X54641439Y-3721000D01*
X55168862Y-3502534D01*
X55572534Y-3098862D01*
X55791000Y-2571439D01*
X55791000Y-2000561D01*
X55572534Y-1473138D01*
X55491000Y-1391604D01*
X55491000Y-978131D01*
X55549282Y-919849D01*
X55931909Y-843740D01*
X56406577Y-526577D01*
X56642000Y-174242D01*
X56877423Y-526577D01*
X57352091Y-843740D01*
X57770667Y-927000D01*
X58053333Y-927000D01*
X58471909Y-843740D01*
X58946577Y-526577D01*
X59182000Y-174242D01*
X59417423Y-526577D01*
X59892091Y-843740D01*
X60310667Y-927000D01*
X60593333Y-927000D01*
X61011909Y-843740D01*
X61486577Y-526577D01*
X61803740Y-51909D01*
X61915113Y508000D01*
X61803740Y1067909D01*
X61486577Y1542577D01*
X61011909Y1859740D01*
X60593333Y1943000D01*
X60310667Y1943000D01*
X59892091Y1859740D01*
X59417423Y1542577D01*
X59182000Y1190242D01*
X58946577Y1542577D01*
X58471909Y1859740D01*
X58053333Y1943000D01*
X57770667Y1943000D01*
X57352091Y1859740D01*
X56877423Y1542577D01*
X56642000Y1190242D01*
X56406577Y1542577D01*
X55931909Y1859740D01*
X55513333Y1943000D01*
X55230667Y1943000D01*
X54812091Y1859740D01*
X54337423Y1542577D01*
X54102000Y1190242D01*
X53866577Y1542577D01*
X53391909Y1859740D01*
X52973333Y1943000D01*
X52690667Y1943000D01*
X52272091Y1859740D01*
X51797423Y1542577D01*
X51562000Y1190242D01*
X51326577Y1542577D01*
X50851909Y1859740D01*
X50433333Y1943000D01*
X50150667Y1943000D01*
X49732091Y1859740D01*
X49257423Y1542577D01*
X49022000Y1190242D01*
X48786577Y1542577D01*
X48311909Y1859740D01*
X47893333Y1943000D01*
X47610667Y1943000D01*
X47192091Y1859740D01*
X46717423Y1542577D01*
X46482000Y1190242D01*
X46246577Y1542577D01*
X45771909Y1859740D01*
X45353333Y1943000D01*
X45070667Y1943000D01*
X44652091Y1859740D01*
X44177423Y1542577D01*
X43942000Y1190242D01*
X43706577Y1542577D01*
X43231909Y1859740D01*
X42813333Y1943000D01*
X42530667Y1943000D01*
X42112091Y1859740D01*
X41637423Y1542577D01*
X41320260Y1067909D01*
X41208887Y508000D01*
X40075113Y508000D01*
X39963740Y1067909D01*
X39646577Y1542577D01*
X39171909Y1859740D01*
X38753333Y1943000D01*
X38470667Y1943000D01*
X38052091Y1859740D01*
X37577423Y1542577D01*
X37342000Y1190242D01*
X37106577Y1542577D01*
X36631909Y1859740D01*
X36213333Y1943000D01*
X35930667Y1943000D01*
X35512091Y1859740D01*
X35037423Y1542577D01*
X34802000Y1190242D01*
X34566577Y1542577D01*
X34091909Y1859740D01*
X33673333Y1943000D01*
X33390667Y1943000D01*
X32972091Y1859740D01*
X32497423Y1542577D01*
X32262000Y1190242D01*
X32026577Y1542577D01*
X31551909Y1859740D01*
X31133333Y1943000D01*
X30850667Y1943000D01*
X30432091Y1859740D01*
X29957423Y1542577D01*
X29722000Y1190242D01*
X29486577Y1542577D01*
X29011909Y1859740D01*
X28593333Y1943000D01*
X28310667Y1943000D01*
X27892091Y1859740D01*
X27417423Y1542577D01*
X27182000Y1190242D01*
X26946577Y1542577D01*
X26471909Y1859740D01*
X26053333Y1943000D01*
X25770667Y1943000D01*
X25352091Y1859740D01*
X24877423Y1542577D01*
X24621053Y1158892D01*
X24524389Y1363134D01*
X24109423Y1739041D01*
X23721039Y1899904D01*
X23499000Y1777915D01*
X23499000Y635000D01*
X23519000Y635000D01*
X23519000Y381000D01*
X23499000Y381000D01*
X23499000Y361000D01*
X23245000Y361000D01*
X23245000Y381000D01*
X23225000Y381000D01*
X23225000Y635000D01*
X23245000Y635000D01*
X23245000Y1777915D01*
X23022961Y1899904D01*
X22634577Y1739041D01*
X22219611Y1363134D01*
X22122947Y1158892D01*
X21866577Y1542577D01*
X21391909Y1859740D01*
X20973333Y1943000D01*
X20690667Y1943000D01*
X20272091Y1859740D01*
X19797423Y1542577D01*
X19562000Y1190242D01*
X19326577Y1542577D01*
X18851909Y1859740D01*
X18433333Y1943000D01*
X18150667Y1943000D01*
X17732091Y1859740D01*
X17257423Y1542577D01*
X17022000Y1190242D01*
X16786577Y1542577D01*
X16311909Y1859740D01*
X15893333Y1943000D01*
X15610667Y1943000D01*
X15192091Y1859740D01*
X14717423Y1542577D01*
X14400260Y1067909D01*
X14288887Y508000D01*
X14400260Y-51909D01*
X14717423Y-526577D01*
X15192091Y-843740D01*
X15459847Y-897000D01*
X12177955Y-897000D01*
X12066172Y-874765D01*
X11803569Y-927000D01*
X11623318Y-962854D01*
X11247884Y-1213711D01*
X11184562Y-1308479D01*
X5880480Y-6612562D01*
X5785712Y-6675884D01*
X5646872Y-6883673D01*
X5534854Y-7051319D01*
X5446765Y-7494173D01*
X5469001Y-7605961D01*
X5469000Y-16092129D01*
X5446765Y-16203912D01*
X5507649Y-16509999D01*
X5534854Y-16646766D01*
X5785711Y-17022201D01*
X5880482Y-17085525D01*
X6739001Y-17944045D01*
X6739000Y-25264219D01*
X6716765Y-25376002D01*
X6788540Y-25736839D01*
X6804854Y-25818856D01*
X7055711Y-26194291D01*
X7150482Y-26257615D01*
X8391000Y-27498134D01*
X8390999Y-31650846D01*
X8368764Y-31762629D01*
X8456853Y-32205483D01*
X8707710Y-32580918D01*
X8802481Y-32644242D01*
X9951661Y-33793422D01*
X9824260Y-33984091D01*
X9712887Y-34544000D01*
X9824260Y-35103909D01*
X10041000Y-35428284D01*
X10041001Y-37530312D01*
X10001853Y-37569460D01*
X9791000Y-38078506D01*
X9791000Y-38629494D01*
X10001853Y-39138540D01*
X10391460Y-39528147D01*
X10900506Y-39739000D01*
X11451494Y-39739000D01*
X11960540Y-39528147D01*
X12350147Y-39138540D01*
X12446000Y-38907130D01*
X12541853Y-39138540D01*
X12581000Y-39177687D01*
X12581000Y-39302877D01*
X12558765Y-39414660D01*
X12581000Y-39526442D01*
X12646854Y-39857514D01*
X12897711Y-40232949D01*
X12992482Y-40296273D01*
X17361729Y-44665521D01*
X17425051Y-44760289D01*
X17758142Y-44982853D01*
X17800485Y-45011146D01*
X18243340Y-45099235D01*
X18355123Y-45077000D01*
X29363239Y-45077000D01*
X30997790Y-46711552D01*
X30531909Y-46400260D01*
X30113333Y-46317000D01*
X29830667Y-46317000D01*
X29412091Y-46400260D01*
X28937423Y-46717423D01*
X28702000Y-47069758D01*
X28466577Y-46717423D01*
X27991909Y-46400260D01*
X27573333Y-46317000D01*
X27290667Y-46317000D01*
X26872091Y-46400260D01*
X26397423Y-46717423D01*
X26316785Y-46838106D01*
X26290157Y-46704235D01*
X26149809Y-46494191D01*
X25939765Y-46353843D01*
X25692000Y-46304560D01*
X24092000Y-46304560D01*
X23844235Y-46353843D01*
X23634191Y-46494191D01*
X23493843Y-46704235D01*
X23444560Y-46952000D01*
X23444560Y-48317001D01*
X17802763Y-48317001D01*
X4793063Y-35307302D01*
X4991000Y-34829439D01*
X4991000Y-34258561D01*
X4772534Y-33731138D01*
X4691000Y-33649604D01*
X4691000Y-27056396D01*
X4772534Y-26974862D01*
X4991000Y-26447439D01*
X4991000Y-25876561D01*
X4772534Y-25349138D01*
X4691000Y-25267604D01*
X4691000Y-18674396D01*
X4772534Y-18592862D01*
X4991000Y-18065439D01*
X4991000Y-17494561D01*
X4772534Y-16967138D01*
X4691000Y-16885604D01*
X4691000Y-10292396D01*
X4772534Y-10210862D01*
X4991000Y-9683439D01*
X4991000Y-9112561D01*
X4772534Y-8585138D01*
X4368862Y-8181466D01*
X3841439Y-7963000D01*
X3270561Y-7963000D01*
X2743138Y-8181466D01*
X2339466Y-8585138D01*
X2121000Y-9112561D01*
X2121000Y-9683439D01*
X2339466Y-10210862D01*
X2421000Y-10292396D01*
X2421001Y-16885603D01*
X2339466Y-16967138D01*
X2121000Y-17494561D01*
X2121000Y-18065439D01*
X2339466Y-18592862D01*
X2421000Y-18674396D01*
X2421001Y-25267603D01*
X2339466Y-25349138D01*
X2121000Y-25876561D01*
X2121000Y-26447439D01*
X2339466Y-26974862D01*
X2421000Y-27056396D01*
X2421001Y-33649603D01*
X2339466Y-33731138D01*
X2121000Y-34258561D01*
X2121000Y-34829439D01*
X2339466Y-35356862D01*
X2421000Y-35438396D01*
X2421000Y-35563587D01*
X2398765Y-35675370D01*
X2421000Y-35787153D01*
X2486854Y-36118225D01*
X2737712Y-36493659D01*
X2832480Y-36556981D01*
X16111498Y-49836000D01*
X-2592000Y-49836000D01*
X-2592000Y345113D01*
X-1735000Y345113D01*
X-1735000Y-345113D01*
X-1470862Y-982799D01*
X-982799Y-1470862D01*
X-345113Y-1735000D01*
X345113Y-1735000D01*
X982799Y-1470862D01*
X1470862Y-982799D01*
X1735000Y-345113D01*
X1735000Y345113D01*
X1470862Y982799D01*
X982799Y1470862D01*
X345113Y1735000D01*
X-345113Y1735000D01*
X-982799Y1470862D01*
X-1470862Y982799D01*
X-1735000Y345113D01*
X-2592000Y345113D01*
X-2592000Y2592000D01*
X61173910Y2592000D01*
X62536000Y1229908D01*
G04 #@! TD*
M02*
