M48
; DRILL file {KiCad 5.1.5+dfsg1-2build2} date lun. 09 nov. 2020 00:04:37
; FORMAT={-:-/ absolute / inch / decimal}
; #@! TF.CreationDate,2020-11-09T00:04:37+01:00
; #@! TF.GenerationSoftware,Kicad,Pcbnew,5.1.5+dfsg1-2build2
FMAT,2
INCH
T1C0.0276
T2C0.0315
T3C0.0354
T4C0.0394
T5C0.0433
T6C0.0591
T7C0.0591
T8C0.0630
T9C0.0709
%
G90
G05
T1
X1.15Y-1.275
X1.45Y-1.275
X1.15Y-1.375
X1.45Y-1.375
T2
X1.75Y-1.55
X2.05Y-1.55
X1.675Y-1.15
X1.675Y-1.2484
X0.8102Y-0.12
X0.9102Y-0.12
X1.0102Y-0.12
X1.1102Y-0.12
X1.17Y-2.02
X1.2102Y-0.12
X1.27Y-2.02
X1.3102Y-0.12
X1.37Y-2.02
X1.4102Y-0.12
X1.47Y-2.02
X1.5102Y-0.12
X1.57Y-2.02
X1.6102Y-0.12
X1.67Y-2.02
X1.7102Y-0.12
X1.77Y-2.02
X1.87Y-0.12
X1.87Y-2.02
X1.97Y-0.12
X2.07Y-0.12
X2.07Y-2.02
X2.17Y-0.12
X2.17Y-2.02
X2.27Y-0.12
X2.27Y-2.02
X2.37Y-0.12
X2.37Y-2.02
X2.47Y-0.12
X2.47Y-2.02
X2.57Y-0.12
X2.57Y-2.02
X1.75Y-1.7
X2.05Y-1.7
X1.15Y-1.5
X1.15Y-1.6
X1.15Y-1.7
X1.15Y-1.8
X1.45Y-1.5
X1.45Y-1.6
X1.45Y-1.7
X1.45Y-1.8
X1.75Y-1.4
X2.05Y-1.4
X1.75Y-1.85
X2.05Y-1.85
T3
X2.15Y-1.7
X2.25Y-1.7
X2.15Y-1.55
X2.25Y-1.55
X2.15Y-1.85
X2.25Y-1.85
X2.15Y-1.4
X2.25Y-1.4
T4
X2.525Y-1.625
X2.525Y-1.8219
T5
X2.025Y-1.225
X2.0919Y-1.225
X2.1589Y-1.225
X2.2258Y-1.225
X2.2927Y-1.225
T6
X1.275Y-0.425
X2.1648Y-0.425
T7
X2.625Y-1.175
X2.625Y-1.375
X2.525Y-0.32
X2.525Y-0.52
X2.625Y-0.75
X2.625Y-0.95
T8
X1.9Y-0.85
X2.4Y-0.85
X1.225Y-0.85
X1.725Y-0.85
T9
X0.175Y-1.075
X0.9663Y-1.075
T0
M30
