%TF.GenerationSoftware,KiCad,Pcbnew,5.1.9+dfsg1-1*%
%TF.CreationDate,2021-10-02T14:14:08+02:00*%
%TF.ProjectId,accessory_board,61636365-7373-46f7-9279-5f626f617264,rev?*%
%TF.SameCoordinates,Original*%
%TF.FileFunction,Legend,Top*%
%TF.FilePolarity,Positive*%
%FSLAX46Y46*%
G04 Gerber Fmt 4.6, Leading zero omitted, Abs format (unit mm)*
G04 Created by KiCad (PCBNEW 5.1.9+dfsg1-1) date 2021-10-02 14:14:08*
%MOMM*%
%LPD*%
G01*
G04 APERTURE LIST*
%ADD10C,0.150000*%
%ADD11C,0.287500*%
%ADD12C,0.120000*%
%ADD13C,0.250000*%
G04 APERTURE END LIST*
D10*
X262350952Y-61857380D02*
X262350952Y-60857380D01*
X262731904Y-60857380D01*
X262827142Y-60905000D01*
X262874761Y-60952619D01*
X262922380Y-61047857D01*
X262922380Y-61190714D01*
X262874761Y-61285952D01*
X262827142Y-61333571D01*
X262731904Y-61381190D01*
X262350952Y-61381190D01*
X263731904Y-61809761D02*
X263636666Y-61857380D01*
X263446190Y-61857380D01*
X263350952Y-61809761D01*
X263303333Y-61714523D01*
X263303333Y-61333571D01*
X263350952Y-61238333D01*
X263446190Y-61190714D01*
X263636666Y-61190714D01*
X263731904Y-61238333D01*
X263779523Y-61333571D01*
X263779523Y-61428809D01*
X263303333Y-61524047D01*
X264208095Y-61857380D02*
X264208095Y-61190714D01*
X264208095Y-61381190D02*
X264255714Y-61285952D01*
X264303333Y-61238333D01*
X264398571Y-61190714D01*
X264493809Y-61190714D01*
X264827142Y-61857380D02*
X264827142Y-61190714D01*
X264827142Y-60857380D02*
X264779523Y-60905000D01*
X264827142Y-60952619D01*
X264874761Y-60905000D01*
X264827142Y-60857380D01*
X264827142Y-60952619D01*
X265303333Y-61190714D02*
X265303333Y-62190714D01*
X265303333Y-61238333D02*
X265398571Y-61190714D01*
X265589047Y-61190714D01*
X265684285Y-61238333D01*
X265731904Y-61285952D01*
X265779523Y-61381190D01*
X265779523Y-61666904D01*
X265731904Y-61762142D01*
X265684285Y-61809761D01*
X265589047Y-61857380D01*
X265398571Y-61857380D01*
X265303333Y-61809761D01*
X266208095Y-61857380D02*
X266208095Y-60857380D01*
X266636666Y-61857380D02*
X266636666Y-61333571D01*
X266589047Y-61238333D01*
X266493809Y-61190714D01*
X266350952Y-61190714D01*
X266255714Y-61238333D01*
X266208095Y-61285952D01*
X267493809Y-61809761D02*
X267398571Y-61857380D01*
X267208095Y-61857380D01*
X267112857Y-61809761D01*
X267065238Y-61714523D01*
X267065238Y-61333571D01*
X267112857Y-61238333D01*
X267208095Y-61190714D01*
X267398571Y-61190714D01*
X267493809Y-61238333D01*
X267541428Y-61333571D01*
X267541428Y-61428809D01*
X267065238Y-61524047D01*
X267970000Y-61857380D02*
X267970000Y-61190714D01*
X267970000Y-61381190D02*
X268017619Y-61285952D01*
X268065238Y-61238333D01*
X268160476Y-61190714D01*
X268255714Y-61190714D01*
X269017619Y-61857380D02*
X269017619Y-61333571D01*
X268970000Y-61238333D01*
X268874761Y-61190714D01*
X268684285Y-61190714D01*
X268589047Y-61238333D01*
X269017619Y-61809761D02*
X268922380Y-61857380D01*
X268684285Y-61857380D01*
X268589047Y-61809761D01*
X268541428Y-61714523D01*
X268541428Y-61619285D01*
X268589047Y-61524047D01*
X268684285Y-61476428D01*
X268922380Y-61476428D01*
X269017619Y-61428809D01*
X269636666Y-61857380D02*
X269541428Y-61809761D01*
X269493809Y-61714523D01*
X269493809Y-60857380D01*
X271208095Y-61809761D02*
X271112857Y-61857380D01*
X270922380Y-61857380D01*
X270827142Y-61809761D01*
X270779523Y-61762142D01*
X270731904Y-61666904D01*
X270731904Y-61381190D01*
X270779523Y-61285952D01*
X270827142Y-61238333D01*
X270922380Y-61190714D01*
X271112857Y-61190714D01*
X271208095Y-61238333D01*
X272065238Y-61857380D02*
X272065238Y-61333571D01*
X272017619Y-61238333D01*
X271922380Y-61190714D01*
X271731904Y-61190714D01*
X271636666Y-61238333D01*
X272065238Y-61809761D02*
X271970000Y-61857380D01*
X271731904Y-61857380D01*
X271636666Y-61809761D01*
X271589047Y-61714523D01*
X271589047Y-61619285D01*
X271636666Y-61524047D01*
X271731904Y-61476428D01*
X271970000Y-61476428D01*
X272065238Y-61428809D01*
X272541428Y-61857380D02*
X272541428Y-61190714D01*
X272541428Y-61381190D02*
X272589047Y-61285952D01*
X272636666Y-61238333D01*
X272731904Y-61190714D01*
X272827142Y-61190714D01*
X273589047Y-61857380D02*
X273589047Y-60857380D01*
X273589047Y-61809761D02*
X273493809Y-61857380D01*
X273303333Y-61857380D01*
X273208095Y-61809761D01*
X273160476Y-61762142D01*
X273112857Y-61666904D01*
X273112857Y-61381190D01*
X273160476Y-61285952D01*
X273208095Y-61238333D01*
X273303333Y-61190714D01*
X273493809Y-61190714D01*
X273589047Y-61238333D01*
X265231904Y-62507380D02*
X265850952Y-62507380D01*
X265517619Y-62888333D01*
X265660476Y-62888333D01*
X265755714Y-62935952D01*
X265803333Y-62983571D01*
X265850952Y-63078809D01*
X265850952Y-63316904D01*
X265803333Y-63412142D01*
X265755714Y-63459761D01*
X265660476Y-63507380D01*
X265374761Y-63507380D01*
X265279523Y-63459761D01*
X265231904Y-63412142D01*
X266279523Y-63126428D02*
X267041428Y-63126428D01*
X267517619Y-63507380D02*
X267517619Y-62840714D01*
X267517619Y-62507380D02*
X267470000Y-62555000D01*
X267517619Y-62602619D01*
X267565238Y-62555000D01*
X267517619Y-62507380D01*
X267517619Y-62602619D01*
X267993809Y-62840714D02*
X267993809Y-63507380D01*
X267993809Y-62935952D02*
X268041428Y-62888333D01*
X268136666Y-62840714D01*
X268279523Y-62840714D01*
X268374761Y-62888333D01*
X268422380Y-62983571D01*
X268422380Y-63507380D01*
X268898571Y-63126428D02*
X269660476Y-63126428D01*
X270660476Y-63507380D02*
X270089047Y-63507380D01*
X270374761Y-63507380D02*
X270374761Y-62507380D01*
X270279523Y-62650238D01*
X270184285Y-62745476D01*
X270089047Y-62793095D01*
D11*
X261575435Y-56663988D02*
X261027816Y-56663988D01*
X261171566Y-55513988D01*
X262403709Y-56609226D02*
X262287340Y-56663988D01*
X262068292Y-56663988D01*
X261965613Y-56609226D01*
X261924542Y-56499702D01*
X261979304Y-56061607D01*
X262047756Y-55952083D01*
X262164125Y-55897321D01*
X262383173Y-55897321D01*
X262485851Y-55952083D01*
X262526923Y-56061607D01*
X262513232Y-56171130D01*
X261951923Y-56280654D01*
X262896566Y-56609226D02*
X262999244Y-56663988D01*
X263218292Y-56663988D01*
X263334661Y-56609226D01*
X263403113Y-56499702D01*
X263409959Y-56444940D01*
X263368887Y-56335416D01*
X263266209Y-56280654D01*
X263101923Y-56280654D01*
X262999244Y-56225892D01*
X262958173Y-56116369D01*
X262965018Y-56061607D01*
X263033470Y-55952083D01*
X263149840Y-55897321D01*
X263314125Y-55897321D01*
X263416804Y-55952083D01*
X264826923Y-56061607D02*
X265210256Y-56061607D01*
X265299244Y-56663988D02*
X264751625Y-56663988D01*
X264895375Y-55513988D01*
X265442994Y-55513988D01*
X265805792Y-56554464D02*
X265853709Y-56609226D01*
X265792101Y-56663988D01*
X265744185Y-56609226D01*
X265805792Y-56554464D01*
X265792101Y-56663988D01*
X266291804Y-56609226D02*
X266449244Y-56663988D01*
X266723054Y-56663988D01*
X266839423Y-56609226D01*
X266901030Y-56554464D01*
X266969482Y-56444940D01*
X266983173Y-56335416D01*
X266942101Y-56225892D01*
X266894185Y-56171130D01*
X266791506Y-56116369D01*
X266579304Y-56061607D01*
X266476625Y-56006845D01*
X266428709Y-55952083D01*
X266387637Y-55842559D01*
X266401328Y-55733035D01*
X266469780Y-55623511D01*
X266531387Y-55568750D01*
X266647756Y-55513988D01*
X266921566Y-55513988D01*
X267079006Y-55568750D01*
X267448649Y-56554464D02*
X267496566Y-56609226D01*
X267434959Y-56663988D01*
X267387042Y-56609226D01*
X267448649Y-56554464D01*
X267434959Y-56663988D01*
X268653411Y-56554464D02*
X268591804Y-56609226D01*
X268420673Y-56663988D01*
X268311149Y-56663988D01*
X268153709Y-56609226D01*
X268057875Y-56499702D01*
X268016804Y-56390178D01*
X267989423Y-56171130D01*
X268009959Y-56006845D01*
X268092101Y-55787797D01*
X268160554Y-55678273D01*
X268283768Y-55568750D01*
X268454899Y-55513988D01*
X268564423Y-55513988D01*
X268721863Y-55568750D01*
X268769780Y-55623511D01*
X269146268Y-56554464D02*
X269194185Y-56609226D01*
X269132578Y-56663988D01*
X269084661Y-56609226D01*
X269146268Y-56554464D01*
X269132578Y-56663988D01*
X270337340Y-56663988D02*
X270022459Y-56116369D01*
X269680197Y-56663988D02*
X269823947Y-55513988D01*
X270262042Y-55513988D01*
X270364720Y-55568750D01*
X270412637Y-55623511D01*
X270453709Y-55733035D01*
X270433173Y-55897321D01*
X270364720Y-56006845D01*
X270303113Y-56061607D01*
X270186744Y-56116369D01*
X269748649Y-56116369D01*
X270994482Y-56663988D02*
X270891804Y-56609226D01*
X270843887Y-56554464D01*
X270802816Y-56444940D01*
X270843887Y-56116369D01*
X270912340Y-56006845D01*
X270973947Y-55952083D01*
X271090316Y-55897321D01*
X271254601Y-55897321D01*
X271357280Y-55952083D01*
X271405197Y-56006845D01*
X271446268Y-56116369D01*
X271405197Y-56444940D01*
X271336744Y-56554464D01*
X271275137Y-56609226D01*
X271158768Y-56663988D01*
X270994482Y-56663988D01*
X271884363Y-56554464D02*
X271932280Y-56609226D01*
X271870673Y-56663988D01*
X271822756Y-56609226D01*
X271884363Y-56554464D01*
X271870673Y-56663988D01*
X273089125Y-56554464D02*
X273027518Y-56609226D01*
X272856387Y-56663988D01*
X272746863Y-56663988D01*
X272589423Y-56609226D01*
X272493590Y-56499702D01*
X272452518Y-56390178D01*
X272425137Y-56171130D01*
X272445673Y-56006845D01*
X272527816Y-55787797D01*
X272596268Y-55678273D01*
X272719482Y-55568750D01*
X272890613Y-55513988D01*
X273000137Y-55513988D01*
X273157578Y-55568750D01*
X273205494Y-55623511D01*
X273581982Y-56554464D02*
X273629899Y-56609226D01*
X273568292Y-56663988D01*
X273520375Y-56609226D01*
X273581982Y-56554464D01*
X273568292Y-56663988D01*
X274067994Y-56609226D02*
X274225435Y-56663988D01*
X274499244Y-56663988D01*
X274615613Y-56609226D01*
X274677220Y-56554464D01*
X274745673Y-56444940D01*
X274759363Y-56335416D01*
X274718292Y-56225892D01*
X274670375Y-56171130D01*
X274567697Y-56116369D01*
X274355494Y-56061607D01*
X274252816Y-56006845D01*
X274204899Y-55952083D01*
X274163828Y-55842559D01*
X274177518Y-55733035D01*
X274245970Y-55623511D01*
X274307578Y-55568750D01*
X274423947Y-55513988D01*
X274697756Y-55513988D01*
X274855197Y-55568750D01*
X259295970Y-57636011D02*
X259357578Y-57581250D01*
X259473947Y-57526488D01*
X259747756Y-57526488D01*
X259850435Y-57581250D01*
X259898351Y-57636011D01*
X259939423Y-57745535D01*
X259925732Y-57855059D01*
X259850435Y-58019345D01*
X259111149Y-58676488D01*
X259823054Y-58676488D01*
X260678709Y-57526488D02*
X260788232Y-57526488D01*
X260890911Y-57581250D01*
X260938828Y-57636011D01*
X260979899Y-57745535D01*
X261007280Y-57964583D01*
X260973054Y-58238392D01*
X260890911Y-58457440D01*
X260822459Y-58566964D01*
X260760851Y-58621726D01*
X260644482Y-58676488D01*
X260534959Y-58676488D01*
X260432280Y-58621726D01*
X260384363Y-58566964D01*
X260343292Y-58457440D01*
X260315911Y-58238392D01*
X260350137Y-57964583D01*
X260432280Y-57745535D01*
X260500732Y-57636011D01*
X260562340Y-57581250D01*
X260678709Y-57526488D01*
X261486447Y-57636011D02*
X261548054Y-57581250D01*
X261664423Y-57526488D01*
X261938232Y-57526488D01*
X262040911Y-57581250D01*
X262088828Y-57636011D01*
X262129899Y-57745535D01*
X262116209Y-57855059D01*
X262040911Y-58019345D01*
X261301625Y-58676488D01*
X262013530Y-58676488D01*
X262581685Y-57636011D02*
X262643292Y-57581250D01*
X262759661Y-57526488D01*
X263033470Y-57526488D01*
X263136149Y-57581250D01*
X263184066Y-57636011D01*
X263225137Y-57745535D01*
X263211447Y-57855059D01*
X263136149Y-58019345D01*
X262396863Y-58676488D01*
X263108768Y-58676488D01*
X264532578Y-58238392D02*
X265408768Y-58238392D01*
X266764125Y-58347916D02*
X267311744Y-58347916D01*
X266613530Y-58676488D02*
X267140613Y-57526488D01*
X267380197Y-58676488D01*
X268352220Y-57909821D02*
X268235851Y-58840773D01*
X268167399Y-58950297D01*
X268105792Y-59005059D01*
X267989423Y-59059821D01*
X267825137Y-59059821D01*
X267722459Y-59005059D01*
X268263232Y-58621726D02*
X268146863Y-58676488D01*
X267927816Y-58676488D01*
X267825137Y-58621726D01*
X267777220Y-58566964D01*
X267736149Y-58457440D01*
X267777220Y-58128869D01*
X267845673Y-58019345D01*
X267907280Y-57964583D01*
X268023649Y-57909821D01*
X268242697Y-57909821D01*
X268345375Y-57964583D01*
X269248947Y-58621726D02*
X269132578Y-58676488D01*
X268913530Y-58676488D01*
X268810851Y-58621726D01*
X268769780Y-58512202D01*
X268824542Y-58074107D01*
X268892994Y-57964583D01*
X269009363Y-57909821D01*
X269228411Y-57909821D01*
X269331090Y-57964583D01*
X269372161Y-58074107D01*
X269358470Y-58183630D01*
X268797161Y-58293154D01*
X270830197Y-58676488D02*
X270727518Y-58621726D01*
X270679601Y-58566964D01*
X270638530Y-58457440D01*
X270679601Y-58128869D01*
X270748054Y-58019345D01*
X270809661Y-57964583D01*
X270926030Y-57909821D01*
X271090316Y-57909821D01*
X271192994Y-57964583D01*
X271240911Y-58019345D01*
X271281982Y-58128869D01*
X271240911Y-58457440D01*
X271172459Y-58566964D01*
X271110851Y-58621726D01*
X270994482Y-58676488D01*
X270830197Y-58676488D01*
X271637935Y-57909821D02*
X272076030Y-57909821D01*
X271706387Y-58676488D02*
X271829601Y-57690773D01*
X271898054Y-57581250D01*
X272014423Y-57526488D01*
X272123947Y-57526488D01*
X273698351Y-58074107D02*
X273855792Y-58128869D01*
X273903709Y-58183630D01*
X273944780Y-58293154D01*
X273924244Y-58457440D01*
X273855792Y-58566964D01*
X273794185Y-58621726D01*
X273677816Y-58676488D01*
X273239720Y-58676488D01*
X273383470Y-57526488D01*
X273766804Y-57526488D01*
X273869482Y-57581250D01*
X273917399Y-57636011D01*
X273958470Y-57745535D01*
X273944780Y-57855059D01*
X273876328Y-57964583D01*
X273814720Y-58019345D01*
X273698351Y-58074107D01*
X273315018Y-58074107D01*
X274554006Y-58676488D02*
X274451328Y-58621726D01*
X274403411Y-58566964D01*
X274362340Y-58457440D01*
X274403411Y-58128869D01*
X274471863Y-58019345D01*
X274533470Y-57964583D01*
X274649840Y-57909821D01*
X274814125Y-57909821D01*
X274916804Y-57964583D01*
X274964720Y-58019345D01*
X275005792Y-58128869D01*
X274964720Y-58457440D01*
X274896268Y-58566964D01*
X274834661Y-58621726D01*
X274718292Y-58676488D01*
X274554006Y-58676488D01*
X275361744Y-57909821D02*
X275799840Y-57909821D01*
X275573947Y-57526488D02*
X275450732Y-58512202D01*
X275491804Y-58621726D01*
X275594482Y-58676488D01*
X275704006Y-58676488D01*
X276039423Y-58621726D02*
X276142101Y-58676488D01*
X276361149Y-58676488D01*
X276477518Y-58621726D01*
X276545970Y-58512202D01*
X276552816Y-58457440D01*
X276511744Y-58347916D01*
X276409066Y-58293154D01*
X276244780Y-58293154D01*
X276142101Y-58238392D01*
X276101030Y-58128869D01*
X276107875Y-58074107D01*
X276176328Y-57964583D01*
X276292697Y-57909821D01*
X276456982Y-57909821D01*
X276559661Y-57964583D01*
D12*
X258445000Y-48895000D02*
X276860000Y-48895000D01*
X258445000Y-65405000D02*
X258445000Y-48895000D01*
X182880000Y-12700000D02*
X229235000Y-12700000D01*
X182880000Y-20955000D02*
X182880000Y-12700000D01*
X179705000Y-20955000D02*
X182880000Y-20955000D01*
X179705000Y-40640000D02*
X179705000Y-20955000D01*
X195580000Y-40640000D02*
X179705000Y-40640000D01*
D10*
X162575952Y-61412380D02*
X162004523Y-61412380D01*
X162290238Y-61412380D02*
X162290238Y-60412380D01*
X162195000Y-60555238D01*
X162099761Y-60650476D01*
X162004523Y-60698095D01*
X162956904Y-60507619D02*
X163004523Y-60460000D01*
X163099761Y-60412380D01*
X163337857Y-60412380D01*
X163433095Y-60460000D01*
X163480714Y-60507619D01*
X163528333Y-60602857D01*
X163528333Y-60698095D01*
X163480714Y-60840952D01*
X162909285Y-61412380D01*
X163528333Y-61412380D01*
X163814047Y-60412380D02*
X164147380Y-61412380D01*
X164480714Y-60412380D01*
X156218095Y-61412380D02*
X155741904Y-61412380D01*
X155741904Y-60412380D01*
X156694285Y-61412380D02*
X156599047Y-61364761D01*
X156551428Y-61317142D01*
X156503809Y-61221904D01*
X156503809Y-60936190D01*
X156551428Y-60840952D01*
X156599047Y-60793333D01*
X156694285Y-60745714D01*
X156837142Y-60745714D01*
X156932380Y-60793333D01*
X156980000Y-60840952D01*
X157027619Y-60936190D01*
X157027619Y-61221904D01*
X156980000Y-61317142D01*
X156932380Y-61364761D01*
X156837142Y-61412380D01*
X156694285Y-61412380D01*
X157884761Y-60745714D02*
X157884761Y-61555238D01*
X157837142Y-61650476D01*
X157789523Y-61698095D01*
X157694285Y-61745714D01*
X157551428Y-61745714D01*
X157456190Y-61698095D01*
X157884761Y-61364761D02*
X157789523Y-61412380D01*
X157599047Y-61412380D01*
X157503809Y-61364761D01*
X157456190Y-61317142D01*
X157408571Y-61221904D01*
X157408571Y-60936190D01*
X157456190Y-60840952D01*
X157503809Y-60793333D01*
X157599047Y-60745714D01*
X157789523Y-60745714D01*
X157884761Y-60793333D01*
X158360952Y-61412380D02*
X158360952Y-60745714D01*
X158360952Y-60412380D02*
X158313333Y-60460000D01*
X158360952Y-60507619D01*
X158408571Y-60460000D01*
X158360952Y-60412380D01*
X158360952Y-60507619D01*
X159265714Y-61364761D02*
X159170476Y-61412380D01*
X158980000Y-61412380D01*
X158884761Y-61364761D01*
X158837142Y-61317142D01*
X158789523Y-61221904D01*
X158789523Y-60936190D01*
X158837142Y-60840952D01*
X158884761Y-60793333D01*
X158980000Y-60745714D01*
X159170476Y-60745714D01*
X159265714Y-60793333D01*
X155503809Y-55062380D02*
X155503809Y-54062380D01*
X155884761Y-54062380D01*
X155980000Y-54110000D01*
X156027619Y-54157619D01*
X156075238Y-54252857D01*
X156075238Y-54395714D01*
X156027619Y-54490952D01*
X155980000Y-54538571D01*
X155884761Y-54586190D01*
X155503809Y-54586190D01*
X156646666Y-55062380D02*
X156551428Y-55014761D01*
X156503809Y-54967142D01*
X156456190Y-54871904D01*
X156456190Y-54586190D01*
X156503809Y-54490952D01*
X156551428Y-54443333D01*
X156646666Y-54395714D01*
X156789523Y-54395714D01*
X156884761Y-54443333D01*
X156932380Y-54490952D01*
X156980000Y-54586190D01*
X156980000Y-54871904D01*
X156932380Y-54967142D01*
X156884761Y-55014761D01*
X156789523Y-55062380D01*
X156646666Y-55062380D01*
X157313333Y-54395714D02*
X157503809Y-55062380D01*
X157694285Y-54586190D01*
X157884761Y-55062380D01*
X158075238Y-54395714D01*
X158837142Y-55014761D02*
X158741904Y-55062380D01*
X158551428Y-55062380D01*
X158456190Y-55014761D01*
X158408571Y-54919523D01*
X158408571Y-54538571D01*
X158456190Y-54443333D01*
X158551428Y-54395714D01*
X158741904Y-54395714D01*
X158837142Y-54443333D01*
X158884761Y-54538571D01*
X158884761Y-54633809D01*
X158408571Y-54729047D01*
X159313333Y-55062380D02*
X159313333Y-54395714D01*
X159313333Y-54586190D02*
X159360952Y-54490952D01*
X159408571Y-54443333D01*
X159503809Y-54395714D01*
X159599047Y-54395714D01*
X164108095Y-13787380D02*
X164108095Y-12787380D01*
X164536666Y-12882619D02*
X164584285Y-12835000D01*
X164679523Y-12787380D01*
X164917619Y-12787380D01*
X165012857Y-12835000D01*
X165060476Y-12882619D01*
X165108095Y-12977857D01*
X165108095Y-13073095D01*
X165060476Y-13215952D01*
X164489047Y-13787380D01*
X165108095Y-13787380D01*
X166108095Y-13692142D02*
X166060476Y-13739761D01*
X165917619Y-13787380D01*
X165822380Y-13787380D01*
X165679523Y-13739761D01*
X165584285Y-13644523D01*
X165536666Y-13549285D01*
X165489047Y-13358809D01*
X165489047Y-13215952D01*
X165536666Y-13025476D01*
X165584285Y-12930238D01*
X165679523Y-12835000D01*
X165822380Y-12787380D01*
X165917619Y-12787380D01*
X166060476Y-12835000D01*
X166108095Y-12882619D01*
X167774761Y-12787380D02*
X167298571Y-12787380D01*
X167250952Y-13263571D01*
X167298571Y-13215952D01*
X167393809Y-13168333D01*
X167631904Y-13168333D01*
X167727142Y-13215952D01*
X167774761Y-13263571D01*
X167822380Y-13358809D01*
X167822380Y-13596904D01*
X167774761Y-13692142D01*
X167727142Y-13739761D01*
X167631904Y-13787380D01*
X167393809Y-13787380D01*
X167298571Y-13739761D01*
X167250952Y-13692142D01*
X168108095Y-12787380D02*
X168441428Y-13787380D01*
X168774761Y-12787380D01*
D12*
X229235000Y-15875000D02*
X229235000Y-12700000D01*
D10*
X224623333Y-28336904D02*
X224623333Y-28813095D01*
X224337619Y-28241666D02*
X225337619Y-28575000D01*
X224337619Y-28908333D01*
X224861428Y-35631428D02*
X224813809Y-35774285D01*
X224766190Y-35821904D01*
X224670952Y-35869523D01*
X224528095Y-35869523D01*
X224432857Y-35821904D01*
X224385238Y-35774285D01*
X224337619Y-35679047D01*
X224337619Y-35298095D01*
X225337619Y-35298095D01*
X225337619Y-35631428D01*
X225290000Y-35726666D01*
X225242380Y-35774285D01*
X225147142Y-35821904D01*
X225051904Y-35821904D01*
X224956666Y-35774285D01*
X224909047Y-35726666D01*
X224861428Y-35631428D01*
X224861428Y-35298095D01*
X226766428Y-27694523D02*
X226766428Y-28027857D01*
X226242619Y-28170714D02*
X226242619Y-27694523D01*
X227242619Y-27694523D01*
X227242619Y-28170714D01*
X226909285Y-28599285D02*
X226242619Y-28599285D01*
X226814047Y-28599285D02*
X226861666Y-28646904D01*
X226909285Y-28742142D01*
X226909285Y-28885000D01*
X226861666Y-28980238D01*
X226766428Y-29027857D01*
X226242619Y-29027857D01*
X226242619Y-29932619D02*
X227242619Y-29932619D01*
X226290238Y-29932619D02*
X226242619Y-29837380D01*
X226242619Y-29646904D01*
X226290238Y-29551666D01*
X226337857Y-29504047D01*
X226433095Y-29456428D01*
X226718809Y-29456428D01*
X226814047Y-29504047D01*
X226861666Y-29551666D01*
X226909285Y-29646904D01*
X226909285Y-29837380D01*
X226861666Y-29932619D01*
X226290238Y-31123095D02*
X226242619Y-31218333D01*
X226242619Y-31408809D01*
X226290238Y-31504047D01*
X226385476Y-31551666D01*
X226433095Y-31551666D01*
X226528333Y-31504047D01*
X226575952Y-31408809D01*
X226575952Y-31265952D01*
X226623571Y-31170714D01*
X226718809Y-31123095D01*
X226766428Y-31123095D01*
X226861666Y-31170714D01*
X226909285Y-31265952D01*
X226909285Y-31408809D01*
X226861666Y-31504047D01*
X226909285Y-31885000D02*
X226242619Y-32075476D01*
X226718809Y-32265952D01*
X226242619Y-32456428D01*
X226909285Y-32646904D01*
X226242619Y-33027857D02*
X226909285Y-33027857D01*
X227242619Y-33027857D02*
X227195000Y-32980238D01*
X227147380Y-33027857D01*
X227195000Y-33075476D01*
X227242619Y-33027857D01*
X227147380Y-33027857D01*
X226909285Y-33361190D02*
X226909285Y-33742142D01*
X227242619Y-33504047D02*
X226385476Y-33504047D01*
X226290238Y-33551666D01*
X226242619Y-33646904D01*
X226242619Y-33742142D01*
X226290238Y-34504047D02*
X226242619Y-34408809D01*
X226242619Y-34218333D01*
X226290238Y-34123095D01*
X226337857Y-34075476D01*
X226433095Y-34027857D01*
X226718809Y-34027857D01*
X226814047Y-34075476D01*
X226861666Y-34123095D01*
X226909285Y-34218333D01*
X226909285Y-34408809D01*
X226861666Y-34504047D01*
X226242619Y-34932619D02*
X227242619Y-34932619D01*
X226242619Y-35361190D02*
X226766428Y-35361190D01*
X226861666Y-35313571D01*
X226909285Y-35218333D01*
X226909285Y-35075476D01*
X226861666Y-34980238D01*
X226814047Y-34932619D01*
X227147380Y-36551666D02*
X227195000Y-36599285D01*
X227242619Y-36694523D01*
X227242619Y-36932619D01*
X227195000Y-37027857D01*
X227147380Y-37075476D01*
X227052142Y-37123095D01*
X226956904Y-37123095D01*
X226814047Y-37075476D01*
X226242619Y-36504047D01*
X226242619Y-37123095D01*
X182808571Y-28503571D02*
X182856190Y-28360714D01*
X182903809Y-28313095D01*
X182999047Y-28265476D01*
X183141904Y-28265476D01*
X183237142Y-28313095D01*
X183284761Y-28360714D01*
X183332380Y-28455952D01*
X183332380Y-28836904D01*
X182332380Y-28836904D01*
X182332380Y-28503571D01*
X182380000Y-28408333D01*
X182427619Y-28360714D01*
X182522857Y-28313095D01*
X182618095Y-28313095D01*
X182713333Y-28360714D01*
X182760952Y-28408333D01*
X182808571Y-28503571D01*
X182808571Y-28836904D01*
X183046666Y-35798095D02*
X183046666Y-35321904D01*
X183332380Y-35893333D02*
X182332380Y-35560000D01*
X183332380Y-35226666D01*
X180903571Y-36440476D02*
X180903571Y-36107142D01*
X181427380Y-35964285D02*
X181427380Y-36440476D01*
X180427380Y-36440476D01*
X180427380Y-35964285D01*
X180760714Y-35535714D02*
X181427380Y-35535714D01*
X180855952Y-35535714D02*
X180808333Y-35488095D01*
X180760714Y-35392857D01*
X180760714Y-35250000D01*
X180808333Y-35154761D01*
X180903571Y-35107142D01*
X181427380Y-35107142D01*
X181427380Y-34202380D02*
X180427380Y-34202380D01*
X181379761Y-34202380D02*
X181427380Y-34297619D01*
X181427380Y-34488095D01*
X181379761Y-34583333D01*
X181332142Y-34630952D01*
X181236904Y-34678571D01*
X180951190Y-34678571D01*
X180855952Y-34630952D01*
X180808333Y-34583333D01*
X180760714Y-34488095D01*
X180760714Y-34297619D01*
X180808333Y-34202380D01*
X181379761Y-33011904D02*
X181427380Y-32916666D01*
X181427380Y-32726190D01*
X181379761Y-32630952D01*
X181284523Y-32583333D01*
X181236904Y-32583333D01*
X181141666Y-32630952D01*
X181094047Y-32726190D01*
X181094047Y-32869047D01*
X181046428Y-32964285D01*
X180951190Y-33011904D01*
X180903571Y-33011904D01*
X180808333Y-32964285D01*
X180760714Y-32869047D01*
X180760714Y-32726190D01*
X180808333Y-32630952D01*
X180760714Y-32250000D02*
X181427380Y-32059523D01*
X180951190Y-31869047D01*
X181427380Y-31678571D01*
X180760714Y-31488095D01*
X181427380Y-31107142D02*
X180760714Y-31107142D01*
X180427380Y-31107142D02*
X180475000Y-31154761D01*
X180522619Y-31107142D01*
X180475000Y-31059523D01*
X180427380Y-31107142D01*
X180522619Y-31107142D01*
X180760714Y-30773809D02*
X180760714Y-30392857D01*
X180427380Y-30630952D02*
X181284523Y-30630952D01*
X181379761Y-30583333D01*
X181427380Y-30488095D01*
X181427380Y-30392857D01*
X181379761Y-29630952D02*
X181427380Y-29726190D01*
X181427380Y-29916666D01*
X181379761Y-30011904D01*
X181332142Y-30059523D01*
X181236904Y-30107142D01*
X180951190Y-30107142D01*
X180855952Y-30059523D01*
X180808333Y-30011904D01*
X180760714Y-29916666D01*
X180760714Y-29726190D01*
X180808333Y-29630952D01*
X181427380Y-29202380D02*
X180427380Y-29202380D01*
X181427380Y-28773809D02*
X180903571Y-28773809D01*
X180808333Y-28821428D01*
X180760714Y-28916666D01*
X180760714Y-29059523D01*
X180808333Y-29154761D01*
X180855952Y-29202380D01*
X181427380Y-27011904D02*
X181427380Y-27583333D01*
X181427380Y-27297619D02*
X180427380Y-27297619D01*
X180570238Y-27392857D01*
X180665476Y-27488095D01*
X180713095Y-27583333D01*
D13*
X184537380Y-13893095D02*
X183918333Y-13893095D01*
X183856428Y-14512142D01*
X183918333Y-14450238D01*
X184042142Y-14388333D01*
X184351666Y-14388333D01*
X184475476Y-14450238D01*
X184537380Y-14512142D01*
X184599285Y-14635952D01*
X184599285Y-14945476D01*
X184537380Y-15069285D01*
X184475476Y-15131190D01*
X184351666Y-15193095D01*
X184042142Y-15193095D01*
X183918333Y-15131190D01*
X183856428Y-15069285D01*
X184970714Y-13893095D02*
X185404047Y-15193095D01*
X185837380Y-13893095D01*
X226447380Y-16433095D02*
X225828333Y-16433095D01*
X225766428Y-17052142D01*
X225828333Y-16990238D01*
X225952142Y-16928333D01*
X226261666Y-16928333D01*
X226385476Y-16990238D01*
X226447380Y-17052142D01*
X226509285Y-17175952D01*
X226509285Y-17485476D01*
X226447380Y-17609285D01*
X226385476Y-17671190D01*
X226261666Y-17733095D01*
X225952142Y-17733095D01*
X225828333Y-17671190D01*
X225766428Y-17609285D01*
X226880714Y-16433095D02*
X227314047Y-17733095D01*
X227747380Y-16433095D01*
X225890238Y-22813095D02*
X225147380Y-22813095D01*
X225518809Y-22813095D02*
X225518809Y-21513095D01*
X225395000Y-21698809D01*
X225271190Y-21822619D01*
X225147380Y-21884523D01*
X226385476Y-21636904D02*
X226447380Y-21575000D01*
X226571190Y-21513095D01*
X226880714Y-21513095D01*
X227004523Y-21575000D01*
X227066428Y-21636904D01*
X227128333Y-21760714D01*
X227128333Y-21884523D01*
X227066428Y-22070238D01*
X226323571Y-22813095D01*
X227128333Y-22813095D01*
X227499761Y-21513095D02*
X227933095Y-22813095D01*
X228366428Y-21513095D01*
X183980238Y-25353095D02*
X183237380Y-25353095D01*
X183608809Y-25353095D02*
X183608809Y-24053095D01*
X183485000Y-24238809D01*
X183361190Y-24362619D01*
X183237380Y-24424523D01*
X184475476Y-24176904D02*
X184537380Y-24115000D01*
X184661190Y-24053095D01*
X184970714Y-24053095D01*
X185094523Y-24115000D01*
X185156428Y-24176904D01*
X185218333Y-24300714D01*
X185218333Y-24424523D01*
X185156428Y-24610238D01*
X184413571Y-25353095D01*
X185218333Y-25353095D01*
X185589761Y-24053095D02*
X186023095Y-25353095D01*
X186456428Y-24053095D01*
X218688571Y-13691428D02*
X219617142Y-13691428D01*
X219060000Y-13134285D02*
X218688571Y-14805714D01*
X219493333Y-14248571D02*
X218564761Y-14248571D01*
X219121904Y-14805714D02*
X219493333Y-13134285D01*
X219988571Y-13381904D02*
X220050476Y-13320000D01*
X220174285Y-13258095D01*
X220483809Y-13258095D01*
X220607619Y-13320000D01*
X220669523Y-13381904D01*
X220731428Y-13505714D01*
X220731428Y-13629523D01*
X220669523Y-13815238D01*
X219926666Y-14558095D01*
X220731428Y-14558095D01*
X187573571Y-13691428D02*
X188502142Y-13691428D01*
X187945000Y-13134285D02*
X187573571Y-14805714D01*
X188378333Y-14248571D02*
X187449761Y-14248571D01*
X188006904Y-14805714D02*
X188378333Y-13134285D01*
X189616428Y-14558095D02*
X188873571Y-14558095D01*
X189245000Y-14558095D02*
X189245000Y-13258095D01*
X189121190Y-13443809D01*
X188997380Y-13567619D01*
X188873571Y-13629523D01*
D10*
X195787619Y-13422380D02*
X195787619Y-14231904D01*
X195835238Y-14327142D01*
X195882857Y-14374761D01*
X195978095Y-14422380D01*
X196168571Y-14422380D01*
X196263809Y-14374761D01*
X196311428Y-14327142D01*
X196359047Y-14231904D01*
X196359047Y-13422380D01*
X196835238Y-13755714D02*
X196835238Y-14422380D01*
X196835238Y-13850952D02*
X196882857Y-13803333D01*
X196978095Y-13755714D01*
X197120952Y-13755714D01*
X197216190Y-13803333D01*
X197263809Y-13898571D01*
X197263809Y-14422380D01*
X197740000Y-14422380D02*
X197740000Y-13755714D01*
X197740000Y-13422380D02*
X197692380Y-13470000D01*
X197740000Y-13517619D01*
X197787619Y-13470000D01*
X197740000Y-13422380D01*
X197740000Y-13517619D01*
X198216190Y-13755714D02*
X198216190Y-14755714D01*
X198216190Y-13803333D02*
X198311428Y-13755714D01*
X198501904Y-13755714D01*
X198597142Y-13803333D01*
X198644761Y-13850952D01*
X198692380Y-13946190D01*
X198692380Y-14231904D01*
X198644761Y-14327142D01*
X198597142Y-14374761D01*
X198501904Y-14422380D01*
X198311428Y-14422380D01*
X198216190Y-14374761D01*
X199263809Y-14422380D02*
X199168571Y-14374761D01*
X199120952Y-14327142D01*
X199073333Y-14231904D01*
X199073333Y-13946190D01*
X199120952Y-13850952D01*
X199168571Y-13803333D01*
X199263809Y-13755714D01*
X199406666Y-13755714D01*
X199501904Y-13803333D01*
X199549523Y-13850952D01*
X199597142Y-13946190D01*
X199597142Y-14231904D01*
X199549523Y-14327142D01*
X199501904Y-14374761D01*
X199406666Y-14422380D01*
X199263809Y-14422380D01*
X200168571Y-14422380D02*
X200073333Y-14374761D01*
X200025714Y-14279523D01*
X200025714Y-13422380D01*
X200978095Y-14422380D02*
X200978095Y-13898571D01*
X200930476Y-13803333D01*
X200835238Y-13755714D01*
X200644761Y-13755714D01*
X200549523Y-13803333D01*
X200978095Y-14374761D02*
X200882857Y-14422380D01*
X200644761Y-14422380D01*
X200549523Y-14374761D01*
X200501904Y-14279523D01*
X200501904Y-14184285D01*
X200549523Y-14089047D01*
X200644761Y-14041428D01*
X200882857Y-14041428D01*
X200978095Y-13993809D01*
X201454285Y-14422380D02*
X201454285Y-13755714D01*
X201454285Y-13946190D02*
X201501904Y-13850952D01*
X201549523Y-13803333D01*
X201644761Y-13755714D01*
X201740000Y-13755714D01*
X202787619Y-14374761D02*
X202882857Y-14422380D01*
X203073333Y-14422380D01*
X203168571Y-14374761D01*
X203216190Y-14279523D01*
X203216190Y-14231904D01*
X203168571Y-14136666D01*
X203073333Y-14089047D01*
X202930476Y-14089047D01*
X202835238Y-14041428D01*
X202787619Y-13946190D01*
X202787619Y-13898571D01*
X202835238Y-13803333D01*
X202930476Y-13755714D01*
X203073333Y-13755714D01*
X203168571Y-13803333D01*
X203501904Y-13755714D02*
X203882857Y-13755714D01*
X203644761Y-13422380D02*
X203644761Y-14279523D01*
X203692380Y-14374761D01*
X203787619Y-14422380D01*
X203882857Y-14422380D01*
X204597142Y-14374761D02*
X204501904Y-14422380D01*
X204311428Y-14422380D01*
X204216190Y-14374761D01*
X204168571Y-14279523D01*
X204168571Y-13898571D01*
X204216190Y-13803333D01*
X204311428Y-13755714D01*
X204501904Y-13755714D01*
X204597142Y-13803333D01*
X204644761Y-13898571D01*
X204644761Y-13993809D01*
X204168571Y-14089047D01*
X205073333Y-13755714D02*
X205073333Y-14755714D01*
X205073333Y-13803333D02*
X205168571Y-13755714D01*
X205359047Y-13755714D01*
X205454285Y-13803333D01*
X205501904Y-13850952D01*
X205549523Y-13946190D01*
X205549523Y-14231904D01*
X205501904Y-14327142D01*
X205454285Y-14374761D01*
X205359047Y-14422380D01*
X205168571Y-14422380D01*
X205073333Y-14374761D01*
X205978095Y-13755714D02*
X205978095Y-14755714D01*
X205978095Y-13803333D02*
X206073333Y-13755714D01*
X206263809Y-13755714D01*
X206359047Y-13803333D01*
X206406666Y-13850952D01*
X206454285Y-13946190D01*
X206454285Y-14231904D01*
X206406666Y-14327142D01*
X206359047Y-14374761D01*
X206263809Y-14422380D01*
X206073333Y-14422380D01*
X205978095Y-14374761D01*
X207263809Y-14374761D02*
X207168571Y-14422380D01*
X206978095Y-14422380D01*
X206882857Y-14374761D01*
X206835238Y-14279523D01*
X206835238Y-13898571D01*
X206882857Y-13803333D01*
X206978095Y-13755714D01*
X207168571Y-13755714D01*
X207263809Y-13803333D01*
X207311428Y-13898571D01*
X207311428Y-13993809D01*
X206835238Y-14089047D01*
X207740000Y-14422380D02*
X207740000Y-13755714D01*
X207740000Y-13946190D02*
X207787619Y-13850952D01*
X207835238Y-13803333D01*
X207930476Y-13755714D01*
X208025714Y-13755714D01*
X208311428Y-14374761D02*
X208406666Y-14422380D01*
X208597142Y-14422380D01*
X208692380Y-14374761D01*
X208740000Y-14279523D01*
X208740000Y-14231904D01*
X208692380Y-14136666D01*
X208597142Y-14089047D01*
X208454285Y-14089047D01*
X208359047Y-14041428D01*
X208311428Y-13946190D01*
X208311428Y-13898571D01*
X208359047Y-13803333D01*
X208454285Y-13755714D01*
X208597142Y-13755714D01*
X208692380Y-13803333D01*
X209930476Y-14422380D02*
X209930476Y-13755714D01*
X209930476Y-13850952D02*
X209978095Y-13803333D01*
X210073333Y-13755714D01*
X210216190Y-13755714D01*
X210311428Y-13803333D01*
X210359047Y-13898571D01*
X210359047Y-14422380D01*
X210359047Y-13898571D02*
X210406666Y-13803333D01*
X210501904Y-13755714D01*
X210644761Y-13755714D01*
X210740000Y-13803333D01*
X210787619Y-13898571D01*
X210787619Y-14422380D01*
X211406666Y-14422380D02*
X211311428Y-14374761D01*
X211263809Y-14327142D01*
X211216190Y-14231904D01*
X211216190Y-13946190D01*
X211263809Y-13850952D01*
X211311428Y-13803333D01*
X211406666Y-13755714D01*
X211549523Y-13755714D01*
X211644761Y-13803333D01*
X211692380Y-13850952D01*
X211740000Y-13946190D01*
X211740000Y-14231904D01*
X211692380Y-14327142D01*
X211644761Y-14374761D01*
X211549523Y-14422380D01*
X211406666Y-14422380D01*
X212597142Y-14422380D02*
X212597142Y-13422380D01*
X212597142Y-14374761D02*
X212501904Y-14422380D01*
X212311428Y-14422380D01*
X212216190Y-14374761D01*
X212168571Y-14327142D01*
X212120952Y-14231904D01*
X212120952Y-13946190D01*
X212168571Y-13850952D01*
X212216190Y-13803333D01*
X212311428Y-13755714D01*
X212501904Y-13755714D01*
X212597142Y-13803333D01*
X213501904Y-13755714D02*
X213501904Y-14422380D01*
X213073333Y-13755714D02*
X213073333Y-14279523D01*
X213120952Y-14374761D01*
X213216190Y-14422380D01*
X213359047Y-14422380D01*
X213454285Y-14374761D01*
X213501904Y-14327142D01*
X214120952Y-14422380D02*
X214025714Y-14374761D01*
X213978095Y-14279523D01*
X213978095Y-13422380D01*
X214882857Y-14374761D02*
X214787619Y-14422380D01*
X214597142Y-14422380D01*
X214501904Y-14374761D01*
X214454285Y-14279523D01*
X214454285Y-13898571D01*
X214501904Y-13803333D01*
X214597142Y-13755714D01*
X214787619Y-13755714D01*
X214882857Y-13803333D01*
X214930476Y-13898571D01*
X214930476Y-13993809D01*
X214454285Y-14089047D01*
X215311428Y-14374761D02*
X215406666Y-14422380D01*
X215597142Y-14422380D01*
X215692380Y-14374761D01*
X215740000Y-14279523D01*
X215740000Y-14231904D01*
X215692380Y-14136666D01*
X215597142Y-14089047D01*
X215454285Y-14089047D01*
X215359047Y-14041428D01*
X215311428Y-13946190D01*
X215311428Y-13898571D01*
X215359047Y-13803333D01*
X215454285Y-13755714D01*
X215597142Y-13755714D01*
X215692380Y-13803333D01*
X196256190Y-64968333D02*
X196208571Y-64920714D01*
X196113333Y-64777857D01*
X196065714Y-64682619D01*
X196018095Y-64539761D01*
X195970476Y-64301666D01*
X195970476Y-64111190D01*
X196018095Y-63873095D01*
X196065714Y-63730238D01*
X196113333Y-63635000D01*
X196208571Y-63492142D01*
X196256190Y-63444523D01*
X196780000Y-63587380D02*
X196780000Y-63825476D01*
X196541904Y-63730238D02*
X196780000Y-63825476D01*
X197018095Y-63730238D01*
X196637142Y-64015952D02*
X196780000Y-63825476D01*
X196922857Y-64015952D01*
X197303809Y-64968333D02*
X197351428Y-64920714D01*
X197446666Y-64777857D01*
X197494285Y-64682619D01*
X197541904Y-64539761D01*
X197589523Y-64301666D01*
X197589523Y-64111190D01*
X197541904Y-63873095D01*
X197494285Y-63730238D01*
X197446666Y-63635000D01*
X197351428Y-63492142D01*
X197303809Y-63444523D01*
X198827619Y-64587380D02*
X198827619Y-63587380D01*
X199065714Y-63587380D01*
X199208571Y-63635000D01*
X199303809Y-63730238D01*
X199351428Y-63825476D01*
X199399047Y-64015952D01*
X199399047Y-64158809D01*
X199351428Y-64349285D01*
X199303809Y-64444523D01*
X199208571Y-64539761D01*
X199065714Y-64587380D01*
X198827619Y-64587380D01*
X199970476Y-64587380D02*
X199875238Y-64539761D01*
X199827619Y-64492142D01*
X199780000Y-64396904D01*
X199780000Y-64111190D01*
X199827619Y-64015952D01*
X199875238Y-63968333D01*
X199970476Y-63920714D01*
X200113333Y-63920714D01*
X200208571Y-63968333D01*
X200256190Y-64015952D01*
X200303809Y-64111190D01*
X200303809Y-64396904D01*
X200256190Y-64492142D01*
X200208571Y-64539761D01*
X200113333Y-64587380D01*
X199970476Y-64587380D01*
X201160952Y-63920714D02*
X201160952Y-64587380D01*
X200732380Y-63920714D02*
X200732380Y-64444523D01*
X200780000Y-64539761D01*
X200875238Y-64587380D01*
X201018095Y-64587380D01*
X201113333Y-64539761D01*
X201160952Y-64492142D01*
X201637142Y-64587380D02*
X201637142Y-63587380D01*
X201637142Y-63968333D02*
X201732380Y-63920714D01*
X201922857Y-63920714D01*
X202018095Y-63968333D01*
X202065714Y-64015952D01*
X202113333Y-64111190D01*
X202113333Y-64396904D01*
X202065714Y-64492142D01*
X202018095Y-64539761D01*
X201922857Y-64587380D01*
X201732380Y-64587380D01*
X201637142Y-64539761D01*
X202684761Y-64587380D02*
X202589523Y-64539761D01*
X202541904Y-64444523D01*
X202541904Y-63587380D01*
X203446666Y-64539761D02*
X203351428Y-64587380D01*
X203160952Y-64587380D01*
X203065714Y-64539761D01*
X203018095Y-64444523D01*
X203018095Y-64063571D01*
X203065714Y-63968333D01*
X203160952Y-63920714D01*
X203351428Y-63920714D01*
X203446666Y-63968333D01*
X203494285Y-64063571D01*
X203494285Y-64158809D01*
X203018095Y-64254047D01*
X204684761Y-63920714D02*
X204684761Y-64920714D01*
X204684761Y-63968333D02*
X204780000Y-63920714D01*
X204970476Y-63920714D01*
X205065714Y-63968333D01*
X205113333Y-64015952D01*
X205160952Y-64111190D01*
X205160952Y-64396904D01*
X205113333Y-64492142D01*
X205065714Y-64539761D01*
X204970476Y-64587380D01*
X204780000Y-64587380D01*
X204684761Y-64539761D01*
X205732380Y-64587380D02*
X205637142Y-64539761D01*
X205589523Y-64492142D01*
X205541904Y-64396904D01*
X205541904Y-64111190D01*
X205589523Y-64015952D01*
X205637142Y-63968333D01*
X205732380Y-63920714D01*
X205875238Y-63920714D01*
X205970476Y-63968333D01*
X206018095Y-64015952D01*
X206065714Y-64111190D01*
X206065714Y-64396904D01*
X206018095Y-64492142D01*
X205970476Y-64539761D01*
X205875238Y-64587380D01*
X205732380Y-64587380D01*
X206399047Y-63920714D02*
X206589523Y-64587380D01*
X206780000Y-64111190D01*
X206970476Y-64587380D01*
X207160952Y-63920714D01*
X207922857Y-64539761D02*
X207827619Y-64587380D01*
X207637142Y-64587380D01*
X207541904Y-64539761D01*
X207494285Y-64444523D01*
X207494285Y-64063571D01*
X207541904Y-63968333D01*
X207637142Y-63920714D01*
X207827619Y-63920714D01*
X207922857Y-63968333D01*
X207970476Y-64063571D01*
X207970476Y-64158809D01*
X207494285Y-64254047D01*
X208399047Y-64587380D02*
X208399047Y-63920714D01*
X208399047Y-64111190D02*
X208446666Y-64015952D01*
X208494285Y-63968333D01*
X208589523Y-63920714D01*
X208684761Y-63920714D01*
X210065714Y-64968333D02*
X210018095Y-64920714D01*
X209922857Y-64777857D01*
X209875238Y-64682619D01*
X209827619Y-64539761D01*
X209780000Y-64301666D01*
X209780000Y-64111190D01*
X209827619Y-63873095D01*
X209875238Y-63730238D01*
X209922857Y-63635000D01*
X210018095Y-63492142D01*
X210065714Y-63444523D01*
X210970476Y-64587380D02*
X210399047Y-64587380D01*
X210684761Y-64587380D02*
X210684761Y-63587380D01*
X210589523Y-63730238D01*
X210494285Y-63825476D01*
X210399047Y-63873095D01*
X211351428Y-64301666D02*
X211827619Y-64301666D01*
X211256190Y-64587380D02*
X211589523Y-63587380D01*
X211922857Y-64587380D01*
X212922857Y-63920714D02*
X213160952Y-64587380D01*
X213399047Y-63920714D01*
X213732380Y-64539761D02*
X213827619Y-64587380D01*
X214018095Y-64587380D01*
X214113333Y-64539761D01*
X214160952Y-64444523D01*
X214160952Y-64396904D01*
X214113333Y-64301666D01*
X214018095Y-64254047D01*
X213875238Y-64254047D01*
X213780000Y-64206428D01*
X213732380Y-64111190D01*
X213732380Y-64063571D01*
X213780000Y-63968333D01*
X213875238Y-63920714D01*
X214018095Y-63920714D01*
X214113333Y-63968333D01*
X215827619Y-63587380D02*
X215351428Y-63587380D01*
X215303809Y-64063571D01*
X215351428Y-64015952D01*
X215446666Y-63968333D01*
X215684761Y-63968333D01*
X215780000Y-64015952D01*
X215827619Y-64063571D01*
X215875238Y-64158809D01*
X215875238Y-64396904D01*
X215827619Y-64492142D01*
X215780000Y-64539761D01*
X215684761Y-64587380D01*
X215446666Y-64587380D01*
X215351428Y-64539761D01*
X215303809Y-64492142D01*
X216494285Y-63587380D02*
X216589523Y-63587380D01*
X216684761Y-63635000D01*
X216732380Y-63682619D01*
X216780000Y-63777857D01*
X216827619Y-63968333D01*
X216827619Y-64206428D01*
X216780000Y-64396904D01*
X216732380Y-64492142D01*
X216684761Y-64539761D01*
X216589523Y-64587380D01*
X216494285Y-64587380D01*
X216399047Y-64539761D01*
X216351428Y-64492142D01*
X216303809Y-64396904D01*
X216256190Y-64206428D01*
X216256190Y-63968333D01*
X216303809Y-63777857D01*
X216351428Y-63682619D01*
X216399047Y-63635000D01*
X216494285Y-63587380D01*
X217446666Y-63587380D02*
X217541904Y-63587380D01*
X217637142Y-63635000D01*
X217684761Y-63682619D01*
X217732380Y-63777857D01*
X217780000Y-63968333D01*
X217780000Y-64206428D01*
X217732380Y-64396904D01*
X217684761Y-64492142D01*
X217637142Y-64539761D01*
X217541904Y-64587380D01*
X217446666Y-64587380D01*
X217351428Y-64539761D01*
X217303809Y-64492142D01*
X217256190Y-64396904D01*
X217208571Y-64206428D01*
X217208571Y-63968333D01*
X217256190Y-63777857D01*
X217303809Y-63682619D01*
X217351428Y-63635000D01*
X217446666Y-63587380D01*
X218208571Y-64587380D02*
X218208571Y-63920714D01*
X218208571Y-64015952D02*
X218256190Y-63968333D01*
X218351428Y-63920714D01*
X218494285Y-63920714D01*
X218589523Y-63968333D01*
X218637142Y-64063571D01*
X218637142Y-64587380D01*
X218637142Y-64063571D02*
X218684761Y-63968333D01*
X218780000Y-63920714D01*
X218922857Y-63920714D01*
X219018095Y-63968333D01*
X219065714Y-64063571D01*
X219065714Y-64587380D01*
X219494285Y-64301666D02*
X219970476Y-64301666D01*
X219399047Y-64587380D02*
X219732380Y-63587380D01*
X220065714Y-64587380D01*
X220303809Y-64968333D02*
X220351428Y-64920714D01*
X220446666Y-64777857D01*
X220494285Y-64682619D01*
X220541904Y-64539761D01*
X220589523Y-64301666D01*
X220589523Y-64111190D01*
X220541904Y-63873095D01*
X220494285Y-63730238D01*
X220446666Y-63635000D01*
X220351428Y-63492142D01*
X220303809Y-63444523D01*
D13*
X222467619Y-43536428D02*
X223396190Y-43536428D01*
X222839047Y-42979285D02*
X222467619Y-44650714D01*
X223272380Y-44093571D02*
X222343809Y-44093571D01*
X222900952Y-44650714D02*
X223272380Y-42979285D01*
X223829523Y-44403095D02*
X223829523Y-43103095D01*
X224139047Y-43103095D01*
X224324761Y-43165000D01*
X224448571Y-43288809D01*
X224510476Y-43412619D01*
X224572380Y-43660238D01*
X224572380Y-43845952D01*
X224510476Y-44093571D01*
X224448571Y-44217380D01*
X224324761Y-44341190D01*
X224139047Y-44403095D01*
X223829523Y-44403095D01*
X214847619Y-43536428D02*
X215776190Y-43536428D01*
X215219047Y-42979285D02*
X214847619Y-44650714D01*
X215652380Y-44093571D02*
X214723809Y-44093571D01*
X215280952Y-44650714D02*
X215652380Y-42979285D01*
X216952380Y-44279285D02*
X216890476Y-44341190D01*
X216704761Y-44403095D01*
X216580952Y-44403095D01*
X216395238Y-44341190D01*
X216271428Y-44217380D01*
X216209523Y-44093571D01*
X216147619Y-43845952D01*
X216147619Y-43660238D01*
X216209523Y-43412619D01*
X216271428Y-43288809D01*
X216395238Y-43165000D01*
X216580952Y-43103095D01*
X216704761Y-43103095D01*
X216890476Y-43165000D01*
X216952380Y-43226904D01*
X206732380Y-43536428D02*
X207660952Y-43536428D01*
X207103809Y-42979285D02*
X206732380Y-44650714D01*
X207537142Y-44093571D02*
X206608571Y-44093571D01*
X207165714Y-44650714D02*
X207537142Y-42979285D01*
X208527619Y-43722142D02*
X208713333Y-43784047D01*
X208775238Y-43845952D01*
X208837142Y-43969761D01*
X208837142Y-44155476D01*
X208775238Y-44279285D01*
X208713333Y-44341190D01*
X208589523Y-44403095D01*
X208094285Y-44403095D01*
X208094285Y-43103095D01*
X208527619Y-43103095D01*
X208651428Y-43165000D01*
X208713333Y-43226904D01*
X208775238Y-43350714D01*
X208775238Y-43474523D01*
X208713333Y-43598333D01*
X208651428Y-43660238D01*
X208527619Y-43722142D01*
X208094285Y-43722142D01*
X209580000Y-43103095D02*
X209580000Y-43412619D01*
X209270476Y-43288809D02*
X209580000Y-43412619D01*
X209889523Y-43288809D01*
X209394285Y-43660238D02*
X209580000Y-43412619D01*
X209765714Y-43660238D01*
X199205238Y-43536428D02*
X200133809Y-43536428D01*
X199576666Y-42979285D02*
X199205238Y-44650714D01*
X200010000Y-44093571D02*
X199081428Y-44093571D01*
X199638571Y-44650714D02*
X200010000Y-42979285D01*
X200505238Y-44031666D02*
X201124285Y-44031666D01*
X200381428Y-44403095D02*
X200814761Y-43103095D01*
X201248095Y-44403095D01*
X201867142Y-43103095D02*
X201867142Y-43412619D01*
X201557619Y-43288809D02*
X201867142Y-43412619D01*
X202176666Y-43288809D01*
X201681428Y-43660238D02*
X201867142Y-43412619D01*
X202052857Y-43660238D01*
D12*
X195580000Y-40640000D02*
X229235000Y-40640000D01*
X195580000Y-65405000D02*
X195580000Y-40640000D01*
X229235000Y-65405000D02*
X195580000Y-65405000D01*
D10*
X206756666Y-42362380D02*
X206756666Y-41362380D01*
X207137619Y-41362380D01*
X207232857Y-41410000D01*
X207280476Y-41457619D01*
X207328095Y-41552857D01*
X207328095Y-41695714D01*
X207280476Y-41790952D01*
X207232857Y-41838571D01*
X207137619Y-41886190D01*
X206756666Y-41886190D01*
X208185238Y-41695714D02*
X208185238Y-42362380D01*
X207756666Y-41695714D02*
X207756666Y-42219523D01*
X207804285Y-42314761D01*
X207899523Y-42362380D01*
X208042380Y-42362380D01*
X208137619Y-42314761D01*
X208185238Y-42267142D01*
X208661428Y-42362380D02*
X208661428Y-41695714D01*
X208661428Y-41790952D02*
X208709047Y-41743333D01*
X208804285Y-41695714D01*
X208947142Y-41695714D01*
X209042380Y-41743333D01*
X209090000Y-41838571D01*
X209090000Y-42362380D01*
X209090000Y-41838571D02*
X209137619Y-41743333D01*
X209232857Y-41695714D01*
X209375714Y-41695714D01*
X209470952Y-41743333D01*
X209518571Y-41838571D01*
X209518571Y-42362380D01*
X209994761Y-41695714D02*
X209994761Y-42695714D01*
X209994761Y-41743333D02*
X210090000Y-41695714D01*
X210280476Y-41695714D01*
X210375714Y-41743333D01*
X210423333Y-41790952D01*
X210470952Y-41886190D01*
X210470952Y-42171904D01*
X210423333Y-42267142D01*
X210375714Y-42314761D01*
X210280476Y-42362380D01*
X210090000Y-42362380D01*
X209994761Y-42314761D01*
X211661428Y-42362380D02*
X211661428Y-41695714D01*
X211661428Y-41790952D02*
X211709047Y-41743333D01*
X211804285Y-41695714D01*
X211947142Y-41695714D01*
X212042380Y-41743333D01*
X212090000Y-41838571D01*
X212090000Y-42362380D01*
X212090000Y-41838571D02*
X212137619Y-41743333D01*
X212232857Y-41695714D01*
X212375714Y-41695714D01*
X212470952Y-41743333D01*
X212518571Y-41838571D01*
X212518571Y-42362380D01*
X213137619Y-42362380D02*
X213042380Y-42314761D01*
X212994761Y-42267142D01*
X212947142Y-42171904D01*
X212947142Y-41886190D01*
X212994761Y-41790952D01*
X213042380Y-41743333D01*
X213137619Y-41695714D01*
X213280476Y-41695714D01*
X213375714Y-41743333D01*
X213423333Y-41790952D01*
X213470952Y-41886190D01*
X213470952Y-42171904D01*
X213423333Y-42267142D01*
X213375714Y-42314761D01*
X213280476Y-42362380D01*
X213137619Y-42362380D01*
X214328095Y-42362380D02*
X214328095Y-41362380D01*
X214328095Y-42314761D02*
X214232857Y-42362380D01*
X214042380Y-42362380D01*
X213947142Y-42314761D01*
X213899523Y-42267142D01*
X213851904Y-42171904D01*
X213851904Y-41886190D01*
X213899523Y-41790952D01*
X213947142Y-41743333D01*
X214042380Y-41695714D01*
X214232857Y-41695714D01*
X214328095Y-41743333D01*
X215232857Y-41695714D02*
X215232857Y-42362380D01*
X214804285Y-41695714D02*
X214804285Y-42219523D01*
X214851904Y-42314761D01*
X214947142Y-42362380D01*
X215090000Y-42362380D01*
X215185238Y-42314761D01*
X215232857Y-42267142D01*
X215851904Y-42362380D02*
X215756666Y-42314761D01*
X215709047Y-42219523D01*
X215709047Y-41362380D01*
X216613809Y-42314761D02*
X216518571Y-42362380D01*
X216328095Y-42362380D01*
X216232857Y-42314761D01*
X216185238Y-42219523D01*
X216185238Y-41838571D01*
X216232857Y-41743333D01*
X216328095Y-41695714D01*
X216518571Y-41695714D01*
X216613809Y-41743333D01*
X216661428Y-41838571D01*
X216661428Y-41933809D01*
X216185238Y-42029047D01*
X217042380Y-42314761D02*
X217137619Y-42362380D01*
X217328095Y-42362380D01*
X217423333Y-42314761D01*
X217470952Y-42219523D01*
X217470952Y-42171904D01*
X217423333Y-42076666D01*
X217328095Y-42029047D01*
X217185238Y-42029047D01*
X217090000Y-41981428D01*
X217042380Y-41886190D01*
X217042380Y-41838571D01*
X217090000Y-41743333D01*
X217185238Y-41695714D01*
X217328095Y-41695714D01*
X217423333Y-41743333D01*
D12*
X229235000Y-65405000D02*
X229235000Y-15875000D01*
X229870000Y-65405000D02*
X229235000Y-65405000D01*
X231775000Y-65405000D02*
X229870000Y-65405000D01*
X258445000Y-65405000D02*
X231775000Y-65405000D01*
X276860000Y-15875000D02*
X276860000Y-48895000D01*
X229235000Y-15875000D02*
X276860000Y-15875000D01*
D13*
X264470476Y-44806428D02*
X265399047Y-44806428D01*
X264841904Y-44249285D02*
X264470476Y-45920714D01*
X265275238Y-45363571D02*
X264346666Y-45363571D01*
X264903809Y-45920714D02*
X265275238Y-44249285D01*
X266265714Y-44992142D02*
X265832380Y-44992142D01*
X265832380Y-45673095D02*
X265832380Y-44373095D01*
X266451428Y-44373095D01*
X264439523Y-37186428D02*
X265368095Y-37186428D01*
X264810952Y-36629285D02*
X264439523Y-38300714D01*
X265244285Y-37743571D02*
X264315714Y-37743571D01*
X264872857Y-38300714D02*
X265244285Y-36629285D01*
X265801428Y-37372142D02*
X266234761Y-37372142D01*
X266420476Y-38053095D02*
X265801428Y-38053095D01*
X265801428Y-36753095D01*
X266420476Y-36753095D01*
X264377619Y-29566428D02*
X265306190Y-29566428D01*
X264749047Y-29009285D02*
X264377619Y-30680714D01*
X265182380Y-30123571D02*
X264253809Y-30123571D01*
X264810952Y-30680714D02*
X265182380Y-29009285D01*
X265739523Y-30433095D02*
X265739523Y-29133095D01*
X266049047Y-29133095D01*
X266234761Y-29195000D01*
X266358571Y-29318809D01*
X266420476Y-29442619D01*
X266482380Y-29690238D01*
X266482380Y-29875952D01*
X266420476Y-30123571D01*
X266358571Y-30247380D01*
X266234761Y-30371190D01*
X266049047Y-30433095D01*
X265739523Y-30433095D01*
X264377619Y-21946428D02*
X265306190Y-21946428D01*
X264749047Y-21389285D02*
X264377619Y-23060714D01*
X265182380Y-22503571D02*
X264253809Y-22503571D01*
X264810952Y-23060714D02*
X265182380Y-21389285D01*
X266482380Y-22689285D02*
X266420476Y-22751190D01*
X266234761Y-22813095D01*
X266110952Y-22813095D01*
X265925238Y-22751190D01*
X265801428Y-22627380D01*
X265739523Y-22503571D01*
X265677619Y-22255952D01*
X265677619Y-22070238D01*
X265739523Y-21822619D01*
X265801428Y-21698809D01*
X265925238Y-21575000D01*
X266110952Y-21513095D01*
X266234761Y-21513095D01*
X266420476Y-21575000D01*
X266482380Y-21636904D01*
X252947619Y-44806428D02*
X253876190Y-44806428D01*
X253319047Y-44249285D02*
X252947619Y-45920714D01*
X253752380Y-45363571D02*
X252823809Y-45363571D01*
X253380952Y-45920714D02*
X253752380Y-44249285D01*
X254742857Y-44992142D02*
X254928571Y-45054047D01*
X254990476Y-45115952D01*
X255052380Y-45239761D01*
X255052380Y-45425476D01*
X254990476Y-45549285D01*
X254928571Y-45611190D01*
X254804761Y-45673095D01*
X254309523Y-45673095D01*
X254309523Y-44373095D01*
X254742857Y-44373095D01*
X254866666Y-44435000D01*
X254928571Y-44496904D01*
X254990476Y-44620714D01*
X254990476Y-44744523D01*
X254928571Y-44868333D01*
X254866666Y-44930238D01*
X254742857Y-44992142D01*
X254309523Y-44992142D01*
X253040476Y-37186428D02*
X253969047Y-37186428D01*
X253411904Y-36629285D02*
X253040476Y-38300714D01*
X253845238Y-37743571D02*
X252916666Y-37743571D01*
X253473809Y-38300714D02*
X253845238Y-36629285D01*
X254340476Y-37681666D02*
X254959523Y-37681666D01*
X254216666Y-38053095D02*
X254650000Y-36753095D01*
X255083333Y-38053095D01*
X252978571Y-29566428D02*
X253907142Y-29566428D01*
X253350000Y-29009285D02*
X252978571Y-30680714D01*
X253783333Y-30123571D02*
X252854761Y-30123571D01*
X253411904Y-30680714D02*
X253783333Y-29009285D01*
X254402380Y-30433095D02*
X254650000Y-30433095D01*
X254773809Y-30371190D01*
X254835714Y-30309285D01*
X254959523Y-30123571D01*
X255021428Y-29875952D01*
X255021428Y-29380714D01*
X254959523Y-29256904D01*
X254897619Y-29195000D01*
X254773809Y-29133095D01*
X254526190Y-29133095D01*
X254402380Y-29195000D01*
X254340476Y-29256904D01*
X254278571Y-29380714D01*
X254278571Y-29690238D01*
X254340476Y-29814047D01*
X254402380Y-29875952D01*
X254526190Y-29937857D01*
X254773809Y-29937857D01*
X254897619Y-29875952D01*
X254959523Y-29814047D01*
X255021428Y-29690238D01*
X252978571Y-21946428D02*
X253907142Y-21946428D01*
X253350000Y-21389285D02*
X252978571Y-23060714D01*
X253783333Y-22503571D02*
X252854761Y-22503571D01*
X253411904Y-23060714D02*
X253783333Y-21389285D01*
X254526190Y-22070238D02*
X254402380Y-22008333D01*
X254340476Y-21946428D01*
X254278571Y-21822619D01*
X254278571Y-21760714D01*
X254340476Y-21636904D01*
X254402380Y-21575000D01*
X254526190Y-21513095D01*
X254773809Y-21513095D01*
X254897619Y-21575000D01*
X254959523Y-21636904D01*
X255021428Y-21760714D01*
X255021428Y-21822619D01*
X254959523Y-21946428D01*
X254897619Y-22008333D01*
X254773809Y-22070238D01*
X254526190Y-22070238D01*
X254402380Y-22132142D01*
X254340476Y-22194047D01*
X254278571Y-22317857D01*
X254278571Y-22565476D01*
X254340476Y-22689285D01*
X254402380Y-22751190D01*
X254526190Y-22813095D01*
X254773809Y-22813095D01*
X254897619Y-22751190D01*
X254959523Y-22689285D01*
X255021428Y-22565476D01*
X255021428Y-22317857D01*
X254959523Y-22194047D01*
X254897619Y-22132142D01*
X254773809Y-22070238D01*
X241548571Y-44806428D02*
X242477142Y-44806428D01*
X241920000Y-44249285D02*
X241548571Y-45920714D01*
X242353333Y-45363571D02*
X241424761Y-45363571D01*
X241981904Y-45920714D02*
X242353333Y-44249285D01*
X242786666Y-44373095D02*
X243653333Y-44373095D01*
X243096190Y-45673095D01*
X241548571Y-37186428D02*
X242477142Y-37186428D01*
X241920000Y-36629285D02*
X241548571Y-38300714D01*
X242353333Y-37743571D02*
X241424761Y-37743571D01*
X241981904Y-38300714D02*
X242353333Y-36629285D01*
X243467619Y-36753095D02*
X243220000Y-36753095D01*
X243096190Y-36815000D01*
X243034285Y-36876904D01*
X242910476Y-37062619D01*
X242848571Y-37310238D01*
X242848571Y-37805476D01*
X242910476Y-37929285D01*
X242972380Y-37991190D01*
X243096190Y-38053095D01*
X243343809Y-38053095D01*
X243467619Y-37991190D01*
X243529523Y-37929285D01*
X243591428Y-37805476D01*
X243591428Y-37495952D01*
X243529523Y-37372142D01*
X243467619Y-37310238D01*
X243343809Y-37248333D01*
X243096190Y-37248333D01*
X242972380Y-37310238D01*
X242910476Y-37372142D01*
X242848571Y-37495952D01*
X241548571Y-29566428D02*
X242477142Y-29566428D01*
X241920000Y-29009285D02*
X241548571Y-30680714D01*
X242353333Y-30123571D02*
X241424761Y-30123571D01*
X241981904Y-30680714D02*
X242353333Y-29009285D01*
X243529523Y-29133095D02*
X242910476Y-29133095D01*
X242848571Y-29752142D01*
X242910476Y-29690238D01*
X243034285Y-29628333D01*
X243343809Y-29628333D01*
X243467619Y-29690238D01*
X243529523Y-29752142D01*
X243591428Y-29875952D01*
X243591428Y-30185476D01*
X243529523Y-30309285D01*
X243467619Y-30371190D01*
X243343809Y-30433095D01*
X243034285Y-30433095D01*
X242910476Y-30371190D01*
X242848571Y-30309285D01*
X241548571Y-21946428D02*
X242477142Y-21946428D01*
X241920000Y-21389285D02*
X241548571Y-23060714D01*
X242353333Y-22503571D02*
X241424761Y-22503571D01*
X241981904Y-23060714D02*
X242353333Y-21389285D01*
X243467619Y-21946428D02*
X243467619Y-22813095D01*
X243158095Y-21451190D02*
X242848571Y-22379761D01*
X243653333Y-22379761D01*
X230118571Y-44806428D02*
X231047142Y-44806428D01*
X230490000Y-44249285D02*
X230118571Y-45920714D01*
X230923333Y-45363571D02*
X229994761Y-45363571D01*
X230551904Y-45920714D02*
X230923333Y-44249285D01*
X231356666Y-44373095D02*
X232161428Y-44373095D01*
X231728095Y-44868333D01*
X231913809Y-44868333D01*
X232037619Y-44930238D01*
X232099523Y-44992142D01*
X232161428Y-45115952D01*
X232161428Y-45425476D01*
X232099523Y-45549285D01*
X232037619Y-45611190D01*
X231913809Y-45673095D01*
X231542380Y-45673095D01*
X231418571Y-45611190D01*
X231356666Y-45549285D01*
X230118571Y-37186428D02*
X231047142Y-37186428D01*
X230490000Y-36629285D02*
X230118571Y-38300714D01*
X230923333Y-37743571D02*
X229994761Y-37743571D01*
X230551904Y-38300714D02*
X230923333Y-36629285D01*
X231418571Y-36876904D02*
X231480476Y-36815000D01*
X231604285Y-36753095D01*
X231913809Y-36753095D01*
X232037619Y-36815000D01*
X232099523Y-36876904D01*
X232161428Y-37000714D01*
X232161428Y-37124523D01*
X232099523Y-37310238D01*
X231356666Y-38053095D01*
X232161428Y-38053095D01*
X230118571Y-29566428D02*
X231047142Y-29566428D01*
X230490000Y-29009285D02*
X230118571Y-30680714D01*
X230923333Y-30123571D02*
X229994761Y-30123571D01*
X230551904Y-30680714D02*
X230923333Y-29009285D01*
X232161428Y-30433095D02*
X231418571Y-30433095D01*
X231790000Y-30433095D02*
X231790000Y-29133095D01*
X231666190Y-29318809D01*
X231542380Y-29442619D01*
X231418571Y-29504523D01*
X230118571Y-21946428D02*
X231047142Y-21946428D01*
X230490000Y-21389285D02*
X230118571Y-23060714D01*
X230923333Y-22503571D02*
X229994761Y-22503571D01*
X230551904Y-23060714D02*
X230923333Y-21389285D01*
X231728095Y-21513095D02*
X231851904Y-21513095D01*
X231975714Y-21575000D01*
X232037619Y-21636904D01*
X232099523Y-21760714D01*
X232161428Y-22008333D01*
X232161428Y-22317857D01*
X232099523Y-22565476D01*
X232037619Y-22689285D01*
X231975714Y-22751190D01*
X231851904Y-22813095D01*
X231728095Y-22813095D01*
X231604285Y-22751190D01*
X231542380Y-22689285D01*
X231480476Y-22565476D01*
X231418571Y-22317857D01*
X231418571Y-22008333D01*
X231480476Y-21760714D01*
X231542380Y-21636904D01*
X231604285Y-21575000D01*
X231728095Y-21513095D01*
D10*
X246730238Y-17549761D02*
X246873095Y-17597380D01*
X247111190Y-17597380D01*
X247206428Y-17549761D01*
X247254047Y-17502142D01*
X247301666Y-17406904D01*
X247301666Y-17311666D01*
X247254047Y-17216428D01*
X247206428Y-17168809D01*
X247111190Y-17121190D01*
X246920714Y-17073571D01*
X246825476Y-17025952D01*
X246777857Y-16978333D01*
X246730238Y-16883095D01*
X246730238Y-16787857D01*
X246777857Y-16692619D01*
X246825476Y-16645000D01*
X246920714Y-16597380D01*
X247158809Y-16597380D01*
X247301666Y-16645000D01*
X248111190Y-17549761D02*
X248015952Y-17597380D01*
X247825476Y-17597380D01*
X247730238Y-17549761D01*
X247682619Y-17454523D01*
X247682619Y-17073571D01*
X247730238Y-16978333D01*
X247825476Y-16930714D01*
X248015952Y-16930714D01*
X248111190Y-16978333D01*
X248158809Y-17073571D01*
X248158809Y-17168809D01*
X247682619Y-17264047D01*
X248587380Y-17597380D02*
X248587380Y-16930714D01*
X248587380Y-17121190D02*
X248635000Y-17025952D01*
X248682619Y-16978333D01*
X248777857Y-16930714D01*
X248873095Y-16930714D01*
X249111190Y-16930714D02*
X249349285Y-17597380D01*
X249587380Y-16930714D01*
X250111190Y-17597380D02*
X250015952Y-17549761D01*
X249968333Y-17502142D01*
X249920714Y-17406904D01*
X249920714Y-17121190D01*
X249968333Y-17025952D01*
X250015952Y-16978333D01*
X250111190Y-16930714D01*
X250254047Y-16930714D01*
X250349285Y-16978333D01*
X250396904Y-17025952D01*
X250444523Y-17121190D01*
X250444523Y-17406904D01*
X250396904Y-17502142D01*
X250349285Y-17549761D01*
X250254047Y-17597380D01*
X250111190Y-17597380D01*
X251635000Y-17597380D02*
X251635000Y-16930714D01*
X251635000Y-17025952D02*
X251682619Y-16978333D01*
X251777857Y-16930714D01*
X251920714Y-16930714D01*
X252015952Y-16978333D01*
X252063571Y-17073571D01*
X252063571Y-17597380D01*
X252063571Y-17073571D02*
X252111190Y-16978333D01*
X252206428Y-16930714D01*
X252349285Y-16930714D01*
X252444523Y-16978333D01*
X252492142Y-17073571D01*
X252492142Y-17597380D01*
X253111190Y-17597380D02*
X253015952Y-17549761D01*
X252968333Y-17502142D01*
X252920714Y-17406904D01*
X252920714Y-17121190D01*
X252968333Y-17025952D01*
X253015952Y-16978333D01*
X253111190Y-16930714D01*
X253254047Y-16930714D01*
X253349285Y-16978333D01*
X253396904Y-17025952D01*
X253444523Y-17121190D01*
X253444523Y-17406904D01*
X253396904Y-17502142D01*
X253349285Y-17549761D01*
X253254047Y-17597380D01*
X253111190Y-17597380D01*
X253730238Y-16930714D02*
X254111190Y-16930714D01*
X253873095Y-16597380D02*
X253873095Y-17454523D01*
X253920714Y-17549761D01*
X254015952Y-17597380D01*
X254111190Y-17597380D01*
X254587380Y-17597380D02*
X254492142Y-17549761D01*
X254444523Y-17502142D01*
X254396904Y-17406904D01*
X254396904Y-17121190D01*
X254444523Y-17025952D01*
X254492142Y-16978333D01*
X254587380Y-16930714D01*
X254730238Y-16930714D01*
X254825476Y-16978333D01*
X254873095Y-17025952D01*
X254920714Y-17121190D01*
X254920714Y-17406904D01*
X254873095Y-17502142D01*
X254825476Y-17549761D01*
X254730238Y-17597380D01*
X254587380Y-17597380D01*
X255349285Y-17597380D02*
X255349285Y-16930714D01*
X255349285Y-17121190D02*
X255396904Y-17025952D01*
X255444523Y-16978333D01*
X255539761Y-16930714D01*
X255635000Y-16930714D01*
X256730238Y-17597380D02*
X256730238Y-16930714D01*
X256730238Y-17025952D02*
X256777857Y-16978333D01*
X256873095Y-16930714D01*
X257015952Y-16930714D01*
X257111190Y-16978333D01*
X257158809Y-17073571D01*
X257158809Y-17597380D01*
X257158809Y-17073571D02*
X257206428Y-16978333D01*
X257301666Y-16930714D01*
X257444523Y-16930714D01*
X257539761Y-16978333D01*
X257587380Y-17073571D01*
X257587380Y-17597380D01*
X258206428Y-17597380D02*
X258111190Y-17549761D01*
X258063571Y-17502142D01*
X258015952Y-17406904D01*
X258015952Y-17121190D01*
X258063571Y-17025952D01*
X258111190Y-16978333D01*
X258206428Y-16930714D01*
X258349285Y-16930714D01*
X258444523Y-16978333D01*
X258492142Y-17025952D01*
X258539761Y-17121190D01*
X258539761Y-17406904D01*
X258492142Y-17502142D01*
X258444523Y-17549761D01*
X258349285Y-17597380D01*
X258206428Y-17597380D01*
X259396904Y-17597380D02*
X259396904Y-16597380D01*
X259396904Y-17549761D02*
X259301666Y-17597380D01*
X259111190Y-17597380D01*
X259015952Y-17549761D01*
X258968333Y-17502142D01*
X258920714Y-17406904D01*
X258920714Y-17121190D01*
X258968333Y-17025952D01*
X259015952Y-16978333D01*
X259111190Y-16930714D01*
X259301666Y-16930714D01*
X259396904Y-16978333D01*
X260301666Y-16930714D02*
X260301666Y-17597380D01*
X259873095Y-16930714D02*
X259873095Y-17454523D01*
X259920714Y-17549761D01*
X260015952Y-17597380D01*
X260158809Y-17597380D01*
X260254047Y-17549761D01*
X260301666Y-17502142D01*
X260920714Y-17597380D02*
X260825476Y-17549761D01*
X260777857Y-17454523D01*
X260777857Y-16597380D01*
X261682619Y-17549761D02*
X261587380Y-17597380D01*
X261396904Y-17597380D01*
X261301666Y-17549761D01*
X261254047Y-17454523D01*
X261254047Y-17073571D01*
X261301666Y-16978333D01*
X261396904Y-16930714D01*
X261587380Y-16930714D01*
X261682619Y-16978333D01*
X261730238Y-17073571D01*
X261730238Y-17168809D01*
X261254047Y-17264047D01*
X262111190Y-17549761D02*
X262206428Y-17597380D01*
X262396904Y-17597380D01*
X262492142Y-17549761D01*
X262539761Y-17454523D01*
X262539761Y-17406904D01*
X262492142Y-17311666D01*
X262396904Y-17264047D01*
X262254047Y-17264047D01*
X262158809Y-17216428D01*
X262111190Y-17121190D01*
X262111190Y-17073571D01*
X262158809Y-16978333D01*
X262254047Y-16930714D01*
X262396904Y-16930714D01*
X262492142Y-16978333D01*
D12*
%TO.C,C1*%
X201570000Y-34213748D02*
X201570000Y-35636252D01*
X199750000Y-34213748D02*
X199750000Y-35636252D01*
%TO.C,C2*%
X159840000Y-35910225D02*
X159340000Y-35910225D01*
X159590000Y-35660225D02*
X159590000Y-36160225D01*
X158399000Y-41066000D02*
X157831000Y-41066000D01*
X158633000Y-41026000D02*
X157597000Y-41026000D01*
X158792000Y-40986000D02*
X157438000Y-40986000D01*
X158920000Y-40946000D02*
X157310000Y-40946000D01*
X159030000Y-40906000D02*
X157200000Y-40906000D01*
X159126000Y-40866000D02*
X157104000Y-40866000D01*
X159213000Y-40826000D02*
X157017000Y-40826000D01*
X159293000Y-40786000D02*
X156937000Y-40786000D01*
X159366000Y-40746000D02*
X156864000Y-40746000D01*
X159434000Y-40706000D02*
X156796000Y-40706000D01*
X159498000Y-40666000D02*
X156732000Y-40666000D01*
X159558000Y-40626000D02*
X156672000Y-40626000D01*
X159615000Y-40586000D02*
X156615000Y-40586000D01*
X159669000Y-40546000D02*
X156561000Y-40546000D01*
X159720000Y-40506000D02*
X156510000Y-40506000D01*
X157075000Y-40466000D02*
X156462000Y-40466000D01*
X159768000Y-40466000D02*
X159155000Y-40466000D01*
X157075000Y-40426000D02*
X156416000Y-40426000D01*
X159814000Y-40426000D02*
X159155000Y-40426000D01*
X157075000Y-40386000D02*
X156372000Y-40386000D01*
X159858000Y-40386000D02*
X159155000Y-40386000D01*
X157075000Y-40346000D02*
X156330000Y-40346000D01*
X159900000Y-40346000D02*
X159155000Y-40346000D01*
X157075000Y-40306000D02*
X156289000Y-40306000D01*
X159941000Y-40306000D02*
X159155000Y-40306000D01*
X157075000Y-40266000D02*
X156251000Y-40266000D01*
X159979000Y-40266000D02*
X159155000Y-40266000D01*
X157075000Y-40226000D02*
X156214000Y-40226000D01*
X160016000Y-40226000D02*
X159155000Y-40226000D01*
X157075000Y-40186000D02*
X156178000Y-40186000D01*
X160052000Y-40186000D02*
X159155000Y-40186000D01*
X157075000Y-40146000D02*
X156144000Y-40146000D01*
X160086000Y-40146000D02*
X159155000Y-40146000D01*
X157075000Y-40106000D02*
X156111000Y-40106000D01*
X160119000Y-40106000D02*
X159155000Y-40106000D01*
X157075000Y-40066000D02*
X156080000Y-40066000D01*
X160150000Y-40066000D02*
X159155000Y-40066000D01*
X157075000Y-40026000D02*
X156050000Y-40026000D01*
X160180000Y-40026000D02*
X159155000Y-40026000D01*
X157075000Y-39986000D02*
X156020000Y-39986000D01*
X160210000Y-39986000D02*
X159155000Y-39986000D01*
X157075000Y-39946000D02*
X155993000Y-39946000D01*
X160237000Y-39946000D02*
X159155000Y-39946000D01*
X157075000Y-39906000D02*
X155966000Y-39906000D01*
X160264000Y-39906000D02*
X159155000Y-39906000D01*
X157075000Y-39866000D02*
X155940000Y-39866000D01*
X160290000Y-39866000D02*
X159155000Y-39866000D01*
X157075000Y-39826000D02*
X155915000Y-39826000D01*
X160315000Y-39826000D02*
X159155000Y-39826000D01*
X157075000Y-39786000D02*
X155891000Y-39786000D01*
X160339000Y-39786000D02*
X159155000Y-39786000D01*
X157075000Y-39746000D02*
X155868000Y-39746000D01*
X160362000Y-39746000D02*
X159155000Y-39746000D01*
X157075000Y-39706000D02*
X155847000Y-39706000D01*
X160383000Y-39706000D02*
X159155000Y-39706000D01*
X157075000Y-39666000D02*
X155825000Y-39666000D01*
X160405000Y-39666000D02*
X159155000Y-39666000D01*
X157075000Y-39626000D02*
X155805000Y-39626000D01*
X160425000Y-39626000D02*
X159155000Y-39626000D01*
X157075000Y-39586000D02*
X155786000Y-39586000D01*
X160444000Y-39586000D02*
X159155000Y-39586000D01*
X157075000Y-39546000D02*
X155767000Y-39546000D01*
X160463000Y-39546000D02*
X159155000Y-39546000D01*
X157075000Y-39506000D02*
X155750000Y-39506000D01*
X160480000Y-39506000D02*
X159155000Y-39506000D01*
X157075000Y-39466000D02*
X155733000Y-39466000D01*
X160497000Y-39466000D02*
X159155000Y-39466000D01*
X157075000Y-39426000D02*
X155717000Y-39426000D01*
X160513000Y-39426000D02*
X159155000Y-39426000D01*
X157075000Y-39386000D02*
X155701000Y-39386000D01*
X160529000Y-39386000D02*
X159155000Y-39386000D01*
X157075000Y-39346000D02*
X155687000Y-39346000D01*
X160543000Y-39346000D02*
X159155000Y-39346000D01*
X157075000Y-39306000D02*
X155673000Y-39306000D01*
X160557000Y-39306000D02*
X159155000Y-39306000D01*
X157075000Y-39266000D02*
X155660000Y-39266000D01*
X160570000Y-39266000D02*
X159155000Y-39266000D01*
X157075000Y-39226000D02*
X155647000Y-39226000D01*
X160583000Y-39226000D02*
X159155000Y-39226000D01*
X157075000Y-39186000D02*
X155635000Y-39186000D01*
X160595000Y-39186000D02*
X159155000Y-39186000D01*
X157075000Y-39145000D02*
X155624000Y-39145000D01*
X160606000Y-39145000D02*
X159155000Y-39145000D01*
X157075000Y-39105000D02*
X155614000Y-39105000D01*
X160616000Y-39105000D02*
X159155000Y-39105000D01*
X157075000Y-39065000D02*
X155604000Y-39065000D01*
X160626000Y-39065000D02*
X159155000Y-39065000D01*
X157075000Y-39025000D02*
X155595000Y-39025000D01*
X160635000Y-39025000D02*
X159155000Y-39025000D01*
X157075000Y-38985000D02*
X155587000Y-38985000D01*
X160643000Y-38985000D02*
X159155000Y-38985000D01*
X157075000Y-38945000D02*
X155579000Y-38945000D01*
X160651000Y-38945000D02*
X159155000Y-38945000D01*
X157075000Y-38905000D02*
X155572000Y-38905000D01*
X160658000Y-38905000D02*
X159155000Y-38905000D01*
X157075000Y-38865000D02*
X155565000Y-38865000D01*
X160665000Y-38865000D02*
X159155000Y-38865000D01*
X157075000Y-38825000D02*
X155559000Y-38825000D01*
X160671000Y-38825000D02*
X159155000Y-38825000D01*
X157075000Y-38785000D02*
X155554000Y-38785000D01*
X160676000Y-38785000D02*
X159155000Y-38785000D01*
X157075000Y-38745000D02*
X155550000Y-38745000D01*
X160680000Y-38745000D02*
X159155000Y-38745000D01*
X157075000Y-38705000D02*
X155546000Y-38705000D01*
X160684000Y-38705000D02*
X159155000Y-38705000D01*
X157075000Y-38665000D02*
X155542000Y-38665000D01*
X160688000Y-38665000D02*
X159155000Y-38665000D01*
X157075000Y-38625000D02*
X155539000Y-38625000D01*
X160691000Y-38625000D02*
X159155000Y-38625000D01*
X157075000Y-38585000D02*
X155537000Y-38585000D01*
X160693000Y-38585000D02*
X159155000Y-38585000D01*
X157075000Y-38545000D02*
X155536000Y-38545000D01*
X160694000Y-38545000D02*
X159155000Y-38545000D01*
X160695000Y-38505000D02*
X159155000Y-38505000D01*
X157075000Y-38505000D02*
X155535000Y-38505000D01*
X160695000Y-38465000D02*
X159155000Y-38465000D01*
X157075000Y-38465000D02*
X155535000Y-38465000D01*
X160735000Y-38465000D02*
G75*
G03*
X160735000Y-38465000I-2620000J0D01*
G01*
%TO.C,C3*%
X157403748Y-35200000D02*
X158826252Y-35200000D01*
X157403748Y-33380000D02*
X158826252Y-33380000D01*
%TO.C,C4*%
X236030000Y-60325000D02*
G75*
G03*
X236030000Y-60325000I-2620000J0D01*
G01*
X233410000Y-61365000D02*
X233410000Y-62905000D01*
X233410000Y-57745000D02*
X233410000Y-59285000D01*
X233450000Y-61365000D02*
X233450000Y-62905000D01*
X233450000Y-57745000D02*
X233450000Y-59285000D01*
X233490000Y-57746000D02*
X233490000Y-59285000D01*
X233490000Y-61365000D02*
X233490000Y-62904000D01*
X233530000Y-57747000D02*
X233530000Y-59285000D01*
X233530000Y-61365000D02*
X233530000Y-62903000D01*
X233570000Y-57749000D02*
X233570000Y-59285000D01*
X233570000Y-61365000D02*
X233570000Y-62901000D01*
X233610000Y-57752000D02*
X233610000Y-59285000D01*
X233610000Y-61365000D02*
X233610000Y-62898000D01*
X233650000Y-57756000D02*
X233650000Y-59285000D01*
X233650000Y-61365000D02*
X233650000Y-62894000D01*
X233690000Y-57760000D02*
X233690000Y-59285000D01*
X233690000Y-61365000D02*
X233690000Y-62890000D01*
X233730000Y-57764000D02*
X233730000Y-59285000D01*
X233730000Y-61365000D02*
X233730000Y-62886000D01*
X233770000Y-57769000D02*
X233770000Y-59285000D01*
X233770000Y-61365000D02*
X233770000Y-62881000D01*
X233810000Y-57775000D02*
X233810000Y-59285000D01*
X233810000Y-61365000D02*
X233810000Y-62875000D01*
X233850000Y-57782000D02*
X233850000Y-59285000D01*
X233850000Y-61365000D02*
X233850000Y-62868000D01*
X233890000Y-57789000D02*
X233890000Y-59285000D01*
X233890000Y-61365000D02*
X233890000Y-62861000D01*
X233930000Y-57797000D02*
X233930000Y-59285000D01*
X233930000Y-61365000D02*
X233930000Y-62853000D01*
X233970000Y-57805000D02*
X233970000Y-59285000D01*
X233970000Y-61365000D02*
X233970000Y-62845000D01*
X234010000Y-57814000D02*
X234010000Y-59285000D01*
X234010000Y-61365000D02*
X234010000Y-62836000D01*
X234050000Y-57824000D02*
X234050000Y-59285000D01*
X234050000Y-61365000D02*
X234050000Y-62826000D01*
X234090000Y-57834000D02*
X234090000Y-59285000D01*
X234090000Y-61365000D02*
X234090000Y-62816000D01*
X234131000Y-57845000D02*
X234131000Y-59285000D01*
X234131000Y-61365000D02*
X234131000Y-62805000D01*
X234171000Y-57857000D02*
X234171000Y-59285000D01*
X234171000Y-61365000D02*
X234171000Y-62793000D01*
X234211000Y-57870000D02*
X234211000Y-59285000D01*
X234211000Y-61365000D02*
X234211000Y-62780000D01*
X234251000Y-57883000D02*
X234251000Y-59285000D01*
X234251000Y-61365000D02*
X234251000Y-62767000D01*
X234291000Y-57897000D02*
X234291000Y-59285000D01*
X234291000Y-61365000D02*
X234291000Y-62753000D01*
X234331000Y-57911000D02*
X234331000Y-59285000D01*
X234331000Y-61365000D02*
X234331000Y-62739000D01*
X234371000Y-57927000D02*
X234371000Y-59285000D01*
X234371000Y-61365000D02*
X234371000Y-62723000D01*
X234411000Y-57943000D02*
X234411000Y-59285000D01*
X234411000Y-61365000D02*
X234411000Y-62707000D01*
X234451000Y-57960000D02*
X234451000Y-59285000D01*
X234451000Y-61365000D02*
X234451000Y-62690000D01*
X234491000Y-57977000D02*
X234491000Y-59285000D01*
X234491000Y-61365000D02*
X234491000Y-62673000D01*
X234531000Y-57996000D02*
X234531000Y-59285000D01*
X234531000Y-61365000D02*
X234531000Y-62654000D01*
X234571000Y-58015000D02*
X234571000Y-59285000D01*
X234571000Y-61365000D02*
X234571000Y-62635000D01*
X234611000Y-58035000D02*
X234611000Y-59285000D01*
X234611000Y-61365000D02*
X234611000Y-62615000D01*
X234651000Y-58057000D02*
X234651000Y-59285000D01*
X234651000Y-61365000D02*
X234651000Y-62593000D01*
X234691000Y-58078000D02*
X234691000Y-59285000D01*
X234691000Y-61365000D02*
X234691000Y-62572000D01*
X234731000Y-58101000D02*
X234731000Y-59285000D01*
X234731000Y-61365000D02*
X234731000Y-62549000D01*
X234771000Y-58125000D02*
X234771000Y-59285000D01*
X234771000Y-61365000D02*
X234771000Y-62525000D01*
X234811000Y-58150000D02*
X234811000Y-59285000D01*
X234811000Y-61365000D02*
X234811000Y-62500000D01*
X234851000Y-58176000D02*
X234851000Y-59285000D01*
X234851000Y-61365000D02*
X234851000Y-62474000D01*
X234891000Y-58203000D02*
X234891000Y-59285000D01*
X234891000Y-61365000D02*
X234891000Y-62447000D01*
X234931000Y-58230000D02*
X234931000Y-59285000D01*
X234931000Y-61365000D02*
X234931000Y-62420000D01*
X234971000Y-58260000D02*
X234971000Y-59285000D01*
X234971000Y-61365000D02*
X234971000Y-62390000D01*
X235011000Y-58290000D02*
X235011000Y-59285000D01*
X235011000Y-61365000D02*
X235011000Y-62360000D01*
X235051000Y-58321000D02*
X235051000Y-59285000D01*
X235051000Y-61365000D02*
X235051000Y-62329000D01*
X235091000Y-58354000D02*
X235091000Y-59285000D01*
X235091000Y-61365000D02*
X235091000Y-62296000D01*
X235131000Y-58388000D02*
X235131000Y-59285000D01*
X235131000Y-61365000D02*
X235131000Y-62262000D01*
X235171000Y-58424000D02*
X235171000Y-59285000D01*
X235171000Y-61365000D02*
X235171000Y-62226000D01*
X235211000Y-58461000D02*
X235211000Y-59285000D01*
X235211000Y-61365000D02*
X235211000Y-62189000D01*
X235251000Y-58499000D02*
X235251000Y-59285000D01*
X235251000Y-61365000D02*
X235251000Y-62151000D01*
X235291000Y-58540000D02*
X235291000Y-59285000D01*
X235291000Y-61365000D02*
X235291000Y-62110000D01*
X235331000Y-58582000D02*
X235331000Y-59285000D01*
X235331000Y-61365000D02*
X235331000Y-62068000D01*
X235371000Y-58626000D02*
X235371000Y-59285000D01*
X235371000Y-61365000D02*
X235371000Y-62024000D01*
X235411000Y-58672000D02*
X235411000Y-59285000D01*
X235411000Y-61365000D02*
X235411000Y-61978000D01*
X235451000Y-58720000D02*
X235451000Y-61930000D01*
X235491000Y-58771000D02*
X235491000Y-61879000D01*
X235531000Y-58825000D02*
X235531000Y-61825000D01*
X235571000Y-58882000D02*
X235571000Y-61768000D01*
X235611000Y-58942000D02*
X235611000Y-61708000D01*
X235651000Y-59006000D02*
X235651000Y-61644000D01*
X235691000Y-59074000D02*
X235691000Y-61576000D01*
X235731000Y-59147000D02*
X235731000Y-61503000D01*
X235771000Y-59227000D02*
X235771000Y-61423000D01*
X235811000Y-59314000D02*
X235811000Y-61336000D01*
X235851000Y-59410000D02*
X235851000Y-61240000D01*
X235891000Y-59520000D02*
X235891000Y-61130000D01*
X235931000Y-59648000D02*
X235931000Y-61002000D01*
X235971000Y-59807000D02*
X235971000Y-60843000D01*
X236011000Y-60041000D02*
X236011000Y-60609000D01*
X230605225Y-58850000D02*
X231105225Y-58850000D01*
X230855225Y-58600000D02*
X230855225Y-59100000D01*
%TO.C,C5*%
X160835000Y-48544775D02*
X161335000Y-48544775D01*
X161085000Y-48794775D02*
X161085000Y-48294775D01*
X162276000Y-43389000D02*
X162844000Y-43389000D01*
X162042000Y-43429000D02*
X163078000Y-43429000D01*
X161883000Y-43469000D02*
X163237000Y-43469000D01*
X161755000Y-43509000D02*
X163365000Y-43509000D01*
X161645000Y-43549000D02*
X163475000Y-43549000D01*
X161549000Y-43589000D02*
X163571000Y-43589000D01*
X161462000Y-43629000D02*
X163658000Y-43629000D01*
X161382000Y-43669000D02*
X163738000Y-43669000D01*
X161309000Y-43709000D02*
X163811000Y-43709000D01*
X161241000Y-43749000D02*
X163879000Y-43749000D01*
X161177000Y-43789000D02*
X163943000Y-43789000D01*
X161117000Y-43829000D02*
X164003000Y-43829000D01*
X161060000Y-43869000D02*
X164060000Y-43869000D01*
X161006000Y-43909000D02*
X164114000Y-43909000D01*
X160955000Y-43949000D02*
X164165000Y-43949000D01*
X163600000Y-43989000D02*
X164213000Y-43989000D01*
X160907000Y-43989000D02*
X161520000Y-43989000D01*
X163600000Y-44029000D02*
X164259000Y-44029000D01*
X160861000Y-44029000D02*
X161520000Y-44029000D01*
X163600000Y-44069000D02*
X164303000Y-44069000D01*
X160817000Y-44069000D02*
X161520000Y-44069000D01*
X163600000Y-44109000D02*
X164345000Y-44109000D01*
X160775000Y-44109000D02*
X161520000Y-44109000D01*
X163600000Y-44149000D02*
X164386000Y-44149000D01*
X160734000Y-44149000D02*
X161520000Y-44149000D01*
X163600000Y-44189000D02*
X164424000Y-44189000D01*
X160696000Y-44189000D02*
X161520000Y-44189000D01*
X163600000Y-44229000D02*
X164461000Y-44229000D01*
X160659000Y-44229000D02*
X161520000Y-44229000D01*
X163600000Y-44269000D02*
X164497000Y-44269000D01*
X160623000Y-44269000D02*
X161520000Y-44269000D01*
X163600000Y-44309000D02*
X164531000Y-44309000D01*
X160589000Y-44309000D02*
X161520000Y-44309000D01*
X163600000Y-44349000D02*
X164564000Y-44349000D01*
X160556000Y-44349000D02*
X161520000Y-44349000D01*
X163600000Y-44389000D02*
X164595000Y-44389000D01*
X160525000Y-44389000D02*
X161520000Y-44389000D01*
X163600000Y-44429000D02*
X164625000Y-44429000D01*
X160495000Y-44429000D02*
X161520000Y-44429000D01*
X163600000Y-44469000D02*
X164655000Y-44469000D01*
X160465000Y-44469000D02*
X161520000Y-44469000D01*
X163600000Y-44509000D02*
X164682000Y-44509000D01*
X160438000Y-44509000D02*
X161520000Y-44509000D01*
X163600000Y-44549000D02*
X164709000Y-44549000D01*
X160411000Y-44549000D02*
X161520000Y-44549000D01*
X163600000Y-44589000D02*
X164735000Y-44589000D01*
X160385000Y-44589000D02*
X161520000Y-44589000D01*
X163600000Y-44629000D02*
X164760000Y-44629000D01*
X160360000Y-44629000D02*
X161520000Y-44629000D01*
X163600000Y-44669000D02*
X164784000Y-44669000D01*
X160336000Y-44669000D02*
X161520000Y-44669000D01*
X163600000Y-44709000D02*
X164807000Y-44709000D01*
X160313000Y-44709000D02*
X161520000Y-44709000D01*
X163600000Y-44749000D02*
X164828000Y-44749000D01*
X160292000Y-44749000D02*
X161520000Y-44749000D01*
X163600000Y-44789000D02*
X164850000Y-44789000D01*
X160270000Y-44789000D02*
X161520000Y-44789000D01*
X163600000Y-44829000D02*
X164870000Y-44829000D01*
X160250000Y-44829000D02*
X161520000Y-44829000D01*
X163600000Y-44869000D02*
X164889000Y-44869000D01*
X160231000Y-44869000D02*
X161520000Y-44869000D01*
X163600000Y-44909000D02*
X164908000Y-44909000D01*
X160212000Y-44909000D02*
X161520000Y-44909000D01*
X163600000Y-44949000D02*
X164925000Y-44949000D01*
X160195000Y-44949000D02*
X161520000Y-44949000D01*
X163600000Y-44989000D02*
X164942000Y-44989000D01*
X160178000Y-44989000D02*
X161520000Y-44989000D01*
X163600000Y-45029000D02*
X164958000Y-45029000D01*
X160162000Y-45029000D02*
X161520000Y-45029000D01*
X163600000Y-45069000D02*
X164974000Y-45069000D01*
X160146000Y-45069000D02*
X161520000Y-45069000D01*
X163600000Y-45109000D02*
X164988000Y-45109000D01*
X160132000Y-45109000D02*
X161520000Y-45109000D01*
X163600000Y-45149000D02*
X165002000Y-45149000D01*
X160118000Y-45149000D02*
X161520000Y-45149000D01*
X163600000Y-45189000D02*
X165015000Y-45189000D01*
X160105000Y-45189000D02*
X161520000Y-45189000D01*
X163600000Y-45229000D02*
X165028000Y-45229000D01*
X160092000Y-45229000D02*
X161520000Y-45229000D01*
X163600000Y-45269000D02*
X165040000Y-45269000D01*
X160080000Y-45269000D02*
X161520000Y-45269000D01*
X163600000Y-45310000D02*
X165051000Y-45310000D01*
X160069000Y-45310000D02*
X161520000Y-45310000D01*
X163600000Y-45350000D02*
X165061000Y-45350000D01*
X160059000Y-45350000D02*
X161520000Y-45350000D01*
X163600000Y-45390000D02*
X165071000Y-45390000D01*
X160049000Y-45390000D02*
X161520000Y-45390000D01*
X163600000Y-45430000D02*
X165080000Y-45430000D01*
X160040000Y-45430000D02*
X161520000Y-45430000D01*
X163600000Y-45470000D02*
X165088000Y-45470000D01*
X160032000Y-45470000D02*
X161520000Y-45470000D01*
X163600000Y-45510000D02*
X165096000Y-45510000D01*
X160024000Y-45510000D02*
X161520000Y-45510000D01*
X163600000Y-45550000D02*
X165103000Y-45550000D01*
X160017000Y-45550000D02*
X161520000Y-45550000D01*
X163600000Y-45590000D02*
X165110000Y-45590000D01*
X160010000Y-45590000D02*
X161520000Y-45590000D01*
X163600000Y-45630000D02*
X165116000Y-45630000D01*
X160004000Y-45630000D02*
X161520000Y-45630000D01*
X163600000Y-45670000D02*
X165121000Y-45670000D01*
X159999000Y-45670000D02*
X161520000Y-45670000D01*
X163600000Y-45710000D02*
X165125000Y-45710000D01*
X159995000Y-45710000D02*
X161520000Y-45710000D01*
X163600000Y-45750000D02*
X165129000Y-45750000D01*
X159991000Y-45750000D02*
X161520000Y-45750000D01*
X163600000Y-45790000D02*
X165133000Y-45790000D01*
X159987000Y-45790000D02*
X161520000Y-45790000D01*
X163600000Y-45830000D02*
X165136000Y-45830000D01*
X159984000Y-45830000D02*
X161520000Y-45830000D01*
X163600000Y-45870000D02*
X165138000Y-45870000D01*
X159982000Y-45870000D02*
X161520000Y-45870000D01*
X163600000Y-45910000D02*
X165139000Y-45910000D01*
X159981000Y-45910000D02*
X161520000Y-45910000D01*
X159980000Y-45950000D02*
X161520000Y-45950000D01*
X163600000Y-45950000D02*
X165140000Y-45950000D01*
X159980000Y-45990000D02*
X161520000Y-45990000D01*
X163600000Y-45990000D02*
X165140000Y-45990000D01*
X165180000Y-45990000D02*
G75*
G03*
X165180000Y-45990000I-2620000J0D01*
G01*
%TO.C,C6*%
X232333748Y-52430000D02*
X233756252Y-52430000D01*
X232333748Y-54250000D02*
X233756252Y-54250000D01*
%TO.C,C7*%
X250901252Y-64410000D02*
X249478748Y-64410000D01*
X250901252Y-62590000D02*
X249478748Y-62590000D01*
%TO.C,C8*%
X223795000Y-59131252D02*
X223795000Y-57708748D01*
X221975000Y-59131252D02*
X221975000Y-57708748D01*
%TO.C,D1*%
X155920000Y-58865000D02*
X155920000Y-59021000D01*
X155920000Y-56549000D02*
X155920000Y-56705000D01*
X158521130Y-58864837D02*
G75*
G02*
X156439039Y-58865000I-1041130J1079837D01*
G01*
X158521130Y-56705163D02*
G75*
G03*
X156439039Y-56705000I-1041130J-1079837D01*
G01*
X159152335Y-58863608D02*
G75*
G02*
X155920000Y-59020516I-1672335J1078608D01*
G01*
X159152335Y-56706392D02*
G75*
G03*
X155920000Y-56549484I-1672335J-1078608D01*
G01*
%TO.C,D2*%
X161045000Y-42700000D02*
X165345000Y-42700000D01*
X165345000Y-42700000D02*
X165345000Y-35400000D01*
X161045000Y-42700000D02*
X161045000Y-35400000D01*
%TO.C,D3*%
X155920000Y-50199000D02*
X155920000Y-50355000D01*
X155920000Y-52515000D02*
X155920000Y-52671000D01*
X159152335Y-50356392D02*
G75*
G03*
X155920000Y-50199484I-1672335J-1078608D01*
G01*
X159152335Y-52513608D02*
G75*
G02*
X155920000Y-52670516I-1672335J1078608D01*
G01*
X158521130Y-50355163D02*
G75*
G03*
X156439039Y-50355000I-1041130J-1079837D01*
G01*
X158521130Y-52514837D02*
G75*
G02*
X156439039Y-52515000I-1041130J1079837D01*
G01*
%TO.C,J1*%
X165565000Y-22285000D02*
X165565000Y-21235000D01*
X164515000Y-21235000D02*
X165565000Y-21235000D01*
X159465000Y-30635000D02*
X150665000Y-30635000D01*
X150665000Y-30635000D02*
X150665000Y-21435000D01*
X165365000Y-27935000D02*
X165365000Y-30635000D01*
X165365000Y-30635000D02*
X163465000Y-30635000D01*
X150665000Y-21435000D02*
X165365000Y-21435000D01*
X165365000Y-21435000D02*
X165365000Y-24035000D01*
%TO.C,J2*%
X169710000Y-14715000D02*
X169710000Y-14115000D01*
X168110000Y-14715000D02*
X169710000Y-14715000D01*
X168110000Y-14115000D02*
X168110000Y-14715000D01*
X167170000Y-14715000D02*
X167170000Y-14115000D01*
X165570000Y-14715000D02*
X167170000Y-14715000D01*
X165570000Y-14115000D02*
X165570000Y-14715000D01*
X164630000Y-14715000D02*
X164630000Y-14115000D01*
X163030000Y-14715000D02*
X164630000Y-14715000D01*
X163030000Y-14115000D02*
X163030000Y-14715000D01*
X162090000Y-14715000D02*
X162090000Y-14115000D01*
X160490000Y-14715000D02*
X162090000Y-14715000D01*
X160490000Y-14115000D02*
X160490000Y-14715000D01*
X168660000Y-20135000D02*
X168660000Y-19135000D01*
X161540000Y-20135000D02*
X161540000Y-19135000D01*
X168660000Y-18605000D02*
X168910000Y-19135000D01*
X161540000Y-18605000D02*
X168660000Y-18605000D01*
X161290000Y-19135000D02*
X161540000Y-18605000D01*
X168910000Y-19135000D02*
X168910000Y-20135000D01*
X161290000Y-19135000D02*
X168910000Y-19135000D01*
X161290000Y-20135000D02*
X161290000Y-19135000D01*
X159620000Y-15145000D02*
X159620000Y-19145000D01*
X170290000Y-14115000D02*
X159910000Y-14115000D01*
X170290000Y-20135000D02*
X170290000Y-14115000D01*
X159910000Y-20135000D02*
X170290000Y-20135000D01*
X159910000Y-14115000D02*
X159910000Y-20135000D01*
%TO.C,J3*%
X171975000Y-14115000D02*
X171975000Y-20135000D01*
X171975000Y-20135000D02*
X182355000Y-20135000D01*
X182355000Y-20135000D02*
X182355000Y-14115000D01*
X182355000Y-14115000D02*
X171975000Y-14115000D01*
X171685000Y-15145000D02*
X171685000Y-19145000D01*
X173355000Y-20135000D02*
X173355000Y-19135000D01*
X173355000Y-19135000D02*
X180975000Y-19135000D01*
X180975000Y-19135000D02*
X180975000Y-20135000D01*
X173355000Y-19135000D02*
X173605000Y-18605000D01*
X173605000Y-18605000D02*
X180725000Y-18605000D01*
X180725000Y-18605000D02*
X180975000Y-19135000D01*
X173605000Y-20135000D02*
X173605000Y-19135000D01*
X180725000Y-20135000D02*
X180725000Y-19135000D01*
X172555000Y-14115000D02*
X172555000Y-14715000D01*
X172555000Y-14715000D02*
X174155000Y-14715000D01*
X174155000Y-14715000D02*
X174155000Y-14115000D01*
X175095000Y-14115000D02*
X175095000Y-14715000D01*
X175095000Y-14715000D02*
X176695000Y-14715000D01*
X176695000Y-14715000D02*
X176695000Y-14115000D01*
X177635000Y-14115000D02*
X177635000Y-14715000D01*
X177635000Y-14715000D02*
X179235000Y-14715000D01*
X179235000Y-14715000D02*
X179235000Y-14115000D01*
X180175000Y-14115000D02*
X180175000Y-14715000D01*
X180175000Y-14715000D02*
X181775000Y-14715000D01*
X181775000Y-14715000D02*
X181775000Y-14115000D01*
%TO.C,J4*%
X205575000Y-20845000D02*
X205575000Y-21445000D01*
X207175000Y-20845000D02*
X205575000Y-20845000D01*
X207175000Y-21445000D02*
X207175000Y-20845000D01*
X208115000Y-20845000D02*
X208115000Y-21445000D01*
X209715000Y-20845000D02*
X208115000Y-20845000D01*
X209715000Y-21445000D02*
X209715000Y-20845000D01*
X210655000Y-20845000D02*
X210655000Y-21445000D01*
X212255000Y-20845000D02*
X210655000Y-20845000D01*
X212255000Y-21445000D02*
X212255000Y-20845000D01*
X213195000Y-20845000D02*
X213195000Y-21445000D01*
X214795000Y-20845000D02*
X213195000Y-20845000D01*
X214795000Y-21445000D02*
X214795000Y-20845000D01*
X215735000Y-20845000D02*
X215735000Y-21445000D01*
X217335000Y-20845000D02*
X215735000Y-20845000D01*
X217335000Y-21445000D02*
X217335000Y-20845000D01*
X218275000Y-20845000D02*
X218275000Y-21445000D01*
X219875000Y-20845000D02*
X218275000Y-20845000D01*
X219875000Y-21445000D02*
X219875000Y-20845000D01*
X206625000Y-15425000D02*
X206625000Y-16425000D01*
X218825000Y-15425000D02*
X218825000Y-16425000D01*
X206625000Y-16955000D02*
X206375000Y-16425000D01*
X218825000Y-16955000D02*
X206625000Y-16955000D01*
X219075000Y-16425000D02*
X218825000Y-16955000D01*
X206375000Y-16425000D02*
X206375000Y-15425000D01*
X219075000Y-16425000D02*
X206375000Y-16425000D01*
X219075000Y-15425000D02*
X219075000Y-16425000D01*
X220745000Y-20415000D02*
X220745000Y-16415000D01*
X204995000Y-21445000D02*
X220455000Y-21445000D01*
X204995000Y-15425000D02*
X204995000Y-21445000D01*
X220455000Y-15425000D02*
X204995000Y-15425000D01*
X220455000Y-21445000D02*
X220455000Y-15425000D01*
%TO.C,J5*%
X203310000Y-21445000D02*
X203310000Y-15425000D01*
X203310000Y-15425000D02*
X187850000Y-15425000D01*
X187850000Y-15425000D02*
X187850000Y-21445000D01*
X187850000Y-21445000D02*
X203310000Y-21445000D01*
X203600000Y-20415000D02*
X203600000Y-16415000D01*
X201930000Y-15425000D02*
X201930000Y-16425000D01*
X201930000Y-16425000D02*
X189230000Y-16425000D01*
X189230000Y-16425000D02*
X189230000Y-15425000D01*
X201930000Y-16425000D02*
X201680000Y-16955000D01*
X201680000Y-16955000D02*
X189480000Y-16955000D01*
X189480000Y-16955000D02*
X189230000Y-16425000D01*
X201680000Y-15425000D02*
X201680000Y-16425000D01*
X189480000Y-15425000D02*
X189480000Y-16425000D01*
X202730000Y-21445000D02*
X202730000Y-20845000D01*
X202730000Y-20845000D02*
X201130000Y-20845000D01*
X201130000Y-20845000D02*
X201130000Y-21445000D01*
X200190000Y-21445000D02*
X200190000Y-20845000D01*
X200190000Y-20845000D02*
X198590000Y-20845000D01*
X198590000Y-20845000D02*
X198590000Y-21445000D01*
X197650000Y-21445000D02*
X197650000Y-20845000D01*
X197650000Y-20845000D02*
X196050000Y-20845000D01*
X196050000Y-20845000D02*
X196050000Y-21445000D01*
X195110000Y-21445000D02*
X195110000Y-20845000D01*
X195110000Y-20845000D02*
X193510000Y-20845000D01*
X193510000Y-20845000D02*
X193510000Y-21445000D01*
X192570000Y-21445000D02*
X192570000Y-20845000D01*
X192570000Y-20845000D02*
X190970000Y-20845000D01*
X190970000Y-20845000D02*
X190970000Y-21445000D01*
X190030000Y-21445000D02*
X190030000Y-20845000D01*
X190030000Y-20845000D02*
X188430000Y-20845000D01*
X188430000Y-20845000D02*
X188430000Y-21445000D01*
%TO.C,J6*%
X223375000Y-25925000D02*
X217355000Y-25925000D01*
X217355000Y-25925000D02*
X217355000Y-31225000D01*
X217355000Y-31225000D02*
X223375000Y-31225000D01*
X223375000Y-31225000D02*
X223375000Y-25925000D01*
X222345000Y-25635000D02*
X218345000Y-25635000D01*
X217355000Y-27305000D02*
X218355000Y-27305000D01*
X218355000Y-27305000D02*
X218355000Y-29845000D01*
X218355000Y-29845000D02*
X217355000Y-29845000D01*
X218355000Y-27305000D02*
X218885000Y-27555000D01*
X218885000Y-27555000D02*
X218885000Y-29595000D01*
X218885000Y-29595000D02*
X218355000Y-29845000D01*
X217355000Y-27555000D02*
X218355000Y-27555000D01*
X217355000Y-29595000D02*
X218355000Y-29595000D01*
X223375000Y-26505000D02*
X222775000Y-26505000D01*
X222775000Y-26505000D02*
X222775000Y-28105000D01*
X222775000Y-28105000D02*
X223375000Y-28105000D01*
X223375000Y-29045000D02*
X222775000Y-29045000D01*
X222775000Y-29045000D02*
X222775000Y-30645000D01*
X222775000Y-30645000D02*
X223375000Y-30645000D01*
%TO.C,J7*%
X222775000Y-37630000D02*
X223375000Y-37630000D01*
X222775000Y-36030000D02*
X222775000Y-37630000D01*
X223375000Y-36030000D02*
X222775000Y-36030000D01*
X222775000Y-35090000D02*
X223375000Y-35090000D01*
X222775000Y-33490000D02*
X222775000Y-35090000D01*
X223375000Y-33490000D02*
X222775000Y-33490000D01*
X217355000Y-36580000D02*
X218355000Y-36580000D01*
X217355000Y-34540000D02*
X218355000Y-34540000D01*
X218885000Y-36580000D02*
X218355000Y-36830000D01*
X218885000Y-34540000D02*
X218885000Y-36580000D01*
X218355000Y-34290000D02*
X218885000Y-34540000D01*
X218355000Y-36830000D02*
X217355000Y-36830000D01*
X218355000Y-34290000D02*
X218355000Y-36830000D01*
X217355000Y-34290000D02*
X218355000Y-34290000D01*
X222345000Y-32620000D02*
X218345000Y-32620000D01*
X223375000Y-38210000D02*
X223375000Y-32910000D01*
X217355000Y-38210000D02*
X223375000Y-38210000D01*
X217355000Y-32910000D02*
X217355000Y-38210000D01*
X223375000Y-32910000D02*
X217355000Y-32910000D01*
%TO.C,J8*%
X189755000Y-37630000D02*
X190355000Y-37630000D01*
X189755000Y-36030000D02*
X189755000Y-37630000D01*
X190355000Y-36030000D02*
X189755000Y-36030000D01*
X189755000Y-35090000D02*
X190355000Y-35090000D01*
X189755000Y-33490000D02*
X189755000Y-35090000D01*
X190355000Y-33490000D02*
X189755000Y-33490000D01*
X184335000Y-36580000D02*
X185335000Y-36580000D01*
X184335000Y-34540000D02*
X185335000Y-34540000D01*
X185865000Y-36580000D02*
X185335000Y-36830000D01*
X185865000Y-34540000D02*
X185865000Y-36580000D01*
X185335000Y-34290000D02*
X185865000Y-34540000D01*
X185335000Y-36830000D02*
X184335000Y-36830000D01*
X185335000Y-34290000D02*
X185335000Y-36830000D01*
X184335000Y-34290000D02*
X185335000Y-34290000D01*
X189325000Y-32620000D02*
X185325000Y-32620000D01*
X190355000Y-38210000D02*
X190355000Y-32910000D01*
X184335000Y-38210000D02*
X190355000Y-38210000D01*
X184335000Y-32910000D02*
X184335000Y-38210000D01*
X190355000Y-32910000D02*
X184335000Y-32910000D01*
%TO.C,J9*%
X190355000Y-25925000D02*
X184335000Y-25925000D01*
X184335000Y-25925000D02*
X184335000Y-31225000D01*
X184335000Y-31225000D02*
X190355000Y-31225000D01*
X190355000Y-31225000D02*
X190355000Y-25925000D01*
X189325000Y-25635000D02*
X185325000Y-25635000D01*
X184335000Y-27305000D02*
X185335000Y-27305000D01*
X185335000Y-27305000D02*
X185335000Y-29845000D01*
X185335000Y-29845000D02*
X184335000Y-29845000D01*
X185335000Y-27305000D02*
X185865000Y-27555000D01*
X185865000Y-27555000D02*
X185865000Y-29595000D01*
X185865000Y-29595000D02*
X185335000Y-29845000D01*
X184335000Y-27555000D02*
X185335000Y-27555000D01*
X184335000Y-29595000D02*
X185335000Y-29595000D01*
X190355000Y-26505000D02*
X189755000Y-26505000D01*
X189755000Y-26505000D02*
X189755000Y-28105000D01*
X189755000Y-28105000D02*
X190355000Y-28105000D01*
X190355000Y-29045000D02*
X189755000Y-29045000D01*
X189755000Y-29045000D02*
X189755000Y-30645000D01*
X189755000Y-30645000D02*
X190355000Y-30645000D01*
%TO.C,J10*%
X232935000Y-19195000D02*
X232935000Y-25215000D01*
X232935000Y-25215000D02*
X240775000Y-25215000D01*
X240775000Y-25215000D02*
X240775000Y-19195000D01*
X240775000Y-19195000D02*
X232935000Y-19195000D01*
X232645000Y-20225000D02*
X232645000Y-24225000D01*
X234315000Y-25215000D02*
X234315000Y-24215000D01*
X234315000Y-24215000D02*
X239395000Y-24215000D01*
X239395000Y-24215000D02*
X239395000Y-25215000D01*
X234315000Y-24215000D02*
X234565000Y-23685000D01*
X234565000Y-23685000D02*
X239145000Y-23685000D01*
X239145000Y-23685000D02*
X239395000Y-24215000D01*
X234565000Y-25215000D02*
X234565000Y-24215000D01*
X239145000Y-25215000D02*
X239145000Y-24215000D01*
X233515000Y-19195000D02*
X233515000Y-19795000D01*
X233515000Y-19795000D02*
X235115000Y-19795000D01*
X235115000Y-19795000D02*
X235115000Y-19195000D01*
X236055000Y-19195000D02*
X236055000Y-19795000D01*
X236055000Y-19795000D02*
X237655000Y-19795000D01*
X237655000Y-19795000D02*
X237655000Y-19195000D01*
X238595000Y-19195000D02*
X238595000Y-19795000D01*
X238595000Y-19795000D02*
X240195000Y-19795000D01*
X240195000Y-19795000D02*
X240195000Y-19195000D01*
%TO.C,J11*%
X240195000Y-27415000D02*
X240195000Y-26815000D01*
X238595000Y-27415000D02*
X240195000Y-27415000D01*
X238595000Y-26815000D02*
X238595000Y-27415000D01*
X237655000Y-27415000D02*
X237655000Y-26815000D01*
X236055000Y-27415000D02*
X237655000Y-27415000D01*
X236055000Y-26815000D02*
X236055000Y-27415000D01*
X235115000Y-27415000D02*
X235115000Y-26815000D01*
X233515000Y-27415000D02*
X235115000Y-27415000D01*
X233515000Y-26815000D02*
X233515000Y-27415000D01*
X239145000Y-32835000D02*
X239145000Y-31835000D01*
X234565000Y-32835000D02*
X234565000Y-31835000D01*
X239145000Y-31305000D02*
X239395000Y-31835000D01*
X234565000Y-31305000D02*
X239145000Y-31305000D01*
X234315000Y-31835000D02*
X234565000Y-31305000D01*
X239395000Y-31835000D02*
X239395000Y-32835000D01*
X234315000Y-31835000D02*
X239395000Y-31835000D01*
X234315000Y-32835000D02*
X234315000Y-31835000D01*
X232645000Y-27845000D02*
X232645000Y-31845000D01*
X240775000Y-26815000D02*
X232935000Y-26815000D01*
X240775000Y-32835000D02*
X240775000Y-26815000D01*
X232935000Y-32835000D02*
X240775000Y-32835000D01*
X232935000Y-26815000D02*
X232935000Y-32835000D01*
%TO.C,J12*%
X232935000Y-34435000D02*
X232935000Y-40455000D01*
X232935000Y-40455000D02*
X240775000Y-40455000D01*
X240775000Y-40455000D02*
X240775000Y-34435000D01*
X240775000Y-34435000D02*
X232935000Y-34435000D01*
X232645000Y-35465000D02*
X232645000Y-39465000D01*
X234315000Y-40455000D02*
X234315000Y-39455000D01*
X234315000Y-39455000D02*
X239395000Y-39455000D01*
X239395000Y-39455000D02*
X239395000Y-40455000D01*
X234315000Y-39455000D02*
X234565000Y-38925000D01*
X234565000Y-38925000D02*
X239145000Y-38925000D01*
X239145000Y-38925000D02*
X239395000Y-39455000D01*
X234565000Y-40455000D02*
X234565000Y-39455000D01*
X239145000Y-40455000D02*
X239145000Y-39455000D01*
X233515000Y-34435000D02*
X233515000Y-35035000D01*
X233515000Y-35035000D02*
X235115000Y-35035000D01*
X235115000Y-35035000D02*
X235115000Y-34435000D01*
X236055000Y-34435000D02*
X236055000Y-35035000D01*
X236055000Y-35035000D02*
X237655000Y-35035000D01*
X237655000Y-35035000D02*
X237655000Y-34435000D01*
X238595000Y-34435000D02*
X238595000Y-35035000D01*
X238595000Y-35035000D02*
X240195000Y-35035000D01*
X240195000Y-35035000D02*
X240195000Y-34435000D01*
%TO.C,J13*%
X232935000Y-42055000D02*
X232935000Y-48075000D01*
X232935000Y-48075000D02*
X240775000Y-48075000D01*
X240775000Y-48075000D02*
X240775000Y-42055000D01*
X240775000Y-42055000D02*
X232935000Y-42055000D01*
X232645000Y-43085000D02*
X232645000Y-47085000D01*
X234315000Y-48075000D02*
X234315000Y-47075000D01*
X234315000Y-47075000D02*
X239395000Y-47075000D01*
X239395000Y-47075000D02*
X239395000Y-48075000D01*
X234315000Y-47075000D02*
X234565000Y-46545000D01*
X234565000Y-46545000D02*
X239145000Y-46545000D01*
X239145000Y-46545000D02*
X239395000Y-47075000D01*
X234565000Y-48075000D02*
X234565000Y-47075000D01*
X239145000Y-48075000D02*
X239145000Y-47075000D01*
X233515000Y-42055000D02*
X233515000Y-42655000D01*
X233515000Y-42655000D02*
X235115000Y-42655000D01*
X235115000Y-42655000D02*
X235115000Y-42055000D01*
X236055000Y-42055000D02*
X236055000Y-42655000D01*
X236055000Y-42655000D02*
X237655000Y-42655000D01*
X237655000Y-42655000D02*
X237655000Y-42055000D01*
X238595000Y-42055000D02*
X238595000Y-42655000D01*
X238595000Y-42655000D02*
X240195000Y-42655000D01*
X240195000Y-42655000D02*
X240195000Y-42055000D01*
%TO.C,J14*%
X251625000Y-19795000D02*
X251625000Y-19195000D01*
X250025000Y-19795000D02*
X251625000Y-19795000D01*
X250025000Y-19195000D02*
X250025000Y-19795000D01*
X249085000Y-19795000D02*
X249085000Y-19195000D01*
X247485000Y-19795000D02*
X249085000Y-19795000D01*
X247485000Y-19195000D02*
X247485000Y-19795000D01*
X246545000Y-19795000D02*
X246545000Y-19195000D01*
X244945000Y-19795000D02*
X246545000Y-19795000D01*
X244945000Y-19195000D02*
X244945000Y-19795000D01*
X250575000Y-25215000D02*
X250575000Y-24215000D01*
X245995000Y-25215000D02*
X245995000Y-24215000D01*
X250575000Y-23685000D02*
X250825000Y-24215000D01*
X245995000Y-23685000D02*
X250575000Y-23685000D01*
X245745000Y-24215000D02*
X245995000Y-23685000D01*
X250825000Y-24215000D02*
X250825000Y-25215000D01*
X245745000Y-24215000D02*
X250825000Y-24215000D01*
X245745000Y-25215000D02*
X245745000Y-24215000D01*
X244075000Y-20225000D02*
X244075000Y-24225000D01*
X252205000Y-19195000D02*
X244365000Y-19195000D01*
X252205000Y-25215000D02*
X252205000Y-19195000D01*
X244365000Y-25215000D02*
X252205000Y-25215000D01*
X244365000Y-19195000D02*
X244365000Y-25215000D01*
%TO.C,J15*%
X244365000Y-26815000D02*
X244365000Y-32835000D01*
X244365000Y-32835000D02*
X252205000Y-32835000D01*
X252205000Y-32835000D02*
X252205000Y-26815000D01*
X252205000Y-26815000D02*
X244365000Y-26815000D01*
X244075000Y-27845000D02*
X244075000Y-31845000D01*
X245745000Y-32835000D02*
X245745000Y-31835000D01*
X245745000Y-31835000D02*
X250825000Y-31835000D01*
X250825000Y-31835000D02*
X250825000Y-32835000D01*
X245745000Y-31835000D02*
X245995000Y-31305000D01*
X245995000Y-31305000D02*
X250575000Y-31305000D01*
X250575000Y-31305000D02*
X250825000Y-31835000D01*
X245995000Y-32835000D02*
X245995000Y-31835000D01*
X250575000Y-32835000D02*
X250575000Y-31835000D01*
X244945000Y-26815000D02*
X244945000Y-27415000D01*
X244945000Y-27415000D02*
X246545000Y-27415000D01*
X246545000Y-27415000D02*
X246545000Y-26815000D01*
X247485000Y-26815000D02*
X247485000Y-27415000D01*
X247485000Y-27415000D02*
X249085000Y-27415000D01*
X249085000Y-27415000D02*
X249085000Y-26815000D01*
X250025000Y-26815000D02*
X250025000Y-27415000D01*
X250025000Y-27415000D02*
X251625000Y-27415000D01*
X251625000Y-27415000D02*
X251625000Y-26815000D01*
%TO.C,J16*%
X251625000Y-35035000D02*
X251625000Y-34435000D01*
X250025000Y-35035000D02*
X251625000Y-35035000D01*
X250025000Y-34435000D02*
X250025000Y-35035000D01*
X249085000Y-35035000D02*
X249085000Y-34435000D01*
X247485000Y-35035000D02*
X249085000Y-35035000D01*
X247485000Y-34435000D02*
X247485000Y-35035000D01*
X246545000Y-35035000D02*
X246545000Y-34435000D01*
X244945000Y-35035000D02*
X246545000Y-35035000D01*
X244945000Y-34435000D02*
X244945000Y-35035000D01*
X250575000Y-40455000D02*
X250575000Y-39455000D01*
X245995000Y-40455000D02*
X245995000Y-39455000D01*
X250575000Y-38925000D02*
X250825000Y-39455000D01*
X245995000Y-38925000D02*
X250575000Y-38925000D01*
X245745000Y-39455000D02*
X245995000Y-38925000D01*
X250825000Y-39455000D02*
X250825000Y-40455000D01*
X245745000Y-39455000D02*
X250825000Y-39455000D01*
X245745000Y-40455000D02*
X245745000Y-39455000D01*
X244075000Y-35465000D02*
X244075000Y-39465000D01*
X252205000Y-34435000D02*
X244365000Y-34435000D01*
X252205000Y-40455000D02*
X252205000Y-34435000D01*
X244365000Y-40455000D02*
X252205000Y-40455000D01*
X244365000Y-34435000D02*
X244365000Y-40455000D01*
%TO.C,J17*%
X251625000Y-42655000D02*
X251625000Y-42055000D01*
X250025000Y-42655000D02*
X251625000Y-42655000D01*
X250025000Y-42055000D02*
X250025000Y-42655000D01*
X249085000Y-42655000D02*
X249085000Y-42055000D01*
X247485000Y-42655000D02*
X249085000Y-42655000D01*
X247485000Y-42055000D02*
X247485000Y-42655000D01*
X246545000Y-42655000D02*
X246545000Y-42055000D01*
X244945000Y-42655000D02*
X246545000Y-42655000D01*
X244945000Y-42055000D02*
X244945000Y-42655000D01*
X250575000Y-48075000D02*
X250575000Y-47075000D01*
X245995000Y-48075000D02*
X245995000Y-47075000D01*
X250575000Y-46545000D02*
X250825000Y-47075000D01*
X245995000Y-46545000D02*
X250575000Y-46545000D01*
X245745000Y-47075000D02*
X245995000Y-46545000D01*
X250825000Y-47075000D02*
X250825000Y-48075000D01*
X245745000Y-47075000D02*
X250825000Y-47075000D01*
X245745000Y-48075000D02*
X245745000Y-47075000D01*
X244075000Y-43085000D02*
X244075000Y-47085000D01*
X252205000Y-42055000D02*
X244365000Y-42055000D01*
X252205000Y-48075000D02*
X252205000Y-42055000D01*
X244365000Y-48075000D02*
X252205000Y-48075000D01*
X244365000Y-42055000D02*
X244365000Y-48075000D01*
%TO.C,J18*%
X263055000Y-35035000D02*
X263055000Y-34435000D01*
X261455000Y-35035000D02*
X263055000Y-35035000D01*
X261455000Y-34435000D02*
X261455000Y-35035000D01*
X260515000Y-35035000D02*
X260515000Y-34435000D01*
X258915000Y-35035000D02*
X260515000Y-35035000D01*
X258915000Y-34435000D02*
X258915000Y-35035000D01*
X257975000Y-35035000D02*
X257975000Y-34435000D01*
X256375000Y-35035000D02*
X257975000Y-35035000D01*
X256375000Y-34435000D02*
X256375000Y-35035000D01*
X262005000Y-40455000D02*
X262005000Y-39455000D01*
X257425000Y-40455000D02*
X257425000Y-39455000D01*
X262005000Y-38925000D02*
X262255000Y-39455000D01*
X257425000Y-38925000D02*
X262005000Y-38925000D01*
X257175000Y-39455000D02*
X257425000Y-38925000D01*
X262255000Y-39455000D02*
X262255000Y-40455000D01*
X257175000Y-39455000D02*
X262255000Y-39455000D01*
X257175000Y-40455000D02*
X257175000Y-39455000D01*
X255505000Y-35465000D02*
X255505000Y-39465000D01*
X263635000Y-34435000D02*
X255795000Y-34435000D01*
X263635000Y-40455000D02*
X263635000Y-34435000D01*
X255795000Y-40455000D02*
X263635000Y-40455000D01*
X255795000Y-34435000D02*
X255795000Y-40455000D01*
%TO.C,J19*%
X255795000Y-42055000D02*
X255795000Y-48075000D01*
X255795000Y-48075000D02*
X263635000Y-48075000D01*
X263635000Y-48075000D02*
X263635000Y-42055000D01*
X263635000Y-42055000D02*
X255795000Y-42055000D01*
X255505000Y-43085000D02*
X255505000Y-47085000D01*
X257175000Y-48075000D02*
X257175000Y-47075000D01*
X257175000Y-47075000D02*
X262255000Y-47075000D01*
X262255000Y-47075000D02*
X262255000Y-48075000D01*
X257175000Y-47075000D02*
X257425000Y-46545000D01*
X257425000Y-46545000D02*
X262005000Y-46545000D01*
X262005000Y-46545000D02*
X262255000Y-47075000D01*
X257425000Y-48075000D02*
X257425000Y-47075000D01*
X262005000Y-48075000D02*
X262005000Y-47075000D01*
X256375000Y-42055000D02*
X256375000Y-42655000D01*
X256375000Y-42655000D02*
X257975000Y-42655000D01*
X257975000Y-42655000D02*
X257975000Y-42055000D01*
X258915000Y-42055000D02*
X258915000Y-42655000D01*
X258915000Y-42655000D02*
X260515000Y-42655000D01*
X260515000Y-42655000D02*
X260515000Y-42055000D01*
X261455000Y-42055000D02*
X261455000Y-42655000D01*
X261455000Y-42655000D02*
X263055000Y-42655000D01*
X263055000Y-42655000D02*
X263055000Y-42055000D01*
%TO.C,J20*%
X255795000Y-19195000D02*
X255795000Y-25215000D01*
X255795000Y-25215000D02*
X263635000Y-25215000D01*
X263635000Y-25215000D02*
X263635000Y-19195000D01*
X263635000Y-19195000D02*
X255795000Y-19195000D01*
X255505000Y-20225000D02*
X255505000Y-24225000D01*
X257175000Y-25215000D02*
X257175000Y-24215000D01*
X257175000Y-24215000D02*
X262255000Y-24215000D01*
X262255000Y-24215000D02*
X262255000Y-25215000D01*
X257175000Y-24215000D02*
X257425000Y-23685000D01*
X257425000Y-23685000D02*
X262005000Y-23685000D01*
X262005000Y-23685000D02*
X262255000Y-24215000D01*
X257425000Y-25215000D02*
X257425000Y-24215000D01*
X262005000Y-25215000D02*
X262005000Y-24215000D01*
X256375000Y-19195000D02*
X256375000Y-19795000D01*
X256375000Y-19795000D02*
X257975000Y-19795000D01*
X257975000Y-19795000D02*
X257975000Y-19195000D01*
X258915000Y-19195000D02*
X258915000Y-19795000D01*
X258915000Y-19795000D02*
X260515000Y-19795000D01*
X260515000Y-19795000D02*
X260515000Y-19195000D01*
X261455000Y-19195000D02*
X261455000Y-19795000D01*
X261455000Y-19795000D02*
X263055000Y-19795000D01*
X263055000Y-19795000D02*
X263055000Y-19195000D01*
%TO.C,J21*%
X255795000Y-26815000D02*
X255795000Y-32835000D01*
X255795000Y-32835000D02*
X263635000Y-32835000D01*
X263635000Y-32835000D02*
X263635000Y-26815000D01*
X263635000Y-26815000D02*
X255795000Y-26815000D01*
X255505000Y-27845000D02*
X255505000Y-31845000D01*
X257175000Y-32835000D02*
X257175000Y-31835000D01*
X257175000Y-31835000D02*
X262255000Y-31835000D01*
X262255000Y-31835000D02*
X262255000Y-32835000D01*
X257175000Y-31835000D02*
X257425000Y-31305000D01*
X257425000Y-31305000D02*
X262005000Y-31305000D01*
X262005000Y-31305000D02*
X262255000Y-31835000D01*
X257425000Y-32835000D02*
X257425000Y-31835000D01*
X262005000Y-32835000D02*
X262005000Y-31835000D01*
X256375000Y-26815000D02*
X256375000Y-27415000D01*
X256375000Y-27415000D02*
X257975000Y-27415000D01*
X257975000Y-27415000D02*
X257975000Y-26815000D01*
X258915000Y-26815000D02*
X258915000Y-27415000D01*
X258915000Y-27415000D02*
X260515000Y-27415000D01*
X260515000Y-27415000D02*
X260515000Y-26815000D01*
X261455000Y-26815000D02*
X261455000Y-27415000D01*
X261455000Y-27415000D02*
X263055000Y-27415000D01*
X263055000Y-27415000D02*
X263055000Y-26815000D01*
%TO.C,J22*%
X198010000Y-45230000D02*
X198010000Y-51250000D01*
X198010000Y-51250000D02*
X203310000Y-51250000D01*
X203310000Y-51250000D02*
X203310000Y-45230000D01*
X203310000Y-45230000D02*
X198010000Y-45230000D01*
X197720000Y-46260000D02*
X197720000Y-50260000D01*
X199390000Y-51250000D02*
X199390000Y-50250000D01*
X199390000Y-50250000D02*
X201930000Y-50250000D01*
X201930000Y-50250000D02*
X201930000Y-51250000D01*
X199390000Y-50250000D02*
X199640000Y-49720000D01*
X199640000Y-49720000D02*
X201680000Y-49720000D01*
X201680000Y-49720000D02*
X201930000Y-50250000D01*
X199640000Y-51250000D02*
X199640000Y-50250000D01*
X201680000Y-51250000D02*
X201680000Y-50250000D01*
X198590000Y-45230000D02*
X198590000Y-45830000D01*
X198590000Y-45830000D02*
X200190000Y-45830000D01*
X200190000Y-45830000D02*
X200190000Y-45230000D01*
X201130000Y-45230000D02*
X201130000Y-45830000D01*
X201130000Y-45830000D02*
X202730000Y-45830000D01*
X202730000Y-45830000D02*
X202730000Y-45230000D01*
%TO.C,J23*%
X205630000Y-45230000D02*
X205630000Y-51250000D01*
X205630000Y-51250000D02*
X210930000Y-51250000D01*
X210930000Y-51250000D02*
X210930000Y-45230000D01*
X210930000Y-45230000D02*
X205630000Y-45230000D01*
X205340000Y-46260000D02*
X205340000Y-50260000D01*
X207010000Y-51250000D02*
X207010000Y-50250000D01*
X207010000Y-50250000D02*
X209550000Y-50250000D01*
X209550000Y-50250000D02*
X209550000Y-51250000D01*
X207010000Y-50250000D02*
X207260000Y-49720000D01*
X207260000Y-49720000D02*
X209300000Y-49720000D01*
X209300000Y-49720000D02*
X209550000Y-50250000D01*
X207260000Y-51250000D02*
X207260000Y-50250000D01*
X209300000Y-51250000D02*
X209300000Y-50250000D01*
X206210000Y-45230000D02*
X206210000Y-45830000D01*
X206210000Y-45830000D02*
X207810000Y-45830000D01*
X207810000Y-45830000D02*
X207810000Y-45230000D01*
X208750000Y-45230000D02*
X208750000Y-45830000D01*
X208750000Y-45830000D02*
X210350000Y-45830000D01*
X210350000Y-45830000D02*
X210350000Y-45230000D01*
%TO.C,J24*%
X217970000Y-45830000D02*
X217970000Y-45230000D01*
X216370000Y-45830000D02*
X217970000Y-45830000D01*
X216370000Y-45230000D02*
X216370000Y-45830000D01*
X215430000Y-45830000D02*
X215430000Y-45230000D01*
X213830000Y-45830000D02*
X215430000Y-45830000D01*
X213830000Y-45230000D02*
X213830000Y-45830000D01*
X216920000Y-51250000D02*
X216920000Y-50250000D01*
X214880000Y-51250000D02*
X214880000Y-50250000D01*
X216920000Y-49720000D02*
X217170000Y-50250000D01*
X214880000Y-49720000D02*
X216920000Y-49720000D01*
X214630000Y-50250000D02*
X214880000Y-49720000D01*
X217170000Y-50250000D02*
X217170000Y-51250000D01*
X214630000Y-50250000D02*
X217170000Y-50250000D01*
X214630000Y-51250000D02*
X214630000Y-50250000D01*
X212960000Y-46260000D02*
X212960000Y-50260000D01*
X218550000Y-45230000D02*
X213250000Y-45230000D01*
X218550000Y-51250000D02*
X218550000Y-45230000D01*
X213250000Y-51250000D02*
X218550000Y-51250000D01*
X213250000Y-45230000D02*
X213250000Y-51250000D01*
%TO.C,J25*%
X225590000Y-45830000D02*
X225590000Y-45230000D01*
X223990000Y-45830000D02*
X225590000Y-45830000D01*
X223990000Y-45230000D02*
X223990000Y-45830000D01*
X223050000Y-45830000D02*
X223050000Y-45230000D01*
X221450000Y-45830000D02*
X223050000Y-45830000D01*
X221450000Y-45230000D02*
X221450000Y-45830000D01*
X224540000Y-51250000D02*
X224540000Y-50250000D01*
X222500000Y-51250000D02*
X222500000Y-50250000D01*
X224540000Y-49720000D02*
X224790000Y-50250000D01*
X222500000Y-49720000D02*
X224540000Y-49720000D01*
X222250000Y-50250000D02*
X222500000Y-49720000D01*
X224790000Y-50250000D02*
X224790000Y-51250000D01*
X222250000Y-50250000D02*
X224790000Y-50250000D01*
X222250000Y-51250000D02*
X222250000Y-50250000D01*
X220580000Y-46260000D02*
X220580000Y-50260000D01*
X226170000Y-45230000D02*
X220870000Y-45230000D01*
X226170000Y-51250000D02*
X226170000Y-45230000D01*
X220870000Y-51250000D02*
X226170000Y-51250000D01*
X220870000Y-45230000D02*
X220870000Y-51250000D01*
%TO.C,J26*%
X274485000Y-35035000D02*
X274485000Y-34435000D01*
X272885000Y-35035000D02*
X274485000Y-35035000D01*
X272885000Y-34435000D02*
X272885000Y-35035000D01*
X271945000Y-35035000D02*
X271945000Y-34435000D01*
X270345000Y-35035000D02*
X271945000Y-35035000D01*
X270345000Y-34435000D02*
X270345000Y-35035000D01*
X269405000Y-35035000D02*
X269405000Y-34435000D01*
X267805000Y-35035000D02*
X269405000Y-35035000D01*
X267805000Y-34435000D02*
X267805000Y-35035000D01*
X273435000Y-40455000D02*
X273435000Y-39455000D01*
X268855000Y-40455000D02*
X268855000Y-39455000D01*
X273435000Y-38925000D02*
X273685000Y-39455000D01*
X268855000Y-38925000D02*
X273435000Y-38925000D01*
X268605000Y-39455000D02*
X268855000Y-38925000D01*
X273685000Y-39455000D02*
X273685000Y-40455000D01*
X268605000Y-39455000D02*
X273685000Y-39455000D01*
X268605000Y-40455000D02*
X268605000Y-39455000D01*
X266935000Y-35465000D02*
X266935000Y-39465000D01*
X275065000Y-34435000D02*
X267225000Y-34435000D01*
X275065000Y-40455000D02*
X275065000Y-34435000D01*
X267225000Y-40455000D02*
X275065000Y-40455000D01*
X267225000Y-34435000D02*
X267225000Y-40455000D01*
%TO.C,J27*%
X274485000Y-42655000D02*
X274485000Y-42055000D01*
X272885000Y-42655000D02*
X274485000Y-42655000D01*
X272885000Y-42055000D02*
X272885000Y-42655000D01*
X271945000Y-42655000D02*
X271945000Y-42055000D01*
X270345000Y-42655000D02*
X271945000Y-42655000D01*
X270345000Y-42055000D02*
X270345000Y-42655000D01*
X269405000Y-42655000D02*
X269405000Y-42055000D01*
X267805000Y-42655000D02*
X269405000Y-42655000D01*
X267805000Y-42055000D02*
X267805000Y-42655000D01*
X273435000Y-48075000D02*
X273435000Y-47075000D01*
X268855000Y-48075000D02*
X268855000Y-47075000D01*
X273435000Y-46545000D02*
X273685000Y-47075000D01*
X268855000Y-46545000D02*
X273435000Y-46545000D01*
X268605000Y-47075000D02*
X268855000Y-46545000D01*
X273685000Y-47075000D02*
X273685000Y-48075000D01*
X268605000Y-47075000D02*
X273685000Y-47075000D01*
X268605000Y-48075000D02*
X268605000Y-47075000D01*
X266935000Y-43085000D02*
X266935000Y-47085000D01*
X275065000Y-42055000D02*
X267225000Y-42055000D01*
X275065000Y-48075000D02*
X275065000Y-42055000D01*
X267225000Y-48075000D02*
X275065000Y-48075000D01*
X267225000Y-42055000D02*
X267225000Y-48075000D01*
%TO.C,J28*%
X274485000Y-19795000D02*
X274485000Y-19195000D01*
X272885000Y-19795000D02*
X274485000Y-19795000D01*
X272885000Y-19195000D02*
X272885000Y-19795000D01*
X271945000Y-19795000D02*
X271945000Y-19195000D01*
X270345000Y-19795000D02*
X271945000Y-19795000D01*
X270345000Y-19195000D02*
X270345000Y-19795000D01*
X269405000Y-19795000D02*
X269405000Y-19195000D01*
X267805000Y-19795000D02*
X269405000Y-19795000D01*
X267805000Y-19195000D02*
X267805000Y-19795000D01*
X273435000Y-25215000D02*
X273435000Y-24215000D01*
X268855000Y-25215000D02*
X268855000Y-24215000D01*
X273435000Y-23685000D02*
X273685000Y-24215000D01*
X268855000Y-23685000D02*
X273435000Y-23685000D01*
X268605000Y-24215000D02*
X268855000Y-23685000D01*
X273685000Y-24215000D02*
X273685000Y-25215000D01*
X268605000Y-24215000D02*
X273685000Y-24215000D01*
X268605000Y-25215000D02*
X268605000Y-24215000D01*
X266935000Y-20225000D02*
X266935000Y-24225000D01*
X275065000Y-19195000D02*
X267225000Y-19195000D01*
X275065000Y-25215000D02*
X275065000Y-19195000D01*
X267225000Y-25215000D02*
X275065000Y-25215000D01*
X267225000Y-19195000D02*
X267225000Y-25215000D01*
%TO.C,J29*%
X267225000Y-26815000D02*
X267225000Y-32835000D01*
X267225000Y-32835000D02*
X275065000Y-32835000D01*
X275065000Y-32835000D02*
X275065000Y-26815000D01*
X275065000Y-26815000D02*
X267225000Y-26815000D01*
X266935000Y-27845000D02*
X266935000Y-31845000D01*
X268605000Y-32835000D02*
X268605000Y-31835000D01*
X268605000Y-31835000D02*
X273685000Y-31835000D01*
X273685000Y-31835000D02*
X273685000Y-32835000D01*
X268605000Y-31835000D02*
X268855000Y-31305000D01*
X268855000Y-31305000D02*
X273435000Y-31305000D01*
X273435000Y-31305000D02*
X273685000Y-31835000D01*
X268855000Y-32835000D02*
X268855000Y-31835000D01*
X273435000Y-32835000D02*
X273435000Y-31835000D01*
X267805000Y-26815000D02*
X267805000Y-27415000D01*
X267805000Y-27415000D02*
X269405000Y-27415000D01*
X269405000Y-27415000D02*
X269405000Y-26815000D01*
X270345000Y-26815000D02*
X270345000Y-27415000D01*
X270345000Y-27415000D02*
X271945000Y-27415000D01*
X271945000Y-27415000D02*
X271945000Y-26815000D01*
X272885000Y-26815000D02*
X272885000Y-27415000D01*
X272885000Y-27415000D02*
X274485000Y-27415000D01*
X274485000Y-27415000D02*
X274485000Y-26815000D01*
%TO.C,JP1*%
X224850000Y-23555000D02*
X223520000Y-23555000D01*
X224850000Y-22225000D02*
X224850000Y-23555000D01*
X224850000Y-20955000D02*
X222190000Y-20955000D01*
X222190000Y-20955000D02*
X222190000Y-15815000D01*
X224850000Y-20955000D02*
X224850000Y-15815000D01*
X224850000Y-15815000D02*
X222190000Y-15815000D01*
%TO.C,JP2*%
X186115000Y-15815000D02*
X183455000Y-15815000D01*
X186115000Y-20955000D02*
X186115000Y-15815000D01*
X183455000Y-20955000D02*
X183455000Y-15815000D01*
X186115000Y-20955000D02*
X183455000Y-20955000D01*
X186115000Y-22225000D02*
X186115000Y-23555000D01*
X186115000Y-23555000D02*
X184785000Y-23555000D01*
%TO.C,R1*%
X163922064Y-63775000D02*
X162467936Y-63775000D01*
X163922064Y-61955000D02*
X162467936Y-61955000D01*
%TO.C,R2*%
X162285000Y-50707936D02*
X162285000Y-52162064D01*
X164105000Y-50707936D02*
X164105000Y-52162064D01*
%TO.C,U1*%
X204275000Y-36195000D02*
X204275000Y-39795000D01*
X204275000Y-36195000D02*
X204275000Y-33995000D01*
X209745000Y-36195000D02*
X209745000Y-38395000D01*
X209745000Y-36195000D02*
X209745000Y-33995000D01*
%TO.C,U2*%
X197045000Y-36195000D02*
X197045000Y-33995000D01*
X197045000Y-36195000D02*
X197045000Y-38395000D01*
X191575000Y-36195000D02*
X191575000Y-33995000D01*
X191575000Y-36195000D02*
X191575000Y-39795000D01*
%TO.C,U3*%
X177920000Y-29030000D02*
X177920000Y-27530000D01*
X177920000Y-27530000D02*
X176970000Y-27530000D01*
X176970000Y-27530000D02*
X176970000Y-22405000D01*
X167520000Y-29030000D02*
X167520000Y-27530000D01*
X167520000Y-27530000D02*
X168470000Y-27530000D01*
X168470000Y-27530000D02*
X168470000Y-26430000D01*
%TO.C,U4*%
X215245000Y-27305000D02*
X215245000Y-25355000D01*
X215245000Y-27305000D02*
X215245000Y-29255000D01*
X205125000Y-27305000D02*
X205125000Y-25355000D01*
X205125000Y-27305000D02*
X205125000Y-30755000D01*
%TO.C,U5*%
X201910000Y-27305000D02*
X201910000Y-25355000D01*
X201910000Y-27305000D02*
X201910000Y-29255000D01*
X191790000Y-27305000D02*
X191790000Y-25355000D01*
X191790000Y-27305000D02*
X191790000Y-30755000D01*
%TO.C,U6*%
X253365000Y-62110000D02*
X255675000Y-62110000D01*
X255675000Y-62110000D02*
X255675000Y-61835000D01*
X253365000Y-62110000D02*
X251055000Y-62110000D01*
X251055000Y-62110000D02*
X251055000Y-61835000D01*
X253365000Y-52190000D02*
X255675000Y-52190000D01*
X255675000Y-52190000D02*
X255675000Y-52465000D01*
X253365000Y-52190000D02*
X251055000Y-52190000D01*
X251055000Y-52190000D02*
X251055000Y-52465000D01*
X251055000Y-52465000D02*
X249765000Y-52465000D01*
%TO.C,U7*%
X203200000Y-55860000D02*
X201250000Y-55860000D01*
X203200000Y-55860000D02*
X205150000Y-55860000D01*
X203200000Y-60980000D02*
X201250000Y-60980000D01*
X203200000Y-60980000D02*
X206650000Y-60980000D01*
%TO.C,U8*%
X209570000Y-58420000D02*
X209570000Y-61870000D01*
X209570000Y-58420000D02*
X209570000Y-56470000D01*
X219690000Y-58420000D02*
X219690000Y-60370000D01*
X219690000Y-58420000D02*
X219690000Y-56470000D01*
%TO.C,L1*%
X182755000Y-53975000D02*
G75*
G03*
X182755000Y-53975000I-2630000J0D01*
G01*
X192216849Y-51615000D02*
G75*
G03*
X168033152Y-51615000I-12091849J-2360000D01*
G01*
X192216849Y-56335000D02*
G75*
G02*
X168033152Y-56335000I-12091849J2360000D01*
G01*
%TO.C,D4*%
X161635000Y-58865000D02*
X161635000Y-59021000D01*
X161635000Y-56549000D02*
X161635000Y-56705000D01*
X164867335Y-56706392D02*
G75*
G03*
X161635000Y-56549484I-1672335J-1078608D01*
G01*
X164867335Y-58863608D02*
G75*
G02*
X161635000Y-59020516I-1672335J1078608D01*
G01*
X164236130Y-56705163D02*
G75*
G03*
X162154039Y-56705000I-1041130J-1079837D01*
G01*
X164236130Y-58864837D02*
G75*
G02*
X162154039Y-58865000I-1041130J1079837D01*
G01*
%TO.C,R3*%
X237397936Y-64410000D02*
X238852064Y-64410000D01*
X237397936Y-62590000D02*
X238852064Y-62590000D01*
%TO.C,R4*%
X222792936Y-63225000D02*
X224247064Y-63225000D01*
X222792936Y-65045000D02*
X224247064Y-65045000D01*
%TO.C,R5*%
X163922064Y-64495000D02*
X162467936Y-64495000D01*
X163922064Y-66315000D02*
X162467936Y-66315000D01*
%TO.C,C4*%
D10*
X233243333Y-56932142D02*
X233195714Y-56979761D01*
X233052857Y-57027380D01*
X232957619Y-57027380D01*
X232814761Y-56979761D01*
X232719523Y-56884523D01*
X232671904Y-56789285D01*
X232624285Y-56598809D01*
X232624285Y-56455952D01*
X232671904Y-56265476D01*
X232719523Y-56170238D01*
X232814761Y-56075000D01*
X232957619Y-56027380D01*
X233052857Y-56027380D01*
X233195714Y-56075000D01*
X233243333Y-56122619D01*
X234100476Y-56360714D02*
X234100476Y-57027380D01*
X233862380Y-55979761D02*
X233624285Y-56694047D01*
X234243333Y-56694047D01*
%TO.C,C6*%
X232878333Y-51847142D02*
X232830714Y-51894761D01*
X232687857Y-51942380D01*
X232592619Y-51942380D01*
X232449761Y-51894761D01*
X232354523Y-51799523D01*
X232306904Y-51704285D01*
X232259285Y-51513809D01*
X232259285Y-51370952D01*
X232306904Y-51180476D01*
X232354523Y-51085238D01*
X232449761Y-50990000D01*
X232592619Y-50942380D01*
X232687857Y-50942380D01*
X232830714Y-50990000D01*
X232878333Y-51037619D01*
X233735476Y-50942380D02*
X233545000Y-50942380D01*
X233449761Y-50990000D01*
X233402142Y-51037619D01*
X233306904Y-51180476D01*
X233259285Y-51370952D01*
X233259285Y-51751904D01*
X233306904Y-51847142D01*
X233354523Y-51894761D01*
X233449761Y-51942380D01*
X233640238Y-51942380D01*
X233735476Y-51894761D01*
X233783095Y-51847142D01*
X233830714Y-51751904D01*
X233830714Y-51513809D01*
X233783095Y-51418571D01*
X233735476Y-51370952D01*
X233640238Y-51323333D01*
X233449761Y-51323333D01*
X233354523Y-51370952D01*
X233306904Y-51418571D01*
X233259285Y-51513809D01*
%TO.C,R3*%
X237958333Y-62132380D02*
X237625000Y-61656190D01*
X237386904Y-62132380D02*
X237386904Y-61132380D01*
X237767857Y-61132380D01*
X237863095Y-61180000D01*
X237910714Y-61227619D01*
X237958333Y-61322857D01*
X237958333Y-61465714D01*
X237910714Y-61560952D01*
X237863095Y-61608571D01*
X237767857Y-61656190D01*
X237386904Y-61656190D01*
X238291666Y-61132380D02*
X238910714Y-61132380D01*
X238577380Y-61513333D01*
X238720238Y-61513333D01*
X238815476Y-61560952D01*
X238863095Y-61608571D01*
X238910714Y-61703809D01*
X238910714Y-61941904D01*
X238863095Y-62037142D01*
X238815476Y-62084761D01*
X238720238Y-62132380D01*
X238434523Y-62132380D01*
X238339285Y-62084761D01*
X238291666Y-62037142D01*
%TO.C,R4*%
X223353333Y-62767380D02*
X223020000Y-62291190D01*
X222781904Y-62767380D02*
X222781904Y-61767380D01*
X223162857Y-61767380D01*
X223258095Y-61815000D01*
X223305714Y-61862619D01*
X223353333Y-61957857D01*
X223353333Y-62100714D01*
X223305714Y-62195952D01*
X223258095Y-62243571D01*
X223162857Y-62291190D01*
X222781904Y-62291190D01*
X224210476Y-62100714D02*
X224210476Y-62767380D01*
X223972380Y-61719761D02*
X223734285Y-62434047D01*
X224353333Y-62434047D01*
%TD*%
M02*
