%TF.GenerationSoftware,KiCad,Pcbnew,5.1.9+dfsg1-1*%
%TF.CreationDate,2021-10-02T14:14:08+02:00*%
%TF.ProjectId,accessory_board,61636365-7373-46f7-9279-5f626f617264,rev?*%
%TF.SameCoordinates,Original*%
%TF.FileFunction,Paste,Top*%
%TF.FilePolarity,Positive*%
%FSLAX46Y46*%
G04 Gerber Fmt 4.6, Leading zero omitted, Abs format (unit mm)*
G04 Created by KiCad (PCBNEW 5.1.9+dfsg1-1) date 2021-10-02 14:14:08*
%MOMM*%
%LPD*%
G01*
G04 APERTURE LIST*
%ADD10R,2.300000X3.500000*%
%ADD11R,1.100000X4.600000*%
%ADD12R,5.250000X4.550000*%
G04 APERTURE END LIST*
%TO.C,C1*%
G36*
G01*
X200009999Y-32700000D02*
X201310001Y-32700000D01*
G75*
G02*
X201560000Y-32949999I0J-249999D01*
G01*
X201560000Y-33775001D01*
G75*
G02*
X201310001Y-34025000I-249999J0D01*
G01*
X200009999Y-34025000D01*
G75*
G02*
X199760000Y-33775001I0J249999D01*
G01*
X199760000Y-32949999D01*
G75*
G02*
X200009999Y-32700000I249999J0D01*
G01*
G37*
G36*
G01*
X200009999Y-35825000D02*
X201310001Y-35825000D01*
G75*
G02*
X201560000Y-36074999I0J-249999D01*
G01*
X201560000Y-36900001D01*
G75*
G02*
X201310001Y-37150000I-249999J0D01*
G01*
X200009999Y-37150000D01*
G75*
G02*
X199760000Y-36900001I0J249999D01*
G01*
X199760000Y-36074999D01*
G75*
G02*
X200009999Y-35825000I249999J0D01*
G01*
G37*
%TD*%
%TO.C,C3*%
G36*
G01*
X159015000Y-34940001D02*
X159015000Y-33639999D01*
G75*
G02*
X159264999Y-33390000I249999J0D01*
G01*
X160090001Y-33390000D01*
G75*
G02*
X160340000Y-33639999I0J-249999D01*
G01*
X160340000Y-34940001D01*
G75*
G02*
X160090001Y-35190000I-249999J0D01*
G01*
X159264999Y-35190000D01*
G75*
G02*
X159015000Y-34940001I0J249999D01*
G01*
G37*
G36*
G01*
X155890000Y-34940001D02*
X155890000Y-33639999D01*
G75*
G02*
X156139999Y-33390000I249999J0D01*
G01*
X156965001Y-33390000D01*
G75*
G02*
X157215000Y-33639999I0J-249999D01*
G01*
X157215000Y-34940001D01*
G75*
G02*
X156965001Y-35190000I-249999J0D01*
G01*
X156139999Y-35190000D01*
G75*
G02*
X155890000Y-34940001I0J249999D01*
G01*
G37*
%TD*%
%TO.C,C6*%
G36*
G01*
X230820000Y-53990001D02*
X230820000Y-52689999D01*
G75*
G02*
X231069999Y-52440000I249999J0D01*
G01*
X231895001Y-52440000D01*
G75*
G02*
X232145000Y-52689999I0J-249999D01*
G01*
X232145000Y-53990001D01*
G75*
G02*
X231895001Y-54240000I-249999J0D01*
G01*
X231069999Y-54240000D01*
G75*
G02*
X230820000Y-53990001I0J249999D01*
G01*
G37*
G36*
G01*
X233945000Y-53990001D02*
X233945000Y-52689999D01*
G75*
G02*
X234194999Y-52440000I249999J0D01*
G01*
X235020001Y-52440000D01*
G75*
G02*
X235270000Y-52689999I0J-249999D01*
G01*
X235270000Y-53990001D01*
G75*
G02*
X235020001Y-54240000I-249999J0D01*
G01*
X234194999Y-54240000D01*
G75*
G02*
X233945000Y-53990001I0J249999D01*
G01*
G37*
%TD*%
%TO.C,C7*%
G36*
G01*
X252415000Y-62849999D02*
X252415000Y-64150001D01*
G75*
G02*
X252165001Y-64400000I-249999J0D01*
G01*
X251339999Y-64400000D01*
G75*
G02*
X251090000Y-64150001I0J249999D01*
G01*
X251090000Y-62849999D01*
G75*
G02*
X251339999Y-62600000I249999J0D01*
G01*
X252165001Y-62600000D01*
G75*
G02*
X252415000Y-62849999I0J-249999D01*
G01*
G37*
G36*
G01*
X249290000Y-62849999D02*
X249290000Y-64150001D01*
G75*
G02*
X249040001Y-64400000I-249999J0D01*
G01*
X248214999Y-64400000D01*
G75*
G02*
X247965000Y-64150001I0J249999D01*
G01*
X247965000Y-62849999D01*
G75*
G02*
X248214999Y-62600000I249999J0D01*
G01*
X249040001Y-62600000D01*
G75*
G02*
X249290000Y-62849999I0J-249999D01*
G01*
G37*
%TD*%
%TO.C,C8*%
G36*
G01*
X223535001Y-57520000D02*
X222234999Y-57520000D01*
G75*
G02*
X221985000Y-57270001I0J249999D01*
G01*
X221985000Y-56444999D01*
G75*
G02*
X222234999Y-56195000I249999J0D01*
G01*
X223535001Y-56195000D01*
G75*
G02*
X223785000Y-56444999I0J-249999D01*
G01*
X223785000Y-57270001D01*
G75*
G02*
X223535001Y-57520000I-249999J0D01*
G01*
G37*
G36*
G01*
X223535001Y-60645000D02*
X222234999Y-60645000D01*
G75*
G02*
X221985000Y-60395001I0J249999D01*
G01*
X221985000Y-59569999D01*
G75*
G02*
X222234999Y-59320000I249999J0D01*
G01*
X223535001Y-59320000D01*
G75*
G02*
X223785000Y-59569999I0J-249999D01*
G01*
X223785000Y-60395001D01*
G75*
G02*
X223535001Y-60645000I-249999J0D01*
G01*
G37*
%TD*%
D10*
%TO.C,D2*%
X163195000Y-40800000D03*
X163195000Y-35400000D03*
%TD*%
%TO.C,R1*%
G36*
G01*
X165395000Y-62240000D02*
X165395000Y-63490000D01*
G75*
G02*
X165145000Y-63740000I-250000J0D01*
G01*
X164345000Y-63740000D01*
G75*
G02*
X164095000Y-63490000I0J250000D01*
G01*
X164095000Y-62240000D01*
G75*
G02*
X164345000Y-61990000I250000J0D01*
G01*
X165145000Y-61990000D01*
G75*
G02*
X165395000Y-62240000I0J-250000D01*
G01*
G37*
G36*
G01*
X162295000Y-62240000D02*
X162295000Y-63490000D01*
G75*
G02*
X162045000Y-63740000I-250000J0D01*
G01*
X161245000Y-63740000D01*
G75*
G02*
X160995000Y-63490000I0J250000D01*
G01*
X160995000Y-62240000D01*
G75*
G02*
X161245000Y-61990000I250000J0D01*
G01*
X162045000Y-61990000D01*
G75*
G02*
X162295000Y-62240000I0J-250000D01*
G01*
G37*
%TD*%
%TO.C,R2*%
G36*
G01*
X162570000Y-52335000D02*
X163820000Y-52335000D01*
G75*
G02*
X164070000Y-52585000I0J-250000D01*
G01*
X164070000Y-53385000D01*
G75*
G02*
X163820000Y-53635000I-250000J0D01*
G01*
X162570000Y-53635000D01*
G75*
G02*
X162320000Y-53385000I0J250000D01*
G01*
X162320000Y-52585000D01*
G75*
G02*
X162570000Y-52335000I250000J0D01*
G01*
G37*
G36*
G01*
X162570000Y-49235000D02*
X163820000Y-49235000D01*
G75*
G02*
X164070000Y-49485000I0J-250000D01*
G01*
X164070000Y-50285000D01*
G75*
G02*
X163820000Y-50535000I-250000J0D01*
G01*
X162570000Y-50535000D01*
G75*
G02*
X162320000Y-50285000I0J250000D01*
G01*
X162320000Y-49485000D01*
G75*
G02*
X162570000Y-49235000I250000J0D01*
G01*
G37*
%TD*%
%TO.C,U1*%
G36*
G01*
X204835000Y-34070000D02*
X204635000Y-34070000D01*
G75*
G02*
X204535000Y-33970000I0J100000D01*
G01*
X204535000Y-32695000D01*
G75*
G02*
X204635000Y-32595000I100000J0D01*
G01*
X204835000Y-32595000D01*
G75*
G02*
X204935000Y-32695000I0J-100000D01*
G01*
X204935000Y-33970000D01*
G75*
G02*
X204835000Y-34070000I-100000J0D01*
G01*
G37*
G36*
G01*
X205485000Y-34070000D02*
X205285000Y-34070000D01*
G75*
G02*
X205185000Y-33970000I0J100000D01*
G01*
X205185000Y-32695000D01*
G75*
G02*
X205285000Y-32595000I100000J0D01*
G01*
X205485000Y-32595000D01*
G75*
G02*
X205585000Y-32695000I0J-100000D01*
G01*
X205585000Y-33970000D01*
G75*
G02*
X205485000Y-34070000I-100000J0D01*
G01*
G37*
G36*
G01*
X206135000Y-34070000D02*
X205935000Y-34070000D01*
G75*
G02*
X205835000Y-33970000I0J100000D01*
G01*
X205835000Y-32695000D01*
G75*
G02*
X205935000Y-32595000I100000J0D01*
G01*
X206135000Y-32595000D01*
G75*
G02*
X206235000Y-32695000I0J-100000D01*
G01*
X206235000Y-33970000D01*
G75*
G02*
X206135000Y-34070000I-100000J0D01*
G01*
G37*
G36*
G01*
X206785000Y-34070000D02*
X206585000Y-34070000D01*
G75*
G02*
X206485000Y-33970000I0J100000D01*
G01*
X206485000Y-32695000D01*
G75*
G02*
X206585000Y-32595000I100000J0D01*
G01*
X206785000Y-32595000D01*
G75*
G02*
X206885000Y-32695000I0J-100000D01*
G01*
X206885000Y-33970000D01*
G75*
G02*
X206785000Y-34070000I-100000J0D01*
G01*
G37*
G36*
G01*
X207435000Y-34070000D02*
X207235000Y-34070000D01*
G75*
G02*
X207135000Y-33970000I0J100000D01*
G01*
X207135000Y-32695000D01*
G75*
G02*
X207235000Y-32595000I100000J0D01*
G01*
X207435000Y-32595000D01*
G75*
G02*
X207535000Y-32695000I0J-100000D01*
G01*
X207535000Y-33970000D01*
G75*
G02*
X207435000Y-34070000I-100000J0D01*
G01*
G37*
G36*
G01*
X208085000Y-34070000D02*
X207885000Y-34070000D01*
G75*
G02*
X207785000Y-33970000I0J100000D01*
G01*
X207785000Y-32695000D01*
G75*
G02*
X207885000Y-32595000I100000J0D01*
G01*
X208085000Y-32595000D01*
G75*
G02*
X208185000Y-32695000I0J-100000D01*
G01*
X208185000Y-33970000D01*
G75*
G02*
X208085000Y-34070000I-100000J0D01*
G01*
G37*
G36*
G01*
X208735000Y-34070000D02*
X208535000Y-34070000D01*
G75*
G02*
X208435000Y-33970000I0J100000D01*
G01*
X208435000Y-32695000D01*
G75*
G02*
X208535000Y-32595000I100000J0D01*
G01*
X208735000Y-32595000D01*
G75*
G02*
X208835000Y-32695000I0J-100000D01*
G01*
X208835000Y-33970000D01*
G75*
G02*
X208735000Y-34070000I-100000J0D01*
G01*
G37*
G36*
G01*
X209385000Y-34070000D02*
X209185000Y-34070000D01*
G75*
G02*
X209085000Y-33970000I0J100000D01*
G01*
X209085000Y-32695000D01*
G75*
G02*
X209185000Y-32595000I100000J0D01*
G01*
X209385000Y-32595000D01*
G75*
G02*
X209485000Y-32695000I0J-100000D01*
G01*
X209485000Y-33970000D01*
G75*
G02*
X209385000Y-34070000I-100000J0D01*
G01*
G37*
G36*
G01*
X209385000Y-39795000D02*
X209185000Y-39795000D01*
G75*
G02*
X209085000Y-39695000I0J100000D01*
G01*
X209085000Y-38420000D01*
G75*
G02*
X209185000Y-38320000I100000J0D01*
G01*
X209385000Y-38320000D01*
G75*
G02*
X209485000Y-38420000I0J-100000D01*
G01*
X209485000Y-39695000D01*
G75*
G02*
X209385000Y-39795000I-100000J0D01*
G01*
G37*
G36*
G01*
X208735000Y-39795000D02*
X208535000Y-39795000D01*
G75*
G02*
X208435000Y-39695000I0J100000D01*
G01*
X208435000Y-38420000D01*
G75*
G02*
X208535000Y-38320000I100000J0D01*
G01*
X208735000Y-38320000D01*
G75*
G02*
X208835000Y-38420000I0J-100000D01*
G01*
X208835000Y-39695000D01*
G75*
G02*
X208735000Y-39795000I-100000J0D01*
G01*
G37*
G36*
G01*
X208085000Y-39795000D02*
X207885000Y-39795000D01*
G75*
G02*
X207785000Y-39695000I0J100000D01*
G01*
X207785000Y-38420000D01*
G75*
G02*
X207885000Y-38320000I100000J0D01*
G01*
X208085000Y-38320000D01*
G75*
G02*
X208185000Y-38420000I0J-100000D01*
G01*
X208185000Y-39695000D01*
G75*
G02*
X208085000Y-39795000I-100000J0D01*
G01*
G37*
G36*
G01*
X207435000Y-39795000D02*
X207235000Y-39795000D01*
G75*
G02*
X207135000Y-39695000I0J100000D01*
G01*
X207135000Y-38420000D01*
G75*
G02*
X207235000Y-38320000I100000J0D01*
G01*
X207435000Y-38320000D01*
G75*
G02*
X207535000Y-38420000I0J-100000D01*
G01*
X207535000Y-39695000D01*
G75*
G02*
X207435000Y-39795000I-100000J0D01*
G01*
G37*
G36*
G01*
X206785000Y-39795000D02*
X206585000Y-39795000D01*
G75*
G02*
X206485000Y-39695000I0J100000D01*
G01*
X206485000Y-38420000D01*
G75*
G02*
X206585000Y-38320000I100000J0D01*
G01*
X206785000Y-38320000D01*
G75*
G02*
X206885000Y-38420000I0J-100000D01*
G01*
X206885000Y-39695000D01*
G75*
G02*
X206785000Y-39795000I-100000J0D01*
G01*
G37*
G36*
G01*
X206135000Y-39795000D02*
X205935000Y-39795000D01*
G75*
G02*
X205835000Y-39695000I0J100000D01*
G01*
X205835000Y-38420000D01*
G75*
G02*
X205935000Y-38320000I100000J0D01*
G01*
X206135000Y-38320000D01*
G75*
G02*
X206235000Y-38420000I0J-100000D01*
G01*
X206235000Y-39695000D01*
G75*
G02*
X206135000Y-39795000I-100000J0D01*
G01*
G37*
G36*
G01*
X205485000Y-39795000D02*
X205285000Y-39795000D01*
G75*
G02*
X205185000Y-39695000I0J100000D01*
G01*
X205185000Y-38420000D01*
G75*
G02*
X205285000Y-38320000I100000J0D01*
G01*
X205485000Y-38320000D01*
G75*
G02*
X205585000Y-38420000I0J-100000D01*
G01*
X205585000Y-39695000D01*
G75*
G02*
X205485000Y-39795000I-100000J0D01*
G01*
G37*
G36*
G01*
X204835000Y-39795000D02*
X204635000Y-39795000D01*
G75*
G02*
X204535000Y-39695000I0J100000D01*
G01*
X204535000Y-38420000D01*
G75*
G02*
X204635000Y-38320000I100000J0D01*
G01*
X204835000Y-38320000D01*
G75*
G02*
X204935000Y-38420000I0J-100000D01*
G01*
X204935000Y-39695000D01*
G75*
G02*
X204835000Y-39795000I-100000J0D01*
G01*
G37*
%TD*%
%TO.C,U2*%
G36*
G01*
X192135000Y-39795000D02*
X191935000Y-39795000D01*
G75*
G02*
X191835000Y-39695000I0J100000D01*
G01*
X191835000Y-38420000D01*
G75*
G02*
X191935000Y-38320000I100000J0D01*
G01*
X192135000Y-38320000D01*
G75*
G02*
X192235000Y-38420000I0J-100000D01*
G01*
X192235000Y-39695000D01*
G75*
G02*
X192135000Y-39795000I-100000J0D01*
G01*
G37*
G36*
G01*
X192785000Y-39795000D02*
X192585000Y-39795000D01*
G75*
G02*
X192485000Y-39695000I0J100000D01*
G01*
X192485000Y-38420000D01*
G75*
G02*
X192585000Y-38320000I100000J0D01*
G01*
X192785000Y-38320000D01*
G75*
G02*
X192885000Y-38420000I0J-100000D01*
G01*
X192885000Y-39695000D01*
G75*
G02*
X192785000Y-39795000I-100000J0D01*
G01*
G37*
G36*
G01*
X193435000Y-39795000D02*
X193235000Y-39795000D01*
G75*
G02*
X193135000Y-39695000I0J100000D01*
G01*
X193135000Y-38420000D01*
G75*
G02*
X193235000Y-38320000I100000J0D01*
G01*
X193435000Y-38320000D01*
G75*
G02*
X193535000Y-38420000I0J-100000D01*
G01*
X193535000Y-39695000D01*
G75*
G02*
X193435000Y-39795000I-100000J0D01*
G01*
G37*
G36*
G01*
X194085000Y-39795000D02*
X193885000Y-39795000D01*
G75*
G02*
X193785000Y-39695000I0J100000D01*
G01*
X193785000Y-38420000D01*
G75*
G02*
X193885000Y-38320000I100000J0D01*
G01*
X194085000Y-38320000D01*
G75*
G02*
X194185000Y-38420000I0J-100000D01*
G01*
X194185000Y-39695000D01*
G75*
G02*
X194085000Y-39795000I-100000J0D01*
G01*
G37*
G36*
G01*
X194735000Y-39795000D02*
X194535000Y-39795000D01*
G75*
G02*
X194435000Y-39695000I0J100000D01*
G01*
X194435000Y-38420000D01*
G75*
G02*
X194535000Y-38320000I100000J0D01*
G01*
X194735000Y-38320000D01*
G75*
G02*
X194835000Y-38420000I0J-100000D01*
G01*
X194835000Y-39695000D01*
G75*
G02*
X194735000Y-39795000I-100000J0D01*
G01*
G37*
G36*
G01*
X195385000Y-39795000D02*
X195185000Y-39795000D01*
G75*
G02*
X195085000Y-39695000I0J100000D01*
G01*
X195085000Y-38420000D01*
G75*
G02*
X195185000Y-38320000I100000J0D01*
G01*
X195385000Y-38320000D01*
G75*
G02*
X195485000Y-38420000I0J-100000D01*
G01*
X195485000Y-39695000D01*
G75*
G02*
X195385000Y-39795000I-100000J0D01*
G01*
G37*
G36*
G01*
X196035000Y-39795000D02*
X195835000Y-39795000D01*
G75*
G02*
X195735000Y-39695000I0J100000D01*
G01*
X195735000Y-38420000D01*
G75*
G02*
X195835000Y-38320000I100000J0D01*
G01*
X196035000Y-38320000D01*
G75*
G02*
X196135000Y-38420000I0J-100000D01*
G01*
X196135000Y-39695000D01*
G75*
G02*
X196035000Y-39795000I-100000J0D01*
G01*
G37*
G36*
G01*
X196685000Y-39795000D02*
X196485000Y-39795000D01*
G75*
G02*
X196385000Y-39695000I0J100000D01*
G01*
X196385000Y-38420000D01*
G75*
G02*
X196485000Y-38320000I100000J0D01*
G01*
X196685000Y-38320000D01*
G75*
G02*
X196785000Y-38420000I0J-100000D01*
G01*
X196785000Y-39695000D01*
G75*
G02*
X196685000Y-39795000I-100000J0D01*
G01*
G37*
G36*
G01*
X196685000Y-34070000D02*
X196485000Y-34070000D01*
G75*
G02*
X196385000Y-33970000I0J100000D01*
G01*
X196385000Y-32695000D01*
G75*
G02*
X196485000Y-32595000I100000J0D01*
G01*
X196685000Y-32595000D01*
G75*
G02*
X196785000Y-32695000I0J-100000D01*
G01*
X196785000Y-33970000D01*
G75*
G02*
X196685000Y-34070000I-100000J0D01*
G01*
G37*
G36*
G01*
X196035000Y-34070000D02*
X195835000Y-34070000D01*
G75*
G02*
X195735000Y-33970000I0J100000D01*
G01*
X195735000Y-32695000D01*
G75*
G02*
X195835000Y-32595000I100000J0D01*
G01*
X196035000Y-32595000D01*
G75*
G02*
X196135000Y-32695000I0J-100000D01*
G01*
X196135000Y-33970000D01*
G75*
G02*
X196035000Y-34070000I-100000J0D01*
G01*
G37*
G36*
G01*
X195385000Y-34070000D02*
X195185000Y-34070000D01*
G75*
G02*
X195085000Y-33970000I0J100000D01*
G01*
X195085000Y-32695000D01*
G75*
G02*
X195185000Y-32595000I100000J0D01*
G01*
X195385000Y-32595000D01*
G75*
G02*
X195485000Y-32695000I0J-100000D01*
G01*
X195485000Y-33970000D01*
G75*
G02*
X195385000Y-34070000I-100000J0D01*
G01*
G37*
G36*
G01*
X194735000Y-34070000D02*
X194535000Y-34070000D01*
G75*
G02*
X194435000Y-33970000I0J100000D01*
G01*
X194435000Y-32695000D01*
G75*
G02*
X194535000Y-32595000I100000J0D01*
G01*
X194735000Y-32595000D01*
G75*
G02*
X194835000Y-32695000I0J-100000D01*
G01*
X194835000Y-33970000D01*
G75*
G02*
X194735000Y-34070000I-100000J0D01*
G01*
G37*
G36*
G01*
X194085000Y-34070000D02*
X193885000Y-34070000D01*
G75*
G02*
X193785000Y-33970000I0J100000D01*
G01*
X193785000Y-32695000D01*
G75*
G02*
X193885000Y-32595000I100000J0D01*
G01*
X194085000Y-32595000D01*
G75*
G02*
X194185000Y-32695000I0J-100000D01*
G01*
X194185000Y-33970000D01*
G75*
G02*
X194085000Y-34070000I-100000J0D01*
G01*
G37*
G36*
G01*
X193435000Y-34070000D02*
X193235000Y-34070000D01*
G75*
G02*
X193135000Y-33970000I0J100000D01*
G01*
X193135000Y-32695000D01*
G75*
G02*
X193235000Y-32595000I100000J0D01*
G01*
X193435000Y-32595000D01*
G75*
G02*
X193535000Y-32695000I0J-100000D01*
G01*
X193535000Y-33970000D01*
G75*
G02*
X193435000Y-34070000I-100000J0D01*
G01*
G37*
G36*
G01*
X192785000Y-34070000D02*
X192585000Y-34070000D01*
G75*
G02*
X192485000Y-33970000I0J100000D01*
G01*
X192485000Y-32695000D01*
G75*
G02*
X192585000Y-32595000I100000J0D01*
G01*
X192785000Y-32595000D01*
G75*
G02*
X192885000Y-32695000I0J-100000D01*
G01*
X192885000Y-33970000D01*
G75*
G02*
X192785000Y-34070000I-100000J0D01*
G01*
G37*
G36*
G01*
X192135000Y-34070000D02*
X191935000Y-34070000D01*
G75*
G02*
X191835000Y-33970000I0J100000D01*
G01*
X191835000Y-32695000D01*
G75*
G02*
X191935000Y-32595000I100000J0D01*
G01*
X192135000Y-32595000D01*
G75*
G02*
X192235000Y-32695000I0J-100000D01*
G01*
X192235000Y-33970000D01*
G75*
G02*
X192135000Y-34070000I-100000J0D01*
G01*
G37*
%TD*%
D11*
%TO.C,U3*%
X176120000Y-24705000D03*
X174420000Y-24705000D03*
X172720000Y-24705000D03*
X171020000Y-24705000D03*
X169320000Y-24705000D03*
D12*
X169945000Y-36280000D03*
X175495000Y-31430000D03*
X175495000Y-36280000D03*
X169945000Y-31430000D03*
%TD*%
%TO.C,U4*%
G36*
G01*
X205890000Y-30755000D02*
X205590000Y-30755000D01*
G75*
G02*
X205440000Y-30605000I0J150000D01*
G01*
X205440000Y-29155000D01*
G75*
G02*
X205590000Y-29005000I150000J0D01*
G01*
X205890000Y-29005000D01*
G75*
G02*
X206040000Y-29155000I0J-150000D01*
G01*
X206040000Y-30605000D01*
G75*
G02*
X205890000Y-30755000I-150000J0D01*
G01*
G37*
G36*
G01*
X207160000Y-30755000D02*
X206860000Y-30755000D01*
G75*
G02*
X206710000Y-30605000I0J150000D01*
G01*
X206710000Y-29155000D01*
G75*
G02*
X206860000Y-29005000I150000J0D01*
G01*
X207160000Y-29005000D01*
G75*
G02*
X207310000Y-29155000I0J-150000D01*
G01*
X207310000Y-30605000D01*
G75*
G02*
X207160000Y-30755000I-150000J0D01*
G01*
G37*
G36*
G01*
X208430000Y-30755000D02*
X208130000Y-30755000D01*
G75*
G02*
X207980000Y-30605000I0J150000D01*
G01*
X207980000Y-29155000D01*
G75*
G02*
X208130000Y-29005000I150000J0D01*
G01*
X208430000Y-29005000D01*
G75*
G02*
X208580000Y-29155000I0J-150000D01*
G01*
X208580000Y-30605000D01*
G75*
G02*
X208430000Y-30755000I-150000J0D01*
G01*
G37*
G36*
G01*
X209700000Y-30755000D02*
X209400000Y-30755000D01*
G75*
G02*
X209250000Y-30605000I0J150000D01*
G01*
X209250000Y-29155000D01*
G75*
G02*
X209400000Y-29005000I150000J0D01*
G01*
X209700000Y-29005000D01*
G75*
G02*
X209850000Y-29155000I0J-150000D01*
G01*
X209850000Y-30605000D01*
G75*
G02*
X209700000Y-30755000I-150000J0D01*
G01*
G37*
G36*
G01*
X210970000Y-30755000D02*
X210670000Y-30755000D01*
G75*
G02*
X210520000Y-30605000I0J150000D01*
G01*
X210520000Y-29155000D01*
G75*
G02*
X210670000Y-29005000I150000J0D01*
G01*
X210970000Y-29005000D01*
G75*
G02*
X211120000Y-29155000I0J-150000D01*
G01*
X211120000Y-30605000D01*
G75*
G02*
X210970000Y-30755000I-150000J0D01*
G01*
G37*
G36*
G01*
X212240000Y-30755000D02*
X211940000Y-30755000D01*
G75*
G02*
X211790000Y-30605000I0J150000D01*
G01*
X211790000Y-29155000D01*
G75*
G02*
X211940000Y-29005000I150000J0D01*
G01*
X212240000Y-29005000D01*
G75*
G02*
X212390000Y-29155000I0J-150000D01*
G01*
X212390000Y-30605000D01*
G75*
G02*
X212240000Y-30755000I-150000J0D01*
G01*
G37*
G36*
G01*
X213510000Y-30755000D02*
X213210000Y-30755000D01*
G75*
G02*
X213060000Y-30605000I0J150000D01*
G01*
X213060000Y-29155000D01*
G75*
G02*
X213210000Y-29005000I150000J0D01*
G01*
X213510000Y-29005000D01*
G75*
G02*
X213660000Y-29155000I0J-150000D01*
G01*
X213660000Y-30605000D01*
G75*
G02*
X213510000Y-30755000I-150000J0D01*
G01*
G37*
G36*
G01*
X214780000Y-30755000D02*
X214480000Y-30755000D01*
G75*
G02*
X214330000Y-30605000I0J150000D01*
G01*
X214330000Y-29155000D01*
G75*
G02*
X214480000Y-29005000I150000J0D01*
G01*
X214780000Y-29005000D01*
G75*
G02*
X214930000Y-29155000I0J-150000D01*
G01*
X214930000Y-30605000D01*
G75*
G02*
X214780000Y-30755000I-150000J0D01*
G01*
G37*
G36*
G01*
X214780000Y-25605000D02*
X214480000Y-25605000D01*
G75*
G02*
X214330000Y-25455000I0J150000D01*
G01*
X214330000Y-24005000D01*
G75*
G02*
X214480000Y-23855000I150000J0D01*
G01*
X214780000Y-23855000D01*
G75*
G02*
X214930000Y-24005000I0J-150000D01*
G01*
X214930000Y-25455000D01*
G75*
G02*
X214780000Y-25605000I-150000J0D01*
G01*
G37*
G36*
G01*
X213510000Y-25605000D02*
X213210000Y-25605000D01*
G75*
G02*
X213060000Y-25455000I0J150000D01*
G01*
X213060000Y-24005000D01*
G75*
G02*
X213210000Y-23855000I150000J0D01*
G01*
X213510000Y-23855000D01*
G75*
G02*
X213660000Y-24005000I0J-150000D01*
G01*
X213660000Y-25455000D01*
G75*
G02*
X213510000Y-25605000I-150000J0D01*
G01*
G37*
G36*
G01*
X212240000Y-25605000D02*
X211940000Y-25605000D01*
G75*
G02*
X211790000Y-25455000I0J150000D01*
G01*
X211790000Y-24005000D01*
G75*
G02*
X211940000Y-23855000I150000J0D01*
G01*
X212240000Y-23855000D01*
G75*
G02*
X212390000Y-24005000I0J-150000D01*
G01*
X212390000Y-25455000D01*
G75*
G02*
X212240000Y-25605000I-150000J0D01*
G01*
G37*
G36*
G01*
X210970000Y-25605000D02*
X210670000Y-25605000D01*
G75*
G02*
X210520000Y-25455000I0J150000D01*
G01*
X210520000Y-24005000D01*
G75*
G02*
X210670000Y-23855000I150000J0D01*
G01*
X210970000Y-23855000D01*
G75*
G02*
X211120000Y-24005000I0J-150000D01*
G01*
X211120000Y-25455000D01*
G75*
G02*
X210970000Y-25605000I-150000J0D01*
G01*
G37*
G36*
G01*
X209700000Y-25605000D02*
X209400000Y-25605000D01*
G75*
G02*
X209250000Y-25455000I0J150000D01*
G01*
X209250000Y-24005000D01*
G75*
G02*
X209400000Y-23855000I150000J0D01*
G01*
X209700000Y-23855000D01*
G75*
G02*
X209850000Y-24005000I0J-150000D01*
G01*
X209850000Y-25455000D01*
G75*
G02*
X209700000Y-25605000I-150000J0D01*
G01*
G37*
G36*
G01*
X208430000Y-25605000D02*
X208130000Y-25605000D01*
G75*
G02*
X207980000Y-25455000I0J150000D01*
G01*
X207980000Y-24005000D01*
G75*
G02*
X208130000Y-23855000I150000J0D01*
G01*
X208430000Y-23855000D01*
G75*
G02*
X208580000Y-24005000I0J-150000D01*
G01*
X208580000Y-25455000D01*
G75*
G02*
X208430000Y-25605000I-150000J0D01*
G01*
G37*
G36*
G01*
X207160000Y-25605000D02*
X206860000Y-25605000D01*
G75*
G02*
X206710000Y-25455000I0J150000D01*
G01*
X206710000Y-24005000D01*
G75*
G02*
X206860000Y-23855000I150000J0D01*
G01*
X207160000Y-23855000D01*
G75*
G02*
X207310000Y-24005000I0J-150000D01*
G01*
X207310000Y-25455000D01*
G75*
G02*
X207160000Y-25605000I-150000J0D01*
G01*
G37*
G36*
G01*
X205890000Y-25605000D02*
X205590000Y-25605000D01*
G75*
G02*
X205440000Y-25455000I0J150000D01*
G01*
X205440000Y-24005000D01*
G75*
G02*
X205590000Y-23855000I150000J0D01*
G01*
X205890000Y-23855000D01*
G75*
G02*
X206040000Y-24005000I0J-150000D01*
G01*
X206040000Y-25455000D01*
G75*
G02*
X205890000Y-25605000I-150000J0D01*
G01*
G37*
%TD*%
%TO.C,U5*%
G36*
G01*
X192555000Y-30755000D02*
X192255000Y-30755000D01*
G75*
G02*
X192105000Y-30605000I0J150000D01*
G01*
X192105000Y-29155000D01*
G75*
G02*
X192255000Y-29005000I150000J0D01*
G01*
X192555000Y-29005000D01*
G75*
G02*
X192705000Y-29155000I0J-150000D01*
G01*
X192705000Y-30605000D01*
G75*
G02*
X192555000Y-30755000I-150000J0D01*
G01*
G37*
G36*
G01*
X193825000Y-30755000D02*
X193525000Y-30755000D01*
G75*
G02*
X193375000Y-30605000I0J150000D01*
G01*
X193375000Y-29155000D01*
G75*
G02*
X193525000Y-29005000I150000J0D01*
G01*
X193825000Y-29005000D01*
G75*
G02*
X193975000Y-29155000I0J-150000D01*
G01*
X193975000Y-30605000D01*
G75*
G02*
X193825000Y-30755000I-150000J0D01*
G01*
G37*
G36*
G01*
X195095000Y-30755000D02*
X194795000Y-30755000D01*
G75*
G02*
X194645000Y-30605000I0J150000D01*
G01*
X194645000Y-29155000D01*
G75*
G02*
X194795000Y-29005000I150000J0D01*
G01*
X195095000Y-29005000D01*
G75*
G02*
X195245000Y-29155000I0J-150000D01*
G01*
X195245000Y-30605000D01*
G75*
G02*
X195095000Y-30755000I-150000J0D01*
G01*
G37*
G36*
G01*
X196365000Y-30755000D02*
X196065000Y-30755000D01*
G75*
G02*
X195915000Y-30605000I0J150000D01*
G01*
X195915000Y-29155000D01*
G75*
G02*
X196065000Y-29005000I150000J0D01*
G01*
X196365000Y-29005000D01*
G75*
G02*
X196515000Y-29155000I0J-150000D01*
G01*
X196515000Y-30605000D01*
G75*
G02*
X196365000Y-30755000I-150000J0D01*
G01*
G37*
G36*
G01*
X197635000Y-30755000D02*
X197335000Y-30755000D01*
G75*
G02*
X197185000Y-30605000I0J150000D01*
G01*
X197185000Y-29155000D01*
G75*
G02*
X197335000Y-29005000I150000J0D01*
G01*
X197635000Y-29005000D01*
G75*
G02*
X197785000Y-29155000I0J-150000D01*
G01*
X197785000Y-30605000D01*
G75*
G02*
X197635000Y-30755000I-150000J0D01*
G01*
G37*
G36*
G01*
X198905000Y-30755000D02*
X198605000Y-30755000D01*
G75*
G02*
X198455000Y-30605000I0J150000D01*
G01*
X198455000Y-29155000D01*
G75*
G02*
X198605000Y-29005000I150000J0D01*
G01*
X198905000Y-29005000D01*
G75*
G02*
X199055000Y-29155000I0J-150000D01*
G01*
X199055000Y-30605000D01*
G75*
G02*
X198905000Y-30755000I-150000J0D01*
G01*
G37*
G36*
G01*
X200175000Y-30755000D02*
X199875000Y-30755000D01*
G75*
G02*
X199725000Y-30605000I0J150000D01*
G01*
X199725000Y-29155000D01*
G75*
G02*
X199875000Y-29005000I150000J0D01*
G01*
X200175000Y-29005000D01*
G75*
G02*
X200325000Y-29155000I0J-150000D01*
G01*
X200325000Y-30605000D01*
G75*
G02*
X200175000Y-30755000I-150000J0D01*
G01*
G37*
G36*
G01*
X201445000Y-30755000D02*
X201145000Y-30755000D01*
G75*
G02*
X200995000Y-30605000I0J150000D01*
G01*
X200995000Y-29155000D01*
G75*
G02*
X201145000Y-29005000I150000J0D01*
G01*
X201445000Y-29005000D01*
G75*
G02*
X201595000Y-29155000I0J-150000D01*
G01*
X201595000Y-30605000D01*
G75*
G02*
X201445000Y-30755000I-150000J0D01*
G01*
G37*
G36*
G01*
X201445000Y-25605000D02*
X201145000Y-25605000D01*
G75*
G02*
X200995000Y-25455000I0J150000D01*
G01*
X200995000Y-24005000D01*
G75*
G02*
X201145000Y-23855000I150000J0D01*
G01*
X201445000Y-23855000D01*
G75*
G02*
X201595000Y-24005000I0J-150000D01*
G01*
X201595000Y-25455000D01*
G75*
G02*
X201445000Y-25605000I-150000J0D01*
G01*
G37*
G36*
G01*
X200175000Y-25605000D02*
X199875000Y-25605000D01*
G75*
G02*
X199725000Y-25455000I0J150000D01*
G01*
X199725000Y-24005000D01*
G75*
G02*
X199875000Y-23855000I150000J0D01*
G01*
X200175000Y-23855000D01*
G75*
G02*
X200325000Y-24005000I0J-150000D01*
G01*
X200325000Y-25455000D01*
G75*
G02*
X200175000Y-25605000I-150000J0D01*
G01*
G37*
G36*
G01*
X198905000Y-25605000D02*
X198605000Y-25605000D01*
G75*
G02*
X198455000Y-25455000I0J150000D01*
G01*
X198455000Y-24005000D01*
G75*
G02*
X198605000Y-23855000I150000J0D01*
G01*
X198905000Y-23855000D01*
G75*
G02*
X199055000Y-24005000I0J-150000D01*
G01*
X199055000Y-25455000D01*
G75*
G02*
X198905000Y-25605000I-150000J0D01*
G01*
G37*
G36*
G01*
X197635000Y-25605000D02*
X197335000Y-25605000D01*
G75*
G02*
X197185000Y-25455000I0J150000D01*
G01*
X197185000Y-24005000D01*
G75*
G02*
X197335000Y-23855000I150000J0D01*
G01*
X197635000Y-23855000D01*
G75*
G02*
X197785000Y-24005000I0J-150000D01*
G01*
X197785000Y-25455000D01*
G75*
G02*
X197635000Y-25605000I-150000J0D01*
G01*
G37*
G36*
G01*
X196365000Y-25605000D02*
X196065000Y-25605000D01*
G75*
G02*
X195915000Y-25455000I0J150000D01*
G01*
X195915000Y-24005000D01*
G75*
G02*
X196065000Y-23855000I150000J0D01*
G01*
X196365000Y-23855000D01*
G75*
G02*
X196515000Y-24005000I0J-150000D01*
G01*
X196515000Y-25455000D01*
G75*
G02*
X196365000Y-25605000I-150000J0D01*
G01*
G37*
G36*
G01*
X195095000Y-25605000D02*
X194795000Y-25605000D01*
G75*
G02*
X194645000Y-25455000I0J150000D01*
G01*
X194645000Y-24005000D01*
G75*
G02*
X194795000Y-23855000I150000J0D01*
G01*
X195095000Y-23855000D01*
G75*
G02*
X195245000Y-24005000I0J-150000D01*
G01*
X195245000Y-25455000D01*
G75*
G02*
X195095000Y-25605000I-150000J0D01*
G01*
G37*
G36*
G01*
X193825000Y-25605000D02*
X193525000Y-25605000D01*
G75*
G02*
X193375000Y-25455000I0J150000D01*
G01*
X193375000Y-24005000D01*
G75*
G02*
X193525000Y-23855000I150000J0D01*
G01*
X193825000Y-23855000D01*
G75*
G02*
X193975000Y-24005000I0J-150000D01*
G01*
X193975000Y-25455000D01*
G75*
G02*
X193825000Y-25605000I-150000J0D01*
G01*
G37*
G36*
G01*
X192555000Y-25605000D02*
X192255000Y-25605000D01*
G75*
G02*
X192105000Y-25455000I0J150000D01*
G01*
X192105000Y-24005000D01*
G75*
G02*
X192255000Y-23855000I150000J0D01*
G01*
X192555000Y-23855000D01*
G75*
G02*
X192705000Y-24005000I0J-150000D01*
G01*
X192705000Y-25455000D01*
G75*
G02*
X192555000Y-25605000I-150000J0D01*
G01*
G37*
%TD*%
%TO.C,U6*%
G36*
G01*
X249765000Y-53025000D02*
X249765000Y-52825000D01*
G75*
G02*
X249865000Y-52725000I100000J0D01*
G01*
X251140000Y-52725000D01*
G75*
G02*
X251240000Y-52825000I0J-100000D01*
G01*
X251240000Y-53025000D01*
G75*
G02*
X251140000Y-53125000I-100000J0D01*
G01*
X249865000Y-53125000D01*
G75*
G02*
X249765000Y-53025000I0J100000D01*
G01*
G37*
G36*
G01*
X249765000Y-53675000D02*
X249765000Y-53475000D01*
G75*
G02*
X249865000Y-53375000I100000J0D01*
G01*
X251140000Y-53375000D01*
G75*
G02*
X251240000Y-53475000I0J-100000D01*
G01*
X251240000Y-53675000D01*
G75*
G02*
X251140000Y-53775000I-100000J0D01*
G01*
X249865000Y-53775000D01*
G75*
G02*
X249765000Y-53675000I0J100000D01*
G01*
G37*
G36*
G01*
X249765000Y-54325000D02*
X249765000Y-54125000D01*
G75*
G02*
X249865000Y-54025000I100000J0D01*
G01*
X251140000Y-54025000D01*
G75*
G02*
X251240000Y-54125000I0J-100000D01*
G01*
X251240000Y-54325000D01*
G75*
G02*
X251140000Y-54425000I-100000J0D01*
G01*
X249865000Y-54425000D01*
G75*
G02*
X249765000Y-54325000I0J100000D01*
G01*
G37*
G36*
G01*
X249765000Y-54975000D02*
X249765000Y-54775000D01*
G75*
G02*
X249865000Y-54675000I100000J0D01*
G01*
X251140000Y-54675000D01*
G75*
G02*
X251240000Y-54775000I0J-100000D01*
G01*
X251240000Y-54975000D01*
G75*
G02*
X251140000Y-55075000I-100000J0D01*
G01*
X249865000Y-55075000D01*
G75*
G02*
X249765000Y-54975000I0J100000D01*
G01*
G37*
G36*
G01*
X249765000Y-55625000D02*
X249765000Y-55425000D01*
G75*
G02*
X249865000Y-55325000I100000J0D01*
G01*
X251140000Y-55325000D01*
G75*
G02*
X251240000Y-55425000I0J-100000D01*
G01*
X251240000Y-55625000D01*
G75*
G02*
X251140000Y-55725000I-100000J0D01*
G01*
X249865000Y-55725000D01*
G75*
G02*
X249765000Y-55625000I0J100000D01*
G01*
G37*
G36*
G01*
X249765000Y-56275000D02*
X249765000Y-56075000D01*
G75*
G02*
X249865000Y-55975000I100000J0D01*
G01*
X251140000Y-55975000D01*
G75*
G02*
X251240000Y-56075000I0J-100000D01*
G01*
X251240000Y-56275000D01*
G75*
G02*
X251140000Y-56375000I-100000J0D01*
G01*
X249865000Y-56375000D01*
G75*
G02*
X249765000Y-56275000I0J100000D01*
G01*
G37*
G36*
G01*
X249765000Y-56925000D02*
X249765000Y-56725000D01*
G75*
G02*
X249865000Y-56625000I100000J0D01*
G01*
X251140000Y-56625000D01*
G75*
G02*
X251240000Y-56725000I0J-100000D01*
G01*
X251240000Y-56925000D01*
G75*
G02*
X251140000Y-57025000I-100000J0D01*
G01*
X249865000Y-57025000D01*
G75*
G02*
X249765000Y-56925000I0J100000D01*
G01*
G37*
G36*
G01*
X249765000Y-57575000D02*
X249765000Y-57375000D01*
G75*
G02*
X249865000Y-57275000I100000J0D01*
G01*
X251140000Y-57275000D01*
G75*
G02*
X251240000Y-57375000I0J-100000D01*
G01*
X251240000Y-57575000D01*
G75*
G02*
X251140000Y-57675000I-100000J0D01*
G01*
X249865000Y-57675000D01*
G75*
G02*
X249765000Y-57575000I0J100000D01*
G01*
G37*
G36*
G01*
X249765000Y-58225000D02*
X249765000Y-58025000D01*
G75*
G02*
X249865000Y-57925000I100000J0D01*
G01*
X251140000Y-57925000D01*
G75*
G02*
X251240000Y-58025000I0J-100000D01*
G01*
X251240000Y-58225000D01*
G75*
G02*
X251140000Y-58325000I-100000J0D01*
G01*
X249865000Y-58325000D01*
G75*
G02*
X249765000Y-58225000I0J100000D01*
G01*
G37*
G36*
G01*
X249765000Y-58875000D02*
X249765000Y-58675000D01*
G75*
G02*
X249865000Y-58575000I100000J0D01*
G01*
X251140000Y-58575000D01*
G75*
G02*
X251240000Y-58675000I0J-100000D01*
G01*
X251240000Y-58875000D01*
G75*
G02*
X251140000Y-58975000I-100000J0D01*
G01*
X249865000Y-58975000D01*
G75*
G02*
X249765000Y-58875000I0J100000D01*
G01*
G37*
G36*
G01*
X249765000Y-59525000D02*
X249765000Y-59325000D01*
G75*
G02*
X249865000Y-59225000I100000J0D01*
G01*
X251140000Y-59225000D01*
G75*
G02*
X251240000Y-59325000I0J-100000D01*
G01*
X251240000Y-59525000D01*
G75*
G02*
X251140000Y-59625000I-100000J0D01*
G01*
X249865000Y-59625000D01*
G75*
G02*
X249765000Y-59525000I0J100000D01*
G01*
G37*
G36*
G01*
X249765000Y-60175000D02*
X249765000Y-59975000D01*
G75*
G02*
X249865000Y-59875000I100000J0D01*
G01*
X251140000Y-59875000D01*
G75*
G02*
X251240000Y-59975000I0J-100000D01*
G01*
X251240000Y-60175000D01*
G75*
G02*
X251140000Y-60275000I-100000J0D01*
G01*
X249865000Y-60275000D01*
G75*
G02*
X249765000Y-60175000I0J100000D01*
G01*
G37*
G36*
G01*
X249765000Y-60825000D02*
X249765000Y-60625000D01*
G75*
G02*
X249865000Y-60525000I100000J0D01*
G01*
X251140000Y-60525000D01*
G75*
G02*
X251240000Y-60625000I0J-100000D01*
G01*
X251240000Y-60825000D01*
G75*
G02*
X251140000Y-60925000I-100000J0D01*
G01*
X249865000Y-60925000D01*
G75*
G02*
X249765000Y-60825000I0J100000D01*
G01*
G37*
G36*
G01*
X249765000Y-61475000D02*
X249765000Y-61275000D01*
G75*
G02*
X249865000Y-61175000I100000J0D01*
G01*
X251140000Y-61175000D01*
G75*
G02*
X251240000Y-61275000I0J-100000D01*
G01*
X251240000Y-61475000D01*
G75*
G02*
X251140000Y-61575000I-100000J0D01*
G01*
X249865000Y-61575000D01*
G75*
G02*
X249765000Y-61475000I0J100000D01*
G01*
G37*
G36*
G01*
X255490000Y-61475000D02*
X255490000Y-61275000D01*
G75*
G02*
X255590000Y-61175000I100000J0D01*
G01*
X256865000Y-61175000D01*
G75*
G02*
X256965000Y-61275000I0J-100000D01*
G01*
X256965000Y-61475000D01*
G75*
G02*
X256865000Y-61575000I-100000J0D01*
G01*
X255590000Y-61575000D01*
G75*
G02*
X255490000Y-61475000I0J100000D01*
G01*
G37*
G36*
G01*
X255490000Y-60825000D02*
X255490000Y-60625000D01*
G75*
G02*
X255590000Y-60525000I100000J0D01*
G01*
X256865000Y-60525000D01*
G75*
G02*
X256965000Y-60625000I0J-100000D01*
G01*
X256965000Y-60825000D01*
G75*
G02*
X256865000Y-60925000I-100000J0D01*
G01*
X255590000Y-60925000D01*
G75*
G02*
X255490000Y-60825000I0J100000D01*
G01*
G37*
G36*
G01*
X255490000Y-60175000D02*
X255490000Y-59975000D01*
G75*
G02*
X255590000Y-59875000I100000J0D01*
G01*
X256865000Y-59875000D01*
G75*
G02*
X256965000Y-59975000I0J-100000D01*
G01*
X256965000Y-60175000D01*
G75*
G02*
X256865000Y-60275000I-100000J0D01*
G01*
X255590000Y-60275000D01*
G75*
G02*
X255490000Y-60175000I0J100000D01*
G01*
G37*
G36*
G01*
X255490000Y-59525000D02*
X255490000Y-59325000D01*
G75*
G02*
X255590000Y-59225000I100000J0D01*
G01*
X256865000Y-59225000D01*
G75*
G02*
X256965000Y-59325000I0J-100000D01*
G01*
X256965000Y-59525000D01*
G75*
G02*
X256865000Y-59625000I-100000J0D01*
G01*
X255590000Y-59625000D01*
G75*
G02*
X255490000Y-59525000I0J100000D01*
G01*
G37*
G36*
G01*
X255490000Y-58875000D02*
X255490000Y-58675000D01*
G75*
G02*
X255590000Y-58575000I100000J0D01*
G01*
X256865000Y-58575000D01*
G75*
G02*
X256965000Y-58675000I0J-100000D01*
G01*
X256965000Y-58875000D01*
G75*
G02*
X256865000Y-58975000I-100000J0D01*
G01*
X255590000Y-58975000D01*
G75*
G02*
X255490000Y-58875000I0J100000D01*
G01*
G37*
G36*
G01*
X255490000Y-58225000D02*
X255490000Y-58025000D01*
G75*
G02*
X255590000Y-57925000I100000J0D01*
G01*
X256865000Y-57925000D01*
G75*
G02*
X256965000Y-58025000I0J-100000D01*
G01*
X256965000Y-58225000D01*
G75*
G02*
X256865000Y-58325000I-100000J0D01*
G01*
X255590000Y-58325000D01*
G75*
G02*
X255490000Y-58225000I0J100000D01*
G01*
G37*
G36*
G01*
X255490000Y-57575000D02*
X255490000Y-57375000D01*
G75*
G02*
X255590000Y-57275000I100000J0D01*
G01*
X256865000Y-57275000D01*
G75*
G02*
X256965000Y-57375000I0J-100000D01*
G01*
X256965000Y-57575000D01*
G75*
G02*
X256865000Y-57675000I-100000J0D01*
G01*
X255590000Y-57675000D01*
G75*
G02*
X255490000Y-57575000I0J100000D01*
G01*
G37*
G36*
G01*
X255490000Y-56925000D02*
X255490000Y-56725000D01*
G75*
G02*
X255590000Y-56625000I100000J0D01*
G01*
X256865000Y-56625000D01*
G75*
G02*
X256965000Y-56725000I0J-100000D01*
G01*
X256965000Y-56925000D01*
G75*
G02*
X256865000Y-57025000I-100000J0D01*
G01*
X255590000Y-57025000D01*
G75*
G02*
X255490000Y-56925000I0J100000D01*
G01*
G37*
G36*
G01*
X255490000Y-56275000D02*
X255490000Y-56075000D01*
G75*
G02*
X255590000Y-55975000I100000J0D01*
G01*
X256865000Y-55975000D01*
G75*
G02*
X256965000Y-56075000I0J-100000D01*
G01*
X256965000Y-56275000D01*
G75*
G02*
X256865000Y-56375000I-100000J0D01*
G01*
X255590000Y-56375000D01*
G75*
G02*
X255490000Y-56275000I0J100000D01*
G01*
G37*
G36*
G01*
X255490000Y-55625000D02*
X255490000Y-55425000D01*
G75*
G02*
X255590000Y-55325000I100000J0D01*
G01*
X256865000Y-55325000D01*
G75*
G02*
X256965000Y-55425000I0J-100000D01*
G01*
X256965000Y-55625000D01*
G75*
G02*
X256865000Y-55725000I-100000J0D01*
G01*
X255590000Y-55725000D01*
G75*
G02*
X255490000Y-55625000I0J100000D01*
G01*
G37*
G36*
G01*
X255490000Y-54975000D02*
X255490000Y-54775000D01*
G75*
G02*
X255590000Y-54675000I100000J0D01*
G01*
X256865000Y-54675000D01*
G75*
G02*
X256965000Y-54775000I0J-100000D01*
G01*
X256965000Y-54975000D01*
G75*
G02*
X256865000Y-55075000I-100000J0D01*
G01*
X255590000Y-55075000D01*
G75*
G02*
X255490000Y-54975000I0J100000D01*
G01*
G37*
G36*
G01*
X255490000Y-54325000D02*
X255490000Y-54125000D01*
G75*
G02*
X255590000Y-54025000I100000J0D01*
G01*
X256865000Y-54025000D01*
G75*
G02*
X256965000Y-54125000I0J-100000D01*
G01*
X256965000Y-54325000D01*
G75*
G02*
X256865000Y-54425000I-100000J0D01*
G01*
X255590000Y-54425000D01*
G75*
G02*
X255490000Y-54325000I0J100000D01*
G01*
G37*
G36*
G01*
X255490000Y-53675000D02*
X255490000Y-53475000D01*
G75*
G02*
X255590000Y-53375000I100000J0D01*
G01*
X256865000Y-53375000D01*
G75*
G02*
X256965000Y-53475000I0J-100000D01*
G01*
X256965000Y-53675000D01*
G75*
G02*
X256865000Y-53775000I-100000J0D01*
G01*
X255590000Y-53775000D01*
G75*
G02*
X255490000Y-53675000I0J100000D01*
G01*
G37*
G36*
G01*
X255490000Y-53025000D02*
X255490000Y-52825000D01*
G75*
G02*
X255590000Y-52725000I100000J0D01*
G01*
X256865000Y-52725000D01*
G75*
G02*
X256965000Y-52825000I0J-100000D01*
G01*
X256965000Y-53025000D01*
G75*
G02*
X256865000Y-53125000I-100000J0D01*
G01*
X255590000Y-53125000D01*
G75*
G02*
X255490000Y-53025000I0J100000D01*
G01*
G37*
%TD*%
%TO.C,U7*%
G36*
G01*
X206650000Y-60175000D02*
X206650000Y-60475000D01*
G75*
G02*
X206500000Y-60625000I-150000J0D01*
G01*
X204850000Y-60625000D01*
G75*
G02*
X204700000Y-60475000I0J150000D01*
G01*
X204700000Y-60175000D01*
G75*
G02*
X204850000Y-60025000I150000J0D01*
G01*
X206500000Y-60025000D01*
G75*
G02*
X206650000Y-60175000I0J-150000D01*
G01*
G37*
G36*
G01*
X206650000Y-58905000D02*
X206650000Y-59205000D01*
G75*
G02*
X206500000Y-59355000I-150000J0D01*
G01*
X204850000Y-59355000D01*
G75*
G02*
X204700000Y-59205000I0J150000D01*
G01*
X204700000Y-58905000D01*
G75*
G02*
X204850000Y-58755000I150000J0D01*
G01*
X206500000Y-58755000D01*
G75*
G02*
X206650000Y-58905000I0J-150000D01*
G01*
G37*
G36*
G01*
X206650000Y-57635000D02*
X206650000Y-57935000D01*
G75*
G02*
X206500000Y-58085000I-150000J0D01*
G01*
X204850000Y-58085000D01*
G75*
G02*
X204700000Y-57935000I0J150000D01*
G01*
X204700000Y-57635000D01*
G75*
G02*
X204850000Y-57485000I150000J0D01*
G01*
X206500000Y-57485000D01*
G75*
G02*
X206650000Y-57635000I0J-150000D01*
G01*
G37*
G36*
G01*
X206650000Y-56365000D02*
X206650000Y-56665000D01*
G75*
G02*
X206500000Y-56815000I-150000J0D01*
G01*
X204850000Y-56815000D01*
G75*
G02*
X204700000Y-56665000I0J150000D01*
G01*
X204700000Y-56365000D01*
G75*
G02*
X204850000Y-56215000I150000J0D01*
G01*
X206500000Y-56215000D01*
G75*
G02*
X206650000Y-56365000I0J-150000D01*
G01*
G37*
G36*
G01*
X201700000Y-56365000D02*
X201700000Y-56665000D01*
G75*
G02*
X201550000Y-56815000I-150000J0D01*
G01*
X199900000Y-56815000D01*
G75*
G02*
X199750000Y-56665000I0J150000D01*
G01*
X199750000Y-56365000D01*
G75*
G02*
X199900000Y-56215000I150000J0D01*
G01*
X201550000Y-56215000D01*
G75*
G02*
X201700000Y-56365000I0J-150000D01*
G01*
G37*
G36*
G01*
X201700000Y-57635000D02*
X201700000Y-57935000D01*
G75*
G02*
X201550000Y-58085000I-150000J0D01*
G01*
X199900000Y-58085000D01*
G75*
G02*
X199750000Y-57935000I0J150000D01*
G01*
X199750000Y-57635000D01*
G75*
G02*
X199900000Y-57485000I150000J0D01*
G01*
X201550000Y-57485000D01*
G75*
G02*
X201700000Y-57635000I0J-150000D01*
G01*
G37*
G36*
G01*
X201700000Y-58905000D02*
X201700000Y-59205000D01*
G75*
G02*
X201550000Y-59355000I-150000J0D01*
G01*
X199900000Y-59355000D01*
G75*
G02*
X199750000Y-59205000I0J150000D01*
G01*
X199750000Y-58905000D01*
G75*
G02*
X199900000Y-58755000I150000J0D01*
G01*
X201550000Y-58755000D01*
G75*
G02*
X201700000Y-58905000I0J-150000D01*
G01*
G37*
G36*
G01*
X201700000Y-60175000D02*
X201700000Y-60475000D01*
G75*
G02*
X201550000Y-60625000I-150000J0D01*
G01*
X199900000Y-60625000D01*
G75*
G02*
X199750000Y-60475000I0J150000D01*
G01*
X199750000Y-60175000D01*
G75*
G02*
X199900000Y-60025000I150000J0D01*
G01*
X201550000Y-60025000D01*
G75*
G02*
X201700000Y-60175000I0J-150000D01*
G01*
G37*
%TD*%
%TO.C,U8*%
G36*
G01*
X210335000Y-56720000D02*
X210035000Y-56720000D01*
G75*
G02*
X209885000Y-56570000I0J150000D01*
G01*
X209885000Y-55120000D01*
G75*
G02*
X210035000Y-54970000I150000J0D01*
G01*
X210335000Y-54970000D01*
G75*
G02*
X210485000Y-55120000I0J-150000D01*
G01*
X210485000Y-56570000D01*
G75*
G02*
X210335000Y-56720000I-150000J0D01*
G01*
G37*
G36*
G01*
X211605000Y-56720000D02*
X211305000Y-56720000D01*
G75*
G02*
X211155000Y-56570000I0J150000D01*
G01*
X211155000Y-55120000D01*
G75*
G02*
X211305000Y-54970000I150000J0D01*
G01*
X211605000Y-54970000D01*
G75*
G02*
X211755000Y-55120000I0J-150000D01*
G01*
X211755000Y-56570000D01*
G75*
G02*
X211605000Y-56720000I-150000J0D01*
G01*
G37*
G36*
G01*
X212875000Y-56720000D02*
X212575000Y-56720000D01*
G75*
G02*
X212425000Y-56570000I0J150000D01*
G01*
X212425000Y-55120000D01*
G75*
G02*
X212575000Y-54970000I150000J0D01*
G01*
X212875000Y-54970000D01*
G75*
G02*
X213025000Y-55120000I0J-150000D01*
G01*
X213025000Y-56570000D01*
G75*
G02*
X212875000Y-56720000I-150000J0D01*
G01*
G37*
G36*
G01*
X214145000Y-56720000D02*
X213845000Y-56720000D01*
G75*
G02*
X213695000Y-56570000I0J150000D01*
G01*
X213695000Y-55120000D01*
G75*
G02*
X213845000Y-54970000I150000J0D01*
G01*
X214145000Y-54970000D01*
G75*
G02*
X214295000Y-55120000I0J-150000D01*
G01*
X214295000Y-56570000D01*
G75*
G02*
X214145000Y-56720000I-150000J0D01*
G01*
G37*
G36*
G01*
X215415000Y-56720000D02*
X215115000Y-56720000D01*
G75*
G02*
X214965000Y-56570000I0J150000D01*
G01*
X214965000Y-55120000D01*
G75*
G02*
X215115000Y-54970000I150000J0D01*
G01*
X215415000Y-54970000D01*
G75*
G02*
X215565000Y-55120000I0J-150000D01*
G01*
X215565000Y-56570000D01*
G75*
G02*
X215415000Y-56720000I-150000J0D01*
G01*
G37*
G36*
G01*
X216685000Y-56720000D02*
X216385000Y-56720000D01*
G75*
G02*
X216235000Y-56570000I0J150000D01*
G01*
X216235000Y-55120000D01*
G75*
G02*
X216385000Y-54970000I150000J0D01*
G01*
X216685000Y-54970000D01*
G75*
G02*
X216835000Y-55120000I0J-150000D01*
G01*
X216835000Y-56570000D01*
G75*
G02*
X216685000Y-56720000I-150000J0D01*
G01*
G37*
G36*
G01*
X217955000Y-56720000D02*
X217655000Y-56720000D01*
G75*
G02*
X217505000Y-56570000I0J150000D01*
G01*
X217505000Y-55120000D01*
G75*
G02*
X217655000Y-54970000I150000J0D01*
G01*
X217955000Y-54970000D01*
G75*
G02*
X218105000Y-55120000I0J-150000D01*
G01*
X218105000Y-56570000D01*
G75*
G02*
X217955000Y-56720000I-150000J0D01*
G01*
G37*
G36*
G01*
X219225000Y-56720000D02*
X218925000Y-56720000D01*
G75*
G02*
X218775000Y-56570000I0J150000D01*
G01*
X218775000Y-55120000D01*
G75*
G02*
X218925000Y-54970000I150000J0D01*
G01*
X219225000Y-54970000D01*
G75*
G02*
X219375000Y-55120000I0J-150000D01*
G01*
X219375000Y-56570000D01*
G75*
G02*
X219225000Y-56720000I-150000J0D01*
G01*
G37*
G36*
G01*
X219225000Y-61870000D02*
X218925000Y-61870000D01*
G75*
G02*
X218775000Y-61720000I0J150000D01*
G01*
X218775000Y-60270000D01*
G75*
G02*
X218925000Y-60120000I150000J0D01*
G01*
X219225000Y-60120000D01*
G75*
G02*
X219375000Y-60270000I0J-150000D01*
G01*
X219375000Y-61720000D01*
G75*
G02*
X219225000Y-61870000I-150000J0D01*
G01*
G37*
G36*
G01*
X217955000Y-61870000D02*
X217655000Y-61870000D01*
G75*
G02*
X217505000Y-61720000I0J150000D01*
G01*
X217505000Y-60270000D01*
G75*
G02*
X217655000Y-60120000I150000J0D01*
G01*
X217955000Y-60120000D01*
G75*
G02*
X218105000Y-60270000I0J-150000D01*
G01*
X218105000Y-61720000D01*
G75*
G02*
X217955000Y-61870000I-150000J0D01*
G01*
G37*
G36*
G01*
X216685000Y-61870000D02*
X216385000Y-61870000D01*
G75*
G02*
X216235000Y-61720000I0J150000D01*
G01*
X216235000Y-60270000D01*
G75*
G02*
X216385000Y-60120000I150000J0D01*
G01*
X216685000Y-60120000D01*
G75*
G02*
X216835000Y-60270000I0J-150000D01*
G01*
X216835000Y-61720000D01*
G75*
G02*
X216685000Y-61870000I-150000J0D01*
G01*
G37*
G36*
G01*
X215415000Y-61870000D02*
X215115000Y-61870000D01*
G75*
G02*
X214965000Y-61720000I0J150000D01*
G01*
X214965000Y-60270000D01*
G75*
G02*
X215115000Y-60120000I150000J0D01*
G01*
X215415000Y-60120000D01*
G75*
G02*
X215565000Y-60270000I0J-150000D01*
G01*
X215565000Y-61720000D01*
G75*
G02*
X215415000Y-61870000I-150000J0D01*
G01*
G37*
G36*
G01*
X214145000Y-61870000D02*
X213845000Y-61870000D01*
G75*
G02*
X213695000Y-61720000I0J150000D01*
G01*
X213695000Y-60270000D01*
G75*
G02*
X213845000Y-60120000I150000J0D01*
G01*
X214145000Y-60120000D01*
G75*
G02*
X214295000Y-60270000I0J-150000D01*
G01*
X214295000Y-61720000D01*
G75*
G02*
X214145000Y-61870000I-150000J0D01*
G01*
G37*
G36*
G01*
X212875000Y-61870000D02*
X212575000Y-61870000D01*
G75*
G02*
X212425000Y-61720000I0J150000D01*
G01*
X212425000Y-60270000D01*
G75*
G02*
X212575000Y-60120000I150000J0D01*
G01*
X212875000Y-60120000D01*
G75*
G02*
X213025000Y-60270000I0J-150000D01*
G01*
X213025000Y-61720000D01*
G75*
G02*
X212875000Y-61870000I-150000J0D01*
G01*
G37*
G36*
G01*
X211605000Y-61870000D02*
X211305000Y-61870000D01*
G75*
G02*
X211155000Y-61720000I0J150000D01*
G01*
X211155000Y-60270000D01*
G75*
G02*
X211305000Y-60120000I150000J0D01*
G01*
X211605000Y-60120000D01*
G75*
G02*
X211755000Y-60270000I0J-150000D01*
G01*
X211755000Y-61720000D01*
G75*
G02*
X211605000Y-61870000I-150000J0D01*
G01*
G37*
G36*
G01*
X210335000Y-61870000D02*
X210035000Y-61870000D01*
G75*
G02*
X209885000Y-61720000I0J150000D01*
G01*
X209885000Y-60270000D01*
G75*
G02*
X210035000Y-60120000I150000J0D01*
G01*
X210335000Y-60120000D01*
G75*
G02*
X210485000Y-60270000I0J-150000D01*
G01*
X210485000Y-61720000D01*
G75*
G02*
X210335000Y-61870000I-150000J0D01*
G01*
G37*
%TD*%
%TO.C,R3*%
G36*
G01*
X235925000Y-64125000D02*
X235925000Y-62875000D01*
G75*
G02*
X236175000Y-62625000I250000J0D01*
G01*
X236975000Y-62625000D01*
G75*
G02*
X237225000Y-62875000I0J-250000D01*
G01*
X237225000Y-64125000D01*
G75*
G02*
X236975000Y-64375000I-250000J0D01*
G01*
X236175000Y-64375000D01*
G75*
G02*
X235925000Y-64125000I0J250000D01*
G01*
G37*
G36*
G01*
X239025000Y-64125000D02*
X239025000Y-62875000D01*
G75*
G02*
X239275000Y-62625000I250000J0D01*
G01*
X240075000Y-62625000D01*
G75*
G02*
X240325000Y-62875000I0J-250000D01*
G01*
X240325000Y-64125000D01*
G75*
G02*
X240075000Y-64375000I-250000J0D01*
G01*
X239275000Y-64375000D01*
G75*
G02*
X239025000Y-64125000I0J250000D01*
G01*
G37*
%TD*%
%TO.C,R4*%
G36*
G01*
X224420000Y-64760000D02*
X224420000Y-63510000D01*
G75*
G02*
X224670000Y-63260000I250000J0D01*
G01*
X225470000Y-63260000D01*
G75*
G02*
X225720000Y-63510000I0J-250000D01*
G01*
X225720000Y-64760000D01*
G75*
G02*
X225470000Y-65010000I-250000J0D01*
G01*
X224670000Y-65010000D01*
G75*
G02*
X224420000Y-64760000I0J250000D01*
G01*
G37*
G36*
G01*
X221320000Y-64760000D02*
X221320000Y-63510000D01*
G75*
G02*
X221570000Y-63260000I250000J0D01*
G01*
X222370000Y-63260000D01*
G75*
G02*
X222620000Y-63510000I0J-250000D01*
G01*
X222620000Y-64760000D01*
G75*
G02*
X222370000Y-65010000I-250000J0D01*
G01*
X221570000Y-65010000D01*
G75*
G02*
X221320000Y-64760000I0J250000D01*
G01*
G37*
%TD*%
%TO.C,R5*%
G36*
G01*
X165395000Y-64780000D02*
X165395000Y-66030000D01*
G75*
G02*
X165145000Y-66280000I-250000J0D01*
G01*
X164345000Y-66280000D01*
G75*
G02*
X164095000Y-66030000I0J250000D01*
G01*
X164095000Y-64780000D01*
G75*
G02*
X164345000Y-64530000I250000J0D01*
G01*
X165145000Y-64530000D01*
G75*
G02*
X165395000Y-64780000I0J-250000D01*
G01*
G37*
G36*
G01*
X162295000Y-64780000D02*
X162295000Y-66030000D01*
G75*
G02*
X162045000Y-66280000I-250000J0D01*
G01*
X161245000Y-66280000D01*
G75*
G02*
X160995000Y-66030000I0J250000D01*
G01*
X160995000Y-64780000D01*
G75*
G02*
X161245000Y-64530000I250000J0D01*
G01*
X162045000Y-64530000D01*
G75*
G02*
X162295000Y-64780000I0J-250000D01*
G01*
G37*
%TD*%
M02*
