%TF.GenerationSoftware,KiCad,Pcbnew,5.1.9+dfsg1-1*%
%TF.CreationDate,2021-08-08T23:21:56+02:00*%
%TF.ProjectId,holobot_esp32,686f6c6f-626f-4745-9f65-737033322e6b,rev?*%
%TF.SameCoordinates,Original*%
%TF.FileFunction,Soldermask,Top*%
%TF.FilePolarity,Negative*%
%FSLAX46Y46*%
G04 Gerber Fmt 4.6, Leading zero omitted, Abs format (unit mm)*
G04 Created by KiCad (PCBNEW 5.1.9+dfsg1-1) date 2021-08-08 23:21:56*
%MOMM*%
%LPD*%
G01*
G04 APERTURE LIST*
%ADD10C,2.200000*%
%ADD11R,1.200000X2.200000*%
%ADD12R,5.800000X6.400000*%
%ADD13O,1.740000X2.190000*%
%ADD14O,2.190000X1.740000*%
%ADD15R,1.700000X1.700000*%
%ADD16O,1.700000X1.700000*%
%ADD17O,1.750000X1.200000*%
%ADD18O,1.200000X1.750000*%
%ADD19C,2.000000*%
%ADD20R,5.000000X5.000000*%
%ADD21R,2.000000X0.900000*%
%ADD22R,0.900000X2.000000*%
%ADD23R,1.100000X4.600000*%
%ADD24R,10.800000X9.400000*%
%ADD25R,3.100000X2.400000*%
%ADD26C,0.770000*%
%ADD27R,2.400000X3.100000*%
%ADD28R,1.600000X1.600000*%
%ADD29C,1.600000*%
G04 APERTURE END LIST*
D10*
%TO.C, *%
X127000000Y-93345000D03*
%TD*%
%TO.C, *%
X90170000Y-73660000D03*
%TD*%
%TO.C,REF\u002A\u002A*%
X90170000Y-123190000D03*
%TD*%
%TO.C, *%
X139700000Y-123190000D03*
%TD*%
D11*
%TO.C,D1*%
X133090000Y-113910000D03*
X128530000Y-113910000D03*
D12*
X130810000Y-120210000D03*
%TD*%
D13*
%TO.C,I2C*%
X104775000Y-121285000D03*
X102235000Y-121285000D03*
X99695000Y-121285000D03*
G36*
G01*
X96285000Y-122130001D02*
X96285000Y-120439999D01*
G75*
G02*
X96534999Y-120190000I249999J0D01*
G01*
X97775001Y-120190000D01*
G75*
G02*
X98025000Y-120439999I0J-249999D01*
G01*
X98025000Y-122130001D01*
G75*
G02*
X97775001Y-122380000I-249999J0D01*
G01*
X96534999Y-122380000D01*
G75*
G02*
X96285000Y-122130001I0J249999D01*
G01*
G37*
%TD*%
%TO.C,I2C*%
G36*
G01*
X96285000Y-115145001D02*
X96285000Y-113454999D01*
G75*
G02*
X96534999Y-113205000I249999J0D01*
G01*
X97775001Y-113205000D01*
G75*
G02*
X98025000Y-113454999I0J-249999D01*
G01*
X98025000Y-115145001D01*
G75*
G02*
X97775001Y-115395000I-249999J0D01*
G01*
X96534999Y-115395000D01*
G75*
G02*
X96285000Y-115145001I0J249999D01*
G01*
G37*
X99695000Y-114300000D03*
X102235000Y-114300000D03*
X104775000Y-114300000D03*
%TD*%
%TO.C,UART*%
G36*
G01*
X100540001Y-109455000D02*
X98849999Y-109455000D01*
G75*
G02*
X98600000Y-109205001I0J249999D01*
G01*
X98600000Y-107964999D01*
G75*
G02*
X98849999Y-107715000I249999J0D01*
G01*
X100540001Y-107715000D01*
G75*
G02*
X100790000Y-107964999I0J-249999D01*
G01*
X100790000Y-109205001D01*
G75*
G02*
X100540001Y-109455000I-249999J0D01*
G01*
G37*
D14*
X99695000Y-106045000D03*
X99695000Y-103505000D03*
X99695000Y-100965000D03*
%TD*%
D13*
%TO.C,GPIO1*%
X92710000Y-97790000D03*
G36*
G01*
X89300000Y-98635001D02*
X89300000Y-96944999D01*
G75*
G02*
X89549999Y-96695000I249999J0D01*
G01*
X90790001Y-96695000D01*
G75*
G02*
X91040000Y-96944999I0J-249999D01*
G01*
X91040000Y-98635001D01*
G75*
G02*
X90790001Y-98885000I-249999J0D01*
G01*
X89549999Y-98885000D01*
G75*
G02*
X89300000Y-98635001I0J249999D01*
G01*
G37*
%TD*%
%TO.C,GPIO3*%
X92710000Y-113030000D03*
G36*
G01*
X89300000Y-113875001D02*
X89300000Y-112184999D01*
G75*
G02*
X89549999Y-111935000I249999J0D01*
G01*
X90790001Y-111935000D01*
G75*
G02*
X91040000Y-112184999I0J-249999D01*
G01*
X91040000Y-113875001D01*
G75*
G02*
X90790001Y-114125000I-249999J0D01*
G01*
X89549999Y-114125000D01*
G75*
G02*
X89300000Y-113875001I0J249999D01*
G01*
G37*
%TD*%
D15*
%TO.C,POWER*%
X138430000Y-116205000D03*
D16*
X138430000Y-118745000D03*
%TD*%
%TO.C,GPIO2*%
G36*
G01*
X89300000Y-106255001D02*
X89300000Y-104564999D01*
G75*
G02*
X89549999Y-104315000I249999J0D01*
G01*
X90790001Y-104315000D01*
G75*
G02*
X91040000Y-104564999I0J-249999D01*
G01*
X91040000Y-106255001D01*
G75*
G02*
X90790001Y-106505000I-249999J0D01*
G01*
X89549999Y-106505000D01*
G75*
G02*
X89300000Y-106255001I0J249999D01*
G01*
G37*
D13*
X92710000Y-105410000D03*
%TD*%
%TO.C,GPIO 4*%
G36*
G01*
X104540000Y-107525001D02*
X104540000Y-105834999D01*
G75*
G02*
X104789999Y-105585000I249999J0D01*
G01*
X106030001Y-105585000D01*
G75*
G02*
X106280000Y-105834999I0J-249999D01*
G01*
X106280000Y-107525001D01*
G75*
G02*
X106030001Y-107775000I-249999J0D01*
G01*
X104789999Y-107775000D01*
G75*
G02*
X104540000Y-107525001I0J249999D01*
G01*
G37*
X107950000Y-106680000D03*
%TD*%
%TO.C,MOTOR 1*%
G36*
G01*
X94624999Y-80680000D02*
X95875001Y-80680000D01*
G75*
G02*
X96125000Y-80929999I0J-249999D01*
G01*
X96125000Y-81630001D01*
G75*
G02*
X95875001Y-81880000I-249999J0D01*
G01*
X94624999Y-81880000D01*
G75*
G02*
X94375000Y-81630001I0J249999D01*
G01*
X94375000Y-80929999D01*
G75*
G02*
X94624999Y-80680000I249999J0D01*
G01*
G37*
D17*
X95250000Y-83280000D03*
X95250000Y-85280000D03*
X95250000Y-87280000D03*
X95250000Y-89280000D03*
X95250000Y-91280000D03*
%TD*%
%TO.C,MOTOR 3*%
X134620000Y-82075000D03*
X134620000Y-84075000D03*
X134620000Y-86075000D03*
X134620000Y-88075000D03*
X134620000Y-90075000D03*
G36*
G01*
X135245001Y-92675000D02*
X133994999Y-92675000D01*
G75*
G02*
X133745000Y-92425001I0J249999D01*
G01*
X133745000Y-91724999D01*
G75*
G02*
X133994999Y-91475000I249999J0D01*
G01*
X135245001Y-91475000D01*
G75*
G02*
X135495000Y-91724999I0J-249999D01*
G01*
X135495000Y-92425001D01*
G75*
G02*
X135245001Y-92675000I-249999J0D01*
G01*
G37*
%TD*%
%TO.C,MOTOR2*%
G36*
G01*
X108620000Y-118735001D02*
X108620000Y-117484999D01*
G75*
G02*
X108869999Y-117235000I249999J0D01*
G01*
X109570001Y-117235000D01*
G75*
G02*
X109820000Y-117484999I0J-249999D01*
G01*
X109820000Y-118735001D01*
G75*
G02*
X109570001Y-118985000I-249999J0D01*
G01*
X108869999Y-118985000D01*
G75*
G02*
X108620000Y-118735001I0J249999D01*
G01*
G37*
D18*
X111220000Y-118110000D03*
X113220000Y-118110000D03*
X115220000Y-118110000D03*
X117220000Y-118110000D03*
X119220000Y-118110000D03*
%TD*%
D19*
%TO.C,RESET*%
X139700000Y-73025000D03*
X139700000Y-77525000D03*
X133200000Y-73025000D03*
X133200000Y-77525000D03*
%TD*%
%TO.C,BOOT*%
X120015000Y-106100000D03*
X120015000Y-101600000D03*
X126515000Y-106100000D03*
X126515000Y-101600000D03*
%TD*%
D20*
%TO.C,U1*%
X113605001Y-86310001D03*
D21*
X106105001Y-78810001D03*
X106105001Y-80080001D03*
X106105001Y-81350001D03*
X106105001Y-82620001D03*
X106105001Y-83890001D03*
X106105001Y-85160001D03*
X106105001Y-86430001D03*
X106105001Y-87700001D03*
X106105001Y-88970001D03*
X106105001Y-90240001D03*
X106105001Y-91510001D03*
X106105001Y-92780001D03*
X106105001Y-94050001D03*
X106105001Y-95320001D03*
D22*
X108890001Y-96320001D03*
X110160001Y-96320001D03*
X111430001Y-96320001D03*
X112700001Y-96320001D03*
X113970001Y-96320001D03*
X115240001Y-96320001D03*
X116510001Y-96320001D03*
X117780001Y-96320001D03*
X119050001Y-96320001D03*
X120320001Y-96320001D03*
D21*
X123105001Y-95320001D03*
X123105001Y-94050001D03*
X123105001Y-92780001D03*
X123105001Y-91510001D03*
X123105001Y-90240001D03*
X123105001Y-88970001D03*
X123105001Y-87700001D03*
X123105001Y-86430001D03*
X123105001Y-85160001D03*
X123105001Y-83890001D03*
X123105001Y-82620001D03*
X123105001Y-81350001D03*
X123105001Y-80080001D03*
X123105001Y-78810001D03*
%TD*%
D23*
%TO.C,U2*%
X132080000Y-109280000D03*
X134620000Y-109280000D03*
X137160000Y-109280000D03*
D24*
X134620000Y-100130000D03*
%TD*%
%TO.C,U3*%
G36*
G01*
X117125000Y-99270000D02*
X117325000Y-99270000D01*
G75*
G02*
X117425000Y-99370000I0J-100000D01*
G01*
X117425000Y-100645000D01*
G75*
G02*
X117325000Y-100745000I-100000J0D01*
G01*
X117125000Y-100745000D01*
G75*
G02*
X117025000Y-100645000I0J100000D01*
G01*
X117025000Y-99370000D01*
G75*
G02*
X117125000Y-99270000I100000J0D01*
G01*
G37*
G36*
G01*
X116475000Y-99270000D02*
X116675000Y-99270000D01*
G75*
G02*
X116775000Y-99370000I0J-100000D01*
G01*
X116775000Y-100645000D01*
G75*
G02*
X116675000Y-100745000I-100000J0D01*
G01*
X116475000Y-100745000D01*
G75*
G02*
X116375000Y-100645000I0J100000D01*
G01*
X116375000Y-99370000D01*
G75*
G02*
X116475000Y-99270000I100000J0D01*
G01*
G37*
G36*
G01*
X115825000Y-99270000D02*
X116025000Y-99270000D01*
G75*
G02*
X116125000Y-99370000I0J-100000D01*
G01*
X116125000Y-100645000D01*
G75*
G02*
X116025000Y-100745000I-100000J0D01*
G01*
X115825000Y-100745000D01*
G75*
G02*
X115725000Y-100645000I0J100000D01*
G01*
X115725000Y-99370000D01*
G75*
G02*
X115825000Y-99270000I100000J0D01*
G01*
G37*
G36*
G01*
X115175000Y-99270000D02*
X115375000Y-99270000D01*
G75*
G02*
X115475000Y-99370000I0J-100000D01*
G01*
X115475000Y-100645000D01*
G75*
G02*
X115375000Y-100745000I-100000J0D01*
G01*
X115175000Y-100745000D01*
G75*
G02*
X115075000Y-100645000I0J100000D01*
G01*
X115075000Y-99370000D01*
G75*
G02*
X115175000Y-99270000I100000J0D01*
G01*
G37*
G36*
G01*
X114525000Y-99270000D02*
X114725000Y-99270000D01*
G75*
G02*
X114825000Y-99370000I0J-100000D01*
G01*
X114825000Y-100645000D01*
G75*
G02*
X114725000Y-100745000I-100000J0D01*
G01*
X114525000Y-100745000D01*
G75*
G02*
X114425000Y-100645000I0J100000D01*
G01*
X114425000Y-99370000D01*
G75*
G02*
X114525000Y-99270000I100000J0D01*
G01*
G37*
G36*
G01*
X113875000Y-99270000D02*
X114075000Y-99270000D01*
G75*
G02*
X114175000Y-99370000I0J-100000D01*
G01*
X114175000Y-100645000D01*
G75*
G02*
X114075000Y-100745000I-100000J0D01*
G01*
X113875000Y-100745000D01*
G75*
G02*
X113775000Y-100645000I0J100000D01*
G01*
X113775000Y-99370000D01*
G75*
G02*
X113875000Y-99270000I100000J0D01*
G01*
G37*
G36*
G01*
X113225000Y-99270000D02*
X113425000Y-99270000D01*
G75*
G02*
X113525000Y-99370000I0J-100000D01*
G01*
X113525000Y-100645000D01*
G75*
G02*
X113425000Y-100745000I-100000J0D01*
G01*
X113225000Y-100745000D01*
G75*
G02*
X113125000Y-100645000I0J100000D01*
G01*
X113125000Y-99370000D01*
G75*
G02*
X113225000Y-99270000I100000J0D01*
G01*
G37*
G36*
G01*
X112575000Y-99270000D02*
X112775000Y-99270000D01*
G75*
G02*
X112875000Y-99370000I0J-100000D01*
G01*
X112875000Y-100645000D01*
G75*
G02*
X112775000Y-100745000I-100000J0D01*
G01*
X112575000Y-100745000D01*
G75*
G02*
X112475000Y-100645000I0J100000D01*
G01*
X112475000Y-99370000D01*
G75*
G02*
X112575000Y-99270000I100000J0D01*
G01*
G37*
G36*
G01*
X111925000Y-99270000D02*
X112125000Y-99270000D01*
G75*
G02*
X112225000Y-99370000I0J-100000D01*
G01*
X112225000Y-100645000D01*
G75*
G02*
X112125000Y-100745000I-100000J0D01*
G01*
X111925000Y-100745000D01*
G75*
G02*
X111825000Y-100645000I0J100000D01*
G01*
X111825000Y-99370000D01*
G75*
G02*
X111925000Y-99270000I100000J0D01*
G01*
G37*
G36*
G01*
X111275000Y-99270000D02*
X111475000Y-99270000D01*
G75*
G02*
X111575000Y-99370000I0J-100000D01*
G01*
X111575000Y-100645000D01*
G75*
G02*
X111475000Y-100745000I-100000J0D01*
G01*
X111275000Y-100745000D01*
G75*
G02*
X111175000Y-100645000I0J100000D01*
G01*
X111175000Y-99370000D01*
G75*
G02*
X111275000Y-99270000I100000J0D01*
G01*
G37*
G36*
G01*
X111275000Y-104995000D02*
X111475000Y-104995000D01*
G75*
G02*
X111575000Y-105095000I0J-100000D01*
G01*
X111575000Y-106370000D01*
G75*
G02*
X111475000Y-106470000I-100000J0D01*
G01*
X111275000Y-106470000D01*
G75*
G02*
X111175000Y-106370000I0J100000D01*
G01*
X111175000Y-105095000D01*
G75*
G02*
X111275000Y-104995000I100000J0D01*
G01*
G37*
G36*
G01*
X111925000Y-104995000D02*
X112125000Y-104995000D01*
G75*
G02*
X112225000Y-105095000I0J-100000D01*
G01*
X112225000Y-106370000D01*
G75*
G02*
X112125000Y-106470000I-100000J0D01*
G01*
X111925000Y-106470000D01*
G75*
G02*
X111825000Y-106370000I0J100000D01*
G01*
X111825000Y-105095000D01*
G75*
G02*
X111925000Y-104995000I100000J0D01*
G01*
G37*
G36*
G01*
X112575000Y-104995000D02*
X112775000Y-104995000D01*
G75*
G02*
X112875000Y-105095000I0J-100000D01*
G01*
X112875000Y-106370000D01*
G75*
G02*
X112775000Y-106470000I-100000J0D01*
G01*
X112575000Y-106470000D01*
G75*
G02*
X112475000Y-106370000I0J100000D01*
G01*
X112475000Y-105095000D01*
G75*
G02*
X112575000Y-104995000I100000J0D01*
G01*
G37*
G36*
G01*
X113225000Y-104995000D02*
X113425000Y-104995000D01*
G75*
G02*
X113525000Y-105095000I0J-100000D01*
G01*
X113525000Y-106370000D01*
G75*
G02*
X113425000Y-106470000I-100000J0D01*
G01*
X113225000Y-106470000D01*
G75*
G02*
X113125000Y-106370000I0J100000D01*
G01*
X113125000Y-105095000D01*
G75*
G02*
X113225000Y-104995000I100000J0D01*
G01*
G37*
G36*
G01*
X113875000Y-104995000D02*
X114075000Y-104995000D01*
G75*
G02*
X114175000Y-105095000I0J-100000D01*
G01*
X114175000Y-106370000D01*
G75*
G02*
X114075000Y-106470000I-100000J0D01*
G01*
X113875000Y-106470000D01*
G75*
G02*
X113775000Y-106370000I0J100000D01*
G01*
X113775000Y-105095000D01*
G75*
G02*
X113875000Y-104995000I100000J0D01*
G01*
G37*
G36*
G01*
X114525000Y-104995000D02*
X114725000Y-104995000D01*
G75*
G02*
X114825000Y-105095000I0J-100000D01*
G01*
X114825000Y-106370000D01*
G75*
G02*
X114725000Y-106470000I-100000J0D01*
G01*
X114525000Y-106470000D01*
G75*
G02*
X114425000Y-106370000I0J100000D01*
G01*
X114425000Y-105095000D01*
G75*
G02*
X114525000Y-104995000I100000J0D01*
G01*
G37*
G36*
G01*
X115175000Y-104995000D02*
X115375000Y-104995000D01*
G75*
G02*
X115475000Y-105095000I0J-100000D01*
G01*
X115475000Y-106370000D01*
G75*
G02*
X115375000Y-106470000I-100000J0D01*
G01*
X115175000Y-106470000D01*
G75*
G02*
X115075000Y-106370000I0J100000D01*
G01*
X115075000Y-105095000D01*
G75*
G02*
X115175000Y-104995000I100000J0D01*
G01*
G37*
G36*
G01*
X115825000Y-104995000D02*
X116025000Y-104995000D01*
G75*
G02*
X116125000Y-105095000I0J-100000D01*
G01*
X116125000Y-106370000D01*
G75*
G02*
X116025000Y-106470000I-100000J0D01*
G01*
X115825000Y-106470000D01*
G75*
G02*
X115725000Y-106370000I0J100000D01*
G01*
X115725000Y-105095000D01*
G75*
G02*
X115825000Y-104995000I100000J0D01*
G01*
G37*
G36*
G01*
X116475000Y-104995000D02*
X116675000Y-104995000D01*
G75*
G02*
X116775000Y-105095000I0J-100000D01*
G01*
X116775000Y-106370000D01*
G75*
G02*
X116675000Y-106470000I-100000J0D01*
G01*
X116475000Y-106470000D01*
G75*
G02*
X116375000Y-106370000I0J100000D01*
G01*
X116375000Y-105095000D01*
G75*
G02*
X116475000Y-104995000I100000J0D01*
G01*
G37*
G36*
G01*
X117125000Y-104995000D02*
X117325000Y-104995000D01*
G75*
G02*
X117425000Y-105095000I0J-100000D01*
G01*
X117425000Y-106370000D01*
G75*
G02*
X117325000Y-106470000I-100000J0D01*
G01*
X117125000Y-106470000D01*
G75*
G02*
X117025000Y-106370000I0J100000D01*
G01*
X117025000Y-105095000D01*
G75*
G02*
X117125000Y-104995000I100000J0D01*
G01*
G37*
%TD*%
D25*
%TO.C,U4*%
X100330000Y-86360000D03*
G36*
G01*
X98675000Y-90405000D02*
X98175000Y-90405000D01*
G75*
G02*
X98105000Y-90335000I0J70000D01*
G01*
X98105000Y-88135000D01*
G75*
G02*
X98175000Y-88065000I70000J0D01*
G01*
X98675000Y-88065000D01*
G75*
G02*
X98745000Y-88135000I0J-70000D01*
G01*
X98745000Y-90335000D01*
G75*
G02*
X98675000Y-90405000I-70000J0D01*
G01*
G37*
G36*
G01*
X99945000Y-90405000D02*
X99445000Y-90405000D01*
G75*
G02*
X99375000Y-90335000I0J70000D01*
G01*
X99375000Y-88135000D01*
G75*
G02*
X99445000Y-88065000I70000J0D01*
G01*
X99945000Y-88065000D01*
G75*
G02*
X100015000Y-88135000I0J-70000D01*
G01*
X100015000Y-90335000D01*
G75*
G02*
X99945000Y-90405000I-70000J0D01*
G01*
G37*
G36*
G01*
X101215000Y-90405000D02*
X100715000Y-90405000D01*
G75*
G02*
X100645000Y-90335000I0J70000D01*
G01*
X100645000Y-88135000D01*
G75*
G02*
X100715000Y-88065000I70000J0D01*
G01*
X101215000Y-88065000D01*
G75*
G02*
X101285000Y-88135000I0J-70000D01*
G01*
X101285000Y-90335000D01*
G75*
G02*
X101215000Y-90405000I-70000J0D01*
G01*
G37*
G36*
G01*
X102485000Y-90405000D02*
X101985000Y-90405000D01*
G75*
G02*
X101915000Y-90335000I0J70000D01*
G01*
X101915000Y-88135000D01*
G75*
G02*
X101985000Y-88065000I70000J0D01*
G01*
X102485000Y-88065000D01*
G75*
G02*
X102555000Y-88135000I0J-70000D01*
G01*
X102555000Y-90335000D01*
G75*
G02*
X102485000Y-90405000I-70000J0D01*
G01*
G37*
G36*
G01*
X102485000Y-84655000D02*
X101985000Y-84655000D01*
G75*
G02*
X101915000Y-84585000I0J70000D01*
G01*
X101915000Y-82385000D01*
G75*
G02*
X101985000Y-82315000I70000J0D01*
G01*
X102485000Y-82315000D01*
G75*
G02*
X102555000Y-82385000I0J-70000D01*
G01*
X102555000Y-84585000D01*
G75*
G02*
X102485000Y-84655000I-70000J0D01*
G01*
G37*
G36*
G01*
X101215000Y-84655000D02*
X100715000Y-84655000D01*
G75*
G02*
X100645000Y-84585000I0J70000D01*
G01*
X100645000Y-82385000D01*
G75*
G02*
X100715000Y-82315000I70000J0D01*
G01*
X101215000Y-82315000D01*
G75*
G02*
X101285000Y-82385000I0J-70000D01*
G01*
X101285000Y-84585000D01*
G75*
G02*
X101215000Y-84655000I-70000J0D01*
G01*
G37*
G36*
G01*
X99945000Y-84655000D02*
X99445000Y-84655000D01*
G75*
G02*
X99375000Y-84585000I0J70000D01*
G01*
X99375000Y-82385000D01*
G75*
G02*
X99445000Y-82315000I70000J0D01*
G01*
X99945000Y-82315000D01*
G75*
G02*
X100015000Y-82385000I0J-70000D01*
G01*
X100015000Y-84585000D01*
G75*
G02*
X99945000Y-84655000I-70000J0D01*
G01*
G37*
G36*
G01*
X98675000Y-84655000D02*
X98175000Y-84655000D01*
G75*
G02*
X98105000Y-84585000I0J70000D01*
G01*
X98105000Y-82385000D01*
G75*
G02*
X98175000Y-82315000I70000J0D01*
G01*
X98675000Y-82315000D01*
G75*
G02*
X98745000Y-82385000I0J-70000D01*
G01*
X98745000Y-84585000D01*
G75*
G02*
X98675000Y-84655000I-70000J0D01*
G01*
G37*
D26*
X99030000Y-87010000D03*
X100330000Y-87010000D03*
X100330000Y-85710000D03*
X99030000Y-85710000D03*
X101630000Y-87010000D03*
X101630000Y-85710000D03*
%TD*%
%TO.C,U5*%
X128240000Y-87010000D03*
X128240000Y-85710000D03*
X130840000Y-87010000D03*
X129540000Y-87010000D03*
X129540000Y-85710000D03*
X130840000Y-85710000D03*
G36*
G01*
X131195000Y-88065000D02*
X131695000Y-88065000D01*
G75*
G02*
X131765000Y-88135000I0J-70000D01*
G01*
X131765000Y-90335000D01*
G75*
G02*
X131695000Y-90405000I-70000J0D01*
G01*
X131195000Y-90405000D01*
G75*
G02*
X131125000Y-90335000I0J70000D01*
G01*
X131125000Y-88135000D01*
G75*
G02*
X131195000Y-88065000I70000J0D01*
G01*
G37*
G36*
G01*
X129925000Y-88065000D02*
X130425000Y-88065000D01*
G75*
G02*
X130495000Y-88135000I0J-70000D01*
G01*
X130495000Y-90335000D01*
G75*
G02*
X130425000Y-90405000I-70000J0D01*
G01*
X129925000Y-90405000D01*
G75*
G02*
X129855000Y-90335000I0J70000D01*
G01*
X129855000Y-88135000D01*
G75*
G02*
X129925000Y-88065000I70000J0D01*
G01*
G37*
G36*
G01*
X128655000Y-88065000D02*
X129155000Y-88065000D01*
G75*
G02*
X129225000Y-88135000I0J-70000D01*
G01*
X129225000Y-90335000D01*
G75*
G02*
X129155000Y-90405000I-70000J0D01*
G01*
X128655000Y-90405000D01*
G75*
G02*
X128585000Y-90335000I0J70000D01*
G01*
X128585000Y-88135000D01*
G75*
G02*
X128655000Y-88065000I70000J0D01*
G01*
G37*
G36*
G01*
X127385000Y-88065000D02*
X127885000Y-88065000D01*
G75*
G02*
X127955000Y-88135000I0J-70000D01*
G01*
X127955000Y-90335000D01*
G75*
G02*
X127885000Y-90405000I-70000J0D01*
G01*
X127385000Y-90405000D01*
G75*
G02*
X127315000Y-90335000I0J70000D01*
G01*
X127315000Y-88135000D01*
G75*
G02*
X127385000Y-88065000I70000J0D01*
G01*
G37*
G36*
G01*
X127385000Y-82315000D02*
X127885000Y-82315000D01*
G75*
G02*
X127955000Y-82385000I0J-70000D01*
G01*
X127955000Y-84585000D01*
G75*
G02*
X127885000Y-84655000I-70000J0D01*
G01*
X127385000Y-84655000D01*
G75*
G02*
X127315000Y-84585000I0J70000D01*
G01*
X127315000Y-82385000D01*
G75*
G02*
X127385000Y-82315000I70000J0D01*
G01*
G37*
G36*
G01*
X128655000Y-82315000D02*
X129155000Y-82315000D01*
G75*
G02*
X129225000Y-82385000I0J-70000D01*
G01*
X129225000Y-84585000D01*
G75*
G02*
X129155000Y-84655000I-70000J0D01*
G01*
X128655000Y-84655000D01*
G75*
G02*
X128585000Y-84585000I0J70000D01*
G01*
X128585000Y-82385000D01*
G75*
G02*
X128655000Y-82315000I70000J0D01*
G01*
G37*
G36*
G01*
X129925000Y-82315000D02*
X130425000Y-82315000D01*
G75*
G02*
X130495000Y-82385000I0J-70000D01*
G01*
X130495000Y-84585000D01*
G75*
G02*
X130425000Y-84655000I-70000J0D01*
G01*
X129925000Y-84655000D01*
G75*
G02*
X129855000Y-84585000I0J70000D01*
G01*
X129855000Y-82385000D01*
G75*
G02*
X129925000Y-82315000I70000J0D01*
G01*
G37*
G36*
G01*
X131195000Y-82315000D02*
X131695000Y-82315000D01*
G75*
G02*
X131765000Y-82385000I0J-70000D01*
G01*
X131765000Y-84585000D01*
G75*
G02*
X131695000Y-84655000I-70000J0D01*
G01*
X131195000Y-84655000D01*
G75*
G02*
X131125000Y-84585000I0J70000D01*
G01*
X131125000Y-82385000D01*
G75*
G02*
X131195000Y-82315000I70000J0D01*
G01*
G37*
D25*
X129540000Y-86360000D03*
%TD*%
D27*
%TO.C,U6*%
X114300000Y-113030000D03*
G36*
G01*
X110255000Y-111375000D02*
X110255000Y-110875000D01*
G75*
G02*
X110325000Y-110805000I70000J0D01*
G01*
X112525000Y-110805000D01*
G75*
G02*
X112595000Y-110875000I0J-70000D01*
G01*
X112595000Y-111375000D01*
G75*
G02*
X112525000Y-111445000I-70000J0D01*
G01*
X110325000Y-111445000D01*
G75*
G02*
X110255000Y-111375000I0J70000D01*
G01*
G37*
G36*
G01*
X110255000Y-112645000D02*
X110255000Y-112145000D01*
G75*
G02*
X110325000Y-112075000I70000J0D01*
G01*
X112525000Y-112075000D01*
G75*
G02*
X112595000Y-112145000I0J-70000D01*
G01*
X112595000Y-112645000D01*
G75*
G02*
X112525000Y-112715000I-70000J0D01*
G01*
X110325000Y-112715000D01*
G75*
G02*
X110255000Y-112645000I0J70000D01*
G01*
G37*
G36*
G01*
X110255000Y-113915000D02*
X110255000Y-113415000D01*
G75*
G02*
X110325000Y-113345000I70000J0D01*
G01*
X112525000Y-113345000D01*
G75*
G02*
X112595000Y-113415000I0J-70000D01*
G01*
X112595000Y-113915000D01*
G75*
G02*
X112525000Y-113985000I-70000J0D01*
G01*
X110325000Y-113985000D01*
G75*
G02*
X110255000Y-113915000I0J70000D01*
G01*
G37*
G36*
G01*
X110255000Y-115185000D02*
X110255000Y-114685000D01*
G75*
G02*
X110325000Y-114615000I70000J0D01*
G01*
X112525000Y-114615000D01*
G75*
G02*
X112595000Y-114685000I0J-70000D01*
G01*
X112595000Y-115185000D01*
G75*
G02*
X112525000Y-115255000I-70000J0D01*
G01*
X110325000Y-115255000D01*
G75*
G02*
X110255000Y-115185000I0J70000D01*
G01*
G37*
G36*
G01*
X116005000Y-115185000D02*
X116005000Y-114685000D01*
G75*
G02*
X116075000Y-114615000I70000J0D01*
G01*
X118275000Y-114615000D01*
G75*
G02*
X118345000Y-114685000I0J-70000D01*
G01*
X118345000Y-115185000D01*
G75*
G02*
X118275000Y-115255000I-70000J0D01*
G01*
X116075000Y-115255000D01*
G75*
G02*
X116005000Y-115185000I0J70000D01*
G01*
G37*
G36*
G01*
X116005000Y-113915000D02*
X116005000Y-113415000D01*
G75*
G02*
X116075000Y-113345000I70000J0D01*
G01*
X118275000Y-113345000D01*
G75*
G02*
X118345000Y-113415000I0J-70000D01*
G01*
X118345000Y-113915000D01*
G75*
G02*
X118275000Y-113985000I-70000J0D01*
G01*
X116075000Y-113985000D01*
G75*
G02*
X116005000Y-113915000I0J70000D01*
G01*
G37*
G36*
G01*
X116005000Y-112645000D02*
X116005000Y-112145000D01*
G75*
G02*
X116075000Y-112075000I70000J0D01*
G01*
X118275000Y-112075000D01*
G75*
G02*
X118345000Y-112145000I0J-70000D01*
G01*
X118345000Y-112645000D01*
G75*
G02*
X118275000Y-112715000I-70000J0D01*
G01*
X116075000Y-112715000D01*
G75*
G02*
X116005000Y-112645000I0J70000D01*
G01*
G37*
G36*
G01*
X116005000Y-111375000D02*
X116005000Y-110875000D01*
G75*
G02*
X116075000Y-110805000I70000J0D01*
G01*
X118275000Y-110805000D01*
G75*
G02*
X118345000Y-110875000I0J-70000D01*
G01*
X118345000Y-111375000D01*
G75*
G02*
X118275000Y-111445000I-70000J0D01*
G01*
X116075000Y-111445000D01*
G75*
G02*
X116005000Y-111375000I0J70000D01*
G01*
G37*
D26*
X113650000Y-111730000D03*
X113650000Y-113030000D03*
X114950000Y-113030000D03*
X114950000Y-111730000D03*
X113650000Y-114330000D03*
X114950000Y-114330000D03*
%TD*%
D28*
%TO.C,C1*%
X123190000Y-114300000D03*
D29*
X123190000Y-111800000D03*
%TD*%
%TO.C,C2*%
G36*
G01*
X126685000Y-117009999D02*
X126685000Y-119210001D01*
G75*
G02*
X126435001Y-119460000I-249999J0D01*
G01*
X125609999Y-119460000D01*
G75*
G02*
X125360000Y-119210001I0J249999D01*
G01*
X125360000Y-117009999D01*
G75*
G02*
X125609999Y-116760000I249999J0D01*
G01*
X126435001Y-116760000D01*
G75*
G02*
X126685000Y-117009999I0J-249999D01*
G01*
G37*
G36*
G01*
X123560000Y-117009999D02*
X123560000Y-119210001D01*
G75*
G02*
X123310001Y-119460000I-249999J0D01*
G01*
X122484999Y-119460000D01*
G75*
G02*
X122235000Y-119210001I0J249999D01*
G01*
X122235000Y-117009999D01*
G75*
G02*
X122484999Y-116760000I249999J0D01*
G01*
X123310001Y-116760000D01*
G75*
G02*
X123560000Y-117009999I0J-249999D01*
G01*
G37*
%TD*%
M02*
