%TF.GenerationSoftware,KiCad,Pcbnew,5.1.9+dfsg1-1*%
%TF.CreationDate,2021-08-08T23:21:56+02:00*%
%TF.ProjectId,holobot_esp32,686f6c6f-626f-4745-9f65-737033322e6b,rev?*%
%TF.SameCoordinates,Original*%
%TF.FileFunction,Copper,L1,Top*%
%TF.FilePolarity,Positive*%
%FSLAX46Y46*%
G04 Gerber Fmt 4.6, Leading zero omitted, Abs format (unit mm)*
G04 Created by KiCad (PCBNEW 5.1.9+dfsg1-1) date 2021-08-08 23:21:56*
%MOMM*%
%LPD*%
G01*
G04 APERTURE LIST*
%TA.AperFunction,SMDPad,CuDef*%
%ADD10R,1.200000X2.200000*%
%TD*%
%TA.AperFunction,SMDPad,CuDef*%
%ADD11R,5.800000X6.400000*%
%TD*%
%TA.AperFunction,ComponentPad*%
%ADD12O,1.740000X2.190000*%
%TD*%
%TA.AperFunction,ComponentPad*%
%ADD13O,2.190000X1.740000*%
%TD*%
%TA.AperFunction,ComponentPad*%
%ADD14R,1.700000X1.700000*%
%TD*%
%TA.AperFunction,ComponentPad*%
%ADD15O,1.700000X1.700000*%
%TD*%
%TA.AperFunction,ComponentPad*%
%ADD16O,1.750000X1.200000*%
%TD*%
%TA.AperFunction,ComponentPad*%
%ADD17O,1.200000X1.750000*%
%TD*%
%TA.AperFunction,ComponentPad*%
%ADD18C,2.000000*%
%TD*%
%TA.AperFunction,SMDPad,CuDef*%
%ADD19R,5.000000X5.000000*%
%TD*%
%TA.AperFunction,SMDPad,CuDef*%
%ADD20R,2.000000X0.900000*%
%TD*%
%TA.AperFunction,SMDPad,CuDef*%
%ADD21R,0.900000X2.000000*%
%TD*%
%TA.AperFunction,SMDPad,CuDef*%
%ADD22R,1.100000X4.600000*%
%TD*%
%TA.AperFunction,SMDPad,CuDef*%
%ADD23R,10.800000X9.400000*%
%TD*%
%TA.AperFunction,SMDPad,CuDef*%
%ADD24R,0.500000X2.200000*%
%TD*%
%TA.AperFunction,SMDPad,CuDef*%
%ADD25R,4.900000X2.950000*%
%TD*%
%TA.AperFunction,ComponentPad*%
%ADD26C,0.630000*%
%TD*%
%TA.AperFunction,SMDPad,CuDef*%
%ADD27R,2.200000X0.500000*%
%TD*%
%TA.AperFunction,SMDPad,CuDef*%
%ADD28R,2.950000X4.900000*%
%TD*%
%TA.AperFunction,ComponentPad*%
%ADD29R,1.600000X1.600000*%
%TD*%
%TA.AperFunction,ComponentPad*%
%ADD30C,1.600000*%
%TD*%
%TA.AperFunction,ViaPad*%
%ADD31C,0.800000*%
%TD*%
%TA.AperFunction,Conductor*%
%ADD32C,0.500000*%
%TD*%
%TA.AperFunction,Conductor*%
%ADD33C,0.250000*%
%TD*%
G04 APERTURE END LIST*
D10*
%TO.P,D1,1*%
%TO.N,+12V*%
X133090000Y-113910000D03*
%TO.P,D1,3*%
%TO.N,N/C*%
X128530000Y-113910000D03*
D11*
%TO.P,D1,2*%
%TO.N,Net-(D1-Pad2)*%
X130810000Y-120210000D03*
%TD*%
D12*
%TO.P,I2C,4*%
%TO.N,GND*%
X104775000Y-121285000D03*
%TO.P,I2C,3*%
%TO.N,/I2C_SCL*%
X102235000Y-121285000D03*
%TO.P,I2C,2*%
%TO.N,/I2C_SDA*%
X99695000Y-121285000D03*
%TO.P,I2C,1*%
%TO.N,+5V*%
%TA.AperFunction,ComponentPad*%
G36*
G01*
X96285000Y-122130001D02*
X96285000Y-120439999D01*
G75*
G02*
X96534999Y-120190000I249999J0D01*
G01*
X97775001Y-120190000D01*
G75*
G02*
X98025000Y-120439999I0J-249999D01*
G01*
X98025000Y-122130001D01*
G75*
G02*
X97775001Y-122380000I-249999J0D01*
G01*
X96534999Y-122380000D01*
G75*
G02*
X96285000Y-122130001I0J249999D01*
G01*
G37*
%TD.AperFunction*%
%TD*%
%TO.P,I2C,1*%
%TO.N,+5V*%
%TA.AperFunction,ComponentPad*%
G36*
G01*
X96285000Y-115145001D02*
X96285000Y-113454999D01*
G75*
G02*
X96534999Y-113205000I249999J0D01*
G01*
X97775001Y-113205000D01*
G75*
G02*
X98025000Y-113454999I0J-249999D01*
G01*
X98025000Y-115145001D01*
G75*
G02*
X97775001Y-115395000I-249999J0D01*
G01*
X96534999Y-115395000D01*
G75*
G02*
X96285000Y-115145001I0J249999D01*
G01*
G37*
%TD.AperFunction*%
%TO.P,I2C,2*%
%TO.N,/I2C_SDA*%
X99695000Y-114300000D03*
%TO.P,I2C,3*%
%TO.N,/I2C_SCL*%
X102235000Y-114300000D03*
%TO.P,I2C,4*%
%TO.N,GND*%
X104775000Y-114300000D03*
%TD*%
%TO.P,UART,1*%
%TO.N,Net-(J3-Pad1)*%
%TA.AperFunction,ComponentPad*%
G36*
G01*
X100540001Y-109455000D02*
X98849999Y-109455000D01*
G75*
G02*
X98600000Y-109205001I0J249999D01*
G01*
X98600000Y-107964999D01*
G75*
G02*
X98849999Y-107715000I249999J0D01*
G01*
X100540001Y-107715000D01*
G75*
G02*
X100790000Y-107964999I0J-249999D01*
G01*
X100790000Y-109205001D01*
G75*
G02*
X100540001Y-109455000I-249999J0D01*
G01*
G37*
%TD.AperFunction*%
D13*
%TO.P,UART,2*%
%TO.N,/UART_TX*%
X99695000Y-106045000D03*
%TO.P,UART,3*%
%TO.N,/UART_RX*%
X99695000Y-103505000D03*
%TO.P,UART,4*%
%TO.N,GND*%
X99695000Y-100965000D03*
%TD*%
D12*
%TO.P,GPIO1,2*%
%TO.N,/GPIO1*%
X92710000Y-97790000D03*
%TO.P,GPIO1,1*%
%TO.N,GND*%
%TA.AperFunction,ComponentPad*%
G36*
G01*
X89300000Y-98635001D02*
X89300000Y-96944999D01*
G75*
G02*
X89549999Y-96695000I249999J0D01*
G01*
X90790001Y-96695000D01*
G75*
G02*
X91040000Y-96944999I0J-249999D01*
G01*
X91040000Y-98635001D01*
G75*
G02*
X90790001Y-98885000I-249999J0D01*
G01*
X89549999Y-98885000D01*
G75*
G02*
X89300000Y-98635001I0J249999D01*
G01*
G37*
%TD.AperFunction*%
%TD*%
%TO.P,GPIO3,2*%
%TO.N,/GPIO3*%
X92710000Y-113030000D03*
%TO.P,GPIO3,1*%
%TO.N,GND*%
%TA.AperFunction,ComponentPad*%
G36*
G01*
X89300000Y-113875001D02*
X89300000Y-112184999D01*
G75*
G02*
X89549999Y-111935000I249999J0D01*
G01*
X90790001Y-111935000D01*
G75*
G02*
X91040000Y-112184999I0J-249999D01*
G01*
X91040000Y-113875001D01*
G75*
G02*
X90790001Y-114125000I-249999J0D01*
G01*
X89549999Y-114125000D01*
G75*
G02*
X89300000Y-113875001I0J249999D01*
G01*
G37*
%TD.AperFunction*%
%TD*%
D14*
%TO.P,POWER,1*%
%TO.N,GND*%
X138430000Y-116205000D03*
D15*
%TO.P,POWER,2*%
%TO.N,Net-(D1-Pad2)*%
X138430000Y-118745000D03*
%TD*%
%TO.P,GPIO2,1*%
%TO.N,GND*%
%TA.AperFunction,ComponentPad*%
G36*
G01*
X89300000Y-106255001D02*
X89300000Y-104564999D01*
G75*
G02*
X89549999Y-104315000I249999J0D01*
G01*
X90790001Y-104315000D01*
G75*
G02*
X91040000Y-104564999I0J-249999D01*
G01*
X91040000Y-106255001D01*
G75*
G02*
X90790001Y-106505000I-249999J0D01*
G01*
X89549999Y-106505000D01*
G75*
G02*
X89300000Y-106255001I0J249999D01*
G01*
G37*
%TD.AperFunction*%
D12*
%TO.P,GPIO2,2*%
%TO.N,/GPIO2*%
X92710000Y-105410000D03*
%TD*%
%TO.P,GPIO 4,1*%
%TO.N,GND*%
%TA.AperFunction,ComponentPad*%
G36*
G01*
X104540000Y-107525001D02*
X104540000Y-105834999D01*
G75*
G02*
X104789999Y-105585000I249999J0D01*
G01*
X106030001Y-105585000D01*
G75*
G02*
X106280000Y-105834999I0J-249999D01*
G01*
X106280000Y-107525001D01*
G75*
G02*
X106030001Y-107775000I-249999J0D01*
G01*
X104789999Y-107775000D01*
G75*
G02*
X104540000Y-107525001I0J249999D01*
G01*
G37*
%TD.AperFunction*%
%TO.P,GPIO 4,2*%
%TO.N,/GPIO4*%
X107950000Y-106680000D03*
%TD*%
%TO.P,MOTOR 1,1*%
%TO.N,Net-(J9-Pad1)*%
%TA.AperFunction,ComponentPad*%
G36*
G01*
X94624999Y-80680000D02*
X95875001Y-80680000D01*
G75*
G02*
X96125000Y-80929999I0J-249999D01*
G01*
X96125000Y-81630001D01*
G75*
G02*
X95875001Y-81880000I-249999J0D01*
G01*
X94624999Y-81880000D01*
G75*
G02*
X94375000Y-81630001I0J249999D01*
G01*
X94375000Y-80929999D01*
G75*
G02*
X94624999Y-80680000I249999J0D01*
G01*
G37*
%TD.AperFunction*%
D16*
%TO.P,MOTOR 1,2*%
%TO.N,Net-(J9-Pad2)*%
X95250000Y-83280000D03*
%TO.P,MOTOR 1,3*%
%TO.N,GND*%
X95250000Y-85280000D03*
%TO.P,MOTOR 1,4*%
%TO.N,+5V*%
X95250000Y-87280000D03*
%TO.P,MOTOR 1,5*%
%TO.N,Net-(J9-Pad5)*%
X95250000Y-89280000D03*
%TO.P,MOTOR 1,6*%
%TO.N,Net-(J9-Pad6)*%
X95250000Y-91280000D03*
%TD*%
%TO.P,MOTOR 3,6*%
%TO.N,Net-(J10-Pad6)*%
X134620000Y-82075000D03*
%TO.P,MOTOR 3,5*%
%TO.N,Net-(J10-Pad5)*%
X134620000Y-84075000D03*
%TO.P,MOTOR 3,4*%
%TO.N,+5V*%
X134620000Y-86075000D03*
%TO.P,MOTOR 3,3*%
%TO.N,GND*%
X134620000Y-88075000D03*
%TO.P,MOTOR 3,2*%
%TO.N,Net-(J10-Pad2)*%
X134620000Y-90075000D03*
%TO.P,MOTOR 3,1*%
%TO.N,Net-(J10-Pad1)*%
%TA.AperFunction,ComponentPad*%
G36*
G01*
X135245001Y-92675000D02*
X133994999Y-92675000D01*
G75*
G02*
X133745000Y-92425001I0J249999D01*
G01*
X133745000Y-91724999D01*
G75*
G02*
X133994999Y-91475000I249999J0D01*
G01*
X135245001Y-91475000D01*
G75*
G02*
X135495000Y-91724999I0J-249999D01*
G01*
X135495000Y-92425001D01*
G75*
G02*
X135245001Y-92675000I-249999J0D01*
G01*
G37*
%TD.AperFunction*%
%TD*%
%TO.P,MOTOR2,1*%
%TO.N,Net-(J11-Pad1)*%
%TA.AperFunction,ComponentPad*%
G36*
G01*
X108620000Y-118735001D02*
X108620000Y-117484999D01*
G75*
G02*
X108869999Y-117235000I249999J0D01*
G01*
X109570001Y-117235000D01*
G75*
G02*
X109820000Y-117484999I0J-249999D01*
G01*
X109820000Y-118735001D01*
G75*
G02*
X109570001Y-118985000I-249999J0D01*
G01*
X108869999Y-118985000D01*
G75*
G02*
X108620000Y-118735001I0J249999D01*
G01*
G37*
%TD.AperFunction*%
D17*
%TO.P,MOTOR2,2*%
%TO.N,Net-(J11-Pad2)*%
X111220000Y-118110000D03*
%TO.P,MOTOR2,3*%
%TO.N,GND*%
X113220000Y-118110000D03*
%TO.P,MOTOR2,4*%
%TO.N,+5V*%
X115220000Y-118110000D03*
%TO.P,MOTOR2,5*%
%TO.N,Net-(J11-Pad5)*%
X117220000Y-118110000D03*
%TO.P,MOTOR2,6*%
%TO.N,Net-(J11-Pad6)*%
X119220000Y-118110000D03*
%TD*%
D18*
%TO.P,RESET,1*%
%TO.N,GND*%
X139700000Y-73025000D03*
%TO.P,RESET,2*%
%TO.N,Net-(R1-Pad2)*%
X139700000Y-77525000D03*
%TO.P,RESET,1*%
%TO.N,GND*%
X133200000Y-73025000D03*
%TO.P,RESET,2*%
%TO.N,Net-(R1-Pad2)*%
X133200000Y-77525000D03*
%TD*%
%TO.P,BOOT,2*%
%TO.N,Net-(SW2-Pad2)*%
X120015000Y-106100000D03*
%TO.P,BOOT,1*%
%TO.N,GND*%
X120015000Y-101600000D03*
%TO.P,BOOT,2*%
%TO.N,Net-(SW2-Pad2)*%
X126515000Y-106100000D03*
%TO.P,BOOT,1*%
%TO.N,GND*%
X126515000Y-101600000D03*
%TD*%
D19*
%TO.P,U1,39*%
%TO.N,GND*%
X113605001Y-86310001D03*
D20*
%TO.P,U1,1*%
X106105001Y-78810001D03*
%TO.P,U1,2*%
%TO.N,+3V3*%
X106105001Y-80080001D03*
%TO.P,U1,3*%
%TO.N,Net-(R1-Pad2)*%
X106105001Y-81350001D03*
%TO.P,U1,4*%
%TO.N,Net-(U1-Pad4)*%
X106105001Y-82620001D03*
%TO.P,U1,5*%
%TO.N,Net-(U1-Pad5)*%
X106105001Y-83890001D03*
%TO.P,U1,6*%
%TO.N,Net-(U1-Pad6)*%
X106105001Y-85160001D03*
%TO.P,U1,7*%
%TO.N,Net-(U1-Pad7)*%
X106105001Y-86430001D03*
%TO.P,U1,8*%
%TO.N,/DRV1A*%
X106105001Y-87700001D03*
%TO.P,U1,9*%
%TO.N,/DRV1B*%
X106105001Y-88970001D03*
%TO.P,U1,10*%
%TO.N,/GPIO1*%
X106105001Y-90240001D03*
%TO.P,U1,11*%
%TO.N,/GPIO2*%
X106105001Y-91510001D03*
%TO.P,U1,12*%
%TO.N,/SENSE3B*%
X106105001Y-92780001D03*
%TO.P,U1,13*%
%TO.N,/SENSE3A*%
X106105001Y-94050001D03*
%TO.P,U1,14*%
%TO.N,Net-(U1-Pad14)*%
X106105001Y-95320001D03*
D21*
%TO.P,U1,15*%
%TO.N,GND*%
X108890001Y-96320001D03*
%TO.P,U1,16*%
%TO.N,/SENSE2B*%
X110160001Y-96320001D03*
%TO.P,U1,17*%
%TO.N,Net-(U1-Pad17)*%
X111430001Y-96320001D03*
%TO.P,U1,18*%
%TO.N,Net-(U1-Pad18)*%
X112700001Y-96320001D03*
%TO.P,U1,19*%
%TO.N,Net-(U1-Pad19)*%
X113970001Y-96320001D03*
%TO.P,U1,20*%
%TO.N,Net-(U1-Pad20)*%
X115240001Y-96320001D03*
%TO.P,U1,21*%
%TO.N,Net-(U1-Pad21)*%
X116510001Y-96320001D03*
%TO.P,U1,22*%
%TO.N,Net-(U1-Pad22)*%
X117780001Y-96320001D03*
%TO.P,U1,23*%
%TO.N,/SENSE2A*%
X119050001Y-96320001D03*
%TO.P,U1,24*%
%TO.N,/SENSE1B*%
X120320001Y-96320001D03*
D20*
%TO.P,U1,25*%
%TO.N,Net-(SW2-Pad2)*%
X123105001Y-95320001D03*
%TO.P,U1,26*%
%TO.N,/SENSE1A*%
X123105001Y-94050001D03*
%TO.P,U1,27*%
%TO.N,/GPIO3*%
X123105001Y-92780001D03*
%TO.P,U1,28*%
%TO.N,/GPIO4*%
X123105001Y-91510001D03*
%TO.P,U1,29*%
%TO.N,/DRV2A*%
X123105001Y-90240001D03*
%TO.P,U1,30*%
%TO.N,/DRV2B*%
X123105001Y-88970001D03*
%TO.P,U1,31*%
%TO.N,/I2C_SDA*%
X123105001Y-87700001D03*
%TO.P,U1,32*%
%TO.N,Net-(U1-Pad32)*%
X123105001Y-86430001D03*
%TO.P,U1,33*%
%TO.N,/I2C_SCL*%
X123105001Y-85160001D03*
%TO.P,U1,34*%
%TO.N,/UART_RX*%
X123105001Y-83890001D03*
%TO.P,U1,35*%
%TO.N,/UART_TX*%
X123105001Y-82620001D03*
%TO.P,U1,36*%
%TO.N,/DRV3A*%
X123105001Y-81350001D03*
%TO.P,U1,37*%
%TO.N,/DRV3B*%
X123105001Y-80080001D03*
%TO.P,U1,38*%
%TO.N,GND*%
X123105001Y-78810001D03*
%TD*%
D22*
%TO.P,U2,1*%
%TO.N,GND*%
X132080000Y-109280000D03*
%TO.P,U2,2*%
%TO.N,+3V3*%
X134620000Y-109280000D03*
%TO.P,U2,3*%
%TO.N,+12V*%
X137160000Y-109280000D03*
D23*
%TO.P,U2,2*%
%TO.N,+3V3*%
X134620000Y-100130000D03*
%TD*%
%TO.P,U3,1*%
%TO.N,/SENSE1A*%
%TA.AperFunction,SMDPad,CuDef*%
G36*
G01*
X117125000Y-99270000D02*
X117325000Y-99270000D01*
G75*
G02*
X117425000Y-99370000I0J-100000D01*
G01*
X117425000Y-100645000D01*
G75*
G02*
X117325000Y-100745000I-100000J0D01*
G01*
X117125000Y-100745000D01*
G75*
G02*
X117025000Y-100645000I0J100000D01*
G01*
X117025000Y-99370000D01*
G75*
G02*
X117125000Y-99270000I100000J0D01*
G01*
G37*
%TD.AperFunction*%
%TO.P,U3,2*%
%TO.N,+3V3*%
%TA.AperFunction,SMDPad,CuDef*%
G36*
G01*
X116475000Y-99270000D02*
X116675000Y-99270000D01*
G75*
G02*
X116775000Y-99370000I0J-100000D01*
G01*
X116775000Y-100645000D01*
G75*
G02*
X116675000Y-100745000I-100000J0D01*
G01*
X116475000Y-100745000D01*
G75*
G02*
X116375000Y-100645000I0J100000D01*
G01*
X116375000Y-99370000D01*
G75*
G02*
X116475000Y-99270000I100000J0D01*
G01*
G37*
%TD.AperFunction*%
%TO.P,U3,3*%
%TO.N,/SENSE1B*%
%TA.AperFunction,SMDPad,CuDef*%
G36*
G01*
X115825000Y-99270000D02*
X116025000Y-99270000D01*
G75*
G02*
X116125000Y-99370000I0J-100000D01*
G01*
X116125000Y-100645000D01*
G75*
G02*
X116025000Y-100745000I-100000J0D01*
G01*
X115825000Y-100745000D01*
G75*
G02*
X115725000Y-100645000I0J100000D01*
G01*
X115725000Y-99370000D01*
G75*
G02*
X115825000Y-99270000I100000J0D01*
G01*
G37*
%TD.AperFunction*%
%TO.P,U3,4*%
%TO.N,/SENSE2A*%
%TA.AperFunction,SMDPad,CuDef*%
G36*
G01*
X115175000Y-99270000D02*
X115375000Y-99270000D01*
G75*
G02*
X115475000Y-99370000I0J-100000D01*
G01*
X115475000Y-100645000D01*
G75*
G02*
X115375000Y-100745000I-100000J0D01*
G01*
X115175000Y-100745000D01*
G75*
G02*
X115075000Y-100645000I0J100000D01*
G01*
X115075000Y-99370000D01*
G75*
G02*
X115175000Y-99270000I100000J0D01*
G01*
G37*
%TD.AperFunction*%
%TO.P,U3,5*%
%TO.N,/SENSE2B*%
%TA.AperFunction,SMDPad,CuDef*%
G36*
G01*
X114525000Y-99270000D02*
X114725000Y-99270000D01*
G75*
G02*
X114825000Y-99370000I0J-100000D01*
G01*
X114825000Y-100645000D01*
G75*
G02*
X114725000Y-100745000I-100000J0D01*
G01*
X114525000Y-100745000D01*
G75*
G02*
X114425000Y-100645000I0J100000D01*
G01*
X114425000Y-99370000D01*
G75*
G02*
X114525000Y-99270000I100000J0D01*
G01*
G37*
%TD.AperFunction*%
%TO.P,U3,6*%
%TO.N,/SENSE3A*%
%TA.AperFunction,SMDPad,CuDef*%
G36*
G01*
X113875000Y-99270000D02*
X114075000Y-99270000D01*
G75*
G02*
X114175000Y-99370000I0J-100000D01*
G01*
X114175000Y-100645000D01*
G75*
G02*
X114075000Y-100745000I-100000J0D01*
G01*
X113875000Y-100745000D01*
G75*
G02*
X113775000Y-100645000I0J100000D01*
G01*
X113775000Y-99370000D01*
G75*
G02*
X113875000Y-99270000I100000J0D01*
G01*
G37*
%TD.AperFunction*%
%TO.P,U3,7*%
%TO.N,/SENSE3B*%
%TA.AperFunction,SMDPad,CuDef*%
G36*
G01*
X113225000Y-99270000D02*
X113425000Y-99270000D01*
G75*
G02*
X113525000Y-99370000I0J-100000D01*
G01*
X113525000Y-100645000D01*
G75*
G02*
X113425000Y-100745000I-100000J0D01*
G01*
X113225000Y-100745000D01*
G75*
G02*
X113125000Y-100645000I0J100000D01*
G01*
X113125000Y-99370000D01*
G75*
G02*
X113225000Y-99270000I100000J0D01*
G01*
G37*
%TD.AperFunction*%
%TO.P,U3,8*%
%TO.N,Net-(U3-Pad8)*%
%TA.AperFunction,SMDPad,CuDef*%
G36*
G01*
X112575000Y-99270000D02*
X112775000Y-99270000D01*
G75*
G02*
X112875000Y-99370000I0J-100000D01*
G01*
X112875000Y-100645000D01*
G75*
G02*
X112775000Y-100745000I-100000J0D01*
G01*
X112575000Y-100745000D01*
G75*
G02*
X112475000Y-100645000I0J100000D01*
G01*
X112475000Y-99370000D01*
G75*
G02*
X112575000Y-99270000I100000J0D01*
G01*
G37*
%TD.AperFunction*%
%TO.P,U3,9*%
%TO.N,Net-(U3-Pad9)*%
%TA.AperFunction,SMDPad,CuDef*%
G36*
G01*
X111925000Y-99270000D02*
X112125000Y-99270000D01*
G75*
G02*
X112225000Y-99370000I0J-100000D01*
G01*
X112225000Y-100645000D01*
G75*
G02*
X112125000Y-100745000I-100000J0D01*
G01*
X111925000Y-100745000D01*
G75*
G02*
X111825000Y-100645000I0J100000D01*
G01*
X111825000Y-99370000D01*
G75*
G02*
X111925000Y-99270000I100000J0D01*
G01*
G37*
%TD.AperFunction*%
%TO.P,U3,10*%
%TO.N,+3V3*%
%TA.AperFunction,SMDPad,CuDef*%
G36*
G01*
X111275000Y-99270000D02*
X111475000Y-99270000D01*
G75*
G02*
X111575000Y-99370000I0J-100000D01*
G01*
X111575000Y-100645000D01*
G75*
G02*
X111475000Y-100745000I-100000J0D01*
G01*
X111275000Y-100745000D01*
G75*
G02*
X111175000Y-100645000I0J100000D01*
G01*
X111175000Y-99370000D01*
G75*
G02*
X111275000Y-99270000I100000J0D01*
G01*
G37*
%TD.AperFunction*%
%TO.P,U3,11*%
%TO.N,GND*%
%TA.AperFunction,SMDPad,CuDef*%
G36*
G01*
X111275000Y-104995000D02*
X111475000Y-104995000D01*
G75*
G02*
X111575000Y-105095000I0J-100000D01*
G01*
X111575000Y-106370000D01*
G75*
G02*
X111475000Y-106470000I-100000J0D01*
G01*
X111275000Y-106470000D01*
G75*
G02*
X111175000Y-106370000I0J100000D01*
G01*
X111175000Y-105095000D01*
G75*
G02*
X111275000Y-104995000I100000J0D01*
G01*
G37*
%TD.AperFunction*%
%TO.P,U3,12*%
%TO.N,Net-(U3-Pad12)*%
%TA.AperFunction,SMDPad,CuDef*%
G36*
G01*
X111925000Y-104995000D02*
X112125000Y-104995000D01*
G75*
G02*
X112225000Y-105095000I0J-100000D01*
G01*
X112225000Y-106370000D01*
G75*
G02*
X112125000Y-106470000I-100000J0D01*
G01*
X111925000Y-106470000D01*
G75*
G02*
X111825000Y-106370000I0J100000D01*
G01*
X111825000Y-105095000D01*
G75*
G02*
X111925000Y-104995000I100000J0D01*
G01*
G37*
%TD.AperFunction*%
%TO.P,U3,13*%
%TO.N,Net-(U3-Pad13)*%
%TA.AperFunction,SMDPad,CuDef*%
G36*
G01*
X112575000Y-104995000D02*
X112775000Y-104995000D01*
G75*
G02*
X112875000Y-105095000I0J-100000D01*
G01*
X112875000Y-106370000D01*
G75*
G02*
X112775000Y-106470000I-100000J0D01*
G01*
X112575000Y-106470000D01*
G75*
G02*
X112475000Y-106370000I0J100000D01*
G01*
X112475000Y-105095000D01*
G75*
G02*
X112575000Y-104995000I100000J0D01*
G01*
G37*
%TD.AperFunction*%
%TO.P,U3,14*%
%TO.N,Net-(J11-Pad1)*%
%TA.AperFunction,SMDPad,CuDef*%
G36*
G01*
X113225000Y-104995000D02*
X113425000Y-104995000D01*
G75*
G02*
X113525000Y-105095000I0J-100000D01*
G01*
X113525000Y-106370000D01*
G75*
G02*
X113425000Y-106470000I-100000J0D01*
G01*
X113225000Y-106470000D01*
G75*
G02*
X113125000Y-106370000I0J100000D01*
G01*
X113125000Y-105095000D01*
G75*
G02*
X113225000Y-104995000I100000J0D01*
G01*
G37*
%TD.AperFunction*%
%TO.P,U3,15*%
%TO.N,Net-(J11-Pad2)*%
%TA.AperFunction,SMDPad,CuDef*%
G36*
G01*
X113875000Y-104995000D02*
X114075000Y-104995000D01*
G75*
G02*
X114175000Y-105095000I0J-100000D01*
G01*
X114175000Y-106370000D01*
G75*
G02*
X114075000Y-106470000I-100000J0D01*
G01*
X113875000Y-106470000D01*
G75*
G02*
X113775000Y-106370000I0J100000D01*
G01*
X113775000Y-105095000D01*
G75*
G02*
X113875000Y-104995000I100000J0D01*
G01*
G37*
%TD.AperFunction*%
%TO.P,U3,16*%
%TO.N,Net-(J10-Pad1)*%
%TA.AperFunction,SMDPad,CuDef*%
G36*
G01*
X114525000Y-104995000D02*
X114725000Y-104995000D01*
G75*
G02*
X114825000Y-105095000I0J-100000D01*
G01*
X114825000Y-106370000D01*
G75*
G02*
X114725000Y-106470000I-100000J0D01*
G01*
X114525000Y-106470000D01*
G75*
G02*
X114425000Y-106370000I0J100000D01*
G01*
X114425000Y-105095000D01*
G75*
G02*
X114525000Y-104995000I100000J0D01*
G01*
G37*
%TD.AperFunction*%
%TO.P,U3,17*%
%TO.N,Net-(J10-Pad2)*%
%TA.AperFunction,SMDPad,CuDef*%
G36*
G01*
X115175000Y-104995000D02*
X115375000Y-104995000D01*
G75*
G02*
X115475000Y-105095000I0J-100000D01*
G01*
X115475000Y-106370000D01*
G75*
G02*
X115375000Y-106470000I-100000J0D01*
G01*
X115175000Y-106470000D01*
G75*
G02*
X115075000Y-106370000I0J100000D01*
G01*
X115075000Y-105095000D01*
G75*
G02*
X115175000Y-104995000I100000J0D01*
G01*
G37*
%TD.AperFunction*%
%TO.P,U3,18*%
%TO.N,Net-(J9-Pad1)*%
%TA.AperFunction,SMDPad,CuDef*%
G36*
G01*
X115825000Y-104995000D02*
X116025000Y-104995000D01*
G75*
G02*
X116125000Y-105095000I0J-100000D01*
G01*
X116125000Y-106370000D01*
G75*
G02*
X116025000Y-106470000I-100000J0D01*
G01*
X115825000Y-106470000D01*
G75*
G02*
X115725000Y-106370000I0J100000D01*
G01*
X115725000Y-105095000D01*
G75*
G02*
X115825000Y-104995000I100000J0D01*
G01*
G37*
%TD.AperFunction*%
%TO.P,U3,19*%
%TO.N,+5V*%
%TA.AperFunction,SMDPad,CuDef*%
G36*
G01*
X116475000Y-104995000D02*
X116675000Y-104995000D01*
G75*
G02*
X116775000Y-105095000I0J-100000D01*
G01*
X116775000Y-106370000D01*
G75*
G02*
X116675000Y-106470000I-100000J0D01*
G01*
X116475000Y-106470000D01*
G75*
G02*
X116375000Y-106370000I0J100000D01*
G01*
X116375000Y-105095000D01*
G75*
G02*
X116475000Y-104995000I100000J0D01*
G01*
G37*
%TD.AperFunction*%
%TO.P,U3,20*%
%TO.N,Net-(J9-Pad2)*%
%TA.AperFunction,SMDPad,CuDef*%
G36*
G01*
X117125000Y-104995000D02*
X117325000Y-104995000D01*
G75*
G02*
X117425000Y-105095000I0J-100000D01*
G01*
X117425000Y-106370000D01*
G75*
G02*
X117325000Y-106470000I-100000J0D01*
G01*
X117125000Y-106470000D01*
G75*
G02*
X117025000Y-106370000I0J100000D01*
G01*
X117025000Y-105095000D01*
G75*
G02*
X117125000Y-104995000I100000J0D01*
G01*
G37*
%TD.AperFunction*%
%TD*%
D24*
%TO.P,U4,1*%
%TO.N,GND*%
X98425000Y-89235000D03*
%TO.P,U4,2*%
%TO.N,/DRV1B*%
X99695000Y-89235000D03*
%TO.P,U4,3*%
%TO.N,/DRV1A*%
X100965000Y-89235000D03*
%TO.P,U4,4*%
%TO.N,+3V3*%
X102235000Y-89235000D03*
%TO.P,U4,5*%
%TO.N,+12V*%
X102235000Y-83485000D03*
%TO.P,U4,6*%
%TO.N,Net-(J9-Pad6)*%
X100965000Y-83485000D03*
%TO.P,U4,7*%
%TO.N,GND*%
X99695000Y-83485000D03*
%TO.P,U4,8*%
%TO.N,Net-(J9-Pad5)*%
X98425000Y-83485000D03*
D25*
%TO.P,U4,9*%
%TO.N,GND*%
X100330000Y-86360000D03*
D26*
X99030000Y-87010000D03*
X100330000Y-87010000D03*
X100330000Y-85710000D03*
X99030000Y-85710000D03*
X101630000Y-87010000D03*
X101630000Y-85710000D03*
%TD*%
%TO.P,U5,9*%
%TO.N,GND*%
X128240000Y-87010000D03*
X128240000Y-85710000D03*
X130840000Y-87010000D03*
X129540000Y-87010000D03*
X129540000Y-85710000D03*
X130840000Y-85710000D03*
D25*
X129540000Y-86360000D03*
D24*
%TO.P,U5,8*%
%TO.N,Net-(J10-Pad5)*%
X131445000Y-89235000D03*
%TO.P,U5,7*%
%TO.N,GND*%
X130175000Y-89235000D03*
%TO.P,U5,6*%
%TO.N,Net-(J10-Pad6)*%
X128905000Y-89235000D03*
%TO.P,U5,5*%
%TO.N,+12V*%
X127635000Y-89235000D03*
%TO.P,U5,4*%
%TO.N,+3V3*%
X127635000Y-83485000D03*
%TO.P,U5,3*%
%TO.N,/DRV2A*%
X128905000Y-83485000D03*
%TO.P,U5,2*%
%TO.N,/DRV2B*%
X130175000Y-83485000D03*
%TO.P,U5,1*%
%TO.N,GND*%
X131445000Y-83485000D03*
%TD*%
D27*
%TO.P,U6,1*%
%TO.N,GND*%
X111425000Y-111125000D03*
%TO.P,U6,2*%
%TO.N,/DRV3B*%
X111425000Y-112395000D03*
%TO.P,U6,3*%
%TO.N,/DRV3A*%
X111425000Y-113665000D03*
%TO.P,U6,4*%
%TO.N,+3V3*%
X111425000Y-114935000D03*
%TO.P,U6,5*%
%TO.N,+12V*%
X117175000Y-114935000D03*
%TO.P,U6,6*%
%TO.N,Net-(J11-Pad6)*%
X117175000Y-113665000D03*
%TO.P,U6,7*%
%TO.N,GND*%
X117175000Y-112395000D03*
%TO.P,U6,8*%
%TO.N,Net-(J11-Pad5)*%
X117175000Y-111125000D03*
D28*
%TO.P,U6,9*%
%TO.N,GND*%
X114300000Y-113030000D03*
D26*
X113650000Y-111730000D03*
X113650000Y-113030000D03*
X114950000Y-113030000D03*
X114950000Y-111730000D03*
X113650000Y-114330000D03*
X114950000Y-114330000D03*
%TD*%
D29*
%TO.P,C1,1*%
%TO.N,+12V*%
X123190000Y-114300000D03*
D30*
%TO.P,C1,2*%
%TO.N,GND*%
X123190000Y-111800000D03*
%TD*%
%TO.P,C2,1*%
%TO.N,+12V*%
%TA.AperFunction,SMDPad,CuDef*%
G36*
G01*
X126685000Y-117009999D02*
X126685000Y-119210001D01*
G75*
G02*
X126435001Y-119460000I-249999J0D01*
G01*
X125609999Y-119460000D01*
G75*
G02*
X125360000Y-119210001I0J249999D01*
G01*
X125360000Y-117009999D01*
G75*
G02*
X125609999Y-116760000I249999J0D01*
G01*
X126435001Y-116760000D01*
G75*
G02*
X126685000Y-117009999I0J-249999D01*
G01*
G37*
%TD.AperFunction*%
%TO.P,C2,2*%
%TO.N,GND*%
%TA.AperFunction,SMDPad,CuDef*%
G36*
G01*
X123560000Y-117009999D02*
X123560000Y-119210001D01*
G75*
G02*
X123310001Y-119460000I-249999J0D01*
G01*
X122484999Y-119460000D01*
G75*
G02*
X122235000Y-119210001I0J249999D01*
G01*
X122235000Y-117009999D01*
G75*
G02*
X122484999Y-116760000I249999J0D01*
G01*
X123310001Y-116760000D01*
G75*
G02*
X123560000Y-117009999I0J-249999D01*
G01*
G37*
%TD.AperFunction*%
%TD*%
D31*
%TO.N,GND*%
X112395000Y-85090000D03*
X113665000Y-85090000D03*
X114935000Y-85090000D03*
X114935000Y-87630000D03*
X113665000Y-87630000D03*
X112395000Y-87630000D03*
X112395000Y-86360000D03*
X114935000Y-86360000D03*
X113665000Y-86360000D03*
X99060000Y-81280000D03*
X103505000Y-79375000D03*
X108890001Y-93674999D03*
X127635000Y-110490000D03*
X112395000Y-109855000D03*
X125165001Y-79375000D03*
X111760000Y-107315000D03*
X123190000Y-121920000D03*
%TO.N,/I2C_SCL*%
X119380000Y-88265000D03*
%TO.N,/I2C_SDA*%
X120650000Y-88900000D03*
%TO.N,/DRV3A*%
X125095000Y-81280000D03*
%TO.N,+5V*%
X118109499Y-106044499D03*
%TO.N,/UART_TX*%
X120720001Y-82620001D03*
%TO.N,/UART_RX*%
X119450001Y-83890001D03*
%TO.N,/GPIO1*%
X95885000Y-97790000D03*
X100965000Y-93980000D03*
%TO.N,/GPIO3*%
X120015000Y-93980000D03*
X110320012Y-106459669D03*
%TO.N,/GPIO2*%
X95885000Y-105410000D03*
X101600002Y-95250000D03*
%TO.N,/GPIO4*%
X118815001Y-91510001D03*
%TO.N,Net-(J9-Pad6)*%
X99060000Y-80010000D03*
%TO.N,Net-(J10-Pad6)*%
X132080000Y-91440000D03*
%TO.N,Net-(J11-Pad5)*%
X117220000Y-109600000D03*
%TO.N,Net-(J11-Pad6)*%
X119220000Y-113190000D03*
%TO.N,+3V3*%
X103580001Y-81355001D03*
X100330000Y-92075000D03*
X128270000Y-81280000D03*
X114010001Y-108874999D03*
X116840000Y-102870000D03*
%TO.N,Net-(R1-Pad2)*%
X119380000Y-80010000D03*
%TO.N,/DRV3A*%
X109220000Y-113665000D03*
%TO.N,/DRV3B*%
X109220000Y-112395000D03*
X126834254Y-79184725D03*
%TO.N,/DRV2A*%
X129540000Y-81280000D03*
X125095000Y-90805000D03*
%TO.N,/DRV2B*%
X131030000Y-81280000D03*
X126365000Y-90170000D03*
%TD*%
D32*
%TO.N,+12V*%
X124550001Y-115660001D02*
X123190000Y-114300000D01*
X131339999Y-115660001D02*
X124550001Y-115660001D01*
X133090000Y-113910000D02*
X131339999Y-115660001D01*
X122555000Y-114935000D02*
X117175000Y-114935000D01*
X123190000Y-114300000D02*
X122555000Y-114935000D01*
X126022500Y-117132500D02*
X123190000Y-114300000D01*
X126022500Y-118110000D02*
X126022500Y-117132500D01*
X135330000Y-113910000D02*
X133090000Y-113910000D01*
X137160000Y-112080000D02*
X135330000Y-113910000D01*
X137160000Y-109280000D02*
X137160000Y-112080000D01*
X135412771Y-80189990D02*
X129010422Y-80189990D01*
X140670001Y-85447220D02*
X135412771Y-80189990D01*
X140670001Y-105769999D02*
X140670001Y-85447220D01*
X137160000Y-109280000D02*
X140670001Y-105769999D01*
X129010422Y-79832830D02*
X129010422Y-80189990D01*
X126887592Y-77710000D02*
X129010422Y-79832830D01*
X103607500Y-77710000D02*
X126887592Y-77710000D01*
X102235000Y-79082500D02*
X103607500Y-77710000D01*
X102235000Y-83485000D02*
X102235000Y-79082500D01*
X126885000Y-89235000D02*
X127635000Y-89235000D01*
X127137510Y-80189990D02*
X126439999Y-80887501D01*
X129010422Y-80189990D02*
X127137510Y-80189990D01*
X126439999Y-80887501D02*
X126439999Y-88789999D01*
X126439999Y-88789999D02*
X126885000Y-89235000D01*
%TO.N,Net-(D1-Pad2)*%
X131250000Y-120650000D02*
X130810000Y-120210000D01*
X132275000Y-118745000D02*
X130810000Y-120210000D01*
X138430000Y-118745000D02*
X132275000Y-118745000D01*
D33*
%TO.N,GND*%
X130175000Y-87645000D02*
X129540000Y-87010000D01*
X130175000Y-89235000D02*
X130175000Y-87645000D01*
X131445000Y-85105000D02*
X130840000Y-85710000D01*
X131445000Y-83485000D02*
X131445000Y-85105000D01*
X113045000Y-111125000D02*
X113650000Y-111730000D01*
X111425000Y-111125000D02*
X113045000Y-111125000D01*
X99695000Y-83485000D02*
X99695000Y-81915000D01*
X99695000Y-81915000D02*
X99060000Y-81280000D01*
X99060000Y-81280000D02*
X99060000Y-81280000D01*
X106105001Y-78810001D02*
X105339999Y-78810001D01*
X106105001Y-78810001D02*
X104069999Y-78810001D01*
X104069999Y-78810001D02*
X103505000Y-79375000D01*
X103505000Y-79375000D02*
X103505000Y-79375000D01*
X99695000Y-85725000D02*
X100330000Y-86360000D01*
X99695000Y-83485000D02*
X99695000Y-85725000D01*
X98425000Y-87615000D02*
X99030000Y-87010000D01*
X98425000Y-89235000D02*
X98425000Y-87615000D01*
X131780010Y-83149990D02*
X131445000Y-83485000D01*
X135820010Y-83691849D02*
X135278151Y-83149990D01*
X135820010Y-87149990D02*
X135820010Y-83691849D01*
X134895000Y-88075000D02*
X135820010Y-87149990D01*
X135278151Y-83149990D02*
X131780010Y-83149990D01*
X134620000Y-88075000D02*
X134895000Y-88075000D01*
X108890001Y-96320001D02*
X108890001Y-93674999D01*
X108890001Y-93674999D02*
X108890001Y-93674999D01*
X132080000Y-109280000D02*
X128845000Y-109280000D01*
X128845000Y-109280000D02*
X127635000Y-110490000D01*
X127635000Y-110490000D02*
X127635000Y-110490000D01*
X114935000Y-112395000D02*
X114300000Y-113030000D01*
X117175000Y-112395000D02*
X114935000Y-112395000D01*
X111425000Y-111125000D02*
X111425000Y-110825000D01*
X111425000Y-110825000D02*
X112395000Y-109855000D01*
X112395000Y-109855000D02*
X112395000Y-109855000D01*
X124600002Y-78810001D02*
X125165001Y-79375000D01*
X123105001Y-78810001D02*
X124600002Y-78810001D01*
X111375000Y-105732500D02*
X111375000Y-106930000D01*
X111375000Y-106930000D02*
X111760000Y-107315000D01*
X111760000Y-107315000D02*
X111760000Y-107315000D01*
X122897500Y-118110000D02*
X122897500Y-121627500D01*
X122897500Y-121627500D02*
X123190000Y-121920000D01*
X123190000Y-121920000D02*
X123190000Y-121920000D01*
%TO.N,/I2C_SCL*%
X102235000Y-121085001D02*
X102235000Y-113665000D01*
X121855001Y-85160001D02*
X119380000Y-87635002D01*
X123105001Y-85160001D02*
X121855001Y-85160001D01*
X119380000Y-87635002D02*
X119380000Y-88265000D01*
X119380000Y-88265000D02*
X119380000Y-88265000D01*
%TO.N,/I2C_SDA*%
X99695000Y-121085001D02*
X99695000Y-113665000D01*
X123105001Y-87700001D02*
X121849999Y-87700001D01*
X121849999Y-87700001D02*
X120650000Y-88900000D01*
X120650000Y-88900000D02*
X120650000Y-88900000D01*
%TO.N,/DRV3A*%
X123175002Y-81280000D02*
X123105001Y-81350001D01*
X125095000Y-81280000D02*
X123175002Y-81280000D01*
%TO.N,+5V*%
X97155000Y-121085001D02*
X97155000Y-113665000D01*
X99259999Y-123190000D02*
X97155000Y-121085001D01*
X110140000Y-123190000D02*
X99259999Y-123190000D01*
X115220000Y-118110000D02*
X110140000Y-123190000D01*
X118109499Y-106610184D02*
X118109499Y-106044499D01*
X117669704Y-107049979D02*
X118109499Y-106610184D01*
X117203921Y-107049979D02*
X117669704Y-107049979D01*
X116575000Y-106421058D02*
X117203921Y-107049979D01*
X116575000Y-105732500D02*
X116575000Y-106421058D01*
%TO.N,/UART_TX*%
X123105001Y-82620001D02*
X120720001Y-82620001D01*
X120720001Y-82620001D02*
X120720001Y-82620001D01*
%TO.N,/UART_RX*%
X123105001Y-83890001D02*
X119450001Y-83890001D01*
X119450001Y-83890001D02*
X119450001Y-83890001D01*
%TO.N,/GPIO1*%
X92710000Y-97790000D02*
X95885000Y-97790000D01*
X95885000Y-97790000D02*
X95885000Y-97790000D01*
X105339999Y-90240001D02*
X106105001Y-90240001D01*
X101600000Y-93980000D02*
X105339999Y-90240001D01*
X100965000Y-93980000D02*
X101600000Y-93980000D01*
%TO.N,/GPIO3*%
X123105001Y-92780001D02*
X121214999Y-92780001D01*
X121214999Y-92780001D02*
X120015000Y-93980000D01*
X120015000Y-93980000D02*
X120015000Y-93980000D01*
X92710000Y-113030000D02*
X95065009Y-110674991D01*
X106104690Y-110674991D02*
X110320012Y-106459669D01*
X95065009Y-110674991D02*
X106104690Y-110674991D01*
%TO.N,/GPIO2*%
X92710000Y-105410000D02*
X95885000Y-105410000D01*
X95885000Y-105410000D02*
X95885000Y-105410000D01*
X104706409Y-91510001D02*
X101600002Y-94616408D01*
X106105001Y-91510001D02*
X104706409Y-91510001D01*
X101600002Y-94616408D02*
X101600002Y-95250000D01*
%TO.N,/GPIO4*%
X123105001Y-91510001D02*
X118815001Y-91510001D01*
%TO.N,Net-(J9-Pad1)*%
X115925000Y-104995000D02*
X115925000Y-105732500D01*
X115599990Y-104669990D02*
X115925000Y-104995000D01*
X106420419Y-104669990D02*
X115599990Y-104669990D01*
X93599981Y-91849552D02*
X106420419Y-104669990D01*
X93599981Y-82930019D02*
X93599981Y-91849552D01*
X95250000Y-81280000D02*
X93599981Y-82930019D01*
%TO.N,Net-(J9-Pad2)*%
X117225000Y-104995000D02*
X117225000Y-105732500D01*
X116370000Y-104140000D02*
X117225000Y-104995000D01*
X106526839Y-104140000D02*
X116370000Y-104140000D01*
X94049990Y-91663151D02*
X106526839Y-104140000D01*
X94049990Y-84480010D02*
X94049990Y-91663151D01*
X95250000Y-83280000D02*
X94049990Y-84480010D01*
%TO.N,Net-(J9-Pad5)*%
X97554999Y-84355001D02*
X98425000Y-83485000D01*
X96375000Y-89280000D02*
X97554999Y-88100001D01*
X97554999Y-88100001D02*
X97554999Y-84355001D01*
X95250000Y-89280000D02*
X96375000Y-89280000D01*
%TO.N,Net-(J9-Pad6)*%
X100965000Y-81915000D02*
X99060000Y-80010000D01*
X100965000Y-83485000D02*
X100965000Y-81915000D01*
%TO.N,Net-(J10-Pad6)*%
X128905000Y-89900002D02*
X128905000Y-89235000D01*
X130444998Y-91440000D02*
X128905000Y-89900002D01*
X132080000Y-91440000D02*
X130444998Y-91440000D01*
%TO.N,Net-(J10-Pad5)*%
X133730000Y-84075000D02*
X134620000Y-84075000D01*
X132315001Y-85489999D02*
X133730000Y-84075000D01*
X132315001Y-88364999D02*
X132315001Y-85489999D01*
X131445000Y-89235000D02*
X132315001Y-88364999D01*
%TO.N,Net-(J10-Pad2)*%
X115275000Y-106421058D02*
X115275000Y-105732500D01*
X128270000Y-95158587D02*
X128270000Y-107499989D01*
X131883002Y-92710000D02*
X130718588Y-92710000D01*
X133419990Y-91173012D02*
X131883002Y-92710000D01*
X133521988Y-91173012D02*
X133419990Y-91173012D01*
X134620000Y-90075000D02*
X133521988Y-91173012D01*
X130718588Y-92710000D02*
X128270000Y-95158587D01*
X116353931Y-107499989D02*
X115275000Y-106421058D01*
X128270000Y-107499989D02*
X116353931Y-107499989D01*
%TO.N,Net-(J10-Pad1)*%
X133350000Y-93345000D02*
X134620000Y-92075000D01*
X130719998Y-93345000D02*
X133350000Y-93345000D01*
X128720011Y-95344987D02*
X130719998Y-93345000D01*
X128720010Y-107934992D02*
X128720011Y-95344987D01*
X116105000Y-107950000D02*
X128705002Y-107950000D01*
X128705002Y-107950000D02*
X128720010Y-107934992D01*
X114625000Y-106470000D02*
X116105000Y-107950000D01*
X114625000Y-105732500D02*
X114625000Y-106470000D01*
%TO.N,Net-(J11-Pad1)*%
X109220000Y-118110000D02*
X107499991Y-116389991D01*
X107499991Y-116389991D02*
X107499991Y-110305009D01*
X113325000Y-107018590D02*
X113325000Y-105732500D01*
X112208600Y-108134990D02*
X113325000Y-107018590D01*
X109670010Y-108134990D02*
X112208600Y-108134990D01*
X107499991Y-110305009D02*
X109670010Y-108134990D01*
%TO.N,Net-(J11-Pad2)*%
X109856410Y-108585000D02*
X107950002Y-110491408D01*
X113975000Y-105732500D02*
X113975000Y-107005000D01*
X107950002Y-110491408D02*
X107950002Y-114840002D01*
X107950002Y-114840002D02*
X111220000Y-118110000D01*
X112395000Y-108585000D02*
X109856410Y-108585000D01*
X113975000Y-107005000D02*
X112395000Y-108585000D01*
%TO.N,Net-(J11-Pad5)*%
X117840002Y-111125000D02*
X117175000Y-111125000D01*
X117220000Y-111080000D02*
X117175000Y-111125000D01*
X117220000Y-109600000D02*
X117220000Y-111080000D01*
%TO.N,Net-(J11-Pad6)*%
X117840002Y-113665000D02*
X117175000Y-113665000D01*
X117650000Y-113190000D02*
X117175000Y-113665000D01*
X119220000Y-113190000D02*
X117650000Y-113190000D01*
%TO.N,+3V3*%
X104855001Y-80080001D02*
X106105001Y-80080001D01*
X103105001Y-81830001D02*
X103580001Y-81355001D01*
X103105001Y-88364999D02*
X103105001Y-81830001D01*
X102235000Y-89235000D02*
X103105001Y-88364999D01*
X134620000Y-109280000D02*
X134620000Y-100130000D01*
X116575000Y-100696058D02*
X116575000Y-100007500D01*
X116201048Y-101070010D02*
X116575000Y-100696058D01*
X111748952Y-101070010D02*
X116201048Y-101070010D01*
X111499990Y-100821048D02*
X111748952Y-101070010D01*
X111499990Y-100069990D02*
X111499990Y-100821048D01*
X111437500Y-100007500D02*
X111499990Y-100069990D01*
X111375000Y-100007500D02*
X111437500Y-100007500D01*
X103580001Y-81355001D02*
X104855001Y-80080001D01*
X99930001Y-94653001D02*
X105284500Y-100007500D01*
X105284500Y-100007500D02*
X111375000Y-100007500D01*
X99930001Y-92474999D02*
X99930001Y-94653001D01*
X100330000Y-92075000D02*
X99930001Y-92474999D01*
X134620000Y-100130000D02*
X132915000Y-100130000D01*
X127635000Y-83485000D02*
X127635000Y-81915000D01*
X127635000Y-81915000D02*
X128270000Y-81280000D01*
X128270000Y-81280000D02*
X128270000Y-81280000D01*
X134620000Y-111830000D02*
X134620000Y-109280000D01*
X134544999Y-111905001D02*
X134620000Y-111830000D01*
X124946997Y-108874999D02*
X127976999Y-111905001D01*
X127976999Y-111905001D02*
X134544999Y-111905001D01*
X114010001Y-108874999D02*
X124946997Y-108874999D01*
X116450010Y-100084990D02*
X116450010Y-102480010D01*
X116527500Y-100007500D02*
X116450010Y-100084990D01*
X116575000Y-100007500D02*
X116527500Y-100007500D01*
X116450010Y-102480010D02*
X116840000Y-102870000D01*
X116840000Y-102870000D02*
X116840000Y-102870000D01*
X109416998Y-114935000D02*
X108494999Y-114013001D01*
X111506987Y-109035011D02*
X113849989Y-109035011D01*
X108494999Y-114013001D02*
X108494999Y-112046999D01*
X111425000Y-114935000D02*
X109416998Y-114935000D01*
X108494999Y-112046999D02*
X111506987Y-109035011D01*
X113849989Y-109035011D02*
X114010001Y-108874999D01*
%TO.N,Net-(R1-Pad2)*%
X139700000Y-77525000D02*
X133200000Y-77525000D01*
X106105001Y-81350001D02*
X117404999Y-81350001D01*
X117404999Y-81350001D02*
X118039999Y-81350001D01*
X118039999Y-81350001D02*
X119380000Y-80010000D01*
X119380000Y-80010000D02*
X119380000Y-80010000D01*
%TO.N,Net-(SW2-Pad2)*%
X120015000Y-106100000D02*
X126515000Y-106100000D01*
X120015000Y-104281058D02*
X120015000Y-106100000D01*
X123105001Y-101191057D02*
X120015000Y-104281058D01*
X123105001Y-95320001D02*
X123105001Y-101191057D01*
%TO.N,/DRV3A*%
X111425000Y-113665000D02*
X109220000Y-113665000D01*
X109220000Y-113665000D02*
X109220000Y-113665000D01*
%TO.N,/DRV3B*%
X111425000Y-112395000D02*
X109220000Y-112395000D01*
X109220000Y-112395000D02*
X109220000Y-112395000D01*
X125918977Y-80100002D02*
X126834254Y-79184725D01*
X123125002Y-80100002D02*
X125918977Y-80100002D01*
X123105001Y-80080001D02*
X123125002Y-80100002D01*
%TO.N,/DRV1B*%
X105339999Y-88970001D02*
X106105001Y-88970001D01*
X103199989Y-91110011D02*
X105339999Y-88970001D01*
X100220011Y-91110011D02*
X103199989Y-91110011D01*
X99695000Y-90585000D02*
X100220011Y-91110011D01*
X99695000Y-89235000D02*
X99695000Y-90585000D01*
%TO.N,/DRV1A*%
X102745001Y-90660001D02*
X103505000Y-89900002D01*
X101040001Y-90660001D02*
X102745001Y-90660001D01*
X100965000Y-90585000D02*
X101040001Y-90660001D01*
X100965000Y-89235000D02*
X100965000Y-90585000D01*
X104406409Y-87700001D02*
X106105001Y-87700001D01*
X103505000Y-88601410D02*
X104406409Y-87700001D01*
X103505000Y-89900002D02*
X103505000Y-88601410D01*
%TO.N,/SENSE2A*%
X115275000Y-99270000D02*
X115275000Y-100007500D01*
X116050019Y-98494981D02*
X115275000Y-99270000D01*
X118125022Y-98494980D02*
X116050019Y-98494981D01*
X119050001Y-97570001D02*
X118125022Y-98494980D01*
X119050001Y-96320001D02*
X119050001Y-97570001D01*
%TO.N,/SENSE1A*%
X122339999Y-94050001D02*
X123105001Y-94050001D01*
X121780000Y-94610000D02*
X122339999Y-94050001D01*
X121780000Y-98680004D02*
X121780000Y-94610000D01*
X120452504Y-100007500D02*
X121780000Y-98680004D01*
X117225000Y-100007500D02*
X120452504Y-100007500D01*
%TO.N,/SENSE2B*%
X114625000Y-99283590D02*
X114625000Y-100007500D01*
X110564990Y-97974990D02*
X113316401Y-97974991D01*
X110160001Y-97570001D02*
X110564990Y-97974990D01*
X113316401Y-97974991D02*
X114625000Y-99283590D01*
X110160001Y-96320001D02*
X110160001Y-97570001D01*
%TO.N,/DRV2A*%
X128905000Y-83485000D02*
X128905000Y-81915000D01*
X128905000Y-81915000D02*
X129540000Y-81280000D01*
X129540000Y-81280000D02*
X129540000Y-81280000D01*
X123105001Y-90240001D02*
X124530001Y-90240001D01*
X124530001Y-90240001D02*
X125095000Y-90805000D01*
X125095000Y-90805000D02*
X125095000Y-90805000D01*
%TO.N,/SENSE1B*%
X115925000Y-99270000D02*
X115925000Y-100007500D01*
X116250010Y-98944990D02*
X115925000Y-99270000D01*
X118460014Y-98944990D02*
X116250010Y-98944990D01*
X120320001Y-97085003D02*
X118460014Y-98944990D01*
X120320001Y-96320001D02*
X120320001Y-97085003D01*
%TO.N,/DRV2B*%
X130175000Y-82135000D02*
X131030000Y-81280000D01*
X130175000Y-83485000D02*
X130175000Y-82135000D01*
X131030000Y-81280000D02*
X131030000Y-81280000D01*
X125165001Y-88970001D02*
X126365000Y-90170000D01*
X123105001Y-88970001D02*
X125165001Y-88970001D01*
X126365000Y-90170000D02*
X126365000Y-90170000D01*
%TO.N,/SENSE3A*%
X104780000Y-96030002D02*
X107174998Y-98425000D01*
X104780000Y-94125002D02*
X104780000Y-96030002D01*
X104855001Y-94050001D02*
X104780000Y-94125002D01*
X106105001Y-94050001D02*
X104855001Y-94050001D01*
X113975000Y-99270000D02*
X113975000Y-100007500D01*
X113130000Y-98425000D02*
X113975000Y-99270000D01*
X107174998Y-98425000D02*
X113130000Y-98425000D01*
%TO.N,/SENSE3B*%
X113325000Y-99318942D02*
X113325000Y-100007500D01*
X112951048Y-98944990D02*
X113325000Y-99318942D01*
X107058578Y-98944990D02*
X112951048Y-98944990D01*
X104329991Y-96216403D02*
X107058578Y-98944990D01*
X104329991Y-93305011D02*
X104329991Y-96216403D01*
X104855001Y-92780001D02*
X104329991Y-93305011D01*
X106105001Y-92780001D02*
X104855001Y-92780001D01*
%TD*%
M02*
