%TF.GenerationSoftware,KiCad,Pcbnew,5.1.9+dfsg1-1*%
%TF.CreationDate,2021-08-08T23:21:56+02:00*%
%TF.ProjectId,holobot_esp32,686f6c6f-626f-4745-9f65-737033322e6b,rev?*%
%TF.SameCoordinates,Original*%
%TF.FileFunction,Paste,Top*%
%TF.FilePolarity,Positive*%
%FSLAX46Y46*%
G04 Gerber Fmt 4.6, Leading zero omitted, Abs format (unit mm)*
G04 Created by KiCad (PCBNEW 5.1.9+dfsg1-1) date 2021-08-08 23:21:56*
%MOMM*%
%LPD*%
G01*
G04 APERTURE LIST*
%ADD10R,1.200000X2.200000*%
%ADD11R,2.750000X3.050000*%
%ADD12R,5.000000X5.000000*%
%ADD13R,2.000000X0.900000*%
%ADD14R,0.900000X2.000000*%
%ADD15R,1.100000X4.600000*%
%ADD16R,5.250000X4.550000*%
%ADD17R,3.100000X2.400000*%
%ADD18R,0.500000X2.200000*%
%ADD19R,2.400000X3.100000*%
%ADD20R,2.200000X0.500000*%
G04 APERTURE END LIST*
D10*
%TO.C,D1*%
X133090000Y-113910000D03*
X128530000Y-113910000D03*
D11*
X129285000Y-121885000D03*
X132335000Y-118535000D03*
X132335000Y-121885000D03*
X129285000Y-118535000D03*
%TD*%
D12*
%TO.C,U1*%
X113605001Y-86310001D03*
D13*
X106105001Y-78810001D03*
X106105001Y-80080001D03*
X106105001Y-81350001D03*
X106105001Y-82620001D03*
X106105001Y-83890001D03*
X106105001Y-85160001D03*
X106105001Y-86430001D03*
X106105001Y-87700001D03*
X106105001Y-88970001D03*
X106105001Y-90240001D03*
X106105001Y-91510001D03*
X106105001Y-92780001D03*
X106105001Y-94050001D03*
X106105001Y-95320001D03*
D14*
X108890001Y-96320001D03*
X110160001Y-96320001D03*
X111430001Y-96320001D03*
X112700001Y-96320001D03*
X113970001Y-96320001D03*
X115240001Y-96320001D03*
X116510001Y-96320001D03*
X117780001Y-96320001D03*
X119050001Y-96320001D03*
X120320001Y-96320001D03*
D13*
X123105001Y-95320001D03*
X123105001Y-94050001D03*
X123105001Y-92780001D03*
X123105001Y-91510001D03*
X123105001Y-90240001D03*
X123105001Y-88970001D03*
X123105001Y-87700001D03*
X123105001Y-86430001D03*
X123105001Y-85160001D03*
X123105001Y-83890001D03*
X123105001Y-82620001D03*
X123105001Y-81350001D03*
X123105001Y-80080001D03*
X123105001Y-78810001D03*
%TD*%
D15*
%TO.C,U2*%
X132080000Y-109280000D03*
X134620000Y-109280000D03*
X137160000Y-109280000D03*
D16*
X137395000Y-97705000D03*
X131845000Y-102555000D03*
X131845000Y-97705000D03*
X137395000Y-102555000D03*
%TD*%
%TO.C,U3*%
G36*
G01*
X117125000Y-99270000D02*
X117325000Y-99270000D01*
G75*
G02*
X117425000Y-99370000I0J-100000D01*
G01*
X117425000Y-100645000D01*
G75*
G02*
X117325000Y-100745000I-100000J0D01*
G01*
X117125000Y-100745000D01*
G75*
G02*
X117025000Y-100645000I0J100000D01*
G01*
X117025000Y-99370000D01*
G75*
G02*
X117125000Y-99270000I100000J0D01*
G01*
G37*
G36*
G01*
X116475000Y-99270000D02*
X116675000Y-99270000D01*
G75*
G02*
X116775000Y-99370000I0J-100000D01*
G01*
X116775000Y-100645000D01*
G75*
G02*
X116675000Y-100745000I-100000J0D01*
G01*
X116475000Y-100745000D01*
G75*
G02*
X116375000Y-100645000I0J100000D01*
G01*
X116375000Y-99370000D01*
G75*
G02*
X116475000Y-99270000I100000J0D01*
G01*
G37*
G36*
G01*
X115825000Y-99270000D02*
X116025000Y-99270000D01*
G75*
G02*
X116125000Y-99370000I0J-100000D01*
G01*
X116125000Y-100645000D01*
G75*
G02*
X116025000Y-100745000I-100000J0D01*
G01*
X115825000Y-100745000D01*
G75*
G02*
X115725000Y-100645000I0J100000D01*
G01*
X115725000Y-99370000D01*
G75*
G02*
X115825000Y-99270000I100000J0D01*
G01*
G37*
G36*
G01*
X115175000Y-99270000D02*
X115375000Y-99270000D01*
G75*
G02*
X115475000Y-99370000I0J-100000D01*
G01*
X115475000Y-100645000D01*
G75*
G02*
X115375000Y-100745000I-100000J0D01*
G01*
X115175000Y-100745000D01*
G75*
G02*
X115075000Y-100645000I0J100000D01*
G01*
X115075000Y-99370000D01*
G75*
G02*
X115175000Y-99270000I100000J0D01*
G01*
G37*
G36*
G01*
X114525000Y-99270000D02*
X114725000Y-99270000D01*
G75*
G02*
X114825000Y-99370000I0J-100000D01*
G01*
X114825000Y-100645000D01*
G75*
G02*
X114725000Y-100745000I-100000J0D01*
G01*
X114525000Y-100745000D01*
G75*
G02*
X114425000Y-100645000I0J100000D01*
G01*
X114425000Y-99370000D01*
G75*
G02*
X114525000Y-99270000I100000J0D01*
G01*
G37*
G36*
G01*
X113875000Y-99270000D02*
X114075000Y-99270000D01*
G75*
G02*
X114175000Y-99370000I0J-100000D01*
G01*
X114175000Y-100645000D01*
G75*
G02*
X114075000Y-100745000I-100000J0D01*
G01*
X113875000Y-100745000D01*
G75*
G02*
X113775000Y-100645000I0J100000D01*
G01*
X113775000Y-99370000D01*
G75*
G02*
X113875000Y-99270000I100000J0D01*
G01*
G37*
G36*
G01*
X113225000Y-99270000D02*
X113425000Y-99270000D01*
G75*
G02*
X113525000Y-99370000I0J-100000D01*
G01*
X113525000Y-100645000D01*
G75*
G02*
X113425000Y-100745000I-100000J0D01*
G01*
X113225000Y-100745000D01*
G75*
G02*
X113125000Y-100645000I0J100000D01*
G01*
X113125000Y-99370000D01*
G75*
G02*
X113225000Y-99270000I100000J0D01*
G01*
G37*
G36*
G01*
X112575000Y-99270000D02*
X112775000Y-99270000D01*
G75*
G02*
X112875000Y-99370000I0J-100000D01*
G01*
X112875000Y-100645000D01*
G75*
G02*
X112775000Y-100745000I-100000J0D01*
G01*
X112575000Y-100745000D01*
G75*
G02*
X112475000Y-100645000I0J100000D01*
G01*
X112475000Y-99370000D01*
G75*
G02*
X112575000Y-99270000I100000J0D01*
G01*
G37*
G36*
G01*
X111925000Y-99270000D02*
X112125000Y-99270000D01*
G75*
G02*
X112225000Y-99370000I0J-100000D01*
G01*
X112225000Y-100645000D01*
G75*
G02*
X112125000Y-100745000I-100000J0D01*
G01*
X111925000Y-100745000D01*
G75*
G02*
X111825000Y-100645000I0J100000D01*
G01*
X111825000Y-99370000D01*
G75*
G02*
X111925000Y-99270000I100000J0D01*
G01*
G37*
G36*
G01*
X111275000Y-99270000D02*
X111475000Y-99270000D01*
G75*
G02*
X111575000Y-99370000I0J-100000D01*
G01*
X111575000Y-100645000D01*
G75*
G02*
X111475000Y-100745000I-100000J0D01*
G01*
X111275000Y-100745000D01*
G75*
G02*
X111175000Y-100645000I0J100000D01*
G01*
X111175000Y-99370000D01*
G75*
G02*
X111275000Y-99270000I100000J0D01*
G01*
G37*
G36*
G01*
X111275000Y-104995000D02*
X111475000Y-104995000D01*
G75*
G02*
X111575000Y-105095000I0J-100000D01*
G01*
X111575000Y-106370000D01*
G75*
G02*
X111475000Y-106470000I-100000J0D01*
G01*
X111275000Y-106470000D01*
G75*
G02*
X111175000Y-106370000I0J100000D01*
G01*
X111175000Y-105095000D01*
G75*
G02*
X111275000Y-104995000I100000J0D01*
G01*
G37*
G36*
G01*
X111925000Y-104995000D02*
X112125000Y-104995000D01*
G75*
G02*
X112225000Y-105095000I0J-100000D01*
G01*
X112225000Y-106370000D01*
G75*
G02*
X112125000Y-106470000I-100000J0D01*
G01*
X111925000Y-106470000D01*
G75*
G02*
X111825000Y-106370000I0J100000D01*
G01*
X111825000Y-105095000D01*
G75*
G02*
X111925000Y-104995000I100000J0D01*
G01*
G37*
G36*
G01*
X112575000Y-104995000D02*
X112775000Y-104995000D01*
G75*
G02*
X112875000Y-105095000I0J-100000D01*
G01*
X112875000Y-106370000D01*
G75*
G02*
X112775000Y-106470000I-100000J0D01*
G01*
X112575000Y-106470000D01*
G75*
G02*
X112475000Y-106370000I0J100000D01*
G01*
X112475000Y-105095000D01*
G75*
G02*
X112575000Y-104995000I100000J0D01*
G01*
G37*
G36*
G01*
X113225000Y-104995000D02*
X113425000Y-104995000D01*
G75*
G02*
X113525000Y-105095000I0J-100000D01*
G01*
X113525000Y-106370000D01*
G75*
G02*
X113425000Y-106470000I-100000J0D01*
G01*
X113225000Y-106470000D01*
G75*
G02*
X113125000Y-106370000I0J100000D01*
G01*
X113125000Y-105095000D01*
G75*
G02*
X113225000Y-104995000I100000J0D01*
G01*
G37*
G36*
G01*
X113875000Y-104995000D02*
X114075000Y-104995000D01*
G75*
G02*
X114175000Y-105095000I0J-100000D01*
G01*
X114175000Y-106370000D01*
G75*
G02*
X114075000Y-106470000I-100000J0D01*
G01*
X113875000Y-106470000D01*
G75*
G02*
X113775000Y-106370000I0J100000D01*
G01*
X113775000Y-105095000D01*
G75*
G02*
X113875000Y-104995000I100000J0D01*
G01*
G37*
G36*
G01*
X114525000Y-104995000D02*
X114725000Y-104995000D01*
G75*
G02*
X114825000Y-105095000I0J-100000D01*
G01*
X114825000Y-106370000D01*
G75*
G02*
X114725000Y-106470000I-100000J0D01*
G01*
X114525000Y-106470000D01*
G75*
G02*
X114425000Y-106370000I0J100000D01*
G01*
X114425000Y-105095000D01*
G75*
G02*
X114525000Y-104995000I100000J0D01*
G01*
G37*
G36*
G01*
X115175000Y-104995000D02*
X115375000Y-104995000D01*
G75*
G02*
X115475000Y-105095000I0J-100000D01*
G01*
X115475000Y-106370000D01*
G75*
G02*
X115375000Y-106470000I-100000J0D01*
G01*
X115175000Y-106470000D01*
G75*
G02*
X115075000Y-106370000I0J100000D01*
G01*
X115075000Y-105095000D01*
G75*
G02*
X115175000Y-104995000I100000J0D01*
G01*
G37*
G36*
G01*
X115825000Y-104995000D02*
X116025000Y-104995000D01*
G75*
G02*
X116125000Y-105095000I0J-100000D01*
G01*
X116125000Y-106370000D01*
G75*
G02*
X116025000Y-106470000I-100000J0D01*
G01*
X115825000Y-106470000D01*
G75*
G02*
X115725000Y-106370000I0J100000D01*
G01*
X115725000Y-105095000D01*
G75*
G02*
X115825000Y-104995000I100000J0D01*
G01*
G37*
G36*
G01*
X116475000Y-104995000D02*
X116675000Y-104995000D01*
G75*
G02*
X116775000Y-105095000I0J-100000D01*
G01*
X116775000Y-106370000D01*
G75*
G02*
X116675000Y-106470000I-100000J0D01*
G01*
X116475000Y-106470000D01*
G75*
G02*
X116375000Y-106370000I0J100000D01*
G01*
X116375000Y-105095000D01*
G75*
G02*
X116475000Y-104995000I100000J0D01*
G01*
G37*
G36*
G01*
X117125000Y-104995000D02*
X117325000Y-104995000D01*
G75*
G02*
X117425000Y-105095000I0J-100000D01*
G01*
X117425000Y-106370000D01*
G75*
G02*
X117325000Y-106470000I-100000J0D01*
G01*
X117125000Y-106470000D01*
G75*
G02*
X117025000Y-106370000I0J100000D01*
G01*
X117025000Y-105095000D01*
G75*
G02*
X117125000Y-104995000I100000J0D01*
G01*
G37*
%TD*%
D17*
%TO.C,U4*%
X100330000Y-86360000D03*
D18*
X98425000Y-89235000D03*
X99695000Y-89235000D03*
X100965000Y-89235000D03*
X102235000Y-89235000D03*
X102235000Y-83485000D03*
X100965000Y-83485000D03*
X99695000Y-83485000D03*
X98425000Y-83485000D03*
%TD*%
%TO.C,U5*%
X131445000Y-89235000D03*
X130175000Y-89235000D03*
X128905000Y-89235000D03*
X127635000Y-89235000D03*
X127635000Y-83485000D03*
X128905000Y-83485000D03*
X130175000Y-83485000D03*
X131445000Y-83485000D03*
D17*
X129540000Y-86360000D03*
%TD*%
D19*
%TO.C,U6*%
X114300000Y-113030000D03*
D20*
X111425000Y-111125000D03*
X111425000Y-112395000D03*
X111425000Y-113665000D03*
X111425000Y-114935000D03*
X117175000Y-114935000D03*
X117175000Y-113665000D03*
X117175000Y-112395000D03*
X117175000Y-111125000D03*
%TD*%
%TO.C,C2*%
G36*
G01*
X126685000Y-117009999D02*
X126685000Y-119210001D01*
G75*
G02*
X126435001Y-119460000I-249999J0D01*
G01*
X125609999Y-119460000D01*
G75*
G02*
X125360000Y-119210001I0J249999D01*
G01*
X125360000Y-117009999D01*
G75*
G02*
X125609999Y-116760000I249999J0D01*
G01*
X126435001Y-116760000D01*
G75*
G02*
X126685000Y-117009999I0J-249999D01*
G01*
G37*
G36*
G01*
X123560000Y-117009999D02*
X123560000Y-119210001D01*
G75*
G02*
X123310001Y-119460000I-249999J0D01*
G01*
X122484999Y-119460000D01*
G75*
G02*
X122235000Y-119210001I0J249999D01*
G01*
X122235000Y-117009999D01*
G75*
G02*
X122484999Y-116760000I249999J0D01*
G01*
X123310001Y-116760000D01*
G75*
G02*
X123560000Y-117009999I0J-249999D01*
G01*
G37*
%TD*%
M02*
