M48
; DRILL file {KiCad 5.1.9+dfsg1-1} date Sun Aug  8 23:21:58 2021
; FORMAT={-:-/ absolute / inch / decimal}
; #@! TF.CreationDate,2021-08-08T23:21:58+02:00
; #@! TF.GenerationSoftware,Kicad,Pcbnew,5.1.9+dfsg1-1
; #@! TF.FileFunction,Plated,1,2,PTH
FMAT,2
INCH
T1C0.0130
T2C0.0157
T3C0.0295
T4C0.0315
T5C0.0394
T6C0.0433
T7C0.0469
%
G90
G05
T1
X3.8988Y-3.3744
X3.8988Y-3.4256
X3.95Y-3.3744
X3.95Y-3.4256
X4.0012Y-3.3744
X4.0012Y-3.4256
X4.4744Y-4.3988
X4.4744Y-4.45
X4.4744Y-4.5012
X4.5256Y-4.3988
X4.5256Y-4.45
X4.5256Y-4.5012
X5.0488Y-3.3744
X5.0488Y-3.4256
X5.1Y-3.3744
X5.1Y-3.4256
X5.1512Y-3.3744
X5.1512Y-3.4256
T2
X3.775Y-3.85
X3.775Y-4.15
X3.9Y-3.15
X3.9Y-3.2
X3.95Y-3.625
X3.975Y-3.7
X4.0Y-3.75
X4.075Y-3.125
X4.078Y-3.203
X4.287Y-3.688
X4.3Y-4.425
X4.3Y-4.475
X4.3433Y-4.1913
X4.4Y-4.225
X4.425Y-3.35
X4.425Y-3.4
X4.425Y-3.45
X4.425Y-4.325
X4.475Y-3.35
X4.475Y-3.4
X4.475Y-3.45
X4.4886Y-4.2864
X4.525Y-3.35
X4.525Y-3.4
X4.525Y-3.45
X4.6Y-4.05
X4.615Y-4.315
X4.65Y-4.175
X4.6778Y-3.6028
X4.6937Y-4.4563
X4.7Y-3.15
X4.7Y-3.475
X4.7028Y-3.3028
X4.725Y-3.7
X4.75Y-3.5
X4.7528Y-3.2528
X4.85Y-4.8
X4.925Y-3.2
X4.925Y-3.575
X4.9278Y-3.125
X4.975Y-3.55
X4.9935Y-3.1175
X5.025Y-4.35
X5.05Y-3.2
X5.1Y-3.2
X5.1587Y-3.2
X5.2Y-3.6
T3
X3.75Y-3.2
X3.75Y-3.2787
X3.75Y-3.3575
X3.75Y-3.4362
X3.75Y-3.515
X3.75Y-3.5937
X4.3Y-4.65
X4.3787Y-4.65
X4.4575Y-4.65
X4.5362Y-4.65
X4.615Y-4.65
X4.6937Y-4.65
X5.3Y-3.2313
X5.3Y-3.31
X5.3Y-3.3888
X5.3Y-3.4675
X5.3Y-3.5463
X5.3Y-3.625
T4
X4.85Y-4.4016
X4.85Y-4.5
T5
X5.45Y-4.575
X5.45Y-4.675
T6
X4.725Y-4.0
X4.725Y-4.1772
X4.9809Y-4.0
X4.9809Y-4.1772
X5.2441Y-2.875
X5.2441Y-3.0522
X5.5Y-2.875
X5.5Y-3.0522
T7
X3.55Y-3.85
X3.55Y-4.15
X3.55Y-4.45
X3.65Y-3.85
X3.65Y-4.15
X3.65Y-4.45
X3.825Y-4.5
X3.825Y-4.775
X3.925Y-3.975
X3.925Y-4.075
X3.925Y-4.175
X3.925Y-4.275
X3.925Y-4.5
X3.925Y-4.775
X4.025Y-4.5
X4.025Y-4.775
X4.125Y-4.5
X4.125Y-4.775
X4.15Y-4.2
X4.25Y-4.2
T0
M30
