M48
; DRILL file {KiCad 6.0.11+dfsg-1~bpo11+1} date lun. 12 juin 2023 22:03:47
; FORMAT={-:-/ absolute / inch / decimal}
; #@! TF.CreationDate,2023-06-12T22:03:47+02:00
; #@! TF.GenerationSoftware,Kicad,Pcbnew,6.0.11+dfsg-1~bpo11+1
; #@! TF.FileFunction,Plated,1,4,PTH
FMAT,2
INCH
; #@! TA.AperFunction,Plated,PTH,ViaDrill
T1C0.0157
; #@! TA.AperFunction,Plated,PTH,ComponentDrill
T2C0.0256
; #@! TA.AperFunction,Plated,PTH,ComponentDrill
T3C0.0394
; #@! TA.AperFunction,Plated,PTH,ComponentDrill
T4C0.0469
%
G90
G05
T1
X-0.3387Y-1.0919
X-0.2087Y0.0081
X-0.1887Y-0.1519
X-0.0837Y-1.0169
X-0.0737Y0.1281
X-0.0537Y-0.6519
X0.0048Y-0.5869
X0.0048Y-0.7219
X0.0513Y-1.0169
X0.0763Y-0.4029
X0.1213Y-0.3819
X0.1338Y-1.0944
X0.1413Y0.0431
X0.1413Y-0.4369
X0.1413Y-0.4769
X0.1439Y-0.1619
X0.1739Y-0.0069
X0.2082Y-0.8969
X0.2104Y-0.8137
X0.2123Y-0.8557
X0.2163Y-0.4969
X0.2326Y-0.1255
X0.2363Y-0.3769
X0.2363Y-0.6369
X0.2428Y-0.7519
X0.2497Y-0.2777
X0.275Y-0.685
X0.2813Y-1.0919
X0.2963Y-0.2969
X0.2963Y-0.3319
X0.2963Y-0.3669
X0.3088Y-0.9294
X0.3163Y-0.5019
X0.3313Y-0.2969
X0.3313Y-0.3319
X0.3313Y-0.3669
X0.3587Y-0.4998
X0.3613Y-0.6519
X0.3663Y-0.2969
X0.3663Y-0.3319
X0.3663Y-0.3669
X0.3663Y-0.7469
X0.3789Y-0.0226
X0.3813Y-0.9269
X0.3839Y-0.1569
X0.3972Y-0.4914
X0.4013Y-0.2969
X0.4013Y-0.3319
X0.4013Y-0.3669
X0.4363Y-0.2969
X0.4363Y-0.3319
X0.4363Y-0.3669
X0.4418Y-0.6317
X0.4522Y-0.8363
X0.4623Y-0.6682
X0.4713Y-0.2969
X0.4713Y-0.3319
X0.4713Y-0.3669
X0.4723Y-0.5078
X0.4811Y-0.6337
X0.4855Y-0.7252
X0.5139Y-0.1219
X0.5178Y-0.7028
X0.5221Y-0.5082
X0.5363Y-1.1069
X0.5463Y-0.3819
X0.5863Y-0.2269
X0.6263Y-0.0019
X0.6263Y-0.3219
X0.6363Y-0.1569
X0.6426Y-0.5611
X0.7213Y-0.0219
X0.7278Y-0.5154
X0.7313Y-0.6079
X0.7396Y-0.2776
X0.7416Y-0.1139
X0.749Y-1.0544
X0.7672Y-0.5163
X0.7813Y-0.3019
X0.7813Y-0.3369
X0.7813Y-0.3719
X0.7863Y-1.0669
X0.7963Y-0.9369
X0.8073Y-0.5154
X0.8163Y-0.3019
X0.8163Y-0.3369
X0.8163Y-0.3719
X0.835Y-0.695
X0.8441Y-0.5593
X0.8513Y-0.3019
X0.8513Y-0.3369
X0.8513Y-0.3719
X0.8713Y-0.1569
X0.8782Y-0.9138
X0.8846Y-0.0227
X0.8863Y-0.3019
X0.8863Y-0.3369
X0.8863Y-0.3719
X0.8927Y-0.5288
X0.9138Y-0.7294
X0.9163Y-0.5679
X0.9213Y-0.3019
X0.9213Y-0.3369
X0.9213Y-0.3719
X0.9213Y-0.6619
X0.9563Y-0.3019
X0.9563Y-0.3369
X0.9563Y-0.3719
X1.0063Y-0.5287
X1.0071Y-0.1119
X1.0088Y-0.6894
X1.0113Y-0.3069
X1.0363Y-0.3869
X1.0588Y-0.0044
X1.0713Y-0.2119
X1.0713Y-0.3069
X1.0763Y-0.9719
X1.12Y-0.775
X1.1281Y-0.3473
X1.1313Y-0.1619
X1.1513Y-0.0119
X1.1563Y-0.9969
X1.175Y-0.8
X1.219Y-0.2796
X1.2413Y-0.0819
X1.2613Y-0.2969
X1.2613Y-0.3319
X1.2613Y-0.3669
X1.2617Y-0.5015
X1.2713Y-0.8369
X1.2946Y-0.523
X1.2963Y-0.2969
X1.2963Y-0.3319
X1.2963Y-0.3669
X1.3255Y-0.4986
X1.3313Y-0.2969
X1.3313Y-0.3319
X1.3313Y-0.3669
X1.3663Y-0.2969
X1.3663Y-0.3319
X1.3663Y-0.3669
X1.3871Y-0.5184
X1.4013Y-0.2969
X1.4013Y-0.3319
X1.4013Y-0.3669
X1.4013Y-0.9319
X1.4013Y-1.0619
X1.4163Y-0.0119
X1.4263Y-0.0819
X1.4278Y-0.5267
X1.4363Y-0.2969
X1.4363Y-0.3319
X1.4363Y-0.3669
X1.5063Y-0.5269
X1.5313Y-0.3819
X1.5513Y-0.5019
X1.5613Y-0.2654
X1.5863Y-0.1969
X1.5863Y-0.3369
X1.6038Y-0.2444
X1.6113Y-1.0719
X1.6413Y-0.5619
X1.6763Y-1.1019
X1.6863Y-0.5169
X1.6913Y-1.0319
X1.7213Y-1.0019
X1.9213Y0.0731
X1.9563Y-1.1019
X1.9963Y-1.0969
T2
X1.19Y-0.625
X1.19Y-0.675
X1.24Y-0.625
X1.24Y-0.675
X1.29Y-0.625
X1.29Y-0.675
X1.34Y-0.625
X1.34Y-0.675
X1.39Y-0.625
X1.39Y-0.675
X1.44Y-0.625
X1.44Y-0.675
X1.49Y-0.625
X1.49Y-0.675
T4
X0.2413Y0.0589
X0.3413Y0.0589
X0.4413Y0.0589
X0.5413Y0.0589
X0.6813Y0.0589
X0.7813Y0.0589
X0.8813Y0.0589
X0.9813Y0.0589
X1.1213Y0.0589
X1.2213Y0.0589
X1.3213Y0.0589
X1.4213Y0.0589
X1.9113Y-0.5519
X1.9113Y-0.6519
X1.9113Y-0.7519
X1.9113Y-0.8519
X1.9121Y-0.1069
X1.9121Y-0.2069
X1.9121Y-0.3069
X1.9121Y-0.4069
T3
G00X-0.2237Y-0.2448
M15
G01X-0.2237Y-0.3236
M16
G05
G00X-0.145Y-0.4692
M15
G01X-0.0662Y-0.4692
M16
G05
G00X0.0125Y-0.2448
M15
G01X0.0125Y-0.3236
M16
G05
T0
M30
