%TF.GenerationSoftware,KiCad,Pcbnew,6.0.11+dfsg-1~bpo11+1*%
%TF.CreationDate,2023-06-12T22:03:45+02:00*%
%TF.ProjectId,motor_board_v3,6d6f746f-725f-4626-9f61-72645f76332e,rev?*%
%TF.SameCoordinates,PX87037a0PY50412a8*%
%TF.FileFunction,Soldermask,Bot*%
%TF.FilePolarity,Negative*%
%FSLAX46Y46*%
G04 Gerber Fmt 4.6, Leading zero omitted, Abs format (unit mm)*
G04 Created by KiCad (PCBNEW 6.0.11+dfsg-1~bpo11+1) date 2023-06-12 22:03:45*
%MOMM*%
%LPD*%
G01*
G04 APERTURE LIST*
G04 Aperture macros list*
%AMRoundRect*
0 Rectangle with rounded corners*
0 $1 Rounding radius*
0 $2 $3 $4 $5 $6 $7 $8 $9 X,Y pos of 4 corners*
0 Add a 4 corners polygon primitive as box body*
4,1,4,$2,$3,$4,$5,$6,$7,$8,$9,$2,$3,0*
0 Add four circle primitives for the rounded corners*
1,1,$1+$1,$2,$3*
1,1,$1+$1,$4,$5*
1,1,$1+$1,$6,$7*
1,1,$1+$1,$8,$9*
0 Add four rect primitives between the rounded corners*
20,1,$1+$1,$2,$3,$4,$5,0*
20,1,$1+$1,$4,$5,$6,$7,0*
20,1,$1+$1,$6,$7,$8,$9,0*
20,1,$1+$1,$8,$9,$2,$3,0*%
G04 Aperture macros list end*
%ADD10RoundRect,0.225000X0.225000X0.250000X-0.225000X0.250000X-0.225000X-0.250000X0.225000X-0.250000X0*%
%ADD11R,1.400000X1.200000*%
%ADD12R,1.000000X1.000000*%
%ADD13O,1.000000X1.000000*%
%ADD14RoundRect,0.100000X-0.100000X0.637500X-0.100000X-0.637500X0.100000X-0.637500X0.100000X0.637500X0*%
%ADD15R,5.400000X2.850000*%
%ADD16RoundRect,0.250000X0.620000X0.845000X-0.620000X0.845000X-0.620000X-0.845000X0.620000X-0.845000X0*%
%ADD17O,1.740000X2.190000*%
%ADD18RoundRect,0.250000X0.845000X-0.620000X0.845000X0.620000X-0.845000X0.620000X-0.845000X-0.620000X0*%
%ADD19O,2.190000X1.740000*%
%ADD20C,2.200000*%
%ADD21RoundRect,0.875000X-0.875000X-0.875000X0.875000X-0.875000X0.875000X0.875000X-0.875000X0.875000X0*%
%ADD22RoundRect,0.750000X-0.750000X-1.000000X0.750000X-1.000000X0.750000X1.000000X-0.750000X1.000000X0*%
%ADD23R,3.500000X3.500000*%
%ADD24RoundRect,0.225000X-0.225000X-0.250000X0.225000X-0.250000X0.225000X0.250000X-0.225000X0.250000X0*%
%ADD25RoundRect,0.075000X0.075000X0.700000X-0.075000X0.700000X-0.075000X-0.700000X0.075000X-0.700000X0*%
%ADD26RoundRect,0.075000X0.700000X0.075000X-0.700000X0.075000X-0.700000X-0.075000X0.700000X-0.075000X0*%
%ADD27RoundRect,0.250000X0.625000X-0.312500X0.625000X0.312500X-0.625000X0.312500X-0.625000X-0.312500X0*%
%ADD28RoundRect,0.218750X0.256250X-0.218750X0.256250X0.218750X-0.256250X0.218750X-0.256250X-0.218750X0*%
%ADD29RoundRect,0.250000X-0.312500X-0.625000X0.312500X-0.625000X0.312500X0.625000X-0.312500X0.625000X0*%
%ADD30RoundRect,0.225000X-0.250000X0.225000X-0.250000X-0.225000X0.250000X-0.225000X0.250000X0.225000X0*%
%ADD31RoundRect,0.225000X0.250000X-0.225000X0.250000X0.225000X-0.250000X0.225000X-0.250000X-0.225000X0*%
%ADD32R,2.500000X1.800000*%
%ADD33RoundRect,0.150000X-0.825000X-0.150000X0.825000X-0.150000X0.825000X0.150000X-0.825000X0.150000X0*%
%ADD34RoundRect,0.200000X-0.275000X0.200000X-0.275000X-0.200000X0.275000X-0.200000X0.275000X0.200000X0*%
%ADD35RoundRect,0.250000X0.312500X0.625000X-0.312500X0.625000X-0.312500X-0.625000X0.312500X-0.625000X0*%
%ADD36RoundRect,0.250000X-0.625000X0.312500X-0.625000X-0.312500X0.625000X-0.312500X0.625000X0.312500X0*%
%ADD37RoundRect,0.250000X-0.275000X-0.700000X0.275000X-0.700000X0.275000X0.700000X-0.275000X0.700000X0*%
%ADD38R,1.400000X1.300000*%
%ADD39RoundRect,0.200000X0.200000X0.275000X-0.200000X0.275000X-0.200000X-0.275000X0.200000X-0.275000X0*%
%ADD40RoundRect,0.200000X0.275000X-0.200000X0.275000X0.200000X-0.275000X0.200000X-0.275000X-0.200000X0*%
%ADD41R,1.300000X1.400000*%
%ADD42RoundRect,0.150000X0.150000X-0.512500X0.150000X0.512500X-0.150000X0.512500X-0.150000X-0.512500X0*%
%ADD43RoundRect,0.150000X0.587500X0.150000X-0.587500X0.150000X-0.587500X-0.150000X0.587500X-0.150000X0*%
%ADD44R,2.000000X1.500000*%
%ADD45R,2.000000X3.800000*%
%ADD46RoundRect,0.150000X0.150000X-0.587500X0.150000X0.587500X-0.150000X0.587500X-0.150000X-0.587500X0*%
%ADD47RoundRect,0.250000X2.475000X-0.712500X2.475000X0.712500X-2.475000X0.712500X-2.475000X-0.712500X0*%
G04 APERTURE END LIST*
D10*
%TO.C,C6*%
X-5194000Y-27686000D03*
X-6744000Y-27686000D03*
%TD*%
%TO.C,C4*%
X47257000Y-24892000D03*
X45707000Y-24892000D03*
%TD*%
D11*
%TO.C,Y1*%
X19896000Y-18884000D03*
X17696000Y-18884000D03*
X17696000Y-17184000D03*
X19896000Y-17184000D03*
%TD*%
D12*
%TO.C,J1*%
X30226000Y-17145000D03*
D13*
X30226000Y-15875000D03*
X31496000Y-17145000D03*
X31496000Y-15875000D03*
X32766000Y-17145000D03*
X32766000Y-15875000D03*
X34036000Y-17145000D03*
X34036000Y-15875000D03*
X35306000Y-17145000D03*
X35306000Y-15875000D03*
X36576000Y-17145000D03*
X36576000Y-15875000D03*
X37846000Y-17145000D03*
X37846000Y-15875000D03*
%TD*%
D14*
%TO.C,U5*%
X30098000Y-5567500D03*
X30748000Y-5567500D03*
X31398000Y-5567500D03*
X32048000Y-5567500D03*
X32698000Y-5567500D03*
X33348000Y-5567500D03*
X33998000Y-5567500D03*
X34648000Y-5567500D03*
X35298000Y-5567500D03*
X35948000Y-5567500D03*
X36598000Y-5567500D03*
X37248000Y-5567500D03*
X37898000Y-5567500D03*
X38548000Y-5567500D03*
X38548000Y-11292500D03*
X37898000Y-11292500D03*
X37248000Y-11292500D03*
X36598000Y-11292500D03*
X35948000Y-11292500D03*
X35298000Y-11292500D03*
X34648000Y-11292500D03*
X33998000Y-11292500D03*
X33348000Y-11292500D03*
X32698000Y-11292500D03*
X32048000Y-11292500D03*
X31398000Y-11292500D03*
X30748000Y-11292500D03*
X30098000Y-11292500D03*
D15*
X34323000Y-8430000D03*
%TD*%
D14*
%TO.C,U4*%
X17906000Y-5567500D03*
X18556000Y-5567500D03*
X19206000Y-5567500D03*
X19856000Y-5567500D03*
X20506000Y-5567500D03*
X21156000Y-5567500D03*
X21806000Y-5567500D03*
X22456000Y-5567500D03*
X23106000Y-5567500D03*
X23756000Y-5567500D03*
X24406000Y-5567500D03*
X25056000Y-5567500D03*
X25706000Y-5567500D03*
X26356000Y-5567500D03*
X26356000Y-11292500D03*
X25706000Y-11292500D03*
X25056000Y-11292500D03*
X24406000Y-11292500D03*
X23756000Y-11292500D03*
X23106000Y-11292500D03*
X22456000Y-11292500D03*
X21806000Y-11292500D03*
X21156000Y-11292500D03*
X20506000Y-11292500D03*
X19856000Y-11292500D03*
X19206000Y-11292500D03*
X18556000Y-11292500D03*
X17906000Y-11292500D03*
D15*
X22131000Y-8430000D03*
%TD*%
%TO.C,U3*%
X9750500Y-8371500D03*
D14*
X5525500Y-11234000D03*
X6175500Y-11234000D03*
X6825500Y-11234000D03*
X7475500Y-11234000D03*
X8125500Y-11234000D03*
X8775500Y-11234000D03*
X9425500Y-11234000D03*
X10075500Y-11234000D03*
X10725500Y-11234000D03*
X11375500Y-11234000D03*
X12025500Y-11234000D03*
X12675500Y-11234000D03*
X13325500Y-11234000D03*
X13975500Y-11234000D03*
X13975500Y-5509000D03*
X13325500Y-5509000D03*
X12675500Y-5509000D03*
X12025500Y-5509000D03*
X11375500Y-5509000D03*
X10725500Y-5509000D03*
X10075500Y-5509000D03*
X9425500Y-5509000D03*
X8775500Y-5509000D03*
X8125500Y-5509000D03*
X7475500Y-5509000D03*
X6825500Y-5509000D03*
X6175500Y-5509000D03*
X5525500Y-5509000D03*
%TD*%
D16*
%TO.C,J6*%
X24925000Y1496000D03*
D17*
X22385000Y1496000D03*
X19845000Y1496000D03*
X17305000Y1496000D03*
%TD*%
D18*
%TO.C,J4*%
X48547000Y-21638000D03*
D19*
X48547000Y-19098000D03*
X48547000Y-16558000D03*
X48547000Y-14018000D03*
%TD*%
D20*
%TO.C,REF\u002A\u002A*%
X0Y0D03*
%TD*%
%TO.C,REF\u002A\u002A*%
X42000000Y0D03*
%TD*%
%TO.C,REF\u002A\u002A*%
X0Y-23000000D03*
%TD*%
D18*
%TO.C,J3*%
X48567000Y-10335000D03*
D19*
X48567000Y-7795000D03*
X48567000Y-5255000D03*
X48567000Y-2715000D03*
%TD*%
D16*
%TO.C,J7*%
X36101000Y1496000D03*
D17*
X33561000Y1496000D03*
X31021000Y1496000D03*
X28481000Y1496000D03*
%TD*%
%TO.C,J5*%
X6129000Y1496000D03*
X8669000Y1496000D03*
X11209000Y1496000D03*
D16*
X13749000Y1496000D03*
%TD*%
D21*
%TO.C,J2*%
X-2682000Y-11918500D03*
D22*
X-5682000Y-7218500D03*
D23*
X318000Y-7218500D03*
%TD*%
D20*
%TO.C,REF\u002A\u002A*%
X42000000Y-23000000D03*
%TD*%
D10*
%TO.C,C25*%
X4351000Y-26083000D03*
X2801000Y-26083000D03*
%TD*%
D24*
%TO.C,C10*%
X12531500Y-3731000D03*
X14081500Y-3731000D03*
%TD*%
D25*
%TO.C,U1*%
X13041000Y-14312000D03*
X12541000Y-14312000D03*
X12041000Y-14312000D03*
X11541000Y-14312000D03*
X11041000Y-14312000D03*
X10541000Y-14312000D03*
X10041000Y-14312000D03*
X9541000Y-14312000D03*
X9041000Y-14312000D03*
X8541000Y-14312000D03*
X8041000Y-14312000D03*
X7541000Y-14312000D03*
X7041000Y-14312000D03*
X6541000Y-14312000D03*
X6041000Y-14312000D03*
X5541000Y-14312000D03*
D26*
X3616000Y-16237000D03*
X3616000Y-16737000D03*
X3616000Y-17237000D03*
X3616000Y-17737000D03*
X3616000Y-18237000D03*
X3616000Y-18737000D03*
X3616000Y-19237000D03*
X3616000Y-19737000D03*
X3616000Y-20237000D03*
X3616000Y-20737000D03*
X3616000Y-21237000D03*
X3616000Y-21737000D03*
X3616000Y-22237000D03*
X3616000Y-22737000D03*
X3616000Y-23237000D03*
X3616000Y-23737000D03*
D25*
X5541000Y-25662000D03*
X6041000Y-25662000D03*
X6541000Y-25662000D03*
X7041000Y-25662000D03*
X7541000Y-25662000D03*
X8041000Y-25662000D03*
X8541000Y-25662000D03*
X9041000Y-25662000D03*
X9541000Y-25662000D03*
X10041000Y-25662000D03*
X10541000Y-25662000D03*
X11041000Y-25662000D03*
X11541000Y-25662000D03*
X12041000Y-25662000D03*
X12541000Y-25662000D03*
X13041000Y-25662000D03*
D26*
X14966000Y-23737000D03*
X14966000Y-23237000D03*
X14966000Y-22737000D03*
X14966000Y-22237000D03*
X14966000Y-21737000D03*
X14966000Y-21237000D03*
X14966000Y-20737000D03*
X14966000Y-20237000D03*
X14966000Y-19737000D03*
X14966000Y-19237000D03*
X14966000Y-18737000D03*
X14966000Y-18237000D03*
X14966000Y-17737000D03*
X14966000Y-17237000D03*
X14966000Y-16737000D03*
X14966000Y-16237000D03*
%TD*%
D24*
%TO.C,C23*%
X14231000Y-13510000D03*
X15781000Y-13510000D03*
%TD*%
D27*
%TO.C,R6*%
X1049000Y-19798500D03*
X1049000Y-16873500D03*
%TD*%
D28*
%TO.C,FB2*%
X45245000Y-21739500D03*
X45245000Y-23314500D03*
%TD*%
D24*
%TO.C,C26*%
X15374000Y-15034000D03*
X16924000Y-15034000D03*
%TD*%
D29*
%TO.C,R7*%
X45687500Y-302000D03*
X48612500Y-302000D03*
%TD*%
D27*
%TO.C,R8*%
X795000Y-13321500D03*
X795000Y-10396500D03*
%TD*%
D30*
%TO.C,C1*%
X19959000Y-20736000D03*
X19959000Y-22286000D03*
%TD*%
D31*
%TO.C,C14*%
X15908000Y-2982000D03*
X15908000Y-1432000D03*
%TD*%
D32*
%TO.C,D5*%
X-8317000Y-15796000D03*
X-4317000Y-15796000D03*
%TD*%
D10*
%TO.C,C9*%
X6461500Y-3731000D03*
X4911500Y-3731000D03*
%TD*%
D33*
%TO.C,U2*%
X17357000Y-27988000D03*
X17357000Y-26718000D03*
X17357000Y-25448000D03*
X17357000Y-24178000D03*
X22307000Y-24178000D03*
X22307000Y-25448000D03*
X22307000Y-26718000D03*
X22307000Y-27988000D03*
%TD*%
D34*
%TO.C,R15*%
X34958000Y-1255000D03*
X34958000Y-2905000D03*
%TD*%
D29*
%TO.C,R10*%
X11336000Y-1826000D03*
X14261000Y-1826000D03*
%TD*%
D10*
%TO.C,C33*%
X29350000Y-27051000D03*
X27800000Y-27051000D03*
%TD*%
D35*
%TO.C,R14*%
X20418500Y-1826000D03*
X17493500Y-1826000D03*
%TD*%
D10*
%TO.C,C11*%
X4237000Y-13256000D03*
X2687000Y-13256000D03*
%TD*%
D24*
%TO.C,C22*%
X38247000Y-3731000D03*
X39797000Y-3731000D03*
%TD*%
D10*
%TO.C,C15*%
X18969000Y-3731000D03*
X17419000Y-3731000D03*
%TD*%
D30*
%TO.C,C7*%
X3781500Y-5242000D03*
X3781500Y-6792000D03*
%TD*%
D31*
%TO.C,C18*%
X15654000Y-11364000D03*
X15654000Y-9814000D03*
%TD*%
D36*
%TO.C,R16*%
X42324000Y-3538500D03*
X42324000Y-6463500D03*
%TD*%
D31*
%TO.C,C24*%
X28100000Y-11364000D03*
X28100000Y-9814000D03*
%TD*%
D10*
%TO.C,C27*%
X11717000Y-27480000D03*
X10167000Y-27480000D03*
%TD*%
%TO.C,C21*%
X31669000Y-3731000D03*
X30119000Y-3731000D03*
%TD*%
D37*
%TO.C,FB1*%
X-2718000Y-27305000D03*
X432000Y-27305000D03*
%TD*%
D38*
%TO.C,D6*%
X-1638530Y-17881000D03*
X-1638530Y-14981000D03*
%TD*%
D39*
%TO.C,R18*%
X26385000Y-18971000D03*
X24735000Y-18971000D03*
%TD*%
D40*
%TO.C,R9*%
X3400500Y-3032000D03*
X3400500Y-1382000D03*
%TD*%
D41*
%TO.C,D7*%
X44176000Y-27051000D03*
X47076000Y-27051000D03*
%TD*%
D24*
%TO.C,C16*%
X25293000Y-3731000D03*
X26843000Y-3731000D03*
%TD*%
D31*
%TO.C,C20*%
X28608000Y-2982000D03*
X28608000Y-1432000D03*
%TD*%
D42*
%TO.C,U8*%
X44036000Y-11345500D03*
X43086000Y-11345500D03*
X42136000Y-11345500D03*
X42136000Y-9070500D03*
X43086000Y-9070500D03*
X44036000Y-9070500D03*
%TD*%
D35*
%TO.C,R4*%
X160000Y-3731000D03*
X-2765000Y-3731000D03*
%TD*%
D43*
%TO.C,D9*%
X23944500Y-20688000D03*
X23944500Y-22588000D03*
X22069500Y-21638000D03*
%TD*%
D31*
%TO.C,C17*%
X16911000Y-22286000D03*
X16911000Y-20736000D03*
%TD*%
D30*
%TO.C,C2*%
X18435000Y-20736000D03*
X18435000Y-22286000D03*
%TD*%
D35*
%TO.C,R1*%
X-6509500Y-1318000D03*
X-3584500Y-1318000D03*
%TD*%
D10*
%TO.C,C28*%
X1658000Y-15034000D03*
X3208000Y-15034000D03*
%TD*%
D44*
%TO.C,U6*%
X37981000Y-22719000D03*
X37981000Y-25019000D03*
D45*
X31681000Y-25019000D03*
D44*
X37981000Y-27319000D03*
%TD*%
D29*
%TO.C,R13*%
X23970500Y-1826000D03*
X26895500Y-1826000D03*
%TD*%
D31*
%TO.C,C12*%
X40292000Y-11491000D03*
X40292000Y-9941000D03*
%TD*%
D30*
%TO.C,C8*%
X9623500Y-1432000D03*
X9623500Y-2982000D03*
%TD*%
D34*
%TO.C,R12*%
X22258000Y-1255000D03*
X22258000Y-2905000D03*
%TD*%
D30*
%TO.C,C19*%
X28354000Y-5369000D03*
X28354000Y-6919000D03*
%TD*%
D35*
%TO.C,R17*%
X33245500Y-1826000D03*
X30320500Y-1826000D03*
%TD*%
D30*
%TO.C,C13*%
X16162000Y-5369000D03*
X16162000Y-6919000D03*
%TD*%
D40*
%TO.C,R5*%
X24404000Y-26908000D03*
X24404000Y-25258000D03*
%TD*%
D35*
%TO.C,R11*%
X7911000Y-1826000D03*
X4986000Y-1826000D03*
%TD*%
D46*
%TO.C,Q1*%
X50767000Y-26512500D03*
X48867000Y-26512500D03*
X49817000Y-24637500D03*
%TD*%
D47*
%TO.C,F1*%
X-6571000Y-25660500D03*
X-6571000Y-18885500D03*
%TD*%
M02*
