%TF.GenerationSoftware,KiCad,Pcbnew,6.0.11+dfsg-1~bpo11+1*%
%TF.CreationDate,2023-07-10T22:14:43+02:00*%
%TF.ProjectId,motor_board_v3,6d6f746f-725f-4626-9f61-72645f76332e,rev?*%
%TF.SameCoordinates,PX87037a0PY50412a8*%
%TF.FileFunction,Legend,Top*%
%TF.FilePolarity,Positive*%
%FSLAX46Y46*%
G04 Gerber Fmt 4.6, Leading zero omitted, Abs format (unit mm)*
G04 Created by KiCad (PCBNEW 6.0.11+dfsg-1~bpo11+1) date 2023-07-10 22:14:43*
%MOMM*%
%LPD*%
G01*
G04 APERTURE LIST*
%ADD10C,0.150000*%
%ADD11C,0.300000*%
%ADD12C,0.120000*%
G04 APERTURE END LIST*
D10*
X-2610239Y-27868666D02*
X-2562620Y-27725809D01*
X-2562620Y-27487714D01*
X-2610239Y-27392476D01*
X-2657858Y-27344857D01*
X-2753096Y-27297238D01*
X-2848334Y-27297238D01*
X-2943572Y-27344857D01*
X-2991191Y-27392476D01*
X-3038810Y-27487714D01*
X-3086429Y-27678190D01*
X-3134048Y-27773428D01*
X-3181667Y-27821047D01*
X-3276905Y-27868666D01*
X-3372143Y-27868666D01*
X-3467381Y-27821047D01*
X-3515000Y-27773428D01*
X-3562620Y-27678190D01*
X-3562620Y-27440095D01*
X-3515000Y-27297238D01*
X-3229286Y-27011523D02*
X-3229286Y-26630571D01*
X-3562620Y-26868666D02*
X-2705477Y-26868666D01*
X-2610239Y-26821047D01*
X-2562620Y-26725809D01*
X-2562620Y-26630571D01*
X-2562620Y-25868666D02*
X-3086429Y-25868666D01*
X-3181667Y-25916285D01*
X-3229286Y-26011523D01*
X-3229286Y-26202000D01*
X-3181667Y-26297238D01*
X-2610239Y-25868666D02*
X-2562620Y-25963904D01*
X-2562620Y-26202000D01*
X-2610239Y-26297238D01*
X-2705477Y-26344857D01*
X-2800715Y-26344857D01*
X-2895953Y-26297238D01*
X-2943572Y-26202000D01*
X-2943572Y-25963904D01*
X-2991191Y-25868666D01*
X-3229286Y-25535333D02*
X-3229286Y-25154380D01*
X-3562620Y-25392476D02*
X-2705477Y-25392476D01*
X-2610239Y-25344857D01*
X-2562620Y-25249619D01*
X-2562620Y-25154380D01*
X-3229286Y-24392476D02*
X-2562620Y-24392476D01*
X-3229286Y-24821047D02*
X-2705477Y-24821047D01*
X-2610239Y-24773428D01*
X-2562620Y-24678190D01*
X-2562620Y-24535333D01*
X-2610239Y-24440095D01*
X-2657858Y-24392476D01*
X-2610239Y-23963904D02*
X-2562620Y-23868666D01*
X-2562620Y-23678190D01*
X-2610239Y-23582952D01*
X-2705477Y-23535333D01*
X-2753096Y-23535333D01*
X-2848334Y-23582952D01*
X-2895953Y-23678190D01*
X-2895953Y-23821047D01*
X-2943572Y-23916285D01*
X-3038810Y-23963904D01*
X-3086429Y-23963904D01*
X-3181667Y-23916285D01*
X-3229286Y-23821047D01*
X-3229286Y-23678190D01*
X-3181667Y-23582952D01*
X17615000Y-2865761D02*
X17757857Y-2913380D01*
X17995952Y-2913380D01*
X18091190Y-2865761D01*
X18138809Y-2818142D01*
X18186428Y-2722904D01*
X18186428Y-2627666D01*
X18138809Y-2532428D01*
X18091190Y-2484809D01*
X17995952Y-2437190D01*
X17805476Y-2389571D01*
X17710238Y-2341952D01*
X17662619Y-2294333D01*
X17615000Y-2199095D01*
X17615000Y-2103857D01*
X17662619Y-2008619D01*
X17710238Y-1961000D01*
X17805476Y-1913380D01*
X18043571Y-1913380D01*
X18186428Y-1961000D01*
X18472142Y-2246714D02*
X18853095Y-2246714D01*
X18615000Y-1913380D02*
X18615000Y-2770523D01*
X18662619Y-2865761D01*
X18757857Y-2913380D01*
X18853095Y-2913380D01*
X19567380Y-2865761D02*
X19472142Y-2913380D01*
X19281666Y-2913380D01*
X19186428Y-2865761D01*
X19138809Y-2770523D01*
X19138809Y-2389571D01*
X19186428Y-2294333D01*
X19281666Y-2246714D01*
X19472142Y-2246714D01*
X19567380Y-2294333D01*
X19615000Y-2389571D01*
X19615000Y-2484809D01*
X19138809Y-2580047D01*
X20043571Y-2246714D02*
X20043571Y-3246714D01*
X20043571Y-2294333D02*
X20138809Y-2246714D01*
X20329285Y-2246714D01*
X20424523Y-2294333D01*
X20472142Y-2341952D01*
X20519761Y-2437190D01*
X20519761Y-2722904D01*
X20472142Y-2818142D01*
X20424523Y-2865761D01*
X20329285Y-2913380D01*
X20138809Y-2913380D01*
X20043571Y-2865761D01*
X20948333Y-2246714D02*
X20948333Y-3246714D01*
X20948333Y-2294333D02*
X21043571Y-2246714D01*
X21234047Y-2246714D01*
X21329285Y-2294333D01*
X21376904Y-2341952D01*
X21424523Y-2437190D01*
X21424523Y-2722904D01*
X21376904Y-2818142D01*
X21329285Y-2865761D01*
X21234047Y-2913380D01*
X21043571Y-2913380D01*
X20948333Y-2865761D01*
X22234047Y-2865761D02*
X22138809Y-2913380D01*
X21948333Y-2913380D01*
X21853095Y-2865761D01*
X21805476Y-2770523D01*
X21805476Y-2389571D01*
X21853095Y-2294333D01*
X21948333Y-2246714D01*
X22138809Y-2246714D01*
X22234047Y-2294333D01*
X22281666Y-2389571D01*
X22281666Y-2484809D01*
X21805476Y-2580047D01*
X22710238Y-2913380D02*
X22710238Y-2246714D01*
X22710238Y-2437190D02*
X22757857Y-2341952D01*
X22805476Y-2294333D01*
X22900714Y-2246714D01*
X22995952Y-2246714D01*
X24615000Y-2913380D02*
X24043571Y-2913380D01*
X24329285Y-2913380D02*
X24329285Y-1913380D01*
X24234047Y-2056238D01*
X24138809Y-2151476D01*
X24043571Y-2199095D01*
D11*
X10772333Y-7597761D02*
X10105666Y-7597761D01*
X10105666Y-5597761D01*
X11772333Y-7502523D02*
X11639000Y-7597761D01*
X11372333Y-7597761D01*
X11239000Y-7502523D01*
X11172333Y-7312047D01*
X11172333Y-6550142D01*
X11239000Y-6359666D01*
X11372333Y-6264428D01*
X11639000Y-6264428D01*
X11772333Y-6359666D01*
X11839000Y-6550142D01*
X11839000Y-6740619D01*
X11172333Y-6931095D01*
X12372333Y-7502523D02*
X12505666Y-7597761D01*
X12772333Y-7597761D01*
X12905666Y-7502523D01*
X12972333Y-7312047D01*
X12972333Y-7216809D01*
X12905666Y-7026333D01*
X12772333Y-6931095D01*
X12572333Y-6931095D01*
X12439000Y-6835857D01*
X12372333Y-6645380D01*
X12372333Y-6550142D01*
X12439000Y-6359666D01*
X12572333Y-6264428D01*
X12772333Y-6264428D01*
X12905666Y-6359666D01*
X14639000Y-6550142D02*
X15105666Y-6550142D01*
X15305666Y-7597761D02*
X14639000Y-7597761D01*
X14639000Y-5597761D01*
X15305666Y-5597761D01*
X15905666Y-7407285D02*
X15972333Y-7502523D01*
X15905666Y-7597761D01*
X15839000Y-7502523D01*
X15905666Y-7407285D01*
X15905666Y-7597761D01*
X16505666Y-7502523D02*
X16705666Y-7597761D01*
X17039000Y-7597761D01*
X17172333Y-7502523D01*
X17239000Y-7407285D01*
X17305666Y-7216809D01*
X17305666Y-7026333D01*
X17239000Y-6835857D01*
X17172333Y-6740619D01*
X17039000Y-6645380D01*
X16772333Y-6550142D01*
X16639000Y-6454904D01*
X16572333Y-6359666D01*
X16505666Y-6169190D01*
X16505666Y-5978714D01*
X16572333Y-5788238D01*
X16639000Y-5693000D01*
X16772333Y-5597761D01*
X17105666Y-5597761D01*
X17305666Y-5693000D01*
X17905666Y-7407285D02*
X17972333Y-7502523D01*
X17905666Y-7597761D01*
X17839000Y-7502523D01*
X17905666Y-7407285D01*
X17905666Y-7597761D01*
X19372333Y-7407285D02*
X19305666Y-7502523D01*
X19105666Y-7597761D01*
X18972333Y-7597761D01*
X18772333Y-7502523D01*
X18639000Y-7312047D01*
X18572333Y-7121571D01*
X18505666Y-6740619D01*
X18505666Y-6454904D01*
X18572333Y-6073952D01*
X18639000Y-5883476D01*
X18772333Y-5693000D01*
X18972333Y-5597761D01*
X19105666Y-5597761D01*
X19305666Y-5693000D01*
X19372333Y-5788238D01*
X19972333Y-7407285D02*
X20039000Y-7502523D01*
X19972333Y-7597761D01*
X19905666Y-7502523D01*
X19972333Y-7407285D01*
X19972333Y-7597761D01*
X21439000Y-7597761D02*
X20972333Y-6645380D01*
X20639000Y-7597761D02*
X20639000Y-5597761D01*
X21172333Y-5597761D01*
X21305666Y-5693000D01*
X21372333Y-5788238D01*
X21439000Y-5978714D01*
X21439000Y-6264428D01*
X21372333Y-6454904D01*
X21305666Y-6550142D01*
X21172333Y-6645380D01*
X20639000Y-6645380D01*
X22239000Y-7597761D02*
X22105666Y-7502523D01*
X22039000Y-7407285D01*
X21972333Y-7216809D01*
X21972333Y-6645380D01*
X22039000Y-6454904D01*
X22105666Y-6359666D01*
X22239000Y-6264428D01*
X22439000Y-6264428D01*
X22572333Y-6359666D01*
X22639000Y-6454904D01*
X22705666Y-6645380D01*
X22705666Y-7216809D01*
X22639000Y-7407285D01*
X22572333Y-7502523D01*
X22439000Y-7597761D01*
X22239000Y-7597761D01*
X23305666Y-7407285D02*
X23372333Y-7502523D01*
X23305666Y-7597761D01*
X23239000Y-7502523D01*
X23305666Y-7407285D01*
X23305666Y-7597761D01*
X24772333Y-7407285D02*
X24705666Y-7502523D01*
X24505666Y-7597761D01*
X24372333Y-7597761D01*
X24172333Y-7502523D01*
X24039000Y-7312047D01*
X23972333Y-7121571D01*
X23905666Y-6740619D01*
X23905666Y-6454904D01*
X23972333Y-6073952D01*
X24039000Y-5883476D01*
X24172333Y-5693000D01*
X24372333Y-5597761D01*
X24505666Y-5597761D01*
X24705666Y-5693000D01*
X24772333Y-5788238D01*
X25372333Y-7407285D02*
X25439000Y-7502523D01*
X25372333Y-7597761D01*
X25305666Y-7502523D01*
X25372333Y-7407285D01*
X25372333Y-7597761D01*
X25972333Y-7502523D02*
X26172333Y-7597761D01*
X26505666Y-7597761D01*
X26639000Y-7502523D01*
X26705666Y-7407285D01*
X26772333Y-7216809D01*
X26772333Y-7026333D01*
X26705666Y-6835857D01*
X26639000Y-6740619D01*
X26505666Y-6645380D01*
X26239000Y-6550142D01*
X26105666Y-6454904D01*
X26039000Y-6359666D01*
X25972333Y-6169190D01*
X25972333Y-5978714D01*
X26039000Y-5788238D01*
X26105666Y-5693000D01*
X26239000Y-5597761D01*
X26572333Y-5597761D01*
X26772333Y-5693000D01*
X28239000Y-6835857D02*
X28305666Y-6740619D01*
X28439000Y-6645380D01*
X28705666Y-6835857D01*
X28839000Y-6740619D01*
X28905666Y-6645380D01*
X30439000Y-5788238D02*
X30505666Y-5693000D01*
X30639000Y-5597761D01*
X30972333Y-5597761D01*
X31105666Y-5693000D01*
X31172333Y-5788238D01*
X31239000Y-5978714D01*
X31239000Y-6169190D01*
X31172333Y-6454904D01*
X30372333Y-7597761D01*
X31239000Y-7597761D01*
X32105666Y-5597761D02*
X32239000Y-5597761D01*
X32372333Y-5693000D01*
X32439000Y-5788238D01*
X32505666Y-5978714D01*
X32572333Y-6359666D01*
X32572333Y-6835857D01*
X32505666Y-7216809D01*
X32439000Y-7407285D01*
X32372333Y-7502523D01*
X32239000Y-7597761D01*
X32105666Y-7597761D01*
X31972333Y-7502523D01*
X31905666Y-7407285D01*
X31839000Y-7216809D01*
X31772333Y-6835857D01*
X31772333Y-6359666D01*
X31839000Y-5978714D01*
X31905666Y-5788238D01*
X31972333Y-5693000D01*
X32105666Y-5597761D01*
X33105666Y-5788238D02*
X33172333Y-5693000D01*
X33305666Y-5597761D01*
X33639000Y-5597761D01*
X33772333Y-5693000D01*
X33839000Y-5788238D01*
X33905666Y-5978714D01*
X33905666Y-6169190D01*
X33839000Y-6454904D01*
X33039000Y-7597761D01*
X33905666Y-7597761D01*
X35105666Y-6264428D02*
X35105666Y-7597761D01*
X34772333Y-5502523D02*
X34439000Y-6931095D01*
X35305666Y-6931095D01*
X9072333Y-8817761D02*
X9939000Y-8817761D01*
X9472333Y-9579666D01*
X9672333Y-9579666D01*
X9805666Y-9674904D01*
X9872333Y-9770142D01*
X9939000Y-9960619D01*
X9939000Y-10436809D01*
X9872333Y-10627285D01*
X9805666Y-10722523D01*
X9672333Y-10817761D01*
X9272333Y-10817761D01*
X9139000Y-10722523D01*
X9072333Y-10627285D01*
X12205666Y-10722523D02*
X12072333Y-10817761D01*
X11805666Y-10817761D01*
X11672333Y-10722523D01*
X11605666Y-10627285D01*
X11539000Y-10436809D01*
X11539000Y-9865380D01*
X11605666Y-9674904D01*
X11672333Y-9579666D01*
X11805666Y-9484428D01*
X12072333Y-9484428D01*
X12205666Y-9579666D01*
X12805666Y-10817761D02*
X12805666Y-8817761D01*
X13405666Y-10817761D02*
X13405666Y-9770142D01*
X13339000Y-9579666D01*
X13205666Y-9484428D01*
X13005666Y-9484428D01*
X12872333Y-9579666D01*
X12805666Y-9674904D01*
X14672333Y-10817761D02*
X14672333Y-9770142D01*
X14605666Y-9579666D01*
X14472333Y-9484428D01*
X14205666Y-9484428D01*
X14072333Y-9579666D01*
X14672333Y-10722523D02*
X14539000Y-10817761D01*
X14205666Y-10817761D01*
X14072333Y-10722523D01*
X14005666Y-10532047D01*
X14005666Y-10341571D01*
X14072333Y-10151095D01*
X14205666Y-10055857D01*
X14539000Y-10055857D01*
X14672333Y-9960619D01*
X15339000Y-9484428D02*
X15339000Y-10817761D01*
X15339000Y-9674904D02*
X15405666Y-9579666D01*
X15539000Y-9484428D01*
X15739000Y-9484428D01*
X15872333Y-9579666D01*
X15939000Y-9770142D01*
X15939000Y-10817761D01*
X16605666Y-9484428D02*
X16605666Y-10817761D01*
X16605666Y-9674904D02*
X16672333Y-9579666D01*
X16805666Y-9484428D01*
X17005666Y-9484428D01*
X17139000Y-9579666D01*
X17205666Y-9770142D01*
X17205666Y-10817761D01*
X18405666Y-10722523D02*
X18272333Y-10817761D01*
X18005666Y-10817761D01*
X17872333Y-10722523D01*
X17805666Y-10532047D01*
X17805666Y-9770142D01*
X17872333Y-9579666D01*
X18005666Y-9484428D01*
X18272333Y-9484428D01*
X18405666Y-9579666D01*
X18472333Y-9770142D01*
X18472333Y-9960619D01*
X17805666Y-10151095D01*
X19272333Y-10817761D02*
X19139000Y-10722523D01*
X19072333Y-10532047D01*
X19072333Y-8817761D01*
X19739000Y-10722523D02*
X19872333Y-10817761D01*
X20139000Y-10817761D01*
X20272333Y-10722523D01*
X20339000Y-10532047D01*
X20339000Y-10436809D01*
X20272333Y-10246333D01*
X20139000Y-10151095D01*
X19939000Y-10151095D01*
X19805666Y-10055857D01*
X19739000Y-9865380D01*
X19739000Y-9770142D01*
X19805666Y-9579666D01*
X19939000Y-9484428D01*
X20139000Y-9484428D01*
X20272333Y-9579666D01*
X21939000Y-10722523D02*
X22072333Y-10817761D01*
X22339000Y-10817761D01*
X22472333Y-10722523D01*
X22539000Y-10532047D01*
X22539000Y-10436809D01*
X22472333Y-10246333D01*
X22339000Y-10151095D01*
X22139000Y-10151095D01*
X22005666Y-10055857D01*
X21939000Y-9865380D01*
X21939000Y-9770142D01*
X22005666Y-9579666D01*
X22139000Y-9484428D01*
X22339000Y-9484428D01*
X22472333Y-9579666D01*
X22939000Y-9484428D02*
X23472333Y-9484428D01*
X23139000Y-8817761D02*
X23139000Y-10532047D01*
X23205666Y-10722523D01*
X23339000Y-10817761D01*
X23472333Y-10817761D01*
X24472333Y-10722523D02*
X24339000Y-10817761D01*
X24072333Y-10817761D01*
X23939000Y-10722523D01*
X23872333Y-10532047D01*
X23872333Y-9770142D01*
X23939000Y-9579666D01*
X24072333Y-9484428D01*
X24339000Y-9484428D01*
X24472333Y-9579666D01*
X24539000Y-9770142D01*
X24539000Y-9960619D01*
X23872333Y-10151095D01*
X25139000Y-9484428D02*
X25139000Y-11484428D01*
X25139000Y-9579666D02*
X25272333Y-9484428D01*
X25539000Y-9484428D01*
X25672333Y-9579666D01*
X25739000Y-9674904D01*
X25805666Y-9865380D01*
X25805666Y-10436809D01*
X25739000Y-10627285D01*
X25672333Y-10722523D01*
X25539000Y-10817761D01*
X25272333Y-10817761D01*
X25139000Y-10722523D01*
X26405666Y-9484428D02*
X26405666Y-11484428D01*
X26405666Y-9579666D02*
X26539000Y-9484428D01*
X26805666Y-9484428D01*
X26939000Y-9579666D01*
X27005666Y-9674904D01*
X27072333Y-9865380D01*
X27072333Y-10436809D01*
X27005666Y-10627285D01*
X26939000Y-10722523D01*
X26805666Y-10817761D01*
X26539000Y-10817761D01*
X26405666Y-10722523D01*
X28205666Y-10722523D02*
X28072333Y-10817761D01*
X27805666Y-10817761D01*
X27672333Y-10722523D01*
X27605666Y-10532047D01*
X27605666Y-9770142D01*
X27672333Y-9579666D01*
X27805666Y-9484428D01*
X28072333Y-9484428D01*
X28205666Y-9579666D01*
X28272333Y-9770142D01*
X28272333Y-9960619D01*
X27605666Y-10151095D01*
X28872333Y-10817761D02*
X28872333Y-9484428D01*
X28872333Y-9865380D02*
X28939000Y-9674904D01*
X29005666Y-9579666D01*
X29139000Y-9484428D01*
X29272333Y-9484428D01*
X30805666Y-10817761D02*
X30805666Y-8817761D01*
X30805666Y-9579666D02*
X30939000Y-9484428D01*
X31205666Y-9484428D01*
X31339000Y-9579666D01*
X31405666Y-9674904D01*
X31472333Y-9865380D01*
X31472333Y-10436809D01*
X31405666Y-10627285D01*
X31339000Y-10722523D01*
X31205666Y-10817761D01*
X30939000Y-10817761D01*
X30805666Y-10722523D01*
X32272333Y-10817761D02*
X32139000Y-10722523D01*
X32072333Y-10627285D01*
X32005666Y-10436809D01*
X32005666Y-9865380D01*
X32072333Y-9674904D01*
X32139000Y-9579666D01*
X32272333Y-9484428D01*
X32472333Y-9484428D01*
X32605666Y-9579666D01*
X32672333Y-9674904D01*
X32739000Y-9865380D01*
X32739000Y-10436809D01*
X32672333Y-10627285D01*
X32605666Y-10722523D01*
X32472333Y-10817761D01*
X32272333Y-10817761D01*
X33939000Y-10817761D02*
X33939000Y-9770142D01*
X33872333Y-9579666D01*
X33739000Y-9484428D01*
X33472333Y-9484428D01*
X33339000Y-9579666D01*
X33939000Y-10722523D02*
X33805666Y-10817761D01*
X33472333Y-10817761D01*
X33339000Y-10722523D01*
X33272333Y-10532047D01*
X33272333Y-10341571D01*
X33339000Y-10151095D01*
X33472333Y-10055857D01*
X33805666Y-10055857D01*
X33939000Y-9960619D01*
X34605666Y-10817761D02*
X34605666Y-9484428D01*
X34605666Y-9865380D02*
X34672333Y-9674904D01*
X34739000Y-9579666D01*
X34872333Y-9484428D01*
X35005666Y-9484428D01*
X36072333Y-10817761D02*
X36072333Y-8817761D01*
X36072333Y-10722523D02*
X35939000Y-10817761D01*
X35672333Y-10817761D01*
X35539000Y-10722523D01*
X35472333Y-10627285D01*
X35405666Y-10436809D01*
X35405666Y-9865380D01*
X35472333Y-9674904D01*
X35539000Y-9579666D01*
X35672333Y-9484428D01*
X35939000Y-9484428D01*
X36072333Y-9579666D01*
D10*
X-8206000Y-13454380D02*
X-8777429Y-13454380D01*
X-8491715Y-13454380D02*
X-8491715Y-12454380D01*
X-8586953Y-12597238D01*
X-8682191Y-12692476D01*
X-8777429Y-12740095D01*
X-7825048Y-12549619D02*
X-7777429Y-12502000D01*
X-7682191Y-12454380D01*
X-7444096Y-12454380D01*
X-7348858Y-12502000D01*
X-7301239Y-12549619D01*
X-7253620Y-12644857D01*
X-7253620Y-12740095D01*
X-7301239Y-12882952D01*
X-7872667Y-13454380D01*
X-7253620Y-13454380D01*
X-6206000Y-12454380D02*
X-5872667Y-13454380D01*
X-5539334Y-12454380D01*
X37371047Y-19677428D02*
X38132952Y-19677428D01*
X37752000Y-20058380D02*
X37752000Y-19296476D01*
X-3689620Y1666524D02*
X-3689620Y1190334D01*
X-3213429Y1142715D01*
X-3261048Y1190334D01*
X-3308667Y1285572D01*
X-3308667Y1523667D01*
X-3261048Y1618905D01*
X-3213429Y1666524D01*
X-3118191Y1714143D01*
X-2880096Y1714143D01*
X-2784858Y1666524D01*
X-2737239Y1618905D01*
X-2689620Y1523667D01*
X-2689620Y1285572D01*
X-2737239Y1190334D01*
X-2784858Y1142715D01*
X-3689620Y1999858D02*
X-2689620Y2333191D01*
X-3689620Y2666524D01*
X6439000Y-2865761D02*
X6581857Y-2913380D01*
X6819952Y-2913380D01*
X6915190Y-2865761D01*
X6962809Y-2818142D01*
X7010428Y-2722904D01*
X7010428Y-2627666D01*
X6962809Y-2532428D01*
X6915190Y-2484809D01*
X6819952Y-2437190D01*
X6629476Y-2389571D01*
X6534238Y-2341952D01*
X6486619Y-2294333D01*
X6439000Y-2199095D01*
X6439000Y-2103857D01*
X6486619Y-2008619D01*
X6534238Y-1961000D01*
X6629476Y-1913380D01*
X6867571Y-1913380D01*
X7010428Y-1961000D01*
X7296142Y-2246714D02*
X7677095Y-2246714D01*
X7439000Y-1913380D02*
X7439000Y-2770523D01*
X7486619Y-2865761D01*
X7581857Y-2913380D01*
X7677095Y-2913380D01*
X8391380Y-2865761D02*
X8296142Y-2913380D01*
X8105666Y-2913380D01*
X8010428Y-2865761D01*
X7962809Y-2770523D01*
X7962809Y-2389571D01*
X8010428Y-2294333D01*
X8105666Y-2246714D01*
X8296142Y-2246714D01*
X8391380Y-2294333D01*
X8439000Y-2389571D01*
X8439000Y-2484809D01*
X7962809Y-2580047D01*
X8867571Y-2246714D02*
X8867571Y-3246714D01*
X8867571Y-2294333D02*
X8962809Y-2246714D01*
X9153285Y-2246714D01*
X9248523Y-2294333D01*
X9296142Y-2341952D01*
X9343761Y-2437190D01*
X9343761Y-2722904D01*
X9296142Y-2818142D01*
X9248523Y-2865761D01*
X9153285Y-2913380D01*
X8962809Y-2913380D01*
X8867571Y-2865761D01*
X9772333Y-2246714D02*
X9772333Y-3246714D01*
X9772333Y-2294333D02*
X9867571Y-2246714D01*
X10058047Y-2246714D01*
X10153285Y-2294333D01*
X10200904Y-2341952D01*
X10248523Y-2437190D01*
X10248523Y-2722904D01*
X10200904Y-2818142D01*
X10153285Y-2865761D01*
X10058047Y-2913380D01*
X9867571Y-2913380D01*
X9772333Y-2865761D01*
X11058047Y-2865761D02*
X10962809Y-2913380D01*
X10772333Y-2913380D01*
X10677095Y-2865761D01*
X10629476Y-2770523D01*
X10629476Y-2389571D01*
X10677095Y-2294333D01*
X10772333Y-2246714D01*
X10962809Y-2246714D01*
X11058047Y-2294333D01*
X11105666Y-2389571D01*
X11105666Y-2484809D01*
X10629476Y-2580047D01*
X11534238Y-2913380D02*
X11534238Y-2246714D01*
X11534238Y-2437190D02*
X11581857Y-2341952D01*
X11629476Y-2294333D01*
X11724714Y-2246714D01*
X11819952Y-2246714D01*
X13105666Y-1913380D02*
X13200904Y-1913380D01*
X13296142Y-1961000D01*
X13343761Y-2008619D01*
X13391380Y-2103857D01*
X13439000Y-2294333D01*
X13439000Y-2532428D01*
X13391380Y-2722904D01*
X13343761Y-2818142D01*
X13296142Y-2865761D01*
X13200904Y-2913380D01*
X13105666Y-2913380D01*
X13010428Y-2865761D01*
X12962809Y-2818142D01*
X12915190Y-2722904D01*
X12867571Y-2532428D01*
X12867571Y-2294333D01*
X12915190Y-2103857D01*
X12962809Y-2008619D01*
X13010428Y-1961000D01*
X13105666Y-1913380D01*
X-8674429Y-27265523D02*
X-8674429Y-27598857D01*
X-8150620Y-27598857D02*
X-9150620Y-27598857D01*
X-9150620Y-27122666D01*
X-8150620Y-26313142D02*
X-8674429Y-26313142D01*
X-8769667Y-26360761D01*
X-8817286Y-26456000D01*
X-8817286Y-26646476D01*
X-8769667Y-26741714D01*
X-8198239Y-26313142D02*
X-8150620Y-26408380D01*
X-8150620Y-26646476D01*
X-8198239Y-26741714D01*
X-8293477Y-26789333D01*
X-8388715Y-26789333D01*
X-8483953Y-26741714D01*
X-8531572Y-26646476D01*
X-8531572Y-26408380D01*
X-8579191Y-26313142D01*
X-8817286Y-25408380D02*
X-8150620Y-25408380D01*
X-8817286Y-25836952D02*
X-8293477Y-25836952D01*
X-8198239Y-25789333D01*
X-8150620Y-25694095D01*
X-8150620Y-25551238D01*
X-8198239Y-25456000D01*
X-8245858Y-25408380D01*
X-8150620Y-24789333D02*
X-8198239Y-24884571D01*
X-8293477Y-24932190D01*
X-9150620Y-24932190D01*
X-8817286Y-24551238D02*
X-8817286Y-24170285D01*
X-9150620Y-24408380D02*
X-8293477Y-24408380D01*
X-8198239Y-24360761D01*
X-8150620Y-24265523D01*
X-8150620Y-24170285D01*
X16392428Y-17634142D02*
X16344809Y-17681761D01*
X16201952Y-17729380D01*
X16106714Y-17729380D01*
X15963857Y-17681761D01*
X15868619Y-17586523D01*
X15821000Y-17491285D01*
X15773380Y-17300809D01*
X15773380Y-17157952D01*
X15821000Y-16967476D01*
X15868619Y-16872238D01*
X15963857Y-16777000D01*
X16106714Y-16729380D01*
X16201952Y-16729380D01*
X16344809Y-16777000D01*
X16392428Y-16824619D01*
X17249571Y-17062714D02*
X17249571Y-17729380D01*
X16821000Y-17062714D02*
X16821000Y-17586523D01*
X16868619Y-17681761D01*
X16963857Y-17729380D01*
X17106714Y-17729380D01*
X17201952Y-17681761D01*
X17249571Y-17634142D01*
X17725761Y-17729380D02*
X17725761Y-17062714D01*
X17725761Y-17253190D02*
X17773380Y-17157952D01*
X17821000Y-17110333D01*
X17916238Y-17062714D01*
X18011476Y-17062714D01*
X18344809Y-17729380D02*
X18344809Y-17062714D01*
X18344809Y-17253190D02*
X18392428Y-17157952D01*
X18440047Y-17110333D01*
X18535285Y-17062714D01*
X18630523Y-17062714D01*
X19344809Y-17681761D02*
X19249571Y-17729380D01*
X19059095Y-17729380D01*
X18963857Y-17681761D01*
X18916238Y-17586523D01*
X18916238Y-17205571D01*
X18963857Y-17110333D01*
X19059095Y-17062714D01*
X19249571Y-17062714D01*
X19344809Y-17110333D01*
X19392428Y-17205571D01*
X19392428Y-17300809D01*
X18916238Y-17396047D01*
X19821000Y-17062714D02*
X19821000Y-17729380D01*
X19821000Y-17157952D02*
X19868619Y-17110333D01*
X19963857Y-17062714D01*
X20106714Y-17062714D01*
X20201952Y-17110333D01*
X20249571Y-17205571D01*
X20249571Y-17729380D01*
X20582904Y-17062714D02*
X20963857Y-17062714D01*
X20725761Y-16729380D02*
X20725761Y-17586523D01*
X20773380Y-17681761D01*
X20868619Y-17729380D01*
X20963857Y-17729380D01*
X16082904Y-18672714D02*
X16463857Y-18672714D01*
X16225761Y-18339380D02*
X16225761Y-19196523D01*
X16273380Y-19291761D01*
X16368619Y-19339380D01*
X16463857Y-19339380D01*
X17225761Y-18672714D02*
X17225761Y-19339380D01*
X16797190Y-18672714D02*
X16797190Y-19196523D01*
X16844809Y-19291761D01*
X16940047Y-19339380D01*
X17082904Y-19339380D01*
X17178142Y-19291761D01*
X17225761Y-19244142D01*
X17701952Y-18672714D02*
X17701952Y-19339380D01*
X17701952Y-18767952D02*
X17749571Y-18720333D01*
X17844809Y-18672714D01*
X17987666Y-18672714D01*
X18082904Y-18720333D01*
X18130523Y-18815571D01*
X18130523Y-19339380D01*
X18606714Y-19339380D02*
X18606714Y-18672714D01*
X18606714Y-18339380D02*
X18559095Y-18387000D01*
X18606714Y-18434619D01*
X18654333Y-18387000D01*
X18606714Y-18339380D01*
X18606714Y-18434619D01*
X19082904Y-18672714D02*
X19082904Y-19339380D01*
X19082904Y-18767952D02*
X19130523Y-18720333D01*
X19225761Y-18672714D01*
X19368619Y-18672714D01*
X19463857Y-18720333D01*
X19511476Y-18815571D01*
X19511476Y-19339380D01*
X20416238Y-18672714D02*
X20416238Y-19482238D01*
X20368619Y-19577476D01*
X20321000Y-19625095D01*
X20225761Y-19672714D01*
X20082904Y-19672714D01*
X19987666Y-19625095D01*
X20416238Y-19291761D02*
X20321000Y-19339380D01*
X20130523Y-19339380D01*
X20035285Y-19291761D01*
X19987666Y-19244142D01*
X19940047Y-19148904D01*
X19940047Y-18863190D01*
X19987666Y-18767952D01*
X20035285Y-18720333D01*
X20130523Y-18672714D01*
X20321000Y-18672714D01*
X20416238Y-18720333D01*
X37244047Y-24884428D02*
X38005952Y-24884428D01*
X45062380Y-19423238D02*
X44586190Y-19756571D01*
X45062380Y-19994666D02*
X44062380Y-19994666D01*
X44062380Y-19613714D01*
X44110000Y-19518476D01*
X44157619Y-19470857D01*
X44252857Y-19423238D01*
X44395714Y-19423238D01*
X44490952Y-19470857D01*
X44538571Y-19518476D01*
X44586190Y-19613714D01*
X44586190Y-19994666D01*
X45014761Y-19042285D02*
X45062380Y-18899428D01*
X45062380Y-18661333D01*
X45014761Y-18566095D01*
X44967142Y-18518476D01*
X44871904Y-18470857D01*
X44776666Y-18470857D01*
X44681428Y-18518476D01*
X44633809Y-18566095D01*
X44586190Y-18661333D01*
X44538571Y-18851809D01*
X44490952Y-18947047D01*
X44443333Y-18994666D01*
X44348095Y-19042285D01*
X44252857Y-19042285D01*
X44157619Y-18994666D01*
X44110000Y-18947047D01*
X44062380Y-18851809D01*
X44062380Y-18613714D01*
X44110000Y-18470857D01*
X44395714Y-17613714D02*
X45062380Y-17613714D01*
X44014761Y-17851809D02*
X44729047Y-18089904D01*
X44729047Y-17470857D01*
X44490952Y-16947047D02*
X44443333Y-17042285D01*
X44395714Y-17089904D01*
X44300476Y-17137523D01*
X44252857Y-17137523D01*
X44157619Y-17089904D01*
X44110000Y-17042285D01*
X44062380Y-16947047D01*
X44062380Y-16756571D01*
X44110000Y-16661333D01*
X44157619Y-16613714D01*
X44252857Y-16566095D01*
X44300476Y-16566095D01*
X44395714Y-16613714D01*
X44443333Y-16661333D01*
X44490952Y-16756571D01*
X44490952Y-16947047D01*
X44538571Y-17042285D01*
X44586190Y-17089904D01*
X44681428Y-17137523D01*
X44871904Y-17137523D01*
X44967142Y-17089904D01*
X45014761Y-17042285D01*
X45062380Y-16947047D01*
X45062380Y-16756571D01*
X45014761Y-16661333D01*
X44967142Y-16613714D01*
X44871904Y-16566095D01*
X44681428Y-16566095D01*
X44586190Y-16613714D01*
X44538571Y-16661333D01*
X44490952Y-16756571D01*
X44062380Y-15661333D02*
X44062380Y-16137523D01*
X44538571Y-16185142D01*
X44490952Y-16137523D01*
X44443333Y-16042285D01*
X44443333Y-15804190D01*
X44490952Y-15708952D01*
X44538571Y-15661333D01*
X44633809Y-15613714D01*
X44871904Y-15613714D01*
X44967142Y-15661333D01*
X45014761Y-15708952D01*
X45062380Y-15804190D01*
X45062380Y-16042285D01*
X45014761Y-16137523D01*
X44967142Y-16185142D01*
X28791000Y-2865761D02*
X28933857Y-2913380D01*
X29171952Y-2913380D01*
X29267190Y-2865761D01*
X29314809Y-2818142D01*
X29362428Y-2722904D01*
X29362428Y-2627666D01*
X29314809Y-2532428D01*
X29267190Y-2484809D01*
X29171952Y-2437190D01*
X28981476Y-2389571D01*
X28886238Y-2341952D01*
X28838619Y-2294333D01*
X28791000Y-2199095D01*
X28791000Y-2103857D01*
X28838619Y-2008619D01*
X28886238Y-1961000D01*
X28981476Y-1913380D01*
X29219571Y-1913380D01*
X29362428Y-1961000D01*
X29648142Y-2246714D02*
X30029095Y-2246714D01*
X29791000Y-1913380D02*
X29791000Y-2770523D01*
X29838619Y-2865761D01*
X29933857Y-2913380D01*
X30029095Y-2913380D01*
X30743380Y-2865761D02*
X30648142Y-2913380D01*
X30457666Y-2913380D01*
X30362428Y-2865761D01*
X30314809Y-2770523D01*
X30314809Y-2389571D01*
X30362428Y-2294333D01*
X30457666Y-2246714D01*
X30648142Y-2246714D01*
X30743380Y-2294333D01*
X30791000Y-2389571D01*
X30791000Y-2484809D01*
X30314809Y-2580047D01*
X31219571Y-2246714D02*
X31219571Y-3246714D01*
X31219571Y-2294333D02*
X31314809Y-2246714D01*
X31505285Y-2246714D01*
X31600523Y-2294333D01*
X31648142Y-2341952D01*
X31695761Y-2437190D01*
X31695761Y-2722904D01*
X31648142Y-2818142D01*
X31600523Y-2865761D01*
X31505285Y-2913380D01*
X31314809Y-2913380D01*
X31219571Y-2865761D01*
X32124333Y-2246714D02*
X32124333Y-3246714D01*
X32124333Y-2294333D02*
X32219571Y-2246714D01*
X32410047Y-2246714D01*
X32505285Y-2294333D01*
X32552904Y-2341952D01*
X32600523Y-2437190D01*
X32600523Y-2722904D01*
X32552904Y-2818142D01*
X32505285Y-2865761D01*
X32410047Y-2913380D01*
X32219571Y-2913380D01*
X32124333Y-2865761D01*
X33410047Y-2865761D02*
X33314809Y-2913380D01*
X33124333Y-2913380D01*
X33029095Y-2865761D01*
X32981476Y-2770523D01*
X32981476Y-2389571D01*
X33029095Y-2294333D01*
X33124333Y-2246714D01*
X33314809Y-2246714D01*
X33410047Y-2294333D01*
X33457666Y-2389571D01*
X33457666Y-2484809D01*
X32981476Y-2580047D01*
X33886238Y-2913380D02*
X33886238Y-2246714D01*
X33886238Y-2437190D02*
X33933857Y-2341952D01*
X33981476Y-2294333D01*
X34076714Y-2246714D01*
X34171952Y-2246714D01*
X35219571Y-2008619D02*
X35267190Y-1961000D01*
X35362428Y-1913380D01*
X35600523Y-1913380D01*
X35695761Y-1961000D01*
X35743380Y-2008619D01*
X35791000Y-2103857D01*
X35791000Y-2199095D01*
X35743380Y-2341952D01*
X35171952Y-2913380D01*
X35791000Y-2913380D01*
X30926095Y-17359666D02*
X31402285Y-17359666D01*
X30830857Y-17645380D02*
X31164190Y-16645380D01*
X31497523Y-17645380D01*
X31688000Y-16645380D02*
X32021333Y-17645380D01*
X32354666Y-16645380D01*
X33259428Y-17645380D02*
X32926095Y-17169190D01*
X32688000Y-17645380D02*
X32688000Y-16645380D01*
X33068952Y-16645380D01*
X33164190Y-16693000D01*
X33211809Y-16740619D01*
X33259428Y-16835857D01*
X33259428Y-16978714D01*
X33211809Y-17073952D01*
X33164190Y-17121571D01*
X33068952Y-17169190D01*
X32688000Y-17169190D01*
X34449904Y-17645380D02*
X34449904Y-16645380D01*
X34878476Y-17597761D02*
X35021333Y-17645380D01*
X35259428Y-17645380D01*
X35354666Y-17597761D01*
X35402285Y-17550142D01*
X35449904Y-17454904D01*
X35449904Y-17359666D01*
X35402285Y-17264428D01*
X35354666Y-17216809D01*
X35259428Y-17169190D01*
X35068952Y-17121571D01*
X34973714Y-17073952D01*
X34926095Y-17026333D01*
X34878476Y-16931095D01*
X34878476Y-16835857D01*
X34926095Y-16740619D01*
X34973714Y-16693000D01*
X35068952Y-16645380D01*
X35307047Y-16645380D01*
X35449904Y-16693000D01*
X35878476Y-17645380D02*
X35878476Y-16645380D01*
X36259428Y-16645380D01*
X36354666Y-16693000D01*
X36402285Y-16740619D01*
X36449904Y-16835857D01*
X36449904Y-16978714D01*
X36402285Y-17073952D01*
X36354666Y-17121571D01*
X36259428Y-17169190D01*
X35878476Y-17169190D01*
X45062380Y-7501190D02*
X44062380Y-7501190D01*
X44157619Y-7072619D02*
X44110000Y-7025000D01*
X44062380Y-6929761D01*
X44062380Y-6691666D01*
X44110000Y-6596428D01*
X44157619Y-6548809D01*
X44252857Y-6501190D01*
X44348095Y-6501190D01*
X44490952Y-6548809D01*
X45062380Y-7120238D01*
X45062380Y-6501190D01*
X44967142Y-5501190D02*
X45014761Y-5548809D01*
X45062380Y-5691666D01*
X45062380Y-5786904D01*
X45014761Y-5929761D01*
X44919523Y-6025000D01*
X44824285Y-6072619D01*
X44633809Y-6120238D01*
X44490952Y-6120238D01*
X44300476Y-6072619D01*
X44205238Y-6025000D01*
X44110000Y-5929761D01*
X44062380Y-5786904D01*
X44062380Y-5691666D01*
X44110000Y-5548809D01*
X44157619Y-5501190D01*
X-8277620Y1110953D02*
X-8277620Y539524D01*
X-8277620Y825239D02*
X-9277620Y825239D01*
X-9134762Y730000D01*
X-9039524Y634762D01*
X-8991905Y539524D01*
X-9182381Y1491905D02*
X-9230000Y1539524D01*
X-9277620Y1634762D01*
X-9277620Y1872858D01*
X-9230000Y1968096D01*
X-9182381Y2015715D01*
X-9087143Y2063334D01*
X-8991905Y2063334D01*
X-8849048Y2015715D01*
X-8277620Y1444286D01*
X-8277620Y2063334D01*
X-9277620Y2349048D02*
X-8277620Y2682381D01*
X-9277620Y3015715D01*
D12*
%TO.C,D2*%
X-5274000Y-25029000D02*
X-5274000Y-27314000D01*
X-5274000Y-27314000D02*
X-3804000Y-27314000D01*
X-3804000Y-27314000D02*
X-3804000Y-25029000D01*
%TO.C,J1*%
X33688000Y-21003000D02*
X33688000Y-18403000D01*
X33688000Y-18403000D02*
X36288000Y-18403000D01*
X31088000Y-26143000D02*
X36288000Y-26143000D01*
X31088000Y-18403000D02*
X32418000Y-18403000D01*
X36288000Y-18403000D02*
X36288000Y-26143000D01*
X31088000Y-19733000D02*
X31088000Y-18403000D01*
X31088000Y-21003000D02*
X33688000Y-21003000D01*
X31088000Y-21003000D02*
X31088000Y-26143000D01*
%TO.C,J6*%
X25725000Y-1534000D02*
X25725000Y-934000D01*
X24675000Y4486000D02*
X24675000Y3486000D01*
X24675000Y2956000D02*
X17555000Y2956000D01*
X26305000Y4486000D02*
X15925000Y4486000D01*
X19045000Y-934000D02*
X19045000Y-1534000D01*
X26305000Y-1534000D02*
X26305000Y4486000D01*
X17555000Y2956000D02*
X17305000Y3486000D01*
X15925000Y-1534000D02*
X26305000Y-1534000D01*
X24125000Y-934000D02*
X24125000Y-1534000D01*
X16505000Y-934000D02*
X16505000Y-1534000D01*
X20645000Y-934000D02*
X19045000Y-934000D01*
X24925000Y3486000D02*
X17305000Y3486000D01*
X24925000Y3486000D02*
X24675000Y2956000D01*
X21585000Y-934000D02*
X21585000Y-1534000D01*
X18105000Y-934000D02*
X16505000Y-934000D01*
X15925000Y4486000D02*
X15925000Y-1534000D01*
X20645000Y-1534000D02*
X20645000Y-934000D01*
X26595000Y-504000D02*
X26595000Y3496000D01*
X23185000Y-1534000D02*
X23185000Y-934000D01*
X17555000Y4486000D02*
X17555000Y3486000D01*
X23185000Y-934000D02*
X21585000Y-934000D01*
X17305000Y3486000D02*
X17305000Y4486000D01*
X18105000Y-1534000D02*
X18105000Y-934000D01*
X25725000Y-934000D02*
X24125000Y-934000D01*
X24925000Y4486000D02*
X24925000Y3486000D01*
%TO.C,J4*%
X46117000Y-19898000D02*
X46117000Y-18298000D01*
X50537000Y-21638000D02*
X50007000Y-21388000D01*
X46117000Y-17358000D02*
X46117000Y-15758000D01*
X46117000Y-13218000D02*
X45517000Y-13218000D01*
X45517000Y-19898000D02*
X46117000Y-19898000D01*
X51537000Y-14268000D02*
X50537000Y-14268000D01*
X45517000Y-14818000D02*
X46117000Y-14818000D01*
X45517000Y-17358000D02*
X46117000Y-17358000D01*
X46117000Y-22438000D02*
X46117000Y-20838000D01*
X50537000Y-21638000D02*
X50537000Y-14018000D01*
X46117000Y-15758000D02*
X45517000Y-15758000D01*
X46117000Y-18298000D02*
X45517000Y-18298000D01*
X46547000Y-23308000D02*
X50547000Y-23308000D01*
X51537000Y-21388000D02*
X50537000Y-21388000D01*
X46117000Y-20838000D02*
X45517000Y-20838000D01*
X50007000Y-14268000D02*
X50537000Y-14018000D01*
X51537000Y-12638000D02*
X45517000Y-12638000D01*
X45517000Y-22438000D02*
X46117000Y-22438000D01*
X51537000Y-21638000D02*
X50537000Y-21638000D01*
X45517000Y-23018000D02*
X51537000Y-23018000D01*
X50007000Y-21388000D02*
X50007000Y-14268000D01*
X51537000Y-23018000D02*
X51537000Y-12638000D01*
X50537000Y-14018000D02*
X51537000Y-14018000D01*
X46117000Y-14818000D02*
X46117000Y-13218000D01*
X45517000Y-12638000D02*
X45517000Y-23018000D01*
%TO.C,D3*%
X-3931000Y930000D02*
X-3931000Y3215000D01*
X-3931000Y3215000D02*
X-5401000Y3215000D01*
X-5401000Y3215000D02*
X-5401000Y930000D01*
%TO.C,C3*%
X23181000Y-16719000D02*
X23181000Y-18419000D01*
X27636563Y-22239000D02*
X23181000Y-22239000D01*
X29253500Y-21476500D02*
X29253500Y-20851500D01*
X28701000Y-21174563D02*
X27636563Y-22239000D01*
X28701000Y-17783437D02*
X28701000Y-18419000D01*
X27636563Y-16719000D02*
X23181000Y-16719000D01*
X28701000Y-17783437D02*
X27636563Y-16719000D01*
X28701000Y-21174563D02*
X28701000Y-20539000D01*
X29566000Y-21164000D02*
X28941000Y-21164000D01*
X23181000Y-22239000D02*
X23181000Y-20539000D01*
%TO.C,D8*%
X-8068000Y3215000D02*
X-8068000Y930000D01*
X-6598000Y930000D02*
X-6598000Y3215000D01*
X-6598000Y3215000D02*
X-8068000Y3215000D01*
%TO.C,C5*%
X-3049000Y-23001000D02*
X-3049000Y-21301000D01*
X-8569000Y-18545437D02*
X-8569000Y-19181000D01*
X-8569000Y-21936563D02*
X-7504563Y-23001000D01*
X-7504563Y-23001000D02*
X-3049000Y-23001000D01*
X-9121500Y-18243500D02*
X-9121500Y-18868500D01*
X-3049000Y-17481000D02*
X-3049000Y-19181000D01*
X-8569000Y-21936563D02*
X-8569000Y-21301000D01*
X-8569000Y-18545437D02*
X-7504563Y-17481000D01*
X-9434000Y-18556000D02*
X-8809000Y-18556000D01*
X-7504563Y-17481000D02*
X-3049000Y-17481000D01*
%TO.C,RV1*%
X15951000Y-23640000D02*
X15951000Y-24770000D01*
X15951000Y-20030000D02*
X15951000Y-21160000D01*
X20691000Y-20030000D02*
X15951000Y-20030000D01*
X20691000Y-24770000D02*
X15951000Y-24770000D01*
X20691000Y-20030000D02*
X20691000Y-20361000D01*
X20691000Y-22141000D02*
X20691000Y-22660000D01*
X20691000Y-24440000D02*
X20691000Y-24770000D01*
%TO.C,J3*%
X45537000Y-11135000D02*
X46137000Y-11135000D01*
X51557000Y-2965000D02*
X50557000Y-2965000D01*
X50027000Y-10085000D02*
X50027000Y-2965000D01*
X50557000Y-10335000D02*
X50027000Y-10085000D01*
X46137000Y-11135000D02*
X46137000Y-9535000D01*
X45537000Y-11715000D02*
X51557000Y-11715000D01*
X45537000Y-8595000D02*
X46137000Y-8595000D01*
X50557000Y-10335000D02*
X50557000Y-2715000D01*
X45537000Y-6055000D02*
X46137000Y-6055000D01*
X50557000Y-2715000D02*
X51557000Y-2715000D01*
X46137000Y-8595000D02*
X46137000Y-6995000D01*
X46137000Y-6995000D02*
X45537000Y-6995000D01*
X51557000Y-10335000D02*
X50557000Y-10335000D01*
X51557000Y-1335000D02*
X45537000Y-1335000D01*
X46567000Y-12005000D02*
X50567000Y-12005000D01*
X45537000Y-1335000D02*
X45537000Y-11715000D01*
X46137000Y-4455000D02*
X45537000Y-4455000D01*
X46137000Y-1915000D02*
X45537000Y-1915000D01*
X50027000Y-2965000D02*
X50557000Y-2715000D01*
X45537000Y-3515000D02*
X46137000Y-3515000D01*
X46137000Y-3515000D02*
X46137000Y-1915000D01*
X51557000Y-10085000D02*
X50557000Y-10085000D01*
X46137000Y-6055000D02*
X46137000Y-4455000D01*
X51557000Y-11715000D02*
X51557000Y-1335000D01*
X46137000Y-9535000D02*
X45537000Y-9535000D01*
%TO.C,J7*%
X37481000Y-1534000D02*
X37481000Y4486000D01*
X30221000Y-934000D02*
X30221000Y-1534000D01*
X27101000Y4486000D02*
X27101000Y-1534000D01*
X37771000Y-504000D02*
X37771000Y3496000D01*
X29281000Y-1534000D02*
X29281000Y-934000D01*
X27681000Y-934000D02*
X27681000Y-1534000D01*
X28731000Y2956000D02*
X28481000Y3486000D01*
X34361000Y-1534000D02*
X34361000Y-934000D01*
X36901000Y-934000D02*
X35301000Y-934000D01*
X34361000Y-934000D02*
X32761000Y-934000D01*
X27101000Y-1534000D02*
X37481000Y-1534000D01*
X29281000Y-934000D02*
X27681000Y-934000D01*
X32761000Y-934000D02*
X32761000Y-1534000D01*
X36101000Y4486000D02*
X36101000Y3486000D01*
X36901000Y-1534000D02*
X36901000Y-934000D01*
X36101000Y3486000D02*
X35851000Y2956000D01*
X35301000Y-934000D02*
X35301000Y-1534000D01*
X31821000Y-934000D02*
X30221000Y-934000D01*
X28481000Y3486000D02*
X28481000Y4486000D01*
X31821000Y-1534000D02*
X31821000Y-934000D01*
X35851000Y4486000D02*
X35851000Y3486000D01*
X37481000Y4486000D02*
X27101000Y4486000D01*
X36101000Y3486000D02*
X28481000Y3486000D01*
X28731000Y4486000D02*
X28731000Y3486000D01*
X35851000Y2956000D02*
X28731000Y2956000D01*
%TO.C,J5*%
X9469000Y-1534000D02*
X9469000Y-934000D01*
X15419000Y-504000D02*
X15419000Y3496000D01*
X10409000Y-934000D02*
X10409000Y-1534000D01*
X13499000Y2956000D02*
X6379000Y2956000D01*
X12009000Y-934000D02*
X10409000Y-934000D01*
X9469000Y-934000D02*
X7869000Y-934000D01*
X5329000Y-934000D02*
X5329000Y-1534000D01*
X13749000Y3486000D02*
X13499000Y2956000D01*
X4749000Y4486000D02*
X4749000Y-1534000D01*
X6929000Y-934000D02*
X5329000Y-934000D01*
X4749000Y-1534000D02*
X15129000Y-1534000D01*
X13499000Y4486000D02*
X13499000Y3486000D01*
X6379000Y2956000D02*
X6129000Y3486000D01*
X14549000Y-1534000D02*
X14549000Y-934000D01*
X12949000Y-934000D02*
X12949000Y-1534000D01*
X12009000Y-1534000D02*
X12009000Y-934000D01*
X6129000Y3486000D02*
X6129000Y4486000D01*
X15129000Y4486000D02*
X4749000Y4486000D01*
X6379000Y4486000D02*
X6379000Y3486000D01*
X13749000Y4486000D02*
X13749000Y3486000D01*
X15129000Y-1534000D02*
X15129000Y4486000D01*
X7869000Y-934000D02*
X7869000Y-1534000D01*
X6929000Y-1534000D02*
X6929000Y-934000D01*
X13749000Y3486000D02*
X6129000Y3486000D01*
X14549000Y-934000D02*
X12949000Y-934000D01*
%TO.C,D1*%
X-7941000Y-25029000D02*
X-7941000Y-27314000D01*
X-6471000Y-27314000D02*
X-6471000Y-25029000D01*
X-7941000Y-27314000D02*
X-6471000Y-27314000D01*
%TO.C,J2*%
X-13482000Y-2618500D02*
X1218000Y-2618500D01*
X1418000Y-3468500D02*
X1418000Y-2418500D01*
X1218000Y-9118500D02*
X1218000Y-11818500D01*
X-13482000Y-11818500D02*
X-13482000Y-2618500D01*
X-4682000Y-11818500D02*
X-13482000Y-11818500D01*
X1218000Y-2618500D02*
X1218000Y-5218500D01*
X368000Y-2418500D02*
X1418000Y-2418500D01*
X1218000Y-11818500D02*
X-682000Y-11818500D01*
%TO.C,C30*%
X-440000Y-15878155D02*
X9650000Y-15878155D01*
X1351000Y-12557155D02*
X7859000Y-12557155D01*
X80000Y-14157155D02*
X3364000Y-14157155D01*
X165000Y-13997155D02*
X3364000Y-13997155D01*
X680000Y-13237155D02*
X3364000Y-13237155D01*
X-333000Y-15277155D02*
X9543000Y-15277155D01*
X-419000Y-15717155D02*
X9629000Y-15717155D01*
X-369000Y-15437155D02*
X9579000Y-15437155D01*
X-425000Y-15757155D02*
X9635000Y-15757155D01*
X21000Y-14277155D02*
X3364000Y-14277155D01*
X5846000Y-14917155D02*
X9442000Y-14917155D01*
X-163000Y-14717155D02*
X3364000Y-14717155D01*
X2316000Y-11917155D02*
X6894000Y-11917155D01*
X2480000Y-11837155D02*
X6730000Y-11837155D01*
X-413000Y-15677155D02*
X9623000Y-15677155D01*
X-399000Y-15597155D02*
X9609000Y-15597155D01*
X5846000Y-14797155D02*
X9402000Y-14797155D01*
X616000Y-13317155D02*
X3364000Y-13317155D01*
X-475000Y-16398155D02*
X9685000Y-16398155D01*
X-435000Y-15838155D02*
X9645000Y-15838155D01*
X2095000Y-12037155D02*
X7115000Y-12037155D01*
X5846000Y-14117155D02*
X9109000Y-14117155D01*
X5846000Y-13397155D02*
X8655000Y-13397155D01*
X747000Y-13157155D02*
X3364000Y-13157155D01*
X1835000Y-12197155D02*
X7375000Y-12197155D01*
X5846000Y-12957155D02*
X8284000Y-12957155D01*
X1127000Y-12757155D02*
X3364000Y-12757155D01*
X358000Y-13677155D02*
X3364000Y-13677155D01*
X-34000Y-14397155D02*
X3364000Y-14397155D01*
X5846000Y-14037155D02*
X9067000Y-14037155D01*
X1775000Y-12237155D02*
X7435000Y-12237155D01*
X5846000Y-14757155D02*
X9388000Y-14757155D01*
X3743000Y-11437155D02*
X5467000Y-11437155D01*
X5846000Y-14157155D02*
X9130000Y-14157155D01*
X-392000Y-15557155D02*
X9602000Y-15557155D01*
X5846000Y-14197155D02*
X9150000Y-14197155D01*
X-449000Y-15958155D02*
X9659000Y-15958155D01*
X5846000Y-13517155D02*
X8743000Y-13517155D01*
X5846000Y-14237155D02*
X9169000Y-14237155D01*
X258000Y-13837155D02*
X3364000Y-13837155D01*
X5846000Y-14877155D02*
X9429000Y-14877155D01*
X5846000Y-13197155D02*
X8497000Y-13197155D01*
X-313000Y-15197155D02*
X3364000Y-15197155D01*
X5846000Y-12837155D02*
X8166000Y-12837155D01*
X-445000Y-15918155D02*
X9655000Y-15918155D01*
X5846000Y-13237155D02*
X8530000Y-13237155D01*
X5846000Y-14477155D02*
X9279000Y-14477155D01*
X1605000Y-12357155D02*
X7605000Y-12357155D01*
X5846000Y-13037155D02*
X8358000Y-13037155D01*
X-302000Y-15157155D02*
X3364000Y-15157155D01*
X5846000Y-15197155D02*
X9523000Y-15197155D01*
X5846000Y-13277155D02*
X8562000Y-13277155D01*
X3095000Y-11597155D02*
X6115000Y-11597155D01*
X-463000Y-16118155D02*
X9673000Y-16118155D01*
X5846000Y-12757155D02*
X8083000Y-12757155D01*
X5846000Y-13957155D02*
X9022000Y-13957155D01*
X5846000Y-14997155D02*
X9467000Y-14997155D01*
X-52000Y-14437155D02*
X3364000Y-14437155D01*
X5846000Y-14677155D02*
X9359000Y-14677155D01*
X-475000Y-16478155D02*
X9685000Y-16478155D01*
X41000Y-14237155D02*
X3364000Y-14237155D01*
X1730000Y-21957801D02*
X1730000Y-20957801D01*
X-85000Y-14517155D02*
X3364000Y-14517155D01*
X-430000Y-15798155D02*
X9640000Y-15798155D01*
X1449000Y-12477155D02*
X7761000Y-12477155D01*
X3375000Y-11517155D02*
X5835000Y-11517155D01*
X188000Y-13957155D02*
X3364000Y-13957155D01*
X-474000Y-16358155D02*
X9684000Y-16358155D01*
X2000Y-14317155D02*
X3364000Y-14317155D01*
X5846000Y-13157155D02*
X8463000Y-13157155D01*
X5846000Y-13117155D02*
X8429000Y-13117155D01*
X1169000Y-12717155D02*
X8041000Y-12717155D01*
X234000Y-13877155D02*
X3364000Y-13877155D01*
X-133000Y-14637155D02*
X3364000Y-14637155D01*
X-292000Y-15117155D02*
X3364000Y-15117155D01*
X-453000Y-15998155D02*
X9663000Y-15998155D01*
X5846000Y-13757155D02*
X8903000Y-13757155D01*
X-323000Y-15237155D02*
X9533000Y-15237155D01*
X3227000Y-11557155D02*
X5983000Y-11557155D01*
X1960000Y-12117155D02*
X7250000Y-12117155D01*
X5846000Y-14597155D02*
X9328000Y-14597155D01*
X-465000Y-16158155D02*
X9675000Y-16158155D01*
X781000Y-13117155D02*
X3364000Y-13117155D01*
X816000Y-13077155D02*
X3364000Y-13077155D01*
X5846000Y-13357155D02*
X8625000Y-13357155D01*
X5846000Y-13877155D02*
X8976000Y-13877155D01*
X332000Y-13717155D02*
X3364000Y-13717155D01*
X5846000Y-14317155D02*
X9208000Y-14317155D01*
X2396000Y-11877155D02*
X6814000Y-11877155D01*
X5846000Y-12917155D02*
X8245000Y-12917155D01*
X852000Y-13037155D02*
X3364000Y-13037155D01*
X3543000Y-11477155D02*
X5667000Y-11477155D01*
X5846000Y-15037155D02*
X9479000Y-15037155D01*
X-460000Y-16078155D02*
X9670000Y-16078155D01*
X965000Y-12917155D02*
X3364000Y-12917155D01*
X2568000Y-11797155D02*
X6642000Y-11797155D01*
X1230000Y-21457801D02*
X2230000Y-21457801D01*
X-219000Y-14877155D02*
X3364000Y-14877155D01*
X5846000Y-14077155D02*
X9088000Y-14077155D01*
X5846000Y-13637155D02*
X8826000Y-13637155D01*
X210000Y-13917155D02*
X3364000Y-13917155D01*
X-178000Y-14757155D02*
X3364000Y-14757155D01*
X-280000Y-15077155D02*
X3364000Y-15077155D01*
X5846000Y-12797155D02*
X8125000Y-12797155D01*
X2166000Y-11997155D02*
X7044000Y-11997155D01*
X5846000Y-13437155D02*
X8685000Y-13437155D01*
X439000Y-13557155D02*
X3364000Y-13557155D01*
X1213000Y-12677155D02*
X7997000Y-12677155D01*
X101000Y-14117155D02*
X3364000Y-14117155D01*
X5846000Y-13557155D02*
X8771000Y-13557155D01*
X4006000Y-11397155D02*
X5204000Y-11397155D01*
X-351000Y-15357155D02*
X9561000Y-15357155D01*
X307000Y-13757155D02*
X3364000Y-13757155D01*
X411000Y-13597155D02*
X3364000Y-13597155D01*
X5846000Y-14397155D02*
X9244000Y-14397155D01*
X5846000Y-14357155D02*
X9226000Y-14357155D01*
X60000Y-14197155D02*
X3364000Y-14197155D01*
X2759000Y-11717155D02*
X6451000Y-11717155D01*
X-206000Y-14837155D02*
X3364000Y-14837155D01*
X2975000Y-11637155D02*
X6235000Y-11637155D01*
X1551000Y-12397155D02*
X7659000Y-12397155D01*
X1896000Y-12157155D02*
X7314000Y-12157155D01*
X384000Y-13637155D02*
X3364000Y-13637155D01*
X648000Y-13277155D02*
X3364000Y-13277155D01*
X-385000Y-15517155D02*
X9595000Y-15517155D01*
X-16000Y-14357155D02*
X3364000Y-14357155D01*
X2863000Y-11677155D02*
X6347000Y-11677155D01*
X1304000Y-12597155D02*
X7906000Y-12597155D01*
X282000Y-13797155D02*
X3364000Y-13797155D01*
X5846000Y-14837155D02*
X9416000Y-14837155D01*
X1499000Y-12437155D02*
X7711000Y-12437155D01*
X-475000Y-16438155D02*
X9685000Y-16438155D01*
X5846000Y-13797155D02*
X8928000Y-13797155D01*
X5846000Y-15117155D02*
X9502000Y-15117155D01*
X5846000Y-13077155D02*
X8394000Y-13077155D01*
X555000Y-13397155D02*
X3364000Y-13397155D01*
X1004000Y-12877155D02*
X3364000Y-12877155D01*
X-470000Y-16238155D02*
X9680000Y-16238155D01*
X-342000Y-15317155D02*
X9552000Y-15317155D01*
X2240000Y-11957155D02*
X6970000Y-11957155D01*
X467000Y-13517155D02*
X3364000Y-13517155D01*
X-472000Y-16278155D02*
X9682000Y-16278155D01*
X-257000Y-14997155D02*
X3364000Y-14997155D01*
X495000Y-13477155D02*
X3364000Y-13477155D01*
X1044000Y-12837155D02*
X3364000Y-12837155D01*
X-69000Y-14477155D02*
X3364000Y-14477155D01*
X889000Y-12997155D02*
X3364000Y-12997155D01*
X-269000Y-15037155D02*
X3364000Y-15037155D01*
X5846000Y-13837155D02*
X8952000Y-13837155D01*
X1716000Y-12277155D02*
X7494000Y-12277155D01*
X143000Y-14037155D02*
X3364000Y-14037155D01*
X-118000Y-14597155D02*
X3364000Y-14597155D01*
X-406000Y-15637155D02*
X9616000Y-15637155D01*
X-473000Y-16318155D02*
X9683000Y-16318155D01*
X5846000Y-13597155D02*
X8799000Y-13597155D01*
X713000Y-13197155D02*
X3364000Y-13197155D01*
X-360000Y-15397155D02*
X9570000Y-15397155D01*
X1660000Y-12317155D02*
X7550000Y-12317155D01*
X-102000Y-14557155D02*
X3364000Y-14557155D01*
X-457000Y-16038155D02*
X9667000Y-16038155D01*
X926000Y-12957155D02*
X3364000Y-12957155D01*
X2026000Y-12077155D02*
X7184000Y-12077155D01*
X5846000Y-14277155D02*
X9189000Y-14277155D01*
X-232000Y-14917155D02*
X3364000Y-14917155D01*
X5846000Y-12877155D02*
X8206000Y-12877155D01*
X-245000Y-14957155D02*
X3364000Y-14957155D01*
X5846000Y-14957155D02*
X9455000Y-14957155D01*
X2661000Y-11757155D02*
X6549000Y-11757155D01*
X1399000Y-12517155D02*
X7811000Y-12517155D01*
X-377000Y-15477155D02*
X9587000Y-15477155D01*
X5846000Y-13317155D02*
X8594000Y-13317155D01*
X-192000Y-14797155D02*
X3364000Y-14797155D01*
X5846000Y-13717155D02*
X8878000Y-13717155D01*
X5846000Y-14557155D02*
X9312000Y-14557155D01*
X5846000Y-15157155D02*
X9512000Y-15157155D01*
X5846000Y-13917155D02*
X9000000Y-13917155D01*
X5846000Y-15077155D02*
X9490000Y-15077155D01*
X-468000Y-16198155D02*
X9678000Y-16198155D01*
X5846000Y-12997155D02*
X8321000Y-12997155D01*
X5846000Y-14717155D02*
X9373000Y-14717155D01*
X5846000Y-13997155D02*
X9045000Y-13997155D01*
X122000Y-14077155D02*
X3364000Y-14077155D01*
X525000Y-13437155D02*
X3364000Y-13437155D01*
X5846000Y-14517155D02*
X9295000Y-14517155D01*
X1258000Y-12637155D02*
X7952000Y-12637155D01*
X5846000Y-14637155D02*
X9343000Y-14637155D01*
X1085000Y-12797155D02*
X3364000Y-12797155D01*
X5846000Y-13677155D02*
X8852000Y-13677155D01*
X5846000Y-13477155D02*
X8715000Y-13477155D01*
X5846000Y-14437155D02*
X9262000Y-14437155D01*
X-149000Y-14677155D02*
X3364000Y-14677155D01*
X585000Y-13357155D02*
X3364000Y-13357155D01*
X9725000Y-16478155D02*
G75*
G03*
X9725000Y-16478155I-5120000J0D01*
G01*
%TO.C,C31*%
X43638563Y-15254000D02*
X43003000Y-15254000D01*
X44703000Y-9734000D02*
X43003000Y-9734000D01*
X39945500Y-15806500D02*
X40570500Y-15806500D01*
X43638563Y-15254000D02*
X44703000Y-14189563D01*
X40258000Y-16119000D02*
X40258000Y-15494000D01*
X40247437Y-15254000D02*
X39183000Y-14189563D01*
X39183000Y-9734000D02*
X40883000Y-9734000D01*
X39183000Y-14189563D02*
X39183000Y-9734000D01*
X44703000Y-14189563D02*
X44703000Y-9734000D01*
X40247437Y-15254000D02*
X40883000Y-15254000D01*
%TD*%
M02*
