%TF.GenerationSoftware,KiCad,Pcbnew,6.0.11+dfsg-1~bpo11+1*%
%TF.CreationDate,2023-07-10T22:14:43+02:00*%
%TF.ProjectId,motor_board_v3,6d6f746f-725f-4626-9f61-72645f76332e,rev?*%
%TF.SameCoordinates,PX87037a0PY50412a8*%
%TF.FileFunction,Copper,L1,Top*%
%TF.FilePolarity,Positive*%
%FSLAX46Y46*%
G04 Gerber Fmt 4.6, Leading zero omitted, Abs format (unit mm)*
G04 Created by KiCad (PCBNEW 6.0.11+dfsg-1~bpo11+1) date 2023-07-10 22:14:43*
%MOMM*%
%LPD*%
G01*
G04 APERTURE LIST*
G04 Aperture macros list*
%AMRoundRect*
0 Rectangle with rounded corners*
0 $1 Rounding radius*
0 $2 $3 $4 $5 $6 $7 $8 $9 X,Y pos of 4 corners*
0 Add a 4 corners polygon primitive as box body*
4,1,4,$2,$3,$4,$5,$6,$7,$8,$9,$2,$3,0*
0 Add four circle primitives for the rounded corners*
1,1,$1+$1,$2,$3*
1,1,$1+$1,$4,$5*
1,1,$1+$1,$6,$7*
1,1,$1+$1,$8,$9*
0 Add four rect primitives between the rounded corners*
20,1,$1+$1,$2,$3,$4,$5,0*
20,1,$1+$1,$4,$5,$6,$7,0*
20,1,$1+$1,$6,$7,$8,$9,0*
20,1,$1+$1,$8,$9,$2,$3,0*%
G04 Aperture macros list end*
%TA.AperFunction,SMDPad,CuDef*%
%ADD10RoundRect,0.218750X0.256250X-0.218750X0.256250X0.218750X-0.256250X0.218750X-0.256250X-0.218750X0*%
%TD*%
%TA.AperFunction,ComponentPad*%
%ADD11R,1.700000X1.700000*%
%TD*%
%TA.AperFunction,ComponentPad*%
%ADD12O,1.700000X1.700000*%
%TD*%
%TA.AperFunction,ComponentPad*%
%ADD13RoundRect,0.250000X0.620000X0.845000X-0.620000X0.845000X-0.620000X-0.845000X0.620000X-0.845000X0*%
%TD*%
%TA.AperFunction,ComponentPad*%
%ADD14O,1.740000X2.190000*%
%TD*%
%TA.AperFunction,ComponentPad*%
%ADD15RoundRect,0.250000X0.845000X-0.620000X0.845000X0.620000X-0.845000X0.620000X-0.845000X-0.620000X0*%
%TD*%
%TA.AperFunction,ComponentPad*%
%ADD16O,2.190000X1.740000*%
%TD*%
%TA.AperFunction,SMDPad,CuDef*%
%ADD17RoundRect,0.218750X-0.256250X0.218750X-0.256250X-0.218750X0.256250X-0.218750X0.256250X0.218750X0*%
%TD*%
%TA.AperFunction,SMDPad,CuDef*%
%ADD18RoundRect,0.250000X1.250000X0.550000X-1.250000X0.550000X-1.250000X-0.550000X1.250000X-0.550000X0*%
%TD*%
%TA.AperFunction,SMDPad,CuDef*%
%ADD19RoundRect,0.250000X-1.250000X-0.550000X1.250000X-0.550000X1.250000X0.550000X-1.250000X0.550000X0*%
%TD*%
%TA.AperFunction,SMDPad,CuDef*%
%ADD20R,2.000000X1.300000*%
%TD*%
%TA.AperFunction,SMDPad,CuDef*%
%ADD21R,2.000000X2.000000*%
%TD*%
%TA.AperFunction,ComponentPad*%
%ADD22R,3.500000X3.500000*%
%TD*%
%TA.AperFunction,ComponentPad*%
%ADD23RoundRect,0.750000X-0.750000X-1.000000X0.750000X-1.000000X0.750000X1.000000X-0.750000X1.000000X0*%
%TD*%
%TA.AperFunction,ComponentPad*%
%ADD24RoundRect,0.875000X-0.875000X-0.875000X0.875000X-0.875000X0.875000X0.875000X-0.875000X0.875000X0*%
%TD*%
%TA.AperFunction,ComponentPad*%
%ADD25R,2.000000X2.000000*%
%TD*%
%TA.AperFunction,ComponentPad*%
%ADD26C,2.000000*%
%TD*%
%TA.AperFunction,SMDPad,CuDef*%
%ADD27RoundRect,0.250000X0.550000X-1.250000X0.550000X1.250000X-0.550000X1.250000X-0.550000X-1.250000X0*%
%TD*%
%TA.AperFunction,ViaPad*%
%ADD28C,0.800000*%
%TD*%
%TA.AperFunction,Conductor*%
%ADD29C,0.250000*%
%TD*%
G04 APERTURE END LIST*
D10*
%TO.P,D2,1,K*%
%TO.N,GND*%
X-4539000Y-26616500D03*
%TO.P,D2,2,A*%
%TO.N,Net-(D2-Pad2)*%
X-4539000Y-25041500D03*
%TD*%
D11*
%TO.P,J1,1,MISO*%
%TO.N,/SPI_MISO*%
X32418000Y-19733000D03*
D12*
%TO.P,J1,2,VCC*%
%TO.N,/RAW_5V*%
X34958000Y-19733000D03*
%TO.P,J1,3,SCK*%
%TO.N,/SPI_SCK*%
X32418000Y-22273000D03*
%TO.P,J1,4,MOSI*%
%TO.N,/SPI_MOSI*%
X34958000Y-22273000D03*
%TO.P,J1,5,~{RST}*%
%TO.N,/RST*%
X32418000Y-24813000D03*
%TO.P,J1,6,GND*%
%TO.N,GND*%
X34958000Y-24813000D03*
%TD*%
D13*
%TO.P,J6,1,Pin_1*%
%TO.N,Net-(J6-Pad1)*%
X24925000Y1496000D03*
D14*
%TO.P,J6,2,Pin_2*%
%TO.N,Net-(J6-Pad2)*%
X22385000Y1496000D03*
%TO.P,J6,3,Pin_3*%
%TO.N,Net-(J6-Pad3)*%
X19845000Y1496000D03*
%TO.P,J6,4,Pin_4*%
%TO.N,Net-(J6-Pad4)*%
X17305000Y1496000D03*
%TD*%
D15*
%TO.P,J4,1,Pin_1*%
%TO.N,/RAW_5V*%
X48547000Y-21638000D03*
D16*
%TO.P,J4,2,Pin_2*%
%TO.N,/RS485_B*%
X48547000Y-19098000D03*
%TO.P,J4,3,Pin_3*%
%TO.N,/RS485_A*%
X48547000Y-16558000D03*
%TO.P,J4,4,Pin_4*%
%TO.N,GND*%
X48547000Y-14018000D03*
%TD*%
D17*
%TO.P,D3,1,K*%
%TO.N,GND*%
X-4666000Y2517500D03*
%TO.P,D3,2,A*%
%TO.N,Net-(D3-Pad2)*%
X-4666000Y942500D03*
%TD*%
D18*
%TO.P,C3,1*%
%TO.N,Net-(C3-Pad1)*%
X28141000Y-19479000D03*
%TO.P,C3,2*%
%TO.N,GND*%
X23741000Y-19479000D03*
%TD*%
D17*
%TO.P,D8,1,K*%
%TO.N,GND*%
X-7333000Y2517500D03*
%TO.P,D8,2,A*%
%TO.N,Net-(D8-Pad2)*%
X-7333000Y942500D03*
%TD*%
D19*
%TO.P,C5,1*%
%TO.N,Net-(C5-Pad1)*%
X-8009000Y-20241000D03*
%TO.P,C5,2*%
%TO.N,GND*%
X-3609000Y-20241000D03*
%TD*%
D20*
%TO.P,RV1,1,1*%
%TO.N,GND*%
X20321000Y-23550000D03*
D21*
%TO.P,RV1,2,2*%
%TO.N,/Stepper module/VREF*%
X16321000Y-22400000D03*
D20*
%TO.P,RV1,3,3*%
%TO.N,Net-(R18-Pad2)*%
X20321000Y-21250000D03*
%TD*%
D15*
%TO.P,J3,1,Pin_1*%
%TO.N,/RAW_5V*%
X48567000Y-10335000D03*
D16*
%TO.P,J3,2,Pin_2*%
%TO.N,/I2C_SDA*%
X48567000Y-7795000D03*
%TO.P,J3,3,Pin_3*%
%TO.N,/I2C_SCL*%
X48567000Y-5255000D03*
%TO.P,J3,4,Pin_4*%
%TO.N,GND*%
X48567000Y-2715000D03*
%TD*%
D13*
%TO.P,J7,1,Pin_1*%
%TO.N,Net-(J7-Pad1)*%
X36101000Y1496000D03*
D14*
%TO.P,J7,2,Pin_2*%
%TO.N,Net-(J7-Pad2)*%
X33561000Y1496000D03*
%TO.P,J7,3,Pin_3*%
%TO.N,Net-(J7-Pad3)*%
X31021000Y1496000D03*
%TO.P,J7,4,Pin_4*%
%TO.N,Net-(J7-Pad4)*%
X28481000Y1496000D03*
%TD*%
D13*
%TO.P,J5,1,Pin_1*%
%TO.N,Net-(J5-Pad1)*%
X13749000Y1496000D03*
D14*
%TO.P,J5,2,Pin_2*%
%TO.N,Net-(J5-Pad2)*%
X11209000Y1496000D03*
%TO.P,J5,3,Pin_3*%
%TO.N,Net-(J5-Pad3)*%
X8669000Y1496000D03*
%TO.P,J5,4,Pin_4*%
%TO.N,Net-(J5-Pad4)*%
X6129000Y1496000D03*
%TD*%
D10*
%TO.P,D1,1,K*%
%TO.N,GND*%
X-7206000Y-26616500D03*
%TO.P,D1,2,A*%
%TO.N,Net-(D1-Pad2)*%
X-7206000Y-25041500D03*
%TD*%
D22*
%TO.P,J2,1,Pin_1*%
%TO.N,Net-(D5-Pad2)*%
X318000Y-7218500D03*
D23*
%TO.P,J2,2,Pin_2*%
%TO.N,GND*%
X-5682000Y-7218500D03*
D24*
%TO.P,J2,3*%
%TO.N,N/C*%
X-2682000Y-11918500D03*
%TD*%
D25*
%TO.P,C30,1*%
%TO.N,+12V*%
X4605000Y-18978155D03*
D26*
%TO.P,C30,2*%
%TO.N,GND*%
X4605000Y-13978155D03*
%TD*%
D27*
%TO.P,C31,1*%
%TO.N,+5V*%
X41943000Y-14694000D03*
%TO.P,C31,2*%
%TO.N,GND*%
X41943000Y-10294000D03*
%TD*%
D28*
%TO.N,GND*%
X21623000Y-8557000D03*
X8415000Y-7541000D03*
X49055000Y-26718000D03*
X36482000Y-9319000D03*
X35593000Y-7541000D03*
X21623000Y-7668000D03*
X21623000Y-9446000D03*
X11971000Y-7541000D03*
X32926000Y-8430000D03*
X32926000Y-7541000D03*
X-2507000Y3000000D03*
X30132000Y-24178000D03*
X11971000Y-9319000D03*
X8415000Y-8430000D03*
X34704000Y-7541000D03*
X22512000Y-9446000D03*
X26893500Y-111500D03*
X7526000Y-9319000D03*
X-4285000Y-18717000D03*
X10193000Y-7541000D03*
X32926000Y-9319000D03*
X11082000Y-7541000D03*
X11971000Y-8430000D03*
X20734000Y-8557000D03*
X8415000Y-9319000D03*
X27211000Y-7795000D03*
X40292000Y-8557000D03*
X24290000Y-8557000D03*
X3589000Y1095000D03*
X9304000Y-8430000D03*
X11082000Y-8430000D03*
X36482000Y-7541000D03*
X26195000Y-17320000D03*
X33815000Y-8430000D03*
X35593000Y-8430000D03*
X11082000Y-9319000D03*
X45773500Y-14673500D03*
X35593000Y-9319000D03*
X22512000Y-7668000D03*
X22512000Y-8557000D03*
X7526000Y-7541000D03*
X19845000Y-8557000D03*
X36482000Y-8430000D03*
X15908000Y-8176000D03*
X34704000Y-8430000D03*
X25496500Y-21447500D03*
X-6444000Y-27988000D03*
X9304000Y-7541000D03*
X20734000Y-9446000D03*
X9304000Y-9319000D03*
X7526000Y-8430000D03*
X34704000Y-9319000D03*
X20734000Y-7668000D03*
X10193000Y-8430000D03*
X33815000Y-7541000D03*
X19845000Y-7668000D03*
X32037000Y-9319000D03*
X33815000Y-9319000D03*
X23401000Y-7668000D03*
X19845000Y-9446000D03*
X39657000Y-13637000D03*
X16670000Y-27353000D03*
X40736500Y-6207500D03*
X18321000Y-556000D03*
X24290000Y-7668000D03*
X24290000Y-9446000D03*
X23401000Y-8557000D03*
X32037000Y-8430000D03*
X10193000Y-9319000D03*
X26830000Y-27480000D03*
X32037000Y-7541000D03*
X23401000Y-9446000D03*
X-8764250Y-10300750D03*
%TO.N,+5V*%
X38895000Y-9700000D03*
X31783000Y-27480000D03*
X26322000Y-9827000D03*
X41308000Y-19352000D03*
X13876000Y-9700000D03*
%TO.N,+12V*%
X18836118Y-2894209D03*
X40292000Y-5001000D03*
X13052500Y-3096000D03*
X31529000Y-2080000D03*
X29243000Y-302000D03*
X9751000Y-3985000D03*
X25580900Y-2843392D03*
X4416500Y-175000D03*
X15908000Y-48000D03*
X22131000Y-3985000D03*
X5906950Y-3187387D03*
X36228000Y-2080000D03*
%TO.N,Net-(C8-Pad1)*%
X9623500Y-574000D03*
X5367000Y-7516500D03*
X3654500Y-4112000D03*
%TO.N,Net-(C14-Pad1)*%
X17813000Y-7354500D03*
X16162000Y-3985000D03*
X22470073Y-576535D03*
%TO.N,Net-(C20-Pad1)*%
X35974000Y-302000D03*
X28735000Y-4112000D03*
X29878000Y-7643500D03*
%TO.N,Net-(D1-Pad2)*%
X6383000Y-25829000D03*
%TO.N,Net-(D2-Pad2)*%
X6510000Y-22273000D03*
%TO.N,Net-(D3-Pad2)*%
X2700000Y-24686000D03*
%TO.N,/SPI_MISO*%
X21750000Y-27353000D03*
%TO.N,Net-(C3-Pad1)*%
X30259000Y-18209000D03*
%TO.N,Net-(C5-Pad1)*%
X-5936000Y-21257000D03*
%TO.N,/RST*%
X11463000Y-15860299D03*
X9357000Y-20696000D03*
X37881848Y-12734146D03*
X26322000Y-15923000D03*
%TO.N,/I2C_SDA*%
X9939000Y-23035000D03*
%TO.N,/I2C_SCL*%
X9543201Y-21906799D03*
%TO.N,Net-(R18-Pad2)*%
X15527000Y-27734000D03*
X18194000Y-23289000D03*
%TO.N,/Stepper module/VREF*%
X14003000Y-23035000D03*
X3081000Y-9700000D03*
X14892000Y-5763000D03*
X39657000Y-6741500D03*
X27211000Y-5382000D03*
%TO.N,/MODE0*%
X32462524Y-13411500D03*
X9431000Y-27193006D03*
X18838473Y-14687665D03*
X6181568Y-14619240D03*
%TO.N,/MODE1*%
X18575000Y-13723514D03*
X9431000Y-26193503D03*
X31472695Y-13272780D03*
X6163863Y-13619894D03*
%TO.N,Net-(D8-Pad2)*%
X414000Y-26972000D03*
%TO.N,/DECAY*%
X9655313Y-14894277D03*
X36022500Y-13295102D03*
X23819779Y-15309722D03*
%TO.N,/STEP0*%
X7750313Y-15910277D03*
X18448000Y-21638000D03*
%TO.N,/FAULT*%
X36883796Y-12787979D03*
X10574000Y-15288000D03*
X25179000Y-15542000D03*
%TO.N,/MODE2*%
X30635197Y-12629383D03*
X9431000Y-25194000D03*
X18575000Y-12724011D03*
X6129000Y-12621000D03*
%TO.N,/DIR0*%
X8669000Y-16304000D03*
X13876000Y-18971000D03*
%TO.N,/DIR2*%
X18067000Y-27734000D03*
X35021500Y-13573500D03*
%TO.N,/STEP_EN*%
X8123500Y-14526000D03*
X34046192Y-13792080D03*
X22067500Y-14348511D03*
X18194000Y-19098000D03*
%TO.N,/STEP1*%
X20480000Y-14348511D03*
X14130000Y-20495000D03*
%TO.N,/STEP2*%
X15531299Y-19864299D03*
X33434000Y-13002000D03*
%TO.N,/RAW_5V*%
X36228000Y-17066000D03*
%TO.N,/SPI_SCK*%
X23020000Y-24305000D03*
%TD*%
D29*
%TO.N,GND*%
X41943000Y-10843000D02*
X45773500Y-14673500D01*
X46429000Y-14018000D02*
X48547000Y-14018000D01*
X20321000Y-23550000D02*
X23741000Y-20130000D01*
X-7333000Y2517500D02*
X-4666000Y2517500D01*
X23741000Y-19692000D02*
X25496500Y-21447500D01*
X-4539000Y-26616500D02*
X-7206000Y-26616500D01*
X-4666000Y2517500D02*
X-2989500Y2517500D01*
X45773500Y-14673500D02*
X46429000Y-14018000D01*
X-7206000Y-26616500D02*
X-7206000Y-27226000D01*
X-2989500Y2517500D02*
X-2507000Y3000000D01*
X-7206000Y-27226000D02*
X-6444000Y-27988000D01*
X-3609000Y-20241000D02*
X-3609000Y-19393000D01*
X-3609000Y-19393000D02*
X-4285000Y-18717000D01*
%TO.N,+5V*%
X41013000Y-19352000D02*
X38854000Y-17193000D01*
X38854000Y-17193000D02*
X38854000Y-9741000D01*
X38895000Y-9700000D02*
X38387000Y-10208000D01*
X41308000Y-19352000D02*
X41013000Y-19352000D01*
X26322000Y-9827000D02*
X25941000Y-10208000D01*
X14384000Y-10208000D02*
X13876000Y-9700000D01*
X38387000Y-10208000D02*
X26703000Y-10208000D01*
X25941000Y-10208000D02*
X14384000Y-10208000D01*
X26703000Y-10208000D02*
X26322000Y-9827000D01*
X41308000Y-15329000D02*
X41308000Y-19352000D01*
X38854000Y-9741000D02*
X38895000Y-9700000D01*
%TO.N,+12V*%
X36699000Y-1609000D02*
X36699000Y-720000D01*
X36699000Y-720000D02*
X37625000Y206000D01*
X9751000Y-3985000D02*
X10640000Y-3096000D01*
X9323195Y151000D02*
X9923805Y151000D01*
X10348500Y-3387500D02*
X9751000Y-3985000D01*
X23272608Y-2843392D02*
X22131000Y-3985000D01*
X23231000Y2916000D02*
X19350015Y2916000D01*
X29751000Y206000D02*
X29243000Y-302000D01*
X23730000Y2417000D02*
X23231000Y2916000D01*
X10640000Y-3096000D02*
X13052500Y-3096000D01*
X36959173Y2916000D02*
X30174999Y2916000D01*
X39149000Y-5001000D02*
X36228000Y-2080000D01*
X22131000Y-3985000D02*
X19926909Y-3985000D01*
X18575000Y2140985D02*
X18575000Y851015D01*
X15908000Y-240500D02*
X13052500Y-3096000D01*
X15908000Y-48000D02*
X15908000Y-240500D01*
X8953387Y-3187387D02*
X9751000Y-3985000D01*
X5906950Y-3187387D02*
X8953387Y-3187387D01*
X17675985Y-48000D02*
X15908000Y-48000D01*
X19350015Y2916000D02*
X18575000Y2140985D01*
X25580900Y-2843392D02*
X23730000Y-992492D01*
X29751000Y2492001D02*
X29751000Y206000D01*
X36228000Y-2080000D02*
X36699000Y-1609000D01*
X4467500Y-124000D02*
X9048195Y-124000D01*
X23730000Y-992492D02*
X23730000Y2417000D01*
X30174999Y2916000D02*
X29751000Y2492001D01*
X19926909Y-3985000D02*
X18836118Y-2894209D01*
X10348500Y-273695D02*
X10348500Y-3387500D01*
X40292000Y-5001000D02*
X39149000Y-5001000D01*
X29243000Y-302000D02*
X28122292Y-302000D01*
X28122292Y-302000D02*
X25580900Y-2843392D01*
X37625000Y2250173D02*
X36959173Y2916000D01*
X9048195Y-124000D02*
X9323195Y151000D01*
X25580900Y-2843392D02*
X23272608Y-2843392D01*
X36228000Y-2080000D02*
X31529000Y-2080000D01*
X9923805Y151000D02*
X10348500Y-273695D01*
X18575000Y851015D02*
X17675985Y-48000D01*
X37625000Y206000D02*
X37625000Y2250173D01*
%TO.N,Net-(C8-Pad1)*%
X9623500Y-574000D02*
X7495032Y-574000D01*
X3654500Y-4112000D02*
X5181950Y-5639450D01*
X5367000Y-6078500D02*
X5181950Y-5893450D01*
X5181950Y-2887082D02*
X5181950Y-5893450D01*
X5367000Y-7516500D02*
X5367000Y-6078500D01*
X5181950Y-5639450D02*
X5181950Y-5893450D01*
X7495032Y-574000D02*
X5181950Y-2887082D01*
%TO.N,Net-(C14-Pad1)*%
X17940000Y-2080000D02*
X17940000Y-5763000D01*
X17940000Y-7227500D02*
X17940000Y-5763000D01*
X16162000Y-3985000D02*
X17940000Y-5763000D01*
X17813000Y-7354500D02*
X17940000Y-7227500D01*
X22470073Y-576535D02*
X19443465Y-576535D01*
X19443465Y-576535D02*
X17940000Y-2080000D01*
%TO.N,Net-(C20-Pad1)*%
X31783000Y-302000D02*
X35974000Y-302000D01*
X30961799Y-6559701D02*
X30961799Y-2909799D01*
X30961799Y-2909799D02*
X30767000Y-2715000D01*
X30767000Y-2715000D02*
X30767000Y-1318000D01*
X29878000Y-7643500D02*
X29878000Y-5255000D01*
X30767000Y-1318000D02*
X31783000Y-302000D01*
X29878000Y-7643500D02*
X30961799Y-6559701D01*
X29878000Y-5255000D02*
X28735000Y-4112000D01*
%TO.N,Net-(D1-Pad2)*%
X-7206000Y-25041500D02*
X-6443500Y-24279000D01*
X-6443500Y-24279000D02*
X-3304305Y-24279000D01*
X404695Y-27988000D02*
X4224000Y-27988000D01*
X4224000Y-27988000D02*
X6383000Y-25829000D01*
X-3304305Y-24279000D02*
X404695Y-27988000D01*
%TO.N,Net-(D2-Pad2)*%
X-4539000Y-25041500D02*
X-1142500Y-28438000D01*
X7145000Y-26092305D02*
X7145000Y-22908000D01*
X-1142500Y-28438000D02*
X4799305Y-28438000D01*
X4799305Y-28438000D02*
X7145000Y-26092305D01*
X7145000Y-22908000D02*
X6510000Y-22273000D01*
%TO.N,Net-(D3-Pad2)*%
X-475000Y-20439033D02*
X-475000Y-10678444D01*
X-475000Y-10678444D02*
X-1757000Y-9396444D01*
X-1757000Y-1966500D02*
X-4666000Y942500D01*
X-1757000Y-9396444D02*
X-1757000Y-1966500D01*
X2700000Y-23614033D02*
X-475000Y-20439033D01*
X2700000Y-24686000D02*
X2700000Y-23614033D01*
%TO.N,Net-(C3-Pad1)*%
X30259000Y-18209000D02*
X28989000Y-19479000D01*
%TO.N,Net-(C5-Pad1)*%
X-5936000Y-21257000D02*
X-6993000Y-21257000D01*
X-6993000Y-21257000D02*
X-8009000Y-20241000D01*
%TO.N,/RST*%
X35845220Y-15797780D02*
X37881848Y-13761152D01*
X11463000Y-15860299D02*
X9357000Y-17966299D01*
X11860299Y-15463000D02*
X11463000Y-15860299D01*
X9357000Y-17966299D02*
X9357000Y-20696000D01*
X28921780Y-15797780D02*
X35845220Y-15797780D01*
X9357000Y-20696000D02*
X13728000Y-25067000D01*
X18039315Y-16823000D02*
X16679315Y-15463000D01*
X26322000Y-15923000D02*
X26761000Y-15484000D01*
X26761000Y-15484000D02*
X28608000Y-15484000D01*
X28608000Y-15484000D02*
X28921780Y-15797780D01*
X16679315Y-15463000D02*
X11860299Y-15463000D01*
X37881848Y-13761152D02*
X37881848Y-12734146D01*
X26322000Y-15923000D02*
X25422000Y-16823000D01*
X25422000Y-16823000D02*
X18039315Y-16823000D01*
X13728000Y-25067000D02*
X32164000Y-25067000D01*
%TO.N,/I2C_SDA*%
X12987000Y-26083000D02*
X9939000Y-23035000D01*
X50417000Y-22816000D02*
X47150000Y-26083000D01*
X50417000Y-9645000D02*
X50417000Y-22816000D01*
X47150000Y-26083000D02*
X12987000Y-26083000D01*
X48567000Y-7795000D02*
X50417000Y-9645000D01*
%TO.N,/I2C_SCL*%
X12411695Y-26533000D02*
X10310695Y-24432000D01*
X48567000Y-5255000D02*
X50867000Y-7555000D01*
X8923000Y-23670000D02*
X8923000Y-22527000D01*
X50867000Y-7555000D02*
X50867000Y-23002396D01*
X9685000Y-24432000D02*
X8923000Y-23670000D01*
X10310695Y-24432000D02*
X9685000Y-24432000D01*
X50867000Y-23002396D02*
X47336396Y-26533000D01*
X8923000Y-22527000D02*
X9543201Y-21906799D01*
X47336396Y-26533000D02*
X12411695Y-26533000D01*
%TO.N,Net-(R18-Pad2)*%
X18194000Y-23289000D02*
X20233000Y-21250000D01*
%TO.N,/Stepper module/VREF*%
X31811195Y-6741500D02*
X39657000Y-6741500D01*
X14892000Y-5763000D02*
X17208500Y-8079500D01*
X17208500Y-8079500D02*
X18290500Y-8079500D01*
X3081000Y-9700000D02*
X4208805Y-9700000D01*
X27211000Y-5382000D02*
X27211000Y-6001805D01*
X27211000Y-6001805D02*
X29577695Y-8368500D01*
X16321000Y-22400000D02*
X14638000Y-22400000D01*
X30184195Y-8368500D02*
X31811195Y-6741500D01*
X29577695Y-8368500D02*
X30184195Y-8368500D01*
X14638000Y-22400000D02*
X14003000Y-23035000D01*
X4208805Y-9700000D02*
X8145805Y-5763000D01*
X20988000Y-5382000D02*
X27211000Y-5382000D01*
X18290500Y-8079500D02*
X20988000Y-5382000D01*
X8145805Y-5763000D02*
X14892000Y-5763000D01*
%TO.N,/MODE0*%
X18838473Y-14687665D02*
X19902127Y-13624011D01*
X19902127Y-13624011D02*
X29968124Y-13624011D01*
X6189822Y-14619240D02*
X6181568Y-14619240D01*
X29968124Y-13624011D02*
X30341893Y-13997780D01*
X7185051Y-13624011D02*
X6189822Y-14619240D01*
X18838473Y-14687665D02*
X18513846Y-14687665D01*
X31876244Y-13997780D02*
X32462524Y-13411500D01*
X18513846Y-14687665D02*
X17450192Y-13624011D01*
X17450192Y-13624011D02*
X7185051Y-13624011D01*
X30341893Y-13997780D02*
X31876244Y-13997780D01*
%TO.N,/MODE1*%
X30334892Y-13354383D02*
X31391092Y-13354383D01*
X18575000Y-13723514D02*
X18849503Y-13449011D01*
X19150305Y-13174011D02*
X30154520Y-13174011D01*
X18849503Y-13449011D02*
X18875305Y-13449011D01*
X18875305Y-13449011D02*
X19150305Y-13174011D01*
X18300497Y-13449011D02*
X18274695Y-13449011D01*
X18575000Y-13723514D02*
X18300497Y-13449011D01*
X30154520Y-13174011D02*
X30334892Y-13354383D01*
X18274695Y-13449011D02*
X17999695Y-13174011D01*
X17999695Y-13174011D02*
X6609746Y-13174011D01*
X31391092Y-13354383D02*
X31472695Y-13272780D01*
X6609746Y-13174011D02*
X6163863Y-13619894D01*
%TO.N,Net-(D8-Pad2)*%
X-983000Y-17064556D02*
X-983000Y-21897033D01*
X-983000Y-21897033D02*
X-1475001Y-22389034D01*
X-1475001Y-25082999D02*
X414000Y-26972000D01*
X-3857000Y-2533500D02*
X-3857000Y-9646444D01*
X-4757000Y-13290556D02*
X-983000Y-17064556D01*
X-4757000Y-10546444D02*
X-4757000Y-13290556D01*
X-1475001Y-22389034D02*
X-1475001Y-25082999D01*
X-7333000Y942500D02*
X-3857000Y-2533500D01*
X-3857000Y-9646444D02*
X-4757000Y-10546444D01*
%TO.N,/DECAY*%
X29310604Y-14524011D02*
X29684373Y-14897780D01*
X17052107Y-14563000D02*
X18412107Y-15923000D01*
X34722525Y-14897780D02*
X36022500Y-13597805D01*
X23206501Y-15923000D02*
X23819779Y-15309722D01*
X18412107Y-15923000D02*
X23206501Y-15923000D01*
X23819779Y-15309722D02*
X24605490Y-14524011D01*
X29684373Y-14897780D02*
X34722525Y-14897780D01*
X24605490Y-14524011D02*
X29310604Y-14524011D01*
X9986590Y-14563000D02*
X17052107Y-14563000D01*
X36022500Y-13597805D02*
X36022500Y-13295102D01*
X9655313Y-14894277D02*
X9986590Y-14563000D01*
%TO.N,/FAULT*%
X36883796Y-13743204D02*
X36883796Y-12787979D01*
X16865711Y-15013000D02*
X10849000Y-15013000D01*
X25179000Y-15542000D02*
X24348000Y-16373000D01*
X35279220Y-15347780D02*
X36883796Y-13743204D01*
X24348000Y-16373000D02*
X18225711Y-16373000D01*
X18225711Y-16373000D02*
X16865711Y-15013000D01*
X25179000Y-15542000D02*
X25687000Y-15034000D01*
X29497977Y-15347780D02*
X35279220Y-15347780D01*
X29184197Y-15034000D02*
X29497977Y-15347780D01*
X10849000Y-15013000D02*
X10574000Y-15288000D01*
X25687000Y-15034000D02*
X29184197Y-15034000D01*
%TO.N,/MODE2*%
X18575000Y-12724011D02*
X6232011Y-12724011D01*
X18575000Y-12724011D02*
X30540569Y-12724011D01*
X30540569Y-12724011D02*
X30635197Y-12629383D01*
X6232011Y-12724011D02*
X6129000Y-12621000D01*
%TO.N,/STEP_EN*%
X22342000Y-14074011D02*
X29497000Y-14074011D01*
X22067500Y-14348511D02*
X22342000Y-14074011D01*
X22067500Y-14348511D02*
X21003346Y-15412665D01*
X29870769Y-14447780D02*
X33390492Y-14447780D01*
X18538168Y-15412665D02*
X17199514Y-14074011D01*
X21003346Y-15412665D02*
X18538168Y-15412665D01*
X8575489Y-14074011D02*
X8123500Y-14526000D01*
X17199514Y-14074011D02*
X8575489Y-14074011D01*
X29497000Y-14074011D02*
X29870769Y-14447780D01*
X33390492Y-14447780D02*
X34046192Y-13792080D01*
%TO.N,/RAW_5V*%
X48547000Y-21638000D02*
X49967000Y-20218000D01*
X36749999Y-21524999D02*
X34958000Y-19733000D01*
X49967000Y-20218000D02*
X49967000Y-11735000D01*
X34958000Y-18336000D02*
X34958000Y-19733000D01*
X48433999Y-21524999D02*
X36749999Y-21524999D01*
X49967000Y-11735000D02*
X48567000Y-10335000D01*
X36228000Y-17066000D02*
X34958000Y-18336000D01*
%TO.N,/SPI_SCK*%
X27084000Y-24305000D02*
X29116000Y-22273000D01*
X23020000Y-24305000D02*
X27084000Y-24305000D01*
X29116000Y-22273000D02*
X32418000Y-22273000D01*
%TD*%
M02*
