%TF.GenerationSoftware,KiCad,Pcbnew,6.0.11+dfsg-1~bpo11+1*%
%TF.CreationDate,2023-07-10T22:14:43+02:00*%
%TF.ProjectId,motor_board_v3,6d6f746f-725f-4626-9f61-72645f76332e,rev?*%
%TF.SameCoordinates,PX87037a0PY50412a8*%
%TF.FileFunction,Soldermask,Bot*%
%TF.FilePolarity,Negative*%
%FSLAX46Y46*%
G04 Gerber Fmt 4.6, Leading zero omitted, Abs format (unit mm)*
G04 Created by KiCad (PCBNEW 6.0.11+dfsg-1~bpo11+1) date 2023-07-10 22:14:43*
%MOMM*%
%LPD*%
G01*
G04 APERTURE LIST*
G04 Aperture macros list*
%AMRoundRect*
0 Rectangle with rounded corners*
0 $1 Rounding radius*
0 $2 $3 $4 $5 $6 $7 $8 $9 X,Y pos of 4 corners*
0 Add a 4 corners polygon primitive as box body*
4,1,4,$2,$3,$4,$5,$6,$7,$8,$9,$2,$3,0*
0 Add four circle primitives for the rounded corners*
1,1,$1+$1,$2,$3*
1,1,$1+$1,$4,$5*
1,1,$1+$1,$6,$7*
1,1,$1+$1,$8,$9*
0 Add four rect primitives between the rounded corners*
20,1,$1+$1,$2,$3,$4,$5,0*
20,1,$1+$1,$4,$5,$6,$7,0*
20,1,$1+$1,$6,$7,$8,$9,0*
20,1,$1+$1,$8,$9,$2,$3,0*%
G04 Aperture macros list end*
%ADD10R,1.700000X1.700000*%
%ADD11O,1.700000X1.700000*%
%ADD12RoundRect,0.250000X0.620000X0.845000X-0.620000X0.845000X-0.620000X-0.845000X0.620000X-0.845000X0*%
%ADD13O,1.740000X2.190000*%
%ADD14RoundRect,0.250000X0.845000X-0.620000X0.845000X0.620000X-0.845000X0.620000X-0.845000X-0.620000X0*%
%ADD15O,2.190000X1.740000*%
%ADD16C,2.200000*%
%ADD17R,3.500000X3.500000*%
%ADD18RoundRect,0.750000X-0.750000X-1.000000X0.750000X-1.000000X0.750000X1.000000X-0.750000X1.000000X0*%
%ADD19RoundRect,0.875000X-0.875000X-0.875000X0.875000X-0.875000X0.875000X0.875000X-0.875000X0.875000X0*%
%ADD20R,2.000000X2.000000*%
%ADD21C,2.000000*%
%ADD22RoundRect,0.225000X-0.225000X-0.250000X0.225000X-0.250000X0.225000X0.250000X-0.225000X0.250000X0*%
%ADD23RoundRect,0.150000X-0.150000X0.587500X-0.150000X-0.587500X0.150000X-0.587500X0.150000X0.587500X0*%
%ADD24RoundRect,0.250000X0.312500X0.625000X-0.312500X0.625000X-0.312500X-0.625000X0.312500X-0.625000X0*%
%ADD25RoundRect,0.150000X-0.825000X-0.150000X0.825000X-0.150000X0.825000X0.150000X-0.825000X0.150000X0*%
%ADD26RoundRect,0.225000X0.250000X-0.225000X0.250000X0.225000X-0.250000X0.225000X-0.250000X-0.225000X0*%
%ADD27RoundRect,0.150000X0.512500X0.150000X-0.512500X0.150000X-0.512500X-0.150000X0.512500X-0.150000X0*%
%ADD28RoundRect,0.200000X-0.200000X-0.275000X0.200000X-0.275000X0.200000X0.275000X-0.200000X0.275000X0*%
%ADD29RoundRect,0.225000X0.225000X0.250000X-0.225000X0.250000X-0.225000X-0.250000X0.225000X-0.250000X0*%
%ADD30RoundRect,0.218750X0.218750X0.256250X-0.218750X0.256250X-0.218750X-0.256250X0.218750X-0.256250X0*%
%ADD31RoundRect,0.200000X-0.275000X0.200000X-0.275000X-0.200000X0.275000X-0.200000X0.275000X0.200000X0*%
%ADD32RoundRect,0.250000X-0.312500X-0.625000X0.312500X-0.625000X0.312500X0.625000X-0.312500X0.625000X0*%
%ADD33R,0.550000X1.600000*%
%ADD34R,1.600000X0.550000*%
%ADD35RoundRect,0.100000X-0.100000X0.637500X-0.100000X-0.637500X0.100000X-0.637500X0.100000X0.637500X0*%
%ADD36R,5.400000X2.850000*%
%ADD37R,1.800000X2.500000*%
%ADD38RoundRect,0.225000X-0.250000X0.225000X-0.250000X-0.225000X0.250000X-0.225000X0.250000X0.225000X0*%
%ADD39RoundRect,0.250000X-0.625000X0.312500X-0.625000X-0.312500X0.625000X-0.312500X0.625000X0.312500X0*%
%ADD40RoundRect,0.200000X0.275000X-0.200000X0.275000X0.200000X-0.275000X0.200000X-0.275000X-0.200000X0*%
%ADD41RoundRect,0.150000X0.150000X-0.512500X0.150000X0.512500X-0.150000X0.512500X-0.150000X-0.512500X0*%
%ADD42RoundRect,0.250000X2.475000X-0.712500X2.475000X0.712500X-2.475000X0.712500X-2.475000X-0.712500X0*%
%ADD43R,1.400000X1.200000*%
%ADD44R,1.300000X1.400000*%
%ADD45RoundRect,0.250000X-0.275000X-0.700000X0.275000X-0.700000X0.275000X0.700000X-0.275000X0.700000X0*%
%ADD46RoundRect,0.150000X-0.587500X-0.150000X0.587500X-0.150000X0.587500X0.150000X-0.587500X0.150000X0*%
G04 APERTURE END LIST*
D10*
%TO.C,J1*%
X32418000Y-19733000D03*
D11*
X34958000Y-19733000D03*
X32418000Y-22273000D03*
X34958000Y-22273000D03*
X32418000Y-24813000D03*
X34958000Y-24813000D03*
%TD*%
D12*
%TO.C,J6*%
X24925000Y1496000D03*
D13*
X22385000Y1496000D03*
X19845000Y1496000D03*
X17305000Y1496000D03*
%TD*%
D14*
%TO.C,J4*%
X48547000Y-21638000D03*
D15*
X48547000Y-19098000D03*
X48547000Y-16558000D03*
X48547000Y-14018000D03*
%TD*%
D16*
%TO.C,REF\u002A\u002A*%
X42000000Y0D03*
%TD*%
%TO.C,REF\u002A\u002A*%
X0Y-23000000D03*
%TD*%
%TO.C,REF\u002A\u002A*%
X0Y0D03*
%TD*%
%TO.C,REF\u002A\u002A*%
X42000000Y-23000000D03*
%TD*%
D14*
%TO.C,J3*%
X48567000Y-10335000D03*
D15*
X48567000Y-7795000D03*
X48567000Y-5255000D03*
X48567000Y-2715000D03*
%TD*%
D12*
%TO.C,J7*%
X36101000Y1496000D03*
D13*
X33561000Y1496000D03*
X31021000Y1496000D03*
X28481000Y1496000D03*
%TD*%
D12*
%TO.C,J5*%
X13749000Y1496000D03*
D13*
X11209000Y1496000D03*
X8669000Y1496000D03*
X6129000Y1496000D03*
%TD*%
D17*
%TO.C,J2*%
X318000Y-7218500D03*
D18*
X-5682000Y-7218500D03*
D19*
X-2682000Y-11918500D03*
%TD*%
D20*
%TO.C,C30*%
X4605000Y-18978155D03*
D21*
X4605000Y-13978155D03*
%TD*%
D22*
%TO.C,C10*%
X12531500Y-3731000D03*
X14081500Y-3731000D03*
%TD*%
D23*
%TO.C,D9*%
X45692000Y-24764500D03*
X47592000Y-24764500D03*
X46642000Y-26639500D03*
%TD*%
D24*
%TO.C,R4*%
X7972500Y-25321000D03*
X5047500Y-25321000D03*
%TD*%
D25*
%TO.C,U2*%
X38579000Y-19352000D03*
X38579000Y-18082000D03*
X38579000Y-16812000D03*
X38579000Y-15542000D03*
X43529000Y-15542000D03*
X43529000Y-16812000D03*
X43529000Y-18082000D03*
X43529000Y-19352000D03*
%TD*%
D24*
%TO.C,R7*%
X7972500Y-27734000D03*
X5047500Y-27734000D03*
%TD*%
D26*
%TO.C,C17*%
X27084000Y-20127000D03*
X27084000Y-18577000D03*
%TD*%
D27*
%TO.C,U6*%
X28348500Y-23101000D03*
X28348500Y-24051000D03*
X28348500Y-25001000D03*
X26073500Y-25001000D03*
X26073500Y-24051000D03*
X26073500Y-23101000D03*
%TD*%
D28*
%TO.C,R19*%
X28164000Y-26591000D03*
X29814000Y-26591000D03*
%TD*%
D26*
%TO.C,C14*%
X15908000Y-2982000D03*
X15908000Y-1432000D03*
%TD*%
D28*
%TO.C,R3*%
X36800000Y-21003000D03*
X38450000Y-21003000D03*
%TD*%
D29*
%TO.C,C9*%
X6461500Y-3731000D03*
X4911500Y-3731000D03*
%TD*%
D30*
%TO.C,FB2*%
X29014500Y-17066000D03*
X27439500Y-17066000D03*
%TD*%
D31*
%TO.C,R15*%
X34958000Y-1255000D03*
X34958000Y-2905000D03*
%TD*%
D32*
%TO.C,R10*%
X11336000Y-1826000D03*
X14261000Y-1826000D03*
%TD*%
D33*
%TO.C,U1*%
X13489000Y-17261000D03*
X14289000Y-17261000D03*
X15089000Y-17261000D03*
X15889000Y-17261000D03*
X16689000Y-17261000D03*
X17489000Y-17261000D03*
X18289000Y-17261000D03*
X19089000Y-17261000D03*
D34*
X20539000Y-18711000D03*
X20539000Y-19511000D03*
X20539000Y-20311000D03*
X20539000Y-21111000D03*
X20539000Y-21911000D03*
X20539000Y-22711000D03*
X20539000Y-23511000D03*
X20539000Y-24311000D03*
D33*
X19089000Y-25761000D03*
X18289000Y-25761000D03*
X17489000Y-25761000D03*
X16689000Y-25761000D03*
X15889000Y-25761000D03*
X15089000Y-25761000D03*
X14289000Y-25761000D03*
X13489000Y-25761000D03*
D34*
X12039000Y-24311000D03*
X12039000Y-23511000D03*
X12039000Y-22711000D03*
X12039000Y-21911000D03*
X12039000Y-21111000D03*
X12039000Y-20311000D03*
X12039000Y-19511000D03*
X12039000Y-18711000D03*
%TD*%
D24*
%TO.C,R14*%
X20418500Y-1826000D03*
X17493500Y-1826000D03*
%TD*%
D35*
%TO.C,U3*%
X5525500Y-5509000D03*
X6175500Y-5509000D03*
X6825500Y-5509000D03*
X7475500Y-5509000D03*
X8125500Y-5509000D03*
X8775500Y-5509000D03*
X9425500Y-5509000D03*
X10075500Y-5509000D03*
X10725500Y-5509000D03*
X11375500Y-5509000D03*
X12025500Y-5509000D03*
X12675500Y-5509000D03*
X13325500Y-5509000D03*
X13975500Y-5509000D03*
X13975500Y-11234000D03*
X13325500Y-11234000D03*
X12675500Y-11234000D03*
X12025500Y-11234000D03*
X11375500Y-11234000D03*
X10725500Y-11234000D03*
X10075500Y-11234000D03*
X9425500Y-11234000D03*
X8775500Y-11234000D03*
X8125500Y-11234000D03*
X7475500Y-11234000D03*
X6825500Y-11234000D03*
X6175500Y-11234000D03*
X5525500Y-11234000D03*
D36*
X9750500Y-8371500D03*
%TD*%
D37*
%TO.C,D5*%
X1430000Y-17669000D03*
X1430000Y-13669000D03*
%TD*%
D22*
%TO.C,C22*%
X38247000Y-3731000D03*
X39797000Y-3731000D03*
%TD*%
D29*
%TO.C,C15*%
X18969000Y-3731000D03*
X17419000Y-3731000D03*
%TD*%
D38*
%TO.C,C7*%
X3781500Y-5242000D03*
X3781500Y-6792000D03*
%TD*%
D26*
%TO.C,C18*%
X15654000Y-11364000D03*
X15654000Y-9814000D03*
%TD*%
D39*
%TO.C,R16*%
X42324000Y-3538500D03*
X42324000Y-6463500D03*
%TD*%
D26*
%TO.C,C24*%
X28100000Y-11364000D03*
X28100000Y-9814000D03*
%TD*%
D22*
%TO.C,C11*%
X23007000Y-16812000D03*
X24557000Y-16812000D03*
%TD*%
D29*
%TO.C,C21*%
X31669000Y-3731000D03*
X30119000Y-3731000D03*
%TD*%
D35*
%TO.C,U5*%
X30098000Y-5567500D03*
X30748000Y-5567500D03*
X31398000Y-5567500D03*
X32048000Y-5567500D03*
X32698000Y-5567500D03*
X33348000Y-5567500D03*
X33998000Y-5567500D03*
X34648000Y-5567500D03*
X35298000Y-5567500D03*
X35948000Y-5567500D03*
X36598000Y-5567500D03*
X37248000Y-5567500D03*
X37898000Y-5567500D03*
X38548000Y-5567500D03*
X38548000Y-11292500D03*
X37898000Y-11292500D03*
X37248000Y-11292500D03*
X36598000Y-11292500D03*
X35948000Y-11292500D03*
X35298000Y-11292500D03*
X34648000Y-11292500D03*
X33998000Y-11292500D03*
X33348000Y-11292500D03*
X32698000Y-11292500D03*
X32048000Y-11292500D03*
X31398000Y-11292500D03*
X30748000Y-11292500D03*
X30098000Y-11292500D03*
D36*
X34323000Y-8430000D03*
%TD*%
D22*
%TO.C,C2*%
X24150000Y-26591000D03*
X25700000Y-26591000D03*
%TD*%
D40*
%TO.C,R9*%
X3400500Y-3032000D03*
X3400500Y-1382000D03*
%TD*%
D22*
%TO.C,C16*%
X25293000Y-3731000D03*
X26843000Y-3731000D03*
%TD*%
D26*
%TO.C,C20*%
X28608000Y-2982000D03*
X28608000Y-1432000D03*
%TD*%
D28*
%TO.C,R2*%
X36800000Y-22527000D03*
X38450000Y-22527000D03*
%TD*%
D41*
%TO.C,U8*%
X44036000Y-11345500D03*
X43086000Y-11345500D03*
X42136000Y-11345500D03*
X42136000Y-9070500D03*
X43086000Y-9070500D03*
X44036000Y-9070500D03*
%TD*%
D42*
%TO.C,F1*%
X-6190000Y-22866500D03*
X-6190000Y-16091500D03*
%TD*%
D31*
%TO.C,R5*%
X46261000Y-16876000D03*
X46261000Y-18526000D03*
%TD*%
D24*
%TO.C,R6*%
X7972500Y-22908000D03*
X5047500Y-22908000D03*
%TD*%
D43*
%TO.C,Y1*%
X23063000Y-18502000D03*
X25263000Y-18502000D03*
X25263000Y-20202000D03*
X23063000Y-20202000D03*
%TD*%
D44*
%TO.C,D7*%
X31836000Y-15161000D03*
X28936000Y-15161000D03*
%TD*%
D32*
%TO.C,R13*%
X23970500Y-1826000D03*
X26895500Y-1826000D03*
%TD*%
D26*
%TO.C,C12*%
X40292000Y-11491000D03*
X40292000Y-9941000D03*
%TD*%
D22*
%TO.C,C1*%
X15514000Y-15415000D03*
X17064000Y-15415000D03*
%TD*%
D28*
%TO.C,R18*%
X12670000Y-27734000D03*
X14320000Y-27734000D03*
%TD*%
D45*
%TO.C,FB1*%
X-6368000Y-25829000D03*
X-3218000Y-25829000D03*
%TD*%
D38*
%TO.C,C8*%
X9623500Y-1432000D03*
X9623500Y-2982000D03*
%TD*%
D31*
%TO.C,R12*%
X22258000Y-1255000D03*
X22258000Y-2905000D03*
%TD*%
D46*
%TO.C,Q1*%
X33893500Y-17000000D03*
X33893500Y-15100000D03*
X35768500Y-16050000D03*
%TD*%
D38*
%TO.C,C19*%
X28354000Y-5369000D03*
X28354000Y-6919000D03*
%TD*%
D24*
%TO.C,R17*%
X33245500Y-1826000D03*
X30320500Y-1826000D03*
%TD*%
D38*
%TO.C,C13*%
X16162000Y-5369000D03*
X16162000Y-6919000D03*
%TD*%
D32*
%TO.C,R1*%
X-1048500Y-26845000D03*
X1876500Y-26845000D03*
%TD*%
D29*
%TO.C,C4*%
X32050000Y-17066000D03*
X30500000Y-17066000D03*
%TD*%
D24*
%TO.C,R11*%
X7911000Y-1826000D03*
X4986000Y-1826000D03*
%TD*%
D26*
%TO.C,C6*%
X-1745000Y-19492000D03*
X-1745000Y-17942000D03*
%TD*%
D35*
%TO.C,U4*%
X17906000Y-5567500D03*
X18556000Y-5567500D03*
X19206000Y-5567500D03*
X19856000Y-5567500D03*
X20506000Y-5567500D03*
X21156000Y-5567500D03*
X21806000Y-5567500D03*
X22456000Y-5567500D03*
X23106000Y-5567500D03*
X23756000Y-5567500D03*
X24406000Y-5567500D03*
X25056000Y-5567500D03*
X25706000Y-5567500D03*
X26356000Y-5567500D03*
X26356000Y-11292500D03*
X25706000Y-11292500D03*
X25056000Y-11292500D03*
X24406000Y-11292500D03*
X23756000Y-11292500D03*
X23106000Y-11292500D03*
X22456000Y-11292500D03*
X21806000Y-11292500D03*
X21156000Y-11292500D03*
X20506000Y-11292500D03*
X19856000Y-11292500D03*
X19206000Y-11292500D03*
X18556000Y-11292500D03*
X17906000Y-11292500D03*
D36*
X22131000Y-8430000D03*
%TD*%
D44*
%TO.C,D6*%
X-5883000Y-13510000D03*
X-8783000Y-13510000D03*
%TD*%
M02*
