%TF.GenerationSoftware,KiCad,Pcbnew,6.0.11+dfsg-1~bpo11+1*%
%TF.CreationDate,2023-06-12T22:03:45+02:00*%
%TF.ProjectId,motor_board_v3,6d6f746f-725f-4626-9f61-72645f76332e,rev?*%
%TF.SameCoordinates,PX87037a0PY50412a8*%
%TF.FileFunction,Copper,L4,Bot*%
%TF.FilePolarity,Positive*%
%FSLAX46Y46*%
G04 Gerber Fmt 4.6, Leading zero omitted, Abs format (unit mm)*
G04 Created by KiCad (PCBNEW 6.0.11+dfsg-1~bpo11+1) date 2023-06-12 22:03:45*
%MOMM*%
%LPD*%
G01*
G04 APERTURE LIST*
G04 Aperture macros list*
%AMRoundRect*
0 Rectangle with rounded corners*
0 $1 Rounding radius*
0 $2 $3 $4 $5 $6 $7 $8 $9 X,Y pos of 4 corners*
0 Add a 4 corners polygon primitive as box body*
4,1,4,$2,$3,$4,$5,$6,$7,$8,$9,$2,$3,0*
0 Add four circle primitives for the rounded corners*
1,1,$1+$1,$2,$3*
1,1,$1+$1,$4,$5*
1,1,$1+$1,$6,$7*
1,1,$1+$1,$8,$9*
0 Add four rect primitives between the rounded corners*
20,1,$1+$1,$2,$3,$4,$5,0*
20,1,$1+$1,$4,$5,$6,$7,0*
20,1,$1+$1,$6,$7,$8,$9,0*
20,1,$1+$1,$8,$9,$2,$3,0*%
G04 Aperture macros list end*
%TA.AperFunction,SMDPad,CuDef*%
%ADD10RoundRect,0.225000X0.225000X0.250000X-0.225000X0.250000X-0.225000X-0.250000X0.225000X-0.250000X0*%
%TD*%
%TA.AperFunction,SMDPad,CuDef*%
%ADD11R,1.400000X1.200000*%
%TD*%
%TA.AperFunction,ComponentPad*%
%ADD12R,1.000000X1.000000*%
%TD*%
%TA.AperFunction,ComponentPad*%
%ADD13O,1.000000X1.000000*%
%TD*%
%TA.AperFunction,SMDPad,CuDef*%
%ADD14RoundRect,0.100000X-0.100000X0.637500X-0.100000X-0.637500X0.100000X-0.637500X0.100000X0.637500X0*%
%TD*%
%TA.AperFunction,SMDPad,CuDef*%
%ADD15R,5.400000X2.850000*%
%TD*%
%TA.AperFunction,ComponentPad*%
%ADD16RoundRect,0.250000X0.620000X0.845000X-0.620000X0.845000X-0.620000X-0.845000X0.620000X-0.845000X0*%
%TD*%
%TA.AperFunction,ComponentPad*%
%ADD17O,1.740000X2.190000*%
%TD*%
%TA.AperFunction,ComponentPad*%
%ADD18RoundRect,0.250000X0.845000X-0.620000X0.845000X0.620000X-0.845000X0.620000X-0.845000X-0.620000X0*%
%TD*%
%TA.AperFunction,ComponentPad*%
%ADD19O,2.190000X1.740000*%
%TD*%
%TA.AperFunction,ComponentPad*%
%ADD20RoundRect,0.875000X-0.875000X-0.875000X0.875000X-0.875000X0.875000X0.875000X-0.875000X0.875000X0*%
%TD*%
%TA.AperFunction,ComponentPad*%
%ADD21RoundRect,0.750000X-0.750000X-1.000000X0.750000X-1.000000X0.750000X1.000000X-0.750000X1.000000X0*%
%TD*%
%TA.AperFunction,ComponentPad*%
%ADD22R,3.500000X3.500000*%
%TD*%
%TA.AperFunction,SMDPad,CuDef*%
%ADD23RoundRect,0.225000X-0.225000X-0.250000X0.225000X-0.250000X0.225000X0.250000X-0.225000X0.250000X0*%
%TD*%
%TA.AperFunction,SMDPad,CuDef*%
%ADD24RoundRect,0.075000X0.075000X0.700000X-0.075000X0.700000X-0.075000X-0.700000X0.075000X-0.700000X0*%
%TD*%
%TA.AperFunction,SMDPad,CuDef*%
%ADD25RoundRect,0.075000X0.700000X0.075000X-0.700000X0.075000X-0.700000X-0.075000X0.700000X-0.075000X0*%
%TD*%
%TA.AperFunction,SMDPad,CuDef*%
%ADD26RoundRect,0.250000X0.625000X-0.312500X0.625000X0.312500X-0.625000X0.312500X-0.625000X-0.312500X0*%
%TD*%
%TA.AperFunction,SMDPad,CuDef*%
%ADD27RoundRect,0.218750X0.256250X-0.218750X0.256250X0.218750X-0.256250X0.218750X-0.256250X-0.218750X0*%
%TD*%
%TA.AperFunction,SMDPad,CuDef*%
%ADD28RoundRect,0.250000X-0.312500X-0.625000X0.312500X-0.625000X0.312500X0.625000X-0.312500X0.625000X0*%
%TD*%
%TA.AperFunction,SMDPad,CuDef*%
%ADD29RoundRect,0.225000X-0.250000X0.225000X-0.250000X-0.225000X0.250000X-0.225000X0.250000X0.225000X0*%
%TD*%
%TA.AperFunction,SMDPad,CuDef*%
%ADD30RoundRect,0.225000X0.250000X-0.225000X0.250000X0.225000X-0.250000X0.225000X-0.250000X-0.225000X0*%
%TD*%
%TA.AperFunction,SMDPad,CuDef*%
%ADD31R,2.500000X1.800000*%
%TD*%
%TA.AperFunction,SMDPad,CuDef*%
%ADD32RoundRect,0.150000X-0.825000X-0.150000X0.825000X-0.150000X0.825000X0.150000X-0.825000X0.150000X0*%
%TD*%
%TA.AperFunction,SMDPad,CuDef*%
%ADD33RoundRect,0.200000X-0.275000X0.200000X-0.275000X-0.200000X0.275000X-0.200000X0.275000X0.200000X0*%
%TD*%
%TA.AperFunction,SMDPad,CuDef*%
%ADD34RoundRect,0.250000X0.312500X0.625000X-0.312500X0.625000X-0.312500X-0.625000X0.312500X-0.625000X0*%
%TD*%
%TA.AperFunction,SMDPad,CuDef*%
%ADD35RoundRect,0.250000X-0.625000X0.312500X-0.625000X-0.312500X0.625000X-0.312500X0.625000X0.312500X0*%
%TD*%
%TA.AperFunction,SMDPad,CuDef*%
%ADD36RoundRect,0.250000X-0.275000X-0.700000X0.275000X-0.700000X0.275000X0.700000X-0.275000X0.700000X0*%
%TD*%
%TA.AperFunction,SMDPad,CuDef*%
%ADD37R,1.400000X1.300000*%
%TD*%
%TA.AperFunction,SMDPad,CuDef*%
%ADD38RoundRect,0.200000X0.200000X0.275000X-0.200000X0.275000X-0.200000X-0.275000X0.200000X-0.275000X0*%
%TD*%
%TA.AperFunction,SMDPad,CuDef*%
%ADD39RoundRect,0.200000X0.275000X-0.200000X0.275000X0.200000X-0.275000X0.200000X-0.275000X-0.200000X0*%
%TD*%
%TA.AperFunction,SMDPad,CuDef*%
%ADD40R,1.300000X1.400000*%
%TD*%
%TA.AperFunction,SMDPad,CuDef*%
%ADD41RoundRect,0.150000X0.150000X-0.512500X0.150000X0.512500X-0.150000X0.512500X-0.150000X-0.512500X0*%
%TD*%
%TA.AperFunction,SMDPad,CuDef*%
%ADD42RoundRect,0.150000X0.587500X0.150000X-0.587500X0.150000X-0.587500X-0.150000X0.587500X-0.150000X0*%
%TD*%
%TA.AperFunction,SMDPad,CuDef*%
%ADD43R,2.000000X1.500000*%
%TD*%
%TA.AperFunction,SMDPad,CuDef*%
%ADD44R,2.000000X3.800000*%
%TD*%
%TA.AperFunction,SMDPad,CuDef*%
%ADD45RoundRect,0.150000X0.150000X-0.587500X0.150000X0.587500X-0.150000X0.587500X-0.150000X-0.587500X0*%
%TD*%
%TA.AperFunction,SMDPad,CuDef*%
%ADD46RoundRect,0.250000X2.475000X-0.712500X2.475000X0.712500X-2.475000X0.712500X-2.475000X-0.712500X0*%
%TD*%
%TA.AperFunction,ViaPad*%
%ADD47C,0.800000*%
%TD*%
%TA.AperFunction,Conductor*%
%ADD48C,0.250000*%
%TD*%
G04 APERTURE END LIST*
D10*
%TO.P,C6,1*%
%TO.N,Net-(C5-Pad1)*%
X-5194000Y-27686000D03*
%TO.P,C6,2*%
%TO.N,GND*%
X-6744000Y-27686000D03*
%TD*%
%TO.P,C4,1*%
%TO.N,Net-(C3-Pad1)*%
X47257000Y-24892000D03*
%TO.P,C4,2*%
%TO.N,GND*%
X45707000Y-24892000D03*
%TD*%
D11*
%TO.P,Y1,1,1*%
%TO.N,/XTAL1*%
X19896000Y-18884000D03*
%TO.P,Y1,2,2*%
%TO.N,GND*%
X17696000Y-18884000D03*
%TO.P,Y1,3,3*%
%TO.N,/XTAL2*%
X17696000Y-17184000D03*
%TO.P,Y1,4,4*%
%TO.N,GND*%
X19896000Y-17184000D03*
%TD*%
D12*
%TO.P,J1,1,NC*%
%TO.N,unconnected-(J1-Pad1)*%
X30226000Y-17145000D03*
D13*
%TO.P,J1,2,NC*%
%TO.N,unconnected-(J1-Pad2)*%
X30226000Y-15875000D03*
%TO.P,J1,3,VCC*%
%TO.N,+3V3*%
X31496000Y-17145000D03*
%TO.P,J1,4,JTMS/SWDIO*%
%TO.N,/SWDIO*%
X31496000Y-15875000D03*
%TO.P,J1,5,GND*%
%TO.N,GND*%
X32766000Y-17145000D03*
%TO.P,J1,6,JCLK/SWCLK*%
%TO.N,/SWCLK*%
X32766000Y-15875000D03*
%TO.P,J1,7,GND*%
%TO.N,GND*%
X34036000Y-17145000D03*
%TO.P,J1,8,JTDO/SWO*%
%TO.N,/SWO*%
X34036000Y-15875000D03*
%TO.P,J1,9,JRCLK/NC*%
%TO.N,unconnected-(J1-Pad9)*%
X35306000Y-17145000D03*
%TO.P,J1,10,JTDI/NC*%
%TO.N,unconnected-(J1-Pad10)*%
X35306000Y-15875000D03*
%TO.P,J1,11,GNDDetect*%
%TO.N,unconnected-(J1-Pad11)*%
X36576000Y-17145000D03*
%TO.P,J1,12,~{RST}*%
%TO.N,/RST*%
X36576000Y-15875000D03*
%TO.P,J1,13,VCP_RX*%
%TO.N,unconnected-(J1-Pad13)*%
X37846000Y-17145000D03*
%TO.P,J1,14,VCP_TX*%
%TO.N,unconnected-(J1-Pad14)*%
X37846000Y-15875000D03*
%TD*%
D14*
%TO.P,U5,1,CP1*%
%TO.N,Net-(C19-Pad1)*%
X30098000Y-5567500D03*
%TO.P,U5,2,CP2*%
%TO.N,Net-(C19-Pad2)*%
X30748000Y-5567500D03*
%TO.P,U5,3,VCP*%
%TO.N,Net-(C20-Pad1)*%
X31398000Y-5567500D03*
%TO.P,U5,4,VMA*%
%TO.N,+12V*%
X32048000Y-5567500D03*
%TO.P,U5,5,AOUT1*%
%TO.N,Net-(J7-Pad4)*%
X32698000Y-5567500D03*
%TO.P,U5,6,ISENA*%
%TO.N,Net-(R17-Pad1)*%
X33348000Y-5567500D03*
%TO.P,U5,7,AOUT2*%
%TO.N,Net-(J7-Pad3)*%
X33998000Y-5567500D03*
%TO.P,U5,8,BOUT2*%
%TO.N,Net-(J7-Pad1)*%
X34648000Y-5567500D03*
%TO.P,U5,9,ISENB*%
%TO.N,Net-(R16-Pad1)*%
X35298000Y-5567500D03*
%TO.P,U5,10,BOUT1*%
%TO.N,Net-(J7-Pad2)*%
X35948000Y-5567500D03*
%TO.P,U5,11,VMB*%
%TO.N,+12V*%
X36598000Y-5567500D03*
%TO.P,U5,12,AVREF*%
%TO.N,/Stepper module/VREF*%
X37248000Y-5567500D03*
%TO.P,U5,13,BVREF*%
X37898000Y-5567500D03*
%TO.P,U5,14,GND*%
%TO.N,GND*%
X38548000Y-5567500D03*
%TO.P,U5,15,V3P3OUT*%
%TO.N,Net-(C12-Pad1)*%
X38548000Y-11292500D03*
%TO.P,U5,16,nRESET*%
%TO.N,/RST*%
X37898000Y-11292500D03*
%TO.P,U5,17,nSLEEP*%
%TO.N,+5V*%
X37248000Y-11292500D03*
%TO.P,U5,18,nFAULT*%
%TO.N,/FAULT*%
X36598000Y-11292500D03*
%TO.P,U5,19,DECAY*%
%TO.N,/DECAY*%
X35948000Y-11292500D03*
%TO.P,U5,20,DIR*%
%TO.N,/DIR2*%
X35298000Y-11292500D03*
%TO.P,U5,21,nENBL*%
%TO.N,/STEP_EN*%
X34648000Y-11292500D03*
%TO.P,U5,22,STEP*%
%TO.N,/STEP2*%
X33998000Y-11292500D03*
%TO.P,U5,23,NC*%
%TO.N,unconnected-(U5-Pad23)*%
X33348000Y-11292500D03*
%TO.P,U5,24,MODE0*%
%TO.N,/MODE0*%
X32698000Y-11292500D03*
%TO.P,U5,25,MODE1*%
%TO.N,/MODE1*%
X32048000Y-11292500D03*
%TO.P,U5,26,MODE2*%
%TO.N,/MODE2*%
X31398000Y-11292500D03*
%TO.P,U5,27,nHOME*%
%TO.N,unconnected-(U5-Pad27)*%
X30748000Y-11292500D03*
%TO.P,U5,28,GND*%
%TO.N,GND*%
X30098000Y-11292500D03*
D15*
%TO.P,U5,29,PAD*%
X34323000Y-8430000D03*
%TD*%
D14*
%TO.P,U4,1,CP1*%
%TO.N,Net-(C13-Pad1)*%
X17906000Y-5567500D03*
%TO.P,U4,2,CP2*%
%TO.N,Net-(C13-Pad2)*%
X18556000Y-5567500D03*
%TO.P,U4,3,VCP*%
%TO.N,Net-(C14-Pad1)*%
X19206000Y-5567500D03*
%TO.P,U4,4,VMA*%
%TO.N,+12V*%
X19856000Y-5567500D03*
%TO.P,U4,5,AOUT1*%
%TO.N,Net-(J6-Pad4)*%
X20506000Y-5567500D03*
%TO.P,U4,6,ISENA*%
%TO.N,Net-(R14-Pad1)*%
X21156000Y-5567500D03*
%TO.P,U4,7,AOUT2*%
%TO.N,Net-(J6-Pad3)*%
X21806000Y-5567500D03*
%TO.P,U4,8,BOUT2*%
%TO.N,Net-(J6-Pad1)*%
X22456000Y-5567500D03*
%TO.P,U4,9,ISENB*%
%TO.N,Net-(R13-Pad1)*%
X23106000Y-5567500D03*
%TO.P,U4,10,BOUT1*%
%TO.N,Net-(J6-Pad2)*%
X23756000Y-5567500D03*
%TO.P,U4,11,VMB*%
%TO.N,+12V*%
X24406000Y-5567500D03*
%TO.P,U4,12,AVREF*%
%TO.N,/Stepper module/VREF*%
X25056000Y-5567500D03*
%TO.P,U4,13,BVREF*%
X25706000Y-5567500D03*
%TO.P,U4,14,GND*%
%TO.N,GND*%
X26356000Y-5567500D03*
%TO.P,U4,15,V3P3OUT*%
%TO.N,Net-(C24-Pad1)*%
X26356000Y-11292500D03*
%TO.P,U4,16,nRESET*%
%TO.N,/RST*%
X25706000Y-11292500D03*
%TO.P,U4,17,nSLEEP*%
%TO.N,+5V*%
X25056000Y-11292500D03*
%TO.P,U4,18,nFAULT*%
%TO.N,/FAULT*%
X24406000Y-11292500D03*
%TO.P,U4,19,DECAY*%
%TO.N,/DECAY*%
X23756000Y-11292500D03*
%TO.P,U4,20,DIR*%
%TO.N,/DIR1*%
X23106000Y-11292500D03*
%TO.P,U4,21,nENBL*%
%TO.N,/STEP_EN*%
X22456000Y-11292500D03*
%TO.P,U4,22,STEP*%
%TO.N,/STEP1*%
X21806000Y-11292500D03*
%TO.P,U4,23,NC*%
%TO.N,unconnected-(U4-Pad23)*%
X21156000Y-11292500D03*
%TO.P,U4,24,MODE0*%
%TO.N,/MODE0*%
X20506000Y-11292500D03*
%TO.P,U4,25,MODE1*%
%TO.N,/MODE1*%
X19856000Y-11292500D03*
%TO.P,U4,26,MODE2*%
%TO.N,/MODE2*%
X19206000Y-11292500D03*
%TO.P,U4,27,nHOME*%
%TO.N,unconnected-(U4-Pad27)*%
X18556000Y-11292500D03*
%TO.P,U4,28,GND*%
%TO.N,GND*%
X17906000Y-11292500D03*
D15*
%TO.P,U4,29,PAD*%
X22131000Y-8430000D03*
%TD*%
%TO.P,U3,29,PAD*%
%TO.N,GND*%
X9750500Y-8371500D03*
D14*
%TO.P,U3,28,GND*%
X5525500Y-11234000D03*
%TO.P,U3,27,nHOME*%
%TO.N,unconnected-(U3-Pad27)*%
X6175500Y-11234000D03*
%TO.P,U3,26,MODE2*%
%TO.N,/MODE2*%
X6825500Y-11234000D03*
%TO.P,U3,25,MODE1*%
%TO.N,/MODE1*%
X7475500Y-11234000D03*
%TO.P,U3,24,MODE0*%
%TO.N,/MODE0*%
X8125500Y-11234000D03*
%TO.P,U3,23,NC*%
%TO.N,unconnected-(U3-Pad23)*%
X8775500Y-11234000D03*
%TO.P,U3,22,STEP*%
%TO.N,/STEP0*%
X9425500Y-11234000D03*
%TO.P,U3,21,nENBL*%
%TO.N,/STEP_EN*%
X10075500Y-11234000D03*
%TO.P,U3,20,DIR*%
%TO.N,/DIR0*%
X10725500Y-11234000D03*
%TO.P,U3,19,DECAY*%
%TO.N,/DECAY*%
X11375500Y-11234000D03*
%TO.P,U3,18,nFAULT*%
%TO.N,/FAULT*%
X12025500Y-11234000D03*
%TO.P,U3,17,nSLEEP*%
%TO.N,+5V*%
X12675500Y-11234000D03*
%TO.P,U3,16,nRESET*%
%TO.N,/RST*%
X13325500Y-11234000D03*
%TO.P,U3,15,V3P3OUT*%
%TO.N,Net-(C18-Pad1)*%
X13975500Y-11234000D03*
%TO.P,U3,14,GND*%
%TO.N,GND*%
X13975500Y-5509000D03*
%TO.P,U3,13,BVREF*%
%TO.N,/Stepper module/VREF*%
X13325500Y-5509000D03*
%TO.P,U3,12,AVREF*%
X12675500Y-5509000D03*
%TO.P,U3,11,VMB*%
%TO.N,+12V*%
X12025500Y-5509000D03*
%TO.P,U3,10,BOUT1*%
%TO.N,Net-(J5-Pad2)*%
X11375500Y-5509000D03*
%TO.P,U3,9,ISENB*%
%TO.N,Net-(R10-Pad1)*%
X10725500Y-5509000D03*
%TO.P,U3,8,BOUT2*%
%TO.N,Net-(J5-Pad1)*%
X10075500Y-5509000D03*
%TO.P,U3,7,AOUT2*%
%TO.N,Net-(J5-Pad3)*%
X9425500Y-5509000D03*
%TO.P,U3,6,ISENA*%
%TO.N,Net-(R11-Pad1)*%
X8775500Y-5509000D03*
%TO.P,U3,5,AOUT1*%
%TO.N,Net-(J5-Pad4)*%
X8125500Y-5509000D03*
%TO.P,U3,4,VMA*%
%TO.N,+12V*%
X7475500Y-5509000D03*
%TO.P,U3,3,VCP*%
%TO.N,Net-(C8-Pad1)*%
X6825500Y-5509000D03*
%TO.P,U3,2,CP2*%
%TO.N,Net-(C7-Pad2)*%
X6175500Y-5509000D03*
%TO.P,U3,1,CP1*%
%TO.N,Net-(C7-Pad1)*%
X5525500Y-5509000D03*
%TD*%
D16*
%TO.P,J6,1,Pin_1*%
%TO.N,Net-(J6-Pad1)*%
X24925000Y1496000D03*
D17*
%TO.P,J6,2,Pin_2*%
%TO.N,Net-(J6-Pad2)*%
X22385000Y1496000D03*
%TO.P,J6,3,Pin_3*%
%TO.N,Net-(J6-Pad3)*%
X19845000Y1496000D03*
%TO.P,J6,4,Pin_4*%
%TO.N,Net-(J6-Pad4)*%
X17305000Y1496000D03*
%TD*%
D18*
%TO.P,J4,1,Pin_1*%
%TO.N,/RAW_5V*%
X48547000Y-21638000D03*
D19*
%TO.P,J4,2,Pin_2*%
%TO.N,/RS485_B*%
X48547000Y-19098000D03*
%TO.P,J4,3,Pin_3*%
%TO.N,/RS485_A*%
X48547000Y-16558000D03*
%TO.P,J4,4,Pin_4*%
%TO.N,GND*%
X48547000Y-14018000D03*
%TD*%
D18*
%TO.P,J3,1,Pin_1*%
%TO.N,/RAW_5V*%
X48567000Y-10335000D03*
D19*
%TO.P,J3,2,Pin_2*%
%TO.N,/I2C_SDA*%
X48567000Y-7795000D03*
%TO.P,J3,3,Pin_3*%
%TO.N,/I2C_SCL*%
X48567000Y-5255000D03*
%TO.P,J3,4,Pin_4*%
%TO.N,GND*%
X48567000Y-2715000D03*
%TD*%
D16*
%TO.P,J7,1,Pin_1*%
%TO.N,Net-(J7-Pad1)*%
X36101000Y1496000D03*
D17*
%TO.P,J7,2,Pin_2*%
%TO.N,Net-(J7-Pad2)*%
X33561000Y1496000D03*
%TO.P,J7,3,Pin_3*%
%TO.N,Net-(J7-Pad3)*%
X31021000Y1496000D03*
%TO.P,J7,4,Pin_4*%
%TO.N,Net-(J7-Pad4)*%
X28481000Y1496000D03*
%TD*%
%TO.P,J5,4,Pin_4*%
%TO.N,Net-(J5-Pad4)*%
X6129000Y1496000D03*
%TO.P,J5,3,Pin_3*%
%TO.N,Net-(J5-Pad3)*%
X8669000Y1496000D03*
%TO.P,J5,2,Pin_2*%
%TO.N,Net-(J5-Pad2)*%
X11209000Y1496000D03*
D16*
%TO.P,J5,1,Pin_1*%
%TO.N,Net-(J5-Pad1)*%
X13749000Y1496000D03*
%TD*%
D20*
%TO.P,J2,3*%
%TO.N,N/C*%
X-2682000Y-11918500D03*
D21*
%TO.P,J2,2,Pin_2*%
%TO.N,GND*%
X-5682000Y-7218500D03*
D22*
%TO.P,J2,1,Pin_1*%
%TO.N,Net-(D5-Pad2)*%
X318000Y-7218500D03*
%TD*%
D10*
%TO.P,C25,1*%
%TO.N,+3V3*%
X4351000Y-26083000D03*
%TO.P,C25,2*%
%TO.N,GND*%
X2801000Y-26083000D03*
%TD*%
D23*
%TO.P,C10,1*%
%TO.N,+12V*%
X12531500Y-3731000D03*
%TO.P,C10,2*%
%TO.N,GND*%
X14081500Y-3731000D03*
%TD*%
D24*
%TO.P,U1,64,VDD*%
%TO.N,+3V3*%
X13041000Y-14312000D03*
%TO.P,U1,63,VSS*%
%TO.N,GND*%
X12541000Y-14312000D03*
%TO.P,U1,62,PB9*%
%TO.N,/I2C_SDA*%
X12041000Y-14312000D03*
%TO.P,U1,61,PB8*%
%TO.N,/I2C_SCL*%
X11541000Y-14312000D03*
%TO.P,U1,60,BOOT0*%
%TO.N,GND*%
X11041000Y-14312000D03*
%TO.P,U1,59,PB7*%
%TO.N,/DIR0*%
X10541000Y-14312000D03*
%TO.P,U1,58,PB6*%
%TO.N,/STEP2*%
X10041000Y-14312000D03*
%TO.P,U1,57,PB5*%
%TO.N,/STEP_EN*%
X9541000Y-14312000D03*
%TO.P,U1,56,PB4*%
%TO.N,unconnected-(U1-Pad56)*%
X9041000Y-14312000D03*
%TO.P,U1,55,PB3*%
%TO.N,/SWO*%
X8541000Y-14312000D03*
%TO.P,U1,54,PD2*%
%TO.N,unconnected-(U1-Pad54)*%
X8041000Y-14312000D03*
%TO.P,U1,53,PC12*%
%TO.N,/MODE0*%
X7541000Y-14312000D03*
%TO.P,U1,52,PC11*%
%TO.N,unconnected-(U1-Pad52)*%
X7041000Y-14312000D03*
%TO.P,U1,51,PC10*%
%TO.N,unconnected-(U1-Pad51)*%
X6541000Y-14312000D03*
%TO.P,U1,50,PA15*%
%TO.N,/MODE1*%
X6041000Y-14312000D03*
%TO.P,U1,49,PA14*%
%TO.N,/SWCLK*%
X5541000Y-14312000D03*
D25*
%TO.P,U1,48,VDD*%
%TO.N,+3V3*%
X3616000Y-16237000D03*
%TO.P,U1,47,VSS*%
%TO.N,GND*%
X3616000Y-16737000D03*
%TO.P,U1,46,PA13*%
%TO.N,/SWDIO*%
X3616000Y-17237000D03*
%TO.P,U1,45,PA12*%
%TO.N,unconnected-(U1-Pad45)*%
X3616000Y-17737000D03*
%TO.P,U1,44,PA11*%
%TO.N,unconnected-(U1-Pad44)*%
X3616000Y-18237000D03*
%TO.P,U1,43,PA10*%
%TO.N,unconnected-(U1-Pad43)*%
X3616000Y-18737000D03*
%TO.P,U1,42,PA9*%
%TO.N,unconnected-(U1-Pad42)*%
X3616000Y-19237000D03*
%TO.P,U1,41,PA8*%
%TO.N,/STATUS*%
X3616000Y-19737000D03*
%TO.P,U1,40,PC9*%
%TO.N,/FAULT_ST*%
X3616000Y-20237000D03*
%TO.P,U1,39,PC8*%
%TO.N,/MODE2*%
X3616000Y-20737000D03*
%TO.P,U1,38,PC7*%
%TO.N,/FAULT*%
X3616000Y-21237000D03*
%TO.P,U1,37,PC6*%
%TO.N,/DIR2*%
X3616000Y-21737000D03*
%TO.P,U1,36,PB15*%
%TO.N,unconnected-(U1-Pad36)*%
X3616000Y-22237000D03*
%TO.P,U1,35,PB14*%
%TO.N,unconnected-(U1-Pad35)*%
X3616000Y-22737000D03*
%TO.P,U1,34,PB13*%
%TO.N,unconnected-(U1-Pad34)*%
X3616000Y-23237000D03*
%TO.P,U1,33,PB12*%
%TO.N,unconnected-(U1-Pad33)*%
X3616000Y-23737000D03*
D24*
%TO.P,U1,32,VDD*%
%TO.N,+3V3*%
X5541000Y-25662000D03*
%TO.P,U1,31,VSS*%
%TO.N,GND*%
X6041000Y-25662000D03*
%TO.P,U1,30,VCAP1*%
%TO.N,Net-(C29-Pad1)*%
X6541000Y-25662000D03*
%TO.P,U1,29,PB10*%
%TO.N,unconnected-(U1-Pad29)*%
X7041000Y-25662000D03*
%TO.P,U1,28,PB2*%
%TO.N,unconnected-(U1-Pad28)*%
X7541000Y-25662000D03*
%TO.P,U1,27,PB1*%
%TO.N,unconnected-(U1-Pad27)*%
X8041000Y-25662000D03*
%TO.P,U1,26,PB0*%
%TO.N,unconnected-(U1-Pad26)*%
X8541000Y-25662000D03*
%TO.P,U1,25,PC5*%
%TO.N,unconnected-(U1-Pad25)*%
X9041000Y-25662000D03*
%TO.P,U1,24,PC4*%
%TO.N,unconnected-(U1-Pad24)*%
X9541000Y-25662000D03*
%TO.P,U1,23,PA7*%
%TO.N,unconnected-(U1-Pad23)*%
X10041000Y-25662000D03*
%TO.P,U1,22,PA6*%
%TO.N,/STEP1*%
X10541000Y-25662000D03*
%TO.P,U1,21,PA5*%
%TO.N,unconnected-(U1-Pad21)*%
X11041000Y-25662000D03*
%TO.P,U1,20,PA4*%
%TO.N,unconnected-(U1-Pad20)*%
X11541000Y-25662000D03*
%TO.P,U1,19,VDD*%
%TO.N,+3V3*%
X12041000Y-25662000D03*
%TO.P,U1,18,VSS*%
%TO.N,GND*%
X12541000Y-25662000D03*
%TO.P,U1,17,PA3*%
%TO.N,/UART_RXD*%
X13041000Y-25662000D03*
D25*
%TO.P,U1,16,PA2*%
%TO.N,/UART_TXD*%
X14966000Y-23737000D03*
%TO.P,U1,15,PA1*%
%TO.N,/RS485_TXE*%
X14966000Y-23237000D03*
%TO.P,U1,14,PA0*%
%TO.N,/STEP0*%
X14966000Y-22737000D03*
%TO.P,U1,13,VREF+*%
%TO.N,+3V3*%
X14966000Y-22237000D03*
%TO.P,U1,12,VSSA*%
%TO.N,GND*%
X14966000Y-21737000D03*
%TO.P,U1,11,PC3*%
%TO.N,unconnected-(U1-Pad11)*%
X14966000Y-21237000D03*
%TO.P,U1,10,PC2*%
%TO.N,unconnected-(U1-Pad10)*%
X14966000Y-20737000D03*
%TO.P,U1,9,PC1*%
%TO.N,unconnected-(U1-Pad9)*%
X14966000Y-20237000D03*
%TO.P,U1,8,PC0*%
%TO.N,unconnected-(U1-Pad8)*%
X14966000Y-19737000D03*
%TO.P,U1,7,NRST*%
%TO.N,/RST*%
X14966000Y-19237000D03*
%TO.P,U1,6,PH1*%
%TO.N,/XTAL2*%
X14966000Y-18737000D03*
%TO.P,U1,5,PH0*%
%TO.N,/XTAL1*%
X14966000Y-18237000D03*
%TO.P,U1,4,PC15*%
%TO.N,/DECAY*%
X14966000Y-17737000D03*
%TO.P,U1,3,PC14*%
%TO.N,unconnected-(U1-Pad3)*%
X14966000Y-17237000D03*
%TO.P,U1,2,PC13*%
%TO.N,/DIR1*%
X14966000Y-16737000D03*
%TO.P,U1,1,VBAT*%
%TO.N,+3V3*%
X14966000Y-16237000D03*
%TD*%
D23*
%TO.P,C23,1*%
%TO.N,+3V3*%
X14231000Y-13510000D03*
%TO.P,C23,2*%
%TO.N,GND*%
X15781000Y-13510000D03*
%TD*%
D26*
%TO.P,R6,1*%
%TO.N,/STATUS*%
X1049000Y-19798500D03*
%TO.P,R6,2*%
%TO.N,Net-(D2-Pad2)*%
X1049000Y-16873500D03*
%TD*%
D27*
%TO.P,FB2,2*%
%TO.N,+5V*%
X45245000Y-21739500D03*
%TO.P,FB2,1*%
%TO.N,Net-(C3-Pad1)*%
X45245000Y-23314500D03*
%TD*%
D23*
%TO.P,C26,1*%
%TO.N,+3V3*%
X15374000Y-15034000D03*
%TO.P,C26,2*%
%TO.N,GND*%
X16924000Y-15034000D03*
%TD*%
D28*
%TO.P,R7,1*%
%TO.N,+5V*%
X45687500Y-302000D03*
%TO.P,R7,2*%
%TO.N,Net-(D3-Pad2)*%
X48612500Y-302000D03*
%TD*%
D26*
%TO.P,R8,1*%
%TO.N,+3V3*%
X795000Y-13321500D03*
%TO.P,R8,2*%
%TO.N,Net-(D4-Pad2)*%
X795000Y-10396500D03*
%TD*%
D29*
%TO.P,C1,1*%
%TO.N,/XTAL1*%
X19959000Y-20736000D03*
%TO.P,C1,2*%
%TO.N,GND*%
X19959000Y-22286000D03*
%TD*%
D30*
%TO.P,C14,1*%
%TO.N,Net-(C14-Pad1)*%
X15908000Y-2982000D03*
%TO.P,C14,2*%
%TO.N,+12V*%
X15908000Y-1432000D03*
%TD*%
D31*
%TO.P,D5,1,K*%
%TO.N,Net-(D5-Pad1)*%
X-8317000Y-15796000D03*
%TO.P,D5,2,A*%
%TO.N,Net-(D5-Pad2)*%
X-4317000Y-15796000D03*
%TD*%
D10*
%TO.P,C9,1*%
%TO.N,+12V*%
X6461500Y-3731000D03*
%TO.P,C9,2*%
%TO.N,GND*%
X4911500Y-3731000D03*
%TD*%
D32*
%TO.P,U2,1,RO*%
%TO.N,/UART_RXD*%
X17357000Y-27988000D03*
%TO.P,U2,2,~{RE}*%
%TO.N,/RS485_TXE*%
X17357000Y-26718000D03*
%TO.P,U2,3,DE*%
X17357000Y-25448000D03*
%TO.P,U2,4,DI*%
%TO.N,/UART_TXD*%
X17357000Y-24178000D03*
%TO.P,U2,5,GND*%
%TO.N,GND*%
X22307000Y-24178000D03*
%TO.P,U2,6,A*%
%TO.N,/RS485_B*%
X22307000Y-25448000D03*
%TO.P,U2,7,B*%
%TO.N,/RS485_A*%
X22307000Y-26718000D03*
%TO.P,U2,8,VCC*%
%TO.N,+5V*%
X22307000Y-27988000D03*
%TD*%
D33*
%TO.P,R15,1*%
%TO.N,Net-(C20-Pad1)*%
X34958000Y-1255000D03*
%TO.P,R15,2*%
%TO.N,+12V*%
X34958000Y-2905000D03*
%TD*%
D28*
%TO.P,R10,1*%
%TO.N,Net-(R10-Pad1)*%
X11336000Y-1826000D03*
%TO.P,R10,2*%
%TO.N,GND*%
X14261000Y-1826000D03*
%TD*%
D10*
%TO.P,C33,1*%
%TO.N,+3V3*%
X29350000Y-27051000D03*
%TO.P,C33,2*%
%TO.N,GND*%
X27800000Y-27051000D03*
%TD*%
D34*
%TO.P,R14,1*%
%TO.N,Net-(R14-Pad1)*%
X20418500Y-1826000D03*
%TO.P,R14,2*%
%TO.N,GND*%
X17493500Y-1826000D03*
%TD*%
D10*
%TO.P,C11,1*%
%TO.N,/RST*%
X4237000Y-13256000D03*
%TO.P,C11,2*%
%TO.N,GND*%
X2687000Y-13256000D03*
%TD*%
D23*
%TO.P,C22,1*%
%TO.N,+12V*%
X38247000Y-3731000D03*
%TO.P,C22,2*%
%TO.N,GND*%
X39797000Y-3731000D03*
%TD*%
D10*
%TO.P,C15,1*%
%TO.N,+12V*%
X18969000Y-3731000D03*
%TO.P,C15,2*%
%TO.N,GND*%
X17419000Y-3731000D03*
%TD*%
D29*
%TO.P,C7,1*%
%TO.N,Net-(C7-Pad1)*%
X3781500Y-5242000D03*
%TO.P,C7,2*%
%TO.N,Net-(C7-Pad2)*%
X3781500Y-6792000D03*
%TD*%
D30*
%TO.P,C18,1*%
%TO.N,Net-(C18-Pad1)*%
X15654000Y-11364000D03*
%TO.P,C18,2*%
%TO.N,GND*%
X15654000Y-9814000D03*
%TD*%
D35*
%TO.P,R16,1*%
%TO.N,Net-(R16-Pad1)*%
X42324000Y-3538500D03*
%TO.P,R16,2*%
%TO.N,GND*%
X42324000Y-6463500D03*
%TD*%
D30*
%TO.P,C24,1*%
%TO.N,Net-(C24-Pad1)*%
X28100000Y-11364000D03*
%TO.P,C24,2*%
%TO.N,GND*%
X28100000Y-9814000D03*
%TD*%
D10*
%TO.P,C27,1*%
%TO.N,+3V3*%
X11717000Y-27480000D03*
%TO.P,C27,2*%
%TO.N,GND*%
X10167000Y-27480000D03*
%TD*%
%TO.P,C21,1*%
%TO.N,+12V*%
X31669000Y-3731000D03*
%TO.P,C21,2*%
%TO.N,GND*%
X30119000Y-3731000D03*
%TD*%
D36*
%TO.P,FB1,1*%
%TO.N,Net-(C5-Pad1)*%
X-2718000Y-27305000D03*
%TO.P,FB1,2*%
%TO.N,+12V*%
X432000Y-27305000D03*
%TD*%
D37*
%TO.P,D6,1,A1*%
%TO.N,Net-(D5-Pad1)*%
X-1638530Y-17881000D03*
%TO.P,D6,2,A2*%
%TO.N,GND*%
X-1638530Y-14981000D03*
%TD*%
D38*
%TO.P,R18,1*%
%TO.N,+5V*%
X26385000Y-18971000D03*
%TO.P,R18,2*%
%TO.N,Net-(R18-Pad2)*%
X24735000Y-18971000D03*
%TD*%
D39*
%TO.P,R9,1*%
%TO.N,Net-(C8-Pad1)*%
X3400500Y-3032000D03*
%TO.P,R9,2*%
%TO.N,+12V*%
X3400500Y-1382000D03*
%TD*%
D40*
%TO.P,D7,2,A2*%
%TO.N,GND*%
X44176000Y-27051000D03*
%TO.P,D7,1,A1*%
%TO.N,Net-(C3-Pad1)*%
X47076000Y-27051000D03*
%TD*%
D23*
%TO.P,C16,1*%
%TO.N,+12V*%
X25293000Y-3731000D03*
%TO.P,C16,2*%
%TO.N,GND*%
X26843000Y-3731000D03*
%TD*%
D30*
%TO.P,C20,1*%
%TO.N,Net-(C20-Pad1)*%
X28608000Y-2982000D03*
%TO.P,C20,2*%
%TO.N,+12V*%
X28608000Y-1432000D03*
%TD*%
D41*
%TO.P,U8,1,IO1*%
%TO.N,/SWCLK*%
X44036000Y-11345500D03*
%TO.P,U8,2,VN*%
%TO.N,GND*%
X43086000Y-11345500D03*
%TO.P,U8,3,IO2*%
%TO.N,/SWDIO*%
X42136000Y-11345500D03*
%TO.P,U8,4,IO3*%
%TO.N,/I2C_SDA*%
X42136000Y-9070500D03*
%TO.P,U8,5,VP*%
%TO.N,+5V*%
X43086000Y-9070500D03*
%TO.P,U8,6,IO4*%
%TO.N,/I2C_SCL*%
X44036000Y-9070500D03*
%TD*%
D34*
%TO.P,R4,1*%
%TO.N,/FAULT_ST*%
X160000Y-3731000D03*
%TO.P,R4,2*%
%TO.N,Net-(D1-Pad2)*%
X-2765000Y-3731000D03*
%TD*%
D42*
%TO.P,D9,1,K*%
%TO.N,/RS485_A*%
X23944500Y-20688000D03*
%TO.P,D9,2,K*%
%TO.N,/RS485_B*%
X23944500Y-22588000D03*
%TO.P,D9,3,A*%
%TO.N,GND*%
X22069500Y-21638000D03*
%TD*%
D30*
%TO.P,C17,1*%
%TO.N,+3V3*%
X16911000Y-22286000D03*
%TO.P,C17,2*%
%TO.N,GND*%
X16911000Y-20736000D03*
%TD*%
D29*
%TO.P,C2,1*%
%TO.N,/XTAL2*%
X18435000Y-20736000D03*
%TO.P,C2,2*%
%TO.N,GND*%
X18435000Y-22286000D03*
%TD*%
D34*
%TO.P,R1,2*%
%TO.N,Net-(D8-Pad2)*%
X-6509500Y-1318000D03*
%TO.P,R1,1*%
%TO.N,+12V*%
X-3584500Y-1318000D03*
%TD*%
D10*
%TO.P,C28,2*%
%TO.N,GND*%
X1658000Y-15034000D03*
%TO.P,C28,1*%
%TO.N,+3V3*%
X3208000Y-15034000D03*
%TD*%
D43*
%TO.P,U6,1,GND*%
%TO.N,GND*%
X37981000Y-22719000D03*
%TO.P,U6,2,VO*%
%TO.N,+3V3*%
X37981000Y-25019000D03*
D44*
X31681000Y-25019000D03*
D43*
%TO.P,U6,3,VI*%
%TO.N,+5V*%
X37981000Y-27319000D03*
%TD*%
D28*
%TO.P,R13,1*%
%TO.N,Net-(R13-Pad1)*%
X23970500Y-1826000D03*
%TO.P,R13,2*%
%TO.N,GND*%
X26895500Y-1826000D03*
%TD*%
D30*
%TO.P,C12,1*%
%TO.N,Net-(C12-Pad1)*%
X40292000Y-11491000D03*
%TO.P,C12,2*%
%TO.N,GND*%
X40292000Y-9941000D03*
%TD*%
D29*
%TO.P,C8,1*%
%TO.N,Net-(C8-Pad1)*%
X9623500Y-1432000D03*
%TO.P,C8,2*%
%TO.N,+12V*%
X9623500Y-2982000D03*
%TD*%
D33*
%TO.P,R12,1*%
%TO.N,Net-(C14-Pad1)*%
X22258000Y-1255000D03*
%TO.P,R12,2*%
%TO.N,+12V*%
X22258000Y-2905000D03*
%TD*%
D29*
%TO.P,C19,1*%
%TO.N,Net-(C19-Pad1)*%
X28354000Y-5369000D03*
%TO.P,C19,2*%
%TO.N,Net-(C19-Pad2)*%
X28354000Y-6919000D03*
%TD*%
D34*
%TO.P,R17,1*%
%TO.N,Net-(R17-Pad1)*%
X33245500Y-1826000D03*
%TO.P,R17,2*%
%TO.N,GND*%
X30320500Y-1826000D03*
%TD*%
D29*
%TO.P,C13,1*%
%TO.N,Net-(C13-Pad1)*%
X16162000Y-5369000D03*
%TO.P,C13,2*%
%TO.N,Net-(C13-Pad2)*%
X16162000Y-6919000D03*
%TD*%
D39*
%TO.P,R5,1*%
%TO.N,/RS485_A*%
X24404000Y-26908000D03*
%TO.P,R5,2*%
%TO.N,/RS485_B*%
X24404000Y-25258000D03*
%TD*%
D34*
%TO.P,R11,1*%
%TO.N,Net-(R11-Pad1)*%
X7911000Y-1826000D03*
%TO.P,R11,2*%
%TO.N,GND*%
X4986000Y-1826000D03*
%TD*%
D45*
%TO.P,Q1,1,G*%
%TO.N,GND*%
X50767000Y-26512500D03*
%TO.P,Q1,2,S*%
%TO.N,Net-(C3-Pad1)*%
X48867000Y-26512500D03*
%TO.P,Q1,3,D*%
%TO.N,/RAW_5V*%
X49817000Y-24637500D03*
%TD*%
D46*
%TO.P,F1,1*%
%TO.N,Net-(C5-Pad1)*%
X-6571000Y-25660500D03*
%TO.P,F1,2*%
%TO.N,Net-(D5-Pad1)*%
X-6571000Y-18885500D03*
%TD*%
D47*
%TO.N,GND*%
X21209000Y-17653000D03*
%TO.N,+3V3*%
X28448000Y-19685000D03*
%TO.N,/SWO*%
X29845000Y-20320000D03*
X6985000Y-17399000D03*
%TO.N,GND*%
X32037000Y-7541000D03*
X32926000Y-7541000D03*
X33815000Y-7541000D03*
X34704000Y-7541000D03*
X35593000Y-7541000D03*
X36482000Y-7541000D03*
X36482000Y-8430000D03*
X35593000Y-8430000D03*
X34704000Y-8430000D03*
X33815000Y-8430000D03*
X32926000Y-8430000D03*
X32037000Y-8430000D03*
X32037000Y-9319000D03*
X32926000Y-9319000D03*
X33815000Y-9319000D03*
X34704000Y-9319000D03*
X35593000Y-9319000D03*
X36482000Y-9319000D03*
X19845000Y-7668000D03*
X20734000Y-7668000D03*
X21623000Y-7668000D03*
X22512000Y-7668000D03*
X23401000Y-7668000D03*
X24290000Y-7668000D03*
X24290000Y-8557000D03*
X23401000Y-8557000D03*
X22512000Y-8557000D03*
X21623000Y-8557000D03*
X20734000Y-8557000D03*
X19845000Y-8557000D03*
X24290000Y-9446000D03*
X23401000Y-9446000D03*
X22512000Y-9446000D03*
X21623000Y-9446000D03*
X20734000Y-9446000D03*
X19845000Y-9446000D03*
X11971000Y-7541000D03*
X11082000Y-7541000D03*
X10193000Y-7541000D03*
X9304000Y-7541000D03*
X8415000Y-7541000D03*
X7526000Y-7541000D03*
X7526000Y-8430000D03*
X8415000Y-8430000D03*
X9304000Y-8430000D03*
X10193000Y-8430000D03*
X11082000Y-8430000D03*
X11971000Y-8430000D03*
X11971000Y-9319000D03*
X11082000Y-9319000D03*
X10193000Y-9319000D03*
X9304000Y-9319000D03*
X8415000Y-9319000D03*
X7526000Y-9319000D03*
%TO.N,/SWDIO*%
X41689000Y-14272000D03*
%TO.N,/STEP_EN*%
X25687000Y-7795000D03*
%TO.N,/DECAY*%
X12331284Y-18420500D03*
%TO.N,GND*%
X3589000Y1095000D03*
%TO.N,/DIR1*%
X13152169Y-17850282D03*
%TO.N,/MODE2*%
X5342892Y-20667988D03*
%TO.N,/FAULT*%
X5391297Y-21733876D03*
%TO.N,/DIR2*%
X5288500Y-22781000D03*
%TO.N,GND*%
X-1364000Y-16558000D03*
X7843500Y-23606500D03*
X27338000Y-24686000D03*
X42959000Y-26210000D03*
X35593000Y-23670000D03*
X26893500Y-111500D03*
X13622000Y-28115000D03*
X27211000Y-7795000D03*
X40292000Y-8557000D03*
X3589000Y-11097000D03*
X42578000Y-27988000D03*
X35593000Y-26972000D03*
X15908000Y-8176000D03*
X43721000Y-25448000D03*
X16322243Y-14250939D03*
X50706000Y-27861000D03*
X40736500Y-6207500D03*
X11741179Y-16972084D03*
X22307000Y-23211000D03*
X-1872000Y3254000D03*
X-8603000Y-27734000D03*
X18321000Y-556000D03*
X49690000Y-27988000D03*
X122500Y-14907000D03*
X42832000Y-13129000D03*
X1303000Y-25829000D03*
%TO.N,+5V*%
X38895000Y-9700000D03*
X32291000Y-21257000D03*
X26322000Y-9827000D03*
X13876000Y-9700000D03*
%TO.N,+12V*%
X18836118Y-2894209D03*
X40292000Y-5001000D03*
X13052500Y-3096000D03*
X3398500Y-27797500D03*
X31529000Y-2080000D03*
X29243000Y-302000D03*
X9751000Y-3985000D03*
X25580900Y-2843392D03*
X4416500Y-175000D03*
X15908000Y-48000D03*
X22131000Y-3985000D03*
X5906950Y-3187387D03*
X36228000Y-2080000D03*
%TO.N,Net-(C8-Pad1)*%
X9623500Y-574000D03*
X6343070Y-7054570D03*
X3654500Y-4112000D03*
%TO.N,Net-(C14-Pad1)*%
X18785065Y-7051575D03*
X16162000Y-3985000D03*
X22470073Y-576535D03*
%TO.N,Net-(C20-Pad1)*%
X35974000Y-302000D03*
X28735000Y-4112000D03*
X30961799Y-7100799D03*
%TO.N,Net-(D1-Pad2)*%
X-4793000Y-3858000D03*
%TO.N,Net-(D2-Pad2)*%
X122500Y-18336000D03*
%TO.N,Net-(D3-Pad2)*%
X48801000Y1857000D03*
%TO.N,Net-(D4-Pad2)*%
X1938000Y-10233500D03*
%TO.N,Net-(C3-Pad1)*%
X40927000Y-27226000D03*
%TO.N,Net-(C5-Pad1)*%
X-2126000Y-25829000D03*
%TO.N,+3V3*%
X20226000Y-23797000D03*
X29370000Y-25321000D03*
%TO.N,/RST*%
X18575000Y-15441000D03*
X39403000Y-12748000D03*
X25623500Y-17510500D03*
X9304000Y-18971000D03*
X3589000Y-12113000D03*
%TO.N,/I2C_SDA*%
X12220914Y-16095238D03*
%TO.N,/I2C_SCL*%
X11222715Y-16044209D03*
%TO.N,Net-(C29-Pad1)*%
X7145000Y-27734000D03*
%TO.N,Net-(R18-Pad2)*%
X23210500Y-18526500D03*
%TO.N,/Stepper module/VREF*%
X3081000Y-9700000D03*
X14892000Y-5763000D03*
X39657000Y-6741500D03*
X27211000Y-5382000D03*
%TO.N,/MODE0*%
X32883603Y-13285427D03*
X20506000Y-13091500D03*
X8034000Y-12748000D03*
%TO.N,/MODE1*%
X19487050Y-13114550D03*
X32048000Y-12737000D03*
X5494000Y-12621000D03*
%TO.N,Net-(D8-Pad2)*%
X-5301000Y206000D03*
%TO.N,/RS485_A*%
X19972000Y-27099000D03*
%TO.N,/DECAY*%
X36265500Y-13378701D03*
X11997155Y-12899038D03*
X23274000Y-14425500D03*
%TO.N,/STEP0*%
X9111703Y-12694895D03*
X11486050Y-21242550D03*
%TO.N,/FAULT*%
X38260000Y-13383000D03*
X25560000Y-13429992D03*
X13260245Y-12908361D03*
%TO.N,/MODE2*%
X28653774Y-8822500D03*
X18485500Y-13091500D03*
X6002000Y-9573000D03*
%TO.N,/RS485_B*%
X19023789Y-26782930D03*
%TO.N,/DIR1*%
X22673645Y-13430492D03*
%TO.N,/DIR2*%
X35231438Y-13168155D03*
%TO.N,/STEP_EN*%
X21440001Y-14207403D03*
X10088209Y-12481726D03*
%TO.N,/STEP1*%
X23401000Y-16812000D03*
X9685000Y-23543000D03*
%TO.N,/STEP2*%
X9177000Y-16558000D03*
X33666609Y-12664213D03*
%TO.N,/SWCLK*%
X6002000Y-16177000D03*
%TO.N,/SWDIO*%
X6166500Y-19098000D03*
%TD*%
D48*
%TO.N,Net-(C5-Pad1)*%
X-5194000Y-27686000D02*
X-6571000Y-26309000D01*
%TO.N,GND*%
X-6744000Y-27686000D02*
X-8555000Y-27686000D01*
X-8555000Y-27686000D02*
X-8603000Y-27734000D01*
%TO.N,Net-(C5-Pad1)*%
X-2718000Y-27305000D02*
X-4813000Y-27305000D01*
X-4813000Y-27305000D02*
X-5194000Y-27686000D01*
%TO.N,GND*%
X45707000Y-24892000D02*
X44277000Y-24892000D01*
X44277000Y-24892000D02*
X43721000Y-25448000D01*
%TO.N,Net-(C3-Pad1)*%
X47257000Y-24892000D02*
X45679500Y-23314500D01*
X45679500Y-23314500D02*
X45245000Y-23314500D01*
X48867000Y-26502000D02*
X47257000Y-24892000D01*
%TO.N,GND*%
X44176000Y-27051000D02*
X43515000Y-27051000D01*
X43515000Y-27051000D02*
X42578000Y-27988000D01*
%TO.N,Net-(C3-Pad1)*%
X47076000Y-27051000D02*
X48328500Y-27051000D01*
X48328500Y-27051000D02*
X48867000Y-26512500D01*
%TO.N,GND*%
X20740000Y-17184000D02*
X21209000Y-17653000D01*
X19896000Y-17184000D02*
X20740000Y-17184000D01*
%TO.N,/XTAL1*%
X14966000Y-18237000D02*
X15806685Y-18237000D01*
X16256000Y-17787685D02*
X16256000Y-16637000D01*
X21502000Y-18884000D02*
X19896000Y-18884000D01*
X15806685Y-18237000D02*
X16256000Y-17787685D01*
X21590000Y-16256000D02*
X21971000Y-16637000D01*
X16256000Y-16637000D02*
X16634000Y-16259000D01*
X16634000Y-16259000D02*
X20450000Y-16259000D01*
X20450000Y-16259000D02*
X20453000Y-16256000D01*
X20453000Y-16256000D02*
X21590000Y-16256000D01*
X21971000Y-16637000D02*
X21971000Y-18415000D01*
X21971000Y-18415000D02*
X21502000Y-18884000D01*
%TO.N,/XTAL2*%
X17496081Y-17184000D02*
X15943081Y-18737000D01*
X15943081Y-18737000D02*
X14966000Y-18737000D01*
%TO.N,GND*%
X17696000Y-18884000D02*
X17696000Y-19951000D01*
X17696000Y-19951000D02*
X16911000Y-20736000D01*
%TO.N,/XTAL2*%
X18721000Y-20450000D02*
X18721000Y-17578000D01*
X18721000Y-17578000D02*
X18327000Y-17184000D01*
X18327000Y-17184000D02*
X17696000Y-17184000D01*
%TO.N,/XTAL1*%
X19959000Y-20736000D02*
X19959000Y-18947000D01*
%TO.N,Net-(C5-Pad1)*%
X-2126000Y-25829000D02*
X-2126000Y-26713000D01*
X-2126000Y-26713000D02*
X-2718000Y-27305000D01*
%TO.N,+12V*%
X432000Y-27305000D02*
X2906000Y-27305000D01*
X2906000Y-27305000D02*
X3398500Y-27797500D01*
%TO.N,+3V3*%
X31681000Y-25067000D02*
X29697000Y-27051000D01*
X29370000Y-25321000D02*
X29370000Y-27031000D01*
X29697000Y-27051000D02*
X29350000Y-27051000D01*
%TO.N,GND*%
X27800000Y-27051000D02*
X27800000Y-25148000D01*
X27800000Y-25148000D02*
X27338000Y-24686000D01*
%TO.N,Net-(C3-Pad1)*%
X40927000Y-26795363D02*
X40927000Y-27226000D01*
X44407863Y-23314500D02*
X40965681Y-26756682D01*
X45245000Y-23314500D02*
X44407863Y-23314500D01*
X40965681Y-26756682D02*
X40927000Y-26795363D01*
%TO.N,+3V3*%
X37981000Y-25019000D02*
X31681000Y-25019000D01*
%TO.N,+5V*%
X37981000Y-27319000D02*
X39766967Y-27319000D01*
%TO.N,GND*%
X37981000Y-22719000D02*
X36544000Y-22719000D01*
X36544000Y-22719000D02*
X35593000Y-23670000D01*
%TO.N,+5V*%
X39766967Y-27319000D02*
X45245000Y-21840967D01*
%TO.N,+3V3*%
X31496000Y-17145000D02*
X31496000Y-17852106D01*
X31496000Y-17852106D02*
X30298106Y-19050000D01*
X30298106Y-19050000D02*
X29083000Y-19050000D01*
X29083000Y-19050000D02*
X28448000Y-19685000D01*
%TO.N,+5V*%
X26385000Y-26401000D02*
X26385000Y-18971000D01*
X24798000Y-27988000D02*
X26385000Y-26401000D01*
X22307000Y-27988000D02*
X24798000Y-27988000D01*
%TO.N,/SWO*%
X38735000Y-15597273D02*
X38735000Y-17780000D01*
X38187727Y-15050000D02*
X38735000Y-15597273D01*
X34861000Y-15050000D02*
X38187727Y-15050000D01*
X34036000Y-15875000D02*
X34861000Y-15050000D01*
X38735000Y-17780000D02*
X36195000Y-20320000D01*
X36195000Y-20320000D02*
X29845000Y-20320000D01*
%TO.N,/SWCLK*%
X44036000Y-11345500D02*
X44036000Y-12950305D01*
X44036000Y-12950305D02*
X41989305Y-14997000D01*
X41989305Y-14997000D02*
X41388695Y-14997000D01*
X41388695Y-14997000D02*
X40869695Y-14478000D01*
X40869695Y-14478000D02*
X34163000Y-14478000D01*
X34163000Y-14478000D02*
X32766000Y-15875000D01*
%TO.N,/SWO*%
X8541000Y-15843000D02*
X6985000Y-17399000D01*
X8541000Y-14312000D02*
X8541000Y-15843000D01*
%TO.N,/MODE0*%
X8034000Y-12748000D02*
X7541000Y-13241000D01*
X7541000Y-13241000D02*
X7541000Y-14312000D01*
%TO.N,GND*%
X122500Y-14907000D02*
X1531000Y-14907000D01*
%TO.N,Net-(D5-Pad2)*%
X-4757000Y-15356000D02*
X-4757000Y-9791000D01*
X-4757000Y-9791000D02*
X-2184500Y-7218500D01*
X-2184500Y-7218500D02*
X318000Y-7218500D01*
%TO.N,Net-(D5-Pad1)*%
X-6571000Y-18885500D02*
X-8317000Y-17139500D01*
X-8317000Y-17139500D02*
X-8317000Y-15796000D01*
X-6571000Y-18885500D02*
X-5566500Y-17881000D01*
X-5566500Y-17881000D02*
X-1638530Y-17881000D01*
%TO.N,/RAW_5V*%
X49817000Y-24637500D02*
X49817000Y-22908000D01*
X49817000Y-22908000D02*
X48547000Y-21638000D01*
%TO.N,GND*%
X50706000Y-27861000D02*
X50706000Y-26573500D01*
X49690000Y-27988000D02*
X50579000Y-27988000D01*
X50579000Y-27988000D02*
X50706000Y-27861000D01*
X42959000Y-26210000D02*
X43721000Y-25448000D01*
X42578000Y-27988000D02*
X42578000Y-26591000D01*
X42578000Y-26591000D02*
X42959000Y-26210000D01*
%TO.N,Net-(C24-Pad1)*%
X28100000Y-11364000D02*
X26427500Y-11364000D01*
%TO.N,/STEP_EN*%
X27047000Y-9499000D02*
X26486000Y-8938000D01*
X27622183Y-10589000D02*
X27047000Y-10013817D01*
X28577817Y-10589000D02*
X27622183Y-10589000D01*
X31402000Y-14018000D02*
X28900000Y-11516000D01*
X26486000Y-8938000D02*
X26322000Y-8938000D01*
X28900000Y-11516000D02*
X28900000Y-10911183D01*
X34323000Y-13383000D02*
X33688000Y-14018000D01*
X33688000Y-14018000D02*
X31402000Y-14018000D01*
X28900000Y-10911183D02*
X28577817Y-10589000D01*
X27047000Y-10013817D02*
X27047000Y-9499000D01*
X34323000Y-13051288D02*
X34323000Y-13383000D01*
X34648000Y-12726288D02*
X34323000Y-13051288D01*
X34648000Y-11292500D02*
X34648000Y-12726288D01*
X26322000Y-8938000D02*
X25687000Y-8303000D01*
X25687000Y-8303000D02*
X25687000Y-7795000D01*
%TO.N,GND*%
X30098000Y-11292500D02*
X30098000Y-10428000D01*
X30098000Y-10428000D02*
X29484000Y-9814000D01*
X29484000Y-9814000D02*
X28100000Y-9814000D01*
%TO.N,/SWDIO*%
X42136000Y-11345500D02*
X42136000Y-12799695D01*
X42136000Y-12799695D02*
X41689000Y-13246695D01*
X41689000Y-13246695D02*
X41689000Y-14272000D01*
%TO.N,GND*%
X27211000Y-7795000D02*
X27211000Y-8925000D01*
X27211000Y-8925000D02*
X28100000Y-9814000D01*
%TO.N,/STEP2*%
X33998000Y-12332822D02*
X33998000Y-11292500D01*
X33666609Y-12664213D02*
X33998000Y-12332822D01*
%TO.N,/MODE0*%
X32883603Y-13285427D02*
X32704240Y-13106064D01*
X32773000Y-13037305D02*
X32773000Y-12436695D01*
X32704240Y-13106064D02*
X32773000Y-13037305D01*
X32773000Y-12436695D02*
X32698000Y-12361695D01*
X32698000Y-12361695D02*
X32698000Y-11292500D01*
%TO.N,/DIR2*%
X35298000Y-13101593D02*
X35298000Y-11292500D01*
X35231438Y-13168155D02*
X35298000Y-13101593D01*
%TO.N,/DECAY*%
X36265500Y-13378701D02*
X35948000Y-13061201D01*
X35948000Y-13061201D02*
X35948000Y-11292500D01*
%TO.N,+5V*%
X38895000Y-9700000D02*
X38365000Y-10230000D01*
X38365000Y-10230000D02*
X37621959Y-10230000D01*
X38895000Y-9700000D02*
X38895000Y-8557000D01*
X42194751Y-7795000D02*
X43086000Y-8686249D01*
X39657000Y-7795000D02*
X42194751Y-7795000D01*
X37621959Y-10230000D02*
X37248000Y-10603959D01*
X37248000Y-10603959D02*
X37248000Y-11292500D01*
X38895000Y-8557000D02*
X39657000Y-7795000D01*
%TO.N,Net-(C18-Pad1)*%
X15654000Y-11364000D02*
X14105500Y-11364000D01*
X14105500Y-11364000D02*
X13975500Y-11234000D01*
%TO.N,+3V3*%
X6891000Y-18671315D02*
X7607315Y-17955000D01*
X14003000Y-15974146D02*
X14003000Y-15415000D01*
X7607315Y-17955000D02*
X11590000Y-17955000D01*
X11590000Y-17955000D02*
X11849500Y-17695500D01*
X11849500Y-17695500D02*
X12281646Y-17695500D01*
X12281646Y-17695500D02*
X14003000Y-15974146D01*
%TO.N,/DECAY*%
X14125315Y-17737000D02*
X14966000Y-17737000D01*
X12500784Y-18590000D02*
X13495000Y-18590000D01*
X13866000Y-17996315D02*
X14125315Y-17737000D01*
X12331284Y-18420500D02*
X12500784Y-18590000D01*
X13495000Y-18590000D02*
X13866000Y-18219000D01*
X13866000Y-18219000D02*
X13866000Y-17996315D01*
%TO.N,+3V3*%
X14384000Y-15034000D02*
X14003000Y-15415000D01*
X15374000Y-15034000D02*
X14384000Y-15034000D01*
%TO.N,/RST*%
X18930000Y-15796000D02*
X21951000Y-15796000D01*
X14112959Y-12710000D02*
X13325500Y-11922541D01*
X18575000Y-15441000D02*
X18930000Y-15796000D01*
X25597000Y-17537000D02*
X25623500Y-17510500D01*
X13325500Y-11922541D02*
X13325500Y-11234000D01*
X18067000Y-14543183D02*
X16233817Y-12710000D01*
X18575000Y-15441000D02*
X18067000Y-14933000D01*
X18067000Y-14933000D02*
X18067000Y-14543183D01*
X16233817Y-12710000D02*
X14112959Y-12710000D01*
X22676000Y-17230000D02*
X22983000Y-17537000D01*
X21951000Y-15796000D02*
X22676000Y-16521000D01*
X22676000Y-16521000D02*
X22676000Y-17230000D01*
X22983000Y-17537000D02*
X25597000Y-17537000D01*
%TO.N,/DIR1*%
X13152169Y-17850282D02*
X13152169Y-17662831D01*
X13152169Y-17662831D02*
X14078000Y-16737000D01*
X14078000Y-16737000D02*
X14966000Y-16737000D01*
%TO.N,GND*%
X4171805Y1095000D02*
X3589000Y1095000D01*
X5141500Y125305D02*
X4171805Y1095000D01*
X5141500Y-1670500D02*
X5141500Y125305D01*
%TO.N,/MODE2*%
X5342892Y-20667988D02*
X5273880Y-20737000D01*
X5273880Y-20737000D02*
X3616000Y-20737000D01*
%TO.N,/FAULT*%
X5391297Y-21733876D02*
X4894421Y-21237000D01*
X4894421Y-21237000D02*
X3616000Y-21237000D01*
%TO.N,/DIR2*%
X5288500Y-22781000D02*
X4716000Y-22208500D01*
X4716000Y-22208500D02*
X4716000Y-21996315D01*
X4716000Y-21996315D02*
X4456685Y-21737000D01*
X4456685Y-21737000D02*
X3616000Y-21737000D01*
%TO.N,/RST*%
X9570000Y-19237000D02*
X9304000Y-18971000D01*
X14966000Y-19237000D02*
X9570000Y-19237000D01*
%TO.N,/DECAY*%
X11997155Y-12530592D02*
X11763063Y-12296500D01*
X11763063Y-12296500D02*
X11749459Y-12296500D01*
X11997155Y-12899038D02*
X11997155Y-12530592D01*
X11749459Y-12296500D02*
X11375500Y-11922541D01*
X11375500Y-11922541D02*
X11375500Y-11234000D01*
%TO.N,/STATUS*%
X3616000Y-19737000D02*
X1110500Y-19737000D01*
%TO.N,/DIR0*%
X10725500Y-11234000D02*
X10813209Y-11321709D01*
X10541000Y-13054240D02*
X10541000Y-14312000D01*
X10813209Y-11321709D02*
X10813209Y-12782031D01*
X10813209Y-12782031D02*
X10541000Y-13054240D01*
%TO.N,/STEP_EN*%
X10088209Y-12481726D02*
X10075500Y-12469017D01*
X9541000Y-13421315D02*
X9541000Y-14312000D01*
X10088209Y-12874106D02*
X9541000Y-13421315D01*
X10088209Y-12481726D02*
X10088209Y-12874106D01*
X10075500Y-12469017D02*
X10075500Y-11234000D01*
%TO.N,/STEP0*%
X9051541Y-12296500D02*
X9425500Y-11922541D01*
X9425500Y-11922541D02*
X9425500Y-11234000D01*
X9111703Y-12694895D02*
X9051541Y-12634733D01*
X9051541Y-12634733D02*
X9051541Y-12296500D01*
%TO.N,/MODE1*%
X5494000Y-12621000D02*
X6041000Y-13168000D01*
X6041000Y-13168000D02*
X6041000Y-14312000D01*
%TO.N,GND*%
X22307000Y-21875500D02*
X22069500Y-21638000D01*
X12541000Y-27908817D02*
X12169817Y-28280000D01*
X30119000Y-3731000D02*
X30119000Y-2027500D01*
X26895500Y-113500D02*
X26893500Y-111500D01*
X10497715Y-15695970D02*
X11041000Y-15152685D01*
X12945914Y-16395543D02*
X12945914Y-15794933D01*
X16322243Y-14432243D02*
X17178000Y-15288000D01*
X15910000Y-21737000D02*
X16911000Y-20736000D01*
X5525500Y-11234000D02*
X5388500Y-11097000D01*
X12521219Y-16820238D02*
X12945914Y-16395543D01*
X11893025Y-16820238D02*
X12521219Y-16820238D01*
X11741179Y-16972084D02*
X11538304Y-16769209D01*
X12169817Y-28280000D02*
X10967000Y-28280000D01*
X17112500Y-2207000D02*
X14642000Y-2207000D01*
X2801000Y-26083000D02*
X1557000Y-26083000D01*
X16322243Y-14051243D02*
X15781000Y-13510000D01*
X21421500Y-22286000D02*
X22069500Y-21638000D01*
X13975500Y-5509000D02*
X13975500Y-3837000D01*
X-1364000Y-16558000D02*
X-1364000Y-15255530D01*
X17493500Y-1826000D02*
X17493500Y-3656500D01*
X17906000Y-11292500D02*
X17132500Y-11292500D01*
X15654000Y-9814000D02*
X15654000Y-8430000D01*
X26895500Y-1826000D02*
X26895500Y-113500D01*
X14966000Y-21737000D02*
X15910000Y-21737000D01*
X22307000Y-23211000D02*
X22307000Y-24178000D01*
X2687000Y-11618000D02*
X2687000Y-13256000D01*
X26843000Y-3731000D02*
X26843000Y-1878500D01*
X38997500Y-6017000D02*
X40546000Y-6017000D01*
X12945914Y-15794933D02*
X12541000Y-15390019D01*
X11041000Y-15152685D02*
X11041000Y-14312000D01*
X6041000Y-25662000D02*
X6041000Y-24393000D01*
X15654000Y-8430000D02*
X15908000Y-8176000D01*
X16322243Y-14250939D02*
X16322243Y-14051243D01*
X10967000Y-28280000D02*
X10167000Y-27480000D01*
X4986000Y-1826000D02*
X4986000Y-3656500D01*
X17132500Y-11292500D02*
X15654000Y-9814000D01*
X17493500Y-1383500D02*
X18321000Y-556000D01*
X1557000Y-26083000D02*
X1303000Y-25829000D01*
X14261000Y-1826000D02*
X14261000Y-3551500D01*
X10922410Y-16769209D02*
X10497715Y-16344514D01*
X2775315Y-16737000D02*
X2516000Y-16477685D01*
X43086000Y-11345500D02*
X43086000Y-12875000D01*
X6041000Y-24393000D02*
X6827500Y-23606500D01*
X42324000Y-6463500D02*
X42324000Y-6007695D01*
X2516000Y-15866000D02*
X1684000Y-15034000D01*
X11741179Y-16972084D02*
X11893025Y-16820238D01*
X12541000Y-27908817D02*
X13415817Y-27908817D01*
X19959000Y-22286000D02*
X21421500Y-22286000D01*
X10497715Y-16344514D02*
X10497715Y-15695970D01*
X16322243Y-14250939D02*
X16322243Y-14432243D01*
X3589000Y-11097000D02*
X3208000Y-11097000D01*
X43086000Y-12875000D02*
X42832000Y-13129000D01*
X40736500Y-6207500D02*
X40546000Y-6017000D01*
X29939500Y-2207000D02*
X27276500Y-2207000D01*
X3208000Y-11097000D02*
X2687000Y-11618000D01*
X22307000Y-24178000D02*
X22307000Y-21875500D01*
X16911000Y-20762000D02*
X18435000Y-22286000D01*
X12541000Y-25662000D02*
X12541000Y-27908817D01*
X40992500Y-6463500D02*
X40736500Y-6207500D01*
X26356000Y-4218000D02*
X26843000Y-3731000D01*
X3616000Y-16737000D02*
X2775315Y-16737000D01*
X12541000Y-15390019D02*
X12541000Y-14312000D01*
X18435000Y-22286000D02*
X19959000Y-22286000D01*
X42324000Y-6463500D02*
X40992500Y-6463500D01*
X38548000Y-5567500D02*
X38997500Y-6017000D01*
X5388500Y-11097000D02*
X3589000Y-11097000D01*
X40292000Y-9941000D02*
X40292000Y-8557000D01*
X42324000Y-6007695D02*
X40047305Y-3731000D01*
X6827500Y-23606500D02*
X7843500Y-23606500D01*
X11538304Y-16769209D02*
X10922410Y-16769209D01*
X26356000Y-5567500D02*
X26356000Y-4218000D01*
X13415817Y-27908817D02*
X13622000Y-28115000D01*
X2516000Y-16477685D02*
X2516000Y-15866000D01*
%TO.N,+5V*%
X32558999Y-21524999D02*
X32291000Y-21257000D01*
X45687500Y-5447500D02*
X43086000Y-8049000D01*
X26385000Y-18971000D02*
X28671000Y-21257000D01*
X25919000Y-10230000D02*
X26322000Y-9827000D01*
X25056000Y-10603959D02*
X25429959Y-10230000D01*
X12675500Y-10392500D02*
X13368000Y-9700000D01*
X43086000Y-8049000D02*
X43086000Y-9070500D01*
X28671000Y-21257000D02*
X32291000Y-21257000D01*
X12675500Y-11234000D02*
X12675500Y-10392500D01*
X45030499Y-21524999D02*
X32558999Y-21524999D01*
X25056000Y-11292500D02*
X25056000Y-10603959D01*
X45687500Y-302000D02*
X45687500Y-5447500D01*
X25429959Y-10230000D02*
X25919000Y-10230000D01*
X13368000Y-9700000D02*
X13876000Y-9700000D01*
%TO.N,+12V*%
X25293000Y-3131292D02*
X25293000Y-3731000D01*
X13052500Y-3210000D02*
X12531500Y-3731000D01*
X31669000Y-3731000D02*
X31669000Y-2220000D01*
X5906950Y-3187387D02*
X5917887Y-3187387D01*
X35403000Y-2905000D02*
X36228000Y-2080000D01*
X19856000Y-5567500D02*
X19856000Y-4618000D01*
X32048000Y-5567500D02*
X32048000Y-4110000D01*
X9751000Y-3985000D02*
X9751000Y-3109500D01*
X28608000Y-937000D02*
X29243000Y-302000D01*
X39784000Y-5001000D02*
X40292000Y-5001000D01*
X32048000Y-4110000D02*
X31669000Y-3731000D01*
X18836118Y-2894209D02*
X18969000Y-3027091D01*
X34958000Y-2905000D02*
X35403000Y-2905000D01*
X24406000Y-4618000D02*
X25293000Y-3731000D01*
X-2507000Y-2334000D02*
X2448500Y-2334000D01*
X38514000Y-3731000D02*
X39784000Y-5001000D01*
X36598000Y-5567500D02*
X36598000Y-4878959D01*
X2448500Y-2334000D02*
X3400500Y-1382000D01*
X12025500Y-4123000D02*
X12025500Y-5509000D01*
X13052500Y-3096000D02*
X12025500Y-4123000D01*
X25580900Y-2843392D02*
X25293000Y-3131292D01*
X7475500Y-4745000D02*
X6461500Y-3731000D01*
X7475500Y-5509000D02*
X7475500Y-4745000D01*
X24406000Y-5567500D02*
X24406000Y-4618000D01*
X3400500Y-1191000D02*
X4416500Y-175000D01*
X5917887Y-3187387D02*
X6461500Y-3731000D01*
X18969000Y-3027091D02*
X18969000Y-3731000D01*
X31669000Y-2220000D02*
X31529000Y-2080000D01*
X22258000Y-3858000D02*
X22131000Y-3985000D01*
X37745959Y-3731000D02*
X38247000Y-3731000D01*
X22258000Y-2905000D02*
X22258000Y-3858000D01*
X36598000Y-4878959D02*
X37745959Y-3731000D01*
X-3365999Y-1475001D02*
X-2507000Y-2334000D01*
X13052500Y-3096000D02*
X13052500Y-3210000D01*
X28608000Y-1432000D02*
X28608000Y-937000D01*
X15908000Y-1432000D02*
X15908000Y-48000D01*
X19856000Y-4618000D02*
X18969000Y-3731000D01*
%TO.N,Net-(C7-Pad1)*%
X5525500Y-5509000D02*
X4048500Y-5509000D01*
%TO.N,Net-(C7-Pad2)*%
X6175500Y-5509000D02*
X6175500Y-6197541D01*
X5581041Y-6792000D02*
X3781500Y-6792000D01*
X6175500Y-6197541D02*
X5581041Y-6792000D01*
%TO.N,Net-(C8-Pad1)*%
X9623500Y-1432000D02*
X9623500Y-574000D01*
X6343070Y-6679971D02*
X6825500Y-6197541D01*
X3400500Y-3858000D02*
X3654500Y-4112000D01*
X6343070Y-7054570D02*
X6343070Y-6679971D01*
X6825500Y-6197541D02*
X6825500Y-5509000D01*
X3400500Y-3032000D02*
X3400500Y-3858000D01*
%TO.N,Net-(C13-Pad1)*%
X17906000Y-5567500D02*
X16360500Y-5567500D01*
%TO.N,Net-(C13-Pad2)*%
X16847500Y-6919000D02*
X17136500Y-6630000D01*
X16162000Y-6919000D02*
X16847500Y-6919000D01*
X17136500Y-6630000D02*
X18182041Y-6630000D01*
X18556000Y-6256041D02*
X18556000Y-5567500D01*
X18182041Y-6630000D02*
X18556000Y-6256041D01*
%TO.N,Net-(C14-Pad1)*%
X19206000Y-5567500D02*
X19206000Y-6630640D01*
X15908000Y-3731000D02*
X16162000Y-3985000D01*
X22258000Y-788608D02*
X22258000Y-1255000D01*
X22470073Y-576535D02*
X22258000Y-788608D01*
X19206000Y-6630640D02*
X18785065Y-7051575D01*
X15908000Y-2982000D02*
X15908000Y-3731000D01*
%TO.N,Net-(C19-Pad1)*%
X30098000Y-5567500D02*
X28552500Y-5567500D01*
%TO.N,Net-(C19-Pad2)*%
X30119000Y-6919000D02*
X28354000Y-6919000D01*
X30748000Y-6290000D02*
X30119000Y-6919000D01*
X30748000Y-5567500D02*
X30748000Y-6290000D01*
%TO.N,Net-(C20-Pad1)*%
X28608000Y-2982000D02*
X28608000Y-3985000D01*
X30961799Y-7100799D02*
X30961799Y-7092201D01*
X28608000Y-3985000D02*
X28735000Y-4112000D01*
X35021000Y-1255000D02*
X35974000Y-302000D01*
X30961799Y-7092201D02*
X31398000Y-6656000D01*
X31398000Y-6656000D02*
X31398000Y-5567500D01*
%TO.N,Net-(D1-Pad2)*%
X-4666000Y-3731000D02*
X-4793000Y-3858000D01*
X-2765000Y-3731000D02*
X-4666000Y-3731000D01*
%TO.N,Net-(D2-Pad2)*%
X1049000Y-17409500D02*
X122500Y-18336000D01*
X1049000Y-16873500D02*
X1049000Y-17409500D01*
%TO.N,Net-(D3-Pad2)*%
X48612500Y1668500D02*
X48801000Y1857000D01*
X48612500Y-302000D02*
X48612500Y1668500D01*
%TO.N,Net-(D4-Pad2)*%
X1775000Y-10396500D02*
X795000Y-10396500D01*
X1938000Y-10233500D02*
X1775000Y-10396500D01*
%TO.N,+3V3*%
X3208000Y-15034000D02*
X1495500Y-13321500D01*
X18041000Y-23416000D02*
X19845000Y-23416000D01*
X6891000Y-18671315D02*
X6891000Y-22527000D01*
X4456685Y-16237000D02*
X6891000Y-18671315D01*
X3208000Y-15034000D02*
X3208000Y-15829000D01*
X12041000Y-24321315D02*
X10373685Y-22654000D01*
X10373685Y-22654000D02*
X7018000Y-22654000D01*
X5120000Y-26083000D02*
X5541000Y-25662000D01*
X19845000Y-23416000D02*
X20226000Y-23797000D01*
X5541000Y-24131000D02*
X5541000Y-25662000D01*
X7018000Y-22654000D02*
X5541000Y-24131000D01*
X14966000Y-22237000D02*
X16862000Y-22237000D01*
X6891000Y-22527000D02*
X7018000Y-22654000D01*
X10320000Y-22600315D02*
X12041000Y-24321315D01*
X4456685Y-16237000D02*
X3616000Y-16237000D01*
X13866000Y-21977685D02*
X13866000Y-21374000D01*
X12987000Y-20495000D02*
X11209000Y-20495000D01*
X15374000Y-15034000D02*
X15374000Y-15829000D01*
X13866000Y-21374000D02*
X12987000Y-20495000D01*
X12041000Y-25662000D02*
X12041000Y-27156000D01*
X13041000Y-14312000D02*
X13429000Y-14312000D01*
X14125315Y-22237000D02*
X13866000Y-21977685D01*
X10320000Y-21384000D02*
X10320000Y-22600315D01*
X11209000Y-20495000D02*
X10320000Y-21384000D01*
X16911000Y-22286000D02*
X18041000Y-23416000D01*
X3208000Y-15829000D02*
X3616000Y-16237000D01*
X15374000Y-15829000D02*
X14966000Y-16237000D01*
X14231000Y-13510000D02*
X14231000Y-13891000D01*
X4351000Y-26083000D02*
X5120000Y-26083000D01*
X12041000Y-27156000D02*
X11717000Y-27480000D01*
X14966000Y-22237000D02*
X14125315Y-22237000D01*
X13429000Y-14312000D02*
X14231000Y-13510000D01*
X14231000Y-13891000D02*
X15374000Y-15034000D01*
X12041000Y-24321315D02*
X12041000Y-25662000D01*
%TO.N,/RST*%
X25706000Y-11292500D02*
X25706000Y-11981041D01*
X37898000Y-12005000D02*
X38641000Y-12748000D01*
X4237000Y-13256000D02*
X4237000Y-12507000D01*
X37898000Y-11292500D02*
X37898000Y-12005000D01*
X27084000Y-13359041D02*
X27084000Y-16050000D01*
X4237000Y-12507000D02*
X3843000Y-12113000D01*
X3843000Y-12113000D02*
X3589000Y-12113000D01*
X25706000Y-11981041D02*
X27084000Y-13359041D01*
X38641000Y-12748000D02*
X39403000Y-12748000D01*
X27084000Y-16050000D02*
X25623500Y-17510500D01*
%TO.N,/I2C_SDA*%
X46304000Y-10058000D02*
X48567000Y-7795000D01*
X42739249Y-10058000D02*
X46304000Y-10058000D01*
X42136000Y-9454751D02*
X42739249Y-10058000D01*
X12041000Y-15993000D02*
X12041000Y-14312000D01*
X12143238Y-16095238D02*
X12041000Y-15993000D01*
X12220914Y-16095238D02*
X12143238Y-16095238D01*
%TO.N,/I2C_SCL*%
X11222715Y-16044209D02*
X11541000Y-15725924D01*
X44036000Y-9070500D02*
X47851500Y-5255000D01*
X11541000Y-15725924D02*
X11541000Y-14312000D01*
%TO.N,Net-(C29-Pad1)*%
X6541000Y-25662000D02*
X6541000Y-27130000D01*
X6541000Y-27130000D02*
X7145000Y-27734000D01*
%TO.N,Net-(J5-Pad1)*%
X10448500Y-962827D02*
X10448500Y-2689173D01*
X10075500Y-5509000D02*
X10075500Y-4820459D01*
X10475500Y-4420459D02*
X10475500Y-3763812D01*
X13749000Y1496000D02*
X11627000Y-626000D01*
X10785327Y-626000D02*
X10448500Y-962827D01*
X10856500Y-3097173D02*
X10448500Y-2689173D01*
X11627000Y-626000D02*
X10785327Y-626000D01*
X10856500Y-3382812D02*
X10856500Y-3097173D01*
X10475500Y-3763812D02*
X10856500Y-3382812D01*
X10075500Y-4820459D02*
X10475500Y-4420459D01*
%TO.N,Net-(J5-Pad2)*%
X12290500Y-2719183D02*
X12290500Y-2045827D01*
X11375500Y-5509000D02*
X11375500Y-4136604D01*
X14944000Y2579173D02*
X14607173Y2916000D01*
X11756500Y-3253183D02*
X12290500Y-2719183D01*
X14944000Y412827D02*
X14944000Y2579173D01*
X11375500Y-4136604D02*
X11756500Y-3755604D01*
X12629000Y2916000D02*
X11209000Y1496000D01*
X14607173Y2916000D02*
X12629000Y2916000D01*
X11756500Y-3755604D02*
X11756500Y-3253183D01*
X13905173Y-626000D02*
X14944000Y412827D01*
X12290500Y-2045827D02*
X13710327Y-626000D01*
X13710327Y-626000D02*
X13905173Y-626000D01*
%TO.N,Net-(J5-Pad3)*%
X8798500Y-3412604D02*
X8798500Y1366500D01*
X9425500Y-5509000D02*
X9425500Y-4820459D01*
X9025500Y-3639604D02*
X8798500Y-3412604D01*
X9425500Y-4820459D02*
X9025500Y-4420459D01*
X9025500Y-4420459D02*
X9025500Y-3639604D01*
%TO.N,Net-(J5-Pad4)*%
X8125500Y-5509000D02*
X8125500Y-4012396D01*
X6129000Y-2015896D02*
X6129000Y1496000D01*
X8125500Y-4012396D02*
X6129000Y-2015896D01*
%TO.N,Net-(J6-Pad1)*%
X23419827Y-626000D02*
X23782000Y-626000D01*
X22856000Y-3524462D02*
X23083000Y-3297462D01*
X22456000Y-5567500D02*
X22456000Y-4878959D01*
X23083000Y-3297462D02*
X23083000Y-962827D01*
X23782000Y-626000D02*
X24925000Y517000D01*
X22856000Y-4478959D02*
X22856000Y-3524462D01*
X22456000Y-4878959D02*
X22856000Y-4478959D01*
X23083000Y-962827D02*
X23419827Y-626000D01*
X24925000Y517000D02*
X24925000Y1496000D01*
%TO.N,Net-(J6-Pad2)*%
X23805000Y2916000D02*
X22385000Y1496000D01*
X23756000Y-5567500D02*
X23756000Y-3897254D01*
X25783173Y2916000D02*
X23805000Y2916000D01*
X24858000Y-2795254D02*
X24858000Y-1953000D01*
X26120000Y-691000D02*
X26120000Y2579173D01*
X24858000Y-1953000D02*
X26120000Y-691000D01*
X26120000Y2579173D02*
X25783173Y2916000D01*
X23756000Y-3897254D02*
X24858000Y-2795254D01*
%TO.N,Net-(J6-Pad3)*%
X21406000Y-4478959D02*
X21406000Y-65000D01*
X21406000Y-65000D02*
X19845000Y1496000D01*
X21806000Y-4878959D02*
X21406000Y-4478959D01*
X21806000Y-5567500D02*
X21806000Y-4878959D01*
%TO.N,Net-(J6-Pad4)*%
X20506000Y-5567500D02*
X20506000Y-3664173D01*
X19531000Y-730000D02*
X17305000Y1496000D01*
X19531000Y-2689173D02*
X19531000Y-730000D01*
X20506000Y-3664173D02*
X19531000Y-2689173D01*
%TO.N,Net-(J7-Pad1)*%
X37117000Y-2335391D02*
X37117000Y480000D01*
X37117000Y480000D02*
X36101000Y1496000D01*
X34648000Y-5567500D02*
X34648000Y-4804391D01*
X34648000Y-4804391D02*
X37117000Y-2335391D01*
%TO.N,Net-(J7-Pad2)*%
X40577967Y3508000D02*
X35573000Y3508000D01*
X35948000Y-5567500D02*
X35948000Y-4777183D01*
X37794183Y-2931000D02*
X40249817Y-2931000D01*
X40927000Y-3608183D02*
X40927000Y-3892173D01*
X40249817Y-2931000D02*
X40927000Y-3608183D01*
X35573000Y3508000D02*
X33561000Y1496000D01*
X43340000Y-4620000D02*
X44356000Y-3604000D01*
X44356000Y-3604000D02*
X44356000Y-270033D01*
X41654827Y-4620000D02*
X43340000Y-4620000D01*
X40927000Y-3892173D02*
X41654827Y-4620000D01*
X35948000Y-4777183D02*
X37794183Y-2931000D01*
X44356000Y-270033D02*
X40577967Y3508000D01*
%TO.N,Net-(J7-Pad3)*%
X33998000Y-2824173D02*
X34133000Y-2689173D01*
X34133000Y-2689173D02*
X34133000Y-874000D01*
X33183000Y76000D02*
X32441000Y76000D01*
X34133000Y-874000D02*
X33183000Y76000D01*
X32441000Y76000D02*
X31021000Y1496000D01*
X33998000Y-5567500D02*
X33998000Y-2824173D01*
%TO.N,Net-(J7-Pad4)*%
X31208000Y-870000D02*
X28842000Y1496000D01*
X32358000Y-1385000D02*
X31843000Y-870000D01*
X32698000Y-3026000D02*
X32694827Y-3026000D01*
X32698000Y-5567500D02*
X32698000Y-3026000D01*
X32694827Y-3026000D02*
X32358000Y-2689173D01*
X32358000Y-2689173D02*
X32358000Y-1385000D01*
X31843000Y-870000D02*
X31208000Y-870000D01*
%TO.N,/UART_TXD*%
X17357000Y-24178000D02*
X15407000Y-24178000D01*
X15407000Y-24178000D02*
X14966000Y-23737000D01*
%TO.N,/UART_RXD*%
X13509000Y-25194000D02*
X13041000Y-25662000D01*
X16980249Y-27988000D02*
X16022000Y-27029751D01*
X15260000Y-25194000D02*
X13509000Y-25194000D01*
X16022000Y-27029751D02*
X16022000Y-25956000D01*
X16022000Y-25956000D02*
X15260000Y-25194000D01*
%TO.N,/FAULT_ST*%
X-602000Y-10042827D02*
X-602000Y-19898173D01*
X160000Y-3731000D02*
X980500Y-3731000D01*
X2326315Y-20686000D02*
X2775315Y-20237000D01*
X2526695Y-5277195D02*
X2526695Y-8984305D01*
X185827Y-20686000D02*
X2326315Y-20686000D01*
X2526695Y-8984305D02*
X2002000Y-9509000D01*
X-602000Y-19898173D02*
X185827Y-20686000D01*
X-68173Y-9509000D02*
X-602000Y-10042827D01*
X2775315Y-20237000D02*
X3616000Y-20237000D01*
X980500Y-3731000D02*
X2526695Y-5277195D01*
X2002000Y-9509000D02*
X-68173Y-9509000D01*
%TO.N,Net-(R10-Pad1)*%
X11306500Y-3569208D02*
X11306500Y-1855500D01*
X10725500Y-5509000D02*
X10725500Y-4820459D01*
X10725500Y-4820459D02*
X10925500Y-4620459D01*
X10925500Y-3950208D02*
X11306500Y-3569208D01*
X10925500Y-4620459D02*
X10925500Y-3950208D01*
%TO.N,Net-(R11-Pad1)*%
X8775500Y-5509000D02*
X8775500Y-4820459D01*
X7911000Y-3161500D02*
X7911000Y-1826000D01*
X8575500Y-4620459D02*
X8575500Y-3826000D01*
X8575500Y-3826000D02*
X7911000Y-3161500D01*
X8775500Y-4820459D02*
X8575500Y-4620459D01*
%TO.N,Net-(R13-Pad1)*%
X23106000Y-5567500D02*
X23106000Y-4878959D01*
X23106000Y-4878959D02*
X23306000Y-4678959D01*
X23306000Y-3710858D02*
X23970500Y-3046358D01*
X23306000Y-4678959D02*
X23306000Y-3710858D01*
X23970500Y-3046358D02*
X23970500Y-1826000D01*
%TO.N,Net-(R14-Pad1)*%
X20956000Y-4678959D02*
X20956000Y-3477777D01*
X20418500Y-2940277D02*
X20418500Y-1826000D01*
X21156000Y-4878959D02*
X20956000Y-4678959D01*
X21156000Y-5567500D02*
X21156000Y-4878959D01*
X20956000Y-3477777D02*
X20418500Y-2940277D01*
%TO.N,Net-(R16-Pad1)*%
X35408000Y-5457500D02*
X35298000Y-5567500D01*
X40924213Y-2969000D02*
X40352713Y-2397500D01*
X41754500Y-2969000D02*
X40924213Y-2969000D01*
X37691287Y-2397500D02*
X35408000Y-4680787D01*
X42324000Y-3538500D02*
X41754500Y-2969000D01*
X35408000Y-4680787D02*
X35408000Y-5457500D01*
X40352713Y-2397500D02*
X37691287Y-2397500D01*
%TO.N,Net-(R17-Pad1)*%
X33348000Y-5567500D02*
X33348000Y-1928500D01*
%TO.N,Net-(R18-Pad2)*%
X23655000Y-18971000D02*
X23210500Y-18526500D01*
X24735000Y-18971000D02*
X23655000Y-18971000D01*
%TO.N,/Stepper module/VREF*%
X13325500Y-6197541D02*
X13325500Y-5509000D01*
X26632041Y-6630000D02*
X26079959Y-6630000D01*
X14892000Y-5931041D02*
X14251541Y-6571500D01*
X14251541Y-6571500D02*
X13699459Y-6571500D01*
X39657000Y-6741500D02*
X38095500Y-6741500D01*
X37898000Y-5567500D02*
X37248000Y-5567500D01*
X12675500Y-5509000D02*
X13325500Y-5509000D01*
X27211000Y-6051041D02*
X26632041Y-6630000D01*
X26079959Y-6630000D02*
X25706000Y-6256041D01*
X27211000Y-5382000D02*
X27211000Y-6051041D01*
X37898000Y-6544000D02*
X37898000Y-5567500D01*
X38095500Y-6741500D02*
X37898000Y-6544000D01*
X25706000Y-6256041D02*
X25706000Y-5567500D01*
X25056000Y-5567500D02*
X25706000Y-5567500D01*
X14892000Y-5763000D02*
X14892000Y-5931041D01*
X13699459Y-6571500D02*
X13325500Y-6197541D01*
%TO.N,/RS485_TXE*%
X17357000Y-25448000D02*
X16150396Y-25448000D01*
X16150396Y-25448000D02*
X15330396Y-24628000D01*
X14075315Y-23237000D02*
X14966000Y-23237000D01*
X17357000Y-25448000D02*
X17357000Y-26718000D01*
X15330396Y-24628000D02*
X14516315Y-24628000D01*
X13866000Y-23446315D02*
X14075315Y-23237000D01*
X13866000Y-23977685D02*
X13866000Y-23446315D01*
X14516315Y-24628000D02*
X13866000Y-23977685D01*
%TO.N,/MODE0*%
X8015478Y-12729478D02*
X8015478Y-11344022D01*
X20506000Y-13091500D02*
X20506000Y-11292500D01*
X8034000Y-12748000D02*
X8015478Y-12729478D01*
X8015478Y-11344022D02*
X8125500Y-11234000D01*
%TO.N,/MODE1*%
X5494000Y-12621000D02*
X5875000Y-12621000D01*
X19856000Y-12745600D02*
X19856000Y-11292500D01*
X6199500Y-12296500D02*
X7101541Y-12296500D01*
X7101541Y-12296500D02*
X7475500Y-11922541D01*
X32048000Y-11292500D02*
X32048000Y-12737000D01*
X19487050Y-13114550D02*
X19856000Y-12745600D01*
X5875000Y-12621000D02*
X6199500Y-12296500D01*
X7475500Y-11922541D02*
X7475500Y-11234000D01*
%TO.N,Net-(D8-Pad2)*%
X-5301000Y-109500D02*
X-5301000Y206000D01*
X-6509500Y-1318000D02*
X-5301000Y-109500D01*
%TO.N,/RS485_A*%
X25204000Y-21947500D02*
X25204000Y-26108000D01*
X22307000Y-26718000D02*
X24214000Y-26718000D01*
X23944500Y-20688000D02*
X25204000Y-21947500D01*
X20353000Y-26718000D02*
X19972000Y-27099000D01*
X25204000Y-26108000D02*
X24404000Y-26908000D01*
X22307000Y-26718000D02*
X20353000Y-26718000D01*
%TO.N,/DECAY*%
X23279004Y-14420496D02*
X23279004Y-13828685D01*
X23756000Y-13351689D02*
X23756000Y-11292500D01*
X23274000Y-14425500D02*
X23279004Y-14420496D01*
X23279004Y-13828685D02*
X23756000Y-13351689D01*
%TO.N,/STEP0*%
X11486050Y-21242550D02*
X12980500Y-22737000D01*
X12980500Y-22737000D02*
X14966000Y-22737000D01*
%TO.N,/FAULT*%
X24854297Y-13429992D02*
X24426305Y-13002000D01*
X12399459Y-12296500D02*
X12025500Y-11922541D01*
X13260245Y-12908361D02*
X13260245Y-12640245D01*
X24426305Y-13002000D02*
X24417000Y-13002000D01*
X24417000Y-11992041D02*
X24406000Y-11981041D01*
X36598000Y-11981041D02*
X36598000Y-11292500D01*
X12916500Y-12296500D02*
X12399459Y-12296500D01*
X13260245Y-12640245D02*
X12916500Y-12296500D01*
X24417000Y-13002000D02*
X24417000Y-11992041D01*
X25560000Y-13429992D02*
X24854297Y-13429992D01*
X12025500Y-11922541D02*
X12025500Y-11234000D01*
X38260000Y-13383000D02*
X37999959Y-13383000D01*
X24406000Y-11981041D02*
X24406000Y-11292500D01*
X37999959Y-13383000D02*
X36598000Y-11981041D01*
%TO.N,/MODE2*%
X6825500Y-11234000D02*
X6825500Y-10396500D01*
X6825500Y-10396500D02*
X6002000Y-9573000D01*
X31398000Y-10603959D02*
X31398000Y-11292500D01*
X18485500Y-13091500D02*
X19210000Y-12367000D01*
X29616541Y-8822500D02*
X31398000Y-10603959D01*
X19210000Y-12367000D02*
X19210000Y-11296500D01*
X28653774Y-8822500D02*
X29616541Y-8822500D01*
%TO.N,/RS485_B*%
X20358719Y-25448000D02*
X22307000Y-25448000D01*
X23944500Y-22588000D02*
X24404000Y-23047500D01*
X24404000Y-23047500D02*
X24404000Y-25258000D01*
X22307000Y-25448000D02*
X24214000Y-25448000D01*
X19023789Y-26782930D02*
X20358719Y-25448000D01*
%TO.N,/DIR1*%
X23106000Y-12998137D02*
X23106000Y-11292500D01*
X22673645Y-13430492D02*
X23106000Y-12998137D01*
%TO.N,/STEP_EN*%
X22456000Y-11981041D02*
X22456000Y-11292500D01*
X21440001Y-14207403D02*
X21750000Y-13897404D01*
X22068437Y-12355000D02*
X22082041Y-12355000D01*
X22082041Y-12355000D02*
X22456000Y-11981041D01*
X21750000Y-12673437D02*
X22068437Y-12355000D01*
X21750000Y-13897404D02*
X21750000Y-12673437D01*
%TO.N,/STEP1*%
X21231000Y-12556041D02*
X21806000Y-11981041D01*
X23401000Y-16609604D02*
X22137396Y-15346000D01*
X23401000Y-16812000D02*
X23401000Y-16609604D01*
X21806000Y-11981041D02*
X21806000Y-11292500D01*
X10541000Y-25662000D02*
X10541000Y-24399000D01*
X21231000Y-13391805D02*
X21231000Y-12556041D01*
X20607000Y-14399000D02*
X20607000Y-14015805D01*
X20607000Y-14015805D02*
X21231000Y-13391805D01*
X22137396Y-15346000D02*
X21554000Y-15346000D01*
X10541000Y-24399000D02*
X9685000Y-23543000D01*
X21554000Y-15346000D02*
X20607000Y-14399000D01*
%TO.N,/STEP2*%
X10041000Y-15694000D02*
X9177000Y-16558000D01*
X10041000Y-14312000D02*
X10041000Y-15694000D01*
%TO.N,/SWCLK*%
X5541000Y-15716000D02*
X6002000Y-16177000D01*
X5541000Y-14312000D02*
X5541000Y-15716000D01*
%TO.N,/SWDIO*%
X4522000Y-17237000D02*
X3616000Y-17237000D01*
X6166500Y-18881500D02*
X4522000Y-17237000D01*
X6166500Y-19098000D02*
X6166500Y-18881500D01*
%TO.N,Net-(C12-Pad1)*%
X38548000Y-11292500D02*
X40093500Y-11292500D01*
%TD*%
M02*
