%TF.GenerationSoftware,KiCad,Pcbnew,6.0.11+dfsg-1~bpo11+1*%
%TF.CreationDate,2023-06-12T22:03:44+02:00*%
%TF.ProjectId,motor_board_v3,6d6f746f-725f-4626-9f61-72645f76332e,rev?*%
%TF.SameCoordinates,PX87037a0PY50412a8*%
%TF.FileFunction,Copper,L1,Top*%
%TF.FilePolarity,Positive*%
%FSLAX46Y46*%
G04 Gerber Fmt 4.6, Leading zero omitted, Abs format (unit mm)*
G04 Created by KiCad (PCBNEW 6.0.11+dfsg-1~bpo11+1) date 2023-06-12 22:03:44*
%MOMM*%
%LPD*%
G01*
G04 APERTURE LIST*
G04 Aperture macros list*
%AMRoundRect*
0 Rectangle with rounded corners*
0 $1 Rounding radius*
0 $2 $3 $4 $5 $6 $7 $8 $9 X,Y pos of 4 corners*
0 Add a 4 corners polygon primitive as box body*
4,1,4,$2,$3,$4,$5,$6,$7,$8,$9,$2,$3,0*
0 Add four circle primitives for the rounded corners*
1,1,$1+$1,$2,$3*
1,1,$1+$1,$4,$5*
1,1,$1+$1,$6,$7*
1,1,$1+$1,$8,$9*
0 Add four rect primitives between the rounded corners*
20,1,$1+$1,$2,$3,$4,$5,0*
20,1,$1+$1,$4,$5,$6,$7,0*
20,1,$1+$1,$6,$7,$8,$9,0*
20,1,$1+$1,$8,$9,$2,$3,0*%
G04 Aperture macros list end*
%TA.AperFunction,ComponentPad*%
%ADD10R,1.000000X1.000000*%
%TD*%
%TA.AperFunction,ComponentPad*%
%ADD11O,1.000000X1.000000*%
%TD*%
%TA.AperFunction,SMDPad,CuDef*%
%ADD12RoundRect,0.218750X-0.256250X0.218750X-0.256250X-0.218750X0.256250X-0.218750X0.256250X0.218750X0*%
%TD*%
%TA.AperFunction,SMDPad,CuDef*%
%ADD13RoundRect,0.218750X0.256250X-0.218750X0.256250X0.218750X-0.256250X0.218750X-0.256250X-0.218750X0*%
%TD*%
%TA.AperFunction,ComponentPad*%
%ADD14RoundRect,0.250000X0.620000X0.845000X-0.620000X0.845000X-0.620000X-0.845000X0.620000X-0.845000X0*%
%TD*%
%TA.AperFunction,ComponentPad*%
%ADD15O,1.740000X2.190000*%
%TD*%
%TA.AperFunction,SMDPad,CuDef*%
%ADD16RoundRect,0.250000X0.550000X-1.250000X0.550000X1.250000X-0.550000X1.250000X-0.550000X-1.250000X0*%
%TD*%
%TA.AperFunction,SMDPad,CuDef*%
%ADD17RoundRect,0.250000X1.250000X0.550000X-1.250000X0.550000X-1.250000X-0.550000X1.250000X-0.550000X0*%
%TD*%
%TA.AperFunction,ComponentPad*%
%ADD18RoundRect,0.250000X0.845000X-0.620000X0.845000X0.620000X-0.845000X0.620000X-0.845000X-0.620000X0*%
%TD*%
%TA.AperFunction,ComponentPad*%
%ADD19O,2.190000X1.740000*%
%TD*%
%TA.AperFunction,SMDPad,CuDef*%
%ADD20R,1.300000X2.000000*%
%TD*%
%TA.AperFunction,SMDPad,CuDef*%
%ADD21R,2.000000X2.000000*%
%TD*%
%TA.AperFunction,SMDPad,CuDef*%
%ADD22RoundRect,0.250000X-1.250000X-0.550000X1.250000X-0.550000X1.250000X0.550000X-1.250000X0.550000X0*%
%TD*%
%TA.AperFunction,ComponentPad*%
%ADD23RoundRect,0.875000X-0.875000X-0.875000X0.875000X-0.875000X0.875000X0.875000X-0.875000X0.875000X0*%
%TD*%
%TA.AperFunction,ComponentPad*%
%ADD24RoundRect,0.750000X-0.750000X-1.000000X0.750000X-1.000000X0.750000X1.000000X-0.750000X1.000000X0*%
%TD*%
%TA.AperFunction,ComponentPad*%
%ADD25R,3.500000X3.500000*%
%TD*%
%TA.AperFunction,ViaPad*%
%ADD26C,0.800000*%
%TD*%
%TA.AperFunction,Conductor*%
%ADD27C,0.250000*%
%TD*%
G04 APERTURE END LIST*
D10*
%TO.P,J1,1,NC*%
%TO.N,unconnected-(J1-Pad1)*%
X30226000Y-17145000D03*
D11*
%TO.P,J1,2,NC*%
%TO.N,unconnected-(J1-Pad2)*%
X30226000Y-15875000D03*
%TO.P,J1,3,VCC*%
%TO.N,+3V3*%
X31496000Y-17145000D03*
%TO.P,J1,4,JTMS/SWDIO*%
%TO.N,/SWDIO*%
X31496000Y-15875000D03*
%TO.P,J1,5,GND*%
%TO.N,GND*%
X32766000Y-17145000D03*
%TO.P,J1,6,JCLK/SWCLK*%
%TO.N,/SWCLK*%
X32766000Y-15875000D03*
%TO.P,J1,7,GND*%
%TO.N,GND*%
X34036000Y-17145000D03*
%TO.P,J1,8,JTDO/SWO*%
%TO.N,/SWO*%
X34036000Y-15875000D03*
%TO.P,J1,9,JRCLK/NC*%
%TO.N,unconnected-(J1-Pad9)*%
X35306000Y-17145000D03*
%TO.P,J1,10,JTDI/NC*%
%TO.N,unconnected-(J1-Pad10)*%
X35306000Y-15875000D03*
%TO.P,J1,11,GNDDetect*%
%TO.N,unconnected-(J1-Pad11)*%
X36576000Y-17145000D03*
%TO.P,J1,12,~{RST}*%
%TO.N,/RST*%
X36576000Y-15875000D03*
%TO.P,J1,13,VCP_RX*%
%TO.N,unconnected-(J1-Pad13)*%
X37846000Y-17145000D03*
%TO.P,J1,14,VCP_TX*%
%TO.N,unconnected-(J1-Pad14)*%
X37846000Y-15875000D03*
%TD*%
D12*
%TO.P,D3,1,K*%
%TO.N,GND*%
X-5555000Y3025500D03*
%TO.P,D3,2,A*%
%TO.N,Net-(D3-Pad2)*%
X-5555000Y1450500D03*
%TD*%
D13*
%TO.P,D1,1,K*%
%TO.N,GND*%
X-5174000Y-27251500D03*
%TO.P,D1,2,A*%
%TO.N,Net-(D1-Pad2)*%
X-5174000Y-25676500D03*
%TD*%
D14*
%TO.P,J6,1,Pin_1*%
%TO.N,Net-(J6-Pad1)*%
X24925000Y1496000D03*
D15*
%TO.P,J6,2,Pin_2*%
%TO.N,Net-(J6-Pad2)*%
X22385000Y1496000D03*
%TO.P,J6,3,Pin_3*%
%TO.N,Net-(J6-Pad3)*%
X19845000Y1496000D03*
%TO.P,J6,4,Pin_4*%
%TO.N,Net-(J6-Pad4)*%
X17305000Y1496000D03*
%TD*%
D16*
%TO.P,C5,1*%
%TO.N,Net-(C5-Pad1)*%
X-6190000Y-22568000D03*
%TO.P,C5,2*%
%TO.N,GND*%
X-6190000Y-18168000D03*
%TD*%
D17*
%TO.P,C31,1*%
%TO.N,+5V*%
X30935000Y-23162000D03*
%TO.P,C31,2*%
%TO.N,GND*%
X26535000Y-23162000D03*
%TD*%
D18*
%TO.P,J4,1,Pin_1*%
%TO.N,/RAW_5V*%
X48547000Y-21638000D03*
D19*
%TO.P,J4,2,Pin_2*%
%TO.N,/RS485_B*%
X48547000Y-19098000D03*
%TO.P,J4,3,Pin_3*%
%TO.N,/RS485_A*%
X48547000Y-16558000D03*
%TO.P,J4,4,Pin_4*%
%TO.N,GND*%
X48547000Y-14018000D03*
%TD*%
D20*
%TO.P,RV1,1,1*%
%TO.N,GND*%
X3723000Y-14177000D03*
D21*
%TO.P,RV1,2,2*%
%TO.N,/Stepper module/VREF*%
X2573000Y-18177000D03*
D20*
%TO.P,RV1,3,3*%
%TO.N,Net-(R18-Pad2)*%
X1423000Y-14177000D03*
%TD*%
D12*
%TO.P,D4,1,K*%
%TO.N,GND*%
X-7333000Y3025500D03*
%TO.P,D4,2,A*%
%TO.N,Net-(D4-Pad2)*%
X-7333000Y1450500D03*
%TD*%
D22*
%TO.P,C3,1*%
%TO.N,Net-(C3-Pad1)*%
X33520000Y-25448000D03*
%TO.P,C3,2*%
%TO.N,GND*%
X37920000Y-25448000D03*
%TD*%
%TO.P,C32,1*%
%TO.N,+3V3*%
X19550000Y-25321000D03*
%TO.P,C32,2*%
%TO.N,GND*%
X23950000Y-25321000D03*
%TD*%
D18*
%TO.P,J3,1,Pin_1*%
%TO.N,/RAW_5V*%
X48567000Y-10335000D03*
D19*
%TO.P,J3,2,Pin_2*%
%TO.N,/I2C_SDA*%
X48567000Y-7795000D03*
%TO.P,J3,3,Pin_3*%
%TO.N,/I2C_SCL*%
X48567000Y-5255000D03*
%TO.P,J3,4,Pin_4*%
%TO.N,GND*%
X48567000Y-2715000D03*
%TD*%
D12*
%TO.P,D8,1,K*%
%TO.N,GND*%
X-3777000Y3025500D03*
%TO.P,D8,2,A*%
%TO.N,Net-(D8-Pad2)*%
X-3777000Y1450500D03*
%TD*%
D14*
%TO.P,J7,1,Pin_1*%
%TO.N,Net-(J7-Pad1)*%
X36101000Y1496000D03*
D15*
%TO.P,J7,2,Pin_2*%
%TO.N,Net-(J7-Pad2)*%
X33561000Y1496000D03*
%TO.P,J7,3,Pin_3*%
%TO.N,Net-(J7-Pad3)*%
X31021000Y1496000D03*
%TO.P,J7,4,Pin_4*%
%TO.N,Net-(J7-Pad4)*%
X28481000Y1496000D03*
%TD*%
%TO.P,J5,4,Pin_4*%
%TO.N,Net-(J5-Pad4)*%
X6129000Y1496000D03*
%TO.P,J5,3,Pin_3*%
%TO.N,Net-(J5-Pad3)*%
X8669000Y1496000D03*
%TO.P,J5,2,Pin_2*%
%TO.N,Net-(J5-Pad2)*%
X11209000Y1496000D03*
D14*
%TO.P,J5,1,Pin_1*%
%TO.N,Net-(J5-Pad1)*%
X13749000Y1496000D03*
%TD*%
D17*
%TO.P,C29,1*%
%TO.N,Net-(C29-Pad1)*%
X16965000Y-23162000D03*
%TO.P,C29,2*%
%TO.N,GND*%
X12565000Y-23162000D03*
%TD*%
D23*
%TO.P,J2,3*%
%TO.N,N/C*%
X-2682000Y-11918500D03*
D24*
%TO.P,J2,2,Pin_2*%
%TO.N,GND*%
X-5682000Y-7218500D03*
D25*
%TO.P,J2,1,Pin_1*%
%TO.N,Net-(D5-Pad2)*%
X318000Y-7218500D03*
%TD*%
D22*
%TO.P,C30,1*%
%TO.N,+12V*%
X4564000Y-25067000D03*
%TO.P,C30,2*%
%TO.N,GND*%
X8964000Y-25067000D03*
%TD*%
D13*
%TO.P,D2,1,K*%
%TO.N,GND*%
X-7079000Y-27251500D03*
%TO.P,D2,2,A*%
%TO.N,Net-(D2-Pad2)*%
X-7079000Y-25676500D03*
%TD*%
D26*
%TO.N,GND*%
X21209000Y-17653000D03*
%TO.N,+3V3*%
X28448000Y-19685000D03*
%TO.N,/SWO*%
X29845000Y-20320000D03*
X6985000Y-17399000D03*
%TO.N,GND*%
X32037000Y-7541000D03*
X32926000Y-7541000D03*
X33815000Y-7541000D03*
X34704000Y-7541000D03*
X35593000Y-7541000D03*
X36482000Y-7541000D03*
X36482000Y-8430000D03*
X35593000Y-8430000D03*
X34704000Y-8430000D03*
X33815000Y-8430000D03*
X32926000Y-8430000D03*
X32037000Y-8430000D03*
X32037000Y-9319000D03*
X32926000Y-9319000D03*
X33815000Y-9319000D03*
X34704000Y-9319000D03*
X35593000Y-9319000D03*
X36482000Y-9319000D03*
X19845000Y-7668000D03*
X20734000Y-7668000D03*
X21623000Y-7668000D03*
X22512000Y-7668000D03*
X23401000Y-7668000D03*
X24290000Y-7668000D03*
X24290000Y-8557000D03*
X23401000Y-8557000D03*
X22512000Y-8557000D03*
X21623000Y-8557000D03*
X20734000Y-8557000D03*
X19845000Y-8557000D03*
X24290000Y-9446000D03*
X23401000Y-9446000D03*
X22512000Y-9446000D03*
X21623000Y-9446000D03*
X20734000Y-9446000D03*
X19845000Y-9446000D03*
X11971000Y-7541000D03*
X11082000Y-7541000D03*
X10193000Y-7541000D03*
X9304000Y-7541000D03*
X8415000Y-7541000D03*
X7526000Y-7541000D03*
X7526000Y-8430000D03*
X8415000Y-8430000D03*
X9304000Y-8430000D03*
X10193000Y-8430000D03*
X11082000Y-8430000D03*
X11971000Y-8430000D03*
X11971000Y-9319000D03*
X11082000Y-9319000D03*
X10193000Y-9319000D03*
X9304000Y-9319000D03*
X8415000Y-9319000D03*
X7526000Y-9319000D03*
%TO.N,/SWDIO*%
X41689000Y-14272000D03*
%TO.N,/STEP_EN*%
X25687000Y-7795000D03*
%TO.N,/DECAY*%
X12331284Y-18420500D03*
%TO.N,GND*%
X3589000Y1095000D03*
%TO.N,/DIR1*%
X13152169Y-17850282D03*
%TO.N,/MODE2*%
X5342892Y-20667988D03*
%TO.N,/FAULT*%
X5391297Y-21733876D03*
%TO.N,/DIR2*%
X5288500Y-22781000D03*
%TO.N,GND*%
X-1364000Y-16558000D03*
X7843500Y-23606500D03*
X27338000Y-24686000D03*
X42959000Y-26210000D03*
X35593000Y-23670000D03*
X26893500Y-111500D03*
X13622000Y-28115000D03*
X27211000Y-7795000D03*
X40292000Y-8557000D03*
X3589000Y-11097000D03*
X42578000Y-27988000D03*
X35593000Y-26972000D03*
X15908000Y-8176000D03*
X43721000Y-25448000D03*
X16322243Y-14250939D03*
X50706000Y-27861000D03*
X40736500Y-6207500D03*
X11741179Y-16972084D03*
X22307000Y-23211000D03*
X-1872000Y3254000D03*
X-8603000Y-27734000D03*
X18321000Y-556000D03*
X49690000Y-27988000D03*
X122500Y-14907000D03*
X42832000Y-13129000D03*
X1303000Y-25829000D03*
%TO.N,+5V*%
X38895000Y-9700000D03*
X32291000Y-21257000D03*
X26322000Y-9827000D03*
X13876000Y-9700000D03*
%TO.N,+12V*%
X18836118Y-2894209D03*
X40292000Y-5001000D03*
X13052500Y-3096000D03*
X3398500Y-27797500D03*
X31529000Y-2080000D03*
X29243000Y-302000D03*
X9751000Y-3985000D03*
X25580900Y-2843392D03*
X4416500Y-175000D03*
X15908000Y-48000D03*
X22131000Y-3985000D03*
X5906950Y-3187387D03*
X36228000Y-2080000D03*
%TO.N,Net-(C8-Pad1)*%
X9623500Y-574000D03*
X6343070Y-7054570D03*
X3654500Y-4112000D03*
%TO.N,Net-(C14-Pad1)*%
X18785065Y-7051575D03*
X16162000Y-3985000D03*
X22470073Y-576535D03*
%TO.N,Net-(C20-Pad1)*%
X35974000Y-302000D03*
X28735000Y-4112000D03*
X30961799Y-7100799D03*
%TO.N,Net-(D1-Pad2)*%
X-4793000Y-3858000D03*
%TO.N,Net-(D2-Pad2)*%
X122500Y-18336000D03*
%TO.N,Net-(D3-Pad2)*%
X48801000Y1857000D03*
%TO.N,Net-(D4-Pad2)*%
X1938000Y-10233500D03*
%TO.N,Net-(C3-Pad1)*%
X40927000Y-27226000D03*
%TO.N,Net-(C5-Pad1)*%
X-2126000Y-25829000D03*
%TO.N,+3V3*%
X20226000Y-23797000D03*
X29370000Y-25321000D03*
%TO.N,/RST*%
X18575000Y-15441000D03*
X39403000Y-12748000D03*
X25623500Y-17510500D03*
X9304000Y-18971000D03*
X3589000Y-12113000D03*
%TO.N,/I2C_SDA*%
X12220914Y-16095238D03*
%TO.N,/I2C_SCL*%
X11222715Y-16044209D03*
%TO.N,Net-(C29-Pad1)*%
X7145000Y-27734000D03*
%TO.N,Net-(R18-Pad2)*%
X23210500Y-18526500D03*
%TO.N,/Stepper module/VREF*%
X3081000Y-9700000D03*
X14892000Y-5763000D03*
X39657000Y-6741500D03*
X27211000Y-5382000D03*
%TO.N,/MODE0*%
X32883603Y-13285427D03*
X20506000Y-13091500D03*
X8034000Y-12748000D03*
%TO.N,/MODE1*%
X19487050Y-13114550D03*
X32048000Y-12737000D03*
X5494000Y-12621000D03*
%TO.N,Net-(D8-Pad2)*%
X-5301000Y206000D03*
%TO.N,/RS485_A*%
X19972000Y-27099000D03*
%TO.N,/DECAY*%
X36265500Y-13378701D03*
X11997155Y-12899038D03*
X23274000Y-14425500D03*
%TO.N,/STEP0*%
X9111703Y-12694895D03*
X11486050Y-21242550D03*
%TO.N,/FAULT*%
X38260000Y-13383000D03*
X25560000Y-13429992D03*
X13260245Y-12908361D03*
%TO.N,/MODE2*%
X28653774Y-8822500D03*
X18485500Y-13091500D03*
X6002000Y-9573000D03*
%TO.N,/RS485_B*%
X19023789Y-26782930D03*
%TO.N,/DIR1*%
X22673645Y-13430492D03*
%TO.N,/DIR2*%
X35231438Y-13168155D03*
%TO.N,/STEP_EN*%
X21440001Y-14207403D03*
X10088209Y-12481726D03*
%TO.N,/STEP1*%
X23401000Y-16812000D03*
X9685000Y-23543000D03*
%TO.N,/STEP2*%
X9177000Y-16558000D03*
X33666609Y-12664213D03*
%TO.N,/SWCLK*%
X6002000Y-16177000D03*
%TO.N,/SWDIO*%
X6166500Y-19098000D03*
%TD*%
D27*
%TO.N,/SWDIO*%
X23909000Y-16050000D02*
X24798000Y-16939000D01*
X24798000Y-16939000D02*
X24798000Y-17710305D01*
X41689000Y-17066000D02*
X41689000Y-14272000D01*
X24798000Y-17710305D02*
X25571695Y-18484000D01*
X25571695Y-18484000D02*
X40271000Y-18484000D01*
X40271000Y-18484000D02*
X41689000Y-17066000D01*
%TO.N,+3V3*%
X28829000Y-24780000D02*
X28829000Y-20066000D01*
X28829000Y-20066000D02*
X28448000Y-19685000D01*
X29370000Y-25321000D02*
X28829000Y-24780000D01*
%TO.N,/SWCLK*%
X32766000Y-15875000D02*
X31454000Y-14563000D01*
X31454000Y-14563000D02*
X28688695Y-14563000D01*
X28688695Y-14563000D02*
X27651695Y-15600000D01*
X27651695Y-15600000D02*
X20166604Y-15600000D01*
X20166604Y-15600000D02*
X15721604Y-20045000D01*
X15721604Y-20045000D02*
X8728396Y-20045000D01*
X8728396Y-20045000D02*
X7056396Y-18373000D01*
X6002000Y-18025000D02*
X6002000Y-16177000D01*
X7056396Y-18373000D02*
X6350000Y-18373000D01*
X6350000Y-18373000D02*
X6002000Y-18025000D01*
%TO.N,/RST*%
X38354000Y-14986000D02*
X38671000Y-15303000D01*
X38671000Y-15303000D02*
X38671000Y-17486727D01*
X38671000Y-17486727D02*
X38123727Y-18034000D01*
X26147000Y-18034000D02*
X25623500Y-17510500D01*
X38123727Y-18034000D02*
X26147000Y-18034000D01*
%TO.N,GND*%
X34036000Y-17145000D02*
X32766000Y-17145000D01*
%TO.N,/SWDIO*%
X31496000Y-15875000D02*
X30671000Y-15050000D01*
X30671000Y-15050000D02*
X29089299Y-15050000D01*
X29089299Y-15050000D02*
X28089299Y-16050000D01*
%TO.N,/RST*%
X37465000Y-14986000D02*
X38354000Y-14986000D01*
X36576000Y-15875000D02*
X37465000Y-14986000D01*
X38354000Y-14986000D02*
X39403000Y-13937000D01*
X39403000Y-13937000D02*
X39403000Y-12748000D01*
%TO.N,/FAULT*%
X25560000Y-13429992D02*
X24835500Y-12705492D01*
X16934743Y-14663744D02*
X14778249Y-16820238D01*
X24835500Y-12705492D02*
X21917313Y-12705492D01*
X19959061Y-14663744D02*
X16934743Y-14663744D01*
X21917313Y-12705492D02*
X19959061Y-14663744D01*
X14778249Y-16820238D02*
X12918330Y-16820238D01*
X10497715Y-16753925D02*
X10497715Y-15670891D01*
X12918330Y-16820238D02*
X12041484Y-17697084D01*
X12041484Y-17697084D02*
X11440874Y-17697084D01*
X11440874Y-17697084D02*
X10497715Y-16753925D01*
X10497715Y-15670891D02*
X13260245Y-12908361D01*
%TO.N,/SWDIO*%
X23909000Y-16050000D02*
X28089299Y-16050000D01*
X20353000Y-16050000D02*
X23909000Y-16050000D01*
%TO.N,/STEP2*%
X10029000Y-18680000D02*
X10029000Y-18670695D01*
X19980208Y-15150000D02*
X15535208Y-19595000D01*
X33608603Y-13585732D02*
X33081335Y-14113000D01*
X33081335Y-14113000D02*
X28502299Y-14113000D01*
X10029000Y-18670695D02*
X9604305Y-18246000D01*
X10944000Y-19595000D02*
X10029000Y-18680000D01*
X15535208Y-19595000D02*
X10944000Y-19595000D01*
X33608603Y-12985122D02*
X33608603Y-13585732D01*
X27465299Y-15150000D02*
X19980208Y-15150000D01*
X28502299Y-14113000D02*
X27465299Y-15150000D01*
X33477151Y-12853671D02*
X33608603Y-12985122D01*
X9177000Y-17828000D02*
X9177000Y-16558000D01*
X33666609Y-12664213D02*
X33477151Y-12853671D01*
X9604305Y-18246000D02*
X9595000Y-18246000D01*
X9595000Y-18246000D02*
X9177000Y-17828000D01*
%TO.N,/RST*%
X8415000Y-18082000D02*
X9304000Y-18971000D01*
X8415000Y-15796000D02*
X8415000Y-18082000D01*
X9939000Y-17944299D02*
X9939000Y-15669000D01*
X18422000Y-15441000D02*
X14718000Y-19145000D01*
X10479000Y-18484299D02*
X9939000Y-17944299D01*
X10479000Y-18493604D02*
X10479000Y-18484299D01*
X9939000Y-15669000D02*
X9558000Y-15288000D01*
X11130396Y-19145000D02*
X10479000Y-18493604D01*
X8923000Y-15288000D02*
X8415000Y-15796000D01*
X9558000Y-15288000D02*
X8923000Y-15288000D01*
X14718000Y-19145000D02*
X11130396Y-19145000D01*
X18575000Y-15441000D02*
X18422000Y-15441000D01*
%TO.N,/STEP0*%
X9111703Y-12694895D02*
X9111703Y-13448297D01*
X9111703Y-13448297D02*
X7108000Y-15452000D01*
X5866195Y-19823000D02*
X7233604Y-19823000D01*
X7233604Y-19823000D02*
X8653154Y-21242550D01*
X8653154Y-21242550D02*
X11486050Y-21242550D01*
X7108000Y-15452000D02*
X5701695Y-15452000D01*
X5701695Y-15452000D02*
X5240000Y-15913695D01*
X5240000Y-15913695D02*
X5240000Y-19196805D01*
X5240000Y-19196805D02*
X5866195Y-19823000D01*
%TO.N,/STEP1*%
X9685000Y-22908000D02*
X9685000Y-23543000D01*
X10625450Y-21967550D02*
X9685000Y-22908000D01*
X12808905Y-20945000D02*
X11786355Y-21967550D01*
X11786355Y-21967550D02*
X10625450Y-21967550D01*
X16094396Y-20945000D02*
X12808905Y-20945000D01*
X20227396Y-16812000D02*
X16094396Y-20945000D01*
X23401000Y-16812000D02*
X20227396Y-16812000D01*
%TO.N,/SWDIO*%
X15908000Y-20495000D02*
X20353000Y-16050000D01*
X8542000Y-20495000D02*
X15908000Y-20495000D01*
X7145000Y-19098000D02*
X8542000Y-20495000D01*
X6166500Y-19098000D02*
X7145000Y-19098000D01*
%TO.N,GND*%
X8964000Y-24727000D02*
X7843500Y-23606500D01*
X-5174000Y-27251500D02*
X-7079000Y-27251500D01*
X-7079000Y-27251500D02*
X-8120500Y-27251500D01*
X26109000Y-23162000D02*
X23950000Y-25321000D01*
X-3777000Y3025500D02*
X-2100500Y3025500D01*
X3579695Y-11097000D02*
X2864000Y-11812695D01*
X11760000Y-25067000D02*
X12565000Y-24262000D01*
X27338000Y-23965000D02*
X27338000Y-24686000D01*
X12565000Y-24262000D02*
X12565000Y-23162000D01*
X-2100500Y3025500D02*
X-1872000Y3254000D01*
X-6190000Y-18168000D02*
X-2974000Y-18168000D01*
X-8120500Y-27251500D02*
X-8603000Y-27734000D01*
X3589000Y-11097000D02*
X3579695Y-11097000D01*
X26535000Y-23162000D02*
X27338000Y-23965000D01*
X-2974000Y-18168000D02*
X-1364000Y-16558000D01*
X37920000Y-25448000D02*
X36396000Y-26972000D01*
X36396000Y-26972000D02*
X35593000Y-26972000D01*
X-7333000Y3025500D02*
X-5555000Y3025500D01*
X8964000Y-25067000D02*
X11760000Y-25067000D01*
X2864000Y-11812695D02*
X2864000Y-13318000D01*
X-5555000Y3025500D02*
X-3777000Y3025500D01*
X2864000Y-13318000D02*
X3723000Y-14177000D01*
%TO.N,+5V*%
X32291000Y-21257000D02*
X32291000Y-21806000D01*
X32291000Y-21806000D02*
X30935000Y-23162000D01*
%TO.N,+12V*%
X36699000Y-1609000D02*
X36699000Y-720000D01*
X4564000Y-25067000D02*
X4564000Y-15502000D01*
X4698000Y-15368000D02*
X4698000Y-12986000D01*
X36699000Y-720000D02*
X37625000Y206000D01*
X9751000Y-3985000D02*
X10640000Y-3096000D01*
X9323195Y151000D02*
X9923805Y151000D01*
X4564000Y-7314500D02*
X2319000Y-5069500D01*
X10348500Y-3387500D02*
X9751000Y-3985000D01*
X4698000Y-12986000D02*
X4564000Y-12852000D01*
X23272608Y-2843392D02*
X22131000Y-3985000D01*
X23231000Y2916000D02*
X19350015Y2916000D01*
X4564000Y-12852000D02*
X4564000Y-7314500D01*
X29751000Y206000D02*
X29243000Y-302000D01*
X23730000Y2417000D02*
X23231000Y2916000D01*
X10640000Y-3096000D02*
X13052500Y-3096000D01*
X36959173Y2916000D02*
X30174999Y2916000D01*
X3398500Y-26232500D02*
X4564000Y-25067000D01*
X39149000Y-5001000D02*
X36228000Y-2080000D01*
X22131000Y-3985000D02*
X19926909Y-3985000D01*
X3398500Y-27797500D02*
X3398500Y-26232500D01*
X18575000Y2140985D02*
X18575000Y851015D01*
X15908000Y-240500D02*
X13052500Y-3096000D01*
X15908000Y-48000D02*
X15908000Y-240500D01*
X8953387Y-3187387D02*
X9751000Y-3985000D01*
X5906950Y-3187387D02*
X8953387Y-3187387D01*
X17675985Y-48000D02*
X15908000Y-48000D01*
X4564000Y-15502000D02*
X4698000Y-15368000D01*
X19350015Y2916000D02*
X18575000Y2140985D01*
X25580900Y-2843392D02*
X23730000Y-992492D01*
X29751000Y2492001D02*
X29751000Y206000D01*
X36228000Y-2080000D02*
X36699000Y-1609000D01*
X4467500Y-124000D02*
X9048195Y-124000D01*
X23730000Y-992492D02*
X23730000Y2417000D01*
X30174999Y2916000D02*
X29751000Y2492001D01*
X19926909Y-3985000D02*
X18836118Y-2894209D01*
X10348500Y-273695D02*
X10348500Y-3387500D01*
X40292000Y-5001000D02*
X39149000Y-5001000D01*
X29243000Y-302000D02*
X28122292Y-302000D01*
X28122292Y-302000D02*
X25580900Y-2843392D01*
X37625000Y2250173D02*
X36959173Y2916000D01*
X9048195Y-124000D02*
X9323195Y151000D01*
X25580900Y-2843392D02*
X23272608Y-2843392D01*
X36228000Y-2080000D02*
X31529000Y-2080000D01*
X9923805Y151000D02*
X10348500Y-273695D01*
X2319000Y-2272500D02*
X4416500Y-175000D01*
X18575000Y851015D02*
X17675985Y-48000D01*
X37625000Y206000D02*
X37625000Y2250173D01*
X2319000Y-5069500D02*
X2319000Y-2272500D01*
%TO.N,Net-(C8-Pad1)*%
X9623500Y-574000D02*
X7495032Y-574000D01*
X3654500Y-4112000D02*
X5181950Y-5639450D01*
X6343070Y-7054570D02*
X5181950Y-5893450D01*
X5181950Y-2887082D02*
X5181950Y-5893450D01*
X5181950Y-5639450D02*
X5181950Y-5893450D01*
X7495032Y-574000D02*
X5181950Y-2887082D01*
%TO.N,Net-(C14-Pad1)*%
X17940000Y-2080000D02*
X17940000Y-5763000D01*
X16162000Y-3985000D02*
X17940000Y-5763000D01*
X17940000Y-6206510D02*
X17940000Y-5763000D01*
X18785065Y-7051575D02*
X17940000Y-6206510D01*
X22470073Y-576535D02*
X19443465Y-576535D01*
X19443465Y-576535D02*
X17940000Y-2080000D01*
%TO.N,Net-(C20-Pad1)*%
X30961799Y-2909799D02*
X30767000Y-2715000D01*
X31783000Y-302000D02*
X35974000Y-302000D01*
X30961799Y-6338799D02*
X30961799Y-7100799D01*
X28735000Y-4112000D02*
X30961799Y-6338799D01*
X30961799Y-7100799D02*
X30961799Y-2909799D01*
X30767000Y-2715000D02*
X30767000Y-1318000D01*
X30767000Y-1318000D02*
X31783000Y-302000D01*
%TO.N,Net-(D1-Pad2)*%
X-6709000Y-3858000D02*
X-4793000Y-3858000D01*
X-6597521Y-26439000D02*
X-7560479Y-26439000D01*
X-5835021Y-25676500D02*
X-6597521Y-26439000D01*
X-7560479Y-26439000D02*
X-8545000Y-25454479D01*
X-5174000Y-25676500D02*
X-5835021Y-25676500D01*
X-8545000Y-25454479D02*
X-8545000Y-5694000D01*
X-8545000Y-5694000D02*
X-6709000Y-3858000D01*
%TO.N,Net-(D2-Pad2)*%
X-6228173Y-19993000D02*
X-7315000Y-21079827D01*
X-7315000Y-21079827D02*
X-7315000Y-25440500D01*
X-1534500Y-19993000D02*
X-6228173Y-19993000D01*
X122500Y-18336000D02*
X-1534500Y-19993000D01*
%TO.N,Net-(D3-Pad2)*%
X-734695Y3366000D02*
X-1887695Y2213000D01*
X48801000Y1857000D02*
X47292000Y3366000D01*
X-4792500Y2213000D02*
X-5555000Y1450500D01*
X-1887695Y2213000D02*
X-4792500Y2213000D01*
X47292000Y3366000D02*
X-734695Y3366000D01*
%TO.N,Net-(D4-Pad2)*%
X1938000Y-10233500D02*
X1531500Y-9827000D01*
X1531500Y-9827000D02*
X-1223500Y-9827000D01*
X-1223500Y-9827000D02*
X-1757000Y-9293500D01*
X-1757000Y-5370000D02*
X-7333000Y206000D01*
X-7333000Y206000D02*
X-7333000Y1450500D01*
X-1757000Y-9293500D02*
X-1757000Y-5370000D01*
%TO.N,Net-(C3-Pad1)*%
X40927000Y-25841827D02*
X39055478Y-23970305D01*
X36318000Y-23970305D02*
X34840305Y-25448000D01*
X40927000Y-27226000D02*
X40927000Y-25841827D01*
X39055478Y-23970305D02*
X36318000Y-23970305D01*
%TO.N,Net-(C5-Pad1)*%
X-5260000Y-22568000D02*
X-2126000Y-25702000D01*
X-5260000Y-22568000D02*
X-6190000Y-22568000D01*
X-2126000Y-25829000D02*
X-2126000Y-25702000D01*
%TO.N,+3V3*%
X19550000Y-25321000D02*
X20675000Y-26446000D01*
X20226000Y-23797000D02*
X20226000Y-24645000D01*
X28245000Y-26446000D02*
X29370000Y-25321000D01*
X20226000Y-24645000D02*
X19550000Y-25321000D01*
X20675000Y-26446000D02*
X28245000Y-26446000D01*
%TO.N,/I2C_SDA*%
X39588000Y-11166000D02*
X42959000Y-7795000D01*
X42959000Y-7795000D02*
X48567000Y-7795000D01*
X17150152Y-11166000D02*
X39588000Y-11166000D01*
X12220914Y-16095238D02*
X17150152Y-11166000D01*
%TO.N,/I2C_SCL*%
X46827000Y-5255000D02*
X48567000Y-5255000D01*
X42772604Y-7345000D02*
X44737000Y-7345000D01*
X44737000Y-7345000D02*
X46827000Y-5255000D01*
X39401604Y-10716000D02*
X42772604Y-7345000D01*
X16550924Y-10716000D02*
X39401604Y-10716000D01*
X11222715Y-16044209D02*
X16550924Y-10716000D01*
%TO.N,Net-(C29-Pad1)*%
X12393000Y-27734000D02*
X7145000Y-27734000D01*
X16965000Y-23162000D02*
X12393000Y-27734000D01*
%TO.N,Net-(R18-Pad2)*%
X15262000Y-21395000D02*
X16280792Y-21395000D01*
X5331195Y-28522500D02*
X7661695Y-26192000D01*
X2573000Y-27997305D02*
X3098195Y-28522500D01*
X14892000Y-21765000D02*
X15262000Y-21395000D01*
X7661695Y-26192000D02*
X12148173Y-26192000D01*
X3098195Y-28522500D02*
X5331195Y-28522500D01*
X16280792Y-21395000D02*
X19149292Y-18526500D01*
X19149292Y-18526500D02*
X23210500Y-18526500D01*
X1049000Y-14551000D02*
X1049000Y-21963033D01*
X12148173Y-26192000D02*
X14892000Y-23448173D01*
X14892000Y-23448173D02*
X14892000Y-21765000D01*
X1049000Y-21963033D02*
X2573000Y-23487033D01*
X2573000Y-23487033D02*
X2573000Y-27997305D01*
%TO.N,/Stepper module/VREF*%
X2700000Y-10970000D02*
X2700000Y-10081000D01*
X2398000Y-18002000D02*
X2398000Y-11272000D01*
X2398000Y-11272000D02*
X2700000Y-10970000D01*
X2700000Y-10081000D02*
X3081000Y-9700000D01*
%TO.N,Net-(D8-Pad2)*%
X-4056500Y1450500D02*
X-5301000Y206000D01*
%TO.N,/RS485_A*%
X48547000Y-16558000D02*
X46007000Y-16558000D01*
X46007000Y-16558000D02*
X39620000Y-22945000D01*
X35292695Y-22945000D02*
X33914695Y-24323000D01*
X39620000Y-22945000D02*
X35292695Y-22945000D01*
X32031827Y-24323000D02*
X29255827Y-27099000D01*
X33914695Y-24323000D02*
X32031827Y-24323000D01*
X29255827Y-27099000D02*
X19972000Y-27099000D01*
%TO.N,/RS485_B*%
X19962695Y-28115000D02*
X41308000Y-28115000D01*
X42234000Y-27189000D02*
X42234000Y-25411000D01*
X19023789Y-26782930D02*
X19210000Y-26969141D01*
X42234000Y-25411000D02*
X48547000Y-19098000D01*
X41308000Y-28115000D02*
X42234000Y-27189000D01*
X19210000Y-27362305D02*
X19962695Y-28115000D01*
X19210000Y-26969141D02*
X19210000Y-27362305D01*
%TO.N,/RAW_5V*%
X48547000Y-21638000D02*
X49967000Y-20218000D01*
X49967000Y-20218000D02*
X49967000Y-11735000D01*
X49967000Y-11735000D02*
X48567000Y-10335000D01*
%TD*%
M02*
