%TF.GenerationSoftware,KiCad,Pcbnew,6.0.11+dfsg-1~bpo11+1*%
%TF.CreationDate,2023-07-10T22:14:43+02:00*%
%TF.ProjectId,motor_board_v3,6d6f746f-725f-4626-9f61-72645f76332e,rev?*%
%TF.SameCoordinates,PX87037a0PY50412a8*%
%TF.FileFunction,Legend,Bot*%
%TF.FilePolarity,Positive*%
%FSLAX46Y46*%
G04 Gerber Fmt 4.6, Leading zero omitted, Abs format (unit mm)*
G04 Created by KiCad (PCBNEW 6.0.11+dfsg-1~bpo11+1) date 2023-07-10 22:14:43*
%MOMM*%
%LPD*%
G01*
G04 APERTURE LIST*
%ADD10C,0.120000*%
%ADD11C,0.150000*%
G04 APERTURE END LIST*
D10*
%TO.C,C10*%
X13165920Y-3221000D02*
X13447080Y-3221000D01*
X13165920Y-4241000D02*
X13447080Y-4241000D01*
%TO.C,D9*%
X48202000Y-25702000D02*
X48202000Y-26352000D01*
X45082000Y-25702000D02*
X45082000Y-24027000D01*
X45082000Y-25702000D02*
X45082000Y-26352000D01*
X48202000Y-25702000D02*
X48202000Y-25052000D01*
%TO.C,R4*%
X7237064Y-26231000D02*
X5782936Y-26231000D01*
X7237064Y-24411000D02*
X5782936Y-24411000D01*
%TO.C,U2*%
X41054000Y-20007000D02*
X37604000Y-20007000D01*
X41054000Y-14887000D02*
X39104000Y-14887000D01*
X41054000Y-14887000D02*
X43004000Y-14887000D01*
X41054000Y-20007000D02*
X43004000Y-20007000D01*
%TO.C,R7*%
X7237064Y-26824000D02*
X5782936Y-26824000D01*
X7237064Y-28644000D02*
X5782936Y-28644000D01*
%TO.C,C17*%
X27594000Y-19492580D02*
X27594000Y-19211420D01*
X26574000Y-19492580D02*
X26574000Y-19211420D01*
%TO.C,U6*%
X27211000Y-22491000D02*
X26411000Y-22491000D01*
X27211000Y-25611000D02*
X28011000Y-25611000D01*
X27211000Y-25611000D02*
X26411000Y-25611000D01*
X27211000Y-22491000D02*
X29011000Y-22491000D01*
%TO.C,R19*%
X28751742Y-27113500D02*
X29226258Y-27113500D01*
X28751742Y-26068500D02*
X29226258Y-26068500D01*
%TO.C,C14*%
X16418000Y-2347580D02*
X16418000Y-2066420D01*
X15398000Y-2347580D02*
X15398000Y-2066420D01*
%TO.C,R3*%
X37387742Y-21525500D02*
X37862258Y-21525500D01*
X37387742Y-20480500D02*
X37862258Y-20480500D01*
%TO.C,C9*%
X5827080Y-3221000D02*
X5545920Y-3221000D01*
X5827080Y-4241000D02*
X5545920Y-4241000D01*
%TO.C,FB2*%
X28389779Y-16556000D02*
X28064221Y-16556000D01*
X28389779Y-17576000D02*
X28064221Y-17576000D01*
%TO.C,R15*%
X34435500Y-1842742D02*
X34435500Y-2317258D01*
X35480500Y-1842742D02*
X35480500Y-2317258D01*
%TO.C,R10*%
X12071436Y-2736000D02*
X13525564Y-2736000D01*
X12071436Y-916000D02*
X13525564Y-916000D01*
D11*
%TO.C,U1*%
X12889000Y-17886000D02*
X12889000Y-16461000D01*
X19914000Y-17886000D02*
X19914000Y-18211000D01*
X12664000Y-25136000D02*
X12664000Y-24811000D01*
X19914000Y-25136000D02*
X19914000Y-24811000D01*
X12664000Y-25136000D02*
X12989000Y-25136000D01*
X19914000Y-17886000D02*
X19589000Y-17886000D01*
X12664000Y-17886000D02*
X12889000Y-17886000D01*
X19914000Y-25136000D02*
X19589000Y-25136000D01*
X12664000Y-17886000D02*
X12664000Y-18211000D01*
D10*
%TO.C,R14*%
X19683064Y-916000D02*
X18228936Y-916000D01*
X19683064Y-2736000D02*
X18228936Y-2736000D01*
%TO.C,U3*%
X14710500Y-8371500D02*
X14710500Y-6061500D01*
X14710500Y-6061500D02*
X14435500Y-6061500D01*
X4790500Y-6061500D02*
X5065500Y-6061500D01*
X14710500Y-8371500D02*
X14710500Y-10681500D01*
X4790500Y-8371500D02*
X4790500Y-6061500D01*
X14710500Y-10681500D02*
X14435500Y-10681500D01*
X5065500Y-6061500D02*
X5065500Y-4771500D01*
X4790500Y-10681500D02*
X5065500Y-10681500D01*
X4790500Y-8371500D02*
X4790500Y-10681500D01*
%TO.C,D5*%
X-220000Y-19069000D02*
X-220000Y-13669000D01*
X3080000Y-19069000D02*
X-220000Y-19069000D01*
X3080000Y-19069000D02*
X3080000Y-13669000D01*
%TO.C,C22*%
X38881420Y-3221000D02*
X39162580Y-3221000D01*
X38881420Y-4241000D02*
X39162580Y-4241000D01*
%TO.C,C15*%
X18334580Y-3221000D02*
X18053420Y-3221000D01*
X18334580Y-4241000D02*
X18053420Y-4241000D01*
%TO.C,C7*%
X3271500Y-5876420D02*
X3271500Y-6157580D01*
X4291500Y-5876420D02*
X4291500Y-6157580D01*
%TO.C,C18*%
X15144000Y-10729580D02*
X15144000Y-10448420D01*
X16164000Y-10729580D02*
X16164000Y-10448420D01*
%TO.C,R16*%
X43234000Y-4273936D02*
X43234000Y-5728064D01*
X41414000Y-4273936D02*
X41414000Y-5728064D01*
%TO.C,C24*%
X27590000Y-10729580D02*
X27590000Y-10448420D01*
X28610000Y-10729580D02*
X28610000Y-10448420D01*
%TO.C,C11*%
X23641420Y-17322000D02*
X23922580Y-17322000D01*
X23641420Y-16302000D02*
X23922580Y-16302000D01*
%TO.C,C21*%
X31034580Y-3221000D02*
X30753420Y-3221000D01*
X31034580Y-4241000D02*
X30753420Y-4241000D01*
%TO.C,U5*%
X29363000Y-6120000D02*
X29638000Y-6120000D01*
X29363000Y-10740000D02*
X29638000Y-10740000D01*
X29363000Y-8430000D02*
X29363000Y-10740000D01*
X39283000Y-8430000D02*
X39283000Y-10740000D01*
X29363000Y-8430000D02*
X29363000Y-6120000D01*
X39283000Y-8430000D02*
X39283000Y-6120000D01*
X39283000Y-6120000D02*
X39008000Y-6120000D01*
X29638000Y-6120000D02*
X29638000Y-4830000D01*
X39283000Y-10740000D02*
X39008000Y-10740000D01*
%TO.C,C2*%
X24784420Y-27101000D02*
X25065580Y-27101000D01*
X24784420Y-26081000D02*
X25065580Y-26081000D01*
%TO.C,R9*%
X2878000Y-2444258D02*
X2878000Y-1969742D01*
X3923000Y-2444258D02*
X3923000Y-1969742D01*
%TO.C,C16*%
X25927420Y-4241000D02*
X26208580Y-4241000D01*
X25927420Y-3221000D02*
X26208580Y-3221000D01*
%TO.C,C20*%
X28098000Y-2347580D02*
X28098000Y-2066420D01*
X29118000Y-2347580D02*
X29118000Y-2066420D01*
%TO.C,R2*%
X37387742Y-22004500D02*
X37862258Y-22004500D01*
X37387742Y-23049500D02*
X37862258Y-23049500D01*
%TO.C,U8*%
X44646000Y-10208000D02*
X44646000Y-9408000D01*
X41526000Y-10208000D02*
X41526000Y-9408000D01*
X41526000Y-10208000D02*
X41526000Y-11008000D01*
X44646000Y-10208000D02*
X44646000Y-12008000D01*
%TO.C,F1*%
X-3520000Y-21682752D02*
X-3520000Y-17275248D01*
X-8860000Y-21682752D02*
X-8860000Y-17275248D01*
%TO.C,R5*%
X46783500Y-17463742D02*
X46783500Y-17938258D01*
X45738500Y-17463742D02*
X45738500Y-17938258D01*
%TO.C,R6*%
X7237064Y-23818000D02*
X5782936Y-23818000D01*
X7237064Y-21998000D02*
X5782936Y-21998000D01*
%TO.C,Y1*%
X22163000Y-21002000D02*
X22163000Y-17702000D01*
X22163000Y-17702000D02*
X26163000Y-17702000D01*
%TO.C,D7*%
X32666000Y-16171000D02*
X28986000Y-16171000D01*
X32666000Y-14151000D02*
X32666000Y-16171000D01*
X32666000Y-14151000D02*
X28986000Y-14151000D01*
%TO.C,R13*%
X24705936Y-2736000D02*
X26160064Y-2736000D01*
X24705936Y-916000D02*
X26160064Y-916000D01*
%TO.C,C12*%
X40802000Y-10856580D02*
X40802000Y-10575420D01*
X39782000Y-10856580D02*
X39782000Y-10575420D01*
%TO.C,C1*%
X16148420Y-15925000D02*
X16429580Y-15925000D01*
X16148420Y-14905000D02*
X16429580Y-14905000D01*
%TO.C,R18*%
X13257742Y-28256500D02*
X13732258Y-28256500D01*
X13257742Y-27211500D02*
X13732258Y-27211500D01*
%TO.C,FB1*%
X-5628242Y-26739000D02*
X-3957758Y-26739000D01*
X-5628242Y-24919000D02*
X-3957758Y-24919000D01*
%TO.C,C8*%
X10133500Y-2066420D02*
X10133500Y-2347580D01*
X9113500Y-2066420D02*
X9113500Y-2347580D01*
%TO.C,R12*%
X22780500Y-1842742D02*
X22780500Y-2317258D01*
X21735500Y-1842742D02*
X21735500Y-2317258D01*
%TO.C,Q1*%
X34831000Y-14490000D02*
X35481000Y-14490000D01*
X34831000Y-14490000D02*
X34181000Y-14490000D01*
X34831000Y-17610000D02*
X35481000Y-17610000D01*
X34831000Y-17610000D02*
X33156000Y-17610000D01*
%TO.C,C19*%
X28864000Y-6003420D02*
X28864000Y-6284580D01*
X27844000Y-6003420D02*
X27844000Y-6284580D01*
%TO.C,R17*%
X32510064Y-916000D02*
X31055936Y-916000D01*
X32510064Y-2736000D02*
X31055936Y-2736000D01*
%TO.C,C13*%
X16672000Y-6003420D02*
X16672000Y-6284580D01*
X15652000Y-6003420D02*
X15652000Y-6284580D01*
%TO.C,R1*%
X-313064Y-25935000D02*
X1141064Y-25935000D01*
X-313064Y-27755000D02*
X1141064Y-27755000D01*
%TO.C,C4*%
X31415580Y-16556000D02*
X31134420Y-16556000D01*
X31415580Y-17576000D02*
X31134420Y-17576000D01*
%TO.C,R11*%
X7175564Y-2736000D02*
X5721436Y-2736000D01*
X7175564Y-916000D02*
X5721436Y-916000D01*
%TO.C,C6*%
X-2255000Y-18857580D02*
X-2255000Y-18576420D01*
X-1235000Y-18857580D02*
X-1235000Y-18576420D01*
%TO.C,U4*%
X17171000Y-6120000D02*
X17446000Y-6120000D01*
X27091000Y-10740000D02*
X26816000Y-10740000D01*
X27091000Y-8430000D02*
X27091000Y-6120000D01*
X17171000Y-8430000D02*
X17171000Y-10740000D01*
X17446000Y-6120000D02*
X17446000Y-4830000D01*
X17171000Y-8430000D02*
X17171000Y-6120000D01*
X27091000Y-8430000D02*
X27091000Y-10740000D01*
X27091000Y-6120000D02*
X26816000Y-6120000D01*
X17171000Y-10740000D02*
X17446000Y-10740000D01*
%TO.C,D6*%
X-5053000Y-12500000D02*
X-5053000Y-14520000D01*
X-5053000Y-12500000D02*
X-8733000Y-12500000D01*
X-5053000Y-14520000D02*
X-8733000Y-14520000D01*
%TD*%
M02*
