%TF.GenerationSoftware,KiCad,Pcbnew,6.0.11+dfsg-1~bpo11+1*%
%TF.CreationDate,2023-07-10T22:14:43+02:00*%
%TF.ProjectId,motor_board_v3,6d6f746f-725f-4626-9f61-72645f76332e,rev?*%
%TF.SameCoordinates,PX87037a0PY50412a8*%
%TF.FileFunction,Copper,L4,Bot*%
%TF.FilePolarity,Positive*%
%FSLAX46Y46*%
G04 Gerber Fmt 4.6, Leading zero omitted, Abs format (unit mm)*
G04 Created by KiCad (PCBNEW 6.0.11+dfsg-1~bpo11+1) date 2023-07-10 22:14:43*
%MOMM*%
%LPD*%
G01*
G04 APERTURE LIST*
G04 Aperture macros list*
%AMRoundRect*
0 Rectangle with rounded corners*
0 $1 Rounding radius*
0 $2 $3 $4 $5 $6 $7 $8 $9 X,Y pos of 4 corners*
0 Add a 4 corners polygon primitive as box body*
4,1,4,$2,$3,$4,$5,$6,$7,$8,$9,$2,$3,0*
0 Add four circle primitives for the rounded corners*
1,1,$1+$1,$2,$3*
1,1,$1+$1,$4,$5*
1,1,$1+$1,$6,$7*
1,1,$1+$1,$8,$9*
0 Add four rect primitives between the rounded corners*
20,1,$1+$1,$2,$3,$4,$5,0*
20,1,$1+$1,$4,$5,$6,$7,0*
20,1,$1+$1,$6,$7,$8,$9,0*
20,1,$1+$1,$8,$9,$2,$3,0*%
G04 Aperture macros list end*
%TA.AperFunction,ComponentPad*%
%ADD10R,1.700000X1.700000*%
%TD*%
%TA.AperFunction,ComponentPad*%
%ADD11O,1.700000X1.700000*%
%TD*%
%TA.AperFunction,ComponentPad*%
%ADD12RoundRect,0.250000X0.620000X0.845000X-0.620000X0.845000X-0.620000X-0.845000X0.620000X-0.845000X0*%
%TD*%
%TA.AperFunction,ComponentPad*%
%ADD13O,1.740000X2.190000*%
%TD*%
%TA.AperFunction,ComponentPad*%
%ADD14RoundRect,0.250000X0.845000X-0.620000X0.845000X0.620000X-0.845000X0.620000X-0.845000X-0.620000X0*%
%TD*%
%TA.AperFunction,ComponentPad*%
%ADD15O,2.190000X1.740000*%
%TD*%
%TA.AperFunction,ComponentPad*%
%ADD16R,3.500000X3.500000*%
%TD*%
%TA.AperFunction,ComponentPad*%
%ADD17RoundRect,0.750000X-0.750000X-1.000000X0.750000X-1.000000X0.750000X1.000000X-0.750000X1.000000X0*%
%TD*%
%TA.AperFunction,ComponentPad*%
%ADD18RoundRect,0.875000X-0.875000X-0.875000X0.875000X-0.875000X0.875000X0.875000X-0.875000X0.875000X0*%
%TD*%
%TA.AperFunction,ComponentPad*%
%ADD19R,2.000000X2.000000*%
%TD*%
%TA.AperFunction,ComponentPad*%
%ADD20C,2.000000*%
%TD*%
%TA.AperFunction,SMDPad,CuDef*%
%ADD21RoundRect,0.225000X-0.225000X-0.250000X0.225000X-0.250000X0.225000X0.250000X-0.225000X0.250000X0*%
%TD*%
%TA.AperFunction,SMDPad,CuDef*%
%ADD22RoundRect,0.150000X-0.150000X0.587500X-0.150000X-0.587500X0.150000X-0.587500X0.150000X0.587500X0*%
%TD*%
%TA.AperFunction,SMDPad,CuDef*%
%ADD23RoundRect,0.250000X0.312500X0.625000X-0.312500X0.625000X-0.312500X-0.625000X0.312500X-0.625000X0*%
%TD*%
%TA.AperFunction,SMDPad,CuDef*%
%ADD24RoundRect,0.150000X-0.825000X-0.150000X0.825000X-0.150000X0.825000X0.150000X-0.825000X0.150000X0*%
%TD*%
%TA.AperFunction,SMDPad,CuDef*%
%ADD25RoundRect,0.225000X0.250000X-0.225000X0.250000X0.225000X-0.250000X0.225000X-0.250000X-0.225000X0*%
%TD*%
%TA.AperFunction,SMDPad,CuDef*%
%ADD26RoundRect,0.150000X0.512500X0.150000X-0.512500X0.150000X-0.512500X-0.150000X0.512500X-0.150000X0*%
%TD*%
%TA.AperFunction,SMDPad,CuDef*%
%ADD27RoundRect,0.200000X-0.200000X-0.275000X0.200000X-0.275000X0.200000X0.275000X-0.200000X0.275000X0*%
%TD*%
%TA.AperFunction,SMDPad,CuDef*%
%ADD28RoundRect,0.225000X0.225000X0.250000X-0.225000X0.250000X-0.225000X-0.250000X0.225000X-0.250000X0*%
%TD*%
%TA.AperFunction,SMDPad,CuDef*%
%ADD29RoundRect,0.218750X0.218750X0.256250X-0.218750X0.256250X-0.218750X-0.256250X0.218750X-0.256250X0*%
%TD*%
%TA.AperFunction,SMDPad,CuDef*%
%ADD30RoundRect,0.200000X-0.275000X0.200000X-0.275000X-0.200000X0.275000X-0.200000X0.275000X0.200000X0*%
%TD*%
%TA.AperFunction,SMDPad,CuDef*%
%ADD31RoundRect,0.250000X-0.312500X-0.625000X0.312500X-0.625000X0.312500X0.625000X-0.312500X0.625000X0*%
%TD*%
%TA.AperFunction,SMDPad,CuDef*%
%ADD32R,0.550000X1.600000*%
%TD*%
%TA.AperFunction,SMDPad,CuDef*%
%ADD33R,1.600000X0.550000*%
%TD*%
%TA.AperFunction,SMDPad,CuDef*%
%ADD34RoundRect,0.100000X-0.100000X0.637500X-0.100000X-0.637500X0.100000X-0.637500X0.100000X0.637500X0*%
%TD*%
%TA.AperFunction,SMDPad,CuDef*%
%ADD35R,5.400000X2.850000*%
%TD*%
%TA.AperFunction,SMDPad,CuDef*%
%ADD36R,1.800000X2.500000*%
%TD*%
%TA.AperFunction,SMDPad,CuDef*%
%ADD37RoundRect,0.225000X-0.250000X0.225000X-0.250000X-0.225000X0.250000X-0.225000X0.250000X0.225000X0*%
%TD*%
%TA.AperFunction,SMDPad,CuDef*%
%ADD38RoundRect,0.250000X-0.625000X0.312500X-0.625000X-0.312500X0.625000X-0.312500X0.625000X0.312500X0*%
%TD*%
%TA.AperFunction,SMDPad,CuDef*%
%ADD39RoundRect,0.200000X0.275000X-0.200000X0.275000X0.200000X-0.275000X0.200000X-0.275000X-0.200000X0*%
%TD*%
%TA.AperFunction,SMDPad,CuDef*%
%ADD40RoundRect,0.150000X0.150000X-0.512500X0.150000X0.512500X-0.150000X0.512500X-0.150000X-0.512500X0*%
%TD*%
%TA.AperFunction,SMDPad,CuDef*%
%ADD41RoundRect,0.250000X2.475000X-0.712500X2.475000X0.712500X-2.475000X0.712500X-2.475000X-0.712500X0*%
%TD*%
%TA.AperFunction,SMDPad,CuDef*%
%ADD42R,1.400000X1.200000*%
%TD*%
%TA.AperFunction,SMDPad,CuDef*%
%ADD43R,1.300000X1.400000*%
%TD*%
%TA.AperFunction,SMDPad,CuDef*%
%ADD44RoundRect,0.250000X-0.275000X-0.700000X0.275000X-0.700000X0.275000X0.700000X-0.275000X0.700000X0*%
%TD*%
%TA.AperFunction,SMDPad,CuDef*%
%ADD45RoundRect,0.150000X-0.587500X-0.150000X0.587500X-0.150000X0.587500X0.150000X-0.587500X0.150000X0*%
%TD*%
%TA.AperFunction,ViaPad*%
%ADD46C,0.800000*%
%TD*%
%TA.AperFunction,Conductor*%
%ADD47C,0.250000*%
%TD*%
G04 APERTURE END LIST*
D10*
%TO.P,J1,1,MISO*%
%TO.N,/SPI_MISO*%
X32418000Y-19733000D03*
D11*
%TO.P,J1,2,VCC*%
%TO.N,/RAW_5V*%
X34958000Y-19733000D03*
%TO.P,J1,3,SCK*%
%TO.N,/SPI_SCK*%
X32418000Y-22273000D03*
%TO.P,J1,4,MOSI*%
%TO.N,/SPI_MOSI*%
X34958000Y-22273000D03*
%TO.P,J1,5,~{RST}*%
%TO.N,/RST*%
X32418000Y-24813000D03*
%TO.P,J1,6,GND*%
%TO.N,GND*%
X34958000Y-24813000D03*
%TD*%
D12*
%TO.P,J6,1,Pin_1*%
%TO.N,Net-(J6-Pad1)*%
X24925000Y1496000D03*
D13*
%TO.P,J6,2,Pin_2*%
%TO.N,Net-(J6-Pad2)*%
X22385000Y1496000D03*
%TO.P,J6,3,Pin_3*%
%TO.N,Net-(J6-Pad3)*%
X19845000Y1496000D03*
%TO.P,J6,4,Pin_4*%
%TO.N,Net-(J6-Pad4)*%
X17305000Y1496000D03*
%TD*%
D14*
%TO.P,J4,1,Pin_1*%
%TO.N,/RAW_5V*%
X48547000Y-21638000D03*
D15*
%TO.P,J4,2,Pin_2*%
%TO.N,/RS485_B*%
X48547000Y-19098000D03*
%TO.P,J4,3,Pin_3*%
%TO.N,/RS485_A*%
X48547000Y-16558000D03*
%TO.P,J4,4,Pin_4*%
%TO.N,GND*%
X48547000Y-14018000D03*
%TD*%
D14*
%TO.P,J3,1,Pin_1*%
%TO.N,/RAW_5V*%
X48567000Y-10335000D03*
D15*
%TO.P,J3,2,Pin_2*%
%TO.N,/I2C_SDA*%
X48567000Y-7795000D03*
%TO.P,J3,3,Pin_3*%
%TO.N,/I2C_SCL*%
X48567000Y-5255000D03*
%TO.P,J3,4,Pin_4*%
%TO.N,GND*%
X48567000Y-2715000D03*
%TD*%
D12*
%TO.P,J7,1,Pin_1*%
%TO.N,Net-(J7-Pad1)*%
X36101000Y1496000D03*
D13*
%TO.P,J7,2,Pin_2*%
%TO.N,Net-(J7-Pad2)*%
X33561000Y1496000D03*
%TO.P,J7,3,Pin_3*%
%TO.N,Net-(J7-Pad3)*%
X31021000Y1496000D03*
%TO.P,J7,4,Pin_4*%
%TO.N,Net-(J7-Pad4)*%
X28481000Y1496000D03*
%TD*%
D12*
%TO.P,J5,1,Pin_1*%
%TO.N,Net-(J5-Pad1)*%
X13749000Y1496000D03*
D13*
%TO.P,J5,2,Pin_2*%
%TO.N,Net-(J5-Pad2)*%
X11209000Y1496000D03*
%TO.P,J5,3,Pin_3*%
%TO.N,Net-(J5-Pad3)*%
X8669000Y1496000D03*
%TO.P,J5,4,Pin_4*%
%TO.N,Net-(J5-Pad4)*%
X6129000Y1496000D03*
%TD*%
D16*
%TO.P,J2,1,Pin_1*%
%TO.N,Net-(D5-Pad2)*%
X318000Y-7218500D03*
D17*
%TO.P,J2,2,Pin_2*%
%TO.N,GND*%
X-5682000Y-7218500D03*
D18*
%TO.P,J2,3*%
%TO.N,N/C*%
X-2682000Y-11918500D03*
%TD*%
D19*
%TO.P,C30,1*%
%TO.N,+12V*%
X4605000Y-18978155D03*
D20*
%TO.P,C30,2*%
%TO.N,GND*%
X4605000Y-13978155D03*
%TD*%
D21*
%TO.P,C10,1*%
%TO.N,+12V*%
X12531500Y-3731000D03*
%TO.P,C10,2*%
%TO.N,GND*%
X14081500Y-3731000D03*
%TD*%
D22*
%TO.P,D9,1,K*%
%TO.N,/RS485_A*%
X45692000Y-24764500D03*
%TO.P,D9,2,K*%
%TO.N,/RS485_B*%
X47592000Y-24764500D03*
%TO.P,D9,3,A*%
%TO.N,GND*%
X46642000Y-26639500D03*
%TD*%
D23*
%TO.P,R4,1*%
%TO.N,/FAULT_ST*%
X7972500Y-25321000D03*
%TO.P,R4,2*%
%TO.N,Net-(D1-Pad2)*%
X5047500Y-25321000D03*
%TD*%
D24*
%TO.P,U2,1,RO*%
%TO.N,/UART_RXD*%
X38579000Y-19352000D03*
%TO.P,U2,2,~{RE}*%
%TO.N,/RS485_TXE*%
X38579000Y-18082000D03*
%TO.P,U2,3,DE*%
X38579000Y-16812000D03*
%TO.P,U2,4,DI*%
%TO.N,/UART_TXD*%
X38579000Y-15542000D03*
%TO.P,U2,5,GND*%
%TO.N,GND*%
X43529000Y-15542000D03*
%TO.P,U2,6,A*%
%TO.N,/RS485_B*%
X43529000Y-16812000D03*
%TO.P,U2,7,B*%
%TO.N,/RS485_A*%
X43529000Y-18082000D03*
%TO.P,U2,8,VCC*%
%TO.N,+5V*%
X43529000Y-19352000D03*
%TD*%
D23*
%TO.P,R7,1*%
%TO.N,+5V*%
X7972500Y-27734000D03*
%TO.P,R7,2*%
%TO.N,Net-(D3-Pad2)*%
X5047500Y-27734000D03*
%TD*%
D25*
%TO.P,C17,1*%
%TO.N,/XTAL2*%
X27084000Y-20127000D03*
%TO.P,C17,2*%
%TO.N,GND*%
X27084000Y-18577000D03*
%TD*%
D26*
%TO.P,U6,1,IO1*%
%TO.N,/SPI_SCK*%
X28348500Y-23101000D03*
%TO.P,U6,2,VN*%
%TO.N,GND*%
X28348500Y-24051000D03*
%TO.P,U6,3,IO2*%
%TO.N,/RST*%
X28348500Y-25001000D03*
%TO.P,U6,4,IO3*%
%TO.N,/SPI_MISO*%
X26073500Y-25001000D03*
%TO.P,U6,5,VP*%
%TO.N,+5V*%
X26073500Y-24051000D03*
%TO.P,U6,6,IO4*%
%TO.N,/SPI_MOSI*%
X26073500Y-23101000D03*
%TD*%
D27*
%TO.P,R19,1*%
%TO.N,+5V*%
X28164000Y-26591000D03*
%TO.P,R19,2*%
%TO.N,/RST*%
X29814000Y-26591000D03*
%TD*%
D25*
%TO.P,C14,1*%
%TO.N,Net-(C14-Pad1)*%
X15908000Y-2982000D03*
%TO.P,C14,2*%
%TO.N,+12V*%
X15908000Y-1432000D03*
%TD*%
D27*
%TO.P,R3,1*%
%TO.N,/SPI_MISO*%
X36800000Y-21003000D03*
%TO.P,R3,2*%
%TO.N,/UART_RXD*%
X38450000Y-21003000D03*
%TD*%
D28*
%TO.P,C9,1*%
%TO.N,+12V*%
X6461500Y-3731000D03*
%TO.P,C9,2*%
%TO.N,GND*%
X4911500Y-3731000D03*
%TD*%
D29*
%TO.P,FB2,1*%
%TO.N,Net-(C3-Pad1)*%
X29014500Y-17066000D03*
%TO.P,FB2,2*%
%TO.N,+5V*%
X27439500Y-17066000D03*
%TD*%
D30*
%TO.P,R15,1*%
%TO.N,Net-(C20-Pad1)*%
X34958000Y-1255000D03*
%TO.P,R15,2*%
%TO.N,+12V*%
X34958000Y-2905000D03*
%TD*%
D31*
%TO.P,R10,1*%
%TO.N,Net-(R10-Pad1)*%
X11336000Y-1826000D03*
%TO.P,R10,2*%
%TO.N,GND*%
X14261000Y-1826000D03*
%TD*%
D32*
%TO.P,U1,1,PD3*%
%TO.N,/DECAY*%
X13489000Y-17261000D03*
%TO.P,U1,2,PD4*%
%TO.N,/FAULT*%
X14289000Y-17261000D03*
%TO.P,U1,3,PE0*%
%TO.N,/DIR0*%
X15089000Y-17261000D03*
%TO.P,U1,4,VCC*%
%TO.N,+5V*%
X15889000Y-17261000D03*
%TO.P,U1,5,GND*%
%TO.N,GND*%
X16689000Y-17261000D03*
%TO.P,U1,6,PE1*%
%TO.N,/DIR1*%
X17489000Y-17261000D03*
%TO.P,U1,7,XTAL1/PB6*%
%TO.N,/XTAL1*%
X18289000Y-17261000D03*
%TO.P,U1,8,XTAL2/PB7*%
%TO.N,/XTAL2*%
X19089000Y-17261000D03*
D33*
%TO.P,U1,9,PD5*%
%TO.N,unconnected-(U1-Pad9)*%
X20539000Y-18711000D03*
%TO.P,U1,10,PD6*%
%TO.N,unconnected-(U1-Pad10)*%
X20539000Y-19511000D03*
%TO.P,U1,11,PD7*%
%TO.N,unconnected-(U1-Pad11)*%
X20539000Y-20311000D03*
%TO.P,U1,12,PB0*%
%TO.N,/STEP_EN*%
X20539000Y-21111000D03*
%TO.P,U1,13,PB1*%
%TO.N,/STEP0*%
X20539000Y-21911000D03*
%TO.P,U1,14,PB2*%
%TO.N,/RS485_TXE*%
X20539000Y-22711000D03*
%TO.P,U1,15,PB3*%
%TO.N,/SPI_MOSI*%
X20539000Y-23511000D03*
%TO.P,U1,16,PB4*%
%TO.N,/SPI_MISO*%
X20539000Y-24311000D03*
D32*
%TO.P,U1,17,PB5*%
%TO.N,/SPI_SCK*%
X19089000Y-25761000D03*
%TO.P,U1,18,AVCC*%
%TO.N,+5V*%
X18289000Y-25761000D03*
%TO.P,U1,19,PE2*%
%TO.N,/DIR2*%
X17489000Y-25761000D03*
%TO.P,U1,20,AREF*%
%TO.N,unconnected-(U1-Pad20)*%
X16689000Y-25761000D03*
%TO.P,U1,21,GND*%
%TO.N,GND*%
X15889000Y-25761000D03*
%TO.P,U1,22,PE3*%
%TO.N,unconnected-(U1-Pad22)*%
X15089000Y-25761000D03*
%TO.P,U1,23,PC0*%
%TO.N,/MODE0*%
X14289000Y-25761000D03*
%TO.P,U1,24,PC1*%
%TO.N,/MODE1*%
X13489000Y-25761000D03*
D33*
%TO.P,U1,25,PC2*%
%TO.N,/MODE2*%
X12039000Y-24311000D03*
%TO.P,U1,26,PC3*%
%TO.N,/FAULT_ST*%
X12039000Y-23511000D03*
%TO.P,U1,27,PC4*%
%TO.N,/I2C_SDA*%
X12039000Y-22711000D03*
%TO.P,U1,28,PC5*%
%TO.N,/I2C_SCL*%
X12039000Y-21911000D03*
%TO.P,U1,29,~{RESET}/PC6*%
%TO.N,/RST*%
X12039000Y-21111000D03*
%TO.P,U1,30,PD0*%
%TO.N,/STEP1*%
X12039000Y-20311000D03*
%TO.P,U1,31,PD1*%
%TO.N,/STEP2*%
X12039000Y-19511000D03*
%TO.P,U1,32,PD2*%
%TO.N,/STATUS*%
X12039000Y-18711000D03*
%TD*%
D23*
%TO.P,R14,1*%
%TO.N,Net-(R14-Pad1)*%
X20418500Y-1826000D03*
%TO.P,R14,2*%
%TO.N,GND*%
X17493500Y-1826000D03*
%TD*%
D34*
%TO.P,U3,1,CP1*%
%TO.N,Net-(C7-Pad1)*%
X5525500Y-5509000D03*
%TO.P,U3,2,CP2*%
%TO.N,Net-(C7-Pad2)*%
X6175500Y-5509000D03*
%TO.P,U3,3,VCP*%
%TO.N,Net-(C8-Pad1)*%
X6825500Y-5509000D03*
%TO.P,U3,4,VMA*%
%TO.N,+12V*%
X7475500Y-5509000D03*
%TO.P,U3,5,AOUT1*%
%TO.N,Net-(J5-Pad4)*%
X8125500Y-5509000D03*
%TO.P,U3,6,ISENA*%
%TO.N,Net-(R11-Pad1)*%
X8775500Y-5509000D03*
%TO.P,U3,7,AOUT2*%
%TO.N,Net-(J5-Pad3)*%
X9425500Y-5509000D03*
%TO.P,U3,8,BOUT2*%
%TO.N,Net-(J5-Pad1)*%
X10075500Y-5509000D03*
%TO.P,U3,9,ISENB*%
%TO.N,Net-(R10-Pad1)*%
X10725500Y-5509000D03*
%TO.P,U3,10,BOUT1*%
%TO.N,Net-(J5-Pad2)*%
X11375500Y-5509000D03*
%TO.P,U3,11,VMB*%
%TO.N,+12V*%
X12025500Y-5509000D03*
%TO.P,U3,12,AVREF*%
%TO.N,/Stepper module/VREF*%
X12675500Y-5509000D03*
%TO.P,U3,13,BVREF*%
X13325500Y-5509000D03*
%TO.P,U3,14,GND*%
%TO.N,GND*%
X13975500Y-5509000D03*
%TO.P,U3,15,V3P3OUT*%
%TO.N,Net-(C18-Pad1)*%
X13975500Y-11234000D03*
%TO.P,U3,16,nRESET*%
%TO.N,/RST*%
X13325500Y-11234000D03*
%TO.P,U3,17,nSLEEP*%
%TO.N,+5V*%
X12675500Y-11234000D03*
%TO.P,U3,18,nFAULT*%
%TO.N,/FAULT*%
X12025500Y-11234000D03*
%TO.P,U3,19,DECAY*%
%TO.N,/DECAY*%
X11375500Y-11234000D03*
%TO.P,U3,20,DIR*%
%TO.N,/DIR0*%
X10725500Y-11234000D03*
%TO.P,U3,21,nENBL*%
%TO.N,/STEP_EN*%
X10075500Y-11234000D03*
%TO.P,U3,22,STEP*%
%TO.N,/STEP0*%
X9425500Y-11234000D03*
%TO.P,U3,23,NC*%
%TO.N,unconnected-(U3-Pad23)*%
X8775500Y-11234000D03*
%TO.P,U3,24,MODE0*%
%TO.N,/MODE0*%
X8125500Y-11234000D03*
%TO.P,U3,25,MODE1*%
%TO.N,/MODE1*%
X7475500Y-11234000D03*
%TO.P,U3,26,MODE2*%
%TO.N,/MODE2*%
X6825500Y-11234000D03*
%TO.P,U3,27,nHOME*%
%TO.N,unconnected-(U3-Pad27)*%
X6175500Y-11234000D03*
%TO.P,U3,28,GND*%
%TO.N,GND*%
X5525500Y-11234000D03*
D35*
%TO.P,U3,29,PAD*%
X9750500Y-8371500D03*
%TD*%
D36*
%TO.P,D5,1,K*%
%TO.N,Net-(D5-Pad1)*%
X1430000Y-17669000D03*
%TO.P,D5,2,A*%
%TO.N,Net-(D5-Pad2)*%
X1430000Y-13669000D03*
%TD*%
D21*
%TO.P,C22,1*%
%TO.N,+12V*%
X38247000Y-3731000D03*
%TO.P,C22,2*%
%TO.N,GND*%
X39797000Y-3731000D03*
%TD*%
D28*
%TO.P,C15,1*%
%TO.N,+12V*%
X18969000Y-3731000D03*
%TO.P,C15,2*%
%TO.N,GND*%
X17419000Y-3731000D03*
%TD*%
D37*
%TO.P,C7,1*%
%TO.N,Net-(C7-Pad1)*%
X3781500Y-5242000D03*
%TO.P,C7,2*%
%TO.N,Net-(C7-Pad2)*%
X3781500Y-6792000D03*
%TD*%
D25*
%TO.P,C18,1*%
%TO.N,Net-(C18-Pad1)*%
X15654000Y-11364000D03*
%TO.P,C18,2*%
%TO.N,GND*%
X15654000Y-9814000D03*
%TD*%
D38*
%TO.P,R16,1*%
%TO.N,Net-(R16-Pad1)*%
X42324000Y-3538500D03*
%TO.P,R16,2*%
%TO.N,GND*%
X42324000Y-6463500D03*
%TD*%
D25*
%TO.P,C24,1*%
%TO.N,Net-(C24-Pad1)*%
X28100000Y-11364000D03*
%TO.P,C24,2*%
%TO.N,GND*%
X28100000Y-9814000D03*
%TD*%
D21*
%TO.P,C11,1*%
%TO.N,/XTAL1*%
X23007000Y-16812000D03*
%TO.P,C11,2*%
%TO.N,GND*%
X24557000Y-16812000D03*
%TD*%
D28*
%TO.P,C21,1*%
%TO.N,+12V*%
X31669000Y-3731000D03*
%TO.P,C21,2*%
%TO.N,GND*%
X30119000Y-3731000D03*
%TD*%
D34*
%TO.P,U5,1,CP1*%
%TO.N,Net-(C19-Pad1)*%
X30098000Y-5567500D03*
%TO.P,U5,2,CP2*%
%TO.N,Net-(C19-Pad2)*%
X30748000Y-5567500D03*
%TO.P,U5,3,VCP*%
%TO.N,Net-(C20-Pad1)*%
X31398000Y-5567500D03*
%TO.P,U5,4,VMA*%
%TO.N,+12V*%
X32048000Y-5567500D03*
%TO.P,U5,5,AOUT1*%
%TO.N,Net-(J7-Pad4)*%
X32698000Y-5567500D03*
%TO.P,U5,6,ISENA*%
%TO.N,Net-(R17-Pad1)*%
X33348000Y-5567500D03*
%TO.P,U5,7,AOUT2*%
%TO.N,Net-(J7-Pad3)*%
X33998000Y-5567500D03*
%TO.P,U5,8,BOUT2*%
%TO.N,Net-(J7-Pad1)*%
X34648000Y-5567500D03*
%TO.P,U5,9,ISENB*%
%TO.N,Net-(R16-Pad1)*%
X35298000Y-5567500D03*
%TO.P,U5,10,BOUT1*%
%TO.N,Net-(J7-Pad2)*%
X35948000Y-5567500D03*
%TO.P,U5,11,VMB*%
%TO.N,+12V*%
X36598000Y-5567500D03*
%TO.P,U5,12,AVREF*%
%TO.N,/Stepper module/VREF*%
X37248000Y-5567500D03*
%TO.P,U5,13,BVREF*%
X37898000Y-5567500D03*
%TO.P,U5,14,GND*%
%TO.N,GND*%
X38548000Y-5567500D03*
%TO.P,U5,15,V3P3OUT*%
%TO.N,Net-(C12-Pad1)*%
X38548000Y-11292500D03*
%TO.P,U5,16,nRESET*%
%TO.N,/RST*%
X37898000Y-11292500D03*
%TO.P,U5,17,nSLEEP*%
%TO.N,+5V*%
X37248000Y-11292500D03*
%TO.P,U5,18,nFAULT*%
%TO.N,/FAULT*%
X36598000Y-11292500D03*
%TO.P,U5,19,DECAY*%
%TO.N,/DECAY*%
X35948000Y-11292500D03*
%TO.P,U5,20,DIR*%
%TO.N,/DIR2*%
X35298000Y-11292500D03*
%TO.P,U5,21,nENBL*%
%TO.N,/STEP_EN*%
X34648000Y-11292500D03*
%TO.P,U5,22,STEP*%
%TO.N,/STEP2*%
X33998000Y-11292500D03*
%TO.P,U5,23,NC*%
%TO.N,unconnected-(U5-Pad23)*%
X33348000Y-11292500D03*
%TO.P,U5,24,MODE0*%
%TO.N,/MODE0*%
X32698000Y-11292500D03*
%TO.P,U5,25,MODE1*%
%TO.N,/MODE1*%
X32048000Y-11292500D03*
%TO.P,U5,26,MODE2*%
%TO.N,/MODE2*%
X31398000Y-11292500D03*
%TO.P,U5,27,nHOME*%
%TO.N,unconnected-(U5-Pad27)*%
X30748000Y-11292500D03*
%TO.P,U5,28,GND*%
%TO.N,GND*%
X30098000Y-11292500D03*
D35*
%TO.P,U5,29,PAD*%
X34323000Y-8430000D03*
%TD*%
D21*
%TO.P,C2,1*%
%TO.N,+5V*%
X24150000Y-26591000D03*
%TO.P,C2,2*%
%TO.N,GND*%
X25700000Y-26591000D03*
%TD*%
D39*
%TO.P,R9,1*%
%TO.N,Net-(C8-Pad1)*%
X3400500Y-3032000D03*
%TO.P,R9,2*%
%TO.N,+12V*%
X3400500Y-1382000D03*
%TD*%
D21*
%TO.P,C16,1*%
%TO.N,+12V*%
X25293000Y-3731000D03*
%TO.P,C16,2*%
%TO.N,GND*%
X26843000Y-3731000D03*
%TD*%
D25*
%TO.P,C20,1*%
%TO.N,Net-(C20-Pad1)*%
X28608000Y-2982000D03*
%TO.P,C20,2*%
%TO.N,+12V*%
X28608000Y-1432000D03*
%TD*%
D27*
%TO.P,R2,1*%
%TO.N,/SPI_MOSI*%
X36800000Y-22527000D03*
%TO.P,R2,2*%
%TO.N,/UART_TXD*%
X38450000Y-22527000D03*
%TD*%
D40*
%TO.P,U8,1,IO1*%
%TO.N,unconnected-(U8-Pad1)*%
X44036000Y-11345500D03*
%TO.P,U8,2,VN*%
%TO.N,GND*%
X43086000Y-11345500D03*
%TO.P,U8,3,IO2*%
%TO.N,unconnected-(U8-Pad3)*%
X42136000Y-11345500D03*
%TO.P,U8,4,IO3*%
%TO.N,/I2C_SDA*%
X42136000Y-9070500D03*
%TO.P,U8,5,VP*%
%TO.N,+5V*%
X43086000Y-9070500D03*
%TO.P,U8,6,IO4*%
%TO.N,/I2C_SCL*%
X44036000Y-9070500D03*
%TD*%
D41*
%TO.P,F1,1*%
%TO.N,Net-(C5-Pad1)*%
X-6190000Y-22866500D03*
%TO.P,F1,2*%
%TO.N,Net-(D5-Pad1)*%
X-6190000Y-16091500D03*
%TD*%
D30*
%TO.P,R5,1*%
%TO.N,/RS485_A*%
X46261000Y-16876000D03*
%TO.P,R5,2*%
%TO.N,/RS485_B*%
X46261000Y-18526000D03*
%TD*%
D23*
%TO.P,R6,1*%
%TO.N,/STATUS*%
X7972500Y-22908000D03*
%TO.P,R6,2*%
%TO.N,Net-(D2-Pad2)*%
X5047500Y-22908000D03*
%TD*%
D42*
%TO.P,Y1,1,1*%
%TO.N,/XTAL1*%
X23063000Y-18502000D03*
%TO.P,Y1,2,2*%
%TO.N,GND*%
X25263000Y-18502000D03*
%TO.P,Y1,3,3*%
%TO.N,/XTAL2*%
X25263000Y-20202000D03*
%TO.P,Y1,4,4*%
%TO.N,GND*%
X23063000Y-20202000D03*
%TD*%
D43*
%TO.P,D7,1,A1*%
%TO.N,Net-(C3-Pad1)*%
X31836000Y-15161000D03*
%TO.P,D7,2,A2*%
%TO.N,GND*%
X28936000Y-15161000D03*
%TD*%
D31*
%TO.P,R13,1*%
%TO.N,Net-(R13-Pad1)*%
X23970500Y-1826000D03*
%TO.P,R13,2*%
%TO.N,GND*%
X26895500Y-1826000D03*
%TD*%
D25*
%TO.P,C12,1*%
%TO.N,Net-(C12-Pad1)*%
X40292000Y-11491000D03*
%TO.P,C12,2*%
%TO.N,GND*%
X40292000Y-9941000D03*
%TD*%
D21*
%TO.P,C1,1*%
%TO.N,+5V*%
X15514000Y-15415000D03*
%TO.P,C1,2*%
%TO.N,GND*%
X17064000Y-15415000D03*
%TD*%
D27*
%TO.P,R18,1*%
%TO.N,+5V*%
X12670000Y-27734000D03*
%TO.P,R18,2*%
%TO.N,Net-(R18-Pad2)*%
X14320000Y-27734000D03*
%TD*%
D44*
%TO.P,FB1,1*%
%TO.N,Net-(C5-Pad1)*%
X-6368000Y-25829000D03*
%TO.P,FB1,2*%
%TO.N,+12V*%
X-3218000Y-25829000D03*
%TD*%
D37*
%TO.P,C8,1*%
%TO.N,Net-(C8-Pad1)*%
X9623500Y-1432000D03*
%TO.P,C8,2*%
%TO.N,+12V*%
X9623500Y-2982000D03*
%TD*%
D30*
%TO.P,R12,1*%
%TO.N,Net-(C14-Pad1)*%
X22258000Y-1255000D03*
%TO.P,R12,2*%
%TO.N,+12V*%
X22258000Y-2905000D03*
%TD*%
D45*
%TO.P,Q1,1,G*%
%TO.N,GND*%
X33893500Y-17000000D03*
%TO.P,Q1,2,S*%
%TO.N,Net-(C3-Pad1)*%
X33893500Y-15100000D03*
%TO.P,Q1,3,D*%
%TO.N,/RAW_5V*%
X35768500Y-16050000D03*
%TD*%
D37*
%TO.P,C19,1*%
%TO.N,Net-(C19-Pad1)*%
X28354000Y-5369000D03*
%TO.P,C19,2*%
%TO.N,Net-(C19-Pad2)*%
X28354000Y-6919000D03*
%TD*%
D23*
%TO.P,R17,1*%
%TO.N,Net-(R17-Pad1)*%
X33245500Y-1826000D03*
%TO.P,R17,2*%
%TO.N,GND*%
X30320500Y-1826000D03*
%TD*%
D37*
%TO.P,C13,1*%
%TO.N,Net-(C13-Pad1)*%
X16162000Y-5369000D03*
%TO.P,C13,2*%
%TO.N,Net-(C13-Pad2)*%
X16162000Y-6919000D03*
%TD*%
D31*
%TO.P,R1,1*%
%TO.N,+12V*%
X-1048500Y-26845000D03*
%TO.P,R1,2*%
%TO.N,Net-(D8-Pad2)*%
X1876500Y-26845000D03*
%TD*%
D28*
%TO.P,C4,1*%
%TO.N,Net-(C3-Pad1)*%
X32050000Y-17066000D03*
%TO.P,C4,2*%
%TO.N,GND*%
X30500000Y-17066000D03*
%TD*%
D23*
%TO.P,R11,1*%
%TO.N,Net-(R11-Pad1)*%
X7911000Y-1826000D03*
%TO.P,R11,2*%
%TO.N,GND*%
X4986000Y-1826000D03*
%TD*%
D25*
%TO.P,C6,1*%
%TO.N,Net-(C5-Pad1)*%
X-1745000Y-19492000D03*
%TO.P,C6,2*%
%TO.N,GND*%
X-1745000Y-17942000D03*
%TD*%
D34*
%TO.P,U4,1,CP1*%
%TO.N,Net-(C13-Pad1)*%
X17906000Y-5567500D03*
%TO.P,U4,2,CP2*%
%TO.N,Net-(C13-Pad2)*%
X18556000Y-5567500D03*
%TO.P,U4,3,VCP*%
%TO.N,Net-(C14-Pad1)*%
X19206000Y-5567500D03*
%TO.P,U4,4,VMA*%
%TO.N,+12V*%
X19856000Y-5567500D03*
%TO.P,U4,5,AOUT1*%
%TO.N,Net-(J6-Pad4)*%
X20506000Y-5567500D03*
%TO.P,U4,6,ISENA*%
%TO.N,Net-(R14-Pad1)*%
X21156000Y-5567500D03*
%TO.P,U4,7,AOUT2*%
%TO.N,Net-(J6-Pad3)*%
X21806000Y-5567500D03*
%TO.P,U4,8,BOUT2*%
%TO.N,Net-(J6-Pad1)*%
X22456000Y-5567500D03*
%TO.P,U4,9,ISENB*%
%TO.N,Net-(R13-Pad1)*%
X23106000Y-5567500D03*
%TO.P,U4,10,BOUT1*%
%TO.N,Net-(J6-Pad2)*%
X23756000Y-5567500D03*
%TO.P,U4,11,VMB*%
%TO.N,+12V*%
X24406000Y-5567500D03*
%TO.P,U4,12,AVREF*%
%TO.N,/Stepper module/VREF*%
X25056000Y-5567500D03*
%TO.P,U4,13,BVREF*%
X25706000Y-5567500D03*
%TO.P,U4,14,GND*%
%TO.N,GND*%
X26356000Y-5567500D03*
%TO.P,U4,15,V3P3OUT*%
%TO.N,Net-(C24-Pad1)*%
X26356000Y-11292500D03*
%TO.P,U4,16,nRESET*%
%TO.N,/RST*%
X25706000Y-11292500D03*
%TO.P,U4,17,nSLEEP*%
%TO.N,+5V*%
X25056000Y-11292500D03*
%TO.P,U4,18,nFAULT*%
%TO.N,/FAULT*%
X24406000Y-11292500D03*
%TO.P,U4,19,DECAY*%
%TO.N,/DECAY*%
X23756000Y-11292500D03*
%TO.P,U4,20,DIR*%
%TO.N,/DIR1*%
X23106000Y-11292500D03*
%TO.P,U4,21,nENBL*%
%TO.N,/STEP_EN*%
X22456000Y-11292500D03*
%TO.P,U4,22,STEP*%
%TO.N,/STEP1*%
X21806000Y-11292500D03*
%TO.P,U4,23,NC*%
%TO.N,unconnected-(U4-Pad23)*%
X21156000Y-11292500D03*
%TO.P,U4,24,MODE0*%
%TO.N,/MODE0*%
X20506000Y-11292500D03*
%TO.P,U4,25,MODE1*%
%TO.N,/MODE1*%
X19856000Y-11292500D03*
%TO.P,U4,26,MODE2*%
%TO.N,/MODE2*%
X19206000Y-11292500D03*
%TO.P,U4,27,nHOME*%
%TO.N,unconnected-(U4-Pad27)*%
X18556000Y-11292500D03*
%TO.P,U4,28,GND*%
%TO.N,GND*%
X17906000Y-11292500D03*
D35*
%TO.P,U4,29,PAD*%
X22131000Y-8430000D03*
%TD*%
D43*
%TO.P,D6,1,A1*%
%TO.N,Net-(D5-Pad1)*%
X-5883000Y-13510000D03*
%TO.P,D6,2,A2*%
%TO.N,GND*%
X-8783000Y-13510000D03*
%TD*%
D46*
%TO.N,GND*%
X21623000Y-8557000D03*
X8415000Y-7541000D03*
X49055000Y-26718000D03*
X36482000Y-9319000D03*
X35593000Y-7541000D03*
X21623000Y-7668000D03*
X21623000Y-9446000D03*
X11971000Y-7541000D03*
X32926000Y-8430000D03*
X32926000Y-7541000D03*
X-2507000Y3000000D03*
X30132000Y-24178000D03*
X11971000Y-9319000D03*
X8415000Y-8430000D03*
X34704000Y-7541000D03*
X22512000Y-9446000D03*
X26893500Y-111500D03*
X7526000Y-9319000D03*
X-4285000Y-18717000D03*
X10193000Y-7541000D03*
X32926000Y-9319000D03*
X11082000Y-7541000D03*
X11971000Y-8430000D03*
X20734000Y-8557000D03*
X8415000Y-9319000D03*
X27211000Y-7795000D03*
X40292000Y-8557000D03*
X24290000Y-8557000D03*
X3589000Y1095000D03*
X9304000Y-8430000D03*
X11082000Y-8430000D03*
X36482000Y-7541000D03*
X26195000Y-17320000D03*
X33815000Y-8430000D03*
X35593000Y-8430000D03*
X11082000Y-9319000D03*
X45773500Y-14673500D03*
X35593000Y-9319000D03*
X22512000Y-7668000D03*
X22512000Y-8557000D03*
X7526000Y-7541000D03*
X19845000Y-8557000D03*
X36482000Y-8430000D03*
X15908000Y-8176000D03*
X34704000Y-8430000D03*
X25496500Y-21447500D03*
X-6444000Y-27988000D03*
X9304000Y-7541000D03*
X20734000Y-9446000D03*
X9304000Y-9319000D03*
X7526000Y-8430000D03*
X34704000Y-9319000D03*
X20734000Y-7668000D03*
X10193000Y-8430000D03*
X33815000Y-7541000D03*
X19845000Y-7668000D03*
X32037000Y-9319000D03*
X33815000Y-9319000D03*
X23401000Y-7668000D03*
X19845000Y-9446000D03*
X39657000Y-13637000D03*
X16670000Y-27353000D03*
X40736500Y-6207500D03*
X18321000Y-556000D03*
X24290000Y-7668000D03*
X24290000Y-9446000D03*
X23401000Y-8557000D03*
X32037000Y-8430000D03*
X10193000Y-9319000D03*
X26830000Y-27480000D03*
X32037000Y-7541000D03*
X23401000Y-9446000D03*
X-8764250Y-10300750D03*
%TO.N,+5V*%
X38895000Y-9700000D03*
X31783000Y-27480000D03*
X26322000Y-9827000D03*
X41308000Y-19352000D03*
X13876000Y-9700000D03*
%TO.N,+12V*%
X18836118Y-2894209D03*
X40292000Y-5001000D03*
X13052500Y-3096000D03*
X31529000Y-2080000D03*
X29243000Y-302000D03*
X9751000Y-3985000D03*
X25580900Y-2843392D03*
X4416500Y-175000D03*
X15908000Y-48000D03*
X22131000Y-3985000D03*
X5906950Y-3187387D03*
X36228000Y-2080000D03*
%TO.N,Net-(C8-Pad1)*%
X9623500Y-574000D03*
X5367000Y-7516500D03*
X3654500Y-4112000D03*
%TO.N,Net-(C14-Pad1)*%
X17813000Y-7354500D03*
X16162000Y-3985000D03*
X22470073Y-576535D03*
%TO.N,Net-(C20-Pad1)*%
X35974000Y-302000D03*
X28735000Y-4112000D03*
X29878000Y-7643500D03*
%TO.N,Net-(D1-Pad2)*%
X6383000Y-25829000D03*
%TO.N,Net-(D2-Pad2)*%
X6510000Y-22273000D03*
%TO.N,Net-(D3-Pad2)*%
X2700000Y-24686000D03*
%TO.N,/SPI_MISO*%
X21750000Y-27353000D03*
%TO.N,Net-(C3-Pad1)*%
X30259000Y-18209000D03*
%TO.N,Net-(C5-Pad1)*%
X-5936000Y-21257000D03*
%TO.N,/RST*%
X11463000Y-15860299D03*
X9357000Y-20696000D03*
X37881848Y-12734146D03*
X26322000Y-15923000D03*
%TO.N,/I2C_SDA*%
X9939000Y-23035000D03*
%TO.N,/I2C_SCL*%
X9543201Y-21906799D03*
%TO.N,Net-(R18-Pad2)*%
X15527000Y-27734000D03*
X18194000Y-23289000D03*
%TO.N,/Stepper module/VREF*%
X14003000Y-23035000D03*
X3081000Y-9700000D03*
X14892000Y-5763000D03*
X39657000Y-6741500D03*
X27211000Y-5382000D03*
%TO.N,/MODE0*%
X32462524Y-13411500D03*
X9431000Y-27193006D03*
X18838473Y-14687665D03*
X6181568Y-14619240D03*
%TO.N,/MODE1*%
X18575000Y-13723514D03*
X9431000Y-26193503D03*
X31472695Y-13272780D03*
X6163863Y-13619894D03*
%TO.N,Net-(D8-Pad2)*%
X414000Y-26972000D03*
%TO.N,/DECAY*%
X9655313Y-14894277D03*
X36022500Y-13295102D03*
X23819779Y-15309722D03*
%TO.N,/STEP0*%
X7750313Y-15910277D03*
X18448000Y-21638000D03*
%TO.N,/FAULT*%
X36883796Y-12787979D03*
X10574000Y-15288000D03*
X25179000Y-15542000D03*
%TO.N,/MODE2*%
X30635197Y-12629383D03*
X9431000Y-25194000D03*
X18575000Y-12724011D03*
X6129000Y-12621000D03*
%TO.N,/DIR0*%
X8669000Y-16304000D03*
X13876000Y-18971000D03*
%TO.N,/DIR2*%
X18067000Y-27734000D03*
X35021500Y-13573500D03*
%TO.N,/STEP_EN*%
X8123500Y-14526000D03*
X34046192Y-13792080D03*
X22067500Y-14348511D03*
X18194000Y-19098000D03*
%TO.N,/STEP1*%
X20480000Y-14348511D03*
X14130000Y-20495000D03*
%TO.N,/STEP2*%
X15531299Y-19864299D03*
X33434000Y-13002000D03*
%TO.N,/RAW_5V*%
X36228000Y-17066000D03*
%TO.N,/SPI_SCK*%
X23020000Y-24305000D03*
%TD*%
D47*
%TO.N,/XTAL1*%
X22118000Y-15923000D02*
X23007000Y-16812000D01*
X18289000Y-17261000D02*
X18289000Y-16211000D01*
X18289000Y-16211000D02*
X18577000Y-15923000D01*
X18577000Y-15923000D02*
X22118000Y-15923000D01*
X23063000Y-18502000D02*
X23063000Y-16868000D01*
%TO.N,GND*%
X31300000Y-17866000D02*
X30500000Y-17066000D01*
X33893500Y-17000000D02*
X33027500Y-17866000D01*
X30119000Y-3731000D02*
X30119000Y-2027500D01*
X26895500Y-113500D02*
X26893500Y-111500D01*
X27211000Y-8925000D02*
X28100000Y-9814000D01*
X17132500Y-11292500D02*
X17132500Y-10543500D01*
X17112500Y-2207000D02*
X14642000Y-2207000D01*
X-8764250Y-10300750D02*
X-5682000Y-7218500D01*
X43086000Y-13362000D02*
X44397500Y-14673500D01*
X25013000Y-18502000D02*
X23313000Y-20202000D01*
X-8783000Y-10319500D02*
X-8764250Y-10300750D01*
X29484000Y-9814000D02*
X28100000Y-9814000D01*
X13975500Y-5509000D02*
X13975500Y-3837000D01*
X28936000Y-15161000D02*
X28202000Y-15895000D01*
X17493500Y-1826000D02*
X17493500Y-3656500D01*
X17906000Y-11292500D02*
X17132500Y-11292500D01*
X15654000Y-9814000D02*
X15654000Y-8430000D01*
X-1745000Y-17942000D02*
X-3510000Y-17942000D01*
X28202000Y-15895000D02*
X28202000Y-18234000D01*
X26895500Y-1826000D02*
X26895500Y-113500D01*
X25941000Y-26591000D02*
X26830000Y-27480000D01*
X26843000Y-3731000D02*
X26843000Y-1878500D01*
X5141500Y125305D02*
X4171805Y1095000D01*
X38997500Y-6017000D02*
X40546000Y-6017000D01*
X15654000Y-8430000D02*
X15908000Y-8176000D01*
X25263000Y-18502000D02*
X25263000Y-17518000D01*
X4986000Y-1826000D02*
X4986000Y-3656500D01*
X17493500Y-1383500D02*
X18321000Y-556000D01*
X33027500Y-17866000D02*
X31300000Y-17866000D01*
X17064000Y-15415000D02*
X17064000Y-11361000D01*
X14261000Y-1826000D02*
X14261000Y-3551500D01*
X16689000Y-15790000D02*
X17064000Y-15415000D01*
X-8783000Y-13510000D02*
X-8783000Y-10319500D01*
X44397500Y-14673500D02*
X43529000Y-15542000D01*
X30098000Y-10428000D02*
X29484000Y-9814000D01*
X27211000Y-7795000D02*
X27211000Y-8925000D01*
X7526000Y-9319000D02*
X6002000Y-9319000D01*
X4171805Y1095000D02*
X3589000Y1095000D01*
X42324000Y-6463500D02*
X42324000Y-6007695D01*
X27084000Y-18577000D02*
X27084000Y-18209000D01*
X28348500Y-24051000D02*
X30005000Y-24051000D01*
X30005000Y-24051000D02*
X30132000Y-24178000D01*
X30098000Y-11292500D02*
X30098000Y-10428000D01*
X16689000Y-17261000D02*
X16689000Y-15790000D01*
X5141500Y-1670500D02*
X5141500Y125305D01*
X40736500Y-6207500D02*
X40546000Y-6017000D01*
X27084000Y-18209000D02*
X26195000Y-17320000D01*
X29939500Y-2207000D02*
X27276500Y-2207000D01*
X27859000Y-18577000D02*
X27084000Y-18577000D01*
X45773500Y-14673500D02*
X44397500Y-14673500D01*
X6002000Y-9319000D02*
X5525500Y-9795500D01*
X28202000Y-18234000D02*
X27859000Y-18577000D01*
X40992500Y-6463500D02*
X40736500Y-6207500D01*
X26356000Y-4218000D02*
X26843000Y-3731000D01*
X-3510000Y-17942000D02*
X-4285000Y-18717000D01*
X43086000Y-11345500D02*
X43086000Y-13362000D01*
X27084000Y-18577000D02*
X25338000Y-18577000D01*
X46720500Y-26718000D02*
X49055000Y-26718000D01*
X5525500Y-9795500D02*
X5525500Y-11234000D01*
X42324000Y-6463500D02*
X40992500Y-6463500D01*
X38548000Y-5567500D02*
X38997500Y-6017000D01*
X25263000Y-17518000D02*
X24557000Y-16812000D01*
X33893500Y-16515749D02*
X36772249Y-13637000D01*
X36772249Y-13637000D02*
X39657000Y-13637000D01*
X40292000Y-9941000D02*
X40292000Y-8557000D01*
X42324000Y-6007695D02*
X40047305Y-3731000D01*
X17064000Y-11361000D02*
X17132500Y-11292500D01*
X33893500Y-17000000D02*
X33893500Y-16515749D01*
X17132500Y-10543500D02*
X16403000Y-9814000D01*
X16670000Y-27353000D02*
X15889000Y-26572000D01*
X15889000Y-26572000D02*
X15889000Y-25761000D01*
X26356000Y-5567500D02*
X26356000Y-4218000D01*
X16403000Y-9814000D02*
X15654000Y-9814000D01*
%TO.N,/XTAL2*%
X20814000Y-17261000D02*
X21877000Y-18324000D01*
X21877000Y-18324000D02*
X21877000Y-20966000D01*
X22041000Y-21130000D02*
X24335000Y-21130000D01*
X21877000Y-20966000D02*
X22041000Y-21130000D01*
X24335000Y-21130000D02*
X25263000Y-20202000D01*
X19089000Y-17261000D02*
X20814000Y-17261000D01*
X25263000Y-20202000D02*
X27009000Y-20202000D01*
%TO.N,+5V*%
X28900000Y-11816817D02*
X28900000Y-10753999D01*
X37248000Y-10603959D02*
X37248000Y-11292500D01*
X18792000Y-28034305D02*
X18792000Y-27189000D01*
X18702000Y-27099000D02*
X18489000Y-26886000D01*
X29053000Y-27480000D02*
X31783000Y-27480000D01*
X28164000Y-26591000D02*
X29053000Y-27480000D01*
X8697500Y-28459000D02*
X13827538Y-28459000D01*
X27361000Y-24954249D02*
X27361000Y-25788000D01*
X16454000Y-14475000D02*
X16454000Y-10911183D01*
X25919000Y-10230000D02*
X26322000Y-9827000D01*
X13395000Y-28459000D02*
X12670000Y-27734000D01*
X25056000Y-10603959D02*
X25429959Y-10230000D01*
X15889000Y-17261000D02*
X15889000Y-15790000D01*
X37621959Y-10230000D02*
X37248000Y-10603959D01*
X12675500Y-10392500D02*
X13368000Y-9700000D01*
X39657000Y-7795000D02*
X42194751Y-7795000D01*
X26185695Y-27861000D02*
X24798000Y-27861000D01*
X20226000Y-27099000D02*
X18702000Y-27099000D01*
X28164000Y-27162000D02*
X27555000Y-27771000D01*
X18289000Y-26686000D02*
X18289000Y-25761000D01*
X13827538Y-28459000D02*
X13902538Y-28534000D01*
X27361000Y-25788000D02*
X28164000Y-26591000D01*
X43529000Y-19352000D02*
X41308000Y-19352000D01*
X38365000Y-10230000D02*
X37621959Y-10230000D01*
X12675500Y-11234000D02*
X12675500Y-10392500D01*
X27439500Y-17066000D02*
X27439500Y-13277317D01*
X14765000Y-10589000D02*
X13876000Y-9700000D01*
X27084000Y-10589000D02*
X26322000Y-9827000D01*
X24150000Y-26591000D02*
X22499000Y-28242000D01*
X24150000Y-27213000D02*
X24150000Y-26591000D01*
X26457751Y-24051000D02*
X27361000Y-24954249D01*
X27130305Y-28205000D02*
X26529695Y-28205000D01*
X14737462Y-28534000D02*
X14812462Y-28459000D01*
X7972500Y-27734000D02*
X8697500Y-28459000D01*
X16131817Y-10589000D02*
X14765000Y-10589000D01*
X21369000Y-28242000D02*
X20226000Y-27099000D01*
X38895000Y-9700000D02*
X38365000Y-10230000D01*
X38895000Y-8557000D02*
X39657000Y-7795000D01*
X22499000Y-28242000D02*
X21369000Y-28242000D01*
X27555000Y-27780305D02*
X27130305Y-28205000D01*
X28900000Y-10753999D02*
X28735001Y-10589000D01*
X25056000Y-11292500D02*
X25056000Y-10603959D01*
X27439500Y-13277317D02*
X28900000Y-11816817D01*
X28735001Y-10589000D02*
X27084000Y-10589000D01*
X26529695Y-28205000D02*
X26185695Y-27861000D01*
X18367305Y-28459000D02*
X18792000Y-28034305D01*
X42194751Y-7795000D02*
X43086000Y-8686249D01*
X15514000Y-15415000D02*
X16454000Y-14475000D01*
X38895000Y-9700000D02*
X38895000Y-8557000D01*
X14812462Y-28459000D02*
X18367305Y-28459000D01*
X24798000Y-27861000D02*
X24150000Y-27213000D01*
X15889000Y-15790000D02*
X15514000Y-15415000D01*
X16454000Y-10911183D02*
X16131817Y-10589000D01*
X13902538Y-28534000D02*
X14737462Y-28534000D01*
X18489000Y-26886000D02*
X18289000Y-26686000D01*
X25429959Y-10230000D02*
X25919000Y-10230000D01*
X13827538Y-28459000D02*
X13395000Y-28459000D01*
X27555000Y-27771000D02*
X27555000Y-27780305D01*
X28164000Y-26591000D02*
X28164000Y-27162000D01*
X18792000Y-27189000D02*
X18489000Y-26886000D01*
X13368000Y-9700000D02*
X13876000Y-9700000D01*
%TO.N,+12V*%
X25293000Y-3131292D02*
X25293000Y-3731000D01*
X4605000Y-21191500D02*
X4605000Y-18978155D01*
X13052500Y-3210000D02*
X12531500Y-3731000D01*
X31669000Y-3731000D02*
X31669000Y-2220000D01*
X5906950Y-3187387D02*
X5917887Y-3187387D01*
X35403000Y-2905000D02*
X36228000Y-2080000D01*
X3208000Y-12647000D02*
X3208000Y-17581155D01*
X19856000Y-5567500D02*
X19856000Y-4618000D01*
X32048000Y-5567500D02*
X32048000Y-4110000D01*
X9751000Y-3985000D02*
X9751000Y-3109500D01*
X28608000Y-937000D02*
X29243000Y-302000D01*
X2600500Y-9155195D02*
X2356000Y-9399695D01*
X39784000Y-5001000D02*
X40292000Y-5001000D01*
X32048000Y-4110000D02*
X31669000Y-3731000D01*
X18836118Y-2894209D02*
X18969000Y-3027091D01*
X2600500Y-2182000D02*
X2600500Y-9155195D01*
X34958000Y-2905000D02*
X35403000Y-2905000D01*
X24406000Y-4618000D02*
X25293000Y-3731000D01*
X-2202000Y-26845000D02*
X-3218000Y-25829000D01*
X38514000Y-3731000D02*
X39784000Y-5001000D01*
X36598000Y-5567500D02*
X36598000Y-4878959D01*
X12025500Y-4123000D02*
X12025500Y-5509000D01*
X13052500Y-3096000D02*
X12025500Y-4123000D01*
X25580900Y-2843392D02*
X25293000Y-3131292D01*
X7475500Y-4745000D02*
X6461500Y-3731000D01*
X3400500Y-1382000D02*
X2600500Y-2182000D01*
X7475500Y-5509000D02*
X7475500Y-4745000D01*
X24406000Y-5567500D02*
X24406000Y-4618000D01*
X3400500Y-1191000D02*
X4416500Y-175000D01*
X5917887Y-3187387D02*
X6461500Y-3731000D01*
X2356000Y-11795000D02*
X3208000Y-12647000D01*
X18969000Y-3027091D02*
X18969000Y-3731000D01*
X31669000Y-2220000D02*
X31529000Y-2080000D01*
X2356000Y-9399695D02*
X2356000Y-11795000D01*
X22258000Y-3858000D02*
X22131000Y-3985000D01*
X37745959Y-3731000D02*
X38247000Y-3731000D01*
X22258000Y-2905000D02*
X22258000Y-3858000D01*
X36598000Y-4878959D02*
X37745959Y-3731000D01*
X13052500Y-3096000D02*
X13052500Y-3210000D01*
X28608000Y-1432000D02*
X28608000Y-937000D01*
X15908000Y-1432000D02*
X15908000Y-48000D01*
X-1048500Y-26845000D02*
X-2202000Y-26845000D01*
X19856000Y-4618000D02*
X18969000Y-3731000D01*
X-1048500Y-26845000D02*
X4605000Y-21191500D01*
X3208000Y-17581155D02*
X4605000Y-18978155D01*
%TO.N,Net-(C7-Pad1)*%
X5525500Y-5509000D02*
X4048500Y-5509000D01*
%TO.N,Net-(C7-Pad2)*%
X6175500Y-5509000D02*
X6175500Y-6197541D01*
X5581041Y-6792000D02*
X3781500Y-6792000D01*
X6175500Y-6197541D02*
X5581041Y-6792000D01*
%TO.N,Net-(C8-Pad1)*%
X9623500Y-1432000D02*
X9623500Y-574000D01*
X6825500Y-6197541D02*
X6825500Y-5509000D01*
X3400500Y-3858000D02*
X3654500Y-4112000D01*
X5367000Y-7516500D02*
X5506541Y-7516500D01*
X5506541Y-7516500D02*
X6825500Y-6197541D01*
X3400500Y-3032000D02*
X3400500Y-3858000D01*
%TO.N,Net-(C13-Pad1)*%
X17906000Y-5567500D02*
X16360500Y-5567500D01*
%TO.N,Net-(C13-Pad2)*%
X16847500Y-6919000D02*
X17136500Y-6630000D01*
X16162000Y-6919000D02*
X16847500Y-6919000D01*
X17136500Y-6630000D02*
X18182041Y-6630000D01*
X18556000Y-6256041D02*
X18556000Y-5567500D01*
X18182041Y-6630000D02*
X18556000Y-6256041D01*
%TO.N,Net-(C14-Pad1)*%
X17813000Y-7354500D02*
X18087500Y-7080000D01*
X19206000Y-6256041D02*
X19206000Y-5567500D01*
X18087500Y-7080000D02*
X18382041Y-7080000D01*
X15908000Y-3731000D02*
X16162000Y-3985000D01*
X22258000Y-788608D02*
X22258000Y-1255000D01*
X18382041Y-7080000D02*
X19206000Y-6256041D01*
X22470073Y-576535D02*
X22258000Y-788608D01*
X15908000Y-2982000D02*
X15908000Y-3731000D01*
%TO.N,Net-(C19-Pad1)*%
X30098000Y-5567500D02*
X28552500Y-5567500D01*
%TO.N,Net-(C19-Pad2)*%
X30119000Y-6919000D02*
X28354000Y-6919000D01*
X30748000Y-6290000D02*
X30119000Y-6919000D01*
X30748000Y-5567500D02*
X30748000Y-6290000D01*
%TO.N,Net-(C20-Pad1)*%
X29878000Y-7643500D02*
X30410500Y-7643500D01*
X31398000Y-6656000D02*
X31398000Y-5567500D01*
X28608000Y-2982000D02*
X28608000Y-3985000D01*
X28608000Y-3985000D02*
X28735000Y-4112000D01*
X35021000Y-1255000D02*
X35974000Y-302000D01*
X30410500Y-7643500D02*
X31398000Y-6656000D01*
%TO.N,Net-(D1-Pad2)*%
X5047500Y-25321000D02*
X5875000Y-25321000D01*
X5875000Y-25321000D02*
X6383000Y-25829000D01*
%TO.N,Net-(D2-Pad2)*%
X5875000Y-22908000D02*
X6510000Y-22273000D01*
X5047500Y-22908000D02*
X5875000Y-22908000D01*
%TO.N,Net-(D3-Pad2)*%
X2700000Y-25386500D02*
X2700000Y-24686000D01*
X5047500Y-27734000D02*
X2700000Y-25386500D01*
%TO.N,/SPI_MISO*%
X34566299Y-21003000D02*
X33296299Y-19733000D01*
X24102000Y-25001000D02*
X21750000Y-27353000D01*
X33296299Y-19733000D02*
X32418000Y-19733000D01*
X23536000Y-23551000D02*
X24986000Y-25001000D01*
X26073500Y-25001000D02*
X24102000Y-25001000D01*
X20539000Y-24311000D02*
X21425396Y-24311000D01*
X36800000Y-21003000D02*
X34566299Y-21003000D01*
X21425396Y-24311000D02*
X22185396Y-23551000D01*
X24986000Y-25001000D02*
X26073500Y-25001000D01*
X22185396Y-23551000D02*
X23536000Y-23551000D01*
%TO.N,Net-(C3-Pad1)*%
X29370000Y-18209000D02*
X30259000Y-18209000D01*
X31836000Y-15161000D02*
X30919500Y-15161000D01*
X32050000Y-17066000D02*
X32050000Y-15375000D01*
X29014500Y-17853500D02*
X29370000Y-18209000D01*
X29014500Y-17066000D02*
X29014500Y-17853500D01*
X30919500Y-15161000D02*
X29014500Y-17066000D01*
X33893500Y-15100000D02*
X31897000Y-15100000D01*
%TO.N,Net-(C5-Pad1)*%
X-5936000Y-21257000D02*
X-5936000Y-22612500D01*
X-5119500Y-22866500D02*
X-1745000Y-19492000D01*
X-6368000Y-25829000D02*
X-6368000Y-23044500D01*
%TO.N,/RST*%
X11463000Y-15860299D02*
X11463000Y-14450543D01*
X30640000Y-26591000D02*
X29814000Y-26591000D01*
X37881848Y-12734146D02*
X37898000Y-12717994D01*
X37898000Y-12717994D02*
X37898000Y-11292500D01*
X10574000Y-20696000D02*
X9357000Y-20696000D01*
X32418000Y-24813000D02*
X30640000Y-26591000D01*
X25706000Y-15043695D02*
X25706000Y-11292500D01*
X26322000Y-15659695D02*
X25706000Y-15043695D01*
X10989000Y-21111000D02*
X10574000Y-20696000D01*
X26322000Y-15923000D02*
X26322000Y-15659695D01*
X13325500Y-12588043D02*
X13325500Y-11234000D01*
X11463000Y-14450543D02*
X13325500Y-12588043D01*
X29814000Y-26466500D02*
X28348500Y-25001000D01*
X12039000Y-21111000D02*
X10989000Y-21111000D01*
%TO.N,/I2C_SDA*%
X10263000Y-22711000D02*
X9939000Y-23035000D01*
X46304000Y-10058000D02*
X48567000Y-7795000D01*
X10263000Y-22711000D02*
X12039000Y-22711000D01*
X42739249Y-10058000D02*
X46304000Y-10058000D01*
X42136000Y-9454751D02*
X42739249Y-10058000D01*
%TO.N,/I2C_SCL*%
X9543201Y-21906799D02*
X9547402Y-21911000D01*
X9547402Y-21911000D02*
X12039000Y-21911000D01*
X44036000Y-9070500D02*
X47851500Y-5255000D01*
%TO.N,Net-(D5-Pad1)*%
X-5883000Y-15784500D02*
X-5883000Y-13510000D01*
X1430000Y-17669000D02*
X-147500Y-16091500D01*
X-147500Y-16091500D02*
X-6190000Y-16091500D01*
%TO.N,Net-(J5-Pad1)*%
X10448500Y-962827D02*
X10448500Y-2689173D01*
X10075500Y-5509000D02*
X10075500Y-4820459D01*
X10475500Y-4420459D02*
X10475500Y-3763812D01*
X13749000Y1496000D02*
X11627000Y-626000D01*
X10785327Y-626000D02*
X10448500Y-962827D01*
X10856500Y-3097173D02*
X10448500Y-2689173D01*
X11627000Y-626000D02*
X10785327Y-626000D01*
X10856500Y-3382812D02*
X10856500Y-3097173D01*
X10475500Y-3763812D02*
X10856500Y-3382812D01*
X10075500Y-4820459D02*
X10475500Y-4420459D01*
%TO.N,Net-(J5-Pad2)*%
X12290500Y-2719183D02*
X12290500Y-2045827D01*
X11375500Y-5509000D02*
X11375500Y-4136604D01*
X14944000Y2579173D02*
X14607173Y2916000D01*
X11756500Y-3253183D02*
X12290500Y-2719183D01*
X14944000Y412827D02*
X14944000Y2579173D01*
X11375500Y-4136604D02*
X11756500Y-3755604D01*
X12629000Y2916000D02*
X11209000Y1496000D01*
X14607173Y2916000D02*
X12629000Y2916000D01*
X11756500Y-3755604D02*
X11756500Y-3253183D01*
X13905173Y-626000D02*
X14944000Y412827D01*
X12290500Y-2045827D02*
X13710327Y-626000D01*
X13710327Y-626000D02*
X13905173Y-626000D01*
%TO.N,Net-(J5-Pad3)*%
X8798500Y-3412604D02*
X8798500Y1366500D01*
X9425500Y-5509000D02*
X9425500Y-4820459D01*
X9025500Y-3639604D02*
X8798500Y-3412604D01*
X9425500Y-4820459D02*
X9025500Y-4420459D01*
X9025500Y-4420459D02*
X9025500Y-3639604D01*
%TO.N,Net-(J5-Pad4)*%
X8125500Y-5509000D02*
X8125500Y-4012396D01*
X6129000Y-2015896D02*
X6129000Y1496000D01*
X8125500Y-4012396D02*
X6129000Y-2015896D01*
%TO.N,Net-(J6-Pad1)*%
X23419827Y-626000D02*
X23782000Y-626000D01*
X22856000Y-3524462D02*
X23083000Y-3297462D01*
X22456000Y-5567500D02*
X22456000Y-4878959D01*
X23083000Y-3297462D02*
X23083000Y-962827D01*
X23782000Y-626000D02*
X24925000Y517000D01*
X22856000Y-4478959D02*
X22856000Y-3524462D01*
X22456000Y-4878959D02*
X22856000Y-4478959D01*
X23083000Y-962827D02*
X23419827Y-626000D01*
X24925000Y517000D02*
X24925000Y1496000D01*
%TO.N,Net-(J6-Pad2)*%
X23805000Y2916000D02*
X22385000Y1496000D01*
X23756000Y-5567500D02*
X23756000Y-3897254D01*
X25783173Y2916000D02*
X23805000Y2916000D01*
X24858000Y-2795254D02*
X24858000Y-1953000D01*
X26120000Y-691000D02*
X26120000Y2579173D01*
X24858000Y-1953000D02*
X26120000Y-691000D01*
X26120000Y2579173D02*
X25783173Y2916000D01*
X23756000Y-3897254D02*
X24858000Y-2795254D01*
%TO.N,Net-(J6-Pad3)*%
X21406000Y-4478959D02*
X21406000Y-65000D01*
X21406000Y-65000D02*
X19845000Y1496000D01*
X21806000Y-4878959D02*
X21406000Y-4478959D01*
X21806000Y-5567500D02*
X21806000Y-4878959D01*
%TO.N,Net-(J6-Pad4)*%
X20506000Y-5567500D02*
X20506000Y-3664173D01*
X19531000Y-730000D02*
X17305000Y1496000D01*
X19531000Y-2689173D02*
X19531000Y-730000D01*
X20506000Y-3664173D02*
X19531000Y-2689173D01*
%TO.N,Net-(J7-Pad1)*%
X37117000Y-2335391D02*
X37117000Y480000D01*
X37117000Y480000D02*
X36101000Y1496000D01*
X34648000Y-5567500D02*
X34648000Y-4804391D01*
X34648000Y-4804391D02*
X37117000Y-2335391D01*
%TO.N,Net-(J7-Pad2)*%
X35948000Y-4777183D02*
X37877683Y-2847500D01*
X41124000Y-3805183D02*
X41124000Y-4089173D01*
X37567000Y-1499000D02*
X37567000Y2308173D01*
X41460827Y-4426000D02*
X43187173Y-4426000D01*
X43524000Y-2987827D02*
X42483673Y-1947500D01*
X40166317Y-2847500D02*
X41124000Y-3805183D01*
X43187173Y-4426000D02*
X43524000Y-4089173D01*
X43524000Y-4089173D02*
X43524000Y-2987827D01*
X37567000Y2308173D02*
X36367173Y3508000D01*
X42483673Y-1947500D02*
X38015500Y-1947500D01*
X38015500Y-1947500D02*
X37567000Y-1499000D01*
X37877683Y-2847500D02*
X40166317Y-2847500D01*
X36367173Y3508000D02*
X35573000Y3508000D01*
X35948000Y-5567500D02*
X35948000Y-4777183D01*
X41124000Y-4089173D02*
X41460827Y-4426000D01*
X35573000Y3508000D02*
X33561000Y1496000D01*
%TO.N,Net-(J7-Pad3)*%
X33998000Y-2824173D02*
X34133000Y-2689173D01*
X34133000Y-2689173D02*
X34133000Y-874000D01*
X33183000Y76000D02*
X32441000Y76000D01*
X34133000Y-874000D02*
X33183000Y76000D01*
X32441000Y76000D02*
X31021000Y1496000D01*
X33998000Y-5567500D02*
X33998000Y-2824173D01*
%TO.N,Net-(J7-Pad4)*%
X31208000Y-870000D02*
X28842000Y1496000D01*
X32358000Y-1385000D02*
X31843000Y-870000D01*
X32698000Y-3026000D02*
X32694827Y-3026000D01*
X32698000Y-5567500D02*
X32698000Y-3026000D01*
X32694827Y-3026000D02*
X32358000Y-2689173D01*
X32358000Y-2689173D02*
X32358000Y-1385000D01*
X31843000Y-870000D02*
X31208000Y-870000D01*
%TO.N,/UART_TXD*%
X38450000Y-22527000D02*
X39879000Y-21098000D01*
X39879000Y-21098000D02*
X39879000Y-16465249D01*
X39879000Y-16465249D02*
X38955751Y-15542000D01*
%TO.N,/UART_RXD*%
X38450000Y-21003000D02*
X38450000Y-19481000D01*
%TO.N,/FAULT_ST*%
X12039000Y-23511000D02*
X10606000Y-23511000D01*
X10606000Y-23511000D02*
X9648000Y-24469000D01*
X9648000Y-24469000D02*
X8824500Y-24469000D01*
X8824500Y-24469000D02*
X7972500Y-25321000D01*
%TO.N,/STATUS*%
X10316695Y-18711000D02*
X7972500Y-21055195D01*
X12039000Y-18711000D02*
X10316695Y-18711000D01*
X7972500Y-21055195D02*
X7972500Y-22908000D01*
%TO.N,Net-(R10-Pad1)*%
X11306500Y-3569208D02*
X11306500Y-1855500D01*
X10725500Y-5509000D02*
X10725500Y-4820459D01*
X10725500Y-4820459D02*
X10925500Y-4620459D01*
X10925500Y-3950208D02*
X11306500Y-3569208D01*
X10925500Y-4620459D02*
X10925500Y-3950208D01*
%TO.N,Net-(R11-Pad1)*%
X8775500Y-5509000D02*
X8775500Y-4820459D01*
X7911000Y-3161500D02*
X7911000Y-1826000D01*
X8575500Y-4620459D02*
X8575500Y-3826000D01*
X8575500Y-3826000D02*
X7911000Y-3161500D01*
X8775500Y-4820459D02*
X8575500Y-4620459D01*
%TO.N,Net-(R13-Pad1)*%
X23106000Y-5567500D02*
X23106000Y-4878959D01*
X23106000Y-4878959D02*
X23306000Y-4678959D01*
X23306000Y-3710858D02*
X23970500Y-3046358D01*
X23306000Y-4678959D02*
X23306000Y-3710858D01*
X23970500Y-3046358D02*
X23970500Y-1826000D01*
%TO.N,Net-(R14-Pad1)*%
X20956000Y-4678959D02*
X20956000Y-3477777D01*
X20418500Y-2940277D02*
X20418500Y-1826000D01*
X21156000Y-4878959D02*
X20956000Y-4678959D01*
X21156000Y-5567500D02*
X21156000Y-4878959D01*
X20956000Y-3477777D02*
X20418500Y-2940277D01*
%TO.N,Net-(R16-Pad1)*%
X35408000Y-5457500D02*
X35298000Y-5567500D01*
X40924213Y-2969000D02*
X40352713Y-2397500D01*
X41754500Y-2969000D02*
X40924213Y-2969000D01*
X37691287Y-2397500D02*
X35408000Y-4680787D01*
X42324000Y-3538500D02*
X41754500Y-2969000D01*
X35408000Y-4680787D02*
X35408000Y-5457500D01*
X40352713Y-2397500D02*
X37691287Y-2397500D01*
%TO.N,Net-(R17-Pad1)*%
X33348000Y-5567500D02*
X33348000Y-1928500D01*
%TO.N,Net-(R18-Pad2)*%
X14320000Y-27734000D02*
X15527000Y-27734000D01*
%TO.N,/Stepper module/VREF*%
X13325500Y-6197541D02*
X13325500Y-5509000D01*
X26632041Y-6630000D02*
X26079959Y-6630000D01*
X14892000Y-5931041D02*
X14251541Y-6571500D01*
X14251541Y-6571500D02*
X13699459Y-6571500D01*
X39657000Y-6741500D02*
X38095500Y-6741500D01*
X37898000Y-5567500D02*
X37248000Y-5567500D01*
X12675500Y-5509000D02*
X13325500Y-5509000D01*
X27211000Y-6051041D02*
X26632041Y-6630000D01*
X26079959Y-6630000D02*
X25706000Y-6256041D01*
X27211000Y-5382000D02*
X27211000Y-6051041D01*
X37898000Y-6544000D02*
X37898000Y-5567500D01*
X38095500Y-6741500D02*
X37898000Y-6544000D01*
X25706000Y-6256041D02*
X25706000Y-5567500D01*
X25056000Y-5567500D02*
X25706000Y-5567500D01*
X14892000Y-5763000D02*
X14892000Y-5931041D01*
X13699459Y-6571500D02*
X13325500Y-6197541D01*
%TO.N,/RS485_TXE*%
X21987604Y-22476000D02*
X26062104Y-22476000D01*
X38579000Y-18082000D02*
X38579000Y-16812000D01*
X26062104Y-22476000D02*
X27890104Y-20648000D01*
X30935305Y-18558000D02*
X38103000Y-18558000D01*
X30640000Y-19479000D02*
X30640000Y-18853305D01*
X21752604Y-22711000D02*
X21987604Y-22476000D01*
X29471000Y-20648000D02*
X30640000Y-19479000D01*
X20539000Y-22711000D02*
X21752604Y-22711000D01*
X27890104Y-20648000D02*
X29471000Y-20648000D01*
X38103000Y-18558000D02*
X38579000Y-18082000D01*
X30640000Y-18853305D02*
X30935305Y-18558000D01*
%TO.N,/MODE0*%
X6464168Y-14344894D02*
X8125500Y-12683562D01*
X14089000Y-26886000D02*
X14289000Y-26686000D01*
X32462524Y-13411500D02*
X32698000Y-13176024D01*
X14289000Y-26686000D02*
X14289000Y-25761000D01*
X20506000Y-13020138D02*
X20506000Y-11292500D01*
X10174808Y-26475000D02*
X12478000Y-26475000D01*
X6181568Y-14619240D02*
X6455914Y-14344894D01*
X12889000Y-26886000D02*
X14089000Y-26886000D01*
X12478000Y-26475000D02*
X12889000Y-26886000D01*
X18838473Y-14687665D02*
X20506000Y-13020138D01*
X9731305Y-26918503D02*
X10174808Y-26475000D01*
X9431000Y-27193006D02*
X9705503Y-26918503D01*
X9705503Y-26918503D02*
X9731305Y-26918503D01*
X32698000Y-13176024D02*
X32698000Y-11292500D01*
X6455914Y-14344894D02*
X6464168Y-14344894D01*
X8125500Y-12683562D02*
X8125500Y-11234000D01*
%TO.N,/MODE1*%
X19856000Y-12468316D02*
X19856000Y-11292500D01*
X32048000Y-11292500D02*
X32048000Y-12697475D01*
X18575000Y-13723514D02*
X18849503Y-13449011D01*
X9431000Y-26193503D02*
X9599503Y-26025000D01*
X13225000Y-26025000D02*
X13489000Y-25761000D01*
X32048000Y-12697475D02*
X31472695Y-13272780D01*
X7475500Y-12308257D02*
X7475500Y-11234000D01*
X18875305Y-13449011D02*
X19856000Y-12468316D01*
X6163863Y-13619894D02*
X7475500Y-12308257D01*
X9599503Y-26025000D02*
X13225000Y-26025000D01*
X18849503Y-13449011D02*
X18875305Y-13449011D01*
%TO.N,Net-(D5-Pad2)*%
X1430000Y-13669000D02*
X1430000Y-8330500D01*
%TO.N,Net-(D8-Pad2)*%
X1876500Y-26845000D02*
X541000Y-26845000D01*
X541000Y-26845000D02*
X414000Y-26972000D01*
%TO.N,/RS485_A*%
X45055000Y-19231249D02*
X45055000Y-18082000D01*
X46579000Y-16558000D02*
X46261000Y-16876000D01*
X45055000Y-18082000D02*
X43529000Y-18082000D01*
X45692000Y-24764500D02*
X45692000Y-19868249D01*
X45692000Y-19868249D02*
X45055000Y-19231249D01*
X48547000Y-16558000D02*
X46579000Y-16558000D01*
X46261000Y-16876000D02*
X45055000Y-18082000D01*
%TO.N,/DECAY*%
X35948000Y-13220602D02*
X35948000Y-11292500D01*
X13489000Y-17261000D02*
X10896000Y-17261000D01*
X11375500Y-12781776D02*
X11375500Y-11234000D01*
X23819779Y-15309722D02*
X23756000Y-15245943D01*
X9655313Y-14894277D02*
X9655313Y-14501963D01*
X23756000Y-15245943D02*
X23756000Y-11292500D01*
X9655313Y-14501963D02*
X11375500Y-12781776D01*
X10896000Y-17261000D02*
X9655313Y-16020313D01*
X9655313Y-16020313D02*
X9655313Y-14894277D01*
X36022500Y-13295102D02*
X35948000Y-13220602D01*
%TO.N,/STEP0*%
X9425500Y-12117104D02*
X9425500Y-11234000D01*
X20539000Y-21911000D02*
X18721000Y-21911000D01*
X18721000Y-21911000D02*
X18448000Y-21638000D01*
X7398500Y-14144104D02*
X9425500Y-12117104D01*
X7750313Y-15910277D02*
X7398500Y-15558464D01*
X7398500Y-15558464D02*
X7398500Y-14144104D01*
%TO.N,/FAULT*%
X12578701Y-16585299D02*
X11109299Y-16585299D01*
X36883796Y-12387796D02*
X36598000Y-12102000D01*
X14128000Y-16050000D02*
X13114000Y-16050000D01*
X36598000Y-12102000D02*
X36598000Y-11292500D01*
X14289000Y-16211000D02*
X14128000Y-16050000D01*
X25179000Y-15542000D02*
X24406000Y-14769000D01*
X14289000Y-17261000D02*
X14289000Y-16211000D01*
X13114000Y-16050000D02*
X12578701Y-16585299D01*
X36883796Y-12787979D02*
X36883796Y-12387796D01*
X24406000Y-14769000D02*
X24406000Y-11292500D01*
X12025500Y-12768172D02*
X12025500Y-11234000D01*
X11109299Y-16585299D02*
X10574000Y-16050000D01*
X10574000Y-16050000D02*
X10574000Y-15288000D01*
X10574000Y-14219672D02*
X12025500Y-12768172D01*
X10574000Y-15288000D02*
X10574000Y-14219672D01*
%TO.N,/MODE2*%
X19206000Y-11990000D02*
X19206000Y-11292500D01*
X31402000Y-12367000D02*
X31402000Y-11296500D01*
X6825500Y-11924500D02*
X6825500Y-11234000D01*
X18575000Y-12621000D02*
X19206000Y-11990000D01*
X12039000Y-24872000D02*
X11336000Y-25575000D01*
X18575000Y-12724011D02*
X18575000Y-12621000D01*
X9812000Y-25575000D02*
X9431000Y-25194000D01*
X31139617Y-12629383D02*
X31402000Y-12367000D01*
X11336000Y-25575000D02*
X9812000Y-25575000D01*
X6129000Y-12621000D02*
X6825500Y-11924500D01*
X12039000Y-24311000D02*
X12039000Y-24872000D01*
X30635197Y-12629383D02*
X31139617Y-12629383D01*
%TO.N,/RS485_B*%
X50071000Y-16167015D02*
X50071000Y-17574000D01*
X47592000Y-24764500D02*
X46261000Y-23433500D01*
X50071000Y-17574000D02*
X48547000Y-19098000D01*
X43529000Y-16812000D02*
X45107538Y-16812000D01*
X49266985Y-15363000D02*
X50071000Y-16167015D01*
X45107538Y-16812000D02*
X46556538Y-15363000D01*
X46833000Y-19098000D02*
X46261000Y-18526000D01*
X46261000Y-23433500D02*
X46261000Y-18526000D01*
X48547000Y-19098000D02*
X46833000Y-19098000D01*
X46556538Y-15363000D02*
X49266985Y-15363000D01*
%TO.N,/DIR0*%
X14638000Y-18971000D02*
X13876000Y-18971000D01*
X15089000Y-17261000D02*
X15089000Y-18520000D01*
X8848500Y-14225695D02*
X8848500Y-16124500D01*
X10725500Y-12348695D02*
X8848500Y-14225695D01*
X8848500Y-16124500D02*
X8669000Y-16304000D01*
X15089000Y-18520000D02*
X14638000Y-18971000D01*
X10725500Y-11234000D02*
X10725500Y-12348695D01*
%TO.N,/DIR1*%
X18450939Y-15412665D02*
X22352145Y-15412665D01*
X17489000Y-17261000D02*
X17489000Y-16374604D01*
X23106000Y-11292500D02*
X23106000Y-14658810D01*
X22352145Y-15412665D02*
X23106000Y-14658810D01*
X17489000Y-16374604D02*
X18450939Y-15412665D01*
%TO.N,/DIR2*%
X17489000Y-27156000D02*
X18067000Y-27734000D01*
X17489000Y-25761000D02*
X17489000Y-27156000D01*
X35021500Y-13573500D02*
X35298000Y-13297000D01*
X35298000Y-13297000D02*
X35298000Y-11292500D01*
%TO.N,/STEP_EN*%
X20539000Y-21111000D02*
X19489000Y-21111000D01*
X8123500Y-14055500D02*
X10075500Y-12103500D01*
X10075500Y-12103500D02*
X10075500Y-11234000D01*
X34648000Y-12813305D02*
X34648000Y-11292500D01*
X22067500Y-14348511D02*
X22456000Y-13960011D01*
X19489000Y-21111000D02*
X18194000Y-19816000D01*
X8123500Y-14526000D02*
X8123500Y-14055500D01*
X22456000Y-13960011D02*
X22456000Y-11292500D01*
X18194000Y-19816000D02*
X18194000Y-19098000D01*
X34046192Y-13415113D02*
X34648000Y-12813305D01*
X34046192Y-13792080D02*
X34046192Y-13415113D01*
%TO.N,/STEP1*%
X12039000Y-20311000D02*
X13946000Y-20311000D01*
X13946000Y-20311000D02*
X14130000Y-20495000D01*
X20480000Y-14348511D02*
X21806000Y-13022511D01*
X21806000Y-13022511D02*
X21806000Y-11292500D01*
%TO.N,/STEP2*%
X33998000Y-12438000D02*
X33434000Y-13002000D01*
X15531299Y-19864299D02*
X15400000Y-19733000D01*
X15400000Y-19733000D02*
X13164000Y-19733000D01*
X33998000Y-11292500D02*
X33998000Y-12438000D01*
X13164000Y-19733000D02*
X12942000Y-19511000D01*
X12942000Y-19511000D02*
X12039000Y-19511000D01*
%TO.N,/RAW_5V*%
X35768500Y-16606500D02*
X36228000Y-17066000D01*
X50521000Y-19664000D02*
X50521000Y-12289000D01*
X35768500Y-16050000D02*
X35768500Y-16606500D01*
X50521000Y-12289000D02*
X48567000Y-10335000D01*
X48547000Y-21638000D02*
X50521000Y-19664000D01*
%TO.N,Net-(C12-Pad1)*%
X38548000Y-11292500D02*
X40093500Y-11292500D01*
%TO.N,Net-(C18-Pad1)*%
X14105500Y-11364000D02*
X13975500Y-11234000D01*
X15654000Y-11364000D02*
X14105500Y-11364000D01*
%TO.N,Net-(C24-Pad1)*%
X28100000Y-11364000D02*
X26427500Y-11364000D01*
%TO.N,/SPI_SCK*%
X21564000Y-25761000D02*
X23020000Y-24305000D01*
X32418000Y-22273000D02*
X29176500Y-22273000D01*
X29176500Y-22273000D02*
X28348500Y-23101000D01*
X19089000Y-25761000D02*
X21564000Y-25761000D01*
%TO.N,/SPI_MOSI*%
X36800000Y-22527000D02*
X35212000Y-22527000D01*
X33783000Y-21098000D02*
X28076500Y-21098000D01*
X28076500Y-21098000D02*
X26073500Y-23101000D01*
X21999000Y-23101000D02*
X26073500Y-23101000D01*
X20539000Y-23511000D02*
X21589000Y-23511000D01*
X21589000Y-23511000D02*
X21999000Y-23101000D01*
X34958000Y-22273000D02*
X33783000Y-21098000D01*
%TD*%
M02*
