%TF.GenerationSoftware,KiCad,Pcbnew,6.0.11+dfsg-1~bpo11+1*%
%TF.CreationDate,2023-06-12T22:03:45+02:00*%
%TF.ProjectId,motor_board_v3,6d6f746f-725f-4626-9f61-72645f76332e,rev?*%
%TF.SameCoordinates,PX87037a0PY50412a8*%
%TF.FileFunction,Soldermask,Top*%
%TF.FilePolarity,Negative*%
%FSLAX46Y46*%
G04 Gerber Fmt 4.6, Leading zero omitted, Abs format (unit mm)*
G04 Created by KiCad (PCBNEW 6.0.11+dfsg-1~bpo11+1) date 2023-06-12 22:03:45*
%MOMM*%
%LPD*%
G01*
G04 APERTURE LIST*
G04 Aperture macros list*
%AMRoundRect*
0 Rectangle with rounded corners*
0 $1 Rounding radius*
0 $2 $3 $4 $5 $6 $7 $8 $9 X,Y pos of 4 corners*
0 Add a 4 corners polygon primitive as box body*
4,1,4,$2,$3,$4,$5,$6,$7,$8,$9,$2,$3,0*
0 Add four circle primitives for the rounded corners*
1,1,$1+$1,$2,$3*
1,1,$1+$1,$4,$5*
1,1,$1+$1,$6,$7*
1,1,$1+$1,$8,$9*
0 Add four rect primitives between the rounded corners*
20,1,$1+$1,$2,$3,$4,$5,0*
20,1,$1+$1,$4,$5,$6,$7,0*
20,1,$1+$1,$6,$7,$8,$9,0*
20,1,$1+$1,$8,$9,$2,$3,0*%
G04 Aperture macros list end*
%ADD10R,1.000000X1.000000*%
%ADD11O,1.000000X1.000000*%
%ADD12RoundRect,0.218750X-0.256250X0.218750X-0.256250X-0.218750X0.256250X-0.218750X0.256250X0.218750X0*%
%ADD13RoundRect,0.218750X0.256250X-0.218750X0.256250X0.218750X-0.256250X0.218750X-0.256250X-0.218750X0*%
%ADD14RoundRect,0.250000X0.620000X0.845000X-0.620000X0.845000X-0.620000X-0.845000X0.620000X-0.845000X0*%
%ADD15O,1.740000X2.190000*%
%ADD16RoundRect,0.250000X0.550000X-1.250000X0.550000X1.250000X-0.550000X1.250000X-0.550000X-1.250000X0*%
%ADD17RoundRect,0.250000X1.250000X0.550000X-1.250000X0.550000X-1.250000X-0.550000X1.250000X-0.550000X0*%
%ADD18RoundRect,0.250000X0.845000X-0.620000X0.845000X0.620000X-0.845000X0.620000X-0.845000X-0.620000X0*%
%ADD19O,2.190000X1.740000*%
%ADD20C,2.200000*%
%ADD21R,1.300000X2.000000*%
%ADD22R,2.000000X2.000000*%
%ADD23RoundRect,0.250000X-1.250000X-0.550000X1.250000X-0.550000X1.250000X0.550000X-1.250000X0.550000X0*%
%ADD24RoundRect,0.875000X-0.875000X-0.875000X0.875000X-0.875000X0.875000X0.875000X-0.875000X0.875000X0*%
%ADD25RoundRect,0.750000X-0.750000X-1.000000X0.750000X-1.000000X0.750000X1.000000X-0.750000X1.000000X0*%
%ADD26R,3.500000X3.500000*%
G04 APERTURE END LIST*
D10*
%TO.C,J1*%
X30226000Y-17145000D03*
D11*
X30226000Y-15875000D03*
X31496000Y-17145000D03*
X31496000Y-15875000D03*
X32766000Y-17145000D03*
X32766000Y-15875000D03*
X34036000Y-17145000D03*
X34036000Y-15875000D03*
X35306000Y-17145000D03*
X35306000Y-15875000D03*
X36576000Y-17145000D03*
X36576000Y-15875000D03*
X37846000Y-17145000D03*
X37846000Y-15875000D03*
%TD*%
D12*
%TO.C,D3*%
X-5555000Y3025500D03*
X-5555000Y1450500D03*
%TD*%
D13*
%TO.C,D1*%
X-5174000Y-27251500D03*
X-5174000Y-25676500D03*
%TD*%
D14*
%TO.C,J6*%
X24925000Y1496000D03*
D15*
X22385000Y1496000D03*
X19845000Y1496000D03*
X17305000Y1496000D03*
%TD*%
D16*
%TO.C,C5*%
X-6190000Y-22568000D03*
X-6190000Y-18168000D03*
%TD*%
D17*
%TO.C,C31*%
X30935000Y-23162000D03*
X26535000Y-23162000D03*
%TD*%
D18*
%TO.C,J4*%
X48547000Y-21638000D03*
D19*
X48547000Y-19098000D03*
X48547000Y-16558000D03*
X48547000Y-14018000D03*
%TD*%
D20*
%TO.C,REF\u002A\u002A*%
X0Y0D03*
%TD*%
D21*
%TO.C,RV1*%
X3723000Y-14177000D03*
D22*
X2573000Y-18177000D03*
D21*
X1423000Y-14177000D03*
%TD*%
D12*
%TO.C,D4*%
X-7333000Y3025500D03*
X-7333000Y1450500D03*
%TD*%
D20*
%TO.C,REF\u002A\u002A*%
X42000000Y0D03*
%TD*%
D23*
%TO.C,C3*%
X33520000Y-25448000D03*
X37920000Y-25448000D03*
%TD*%
D20*
%TO.C,REF\u002A\u002A*%
X0Y-23000000D03*
%TD*%
D23*
%TO.C,C32*%
X19550000Y-25321000D03*
X23950000Y-25321000D03*
%TD*%
D18*
%TO.C,J3*%
X48567000Y-10335000D03*
D19*
X48567000Y-7795000D03*
X48567000Y-5255000D03*
X48567000Y-2715000D03*
%TD*%
D12*
%TO.C,D8*%
X-3777000Y3025500D03*
X-3777000Y1450500D03*
%TD*%
D14*
%TO.C,J7*%
X36101000Y1496000D03*
D15*
X33561000Y1496000D03*
X31021000Y1496000D03*
X28481000Y1496000D03*
%TD*%
%TO.C,J5*%
X6129000Y1496000D03*
X8669000Y1496000D03*
X11209000Y1496000D03*
D14*
X13749000Y1496000D03*
%TD*%
D17*
%TO.C,C29*%
X16965000Y-23162000D03*
X12565000Y-23162000D03*
%TD*%
D24*
%TO.C,J2*%
X-2682000Y-11918500D03*
D25*
X-5682000Y-7218500D03*
D26*
X318000Y-7218500D03*
%TD*%
D23*
%TO.C,C30*%
X4564000Y-25067000D03*
X8964000Y-25067000D03*
%TD*%
D20*
%TO.C,REF\u002A\u002A*%
X42000000Y-23000000D03*
%TD*%
D13*
%TO.C,D2*%
X-7079000Y-27251500D03*
X-7079000Y-25676500D03*
%TD*%
M02*
