%TF.GenerationSoftware,KiCad,Pcbnew,6.0.11+dfsg-1~bpo11+1*%
%TF.CreationDate,2023-06-12T22:03:45+02:00*%
%TF.ProjectId,motor_board_v3,6d6f746f-725f-4626-9f61-72645f76332e,rev?*%
%TF.SameCoordinates,PX87037a0PY50412a8*%
%TF.FileFunction,Copper,L3,Inr*%
%TF.FilePolarity,Positive*%
%FSLAX46Y46*%
G04 Gerber Fmt 4.6, Leading zero omitted, Abs format (unit mm)*
G04 Created by KiCad (PCBNEW 6.0.11+dfsg-1~bpo11+1) date 2023-06-12 22:03:45*
%MOMM*%
%LPD*%
G01*
G04 APERTURE LIST*
G04 Aperture macros list*
%AMRoundRect*
0 Rectangle with rounded corners*
0 $1 Rounding radius*
0 $2 $3 $4 $5 $6 $7 $8 $9 X,Y pos of 4 corners*
0 Add a 4 corners polygon primitive as box body*
4,1,4,$2,$3,$4,$5,$6,$7,$8,$9,$2,$3,0*
0 Add four circle primitives for the rounded corners*
1,1,$1+$1,$2,$3*
1,1,$1+$1,$4,$5*
1,1,$1+$1,$6,$7*
1,1,$1+$1,$8,$9*
0 Add four rect primitives between the rounded corners*
20,1,$1+$1,$2,$3,$4,$5,0*
20,1,$1+$1,$4,$5,$6,$7,0*
20,1,$1+$1,$6,$7,$8,$9,0*
20,1,$1+$1,$8,$9,$2,$3,0*%
G04 Aperture macros list end*
%TA.AperFunction,ComponentPad*%
%ADD10R,1.000000X1.000000*%
%TD*%
%TA.AperFunction,ComponentPad*%
%ADD11O,1.000000X1.000000*%
%TD*%
%TA.AperFunction,ComponentPad*%
%ADD12RoundRect,0.250000X0.620000X0.845000X-0.620000X0.845000X-0.620000X-0.845000X0.620000X-0.845000X0*%
%TD*%
%TA.AperFunction,ComponentPad*%
%ADD13O,1.740000X2.190000*%
%TD*%
%TA.AperFunction,ComponentPad*%
%ADD14RoundRect,0.250000X0.845000X-0.620000X0.845000X0.620000X-0.845000X0.620000X-0.845000X-0.620000X0*%
%TD*%
%TA.AperFunction,ComponentPad*%
%ADD15O,2.190000X1.740000*%
%TD*%
%TA.AperFunction,ComponentPad*%
%ADD16RoundRect,0.875000X-0.875000X-0.875000X0.875000X-0.875000X0.875000X0.875000X-0.875000X0.875000X0*%
%TD*%
%TA.AperFunction,ComponentPad*%
%ADD17RoundRect,0.750000X-0.750000X-1.000000X0.750000X-1.000000X0.750000X1.000000X-0.750000X1.000000X0*%
%TD*%
%TA.AperFunction,ComponentPad*%
%ADD18R,3.500000X3.500000*%
%TD*%
%TA.AperFunction,ViaPad*%
%ADD19C,0.800000*%
%TD*%
%TA.AperFunction,Conductor*%
%ADD20C,0.250000*%
%TD*%
G04 APERTURE END LIST*
D10*
%TO.N,unconnected-(J1-Pad1)*%
%TO.C,J1*%
X30226000Y-17145000D03*
D11*
%TO.N,unconnected-(J1-Pad2)*%
X30226000Y-15875000D03*
%TO.N,+3V3*%
X31496000Y-17145000D03*
%TO.N,/SWDIO*%
X31496000Y-15875000D03*
%TO.N,GND*%
X32766000Y-17145000D03*
%TO.N,/SWCLK*%
X32766000Y-15875000D03*
%TO.N,GND*%
X34036000Y-17145000D03*
%TO.N,/SWO*%
X34036000Y-15875000D03*
%TO.N,unconnected-(J1-Pad9)*%
X35306000Y-17145000D03*
%TO.N,unconnected-(J1-Pad10)*%
X35306000Y-15875000D03*
%TO.N,unconnected-(J1-Pad11)*%
X36576000Y-17145000D03*
%TO.N,/RST*%
X36576000Y-15875000D03*
%TO.N,unconnected-(J1-Pad13)*%
X37846000Y-17145000D03*
%TO.N,unconnected-(J1-Pad14)*%
X37846000Y-15875000D03*
%TD*%
D12*
%TO.N,Net-(J6-Pad1)*%
%TO.C,J6*%
X24925000Y1496000D03*
D13*
%TO.N,Net-(J6-Pad2)*%
X22385000Y1496000D03*
%TO.N,Net-(J6-Pad3)*%
X19845000Y1496000D03*
%TO.N,Net-(J6-Pad4)*%
X17305000Y1496000D03*
%TD*%
D14*
%TO.N,/RAW_5V*%
%TO.C,J4*%
X48547000Y-21638000D03*
D15*
%TO.N,/RS485_B*%
X48547000Y-19098000D03*
%TO.N,/RS485_A*%
X48547000Y-16558000D03*
%TO.N,GND*%
X48547000Y-14018000D03*
%TD*%
D14*
%TO.N,/RAW_5V*%
%TO.C,J3*%
X48567000Y-10335000D03*
D15*
%TO.N,/I2C_SDA*%
X48567000Y-7795000D03*
%TO.N,/I2C_SCL*%
X48567000Y-5255000D03*
%TO.N,GND*%
X48567000Y-2715000D03*
%TD*%
D12*
%TO.N,Net-(J7-Pad1)*%
%TO.C,J7*%
X36101000Y1496000D03*
D13*
%TO.N,Net-(J7-Pad2)*%
X33561000Y1496000D03*
%TO.N,Net-(J7-Pad3)*%
X31021000Y1496000D03*
%TO.N,Net-(J7-Pad4)*%
X28481000Y1496000D03*
%TD*%
%TO.N,Net-(J5-Pad4)*%
%TO.C,J5*%
X6129000Y1496000D03*
%TO.N,Net-(J5-Pad3)*%
X8669000Y1496000D03*
%TO.N,Net-(J5-Pad2)*%
X11209000Y1496000D03*
D12*
%TO.N,Net-(J5-Pad1)*%
X13749000Y1496000D03*
%TD*%
D16*
%TO.N,N/C*%
%TO.C,J2*%
X-2682000Y-11918500D03*
D17*
%TO.N,GND*%
X-5682000Y-7218500D03*
D18*
%TO.N,Net-(D5-Pad2)*%
X318000Y-7218500D03*
%TD*%
D19*
%TO.N,GND*%
X21209000Y-17653000D03*
%TO.N,+3V3*%
X28448000Y-19685000D03*
%TO.N,/SWO*%
X29845000Y-20320000D03*
X6985000Y-17399000D03*
%TO.N,GND*%
X32037000Y-7541000D03*
X32926000Y-7541000D03*
X33815000Y-7541000D03*
X34704000Y-7541000D03*
X35593000Y-7541000D03*
X36482000Y-7541000D03*
X36482000Y-8430000D03*
X35593000Y-8430000D03*
X34704000Y-8430000D03*
X33815000Y-8430000D03*
X32926000Y-8430000D03*
X32037000Y-8430000D03*
X32037000Y-9319000D03*
X32926000Y-9319000D03*
X33815000Y-9319000D03*
X34704000Y-9319000D03*
X35593000Y-9319000D03*
X36482000Y-9319000D03*
X19845000Y-7668000D03*
X20734000Y-7668000D03*
X21623000Y-7668000D03*
X22512000Y-7668000D03*
X23401000Y-7668000D03*
X24290000Y-7668000D03*
X24290000Y-8557000D03*
X23401000Y-8557000D03*
X22512000Y-8557000D03*
X21623000Y-8557000D03*
X20734000Y-8557000D03*
X19845000Y-8557000D03*
X24290000Y-9446000D03*
X23401000Y-9446000D03*
X22512000Y-9446000D03*
X21623000Y-9446000D03*
X20734000Y-9446000D03*
X19845000Y-9446000D03*
X11971000Y-7541000D03*
X11082000Y-7541000D03*
X10193000Y-7541000D03*
X9304000Y-7541000D03*
X8415000Y-7541000D03*
X7526000Y-7541000D03*
X7526000Y-8430000D03*
X8415000Y-8430000D03*
X9304000Y-8430000D03*
X10193000Y-8430000D03*
X11082000Y-8430000D03*
X11971000Y-8430000D03*
X11971000Y-9319000D03*
X11082000Y-9319000D03*
X10193000Y-9319000D03*
X9304000Y-9319000D03*
X8415000Y-9319000D03*
X7526000Y-9319000D03*
%TO.N,/SWDIO*%
X41689000Y-14272000D03*
%TO.N,/STEP_EN*%
X25687000Y-7795000D03*
%TO.N,/DECAY*%
X12331284Y-18420500D03*
%TO.N,GND*%
X3589000Y1095000D03*
%TO.N,/DIR1*%
X13152169Y-17850282D03*
%TO.N,/MODE2*%
X5342892Y-20667988D03*
%TO.N,/FAULT*%
X5391297Y-21733876D03*
%TO.N,/DIR2*%
X5288500Y-22781000D03*
%TO.N,GND*%
X-1364000Y-16558000D03*
X7843500Y-23606500D03*
X27338000Y-24686000D03*
X42959000Y-26210000D03*
X35593000Y-23670000D03*
X26893500Y-111500D03*
X13622000Y-28115000D03*
X27211000Y-7795000D03*
X40292000Y-8557000D03*
X3589000Y-11097000D03*
X42578000Y-27988000D03*
X35593000Y-26972000D03*
X15908000Y-8176000D03*
X43721000Y-25448000D03*
X16322243Y-14250939D03*
X50706000Y-27861000D03*
X40736500Y-6207500D03*
X11741179Y-16972084D03*
X22307000Y-23211000D03*
X-1872000Y3254000D03*
X-8603000Y-27734000D03*
X18321000Y-556000D03*
X49690000Y-27988000D03*
X122500Y-14907000D03*
X42832000Y-13129000D03*
X1303000Y-25829000D03*
%TO.N,+5V*%
X38895000Y-9700000D03*
X32291000Y-21257000D03*
X26322000Y-9827000D03*
X13876000Y-9700000D03*
%TO.N,+12V*%
X18836118Y-2894209D03*
X40292000Y-5001000D03*
X13052500Y-3096000D03*
X3398500Y-27797500D03*
X31529000Y-2080000D03*
X29243000Y-302000D03*
X9751000Y-3985000D03*
X25580900Y-2843392D03*
X4416500Y-175000D03*
X15908000Y-48000D03*
X22131000Y-3985000D03*
X5906950Y-3187387D03*
X36228000Y-2080000D03*
%TO.N,Net-(C8-Pad1)*%
X9623500Y-574000D03*
X6343070Y-7054570D03*
X3654500Y-4112000D03*
%TO.N,Net-(C14-Pad1)*%
X18785065Y-7051575D03*
X16162000Y-3985000D03*
X22470073Y-576535D03*
%TO.N,Net-(C20-Pad1)*%
X35974000Y-302000D03*
X28735000Y-4112000D03*
X30961799Y-7100799D03*
%TO.N,Net-(D1-Pad2)*%
X-4793000Y-3858000D03*
%TO.N,Net-(D2-Pad2)*%
X122500Y-18336000D03*
%TO.N,Net-(D3-Pad2)*%
X48801000Y1857000D03*
%TO.N,Net-(D4-Pad2)*%
X1938000Y-10233500D03*
%TO.N,Net-(C3-Pad1)*%
X40927000Y-27226000D03*
%TO.N,Net-(C5-Pad1)*%
X-2126000Y-25829000D03*
%TO.N,+3V3*%
X20226000Y-23797000D03*
X29370000Y-25321000D03*
%TO.N,/RST*%
X18575000Y-15441000D03*
X39403000Y-12748000D03*
X25623500Y-17510500D03*
X9304000Y-18971000D03*
X3589000Y-12113000D03*
%TO.N,/I2C_SDA*%
X12220914Y-16095238D03*
%TO.N,/I2C_SCL*%
X11222715Y-16044209D03*
%TO.N,Net-(C29-Pad1)*%
X7145000Y-27734000D03*
%TO.N,Net-(R18-Pad2)*%
X23210500Y-18526500D03*
%TO.N,/Stepper module/VREF*%
X3081000Y-9700000D03*
X14892000Y-5763000D03*
X39657000Y-6741500D03*
X27211000Y-5382000D03*
%TO.N,/MODE0*%
X32883603Y-13285427D03*
X20506000Y-13091500D03*
X8034000Y-12748000D03*
%TO.N,/MODE1*%
X19487050Y-13114550D03*
X32048000Y-12737000D03*
X5494000Y-12621000D03*
%TO.N,Net-(D8-Pad2)*%
X-5301000Y206000D03*
%TO.N,/RS485_A*%
X19972000Y-27099000D03*
%TO.N,/DECAY*%
X36265500Y-13378701D03*
X11997155Y-12899038D03*
X23274000Y-14425500D03*
%TO.N,/STEP0*%
X9111703Y-12694895D03*
X11486050Y-21242550D03*
%TO.N,/FAULT*%
X38260000Y-13383000D03*
X25560000Y-13429992D03*
X13260245Y-12908361D03*
%TO.N,/MODE2*%
X28653774Y-8822500D03*
X18485500Y-13091500D03*
X6002000Y-9573000D03*
%TO.N,/RS485_B*%
X19023789Y-26782930D03*
%TO.N,/DIR1*%
X22673645Y-13430492D03*
%TO.N,/DIR2*%
X35231438Y-13168155D03*
%TO.N,/STEP_EN*%
X21440001Y-14207403D03*
X10088209Y-12481726D03*
%TO.N,/STEP1*%
X23401000Y-16812000D03*
X9685000Y-23543000D03*
%TO.N,/STEP2*%
X9177000Y-16558000D03*
X33666609Y-12664213D03*
%TO.N,/SWCLK*%
X6002000Y-16177000D03*
%TO.N,/SWDIO*%
X6166500Y-19098000D03*
%TD*%
D20*
%TO.N,/DIR2*%
X36990000Y-13764000D02*
X36990000Y-12749396D01*
X38671000Y-15445000D02*
X36990000Y-13764000D01*
X36061148Y-12338445D02*
X35231438Y-13168155D01*
X23510805Y-19251500D02*
X24474305Y-18288000D01*
X12136979Y-19251500D02*
X23510805Y-19251500D01*
X38671000Y-17486727D02*
X38671000Y-15445000D01*
X7388000Y-20887000D02*
X9686097Y-20887000D01*
X11729288Y-18843809D02*
X12136979Y-19251500D01*
X36990000Y-12749396D02*
X36579049Y-12338445D01*
X24474305Y-18288000D02*
X37869727Y-18288000D01*
X37869727Y-18288000D02*
X38671000Y-17486727D01*
X9686097Y-20887000D02*
X11729288Y-18843809D01*
X5494000Y-22781000D02*
X7388000Y-20887000D01*
X5288500Y-22781000D02*
X5494000Y-22781000D01*
X36579049Y-12338445D02*
X36061148Y-12338445D01*
%TO.N,/SWO*%
X6985000Y-17399000D02*
X6840195Y-17399000D01*
X6840195Y-17399000D02*
X4563500Y-19675695D01*
X4563500Y-19675695D02*
X4563500Y-23081305D01*
X4563500Y-23081305D02*
X5104195Y-23622000D01*
X5104195Y-23622000D02*
X6802695Y-23622000D01*
X6802695Y-23622000D02*
X8453695Y-21971000D01*
X8453695Y-21971000D02*
X28194000Y-21971000D01*
X28194000Y-21971000D02*
X29845000Y-20320000D01*
%TO.N,+5V*%
X38895000Y-9700000D02*
X37498000Y-11097000D01*
X37498000Y-11097000D02*
X32037000Y-11097000D01*
X32037000Y-11097000D02*
X29037500Y-8097500D01*
X29037500Y-8097500D02*
X28051500Y-8097500D01*
X28051500Y-8097500D02*
X26322000Y-9827000D01*
X26322000Y-9827000D02*
X25560000Y-10589000D01*
X25560000Y-10589000D02*
X17687396Y-10589000D01*
X17687396Y-10589000D02*
X16798396Y-9700000D01*
X16798396Y-9700000D02*
X13876000Y-9700000D01*
%TO.N,/Stepper module/VREF*%
X3081000Y-9700000D02*
X4909500Y-7871500D01*
X4909500Y-7871500D02*
X4909500Y-6982500D01*
X4909500Y-6982500D02*
X6129000Y-5763000D01*
X6129000Y-5763000D02*
X14892000Y-5763000D01*
%TO.N,/MODE0*%
X20892008Y-12705492D02*
X20506000Y-13091500D01*
X22973950Y-12705492D02*
X20892008Y-12705492D01*
X23398645Y-13130187D02*
X22973950Y-12705492D01*
X23398645Y-13507645D02*
X23398645Y-13130187D01*
X24729000Y-14838000D02*
X23398645Y-13507645D01*
X26135604Y-14838000D02*
X24729000Y-14838000D01*
X27511604Y-13462000D02*
X26135604Y-14838000D01*
X32707030Y-13462000D02*
X27511604Y-13462000D01*
X32883603Y-13285427D02*
X32707030Y-13462000D01*
%TO.N,/DECAY*%
X36265500Y-13378701D02*
X36220202Y-13378701D01*
X24542604Y-15288000D02*
X23680104Y-14425500D01*
X36220202Y-13378701D02*
X35580903Y-14018000D01*
X35580903Y-14018000D02*
X27592000Y-14018000D01*
X27592000Y-14018000D02*
X26322000Y-15288000D01*
X26322000Y-15288000D02*
X24542604Y-15288000D01*
X23680104Y-14425500D02*
X23274000Y-14425500D01*
%TO.N,+5V*%
X37381701Y-21257000D02*
X32291000Y-21257000D01*
X40324000Y-18314701D02*
X37381701Y-21257000D01*
X38895000Y-9700000D02*
X38895000Y-10844117D01*
X40324000Y-12273117D02*
X40324000Y-18314701D01*
X38895000Y-10844117D02*
X40324000Y-12273117D01*
%TO.N,/FAULT*%
X13260245Y-12908361D02*
X12525922Y-12174038D01*
X10497715Y-13373173D02*
X10497715Y-16344514D01*
X9499701Y-20437000D02*
X6688173Y-20437000D01*
X12525922Y-12174038D02*
X11696850Y-12174038D01*
X11696850Y-12174038D02*
X10497715Y-13373173D01*
X10497715Y-16344514D02*
X10955000Y-16801799D01*
X6688173Y-20437000D02*
X5391297Y-21733876D01*
X10955000Y-16801799D02*
X10955000Y-18981701D01*
X10955000Y-18981701D02*
X9499701Y-20437000D01*
%TO.N,/DECAY*%
X12331284Y-18420500D02*
X12331284Y-17645862D01*
X12331284Y-17645862D02*
X13292146Y-16685000D01*
X13292146Y-16685000D02*
X15783117Y-16685000D01*
X12535245Y-13208666D02*
X12306783Y-13208666D01*
X12306783Y-13208666D02*
X11997155Y-12899038D01*
X12535245Y-13208666D02*
X12959940Y-13633361D01*
X12959940Y-13633361D02*
X14634361Y-13633361D01*
X14634361Y-13633361D02*
X15783117Y-14782117D01*
X15783117Y-14782117D02*
X15783117Y-16685000D01*
%TO.N,/MODE2*%
X6002000Y-9573000D02*
X4478000Y-11097000D01*
X9802695Y-18209000D02*
X9812000Y-18209000D01*
X4478000Y-11097000D02*
X4478000Y-12884305D01*
X4478000Y-12884305D02*
X9802695Y-18209000D01*
X10066000Y-18463000D02*
X10066000Y-19234305D01*
X10066000Y-19234305D02*
X9313305Y-19987000D01*
X6023880Y-19987000D02*
X5342892Y-20667988D01*
X9812000Y-18209000D02*
X10066000Y-18463000D01*
X9313305Y-19987000D02*
X6023880Y-19987000D01*
%TO.N,/STEP_EN*%
X10088209Y-12481726D02*
X10088209Y-12090791D01*
X15480000Y-11558000D02*
X16543000Y-12621000D01*
X10088209Y-12090791D02*
X10621000Y-11558000D01*
X10621000Y-11558000D02*
X12799507Y-11558000D01*
X16543000Y-12621000D02*
X16543000Y-13447097D01*
X16543000Y-13447097D02*
X17812403Y-14716500D01*
X17812403Y-14716500D02*
X20930904Y-14716500D01*
X12799507Y-11558000D02*
X13016507Y-11775000D01*
X13016507Y-11775000D02*
X14735493Y-11775000D01*
X14735493Y-11775000D02*
X14952493Y-11558000D01*
X14952493Y-11558000D02*
X15480000Y-11558000D01*
X20930904Y-14716500D02*
X21440001Y-14207403D01*
%TO.N,/MODE0*%
X20506000Y-13091500D02*
X20506000Y-13120905D01*
X20506000Y-13120905D02*
X19360405Y-14266500D01*
X19360405Y-14266500D02*
X17998799Y-14266500D01*
X14549097Y-11325000D02*
X13202903Y-11325000D01*
X17998799Y-14266500D02*
X17177302Y-13445003D01*
X9674000Y-11108000D02*
X8034000Y-12748000D01*
X17177302Y-13445003D02*
X17177302Y-12494698D01*
X17177302Y-12494698D02*
X15790604Y-11108000D01*
X15790604Y-11108000D02*
X14766097Y-11108000D01*
X14766097Y-11108000D02*
X14549097Y-11325000D01*
X13202903Y-11325000D02*
X12985903Y-11108000D01*
X12985903Y-11108000D02*
X9674000Y-11108000D01*
%TO.N,/MODE1*%
X19487050Y-13114550D02*
X18785100Y-13816500D01*
X18785100Y-13816500D02*
X18185195Y-13816500D01*
X17686000Y-13317305D02*
X17686000Y-12367000D01*
X13172299Y-10658000D02*
X7457000Y-10658000D01*
X18185195Y-13816500D02*
X17686000Y-13317305D01*
X17686000Y-12367000D02*
X15977000Y-10658000D01*
X15977000Y-10658000D02*
X14579701Y-10658000D01*
X14579701Y-10658000D02*
X14362701Y-10875000D01*
X7457000Y-10658000D02*
X5494000Y-12621000D01*
X14362701Y-10875000D02*
X13389299Y-10875000D01*
X13389299Y-10875000D02*
X13172299Y-10658000D01*
%TO.N,/MODE2*%
X18485500Y-13091500D02*
X18485500Y-12023500D01*
X18485500Y-12023500D02*
X16670000Y-10208000D01*
X16670000Y-10208000D02*
X14393305Y-10208000D01*
X14393305Y-10208000D02*
X14176305Y-10425000D01*
X14176305Y-10425000D02*
X13575695Y-10425000D01*
X13575695Y-10425000D02*
X13358695Y-10208000D01*
X13358695Y-10208000D02*
X6637000Y-10208000D01*
X6637000Y-10208000D02*
X6002000Y-9573000D01*
%TO.N,/DECAY*%
X15783117Y-16685000D02*
X21014500Y-16685000D01*
X21014500Y-16685000D02*
X23274000Y-14425500D01*
%TO.N,/RST*%
X3589000Y-12738695D02*
X3589000Y-12113000D01*
X9304000Y-18453695D02*
X3589000Y-12738695D01*
X9304000Y-18971000D02*
X9304000Y-18453695D01*
%TO.N,/Stepper module/VREF*%
X38297500Y-5382000D02*
X27211000Y-5382000D01*
X39657000Y-6741500D02*
X38297500Y-5382000D01*
X15273000Y-5382000D02*
X14892000Y-5763000D01*
X27211000Y-5382000D02*
X15273000Y-5382000D01*
%TO.N,/MODE1*%
X27325208Y-13012000D02*
X25949208Y-14388000D01*
X20316703Y-12255492D02*
X19487050Y-13085145D01*
X25949208Y-14388000D02*
X24915396Y-14388000D01*
X19487050Y-13085145D02*
X19487050Y-13114550D01*
X23160346Y-12255492D02*
X20316703Y-12255492D01*
X31773000Y-13012000D02*
X27325208Y-13012000D01*
X23848645Y-13321249D02*
X23848645Y-12943791D01*
X23848645Y-12943791D02*
X23160346Y-12255492D01*
X32048000Y-12737000D02*
X31773000Y-13012000D01*
X24915396Y-14388000D02*
X23848645Y-13321249D01*
%TO.N,/FAULT*%
X31080000Y-12562000D02*
X26427992Y-12562000D01*
X38260000Y-13383000D02*
X36765445Y-11888445D01*
X26427992Y-12562000D02*
X25560000Y-13429992D01*
X31753555Y-11888445D02*
X31080000Y-12562000D01*
X36765445Y-11888445D02*
X31753555Y-11888445D01*
%TO.N,/MODE2*%
X25670782Y-11805492D02*
X19771508Y-11805492D01*
X19771508Y-11805492D02*
X18485500Y-13091500D01*
X28653774Y-8822500D02*
X25670782Y-11805492D01*
%TD*%
M02*
