M48
; DRILL file {KiCad 6.0.11+dfsg-1~bpo11+1} date lun. 10 juil. 2023 22:14:45
; FORMAT={-:-/ absolute / inch / decimal}
; #@! TF.CreationDate,2023-07-10T22:14:45+02:00
; #@! TF.GenerationSoftware,Kicad,Pcbnew,6.0.11+dfsg-1~bpo11+1
; #@! TF.FileFunction,Plated,1,4,PTH
FMAT,2
INCH
; #@! TA.AperFunction,Plated,PTH,ViaDrill
T1C0.0157
; #@! TA.AperFunction,Plated,PTH,ComponentDrill
T2C0.0394
; #@! TA.AperFunction,Plated,PTH,ComponentDrill
T3C0.0469
%
G90
G05
T1
X-0.345Y-0.4055
X-0.2537Y-1.1019
X-0.2337Y-0.8369
X-0.1687Y-0.7369
X-0.0987Y0.1181
X0.0163Y-1.0619
X0.1063Y-0.9719
X0.1213Y-0.3819
X0.1413Y0.0431
X0.1439Y-0.1619
X0.1739Y-0.0069
X0.2113Y-0.2959
X0.2326Y-0.1255
X0.2413Y-0.4969
X0.2427Y-0.5362
X0.2434Y-0.5756
X0.2513Y-1.0169
X0.2563Y-0.8769
X0.2963Y-0.2969
X0.2963Y-0.3319
X0.2963Y-0.3669
X0.3051Y-0.6264
X0.3198Y-0.5719
X0.3313Y-0.2969
X0.3313Y-0.3319
X0.3313Y-0.3669
X0.3413Y-0.6419
X0.3663Y-0.2969
X0.3663Y-0.3319
X0.3663Y-0.3669
X0.3684Y-0.8148
X0.3713Y-0.9919
X0.3713Y-1.0312
X0.3713Y-1.0706
X0.3757Y-0.8625
X0.3789Y-0.0226
X0.3801Y-0.5864
X0.3839Y-0.1569
X0.3913Y-0.9069
X0.4013Y-0.2969
X0.4013Y-0.3319
X0.4013Y-0.3669
X0.4163Y-0.6019
X0.4363Y-0.2969
X0.4363Y-0.3319
X0.4363Y-0.3669
X0.4513Y-0.6244
X0.4713Y-0.2969
X0.4713Y-0.3319
X0.4713Y-0.3669
X0.5139Y-0.1219
X0.5463Y-0.3819
X0.5463Y-0.7469
X0.5513Y-0.9069
X0.5563Y-0.8069
X0.5863Y-0.2269
X0.6113Y-1.0919
X0.6115Y-0.7821
X0.6263Y-0.0019
X0.6263Y-0.3219
X0.6363Y-0.1569
X0.6563Y-1.0769
X0.7013Y-0.2895
X0.7113Y-1.0919
X0.7163Y-0.7519
X0.7163Y-0.9169
X0.7213Y-0.0219
X0.7263Y-0.8519
X0.7313Y-0.5009
X0.7313Y-0.5403
X0.7416Y-0.1139
X0.7417Y-0.5783
X0.7813Y-0.3019
X0.7813Y-0.3369
X0.7813Y-0.3719
X0.8063Y-0.5649
X0.8163Y-0.3019
X0.8163Y-0.3369
X0.8163Y-0.3719
X0.8513Y-0.3019
X0.8513Y-0.3369
X0.8513Y-0.3719
X0.8563Y-1.0769
X0.8688Y-0.5649
X0.8713Y-0.1569
X0.8846Y-0.0227
X0.8863Y-0.3019
X0.8863Y-0.3369
X0.8863Y-0.3719
X0.9063Y-0.9569
X0.9213Y-0.3019
X0.9213Y-0.3369
X0.9213Y-0.3719
X0.9378Y-0.6027
X0.9563Y-0.3019
X0.9563Y-0.3369
X0.9563Y-0.3719
X0.9913Y-0.6119
X1.0038Y-0.8444
X1.0071Y-0.1119
X1.0313Y-0.6819
X1.0363Y-0.3869
X1.0363Y-0.6269
X1.0563Y-1.0819
X1.0588Y-0.0044
X1.0713Y-0.2119
X1.0713Y-0.3069
X1.1313Y-0.1619
X1.1513Y-0.0119
X1.1763Y-0.3009
X1.1863Y-0.9519
X1.1913Y-0.7169
X1.2061Y-0.4972
X1.2391Y-0.5226
X1.2413Y-0.0819
X1.2513Y-1.0819
X1.2613Y-0.2969
X1.2613Y-0.3319
X1.2613Y-0.3669
X1.2781Y-0.528
X1.2963Y-0.2969
X1.2963Y-0.3319
X1.2963Y-0.3669
X1.3163Y-0.5119
X1.3313Y-0.2969
X1.3313Y-0.3319
X1.3313Y-0.3669
X1.3404Y-0.543
X1.3663Y-0.2969
X1.3663Y-0.3319
X1.3663Y-0.3669
X1.3788Y-0.5344
X1.4013Y-0.2969
X1.4013Y-0.3319
X1.4013Y-0.3669
X1.4163Y-0.0119
X1.4182Y-0.5234
X1.4263Y-0.0819
X1.4263Y-0.6719
X1.4363Y-0.2969
X1.4363Y-0.3319
X1.4363Y-0.3669
X1.4521Y-0.5035
X1.4914Y-0.5013
X1.5313Y-0.3819
X1.5613Y-0.2654
X1.5613Y-0.5369
X1.5863Y-0.1969
X1.5863Y-0.3369
X1.6038Y-0.2444
X1.6263Y-0.7619
X1.8021Y-0.5777
X1.9313Y-1.0519
T2
X0.1813Y-0.5503
X0.1813Y-0.7472
X1.2763Y-0.7769
X1.2763Y-0.8769
X1.2763Y-0.9769
X1.3763Y-0.7769
X1.3763Y-0.8769
X1.3763Y-0.9769
T3
X0.2413Y0.0589
X0.3413Y0.0589
X0.4413Y0.0589
X0.5413Y0.0589
X0.6813Y0.0589
X0.7813Y0.0589
X0.8813Y0.0589
X0.9813Y0.0589
X1.1213Y0.0589
X1.2213Y0.0589
X1.3213Y0.0589
X1.4213Y0.0589
X1.9113Y-0.5519
X1.9113Y-0.6519
X1.9113Y-0.7519
X1.9113Y-0.8519
X1.9121Y-0.1069
X1.9121Y-0.2069
X1.9121Y-0.3069
X1.9121Y-0.4069
T2
G00X-0.2237Y-0.2448
M15
G01X-0.2237Y-0.3236
M16
G05
G00X-0.145Y-0.4692
M15
G01X-0.0662Y-0.4692
M16
G05
G00X0.0125Y-0.2448
M15
G01X0.0125Y-0.3236
M16
G05
T0
M30
