G04 #@! TF.GenerationSoftware,KiCad,Pcbnew,5.1.6+dfsg1-1*
G04 #@! TF.CreationDate,2021-02-24T22:01:50+01:00*
G04 #@! TF.ProjectId,motor-control,6d6f746f-722d-4636-9f6e-74726f6c2e6b,rev?*
G04 #@! TF.SameCoordinates,Original*
G04 #@! TF.FileFunction,Copper,L2,Bot*
G04 #@! TF.FilePolarity,Positive*
%FSLAX46Y46*%
G04 Gerber Fmt 4.6, Leading zero omitted, Abs format (unit mm)*
G04 Created by KiCad (PCBNEW 5.1.6+dfsg1-1) date 2021-02-24 22:01:50*
%MOMM*%
%LPD*%
G01*
G04 APERTURE LIST*
G04 #@! TA.AperFunction,ComponentPad*
%ADD10O,2.200000X2.200000*%
G04 #@! TD*
G04 #@! TA.AperFunction,ComponentPad*
%ADD11R,2.200000X2.200000*%
G04 #@! TD*
G04 #@! TA.AperFunction,ComponentPad*
%ADD12O,1.600000X1.600000*%
G04 #@! TD*
G04 #@! TA.AperFunction,ComponentPad*
%ADD13R,1.600000X1.600000*%
G04 #@! TD*
G04 #@! TA.AperFunction,ComponentPad*
%ADD14C,1.600000*%
G04 #@! TD*
G04 #@! TA.AperFunction,ComponentPad*
%ADD15R,2.600000X2.600000*%
G04 #@! TD*
G04 #@! TA.AperFunction,ComponentPad*
%ADD16O,2.600000X2.600000*%
G04 #@! TD*
G04 #@! TA.AperFunction,ComponentPad*
%ADD17R,1.800000X1.800000*%
G04 #@! TD*
G04 #@! TA.AperFunction,ComponentPad*
%ADD18C,1.800000*%
G04 #@! TD*
G04 #@! TA.AperFunction,ComponentPad*
%ADD19R,3.500120X3.500120*%
G04 #@! TD*
G04 #@! TA.AperFunction,ComponentPad*
%ADD20C,3.500120*%
G04 #@! TD*
G04 #@! TA.AperFunction,ComponentPad*
%ADD21O,2.200000X1.740000*%
G04 #@! TD*
G04 #@! TA.AperFunction,ComponentPad*
%ADD22O,1.750000X1.200000*%
G04 #@! TD*
G04 #@! TA.AperFunction,ComponentPad*
%ADD23O,1.800000X1.800000*%
G04 #@! TD*
G04 #@! TA.AperFunction,ViaPad*
%ADD24C,0.800000*%
G04 #@! TD*
G04 #@! TA.AperFunction,Conductor*
%ADD25C,0.250000*%
G04 #@! TD*
G04 #@! TA.AperFunction,Conductor*
%ADD26C,1.000000*%
G04 #@! TD*
G04 #@! TA.AperFunction,Conductor*
%ADD27C,0.254000*%
G04 #@! TD*
G04 APERTURE END LIST*
D10*
X179959000Y-58039000D03*
D11*
X190119000Y-58039000D03*
D12*
X184916000Y-50292000D03*
X187456000Y-50292000D03*
D13*
X194056000Y-98552000D03*
D12*
X224536000Y-50292000D03*
X196596000Y-98552000D03*
X221996000Y-50292000D03*
X199136000Y-98552000D03*
X219456000Y-50292000D03*
X201676000Y-98552000D03*
X216916000Y-50292000D03*
X204216000Y-98552000D03*
X214376000Y-50292000D03*
X206756000Y-98552000D03*
X211836000Y-50292000D03*
X209296000Y-98552000D03*
X207776000Y-50292000D03*
X211836000Y-98552000D03*
X205236000Y-50292000D03*
X216916000Y-98552000D03*
X202696000Y-50292000D03*
X219456000Y-98552000D03*
X200156000Y-50292000D03*
X221996000Y-98552000D03*
X197616000Y-50292000D03*
X224536000Y-98552000D03*
X195076000Y-50292000D03*
X227076000Y-98552000D03*
X192536000Y-50292000D03*
X229616000Y-98552000D03*
X189996000Y-50292000D03*
X229616000Y-50292000D03*
X227076000Y-50292000D03*
D13*
X221488000Y-92202000D03*
D14*
X223488000Y-92202000D03*
X195580000Y-73613000D03*
X195580000Y-78613000D03*
X195580000Y-65833000D03*
X195580000Y-60833000D03*
X204978000Y-91694000D03*
X199978000Y-91694000D03*
X204978000Y-73660000D03*
X199978000Y-73660000D03*
D15*
X229489000Y-80264000D03*
D16*
X229489000Y-67564000D03*
D17*
X222631000Y-74930000D03*
D18*
X222631000Y-72390000D03*
X205359000Y-56007000D03*
D17*
X202819000Y-56007000D03*
X217297000Y-55880000D03*
D18*
X219837000Y-55880000D03*
D19*
X228346000Y-61722000D03*
D20*
X228346000Y-56642000D03*
G04 #@! TA.AperFunction,ComponentPad*
G36*
G01*
X231355001Y-94215000D02*
X229654999Y-94215000D01*
G75*
G02*
X229405000Y-93965001I0J249999D01*
G01*
X229405000Y-92724999D01*
G75*
G02*
X229654999Y-92475000I249999J0D01*
G01*
X231355001Y-92475000D01*
G75*
G02*
X231605000Y-92724999I0J-249999D01*
G01*
X231605000Y-93965001D01*
G75*
G02*
X231355001Y-94215000I-249999J0D01*
G01*
G37*
G04 #@! TD.AperFunction*
D21*
X230505000Y-90805000D03*
X230505000Y-88265000D03*
X230505000Y-85725000D03*
G04 #@! TA.AperFunction,ComponentPad*
G36*
G01*
X173364999Y-54010000D02*
X174615001Y-54010000D01*
G75*
G02*
X174865000Y-54259999I0J-249999D01*
G01*
X174865000Y-54960001D01*
G75*
G02*
X174615001Y-55210000I-249999J0D01*
G01*
X173364999Y-55210000D01*
G75*
G02*
X173115000Y-54960001I0J249999D01*
G01*
X173115000Y-54259999D01*
G75*
G02*
X173364999Y-54010000I249999J0D01*
G01*
G37*
G04 #@! TD.AperFunction*
D22*
X173990000Y-56610000D03*
X173990000Y-58610000D03*
X173990000Y-60610000D03*
X173990000Y-62610000D03*
X173990000Y-64610000D03*
X173990000Y-79850000D03*
X173990000Y-77850000D03*
X173990000Y-75850000D03*
X173990000Y-73850000D03*
X173990000Y-71850000D03*
G04 #@! TA.AperFunction,ComponentPad*
G36*
G01*
X173364999Y-69250000D02*
X174615001Y-69250000D01*
G75*
G02*
X174865000Y-69499999I0J-249999D01*
G01*
X174865000Y-70200001D01*
G75*
G02*
X174615001Y-70450000I-249999J0D01*
G01*
X173364999Y-70450000D01*
G75*
G02*
X173115000Y-70200001I0J249999D01*
G01*
X173115000Y-69499999D01*
G75*
G02*
X173364999Y-69250000I249999J0D01*
G01*
G37*
G04 #@! TD.AperFunction*
G04 #@! TA.AperFunction,ComponentPad*
G36*
G01*
X173364999Y-84490000D02*
X174615001Y-84490000D01*
G75*
G02*
X174865000Y-84739999I0J-249999D01*
G01*
X174865000Y-85440001D01*
G75*
G02*
X174615001Y-85690000I-249999J0D01*
G01*
X173364999Y-85690000D01*
G75*
G02*
X173115000Y-85440001I0J249999D01*
G01*
X173115000Y-84739999D01*
G75*
G02*
X173364999Y-84490000I249999J0D01*
G01*
G37*
G04 #@! TD.AperFunction*
X173990000Y-87090000D03*
X173990000Y-89090000D03*
X173990000Y-91090000D03*
X173990000Y-93090000D03*
X173990000Y-95090000D03*
D17*
X200406000Y-69596000D03*
D23*
X201676000Y-64516000D03*
X202946000Y-69596000D03*
X204216000Y-64516000D03*
X205486000Y-69596000D03*
X206756000Y-64516000D03*
X208026000Y-69596000D03*
X209296000Y-64516000D03*
X210566000Y-69596000D03*
X211836000Y-64516000D03*
X213106000Y-69596000D03*
X214376000Y-64516000D03*
X215646000Y-69596000D03*
X216916000Y-64516000D03*
X218186000Y-69596000D03*
X218059000Y-87503000D03*
X216789000Y-82423000D03*
X215519000Y-87503000D03*
X214249000Y-82423000D03*
X212979000Y-87503000D03*
X211709000Y-82423000D03*
X210439000Y-87503000D03*
X209169000Y-82423000D03*
X207899000Y-87503000D03*
X206629000Y-82423000D03*
X205359000Y-87503000D03*
X204089000Y-82423000D03*
X202819000Y-87503000D03*
X201549000Y-82423000D03*
D17*
X200279000Y-87503000D03*
D11*
X190119000Y-64897000D03*
D10*
X179959000Y-64897000D03*
X190119000Y-61468000D03*
D11*
X179959000Y-61468000D03*
D10*
X179832000Y-98171000D03*
D11*
X189992000Y-98171000D03*
D10*
X189992000Y-94742000D03*
D11*
X179832000Y-94742000D03*
X179959000Y-54610000D03*
D10*
X190119000Y-54610000D03*
D11*
X189992000Y-91313000D03*
D10*
X179832000Y-91313000D03*
D11*
X179832000Y-87884000D03*
D10*
X189992000Y-87884000D03*
D11*
X189992000Y-81026000D03*
D10*
X179832000Y-81026000D03*
X189992000Y-77597000D03*
D11*
X179832000Y-77597000D03*
X189992000Y-74168000D03*
D10*
X179832000Y-74168000D03*
D11*
X179832000Y-70739000D03*
D10*
X189992000Y-70739000D03*
D14*
X222631000Y-78105000D03*
D12*
X222631000Y-80645000D03*
X197104000Y-56007000D03*
D14*
X199644000Y-56007000D03*
X214122000Y-55880000D03*
D12*
X211582000Y-55880000D03*
D24*
X194818000Y-53213000D03*
D25*
X205486000Y-69596000D02*
X204060999Y-68170999D01*
X204060999Y-68170999D02*
X200377999Y-68170999D01*
X200377999Y-68170999D02*
X198247000Y-66040000D01*
X198247000Y-66040000D02*
X198247000Y-60325000D01*
X198247000Y-60325000D02*
X194818000Y-56896000D01*
X194818000Y-56896000D02*
X194818000Y-56331998D01*
X194818000Y-56331998D02*
X194818000Y-53213000D01*
X194818000Y-53213000D02*
X194818000Y-53213000D01*
X215447001Y-51363001D02*
X214376000Y-50292000D01*
X215447001Y-60904999D02*
X215447001Y-51363001D01*
X211836000Y-64516000D02*
X215447001Y-60904999D01*
X224536000Y-54356000D02*
X224536000Y-50292000D01*
X214376000Y-64516000D02*
X224536000Y-54356000D01*
X212934001Y-85007999D02*
X210439000Y-87503000D01*
X212934001Y-71964001D02*
X212934001Y-85007999D01*
X210566000Y-69596000D02*
X212934001Y-71964001D01*
X204216000Y-92456000D02*
X204978000Y-91694000D01*
X204216000Y-98552000D02*
X204216000Y-92456000D01*
X215282999Y-97426999D02*
X205359000Y-87503000D01*
X220870999Y-97426999D02*
X215282999Y-97426999D01*
X221996000Y-98552000D02*
X220870999Y-97426999D01*
X217372989Y-96976989D02*
X207899000Y-87503000D01*
X222960989Y-96976989D02*
X217372989Y-96976989D01*
X224536000Y-98552000D02*
X222960989Y-96976989D01*
X182456999Y-48966999D02*
X203910999Y-48966999D01*
X178333999Y-53089999D02*
X182456999Y-48966999D01*
X178333999Y-60266001D02*
X178333999Y-53089999D01*
X203910999Y-48966999D02*
X205236000Y-50292000D01*
X173990000Y-64610000D02*
X178333999Y-60266001D01*
D26*
X191992001Y-66770001D02*
X190119000Y-64897000D01*
X191992001Y-72167999D02*
X191992001Y-66770001D01*
X189992000Y-74168000D02*
X191992001Y-72167999D01*
X191992001Y-83026001D02*
X189992000Y-81026000D01*
X191992001Y-89312999D02*
X191992001Y-83026001D01*
X189992000Y-91313000D02*
X191992001Y-89312999D01*
X190395001Y-80622999D02*
X189992000Y-81026000D01*
X201551792Y-78613000D02*
X195580000Y-78613000D01*
X204089000Y-81150208D02*
X201551792Y-78613000D01*
X204089000Y-82423000D02*
X204089000Y-81150208D01*
X192405000Y-78613000D02*
X189992000Y-81026000D01*
X195580000Y-78613000D02*
X192405000Y-78613000D01*
D25*
X206000989Y-48516989D02*
X207776000Y-50292000D01*
X182270599Y-48516989D02*
X206000989Y-48516989D01*
X175390010Y-55397578D02*
X182270599Y-48516989D01*
X175390010Y-61209990D02*
X175390010Y-55397578D01*
X173990000Y-62610000D02*
X175390010Y-61209990D01*
X228201001Y-49751999D02*
X226836002Y-48387000D01*
X228201001Y-53419908D02*
X228201001Y-49751999D01*
X222631000Y-58989909D02*
X228201001Y-53419908D01*
X222631000Y-72390000D02*
X222631000Y-58989909D01*
X213741000Y-48387000D02*
X211836000Y-50292000D01*
X226836002Y-48387000D02*
X213741000Y-48387000D01*
X207264000Y-54860000D02*
X202696000Y-50292000D01*
X207264000Y-64008000D02*
X207264000Y-54860000D01*
X206756000Y-64516000D02*
X207264000Y-64008000D01*
D26*
X192355999Y-91616001D02*
X201549000Y-82423000D01*
X192355999Y-99627003D02*
X192355999Y-91616001D01*
X191812001Y-100171001D02*
X192355999Y-99627003D01*
X181832001Y-100171001D02*
X191812001Y-100171001D01*
X179832000Y-98171000D02*
X181832001Y-100171001D01*
X177831999Y-92741999D02*
X179832000Y-94742000D01*
X177831999Y-89056999D02*
X177831999Y-92741999D01*
X175865000Y-87090000D02*
X177831999Y-89056999D01*
X173990000Y-87090000D02*
X175865000Y-87090000D01*
X202946000Y-74808000D02*
X202946000Y-69596000D01*
X200843002Y-75311000D02*
X202443000Y-75311000D01*
X179959000Y-54610000D02*
X181959001Y-52609999D01*
X191079001Y-52609999D02*
X192119001Y-53649999D01*
X202443000Y-75311000D02*
X202946000Y-74808000D01*
X196396001Y-75313001D02*
X196398002Y-75311000D01*
X196398002Y-75311000D02*
X199112998Y-75311000D01*
X181959001Y-52609999D02*
X191079001Y-52609999D01*
X192119001Y-64917089D02*
X193392011Y-66190098D01*
X193392011Y-66190098D02*
X193392011Y-73941013D01*
X199112998Y-75311000D02*
X199161999Y-75360001D01*
X193392011Y-73941013D02*
X194763999Y-75313001D01*
X194763999Y-75313001D02*
X196396001Y-75313001D01*
X199161999Y-75360001D02*
X200794001Y-75360001D01*
X192119001Y-53649999D02*
X192119001Y-64917089D01*
X200794001Y-75360001D02*
X200843002Y-75311000D01*
X177038000Y-85090000D02*
X179832000Y-87884000D01*
X173990000Y-85090000D02*
X177038000Y-85090000D01*
X179832000Y-77128002D02*
X179832000Y-77597000D01*
X174553998Y-71850000D02*
X179832000Y-77128002D01*
X173990000Y-71850000D02*
X174553998Y-71850000D01*
X178943000Y-69850000D02*
X179832000Y-70739000D01*
X173990000Y-69850000D02*
X178943000Y-69850000D01*
D27*
G36*
X175498564Y-54214223D02*
G01*
X175486008Y-54086745D01*
X175435472Y-53920149D01*
X175353405Y-53766613D01*
X175242962Y-53632038D01*
X175108387Y-53521595D01*
X174954851Y-53439528D01*
X174788255Y-53388992D01*
X174615001Y-53371928D01*
X173364999Y-53371928D01*
X173191745Y-53388992D01*
X173025149Y-53439528D01*
X172871613Y-53521595D01*
X172737038Y-53632038D01*
X172626595Y-53766613D01*
X172544528Y-53920149D01*
X172493992Y-54086745D01*
X172476928Y-54259999D01*
X172476928Y-54960001D01*
X172493992Y-55133255D01*
X172544528Y-55299851D01*
X172626595Y-55453387D01*
X172737038Y-55587962D01*
X172871613Y-55698405D01*
X172876111Y-55700809D01*
X172837498Y-55732498D01*
X172683167Y-55920551D01*
X172568489Y-56135099D01*
X172497870Y-56367898D01*
X172474025Y-56610000D01*
X172497870Y-56852102D01*
X172568489Y-57084901D01*
X172683167Y-57299449D01*
X172837498Y-57487502D01*
X172986762Y-57610000D01*
X172837498Y-57732498D01*
X172683167Y-57920551D01*
X172568489Y-58135099D01*
X172497870Y-58367898D01*
X172474025Y-58610000D01*
X172497870Y-58852102D01*
X172568489Y-59084901D01*
X172683167Y-59299449D01*
X172837498Y-59487502D01*
X172987348Y-59610481D01*
X172923275Y-59653693D01*
X172751922Y-59826526D01*
X172617579Y-60029467D01*
X172525409Y-60254718D01*
X172521538Y-60292391D01*
X172646269Y-60483000D01*
X173863000Y-60483000D01*
X173863000Y-60463000D01*
X174117000Y-60463000D01*
X174117000Y-60483000D01*
X174137000Y-60483000D01*
X174137000Y-60737000D01*
X174117000Y-60737000D01*
X174117000Y-60757000D01*
X173863000Y-60757000D01*
X173863000Y-60737000D01*
X172646269Y-60737000D01*
X172521538Y-60927609D01*
X172525409Y-60965282D01*
X172617579Y-61190533D01*
X172751922Y-61393474D01*
X172923275Y-61566307D01*
X172987348Y-61609519D01*
X172837498Y-61732498D01*
X172683167Y-61920551D01*
X172568489Y-62135099D01*
X172497870Y-62367898D01*
X172474025Y-62610000D01*
X172497870Y-62852102D01*
X172568489Y-63084901D01*
X172683167Y-63299449D01*
X172837498Y-63487502D01*
X172986762Y-63610000D01*
X172837498Y-63732498D01*
X172683167Y-63920551D01*
X172568489Y-64135099D01*
X172497870Y-64367898D01*
X172474025Y-64610000D01*
X172497870Y-64852102D01*
X172568489Y-65084901D01*
X172683167Y-65299449D01*
X172837498Y-65487502D01*
X173025551Y-65641833D01*
X173240099Y-65756511D01*
X173472898Y-65827130D01*
X173654335Y-65845000D01*
X174325665Y-65845000D01*
X174507102Y-65827130D01*
X174739901Y-65756511D01*
X174954449Y-65641833D01*
X175142502Y-65487502D01*
X175296833Y-65299449D01*
X175411511Y-65084901D01*
X175482130Y-64852102D01*
X175505975Y-64610000D01*
X175482130Y-64367898D01*
X175441347Y-64233454D01*
X178220928Y-61453874D01*
X178220928Y-62568000D01*
X178233188Y-62692482D01*
X178269498Y-62812180D01*
X178328463Y-62922494D01*
X178407815Y-63019185D01*
X178504506Y-63098537D01*
X178614820Y-63157502D01*
X178734518Y-63193812D01*
X178859000Y-63206072D01*
X179566552Y-63206072D01*
X179452919Y-63228675D01*
X179137169Y-63359463D01*
X178853002Y-63549337D01*
X178611337Y-63791002D01*
X178421463Y-64075169D01*
X178290675Y-64390919D01*
X178224000Y-64726117D01*
X178224000Y-65067883D01*
X178290675Y-65403081D01*
X178421463Y-65718831D01*
X178611337Y-66002998D01*
X178853002Y-66244663D01*
X179137169Y-66434537D01*
X179452919Y-66565325D01*
X179788117Y-66632000D01*
X180129883Y-66632000D01*
X180465081Y-66565325D01*
X180780831Y-66434537D01*
X181064998Y-66244663D01*
X181306663Y-66002998D01*
X181496537Y-65718831D01*
X181627325Y-65403081D01*
X181694000Y-65067883D01*
X181694000Y-64726117D01*
X181627325Y-64390919D01*
X181496537Y-64075169D01*
X181306663Y-63791002D01*
X181064998Y-63549337D01*
X180780831Y-63359463D01*
X180465081Y-63228675D01*
X180351448Y-63206072D01*
X181059000Y-63206072D01*
X181183482Y-63193812D01*
X181303180Y-63157502D01*
X181413494Y-63098537D01*
X181510185Y-63019185D01*
X181589537Y-62922494D01*
X181648502Y-62812180D01*
X181684812Y-62692482D01*
X181697072Y-62568000D01*
X181697072Y-60368000D01*
X181684812Y-60243518D01*
X181648502Y-60123820D01*
X181589537Y-60013506D01*
X181510185Y-59916815D01*
X181413494Y-59837463D01*
X181303180Y-59778498D01*
X181183482Y-59742188D01*
X181059000Y-59729928D01*
X180351448Y-59729928D01*
X180465081Y-59707325D01*
X180780831Y-59576537D01*
X181064998Y-59386663D01*
X181306663Y-59144998D01*
X181496537Y-58860831D01*
X181627325Y-58545081D01*
X181694000Y-58209883D01*
X181694000Y-57868117D01*
X181627325Y-57532919D01*
X181496537Y-57217169D01*
X181306663Y-56933002D01*
X181064998Y-56691337D01*
X180780831Y-56501463D01*
X180465081Y-56370675D01*
X180351448Y-56348072D01*
X181059000Y-56348072D01*
X181183482Y-56335812D01*
X181303180Y-56299502D01*
X181413494Y-56240537D01*
X181510185Y-56161185D01*
X181589537Y-56064494D01*
X181648502Y-55954180D01*
X181684812Y-55834482D01*
X181697072Y-55710000D01*
X181697072Y-54477060D01*
X182429134Y-53744999D01*
X188620221Y-53744999D01*
X188494425Y-54000906D01*
X188429825Y-54213878D01*
X188547875Y-54483000D01*
X189992000Y-54483000D01*
X189992000Y-54463000D01*
X190246000Y-54463000D01*
X190246000Y-54483000D01*
X190266000Y-54483000D01*
X190266000Y-54737000D01*
X190246000Y-54737000D01*
X190246000Y-54757000D01*
X189992000Y-54757000D01*
X189992000Y-54737000D01*
X188547875Y-54737000D01*
X188429825Y-55006122D01*
X188494425Y-55219094D01*
X188644469Y-55524329D01*
X188851178Y-55794427D01*
X189106609Y-56019008D01*
X189400946Y-56189442D01*
X189722877Y-56299179D01*
X189991998Y-56181601D01*
X189991998Y-56300928D01*
X189019000Y-56300928D01*
X188894518Y-56313188D01*
X188774820Y-56349498D01*
X188664506Y-56408463D01*
X188567815Y-56487815D01*
X188488463Y-56584506D01*
X188429498Y-56694820D01*
X188393188Y-56814518D01*
X188380928Y-56939000D01*
X188380928Y-59139000D01*
X188393188Y-59263482D01*
X188429498Y-59383180D01*
X188488463Y-59493494D01*
X188567815Y-59590185D01*
X188664506Y-59669537D01*
X188774820Y-59728502D01*
X188894518Y-59764812D01*
X189019000Y-59777072D01*
X189991998Y-59777072D01*
X189991998Y-59896399D01*
X189722877Y-59778821D01*
X189400946Y-59888558D01*
X189106609Y-60058992D01*
X188851178Y-60283573D01*
X188644469Y-60553671D01*
X188494425Y-60858906D01*
X188429825Y-61071878D01*
X188547875Y-61341000D01*
X189992000Y-61341000D01*
X189992000Y-61321000D01*
X190246000Y-61321000D01*
X190246000Y-61341000D01*
X190266000Y-61341000D01*
X190266000Y-61595000D01*
X190246000Y-61595000D01*
X190246000Y-61615000D01*
X189992000Y-61615000D01*
X189992000Y-61595000D01*
X188547875Y-61595000D01*
X188429825Y-61864122D01*
X188494425Y-62077094D01*
X188644469Y-62382329D01*
X188851178Y-62652427D01*
X189106609Y-62877008D01*
X189400946Y-63047442D01*
X189722877Y-63157179D01*
X189991998Y-63039601D01*
X189991998Y-63158928D01*
X189019000Y-63158928D01*
X188894518Y-63171188D01*
X188774820Y-63207498D01*
X188664506Y-63266463D01*
X188567815Y-63345815D01*
X188488463Y-63442506D01*
X188429498Y-63552820D01*
X188393188Y-63672518D01*
X188380928Y-63797000D01*
X188380928Y-65997000D01*
X188393188Y-66121482D01*
X188429498Y-66241180D01*
X188488463Y-66351494D01*
X188567815Y-66448185D01*
X188664506Y-66527537D01*
X188774820Y-66586502D01*
X188894518Y-66622812D01*
X189019000Y-66635072D01*
X190251941Y-66635072D01*
X190857002Y-67240134D01*
X190857002Y-69244647D01*
X190710054Y-69159558D01*
X190388123Y-69049821D01*
X190119000Y-69167400D01*
X190119000Y-70612000D01*
X190139000Y-70612000D01*
X190139000Y-70866000D01*
X190119000Y-70866000D01*
X190119000Y-70886000D01*
X189865000Y-70886000D01*
X189865000Y-70866000D01*
X188420875Y-70866000D01*
X188302825Y-71135122D01*
X188367425Y-71348094D01*
X188517469Y-71653329D01*
X188724178Y-71923427D01*
X188979609Y-72148008D01*
X189273946Y-72318442D01*
X189595877Y-72428179D01*
X189864998Y-72310601D01*
X189864998Y-72429928D01*
X188892000Y-72429928D01*
X188767518Y-72442188D01*
X188647820Y-72478498D01*
X188537506Y-72537463D01*
X188440815Y-72616815D01*
X188361463Y-72713506D01*
X188302498Y-72823820D01*
X188266188Y-72943518D01*
X188253928Y-73068000D01*
X188253928Y-75268000D01*
X188266188Y-75392482D01*
X188302498Y-75512180D01*
X188361463Y-75622494D01*
X188440815Y-75719185D01*
X188537506Y-75798537D01*
X188647820Y-75857502D01*
X188767518Y-75893812D01*
X188892000Y-75906072D01*
X189864998Y-75906072D01*
X189864998Y-76025399D01*
X189595877Y-75907821D01*
X189273946Y-76017558D01*
X188979609Y-76187992D01*
X188724178Y-76412573D01*
X188517469Y-76682671D01*
X188367425Y-76987906D01*
X188302825Y-77200878D01*
X188420875Y-77470000D01*
X189865000Y-77470000D01*
X189865000Y-77450000D01*
X190119000Y-77450000D01*
X190119000Y-77470000D01*
X191563125Y-77470000D01*
X191681175Y-77200878D01*
X191616575Y-76987906D01*
X191466531Y-76682671D01*
X191259822Y-76412573D01*
X191004391Y-76187992D01*
X190710054Y-76017558D01*
X190388123Y-75907821D01*
X190119002Y-76025399D01*
X190119002Y-75906072D01*
X191092000Y-75906072D01*
X191216482Y-75893812D01*
X191336180Y-75857502D01*
X191446494Y-75798537D01*
X191543185Y-75719185D01*
X191622537Y-75622494D01*
X191681502Y-75512180D01*
X191717812Y-75392482D01*
X191730072Y-75268000D01*
X191730072Y-74035060D01*
X192257012Y-73508121D01*
X192257012Y-73885252D01*
X192251520Y-73941013D01*
X192273434Y-74163511D01*
X192338335Y-74377459D01*
X192364333Y-74426097D01*
X192443728Y-74574636D01*
X192585563Y-74747462D01*
X192628871Y-74783004D01*
X193922007Y-76076141D01*
X193957550Y-76119450D01*
X194130376Y-76261285D01*
X194316065Y-76360537D01*
X194327552Y-76366677D01*
X194541500Y-76431578D01*
X194763998Y-76453492D01*
X194819750Y-76448001D01*
X196340250Y-76448001D01*
X196396001Y-76453492D01*
X196451752Y-76448001D01*
X196451753Y-76448001D01*
X196472070Y-76446000D01*
X198832106Y-76446000D01*
X198939500Y-76478578D01*
X199106247Y-76495001D01*
X199106248Y-76495001D01*
X199161999Y-76500492D01*
X199217751Y-76495001D01*
X200738250Y-76495001D01*
X200794001Y-76500492D01*
X200849752Y-76495001D01*
X200849753Y-76495001D01*
X201016500Y-76478578D01*
X201123894Y-76446000D01*
X202387249Y-76446000D01*
X202443000Y-76451491D01*
X202498751Y-76446000D01*
X202498752Y-76446000D01*
X202665499Y-76429577D01*
X202879447Y-76364676D01*
X203076623Y-76259284D01*
X203249449Y-76117449D01*
X203284996Y-76074135D01*
X203709135Y-75649996D01*
X203752449Y-75614449D01*
X203894284Y-75441623D01*
X203999676Y-75244447D01*
X204064577Y-75030499D01*
X204081000Y-74863752D01*
X204081000Y-74863743D01*
X204086490Y-74808001D01*
X204084610Y-74788915D01*
X204298273Y-74931680D01*
X204559426Y-75039853D01*
X204836665Y-75095000D01*
X205119335Y-75095000D01*
X205396574Y-75039853D01*
X205657727Y-74931680D01*
X205892759Y-74774637D01*
X206092637Y-74574759D01*
X206249680Y-74339727D01*
X206357853Y-74078574D01*
X206413000Y-73801335D01*
X206413000Y-73518665D01*
X206357853Y-73241426D01*
X206249680Y-72980273D01*
X206092637Y-72745241D01*
X205892759Y-72545363D01*
X205657727Y-72388320D01*
X205396574Y-72280147D01*
X205119335Y-72225000D01*
X204836665Y-72225000D01*
X204559426Y-72280147D01*
X204298273Y-72388320D01*
X204081000Y-72533497D01*
X204081000Y-70631817D01*
X204138312Y-70574505D01*
X204216000Y-70458237D01*
X204293688Y-70574505D01*
X204507495Y-70788312D01*
X204758905Y-70956299D01*
X205038257Y-71072011D01*
X205334816Y-71131000D01*
X205637184Y-71131000D01*
X205933743Y-71072011D01*
X206213095Y-70956299D01*
X206464505Y-70788312D01*
X206678312Y-70574505D01*
X206756000Y-70458237D01*
X206833688Y-70574505D01*
X207047495Y-70788312D01*
X207298905Y-70956299D01*
X207578257Y-71072011D01*
X207874816Y-71131000D01*
X208177184Y-71131000D01*
X208473743Y-71072011D01*
X208753095Y-70956299D01*
X209004505Y-70788312D01*
X209218312Y-70574505D01*
X209296000Y-70458237D01*
X209373688Y-70574505D01*
X209587495Y-70788312D01*
X209838905Y-70956299D01*
X210118257Y-71072011D01*
X210414816Y-71131000D01*
X210717184Y-71131000D01*
X210974930Y-71079731D01*
X212174001Y-72278803D01*
X212174002Y-80954138D01*
X212156743Y-80946989D01*
X211860184Y-80888000D01*
X211557816Y-80888000D01*
X211261257Y-80946989D01*
X210981905Y-81062701D01*
X210730495Y-81230688D01*
X210516688Y-81444495D01*
X210435633Y-81565802D01*
X210300649Y-81385884D01*
X210076573Y-81185038D01*
X209817620Y-81031766D01*
X209533741Y-80931959D01*
X209296000Y-81052008D01*
X209296000Y-82296000D01*
X209316000Y-82296000D01*
X209316000Y-82550000D01*
X209296000Y-82550000D01*
X209296000Y-83793992D01*
X209533741Y-83914041D01*
X209817620Y-83814234D01*
X210076573Y-83660962D01*
X210300649Y-83460116D01*
X210435633Y-83280198D01*
X210516688Y-83401505D01*
X210730495Y-83615312D01*
X210981905Y-83783299D01*
X211261257Y-83899011D01*
X211557816Y-83958000D01*
X211860184Y-83958000D01*
X212156743Y-83899011D01*
X212174002Y-83891862D01*
X212174002Y-84693196D01*
X210847930Y-86019269D01*
X210590184Y-85968000D01*
X210287816Y-85968000D01*
X209991257Y-86026989D01*
X209711905Y-86142701D01*
X209460495Y-86310688D01*
X209246688Y-86524495D01*
X209169000Y-86640763D01*
X209091312Y-86524495D01*
X208877505Y-86310688D01*
X208626095Y-86142701D01*
X208346743Y-86026989D01*
X208050184Y-85968000D01*
X207747816Y-85968000D01*
X207451257Y-86026989D01*
X207171905Y-86142701D01*
X206920495Y-86310688D01*
X206706688Y-86524495D01*
X206629000Y-86640763D01*
X206551312Y-86524495D01*
X206337505Y-86310688D01*
X206086095Y-86142701D01*
X205806743Y-86026989D01*
X205510184Y-85968000D01*
X205207816Y-85968000D01*
X204911257Y-86026989D01*
X204631905Y-86142701D01*
X204380495Y-86310688D01*
X204166688Y-86524495D01*
X204089000Y-86640763D01*
X204011312Y-86524495D01*
X203797505Y-86310688D01*
X203546095Y-86142701D01*
X203266743Y-86026989D01*
X202970184Y-85968000D01*
X202667816Y-85968000D01*
X202371257Y-86026989D01*
X202091905Y-86142701D01*
X201840495Y-86310688D01*
X201774056Y-86377127D01*
X201768502Y-86358820D01*
X201709537Y-86248506D01*
X201630185Y-86151815D01*
X201533494Y-86072463D01*
X201423180Y-86013498D01*
X201303482Y-85977188D01*
X201179000Y-85964928D01*
X200564750Y-85968000D01*
X200406000Y-86126750D01*
X200406000Y-87376000D01*
X200426000Y-87376000D01*
X200426000Y-87630000D01*
X200406000Y-87630000D01*
X200406000Y-88879250D01*
X200564750Y-89038000D01*
X201179000Y-89041072D01*
X201303482Y-89028812D01*
X201423180Y-88992502D01*
X201533494Y-88933537D01*
X201630185Y-88854185D01*
X201709537Y-88757494D01*
X201768502Y-88647180D01*
X201774056Y-88628873D01*
X201840495Y-88695312D01*
X202091905Y-88863299D01*
X202371257Y-88979011D01*
X202667816Y-89038000D01*
X202970184Y-89038000D01*
X203266743Y-88979011D01*
X203546095Y-88863299D01*
X203797505Y-88695312D01*
X204011312Y-88481505D01*
X204089000Y-88365237D01*
X204166688Y-88481505D01*
X204380495Y-88695312D01*
X204631905Y-88863299D01*
X204911257Y-88979011D01*
X205207816Y-89038000D01*
X205510184Y-89038000D01*
X205767930Y-88986731D01*
X214719199Y-97938001D01*
X214742998Y-97967000D01*
X214771996Y-97990798D01*
X214858722Y-98061973D01*
X214981731Y-98127723D01*
X214990752Y-98132545D01*
X215134013Y-98176002D01*
X215245666Y-98186999D01*
X215245676Y-98186999D01*
X215282999Y-98190675D01*
X215320321Y-98186999D01*
X215525491Y-98186999D01*
X215481000Y-98410665D01*
X215481000Y-98693335D01*
X215536147Y-98970574D01*
X215644320Y-99231727D01*
X215801363Y-99466759D01*
X216001241Y-99666637D01*
X216236273Y-99823680D01*
X216497426Y-99931853D01*
X216774665Y-99987000D01*
X217057335Y-99987000D01*
X217334574Y-99931853D01*
X217595727Y-99823680D01*
X217830759Y-99666637D01*
X218030637Y-99466759D01*
X218186000Y-99234241D01*
X218341363Y-99466759D01*
X218541241Y-99666637D01*
X218776273Y-99823680D01*
X219037426Y-99931853D01*
X219314665Y-99987000D01*
X219597335Y-99987000D01*
X219874574Y-99931853D01*
X220135727Y-99823680D01*
X220370759Y-99666637D01*
X220570637Y-99466759D01*
X220726000Y-99234241D01*
X220881363Y-99466759D01*
X221081241Y-99666637D01*
X221316273Y-99823680D01*
X221577426Y-99931853D01*
X221854665Y-99987000D01*
X222137335Y-99987000D01*
X222414574Y-99931853D01*
X222675727Y-99823680D01*
X222910759Y-99666637D01*
X223110637Y-99466759D01*
X223266000Y-99234241D01*
X223421363Y-99466759D01*
X223621241Y-99666637D01*
X223856273Y-99823680D01*
X224117426Y-99931853D01*
X224394665Y-99987000D01*
X224677335Y-99987000D01*
X224954574Y-99931853D01*
X225215727Y-99823680D01*
X225450759Y-99666637D01*
X225650637Y-99466759D01*
X225806000Y-99234241D01*
X225961363Y-99466759D01*
X226161241Y-99666637D01*
X226396273Y-99823680D01*
X226657426Y-99931853D01*
X226934665Y-99987000D01*
X227217335Y-99987000D01*
X227494574Y-99931853D01*
X227755727Y-99823680D01*
X227990759Y-99666637D01*
X228190637Y-99466759D01*
X228346000Y-99234241D01*
X228501363Y-99466759D01*
X228701241Y-99666637D01*
X228936273Y-99823680D01*
X229197426Y-99931853D01*
X229474665Y-99987000D01*
X229757335Y-99987000D01*
X230034574Y-99931853D01*
X230295727Y-99823680D01*
X230530759Y-99666637D01*
X230730637Y-99466759D01*
X230887680Y-99231727D01*
X230995853Y-98970574D01*
X231051000Y-98693335D01*
X231051000Y-98410665D01*
X230995853Y-98133426D01*
X230887680Y-97872273D01*
X230730637Y-97637241D01*
X230530759Y-97437363D01*
X230295727Y-97280320D01*
X230034574Y-97172147D01*
X229757335Y-97117000D01*
X229474665Y-97117000D01*
X229197426Y-97172147D01*
X228936273Y-97280320D01*
X228701241Y-97437363D01*
X228501363Y-97637241D01*
X228346000Y-97869759D01*
X228190637Y-97637241D01*
X227990759Y-97437363D01*
X227755727Y-97280320D01*
X227494574Y-97172147D01*
X227217335Y-97117000D01*
X226934665Y-97117000D01*
X226657426Y-97172147D01*
X226396273Y-97280320D01*
X226161241Y-97437363D01*
X225961363Y-97637241D01*
X225806000Y-97869759D01*
X225650637Y-97637241D01*
X225450759Y-97437363D01*
X225215727Y-97280320D01*
X224954574Y-97172147D01*
X224677335Y-97117000D01*
X224394665Y-97117000D01*
X224212114Y-97153312D01*
X223524793Y-96465992D01*
X223500990Y-96436988D01*
X223385265Y-96342015D01*
X223253236Y-96271443D01*
X223109975Y-96227986D01*
X222998322Y-96216989D01*
X222998311Y-96216989D01*
X222960989Y-96213313D01*
X222923667Y-96216989D01*
X217687791Y-96216989D01*
X215685802Y-94215000D01*
X228766928Y-94215000D01*
X228779188Y-94339482D01*
X228815498Y-94459180D01*
X228874463Y-94569494D01*
X228953815Y-94666185D01*
X229050506Y-94745537D01*
X229160820Y-94804502D01*
X229280518Y-94840812D01*
X229405000Y-94853072D01*
X230219250Y-94850000D01*
X230378000Y-94691250D01*
X230378000Y-93472000D01*
X230632000Y-93472000D01*
X230632000Y-94691250D01*
X230790750Y-94850000D01*
X231605000Y-94853072D01*
X231729482Y-94840812D01*
X231849180Y-94804502D01*
X231959494Y-94745537D01*
X232056185Y-94666185D01*
X232135537Y-94569494D01*
X232194502Y-94459180D01*
X232230812Y-94339482D01*
X232243072Y-94215000D01*
X232240000Y-93630750D01*
X232081250Y-93472000D01*
X230632000Y-93472000D01*
X230378000Y-93472000D01*
X228928750Y-93472000D01*
X228770000Y-93630750D01*
X228766928Y-94215000D01*
X215685802Y-94215000D01*
X212872802Y-91402000D01*
X220049928Y-91402000D01*
X220049928Y-93002000D01*
X220062188Y-93126482D01*
X220098498Y-93246180D01*
X220157463Y-93356494D01*
X220236815Y-93453185D01*
X220333506Y-93532537D01*
X220443820Y-93591502D01*
X220563518Y-93627812D01*
X220688000Y-93640072D01*
X222288000Y-93640072D01*
X222412482Y-93627812D01*
X222532180Y-93591502D01*
X222642494Y-93532537D01*
X222739185Y-93453185D01*
X222749807Y-93440242D01*
X223001996Y-93559571D01*
X223276184Y-93628300D01*
X223558512Y-93642217D01*
X223838130Y-93600787D01*
X224104292Y-93505603D01*
X224229514Y-93438671D01*
X224301097Y-93194702D01*
X223488000Y-92381605D01*
X223473858Y-92395748D01*
X223294253Y-92216143D01*
X223308395Y-92202000D01*
X223667605Y-92202000D01*
X224480702Y-93015097D01*
X224724671Y-92943514D01*
X224845571Y-92688004D01*
X224914300Y-92413816D01*
X224928217Y-92131488D01*
X224886787Y-91851870D01*
X224791603Y-91585708D01*
X224724671Y-91460486D01*
X224480702Y-91388903D01*
X223667605Y-92202000D01*
X223308395Y-92202000D01*
X223294253Y-92187858D01*
X223473858Y-92008253D01*
X223488000Y-92022395D01*
X224301097Y-91209298D01*
X224229514Y-90965329D01*
X223974004Y-90844429D01*
X223699816Y-90775700D01*
X223417488Y-90761783D01*
X223137870Y-90803213D01*
X222871708Y-90898397D01*
X222749691Y-90963616D01*
X222739185Y-90950815D01*
X222642494Y-90871463D01*
X222532180Y-90812498D01*
X222412482Y-90776188D01*
X222288000Y-90763928D01*
X220688000Y-90763928D01*
X220563518Y-90776188D01*
X220443820Y-90812498D01*
X220333506Y-90871463D01*
X220236815Y-90950815D01*
X220157463Y-91047506D01*
X220098498Y-91157820D01*
X220062188Y-91277518D01*
X220049928Y-91402000D01*
X212872802Y-91402000D01*
X210508801Y-89038000D01*
X210590184Y-89038000D01*
X210886743Y-88979011D01*
X211166095Y-88863299D01*
X211417505Y-88695312D01*
X211631312Y-88481505D01*
X211712367Y-88360198D01*
X211847351Y-88540116D01*
X212071427Y-88740962D01*
X212330380Y-88894234D01*
X212614259Y-88994041D01*
X212852000Y-88873992D01*
X212852000Y-87630000D01*
X212832000Y-87630000D01*
X212832000Y-87376000D01*
X212852000Y-87376000D01*
X212852000Y-87356000D01*
X213106000Y-87356000D01*
X213106000Y-87376000D01*
X213126000Y-87376000D01*
X213126000Y-87630000D01*
X213106000Y-87630000D01*
X213106000Y-88873992D01*
X213343741Y-88994041D01*
X213627620Y-88894234D01*
X213886573Y-88740962D01*
X214110649Y-88540116D01*
X214245633Y-88360198D01*
X214326688Y-88481505D01*
X214540495Y-88695312D01*
X214791905Y-88863299D01*
X215071257Y-88979011D01*
X215367816Y-89038000D01*
X215670184Y-89038000D01*
X215966743Y-88979011D01*
X216246095Y-88863299D01*
X216497505Y-88695312D01*
X216711312Y-88481505D01*
X216789000Y-88365237D01*
X216866688Y-88481505D01*
X217080495Y-88695312D01*
X217331905Y-88863299D01*
X217611257Y-88979011D01*
X217907816Y-89038000D01*
X218210184Y-89038000D01*
X218506743Y-88979011D01*
X218786095Y-88863299D01*
X219037505Y-88695312D01*
X219251312Y-88481505D01*
X219419299Y-88230095D01*
X219535011Y-87950743D01*
X219594000Y-87654184D01*
X219594000Y-87351816D01*
X219535011Y-87055257D01*
X219419299Y-86775905D01*
X219251312Y-86524495D01*
X219037505Y-86310688D01*
X218786095Y-86142701D01*
X218506743Y-86026989D01*
X218210184Y-85968000D01*
X217907816Y-85968000D01*
X217611257Y-86026989D01*
X217331905Y-86142701D01*
X217080495Y-86310688D01*
X216866688Y-86524495D01*
X216789000Y-86640763D01*
X216711312Y-86524495D01*
X216497505Y-86310688D01*
X216246095Y-86142701D01*
X215966743Y-86026989D01*
X215670184Y-85968000D01*
X215367816Y-85968000D01*
X215071257Y-86026989D01*
X214791905Y-86142701D01*
X214540495Y-86310688D01*
X214326688Y-86524495D01*
X214245633Y-86645802D01*
X214110649Y-86465884D01*
X213886573Y-86265038D01*
X213627620Y-86111766D01*
X213343741Y-86011959D01*
X213106002Y-86132007D01*
X213106002Y-85968000D01*
X213048802Y-85968000D01*
X213291802Y-85725000D01*
X228762718Y-85725000D01*
X228791776Y-86020032D01*
X228877834Y-86303725D01*
X229017583Y-86565179D01*
X229205655Y-86794345D01*
X229434821Y-86982417D01*
X229458362Y-86995000D01*
X229434821Y-87007583D01*
X229205655Y-87195655D01*
X229017583Y-87424821D01*
X228877834Y-87686275D01*
X228791776Y-87969968D01*
X228762718Y-88265000D01*
X228791776Y-88560032D01*
X228877834Y-88843725D01*
X229017583Y-89105179D01*
X229205655Y-89334345D01*
X229434821Y-89522417D01*
X229458362Y-89535000D01*
X229434821Y-89547583D01*
X229205655Y-89735655D01*
X229017583Y-89964821D01*
X228877834Y-90226275D01*
X228791776Y-90509968D01*
X228762718Y-90805000D01*
X228791776Y-91100032D01*
X228877834Y-91383725D01*
X229017583Y-91645179D01*
X229204047Y-91872385D01*
X229160820Y-91885498D01*
X229050506Y-91944463D01*
X228953815Y-92023815D01*
X228874463Y-92120506D01*
X228815498Y-92230820D01*
X228779188Y-92350518D01*
X228766928Y-92475000D01*
X228770000Y-93059250D01*
X228928750Y-93218000D01*
X230378000Y-93218000D01*
X230378000Y-93198000D01*
X230632000Y-93198000D01*
X230632000Y-93218000D01*
X232081250Y-93218000D01*
X232240000Y-93059250D01*
X232243072Y-92475000D01*
X232230812Y-92350518D01*
X232194502Y-92230820D01*
X232135537Y-92120506D01*
X232056185Y-92023815D01*
X231959494Y-91944463D01*
X231849180Y-91885498D01*
X231805953Y-91872385D01*
X231992417Y-91645179D01*
X232132166Y-91383725D01*
X232218224Y-91100032D01*
X232247282Y-90805000D01*
X232218224Y-90509968D01*
X232132166Y-90226275D01*
X231992417Y-89964821D01*
X231804345Y-89735655D01*
X231575179Y-89547583D01*
X231551638Y-89535000D01*
X231575179Y-89522417D01*
X231804345Y-89334345D01*
X231992417Y-89105179D01*
X232132166Y-88843725D01*
X232218224Y-88560032D01*
X232247282Y-88265000D01*
X232218224Y-87969968D01*
X232132166Y-87686275D01*
X231992417Y-87424821D01*
X231804345Y-87195655D01*
X231575179Y-87007583D01*
X231551638Y-86995000D01*
X231575179Y-86982417D01*
X231804345Y-86794345D01*
X231992417Y-86565179D01*
X232132166Y-86303725D01*
X232218224Y-86020032D01*
X232247282Y-85725000D01*
X232218224Y-85429968D01*
X232132166Y-85146275D01*
X231992417Y-84884821D01*
X231804345Y-84655655D01*
X231575179Y-84467583D01*
X231313725Y-84327834D01*
X231030032Y-84241776D01*
X230808936Y-84220000D01*
X230201064Y-84220000D01*
X229979968Y-84241776D01*
X229696275Y-84327834D01*
X229434821Y-84467583D01*
X229205655Y-84655655D01*
X229017583Y-84884821D01*
X228877834Y-85146275D01*
X228791776Y-85429968D01*
X228762718Y-85725000D01*
X213291802Y-85725000D01*
X213445004Y-85571798D01*
X213474002Y-85548000D01*
X213568975Y-85432275D01*
X213639547Y-85300246D01*
X213683004Y-85156985D01*
X213694001Y-85045332D01*
X213694001Y-85045323D01*
X213697677Y-85008000D01*
X213694001Y-84970677D01*
X213694001Y-83854584D01*
X213801257Y-83899011D01*
X214097816Y-83958000D01*
X214400184Y-83958000D01*
X214696743Y-83899011D01*
X214976095Y-83783299D01*
X215227505Y-83615312D01*
X215441312Y-83401505D01*
X215519000Y-83285237D01*
X215596688Y-83401505D01*
X215810495Y-83615312D01*
X216061905Y-83783299D01*
X216341257Y-83899011D01*
X216637816Y-83958000D01*
X216940184Y-83958000D01*
X217236743Y-83899011D01*
X217516095Y-83783299D01*
X217767505Y-83615312D01*
X217981312Y-83401505D01*
X218149299Y-83150095D01*
X218265011Y-82870743D01*
X218324000Y-82574184D01*
X218324000Y-82271816D01*
X218265011Y-81975257D01*
X218149299Y-81695905D01*
X217981312Y-81444495D01*
X217767505Y-81230688D01*
X217516095Y-81062701D01*
X217350334Y-80994040D01*
X221239091Y-80994040D01*
X221333930Y-81258881D01*
X221478615Y-81500131D01*
X221667586Y-81708519D01*
X221893580Y-81876037D01*
X222147913Y-81996246D01*
X222281961Y-82036904D01*
X222504000Y-81914915D01*
X222504000Y-80772000D01*
X222758000Y-80772000D01*
X222758000Y-81914915D01*
X222980039Y-82036904D01*
X223114087Y-81996246D01*
X223368420Y-81876037D01*
X223594414Y-81708519D01*
X223783385Y-81500131D01*
X223928070Y-81258881D01*
X224022909Y-80994040D01*
X223901624Y-80772000D01*
X222758000Y-80772000D01*
X222504000Y-80772000D01*
X221360376Y-80772000D01*
X221239091Y-80994040D01*
X217350334Y-80994040D01*
X217236743Y-80946989D01*
X216940184Y-80888000D01*
X216637816Y-80888000D01*
X216341257Y-80946989D01*
X216061905Y-81062701D01*
X215810495Y-81230688D01*
X215596688Y-81444495D01*
X215519000Y-81560763D01*
X215441312Y-81444495D01*
X215227505Y-81230688D01*
X214976095Y-81062701D01*
X214696743Y-80946989D01*
X214400184Y-80888000D01*
X214097816Y-80888000D01*
X213801257Y-80946989D01*
X213694001Y-80991416D01*
X213694001Y-77963665D01*
X221196000Y-77963665D01*
X221196000Y-78246335D01*
X221251147Y-78523574D01*
X221359320Y-78784727D01*
X221516363Y-79019759D01*
X221716241Y-79219637D01*
X221951273Y-79376680D01*
X221962565Y-79381357D01*
X221893580Y-79413963D01*
X221667586Y-79581481D01*
X221478615Y-79789869D01*
X221333930Y-80031119D01*
X221239091Y-80295960D01*
X221360376Y-80518000D01*
X222504000Y-80518000D01*
X222504000Y-80498000D01*
X222758000Y-80498000D01*
X222758000Y-80518000D01*
X223901624Y-80518000D01*
X224022909Y-80295960D01*
X223928070Y-80031119D01*
X223783385Y-79789869D01*
X223594414Y-79581481D01*
X223368420Y-79413963D01*
X223299435Y-79381357D01*
X223310727Y-79376680D01*
X223545759Y-79219637D01*
X223745637Y-79019759D01*
X223782893Y-78964000D01*
X227550928Y-78964000D01*
X227550928Y-81564000D01*
X227563188Y-81688482D01*
X227599498Y-81808180D01*
X227658463Y-81918494D01*
X227737815Y-82015185D01*
X227834506Y-82094537D01*
X227944820Y-82153502D01*
X228064518Y-82189812D01*
X228189000Y-82202072D01*
X230789000Y-82202072D01*
X230913482Y-82189812D01*
X231033180Y-82153502D01*
X231143494Y-82094537D01*
X231240185Y-82015185D01*
X231319537Y-81918494D01*
X231378502Y-81808180D01*
X231414812Y-81688482D01*
X231427072Y-81564000D01*
X231427072Y-78964000D01*
X231414812Y-78839518D01*
X231378502Y-78719820D01*
X231319537Y-78609506D01*
X231240185Y-78512815D01*
X231143494Y-78433463D01*
X231033180Y-78374498D01*
X230913482Y-78338188D01*
X230789000Y-78325928D01*
X228189000Y-78325928D01*
X228064518Y-78338188D01*
X227944820Y-78374498D01*
X227834506Y-78433463D01*
X227737815Y-78512815D01*
X227658463Y-78609506D01*
X227599498Y-78719820D01*
X227563188Y-78839518D01*
X227550928Y-78964000D01*
X223782893Y-78964000D01*
X223902680Y-78784727D01*
X224010853Y-78523574D01*
X224066000Y-78246335D01*
X224066000Y-77963665D01*
X224010853Y-77686426D01*
X223902680Y-77425273D01*
X223745637Y-77190241D01*
X223545759Y-76990363D01*
X223310727Y-76833320D01*
X223049574Y-76725147D01*
X222772335Y-76670000D01*
X222489665Y-76670000D01*
X222212426Y-76725147D01*
X221951273Y-76833320D01*
X221716241Y-76990363D01*
X221516363Y-77190241D01*
X221359320Y-77425273D01*
X221251147Y-77686426D01*
X221196000Y-77963665D01*
X213694001Y-77963665D01*
X213694001Y-72001323D01*
X213697677Y-71964000D01*
X213694001Y-71926677D01*
X213694001Y-71926668D01*
X213683004Y-71815015D01*
X213639547Y-71671754D01*
X213634817Y-71662905D01*
X213568975Y-71539724D01*
X213497800Y-71452998D01*
X213474002Y-71424000D01*
X213445005Y-71400203D01*
X213175802Y-71131000D01*
X213257184Y-71131000D01*
X213553743Y-71072011D01*
X213833095Y-70956299D01*
X214084505Y-70788312D01*
X214298312Y-70574505D01*
X214376000Y-70458237D01*
X214453688Y-70574505D01*
X214667495Y-70788312D01*
X214918905Y-70956299D01*
X215198257Y-71072011D01*
X215494816Y-71131000D01*
X215797184Y-71131000D01*
X216093743Y-71072011D01*
X216373095Y-70956299D01*
X216624505Y-70788312D01*
X216838312Y-70574505D01*
X216919367Y-70453198D01*
X217054351Y-70633116D01*
X217278427Y-70833962D01*
X217537380Y-70987234D01*
X217821259Y-71087041D01*
X218059000Y-70966992D01*
X218059000Y-69723000D01*
X218313000Y-69723000D01*
X218313000Y-70966992D01*
X218550741Y-71087041D01*
X218834620Y-70987234D01*
X219093573Y-70833962D01*
X219317649Y-70633116D01*
X219498236Y-70392414D01*
X219628394Y-70121107D01*
X219677036Y-69960740D01*
X219556378Y-69723000D01*
X218313000Y-69723000D01*
X218059000Y-69723000D01*
X218039000Y-69723000D01*
X218039000Y-69469000D01*
X218059000Y-69469000D01*
X218059000Y-68225008D01*
X218313000Y-68225008D01*
X218313000Y-69469000D01*
X219556378Y-69469000D01*
X219677036Y-69231260D01*
X219628394Y-69070893D01*
X219498236Y-68799586D01*
X219317649Y-68558884D01*
X219093573Y-68358038D01*
X218834620Y-68204766D01*
X218550741Y-68104959D01*
X218313000Y-68225008D01*
X218059000Y-68225008D01*
X217821259Y-68104959D01*
X217537380Y-68204766D01*
X217278427Y-68358038D01*
X217054351Y-68558884D01*
X216919367Y-68738802D01*
X216838312Y-68617495D01*
X216624505Y-68403688D01*
X216373095Y-68235701D01*
X216093743Y-68119989D01*
X215797184Y-68061000D01*
X215494816Y-68061000D01*
X215198257Y-68119989D01*
X214918905Y-68235701D01*
X214667495Y-68403688D01*
X214453688Y-68617495D01*
X214376000Y-68733763D01*
X214298312Y-68617495D01*
X214084505Y-68403688D01*
X213833095Y-68235701D01*
X213553743Y-68119989D01*
X213257184Y-68061000D01*
X212954816Y-68061000D01*
X212658257Y-68119989D01*
X212378905Y-68235701D01*
X212127495Y-68403688D01*
X211913688Y-68617495D01*
X211836000Y-68733763D01*
X211758312Y-68617495D01*
X211544505Y-68403688D01*
X211293095Y-68235701D01*
X211013743Y-68119989D01*
X210717184Y-68061000D01*
X210414816Y-68061000D01*
X210118257Y-68119989D01*
X209838905Y-68235701D01*
X209587495Y-68403688D01*
X209373688Y-68617495D01*
X209296000Y-68733763D01*
X209218312Y-68617495D01*
X209004505Y-68403688D01*
X208753095Y-68235701D01*
X208473743Y-68119989D01*
X208177184Y-68061000D01*
X207874816Y-68061000D01*
X207578257Y-68119989D01*
X207298905Y-68235701D01*
X207047495Y-68403688D01*
X206833688Y-68617495D01*
X206756000Y-68733763D01*
X206678312Y-68617495D01*
X206464505Y-68403688D01*
X206213095Y-68235701D01*
X205933743Y-68119989D01*
X205637184Y-68061000D01*
X205334816Y-68061000D01*
X205077070Y-68112269D01*
X204624803Y-67660002D01*
X204601000Y-67630998D01*
X204485275Y-67536025D01*
X204353246Y-67465453D01*
X204209985Y-67421996D01*
X204098332Y-67410999D01*
X204098321Y-67410999D01*
X204060999Y-67407323D01*
X204023677Y-67410999D01*
X200692801Y-67410999D01*
X199007000Y-65725199D01*
X199007000Y-60362322D01*
X199010676Y-60324999D01*
X199007000Y-60287676D01*
X199007000Y-60287667D01*
X198996003Y-60176014D01*
X198952546Y-60032753D01*
X198881974Y-59900724D01*
X198787001Y-59784999D01*
X198758003Y-59761201D01*
X195578000Y-56581199D01*
X195578000Y-56356039D01*
X195712096Y-56356039D01*
X195752754Y-56490087D01*
X195872963Y-56744420D01*
X196040481Y-56970414D01*
X196248869Y-57159385D01*
X196490119Y-57304070D01*
X196754960Y-57398909D01*
X196977000Y-57277624D01*
X196977000Y-56134000D01*
X195834085Y-56134000D01*
X195712096Y-56356039D01*
X195578000Y-56356039D01*
X195578000Y-55657961D01*
X195712096Y-55657961D01*
X195834085Y-55880000D01*
X196977000Y-55880000D01*
X196977000Y-54736376D01*
X197231000Y-54736376D01*
X197231000Y-55880000D01*
X197251000Y-55880000D01*
X197251000Y-56134000D01*
X197231000Y-56134000D01*
X197231000Y-57277624D01*
X197453040Y-57398909D01*
X197717881Y-57304070D01*
X197959131Y-57159385D01*
X198167519Y-56970414D01*
X198335037Y-56744420D01*
X198367643Y-56675435D01*
X198372320Y-56686727D01*
X198529363Y-56921759D01*
X198729241Y-57121637D01*
X198964273Y-57278680D01*
X199225426Y-57386853D01*
X199502665Y-57442000D01*
X199785335Y-57442000D01*
X200062574Y-57386853D01*
X200323727Y-57278680D01*
X200558759Y-57121637D01*
X200758637Y-56921759D01*
X200915680Y-56686727D01*
X201023853Y-56425574D01*
X201079000Y-56148335D01*
X201079000Y-55865665D01*
X201023853Y-55588426D01*
X200915680Y-55327273D01*
X200758637Y-55092241D01*
X200558759Y-54892363D01*
X200323727Y-54735320D01*
X200062574Y-54627147D01*
X199785335Y-54572000D01*
X199502665Y-54572000D01*
X199225426Y-54627147D01*
X198964273Y-54735320D01*
X198729241Y-54892363D01*
X198529363Y-55092241D01*
X198372320Y-55327273D01*
X198367643Y-55338565D01*
X198335037Y-55269580D01*
X198167519Y-55043586D01*
X197959131Y-54854615D01*
X197717881Y-54709930D01*
X197453040Y-54615091D01*
X197231000Y-54736376D01*
X196977000Y-54736376D01*
X196754960Y-54615091D01*
X196490119Y-54709930D01*
X196248869Y-54854615D01*
X196040481Y-55043586D01*
X195872963Y-55269580D01*
X195752754Y-55523913D01*
X195712096Y-55657961D01*
X195578000Y-55657961D01*
X195578000Y-53916711D01*
X195621937Y-53872774D01*
X195735205Y-53703256D01*
X195813226Y-53514898D01*
X195853000Y-53314939D01*
X195853000Y-53111061D01*
X195813226Y-52911102D01*
X195735205Y-52722744D01*
X195621937Y-52553226D01*
X195477774Y-52409063D01*
X195308256Y-52295795D01*
X195119898Y-52217774D01*
X194919939Y-52178000D01*
X194716061Y-52178000D01*
X194516102Y-52217774D01*
X194327744Y-52295795D01*
X194158226Y-52409063D01*
X194014063Y-52553226D01*
X193900795Y-52722744D01*
X193822774Y-52911102D01*
X193783000Y-53111061D01*
X193783000Y-53314939D01*
X193822774Y-53514898D01*
X193900795Y-53703256D01*
X194014063Y-53872774D01*
X194058001Y-53916712D01*
X194058000Y-56294665D01*
X194058000Y-56858678D01*
X194054324Y-56896000D01*
X194058000Y-56933322D01*
X194058000Y-56933332D01*
X194068997Y-57044985D01*
X194101362Y-57151680D01*
X194112454Y-57188246D01*
X194183026Y-57320276D01*
X194221617Y-57367299D01*
X194277999Y-57436001D01*
X194307003Y-57459804D01*
X197487001Y-60639803D01*
X197487000Y-66002677D01*
X197483324Y-66040000D01*
X197487000Y-66077322D01*
X197487000Y-66077332D01*
X197497997Y-66188985D01*
X197537437Y-66319004D01*
X197541454Y-66332246D01*
X197612026Y-66464276D01*
X197651871Y-66512826D01*
X197706999Y-66580001D01*
X197736003Y-66603804D01*
X199246751Y-68114553D01*
X199151506Y-68165463D01*
X199054815Y-68244815D01*
X198975463Y-68341506D01*
X198916498Y-68451820D01*
X198880188Y-68571518D01*
X198867928Y-68696000D01*
X198871000Y-69310250D01*
X199029750Y-69469000D01*
X200279000Y-69469000D01*
X200279000Y-69449000D01*
X200533000Y-69449000D01*
X200533000Y-69469000D01*
X200553000Y-69469000D01*
X200553000Y-69723000D01*
X200533000Y-69723000D01*
X200533000Y-70972250D01*
X200691750Y-71131000D01*
X201306000Y-71134072D01*
X201430482Y-71121812D01*
X201550180Y-71085502D01*
X201660494Y-71026537D01*
X201757185Y-70947185D01*
X201811001Y-70881610D01*
X201811000Y-74176000D01*
X201321378Y-74176000D01*
X201335571Y-74146004D01*
X201404300Y-73871816D01*
X201418217Y-73589488D01*
X201376787Y-73309870D01*
X201281603Y-73043708D01*
X201214671Y-72918486D01*
X200970702Y-72846903D01*
X200157605Y-73660000D01*
X200171748Y-73674143D01*
X199992143Y-73853748D01*
X199978000Y-73839605D01*
X199963858Y-73853748D01*
X199784253Y-73674143D01*
X199798395Y-73660000D01*
X198985298Y-72846903D01*
X198741329Y-72918486D01*
X198620429Y-73173996D01*
X198551700Y-73448184D01*
X198537783Y-73730512D01*
X198579213Y-74010130D01*
X198638531Y-74176000D01*
X196901139Y-74176000D01*
X196937571Y-74099004D01*
X197006300Y-73824816D01*
X197020217Y-73542488D01*
X196978787Y-73262870D01*
X196883603Y-72996708D01*
X196816671Y-72871486D01*
X196572702Y-72799903D01*
X195759605Y-73613000D01*
X195773748Y-73627143D01*
X195594143Y-73806748D01*
X195580000Y-73792605D01*
X195565858Y-73806748D01*
X195386253Y-73627143D01*
X195400395Y-73613000D01*
X194587298Y-72799903D01*
X194527011Y-72817592D01*
X194527011Y-72620298D01*
X194766903Y-72620298D01*
X195580000Y-73433395D01*
X196346097Y-72667298D01*
X199164903Y-72667298D01*
X199978000Y-73480395D01*
X200791097Y-72667298D01*
X200719514Y-72423329D01*
X200464004Y-72302429D01*
X200189816Y-72233700D01*
X199907488Y-72219783D01*
X199627870Y-72261213D01*
X199361708Y-72356397D01*
X199236486Y-72423329D01*
X199164903Y-72667298D01*
X196346097Y-72667298D01*
X196393097Y-72620298D01*
X196321514Y-72376329D01*
X196066004Y-72255429D01*
X195791816Y-72186700D01*
X195509488Y-72172783D01*
X195229870Y-72214213D01*
X194963708Y-72309397D01*
X194838486Y-72376329D01*
X194766903Y-72620298D01*
X194527011Y-72620298D01*
X194527011Y-70496000D01*
X198867928Y-70496000D01*
X198880188Y-70620482D01*
X198916498Y-70740180D01*
X198975463Y-70850494D01*
X199054815Y-70947185D01*
X199151506Y-71026537D01*
X199261820Y-71085502D01*
X199381518Y-71121812D01*
X199506000Y-71134072D01*
X200120250Y-71131000D01*
X200279000Y-70972250D01*
X200279000Y-69723000D01*
X199029750Y-69723000D01*
X198871000Y-69881750D01*
X198867928Y-70496000D01*
X194527011Y-70496000D01*
X194527011Y-66825702D01*
X194766903Y-66825702D01*
X194838486Y-67069671D01*
X195093996Y-67190571D01*
X195368184Y-67259300D01*
X195650512Y-67273217D01*
X195930130Y-67231787D01*
X196196292Y-67136603D01*
X196321514Y-67069671D01*
X196393097Y-66825702D01*
X195580000Y-66012605D01*
X194766903Y-66825702D01*
X194527011Y-66825702D01*
X194527011Y-66628408D01*
X194587298Y-66646097D01*
X195400395Y-65833000D01*
X195759605Y-65833000D01*
X196572702Y-66646097D01*
X196816671Y-66574514D01*
X196937571Y-66319004D01*
X197006300Y-66044816D01*
X197020217Y-65762488D01*
X196978787Y-65482870D01*
X196883603Y-65216708D01*
X196816671Y-65091486D01*
X196572702Y-65019903D01*
X195759605Y-65833000D01*
X195400395Y-65833000D01*
X194587298Y-65019903D01*
X194343329Y-65091486D01*
X194222429Y-65346996D01*
X194209783Y-65397446D01*
X194198460Y-65383649D01*
X194155157Y-65348111D01*
X193647344Y-64840298D01*
X194766903Y-64840298D01*
X195580000Y-65653395D01*
X196393097Y-64840298D01*
X196321514Y-64596329D01*
X196066004Y-64475429D01*
X195791816Y-64406700D01*
X195509488Y-64392783D01*
X195229870Y-64434213D01*
X194963708Y-64529397D01*
X194838486Y-64596329D01*
X194766903Y-64840298D01*
X193647344Y-64840298D01*
X193254001Y-64446956D01*
X193254001Y-60691665D01*
X194145000Y-60691665D01*
X194145000Y-60974335D01*
X194200147Y-61251574D01*
X194308320Y-61512727D01*
X194465363Y-61747759D01*
X194665241Y-61947637D01*
X194900273Y-62104680D01*
X195161426Y-62212853D01*
X195438665Y-62268000D01*
X195721335Y-62268000D01*
X195998574Y-62212853D01*
X196259727Y-62104680D01*
X196494759Y-61947637D01*
X196694637Y-61747759D01*
X196851680Y-61512727D01*
X196959853Y-61251574D01*
X197015000Y-60974335D01*
X197015000Y-60691665D01*
X196959853Y-60414426D01*
X196851680Y-60153273D01*
X196694637Y-59918241D01*
X196494759Y-59718363D01*
X196259727Y-59561320D01*
X195998574Y-59453147D01*
X195721335Y-59398000D01*
X195438665Y-59398000D01*
X195161426Y-59453147D01*
X194900273Y-59561320D01*
X194665241Y-59718363D01*
X194465363Y-59918241D01*
X194308320Y-60153273D01*
X194200147Y-60414426D01*
X194145000Y-60691665D01*
X193254001Y-60691665D01*
X193254001Y-53705750D01*
X193259492Y-53649998D01*
X193237578Y-53427499D01*
X193172677Y-53213552D01*
X193126768Y-53127662D01*
X193067285Y-53016376D01*
X192925450Y-52843550D01*
X192882141Y-52808007D01*
X191920997Y-51846863D01*
X191885450Y-51803550D01*
X191712624Y-51661715D01*
X191515448Y-51556323D01*
X191301500Y-51491422D01*
X191134753Y-51474999D01*
X191134752Y-51474999D01*
X191079001Y-51469508D01*
X191023250Y-51474999D01*
X190808448Y-51474999D01*
X190910759Y-51406637D01*
X191110637Y-51206759D01*
X191267680Y-50971727D01*
X191272067Y-50961135D01*
X191383615Y-51147131D01*
X191572586Y-51355519D01*
X191798580Y-51523037D01*
X192052913Y-51643246D01*
X192186961Y-51683904D01*
X192409000Y-51561915D01*
X192409000Y-50419000D01*
X192389000Y-50419000D01*
X192389000Y-50165000D01*
X192409000Y-50165000D01*
X192409000Y-50145000D01*
X192663000Y-50145000D01*
X192663000Y-50165000D01*
X192683000Y-50165000D01*
X192683000Y-50419000D01*
X192663000Y-50419000D01*
X192663000Y-51561915D01*
X192885039Y-51683904D01*
X193019087Y-51643246D01*
X193273420Y-51523037D01*
X193499414Y-51355519D01*
X193688385Y-51147131D01*
X193799933Y-50961135D01*
X193804320Y-50971727D01*
X193961363Y-51206759D01*
X194161241Y-51406637D01*
X194396273Y-51563680D01*
X194657426Y-51671853D01*
X194934665Y-51727000D01*
X195217335Y-51727000D01*
X195494574Y-51671853D01*
X195755727Y-51563680D01*
X195990759Y-51406637D01*
X196190637Y-51206759D01*
X196346000Y-50974241D01*
X196501363Y-51206759D01*
X196701241Y-51406637D01*
X196936273Y-51563680D01*
X197197426Y-51671853D01*
X197474665Y-51727000D01*
X197757335Y-51727000D01*
X198034574Y-51671853D01*
X198295727Y-51563680D01*
X198530759Y-51406637D01*
X198730637Y-51206759D01*
X198886000Y-50974241D01*
X199041363Y-51206759D01*
X199241241Y-51406637D01*
X199476273Y-51563680D01*
X199737426Y-51671853D01*
X200014665Y-51727000D01*
X200297335Y-51727000D01*
X200574574Y-51671853D01*
X200835727Y-51563680D01*
X201070759Y-51406637D01*
X201270637Y-51206759D01*
X201426000Y-50974241D01*
X201581363Y-51206759D01*
X201781241Y-51406637D01*
X202016273Y-51563680D01*
X202277426Y-51671853D01*
X202554665Y-51727000D01*
X202837335Y-51727000D01*
X203019887Y-51690688D01*
X205897978Y-54568780D01*
X205806743Y-54530989D01*
X205510184Y-54472000D01*
X205207816Y-54472000D01*
X204911257Y-54530989D01*
X204631905Y-54646701D01*
X204380495Y-54814688D01*
X204314056Y-54881127D01*
X204308502Y-54862820D01*
X204249537Y-54752506D01*
X204170185Y-54655815D01*
X204073494Y-54576463D01*
X203963180Y-54517498D01*
X203843482Y-54481188D01*
X203719000Y-54468928D01*
X201919000Y-54468928D01*
X201794518Y-54481188D01*
X201674820Y-54517498D01*
X201564506Y-54576463D01*
X201467815Y-54655815D01*
X201388463Y-54752506D01*
X201329498Y-54862820D01*
X201293188Y-54982518D01*
X201280928Y-55107000D01*
X201280928Y-56907000D01*
X201293188Y-57031482D01*
X201329498Y-57151180D01*
X201388463Y-57261494D01*
X201467815Y-57358185D01*
X201564506Y-57437537D01*
X201674820Y-57496502D01*
X201794518Y-57532812D01*
X201919000Y-57545072D01*
X203719000Y-57545072D01*
X203843482Y-57532812D01*
X203963180Y-57496502D01*
X204073494Y-57437537D01*
X204170185Y-57358185D01*
X204249537Y-57261494D01*
X204308502Y-57151180D01*
X204314056Y-57132873D01*
X204380495Y-57199312D01*
X204631905Y-57367299D01*
X204911257Y-57483011D01*
X205207816Y-57542000D01*
X205510184Y-57542000D01*
X205806743Y-57483011D01*
X206086095Y-57367299D01*
X206337505Y-57199312D01*
X206504001Y-57032816D01*
X206504000Y-63001053D01*
X206308257Y-63039989D01*
X206028905Y-63155701D01*
X205777495Y-63323688D01*
X205563688Y-63537495D01*
X205486000Y-63653763D01*
X205408312Y-63537495D01*
X205194505Y-63323688D01*
X204943095Y-63155701D01*
X204663743Y-63039989D01*
X204367184Y-62981000D01*
X204064816Y-62981000D01*
X203768257Y-63039989D01*
X203488905Y-63155701D01*
X203237495Y-63323688D01*
X203023688Y-63537495D01*
X202946000Y-63653763D01*
X202868312Y-63537495D01*
X202654505Y-63323688D01*
X202403095Y-63155701D01*
X202123743Y-63039989D01*
X201827184Y-62981000D01*
X201524816Y-62981000D01*
X201228257Y-63039989D01*
X200948905Y-63155701D01*
X200697495Y-63323688D01*
X200483688Y-63537495D01*
X200315701Y-63788905D01*
X200199989Y-64068257D01*
X200141000Y-64364816D01*
X200141000Y-64667184D01*
X200199989Y-64963743D01*
X200315701Y-65243095D01*
X200483688Y-65494505D01*
X200697495Y-65708312D01*
X200948905Y-65876299D01*
X201228257Y-65992011D01*
X201524816Y-66051000D01*
X201827184Y-66051000D01*
X202123743Y-65992011D01*
X202403095Y-65876299D01*
X202654505Y-65708312D01*
X202868312Y-65494505D01*
X202946000Y-65378237D01*
X203023688Y-65494505D01*
X203237495Y-65708312D01*
X203488905Y-65876299D01*
X203768257Y-65992011D01*
X204064816Y-66051000D01*
X204367184Y-66051000D01*
X204663743Y-65992011D01*
X204943095Y-65876299D01*
X205194505Y-65708312D01*
X205408312Y-65494505D01*
X205486000Y-65378237D01*
X205563688Y-65494505D01*
X205777495Y-65708312D01*
X206028905Y-65876299D01*
X206308257Y-65992011D01*
X206604816Y-66051000D01*
X206907184Y-66051000D01*
X207203743Y-65992011D01*
X207483095Y-65876299D01*
X207734505Y-65708312D01*
X207948312Y-65494505D01*
X208029367Y-65373198D01*
X208164351Y-65553116D01*
X208388427Y-65753962D01*
X208647380Y-65907234D01*
X208931259Y-66007041D01*
X209169000Y-65886992D01*
X209169000Y-64643000D01*
X209149000Y-64643000D01*
X209149000Y-64389000D01*
X209169000Y-64389000D01*
X209169000Y-63145008D01*
X208931259Y-63024959D01*
X208647380Y-63124766D01*
X208388427Y-63278038D01*
X208164351Y-63478884D01*
X208029367Y-63658802D01*
X208024000Y-63650770D01*
X208024000Y-56229039D01*
X210190096Y-56229039D01*
X210230754Y-56363087D01*
X210350963Y-56617420D01*
X210518481Y-56843414D01*
X210726869Y-57032385D01*
X210968119Y-57177070D01*
X211232960Y-57271909D01*
X211455000Y-57150624D01*
X211455000Y-56007000D01*
X210312085Y-56007000D01*
X210190096Y-56229039D01*
X208024000Y-56229039D01*
X208024000Y-55530961D01*
X210190096Y-55530961D01*
X210312085Y-55753000D01*
X211455000Y-55753000D01*
X211455000Y-54609376D01*
X211232960Y-54488091D01*
X210968119Y-54582930D01*
X210726869Y-54727615D01*
X210518481Y-54916586D01*
X210350963Y-55142580D01*
X210230754Y-55396913D01*
X210190096Y-55530961D01*
X208024000Y-55530961D01*
X208024000Y-54897333D01*
X208027677Y-54860000D01*
X208013003Y-54711014D01*
X207969546Y-54567753D01*
X207898974Y-54435724D01*
X207827799Y-54348997D01*
X207804001Y-54319999D01*
X207775003Y-54296201D01*
X205205801Y-51727000D01*
X205377335Y-51727000D01*
X205654574Y-51671853D01*
X205915727Y-51563680D01*
X206150759Y-51406637D01*
X206350637Y-51206759D01*
X206506000Y-50974241D01*
X206661363Y-51206759D01*
X206861241Y-51406637D01*
X207096273Y-51563680D01*
X207357426Y-51671853D01*
X207634665Y-51727000D01*
X207917335Y-51727000D01*
X208194574Y-51671853D01*
X208455727Y-51563680D01*
X208690759Y-51406637D01*
X208890637Y-51206759D01*
X209047680Y-50971727D01*
X209155853Y-50710574D01*
X209211000Y-50433335D01*
X209211000Y-50150665D01*
X209155853Y-49873426D01*
X209047680Y-49612273D01*
X208890637Y-49377241D01*
X208690759Y-49177363D01*
X208455727Y-49020320D01*
X208194574Y-48912147D01*
X207917335Y-48857000D01*
X207634665Y-48857000D01*
X207452114Y-48893312D01*
X206716801Y-48158000D01*
X212895198Y-48158000D01*
X212159886Y-48893312D01*
X211977335Y-48857000D01*
X211694665Y-48857000D01*
X211417426Y-48912147D01*
X211156273Y-49020320D01*
X210921241Y-49177363D01*
X210721363Y-49377241D01*
X210564320Y-49612273D01*
X210456147Y-49873426D01*
X210401000Y-50150665D01*
X210401000Y-50433335D01*
X210456147Y-50710574D01*
X210564320Y-50971727D01*
X210721363Y-51206759D01*
X210921241Y-51406637D01*
X211156273Y-51563680D01*
X211417426Y-51671853D01*
X211694665Y-51727000D01*
X211977335Y-51727000D01*
X212254574Y-51671853D01*
X212515727Y-51563680D01*
X212750759Y-51406637D01*
X212950637Y-51206759D01*
X213106000Y-50974241D01*
X213261363Y-51206759D01*
X213461241Y-51406637D01*
X213696273Y-51563680D01*
X213957426Y-51671853D01*
X214234665Y-51727000D01*
X214517335Y-51727000D01*
X214687002Y-51693251D01*
X214687002Y-54560799D01*
X214540574Y-54500147D01*
X214263335Y-54445000D01*
X213980665Y-54445000D01*
X213703426Y-54500147D01*
X213442273Y-54608320D01*
X213207241Y-54765363D01*
X213007363Y-54965241D01*
X212850320Y-55200273D01*
X212845643Y-55211565D01*
X212813037Y-55142580D01*
X212645519Y-54916586D01*
X212437131Y-54727615D01*
X212195881Y-54582930D01*
X211931040Y-54488091D01*
X211709000Y-54609376D01*
X211709000Y-55753000D01*
X211729000Y-55753000D01*
X211729000Y-56007000D01*
X211709000Y-56007000D01*
X211709000Y-57150624D01*
X211931040Y-57271909D01*
X212195881Y-57177070D01*
X212437131Y-57032385D01*
X212645519Y-56843414D01*
X212813037Y-56617420D01*
X212845643Y-56548435D01*
X212850320Y-56559727D01*
X213007363Y-56794759D01*
X213207241Y-56994637D01*
X213442273Y-57151680D01*
X213703426Y-57259853D01*
X213980665Y-57315000D01*
X214263335Y-57315000D01*
X214540574Y-57259853D01*
X214687001Y-57199201D01*
X214687001Y-60590197D01*
X212244930Y-63032269D01*
X211987184Y-62981000D01*
X211684816Y-62981000D01*
X211388257Y-63039989D01*
X211108905Y-63155701D01*
X210857495Y-63323688D01*
X210643688Y-63537495D01*
X210562633Y-63658802D01*
X210427649Y-63478884D01*
X210203573Y-63278038D01*
X209944620Y-63124766D01*
X209660741Y-63024959D01*
X209423000Y-63145008D01*
X209423000Y-64389000D01*
X209443000Y-64389000D01*
X209443000Y-64643000D01*
X209423000Y-64643000D01*
X209423000Y-65886992D01*
X209660741Y-66007041D01*
X209944620Y-65907234D01*
X210203573Y-65753962D01*
X210427649Y-65553116D01*
X210562633Y-65373198D01*
X210643688Y-65494505D01*
X210857495Y-65708312D01*
X211108905Y-65876299D01*
X211388257Y-65992011D01*
X211684816Y-66051000D01*
X211987184Y-66051000D01*
X212283743Y-65992011D01*
X212563095Y-65876299D01*
X212814505Y-65708312D01*
X213028312Y-65494505D01*
X213106000Y-65378237D01*
X213183688Y-65494505D01*
X213397495Y-65708312D01*
X213648905Y-65876299D01*
X213928257Y-65992011D01*
X214224816Y-66051000D01*
X214527184Y-66051000D01*
X214823743Y-65992011D01*
X215103095Y-65876299D01*
X215354505Y-65708312D01*
X215568312Y-65494505D01*
X215646000Y-65378237D01*
X215723688Y-65494505D01*
X215937495Y-65708312D01*
X216188905Y-65876299D01*
X216468257Y-65992011D01*
X216764816Y-66051000D01*
X217067184Y-66051000D01*
X217363743Y-65992011D01*
X217643095Y-65876299D01*
X217894505Y-65708312D01*
X218108312Y-65494505D01*
X218276299Y-65243095D01*
X218392011Y-64963743D01*
X218451000Y-64667184D01*
X218451000Y-64364816D01*
X218392011Y-64068257D01*
X218276299Y-63788905D01*
X218108312Y-63537495D01*
X217894505Y-63323688D01*
X217643095Y-63155701D01*
X217363743Y-63039989D01*
X217067184Y-62981000D01*
X216985801Y-62981000D01*
X225047004Y-54919798D01*
X225076001Y-54896001D01*
X225170974Y-54780276D01*
X225241546Y-54648247D01*
X225285003Y-54504986D01*
X225296000Y-54393333D01*
X225296000Y-54393325D01*
X225299676Y-54356000D01*
X225296000Y-54318675D01*
X225296000Y-51510043D01*
X225450759Y-51406637D01*
X225650637Y-51206759D01*
X225806000Y-50974241D01*
X225961363Y-51206759D01*
X226161241Y-51406637D01*
X226396273Y-51563680D01*
X226657426Y-51671853D01*
X226934665Y-51727000D01*
X227217335Y-51727000D01*
X227441001Y-51682509D01*
X227441001Y-53105106D01*
X222119998Y-58426110D01*
X222091000Y-58449908D01*
X222067202Y-58478906D01*
X222067201Y-58478907D01*
X221996026Y-58565633D01*
X221925454Y-58697663D01*
X221881998Y-58840924D01*
X221867324Y-58989909D01*
X221871001Y-59027241D01*
X221871000Y-71051687D01*
X221652495Y-71197688D01*
X221438688Y-71411495D01*
X221270701Y-71662905D01*
X221154989Y-71942257D01*
X221096000Y-72238816D01*
X221096000Y-72541184D01*
X221154989Y-72837743D01*
X221270701Y-73117095D01*
X221438688Y-73368505D01*
X221505127Y-73434944D01*
X221486820Y-73440498D01*
X221376506Y-73499463D01*
X221279815Y-73578815D01*
X221200463Y-73675506D01*
X221141498Y-73785820D01*
X221105188Y-73905518D01*
X221092928Y-74030000D01*
X221092928Y-75830000D01*
X221105188Y-75954482D01*
X221141498Y-76074180D01*
X221200463Y-76184494D01*
X221279815Y-76281185D01*
X221376506Y-76360537D01*
X221486820Y-76419502D01*
X221606518Y-76455812D01*
X221731000Y-76468072D01*
X223531000Y-76468072D01*
X223655482Y-76455812D01*
X223775180Y-76419502D01*
X223885494Y-76360537D01*
X223982185Y-76281185D01*
X224061537Y-76184494D01*
X224120502Y-76074180D01*
X224156812Y-75954482D01*
X224169072Y-75830000D01*
X224169072Y-74030000D01*
X224156812Y-73905518D01*
X224120502Y-73785820D01*
X224061537Y-73675506D01*
X223982185Y-73578815D01*
X223885494Y-73499463D01*
X223775180Y-73440498D01*
X223756873Y-73434944D01*
X223823312Y-73368505D01*
X223991299Y-73117095D01*
X224107011Y-72837743D01*
X224166000Y-72541184D01*
X224166000Y-72238816D01*
X224107011Y-71942257D01*
X223991299Y-71662905D01*
X223823312Y-71411495D01*
X223609505Y-71197688D01*
X223391000Y-71051687D01*
X223391000Y-67373419D01*
X227554000Y-67373419D01*
X227554000Y-67754581D01*
X227628361Y-68128419D01*
X227774225Y-68480566D01*
X227985987Y-68797491D01*
X228255509Y-69067013D01*
X228572434Y-69278775D01*
X228924581Y-69424639D01*
X229298419Y-69499000D01*
X229679581Y-69499000D01*
X230053419Y-69424639D01*
X230405566Y-69278775D01*
X230722491Y-69067013D01*
X230992013Y-68797491D01*
X231203775Y-68480566D01*
X231349639Y-68128419D01*
X231424000Y-67754581D01*
X231424000Y-67373419D01*
X231349639Y-66999581D01*
X231203775Y-66647434D01*
X230992013Y-66330509D01*
X230722491Y-66060987D01*
X230405566Y-65849225D01*
X230053419Y-65703361D01*
X229679581Y-65629000D01*
X229298419Y-65629000D01*
X228924581Y-65703361D01*
X228572434Y-65849225D01*
X228255509Y-66060987D01*
X227985987Y-66330509D01*
X227774225Y-66647434D01*
X227628361Y-66999581D01*
X227554000Y-67373419D01*
X223391000Y-67373419D01*
X223391000Y-59971940D01*
X225957868Y-59971940D01*
X225957868Y-63472060D01*
X225970128Y-63596542D01*
X226006438Y-63716240D01*
X226065403Y-63826554D01*
X226144755Y-63923245D01*
X226241446Y-64002597D01*
X226351760Y-64061562D01*
X226471458Y-64097872D01*
X226595940Y-64110132D01*
X230096060Y-64110132D01*
X230220542Y-64097872D01*
X230340240Y-64061562D01*
X230450554Y-64002597D01*
X230547245Y-63923245D01*
X230626597Y-63826554D01*
X230685562Y-63716240D01*
X230721872Y-63596542D01*
X230734132Y-63472060D01*
X230734132Y-59971940D01*
X230721872Y-59847458D01*
X230685562Y-59727760D01*
X230626597Y-59617446D01*
X230547245Y-59520755D01*
X230450554Y-59441403D01*
X230340240Y-59382438D01*
X230220542Y-59346128D01*
X230096060Y-59333868D01*
X226595940Y-59333868D01*
X226471458Y-59346128D01*
X226351760Y-59382438D01*
X226241446Y-59441403D01*
X226144755Y-59520755D01*
X226065403Y-59617446D01*
X226006438Y-59727760D01*
X225970128Y-59847458D01*
X225957868Y-59971940D01*
X223391000Y-59971940D01*
X223391000Y-59304710D01*
X224384059Y-58311651D01*
X226855954Y-58311651D01*
X227042039Y-58652815D01*
X227459384Y-58868568D01*
X227910802Y-58998755D01*
X228378944Y-59038374D01*
X228845821Y-58985901D01*
X229293489Y-58843354D01*
X229649961Y-58652815D01*
X229836046Y-58311651D01*
X228346000Y-56821605D01*
X226855954Y-58311651D01*
X224384059Y-58311651D01*
X225956814Y-56738897D01*
X226002099Y-57141821D01*
X226144646Y-57589489D01*
X226335185Y-57945961D01*
X226676349Y-58132046D01*
X228166395Y-56642000D01*
X228525605Y-56642000D01*
X230015651Y-58132046D01*
X230356815Y-57945961D01*
X230572568Y-57528616D01*
X230702755Y-57077198D01*
X230742374Y-56609056D01*
X230689901Y-56142179D01*
X230547354Y-55694511D01*
X230356815Y-55338039D01*
X230015651Y-55151954D01*
X228525605Y-56642000D01*
X228166395Y-56642000D01*
X228152253Y-56627858D01*
X228331858Y-56448253D01*
X228346000Y-56462395D01*
X229836046Y-54972349D01*
X229649961Y-54631185D01*
X229232616Y-54415432D01*
X228781198Y-54285245D01*
X228439393Y-54256318D01*
X228712005Y-53983706D01*
X228741002Y-53959909D01*
X228812512Y-53872774D01*
X228835975Y-53844185D01*
X228906547Y-53712155D01*
X228925263Y-53650454D01*
X228950004Y-53568894D01*
X228961001Y-53457241D01*
X228961001Y-53457231D01*
X228964677Y-53419908D01*
X228961001Y-53382585D01*
X228961001Y-51573923D01*
X229197426Y-51671853D01*
X229474665Y-51727000D01*
X229757335Y-51727000D01*
X230034574Y-51671853D01*
X230295727Y-51563680D01*
X230530759Y-51406637D01*
X230730637Y-51206759D01*
X230887680Y-50971727D01*
X230995853Y-50710574D01*
X231051000Y-50433335D01*
X231051000Y-50150665D01*
X230995853Y-49873426D01*
X230887680Y-49612273D01*
X230730637Y-49377241D01*
X230530759Y-49177363D01*
X230295727Y-49020320D01*
X230034574Y-48912147D01*
X229757335Y-48857000D01*
X229474665Y-48857000D01*
X229197426Y-48912147D01*
X228936273Y-49020320D01*
X228701241Y-49177363D01*
X228701204Y-49177400D01*
X227681803Y-48158000D01*
X234290001Y-48158000D01*
X234290000Y-100686000D01*
X192902133Y-100686000D01*
X193119134Y-100468999D01*
X193162448Y-100433452D01*
X193304283Y-100260626D01*
X193409675Y-100063450D01*
X193431934Y-99990072D01*
X194856000Y-99990072D01*
X194980482Y-99977812D01*
X195100180Y-99941502D01*
X195210494Y-99882537D01*
X195307185Y-99803185D01*
X195386537Y-99706494D01*
X195445502Y-99596180D01*
X195481812Y-99476482D01*
X195482643Y-99468039D01*
X195681241Y-99666637D01*
X195916273Y-99823680D01*
X196177426Y-99931853D01*
X196454665Y-99987000D01*
X196737335Y-99987000D01*
X197014574Y-99931853D01*
X197275727Y-99823680D01*
X197510759Y-99666637D01*
X197710637Y-99466759D01*
X197866000Y-99234241D01*
X198021363Y-99466759D01*
X198221241Y-99666637D01*
X198456273Y-99823680D01*
X198717426Y-99931853D01*
X198994665Y-99987000D01*
X199277335Y-99987000D01*
X199554574Y-99931853D01*
X199815727Y-99823680D01*
X200050759Y-99666637D01*
X200250637Y-99466759D01*
X200406000Y-99234241D01*
X200561363Y-99466759D01*
X200761241Y-99666637D01*
X200996273Y-99823680D01*
X201257426Y-99931853D01*
X201534665Y-99987000D01*
X201817335Y-99987000D01*
X202094574Y-99931853D01*
X202355727Y-99823680D01*
X202590759Y-99666637D01*
X202790637Y-99466759D01*
X202946000Y-99234241D01*
X203101363Y-99466759D01*
X203301241Y-99666637D01*
X203536273Y-99823680D01*
X203797426Y-99931853D01*
X204074665Y-99987000D01*
X204357335Y-99987000D01*
X204634574Y-99931853D01*
X204895727Y-99823680D01*
X205130759Y-99666637D01*
X205330637Y-99466759D01*
X205487680Y-99231727D01*
X205492067Y-99221135D01*
X205603615Y-99407131D01*
X205792586Y-99615519D01*
X206018580Y-99783037D01*
X206272913Y-99903246D01*
X206406961Y-99943904D01*
X206629000Y-99821915D01*
X206629000Y-98679000D01*
X206883000Y-98679000D01*
X206883000Y-99821915D01*
X207105039Y-99943904D01*
X207239087Y-99903246D01*
X207493420Y-99783037D01*
X207719414Y-99615519D01*
X207908385Y-99407131D01*
X208026000Y-99211018D01*
X208143615Y-99407131D01*
X208332586Y-99615519D01*
X208558580Y-99783037D01*
X208812913Y-99903246D01*
X208946961Y-99943904D01*
X209169000Y-99821915D01*
X209169000Y-98679000D01*
X206883000Y-98679000D01*
X206629000Y-98679000D01*
X206609000Y-98679000D01*
X206609000Y-98425000D01*
X206629000Y-98425000D01*
X206629000Y-97282085D01*
X206883000Y-97282085D01*
X206883000Y-98425000D01*
X209169000Y-98425000D01*
X209169000Y-97282085D01*
X209423000Y-97282085D01*
X209423000Y-98425000D01*
X209443000Y-98425000D01*
X209443000Y-98679000D01*
X209423000Y-98679000D01*
X209423000Y-99821915D01*
X209645039Y-99943904D01*
X209779087Y-99903246D01*
X210033420Y-99783037D01*
X210259414Y-99615519D01*
X210448385Y-99407131D01*
X210559933Y-99221135D01*
X210564320Y-99231727D01*
X210721363Y-99466759D01*
X210921241Y-99666637D01*
X211156273Y-99823680D01*
X211417426Y-99931853D01*
X211694665Y-99987000D01*
X211977335Y-99987000D01*
X212254574Y-99931853D01*
X212515727Y-99823680D01*
X212750759Y-99666637D01*
X212950637Y-99466759D01*
X213107680Y-99231727D01*
X213215853Y-98970574D01*
X213271000Y-98693335D01*
X213271000Y-98410665D01*
X213215853Y-98133426D01*
X213107680Y-97872273D01*
X212950637Y-97637241D01*
X212750759Y-97437363D01*
X212515727Y-97280320D01*
X212254574Y-97172147D01*
X211977335Y-97117000D01*
X211694665Y-97117000D01*
X211417426Y-97172147D01*
X211156273Y-97280320D01*
X210921241Y-97437363D01*
X210721363Y-97637241D01*
X210564320Y-97872273D01*
X210559933Y-97882865D01*
X210448385Y-97696869D01*
X210259414Y-97488481D01*
X210033420Y-97320963D01*
X209779087Y-97200754D01*
X209645039Y-97160096D01*
X209423000Y-97282085D01*
X209169000Y-97282085D01*
X208946961Y-97160096D01*
X208812913Y-97200754D01*
X208558580Y-97320963D01*
X208332586Y-97488481D01*
X208143615Y-97696869D01*
X208026000Y-97892982D01*
X207908385Y-97696869D01*
X207719414Y-97488481D01*
X207493420Y-97320963D01*
X207239087Y-97200754D01*
X207105039Y-97160096D01*
X206883000Y-97282085D01*
X206629000Y-97282085D01*
X206406961Y-97160096D01*
X206272913Y-97200754D01*
X206018580Y-97320963D01*
X205792586Y-97488481D01*
X205603615Y-97696869D01*
X205492067Y-97882865D01*
X205487680Y-97872273D01*
X205330637Y-97637241D01*
X205130759Y-97437363D01*
X204976000Y-97333957D01*
X204976000Y-93129000D01*
X205119335Y-93129000D01*
X205396574Y-93073853D01*
X205657727Y-92965680D01*
X205892759Y-92808637D01*
X206092637Y-92608759D01*
X206249680Y-92373727D01*
X206357853Y-92112574D01*
X206413000Y-91835335D01*
X206413000Y-91552665D01*
X206357853Y-91275426D01*
X206249680Y-91014273D01*
X206092637Y-90779241D01*
X205892759Y-90579363D01*
X205657727Y-90422320D01*
X205396574Y-90314147D01*
X205119335Y-90259000D01*
X204836665Y-90259000D01*
X204559426Y-90314147D01*
X204298273Y-90422320D01*
X204063241Y-90579363D01*
X203863363Y-90779241D01*
X203706320Y-91014273D01*
X203598147Y-91275426D01*
X203543000Y-91552665D01*
X203543000Y-91835335D01*
X203581862Y-92030705D01*
X203581026Y-92031724D01*
X203510454Y-92163754D01*
X203466998Y-92307015D01*
X203452324Y-92456000D01*
X203456001Y-92493332D01*
X203456000Y-97333956D01*
X203301241Y-97437363D01*
X203101363Y-97637241D01*
X202946000Y-97869759D01*
X202790637Y-97637241D01*
X202590759Y-97437363D01*
X202355727Y-97280320D01*
X202094574Y-97172147D01*
X201817335Y-97117000D01*
X201534665Y-97117000D01*
X201257426Y-97172147D01*
X200996273Y-97280320D01*
X200761241Y-97437363D01*
X200561363Y-97637241D01*
X200406000Y-97869759D01*
X200250637Y-97637241D01*
X200050759Y-97437363D01*
X199815727Y-97280320D01*
X199554574Y-97172147D01*
X199277335Y-97117000D01*
X198994665Y-97117000D01*
X198717426Y-97172147D01*
X198456273Y-97280320D01*
X198221241Y-97437363D01*
X198021363Y-97637241D01*
X197866000Y-97869759D01*
X197710637Y-97637241D01*
X197510759Y-97437363D01*
X197275727Y-97280320D01*
X197014574Y-97172147D01*
X196737335Y-97117000D01*
X196454665Y-97117000D01*
X196177426Y-97172147D01*
X195916273Y-97280320D01*
X195681241Y-97437363D01*
X195482643Y-97635961D01*
X195481812Y-97627518D01*
X195445502Y-97507820D01*
X195386537Y-97397506D01*
X195307185Y-97300815D01*
X195210494Y-97221463D01*
X195100180Y-97162498D01*
X194980482Y-97126188D01*
X194856000Y-97113928D01*
X193490999Y-97113928D01*
X193490999Y-92686702D01*
X199164903Y-92686702D01*
X199236486Y-92930671D01*
X199491996Y-93051571D01*
X199766184Y-93120300D01*
X200048512Y-93134217D01*
X200328130Y-93092787D01*
X200594292Y-92997603D01*
X200719514Y-92930671D01*
X200791097Y-92686702D01*
X199978000Y-91873605D01*
X199164903Y-92686702D01*
X193490999Y-92686702D01*
X193490999Y-92086132D01*
X193812619Y-91764512D01*
X198537783Y-91764512D01*
X198579213Y-92044130D01*
X198674397Y-92310292D01*
X198741329Y-92435514D01*
X198985298Y-92507097D01*
X199798395Y-91694000D01*
X200157605Y-91694000D01*
X200970702Y-92507097D01*
X201214671Y-92435514D01*
X201335571Y-92180004D01*
X201404300Y-91905816D01*
X201418217Y-91623488D01*
X201376787Y-91343870D01*
X201281603Y-91077708D01*
X201214671Y-90952486D01*
X200970702Y-90880903D01*
X200157605Y-91694000D01*
X199798395Y-91694000D01*
X198985298Y-90880903D01*
X198741329Y-90952486D01*
X198620429Y-91207996D01*
X198551700Y-91482184D01*
X198537783Y-91764512D01*
X193812619Y-91764512D01*
X194875833Y-90701298D01*
X199164903Y-90701298D01*
X199978000Y-91514395D01*
X200791097Y-90701298D01*
X200719514Y-90457329D01*
X200464004Y-90336429D01*
X200189816Y-90267700D01*
X199907488Y-90253783D01*
X199627870Y-90295213D01*
X199361708Y-90390397D01*
X199236486Y-90457329D01*
X199164903Y-90701298D01*
X194875833Y-90701298D01*
X197174132Y-88403000D01*
X198740928Y-88403000D01*
X198753188Y-88527482D01*
X198789498Y-88647180D01*
X198848463Y-88757494D01*
X198927815Y-88854185D01*
X199024506Y-88933537D01*
X199134820Y-88992502D01*
X199254518Y-89028812D01*
X199379000Y-89041072D01*
X199993250Y-89038000D01*
X200152000Y-88879250D01*
X200152000Y-87630000D01*
X198902750Y-87630000D01*
X198744000Y-87788750D01*
X198740928Y-88403000D01*
X197174132Y-88403000D01*
X198742089Y-86835044D01*
X198744000Y-87217250D01*
X198902750Y-87376000D01*
X200152000Y-87376000D01*
X200152000Y-86126750D01*
X199993250Y-85968000D01*
X199611044Y-85966089D01*
X201619133Y-83958000D01*
X201700184Y-83958000D01*
X201996743Y-83899011D01*
X202276095Y-83783299D01*
X202527505Y-83615312D01*
X202741312Y-83401505D01*
X202819000Y-83285237D01*
X202896688Y-83401505D01*
X203110495Y-83615312D01*
X203361905Y-83783299D01*
X203641257Y-83899011D01*
X203937816Y-83958000D01*
X204240184Y-83958000D01*
X204536743Y-83899011D01*
X204816095Y-83783299D01*
X205067505Y-83615312D01*
X205281312Y-83401505D01*
X205359000Y-83285237D01*
X205436688Y-83401505D01*
X205650495Y-83615312D01*
X205901905Y-83783299D01*
X206181257Y-83899011D01*
X206477816Y-83958000D01*
X206780184Y-83958000D01*
X207076743Y-83899011D01*
X207356095Y-83783299D01*
X207607505Y-83615312D01*
X207821312Y-83401505D01*
X207902367Y-83280198D01*
X208037351Y-83460116D01*
X208261427Y-83660962D01*
X208520380Y-83814234D01*
X208804259Y-83914041D01*
X209042000Y-83793992D01*
X209042000Y-82550000D01*
X209022000Y-82550000D01*
X209022000Y-82296000D01*
X209042000Y-82296000D01*
X209042000Y-81052008D01*
X208804259Y-80931959D01*
X208520380Y-81031766D01*
X208261427Y-81185038D01*
X208037351Y-81385884D01*
X207902367Y-81565802D01*
X207821312Y-81444495D01*
X207607505Y-81230688D01*
X207356095Y-81062701D01*
X207076743Y-80946989D01*
X206780184Y-80888000D01*
X206477816Y-80888000D01*
X206181257Y-80946989D01*
X205901905Y-81062701D01*
X205650495Y-81230688D01*
X205436688Y-81444495D01*
X205359000Y-81560763D01*
X205281312Y-81444495D01*
X205224000Y-81387183D01*
X205224000Y-81205959D01*
X205229491Y-81150208D01*
X205207577Y-80927709D01*
X205142676Y-80713761D01*
X205037284Y-80516585D01*
X204895449Y-80343759D01*
X204852141Y-80308217D01*
X202393788Y-77849865D01*
X202358241Y-77806551D01*
X202185415Y-77664716D01*
X201988239Y-77559324D01*
X201774291Y-77494423D01*
X201607544Y-77478000D01*
X201607543Y-77478000D01*
X201551792Y-77472509D01*
X201496041Y-77478000D01*
X196464284Y-77478000D01*
X196259727Y-77341320D01*
X195998574Y-77233147D01*
X195721335Y-77178000D01*
X195438665Y-77178000D01*
X195161426Y-77233147D01*
X194900273Y-77341320D01*
X194695716Y-77478000D01*
X192460741Y-77478000D01*
X192404999Y-77472510D01*
X192349257Y-77478000D01*
X192349248Y-77478000D01*
X192182501Y-77494423D01*
X191968553Y-77559324D01*
X191771377Y-77664716D01*
X191599128Y-77806077D01*
X191563125Y-77724000D01*
X190119000Y-77724000D01*
X190119000Y-77744000D01*
X189865000Y-77744000D01*
X189865000Y-77724000D01*
X188420875Y-77724000D01*
X188302825Y-77993122D01*
X188367425Y-78206094D01*
X188517469Y-78511329D01*
X188724178Y-78781427D01*
X188979609Y-79006008D01*
X189273946Y-79176442D01*
X189595877Y-79286179D01*
X189864998Y-79168601D01*
X189864998Y-79287928D01*
X188892000Y-79287928D01*
X188767518Y-79300188D01*
X188647820Y-79336498D01*
X188537506Y-79395463D01*
X188440815Y-79474815D01*
X188361463Y-79571506D01*
X188302498Y-79681820D01*
X188266188Y-79801518D01*
X188253928Y-79926000D01*
X188253928Y-82126000D01*
X188266188Y-82250482D01*
X188302498Y-82370180D01*
X188361463Y-82480494D01*
X188440815Y-82577185D01*
X188537506Y-82656537D01*
X188647820Y-82715502D01*
X188767518Y-82751812D01*
X188892000Y-82764072D01*
X190124940Y-82764072D01*
X190857002Y-83496135D01*
X190857001Y-86389647D01*
X190710054Y-86304558D01*
X190388123Y-86194821D01*
X190119000Y-86312400D01*
X190119000Y-87757000D01*
X190139000Y-87757000D01*
X190139000Y-88011000D01*
X190119000Y-88011000D01*
X190119000Y-88031000D01*
X189865000Y-88031000D01*
X189865000Y-88011000D01*
X188420875Y-88011000D01*
X188302825Y-88280122D01*
X188367425Y-88493094D01*
X188517469Y-88798329D01*
X188724178Y-89068427D01*
X188979609Y-89293008D01*
X189273946Y-89463442D01*
X189595877Y-89573179D01*
X189864998Y-89455601D01*
X189864998Y-89574928D01*
X188892000Y-89574928D01*
X188767518Y-89587188D01*
X188647820Y-89623498D01*
X188537506Y-89682463D01*
X188440815Y-89761815D01*
X188361463Y-89858506D01*
X188302498Y-89968820D01*
X188266188Y-90088518D01*
X188253928Y-90213000D01*
X188253928Y-92413000D01*
X188266188Y-92537482D01*
X188302498Y-92657180D01*
X188361463Y-92767494D01*
X188440815Y-92864185D01*
X188537506Y-92943537D01*
X188647820Y-93002502D01*
X188767518Y-93038812D01*
X188892000Y-93051072D01*
X189864998Y-93051072D01*
X189864998Y-93170399D01*
X189595877Y-93052821D01*
X189273946Y-93162558D01*
X188979609Y-93332992D01*
X188724178Y-93557573D01*
X188517469Y-93827671D01*
X188367425Y-94132906D01*
X188302825Y-94345878D01*
X188420875Y-94615000D01*
X189865000Y-94615000D01*
X189865000Y-94595000D01*
X190119000Y-94595000D01*
X190119000Y-94615000D01*
X190139000Y-94615000D01*
X190139000Y-94869000D01*
X190119000Y-94869000D01*
X190119000Y-94889000D01*
X189865000Y-94889000D01*
X189865000Y-94869000D01*
X188420875Y-94869000D01*
X188302825Y-95138122D01*
X188367425Y-95351094D01*
X188517469Y-95656329D01*
X188724178Y-95926427D01*
X188979609Y-96151008D01*
X189273946Y-96321442D01*
X189595877Y-96431179D01*
X189864998Y-96313601D01*
X189864998Y-96432928D01*
X188892000Y-96432928D01*
X188767518Y-96445188D01*
X188647820Y-96481498D01*
X188537506Y-96540463D01*
X188440815Y-96619815D01*
X188361463Y-96716506D01*
X188302498Y-96826820D01*
X188266188Y-96946518D01*
X188253928Y-97071000D01*
X188253928Y-99036001D01*
X182302134Y-99036001D01*
X181567000Y-98300868D01*
X181567000Y-98000117D01*
X181500325Y-97664919D01*
X181369537Y-97349169D01*
X181179663Y-97065002D01*
X180937998Y-96823337D01*
X180653831Y-96633463D01*
X180338081Y-96502675D01*
X180224448Y-96480072D01*
X180932000Y-96480072D01*
X181056482Y-96467812D01*
X181176180Y-96431502D01*
X181286494Y-96372537D01*
X181383185Y-96293185D01*
X181462537Y-96196494D01*
X181521502Y-96086180D01*
X181557812Y-95966482D01*
X181570072Y-95842000D01*
X181570072Y-93642000D01*
X181557812Y-93517518D01*
X181521502Y-93397820D01*
X181462537Y-93287506D01*
X181383185Y-93190815D01*
X181286494Y-93111463D01*
X181176180Y-93052498D01*
X181056482Y-93016188D01*
X180932000Y-93003928D01*
X180224448Y-93003928D01*
X180338081Y-92981325D01*
X180653831Y-92850537D01*
X180937998Y-92660663D01*
X181179663Y-92418998D01*
X181369537Y-92134831D01*
X181500325Y-91819081D01*
X181567000Y-91483883D01*
X181567000Y-91142117D01*
X181500325Y-90806919D01*
X181369537Y-90491169D01*
X181179663Y-90207002D01*
X180937998Y-89965337D01*
X180653831Y-89775463D01*
X180338081Y-89644675D01*
X180224448Y-89622072D01*
X180932000Y-89622072D01*
X181056482Y-89609812D01*
X181176180Y-89573502D01*
X181286494Y-89514537D01*
X181383185Y-89435185D01*
X181462537Y-89338494D01*
X181521502Y-89228180D01*
X181557812Y-89108482D01*
X181570072Y-88984000D01*
X181570072Y-87487878D01*
X188302825Y-87487878D01*
X188420875Y-87757000D01*
X189865000Y-87757000D01*
X189865000Y-86312400D01*
X189595877Y-86194821D01*
X189273946Y-86304558D01*
X188979609Y-86474992D01*
X188724178Y-86699573D01*
X188517469Y-86969671D01*
X188367425Y-87274906D01*
X188302825Y-87487878D01*
X181570072Y-87487878D01*
X181570072Y-86784000D01*
X181557812Y-86659518D01*
X181521502Y-86539820D01*
X181462537Y-86429506D01*
X181383185Y-86332815D01*
X181286494Y-86253463D01*
X181176180Y-86194498D01*
X181056482Y-86158188D01*
X180932000Y-86145928D01*
X179699060Y-86145928D01*
X177879996Y-84326865D01*
X177844449Y-84283551D01*
X177671623Y-84141716D01*
X177474447Y-84036324D01*
X177260499Y-83971423D01*
X177093752Y-83955000D01*
X177093751Y-83955000D01*
X177038000Y-83949509D01*
X176982249Y-83955000D01*
X175021214Y-83955000D01*
X174954851Y-83919528D01*
X174788255Y-83868992D01*
X174615001Y-83851928D01*
X173364999Y-83851928D01*
X173191745Y-83868992D01*
X173025149Y-83919528D01*
X172871613Y-84001595D01*
X172737038Y-84112038D01*
X172626595Y-84246613D01*
X172544528Y-84400149D01*
X172493992Y-84566745D01*
X172476928Y-84739999D01*
X172476928Y-85440001D01*
X172493992Y-85613255D01*
X172544528Y-85779851D01*
X172626595Y-85933387D01*
X172737038Y-86067962D01*
X172871613Y-86178405D01*
X172876111Y-86180809D01*
X172837498Y-86212498D01*
X172683167Y-86400551D01*
X172568489Y-86615099D01*
X172497870Y-86847898D01*
X172474025Y-87090000D01*
X172497870Y-87332102D01*
X172568489Y-87564901D01*
X172683167Y-87779449D01*
X172837498Y-87967502D01*
X172986762Y-88090000D01*
X172837498Y-88212498D01*
X172683167Y-88400551D01*
X172568489Y-88615099D01*
X172497870Y-88847898D01*
X172474025Y-89090000D01*
X172497870Y-89332102D01*
X172568489Y-89564901D01*
X172683167Y-89779449D01*
X172837498Y-89967502D01*
X172987348Y-90090481D01*
X172923275Y-90133693D01*
X172751922Y-90306526D01*
X172617579Y-90509467D01*
X172525409Y-90734718D01*
X172521538Y-90772391D01*
X172646269Y-90963000D01*
X173863000Y-90963000D01*
X173863000Y-90943000D01*
X174117000Y-90943000D01*
X174117000Y-90963000D01*
X175333731Y-90963000D01*
X175458462Y-90772391D01*
X175454591Y-90734718D01*
X175362421Y-90509467D01*
X175228078Y-90306526D01*
X175056725Y-90133693D01*
X174992652Y-90090481D01*
X175142502Y-89967502D01*
X175296833Y-89779449D01*
X175411511Y-89564901D01*
X175482130Y-89332102D01*
X175505975Y-89090000D01*
X175482130Y-88847898D01*
X175411511Y-88615099D01*
X175296833Y-88400551D01*
X175152762Y-88225000D01*
X175394869Y-88225000D01*
X176696999Y-89527132D01*
X176697000Y-92686238D01*
X176691508Y-92741999D01*
X176713422Y-92964497D01*
X176778323Y-93178445D01*
X176814528Y-93246180D01*
X176883716Y-93375622D01*
X177025551Y-93548448D01*
X177068859Y-93583990D01*
X178093928Y-94609060D01*
X178093928Y-95842000D01*
X178106188Y-95966482D01*
X178142498Y-96086180D01*
X178201463Y-96196494D01*
X178280815Y-96293185D01*
X178377506Y-96372537D01*
X178487820Y-96431502D01*
X178607518Y-96467812D01*
X178732000Y-96480072D01*
X179439552Y-96480072D01*
X179325919Y-96502675D01*
X179010169Y-96633463D01*
X178726002Y-96823337D01*
X178484337Y-97065002D01*
X178294463Y-97349169D01*
X178163675Y-97664919D01*
X178097000Y-98000117D01*
X178097000Y-98341883D01*
X178163675Y-98677081D01*
X178294463Y-98992831D01*
X178484337Y-99276998D01*
X178726002Y-99518663D01*
X179010169Y-99708537D01*
X179325919Y-99839325D01*
X179661117Y-99906000D01*
X179961868Y-99906000D01*
X180741867Y-100686000D01*
X166522000Y-100686000D01*
X166522000Y-93090000D01*
X172474025Y-93090000D01*
X172497870Y-93332102D01*
X172568489Y-93564901D01*
X172683167Y-93779449D01*
X172837498Y-93967502D01*
X172986762Y-94090000D01*
X172837498Y-94212498D01*
X172683167Y-94400551D01*
X172568489Y-94615099D01*
X172497870Y-94847898D01*
X172474025Y-95090000D01*
X172497870Y-95332102D01*
X172568489Y-95564901D01*
X172683167Y-95779449D01*
X172837498Y-95967502D01*
X173025551Y-96121833D01*
X173240099Y-96236511D01*
X173472898Y-96307130D01*
X173654335Y-96325000D01*
X174325665Y-96325000D01*
X174507102Y-96307130D01*
X174739901Y-96236511D01*
X174954449Y-96121833D01*
X175142502Y-95967502D01*
X175296833Y-95779449D01*
X175411511Y-95564901D01*
X175482130Y-95332102D01*
X175505975Y-95090000D01*
X175482130Y-94847898D01*
X175411511Y-94615099D01*
X175296833Y-94400551D01*
X175142502Y-94212498D01*
X174993238Y-94090000D01*
X175142502Y-93967502D01*
X175296833Y-93779449D01*
X175411511Y-93564901D01*
X175482130Y-93332102D01*
X175505975Y-93090000D01*
X175482130Y-92847898D01*
X175411511Y-92615099D01*
X175296833Y-92400551D01*
X175142502Y-92212498D01*
X174992652Y-92089519D01*
X175056725Y-92046307D01*
X175228078Y-91873474D01*
X175362421Y-91670533D01*
X175454591Y-91445282D01*
X175458462Y-91407609D01*
X175333731Y-91217000D01*
X174117000Y-91217000D01*
X174117000Y-91237000D01*
X173863000Y-91237000D01*
X173863000Y-91217000D01*
X172646269Y-91217000D01*
X172521538Y-91407609D01*
X172525409Y-91445282D01*
X172617579Y-91670533D01*
X172751922Y-91873474D01*
X172923275Y-92046307D01*
X172987348Y-92089519D01*
X172837498Y-92212498D01*
X172683167Y-92400551D01*
X172568489Y-92615099D01*
X172497870Y-92847898D01*
X172474025Y-93090000D01*
X166522000Y-93090000D01*
X166522000Y-77850000D01*
X172474025Y-77850000D01*
X172497870Y-78092102D01*
X172568489Y-78324901D01*
X172683167Y-78539449D01*
X172837498Y-78727502D01*
X172986762Y-78850000D01*
X172837498Y-78972498D01*
X172683167Y-79160551D01*
X172568489Y-79375099D01*
X172497870Y-79607898D01*
X172474025Y-79850000D01*
X172497870Y-80092102D01*
X172568489Y-80324901D01*
X172683167Y-80539449D01*
X172837498Y-80727502D01*
X173025551Y-80881833D01*
X173240099Y-80996511D01*
X173472898Y-81067130D01*
X173654335Y-81085000D01*
X174325665Y-81085000D01*
X174507102Y-81067130D01*
X174739901Y-80996511D01*
X174954449Y-80881833D01*
X175142502Y-80727502D01*
X175296833Y-80539449D01*
X175411511Y-80324901D01*
X175482130Y-80092102D01*
X175505975Y-79850000D01*
X175482130Y-79607898D01*
X175411511Y-79375099D01*
X175296833Y-79160551D01*
X175142502Y-78972498D01*
X174993238Y-78850000D01*
X175142502Y-78727502D01*
X175296833Y-78539449D01*
X175411511Y-78324901D01*
X175482130Y-78092102D01*
X175505975Y-77850000D01*
X175482130Y-77607898D01*
X175411511Y-77375099D01*
X175296833Y-77160551D01*
X175142502Y-76972498D01*
X174992652Y-76849519D01*
X175056725Y-76806307D01*
X175228078Y-76633474D01*
X175362421Y-76430533D01*
X175454591Y-76205282D01*
X175458462Y-76167609D01*
X175333731Y-75977000D01*
X174117000Y-75977000D01*
X174117000Y-75997000D01*
X173863000Y-75997000D01*
X173863000Y-75977000D01*
X172646269Y-75977000D01*
X172521538Y-76167609D01*
X172525409Y-76205282D01*
X172617579Y-76430533D01*
X172751922Y-76633474D01*
X172923275Y-76806307D01*
X172987348Y-76849519D01*
X172837498Y-76972498D01*
X172683167Y-77160551D01*
X172568489Y-77375099D01*
X172497870Y-77607898D01*
X172474025Y-77850000D01*
X166522000Y-77850000D01*
X166522000Y-71850000D01*
X172474025Y-71850000D01*
X172497870Y-72092102D01*
X172568489Y-72324901D01*
X172683167Y-72539449D01*
X172837498Y-72727502D01*
X172986762Y-72850000D01*
X172837498Y-72972498D01*
X172683167Y-73160551D01*
X172568489Y-73375099D01*
X172497870Y-73607898D01*
X172474025Y-73850000D01*
X172497870Y-74092102D01*
X172568489Y-74324901D01*
X172683167Y-74539449D01*
X172837498Y-74727502D01*
X172987348Y-74850481D01*
X172923275Y-74893693D01*
X172751922Y-75066526D01*
X172617579Y-75269467D01*
X172525409Y-75494718D01*
X172521538Y-75532391D01*
X172646269Y-75723000D01*
X173863000Y-75723000D01*
X173863000Y-75703000D01*
X174117000Y-75703000D01*
X174117000Y-75723000D01*
X175333731Y-75723000D01*
X175458462Y-75532391D01*
X175454591Y-75494718D01*
X175362421Y-75269467D01*
X175228078Y-75066526D01*
X175056725Y-74893693D01*
X174992652Y-74850481D01*
X175142502Y-74727502D01*
X175296833Y-74539449D01*
X175411511Y-74324901D01*
X175414364Y-74315497D01*
X178093928Y-76995062D01*
X178093928Y-78697000D01*
X178106188Y-78821482D01*
X178142498Y-78941180D01*
X178201463Y-79051494D01*
X178280815Y-79148185D01*
X178377506Y-79227537D01*
X178487820Y-79286502D01*
X178607518Y-79322812D01*
X178732000Y-79335072D01*
X179439552Y-79335072D01*
X179325919Y-79357675D01*
X179010169Y-79488463D01*
X178726002Y-79678337D01*
X178484337Y-79920002D01*
X178294463Y-80204169D01*
X178163675Y-80519919D01*
X178097000Y-80855117D01*
X178097000Y-81196883D01*
X178163675Y-81532081D01*
X178294463Y-81847831D01*
X178484337Y-82131998D01*
X178726002Y-82373663D01*
X179010169Y-82563537D01*
X179325919Y-82694325D01*
X179661117Y-82761000D01*
X180002883Y-82761000D01*
X180338081Y-82694325D01*
X180653831Y-82563537D01*
X180937998Y-82373663D01*
X181179663Y-82131998D01*
X181369537Y-81847831D01*
X181500325Y-81532081D01*
X181567000Y-81196883D01*
X181567000Y-80855117D01*
X181500325Y-80519919D01*
X181369537Y-80204169D01*
X181179663Y-79920002D01*
X180937998Y-79678337D01*
X180653831Y-79488463D01*
X180338081Y-79357675D01*
X180224448Y-79335072D01*
X180932000Y-79335072D01*
X181056482Y-79322812D01*
X181176180Y-79286502D01*
X181286494Y-79227537D01*
X181383185Y-79148185D01*
X181462537Y-79051494D01*
X181521502Y-78941180D01*
X181557812Y-78821482D01*
X181570072Y-78697000D01*
X181570072Y-76497000D01*
X181557812Y-76372518D01*
X181521502Y-76252820D01*
X181462537Y-76142506D01*
X181383185Y-76045815D01*
X181286494Y-75966463D01*
X181176180Y-75907498D01*
X181056482Y-75871188D01*
X180932000Y-75858928D01*
X180224448Y-75858928D01*
X180338081Y-75836325D01*
X180653831Y-75705537D01*
X180937998Y-75515663D01*
X181179663Y-75273998D01*
X181369537Y-74989831D01*
X181500325Y-74674081D01*
X181567000Y-74338883D01*
X181567000Y-73997117D01*
X181500325Y-73661919D01*
X181369537Y-73346169D01*
X181179663Y-73062002D01*
X180937998Y-72820337D01*
X180653831Y-72630463D01*
X180338081Y-72499675D01*
X180224448Y-72477072D01*
X180932000Y-72477072D01*
X181056482Y-72464812D01*
X181176180Y-72428502D01*
X181286494Y-72369537D01*
X181383185Y-72290185D01*
X181462537Y-72193494D01*
X181521502Y-72083180D01*
X181557812Y-71963482D01*
X181570072Y-71839000D01*
X181570072Y-70342878D01*
X188302825Y-70342878D01*
X188420875Y-70612000D01*
X189865000Y-70612000D01*
X189865000Y-69167400D01*
X189595877Y-69049821D01*
X189273946Y-69159558D01*
X188979609Y-69329992D01*
X188724178Y-69554573D01*
X188517469Y-69824671D01*
X188367425Y-70129906D01*
X188302825Y-70342878D01*
X181570072Y-70342878D01*
X181570072Y-69639000D01*
X181557812Y-69514518D01*
X181521502Y-69394820D01*
X181462537Y-69284506D01*
X181383185Y-69187815D01*
X181286494Y-69108463D01*
X181176180Y-69049498D01*
X181056482Y-69013188D01*
X180932000Y-69000928D01*
X179697513Y-69000928D01*
X179576623Y-68901716D01*
X179379447Y-68796324D01*
X179165499Y-68731423D01*
X178998752Y-68715000D01*
X178998751Y-68715000D01*
X178943000Y-68709509D01*
X178887249Y-68715000D01*
X175021214Y-68715000D01*
X174954851Y-68679528D01*
X174788255Y-68628992D01*
X174615001Y-68611928D01*
X173364999Y-68611928D01*
X173191745Y-68628992D01*
X173025149Y-68679528D01*
X172871613Y-68761595D01*
X172737038Y-68872038D01*
X172626595Y-69006613D01*
X172544528Y-69160149D01*
X172493992Y-69326745D01*
X172476928Y-69499999D01*
X172476928Y-70200001D01*
X172493992Y-70373255D01*
X172544528Y-70539851D01*
X172626595Y-70693387D01*
X172737038Y-70827962D01*
X172871613Y-70938405D01*
X172876111Y-70940809D01*
X172837498Y-70972498D01*
X172683167Y-71160551D01*
X172568489Y-71375099D01*
X172497870Y-71607898D01*
X172474025Y-71850000D01*
X166522000Y-71850000D01*
X166522000Y-48158000D01*
X181554786Y-48158000D01*
X175498564Y-54214223D01*
G37*
X175498564Y-54214223D02*
X175486008Y-54086745D01*
X175435472Y-53920149D01*
X175353405Y-53766613D01*
X175242962Y-53632038D01*
X175108387Y-53521595D01*
X174954851Y-53439528D01*
X174788255Y-53388992D01*
X174615001Y-53371928D01*
X173364999Y-53371928D01*
X173191745Y-53388992D01*
X173025149Y-53439528D01*
X172871613Y-53521595D01*
X172737038Y-53632038D01*
X172626595Y-53766613D01*
X172544528Y-53920149D01*
X172493992Y-54086745D01*
X172476928Y-54259999D01*
X172476928Y-54960001D01*
X172493992Y-55133255D01*
X172544528Y-55299851D01*
X172626595Y-55453387D01*
X172737038Y-55587962D01*
X172871613Y-55698405D01*
X172876111Y-55700809D01*
X172837498Y-55732498D01*
X172683167Y-55920551D01*
X172568489Y-56135099D01*
X172497870Y-56367898D01*
X172474025Y-56610000D01*
X172497870Y-56852102D01*
X172568489Y-57084901D01*
X172683167Y-57299449D01*
X172837498Y-57487502D01*
X172986762Y-57610000D01*
X172837498Y-57732498D01*
X172683167Y-57920551D01*
X172568489Y-58135099D01*
X172497870Y-58367898D01*
X172474025Y-58610000D01*
X172497870Y-58852102D01*
X172568489Y-59084901D01*
X172683167Y-59299449D01*
X172837498Y-59487502D01*
X172987348Y-59610481D01*
X172923275Y-59653693D01*
X172751922Y-59826526D01*
X172617579Y-60029467D01*
X172525409Y-60254718D01*
X172521538Y-60292391D01*
X172646269Y-60483000D01*
X173863000Y-60483000D01*
X173863000Y-60463000D01*
X174117000Y-60463000D01*
X174117000Y-60483000D01*
X174137000Y-60483000D01*
X174137000Y-60737000D01*
X174117000Y-60737000D01*
X174117000Y-60757000D01*
X173863000Y-60757000D01*
X173863000Y-60737000D01*
X172646269Y-60737000D01*
X172521538Y-60927609D01*
X172525409Y-60965282D01*
X172617579Y-61190533D01*
X172751922Y-61393474D01*
X172923275Y-61566307D01*
X172987348Y-61609519D01*
X172837498Y-61732498D01*
X172683167Y-61920551D01*
X172568489Y-62135099D01*
X172497870Y-62367898D01*
X172474025Y-62610000D01*
X172497870Y-62852102D01*
X172568489Y-63084901D01*
X172683167Y-63299449D01*
X172837498Y-63487502D01*
X172986762Y-63610000D01*
X172837498Y-63732498D01*
X172683167Y-63920551D01*
X172568489Y-64135099D01*
X172497870Y-64367898D01*
X172474025Y-64610000D01*
X172497870Y-64852102D01*
X172568489Y-65084901D01*
X172683167Y-65299449D01*
X172837498Y-65487502D01*
X173025551Y-65641833D01*
X173240099Y-65756511D01*
X173472898Y-65827130D01*
X173654335Y-65845000D01*
X174325665Y-65845000D01*
X174507102Y-65827130D01*
X174739901Y-65756511D01*
X174954449Y-65641833D01*
X175142502Y-65487502D01*
X175296833Y-65299449D01*
X175411511Y-65084901D01*
X175482130Y-64852102D01*
X175505975Y-64610000D01*
X175482130Y-64367898D01*
X175441347Y-64233454D01*
X178220928Y-61453874D01*
X178220928Y-62568000D01*
X178233188Y-62692482D01*
X178269498Y-62812180D01*
X178328463Y-62922494D01*
X178407815Y-63019185D01*
X178504506Y-63098537D01*
X178614820Y-63157502D01*
X178734518Y-63193812D01*
X178859000Y-63206072D01*
X179566552Y-63206072D01*
X179452919Y-63228675D01*
X179137169Y-63359463D01*
X178853002Y-63549337D01*
X178611337Y-63791002D01*
X178421463Y-64075169D01*
X178290675Y-64390919D01*
X178224000Y-64726117D01*
X178224000Y-65067883D01*
X178290675Y-65403081D01*
X178421463Y-65718831D01*
X178611337Y-66002998D01*
X178853002Y-66244663D01*
X179137169Y-66434537D01*
X179452919Y-66565325D01*
X179788117Y-66632000D01*
X180129883Y-66632000D01*
X180465081Y-66565325D01*
X180780831Y-66434537D01*
X181064998Y-66244663D01*
X181306663Y-66002998D01*
X181496537Y-65718831D01*
X181627325Y-65403081D01*
X181694000Y-65067883D01*
X181694000Y-64726117D01*
X181627325Y-64390919D01*
X181496537Y-64075169D01*
X181306663Y-63791002D01*
X181064998Y-63549337D01*
X180780831Y-63359463D01*
X180465081Y-63228675D01*
X180351448Y-63206072D01*
X181059000Y-63206072D01*
X181183482Y-63193812D01*
X181303180Y-63157502D01*
X181413494Y-63098537D01*
X181510185Y-63019185D01*
X181589537Y-62922494D01*
X181648502Y-62812180D01*
X181684812Y-62692482D01*
X181697072Y-62568000D01*
X181697072Y-60368000D01*
X181684812Y-60243518D01*
X181648502Y-60123820D01*
X181589537Y-60013506D01*
X181510185Y-59916815D01*
X181413494Y-59837463D01*
X181303180Y-59778498D01*
X181183482Y-59742188D01*
X181059000Y-59729928D01*
X180351448Y-59729928D01*
X180465081Y-59707325D01*
X180780831Y-59576537D01*
X181064998Y-59386663D01*
X181306663Y-59144998D01*
X181496537Y-58860831D01*
X181627325Y-58545081D01*
X181694000Y-58209883D01*
X181694000Y-57868117D01*
X181627325Y-57532919D01*
X181496537Y-57217169D01*
X181306663Y-56933002D01*
X181064998Y-56691337D01*
X180780831Y-56501463D01*
X180465081Y-56370675D01*
X180351448Y-56348072D01*
X181059000Y-56348072D01*
X181183482Y-56335812D01*
X181303180Y-56299502D01*
X181413494Y-56240537D01*
X181510185Y-56161185D01*
X181589537Y-56064494D01*
X181648502Y-55954180D01*
X181684812Y-55834482D01*
X181697072Y-55710000D01*
X181697072Y-54477060D01*
X182429134Y-53744999D01*
X188620221Y-53744999D01*
X188494425Y-54000906D01*
X188429825Y-54213878D01*
X188547875Y-54483000D01*
X189992000Y-54483000D01*
X189992000Y-54463000D01*
X190246000Y-54463000D01*
X190246000Y-54483000D01*
X190266000Y-54483000D01*
X190266000Y-54737000D01*
X190246000Y-54737000D01*
X190246000Y-54757000D01*
X189992000Y-54757000D01*
X189992000Y-54737000D01*
X188547875Y-54737000D01*
X188429825Y-55006122D01*
X188494425Y-55219094D01*
X188644469Y-55524329D01*
X188851178Y-55794427D01*
X189106609Y-56019008D01*
X189400946Y-56189442D01*
X189722877Y-56299179D01*
X189991998Y-56181601D01*
X189991998Y-56300928D01*
X189019000Y-56300928D01*
X188894518Y-56313188D01*
X188774820Y-56349498D01*
X188664506Y-56408463D01*
X188567815Y-56487815D01*
X188488463Y-56584506D01*
X188429498Y-56694820D01*
X188393188Y-56814518D01*
X188380928Y-56939000D01*
X188380928Y-59139000D01*
X188393188Y-59263482D01*
X188429498Y-59383180D01*
X188488463Y-59493494D01*
X188567815Y-59590185D01*
X188664506Y-59669537D01*
X188774820Y-59728502D01*
X188894518Y-59764812D01*
X189019000Y-59777072D01*
X189991998Y-59777072D01*
X189991998Y-59896399D01*
X189722877Y-59778821D01*
X189400946Y-59888558D01*
X189106609Y-60058992D01*
X188851178Y-60283573D01*
X188644469Y-60553671D01*
X188494425Y-60858906D01*
X188429825Y-61071878D01*
X188547875Y-61341000D01*
X189992000Y-61341000D01*
X189992000Y-61321000D01*
X190246000Y-61321000D01*
X190246000Y-61341000D01*
X190266000Y-61341000D01*
X190266000Y-61595000D01*
X190246000Y-61595000D01*
X190246000Y-61615000D01*
X189992000Y-61615000D01*
X189992000Y-61595000D01*
X188547875Y-61595000D01*
X188429825Y-61864122D01*
X188494425Y-62077094D01*
X188644469Y-62382329D01*
X188851178Y-62652427D01*
X189106609Y-62877008D01*
X189400946Y-63047442D01*
X189722877Y-63157179D01*
X189991998Y-63039601D01*
X189991998Y-63158928D01*
X189019000Y-63158928D01*
X188894518Y-63171188D01*
X188774820Y-63207498D01*
X188664506Y-63266463D01*
X188567815Y-63345815D01*
X188488463Y-63442506D01*
X188429498Y-63552820D01*
X188393188Y-63672518D01*
X188380928Y-63797000D01*
X188380928Y-65997000D01*
X188393188Y-66121482D01*
X188429498Y-66241180D01*
X188488463Y-66351494D01*
X188567815Y-66448185D01*
X188664506Y-66527537D01*
X188774820Y-66586502D01*
X188894518Y-66622812D01*
X189019000Y-66635072D01*
X190251941Y-66635072D01*
X190857002Y-67240134D01*
X190857002Y-69244647D01*
X190710054Y-69159558D01*
X190388123Y-69049821D01*
X190119000Y-69167400D01*
X190119000Y-70612000D01*
X190139000Y-70612000D01*
X190139000Y-70866000D01*
X190119000Y-70866000D01*
X190119000Y-70886000D01*
X189865000Y-70886000D01*
X189865000Y-70866000D01*
X188420875Y-70866000D01*
X188302825Y-71135122D01*
X188367425Y-71348094D01*
X188517469Y-71653329D01*
X188724178Y-71923427D01*
X188979609Y-72148008D01*
X189273946Y-72318442D01*
X189595877Y-72428179D01*
X189864998Y-72310601D01*
X189864998Y-72429928D01*
X188892000Y-72429928D01*
X188767518Y-72442188D01*
X188647820Y-72478498D01*
X188537506Y-72537463D01*
X188440815Y-72616815D01*
X188361463Y-72713506D01*
X188302498Y-72823820D01*
X188266188Y-72943518D01*
X188253928Y-73068000D01*
X188253928Y-75268000D01*
X188266188Y-75392482D01*
X188302498Y-75512180D01*
X188361463Y-75622494D01*
X188440815Y-75719185D01*
X188537506Y-75798537D01*
X188647820Y-75857502D01*
X188767518Y-75893812D01*
X188892000Y-75906072D01*
X189864998Y-75906072D01*
X189864998Y-76025399D01*
X189595877Y-75907821D01*
X189273946Y-76017558D01*
X188979609Y-76187992D01*
X188724178Y-76412573D01*
X188517469Y-76682671D01*
X188367425Y-76987906D01*
X188302825Y-77200878D01*
X188420875Y-77470000D01*
X189865000Y-77470000D01*
X189865000Y-77450000D01*
X190119000Y-77450000D01*
X190119000Y-77470000D01*
X191563125Y-77470000D01*
X191681175Y-77200878D01*
X191616575Y-76987906D01*
X191466531Y-76682671D01*
X191259822Y-76412573D01*
X191004391Y-76187992D01*
X190710054Y-76017558D01*
X190388123Y-75907821D01*
X190119002Y-76025399D01*
X190119002Y-75906072D01*
X191092000Y-75906072D01*
X191216482Y-75893812D01*
X191336180Y-75857502D01*
X191446494Y-75798537D01*
X191543185Y-75719185D01*
X191622537Y-75622494D01*
X191681502Y-75512180D01*
X191717812Y-75392482D01*
X191730072Y-75268000D01*
X191730072Y-74035060D01*
X192257012Y-73508121D01*
X192257012Y-73885252D01*
X192251520Y-73941013D01*
X192273434Y-74163511D01*
X192338335Y-74377459D01*
X192364333Y-74426097D01*
X192443728Y-74574636D01*
X192585563Y-74747462D01*
X192628871Y-74783004D01*
X193922007Y-76076141D01*
X193957550Y-76119450D01*
X194130376Y-76261285D01*
X194316065Y-76360537D01*
X194327552Y-76366677D01*
X194541500Y-76431578D01*
X194763998Y-76453492D01*
X194819750Y-76448001D01*
X196340250Y-76448001D01*
X196396001Y-76453492D01*
X196451752Y-76448001D01*
X196451753Y-76448001D01*
X196472070Y-76446000D01*
X198832106Y-76446000D01*
X198939500Y-76478578D01*
X199106247Y-76495001D01*
X199106248Y-76495001D01*
X199161999Y-76500492D01*
X199217751Y-76495001D01*
X200738250Y-76495001D01*
X200794001Y-76500492D01*
X200849752Y-76495001D01*
X200849753Y-76495001D01*
X201016500Y-76478578D01*
X201123894Y-76446000D01*
X202387249Y-76446000D01*
X202443000Y-76451491D01*
X202498751Y-76446000D01*
X202498752Y-76446000D01*
X202665499Y-76429577D01*
X202879447Y-76364676D01*
X203076623Y-76259284D01*
X203249449Y-76117449D01*
X203284996Y-76074135D01*
X203709135Y-75649996D01*
X203752449Y-75614449D01*
X203894284Y-75441623D01*
X203999676Y-75244447D01*
X204064577Y-75030499D01*
X204081000Y-74863752D01*
X204081000Y-74863743D01*
X204086490Y-74808001D01*
X204084610Y-74788915D01*
X204298273Y-74931680D01*
X204559426Y-75039853D01*
X204836665Y-75095000D01*
X205119335Y-75095000D01*
X205396574Y-75039853D01*
X205657727Y-74931680D01*
X205892759Y-74774637D01*
X206092637Y-74574759D01*
X206249680Y-74339727D01*
X206357853Y-74078574D01*
X206413000Y-73801335D01*
X206413000Y-73518665D01*
X206357853Y-73241426D01*
X206249680Y-72980273D01*
X206092637Y-72745241D01*
X205892759Y-72545363D01*
X205657727Y-72388320D01*
X205396574Y-72280147D01*
X205119335Y-72225000D01*
X204836665Y-72225000D01*
X204559426Y-72280147D01*
X204298273Y-72388320D01*
X204081000Y-72533497D01*
X204081000Y-70631817D01*
X204138312Y-70574505D01*
X204216000Y-70458237D01*
X204293688Y-70574505D01*
X204507495Y-70788312D01*
X204758905Y-70956299D01*
X205038257Y-71072011D01*
X205334816Y-71131000D01*
X205637184Y-71131000D01*
X205933743Y-71072011D01*
X206213095Y-70956299D01*
X206464505Y-70788312D01*
X206678312Y-70574505D01*
X206756000Y-70458237D01*
X206833688Y-70574505D01*
X207047495Y-70788312D01*
X207298905Y-70956299D01*
X207578257Y-71072011D01*
X207874816Y-71131000D01*
X208177184Y-71131000D01*
X208473743Y-71072011D01*
X208753095Y-70956299D01*
X209004505Y-70788312D01*
X209218312Y-70574505D01*
X209296000Y-70458237D01*
X209373688Y-70574505D01*
X209587495Y-70788312D01*
X209838905Y-70956299D01*
X210118257Y-71072011D01*
X210414816Y-71131000D01*
X210717184Y-71131000D01*
X210974930Y-71079731D01*
X212174001Y-72278803D01*
X212174002Y-80954138D01*
X212156743Y-80946989D01*
X211860184Y-80888000D01*
X211557816Y-80888000D01*
X211261257Y-80946989D01*
X210981905Y-81062701D01*
X210730495Y-81230688D01*
X210516688Y-81444495D01*
X210435633Y-81565802D01*
X210300649Y-81385884D01*
X210076573Y-81185038D01*
X209817620Y-81031766D01*
X209533741Y-80931959D01*
X209296000Y-81052008D01*
X209296000Y-82296000D01*
X209316000Y-82296000D01*
X209316000Y-82550000D01*
X209296000Y-82550000D01*
X209296000Y-83793992D01*
X209533741Y-83914041D01*
X209817620Y-83814234D01*
X210076573Y-83660962D01*
X210300649Y-83460116D01*
X210435633Y-83280198D01*
X210516688Y-83401505D01*
X210730495Y-83615312D01*
X210981905Y-83783299D01*
X211261257Y-83899011D01*
X211557816Y-83958000D01*
X211860184Y-83958000D01*
X212156743Y-83899011D01*
X212174002Y-83891862D01*
X212174002Y-84693196D01*
X210847930Y-86019269D01*
X210590184Y-85968000D01*
X210287816Y-85968000D01*
X209991257Y-86026989D01*
X209711905Y-86142701D01*
X209460495Y-86310688D01*
X209246688Y-86524495D01*
X209169000Y-86640763D01*
X209091312Y-86524495D01*
X208877505Y-86310688D01*
X208626095Y-86142701D01*
X208346743Y-86026989D01*
X208050184Y-85968000D01*
X207747816Y-85968000D01*
X207451257Y-86026989D01*
X207171905Y-86142701D01*
X206920495Y-86310688D01*
X206706688Y-86524495D01*
X206629000Y-86640763D01*
X206551312Y-86524495D01*
X206337505Y-86310688D01*
X206086095Y-86142701D01*
X205806743Y-86026989D01*
X205510184Y-85968000D01*
X205207816Y-85968000D01*
X204911257Y-86026989D01*
X204631905Y-86142701D01*
X204380495Y-86310688D01*
X204166688Y-86524495D01*
X204089000Y-86640763D01*
X204011312Y-86524495D01*
X203797505Y-86310688D01*
X203546095Y-86142701D01*
X203266743Y-86026989D01*
X202970184Y-85968000D01*
X202667816Y-85968000D01*
X202371257Y-86026989D01*
X202091905Y-86142701D01*
X201840495Y-86310688D01*
X201774056Y-86377127D01*
X201768502Y-86358820D01*
X201709537Y-86248506D01*
X201630185Y-86151815D01*
X201533494Y-86072463D01*
X201423180Y-86013498D01*
X201303482Y-85977188D01*
X201179000Y-85964928D01*
X200564750Y-85968000D01*
X200406000Y-86126750D01*
X200406000Y-87376000D01*
X200426000Y-87376000D01*
X200426000Y-87630000D01*
X200406000Y-87630000D01*
X200406000Y-88879250D01*
X200564750Y-89038000D01*
X201179000Y-89041072D01*
X201303482Y-89028812D01*
X201423180Y-88992502D01*
X201533494Y-88933537D01*
X201630185Y-88854185D01*
X201709537Y-88757494D01*
X201768502Y-88647180D01*
X201774056Y-88628873D01*
X201840495Y-88695312D01*
X202091905Y-88863299D01*
X202371257Y-88979011D01*
X202667816Y-89038000D01*
X202970184Y-89038000D01*
X203266743Y-88979011D01*
X203546095Y-88863299D01*
X203797505Y-88695312D01*
X204011312Y-88481505D01*
X204089000Y-88365237D01*
X204166688Y-88481505D01*
X204380495Y-88695312D01*
X204631905Y-88863299D01*
X204911257Y-88979011D01*
X205207816Y-89038000D01*
X205510184Y-89038000D01*
X205767930Y-88986731D01*
X214719199Y-97938001D01*
X214742998Y-97967000D01*
X214771996Y-97990798D01*
X214858722Y-98061973D01*
X214981731Y-98127723D01*
X214990752Y-98132545D01*
X215134013Y-98176002D01*
X215245666Y-98186999D01*
X215245676Y-98186999D01*
X215282999Y-98190675D01*
X215320321Y-98186999D01*
X215525491Y-98186999D01*
X215481000Y-98410665D01*
X215481000Y-98693335D01*
X215536147Y-98970574D01*
X215644320Y-99231727D01*
X215801363Y-99466759D01*
X216001241Y-99666637D01*
X216236273Y-99823680D01*
X216497426Y-99931853D01*
X216774665Y-99987000D01*
X217057335Y-99987000D01*
X217334574Y-99931853D01*
X217595727Y-99823680D01*
X217830759Y-99666637D01*
X218030637Y-99466759D01*
X218186000Y-99234241D01*
X218341363Y-99466759D01*
X218541241Y-99666637D01*
X218776273Y-99823680D01*
X219037426Y-99931853D01*
X219314665Y-99987000D01*
X219597335Y-99987000D01*
X219874574Y-99931853D01*
X220135727Y-99823680D01*
X220370759Y-99666637D01*
X220570637Y-99466759D01*
X220726000Y-99234241D01*
X220881363Y-99466759D01*
X221081241Y-99666637D01*
X221316273Y-99823680D01*
X221577426Y-99931853D01*
X221854665Y-99987000D01*
X222137335Y-99987000D01*
X222414574Y-99931853D01*
X222675727Y-99823680D01*
X222910759Y-99666637D01*
X223110637Y-99466759D01*
X223266000Y-99234241D01*
X223421363Y-99466759D01*
X223621241Y-99666637D01*
X223856273Y-99823680D01*
X224117426Y-99931853D01*
X224394665Y-99987000D01*
X224677335Y-99987000D01*
X224954574Y-99931853D01*
X225215727Y-99823680D01*
X225450759Y-99666637D01*
X225650637Y-99466759D01*
X225806000Y-99234241D01*
X225961363Y-99466759D01*
X226161241Y-99666637D01*
X226396273Y-99823680D01*
X226657426Y-99931853D01*
X226934665Y-99987000D01*
X227217335Y-99987000D01*
X227494574Y-99931853D01*
X227755727Y-99823680D01*
X227990759Y-99666637D01*
X228190637Y-99466759D01*
X228346000Y-99234241D01*
X228501363Y-99466759D01*
X228701241Y-99666637D01*
X228936273Y-99823680D01*
X229197426Y-99931853D01*
X229474665Y-99987000D01*
X229757335Y-99987000D01*
X230034574Y-99931853D01*
X230295727Y-99823680D01*
X230530759Y-99666637D01*
X230730637Y-99466759D01*
X230887680Y-99231727D01*
X230995853Y-98970574D01*
X231051000Y-98693335D01*
X231051000Y-98410665D01*
X230995853Y-98133426D01*
X230887680Y-97872273D01*
X230730637Y-97637241D01*
X230530759Y-97437363D01*
X230295727Y-97280320D01*
X230034574Y-97172147D01*
X229757335Y-97117000D01*
X229474665Y-97117000D01*
X229197426Y-97172147D01*
X228936273Y-97280320D01*
X228701241Y-97437363D01*
X228501363Y-97637241D01*
X228346000Y-97869759D01*
X228190637Y-97637241D01*
X227990759Y-97437363D01*
X227755727Y-97280320D01*
X227494574Y-97172147D01*
X227217335Y-97117000D01*
X226934665Y-97117000D01*
X226657426Y-97172147D01*
X226396273Y-97280320D01*
X226161241Y-97437363D01*
X225961363Y-97637241D01*
X225806000Y-97869759D01*
X225650637Y-97637241D01*
X225450759Y-97437363D01*
X225215727Y-97280320D01*
X224954574Y-97172147D01*
X224677335Y-97117000D01*
X224394665Y-97117000D01*
X224212114Y-97153312D01*
X223524793Y-96465992D01*
X223500990Y-96436988D01*
X223385265Y-96342015D01*
X223253236Y-96271443D01*
X223109975Y-96227986D01*
X222998322Y-96216989D01*
X222998311Y-96216989D01*
X222960989Y-96213313D01*
X222923667Y-96216989D01*
X217687791Y-96216989D01*
X215685802Y-94215000D01*
X228766928Y-94215000D01*
X228779188Y-94339482D01*
X228815498Y-94459180D01*
X228874463Y-94569494D01*
X228953815Y-94666185D01*
X229050506Y-94745537D01*
X229160820Y-94804502D01*
X229280518Y-94840812D01*
X229405000Y-94853072D01*
X230219250Y-94850000D01*
X230378000Y-94691250D01*
X230378000Y-93472000D01*
X230632000Y-93472000D01*
X230632000Y-94691250D01*
X230790750Y-94850000D01*
X231605000Y-94853072D01*
X231729482Y-94840812D01*
X231849180Y-94804502D01*
X231959494Y-94745537D01*
X232056185Y-94666185D01*
X232135537Y-94569494D01*
X232194502Y-94459180D01*
X232230812Y-94339482D01*
X232243072Y-94215000D01*
X232240000Y-93630750D01*
X232081250Y-93472000D01*
X230632000Y-93472000D01*
X230378000Y-93472000D01*
X228928750Y-93472000D01*
X228770000Y-93630750D01*
X228766928Y-94215000D01*
X215685802Y-94215000D01*
X212872802Y-91402000D01*
X220049928Y-91402000D01*
X220049928Y-93002000D01*
X220062188Y-93126482D01*
X220098498Y-93246180D01*
X220157463Y-93356494D01*
X220236815Y-93453185D01*
X220333506Y-93532537D01*
X220443820Y-93591502D01*
X220563518Y-93627812D01*
X220688000Y-93640072D01*
X222288000Y-93640072D01*
X222412482Y-93627812D01*
X222532180Y-93591502D01*
X222642494Y-93532537D01*
X222739185Y-93453185D01*
X222749807Y-93440242D01*
X223001996Y-93559571D01*
X223276184Y-93628300D01*
X223558512Y-93642217D01*
X223838130Y-93600787D01*
X224104292Y-93505603D01*
X224229514Y-93438671D01*
X224301097Y-93194702D01*
X223488000Y-92381605D01*
X223473858Y-92395748D01*
X223294253Y-92216143D01*
X223308395Y-92202000D01*
X223667605Y-92202000D01*
X224480702Y-93015097D01*
X224724671Y-92943514D01*
X224845571Y-92688004D01*
X224914300Y-92413816D01*
X224928217Y-92131488D01*
X224886787Y-91851870D01*
X224791603Y-91585708D01*
X224724671Y-91460486D01*
X224480702Y-91388903D01*
X223667605Y-92202000D01*
X223308395Y-92202000D01*
X223294253Y-92187858D01*
X223473858Y-92008253D01*
X223488000Y-92022395D01*
X224301097Y-91209298D01*
X224229514Y-90965329D01*
X223974004Y-90844429D01*
X223699816Y-90775700D01*
X223417488Y-90761783D01*
X223137870Y-90803213D01*
X222871708Y-90898397D01*
X222749691Y-90963616D01*
X222739185Y-90950815D01*
X222642494Y-90871463D01*
X222532180Y-90812498D01*
X222412482Y-90776188D01*
X222288000Y-90763928D01*
X220688000Y-90763928D01*
X220563518Y-90776188D01*
X220443820Y-90812498D01*
X220333506Y-90871463D01*
X220236815Y-90950815D01*
X220157463Y-91047506D01*
X220098498Y-91157820D01*
X220062188Y-91277518D01*
X220049928Y-91402000D01*
X212872802Y-91402000D01*
X210508801Y-89038000D01*
X210590184Y-89038000D01*
X210886743Y-88979011D01*
X211166095Y-88863299D01*
X211417505Y-88695312D01*
X211631312Y-88481505D01*
X211712367Y-88360198D01*
X211847351Y-88540116D01*
X212071427Y-88740962D01*
X212330380Y-88894234D01*
X212614259Y-88994041D01*
X212852000Y-88873992D01*
X212852000Y-87630000D01*
X212832000Y-87630000D01*
X212832000Y-87376000D01*
X212852000Y-87376000D01*
X212852000Y-87356000D01*
X213106000Y-87356000D01*
X213106000Y-87376000D01*
X213126000Y-87376000D01*
X213126000Y-87630000D01*
X213106000Y-87630000D01*
X213106000Y-88873992D01*
X213343741Y-88994041D01*
X213627620Y-88894234D01*
X213886573Y-88740962D01*
X214110649Y-88540116D01*
X214245633Y-88360198D01*
X214326688Y-88481505D01*
X214540495Y-88695312D01*
X214791905Y-88863299D01*
X215071257Y-88979011D01*
X215367816Y-89038000D01*
X215670184Y-89038000D01*
X215966743Y-88979011D01*
X216246095Y-88863299D01*
X216497505Y-88695312D01*
X216711312Y-88481505D01*
X216789000Y-88365237D01*
X216866688Y-88481505D01*
X217080495Y-88695312D01*
X217331905Y-88863299D01*
X217611257Y-88979011D01*
X217907816Y-89038000D01*
X218210184Y-89038000D01*
X218506743Y-88979011D01*
X218786095Y-88863299D01*
X219037505Y-88695312D01*
X219251312Y-88481505D01*
X219419299Y-88230095D01*
X219535011Y-87950743D01*
X219594000Y-87654184D01*
X219594000Y-87351816D01*
X219535011Y-87055257D01*
X219419299Y-86775905D01*
X219251312Y-86524495D01*
X219037505Y-86310688D01*
X218786095Y-86142701D01*
X218506743Y-86026989D01*
X218210184Y-85968000D01*
X217907816Y-85968000D01*
X217611257Y-86026989D01*
X217331905Y-86142701D01*
X217080495Y-86310688D01*
X216866688Y-86524495D01*
X216789000Y-86640763D01*
X216711312Y-86524495D01*
X216497505Y-86310688D01*
X216246095Y-86142701D01*
X215966743Y-86026989D01*
X215670184Y-85968000D01*
X215367816Y-85968000D01*
X215071257Y-86026989D01*
X214791905Y-86142701D01*
X214540495Y-86310688D01*
X214326688Y-86524495D01*
X214245633Y-86645802D01*
X214110649Y-86465884D01*
X213886573Y-86265038D01*
X213627620Y-86111766D01*
X213343741Y-86011959D01*
X213106002Y-86132007D01*
X213106002Y-85968000D01*
X213048802Y-85968000D01*
X213291802Y-85725000D01*
X228762718Y-85725000D01*
X228791776Y-86020032D01*
X228877834Y-86303725D01*
X229017583Y-86565179D01*
X229205655Y-86794345D01*
X229434821Y-86982417D01*
X229458362Y-86995000D01*
X229434821Y-87007583D01*
X229205655Y-87195655D01*
X229017583Y-87424821D01*
X228877834Y-87686275D01*
X228791776Y-87969968D01*
X228762718Y-88265000D01*
X228791776Y-88560032D01*
X228877834Y-88843725D01*
X229017583Y-89105179D01*
X229205655Y-89334345D01*
X229434821Y-89522417D01*
X229458362Y-89535000D01*
X229434821Y-89547583D01*
X229205655Y-89735655D01*
X229017583Y-89964821D01*
X228877834Y-90226275D01*
X228791776Y-90509968D01*
X228762718Y-90805000D01*
X228791776Y-91100032D01*
X228877834Y-91383725D01*
X229017583Y-91645179D01*
X229204047Y-91872385D01*
X229160820Y-91885498D01*
X229050506Y-91944463D01*
X228953815Y-92023815D01*
X228874463Y-92120506D01*
X228815498Y-92230820D01*
X228779188Y-92350518D01*
X228766928Y-92475000D01*
X228770000Y-93059250D01*
X228928750Y-93218000D01*
X230378000Y-93218000D01*
X230378000Y-93198000D01*
X230632000Y-93198000D01*
X230632000Y-93218000D01*
X232081250Y-93218000D01*
X232240000Y-93059250D01*
X232243072Y-92475000D01*
X232230812Y-92350518D01*
X232194502Y-92230820D01*
X232135537Y-92120506D01*
X232056185Y-92023815D01*
X231959494Y-91944463D01*
X231849180Y-91885498D01*
X231805953Y-91872385D01*
X231992417Y-91645179D01*
X232132166Y-91383725D01*
X232218224Y-91100032D01*
X232247282Y-90805000D01*
X232218224Y-90509968D01*
X232132166Y-90226275D01*
X231992417Y-89964821D01*
X231804345Y-89735655D01*
X231575179Y-89547583D01*
X231551638Y-89535000D01*
X231575179Y-89522417D01*
X231804345Y-89334345D01*
X231992417Y-89105179D01*
X232132166Y-88843725D01*
X232218224Y-88560032D01*
X232247282Y-88265000D01*
X232218224Y-87969968D01*
X232132166Y-87686275D01*
X231992417Y-87424821D01*
X231804345Y-87195655D01*
X231575179Y-87007583D01*
X231551638Y-86995000D01*
X231575179Y-86982417D01*
X231804345Y-86794345D01*
X231992417Y-86565179D01*
X232132166Y-86303725D01*
X232218224Y-86020032D01*
X232247282Y-85725000D01*
X232218224Y-85429968D01*
X232132166Y-85146275D01*
X231992417Y-84884821D01*
X231804345Y-84655655D01*
X231575179Y-84467583D01*
X231313725Y-84327834D01*
X231030032Y-84241776D01*
X230808936Y-84220000D01*
X230201064Y-84220000D01*
X229979968Y-84241776D01*
X229696275Y-84327834D01*
X229434821Y-84467583D01*
X229205655Y-84655655D01*
X229017583Y-84884821D01*
X228877834Y-85146275D01*
X228791776Y-85429968D01*
X228762718Y-85725000D01*
X213291802Y-85725000D01*
X213445004Y-85571798D01*
X213474002Y-85548000D01*
X213568975Y-85432275D01*
X213639547Y-85300246D01*
X213683004Y-85156985D01*
X213694001Y-85045332D01*
X213694001Y-85045323D01*
X213697677Y-85008000D01*
X213694001Y-84970677D01*
X213694001Y-83854584D01*
X213801257Y-83899011D01*
X214097816Y-83958000D01*
X214400184Y-83958000D01*
X214696743Y-83899011D01*
X214976095Y-83783299D01*
X215227505Y-83615312D01*
X215441312Y-83401505D01*
X215519000Y-83285237D01*
X215596688Y-83401505D01*
X215810495Y-83615312D01*
X216061905Y-83783299D01*
X216341257Y-83899011D01*
X216637816Y-83958000D01*
X216940184Y-83958000D01*
X217236743Y-83899011D01*
X217516095Y-83783299D01*
X217767505Y-83615312D01*
X217981312Y-83401505D01*
X218149299Y-83150095D01*
X218265011Y-82870743D01*
X218324000Y-82574184D01*
X218324000Y-82271816D01*
X218265011Y-81975257D01*
X218149299Y-81695905D01*
X217981312Y-81444495D01*
X217767505Y-81230688D01*
X217516095Y-81062701D01*
X217350334Y-80994040D01*
X221239091Y-80994040D01*
X221333930Y-81258881D01*
X221478615Y-81500131D01*
X221667586Y-81708519D01*
X221893580Y-81876037D01*
X222147913Y-81996246D01*
X222281961Y-82036904D01*
X222504000Y-81914915D01*
X222504000Y-80772000D01*
X222758000Y-80772000D01*
X222758000Y-81914915D01*
X222980039Y-82036904D01*
X223114087Y-81996246D01*
X223368420Y-81876037D01*
X223594414Y-81708519D01*
X223783385Y-81500131D01*
X223928070Y-81258881D01*
X224022909Y-80994040D01*
X223901624Y-80772000D01*
X222758000Y-80772000D01*
X222504000Y-80772000D01*
X221360376Y-80772000D01*
X221239091Y-80994040D01*
X217350334Y-80994040D01*
X217236743Y-80946989D01*
X216940184Y-80888000D01*
X216637816Y-80888000D01*
X216341257Y-80946989D01*
X216061905Y-81062701D01*
X215810495Y-81230688D01*
X215596688Y-81444495D01*
X215519000Y-81560763D01*
X215441312Y-81444495D01*
X215227505Y-81230688D01*
X214976095Y-81062701D01*
X214696743Y-80946989D01*
X214400184Y-80888000D01*
X214097816Y-80888000D01*
X213801257Y-80946989D01*
X213694001Y-80991416D01*
X213694001Y-77963665D01*
X221196000Y-77963665D01*
X221196000Y-78246335D01*
X221251147Y-78523574D01*
X221359320Y-78784727D01*
X221516363Y-79019759D01*
X221716241Y-79219637D01*
X221951273Y-79376680D01*
X221962565Y-79381357D01*
X221893580Y-79413963D01*
X221667586Y-79581481D01*
X221478615Y-79789869D01*
X221333930Y-80031119D01*
X221239091Y-80295960D01*
X221360376Y-80518000D01*
X222504000Y-80518000D01*
X222504000Y-80498000D01*
X222758000Y-80498000D01*
X222758000Y-80518000D01*
X223901624Y-80518000D01*
X224022909Y-80295960D01*
X223928070Y-80031119D01*
X223783385Y-79789869D01*
X223594414Y-79581481D01*
X223368420Y-79413963D01*
X223299435Y-79381357D01*
X223310727Y-79376680D01*
X223545759Y-79219637D01*
X223745637Y-79019759D01*
X223782893Y-78964000D01*
X227550928Y-78964000D01*
X227550928Y-81564000D01*
X227563188Y-81688482D01*
X227599498Y-81808180D01*
X227658463Y-81918494D01*
X227737815Y-82015185D01*
X227834506Y-82094537D01*
X227944820Y-82153502D01*
X228064518Y-82189812D01*
X228189000Y-82202072D01*
X230789000Y-82202072D01*
X230913482Y-82189812D01*
X231033180Y-82153502D01*
X231143494Y-82094537D01*
X231240185Y-82015185D01*
X231319537Y-81918494D01*
X231378502Y-81808180D01*
X231414812Y-81688482D01*
X231427072Y-81564000D01*
X231427072Y-78964000D01*
X231414812Y-78839518D01*
X231378502Y-78719820D01*
X231319537Y-78609506D01*
X231240185Y-78512815D01*
X231143494Y-78433463D01*
X231033180Y-78374498D01*
X230913482Y-78338188D01*
X230789000Y-78325928D01*
X228189000Y-78325928D01*
X228064518Y-78338188D01*
X227944820Y-78374498D01*
X227834506Y-78433463D01*
X227737815Y-78512815D01*
X227658463Y-78609506D01*
X227599498Y-78719820D01*
X227563188Y-78839518D01*
X227550928Y-78964000D01*
X223782893Y-78964000D01*
X223902680Y-78784727D01*
X224010853Y-78523574D01*
X224066000Y-78246335D01*
X224066000Y-77963665D01*
X224010853Y-77686426D01*
X223902680Y-77425273D01*
X223745637Y-77190241D01*
X223545759Y-76990363D01*
X223310727Y-76833320D01*
X223049574Y-76725147D01*
X222772335Y-76670000D01*
X222489665Y-76670000D01*
X222212426Y-76725147D01*
X221951273Y-76833320D01*
X221716241Y-76990363D01*
X221516363Y-77190241D01*
X221359320Y-77425273D01*
X221251147Y-77686426D01*
X221196000Y-77963665D01*
X213694001Y-77963665D01*
X213694001Y-72001323D01*
X213697677Y-71964000D01*
X213694001Y-71926677D01*
X213694001Y-71926668D01*
X213683004Y-71815015D01*
X213639547Y-71671754D01*
X213634817Y-71662905D01*
X213568975Y-71539724D01*
X213497800Y-71452998D01*
X213474002Y-71424000D01*
X213445005Y-71400203D01*
X213175802Y-71131000D01*
X213257184Y-71131000D01*
X213553743Y-71072011D01*
X213833095Y-70956299D01*
X214084505Y-70788312D01*
X214298312Y-70574505D01*
X214376000Y-70458237D01*
X214453688Y-70574505D01*
X214667495Y-70788312D01*
X214918905Y-70956299D01*
X215198257Y-71072011D01*
X215494816Y-71131000D01*
X215797184Y-71131000D01*
X216093743Y-71072011D01*
X216373095Y-70956299D01*
X216624505Y-70788312D01*
X216838312Y-70574505D01*
X216919367Y-70453198D01*
X217054351Y-70633116D01*
X217278427Y-70833962D01*
X217537380Y-70987234D01*
X217821259Y-71087041D01*
X218059000Y-70966992D01*
X218059000Y-69723000D01*
X218313000Y-69723000D01*
X218313000Y-70966992D01*
X218550741Y-71087041D01*
X218834620Y-70987234D01*
X219093573Y-70833962D01*
X219317649Y-70633116D01*
X219498236Y-70392414D01*
X219628394Y-70121107D01*
X219677036Y-69960740D01*
X219556378Y-69723000D01*
X218313000Y-69723000D01*
X218059000Y-69723000D01*
X218039000Y-69723000D01*
X218039000Y-69469000D01*
X218059000Y-69469000D01*
X218059000Y-68225008D01*
X218313000Y-68225008D01*
X218313000Y-69469000D01*
X219556378Y-69469000D01*
X219677036Y-69231260D01*
X219628394Y-69070893D01*
X219498236Y-68799586D01*
X219317649Y-68558884D01*
X219093573Y-68358038D01*
X218834620Y-68204766D01*
X218550741Y-68104959D01*
X218313000Y-68225008D01*
X218059000Y-68225008D01*
X217821259Y-68104959D01*
X217537380Y-68204766D01*
X217278427Y-68358038D01*
X217054351Y-68558884D01*
X216919367Y-68738802D01*
X216838312Y-68617495D01*
X216624505Y-68403688D01*
X216373095Y-68235701D01*
X216093743Y-68119989D01*
X215797184Y-68061000D01*
X215494816Y-68061000D01*
X215198257Y-68119989D01*
X214918905Y-68235701D01*
X214667495Y-68403688D01*
X214453688Y-68617495D01*
X214376000Y-68733763D01*
X214298312Y-68617495D01*
X214084505Y-68403688D01*
X213833095Y-68235701D01*
X213553743Y-68119989D01*
X213257184Y-68061000D01*
X212954816Y-68061000D01*
X212658257Y-68119989D01*
X212378905Y-68235701D01*
X212127495Y-68403688D01*
X211913688Y-68617495D01*
X211836000Y-68733763D01*
X211758312Y-68617495D01*
X211544505Y-68403688D01*
X211293095Y-68235701D01*
X211013743Y-68119989D01*
X210717184Y-68061000D01*
X210414816Y-68061000D01*
X210118257Y-68119989D01*
X209838905Y-68235701D01*
X209587495Y-68403688D01*
X209373688Y-68617495D01*
X209296000Y-68733763D01*
X209218312Y-68617495D01*
X209004505Y-68403688D01*
X208753095Y-68235701D01*
X208473743Y-68119989D01*
X208177184Y-68061000D01*
X207874816Y-68061000D01*
X207578257Y-68119989D01*
X207298905Y-68235701D01*
X207047495Y-68403688D01*
X206833688Y-68617495D01*
X206756000Y-68733763D01*
X206678312Y-68617495D01*
X206464505Y-68403688D01*
X206213095Y-68235701D01*
X205933743Y-68119989D01*
X205637184Y-68061000D01*
X205334816Y-68061000D01*
X205077070Y-68112269D01*
X204624803Y-67660002D01*
X204601000Y-67630998D01*
X204485275Y-67536025D01*
X204353246Y-67465453D01*
X204209985Y-67421996D01*
X204098332Y-67410999D01*
X204098321Y-67410999D01*
X204060999Y-67407323D01*
X204023677Y-67410999D01*
X200692801Y-67410999D01*
X199007000Y-65725199D01*
X199007000Y-60362322D01*
X199010676Y-60324999D01*
X199007000Y-60287676D01*
X199007000Y-60287667D01*
X198996003Y-60176014D01*
X198952546Y-60032753D01*
X198881974Y-59900724D01*
X198787001Y-59784999D01*
X198758003Y-59761201D01*
X195578000Y-56581199D01*
X195578000Y-56356039D01*
X195712096Y-56356039D01*
X195752754Y-56490087D01*
X195872963Y-56744420D01*
X196040481Y-56970414D01*
X196248869Y-57159385D01*
X196490119Y-57304070D01*
X196754960Y-57398909D01*
X196977000Y-57277624D01*
X196977000Y-56134000D01*
X195834085Y-56134000D01*
X195712096Y-56356039D01*
X195578000Y-56356039D01*
X195578000Y-55657961D01*
X195712096Y-55657961D01*
X195834085Y-55880000D01*
X196977000Y-55880000D01*
X196977000Y-54736376D01*
X197231000Y-54736376D01*
X197231000Y-55880000D01*
X197251000Y-55880000D01*
X197251000Y-56134000D01*
X197231000Y-56134000D01*
X197231000Y-57277624D01*
X197453040Y-57398909D01*
X197717881Y-57304070D01*
X197959131Y-57159385D01*
X198167519Y-56970414D01*
X198335037Y-56744420D01*
X198367643Y-56675435D01*
X198372320Y-56686727D01*
X198529363Y-56921759D01*
X198729241Y-57121637D01*
X198964273Y-57278680D01*
X199225426Y-57386853D01*
X199502665Y-57442000D01*
X199785335Y-57442000D01*
X200062574Y-57386853D01*
X200323727Y-57278680D01*
X200558759Y-57121637D01*
X200758637Y-56921759D01*
X200915680Y-56686727D01*
X201023853Y-56425574D01*
X201079000Y-56148335D01*
X201079000Y-55865665D01*
X201023853Y-55588426D01*
X200915680Y-55327273D01*
X200758637Y-55092241D01*
X200558759Y-54892363D01*
X200323727Y-54735320D01*
X200062574Y-54627147D01*
X199785335Y-54572000D01*
X199502665Y-54572000D01*
X199225426Y-54627147D01*
X198964273Y-54735320D01*
X198729241Y-54892363D01*
X198529363Y-55092241D01*
X198372320Y-55327273D01*
X198367643Y-55338565D01*
X198335037Y-55269580D01*
X198167519Y-55043586D01*
X197959131Y-54854615D01*
X197717881Y-54709930D01*
X197453040Y-54615091D01*
X197231000Y-54736376D01*
X196977000Y-54736376D01*
X196754960Y-54615091D01*
X196490119Y-54709930D01*
X196248869Y-54854615D01*
X196040481Y-55043586D01*
X195872963Y-55269580D01*
X195752754Y-55523913D01*
X195712096Y-55657961D01*
X195578000Y-55657961D01*
X195578000Y-53916711D01*
X195621937Y-53872774D01*
X195735205Y-53703256D01*
X195813226Y-53514898D01*
X195853000Y-53314939D01*
X195853000Y-53111061D01*
X195813226Y-52911102D01*
X195735205Y-52722744D01*
X195621937Y-52553226D01*
X195477774Y-52409063D01*
X195308256Y-52295795D01*
X195119898Y-52217774D01*
X194919939Y-52178000D01*
X194716061Y-52178000D01*
X194516102Y-52217774D01*
X194327744Y-52295795D01*
X194158226Y-52409063D01*
X194014063Y-52553226D01*
X193900795Y-52722744D01*
X193822774Y-52911102D01*
X193783000Y-53111061D01*
X193783000Y-53314939D01*
X193822774Y-53514898D01*
X193900795Y-53703256D01*
X194014063Y-53872774D01*
X194058001Y-53916712D01*
X194058000Y-56294665D01*
X194058000Y-56858678D01*
X194054324Y-56896000D01*
X194058000Y-56933322D01*
X194058000Y-56933332D01*
X194068997Y-57044985D01*
X194101362Y-57151680D01*
X194112454Y-57188246D01*
X194183026Y-57320276D01*
X194221617Y-57367299D01*
X194277999Y-57436001D01*
X194307003Y-57459804D01*
X197487001Y-60639803D01*
X197487000Y-66002677D01*
X197483324Y-66040000D01*
X197487000Y-66077322D01*
X197487000Y-66077332D01*
X197497997Y-66188985D01*
X197537437Y-66319004D01*
X197541454Y-66332246D01*
X197612026Y-66464276D01*
X197651871Y-66512826D01*
X197706999Y-66580001D01*
X197736003Y-66603804D01*
X199246751Y-68114553D01*
X199151506Y-68165463D01*
X199054815Y-68244815D01*
X198975463Y-68341506D01*
X198916498Y-68451820D01*
X198880188Y-68571518D01*
X198867928Y-68696000D01*
X198871000Y-69310250D01*
X199029750Y-69469000D01*
X200279000Y-69469000D01*
X200279000Y-69449000D01*
X200533000Y-69449000D01*
X200533000Y-69469000D01*
X200553000Y-69469000D01*
X200553000Y-69723000D01*
X200533000Y-69723000D01*
X200533000Y-70972250D01*
X200691750Y-71131000D01*
X201306000Y-71134072D01*
X201430482Y-71121812D01*
X201550180Y-71085502D01*
X201660494Y-71026537D01*
X201757185Y-70947185D01*
X201811001Y-70881610D01*
X201811000Y-74176000D01*
X201321378Y-74176000D01*
X201335571Y-74146004D01*
X201404300Y-73871816D01*
X201418217Y-73589488D01*
X201376787Y-73309870D01*
X201281603Y-73043708D01*
X201214671Y-72918486D01*
X200970702Y-72846903D01*
X200157605Y-73660000D01*
X200171748Y-73674143D01*
X199992143Y-73853748D01*
X199978000Y-73839605D01*
X199963858Y-73853748D01*
X199784253Y-73674143D01*
X199798395Y-73660000D01*
X198985298Y-72846903D01*
X198741329Y-72918486D01*
X198620429Y-73173996D01*
X198551700Y-73448184D01*
X198537783Y-73730512D01*
X198579213Y-74010130D01*
X198638531Y-74176000D01*
X196901139Y-74176000D01*
X196937571Y-74099004D01*
X197006300Y-73824816D01*
X197020217Y-73542488D01*
X196978787Y-73262870D01*
X196883603Y-72996708D01*
X196816671Y-72871486D01*
X196572702Y-72799903D01*
X195759605Y-73613000D01*
X195773748Y-73627143D01*
X195594143Y-73806748D01*
X195580000Y-73792605D01*
X195565858Y-73806748D01*
X195386253Y-73627143D01*
X195400395Y-73613000D01*
X194587298Y-72799903D01*
X194527011Y-72817592D01*
X194527011Y-72620298D01*
X194766903Y-72620298D01*
X195580000Y-73433395D01*
X196346097Y-72667298D01*
X199164903Y-72667298D01*
X199978000Y-73480395D01*
X200791097Y-72667298D01*
X200719514Y-72423329D01*
X200464004Y-72302429D01*
X200189816Y-72233700D01*
X199907488Y-72219783D01*
X199627870Y-72261213D01*
X199361708Y-72356397D01*
X199236486Y-72423329D01*
X199164903Y-72667298D01*
X196346097Y-72667298D01*
X196393097Y-72620298D01*
X196321514Y-72376329D01*
X196066004Y-72255429D01*
X195791816Y-72186700D01*
X195509488Y-72172783D01*
X195229870Y-72214213D01*
X194963708Y-72309397D01*
X194838486Y-72376329D01*
X194766903Y-72620298D01*
X194527011Y-72620298D01*
X194527011Y-70496000D01*
X198867928Y-70496000D01*
X198880188Y-70620482D01*
X198916498Y-70740180D01*
X198975463Y-70850494D01*
X199054815Y-70947185D01*
X199151506Y-71026537D01*
X199261820Y-71085502D01*
X199381518Y-71121812D01*
X199506000Y-71134072D01*
X200120250Y-71131000D01*
X200279000Y-70972250D01*
X200279000Y-69723000D01*
X199029750Y-69723000D01*
X198871000Y-69881750D01*
X198867928Y-70496000D01*
X194527011Y-70496000D01*
X194527011Y-66825702D01*
X194766903Y-66825702D01*
X194838486Y-67069671D01*
X195093996Y-67190571D01*
X195368184Y-67259300D01*
X195650512Y-67273217D01*
X195930130Y-67231787D01*
X196196292Y-67136603D01*
X196321514Y-67069671D01*
X196393097Y-66825702D01*
X195580000Y-66012605D01*
X194766903Y-66825702D01*
X194527011Y-66825702D01*
X194527011Y-66628408D01*
X194587298Y-66646097D01*
X195400395Y-65833000D01*
X195759605Y-65833000D01*
X196572702Y-66646097D01*
X196816671Y-66574514D01*
X196937571Y-66319004D01*
X197006300Y-66044816D01*
X197020217Y-65762488D01*
X196978787Y-65482870D01*
X196883603Y-65216708D01*
X196816671Y-65091486D01*
X196572702Y-65019903D01*
X195759605Y-65833000D01*
X195400395Y-65833000D01*
X194587298Y-65019903D01*
X194343329Y-65091486D01*
X194222429Y-65346996D01*
X194209783Y-65397446D01*
X194198460Y-65383649D01*
X194155157Y-65348111D01*
X193647344Y-64840298D01*
X194766903Y-64840298D01*
X195580000Y-65653395D01*
X196393097Y-64840298D01*
X196321514Y-64596329D01*
X196066004Y-64475429D01*
X195791816Y-64406700D01*
X195509488Y-64392783D01*
X195229870Y-64434213D01*
X194963708Y-64529397D01*
X194838486Y-64596329D01*
X194766903Y-64840298D01*
X193647344Y-64840298D01*
X193254001Y-64446956D01*
X193254001Y-60691665D01*
X194145000Y-60691665D01*
X194145000Y-60974335D01*
X194200147Y-61251574D01*
X194308320Y-61512727D01*
X194465363Y-61747759D01*
X194665241Y-61947637D01*
X194900273Y-62104680D01*
X195161426Y-62212853D01*
X195438665Y-62268000D01*
X195721335Y-62268000D01*
X195998574Y-62212853D01*
X196259727Y-62104680D01*
X196494759Y-61947637D01*
X196694637Y-61747759D01*
X196851680Y-61512727D01*
X196959853Y-61251574D01*
X197015000Y-60974335D01*
X197015000Y-60691665D01*
X196959853Y-60414426D01*
X196851680Y-60153273D01*
X196694637Y-59918241D01*
X196494759Y-59718363D01*
X196259727Y-59561320D01*
X195998574Y-59453147D01*
X195721335Y-59398000D01*
X195438665Y-59398000D01*
X195161426Y-59453147D01*
X194900273Y-59561320D01*
X194665241Y-59718363D01*
X194465363Y-59918241D01*
X194308320Y-60153273D01*
X194200147Y-60414426D01*
X194145000Y-60691665D01*
X193254001Y-60691665D01*
X193254001Y-53705750D01*
X193259492Y-53649998D01*
X193237578Y-53427499D01*
X193172677Y-53213552D01*
X193126768Y-53127662D01*
X193067285Y-53016376D01*
X192925450Y-52843550D01*
X192882141Y-52808007D01*
X191920997Y-51846863D01*
X191885450Y-51803550D01*
X191712624Y-51661715D01*
X191515448Y-51556323D01*
X191301500Y-51491422D01*
X191134753Y-51474999D01*
X191134752Y-51474999D01*
X191079001Y-51469508D01*
X191023250Y-51474999D01*
X190808448Y-51474999D01*
X190910759Y-51406637D01*
X191110637Y-51206759D01*
X191267680Y-50971727D01*
X191272067Y-50961135D01*
X191383615Y-51147131D01*
X191572586Y-51355519D01*
X191798580Y-51523037D01*
X192052913Y-51643246D01*
X192186961Y-51683904D01*
X192409000Y-51561915D01*
X192409000Y-50419000D01*
X192389000Y-50419000D01*
X192389000Y-50165000D01*
X192409000Y-50165000D01*
X192409000Y-50145000D01*
X192663000Y-50145000D01*
X192663000Y-50165000D01*
X192683000Y-50165000D01*
X192683000Y-50419000D01*
X192663000Y-50419000D01*
X192663000Y-51561915D01*
X192885039Y-51683904D01*
X193019087Y-51643246D01*
X193273420Y-51523037D01*
X193499414Y-51355519D01*
X193688385Y-51147131D01*
X193799933Y-50961135D01*
X193804320Y-50971727D01*
X193961363Y-51206759D01*
X194161241Y-51406637D01*
X194396273Y-51563680D01*
X194657426Y-51671853D01*
X194934665Y-51727000D01*
X195217335Y-51727000D01*
X195494574Y-51671853D01*
X195755727Y-51563680D01*
X195990759Y-51406637D01*
X196190637Y-51206759D01*
X196346000Y-50974241D01*
X196501363Y-51206759D01*
X196701241Y-51406637D01*
X196936273Y-51563680D01*
X197197426Y-51671853D01*
X197474665Y-51727000D01*
X197757335Y-51727000D01*
X198034574Y-51671853D01*
X198295727Y-51563680D01*
X198530759Y-51406637D01*
X198730637Y-51206759D01*
X198886000Y-50974241D01*
X199041363Y-51206759D01*
X199241241Y-51406637D01*
X199476273Y-51563680D01*
X199737426Y-51671853D01*
X200014665Y-51727000D01*
X200297335Y-51727000D01*
X200574574Y-51671853D01*
X200835727Y-51563680D01*
X201070759Y-51406637D01*
X201270637Y-51206759D01*
X201426000Y-50974241D01*
X201581363Y-51206759D01*
X201781241Y-51406637D01*
X202016273Y-51563680D01*
X202277426Y-51671853D01*
X202554665Y-51727000D01*
X202837335Y-51727000D01*
X203019887Y-51690688D01*
X205897978Y-54568780D01*
X205806743Y-54530989D01*
X205510184Y-54472000D01*
X205207816Y-54472000D01*
X204911257Y-54530989D01*
X204631905Y-54646701D01*
X204380495Y-54814688D01*
X204314056Y-54881127D01*
X204308502Y-54862820D01*
X204249537Y-54752506D01*
X204170185Y-54655815D01*
X204073494Y-54576463D01*
X203963180Y-54517498D01*
X203843482Y-54481188D01*
X203719000Y-54468928D01*
X201919000Y-54468928D01*
X201794518Y-54481188D01*
X201674820Y-54517498D01*
X201564506Y-54576463D01*
X201467815Y-54655815D01*
X201388463Y-54752506D01*
X201329498Y-54862820D01*
X201293188Y-54982518D01*
X201280928Y-55107000D01*
X201280928Y-56907000D01*
X201293188Y-57031482D01*
X201329498Y-57151180D01*
X201388463Y-57261494D01*
X201467815Y-57358185D01*
X201564506Y-57437537D01*
X201674820Y-57496502D01*
X201794518Y-57532812D01*
X201919000Y-57545072D01*
X203719000Y-57545072D01*
X203843482Y-57532812D01*
X203963180Y-57496502D01*
X204073494Y-57437537D01*
X204170185Y-57358185D01*
X204249537Y-57261494D01*
X204308502Y-57151180D01*
X204314056Y-57132873D01*
X204380495Y-57199312D01*
X204631905Y-57367299D01*
X204911257Y-57483011D01*
X205207816Y-57542000D01*
X205510184Y-57542000D01*
X205806743Y-57483011D01*
X206086095Y-57367299D01*
X206337505Y-57199312D01*
X206504001Y-57032816D01*
X206504000Y-63001053D01*
X206308257Y-63039989D01*
X206028905Y-63155701D01*
X205777495Y-63323688D01*
X205563688Y-63537495D01*
X205486000Y-63653763D01*
X205408312Y-63537495D01*
X205194505Y-63323688D01*
X204943095Y-63155701D01*
X204663743Y-63039989D01*
X204367184Y-62981000D01*
X204064816Y-62981000D01*
X203768257Y-63039989D01*
X203488905Y-63155701D01*
X203237495Y-63323688D01*
X203023688Y-63537495D01*
X202946000Y-63653763D01*
X202868312Y-63537495D01*
X202654505Y-63323688D01*
X202403095Y-63155701D01*
X202123743Y-63039989D01*
X201827184Y-62981000D01*
X201524816Y-62981000D01*
X201228257Y-63039989D01*
X200948905Y-63155701D01*
X200697495Y-63323688D01*
X200483688Y-63537495D01*
X200315701Y-63788905D01*
X200199989Y-64068257D01*
X200141000Y-64364816D01*
X200141000Y-64667184D01*
X200199989Y-64963743D01*
X200315701Y-65243095D01*
X200483688Y-65494505D01*
X200697495Y-65708312D01*
X200948905Y-65876299D01*
X201228257Y-65992011D01*
X201524816Y-66051000D01*
X201827184Y-66051000D01*
X202123743Y-65992011D01*
X202403095Y-65876299D01*
X202654505Y-65708312D01*
X202868312Y-65494505D01*
X202946000Y-65378237D01*
X203023688Y-65494505D01*
X203237495Y-65708312D01*
X203488905Y-65876299D01*
X203768257Y-65992011D01*
X204064816Y-66051000D01*
X204367184Y-66051000D01*
X204663743Y-65992011D01*
X204943095Y-65876299D01*
X205194505Y-65708312D01*
X205408312Y-65494505D01*
X205486000Y-65378237D01*
X205563688Y-65494505D01*
X205777495Y-65708312D01*
X206028905Y-65876299D01*
X206308257Y-65992011D01*
X206604816Y-66051000D01*
X206907184Y-66051000D01*
X207203743Y-65992011D01*
X207483095Y-65876299D01*
X207734505Y-65708312D01*
X207948312Y-65494505D01*
X208029367Y-65373198D01*
X208164351Y-65553116D01*
X208388427Y-65753962D01*
X208647380Y-65907234D01*
X208931259Y-66007041D01*
X209169000Y-65886992D01*
X209169000Y-64643000D01*
X209149000Y-64643000D01*
X209149000Y-64389000D01*
X209169000Y-64389000D01*
X209169000Y-63145008D01*
X208931259Y-63024959D01*
X208647380Y-63124766D01*
X208388427Y-63278038D01*
X208164351Y-63478884D01*
X208029367Y-63658802D01*
X208024000Y-63650770D01*
X208024000Y-56229039D01*
X210190096Y-56229039D01*
X210230754Y-56363087D01*
X210350963Y-56617420D01*
X210518481Y-56843414D01*
X210726869Y-57032385D01*
X210968119Y-57177070D01*
X211232960Y-57271909D01*
X211455000Y-57150624D01*
X211455000Y-56007000D01*
X210312085Y-56007000D01*
X210190096Y-56229039D01*
X208024000Y-56229039D01*
X208024000Y-55530961D01*
X210190096Y-55530961D01*
X210312085Y-55753000D01*
X211455000Y-55753000D01*
X211455000Y-54609376D01*
X211232960Y-54488091D01*
X210968119Y-54582930D01*
X210726869Y-54727615D01*
X210518481Y-54916586D01*
X210350963Y-55142580D01*
X210230754Y-55396913D01*
X210190096Y-55530961D01*
X208024000Y-55530961D01*
X208024000Y-54897333D01*
X208027677Y-54860000D01*
X208013003Y-54711014D01*
X207969546Y-54567753D01*
X207898974Y-54435724D01*
X207827799Y-54348997D01*
X207804001Y-54319999D01*
X207775003Y-54296201D01*
X205205801Y-51727000D01*
X205377335Y-51727000D01*
X205654574Y-51671853D01*
X205915727Y-51563680D01*
X206150759Y-51406637D01*
X206350637Y-51206759D01*
X206506000Y-50974241D01*
X206661363Y-51206759D01*
X206861241Y-51406637D01*
X207096273Y-51563680D01*
X207357426Y-51671853D01*
X207634665Y-51727000D01*
X207917335Y-51727000D01*
X208194574Y-51671853D01*
X208455727Y-51563680D01*
X208690759Y-51406637D01*
X208890637Y-51206759D01*
X209047680Y-50971727D01*
X209155853Y-50710574D01*
X209211000Y-50433335D01*
X209211000Y-50150665D01*
X209155853Y-49873426D01*
X209047680Y-49612273D01*
X208890637Y-49377241D01*
X208690759Y-49177363D01*
X208455727Y-49020320D01*
X208194574Y-48912147D01*
X207917335Y-48857000D01*
X207634665Y-48857000D01*
X207452114Y-48893312D01*
X206716801Y-48158000D01*
X212895198Y-48158000D01*
X212159886Y-48893312D01*
X211977335Y-48857000D01*
X211694665Y-48857000D01*
X211417426Y-48912147D01*
X211156273Y-49020320D01*
X210921241Y-49177363D01*
X210721363Y-49377241D01*
X210564320Y-49612273D01*
X210456147Y-49873426D01*
X210401000Y-50150665D01*
X210401000Y-50433335D01*
X210456147Y-50710574D01*
X210564320Y-50971727D01*
X210721363Y-51206759D01*
X210921241Y-51406637D01*
X211156273Y-51563680D01*
X211417426Y-51671853D01*
X211694665Y-51727000D01*
X211977335Y-51727000D01*
X212254574Y-51671853D01*
X212515727Y-51563680D01*
X212750759Y-51406637D01*
X212950637Y-51206759D01*
X213106000Y-50974241D01*
X213261363Y-51206759D01*
X213461241Y-51406637D01*
X213696273Y-51563680D01*
X213957426Y-51671853D01*
X214234665Y-51727000D01*
X214517335Y-51727000D01*
X214687002Y-51693251D01*
X214687002Y-54560799D01*
X214540574Y-54500147D01*
X214263335Y-54445000D01*
X213980665Y-54445000D01*
X213703426Y-54500147D01*
X213442273Y-54608320D01*
X213207241Y-54765363D01*
X213007363Y-54965241D01*
X212850320Y-55200273D01*
X212845643Y-55211565D01*
X212813037Y-55142580D01*
X212645519Y-54916586D01*
X212437131Y-54727615D01*
X212195881Y-54582930D01*
X211931040Y-54488091D01*
X211709000Y-54609376D01*
X211709000Y-55753000D01*
X211729000Y-55753000D01*
X211729000Y-56007000D01*
X211709000Y-56007000D01*
X211709000Y-57150624D01*
X211931040Y-57271909D01*
X212195881Y-57177070D01*
X212437131Y-57032385D01*
X212645519Y-56843414D01*
X212813037Y-56617420D01*
X212845643Y-56548435D01*
X212850320Y-56559727D01*
X213007363Y-56794759D01*
X213207241Y-56994637D01*
X213442273Y-57151680D01*
X213703426Y-57259853D01*
X213980665Y-57315000D01*
X214263335Y-57315000D01*
X214540574Y-57259853D01*
X214687001Y-57199201D01*
X214687001Y-60590197D01*
X212244930Y-63032269D01*
X211987184Y-62981000D01*
X211684816Y-62981000D01*
X211388257Y-63039989D01*
X211108905Y-63155701D01*
X210857495Y-63323688D01*
X210643688Y-63537495D01*
X210562633Y-63658802D01*
X210427649Y-63478884D01*
X210203573Y-63278038D01*
X209944620Y-63124766D01*
X209660741Y-63024959D01*
X209423000Y-63145008D01*
X209423000Y-64389000D01*
X209443000Y-64389000D01*
X209443000Y-64643000D01*
X209423000Y-64643000D01*
X209423000Y-65886992D01*
X209660741Y-66007041D01*
X209944620Y-65907234D01*
X210203573Y-65753962D01*
X210427649Y-65553116D01*
X210562633Y-65373198D01*
X210643688Y-65494505D01*
X210857495Y-65708312D01*
X211108905Y-65876299D01*
X211388257Y-65992011D01*
X211684816Y-66051000D01*
X211987184Y-66051000D01*
X212283743Y-65992011D01*
X212563095Y-65876299D01*
X212814505Y-65708312D01*
X213028312Y-65494505D01*
X213106000Y-65378237D01*
X213183688Y-65494505D01*
X213397495Y-65708312D01*
X213648905Y-65876299D01*
X213928257Y-65992011D01*
X214224816Y-66051000D01*
X214527184Y-66051000D01*
X214823743Y-65992011D01*
X215103095Y-65876299D01*
X215354505Y-65708312D01*
X215568312Y-65494505D01*
X215646000Y-65378237D01*
X215723688Y-65494505D01*
X215937495Y-65708312D01*
X216188905Y-65876299D01*
X216468257Y-65992011D01*
X216764816Y-66051000D01*
X217067184Y-66051000D01*
X217363743Y-65992011D01*
X217643095Y-65876299D01*
X217894505Y-65708312D01*
X218108312Y-65494505D01*
X218276299Y-65243095D01*
X218392011Y-64963743D01*
X218451000Y-64667184D01*
X218451000Y-64364816D01*
X218392011Y-64068257D01*
X218276299Y-63788905D01*
X218108312Y-63537495D01*
X217894505Y-63323688D01*
X217643095Y-63155701D01*
X217363743Y-63039989D01*
X217067184Y-62981000D01*
X216985801Y-62981000D01*
X225047004Y-54919798D01*
X225076001Y-54896001D01*
X225170974Y-54780276D01*
X225241546Y-54648247D01*
X225285003Y-54504986D01*
X225296000Y-54393333D01*
X225296000Y-54393325D01*
X225299676Y-54356000D01*
X225296000Y-54318675D01*
X225296000Y-51510043D01*
X225450759Y-51406637D01*
X225650637Y-51206759D01*
X225806000Y-50974241D01*
X225961363Y-51206759D01*
X226161241Y-51406637D01*
X226396273Y-51563680D01*
X226657426Y-51671853D01*
X226934665Y-51727000D01*
X227217335Y-51727000D01*
X227441001Y-51682509D01*
X227441001Y-53105106D01*
X222119998Y-58426110D01*
X222091000Y-58449908D01*
X222067202Y-58478906D01*
X222067201Y-58478907D01*
X221996026Y-58565633D01*
X221925454Y-58697663D01*
X221881998Y-58840924D01*
X221867324Y-58989909D01*
X221871001Y-59027241D01*
X221871000Y-71051687D01*
X221652495Y-71197688D01*
X221438688Y-71411495D01*
X221270701Y-71662905D01*
X221154989Y-71942257D01*
X221096000Y-72238816D01*
X221096000Y-72541184D01*
X221154989Y-72837743D01*
X221270701Y-73117095D01*
X221438688Y-73368505D01*
X221505127Y-73434944D01*
X221486820Y-73440498D01*
X221376506Y-73499463D01*
X221279815Y-73578815D01*
X221200463Y-73675506D01*
X221141498Y-73785820D01*
X221105188Y-73905518D01*
X221092928Y-74030000D01*
X221092928Y-75830000D01*
X221105188Y-75954482D01*
X221141498Y-76074180D01*
X221200463Y-76184494D01*
X221279815Y-76281185D01*
X221376506Y-76360537D01*
X221486820Y-76419502D01*
X221606518Y-76455812D01*
X221731000Y-76468072D01*
X223531000Y-76468072D01*
X223655482Y-76455812D01*
X223775180Y-76419502D01*
X223885494Y-76360537D01*
X223982185Y-76281185D01*
X224061537Y-76184494D01*
X224120502Y-76074180D01*
X224156812Y-75954482D01*
X224169072Y-75830000D01*
X224169072Y-74030000D01*
X224156812Y-73905518D01*
X224120502Y-73785820D01*
X224061537Y-73675506D01*
X223982185Y-73578815D01*
X223885494Y-73499463D01*
X223775180Y-73440498D01*
X223756873Y-73434944D01*
X223823312Y-73368505D01*
X223991299Y-73117095D01*
X224107011Y-72837743D01*
X224166000Y-72541184D01*
X224166000Y-72238816D01*
X224107011Y-71942257D01*
X223991299Y-71662905D01*
X223823312Y-71411495D01*
X223609505Y-71197688D01*
X223391000Y-71051687D01*
X223391000Y-67373419D01*
X227554000Y-67373419D01*
X227554000Y-67754581D01*
X227628361Y-68128419D01*
X227774225Y-68480566D01*
X227985987Y-68797491D01*
X228255509Y-69067013D01*
X228572434Y-69278775D01*
X228924581Y-69424639D01*
X229298419Y-69499000D01*
X229679581Y-69499000D01*
X230053419Y-69424639D01*
X230405566Y-69278775D01*
X230722491Y-69067013D01*
X230992013Y-68797491D01*
X231203775Y-68480566D01*
X231349639Y-68128419D01*
X231424000Y-67754581D01*
X231424000Y-67373419D01*
X231349639Y-66999581D01*
X231203775Y-66647434D01*
X230992013Y-66330509D01*
X230722491Y-66060987D01*
X230405566Y-65849225D01*
X230053419Y-65703361D01*
X229679581Y-65629000D01*
X229298419Y-65629000D01*
X228924581Y-65703361D01*
X228572434Y-65849225D01*
X228255509Y-66060987D01*
X227985987Y-66330509D01*
X227774225Y-66647434D01*
X227628361Y-66999581D01*
X227554000Y-67373419D01*
X223391000Y-67373419D01*
X223391000Y-59971940D01*
X225957868Y-59971940D01*
X225957868Y-63472060D01*
X225970128Y-63596542D01*
X226006438Y-63716240D01*
X226065403Y-63826554D01*
X226144755Y-63923245D01*
X226241446Y-64002597D01*
X226351760Y-64061562D01*
X226471458Y-64097872D01*
X226595940Y-64110132D01*
X230096060Y-64110132D01*
X230220542Y-64097872D01*
X230340240Y-64061562D01*
X230450554Y-64002597D01*
X230547245Y-63923245D01*
X230626597Y-63826554D01*
X230685562Y-63716240D01*
X230721872Y-63596542D01*
X230734132Y-63472060D01*
X230734132Y-59971940D01*
X230721872Y-59847458D01*
X230685562Y-59727760D01*
X230626597Y-59617446D01*
X230547245Y-59520755D01*
X230450554Y-59441403D01*
X230340240Y-59382438D01*
X230220542Y-59346128D01*
X230096060Y-59333868D01*
X226595940Y-59333868D01*
X226471458Y-59346128D01*
X226351760Y-59382438D01*
X226241446Y-59441403D01*
X226144755Y-59520755D01*
X226065403Y-59617446D01*
X226006438Y-59727760D01*
X225970128Y-59847458D01*
X225957868Y-59971940D01*
X223391000Y-59971940D01*
X223391000Y-59304710D01*
X224384059Y-58311651D01*
X226855954Y-58311651D01*
X227042039Y-58652815D01*
X227459384Y-58868568D01*
X227910802Y-58998755D01*
X228378944Y-59038374D01*
X228845821Y-58985901D01*
X229293489Y-58843354D01*
X229649961Y-58652815D01*
X229836046Y-58311651D01*
X228346000Y-56821605D01*
X226855954Y-58311651D01*
X224384059Y-58311651D01*
X225956814Y-56738897D01*
X226002099Y-57141821D01*
X226144646Y-57589489D01*
X226335185Y-57945961D01*
X226676349Y-58132046D01*
X228166395Y-56642000D01*
X228525605Y-56642000D01*
X230015651Y-58132046D01*
X230356815Y-57945961D01*
X230572568Y-57528616D01*
X230702755Y-57077198D01*
X230742374Y-56609056D01*
X230689901Y-56142179D01*
X230547354Y-55694511D01*
X230356815Y-55338039D01*
X230015651Y-55151954D01*
X228525605Y-56642000D01*
X228166395Y-56642000D01*
X228152253Y-56627858D01*
X228331858Y-56448253D01*
X228346000Y-56462395D01*
X229836046Y-54972349D01*
X229649961Y-54631185D01*
X229232616Y-54415432D01*
X228781198Y-54285245D01*
X228439393Y-54256318D01*
X228712005Y-53983706D01*
X228741002Y-53959909D01*
X228812512Y-53872774D01*
X228835975Y-53844185D01*
X228906547Y-53712155D01*
X228925263Y-53650454D01*
X228950004Y-53568894D01*
X228961001Y-53457241D01*
X228961001Y-53457231D01*
X228964677Y-53419908D01*
X228961001Y-53382585D01*
X228961001Y-51573923D01*
X229197426Y-51671853D01*
X229474665Y-51727000D01*
X229757335Y-51727000D01*
X230034574Y-51671853D01*
X230295727Y-51563680D01*
X230530759Y-51406637D01*
X230730637Y-51206759D01*
X230887680Y-50971727D01*
X230995853Y-50710574D01*
X231051000Y-50433335D01*
X231051000Y-50150665D01*
X230995853Y-49873426D01*
X230887680Y-49612273D01*
X230730637Y-49377241D01*
X230530759Y-49177363D01*
X230295727Y-49020320D01*
X230034574Y-48912147D01*
X229757335Y-48857000D01*
X229474665Y-48857000D01*
X229197426Y-48912147D01*
X228936273Y-49020320D01*
X228701241Y-49177363D01*
X228701204Y-49177400D01*
X227681803Y-48158000D01*
X234290001Y-48158000D01*
X234290000Y-100686000D01*
X192902133Y-100686000D01*
X193119134Y-100468999D01*
X193162448Y-100433452D01*
X193304283Y-100260626D01*
X193409675Y-100063450D01*
X193431934Y-99990072D01*
X194856000Y-99990072D01*
X194980482Y-99977812D01*
X195100180Y-99941502D01*
X195210494Y-99882537D01*
X195307185Y-99803185D01*
X195386537Y-99706494D01*
X195445502Y-99596180D01*
X195481812Y-99476482D01*
X195482643Y-99468039D01*
X195681241Y-99666637D01*
X195916273Y-99823680D01*
X196177426Y-99931853D01*
X196454665Y-99987000D01*
X196737335Y-99987000D01*
X197014574Y-99931853D01*
X197275727Y-99823680D01*
X197510759Y-99666637D01*
X197710637Y-99466759D01*
X197866000Y-99234241D01*
X198021363Y-99466759D01*
X198221241Y-99666637D01*
X198456273Y-99823680D01*
X198717426Y-99931853D01*
X198994665Y-99987000D01*
X199277335Y-99987000D01*
X199554574Y-99931853D01*
X199815727Y-99823680D01*
X200050759Y-99666637D01*
X200250637Y-99466759D01*
X200406000Y-99234241D01*
X200561363Y-99466759D01*
X200761241Y-99666637D01*
X200996273Y-99823680D01*
X201257426Y-99931853D01*
X201534665Y-99987000D01*
X201817335Y-99987000D01*
X202094574Y-99931853D01*
X202355727Y-99823680D01*
X202590759Y-99666637D01*
X202790637Y-99466759D01*
X202946000Y-99234241D01*
X203101363Y-99466759D01*
X203301241Y-99666637D01*
X203536273Y-99823680D01*
X203797426Y-99931853D01*
X204074665Y-99987000D01*
X204357335Y-99987000D01*
X204634574Y-99931853D01*
X204895727Y-99823680D01*
X205130759Y-99666637D01*
X205330637Y-99466759D01*
X205487680Y-99231727D01*
X205492067Y-99221135D01*
X205603615Y-99407131D01*
X205792586Y-99615519D01*
X206018580Y-99783037D01*
X206272913Y-99903246D01*
X206406961Y-99943904D01*
X206629000Y-99821915D01*
X206629000Y-98679000D01*
X206883000Y-98679000D01*
X206883000Y-99821915D01*
X207105039Y-99943904D01*
X207239087Y-99903246D01*
X207493420Y-99783037D01*
X207719414Y-99615519D01*
X207908385Y-99407131D01*
X208026000Y-99211018D01*
X208143615Y-99407131D01*
X208332586Y-99615519D01*
X208558580Y-99783037D01*
X208812913Y-99903246D01*
X208946961Y-99943904D01*
X209169000Y-99821915D01*
X209169000Y-98679000D01*
X206883000Y-98679000D01*
X206629000Y-98679000D01*
X206609000Y-98679000D01*
X206609000Y-98425000D01*
X206629000Y-98425000D01*
X206629000Y-97282085D01*
X206883000Y-97282085D01*
X206883000Y-98425000D01*
X209169000Y-98425000D01*
X209169000Y-97282085D01*
X209423000Y-97282085D01*
X209423000Y-98425000D01*
X209443000Y-98425000D01*
X209443000Y-98679000D01*
X209423000Y-98679000D01*
X209423000Y-99821915D01*
X209645039Y-99943904D01*
X209779087Y-99903246D01*
X210033420Y-99783037D01*
X210259414Y-99615519D01*
X210448385Y-99407131D01*
X210559933Y-99221135D01*
X210564320Y-99231727D01*
X210721363Y-99466759D01*
X210921241Y-99666637D01*
X211156273Y-99823680D01*
X211417426Y-99931853D01*
X211694665Y-99987000D01*
X211977335Y-99987000D01*
X212254574Y-99931853D01*
X212515727Y-99823680D01*
X212750759Y-99666637D01*
X212950637Y-99466759D01*
X213107680Y-99231727D01*
X213215853Y-98970574D01*
X213271000Y-98693335D01*
X213271000Y-98410665D01*
X213215853Y-98133426D01*
X213107680Y-97872273D01*
X212950637Y-97637241D01*
X212750759Y-97437363D01*
X212515727Y-97280320D01*
X212254574Y-97172147D01*
X211977335Y-97117000D01*
X211694665Y-97117000D01*
X211417426Y-97172147D01*
X211156273Y-97280320D01*
X210921241Y-97437363D01*
X210721363Y-97637241D01*
X210564320Y-97872273D01*
X210559933Y-97882865D01*
X210448385Y-97696869D01*
X210259414Y-97488481D01*
X210033420Y-97320963D01*
X209779087Y-97200754D01*
X209645039Y-97160096D01*
X209423000Y-97282085D01*
X209169000Y-97282085D01*
X208946961Y-97160096D01*
X208812913Y-97200754D01*
X208558580Y-97320963D01*
X208332586Y-97488481D01*
X208143615Y-97696869D01*
X208026000Y-97892982D01*
X207908385Y-97696869D01*
X207719414Y-97488481D01*
X207493420Y-97320963D01*
X207239087Y-97200754D01*
X207105039Y-97160096D01*
X206883000Y-97282085D01*
X206629000Y-97282085D01*
X206406961Y-97160096D01*
X206272913Y-97200754D01*
X206018580Y-97320963D01*
X205792586Y-97488481D01*
X205603615Y-97696869D01*
X205492067Y-97882865D01*
X205487680Y-97872273D01*
X205330637Y-97637241D01*
X205130759Y-97437363D01*
X204976000Y-97333957D01*
X204976000Y-93129000D01*
X205119335Y-93129000D01*
X205396574Y-93073853D01*
X205657727Y-92965680D01*
X205892759Y-92808637D01*
X206092637Y-92608759D01*
X206249680Y-92373727D01*
X206357853Y-92112574D01*
X206413000Y-91835335D01*
X206413000Y-91552665D01*
X206357853Y-91275426D01*
X206249680Y-91014273D01*
X206092637Y-90779241D01*
X205892759Y-90579363D01*
X205657727Y-90422320D01*
X205396574Y-90314147D01*
X205119335Y-90259000D01*
X204836665Y-90259000D01*
X204559426Y-90314147D01*
X204298273Y-90422320D01*
X204063241Y-90579363D01*
X203863363Y-90779241D01*
X203706320Y-91014273D01*
X203598147Y-91275426D01*
X203543000Y-91552665D01*
X203543000Y-91835335D01*
X203581862Y-92030705D01*
X203581026Y-92031724D01*
X203510454Y-92163754D01*
X203466998Y-92307015D01*
X203452324Y-92456000D01*
X203456001Y-92493332D01*
X203456000Y-97333956D01*
X203301241Y-97437363D01*
X203101363Y-97637241D01*
X202946000Y-97869759D01*
X202790637Y-97637241D01*
X202590759Y-97437363D01*
X202355727Y-97280320D01*
X202094574Y-97172147D01*
X201817335Y-97117000D01*
X201534665Y-97117000D01*
X201257426Y-97172147D01*
X200996273Y-97280320D01*
X200761241Y-97437363D01*
X200561363Y-97637241D01*
X200406000Y-97869759D01*
X200250637Y-97637241D01*
X200050759Y-97437363D01*
X199815727Y-97280320D01*
X199554574Y-97172147D01*
X199277335Y-97117000D01*
X198994665Y-97117000D01*
X198717426Y-97172147D01*
X198456273Y-97280320D01*
X198221241Y-97437363D01*
X198021363Y-97637241D01*
X197866000Y-97869759D01*
X197710637Y-97637241D01*
X197510759Y-97437363D01*
X197275727Y-97280320D01*
X197014574Y-97172147D01*
X196737335Y-97117000D01*
X196454665Y-97117000D01*
X196177426Y-97172147D01*
X195916273Y-97280320D01*
X195681241Y-97437363D01*
X195482643Y-97635961D01*
X195481812Y-97627518D01*
X195445502Y-97507820D01*
X195386537Y-97397506D01*
X195307185Y-97300815D01*
X195210494Y-97221463D01*
X195100180Y-97162498D01*
X194980482Y-97126188D01*
X194856000Y-97113928D01*
X193490999Y-97113928D01*
X193490999Y-92686702D01*
X199164903Y-92686702D01*
X199236486Y-92930671D01*
X199491996Y-93051571D01*
X199766184Y-93120300D01*
X200048512Y-93134217D01*
X200328130Y-93092787D01*
X200594292Y-92997603D01*
X200719514Y-92930671D01*
X200791097Y-92686702D01*
X199978000Y-91873605D01*
X199164903Y-92686702D01*
X193490999Y-92686702D01*
X193490999Y-92086132D01*
X193812619Y-91764512D01*
X198537783Y-91764512D01*
X198579213Y-92044130D01*
X198674397Y-92310292D01*
X198741329Y-92435514D01*
X198985298Y-92507097D01*
X199798395Y-91694000D01*
X200157605Y-91694000D01*
X200970702Y-92507097D01*
X201214671Y-92435514D01*
X201335571Y-92180004D01*
X201404300Y-91905816D01*
X201418217Y-91623488D01*
X201376787Y-91343870D01*
X201281603Y-91077708D01*
X201214671Y-90952486D01*
X200970702Y-90880903D01*
X200157605Y-91694000D01*
X199798395Y-91694000D01*
X198985298Y-90880903D01*
X198741329Y-90952486D01*
X198620429Y-91207996D01*
X198551700Y-91482184D01*
X198537783Y-91764512D01*
X193812619Y-91764512D01*
X194875833Y-90701298D01*
X199164903Y-90701298D01*
X199978000Y-91514395D01*
X200791097Y-90701298D01*
X200719514Y-90457329D01*
X200464004Y-90336429D01*
X200189816Y-90267700D01*
X199907488Y-90253783D01*
X199627870Y-90295213D01*
X199361708Y-90390397D01*
X199236486Y-90457329D01*
X199164903Y-90701298D01*
X194875833Y-90701298D01*
X197174132Y-88403000D01*
X198740928Y-88403000D01*
X198753188Y-88527482D01*
X198789498Y-88647180D01*
X198848463Y-88757494D01*
X198927815Y-88854185D01*
X199024506Y-88933537D01*
X199134820Y-88992502D01*
X199254518Y-89028812D01*
X199379000Y-89041072D01*
X199993250Y-89038000D01*
X200152000Y-88879250D01*
X200152000Y-87630000D01*
X198902750Y-87630000D01*
X198744000Y-87788750D01*
X198740928Y-88403000D01*
X197174132Y-88403000D01*
X198742089Y-86835044D01*
X198744000Y-87217250D01*
X198902750Y-87376000D01*
X200152000Y-87376000D01*
X200152000Y-86126750D01*
X199993250Y-85968000D01*
X199611044Y-85966089D01*
X201619133Y-83958000D01*
X201700184Y-83958000D01*
X201996743Y-83899011D01*
X202276095Y-83783299D01*
X202527505Y-83615312D01*
X202741312Y-83401505D01*
X202819000Y-83285237D01*
X202896688Y-83401505D01*
X203110495Y-83615312D01*
X203361905Y-83783299D01*
X203641257Y-83899011D01*
X203937816Y-83958000D01*
X204240184Y-83958000D01*
X204536743Y-83899011D01*
X204816095Y-83783299D01*
X205067505Y-83615312D01*
X205281312Y-83401505D01*
X205359000Y-83285237D01*
X205436688Y-83401505D01*
X205650495Y-83615312D01*
X205901905Y-83783299D01*
X206181257Y-83899011D01*
X206477816Y-83958000D01*
X206780184Y-83958000D01*
X207076743Y-83899011D01*
X207356095Y-83783299D01*
X207607505Y-83615312D01*
X207821312Y-83401505D01*
X207902367Y-83280198D01*
X208037351Y-83460116D01*
X208261427Y-83660962D01*
X208520380Y-83814234D01*
X208804259Y-83914041D01*
X209042000Y-83793992D01*
X209042000Y-82550000D01*
X209022000Y-82550000D01*
X209022000Y-82296000D01*
X209042000Y-82296000D01*
X209042000Y-81052008D01*
X208804259Y-80931959D01*
X208520380Y-81031766D01*
X208261427Y-81185038D01*
X208037351Y-81385884D01*
X207902367Y-81565802D01*
X207821312Y-81444495D01*
X207607505Y-81230688D01*
X207356095Y-81062701D01*
X207076743Y-80946989D01*
X206780184Y-80888000D01*
X206477816Y-80888000D01*
X206181257Y-80946989D01*
X205901905Y-81062701D01*
X205650495Y-81230688D01*
X205436688Y-81444495D01*
X205359000Y-81560763D01*
X205281312Y-81444495D01*
X205224000Y-81387183D01*
X205224000Y-81205959D01*
X205229491Y-81150208D01*
X205207577Y-80927709D01*
X205142676Y-80713761D01*
X205037284Y-80516585D01*
X204895449Y-80343759D01*
X204852141Y-80308217D01*
X202393788Y-77849865D01*
X202358241Y-77806551D01*
X202185415Y-77664716D01*
X201988239Y-77559324D01*
X201774291Y-77494423D01*
X201607544Y-77478000D01*
X201607543Y-77478000D01*
X201551792Y-77472509D01*
X201496041Y-77478000D01*
X196464284Y-77478000D01*
X196259727Y-77341320D01*
X195998574Y-77233147D01*
X195721335Y-77178000D01*
X195438665Y-77178000D01*
X195161426Y-77233147D01*
X194900273Y-77341320D01*
X194695716Y-77478000D01*
X192460741Y-77478000D01*
X192404999Y-77472510D01*
X192349257Y-77478000D01*
X192349248Y-77478000D01*
X192182501Y-77494423D01*
X191968553Y-77559324D01*
X191771377Y-77664716D01*
X191599128Y-77806077D01*
X191563125Y-77724000D01*
X190119000Y-77724000D01*
X190119000Y-77744000D01*
X189865000Y-77744000D01*
X189865000Y-77724000D01*
X188420875Y-77724000D01*
X188302825Y-77993122D01*
X188367425Y-78206094D01*
X188517469Y-78511329D01*
X188724178Y-78781427D01*
X188979609Y-79006008D01*
X189273946Y-79176442D01*
X189595877Y-79286179D01*
X189864998Y-79168601D01*
X189864998Y-79287928D01*
X188892000Y-79287928D01*
X188767518Y-79300188D01*
X188647820Y-79336498D01*
X188537506Y-79395463D01*
X188440815Y-79474815D01*
X188361463Y-79571506D01*
X188302498Y-79681820D01*
X188266188Y-79801518D01*
X188253928Y-79926000D01*
X188253928Y-82126000D01*
X188266188Y-82250482D01*
X188302498Y-82370180D01*
X188361463Y-82480494D01*
X188440815Y-82577185D01*
X188537506Y-82656537D01*
X188647820Y-82715502D01*
X188767518Y-82751812D01*
X188892000Y-82764072D01*
X190124940Y-82764072D01*
X190857002Y-83496135D01*
X190857001Y-86389647D01*
X190710054Y-86304558D01*
X190388123Y-86194821D01*
X190119000Y-86312400D01*
X190119000Y-87757000D01*
X190139000Y-87757000D01*
X190139000Y-88011000D01*
X190119000Y-88011000D01*
X190119000Y-88031000D01*
X189865000Y-88031000D01*
X189865000Y-88011000D01*
X188420875Y-88011000D01*
X188302825Y-88280122D01*
X188367425Y-88493094D01*
X188517469Y-88798329D01*
X188724178Y-89068427D01*
X188979609Y-89293008D01*
X189273946Y-89463442D01*
X189595877Y-89573179D01*
X189864998Y-89455601D01*
X189864998Y-89574928D01*
X188892000Y-89574928D01*
X188767518Y-89587188D01*
X188647820Y-89623498D01*
X188537506Y-89682463D01*
X188440815Y-89761815D01*
X188361463Y-89858506D01*
X188302498Y-89968820D01*
X188266188Y-90088518D01*
X188253928Y-90213000D01*
X188253928Y-92413000D01*
X188266188Y-92537482D01*
X188302498Y-92657180D01*
X188361463Y-92767494D01*
X188440815Y-92864185D01*
X188537506Y-92943537D01*
X188647820Y-93002502D01*
X188767518Y-93038812D01*
X188892000Y-93051072D01*
X189864998Y-93051072D01*
X189864998Y-93170399D01*
X189595877Y-93052821D01*
X189273946Y-93162558D01*
X188979609Y-93332992D01*
X188724178Y-93557573D01*
X188517469Y-93827671D01*
X188367425Y-94132906D01*
X188302825Y-94345878D01*
X188420875Y-94615000D01*
X189865000Y-94615000D01*
X189865000Y-94595000D01*
X190119000Y-94595000D01*
X190119000Y-94615000D01*
X190139000Y-94615000D01*
X190139000Y-94869000D01*
X190119000Y-94869000D01*
X190119000Y-94889000D01*
X189865000Y-94889000D01*
X189865000Y-94869000D01*
X188420875Y-94869000D01*
X188302825Y-95138122D01*
X188367425Y-95351094D01*
X188517469Y-95656329D01*
X188724178Y-95926427D01*
X188979609Y-96151008D01*
X189273946Y-96321442D01*
X189595877Y-96431179D01*
X189864998Y-96313601D01*
X189864998Y-96432928D01*
X188892000Y-96432928D01*
X188767518Y-96445188D01*
X188647820Y-96481498D01*
X188537506Y-96540463D01*
X188440815Y-96619815D01*
X188361463Y-96716506D01*
X188302498Y-96826820D01*
X188266188Y-96946518D01*
X188253928Y-97071000D01*
X188253928Y-99036001D01*
X182302134Y-99036001D01*
X181567000Y-98300868D01*
X181567000Y-98000117D01*
X181500325Y-97664919D01*
X181369537Y-97349169D01*
X181179663Y-97065002D01*
X180937998Y-96823337D01*
X180653831Y-96633463D01*
X180338081Y-96502675D01*
X180224448Y-96480072D01*
X180932000Y-96480072D01*
X181056482Y-96467812D01*
X181176180Y-96431502D01*
X181286494Y-96372537D01*
X181383185Y-96293185D01*
X181462537Y-96196494D01*
X181521502Y-96086180D01*
X181557812Y-95966482D01*
X181570072Y-95842000D01*
X181570072Y-93642000D01*
X181557812Y-93517518D01*
X181521502Y-93397820D01*
X181462537Y-93287506D01*
X181383185Y-93190815D01*
X181286494Y-93111463D01*
X181176180Y-93052498D01*
X181056482Y-93016188D01*
X180932000Y-93003928D01*
X180224448Y-93003928D01*
X180338081Y-92981325D01*
X180653831Y-92850537D01*
X180937998Y-92660663D01*
X181179663Y-92418998D01*
X181369537Y-92134831D01*
X181500325Y-91819081D01*
X181567000Y-91483883D01*
X181567000Y-91142117D01*
X181500325Y-90806919D01*
X181369537Y-90491169D01*
X181179663Y-90207002D01*
X180937998Y-89965337D01*
X180653831Y-89775463D01*
X180338081Y-89644675D01*
X180224448Y-89622072D01*
X180932000Y-89622072D01*
X181056482Y-89609812D01*
X181176180Y-89573502D01*
X181286494Y-89514537D01*
X181383185Y-89435185D01*
X181462537Y-89338494D01*
X181521502Y-89228180D01*
X181557812Y-89108482D01*
X181570072Y-88984000D01*
X181570072Y-87487878D01*
X188302825Y-87487878D01*
X188420875Y-87757000D01*
X189865000Y-87757000D01*
X189865000Y-86312400D01*
X189595877Y-86194821D01*
X189273946Y-86304558D01*
X188979609Y-86474992D01*
X188724178Y-86699573D01*
X188517469Y-86969671D01*
X188367425Y-87274906D01*
X188302825Y-87487878D01*
X181570072Y-87487878D01*
X181570072Y-86784000D01*
X181557812Y-86659518D01*
X181521502Y-86539820D01*
X181462537Y-86429506D01*
X181383185Y-86332815D01*
X181286494Y-86253463D01*
X181176180Y-86194498D01*
X181056482Y-86158188D01*
X180932000Y-86145928D01*
X179699060Y-86145928D01*
X177879996Y-84326865D01*
X177844449Y-84283551D01*
X177671623Y-84141716D01*
X177474447Y-84036324D01*
X177260499Y-83971423D01*
X177093752Y-83955000D01*
X177093751Y-83955000D01*
X177038000Y-83949509D01*
X176982249Y-83955000D01*
X175021214Y-83955000D01*
X174954851Y-83919528D01*
X174788255Y-83868992D01*
X174615001Y-83851928D01*
X173364999Y-83851928D01*
X173191745Y-83868992D01*
X173025149Y-83919528D01*
X172871613Y-84001595D01*
X172737038Y-84112038D01*
X172626595Y-84246613D01*
X172544528Y-84400149D01*
X172493992Y-84566745D01*
X172476928Y-84739999D01*
X172476928Y-85440001D01*
X172493992Y-85613255D01*
X172544528Y-85779851D01*
X172626595Y-85933387D01*
X172737038Y-86067962D01*
X172871613Y-86178405D01*
X172876111Y-86180809D01*
X172837498Y-86212498D01*
X172683167Y-86400551D01*
X172568489Y-86615099D01*
X172497870Y-86847898D01*
X172474025Y-87090000D01*
X172497870Y-87332102D01*
X172568489Y-87564901D01*
X172683167Y-87779449D01*
X172837498Y-87967502D01*
X172986762Y-88090000D01*
X172837498Y-88212498D01*
X172683167Y-88400551D01*
X172568489Y-88615099D01*
X172497870Y-88847898D01*
X172474025Y-89090000D01*
X172497870Y-89332102D01*
X172568489Y-89564901D01*
X172683167Y-89779449D01*
X172837498Y-89967502D01*
X172987348Y-90090481D01*
X172923275Y-90133693D01*
X172751922Y-90306526D01*
X172617579Y-90509467D01*
X172525409Y-90734718D01*
X172521538Y-90772391D01*
X172646269Y-90963000D01*
X173863000Y-90963000D01*
X173863000Y-90943000D01*
X174117000Y-90943000D01*
X174117000Y-90963000D01*
X175333731Y-90963000D01*
X175458462Y-90772391D01*
X175454591Y-90734718D01*
X175362421Y-90509467D01*
X175228078Y-90306526D01*
X175056725Y-90133693D01*
X174992652Y-90090481D01*
X175142502Y-89967502D01*
X175296833Y-89779449D01*
X175411511Y-89564901D01*
X175482130Y-89332102D01*
X175505975Y-89090000D01*
X175482130Y-88847898D01*
X175411511Y-88615099D01*
X175296833Y-88400551D01*
X175152762Y-88225000D01*
X175394869Y-88225000D01*
X176696999Y-89527132D01*
X176697000Y-92686238D01*
X176691508Y-92741999D01*
X176713422Y-92964497D01*
X176778323Y-93178445D01*
X176814528Y-93246180D01*
X176883716Y-93375622D01*
X177025551Y-93548448D01*
X177068859Y-93583990D01*
X178093928Y-94609060D01*
X178093928Y-95842000D01*
X178106188Y-95966482D01*
X178142498Y-96086180D01*
X178201463Y-96196494D01*
X178280815Y-96293185D01*
X178377506Y-96372537D01*
X178487820Y-96431502D01*
X178607518Y-96467812D01*
X178732000Y-96480072D01*
X179439552Y-96480072D01*
X179325919Y-96502675D01*
X179010169Y-96633463D01*
X178726002Y-96823337D01*
X178484337Y-97065002D01*
X178294463Y-97349169D01*
X178163675Y-97664919D01*
X178097000Y-98000117D01*
X178097000Y-98341883D01*
X178163675Y-98677081D01*
X178294463Y-98992831D01*
X178484337Y-99276998D01*
X178726002Y-99518663D01*
X179010169Y-99708537D01*
X179325919Y-99839325D01*
X179661117Y-99906000D01*
X179961868Y-99906000D01*
X180741867Y-100686000D01*
X166522000Y-100686000D01*
X166522000Y-93090000D01*
X172474025Y-93090000D01*
X172497870Y-93332102D01*
X172568489Y-93564901D01*
X172683167Y-93779449D01*
X172837498Y-93967502D01*
X172986762Y-94090000D01*
X172837498Y-94212498D01*
X172683167Y-94400551D01*
X172568489Y-94615099D01*
X172497870Y-94847898D01*
X172474025Y-95090000D01*
X172497870Y-95332102D01*
X172568489Y-95564901D01*
X172683167Y-95779449D01*
X172837498Y-95967502D01*
X173025551Y-96121833D01*
X173240099Y-96236511D01*
X173472898Y-96307130D01*
X173654335Y-96325000D01*
X174325665Y-96325000D01*
X174507102Y-96307130D01*
X174739901Y-96236511D01*
X174954449Y-96121833D01*
X175142502Y-95967502D01*
X175296833Y-95779449D01*
X175411511Y-95564901D01*
X175482130Y-95332102D01*
X175505975Y-95090000D01*
X175482130Y-94847898D01*
X175411511Y-94615099D01*
X175296833Y-94400551D01*
X175142502Y-94212498D01*
X174993238Y-94090000D01*
X175142502Y-93967502D01*
X175296833Y-93779449D01*
X175411511Y-93564901D01*
X175482130Y-93332102D01*
X175505975Y-93090000D01*
X175482130Y-92847898D01*
X175411511Y-92615099D01*
X175296833Y-92400551D01*
X175142502Y-92212498D01*
X174992652Y-92089519D01*
X175056725Y-92046307D01*
X175228078Y-91873474D01*
X175362421Y-91670533D01*
X175454591Y-91445282D01*
X175458462Y-91407609D01*
X175333731Y-91217000D01*
X174117000Y-91217000D01*
X174117000Y-91237000D01*
X173863000Y-91237000D01*
X173863000Y-91217000D01*
X172646269Y-91217000D01*
X172521538Y-91407609D01*
X172525409Y-91445282D01*
X172617579Y-91670533D01*
X172751922Y-91873474D01*
X172923275Y-92046307D01*
X172987348Y-92089519D01*
X172837498Y-92212498D01*
X172683167Y-92400551D01*
X172568489Y-92615099D01*
X172497870Y-92847898D01*
X172474025Y-93090000D01*
X166522000Y-93090000D01*
X166522000Y-77850000D01*
X172474025Y-77850000D01*
X172497870Y-78092102D01*
X172568489Y-78324901D01*
X172683167Y-78539449D01*
X172837498Y-78727502D01*
X172986762Y-78850000D01*
X172837498Y-78972498D01*
X172683167Y-79160551D01*
X172568489Y-79375099D01*
X172497870Y-79607898D01*
X172474025Y-79850000D01*
X172497870Y-80092102D01*
X172568489Y-80324901D01*
X172683167Y-80539449D01*
X172837498Y-80727502D01*
X173025551Y-80881833D01*
X173240099Y-80996511D01*
X173472898Y-81067130D01*
X173654335Y-81085000D01*
X174325665Y-81085000D01*
X174507102Y-81067130D01*
X174739901Y-80996511D01*
X174954449Y-80881833D01*
X175142502Y-80727502D01*
X175296833Y-80539449D01*
X175411511Y-80324901D01*
X175482130Y-80092102D01*
X175505975Y-79850000D01*
X175482130Y-79607898D01*
X175411511Y-79375099D01*
X175296833Y-79160551D01*
X175142502Y-78972498D01*
X174993238Y-78850000D01*
X175142502Y-78727502D01*
X175296833Y-78539449D01*
X175411511Y-78324901D01*
X175482130Y-78092102D01*
X175505975Y-77850000D01*
X175482130Y-77607898D01*
X175411511Y-77375099D01*
X175296833Y-77160551D01*
X175142502Y-76972498D01*
X174992652Y-76849519D01*
X175056725Y-76806307D01*
X175228078Y-76633474D01*
X175362421Y-76430533D01*
X175454591Y-76205282D01*
X175458462Y-76167609D01*
X175333731Y-75977000D01*
X174117000Y-75977000D01*
X174117000Y-75997000D01*
X173863000Y-75997000D01*
X173863000Y-75977000D01*
X172646269Y-75977000D01*
X172521538Y-76167609D01*
X172525409Y-76205282D01*
X172617579Y-76430533D01*
X172751922Y-76633474D01*
X172923275Y-76806307D01*
X172987348Y-76849519D01*
X172837498Y-76972498D01*
X172683167Y-77160551D01*
X172568489Y-77375099D01*
X172497870Y-77607898D01*
X172474025Y-77850000D01*
X166522000Y-77850000D01*
X166522000Y-71850000D01*
X172474025Y-71850000D01*
X172497870Y-72092102D01*
X172568489Y-72324901D01*
X172683167Y-72539449D01*
X172837498Y-72727502D01*
X172986762Y-72850000D01*
X172837498Y-72972498D01*
X172683167Y-73160551D01*
X172568489Y-73375099D01*
X172497870Y-73607898D01*
X172474025Y-73850000D01*
X172497870Y-74092102D01*
X172568489Y-74324901D01*
X172683167Y-74539449D01*
X172837498Y-74727502D01*
X172987348Y-74850481D01*
X172923275Y-74893693D01*
X172751922Y-75066526D01*
X172617579Y-75269467D01*
X172525409Y-75494718D01*
X172521538Y-75532391D01*
X172646269Y-75723000D01*
X173863000Y-75723000D01*
X173863000Y-75703000D01*
X174117000Y-75703000D01*
X174117000Y-75723000D01*
X175333731Y-75723000D01*
X175458462Y-75532391D01*
X175454591Y-75494718D01*
X175362421Y-75269467D01*
X175228078Y-75066526D01*
X175056725Y-74893693D01*
X174992652Y-74850481D01*
X175142502Y-74727502D01*
X175296833Y-74539449D01*
X175411511Y-74324901D01*
X175414364Y-74315497D01*
X178093928Y-76995062D01*
X178093928Y-78697000D01*
X178106188Y-78821482D01*
X178142498Y-78941180D01*
X178201463Y-79051494D01*
X178280815Y-79148185D01*
X178377506Y-79227537D01*
X178487820Y-79286502D01*
X178607518Y-79322812D01*
X178732000Y-79335072D01*
X179439552Y-79335072D01*
X179325919Y-79357675D01*
X179010169Y-79488463D01*
X178726002Y-79678337D01*
X178484337Y-79920002D01*
X178294463Y-80204169D01*
X178163675Y-80519919D01*
X178097000Y-80855117D01*
X178097000Y-81196883D01*
X178163675Y-81532081D01*
X178294463Y-81847831D01*
X178484337Y-82131998D01*
X178726002Y-82373663D01*
X179010169Y-82563537D01*
X179325919Y-82694325D01*
X179661117Y-82761000D01*
X180002883Y-82761000D01*
X180338081Y-82694325D01*
X180653831Y-82563537D01*
X180937998Y-82373663D01*
X181179663Y-82131998D01*
X181369537Y-81847831D01*
X181500325Y-81532081D01*
X181567000Y-81196883D01*
X181567000Y-80855117D01*
X181500325Y-80519919D01*
X181369537Y-80204169D01*
X181179663Y-79920002D01*
X180937998Y-79678337D01*
X180653831Y-79488463D01*
X180338081Y-79357675D01*
X180224448Y-79335072D01*
X180932000Y-79335072D01*
X181056482Y-79322812D01*
X181176180Y-79286502D01*
X181286494Y-79227537D01*
X181383185Y-79148185D01*
X181462537Y-79051494D01*
X181521502Y-78941180D01*
X181557812Y-78821482D01*
X181570072Y-78697000D01*
X181570072Y-76497000D01*
X181557812Y-76372518D01*
X181521502Y-76252820D01*
X181462537Y-76142506D01*
X181383185Y-76045815D01*
X181286494Y-75966463D01*
X181176180Y-75907498D01*
X181056482Y-75871188D01*
X180932000Y-75858928D01*
X180224448Y-75858928D01*
X180338081Y-75836325D01*
X180653831Y-75705537D01*
X180937998Y-75515663D01*
X181179663Y-75273998D01*
X181369537Y-74989831D01*
X181500325Y-74674081D01*
X181567000Y-74338883D01*
X181567000Y-73997117D01*
X181500325Y-73661919D01*
X181369537Y-73346169D01*
X181179663Y-73062002D01*
X180937998Y-72820337D01*
X180653831Y-72630463D01*
X180338081Y-72499675D01*
X180224448Y-72477072D01*
X180932000Y-72477072D01*
X181056482Y-72464812D01*
X181176180Y-72428502D01*
X181286494Y-72369537D01*
X181383185Y-72290185D01*
X181462537Y-72193494D01*
X181521502Y-72083180D01*
X181557812Y-71963482D01*
X181570072Y-71839000D01*
X181570072Y-70342878D01*
X188302825Y-70342878D01*
X188420875Y-70612000D01*
X189865000Y-70612000D01*
X189865000Y-69167400D01*
X189595877Y-69049821D01*
X189273946Y-69159558D01*
X188979609Y-69329992D01*
X188724178Y-69554573D01*
X188517469Y-69824671D01*
X188367425Y-70129906D01*
X188302825Y-70342878D01*
X181570072Y-70342878D01*
X181570072Y-69639000D01*
X181557812Y-69514518D01*
X181521502Y-69394820D01*
X181462537Y-69284506D01*
X181383185Y-69187815D01*
X181286494Y-69108463D01*
X181176180Y-69049498D01*
X181056482Y-69013188D01*
X180932000Y-69000928D01*
X179697513Y-69000928D01*
X179576623Y-68901716D01*
X179379447Y-68796324D01*
X179165499Y-68731423D01*
X178998752Y-68715000D01*
X178998751Y-68715000D01*
X178943000Y-68709509D01*
X178887249Y-68715000D01*
X175021214Y-68715000D01*
X174954851Y-68679528D01*
X174788255Y-68628992D01*
X174615001Y-68611928D01*
X173364999Y-68611928D01*
X173191745Y-68628992D01*
X173025149Y-68679528D01*
X172871613Y-68761595D01*
X172737038Y-68872038D01*
X172626595Y-69006613D01*
X172544528Y-69160149D01*
X172493992Y-69326745D01*
X172476928Y-69499999D01*
X172476928Y-70200001D01*
X172493992Y-70373255D01*
X172544528Y-70539851D01*
X172626595Y-70693387D01*
X172737038Y-70827962D01*
X172871613Y-70938405D01*
X172876111Y-70940809D01*
X172837498Y-70972498D01*
X172683167Y-71160551D01*
X172568489Y-71375099D01*
X172497870Y-71607898D01*
X172474025Y-71850000D01*
X166522000Y-71850000D01*
X166522000Y-48158000D01*
X181554786Y-48158000D01*
X175498564Y-54214223D01*
M02*
