M48
; DRILL file {KiCad 5.1.6+dfsg1-1} date Wed Feb 24 22:01:54 2021
; FORMAT={-:-/ absolute / inch / decimal}
; #@! TF.CreationDate,2021-02-24T22:01:54+01:00
; #@! TF.GenerationSoftware,Kicad,Pcbnew,5.1.6+dfsg1-1
FMAT,2
INCH
T1C0.0157
T2C0.0295
T3C0.0315
T4C0.0354
T5C0.0394
T6C0.0433
T7C0.0472
T8C0.0512
T9C0.0591
%
G90
G05
T1
X7.67Y-2.095
T2
X6.85Y-3.35
X6.85Y-3.4287
X6.85Y-3.5075
X6.85Y-3.5862
X6.85Y-3.665
X6.85Y-3.7437
X6.85Y-2.75
X6.85Y-2.8287
X6.85Y-2.9075
X6.85Y-2.9862
X6.85Y-3.065
X6.85Y-3.1437
X6.85Y-2.15
X6.85Y-2.2287
X6.85Y-2.3075
X6.85Y-2.3862
X6.85Y-2.465
X6.85Y-2.5437
T3
X7.7Y-2.8981
X7.7Y-3.095
X7.8731Y-2.9
X8.07Y-2.9
X8.33Y-2.2
X8.43Y-2.2
X7.7Y-2.395
X7.7Y-2.5919
X8.765Y-3.075
X8.765Y-3.175
X7.76Y-2.205
X7.86Y-2.205
X7.2802Y-1.98
X7.3802Y-1.98
X7.4802Y-1.98
X7.5802Y-1.98
X7.64Y-3.88
X7.6802Y-1.98
X7.74Y-3.88
X7.7802Y-1.98
X7.84Y-3.88
X7.8802Y-1.98
X7.94Y-3.88
X7.9802Y-1.98
X8.04Y-3.88
X8.0802Y-1.98
X8.14Y-3.88
X8.1802Y-1.98
X8.24Y-3.88
X8.34Y-1.98
X8.34Y-3.88
X8.44Y-1.98
X8.54Y-1.98
X8.54Y-3.88
X8.64Y-1.98
X8.64Y-3.88
X8.74Y-1.98
X8.74Y-3.88
X8.84Y-1.98
X8.84Y-3.88
X8.94Y-1.98
X8.94Y-3.88
X9.04Y-1.98
X9.04Y-3.88
X8.72Y-3.63
X8.7987Y-3.63
X7.8731Y-3.61
X8.07Y-3.61
T4
X7.985Y-2.205
X8.085Y-2.205
X8.555Y-2.2
X8.655Y-2.2
X8.765Y-2.85
X8.765Y-2.95
T5
X7.885Y-3.445
X7.935Y-3.245
X7.985Y-3.445
X8.035Y-3.245
X8.085Y-3.445
X8.135Y-3.245
X8.185Y-3.445
X8.235Y-3.245
X8.285Y-3.445
X8.335Y-3.245
X8.385Y-3.445
X8.435Y-3.245
X8.485Y-3.445
X8.535Y-3.245
X8.585Y-3.445
X7.89Y-2.74
X7.94Y-2.54
X7.99Y-2.74
X8.04Y-2.54
X8.09Y-2.74
X8.14Y-2.54
X8.19Y-2.74
X8.24Y-2.54
X8.29Y-2.74
X8.34Y-2.54
X8.39Y-2.74
X8.44Y-2.54
X8.49Y-2.74
X8.54Y-2.54
X8.59Y-2.74
T6
X7.08Y-3.055
X7.48Y-3.055
X7.08Y-3.865
X7.48Y-3.865
X7.08Y-2.785
X7.48Y-2.785
X7.08Y-2.92
X7.48Y-2.92
X7.08Y-3.19
X7.48Y-3.19
X7.08Y-3.595
X7.48Y-3.595
X7.085Y-2.555
X7.485Y-2.555
X7.08Y-3.73
X7.48Y-3.73
X7.085Y-2.285
X7.485Y-2.285
X7.085Y-2.42
X7.485Y-2.42
X7.08Y-3.46
X7.48Y-3.46
X7.085Y-2.15
X7.485Y-2.15
T7
X9.075Y-3.375
X9.075Y-3.475
X9.075Y-3.575
X9.075Y-3.675
T8
X9.035Y-2.66
X9.035Y-3.16
T9
X8.99Y-2.23
X8.99Y-2.43
T0
M30
