G04 #@! TF.GenerationSoftware,KiCad,Pcbnew,5.1.6+dfsg1-1*
G04 #@! TF.CreationDate,2021-02-24T22:01:50+01:00*
G04 #@! TF.ProjectId,motor-control,6d6f746f-722d-4636-9f6e-74726f6c2e6b,rev?*
G04 #@! TF.SameCoordinates,Original*
G04 #@! TF.FileFunction,Soldermask,Top*
G04 #@! TF.FilePolarity,Negative*
%FSLAX46Y46*%
G04 Gerber Fmt 4.6, Leading zero omitted, Abs format (unit mm)*
G04 Created by KiCad (PCBNEW 5.1.6+dfsg1-1) date 2021-02-24 22:01:50*
%MOMM*%
%LPD*%
G01*
G04 APERTURE LIST*
%ADD10C,0.100000*%
G04 APERTURE END LIST*
D10*
G36*
X229864228Y-97733703D02*
G01*
X230019100Y-97797853D01*
X230158481Y-97890985D01*
X230277015Y-98009519D01*
X230370147Y-98148900D01*
X230434297Y-98303772D01*
X230467000Y-98468184D01*
X230467000Y-98635816D01*
X230434297Y-98800228D01*
X230370147Y-98955100D01*
X230277015Y-99094481D01*
X230158481Y-99213015D01*
X230019100Y-99306147D01*
X229864228Y-99370297D01*
X229699816Y-99403000D01*
X229532184Y-99403000D01*
X229367772Y-99370297D01*
X229212900Y-99306147D01*
X229073519Y-99213015D01*
X228954985Y-99094481D01*
X228861853Y-98955100D01*
X228797703Y-98800228D01*
X228765000Y-98635816D01*
X228765000Y-98468184D01*
X228797703Y-98303772D01*
X228861853Y-98148900D01*
X228954985Y-98009519D01*
X229073519Y-97890985D01*
X229212900Y-97797853D01*
X229367772Y-97733703D01*
X229532184Y-97701000D01*
X229699816Y-97701000D01*
X229864228Y-97733703D01*
G37*
G36*
X227324228Y-97733703D02*
G01*
X227479100Y-97797853D01*
X227618481Y-97890985D01*
X227737015Y-98009519D01*
X227830147Y-98148900D01*
X227894297Y-98303772D01*
X227927000Y-98468184D01*
X227927000Y-98635816D01*
X227894297Y-98800228D01*
X227830147Y-98955100D01*
X227737015Y-99094481D01*
X227618481Y-99213015D01*
X227479100Y-99306147D01*
X227324228Y-99370297D01*
X227159816Y-99403000D01*
X226992184Y-99403000D01*
X226827772Y-99370297D01*
X226672900Y-99306147D01*
X226533519Y-99213015D01*
X226414985Y-99094481D01*
X226321853Y-98955100D01*
X226257703Y-98800228D01*
X226225000Y-98635816D01*
X226225000Y-98468184D01*
X226257703Y-98303772D01*
X226321853Y-98148900D01*
X226414985Y-98009519D01*
X226533519Y-97890985D01*
X226672900Y-97797853D01*
X226827772Y-97733703D01*
X226992184Y-97701000D01*
X227159816Y-97701000D01*
X227324228Y-97733703D01*
G37*
G36*
X224784228Y-97733703D02*
G01*
X224939100Y-97797853D01*
X225078481Y-97890985D01*
X225197015Y-98009519D01*
X225290147Y-98148900D01*
X225354297Y-98303772D01*
X225387000Y-98468184D01*
X225387000Y-98635816D01*
X225354297Y-98800228D01*
X225290147Y-98955100D01*
X225197015Y-99094481D01*
X225078481Y-99213015D01*
X224939100Y-99306147D01*
X224784228Y-99370297D01*
X224619816Y-99403000D01*
X224452184Y-99403000D01*
X224287772Y-99370297D01*
X224132900Y-99306147D01*
X223993519Y-99213015D01*
X223874985Y-99094481D01*
X223781853Y-98955100D01*
X223717703Y-98800228D01*
X223685000Y-98635816D01*
X223685000Y-98468184D01*
X223717703Y-98303772D01*
X223781853Y-98148900D01*
X223874985Y-98009519D01*
X223993519Y-97890985D01*
X224132900Y-97797853D01*
X224287772Y-97733703D01*
X224452184Y-97701000D01*
X224619816Y-97701000D01*
X224784228Y-97733703D01*
G37*
G36*
X222244228Y-97733703D02*
G01*
X222399100Y-97797853D01*
X222538481Y-97890985D01*
X222657015Y-98009519D01*
X222750147Y-98148900D01*
X222814297Y-98303772D01*
X222847000Y-98468184D01*
X222847000Y-98635816D01*
X222814297Y-98800228D01*
X222750147Y-98955100D01*
X222657015Y-99094481D01*
X222538481Y-99213015D01*
X222399100Y-99306147D01*
X222244228Y-99370297D01*
X222079816Y-99403000D01*
X221912184Y-99403000D01*
X221747772Y-99370297D01*
X221592900Y-99306147D01*
X221453519Y-99213015D01*
X221334985Y-99094481D01*
X221241853Y-98955100D01*
X221177703Y-98800228D01*
X221145000Y-98635816D01*
X221145000Y-98468184D01*
X221177703Y-98303772D01*
X221241853Y-98148900D01*
X221334985Y-98009519D01*
X221453519Y-97890985D01*
X221592900Y-97797853D01*
X221747772Y-97733703D01*
X221912184Y-97701000D01*
X222079816Y-97701000D01*
X222244228Y-97733703D01*
G37*
G36*
X219704228Y-97733703D02*
G01*
X219859100Y-97797853D01*
X219998481Y-97890985D01*
X220117015Y-98009519D01*
X220210147Y-98148900D01*
X220274297Y-98303772D01*
X220307000Y-98468184D01*
X220307000Y-98635816D01*
X220274297Y-98800228D01*
X220210147Y-98955100D01*
X220117015Y-99094481D01*
X219998481Y-99213015D01*
X219859100Y-99306147D01*
X219704228Y-99370297D01*
X219539816Y-99403000D01*
X219372184Y-99403000D01*
X219207772Y-99370297D01*
X219052900Y-99306147D01*
X218913519Y-99213015D01*
X218794985Y-99094481D01*
X218701853Y-98955100D01*
X218637703Y-98800228D01*
X218605000Y-98635816D01*
X218605000Y-98468184D01*
X218637703Y-98303772D01*
X218701853Y-98148900D01*
X218794985Y-98009519D01*
X218913519Y-97890985D01*
X219052900Y-97797853D01*
X219207772Y-97733703D01*
X219372184Y-97701000D01*
X219539816Y-97701000D01*
X219704228Y-97733703D01*
G37*
G36*
X217164228Y-97733703D02*
G01*
X217319100Y-97797853D01*
X217458481Y-97890985D01*
X217577015Y-98009519D01*
X217670147Y-98148900D01*
X217734297Y-98303772D01*
X217767000Y-98468184D01*
X217767000Y-98635816D01*
X217734297Y-98800228D01*
X217670147Y-98955100D01*
X217577015Y-99094481D01*
X217458481Y-99213015D01*
X217319100Y-99306147D01*
X217164228Y-99370297D01*
X216999816Y-99403000D01*
X216832184Y-99403000D01*
X216667772Y-99370297D01*
X216512900Y-99306147D01*
X216373519Y-99213015D01*
X216254985Y-99094481D01*
X216161853Y-98955100D01*
X216097703Y-98800228D01*
X216065000Y-98635816D01*
X216065000Y-98468184D01*
X216097703Y-98303772D01*
X216161853Y-98148900D01*
X216254985Y-98009519D01*
X216373519Y-97890985D01*
X216512900Y-97797853D01*
X216667772Y-97733703D01*
X216832184Y-97701000D01*
X216999816Y-97701000D01*
X217164228Y-97733703D01*
G37*
G36*
X212084228Y-97733703D02*
G01*
X212239100Y-97797853D01*
X212378481Y-97890985D01*
X212497015Y-98009519D01*
X212590147Y-98148900D01*
X212654297Y-98303772D01*
X212687000Y-98468184D01*
X212687000Y-98635816D01*
X212654297Y-98800228D01*
X212590147Y-98955100D01*
X212497015Y-99094481D01*
X212378481Y-99213015D01*
X212239100Y-99306147D01*
X212084228Y-99370297D01*
X211919816Y-99403000D01*
X211752184Y-99403000D01*
X211587772Y-99370297D01*
X211432900Y-99306147D01*
X211293519Y-99213015D01*
X211174985Y-99094481D01*
X211081853Y-98955100D01*
X211017703Y-98800228D01*
X210985000Y-98635816D01*
X210985000Y-98468184D01*
X211017703Y-98303772D01*
X211081853Y-98148900D01*
X211174985Y-98009519D01*
X211293519Y-97890985D01*
X211432900Y-97797853D01*
X211587772Y-97733703D01*
X211752184Y-97701000D01*
X211919816Y-97701000D01*
X212084228Y-97733703D01*
G37*
G36*
X209544228Y-97733703D02*
G01*
X209699100Y-97797853D01*
X209838481Y-97890985D01*
X209957015Y-98009519D01*
X210050147Y-98148900D01*
X210114297Y-98303772D01*
X210147000Y-98468184D01*
X210147000Y-98635816D01*
X210114297Y-98800228D01*
X210050147Y-98955100D01*
X209957015Y-99094481D01*
X209838481Y-99213015D01*
X209699100Y-99306147D01*
X209544228Y-99370297D01*
X209379816Y-99403000D01*
X209212184Y-99403000D01*
X209047772Y-99370297D01*
X208892900Y-99306147D01*
X208753519Y-99213015D01*
X208634985Y-99094481D01*
X208541853Y-98955100D01*
X208477703Y-98800228D01*
X208445000Y-98635816D01*
X208445000Y-98468184D01*
X208477703Y-98303772D01*
X208541853Y-98148900D01*
X208634985Y-98009519D01*
X208753519Y-97890985D01*
X208892900Y-97797853D01*
X209047772Y-97733703D01*
X209212184Y-97701000D01*
X209379816Y-97701000D01*
X209544228Y-97733703D01*
G37*
G36*
X204464228Y-97733703D02*
G01*
X204619100Y-97797853D01*
X204758481Y-97890985D01*
X204877015Y-98009519D01*
X204970147Y-98148900D01*
X205034297Y-98303772D01*
X205067000Y-98468184D01*
X205067000Y-98635816D01*
X205034297Y-98800228D01*
X204970147Y-98955100D01*
X204877015Y-99094481D01*
X204758481Y-99213015D01*
X204619100Y-99306147D01*
X204464228Y-99370297D01*
X204299816Y-99403000D01*
X204132184Y-99403000D01*
X203967772Y-99370297D01*
X203812900Y-99306147D01*
X203673519Y-99213015D01*
X203554985Y-99094481D01*
X203461853Y-98955100D01*
X203397703Y-98800228D01*
X203365000Y-98635816D01*
X203365000Y-98468184D01*
X203397703Y-98303772D01*
X203461853Y-98148900D01*
X203554985Y-98009519D01*
X203673519Y-97890985D01*
X203812900Y-97797853D01*
X203967772Y-97733703D01*
X204132184Y-97701000D01*
X204299816Y-97701000D01*
X204464228Y-97733703D01*
G37*
G36*
X201924228Y-97733703D02*
G01*
X202079100Y-97797853D01*
X202218481Y-97890985D01*
X202337015Y-98009519D01*
X202430147Y-98148900D01*
X202494297Y-98303772D01*
X202527000Y-98468184D01*
X202527000Y-98635816D01*
X202494297Y-98800228D01*
X202430147Y-98955100D01*
X202337015Y-99094481D01*
X202218481Y-99213015D01*
X202079100Y-99306147D01*
X201924228Y-99370297D01*
X201759816Y-99403000D01*
X201592184Y-99403000D01*
X201427772Y-99370297D01*
X201272900Y-99306147D01*
X201133519Y-99213015D01*
X201014985Y-99094481D01*
X200921853Y-98955100D01*
X200857703Y-98800228D01*
X200825000Y-98635816D01*
X200825000Y-98468184D01*
X200857703Y-98303772D01*
X200921853Y-98148900D01*
X201014985Y-98009519D01*
X201133519Y-97890985D01*
X201272900Y-97797853D01*
X201427772Y-97733703D01*
X201592184Y-97701000D01*
X201759816Y-97701000D01*
X201924228Y-97733703D01*
G37*
G36*
X199384228Y-97733703D02*
G01*
X199539100Y-97797853D01*
X199678481Y-97890985D01*
X199797015Y-98009519D01*
X199890147Y-98148900D01*
X199954297Y-98303772D01*
X199987000Y-98468184D01*
X199987000Y-98635816D01*
X199954297Y-98800228D01*
X199890147Y-98955100D01*
X199797015Y-99094481D01*
X199678481Y-99213015D01*
X199539100Y-99306147D01*
X199384228Y-99370297D01*
X199219816Y-99403000D01*
X199052184Y-99403000D01*
X198887772Y-99370297D01*
X198732900Y-99306147D01*
X198593519Y-99213015D01*
X198474985Y-99094481D01*
X198381853Y-98955100D01*
X198317703Y-98800228D01*
X198285000Y-98635816D01*
X198285000Y-98468184D01*
X198317703Y-98303772D01*
X198381853Y-98148900D01*
X198474985Y-98009519D01*
X198593519Y-97890985D01*
X198732900Y-97797853D01*
X198887772Y-97733703D01*
X199052184Y-97701000D01*
X199219816Y-97701000D01*
X199384228Y-97733703D01*
G37*
G36*
X196844228Y-97733703D02*
G01*
X196999100Y-97797853D01*
X197138481Y-97890985D01*
X197257015Y-98009519D01*
X197350147Y-98148900D01*
X197414297Y-98303772D01*
X197447000Y-98468184D01*
X197447000Y-98635816D01*
X197414297Y-98800228D01*
X197350147Y-98955100D01*
X197257015Y-99094481D01*
X197138481Y-99213015D01*
X196999100Y-99306147D01*
X196844228Y-99370297D01*
X196679816Y-99403000D01*
X196512184Y-99403000D01*
X196347772Y-99370297D01*
X196192900Y-99306147D01*
X196053519Y-99213015D01*
X195934985Y-99094481D01*
X195841853Y-98955100D01*
X195777703Y-98800228D01*
X195745000Y-98635816D01*
X195745000Y-98468184D01*
X195777703Y-98303772D01*
X195841853Y-98148900D01*
X195934985Y-98009519D01*
X196053519Y-97890985D01*
X196192900Y-97797853D01*
X196347772Y-97733703D01*
X196512184Y-97701000D01*
X196679816Y-97701000D01*
X196844228Y-97733703D01*
G37*
G36*
X194907000Y-99403000D02*
G01*
X193205000Y-99403000D01*
X193205000Y-97701000D01*
X194907000Y-97701000D01*
X194907000Y-99403000D01*
G37*
G36*
X207004228Y-97733703D02*
G01*
X207159100Y-97797853D01*
X207298481Y-97890985D01*
X207417015Y-98009519D01*
X207510147Y-98148900D01*
X207574297Y-98303772D01*
X207607000Y-98468184D01*
X207607000Y-98635816D01*
X207574297Y-98800228D01*
X207510147Y-98955100D01*
X207417015Y-99094481D01*
X207298481Y-99213015D01*
X207159100Y-99306147D01*
X207004228Y-99370297D01*
X206839816Y-99403000D01*
X206672184Y-99403000D01*
X206507772Y-99370297D01*
X206352900Y-99306147D01*
X206213519Y-99213015D01*
X206094985Y-99094481D01*
X206001853Y-98955100D01*
X205937703Y-98800228D01*
X205905000Y-98635816D01*
X205905000Y-98468184D01*
X205937703Y-98303772D01*
X206001853Y-98148900D01*
X206094985Y-98009519D01*
X206213519Y-97890985D01*
X206352900Y-97797853D01*
X206507772Y-97733703D01*
X206672184Y-97701000D01*
X206839816Y-97701000D01*
X207004228Y-97733703D01*
G37*
G36*
X191143000Y-99322000D02*
G01*
X188841000Y-99322000D01*
X188841000Y-97020000D01*
X191143000Y-97020000D01*
X191143000Y-99322000D01*
G37*
G36*
X180056549Y-97042116D02*
G01*
X180167734Y-97064232D01*
X180377203Y-97150997D01*
X180565720Y-97276960D01*
X180726040Y-97437280D01*
X180852003Y-97625797D01*
X180938768Y-97835266D01*
X180983000Y-98057636D01*
X180983000Y-98284364D01*
X180938768Y-98506734D01*
X180852003Y-98716203D01*
X180726040Y-98904720D01*
X180565720Y-99065040D01*
X180377203Y-99191003D01*
X180167734Y-99277768D01*
X180056549Y-99299884D01*
X179945365Y-99322000D01*
X179718635Y-99322000D01*
X179607451Y-99299884D01*
X179496266Y-99277768D01*
X179286797Y-99191003D01*
X179098280Y-99065040D01*
X178937960Y-98904720D01*
X178811997Y-98716203D01*
X178725232Y-98506734D01*
X178681000Y-98284364D01*
X178681000Y-98057636D01*
X178725232Y-97835266D01*
X178811997Y-97625797D01*
X178937960Y-97437280D01*
X179098280Y-97276960D01*
X179286797Y-97150997D01*
X179496266Y-97064232D01*
X179607451Y-97042116D01*
X179718635Y-97020000D01*
X179945365Y-97020000D01*
X180056549Y-97042116D01*
G37*
G36*
X180983000Y-95893000D02*
G01*
X178681000Y-95893000D01*
X178681000Y-93591000D01*
X180983000Y-93591000D01*
X180983000Y-95893000D01*
G37*
G36*
X190216549Y-93613116D02*
G01*
X190327734Y-93635232D01*
X190537203Y-93721997D01*
X190725720Y-93847960D01*
X190886040Y-94008280D01*
X190985667Y-94157383D01*
X191012004Y-94196799D01*
X191098768Y-94406267D01*
X191142764Y-94627447D01*
X191143000Y-94628636D01*
X191143000Y-94855364D01*
X191098768Y-95077734D01*
X191012003Y-95287203D01*
X190886040Y-95475720D01*
X190725720Y-95636040D01*
X190537203Y-95762003D01*
X190327734Y-95848768D01*
X190216549Y-95870884D01*
X190105365Y-95893000D01*
X189878635Y-95893000D01*
X189767451Y-95870884D01*
X189656266Y-95848768D01*
X189446797Y-95762003D01*
X189258280Y-95636040D01*
X189097960Y-95475720D01*
X188971997Y-95287203D01*
X188885232Y-95077734D01*
X188841000Y-94855364D01*
X188841000Y-94628636D01*
X188841237Y-94627447D01*
X188885232Y-94406267D01*
X188971996Y-94196799D01*
X188998333Y-94157383D01*
X189097960Y-94008280D01*
X189258280Y-93847960D01*
X189446797Y-93721997D01*
X189656266Y-93635232D01*
X189767451Y-93613116D01*
X189878635Y-93591000D01*
X190105365Y-93591000D01*
X190216549Y-93613116D01*
G37*
G36*
X174328855Y-94442140D02*
G01*
X174392618Y-94448420D01*
X174483404Y-94475960D01*
X174515336Y-94485646D01*
X174628425Y-94546094D01*
X174727554Y-94627446D01*
X174808906Y-94726575D01*
X174869354Y-94839664D01*
X174869355Y-94839668D01*
X174906580Y-94962382D01*
X174919149Y-95090000D01*
X174906580Y-95217618D01*
X174879040Y-95308404D01*
X174869354Y-95340336D01*
X174808906Y-95453425D01*
X174727554Y-95552554D01*
X174628425Y-95633906D01*
X174515336Y-95694354D01*
X174483404Y-95704040D01*
X174392618Y-95731580D01*
X174328855Y-95737860D01*
X174296974Y-95741000D01*
X173683026Y-95741000D01*
X173651145Y-95737860D01*
X173587382Y-95731580D01*
X173496596Y-95704040D01*
X173464664Y-95694354D01*
X173351575Y-95633906D01*
X173252446Y-95552554D01*
X173171094Y-95453425D01*
X173110646Y-95340336D01*
X173100960Y-95308404D01*
X173073420Y-95217618D01*
X173060851Y-95090000D01*
X173073420Y-94962382D01*
X173110645Y-94839668D01*
X173110646Y-94839664D01*
X173171094Y-94726575D01*
X173252446Y-94627446D01*
X173351575Y-94546094D01*
X173464664Y-94485646D01*
X173496596Y-94475960D01*
X173587382Y-94448420D01*
X173651145Y-94442140D01*
X173683026Y-94439000D01*
X174296974Y-94439000D01*
X174328855Y-94442140D01*
G37*
G36*
X231514561Y-92427966D02*
G01*
X231547383Y-92437923D01*
X231577632Y-92454092D01*
X231604148Y-92475852D01*
X231625908Y-92502368D01*
X231642077Y-92532617D01*
X231652034Y-92565439D01*
X231656000Y-92605713D01*
X231656000Y-94084287D01*
X231652034Y-94124561D01*
X231642077Y-94157383D01*
X231625908Y-94187632D01*
X231604148Y-94214148D01*
X231577632Y-94235908D01*
X231547383Y-94252077D01*
X231514561Y-94262034D01*
X231474287Y-94266000D01*
X229535713Y-94266000D01*
X229495439Y-94262034D01*
X229462617Y-94252077D01*
X229432368Y-94235908D01*
X229405852Y-94214148D01*
X229384092Y-94187632D01*
X229367923Y-94157383D01*
X229357966Y-94124561D01*
X229354000Y-94084287D01*
X229354000Y-92605713D01*
X229357966Y-92565439D01*
X229367923Y-92532617D01*
X229384092Y-92502368D01*
X229405852Y-92475852D01*
X229432368Y-92454092D01*
X229462617Y-92437923D01*
X229495439Y-92427966D01*
X229535713Y-92424000D01*
X231474287Y-92424000D01*
X231514561Y-92427966D01*
G37*
G36*
X174328855Y-92442140D02*
G01*
X174392618Y-92448420D01*
X174483049Y-92475852D01*
X174515336Y-92485646D01*
X174628425Y-92546094D01*
X174727554Y-92627446D01*
X174808906Y-92726575D01*
X174869354Y-92839664D01*
X174869355Y-92839668D01*
X174906580Y-92962382D01*
X174919149Y-93090000D01*
X174906580Y-93217618D01*
X174879040Y-93308404D01*
X174869354Y-93340336D01*
X174808906Y-93453425D01*
X174727554Y-93552554D01*
X174628425Y-93633906D01*
X174515336Y-93694354D01*
X174483404Y-93704040D01*
X174392618Y-93731580D01*
X174328855Y-93737860D01*
X174296974Y-93741000D01*
X173683026Y-93741000D01*
X173651145Y-93737860D01*
X173587382Y-93731580D01*
X173496596Y-93704040D01*
X173464664Y-93694354D01*
X173351575Y-93633906D01*
X173252446Y-93552554D01*
X173171094Y-93453425D01*
X173110646Y-93340336D01*
X173100960Y-93308404D01*
X173073420Y-93217618D01*
X173060851Y-93090000D01*
X173073420Y-92962382D01*
X173110645Y-92839668D01*
X173110646Y-92839664D01*
X173171094Y-92726575D01*
X173252446Y-92627446D01*
X173351575Y-92546094D01*
X173464664Y-92485646D01*
X173496951Y-92475852D01*
X173587382Y-92448420D01*
X173651145Y-92442140D01*
X173683026Y-92439000D01*
X174296974Y-92439000D01*
X174328855Y-92442140D01*
G37*
G36*
X222339000Y-93053000D02*
G01*
X220637000Y-93053000D01*
X220637000Y-91351000D01*
X222339000Y-91351000D01*
X222339000Y-93053000D01*
G37*
G36*
X223736228Y-91383703D02*
G01*
X223891100Y-91447853D01*
X224030481Y-91540985D01*
X224149015Y-91659519D01*
X224242147Y-91798900D01*
X224306297Y-91953772D01*
X224339000Y-92118184D01*
X224339000Y-92285816D01*
X224306297Y-92450228D01*
X224242147Y-92605100D01*
X224149015Y-92744481D01*
X224030481Y-92863015D01*
X223891100Y-92956147D01*
X223736228Y-93020297D01*
X223571816Y-93053000D01*
X223404184Y-93053000D01*
X223239772Y-93020297D01*
X223084900Y-92956147D01*
X222945519Y-92863015D01*
X222826985Y-92744481D01*
X222733853Y-92605100D01*
X222669703Y-92450228D01*
X222637000Y-92285816D01*
X222637000Y-92118184D01*
X222669703Y-91953772D01*
X222733853Y-91798900D01*
X222826985Y-91659519D01*
X222945519Y-91540985D01*
X223084900Y-91447853D01*
X223239772Y-91383703D01*
X223404184Y-91351000D01*
X223571816Y-91351000D01*
X223736228Y-91383703D01*
G37*
G36*
X205226228Y-90875703D02*
G01*
X205381100Y-90939853D01*
X205520481Y-91032985D01*
X205639015Y-91151519D01*
X205732147Y-91290900D01*
X205796297Y-91445772D01*
X205829000Y-91610184D01*
X205829000Y-91777816D01*
X205796297Y-91942228D01*
X205732147Y-92097100D01*
X205639015Y-92236481D01*
X205520481Y-92355015D01*
X205381100Y-92448147D01*
X205226228Y-92512297D01*
X205061816Y-92545000D01*
X204894184Y-92545000D01*
X204729772Y-92512297D01*
X204574900Y-92448147D01*
X204435519Y-92355015D01*
X204316985Y-92236481D01*
X204223853Y-92097100D01*
X204159703Y-91942228D01*
X204127000Y-91777816D01*
X204127000Y-91610184D01*
X204159703Y-91445772D01*
X204223853Y-91290900D01*
X204316985Y-91151519D01*
X204435519Y-91032985D01*
X204574900Y-90939853D01*
X204729772Y-90875703D01*
X204894184Y-90843000D01*
X205061816Y-90843000D01*
X205226228Y-90875703D01*
G37*
G36*
X200226228Y-90875703D02*
G01*
X200381100Y-90939853D01*
X200520481Y-91032985D01*
X200639015Y-91151519D01*
X200732147Y-91290900D01*
X200796297Y-91445772D01*
X200829000Y-91610184D01*
X200829000Y-91777816D01*
X200796297Y-91942228D01*
X200732147Y-92097100D01*
X200639015Y-92236481D01*
X200520481Y-92355015D01*
X200381100Y-92448147D01*
X200226228Y-92512297D01*
X200061816Y-92545000D01*
X199894184Y-92545000D01*
X199729772Y-92512297D01*
X199574900Y-92448147D01*
X199435519Y-92355015D01*
X199316985Y-92236481D01*
X199223853Y-92097100D01*
X199159703Y-91942228D01*
X199127000Y-91777816D01*
X199127000Y-91610184D01*
X199159703Y-91445772D01*
X199223853Y-91290900D01*
X199316985Y-91151519D01*
X199435519Y-91032985D01*
X199574900Y-90939853D01*
X199729772Y-90875703D01*
X199894184Y-90843000D01*
X200061816Y-90843000D01*
X200226228Y-90875703D01*
G37*
G36*
X180056549Y-90184116D02*
G01*
X180167734Y-90206232D01*
X180315850Y-90267584D01*
X180372006Y-90290844D01*
X180377203Y-90292997D01*
X180565720Y-90418960D01*
X180726040Y-90579280D01*
X180852003Y-90767797D01*
X180938768Y-90977266D01*
X180983000Y-91199636D01*
X180983000Y-91426364D01*
X180938768Y-91648734D01*
X180852003Y-91858203D01*
X180726040Y-92046720D01*
X180565720Y-92207040D01*
X180377203Y-92333003D01*
X180167734Y-92419768D01*
X180120894Y-92429085D01*
X179945365Y-92464000D01*
X179718635Y-92464000D01*
X179543106Y-92429085D01*
X179496266Y-92419768D01*
X179286797Y-92333003D01*
X179098280Y-92207040D01*
X178937960Y-92046720D01*
X178811997Y-91858203D01*
X178725232Y-91648734D01*
X178681000Y-91426364D01*
X178681000Y-91199636D01*
X178725232Y-90977266D01*
X178811997Y-90767797D01*
X178937960Y-90579280D01*
X179098280Y-90418960D01*
X179286797Y-90292997D01*
X179291995Y-90290844D01*
X179348150Y-90267584D01*
X179496266Y-90206232D01*
X179607451Y-90184116D01*
X179718635Y-90162000D01*
X179945365Y-90162000D01*
X180056549Y-90184116D01*
G37*
G36*
X191143000Y-92464000D02*
G01*
X188841000Y-92464000D01*
X188841000Y-90162000D01*
X191143000Y-90162000D01*
X191143000Y-92464000D01*
G37*
G36*
X174328855Y-90442140D02*
G01*
X174392618Y-90448420D01*
X174483404Y-90475960D01*
X174515336Y-90485646D01*
X174628425Y-90546094D01*
X174727554Y-90627446D01*
X174808906Y-90726575D01*
X174869354Y-90839664D01*
X174869355Y-90839668D01*
X174906580Y-90962382D01*
X174919149Y-91090000D01*
X174906580Y-91217618D01*
X174884350Y-91290900D01*
X174869354Y-91340336D01*
X174808906Y-91453425D01*
X174727554Y-91552554D01*
X174628425Y-91633906D01*
X174515336Y-91694354D01*
X174483404Y-91704040D01*
X174392618Y-91731580D01*
X174328855Y-91737860D01*
X174296974Y-91741000D01*
X173683026Y-91741000D01*
X173651145Y-91737860D01*
X173587382Y-91731580D01*
X173496596Y-91704040D01*
X173464664Y-91694354D01*
X173351575Y-91633906D01*
X173252446Y-91552554D01*
X173171094Y-91453425D01*
X173110646Y-91340336D01*
X173095650Y-91290900D01*
X173073420Y-91217618D01*
X173060851Y-91090000D01*
X173073420Y-90962382D01*
X173110645Y-90839668D01*
X173110646Y-90839664D01*
X173171094Y-90726575D01*
X173252446Y-90627446D01*
X173351575Y-90546094D01*
X173464664Y-90485646D01*
X173496596Y-90475960D01*
X173587382Y-90448420D01*
X173651145Y-90442140D01*
X173683026Y-90439000D01*
X174296974Y-90439000D01*
X174328855Y-90442140D01*
G37*
G36*
X230825345Y-89888442D02*
G01*
X230915548Y-89897326D01*
X231089157Y-89949990D01*
X231249156Y-90035511D01*
X231292729Y-90071271D01*
X231389397Y-90150603D01*
X231468729Y-90247271D01*
X231504489Y-90290844D01*
X231590010Y-90450843D01*
X231642674Y-90624452D01*
X231660456Y-90805000D01*
X231642674Y-90985548D01*
X231590010Y-91159157D01*
X231504489Y-91319156D01*
X231478355Y-91351000D01*
X231389397Y-91459397D01*
X231292729Y-91538729D01*
X231249156Y-91574489D01*
X231089157Y-91660010D01*
X230915548Y-91712674D01*
X230825345Y-91721558D01*
X230780245Y-91726000D01*
X230229755Y-91726000D01*
X230184655Y-91721558D01*
X230094452Y-91712674D01*
X229920843Y-91660010D01*
X229760844Y-91574489D01*
X229717271Y-91538729D01*
X229620603Y-91459397D01*
X229531645Y-91351000D01*
X229505511Y-91319156D01*
X229419990Y-91159157D01*
X229367326Y-90985548D01*
X229349544Y-90805000D01*
X229367326Y-90624452D01*
X229419990Y-90450843D01*
X229505511Y-90290844D01*
X229541271Y-90247271D01*
X229620603Y-90150603D01*
X229717271Y-90071271D01*
X229760844Y-90035511D01*
X229920843Y-89949990D01*
X230094452Y-89897326D01*
X230184655Y-89888442D01*
X230229755Y-89884000D01*
X230780245Y-89884000D01*
X230825345Y-89888442D01*
G37*
G36*
X174328855Y-88442140D02*
G01*
X174392618Y-88448420D01*
X174483404Y-88475960D01*
X174515336Y-88485646D01*
X174628425Y-88546094D01*
X174727554Y-88627446D01*
X174808906Y-88726575D01*
X174869354Y-88839664D01*
X174869355Y-88839668D01*
X174906580Y-88962382D01*
X174919149Y-89090000D01*
X174906580Y-89217618D01*
X174879040Y-89308404D01*
X174869354Y-89340336D01*
X174808906Y-89453425D01*
X174727554Y-89552554D01*
X174628425Y-89633906D01*
X174515336Y-89694354D01*
X174483404Y-89704040D01*
X174392618Y-89731580D01*
X174328855Y-89737860D01*
X174296974Y-89741000D01*
X173683026Y-89741000D01*
X173651145Y-89737860D01*
X173587382Y-89731580D01*
X173496596Y-89704040D01*
X173464664Y-89694354D01*
X173351575Y-89633906D01*
X173252446Y-89552554D01*
X173171094Y-89453425D01*
X173110646Y-89340336D01*
X173100960Y-89308404D01*
X173073420Y-89217618D01*
X173060851Y-89090000D01*
X173073420Y-88962382D01*
X173110645Y-88839668D01*
X173110646Y-88839664D01*
X173171094Y-88726575D01*
X173252446Y-88627446D01*
X173351575Y-88546094D01*
X173464664Y-88485646D01*
X173496596Y-88475960D01*
X173587382Y-88448420D01*
X173651145Y-88442140D01*
X173683026Y-88439000D01*
X174296974Y-88439000D01*
X174328855Y-88442140D01*
G37*
G36*
X230825345Y-87348442D02*
G01*
X230915548Y-87357326D01*
X231089157Y-87409990D01*
X231249156Y-87495511D01*
X231292729Y-87531271D01*
X231389397Y-87610603D01*
X231468729Y-87707271D01*
X231504489Y-87750844D01*
X231590010Y-87910843D01*
X231642674Y-88084452D01*
X231660456Y-88265000D01*
X231642674Y-88445548D01*
X231590010Y-88619157D01*
X231504489Y-88779156D01*
X231468729Y-88822729D01*
X231389397Y-88919397D01*
X231302430Y-88990768D01*
X231249156Y-89034489D01*
X231089157Y-89120010D01*
X230915548Y-89172674D01*
X230825345Y-89181558D01*
X230780245Y-89186000D01*
X230229755Y-89186000D01*
X230184655Y-89181558D01*
X230094452Y-89172674D01*
X229920843Y-89120010D01*
X229760844Y-89034489D01*
X229707570Y-88990768D01*
X229620603Y-88919397D01*
X229541271Y-88822729D01*
X229505511Y-88779156D01*
X229419990Y-88619157D01*
X229367326Y-88445548D01*
X229349544Y-88265000D01*
X229367326Y-88084452D01*
X229419990Y-87910843D01*
X229505511Y-87750844D01*
X229541271Y-87707271D01*
X229620603Y-87610603D01*
X229717271Y-87531271D01*
X229760844Y-87495511D01*
X229920843Y-87409990D01*
X230094452Y-87357326D01*
X230184655Y-87348442D01*
X230229755Y-87344000D01*
X230780245Y-87344000D01*
X230825345Y-87348442D01*
G37*
G36*
X180983000Y-89035000D02*
G01*
X178681000Y-89035000D01*
X178681000Y-86733000D01*
X180983000Y-86733000D01*
X180983000Y-89035000D01*
G37*
G36*
X190216549Y-86755116D02*
G01*
X190327734Y-86777232D01*
X190537203Y-86863997D01*
X190725720Y-86989960D01*
X190886040Y-87150280D01*
X191012003Y-87338797D01*
X191012004Y-87338799D01*
X191014158Y-87344000D01*
X191098768Y-87548266D01*
X191111168Y-87610604D01*
X191139064Y-87750845D01*
X191143000Y-87770636D01*
X191143000Y-87997364D01*
X191098768Y-88219734D01*
X191012003Y-88429203D01*
X190886040Y-88617720D01*
X190725720Y-88778040D01*
X190537203Y-88904003D01*
X190327734Y-88990768D01*
X190216549Y-89012884D01*
X190105365Y-89035000D01*
X189878635Y-89035000D01*
X189767451Y-89012884D01*
X189656266Y-88990768D01*
X189446797Y-88904003D01*
X189258280Y-88778040D01*
X189097960Y-88617720D01*
X188971997Y-88429203D01*
X188885232Y-88219734D01*
X188841000Y-87997364D01*
X188841000Y-87770636D01*
X188844937Y-87750845D01*
X188872832Y-87610604D01*
X188885232Y-87548266D01*
X188969842Y-87344000D01*
X188971996Y-87338799D01*
X188971997Y-87338797D01*
X189097960Y-87150280D01*
X189258280Y-86989960D01*
X189446797Y-86863997D01*
X189656266Y-86777232D01*
X189767451Y-86755116D01*
X189878635Y-86733000D01*
X190105365Y-86733000D01*
X190216549Y-86755116D01*
G37*
G36*
X208176395Y-86588546D02*
G01*
X208349466Y-86660234D01*
X208349467Y-86660235D01*
X208505227Y-86764310D01*
X208637690Y-86896773D01*
X208637691Y-86896775D01*
X208741766Y-87052534D01*
X208813454Y-87225605D01*
X208850000Y-87409333D01*
X208850000Y-87596667D01*
X208813454Y-87780395D01*
X208741766Y-87953466D01*
X208690081Y-88030818D01*
X208637690Y-88109227D01*
X208505227Y-88241690D01*
X208470341Y-88265000D01*
X208349466Y-88345766D01*
X208176395Y-88417454D01*
X207992667Y-88454000D01*
X207805333Y-88454000D01*
X207621605Y-88417454D01*
X207448534Y-88345766D01*
X207327659Y-88265000D01*
X207292773Y-88241690D01*
X207160310Y-88109227D01*
X207107919Y-88030818D01*
X207056234Y-87953466D01*
X206984546Y-87780395D01*
X206948000Y-87596667D01*
X206948000Y-87409333D01*
X206984546Y-87225605D01*
X207056234Y-87052534D01*
X207160309Y-86896775D01*
X207160310Y-86896773D01*
X207292773Y-86764310D01*
X207448533Y-86660235D01*
X207448534Y-86660234D01*
X207621605Y-86588546D01*
X207805333Y-86552000D01*
X207992667Y-86552000D01*
X208176395Y-86588546D01*
G37*
G36*
X203096395Y-86588546D02*
G01*
X203269466Y-86660234D01*
X203269467Y-86660235D01*
X203425227Y-86764310D01*
X203557690Y-86896773D01*
X203557691Y-86896775D01*
X203661766Y-87052534D01*
X203733454Y-87225605D01*
X203770000Y-87409333D01*
X203770000Y-87596667D01*
X203733454Y-87780395D01*
X203661766Y-87953466D01*
X203610081Y-88030818D01*
X203557690Y-88109227D01*
X203425227Y-88241690D01*
X203390341Y-88265000D01*
X203269466Y-88345766D01*
X203096395Y-88417454D01*
X202912667Y-88454000D01*
X202725333Y-88454000D01*
X202541605Y-88417454D01*
X202368534Y-88345766D01*
X202247659Y-88265000D01*
X202212773Y-88241690D01*
X202080310Y-88109227D01*
X202027919Y-88030818D01*
X201976234Y-87953466D01*
X201904546Y-87780395D01*
X201868000Y-87596667D01*
X201868000Y-87409333D01*
X201904546Y-87225605D01*
X201976234Y-87052534D01*
X202080309Y-86896775D01*
X202080310Y-86896773D01*
X202212773Y-86764310D01*
X202368533Y-86660235D01*
X202368534Y-86660234D01*
X202541605Y-86588546D01*
X202725333Y-86552000D01*
X202912667Y-86552000D01*
X203096395Y-86588546D01*
G37*
G36*
X205636395Y-86588546D02*
G01*
X205809466Y-86660234D01*
X205809467Y-86660235D01*
X205965227Y-86764310D01*
X206097690Y-86896773D01*
X206097691Y-86896775D01*
X206201766Y-87052534D01*
X206273454Y-87225605D01*
X206310000Y-87409333D01*
X206310000Y-87596667D01*
X206273454Y-87780395D01*
X206201766Y-87953466D01*
X206150081Y-88030818D01*
X206097690Y-88109227D01*
X205965227Y-88241690D01*
X205930341Y-88265000D01*
X205809466Y-88345766D01*
X205636395Y-88417454D01*
X205452667Y-88454000D01*
X205265333Y-88454000D01*
X205081605Y-88417454D01*
X204908534Y-88345766D01*
X204787659Y-88265000D01*
X204752773Y-88241690D01*
X204620310Y-88109227D01*
X204567919Y-88030818D01*
X204516234Y-87953466D01*
X204444546Y-87780395D01*
X204408000Y-87596667D01*
X204408000Y-87409333D01*
X204444546Y-87225605D01*
X204516234Y-87052534D01*
X204620309Y-86896775D01*
X204620310Y-86896773D01*
X204752773Y-86764310D01*
X204908533Y-86660235D01*
X204908534Y-86660234D01*
X205081605Y-86588546D01*
X205265333Y-86552000D01*
X205452667Y-86552000D01*
X205636395Y-86588546D01*
G37*
G36*
X210716395Y-86588546D02*
G01*
X210889466Y-86660234D01*
X210889467Y-86660235D01*
X211045227Y-86764310D01*
X211177690Y-86896773D01*
X211177691Y-86896775D01*
X211281766Y-87052534D01*
X211353454Y-87225605D01*
X211390000Y-87409333D01*
X211390000Y-87596667D01*
X211353454Y-87780395D01*
X211281766Y-87953466D01*
X211230081Y-88030818D01*
X211177690Y-88109227D01*
X211045227Y-88241690D01*
X211010341Y-88265000D01*
X210889466Y-88345766D01*
X210716395Y-88417454D01*
X210532667Y-88454000D01*
X210345333Y-88454000D01*
X210161605Y-88417454D01*
X209988534Y-88345766D01*
X209867659Y-88265000D01*
X209832773Y-88241690D01*
X209700310Y-88109227D01*
X209647919Y-88030818D01*
X209596234Y-87953466D01*
X209524546Y-87780395D01*
X209488000Y-87596667D01*
X209488000Y-87409333D01*
X209524546Y-87225605D01*
X209596234Y-87052534D01*
X209700309Y-86896775D01*
X209700310Y-86896773D01*
X209832773Y-86764310D01*
X209988533Y-86660235D01*
X209988534Y-86660234D01*
X210161605Y-86588546D01*
X210345333Y-86552000D01*
X210532667Y-86552000D01*
X210716395Y-86588546D01*
G37*
G36*
X215796395Y-86588546D02*
G01*
X215969466Y-86660234D01*
X215969467Y-86660235D01*
X216125227Y-86764310D01*
X216257690Y-86896773D01*
X216257691Y-86896775D01*
X216361766Y-87052534D01*
X216433454Y-87225605D01*
X216470000Y-87409333D01*
X216470000Y-87596667D01*
X216433454Y-87780395D01*
X216361766Y-87953466D01*
X216310081Y-88030818D01*
X216257690Y-88109227D01*
X216125227Y-88241690D01*
X216090341Y-88265000D01*
X215969466Y-88345766D01*
X215796395Y-88417454D01*
X215612667Y-88454000D01*
X215425333Y-88454000D01*
X215241605Y-88417454D01*
X215068534Y-88345766D01*
X214947659Y-88265000D01*
X214912773Y-88241690D01*
X214780310Y-88109227D01*
X214727919Y-88030818D01*
X214676234Y-87953466D01*
X214604546Y-87780395D01*
X214568000Y-87596667D01*
X214568000Y-87409333D01*
X214604546Y-87225605D01*
X214676234Y-87052534D01*
X214780309Y-86896775D01*
X214780310Y-86896773D01*
X214912773Y-86764310D01*
X215068533Y-86660235D01*
X215068534Y-86660234D01*
X215241605Y-86588546D01*
X215425333Y-86552000D01*
X215612667Y-86552000D01*
X215796395Y-86588546D01*
G37*
G36*
X218336395Y-86588546D02*
G01*
X218509466Y-86660234D01*
X218509467Y-86660235D01*
X218665227Y-86764310D01*
X218797690Y-86896773D01*
X218797691Y-86896775D01*
X218901766Y-87052534D01*
X218973454Y-87225605D01*
X219010000Y-87409333D01*
X219010000Y-87596667D01*
X218973454Y-87780395D01*
X218901766Y-87953466D01*
X218850081Y-88030818D01*
X218797690Y-88109227D01*
X218665227Y-88241690D01*
X218630341Y-88265000D01*
X218509466Y-88345766D01*
X218336395Y-88417454D01*
X218152667Y-88454000D01*
X217965333Y-88454000D01*
X217781605Y-88417454D01*
X217608534Y-88345766D01*
X217487659Y-88265000D01*
X217452773Y-88241690D01*
X217320310Y-88109227D01*
X217267919Y-88030818D01*
X217216234Y-87953466D01*
X217144546Y-87780395D01*
X217108000Y-87596667D01*
X217108000Y-87409333D01*
X217144546Y-87225605D01*
X217216234Y-87052534D01*
X217320309Y-86896775D01*
X217320310Y-86896773D01*
X217452773Y-86764310D01*
X217608533Y-86660235D01*
X217608534Y-86660234D01*
X217781605Y-86588546D01*
X217965333Y-86552000D01*
X218152667Y-86552000D01*
X218336395Y-86588546D01*
G37*
G36*
X201230000Y-88454000D02*
G01*
X199328000Y-88454000D01*
X199328000Y-86552000D01*
X201230000Y-86552000D01*
X201230000Y-88454000D01*
G37*
G36*
X213256395Y-86588546D02*
G01*
X213429466Y-86660234D01*
X213429467Y-86660235D01*
X213585227Y-86764310D01*
X213717690Y-86896773D01*
X213717691Y-86896775D01*
X213821766Y-87052534D01*
X213893454Y-87225605D01*
X213930000Y-87409333D01*
X213930000Y-87596667D01*
X213893454Y-87780395D01*
X213821766Y-87953466D01*
X213770081Y-88030818D01*
X213717690Y-88109227D01*
X213585227Y-88241690D01*
X213550341Y-88265000D01*
X213429466Y-88345766D01*
X213256395Y-88417454D01*
X213072667Y-88454000D01*
X212885333Y-88454000D01*
X212701605Y-88417454D01*
X212528534Y-88345766D01*
X212407659Y-88265000D01*
X212372773Y-88241690D01*
X212240310Y-88109227D01*
X212187919Y-88030818D01*
X212136234Y-87953466D01*
X212064546Y-87780395D01*
X212028000Y-87596667D01*
X212028000Y-87409333D01*
X212064546Y-87225605D01*
X212136234Y-87052534D01*
X212240309Y-86896775D01*
X212240310Y-86896773D01*
X212372773Y-86764310D01*
X212528533Y-86660235D01*
X212528534Y-86660234D01*
X212701605Y-86588546D01*
X212885333Y-86552000D01*
X213072667Y-86552000D01*
X213256395Y-86588546D01*
G37*
G36*
X174328855Y-86442140D02*
G01*
X174392618Y-86448420D01*
X174483404Y-86475960D01*
X174515336Y-86485646D01*
X174628425Y-86546094D01*
X174727554Y-86627446D01*
X174808906Y-86726575D01*
X174869354Y-86839664D01*
X174869355Y-86839668D01*
X174906580Y-86962382D01*
X174919149Y-87090000D01*
X174906580Y-87217618D01*
X174904157Y-87225604D01*
X174869354Y-87340336D01*
X174808906Y-87453425D01*
X174727554Y-87552554D01*
X174628425Y-87633906D01*
X174515336Y-87694354D01*
X174483404Y-87704040D01*
X174392618Y-87731580D01*
X174328855Y-87737860D01*
X174296974Y-87741000D01*
X173683026Y-87741000D01*
X173651145Y-87737860D01*
X173587382Y-87731580D01*
X173496596Y-87704040D01*
X173464664Y-87694354D01*
X173351575Y-87633906D01*
X173252446Y-87552554D01*
X173171094Y-87453425D01*
X173110646Y-87340336D01*
X173075843Y-87225604D01*
X173073420Y-87217618D01*
X173060851Y-87090000D01*
X173073420Y-86962382D01*
X173110645Y-86839668D01*
X173110646Y-86839664D01*
X173171094Y-86726575D01*
X173252446Y-86627446D01*
X173351575Y-86546094D01*
X173464664Y-86485646D01*
X173496596Y-86475960D01*
X173587382Y-86448420D01*
X173651145Y-86442140D01*
X173683026Y-86439000D01*
X174296974Y-86439000D01*
X174328855Y-86442140D01*
G37*
G36*
X230825345Y-84808442D02*
G01*
X230915548Y-84817326D01*
X231089157Y-84869990D01*
X231249156Y-84955511D01*
X231292729Y-84991271D01*
X231389397Y-85070603D01*
X231468729Y-85167271D01*
X231504489Y-85210844D01*
X231590010Y-85370843D01*
X231642674Y-85544452D01*
X231660456Y-85725000D01*
X231642674Y-85905548D01*
X231590010Y-86079157D01*
X231504489Y-86239156D01*
X231468729Y-86282729D01*
X231389397Y-86379397D01*
X231305291Y-86448420D01*
X231249156Y-86494489D01*
X231089157Y-86580010D01*
X230915548Y-86632674D01*
X230825345Y-86641558D01*
X230780245Y-86646000D01*
X230229755Y-86646000D01*
X230184655Y-86641558D01*
X230094452Y-86632674D01*
X229920843Y-86580010D01*
X229760844Y-86494489D01*
X229704709Y-86448420D01*
X229620603Y-86379397D01*
X229541271Y-86282729D01*
X229505511Y-86239156D01*
X229419990Y-86079157D01*
X229367326Y-85905548D01*
X229349544Y-85725000D01*
X229367326Y-85544452D01*
X229419990Y-85370843D01*
X229505511Y-85210844D01*
X229541271Y-85167271D01*
X229620603Y-85070603D01*
X229717271Y-84991271D01*
X229760844Y-84955511D01*
X229920843Y-84869990D01*
X230094452Y-84817326D01*
X230184655Y-84808442D01*
X230229755Y-84804000D01*
X230780245Y-84804000D01*
X230825345Y-84808442D01*
G37*
G36*
X174756242Y-84443404D02*
G01*
X174793337Y-84454657D01*
X174827515Y-84472925D01*
X174857481Y-84497519D01*
X174882075Y-84527485D01*
X174900343Y-84561663D01*
X174911596Y-84598758D01*
X174916000Y-84643474D01*
X174916000Y-85536526D01*
X174911596Y-85581242D01*
X174900343Y-85618337D01*
X174882075Y-85652515D01*
X174857481Y-85682481D01*
X174827515Y-85707075D01*
X174793337Y-85725343D01*
X174756242Y-85736596D01*
X174711526Y-85741000D01*
X173268474Y-85741000D01*
X173223758Y-85736596D01*
X173186663Y-85725343D01*
X173152485Y-85707075D01*
X173122519Y-85682481D01*
X173097925Y-85652515D01*
X173079657Y-85618337D01*
X173068404Y-85581242D01*
X173064000Y-85536526D01*
X173064000Y-84643474D01*
X173068404Y-84598758D01*
X173079657Y-84561663D01*
X173097925Y-84527485D01*
X173122519Y-84497519D01*
X173152485Y-84472925D01*
X173186663Y-84454657D01*
X173223758Y-84443404D01*
X173268474Y-84439000D01*
X174711526Y-84439000D01*
X174756242Y-84443404D01*
G37*
G36*
X204366395Y-81508546D02*
G01*
X204539466Y-81580234D01*
X204539467Y-81580235D01*
X204695227Y-81684310D01*
X204827690Y-81816773D01*
X204827691Y-81816775D01*
X204931766Y-81972534D01*
X205003454Y-82145605D01*
X205040000Y-82329333D01*
X205040000Y-82516667D01*
X205003454Y-82700395D01*
X204931766Y-82873466D01*
X204931765Y-82873467D01*
X204827690Y-83029227D01*
X204695227Y-83161690D01*
X204616818Y-83214081D01*
X204539466Y-83265766D01*
X204366395Y-83337454D01*
X204182667Y-83374000D01*
X203995333Y-83374000D01*
X203811605Y-83337454D01*
X203638534Y-83265766D01*
X203561182Y-83214081D01*
X203482773Y-83161690D01*
X203350310Y-83029227D01*
X203246235Y-82873467D01*
X203246234Y-82873466D01*
X203174546Y-82700395D01*
X203138000Y-82516667D01*
X203138000Y-82329333D01*
X203174546Y-82145605D01*
X203246234Y-81972534D01*
X203350309Y-81816775D01*
X203350310Y-81816773D01*
X203482773Y-81684310D01*
X203638533Y-81580235D01*
X203638534Y-81580234D01*
X203811605Y-81508546D01*
X203995333Y-81472000D01*
X204182667Y-81472000D01*
X204366395Y-81508546D01*
G37*
G36*
X211986395Y-81508546D02*
G01*
X212159466Y-81580234D01*
X212159467Y-81580235D01*
X212315227Y-81684310D01*
X212447690Y-81816773D01*
X212447691Y-81816775D01*
X212551766Y-81972534D01*
X212623454Y-82145605D01*
X212660000Y-82329333D01*
X212660000Y-82516667D01*
X212623454Y-82700395D01*
X212551766Y-82873466D01*
X212551765Y-82873467D01*
X212447690Y-83029227D01*
X212315227Y-83161690D01*
X212236818Y-83214081D01*
X212159466Y-83265766D01*
X211986395Y-83337454D01*
X211802667Y-83374000D01*
X211615333Y-83374000D01*
X211431605Y-83337454D01*
X211258534Y-83265766D01*
X211181182Y-83214081D01*
X211102773Y-83161690D01*
X210970310Y-83029227D01*
X210866235Y-82873467D01*
X210866234Y-82873466D01*
X210794546Y-82700395D01*
X210758000Y-82516667D01*
X210758000Y-82329333D01*
X210794546Y-82145605D01*
X210866234Y-81972534D01*
X210970309Y-81816775D01*
X210970310Y-81816773D01*
X211102773Y-81684310D01*
X211258533Y-81580235D01*
X211258534Y-81580234D01*
X211431605Y-81508546D01*
X211615333Y-81472000D01*
X211802667Y-81472000D01*
X211986395Y-81508546D01*
G37*
G36*
X209446395Y-81508546D02*
G01*
X209619466Y-81580234D01*
X209619467Y-81580235D01*
X209775227Y-81684310D01*
X209907690Y-81816773D01*
X209907691Y-81816775D01*
X210011766Y-81972534D01*
X210083454Y-82145605D01*
X210120000Y-82329333D01*
X210120000Y-82516667D01*
X210083454Y-82700395D01*
X210011766Y-82873466D01*
X210011765Y-82873467D01*
X209907690Y-83029227D01*
X209775227Y-83161690D01*
X209696818Y-83214081D01*
X209619466Y-83265766D01*
X209446395Y-83337454D01*
X209262667Y-83374000D01*
X209075333Y-83374000D01*
X208891605Y-83337454D01*
X208718534Y-83265766D01*
X208641182Y-83214081D01*
X208562773Y-83161690D01*
X208430310Y-83029227D01*
X208326235Y-82873467D01*
X208326234Y-82873466D01*
X208254546Y-82700395D01*
X208218000Y-82516667D01*
X208218000Y-82329333D01*
X208254546Y-82145605D01*
X208326234Y-81972534D01*
X208430309Y-81816775D01*
X208430310Y-81816773D01*
X208562773Y-81684310D01*
X208718533Y-81580235D01*
X208718534Y-81580234D01*
X208891605Y-81508546D01*
X209075333Y-81472000D01*
X209262667Y-81472000D01*
X209446395Y-81508546D01*
G37*
G36*
X206906395Y-81508546D02*
G01*
X207079466Y-81580234D01*
X207079467Y-81580235D01*
X207235227Y-81684310D01*
X207367690Y-81816773D01*
X207367691Y-81816775D01*
X207471766Y-81972534D01*
X207543454Y-82145605D01*
X207580000Y-82329333D01*
X207580000Y-82516667D01*
X207543454Y-82700395D01*
X207471766Y-82873466D01*
X207471765Y-82873467D01*
X207367690Y-83029227D01*
X207235227Y-83161690D01*
X207156818Y-83214081D01*
X207079466Y-83265766D01*
X206906395Y-83337454D01*
X206722667Y-83374000D01*
X206535333Y-83374000D01*
X206351605Y-83337454D01*
X206178534Y-83265766D01*
X206101182Y-83214081D01*
X206022773Y-83161690D01*
X205890310Y-83029227D01*
X205786235Y-82873467D01*
X205786234Y-82873466D01*
X205714546Y-82700395D01*
X205678000Y-82516667D01*
X205678000Y-82329333D01*
X205714546Y-82145605D01*
X205786234Y-81972534D01*
X205890309Y-81816775D01*
X205890310Y-81816773D01*
X206022773Y-81684310D01*
X206178533Y-81580235D01*
X206178534Y-81580234D01*
X206351605Y-81508546D01*
X206535333Y-81472000D01*
X206722667Y-81472000D01*
X206906395Y-81508546D01*
G37*
G36*
X201826395Y-81508546D02*
G01*
X201999466Y-81580234D01*
X201999467Y-81580235D01*
X202155227Y-81684310D01*
X202287690Y-81816773D01*
X202287691Y-81816775D01*
X202391766Y-81972534D01*
X202463454Y-82145605D01*
X202500000Y-82329333D01*
X202500000Y-82516667D01*
X202463454Y-82700395D01*
X202391766Y-82873466D01*
X202391765Y-82873467D01*
X202287690Y-83029227D01*
X202155227Y-83161690D01*
X202076818Y-83214081D01*
X201999466Y-83265766D01*
X201826395Y-83337454D01*
X201642667Y-83374000D01*
X201455333Y-83374000D01*
X201271605Y-83337454D01*
X201098534Y-83265766D01*
X201021182Y-83214081D01*
X200942773Y-83161690D01*
X200810310Y-83029227D01*
X200706235Y-82873467D01*
X200706234Y-82873466D01*
X200634546Y-82700395D01*
X200598000Y-82516667D01*
X200598000Y-82329333D01*
X200634546Y-82145605D01*
X200706234Y-81972534D01*
X200810309Y-81816775D01*
X200810310Y-81816773D01*
X200942773Y-81684310D01*
X201098533Y-81580235D01*
X201098534Y-81580234D01*
X201271605Y-81508546D01*
X201455333Y-81472000D01*
X201642667Y-81472000D01*
X201826395Y-81508546D01*
G37*
G36*
X214526395Y-81508546D02*
G01*
X214699466Y-81580234D01*
X214699467Y-81580235D01*
X214855227Y-81684310D01*
X214987690Y-81816773D01*
X214987691Y-81816775D01*
X215091766Y-81972534D01*
X215163454Y-82145605D01*
X215200000Y-82329333D01*
X215200000Y-82516667D01*
X215163454Y-82700395D01*
X215091766Y-82873466D01*
X215091765Y-82873467D01*
X214987690Y-83029227D01*
X214855227Y-83161690D01*
X214776818Y-83214081D01*
X214699466Y-83265766D01*
X214526395Y-83337454D01*
X214342667Y-83374000D01*
X214155333Y-83374000D01*
X213971605Y-83337454D01*
X213798534Y-83265766D01*
X213721182Y-83214081D01*
X213642773Y-83161690D01*
X213510310Y-83029227D01*
X213406235Y-82873467D01*
X213406234Y-82873466D01*
X213334546Y-82700395D01*
X213298000Y-82516667D01*
X213298000Y-82329333D01*
X213334546Y-82145605D01*
X213406234Y-81972534D01*
X213510309Y-81816775D01*
X213510310Y-81816773D01*
X213642773Y-81684310D01*
X213798533Y-81580235D01*
X213798534Y-81580234D01*
X213971605Y-81508546D01*
X214155333Y-81472000D01*
X214342667Y-81472000D01*
X214526395Y-81508546D01*
G37*
G36*
X217066395Y-81508546D02*
G01*
X217239466Y-81580234D01*
X217239467Y-81580235D01*
X217395227Y-81684310D01*
X217527690Y-81816773D01*
X217527691Y-81816775D01*
X217631766Y-81972534D01*
X217703454Y-82145605D01*
X217740000Y-82329333D01*
X217740000Y-82516667D01*
X217703454Y-82700395D01*
X217631766Y-82873466D01*
X217631765Y-82873467D01*
X217527690Y-83029227D01*
X217395227Y-83161690D01*
X217316818Y-83214081D01*
X217239466Y-83265766D01*
X217066395Y-83337454D01*
X216882667Y-83374000D01*
X216695333Y-83374000D01*
X216511605Y-83337454D01*
X216338534Y-83265766D01*
X216261182Y-83214081D01*
X216182773Y-83161690D01*
X216050310Y-83029227D01*
X215946235Y-82873467D01*
X215946234Y-82873466D01*
X215874546Y-82700395D01*
X215838000Y-82516667D01*
X215838000Y-82329333D01*
X215874546Y-82145605D01*
X215946234Y-81972534D01*
X216050309Y-81816775D01*
X216050310Y-81816773D01*
X216182773Y-81684310D01*
X216338533Y-81580235D01*
X216338534Y-81580234D01*
X216511605Y-81508546D01*
X216695333Y-81472000D01*
X216882667Y-81472000D01*
X217066395Y-81508546D01*
G37*
G36*
X191143000Y-82177000D02*
G01*
X188841000Y-82177000D01*
X188841000Y-79875000D01*
X191143000Y-79875000D01*
X191143000Y-82177000D01*
G37*
G36*
X180025058Y-79890852D02*
G01*
X180167734Y-79919232D01*
X180377203Y-80005997D01*
X180565720Y-80131960D01*
X180726040Y-80292280D01*
X180795859Y-80396772D01*
X180852004Y-80480799D01*
X180860371Y-80501000D01*
X180938768Y-80690266D01*
X180983000Y-80912636D01*
X180983000Y-81139364D01*
X180938768Y-81361734D01*
X180852003Y-81571203D01*
X180726040Y-81759720D01*
X180565720Y-81920040D01*
X180377203Y-82046003D01*
X180167734Y-82132768D01*
X180056549Y-82154884D01*
X179945365Y-82177000D01*
X179718635Y-82177000D01*
X179607451Y-82154884D01*
X179496266Y-82132768D01*
X179286797Y-82046003D01*
X179098280Y-81920040D01*
X178937960Y-81759720D01*
X178811997Y-81571203D01*
X178725232Y-81361734D01*
X178681000Y-81139364D01*
X178681000Y-80912636D01*
X178725232Y-80690266D01*
X178803629Y-80501000D01*
X178811996Y-80480799D01*
X178868141Y-80396772D01*
X178937960Y-80292280D01*
X179098280Y-80131960D01*
X179286797Y-80005997D01*
X179496266Y-79919232D01*
X179638942Y-79890852D01*
X179718635Y-79875000D01*
X179945365Y-79875000D01*
X180025058Y-79890852D01*
G37*
G36*
X230840000Y-81615000D02*
G01*
X228138000Y-81615000D01*
X228138000Y-78913000D01*
X230840000Y-78913000D01*
X230840000Y-81615000D01*
G37*
G36*
X222879228Y-79826703D02*
G01*
X223034100Y-79890853D01*
X223173481Y-79983985D01*
X223292015Y-80102519D01*
X223385147Y-80241900D01*
X223449297Y-80396772D01*
X223482000Y-80561184D01*
X223482000Y-80728816D01*
X223449297Y-80893228D01*
X223385147Y-81048100D01*
X223292015Y-81187481D01*
X223173481Y-81306015D01*
X223034100Y-81399147D01*
X222879228Y-81463297D01*
X222714816Y-81496000D01*
X222547184Y-81496000D01*
X222382772Y-81463297D01*
X222227900Y-81399147D01*
X222088519Y-81306015D01*
X221969985Y-81187481D01*
X221876853Y-81048100D01*
X221812703Y-80893228D01*
X221780000Y-80728816D01*
X221780000Y-80561184D01*
X221812703Y-80396772D01*
X221876853Y-80241900D01*
X221969985Y-80102519D01*
X222088519Y-79983985D01*
X222227900Y-79890853D01*
X222382772Y-79826703D01*
X222547184Y-79794000D01*
X222714816Y-79794000D01*
X222879228Y-79826703D01*
G37*
G36*
X174328855Y-79202140D02*
G01*
X174392618Y-79208420D01*
X174483404Y-79235960D01*
X174515336Y-79245646D01*
X174628425Y-79306094D01*
X174727554Y-79387446D01*
X174808906Y-79486575D01*
X174869354Y-79599664D01*
X174869355Y-79599668D01*
X174906580Y-79722382D01*
X174919149Y-79850000D01*
X174906580Y-79977618D01*
X174897971Y-80005997D01*
X174869354Y-80100336D01*
X174808906Y-80213425D01*
X174727554Y-80312554D01*
X174628425Y-80393906D01*
X174515336Y-80454354D01*
X174483404Y-80464040D01*
X174392618Y-80491580D01*
X174328855Y-80497860D01*
X174296974Y-80501000D01*
X173683026Y-80501000D01*
X173651145Y-80497860D01*
X173587382Y-80491580D01*
X173496596Y-80464040D01*
X173464664Y-80454354D01*
X173351575Y-80393906D01*
X173252446Y-80312554D01*
X173171094Y-80213425D01*
X173110646Y-80100336D01*
X173082029Y-80005997D01*
X173073420Y-79977618D01*
X173060851Y-79850000D01*
X173073420Y-79722382D01*
X173110645Y-79599668D01*
X173110646Y-79599664D01*
X173171094Y-79486575D01*
X173252446Y-79387446D01*
X173351575Y-79306094D01*
X173464664Y-79245646D01*
X173496596Y-79235960D01*
X173587382Y-79208420D01*
X173651145Y-79202140D01*
X173683026Y-79199000D01*
X174296974Y-79199000D01*
X174328855Y-79202140D01*
G37*
G36*
X195828228Y-77794703D02*
G01*
X195983100Y-77858853D01*
X196122481Y-77951985D01*
X196241015Y-78070519D01*
X196334147Y-78209900D01*
X196398297Y-78364772D01*
X196431000Y-78529184D01*
X196431000Y-78696816D01*
X196398297Y-78861228D01*
X196334147Y-79016100D01*
X196241015Y-79155481D01*
X196122481Y-79274015D01*
X195983100Y-79367147D01*
X195828228Y-79431297D01*
X195663816Y-79464000D01*
X195496184Y-79464000D01*
X195331772Y-79431297D01*
X195176900Y-79367147D01*
X195037519Y-79274015D01*
X194918985Y-79155481D01*
X194825853Y-79016100D01*
X194761703Y-78861228D01*
X194729000Y-78696816D01*
X194729000Y-78529184D01*
X194761703Y-78364772D01*
X194825853Y-78209900D01*
X194918985Y-78070519D01*
X195037519Y-77951985D01*
X195176900Y-77858853D01*
X195331772Y-77794703D01*
X195496184Y-77762000D01*
X195663816Y-77762000D01*
X195828228Y-77794703D01*
G37*
G36*
X222879228Y-77286703D02*
G01*
X223034100Y-77350853D01*
X223173481Y-77443985D01*
X223292015Y-77562519D01*
X223385147Y-77701900D01*
X223449297Y-77856772D01*
X223482000Y-78021184D01*
X223482000Y-78188816D01*
X223449297Y-78353228D01*
X223385147Y-78508100D01*
X223292015Y-78647481D01*
X223173481Y-78766015D01*
X223034100Y-78859147D01*
X222879228Y-78923297D01*
X222714816Y-78956000D01*
X222547184Y-78956000D01*
X222382772Y-78923297D01*
X222227900Y-78859147D01*
X222088519Y-78766015D01*
X221969985Y-78647481D01*
X221876853Y-78508100D01*
X221812703Y-78353228D01*
X221780000Y-78188816D01*
X221780000Y-78021184D01*
X221812703Y-77856772D01*
X221876853Y-77701900D01*
X221969985Y-77562519D01*
X222088519Y-77443985D01*
X222227900Y-77350853D01*
X222382772Y-77286703D01*
X222547184Y-77254000D01*
X222714816Y-77254000D01*
X222879228Y-77286703D01*
G37*
G36*
X180983000Y-78748000D02*
G01*
X178681000Y-78748000D01*
X178681000Y-76446000D01*
X180983000Y-76446000D01*
X180983000Y-78748000D01*
G37*
G36*
X190147363Y-76454354D02*
G01*
X190327734Y-76490232D01*
X190537203Y-76576997D01*
X190725720Y-76702960D01*
X190886040Y-76863280D01*
X191012003Y-77051797D01*
X191092298Y-77245645D01*
X191098768Y-77261267D01*
X191143000Y-77483635D01*
X191143000Y-77710365D01*
X191140609Y-77722384D01*
X191098768Y-77932734D01*
X191012003Y-78142203D01*
X190886040Y-78330720D01*
X190725720Y-78491040D01*
X190537203Y-78617003D01*
X190327734Y-78703768D01*
X190216549Y-78725884D01*
X190105365Y-78748000D01*
X189878635Y-78748000D01*
X189767451Y-78725884D01*
X189656266Y-78703768D01*
X189446797Y-78617003D01*
X189258280Y-78491040D01*
X189097960Y-78330720D01*
X188971997Y-78142203D01*
X188885232Y-77932734D01*
X188843391Y-77722384D01*
X188841000Y-77710365D01*
X188841000Y-77483635D01*
X188885232Y-77261267D01*
X188891703Y-77245645D01*
X188971997Y-77051797D01*
X189097960Y-76863280D01*
X189258280Y-76702960D01*
X189446797Y-76576997D01*
X189656266Y-76490232D01*
X189836637Y-76454354D01*
X189878635Y-76446000D01*
X190105365Y-76446000D01*
X190147363Y-76454354D01*
G37*
G36*
X174328855Y-77202140D02*
G01*
X174392618Y-77208420D01*
X174483404Y-77235960D01*
X174515336Y-77245646D01*
X174628425Y-77306094D01*
X174727554Y-77387446D01*
X174808906Y-77486575D01*
X174869354Y-77599664D01*
X174869355Y-77599668D01*
X174906580Y-77722382D01*
X174919149Y-77850000D01*
X174906580Y-77977618D01*
X174893364Y-78021184D01*
X174869354Y-78100336D01*
X174808906Y-78213425D01*
X174727554Y-78312554D01*
X174628425Y-78393906D01*
X174515336Y-78454354D01*
X174483404Y-78464040D01*
X174392618Y-78491580D01*
X174328855Y-78497860D01*
X174296974Y-78501000D01*
X173683026Y-78501000D01*
X173651145Y-78497860D01*
X173587382Y-78491580D01*
X173496596Y-78464040D01*
X173464664Y-78454354D01*
X173351575Y-78393906D01*
X173252446Y-78312554D01*
X173171094Y-78213425D01*
X173110646Y-78100336D01*
X173086636Y-78021184D01*
X173073420Y-77977618D01*
X173060851Y-77850000D01*
X173073420Y-77722382D01*
X173110645Y-77599668D01*
X173110646Y-77599664D01*
X173171094Y-77486575D01*
X173252446Y-77387446D01*
X173351575Y-77306094D01*
X173464664Y-77245646D01*
X173496596Y-77235960D01*
X173587382Y-77208420D01*
X173651145Y-77202140D01*
X173683026Y-77199000D01*
X174296974Y-77199000D01*
X174328855Y-77202140D01*
G37*
G36*
X174328855Y-75202140D02*
G01*
X174392618Y-75208420D01*
X174483404Y-75235960D01*
X174515336Y-75245646D01*
X174628425Y-75306094D01*
X174727554Y-75387446D01*
X174808906Y-75486575D01*
X174869354Y-75599664D01*
X174869355Y-75599668D01*
X174906580Y-75722382D01*
X174919149Y-75850000D01*
X174906580Y-75977618D01*
X174879040Y-76068404D01*
X174869354Y-76100336D01*
X174808906Y-76213425D01*
X174727554Y-76312554D01*
X174628425Y-76393906D01*
X174515336Y-76454354D01*
X174483404Y-76464040D01*
X174392618Y-76491580D01*
X174328855Y-76497860D01*
X174296974Y-76501000D01*
X173683026Y-76501000D01*
X173651145Y-76497860D01*
X173587382Y-76491580D01*
X173496596Y-76464040D01*
X173464664Y-76454354D01*
X173351575Y-76393906D01*
X173252446Y-76312554D01*
X173171094Y-76213425D01*
X173110646Y-76100336D01*
X173100960Y-76068404D01*
X173073420Y-75977618D01*
X173060851Y-75850000D01*
X173073420Y-75722382D01*
X173110645Y-75599668D01*
X173110646Y-75599664D01*
X173171094Y-75486575D01*
X173252446Y-75387446D01*
X173351575Y-75306094D01*
X173464664Y-75245646D01*
X173496596Y-75235960D01*
X173587382Y-75208420D01*
X173651145Y-75202140D01*
X173683026Y-75199000D01*
X174296974Y-75199000D01*
X174328855Y-75202140D01*
G37*
G36*
X223582000Y-75881000D02*
G01*
X221680000Y-75881000D01*
X221680000Y-73979000D01*
X223582000Y-73979000D01*
X223582000Y-75881000D01*
G37*
G36*
X180056549Y-73039116D02*
G01*
X180167734Y-73061232D01*
X180377203Y-73147997D01*
X180565720Y-73273960D01*
X180726040Y-73434280D01*
X180852003Y-73622797D01*
X180938768Y-73832266D01*
X180983000Y-74054636D01*
X180983000Y-74281364D01*
X180938768Y-74503734D01*
X180852003Y-74713203D01*
X180726040Y-74901720D01*
X180565720Y-75062040D01*
X180377203Y-75188003D01*
X180167734Y-75274768D01*
X180056549Y-75296884D01*
X179945365Y-75319000D01*
X179718635Y-75319000D01*
X179607451Y-75296884D01*
X179496266Y-75274768D01*
X179286797Y-75188003D01*
X179098280Y-75062040D01*
X178937960Y-74901720D01*
X178811997Y-74713203D01*
X178725232Y-74503734D01*
X178681000Y-74281364D01*
X178681000Y-74054636D01*
X178725232Y-73832266D01*
X178811997Y-73622797D01*
X178937960Y-73434280D01*
X179098280Y-73273960D01*
X179286797Y-73147997D01*
X179496266Y-73061232D01*
X179607451Y-73039116D01*
X179718635Y-73017000D01*
X179945365Y-73017000D01*
X180056549Y-73039116D01*
G37*
G36*
X191143000Y-75319000D02*
G01*
X188841000Y-75319000D01*
X188841000Y-73017000D01*
X191143000Y-73017000D01*
X191143000Y-75319000D01*
G37*
G36*
X200226228Y-72841703D02*
G01*
X200381100Y-72905853D01*
X200520481Y-72998985D01*
X200639015Y-73117519D01*
X200732147Y-73256900D01*
X200796297Y-73411772D01*
X200829000Y-73576184D01*
X200829000Y-73743816D01*
X200796297Y-73908228D01*
X200732147Y-74063100D01*
X200639015Y-74202481D01*
X200520481Y-74321015D01*
X200381100Y-74414147D01*
X200226228Y-74478297D01*
X200061816Y-74511000D01*
X199894184Y-74511000D01*
X199729772Y-74478297D01*
X199574900Y-74414147D01*
X199435519Y-74321015D01*
X199316985Y-74202481D01*
X199223853Y-74063100D01*
X199159703Y-73908228D01*
X199127000Y-73743816D01*
X199127000Y-73576184D01*
X199159703Y-73411772D01*
X199223853Y-73256900D01*
X199316985Y-73117519D01*
X199435519Y-72998985D01*
X199574900Y-72905853D01*
X199729772Y-72841703D01*
X199894184Y-72809000D01*
X200061816Y-72809000D01*
X200226228Y-72841703D01*
G37*
G36*
X205226228Y-72841703D02*
G01*
X205381100Y-72905853D01*
X205520481Y-72998985D01*
X205639015Y-73117519D01*
X205732147Y-73256900D01*
X205796297Y-73411772D01*
X205829000Y-73576184D01*
X205829000Y-73743816D01*
X205796297Y-73908228D01*
X205732147Y-74063100D01*
X205639015Y-74202481D01*
X205520481Y-74321015D01*
X205381100Y-74414147D01*
X205226228Y-74478297D01*
X205061816Y-74511000D01*
X204894184Y-74511000D01*
X204729772Y-74478297D01*
X204574900Y-74414147D01*
X204435519Y-74321015D01*
X204316985Y-74202481D01*
X204223853Y-74063100D01*
X204159703Y-73908228D01*
X204127000Y-73743816D01*
X204127000Y-73576184D01*
X204159703Y-73411772D01*
X204223853Y-73256900D01*
X204316985Y-73117519D01*
X204435519Y-72998985D01*
X204574900Y-72905853D01*
X204729772Y-72841703D01*
X204894184Y-72809000D01*
X205061816Y-72809000D01*
X205226228Y-72841703D01*
G37*
G36*
X174328855Y-73202140D02*
G01*
X174392618Y-73208420D01*
X174472872Y-73232765D01*
X174515336Y-73245646D01*
X174628425Y-73306094D01*
X174727554Y-73387446D01*
X174808906Y-73486575D01*
X174869354Y-73599664D01*
X174869355Y-73599668D01*
X174906580Y-73722382D01*
X174919149Y-73850000D01*
X174906580Y-73977618D01*
X174883217Y-74054635D01*
X174869354Y-74100336D01*
X174808906Y-74213425D01*
X174727554Y-74312554D01*
X174628425Y-74393906D01*
X174515336Y-74454354D01*
X174483537Y-74464000D01*
X174392618Y-74491580D01*
X174328855Y-74497860D01*
X174296974Y-74501000D01*
X173683026Y-74501000D01*
X173651145Y-74497860D01*
X173587382Y-74491580D01*
X173496463Y-74464000D01*
X173464664Y-74454354D01*
X173351575Y-74393906D01*
X173252446Y-74312554D01*
X173171094Y-74213425D01*
X173110646Y-74100336D01*
X173096783Y-74054635D01*
X173073420Y-73977618D01*
X173060851Y-73850000D01*
X173073420Y-73722382D01*
X173110645Y-73599668D01*
X173110646Y-73599664D01*
X173171094Y-73486575D01*
X173252446Y-73387446D01*
X173351575Y-73306094D01*
X173464664Y-73245646D01*
X173507128Y-73232765D01*
X173587382Y-73208420D01*
X173651145Y-73202140D01*
X173683026Y-73199000D01*
X174296974Y-73199000D01*
X174328855Y-73202140D01*
G37*
G36*
X195828228Y-72794703D02*
G01*
X195983100Y-72858853D01*
X196122481Y-72951985D01*
X196241015Y-73070519D01*
X196334147Y-73209900D01*
X196398297Y-73364772D01*
X196431000Y-73529184D01*
X196431000Y-73696816D01*
X196398297Y-73861228D01*
X196334147Y-74016100D01*
X196241015Y-74155481D01*
X196122481Y-74274015D01*
X195983100Y-74367147D01*
X195828228Y-74431297D01*
X195663816Y-74464000D01*
X195496184Y-74464000D01*
X195331772Y-74431297D01*
X195176900Y-74367147D01*
X195037519Y-74274015D01*
X194918985Y-74155481D01*
X194825853Y-74016100D01*
X194761703Y-73861228D01*
X194729000Y-73696816D01*
X194729000Y-73529184D01*
X194761703Y-73364772D01*
X194825853Y-73209900D01*
X194918985Y-73070519D01*
X195037519Y-72951985D01*
X195176900Y-72858853D01*
X195331772Y-72794703D01*
X195496184Y-72762000D01*
X195663816Y-72762000D01*
X195828228Y-72794703D01*
G37*
G36*
X222908395Y-71475546D02*
G01*
X223081466Y-71547234D01*
X223081467Y-71547235D01*
X223237227Y-71651310D01*
X223369690Y-71783773D01*
X223413941Y-71850000D01*
X223473766Y-71939534D01*
X223545454Y-72112605D01*
X223582000Y-72296333D01*
X223582000Y-72483667D01*
X223545454Y-72667395D01*
X223473766Y-72840466D01*
X223473765Y-72840467D01*
X223369690Y-72996227D01*
X223237227Y-73128690D01*
X223208333Y-73147996D01*
X223081466Y-73232766D01*
X222908395Y-73304454D01*
X222724667Y-73341000D01*
X222537333Y-73341000D01*
X222353605Y-73304454D01*
X222180534Y-73232766D01*
X222053667Y-73147996D01*
X222024773Y-73128690D01*
X221892310Y-72996227D01*
X221788235Y-72840467D01*
X221788234Y-72840466D01*
X221716546Y-72667395D01*
X221680000Y-72483667D01*
X221680000Y-72296333D01*
X221716546Y-72112605D01*
X221788234Y-71939534D01*
X221848059Y-71850000D01*
X221892310Y-71783773D01*
X222024773Y-71651310D01*
X222180533Y-71547235D01*
X222180534Y-71547234D01*
X222353605Y-71475546D01*
X222537333Y-71439000D01*
X222724667Y-71439000D01*
X222908395Y-71475546D01*
G37*
G36*
X174328855Y-71202140D02*
G01*
X174392618Y-71208420D01*
X174483404Y-71235960D01*
X174515336Y-71245646D01*
X174628425Y-71306094D01*
X174727554Y-71387446D01*
X174808906Y-71486575D01*
X174869354Y-71599664D01*
X174869355Y-71599668D01*
X174906580Y-71722382D01*
X174919149Y-71850000D01*
X174906580Y-71977618D01*
X174879040Y-72068404D01*
X174869354Y-72100336D01*
X174808906Y-72213425D01*
X174727554Y-72312554D01*
X174628425Y-72393906D01*
X174515336Y-72454354D01*
X174483404Y-72464040D01*
X174392618Y-72491580D01*
X174328855Y-72497860D01*
X174296974Y-72501000D01*
X173683026Y-72501000D01*
X173651145Y-72497860D01*
X173587382Y-72491580D01*
X173496596Y-72464040D01*
X173464664Y-72454354D01*
X173351575Y-72393906D01*
X173252446Y-72312554D01*
X173171094Y-72213425D01*
X173110646Y-72100336D01*
X173100960Y-72068404D01*
X173073420Y-71977618D01*
X173060851Y-71850000D01*
X173073420Y-71722382D01*
X173110645Y-71599668D01*
X173110646Y-71599664D01*
X173171094Y-71486575D01*
X173252446Y-71387446D01*
X173351575Y-71306094D01*
X173464664Y-71245646D01*
X173496596Y-71235960D01*
X173587382Y-71208420D01*
X173651145Y-71202140D01*
X173683026Y-71199000D01*
X174296974Y-71199000D01*
X174328855Y-71202140D01*
G37*
G36*
X180983000Y-71890000D02*
G01*
X178681000Y-71890000D01*
X178681000Y-69588000D01*
X180983000Y-69588000D01*
X180983000Y-71890000D01*
G37*
G36*
X190216549Y-69610116D02*
G01*
X190327734Y-69632232D01*
X190537203Y-69718997D01*
X190725720Y-69844960D01*
X190886040Y-70005280D01*
X191012003Y-70193797D01*
X191098768Y-70403266D01*
X191143000Y-70625636D01*
X191143000Y-70852364D01*
X191098768Y-71074734D01*
X191012003Y-71284203D01*
X190886040Y-71472720D01*
X190725720Y-71633040D01*
X190537203Y-71759003D01*
X190327734Y-71845768D01*
X190216549Y-71867884D01*
X190105365Y-71890000D01*
X189878635Y-71890000D01*
X189767451Y-71867884D01*
X189656266Y-71845768D01*
X189446797Y-71759003D01*
X189258280Y-71633040D01*
X189097960Y-71472720D01*
X188971997Y-71284203D01*
X188885232Y-71074734D01*
X188841000Y-70852364D01*
X188841000Y-70625636D01*
X188885232Y-70403266D01*
X188971997Y-70193797D01*
X189097960Y-70005280D01*
X189258280Y-69844960D01*
X189446797Y-69718997D01*
X189656266Y-69632232D01*
X189767451Y-69610116D01*
X189878635Y-69588000D01*
X190105365Y-69588000D01*
X190216549Y-69610116D01*
G37*
G36*
X213383395Y-68681546D02*
G01*
X213556466Y-68753234D01*
X213633818Y-68804919D01*
X213712227Y-68857310D01*
X213844690Y-68989773D01*
X213844691Y-68989775D01*
X213948766Y-69145534D01*
X214020454Y-69318605D01*
X214057000Y-69502333D01*
X214057000Y-69689667D01*
X214020454Y-69873395D01*
X213948766Y-70046466D01*
X213948765Y-70046467D01*
X213844690Y-70202227D01*
X213712227Y-70334690D01*
X213702421Y-70341242D01*
X213556466Y-70438766D01*
X213383395Y-70510454D01*
X213199667Y-70547000D01*
X213012333Y-70547000D01*
X212828605Y-70510454D01*
X212655534Y-70438766D01*
X212509579Y-70341242D01*
X212499773Y-70334690D01*
X212367310Y-70202227D01*
X212263235Y-70046467D01*
X212263234Y-70046466D01*
X212191546Y-69873395D01*
X212155000Y-69689667D01*
X212155000Y-69502333D01*
X212191546Y-69318605D01*
X212263234Y-69145534D01*
X212367309Y-68989775D01*
X212367310Y-68989773D01*
X212499773Y-68857310D01*
X212578182Y-68804919D01*
X212655534Y-68753234D01*
X212828605Y-68681546D01*
X213012333Y-68645000D01*
X213199667Y-68645000D01*
X213383395Y-68681546D01*
G37*
G36*
X210843395Y-68681546D02*
G01*
X211016466Y-68753234D01*
X211093818Y-68804919D01*
X211172227Y-68857310D01*
X211304690Y-68989773D01*
X211304691Y-68989775D01*
X211408766Y-69145534D01*
X211480454Y-69318605D01*
X211517000Y-69502333D01*
X211517000Y-69689667D01*
X211480454Y-69873395D01*
X211408766Y-70046466D01*
X211408765Y-70046467D01*
X211304690Y-70202227D01*
X211172227Y-70334690D01*
X211162421Y-70341242D01*
X211016466Y-70438766D01*
X210843395Y-70510454D01*
X210659667Y-70547000D01*
X210472333Y-70547000D01*
X210288605Y-70510454D01*
X210115534Y-70438766D01*
X209969579Y-70341242D01*
X209959773Y-70334690D01*
X209827310Y-70202227D01*
X209723235Y-70046467D01*
X209723234Y-70046466D01*
X209651546Y-69873395D01*
X209615000Y-69689667D01*
X209615000Y-69502333D01*
X209651546Y-69318605D01*
X209723234Y-69145534D01*
X209827309Y-68989775D01*
X209827310Y-68989773D01*
X209959773Y-68857310D01*
X210038182Y-68804919D01*
X210115534Y-68753234D01*
X210288605Y-68681546D01*
X210472333Y-68645000D01*
X210659667Y-68645000D01*
X210843395Y-68681546D01*
G37*
G36*
X215923395Y-68681546D02*
G01*
X216096466Y-68753234D01*
X216173818Y-68804919D01*
X216252227Y-68857310D01*
X216384690Y-68989773D01*
X216384691Y-68989775D01*
X216488766Y-69145534D01*
X216560454Y-69318605D01*
X216597000Y-69502333D01*
X216597000Y-69689667D01*
X216560454Y-69873395D01*
X216488766Y-70046466D01*
X216488765Y-70046467D01*
X216384690Y-70202227D01*
X216252227Y-70334690D01*
X216242421Y-70341242D01*
X216096466Y-70438766D01*
X215923395Y-70510454D01*
X215739667Y-70547000D01*
X215552333Y-70547000D01*
X215368605Y-70510454D01*
X215195534Y-70438766D01*
X215049579Y-70341242D01*
X215039773Y-70334690D01*
X214907310Y-70202227D01*
X214803235Y-70046467D01*
X214803234Y-70046466D01*
X214731546Y-69873395D01*
X214695000Y-69689667D01*
X214695000Y-69502333D01*
X214731546Y-69318605D01*
X214803234Y-69145534D01*
X214907309Y-68989775D01*
X214907310Y-68989773D01*
X215039773Y-68857310D01*
X215118182Y-68804919D01*
X215195534Y-68753234D01*
X215368605Y-68681546D01*
X215552333Y-68645000D01*
X215739667Y-68645000D01*
X215923395Y-68681546D01*
G37*
G36*
X208303395Y-68681546D02*
G01*
X208476466Y-68753234D01*
X208553818Y-68804919D01*
X208632227Y-68857310D01*
X208764690Y-68989773D01*
X208764691Y-68989775D01*
X208868766Y-69145534D01*
X208940454Y-69318605D01*
X208977000Y-69502333D01*
X208977000Y-69689667D01*
X208940454Y-69873395D01*
X208868766Y-70046466D01*
X208868765Y-70046467D01*
X208764690Y-70202227D01*
X208632227Y-70334690D01*
X208622421Y-70341242D01*
X208476466Y-70438766D01*
X208303395Y-70510454D01*
X208119667Y-70547000D01*
X207932333Y-70547000D01*
X207748605Y-70510454D01*
X207575534Y-70438766D01*
X207429579Y-70341242D01*
X207419773Y-70334690D01*
X207287310Y-70202227D01*
X207183235Y-70046467D01*
X207183234Y-70046466D01*
X207111546Y-69873395D01*
X207075000Y-69689667D01*
X207075000Y-69502333D01*
X207111546Y-69318605D01*
X207183234Y-69145534D01*
X207287309Y-68989775D01*
X207287310Y-68989773D01*
X207419773Y-68857310D01*
X207498182Y-68804919D01*
X207575534Y-68753234D01*
X207748605Y-68681546D01*
X207932333Y-68645000D01*
X208119667Y-68645000D01*
X208303395Y-68681546D01*
G37*
G36*
X205763395Y-68681546D02*
G01*
X205936466Y-68753234D01*
X206013818Y-68804919D01*
X206092227Y-68857310D01*
X206224690Y-68989773D01*
X206224691Y-68989775D01*
X206328766Y-69145534D01*
X206400454Y-69318605D01*
X206437000Y-69502333D01*
X206437000Y-69689667D01*
X206400454Y-69873395D01*
X206328766Y-70046466D01*
X206328765Y-70046467D01*
X206224690Y-70202227D01*
X206092227Y-70334690D01*
X206082421Y-70341242D01*
X205936466Y-70438766D01*
X205763395Y-70510454D01*
X205579667Y-70547000D01*
X205392333Y-70547000D01*
X205208605Y-70510454D01*
X205035534Y-70438766D01*
X204889579Y-70341242D01*
X204879773Y-70334690D01*
X204747310Y-70202227D01*
X204643235Y-70046467D01*
X204643234Y-70046466D01*
X204571546Y-69873395D01*
X204535000Y-69689667D01*
X204535000Y-69502333D01*
X204571546Y-69318605D01*
X204643234Y-69145534D01*
X204747309Y-68989775D01*
X204747310Y-68989773D01*
X204879773Y-68857310D01*
X204958182Y-68804919D01*
X205035534Y-68753234D01*
X205208605Y-68681546D01*
X205392333Y-68645000D01*
X205579667Y-68645000D01*
X205763395Y-68681546D01*
G37*
G36*
X218463395Y-68681546D02*
G01*
X218636466Y-68753234D01*
X218713818Y-68804919D01*
X218792227Y-68857310D01*
X218924690Y-68989773D01*
X218924691Y-68989775D01*
X219028766Y-69145534D01*
X219100454Y-69318605D01*
X219137000Y-69502333D01*
X219137000Y-69689667D01*
X219100454Y-69873395D01*
X219028766Y-70046466D01*
X219028765Y-70046467D01*
X218924690Y-70202227D01*
X218792227Y-70334690D01*
X218782421Y-70341242D01*
X218636466Y-70438766D01*
X218463395Y-70510454D01*
X218279667Y-70547000D01*
X218092333Y-70547000D01*
X217908605Y-70510454D01*
X217735534Y-70438766D01*
X217589579Y-70341242D01*
X217579773Y-70334690D01*
X217447310Y-70202227D01*
X217343235Y-70046467D01*
X217343234Y-70046466D01*
X217271546Y-69873395D01*
X217235000Y-69689667D01*
X217235000Y-69502333D01*
X217271546Y-69318605D01*
X217343234Y-69145534D01*
X217447309Y-68989775D01*
X217447310Y-68989773D01*
X217579773Y-68857310D01*
X217658182Y-68804919D01*
X217735534Y-68753234D01*
X217908605Y-68681546D01*
X218092333Y-68645000D01*
X218279667Y-68645000D01*
X218463395Y-68681546D01*
G37*
G36*
X203223395Y-68681546D02*
G01*
X203396466Y-68753234D01*
X203473818Y-68804919D01*
X203552227Y-68857310D01*
X203684690Y-68989773D01*
X203684691Y-68989775D01*
X203788766Y-69145534D01*
X203860454Y-69318605D01*
X203897000Y-69502333D01*
X203897000Y-69689667D01*
X203860454Y-69873395D01*
X203788766Y-70046466D01*
X203788765Y-70046467D01*
X203684690Y-70202227D01*
X203552227Y-70334690D01*
X203542421Y-70341242D01*
X203396466Y-70438766D01*
X203223395Y-70510454D01*
X203039667Y-70547000D01*
X202852333Y-70547000D01*
X202668605Y-70510454D01*
X202495534Y-70438766D01*
X202349579Y-70341242D01*
X202339773Y-70334690D01*
X202207310Y-70202227D01*
X202103235Y-70046467D01*
X202103234Y-70046466D01*
X202031546Y-69873395D01*
X201995000Y-69689667D01*
X201995000Y-69502333D01*
X202031546Y-69318605D01*
X202103234Y-69145534D01*
X202207309Y-68989775D01*
X202207310Y-68989773D01*
X202339773Y-68857310D01*
X202418182Y-68804919D01*
X202495534Y-68753234D01*
X202668605Y-68681546D01*
X202852333Y-68645000D01*
X203039667Y-68645000D01*
X203223395Y-68681546D01*
G37*
G36*
X201357000Y-70547000D02*
G01*
X199455000Y-70547000D01*
X199455000Y-68645000D01*
X201357000Y-68645000D01*
X201357000Y-70547000D01*
G37*
G36*
X174756242Y-69203404D02*
G01*
X174793337Y-69214657D01*
X174827515Y-69232925D01*
X174857481Y-69257519D01*
X174882075Y-69287485D01*
X174900343Y-69321663D01*
X174911596Y-69358758D01*
X174916000Y-69403474D01*
X174916000Y-70296526D01*
X174911596Y-70341242D01*
X174900343Y-70378337D01*
X174882075Y-70412515D01*
X174857481Y-70442481D01*
X174827515Y-70467075D01*
X174793337Y-70485343D01*
X174756242Y-70496596D01*
X174711526Y-70501000D01*
X173268474Y-70501000D01*
X173223758Y-70496596D01*
X173186663Y-70485343D01*
X173152485Y-70467075D01*
X173122519Y-70442481D01*
X173097925Y-70412515D01*
X173079657Y-70378337D01*
X173068404Y-70341242D01*
X173064000Y-70296526D01*
X173064000Y-69403474D01*
X173068404Y-69358758D01*
X173079657Y-69321663D01*
X173097925Y-69287485D01*
X173122519Y-69257519D01*
X173152485Y-69232925D01*
X173186663Y-69214657D01*
X173223758Y-69203404D01*
X173268474Y-69199000D01*
X174711526Y-69199000D01*
X174756242Y-69203404D01*
G37*
G36*
X229738179Y-66236097D02*
G01*
X229883072Y-66264918D01*
X230128939Y-66366759D01*
X230350212Y-66514610D01*
X230538390Y-66702788D01*
X230686241Y-66924061D01*
X230788082Y-67169928D01*
X230840000Y-67430938D01*
X230840000Y-67697062D01*
X230788082Y-67958072D01*
X230686241Y-68203939D01*
X230538390Y-68425212D01*
X230350212Y-68613390D01*
X230128939Y-68761241D01*
X230128938Y-68761242D01*
X230128937Y-68761242D01*
X229883072Y-68863082D01*
X229622063Y-68915000D01*
X229355937Y-68915000D01*
X229094928Y-68863082D01*
X228849063Y-68761242D01*
X228849062Y-68761242D01*
X228849061Y-68761241D01*
X228627788Y-68613390D01*
X228439610Y-68425212D01*
X228291759Y-68203939D01*
X228189918Y-67958072D01*
X228138000Y-67697062D01*
X228138000Y-67430938D01*
X228189918Y-67169928D01*
X228291759Y-66924061D01*
X228439610Y-66702788D01*
X228627788Y-66514610D01*
X228849061Y-66366759D01*
X229094928Y-66264918D01*
X229239821Y-66236097D01*
X229355937Y-66213000D01*
X229622063Y-66213000D01*
X229738179Y-66236097D01*
G37*
G36*
X195828228Y-65014703D02*
G01*
X195983100Y-65078853D01*
X196122481Y-65171985D01*
X196241015Y-65290519D01*
X196334147Y-65429900D01*
X196398297Y-65584772D01*
X196431000Y-65749184D01*
X196431000Y-65916816D01*
X196398297Y-66081228D01*
X196334147Y-66236100D01*
X196241015Y-66375481D01*
X196122481Y-66494015D01*
X195983100Y-66587147D01*
X195828228Y-66651297D01*
X195663816Y-66684000D01*
X195496184Y-66684000D01*
X195331772Y-66651297D01*
X195176900Y-66587147D01*
X195037519Y-66494015D01*
X194918985Y-66375481D01*
X194825853Y-66236100D01*
X194761703Y-66081228D01*
X194729000Y-65916816D01*
X194729000Y-65749184D01*
X194761703Y-65584772D01*
X194825853Y-65429900D01*
X194918985Y-65290519D01*
X195037519Y-65171985D01*
X195176900Y-65078853D01*
X195331772Y-65014703D01*
X195496184Y-64982000D01*
X195663816Y-64982000D01*
X195828228Y-65014703D01*
G37*
G36*
X191270000Y-66048000D02*
G01*
X188968000Y-66048000D01*
X188968000Y-63746000D01*
X191270000Y-63746000D01*
X191270000Y-66048000D01*
G37*
G36*
X180183549Y-63768116D02*
G01*
X180294734Y-63790232D01*
X180504203Y-63876997D01*
X180692720Y-64002960D01*
X180853040Y-64163280D01*
X180979003Y-64351797D01*
X181065768Y-64561266D01*
X181075462Y-64610000D01*
X181100847Y-64737618D01*
X181110000Y-64783636D01*
X181110000Y-65010364D01*
X181065768Y-65232734D01*
X180979003Y-65442203D01*
X180853040Y-65630720D01*
X180692720Y-65791040D01*
X180504203Y-65917003D01*
X180294734Y-66003768D01*
X180183549Y-66025884D01*
X180072365Y-66048000D01*
X179845635Y-66048000D01*
X179734451Y-66025884D01*
X179623266Y-66003768D01*
X179413797Y-65917003D01*
X179225280Y-65791040D01*
X179064960Y-65630720D01*
X178938997Y-65442203D01*
X178852232Y-65232734D01*
X178808000Y-65010364D01*
X178808000Y-64783636D01*
X178817154Y-64737618D01*
X178842538Y-64610000D01*
X178852232Y-64561266D01*
X178938997Y-64351797D01*
X179064960Y-64163280D01*
X179225280Y-64002960D01*
X179413797Y-63876997D01*
X179623266Y-63790232D01*
X179734451Y-63768116D01*
X179845635Y-63746000D01*
X180072365Y-63746000D01*
X180183549Y-63768116D01*
G37*
G36*
X204493395Y-63601546D02*
G01*
X204666466Y-63673234D01*
X204666467Y-63673235D01*
X204822227Y-63777310D01*
X204954690Y-63909773D01*
X204954691Y-63909775D01*
X205058766Y-64065534D01*
X205130454Y-64238605D01*
X205167000Y-64422333D01*
X205167000Y-64609667D01*
X205130454Y-64793395D01*
X205058766Y-64966466D01*
X205026535Y-65014703D01*
X204954690Y-65122227D01*
X204822227Y-65254690D01*
X204812783Y-65261000D01*
X204666466Y-65358766D01*
X204493395Y-65430454D01*
X204309667Y-65467000D01*
X204122333Y-65467000D01*
X203938605Y-65430454D01*
X203765534Y-65358766D01*
X203619217Y-65261000D01*
X203609773Y-65254690D01*
X203477310Y-65122227D01*
X203405465Y-65014703D01*
X203373234Y-64966466D01*
X203301546Y-64793395D01*
X203265000Y-64609667D01*
X203265000Y-64422333D01*
X203301546Y-64238605D01*
X203373234Y-64065534D01*
X203477309Y-63909775D01*
X203477310Y-63909773D01*
X203609773Y-63777310D01*
X203765533Y-63673235D01*
X203765534Y-63673234D01*
X203938605Y-63601546D01*
X204122333Y-63565000D01*
X204309667Y-63565000D01*
X204493395Y-63601546D01*
G37*
G36*
X207033395Y-63601546D02*
G01*
X207206466Y-63673234D01*
X207206467Y-63673235D01*
X207362227Y-63777310D01*
X207494690Y-63909773D01*
X207494691Y-63909775D01*
X207598766Y-64065534D01*
X207670454Y-64238605D01*
X207707000Y-64422333D01*
X207707000Y-64609667D01*
X207670454Y-64793395D01*
X207598766Y-64966466D01*
X207566535Y-65014703D01*
X207494690Y-65122227D01*
X207362227Y-65254690D01*
X207352783Y-65261000D01*
X207206466Y-65358766D01*
X207033395Y-65430454D01*
X206849667Y-65467000D01*
X206662333Y-65467000D01*
X206478605Y-65430454D01*
X206305534Y-65358766D01*
X206159217Y-65261000D01*
X206149773Y-65254690D01*
X206017310Y-65122227D01*
X205945465Y-65014703D01*
X205913234Y-64966466D01*
X205841546Y-64793395D01*
X205805000Y-64609667D01*
X205805000Y-64422333D01*
X205841546Y-64238605D01*
X205913234Y-64065534D01*
X206017309Y-63909775D01*
X206017310Y-63909773D01*
X206149773Y-63777310D01*
X206305533Y-63673235D01*
X206305534Y-63673234D01*
X206478605Y-63601546D01*
X206662333Y-63565000D01*
X206849667Y-63565000D01*
X207033395Y-63601546D01*
G37*
G36*
X209573395Y-63601546D02*
G01*
X209746466Y-63673234D01*
X209746467Y-63673235D01*
X209902227Y-63777310D01*
X210034690Y-63909773D01*
X210034691Y-63909775D01*
X210138766Y-64065534D01*
X210210454Y-64238605D01*
X210247000Y-64422333D01*
X210247000Y-64609667D01*
X210210454Y-64793395D01*
X210138766Y-64966466D01*
X210106535Y-65014703D01*
X210034690Y-65122227D01*
X209902227Y-65254690D01*
X209892783Y-65261000D01*
X209746466Y-65358766D01*
X209573395Y-65430454D01*
X209389667Y-65467000D01*
X209202333Y-65467000D01*
X209018605Y-65430454D01*
X208845534Y-65358766D01*
X208699217Y-65261000D01*
X208689773Y-65254690D01*
X208557310Y-65122227D01*
X208485465Y-65014703D01*
X208453234Y-64966466D01*
X208381546Y-64793395D01*
X208345000Y-64609667D01*
X208345000Y-64422333D01*
X208381546Y-64238605D01*
X208453234Y-64065534D01*
X208557309Y-63909775D01*
X208557310Y-63909773D01*
X208689773Y-63777310D01*
X208845533Y-63673235D01*
X208845534Y-63673234D01*
X209018605Y-63601546D01*
X209202333Y-63565000D01*
X209389667Y-63565000D01*
X209573395Y-63601546D01*
G37*
G36*
X201953395Y-63601546D02*
G01*
X202126466Y-63673234D01*
X202126467Y-63673235D01*
X202282227Y-63777310D01*
X202414690Y-63909773D01*
X202414691Y-63909775D01*
X202518766Y-64065534D01*
X202590454Y-64238605D01*
X202627000Y-64422333D01*
X202627000Y-64609667D01*
X202590454Y-64793395D01*
X202518766Y-64966466D01*
X202486535Y-65014703D01*
X202414690Y-65122227D01*
X202282227Y-65254690D01*
X202272783Y-65261000D01*
X202126466Y-65358766D01*
X201953395Y-65430454D01*
X201769667Y-65467000D01*
X201582333Y-65467000D01*
X201398605Y-65430454D01*
X201225534Y-65358766D01*
X201079217Y-65261000D01*
X201069773Y-65254690D01*
X200937310Y-65122227D01*
X200865465Y-65014703D01*
X200833234Y-64966466D01*
X200761546Y-64793395D01*
X200725000Y-64609667D01*
X200725000Y-64422333D01*
X200761546Y-64238605D01*
X200833234Y-64065534D01*
X200937309Y-63909775D01*
X200937310Y-63909773D01*
X201069773Y-63777310D01*
X201225533Y-63673235D01*
X201225534Y-63673234D01*
X201398605Y-63601546D01*
X201582333Y-63565000D01*
X201769667Y-63565000D01*
X201953395Y-63601546D01*
G37*
G36*
X212113395Y-63601546D02*
G01*
X212286466Y-63673234D01*
X212286467Y-63673235D01*
X212442227Y-63777310D01*
X212574690Y-63909773D01*
X212574691Y-63909775D01*
X212678766Y-64065534D01*
X212750454Y-64238605D01*
X212787000Y-64422333D01*
X212787000Y-64609667D01*
X212750454Y-64793395D01*
X212678766Y-64966466D01*
X212646535Y-65014703D01*
X212574690Y-65122227D01*
X212442227Y-65254690D01*
X212432783Y-65261000D01*
X212286466Y-65358766D01*
X212113395Y-65430454D01*
X211929667Y-65467000D01*
X211742333Y-65467000D01*
X211558605Y-65430454D01*
X211385534Y-65358766D01*
X211239217Y-65261000D01*
X211229773Y-65254690D01*
X211097310Y-65122227D01*
X211025465Y-65014703D01*
X210993234Y-64966466D01*
X210921546Y-64793395D01*
X210885000Y-64609667D01*
X210885000Y-64422333D01*
X210921546Y-64238605D01*
X210993234Y-64065534D01*
X211097309Y-63909775D01*
X211097310Y-63909773D01*
X211229773Y-63777310D01*
X211385533Y-63673235D01*
X211385534Y-63673234D01*
X211558605Y-63601546D01*
X211742333Y-63565000D01*
X211929667Y-63565000D01*
X212113395Y-63601546D01*
G37*
G36*
X214653395Y-63601546D02*
G01*
X214826466Y-63673234D01*
X214826467Y-63673235D01*
X214982227Y-63777310D01*
X215114690Y-63909773D01*
X215114691Y-63909775D01*
X215218766Y-64065534D01*
X215290454Y-64238605D01*
X215327000Y-64422333D01*
X215327000Y-64609667D01*
X215290454Y-64793395D01*
X215218766Y-64966466D01*
X215186535Y-65014703D01*
X215114690Y-65122227D01*
X214982227Y-65254690D01*
X214972783Y-65261000D01*
X214826466Y-65358766D01*
X214653395Y-65430454D01*
X214469667Y-65467000D01*
X214282333Y-65467000D01*
X214098605Y-65430454D01*
X213925534Y-65358766D01*
X213779217Y-65261000D01*
X213769773Y-65254690D01*
X213637310Y-65122227D01*
X213565465Y-65014703D01*
X213533234Y-64966466D01*
X213461546Y-64793395D01*
X213425000Y-64609667D01*
X213425000Y-64422333D01*
X213461546Y-64238605D01*
X213533234Y-64065534D01*
X213637309Y-63909775D01*
X213637310Y-63909773D01*
X213769773Y-63777310D01*
X213925533Y-63673235D01*
X213925534Y-63673234D01*
X214098605Y-63601546D01*
X214282333Y-63565000D01*
X214469667Y-63565000D01*
X214653395Y-63601546D01*
G37*
G36*
X217193395Y-63601546D02*
G01*
X217366466Y-63673234D01*
X217366467Y-63673235D01*
X217522227Y-63777310D01*
X217654690Y-63909773D01*
X217654691Y-63909775D01*
X217758766Y-64065534D01*
X217830454Y-64238605D01*
X217867000Y-64422333D01*
X217867000Y-64609667D01*
X217830454Y-64793395D01*
X217758766Y-64966466D01*
X217726535Y-65014703D01*
X217654690Y-65122227D01*
X217522227Y-65254690D01*
X217512783Y-65261000D01*
X217366466Y-65358766D01*
X217193395Y-65430454D01*
X217009667Y-65467000D01*
X216822333Y-65467000D01*
X216638605Y-65430454D01*
X216465534Y-65358766D01*
X216319217Y-65261000D01*
X216309773Y-65254690D01*
X216177310Y-65122227D01*
X216105465Y-65014703D01*
X216073234Y-64966466D01*
X216001546Y-64793395D01*
X215965000Y-64609667D01*
X215965000Y-64422333D01*
X216001546Y-64238605D01*
X216073234Y-64065534D01*
X216177309Y-63909775D01*
X216177310Y-63909773D01*
X216309773Y-63777310D01*
X216465533Y-63673235D01*
X216465534Y-63673234D01*
X216638605Y-63601546D01*
X216822333Y-63565000D01*
X217009667Y-63565000D01*
X217193395Y-63601546D01*
G37*
G36*
X174328855Y-63962140D02*
G01*
X174392618Y-63968420D01*
X174483404Y-63995960D01*
X174515336Y-64005646D01*
X174628425Y-64066094D01*
X174727554Y-64147446D01*
X174808906Y-64246575D01*
X174869354Y-64359664D01*
X174869355Y-64359668D01*
X174906580Y-64482382D01*
X174919149Y-64610000D01*
X174906580Y-64737618D01*
X174889660Y-64793395D01*
X174869354Y-64860336D01*
X174808906Y-64973425D01*
X174727554Y-65072554D01*
X174628425Y-65153906D01*
X174515336Y-65214354D01*
X174483404Y-65224040D01*
X174392618Y-65251580D01*
X174328855Y-65257860D01*
X174296974Y-65261000D01*
X173683026Y-65261000D01*
X173651145Y-65257860D01*
X173587382Y-65251580D01*
X173496596Y-65224040D01*
X173464664Y-65214354D01*
X173351575Y-65153906D01*
X173252446Y-65072554D01*
X173171094Y-64973425D01*
X173110646Y-64860336D01*
X173090340Y-64793395D01*
X173073420Y-64737618D01*
X173060851Y-64610000D01*
X173073420Y-64482382D01*
X173110645Y-64359668D01*
X173110646Y-64359664D01*
X173171094Y-64246575D01*
X173252446Y-64147446D01*
X173351575Y-64066094D01*
X173464664Y-64005646D01*
X173496596Y-63995960D01*
X173587382Y-63968420D01*
X173651145Y-63962140D01*
X173683026Y-63959000D01*
X174296974Y-63959000D01*
X174328855Y-63962140D01*
G37*
G36*
X230147060Y-63523060D02*
G01*
X226544940Y-63523060D01*
X226544940Y-59920940D01*
X230147060Y-59920940D01*
X230147060Y-63523060D01*
G37*
G36*
X174328855Y-61962140D02*
G01*
X174392618Y-61968420D01*
X174483404Y-61995960D01*
X174515336Y-62005646D01*
X174628425Y-62066094D01*
X174727554Y-62147446D01*
X174808906Y-62246575D01*
X174869354Y-62359664D01*
X174869355Y-62359668D01*
X174906580Y-62482382D01*
X174919149Y-62610000D01*
X174906580Y-62737618D01*
X174879040Y-62828404D01*
X174869354Y-62860336D01*
X174808906Y-62973425D01*
X174727554Y-63072554D01*
X174628425Y-63153906D01*
X174515336Y-63214354D01*
X174483404Y-63224040D01*
X174392618Y-63251580D01*
X174328855Y-63257860D01*
X174296974Y-63261000D01*
X173683026Y-63261000D01*
X173651145Y-63257860D01*
X173587382Y-63251580D01*
X173496596Y-63224040D01*
X173464664Y-63214354D01*
X173351575Y-63153906D01*
X173252446Y-63072554D01*
X173171094Y-62973425D01*
X173110646Y-62860336D01*
X173100960Y-62828404D01*
X173073420Y-62737618D01*
X173060851Y-62610000D01*
X173073420Y-62482382D01*
X173110645Y-62359668D01*
X173110646Y-62359664D01*
X173171094Y-62246575D01*
X173252446Y-62147446D01*
X173351575Y-62066094D01*
X173464664Y-62005646D01*
X173496596Y-61995960D01*
X173587382Y-61968420D01*
X173651145Y-61962140D01*
X173683026Y-61959000D01*
X174296974Y-61959000D01*
X174328855Y-61962140D01*
G37*
G36*
X190343549Y-60339116D02*
G01*
X190454734Y-60361232D01*
X190664203Y-60447997D01*
X190852720Y-60573960D01*
X191013040Y-60734280D01*
X191139003Y-60922797D01*
X191204628Y-61081229D01*
X191225768Y-61132267D01*
X191270000Y-61354635D01*
X191270000Y-61581365D01*
X191247884Y-61692549D01*
X191225768Y-61803734D01*
X191139003Y-62013203D01*
X191013040Y-62201720D01*
X190852720Y-62362040D01*
X190664203Y-62488003D01*
X190454734Y-62574768D01*
X190343549Y-62596884D01*
X190232365Y-62619000D01*
X190005635Y-62619000D01*
X189894451Y-62596884D01*
X189783266Y-62574768D01*
X189573797Y-62488003D01*
X189385280Y-62362040D01*
X189224960Y-62201720D01*
X189098997Y-62013203D01*
X189012232Y-61803734D01*
X188990116Y-61692549D01*
X188968000Y-61581365D01*
X188968000Y-61354635D01*
X189012232Y-61132267D01*
X189033373Y-61081229D01*
X189098997Y-60922797D01*
X189224960Y-60734280D01*
X189385280Y-60573960D01*
X189573797Y-60447997D01*
X189783266Y-60361232D01*
X189894451Y-60339116D01*
X190005635Y-60317000D01*
X190232365Y-60317000D01*
X190343549Y-60339116D01*
G37*
G36*
X181110000Y-62619000D02*
G01*
X178808000Y-62619000D01*
X178808000Y-60317000D01*
X181110000Y-60317000D01*
X181110000Y-62619000D01*
G37*
G36*
X195828228Y-60014703D02*
G01*
X195983100Y-60078853D01*
X196122481Y-60171985D01*
X196241015Y-60290519D01*
X196334147Y-60429900D01*
X196398297Y-60584772D01*
X196431000Y-60749184D01*
X196431000Y-60916816D01*
X196398297Y-61081228D01*
X196334147Y-61236100D01*
X196241015Y-61375481D01*
X196122481Y-61494015D01*
X195983100Y-61587147D01*
X195828228Y-61651297D01*
X195663816Y-61684000D01*
X195496184Y-61684000D01*
X195331772Y-61651297D01*
X195176900Y-61587147D01*
X195037519Y-61494015D01*
X194918985Y-61375481D01*
X194825853Y-61236100D01*
X194761703Y-61081228D01*
X194729000Y-60916816D01*
X194729000Y-60749184D01*
X194761703Y-60584772D01*
X194825853Y-60429900D01*
X194918985Y-60290519D01*
X195037519Y-60171985D01*
X195176900Y-60078853D01*
X195331772Y-60014703D01*
X195496184Y-59982000D01*
X195663816Y-59982000D01*
X195828228Y-60014703D01*
G37*
G36*
X174328855Y-59962140D02*
G01*
X174392618Y-59968420D01*
X174483404Y-59995960D01*
X174515336Y-60005646D01*
X174628425Y-60066094D01*
X174727554Y-60147446D01*
X174808906Y-60246575D01*
X174869354Y-60359664D01*
X174879040Y-60391596D01*
X174906580Y-60482382D01*
X174919149Y-60610000D01*
X174906580Y-60737618D01*
X174903071Y-60749184D01*
X174869354Y-60860336D01*
X174808906Y-60973425D01*
X174727554Y-61072554D01*
X174628425Y-61153906D01*
X174515336Y-61214354D01*
X174483404Y-61224040D01*
X174392618Y-61251580D01*
X174328855Y-61257860D01*
X174296974Y-61261000D01*
X173683026Y-61261000D01*
X173651145Y-61257860D01*
X173587382Y-61251580D01*
X173496596Y-61224040D01*
X173464664Y-61214354D01*
X173351575Y-61153906D01*
X173252446Y-61072554D01*
X173171094Y-60973425D01*
X173110646Y-60860336D01*
X173076929Y-60749184D01*
X173073420Y-60737618D01*
X173060851Y-60610000D01*
X173073420Y-60482382D01*
X173100960Y-60391596D01*
X173110646Y-60359664D01*
X173171094Y-60246575D01*
X173252446Y-60147446D01*
X173351575Y-60066094D01*
X173464664Y-60005646D01*
X173496596Y-59995960D01*
X173587382Y-59968420D01*
X173651145Y-59962140D01*
X173683026Y-59959000D01*
X174296974Y-59959000D01*
X174328855Y-59962140D01*
G37*
G36*
X174328855Y-57962140D02*
G01*
X174392618Y-57968420D01*
X174483404Y-57995960D01*
X174515336Y-58005646D01*
X174628425Y-58066094D01*
X174727554Y-58147446D01*
X174808906Y-58246575D01*
X174869354Y-58359664D01*
X174869355Y-58359668D01*
X174906580Y-58482382D01*
X174919149Y-58610000D01*
X174906580Y-58737618D01*
X174895932Y-58772719D01*
X174869354Y-58860336D01*
X174808906Y-58973425D01*
X174727554Y-59072554D01*
X174628425Y-59153906D01*
X174515336Y-59214354D01*
X174483404Y-59224040D01*
X174392618Y-59251580D01*
X174328855Y-59257860D01*
X174296974Y-59261000D01*
X173683026Y-59261000D01*
X173651145Y-59257860D01*
X173587382Y-59251580D01*
X173496596Y-59224040D01*
X173464664Y-59214354D01*
X173351575Y-59153906D01*
X173252446Y-59072554D01*
X173171094Y-58973425D01*
X173110646Y-58860336D01*
X173084068Y-58772719D01*
X173073420Y-58737618D01*
X173060851Y-58610000D01*
X173073420Y-58482382D01*
X173110645Y-58359668D01*
X173110646Y-58359664D01*
X173171094Y-58246575D01*
X173252446Y-58147446D01*
X173351575Y-58066094D01*
X173464664Y-58005646D01*
X173496596Y-57995960D01*
X173587382Y-57968420D01*
X173651145Y-57962140D01*
X173683026Y-57959000D01*
X174296974Y-57959000D01*
X174328855Y-57962140D01*
G37*
G36*
X180183549Y-56910116D02*
G01*
X180294734Y-56932232D01*
X180504203Y-57018997D01*
X180692720Y-57144960D01*
X180853040Y-57305280D01*
X180979003Y-57493797D01*
X181065768Y-57703266D01*
X181110000Y-57925636D01*
X181110000Y-58152364D01*
X181065768Y-58374734D01*
X180979003Y-58584203D01*
X180853040Y-58772720D01*
X180692720Y-58933040D01*
X180504203Y-59059003D01*
X180504202Y-59059004D01*
X180504201Y-59059004D01*
X180471488Y-59072554D01*
X180294734Y-59145768D01*
X180253826Y-59153905D01*
X180072365Y-59190000D01*
X179845635Y-59190000D01*
X179664174Y-59153905D01*
X179623266Y-59145768D01*
X179446512Y-59072554D01*
X179413799Y-59059004D01*
X179413798Y-59059004D01*
X179413797Y-59059003D01*
X179225280Y-58933040D01*
X179064960Y-58772720D01*
X178938997Y-58584203D01*
X178852232Y-58374734D01*
X178808000Y-58152364D01*
X178808000Y-57925636D01*
X178852232Y-57703266D01*
X178938997Y-57493797D01*
X179064960Y-57305280D01*
X179225280Y-57144960D01*
X179413797Y-57018997D01*
X179623266Y-56932232D01*
X179734451Y-56910116D01*
X179845635Y-56888000D01*
X180072365Y-56888000D01*
X180183549Y-56910116D01*
G37*
G36*
X191270000Y-59190000D02*
G01*
X188968000Y-59190000D01*
X188968000Y-56888000D01*
X191270000Y-56888000D01*
X191270000Y-59190000D01*
G37*
G36*
X228572905Y-54850789D02*
G01*
X228871350Y-54910153D01*
X229199122Y-55045921D01*
X229494109Y-55243025D01*
X229744975Y-55493891D01*
X229942079Y-55788878D01*
X230077847Y-56116650D01*
X230111213Y-56284395D01*
X230147060Y-56464610D01*
X230147060Y-56819390D01*
X230141018Y-56849765D01*
X230077847Y-57167350D01*
X229942079Y-57495122D01*
X229744975Y-57790109D01*
X229494109Y-58040975D01*
X229199122Y-58238079D01*
X228871350Y-58373847D01*
X228572905Y-58433211D01*
X228523390Y-58443060D01*
X228168610Y-58443060D01*
X228119095Y-58433211D01*
X227820650Y-58373847D01*
X227492878Y-58238079D01*
X227197891Y-58040975D01*
X226947025Y-57790109D01*
X226749921Y-57495122D01*
X226614153Y-57167350D01*
X226550982Y-56849765D01*
X226544940Y-56819390D01*
X226544940Y-56464610D01*
X226580787Y-56284395D01*
X226614153Y-56116650D01*
X226749921Y-55788878D01*
X226947025Y-55493891D01*
X227197891Y-55243025D01*
X227492878Y-55045921D01*
X227820650Y-54910153D01*
X228119095Y-54850789D01*
X228168610Y-54840940D01*
X228523390Y-54840940D01*
X228572905Y-54850789D01*
G37*
G36*
X174328855Y-55962140D02*
G01*
X174392618Y-55968420D01*
X174483404Y-55995960D01*
X174515336Y-56005646D01*
X174628425Y-56066094D01*
X174727554Y-56147446D01*
X174808906Y-56246575D01*
X174869354Y-56359664D01*
X174869355Y-56359668D01*
X174906580Y-56482382D01*
X174919149Y-56610000D01*
X174906580Y-56737618D01*
X174899442Y-56761148D01*
X174869354Y-56860336D01*
X174808906Y-56973425D01*
X174727554Y-57072554D01*
X174628425Y-57153906D01*
X174515336Y-57214354D01*
X174483404Y-57224040D01*
X174392618Y-57251580D01*
X174328855Y-57257860D01*
X174296974Y-57261000D01*
X173683026Y-57261000D01*
X173651145Y-57257860D01*
X173587382Y-57251580D01*
X173496596Y-57224040D01*
X173464664Y-57214354D01*
X173351575Y-57153906D01*
X173252446Y-57072554D01*
X173171094Y-56973425D01*
X173110646Y-56860336D01*
X173080558Y-56761148D01*
X173073420Y-56737618D01*
X173060851Y-56610000D01*
X173073420Y-56482382D01*
X173110645Y-56359668D01*
X173110646Y-56359664D01*
X173171094Y-56246575D01*
X173252446Y-56147446D01*
X173351575Y-56066094D01*
X173464664Y-56005646D01*
X173496596Y-55995960D01*
X173587382Y-55968420D01*
X173651145Y-55962140D01*
X173683026Y-55959000D01*
X174296974Y-55959000D01*
X174328855Y-55962140D01*
G37*
G36*
X205636395Y-55092546D02*
G01*
X205809466Y-55164234D01*
X205885871Y-55215286D01*
X205965227Y-55268310D01*
X206097690Y-55400773D01*
X206140284Y-55464520D01*
X206201766Y-55556534D01*
X206273454Y-55729605D01*
X206310000Y-55913333D01*
X206310000Y-56100667D01*
X206273454Y-56284395D01*
X206201766Y-56457466D01*
X206185116Y-56482384D01*
X206097690Y-56613227D01*
X205965227Y-56745690D01*
X205942092Y-56761148D01*
X205809466Y-56849766D01*
X205636395Y-56921454D01*
X205452667Y-56958000D01*
X205265333Y-56958000D01*
X205081605Y-56921454D01*
X204908534Y-56849766D01*
X204775908Y-56761148D01*
X204752773Y-56745690D01*
X204620310Y-56613227D01*
X204532884Y-56482384D01*
X204516234Y-56457466D01*
X204444546Y-56284395D01*
X204408000Y-56100667D01*
X204408000Y-55913333D01*
X204444546Y-55729605D01*
X204516234Y-55556534D01*
X204577716Y-55464520D01*
X204620310Y-55400773D01*
X204752773Y-55268310D01*
X204832129Y-55215286D01*
X204908534Y-55164234D01*
X205081605Y-55092546D01*
X205265333Y-55056000D01*
X205452667Y-55056000D01*
X205636395Y-55092546D01*
G37*
G36*
X203770000Y-56958000D02*
G01*
X201868000Y-56958000D01*
X201868000Y-55056000D01*
X203770000Y-55056000D01*
X203770000Y-56958000D01*
G37*
G36*
X199892228Y-55188703D02*
G01*
X200047100Y-55252853D01*
X200186481Y-55345985D01*
X200305015Y-55464519D01*
X200398147Y-55603900D01*
X200462297Y-55758772D01*
X200495000Y-55923184D01*
X200495000Y-56090816D01*
X200462297Y-56255228D01*
X200398147Y-56410100D01*
X200305015Y-56549481D01*
X200186481Y-56668015D01*
X200047100Y-56761147D01*
X199892228Y-56825297D01*
X199727816Y-56858000D01*
X199560184Y-56858000D01*
X199395772Y-56825297D01*
X199240900Y-56761147D01*
X199101519Y-56668015D01*
X198982985Y-56549481D01*
X198889853Y-56410100D01*
X198825703Y-56255228D01*
X198793000Y-56090816D01*
X198793000Y-55923184D01*
X198825703Y-55758772D01*
X198889853Y-55603900D01*
X198982985Y-55464519D01*
X199101519Y-55345985D01*
X199240900Y-55252853D01*
X199395772Y-55188703D01*
X199560184Y-55156000D01*
X199727816Y-55156000D01*
X199892228Y-55188703D01*
G37*
G36*
X197352228Y-55188703D02*
G01*
X197507100Y-55252853D01*
X197646481Y-55345985D01*
X197765015Y-55464519D01*
X197858147Y-55603900D01*
X197922297Y-55758772D01*
X197955000Y-55923184D01*
X197955000Y-56090816D01*
X197922297Y-56255228D01*
X197858147Y-56410100D01*
X197765015Y-56549481D01*
X197646481Y-56668015D01*
X197507100Y-56761147D01*
X197352228Y-56825297D01*
X197187816Y-56858000D01*
X197020184Y-56858000D01*
X196855772Y-56825297D01*
X196700900Y-56761147D01*
X196561519Y-56668015D01*
X196442985Y-56549481D01*
X196349853Y-56410100D01*
X196285703Y-56255228D01*
X196253000Y-56090816D01*
X196253000Y-55923184D01*
X196285703Y-55758772D01*
X196349853Y-55603900D01*
X196442985Y-55464519D01*
X196561519Y-55345985D01*
X196700900Y-55252853D01*
X196855772Y-55188703D01*
X197020184Y-55156000D01*
X197187816Y-55156000D01*
X197352228Y-55188703D01*
G37*
G36*
X218248000Y-56831000D02*
G01*
X216346000Y-56831000D01*
X216346000Y-54929000D01*
X218248000Y-54929000D01*
X218248000Y-56831000D01*
G37*
G36*
X220114395Y-54965546D02*
G01*
X220287466Y-55037234D01*
X220287467Y-55037235D01*
X220443227Y-55141310D01*
X220575690Y-55273773D01*
X220618284Y-55337520D01*
X220679766Y-55429534D01*
X220751454Y-55602605D01*
X220788000Y-55786333D01*
X220788000Y-55973667D01*
X220751454Y-56157395D01*
X220679766Y-56330466D01*
X220679765Y-56330467D01*
X220575690Y-56486227D01*
X220443227Y-56618690D01*
X220420092Y-56634148D01*
X220287466Y-56722766D01*
X220114395Y-56794454D01*
X219930667Y-56831000D01*
X219743333Y-56831000D01*
X219559605Y-56794454D01*
X219386534Y-56722766D01*
X219253908Y-56634148D01*
X219230773Y-56618690D01*
X219098310Y-56486227D01*
X218994235Y-56330467D01*
X218994234Y-56330466D01*
X218922546Y-56157395D01*
X218886000Y-55973667D01*
X218886000Y-55786333D01*
X218922546Y-55602605D01*
X218994234Y-55429534D01*
X219055716Y-55337520D01*
X219098310Y-55273773D01*
X219230773Y-55141310D01*
X219386533Y-55037235D01*
X219386534Y-55037234D01*
X219559605Y-54965546D01*
X219743333Y-54929000D01*
X219930667Y-54929000D01*
X220114395Y-54965546D01*
G37*
G36*
X214370228Y-55061703D02*
G01*
X214525100Y-55125853D01*
X214664481Y-55218985D01*
X214783015Y-55337519D01*
X214876147Y-55476900D01*
X214940297Y-55631772D01*
X214973000Y-55796184D01*
X214973000Y-55963816D01*
X214940297Y-56128228D01*
X214876147Y-56283100D01*
X214783015Y-56422481D01*
X214664481Y-56541015D01*
X214525100Y-56634147D01*
X214370228Y-56698297D01*
X214205816Y-56731000D01*
X214038184Y-56731000D01*
X213873772Y-56698297D01*
X213718900Y-56634147D01*
X213579519Y-56541015D01*
X213460985Y-56422481D01*
X213367853Y-56283100D01*
X213303703Y-56128228D01*
X213271000Y-55963816D01*
X213271000Y-55796184D01*
X213303703Y-55631772D01*
X213367853Y-55476900D01*
X213460985Y-55337519D01*
X213579519Y-55218985D01*
X213718900Y-55125853D01*
X213873772Y-55061703D01*
X214038184Y-55029000D01*
X214205816Y-55029000D01*
X214370228Y-55061703D01*
G37*
G36*
X211830228Y-55061703D02*
G01*
X211985100Y-55125853D01*
X212124481Y-55218985D01*
X212243015Y-55337519D01*
X212336147Y-55476900D01*
X212400297Y-55631772D01*
X212433000Y-55796184D01*
X212433000Y-55963816D01*
X212400297Y-56128228D01*
X212336147Y-56283100D01*
X212243015Y-56422481D01*
X212124481Y-56541015D01*
X211985100Y-56634147D01*
X211830228Y-56698297D01*
X211665816Y-56731000D01*
X211498184Y-56731000D01*
X211333772Y-56698297D01*
X211178900Y-56634147D01*
X211039519Y-56541015D01*
X210920985Y-56422481D01*
X210827853Y-56283100D01*
X210763703Y-56128228D01*
X210731000Y-55963816D01*
X210731000Y-55796184D01*
X210763703Y-55631772D01*
X210827853Y-55476900D01*
X210920985Y-55337519D01*
X211039519Y-55218985D01*
X211178900Y-55125853D01*
X211333772Y-55061703D01*
X211498184Y-55029000D01*
X211665816Y-55029000D01*
X211830228Y-55061703D01*
G37*
G36*
X190343549Y-53481116D02*
G01*
X190454734Y-53503232D01*
X190664203Y-53589997D01*
X190852720Y-53715960D01*
X191013040Y-53876280D01*
X191139003Y-54064797D01*
X191225768Y-54274266D01*
X191270000Y-54496636D01*
X191270000Y-54723364D01*
X191225768Y-54945734D01*
X191139003Y-55155203D01*
X191013040Y-55343720D01*
X190852720Y-55504040D01*
X190664203Y-55630003D01*
X190664202Y-55630004D01*
X190664201Y-55630004D01*
X190602850Y-55655416D01*
X190454734Y-55716768D01*
X190343549Y-55738884D01*
X190232365Y-55761000D01*
X190005635Y-55761000D01*
X189894451Y-55738884D01*
X189783266Y-55716768D01*
X189635150Y-55655416D01*
X189573799Y-55630004D01*
X189573798Y-55630004D01*
X189573797Y-55630003D01*
X189385280Y-55504040D01*
X189224960Y-55343720D01*
X189098997Y-55155203D01*
X189012232Y-54945734D01*
X188968000Y-54723364D01*
X188968000Y-54496636D01*
X189012232Y-54274266D01*
X189098997Y-54064797D01*
X189224960Y-53876280D01*
X189385280Y-53715960D01*
X189573797Y-53589997D01*
X189783266Y-53503232D01*
X189894451Y-53481116D01*
X190005635Y-53459000D01*
X190232365Y-53459000D01*
X190343549Y-53481116D01*
G37*
G36*
X181110000Y-55761000D02*
G01*
X178808000Y-55761000D01*
X178808000Y-53459000D01*
X181110000Y-53459000D01*
X181110000Y-55761000D01*
G37*
G36*
X174756242Y-53963404D02*
G01*
X174793337Y-53974657D01*
X174827515Y-53992925D01*
X174857481Y-54017519D01*
X174882075Y-54047485D01*
X174900343Y-54081663D01*
X174911596Y-54118758D01*
X174916000Y-54163474D01*
X174916000Y-55056526D01*
X174911596Y-55101242D01*
X174900343Y-55138337D01*
X174882075Y-55172515D01*
X174857481Y-55202481D01*
X174827515Y-55227075D01*
X174793337Y-55245343D01*
X174756242Y-55256596D01*
X174711526Y-55261000D01*
X173268474Y-55261000D01*
X173223758Y-55256596D01*
X173186663Y-55245343D01*
X173152485Y-55227075D01*
X173122519Y-55202481D01*
X173097925Y-55172515D01*
X173079657Y-55138337D01*
X173068404Y-55101242D01*
X173064000Y-55056526D01*
X173064000Y-54163474D01*
X173068404Y-54118758D01*
X173079657Y-54081663D01*
X173097925Y-54047485D01*
X173122519Y-54017519D01*
X173152485Y-53992925D01*
X173186663Y-53974657D01*
X173223758Y-53963404D01*
X173268474Y-53959000D01*
X174711526Y-53959000D01*
X174756242Y-53963404D01*
G37*
G36*
X227324228Y-49473703D02*
G01*
X227479100Y-49537853D01*
X227618481Y-49630985D01*
X227737015Y-49749519D01*
X227830147Y-49888900D01*
X227894297Y-50043772D01*
X227927000Y-50208184D01*
X227927000Y-50375816D01*
X227894297Y-50540228D01*
X227830147Y-50695100D01*
X227737015Y-50834481D01*
X227618481Y-50953015D01*
X227479100Y-51046147D01*
X227324228Y-51110297D01*
X227159816Y-51143000D01*
X226992184Y-51143000D01*
X226827772Y-51110297D01*
X226672900Y-51046147D01*
X226533519Y-50953015D01*
X226414985Y-50834481D01*
X226321853Y-50695100D01*
X226257703Y-50540228D01*
X226225000Y-50375816D01*
X226225000Y-50208184D01*
X226257703Y-50043772D01*
X226321853Y-49888900D01*
X226414985Y-49749519D01*
X226533519Y-49630985D01*
X226672900Y-49537853D01*
X226827772Y-49473703D01*
X226992184Y-49441000D01*
X227159816Y-49441000D01*
X227324228Y-49473703D01*
G37*
G36*
X229864228Y-49473703D02*
G01*
X230019100Y-49537853D01*
X230158481Y-49630985D01*
X230277015Y-49749519D01*
X230370147Y-49888900D01*
X230434297Y-50043772D01*
X230467000Y-50208184D01*
X230467000Y-50375816D01*
X230434297Y-50540228D01*
X230370147Y-50695100D01*
X230277015Y-50834481D01*
X230158481Y-50953015D01*
X230019100Y-51046147D01*
X229864228Y-51110297D01*
X229699816Y-51143000D01*
X229532184Y-51143000D01*
X229367772Y-51110297D01*
X229212900Y-51046147D01*
X229073519Y-50953015D01*
X228954985Y-50834481D01*
X228861853Y-50695100D01*
X228797703Y-50540228D01*
X228765000Y-50375816D01*
X228765000Y-50208184D01*
X228797703Y-50043772D01*
X228861853Y-49888900D01*
X228954985Y-49749519D01*
X229073519Y-49630985D01*
X229212900Y-49537853D01*
X229367772Y-49473703D01*
X229532184Y-49441000D01*
X229699816Y-49441000D01*
X229864228Y-49473703D01*
G37*
G36*
X190244228Y-49473703D02*
G01*
X190399100Y-49537853D01*
X190538481Y-49630985D01*
X190657015Y-49749519D01*
X190750147Y-49888900D01*
X190814297Y-50043772D01*
X190847000Y-50208184D01*
X190847000Y-50375816D01*
X190814297Y-50540228D01*
X190750147Y-50695100D01*
X190657015Y-50834481D01*
X190538481Y-50953015D01*
X190399100Y-51046147D01*
X190244228Y-51110297D01*
X190079816Y-51143000D01*
X189912184Y-51143000D01*
X189747772Y-51110297D01*
X189592900Y-51046147D01*
X189453519Y-50953015D01*
X189334985Y-50834481D01*
X189241853Y-50695100D01*
X189177703Y-50540228D01*
X189145000Y-50375816D01*
X189145000Y-50208184D01*
X189177703Y-50043772D01*
X189241853Y-49888900D01*
X189334985Y-49749519D01*
X189453519Y-49630985D01*
X189592900Y-49537853D01*
X189747772Y-49473703D01*
X189912184Y-49441000D01*
X190079816Y-49441000D01*
X190244228Y-49473703D01*
G37*
G36*
X192784228Y-49473703D02*
G01*
X192939100Y-49537853D01*
X193078481Y-49630985D01*
X193197015Y-49749519D01*
X193290147Y-49888900D01*
X193354297Y-50043772D01*
X193387000Y-50208184D01*
X193387000Y-50375816D01*
X193354297Y-50540228D01*
X193290147Y-50695100D01*
X193197015Y-50834481D01*
X193078481Y-50953015D01*
X192939100Y-51046147D01*
X192784228Y-51110297D01*
X192619816Y-51143000D01*
X192452184Y-51143000D01*
X192287772Y-51110297D01*
X192132900Y-51046147D01*
X191993519Y-50953015D01*
X191874985Y-50834481D01*
X191781853Y-50695100D01*
X191717703Y-50540228D01*
X191685000Y-50375816D01*
X191685000Y-50208184D01*
X191717703Y-50043772D01*
X191781853Y-49888900D01*
X191874985Y-49749519D01*
X191993519Y-49630985D01*
X192132900Y-49537853D01*
X192287772Y-49473703D01*
X192452184Y-49441000D01*
X192619816Y-49441000D01*
X192784228Y-49473703D01*
G37*
G36*
X195324228Y-49473703D02*
G01*
X195479100Y-49537853D01*
X195618481Y-49630985D01*
X195737015Y-49749519D01*
X195830147Y-49888900D01*
X195894297Y-50043772D01*
X195927000Y-50208184D01*
X195927000Y-50375816D01*
X195894297Y-50540228D01*
X195830147Y-50695100D01*
X195737015Y-50834481D01*
X195618481Y-50953015D01*
X195479100Y-51046147D01*
X195324228Y-51110297D01*
X195159816Y-51143000D01*
X194992184Y-51143000D01*
X194827772Y-51110297D01*
X194672900Y-51046147D01*
X194533519Y-50953015D01*
X194414985Y-50834481D01*
X194321853Y-50695100D01*
X194257703Y-50540228D01*
X194225000Y-50375816D01*
X194225000Y-50208184D01*
X194257703Y-50043772D01*
X194321853Y-49888900D01*
X194414985Y-49749519D01*
X194533519Y-49630985D01*
X194672900Y-49537853D01*
X194827772Y-49473703D01*
X194992184Y-49441000D01*
X195159816Y-49441000D01*
X195324228Y-49473703D01*
G37*
G36*
X197864228Y-49473703D02*
G01*
X198019100Y-49537853D01*
X198158481Y-49630985D01*
X198277015Y-49749519D01*
X198370147Y-49888900D01*
X198434297Y-50043772D01*
X198467000Y-50208184D01*
X198467000Y-50375816D01*
X198434297Y-50540228D01*
X198370147Y-50695100D01*
X198277015Y-50834481D01*
X198158481Y-50953015D01*
X198019100Y-51046147D01*
X197864228Y-51110297D01*
X197699816Y-51143000D01*
X197532184Y-51143000D01*
X197367772Y-51110297D01*
X197212900Y-51046147D01*
X197073519Y-50953015D01*
X196954985Y-50834481D01*
X196861853Y-50695100D01*
X196797703Y-50540228D01*
X196765000Y-50375816D01*
X196765000Y-50208184D01*
X196797703Y-50043772D01*
X196861853Y-49888900D01*
X196954985Y-49749519D01*
X197073519Y-49630985D01*
X197212900Y-49537853D01*
X197367772Y-49473703D01*
X197532184Y-49441000D01*
X197699816Y-49441000D01*
X197864228Y-49473703D01*
G37*
G36*
X200404228Y-49473703D02*
G01*
X200559100Y-49537853D01*
X200698481Y-49630985D01*
X200817015Y-49749519D01*
X200910147Y-49888900D01*
X200974297Y-50043772D01*
X201007000Y-50208184D01*
X201007000Y-50375816D01*
X200974297Y-50540228D01*
X200910147Y-50695100D01*
X200817015Y-50834481D01*
X200698481Y-50953015D01*
X200559100Y-51046147D01*
X200404228Y-51110297D01*
X200239816Y-51143000D01*
X200072184Y-51143000D01*
X199907772Y-51110297D01*
X199752900Y-51046147D01*
X199613519Y-50953015D01*
X199494985Y-50834481D01*
X199401853Y-50695100D01*
X199337703Y-50540228D01*
X199305000Y-50375816D01*
X199305000Y-50208184D01*
X199337703Y-50043772D01*
X199401853Y-49888900D01*
X199494985Y-49749519D01*
X199613519Y-49630985D01*
X199752900Y-49537853D01*
X199907772Y-49473703D01*
X200072184Y-49441000D01*
X200239816Y-49441000D01*
X200404228Y-49473703D01*
G37*
G36*
X202944228Y-49473703D02*
G01*
X203099100Y-49537853D01*
X203238481Y-49630985D01*
X203357015Y-49749519D01*
X203450147Y-49888900D01*
X203514297Y-50043772D01*
X203547000Y-50208184D01*
X203547000Y-50375816D01*
X203514297Y-50540228D01*
X203450147Y-50695100D01*
X203357015Y-50834481D01*
X203238481Y-50953015D01*
X203099100Y-51046147D01*
X202944228Y-51110297D01*
X202779816Y-51143000D01*
X202612184Y-51143000D01*
X202447772Y-51110297D01*
X202292900Y-51046147D01*
X202153519Y-50953015D01*
X202034985Y-50834481D01*
X201941853Y-50695100D01*
X201877703Y-50540228D01*
X201845000Y-50375816D01*
X201845000Y-50208184D01*
X201877703Y-50043772D01*
X201941853Y-49888900D01*
X202034985Y-49749519D01*
X202153519Y-49630985D01*
X202292900Y-49537853D01*
X202447772Y-49473703D01*
X202612184Y-49441000D01*
X202779816Y-49441000D01*
X202944228Y-49473703D01*
G37*
G36*
X185164228Y-49473703D02*
G01*
X185319100Y-49537853D01*
X185458481Y-49630985D01*
X185577015Y-49749519D01*
X185670147Y-49888900D01*
X185734297Y-50043772D01*
X185767000Y-50208184D01*
X185767000Y-50375816D01*
X185734297Y-50540228D01*
X185670147Y-50695100D01*
X185577015Y-50834481D01*
X185458481Y-50953015D01*
X185319100Y-51046147D01*
X185164228Y-51110297D01*
X184999816Y-51143000D01*
X184832184Y-51143000D01*
X184667772Y-51110297D01*
X184512900Y-51046147D01*
X184373519Y-50953015D01*
X184254985Y-50834481D01*
X184161853Y-50695100D01*
X184097703Y-50540228D01*
X184065000Y-50375816D01*
X184065000Y-50208184D01*
X184097703Y-50043772D01*
X184161853Y-49888900D01*
X184254985Y-49749519D01*
X184373519Y-49630985D01*
X184512900Y-49537853D01*
X184667772Y-49473703D01*
X184832184Y-49441000D01*
X184999816Y-49441000D01*
X185164228Y-49473703D01*
G37*
G36*
X208024228Y-49473703D02*
G01*
X208179100Y-49537853D01*
X208318481Y-49630985D01*
X208437015Y-49749519D01*
X208530147Y-49888900D01*
X208594297Y-50043772D01*
X208627000Y-50208184D01*
X208627000Y-50375816D01*
X208594297Y-50540228D01*
X208530147Y-50695100D01*
X208437015Y-50834481D01*
X208318481Y-50953015D01*
X208179100Y-51046147D01*
X208024228Y-51110297D01*
X207859816Y-51143000D01*
X207692184Y-51143000D01*
X207527772Y-51110297D01*
X207372900Y-51046147D01*
X207233519Y-50953015D01*
X207114985Y-50834481D01*
X207021853Y-50695100D01*
X206957703Y-50540228D01*
X206925000Y-50375816D01*
X206925000Y-50208184D01*
X206957703Y-50043772D01*
X207021853Y-49888900D01*
X207114985Y-49749519D01*
X207233519Y-49630985D01*
X207372900Y-49537853D01*
X207527772Y-49473703D01*
X207692184Y-49441000D01*
X207859816Y-49441000D01*
X208024228Y-49473703D01*
G37*
G36*
X212084228Y-49473703D02*
G01*
X212239100Y-49537853D01*
X212378481Y-49630985D01*
X212497015Y-49749519D01*
X212590147Y-49888900D01*
X212654297Y-50043772D01*
X212687000Y-50208184D01*
X212687000Y-50375816D01*
X212654297Y-50540228D01*
X212590147Y-50695100D01*
X212497015Y-50834481D01*
X212378481Y-50953015D01*
X212239100Y-51046147D01*
X212084228Y-51110297D01*
X211919816Y-51143000D01*
X211752184Y-51143000D01*
X211587772Y-51110297D01*
X211432900Y-51046147D01*
X211293519Y-50953015D01*
X211174985Y-50834481D01*
X211081853Y-50695100D01*
X211017703Y-50540228D01*
X210985000Y-50375816D01*
X210985000Y-50208184D01*
X211017703Y-50043772D01*
X211081853Y-49888900D01*
X211174985Y-49749519D01*
X211293519Y-49630985D01*
X211432900Y-49537853D01*
X211587772Y-49473703D01*
X211752184Y-49441000D01*
X211919816Y-49441000D01*
X212084228Y-49473703D01*
G37*
G36*
X214624228Y-49473703D02*
G01*
X214779100Y-49537853D01*
X214918481Y-49630985D01*
X215037015Y-49749519D01*
X215130147Y-49888900D01*
X215194297Y-50043772D01*
X215227000Y-50208184D01*
X215227000Y-50375816D01*
X215194297Y-50540228D01*
X215130147Y-50695100D01*
X215037015Y-50834481D01*
X214918481Y-50953015D01*
X214779100Y-51046147D01*
X214624228Y-51110297D01*
X214459816Y-51143000D01*
X214292184Y-51143000D01*
X214127772Y-51110297D01*
X213972900Y-51046147D01*
X213833519Y-50953015D01*
X213714985Y-50834481D01*
X213621853Y-50695100D01*
X213557703Y-50540228D01*
X213525000Y-50375816D01*
X213525000Y-50208184D01*
X213557703Y-50043772D01*
X213621853Y-49888900D01*
X213714985Y-49749519D01*
X213833519Y-49630985D01*
X213972900Y-49537853D01*
X214127772Y-49473703D01*
X214292184Y-49441000D01*
X214459816Y-49441000D01*
X214624228Y-49473703D01*
G37*
G36*
X217164228Y-49473703D02*
G01*
X217319100Y-49537853D01*
X217458481Y-49630985D01*
X217577015Y-49749519D01*
X217670147Y-49888900D01*
X217734297Y-50043772D01*
X217767000Y-50208184D01*
X217767000Y-50375816D01*
X217734297Y-50540228D01*
X217670147Y-50695100D01*
X217577015Y-50834481D01*
X217458481Y-50953015D01*
X217319100Y-51046147D01*
X217164228Y-51110297D01*
X216999816Y-51143000D01*
X216832184Y-51143000D01*
X216667772Y-51110297D01*
X216512900Y-51046147D01*
X216373519Y-50953015D01*
X216254985Y-50834481D01*
X216161853Y-50695100D01*
X216097703Y-50540228D01*
X216065000Y-50375816D01*
X216065000Y-50208184D01*
X216097703Y-50043772D01*
X216161853Y-49888900D01*
X216254985Y-49749519D01*
X216373519Y-49630985D01*
X216512900Y-49537853D01*
X216667772Y-49473703D01*
X216832184Y-49441000D01*
X216999816Y-49441000D01*
X217164228Y-49473703D01*
G37*
G36*
X219704228Y-49473703D02*
G01*
X219859100Y-49537853D01*
X219998481Y-49630985D01*
X220117015Y-49749519D01*
X220210147Y-49888900D01*
X220274297Y-50043772D01*
X220307000Y-50208184D01*
X220307000Y-50375816D01*
X220274297Y-50540228D01*
X220210147Y-50695100D01*
X220117015Y-50834481D01*
X219998481Y-50953015D01*
X219859100Y-51046147D01*
X219704228Y-51110297D01*
X219539816Y-51143000D01*
X219372184Y-51143000D01*
X219207772Y-51110297D01*
X219052900Y-51046147D01*
X218913519Y-50953015D01*
X218794985Y-50834481D01*
X218701853Y-50695100D01*
X218637703Y-50540228D01*
X218605000Y-50375816D01*
X218605000Y-50208184D01*
X218637703Y-50043772D01*
X218701853Y-49888900D01*
X218794985Y-49749519D01*
X218913519Y-49630985D01*
X219052900Y-49537853D01*
X219207772Y-49473703D01*
X219372184Y-49441000D01*
X219539816Y-49441000D01*
X219704228Y-49473703D01*
G37*
G36*
X222244228Y-49473703D02*
G01*
X222399100Y-49537853D01*
X222538481Y-49630985D01*
X222657015Y-49749519D01*
X222750147Y-49888900D01*
X222814297Y-50043772D01*
X222847000Y-50208184D01*
X222847000Y-50375816D01*
X222814297Y-50540228D01*
X222750147Y-50695100D01*
X222657015Y-50834481D01*
X222538481Y-50953015D01*
X222399100Y-51046147D01*
X222244228Y-51110297D01*
X222079816Y-51143000D01*
X221912184Y-51143000D01*
X221747772Y-51110297D01*
X221592900Y-51046147D01*
X221453519Y-50953015D01*
X221334985Y-50834481D01*
X221241853Y-50695100D01*
X221177703Y-50540228D01*
X221145000Y-50375816D01*
X221145000Y-50208184D01*
X221177703Y-50043772D01*
X221241853Y-49888900D01*
X221334985Y-49749519D01*
X221453519Y-49630985D01*
X221592900Y-49537853D01*
X221747772Y-49473703D01*
X221912184Y-49441000D01*
X222079816Y-49441000D01*
X222244228Y-49473703D01*
G37*
G36*
X224784228Y-49473703D02*
G01*
X224939100Y-49537853D01*
X225078481Y-49630985D01*
X225197015Y-49749519D01*
X225290147Y-49888900D01*
X225354297Y-50043772D01*
X225387000Y-50208184D01*
X225387000Y-50375816D01*
X225354297Y-50540228D01*
X225290147Y-50695100D01*
X225197015Y-50834481D01*
X225078481Y-50953015D01*
X224939100Y-51046147D01*
X224784228Y-51110297D01*
X224619816Y-51143000D01*
X224452184Y-51143000D01*
X224287772Y-51110297D01*
X224132900Y-51046147D01*
X223993519Y-50953015D01*
X223874985Y-50834481D01*
X223781853Y-50695100D01*
X223717703Y-50540228D01*
X223685000Y-50375816D01*
X223685000Y-50208184D01*
X223717703Y-50043772D01*
X223781853Y-49888900D01*
X223874985Y-49749519D01*
X223993519Y-49630985D01*
X224132900Y-49537853D01*
X224287772Y-49473703D01*
X224452184Y-49441000D01*
X224619816Y-49441000D01*
X224784228Y-49473703D01*
G37*
G36*
X187704228Y-49473703D02*
G01*
X187859100Y-49537853D01*
X187998481Y-49630985D01*
X188117015Y-49749519D01*
X188210147Y-49888900D01*
X188274297Y-50043772D01*
X188307000Y-50208184D01*
X188307000Y-50375816D01*
X188274297Y-50540228D01*
X188210147Y-50695100D01*
X188117015Y-50834481D01*
X187998481Y-50953015D01*
X187859100Y-51046147D01*
X187704228Y-51110297D01*
X187539816Y-51143000D01*
X187372184Y-51143000D01*
X187207772Y-51110297D01*
X187052900Y-51046147D01*
X186913519Y-50953015D01*
X186794985Y-50834481D01*
X186701853Y-50695100D01*
X186637703Y-50540228D01*
X186605000Y-50375816D01*
X186605000Y-50208184D01*
X186637703Y-50043772D01*
X186701853Y-49888900D01*
X186794985Y-49749519D01*
X186913519Y-49630985D01*
X187052900Y-49537853D01*
X187207772Y-49473703D01*
X187372184Y-49441000D01*
X187539816Y-49441000D01*
X187704228Y-49473703D01*
G37*
G36*
X205484228Y-49473703D02*
G01*
X205639100Y-49537853D01*
X205778481Y-49630985D01*
X205897015Y-49749519D01*
X205990147Y-49888900D01*
X206054297Y-50043772D01*
X206087000Y-50208184D01*
X206087000Y-50375816D01*
X206054297Y-50540228D01*
X205990147Y-50695100D01*
X205897015Y-50834481D01*
X205778481Y-50953015D01*
X205639100Y-51046147D01*
X205484228Y-51110297D01*
X205319816Y-51143000D01*
X205152184Y-51143000D01*
X204987772Y-51110297D01*
X204832900Y-51046147D01*
X204693519Y-50953015D01*
X204574985Y-50834481D01*
X204481853Y-50695100D01*
X204417703Y-50540228D01*
X204385000Y-50375816D01*
X204385000Y-50208184D01*
X204417703Y-50043772D01*
X204481853Y-49888900D01*
X204574985Y-49749519D01*
X204693519Y-49630985D01*
X204832900Y-49537853D01*
X204987772Y-49473703D01*
X205152184Y-49441000D01*
X205319816Y-49441000D01*
X205484228Y-49473703D01*
G37*
M02*
