G04 #@! TF.GenerationSoftware,KiCad,Pcbnew,5.1.6+dfsg1-1*
G04 #@! TF.CreationDate,2021-02-24T22:01:50+01:00*
G04 #@! TF.ProjectId,motor-control,6d6f746f-722d-4636-9f6e-74726f6c2e6b,rev?*
G04 #@! TF.SameCoordinates,Original*
G04 #@! TF.FileFunction,Copper,L1,Top*
G04 #@! TF.FilePolarity,Positive*
%FSLAX46Y46*%
G04 Gerber Fmt 4.6, Leading zero omitted, Abs format (unit mm)*
G04 Created by KiCad (PCBNEW 5.1.6+dfsg1-1) date 2021-02-24 22:01:50*
%MOMM*%
%LPD*%
G01*
G04 APERTURE LIST*
G04 #@! TA.AperFunction,ComponentPad*
%ADD10O,2.200000X2.200000*%
G04 #@! TD*
G04 #@! TA.AperFunction,ComponentPad*
%ADD11R,2.200000X2.200000*%
G04 #@! TD*
G04 #@! TA.AperFunction,ComponentPad*
%ADD12O,1.600000X1.600000*%
G04 #@! TD*
G04 #@! TA.AperFunction,ComponentPad*
%ADD13R,1.600000X1.600000*%
G04 #@! TD*
G04 #@! TA.AperFunction,ComponentPad*
%ADD14C,1.600000*%
G04 #@! TD*
G04 #@! TA.AperFunction,ComponentPad*
%ADD15R,2.600000X2.600000*%
G04 #@! TD*
G04 #@! TA.AperFunction,ComponentPad*
%ADD16O,2.600000X2.600000*%
G04 #@! TD*
G04 #@! TA.AperFunction,ComponentPad*
%ADD17R,1.800000X1.800000*%
G04 #@! TD*
G04 #@! TA.AperFunction,ComponentPad*
%ADD18C,1.800000*%
G04 #@! TD*
G04 #@! TA.AperFunction,ComponentPad*
%ADD19R,3.500120X3.500120*%
G04 #@! TD*
G04 #@! TA.AperFunction,ComponentPad*
%ADD20C,3.500120*%
G04 #@! TD*
G04 #@! TA.AperFunction,ComponentPad*
%ADD21O,2.200000X1.740000*%
G04 #@! TD*
G04 #@! TA.AperFunction,ComponentPad*
%ADD22O,1.750000X1.200000*%
G04 #@! TD*
G04 #@! TA.AperFunction,ComponentPad*
%ADD23O,1.800000X1.800000*%
G04 #@! TD*
G04 #@! TA.AperFunction,ViaPad*
%ADD24C,0.800000*%
G04 #@! TD*
G04 #@! TA.AperFunction,Conductor*
%ADD25C,0.250000*%
G04 #@! TD*
G04 #@! TA.AperFunction,Conductor*
%ADD26C,1.000000*%
G04 #@! TD*
G04 APERTURE END LIST*
D10*
X179959000Y-58039000D03*
D11*
X190119000Y-58039000D03*
D12*
X184916000Y-50292000D03*
X187456000Y-50292000D03*
D13*
X194056000Y-98552000D03*
D12*
X224536000Y-50292000D03*
X196596000Y-98552000D03*
X221996000Y-50292000D03*
X199136000Y-98552000D03*
X219456000Y-50292000D03*
X201676000Y-98552000D03*
X216916000Y-50292000D03*
X204216000Y-98552000D03*
X214376000Y-50292000D03*
X206756000Y-98552000D03*
X211836000Y-50292000D03*
X209296000Y-98552000D03*
X207776000Y-50292000D03*
X211836000Y-98552000D03*
X205236000Y-50292000D03*
X216916000Y-98552000D03*
X202696000Y-50292000D03*
X219456000Y-98552000D03*
X200156000Y-50292000D03*
X221996000Y-98552000D03*
X197616000Y-50292000D03*
X224536000Y-98552000D03*
X195076000Y-50292000D03*
X227076000Y-98552000D03*
X192536000Y-50292000D03*
X229616000Y-98552000D03*
X189996000Y-50292000D03*
X229616000Y-50292000D03*
X227076000Y-50292000D03*
D13*
X221488000Y-92202000D03*
D14*
X223488000Y-92202000D03*
X195580000Y-73613000D03*
X195580000Y-78613000D03*
X195580000Y-65833000D03*
X195580000Y-60833000D03*
X204978000Y-91694000D03*
X199978000Y-91694000D03*
X204978000Y-73660000D03*
X199978000Y-73660000D03*
D15*
X229489000Y-80264000D03*
D16*
X229489000Y-67564000D03*
D17*
X222631000Y-74930000D03*
D18*
X222631000Y-72390000D03*
X205359000Y-56007000D03*
D17*
X202819000Y-56007000D03*
X217297000Y-55880000D03*
D18*
X219837000Y-55880000D03*
D19*
X228346000Y-61722000D03*
D20*
X228346000Y-56642000D03*
G04 #@! TA.AperFunction,ComponentPad*
G36*
G01*
X231355001Y-94215000D02*
X229654999Y-94215000D01*
G75*
G02*
X229405000Y-93965001I0J249999D01*
G01*
X229405000Y-92724999D01*
G75*
G02*
X229654999Y-92475000I249999J0D01*
G01*
X231355001Y-92475000D01*
G75*
G02*
X231605000Y-92724999I0J-249999D01*
G01*
X231605000Y-93965001D01*
G75*
G02*
X231355001Y-94215000I-249999J0D01*
G01*
G37*
G04 #@! TD.AperFunction*
D21*
X230505000Y-90805000D03*
X230505000Y-88265000D03*
X230505000Y-85725000D03*
G04 #@! TA.AperFunction,ComponentPad*
G36*
G01*
X173364999Y-54010000D02*
X174615001Y-54010000D01*
G75*
G02*
X174865000Y-54259999I0J-249999D01*
G01*
X174865000Y-54960001D01*
G75*
G02*
X174615001Y-55210000I-249999J0D01*
G01*
X173364999Y-55210000D01*
G75*
G02*
X173115000Y-54960001I0J249999D01*
G01*
X173115000Y-54259999D01*
G75*
G02*
X173364999Y-54010000I249999J0D01*
G01*
G37*
G04 #@! TD.AperFunction*
D22*
X173990000Y-56610000D03*
X173990000Y-58610000D03*
X173990000Y-60610000D03*
X173990000Y-62610000D03*
X173990000Y-64610000D03*
X173990000Y-79850000D03*
X173990000Y-77850000D03*
X173990000Y-75850000D03*
X173990000Y-73850000D03*
X173990000Y-71850000D03*
G04 #@! TA.AperFunction,ComponentPad*
G36*
G01*
X173364999Y-69250000D02*
X174615001Y-69250000D01*
G75*
G02*
X174865000Y-69499999I0J-249999D01*
G01*
X174865000Y-70200001D01*
G75*
G02*
X174615001Y-70450000I-249999J0D01*
G01*
X173364999Y-70450000D01*
G75*
G02*
X173115000Y-70200001I0J249999D01*
G01*
X173115000Y-69499999D01*
G75*
G02*
X173364999Y-69250000I249999J0D01*
G01*
G37*
G04 #@! TD.AperFunction*
G04 #@! TA.AperFunction,ComponentPad*
G36*
G01*
X173364999Y-84490000D02*
X174615001Y-84490000D01*
G75*
G02*
X174865000Y-84739999I0J-249999D01*
G01*
X174865000Y-85440001D01*
G75*
G02*
X174615001Y-85690000I-249999J0D01*
G01*
X173364999Y-85690000D01*
G75*
G02*
X173115000Y-85440001I0J249999D01*
G01*
X173115000Y-84739999D01*
G75*
G02*
X173364999Y-84490000I249999J0D01*
G01*
G37*
G04 #@! TD.AperFunction*
X173990000Y-87090000D03*
X173990000Y-89090000D03*
X173990000Y-91090000D03*
X173990000Y-93090000D03*
X173990000Y-95090000D03*
D17*
X200406000Y-69596000D03*
D23*
X201676000Y-64516000D03*
X202946000Y-69596000D03*
X204216000Y-64516000D03*
X205486000Y-69596000D03*
X206756000Y-64516000D03*
X208026000Y-69596000D03*
X209296000Y-64516000D03*
X210566000Y-69596000D03*
X211836000Y-64516000D03*
X213106000Y-69596000D03*
X214376000Y-64516000D03*
X215646000Y-69596000D03*
X216916000Y-64516000D03*
X218186000Y-69596000D03*
X218059000Y-87503000D03*
X216789000Y-82423000D03*
X215519000Y-87503000D03*
X214249000Y-82423000D03*
X212979000Y-87503000D03*
X211709000Y-82423000D03*
X210439000Y-87503000D03*
X209169000Y-82423000D03*
X207899000Y-87503000D03*
X206629000Y-82423000D03*
X205359000Y-87503000D03*
X204089000Y-82423000D03*
X202819000Y-87503000D03*
X201549000Y-82423000D03*
D17*
X200279000Y-87503000D03*
D11*
X190119000Y-64897000D03*
D10*
X179959000Y-64897000D03*
X190119000Y-61468000D03*
D11*
X179959000Y-61468000D03*
D10*
X179832000Y-98171000D03*
D11*
X189992000Y-98171000D03*
D10*
X189992000Y-94742000D03*
D11*
X179832000Y-94742000D03*
X179959000Y-54610000D03*
D10*
X190119000Y-54610000D03*
D11*
X189992000Y-91313000D03*
D10*
X179832000Y-91313000D03*
D11*
X179832000Y-87884000D03*
D10*
X189992000Y-87884000D03*
D11*
X189992000Y-81026000D03*
D10*
X179832000Y-81026000D03*
X189992000Y-77597000D03*
D11*
X179832000Y-77597000D03*
X189992000Y-74168000D03*
D10*
X179832000Y-74168000D03*
D11*
X179832000Y-70739000D03*
D10*
X189992000Y-70739000D03*
D14*
X222631000Y-78105000D03*
D12*
X222631000Y-80645000D03*
X197104000Y-56007000D03*
D14*
X199644000Y-56007000D03*
X214122000Y-55880000D03*
D12*
X211582000Y-55880000D03*
D24*
X194818000Y-53213000D03*
D25*
X228879990Y-97815990D02*
X229616000Y-98552000D01*
X228879990Y-91080010D02*
X228879990Y-97815990D01*
X229155000Y-90805000D02*
X228879990Y-91080010D01*
X230505000Y-90805000D02*
X229155000Y-90805000D01*
X227076000Y-91694000D02*
X227076000Y-98552000D01*
X230505000Y-88265000D02*
X227076000Y-91694000D01*
X194818000Y-50550000D02*
X195076000Y-50292000D01*
X194818000Y-53213000D02*
X194818000Y-50550000D01*
X199191011Y-51867011D02*
X197616000Y-50292000D01*
X220267601Y-51867011D02*
X199191011Y-51867011D01*
X222873980Y-64019020D02*
X222873980Y-54473390D01*
X222873980Y-54473390D02*
X220267601Y-51867011D01*
X219172011Y-67720989D02*
X222873980Y-64019020D01*
X209901011Y-67720989D02*
X219172011Y-67720989D01*
X208026000Y-69596000D02*
X209901011Y-67720989D01*
X206502000Y-73660000D02*
X204978000Y-73660000D01*
X210566000Y-69596000D02*
X206502000Y-73660000D01*
X206248000Y-91694000D02*
X210439000Y-87503000D01*
X204978000Y-91694000D02*
X206248000Y-91694000D01*
X175411344Y-72428656D02*
X173990000Y-73850000D01*
X175411344Y-60031344D02*
X175411344Y-72428656D01*
X173990000Y-58610000D02*
X175411344Y-60031344D01*
X175390010Y-75250010D02*
X173990000Y-73850000D01*
X175390010Y-87689990D02*
X175390010Y-75250010D01*
X173990000Y-89090000D02*
X175390010Y-87689990D01*
X173990000Y-89090000D02*
X179028989Y-84051011D01*
X194943999Y-84938001D02*
X196620999Y-84938001D01*
X194057009Y-84051011D02*
X194943999Y-84938001D01*
X179028989Y-84051011D02*
X194057009Y-84051011D01*
X207613990Y-84677990D02*
X210439000Y-87503000D01*
X196881010Y-84677990D02*
X207613990Y-84677990D01*
X196620999Y-84938001D02*
X196881010Y-84677990D01*
X172589990Y-57209990D02*
X173990000Y-58610000D01*
X172589990Y-53938978D02*
X172589990Y-57209990D01*
X175111967Y-51417001D02*
X172589990Y-53938978D01*
X189331003Y-51417001D02*
X175111967Y-51417001D01*
X191958012Y-54044010D02*
X189331003Y-51417001D01*
X219273802Y-54044010D02*
X191958012Y-54044010D01*
X219837000Y-54607208D02*
X219273802Y-54044010D01*
X219837000Y-55880000D02*
X219837000Y-54607208D01*
D26*
X191992001Y-76168001D02*
X189992000Y-74168000D01*
X191992001Y-79025999D02*
X191992001Y-76168001D01*
X189992000Y-81026000D02*
X191992001Y-79025999D01*
X191992001Y-93313001D02*
X189992000Y-91313000D01*
X191992001Y-96170999D02*
X191992001Y-93313001D01*
X189992000Y-98171000D02*
X191992001Y-96170999D01*
X190395001Y-80622999D02*
X189992000Y-81026000D01*
X201805792Y-60833000D02*
X195580000Y-60833000D01*
X204216000Y-63243208D02*
X201805792Y-60833000D01*
X192913000Y-60833000D02*
X190119000Y-58039000D01*
X195580000Y-60833000D02*
X192913000Y-60833000D01*
X192913000Y-62103000D02*
X192913000Y-60833000D01*
X190119000Y-64897000D02*
X192913000Y-62103000D01*
X211836000Y-98552000D02*
X211812002Y-98552000D01*
X218186000Y-92202000D02*
X221488000Y-92202000D01*
X211836000Y-98552000D02*
X218186000Y-92202000D01*
X221488000Y-88265000D02*
X229489000Y-80264000D01*
X221488000Y-92202000D02*
X221488000Y-88265000D01*
X191311001Y-96851999D02*
X189992000Y-98171000D01*
X210135999Y-96851999D02*
X191311001Y-96851999D01*
X211836000Y-98552000D02*
X210135999Y-96851999D01*
X204216000Y-63243208D02*
X204216000Y-64516000D01*
X205359000Y-57279792D02*
X201805792Y-60833000D01*
X205359000Y-56007000D02*
X205359000Y-57279792D01*
D25*
X176398601Y-48516988D02*
X217680989Y-48516989D01*
X173990000Y-79850000D02*
X171380989Y-77240989D01*
X171380989Y-77240989D02*
X171380989Y-53534600D01*
X171380989Y-53534600D02*
X176398601Y-48516988D01*
X217680989Y-48516989D02*
X219456000Y-50292000D01*
X215590999Y-48966999D02*
X216916000Y-50292000D01*
X171831000Y-53721000D02*
X176585001Y-48966999D01*
X171831000Y-75691000D02*
X171831000Y-53721000D01*
X173990000Y-77850000D02*
X171831000Y-75691000D01*
X176585001Y-48966999D02*
X215590999Y-48966999D01*
X215590999Y-99877001D02*
X216916000Y-98552000D01*
X177927001Y-99877001D02*
X215590999Y-99877001D01*
X173990000Y-95940000D02*
X177927001Y-99877001D01*
X173990000Y-95090000D02*
X173990000Y-95940000D01*
X217680989Y-100327011D02*
X219456000Y-98552000D01*
X177643850Y-100327011D02*
X217680989Y-100327011D01*
X172789990Y-95473151D02*
X177643850Y-100327011D01*
X172789990Y-94290010D02*
X172789990Y-95473151D01*
X173990000Y-93090000D02*
X172789990Y-94290010D01*
D26*
X228346000Y-66421000D02*
X229489000Y-67564000D01*
X228346000Y-61722000D02*
X228346000Y-66421000D01*
X222631000Y-74930000D02*
X222631000Y-78105000D01*
X202819000Y-56007000D02*
X199644000Y-56007000D01*
X217297000Y-55880000D02*
X214122000Y-55880000D01*
D25*
X223774000Y-52070000D02*
X221996000Y-50292000D01*
X223774000Y-66117002D02*
X223774000Y-52070000D01*
X208893003Y-80997999D02*
X223774000Y-66117002D01*
X208054001Y-80997999D02*
X208893003Y-80997999D01*
X206629000Y-82423000D02*
X208054001Y-80997999D01*
X201281001Y-51417001D02*
X200156000Y-50292000D01*
X220454001Y-51417001D02*
X201281001Y-51417001D01*
X223323990Y-54286990D02*
X220454001Y-51417001D01*
X223323990Y-64205420D02*
X223323990Y-54286990D01*
X214531001Y-68170999D02*
X219358411Y-68170999D01*
X219358411Y-68170999D02*
X223323990Y-64205420D01*
X213106000Y-69596000D02*
X214531001Y-68170999D01*
D26*
X179959000Y-64897000D02*
X179959000Y-61468000D01*
X179959000Y-64897000D02*
X181959001Y-66897001D01*
X175101000Y-56610000D02*
X173990000Y-56610000D01*
X179959000Y-61468000D02*
X175101000Y-56610000D01*
X194763999Y-64132999D02*
X201292999Y-64132999D01*
X191999997Y-66897001D02*
X194763999Y-64132999D01*
X201292999Y-64132999D02*
X201676000Y-64516000D01*
X181959001Y-66897001D02*
X191999997Y-66897001D01*
X179832000Y-98171000D02*
X179832000Y-94742000D01*
X179959000Y-58039000D02*
X179959000Y-54610000D01*
X179959000Y-54610000D02*
X173990000Y-54610000D01*
X179832000Y-91313000D02*
X179832000Y-87884000D01*
X179705000Y-88011000D02*
X179832000Y-87884000D01*
X202819000Y-86230208D02*
X202819000Y-87503000D01*
X202291791Y-85702999D02*
X202819000Y-86230208D01*
X179832000Y-87884000D02*
X182013001Y-85702999D01*
X190771001Y-85702999D02*
X182013001Y-85702999D01*
X197045572Y-85963011D02*
X191031013Y-85963011D01*
X197305584Y-85702999D02*
X197045572Y-85963011D01*
X191031013Y-85963011D02*
X190771001Y-85702999D01*
X202291791Y-85702999D02*
X197305584Y-85702999D01*
X179832000Y-81026000D02*
X179832000Y-77597000D01*
X179832000Y-77295666D02*
X179832000Y-77597000D01*
X173990000Y-71850000D02*
X174386334Y-71850000D01*
X215646000Y-70868792D02*
X215646000Y-69596000D01*
X205891793Y-80622999D02*
X215646000Y-70868792D01*
X196053999Y-80622999D02*
X205891793Y-80622999D01*
X193650997Y-83026001D02*
X196053999Y-80622999D01*
X181832001Y-83026001D02*
X193650997Y-83026001D01*
X179832000Y-81026000D02*
X181832001Y-83026001D01*
X179832000Y-74168000D02*
X179832000Y-70739000D01*
X179705000Y-70866000D02*
X179832000Y-70739000D01*
X200239020Y-66342978D02*
X216361814Y-66342978D01*
X179832000Y-70739000D02*
X182273989Y-68297011D01*
X182273989Y-68297011D02*
X198284987Y-68297011D01*
X198284987Y-68297011D02*
X200239020Y-66342978D01*
X216916000Y-65788792D02*
X216916000Y-64516000D01*
X216361814Y-66342978D02*
X216916000Y-65788792D01*
X216916000Y-64640002D02*
X216916000Y-64516000D01*
M02*
