# Created by FreeCAD <http://www.freecadweb.org>
v -26.000000 45.000000 -3.000000
v -26.000000 45.000000 0.000000
v -26.000000 35.000000 0.000000
v -26.000000 35.000000 -3.000000
v -31.343607 38.195221 0.000000
v -31.723600 38.553726 0.000000
v -41.000000 35.000000 0.000000
v -32.010674 38.990204 0.000000
v -30.891178 37.934013 0.000000
v -32.189350 39.481113 0.000000
v -30.390709 37.784184 0.000000
v -32.250000 40.000000 0.000000
v -41.000000 45.000000 0.000000
v -32.189350 40.518887 0.000000
v -32.010674 41.009796 0.000000
v -29.869175 37.753807 0.000000
v -29.354692 37.844524 0.000000
v -28.875000 38.051441 0.000000
v -31.723600 41.446274 0.000000
v -28.455956 38.363411 0.000000
v -31.343607 41.804779 0.000000
v -28.120152 38.763603 0.000000
v -30.891178 42.065987 0.000000
v -27.885693 39.230453 0.000000
v -27.765213 39.738792 0.000000
v -27.765213 40.261208 0.000000
v -27.885693 40.769547 0.000000
v -28.120152 41.236397 0.000000
v -28.455956 41.636589 0.000000
v -28.875000 41.948559 0.000000
v -29.354692 42.155476 0.000000
v -29.869175 42.246193 0.000000
v -30.390709 42.215816 0.000000
v -28.120152 38.763603 -3.000000
v -28.455956 38.363411 -3.000000
v -28.875000 38.051441 -3.000000
v -27.885693 39.230453 -3.000000
v -29.354692 37.844524 -3.000000
v -27.765213 39.738792 -3.000000
v -29.869175 37.753807 -3.000000
v -30.390709 37.784184 -3.000000
v -36.000000 35.000000 -3.000000
v -31.723600 38.553726 -3.000000
v -31.343607 38.195221 -3.000000
v -30.891178 37.934013 -3.000000
v -27.765213 40.261208 -3.000000
v -27.885693 40.769547 -3.000000
v -28.120152 41.236397 -3.000000
v -28.455956 41.636589 -3.000000
v -28.875000 41.948559 -3.000000
v -32.010674 38.990204 -3.000000
v -29.354692 42.155476 -3.000000
v -32.189350 39.481113 -3.000000
v -29.869175 42.246193 -3.000000
v -32.250000 40.000000 -3.000000
v -30.390709 42.215816 -3.000000
v -36.000000 45.000000 -3.000000
v -30.891178 42.065987 -3.000000
v -31.343607 41.804779 -3.000000
v -31.723600 41.446274 -3.000000
v -32.010674 41.009796 -3.000000
v -32.189350 40.518887 -3.000000
v -26.000000 45.000000 -22.000000
v -41.000000 45.000000 -22.000000
v -36.000000 45.000000 -19.000000
v -26.000000 45.000000 -19.000000
v -41.000000 35.000000 -22.000000
v -26.000000 35.000000 -22.000000
v -36.000000 35.000000 -19.000000
v -26.000000 35.000000 -19.000000
v -36.000000 35.000000 -3.000000
v -41.000000 35.000000 0.000000
v -26.000000 35.000000 -3.000000
v -26.000000 35.000000 0.000000
v -41.000000 35.000000 -22.000000
v -36.000000 35.000000 -19.000000
v -34.214657 40.000000 -19.000000
v -32.107330 36.349998 -19.000000
v -26.000000 35.000000 -19.000000
v -27.892672 36.349998 -19.000000
v -32.107330 43.650002 -19.000000
v -26.000000 39.628204 -19.000000
v -27.892672 43.650002 -19.000000
v -26.000000 40.371796 -19.000000
v -26.000000 39.628204 -20.000000
v -26.000000 35.000000 -22.000000
v -26.000000 40.371796 -20.000000
v -28.656393 38.195221 -22.000000
v -28.276400 38.553726 -22.000000
v -27.989326 38.990204 -22.000000
v -29.108822 37.934013 -22.000000
v -27.810650 39.481113 -22.000000
v -29.609291 37.784184 -22.000000
v -27.750000 40.000000 -22.000000
v -30.130825 37.753807 -22.000000
v -30.645308 37.844524 -22.000000
v -28.276400 41.446274 -22.000000
v -28.656393 41.804779 -22.000000
v -27.989326 41.009796 -22.000000
v -27.810650 40.518887 -22.000000
v -29.108822 42.065987 -22.000000
v -29.609291 42.215816 -22.000000
v -30.130825 42.246193 -22.000000
v -30.645308 42.155476 -22.000000
v -31.125000 38.051441 -22.000000
v -31.544044 38.363411 -22.000000
v -31.879848 38.763603 -22.000000
v -32.114307 39.230453 -22.000000
v -32.234787 39.738792 -22.000000
v -32.234787 40.261208 -22.000000
v -32.114307 40.769547 -22.000000
v -31.879848 41.236397 -22.000000
v -31.544044 41.636589 -22.000000
v -31.125000 41.948559 -22.000000
v -27.892672 43.650002 -20.000000
v -32.107330 43.650002 -20.000000
v -34.214657 40.000000 -20.000000
v -32.107330 36.349998 -20.000000
v -27.892672 36.349998 -20.000000
v -28.656393 38.195221 -20.000000
v -28.276400 38.553726 -20.000000
v -27.989326 38.990204 -20.000000
v -29.108822 37.934013 -20.000000
v -27.810650 39.481113 -20.000000
v -29.609291 37.784184 -20.000000
v -27.750000 40.000000 -20.000000
v -30.130825 37.753807 -20.000000
v -27.810650 40.518887 -20.000000
v -30.645308 37.844524 -20.000000
v -27.989326 41.009796 -20.000000
v -31.125000 38.051441 -20.000000
v -31.544044 38.363411 -20.000000
v -31.879848 38.763603 -20.000000
v -29.108822 42.065987 -20.000000
v -28.656393 41.804779 -20.000000
v -28.276400 41.446274 -20.000000
v -29.609291 42.215816 -20.000000
v -30.130825 42.246193 -20.000000
v -32.114307 39.230453 -20.000000
v -32.234787 39.738792 -20.000000
v -32.234787 40.261208 -20.000000
v -32.114307 40.769547 -20.000000
v -31.879848 41.236397 -20.000000
v -31.544044 41.636589 -20.000000
v -31.125000 41.948559 -20.000000
v -30.645308 42.155476 -20.000000
vn 1.000000 0.000000 -0.000000
vn 1.000000 0.000000 0.000000
vn 0.000000 0.000000 1.000000
vn 0.000000 0.000000 1.000000
vn 0.000000 0.000000 1.000000
vn 0.000000 0.000000 1.000000
vn 0.000000 0.000000 1.000000
vn 0.000000 0.000000 1.000000
vn 0.000000 0.000000 1.000000
vn 0.000000 0.000000 1.000000
vn 0.000000 0.000000 1.000000
vn 0.000000 0.000000 1.000000
vn 0.000000 0.000000 1.000000
vn 0.000000 0.000000 1.000000
vn 0.000000 0.000000 1.000000
vn 0.000000 0.000000 1.000000
vn 0.000000 0.000000 1.000000
vn 0.000000 0.000000 1.000000
vn 0.000000 0.000000 1.000000
vn 0.000000 0.000000 1.000000
vn 0.000000 0.000000 1.000000
vn 0.000000 0.000000 1.000000
vn 0.000000 0.000000 1.000000
vn 0.000000 0.000000 1.000000
vn 0.000000 0.000000 1.000000
vn 0.000000 0.000000 1.000000
vn 0.000000 0.000000 1.000000
vn 0.000000 0.000000 1.000000
vn 0.000000 0.000000 1.000000
vn 0.000000 0.000000 1.000000
vn 0.000000 0.000000 1.000000
vn 0.000000 0.000000 1.000000
vn 0.000000 0.000000 1.000000
vn 0.000000 -0.000000 -1.000000
vn 0.000000 0.000000 -1.000000
vn 0.000000 -0.000000 -1.000000
vn 0.000000 0.000000 -1.000000
vn 0.000000 -0.000000 -1.000000
vn 0.000000 0.000000 -1.000000
vn 0.000000 0.000000 -1.000000
vn 0.000000 0.000000 -1.000000
vn 0.000000 0.000000 -1.000000
vn 0.000000 0.000000 -1.000000
vn 0.000000 0.000000 -1.000000
vn 0.000000 0.000000 -1.000000
vn 0.000000 0.000000 -1.000000
vn 0.000000 0.000000 -1.000000
vn 0.000000 0.000000 -1.000000
vn 0.000000 0.000000 -1.000000
vn 0.000000 -0.000000 -1.000000
vn 0.000000 -0.000000 -1.000000
vn 0.000000 0.000000 -1.000000
vn 0.000000 -0.000000 -1.000000
vn 0.000000 0.000000 -1.000000
vn 0.000000 -0.000000 -1.000000
vn 0.000000 0.000000 -1.000000
vn 0.000000 0.000000 -1.000000
vn 0.000000 0.000000 -1.000000
vn 0.000000 0.000000 -1.000000
vn 0.000000 0.000000 -1.000000
vn 0.000000 0.000000 -1.000000
vn 0.000000 0.000000 -1.000000
vn 0.000000 0.000000 -1.000000
vn 0.000000 0.000000 -1.000000
vn 0.000000 1.000000 0.000000
vn 0.000000 1.000000 0.000000
vn 0.000000 1.000000 0.000000
vn 0.000000 1.000000 0.000000
vn 0.000000 1.000000 0.000000
vn 0.000000 1.000000 0.000000
vn 0.000000 -1.000000 0.000000
vn 0.000000 -1.000000 0.000000
vn 0.000000 -1.000000 0.000000
vn -0.000000 -1.000000 0.000000
vn 0.000000 -1.000000 0.000000
vn 0.000000 -1.000000 0.000000
vn -1.000000 0.000000 -0.000000
vn -1.000000 -0.000000 0.000000
vn 0.993238 0.116094 0.000000
vn 0.993238 0.116094 0.000000
vn 0.939693 0.342020 0.000000
vn 0.835490 0.549505 -0.000000
vn 0.939693 0.342020 0.000000
vn 0.835490 0.549505 0.000000
vn 0.686242 0.727374 0.000000
vn 0.686242 0.727374 0.000000
vn 0.499997 0.866027 0.000000
vn 0.286802 0.957990 -0.000000
vn 0.499997 0.866027 0.000000
vn 0.286802 0.957990 0.000000
vn 0.058146 0.998308 0.000000
vn 0.058146 0.998308 0.000000
vn -0.173648 0.984808 0.000000
vn -0.173648 0.984808 0.000000
vn -0.396076 0.918218 0.000000
vn -0.396076 0.918218 0.000000
vn -0.597162 0.802121 0.000000
vn -0.766042 0.642791 0.000000
vn -0.597162 0.802121 0.000000
vn -0.766042 0.642791 0.000000
vn -0.893634 0.448796 0.000000
vn -0.893634 0.448796 0.000000
vn -0.973044 0.230618 0.000000
vn -0.973044 0.230618 0.000000
vn -1.000000 0.000000 0.000000
vn -1.000000 0.000000 0.000000
vn -0.973044 -0.230618 -0.000000
vn -0.973044 -0.230618 0.000000
vn -0.893634 -0.448796 -0.000000
vn -0.893634 -0.448796 0.000000
vn -0.766042 -0.642791 -0.000000
vn -0.766042 -0.642791 0.000000
vn -0.597162 -0.802121 0.000000
vn -0.597162 -0.802121 0.000000
vn -0.396076 -0.918218 -0.000000
vn -0.396076 -0.918218 0.000000
vn -0.173648 -0.984808 -0.000000
vn -0.173648 -0.984808 0.000000
vn 0.058146 -0.998308 0.000000
vn 0.058146 -0.998308 0.000000
vn 0.286802 -0.957990 0.000000
vn 0.286802 -0.957990 0.000000
vn 0.499997 -0.866027 0.000000
vn 0.499997 -0.866027 0.000000
vn 0.686242 -0.727374 0.000000
vn 0.686242 -0.727374 0.000000
vn 0.835490 -0.549505 0.000000
vn 0.835490 -0.549505 0.000000
vn 0.939693 -0.342020 0.000000
vn 0.993238 -0.116094 0.000000
vn 0.939693 -0.342020 0.000000
vn 0.993238 -0.116094 0.000000
vn 1.000000 0.000000 -0.000000
vn 1.000000 0.000000 0.000000
vn 0.000000 0.000000 1.000000
vn 0.000000 0.000000 1.000000
vn 0.000000 0.000000 1.000000
vn 0.000000 0.000000 1.000000
vn 0.000000 0.000000 1.000000
vn 0.000000 0.000000 1.000000
vn 0.000000 0.000000 1.000000
vn 0.000000 0.000000 1.000000
vn 0.000000 0.000000 1.000000
vn 1.000000 0.000000 -0.000000
vn 1.000000 0.000000 0.000000
vn 1.000000 0.000000 0.000000
vn 1.000000 0.000000 0.000000
vn 1.000000 0.000000 -0.000000
vn 1.000000 0.000000 0.000000
vn 0.000000 0.000000 -1.000000
vn 0.000000 -0.000000 -1.000000
vn 0.000000 0.000000 -1.000000
vn 0.000000 -0.000000 -1.000000
vn 0.000000 0.000000 -1.000000
vn 0.000000 -0.000000 -1.000000
vn 0.000000 0.000000 -1.000000
vn 0.000000 0.000000 -1.000000
vn 0.000000 0.000000 -1.000000
vn 0.000000 0.000000 -1.000000
vn 0.000000 0.000000 -1.000000
vn 0.000000 0.000000 -1.000000
vn 0.000000 -0.000000 -1.000000
vn 0.000000 0.000000 -1.000000
vn 0.000000 0.000000 -1.000000
vn 0.000000 0.000000 -1.000000
vn 0.000000 0.000000 -1.000000
vn 0.000000 0.000000 -1.000000
vn 0.000000 0.000000 -1.000000
vn 0.000000 0.000000 -1.000000
vn 0.000000 0.000000 -1.000000
vn 0.000000 0.000000 -1.000000
vn 0.000000 0.000000 -1.000000
vn 0.000000 0.000000 -1.000000
vn 0.000000 0.000000 -1.000000
vn 0.000000 0.000000 -1.000000
vn 0.000000 0.000000 -1.000000
vn 0.000000 0.000000 -1.000000
vn 0.000000 0.000000 -1.000000
vn 0.000000 0.000000 -1.000000
vn 0.000000 0.000000 -1.000000
vn -0.866026 -0.500000 -0.000000
vn -0.866026 -0.500000 0.000000
vn -0.000000 -1.000000 -0.000000
vn 0.000000 -1.000000 0.000000
vn 0.866026 -0.499999 0.000000
vn 0.866026 -0.499999 0.000000
vn 0.866026 0.499999 0.000000
vn 0.866026 0.499999 0.000000
vn -0.000000 1.000000 0.000000
vn 0.000000 1.000000 0.000000
vn -0.866026 0.500000 0.000000
vn -0.866026 0.500000 0.000000
vn -0.000000 0.000000 1.000000
vn -0.000000 0.000000 1.000000
vn 0.000000 0.000000 1.000000
vn -0.000000 0.000000 1.000000
vn -0.000000 0.000000 1.000000
vn -0.000000 0.000000 1.000000
vn -0.000000 0.000000 1.000000
vn 0.000000 0.000000 1.000000
vn -0.000000 0.000000 1.000000
vn 0.000000 0.000000 1.000000
vn 0.000000 0.000000 1.000000
vn 0.000000 0.000000 1.000000
vn 0.000000 0.000000 1.000000
vn 0.000000 0.000000 1.000000
vn 0.000000 0.000000 1.000000
vn 0.000000 0.000000 1.000000
vn 0.000000 0.000000 1.000000
vn 0.000000 0.000000 1.000000
vn 0.000000 0.000000 1.000000
vn 0.000000 0.000000 1.000000
vn -0.000000 0.000000 1.000000
vn -0.000000 0.000000 1.000000
vn 0.000000 0.000000 1.000000
vn 0.000000 0.000000 1.000000
vn -0.000000 0.000000 1.000000
vn 0.000000 0.000000 1.000000
vn 0.000000 0.000000 1.000000
vn 0.000000 0.000000 1.000000
vn 0.000000 0.000000 1.000000
vn 0.000000 0.000000 1.000000
vn 0.000000 0.000000 1.000000
vn 0.000000 0.000000 1.000000
vn 0.000000 0.000000 1.000000
vn -0.000000 0.000000 1.000000
vn -0.993238 0.116094 0.000000
vn -0.993238 0.116094 0.000000
vn -0.939693 0.342020 0.000000
vn -0.939693 0.342020 0.000000
vn -0.835490 0.549505 0.000000
vn -0.686242 0.727374 0.000000
vn -0.835490 0.549505 0.000000
vn -0.686242 0.727374 0.000000
vn -0.499997 0.866027 0.000000
vn -0.499997 0.866027 0.000000
vn -0.286802 0.957990 0.000000
vn -0.058146 0.998308 0.000000
vn -0.286802 0.957990 0.000000
vn -0.058146 0.998308 0.000000
vn 0.173648 0.984808 0.000000
vn 0.173648 0.984808 -0.000000
vn 0.396076 0.918218 0.000000
vn 0.396076 0.918218 -0.000000
vn 0.597162 0.802121 0.000000
vn 0.597162 0.802121 -0.000000
vn 0.766042 0.642791 -0.000000
vn 0.766042 0.642791 0.000000
vn 0.893634 0.448796 -0.000000
vn 0.893634 0.448796 0.000000
vn 0.973044 0.230618 0.000000
vn 0.973044 0.230618 -0.000000
vn 1.000000 -0.000000 0.000000
vn 1.000000 0.000000 0.000000
vn 0.973044 -0.230618 0.000000
vn 0.893634 -0.448796 0.000000
vn 0.973044 -0.230618 0.000000
vn 0.893634 -0.448796 0.000000
vn 0.766042 -0.642791 0.000000
vn 0.766042 -0.642791 0.000000
vn 0.597162 -0.802121 0.000000
vn 0.597162 -0.802121 0.000000
vn 0.396076 -0.918218 0.000000
vn 0.396076 -0.918218 0.000000
vn 0.173648 -0.984808 0.000000
vn -0.058146 -0.998308 -0.000000
vn 0.173648 -0.984808 0.000000
vn -0.058146 -0.998308 0.000000
vn -0.286802 -0.957990 0.000000
vn -0.499997 -0.866027 -0.000000
vn -0.286802 -0.957990 0.000000
vn -0.499997 -0.866027 0.000000
vn -0.686242 -0.727374 0.000000
vn -0.835490 -0.549505 -0.000000
vn -0.686242 -0.727374 0.000000
vn -0.939693 -0.342020 -0.000000
vn -0.835490 -0.549505 0.000000
vn -0.939693 -0.342020 0.000000
vn -0.993238 -0.116094 0.000000
vn -0.993238 -0.116094 0.000000
f 1//1 2//1 3//1
f 1//2 3//2 4//2
f 5//3 6//3 7//3
f 8//4 7//4 6//4
f 9//5 5//5 7//5
f 10//6 7//6 8//6
f 11//7 9//7 7//7
f 12//8 13//8 7//8
f 12//9 7//9 10//9
f 14//10 13//10 12//10
f 15//11 13//11 14//11
f 3//12 16//12 11//12
f 3//13 17//13 16//13
f 3//14 11//14 7//14
f 18//15 17//15 3//15
f 19//16 13//16 15//16
f 20//17 18//17 3//17
f 21//18 13//18 19//18
f 22//19 20//19 3//19
f 23//20 13//20 21//20
f 24//21 22//21 3//21
f 25//22 24//22 3//22
f 26//23 25//23 3//23
f 2//24 27//24 26//24
f 2//25 28//25 27//25
f 2//26 29//26 28//26
f 2//27 30//27 29//27
f 2//28 31//28 30//28
f 2//29 32//29 31//29
f 2//30 33//30 32//30
f 2//31 26//31 3//31
f 2//32 13//32 33//32
f 33//33 13//33 23//33
f 34//34 4//34 35//34
f 36//35 35//35 4//35
f 37//36 4//36 34//36
f 38//37 36//37 4//37
f 39//38 4//38 37//38
f 40//39 38//39 4//39
f 41//40 40//40 4//40
f 42//41 43//41 44//41
f 42//42 44//42 45//42
f 42//43 45//43 41//43
f 42//44 41//44 4//44
f 1//45 39//45 46//45
f 1//46 46//46 47//46
f 1//47 47//47 48//47
f 1//48 48//48 49//48
f 1//49 49//49 50//49
f 1//50 4//50 39//50
f 51//51 43//51 42//51
f 52//52 1//52 50//52
f 53//53 51//53 42//53
f 54//54 1//54 52//54
f 55//55 53//55 42//55
f 56//56 1//56 54//56
f 57//57 56//57 58//57
f 57//58 58//58 59//58
f 57//59 59//59 60//59
f 57//60 60//60 61//60
f 57//61 61//61 62//61
f 57//62 62//62 55//62
f 57//63 55//63 42//63
f 57//64 1//64 56//64
f 63//65 64//65 65//65
f 66//66 63//66 65//66
f 57//67 64//67 13//67
f 57//68 65//68 64//68
f 2//69 1//69 57//69
f 2//70 57//70 13//70
f 67//71 68//71 69//71
f 68//72 70//72 69//72
f 67//73 71//73 72//73
f 69//74 71//74 67//74
f 73//75 74//75 71//75
f 71//76 74//76 72//76
f 13//77 64//77 75//77
f 13//78 75//78 7//78
f 12//79 10//79 55//79
f 55//80 10//80 53//80
f 53//81 8//81 51//81
f 51//82 8//82 43//82
f 10//83 8//83 53//83
f 8//84 6//84 43//84
f 43//85 5//85 44//85
f 6//86 5//86 43//86
f 44//87 9//87 45//87
f 45//88 9//88 41//88
f 5//89 9//89 44//89
f 9//90 11//90 41//90
f 41//91 16//91 40//91
f 11//92 16//92 41//92
f 40//93 17//93 38//93
f 16//94 17//94 40//94
f 38//95 18//95 36//95
f 17//96 18//96 38//96
f 36//97 20//97 35//97
f 35//98 20//98 34//98
f 18//99 20//99 36//99
f 20//100 22//100 34//100
f 22//101 24//101 34//101
f 34//102 24//102 37//102
f 24//103 25//103 37//103
f 37//104 25//104 39//104
f 25//105 26//105 39//105
f 39//106 26//106 46//106
f 26//107 27//107 46//107
f 46//108 27//108 47//108
f 27//109 28//109 47//109
f 47//110 28//110 48//110
f 28//111 29//111 48//111
f 48//112 29//112 49//112
f 49//113 29//113 50//113
f 29//114 30//114 50//114
f 30//115 31//115 50//115
f 50//116 31//116 52//116
f 31//117 32//117 52//117
f 52//118 32//118 54//118
f 54//119 32//119 56//119
f 32//120 33//120 56//120
f 33//121 23//121 56//121
f 56//122 23//122 58//122
f 58//123 23//123 59//123
f 23//124 21//124 59//124
f 59//125 19//125 60//125
f 21//126 19//126 59//126
f 60//127 15//127 61//127
f 19//128 15//128 60//128
f 61//129 14//129 62//129
f 62//130 14//130 55//130
f 15//131 14//131 61//131
f 14//132 12//132 55//132
f 65//133 57//133 42//133
f 65//134 42//134 76//134
f 77//135 76//135 78//135
f 65//136 76//136 77//136
f 79//137 80//137 78//137
f 79//138 78//138 76//138
f 81//139 65//139 77//139
f 82//140 80//140 79//140
f 66//141 81//141 83//141
f 66//142 83//142 84//142
f 66//143 65//143 81//143
f 85//144 82//144 79//144
f 85//145 79//145 86//145
f 87//146 85//146 86//146
f 66//147 84//147 87//147
f 63//148 66//148 87//148
f 63//149 87//149 86//149
f 88//150 89//150 86//150
f 90//151 86//151 89//151
f 91//152 88//152 86//152
f 92//153 86//153 90//153
f 93//154 91//154 86//154
f 94//155 86//155 92//155
f 95//156 93//156 86//156
f 96//157 95//157 86//157
f 63//158 97//158 98//158
f 63//159 99//159 97//159
f 63//160 100//160 99//160
f 63//161 94//161 100//161
f 63//162 86//162 94//162
f 101//163 63//163 98//163
f 102//164 63//164 101//164
f 103//165 63//165 102//165
f 104//166 63//166 103//166
f 75//167 105//167 96//167
f 75//168 106//168 105//168
f 75//169 107//169 106//169
f 75//170 108//170 107//170
f 75//171 109//171 108//171
f 75//172 96//172 86//172
f 64//173 110//173 109//173
f 64//174 111//174 110//174
f 64//175 112//175 111//175
f 64//176 113//176 112//176
f 64//177 114//177 113//177
f 64//178 104//178 114//178
f 64//179 109//179 75//179
f 64//180 63//180 104//180
f 84//181 115//181 87//181
f 84//182 83//182 115//182
f 83//183 81//183 115//183
f 115//184 81//184 116//184
f 81//185 117//185 116//185
f 81//186 77//186 117//186
f 77//187 118//187 117//187
f 77//188 78//188 118//188
f 78//189 80//189 118//189
f 118//190 80//190 119//190
f 80//191 82//191 119//191
f 119//192 82//192 85//192
f 120//193 119//193 121//193
f 122//194 119//194 85//194
f 122//195 121//195 119//195
f 123//196 119//196 120//196
f 124//197 122//197 85//197
f 125//198 119//198 123//198
f 126//199 85//199 87//199
f 126//200 124//200 85//200
f 127//201 119//201 125//201
f 128//202 126//202 87//202
f 118//203 119//203 127//203
f 129//204 118//204 127//204
f 130//205 128//205 87//205
f 131//206 118//206 129//206
f 132//207 118//207 131//207
f 133//208 118//208 132//208
f 115//209 134//209 135//209
f 115//210 135//210 136//210
f 115//211 136//211 130//211
f 115//212 130//212 87//212
f 137//213 134//213 115//213
f 138//214 137//214 115//214
f 117//215 133//215 139//215
f 117//216 139//216 140//216
f 117//217 140//217 141//217
f 117//218 141//218 142//218
f 117//219 142//219 143//219
f 117//220 118//220 133//220
f 116//221 143//221 144//221
f 116//222 144//222 145//222
f 116//223 145//223 146//223
f 116//224 146//224 138//224
f 116//225 117//225 143//225
f 116//226 138//226 115//226
f 126//227 92//227 124//227
f 94//228 92//228 126//228
f 124//229 90//229 122//229
f 92//230 90//230 124//230
f 122//231 89//231 121//231
f 121//232 89//232 120//232
f 90//233 89//233 122//233
f 89//234 88//234 120//234
f 120//235 91//235 123//235
f 88//236 91//236 120//236
f 123//237 93//237 125//237
f 125//238 93//238 127//238
f 91//239 93//239 123//239
f 93//240 95//240 127//240
f 127//241 96//241 129//241
f 95//242 96//242 127//242
f 129//243 105//243 131//243
f 96//244 105//244 129//244
f 131//245 106//245 132//245
f 105//246 106//246 131//246
f 106//247 107//247 132//247
f 132//248 107//248 133//248
f 107//249 108//249 133//249
f 133//250 108//250 139//250
f 139//251 109//251 140//251
f 108//252 109//252 139//252
f 140//253 110//253 141//253
f 109//254 110//254 140//254
f 141//255 111//255 142//255
f 142//256 111//256 143//256
f 110//257 111//257 141//257
f 111//258 112//258 143//258
f 143//259 113//259 144//259
f 112//260 113//260 143//260
f 144//261 114//261 145//261
f 113//262 114//262 144//262
f 145//263 104//263 146//263
f 114//264 104//264 145//264
f 146//265 103//265 138//265
f 138//266 103//266 137//266
f 104//267 103//267 146//267
f 103//268 102//268 137//268
f 137//269 101//269 134//269
f 134//270 101//270 135//270
f 102//271 101//271 137//271
f 101//272 98//272 135//272
f 135//273 97//273 136//273
f 136//274 97//274 130//274
f 98//275 97//275 135//275
f 130//276 99//276 128//276
f 97//277 99//277 130//277
f 99//278 100//278 128//278
f 128//279 94//279 126//279
f 100//280 94//280 128//280
