G04 #@! TF.GenerationSoftware,KiCad,Pcbnew,5.1.5+dfsg1-2build2*
G04 #@! TF.CreationDate,2020-11-02T22:05:37+01:00*
G04 #@! TF.ProjectId,lighthouse,6c696768-7468-46f7-9573-652e6b696361,rev?*
G04 #@! TF.SameCoordinates,PX31a8670PY2c35238*
G04 #@! TF.FileFunction,Copper,L1,Top*
G04 #@! TF.FilePolarity,Positive*
%FSLAX46Y46*%
G04 Gerber Fmt 4.6, Leading zero omitted, Abs format (unit mm)*
G04 Created by KiCad (PCBNEW 5.1.5+dfsg1-2build2) date 2020-11-02 22:05:37*
%MOMM*%
%LPD*%
G04 APERTURE LIST*
%ADD10R,1.600000X1.600000*%
%ADD11O,1.600000X1.600000*%
%ADD12C,0.100000*%
%ADD13O,2.200000X1.740000*%
%ADD14O,1.400000X1.400000*%
%ADD15C,1.400000*%
%ADD16C,1.300000*%
%ADD17R,1.300000X1.300000*%
%ADD18C,1.600000*%
G04 APERTURE END LIST*
D10*
X10795000Y-20320000D03*
D11*
X20955000Y-20320000D03*
G04 #@! TA.AperFunction,ComponentPad*
D12*
G36*
X5319505Y-8656204D02*
G01*
X5343773Y-8659804D01*
X5367572Y-8665765D01*
X5390671Y-8674030D01*
X5412850Y-8684520D01*
X5433893Y-8697132D01*
X5453599Y-8711747D01*
X5471777Y-8728223D01*
X5488253Y-8746401D01*
X5502868Y-8766107D01*
X5515480Y-8787150D01*
X5525970Y-8809329D01*
X5534235Y-8832428D01*
X5540196Y-8856227D01*
X5543796Y-8880495D01*
X5545000Y-8904999D01*
X5545000Y-10145001D01*
X5543796Y-10169505D01*
X5540196Y-10193773D01*
X5534235Y-10217572D01*
X5525970Y-10240671D01*
X5515480Y-10262850D01*
X5502868Y-10283893D01*
X5488253Y-10303599D01*
X5471777Y-10321777D01*
X5453599Y-10338253D01*
X5433893Y-10352868D01*
X5412850Y-10365480D01*
X5390671Y-10375970D01*
X5367572Y-10384235D01*
X5343773Y-10390196D01*
X5319505Y-10393796D01*
X5295001Y-10395000D01*
X3594999Y-10395000D01*
X3570495Y-10393796D01*
X3546227Y-10390196D01*
X3522428Y-10384235D01*
X3499329Y-10375970D01*
X3477150Y-10365480D01*
X3456107Y-10352868D01*
X3436401Y-10338253D01*
X3418223Y-10321777D01*
X3401747Y-10303599D01*
X3387132Y-10283893D01*
X3374520Y-10262850D01*
X3364030Y-10240671D01*
X3355765Y-10217572D01*
X3349804Y-10193773D01*
X3346204Y-10169505D01*
X3345000Y-10145001D01*
X3345000Y-8904999D01*
X3346204Y-8880495D01*
X3349804Y-8856227D01*
X3355765Y-8832428D01*
X3364030Y-8809329D01*
X3374520Y-8787150D01*
X3387132Y-8766107D01*
X3401747Y-8746401D01*
X3418223Y-8728223D01*
X3436401Y-8711747D01*
X3456107Y-8697132D01*
X3477150Y-8684520D01*
X3499329Y-8674030D01*
X3522428Y-8665765D01*
X3546227Y-8659804D01*
X3570495Y-8656204D01*
X3594999Y-8655000D01*
X5295001Y-8655000D01*
X5319505Y-8656204D01*
G37*
G04 #@! TD.AperFunction*
D13*
X4445000Y-12065000D03*
X22225000Y-5715000D03*
G04 #@! TA.AperFunction,ComponentPad*
D12*
G36*
X23099505Y-7386204D02*
G01*
X23123773Y-7389804D01*
X23147572Y-7395765D01*
X23170671Y-7404030D01*
X23192850Y-7414520D01*
X23213893Y-7427132D01*
X23233599Y-7441747D01*
X23251777Y-7458223D01*
X23268253Y-7476401D01*
X23282868Y-7496107D01*
X23295480Y-7517150D01*
X23305970Y-7539329D01*
X23314235Y-7562428D01*
X23320196Y-7586227D01*
X23323796Y-7610495D01*
X23325000Y-7634999D01*
X23325000Y-8875001D01*
X23323796Y-8899505D01*
X23320196Y-8923773D01*
X23314235Y-8947572D01*
X23305970Y-8970671D01*
X23295480Y-8992850D01*
X23282868Y-9013893D01*
X23268253Y-9033599D01*
X23251777Y-9051777D01*
X23233599Y-9068253D01*
X23213893Y-9082868D01*
X23192850Y-9095480D01*
X23170671Y-9105970D01*
X23147572Y-9114235D01*
X23123773Y-9120196D01*
X23099505Y-9123796D01*
X23075001Y-9125000D01*
X21374999Y-9125000D01*
X21350495Y-9123796D01*
X21326227Y-9120196D01*
X21302428Y-9114235D01*
X21279329Y-9105970D01*
X21257150Y-9095480D01*
X21236107Y-9082868D01*
X21216401Y-9068253D01*
X21198223Y-9051777D01*
X21181747Y-9033599D01*
X21167132Y-9013893D01*
X21154520Y-8992850D01*
X21144030Y-8970671D01*
X21135765Y-8947572D01*
X21129804Y-8923773D01*
X21126204Y-8899505D01*
X21125000Y-8875001D01*
X21125000Y-7634999D01*
X21126204Y-7610495D01*
X21129804Y-7586227D01*
X21135765Y-7562428D01*
X21144030Y-7539329D01*
X21154520Y-7517150D01*
X21167132Y-7496107D01*
X21181747Y-7476401D01*
X21198223Y-7458223D01*
X21216401Y-7441747D01*
X21236107Y-7427132D01*
X21257150Y-7414520D01*
X21279329Y-7404030D01*
X21302428Y-7395765D01*
X21326227Y-7389804D01*
X21350495Y-7386204D01*
X21374999Y-7385000D01*
X23075001Y-7385000D01*
X23099505Y-7386204D01*
G37*
G04 #@! TD.AperFunction*
G04 #@! TA.AperFunction,ComponentPad*
G36*
X23099505Y-16276204D02*
G01*
X23123773Y-16279804D01*
X23147572Y-16285765D01*
X23170671Y-16294030D01*
X23192850Y-16304520D01*
X23213893Y-16317132D01*
X23233599Y-16331747D01*
X23251777Y-16348223D01*
X23268253Y-16366401D01*
X23282868Y-16386107D01*
X23295480Y-16407150D01*
X23305970Y-16429329D01*
X23314235Y-16452428D01*
X23320196Y-16476227D01*
X23323796Y-16500495D01*
X23325000Y-16524999D01*
X23325000Y-17765001D01*
X23323796Y-17789505D01*
X23320196Y-17813773D01*
X23314235Y-17837572D01*
X23305970Y-17860671D01*
X23295480Y-17882850D01*
X23282868Y-17903893D01*
X23268253Y-17923599D01*
X23251777Y-17941777D01*
X23233599Y-17958253D01*
X23213893Y-17972868D01*
X23192850Y-17985480D01*
X23170671Y-17995970D01*
X23147572Y-18004235D01*
X23123773Y-18010196D01*
X23099505Y-18013796D01*
X23075001Y-18015000D01*
X21374999Y-18015000D01*
X21350495Y-18013796D01*
X21326227Y-18010196D01*
X21302428Y-18004235D01*
X21279329Y-17995970D01*
X21257150Y-17985480D01*
X21236107Y-17972868D01*
X21216401Y-17958253D01*
X21198223Y-17941777D01*
X21181747Y-17923599D01*
X21167132Y-17903893D01*
X21154520Y-17882850D01*
X21144030Y-17860671D01*
X21135765Y-17837572D01*
X21129804Y-17813773D01*
X21126204Y-17789505D01*
X21125000Y-17765001D01*
X21125000Y-16524999D01*
X21126204Y-16500495D01*
X21129804Y-16476227D01*
X21135765Y-16452428D01*
X21144030Y-16429329D01*
X21154520Y-16407150D01*
X21167132Y-16386107D01*
X21181747Y-16366401D01*
X21198223Y-16348223D01*
X21216401Y-16331747D01*
X21236107Y-16317132D01*
X21257150Y-16304520D01*
X21279329Y-16294030D01*
X21302428Y-16285765D01*
X21326227Y-16279804D01*
X21350495Y-16276204D01*
X21374999Y-16275000D01*
X23075001Y-16275000D01*
X23099505Y-16276204D01*
G37*
G04 #@! TD.AperFunction*
D13*
X22225000Y-14605000D03*
X22225000Y-12065000D03*
D14*
X9525000Y-13970000D03*
D15*
X9525000Y-6350000D03*
X12065000Y-6350000D03*
D14*
X12065000Y-13970000D03*
D16*
X15240000Y-10785000D03*
X16510000Y-9525000D03*
D17*
X16510000Y-12065000D03*
D18*
X1905000Y-17145000D03*
D11*
X17145000Y-17145000D03*
M02*
