G04 #@! TF.GenerationSoftware,KiCad,Pcbnew,5.1.5+dfsg1-2build2*
G04 #@! TF.CreationDate,2020-11-06T22:36:43+01:00*
G04 #@! TF.ProjectId,lighthouse,6c696768-7468-46f7-9573-652e6b696361,rev?*
G04 #@! TF.SameCoordinates,PX36049d0PY465e678*
G04 #@! TF.FileFunction,Copper,L2,Bot*
G04 #@! TF.FilePolarity,Positive*
%FSLAX46Y46*%
G04 Gerber Fmt 4.6, Leading zero omitted, Abs format (unit mm)*
G04 Created by KiCad (PCBNEW 5.1.5+dfsg1-2build2) date 2020-11-06 22:36:43*
%MOMM*%
%LPD*%
G04 APERTURE LIST*
%ADD10R,2.500000X2.500000*%
%ADD11C,2.500000*%
%ADD12C,0.100000*%
%ADD13O,2.000000X2.000000*%
%ADD14C,2.000000*%
%ADD15C,1.200000*%
%ADD16C,0.254000*%
G04 APERTURE END LIST*
D10*
X15748000Y-10414000D03*
D11*
X15748000Y-5334000D03*
X13208000Y-7874000D03*
G04 #@! TA.AperFunction,ComponentPad*
D12*
G36*
X6909261Y-17676010D02*
G01*
X6969931Y-17685009D01*
X7029428Y-17699912D01*
X7087177Y-17720575D01*
X7142623Y-17746799D01*
X7195231Y-17778331D01*
X7244496Y-17814868D01*
X7289942Y-17856058D01*
X7331132Y-17901504D01*
X7367669Y-17950769D01*
X7399201Y-18003377D01*
X7425425Y-18058823D01*
X7446088Y-18116572D01*
X7460991Y-18176069D01*
X7469990Y-18236739D01*
X7473000Y-18298000D01*
X7473000Y-19548000D01*
X7469990Y-19609261D01*
X7460991Y-19669931D01*
X7446088Y-19729428D01*
X7425425Y-19787177D01*
X7399201Y-19842623D01*
X7367669Y-19895231D01*
X7331132Y-19944496D01*
X7289942Y-19989942D01*
X7244496Y-20031132D01*
X7195231Y-20067669D01*
X7142623Y-20099201D01*
X7087177Y-20125425D01*
X7029428Y-20146088D01*
X6969931Y-20160991D01*
X6909261Y-20169990D01*
X6848000Y-20173000D01*
X5598000Y-20173000D01*
X5536739Y-20169990D01*
X5476069Y-20160991D01*
X5416572Y-20146088D01*
X5358823Y-20125425D01*
X5303377Y-20099201D01*
X5250769Y-20067669D01*
X5201504Y-20031132D01*
X5156058Y-19989942D01*
X5114868Y-19944496D01*
X5078331Y-19895231D01*
X5046799Y-19842623D01*
X5020575Y-19787177D01*
X4999912Y-19729428D01*
X4985009Y-19669931D01*
X4976010Y-19609261D01*
X4973000Y-19548000D01*
X4973000Y-18298000D01*
X4976010Y-18236739D01*
X4985009Y-18176069D01*
X4999912Y-18116572D01*
X5020575Y-18058823D01*
X5046799Y-18003377D01*
X5078331Y-17950769D01*
X5114868Y-17901504D01*
X5156058Y-17856058D01*
X5201504Y-17814868D01*
X5250769Y-17778331D01*
X5303377Y-17746799D01*
X5358823Y-17720575D01*
X5416572Y-17699912D01*
X5476069Y-17685009D01*
X5536739Y-17676010D01*
X5598000Y-17673000D01*
X6848000Y-17673000D01*
X6909261Y-17676010D01*
G37*
G04 #@! TD.AperFunction*
G04 #@! TA.AperFunction,ComponentPad*
G36*
X17069261Y-17676010D02*
G01*
X17129931Y-17685009D01*
X17189428Y-17699912D01*
X17247177Y-17720575D01*
X17302623Y-17746799D01*
X17355231Y-17778331D01*
X17404496Y-17814868D01*
X17449942Y-17856058D01*
X17491132Y-17901504D01*
X17527669Y-17950769D01*
X17559201Y-18003377D01*
X17585425Y-18058823D01*
X17606088Y-18116572D01*
X17620991Y-18176069D01*
X17629990Y-18236739D01*
X17633000Y-18298000D01*
X17633000Y-19548000D01*
X17629990Y-19609261D01*
X17620991Y-19669931D01*
X17606088Y-19729428D01*
X17585425Y-19787177D01*
X17559201Y-19842623D01*
X17527669Y-19895231D01*
X17491132Y-19944496D01*
X17449942Y-19989942D01*
X17404496Y-20031132D01*
X17355231Y-20067669D01*
X17302623Y-20099201D01*
X17247177Y-20125425D01*
X17189428Y-20146088D01*
X17129931Y-20160991D01*
X17069261Y-20169990D01*
X17008000Y-20173000D01*
X15758000Y-20173000D01*
X15696739Y-20169990D01*
X15636069Y-20160991D01*
X15576572Y-20146088D01*
X15518823Y-20125425D01*
X15463377Y-20099201D01*
X15410769Y-20067669D01*
X15361504Y-20031132D01*
X15316058Y-19989942D01*
X15274868Y-19944496D01*
X15238331Y-19895231D01*
X15206799Y-19842623D01*
X15180575Y-19787177D01*
X15159912Y-19729428D01*
X15145009Y-19669931D01*
X15136010Y-19609261D01*
X15133000Y-19548000D01*
X15133000Y-18298000D01*
X15136010Y-18236739D01*
X15145009Y-18176069D01*
X15159912Y-18116572D01*
X15180575Y-18058823D01*
X15206799Y-18003377D01*
X15238331Y-17950769D01*
X15274868Y-17901504D01*
X15316058Y-17856058D01*
X15361504Y-17814868D01*
X15410769Y-17778331D01*
X15463377Y-17746799D01*
X15518823Y-17720575D01*
X15576572Y-17699912D01*
X15636069Y-17685009D01*
X15696739Y-17676010D01*
X15758000Y-17673000D01*
X17008000Y-17673000D01*
X17069261Y-17676010D01*
G37*
G04 #@! TD.AperFunction*
G04 #@! TA.AperFunction,ComponentPad*
G36*
X5337999Y-6751207D02*
G01*
X5362322Y-6754814D01*
X5386174Y-6760789D01*
X5409325Y-6769073D01*
X5431553Y-6779586D01*
X5452644Y-6792227D01*
X5472394Y-6806875D01*
X5490613Y-6823387D01*
X5507125Y-6841606D01*
X5521773Y-6861356D01*
X5534414Y-6882447D01*
X5544927Y-6904675D01*
X5553211Y-6927826D01*
X5559186Y-6951678D01*
X5562793Y-6976001D01*
X5564000Y-7000560D01*
X5564000Y-8239440D01*
X5562793Y-8263999D01*
X5559186Y-8288322D01*
X5553211Y-8312174D01*
X5544927Y-8335325D01*
X5534414Y-8357553D01*
X5521773Y-8378644D01*
X5507125Y-8398394D01*
X5490613Y-8416613D01*
X5472394Y-8433125D01*
X5452644Y-8447773D01*
X5431553Y-8460414D01*
X5409325Y-8470927D01*
X5386174Y-8479211D01*
X5362322Y-8485186D01*
X5337999Y-8488793D01*
X5313440Y-8490000D01*
X2814560Y-8490000D01*
X2790001Y-8488793D01*
X2765678Y-8485186D01*
X2741826Y-8479211D01*
X2718675Y-8470927D01*
X2696447Y-8460414D01*
X2675356Y-8447773D01*
X2655606Y-8433125D01*
X2637387Y-8416613D01*
X2620875Y-8398394D01*
X2606227Y-8378644D01*
X2593586Y-8357553D01*
X2583073Y-8335325D01*
X2574789Y-8312174D01*
X2568814Y-8288322D01*
X2565207Y-8263999D01*
X2564000Y-8239440D01*
X2564000Y-7000560D01*
X2565207Y-6976001D01*
X2568814Y-6951678D01*
X2574789Y-6927826D01*
X2583073Y-6904675D01*
X2593586Y-6882447D01*
X2606227Y-6861356D01*
X2620875Y-6841606D01*
X2637387Y-6823387D01*
X2655606Y-6806875D01*
X2675356Y-6792227D01*
X2696447Y-6779586D01*
X2718675Y-6769073D01*
X2741826Y-6760789D01*
X2765678Y-6754814D01*
X2790001Y-6751207D01*
X2814560Y-6750000D01*
X5313440Y-6750000D01*
X5337999Y-6751207D01*
G37*
G04 #@! TD.AperFunction*
G04 #@! TA.AperFunction,ComponentPad*
G36*
X5171637Y-9292095D02*
G01*
X5213864Y-9298358D01*
X5255274Y-9308731D01*
X5295467Y-9323112D01*
X5334058Y-9341364D01*
X5370673Y-9363311D01*
X5404961Y-9388740D01*
X5436591Y-9417409D01*
X5465260Y-9449039D01*
X5490689Y-9483327D01*
X5512636Y-9519942D01*
X5530888Y-9558533D01*
X5545269Y-9598726D01*
X5555642Y-9640136D01*
X5561905Y-9682363D01*
X5564000Y-9725000D01*
X5564000Y-10595000D01*
X5561905Y-10637637D01*
X5555642Y-10679864D01*
X5545269Y-10721274D01*
X5530888Y-10761467D01*
X5512636Y-10800058D01*
X5490689Y-10836673D01*
X5465260Y-10870961D01*
X5436591Y-10902591D01*
X5404961Y-10931260D01*
X5370673Y-10956689D01*
X5334058Y-10978636D01*
X5295467Y-10996888D01*
X5255274Y-11011269D01*
X5213864Y-11021642D01*
X5171637Y-11027905D01*
X5129000Y-11030000D01*
X2999000Y-11030000D01*
X2956363Y-11027905D01*
X2914136Y-11021642D01*
X2872726Y-11011269D01*
X2832533Y-10996888D01*
X2793942Y-10978636D01*
X2757327Y-10956689D01*
X2723039Y-10931260D01*
X2691409Y-10902591D01*
X2662740Y-10870961D01*
X2637311Y-10836673D01*
X2615364Y-10800058D01*
X2597112Y-10761467D01*
X2582731Y-10721274D01*
X2572358Y-10679864D01*
X2566095Y-10637637D01*
X2564000Y-10595000D01*
X2564000Y-9725000D01*
X2566095Y-9682363D01*
X2572358Y-9640136D01*
X2582731Y-9598726D01*
X2597112Y-9558533D01*
X2615364Y-9519942D01*
X2637311Y-9483327D01*
X2662740Y-9449039D01*
X2691409Y-9417409D01*
X2723039Y-9388740D01*
X2757327Y-9363311D01*
X2793942Y-9341364D01*
X2832533Y-9323112D01*
X2872726Y-9308731D01*
X2914136Y-9298358D01*
X2956363Y-9292095D01*
X2999000Y-9290000D01*
X5129000Y-9290000D01*
X5171637Y-9292095D01*
G37*
G04 #@! TD.AperFunction*
G04 #@! TA.AperFunction,ComponentPad*
G36*
X22189637Y-5990095D02*
G01*
X22231864Y-5996358D01*
X22273274Y-6006731D01*
X22313467Y-6021112D01*
X22352058Y-6039364D01*
X22388673Y-6061311D01*
X22422961Y-6086740D01*
X22454591Y-6115409D01*
X22483260Y-6147039D01*
X22508689Y-6181327D01*
X22530636Y-6217942D01*
X22548888Y-6256533D01*
X22563269Y-6296726D01*
X22573642Y-6338136D01*
X22579905Y-6380363D01*
X22582000Y-6423000D01*
X22582000Y-7293000D01*
X22579905Y-7335637D01*
X22573642Y-7377864D01*
X22563269Y-7419274D01*
X22548888Y-7459467D01*
X22530636Y-7498058D01*
X22508689Y-7534673D01*
X22483260Y-7568961D01*
X22454591Y-7600591D01*
X22422961Y-7629260D01*
X22388673Y-7654689D01*
X22352058Y-7676636D01*
X22313467Y-7694888D01*
X22273274Y-7709269D01*
X22231864Y-7719642D01*
X22189637Y-7725905D01*
X22147000Y-7728000D01*
X20017000Y-7728000D01*
X19974363Y-7725905D01*
X19932136Y-7719642D01*
X19890726Y-7709269D01*
X19850533Y-7694888D01*
X19811942Y-7676636D01*
X19775327Y-7654689D01*
X19741039Y-7629260D01*
X19709409Y-7600591D01*
X19680740Y-7568961D01*
X19655311Y-7534673D01*
X19633364Y-7498058D01*
X19615112Y-7459467D01*
X19600731Y-7419274D01*
X19590358Y-7377864D01*
X19584095Y-7335637D01*
X19582000Y-7293000D01*
X19582000Y-6423000D01*
X19584095Y-6380363D01*
X19590358Y-6338136D01*
X19600731Y-6296726D01*
X19615112Y-6256533D01*
X19633364Y-6217942D01*
X19655311Y-6181327D01*
X19680740Y-6147039D01*
X19709409Y-6115409D01*
X19741039Y-6086740D01*
X19775327Y-6061311D01*
X19811942Y-6039364D01*
X19850533Y-6021112D01*
X19890726Y-6006731D01*
X19932136Y-5996358D01*
X19974363Y-5990095D01*
X20017000Y-5988000D01*
X22147000Y-5988000D01*
X22189637Y-5990095D01*
G37*
G04 #@! TD.AperFunction*
G04 #@! TA.AperFunction,ComponentPad*
G36*
X22355999Y-8529207D02*
G01*
X22380322Y-8532814D01*
X22404174Y-8538789D01*
X22427325Y-8547073D01*
X22449553Y-8557586D01*
X22470644Y-8570227D01*
X22490394Y-8584875D01*
X22508613Y-8601387D01*
X22525125Y-8619606D01*
X22539773Y-8639356D01*
X22552414Y-8660447D01*
X22562927Y-8682675D01*
X22571211Y-8705826D01*
X22577186Y-8729678D01*
X22580793Y-8754001D01*
X22582000Y-8778560D01*
X22582000Y-10017440D01*
X22580793Y-10041999D01*
X22577186Y-10066322D01*
X22571211Y-10090174D01*
X22562927Y-10113325D01*
X22552414Y-10135553D01*
X22539773Y-10156644D01*
X22525125Y-10176394D01*
X22508613Y-10194613D01*
X22490394Y-10211125D01*
X22470644Y-10225773D01*
X22449553Y-10238414D01*
X22427325Y-10248927D01*
X22404174Y-10257211D01*
X22380322Y-10263186D01*
X22355999Y-10266793D01*
X22331440Y-10268000D01*
X19832560Y-10268000D01*
X19808001Y-10266793D01*
X19783678Y-10263186D01*
X19759826Y-10257211D01*
X19736675Y-10248927D01*
X19714447Y-10238414D01*
X19693356Y-10225773D01*
X19673606Y-10211125D01*
X19655387Y-10194613D01*
X19638875Y-10176394D01*
X19624227Y-10156644D01*
X19611586Y-10135553D01*
X19601073Y-10113325D01*
X19592789Y-10090174D01*
X19586814Y-10066322D01*
X19583207Y-10041999D01*
X19582000Y-10017440D01*
X19582000Y-8778560D01*
X19583207Y-8754001D01*
X19586814Y-8729678D01*
X19592789Y-8705826D01*
X19601073Y-8682675D01*
X19611586Y-8660447D01*
X19624227Y-8639356D01*
X19638875Y-8619606D01*
X19655387Y-8601387D01*
X19673606Y-8584875D01*
X19693356Y-8570227D01*
X19714447Y-8557586D01*
X19736675Y-8547073D01*
X19759826Y-8538789D01*
X19783678Y-8532814D01*
X19808001Y-8529207D01*
X19832560Y-8528000D01*
X22331440Y-8528000D01*
X22355999Y-8529207D01*
G37*
G04 #@! TD.AperFunction*
G04 #@! TA.AperFunction,ComponentPad*
G36*
X22355999Y-17419207D02*
G01*
X22380322Y-17422814D01*
X22404174Y-17428789D01*
X22427325Y-17437073D01*
X22449553Y-17447586D01*
X22470644Y-17460227D01*
X22490394Y-17474875D01*
X22508613Y-17491387D01*
X22525125Y-17509606D01*
X22539773Y-17529356D01*
X22552414Y-17550447D01*
X22562927Y-17572675D01*
X22571211Y-17595826D01*
X22577186Y-17619678D01*
X22580793Y-17644001D01*
X22582000Y-17668560D01*
X22582000Y-18907440D01*
X22580793Y-18931999D01*
X22577186Y-18956322D01*
X22571211Y-18980174D01*
X22562927Y-19003325D01*
X22552414Y-19025553D01*
X22539773Y-19046644D01*
X22525125Y-19066394D01*
X22508613Y-19084613D01*
X22490394Y-19101125D01*
X22470644Y-19115773D01*
X22449553Y-19128414D01*
X22427325Y-19138927D01*
X22404174Y-19147211D01*
X22380322Y-19153186D01*
X22355999Y-19156793D01*
X22331440Y-19158000D01*
X19832560Y-19158000D01*
X19808001Y-19156793D01*
X19783678Y-19153186D01*
X19759826Y-19147211D01*
X19736675Y-19138927D01*
X19714447Y-19128414D01*
X19693356Y-19115773D01*
X19673606Y-19101125D01*
X19655387Y-19084613D01*
X19638875Y-19066394D01*
X19624227Y-19046644D01*
X19611586Y-19025553D01*
X19601073Y-19003325D01*
X19592789Y-18980174D01*
X19586814Y-18956322D01*
X19583207Y-18931999D01*
X19582000Y-18907440D01*
X19582000Y-17668560D01*
X19583207Y-17644001D01*
X19586814Y-17619678D01*
X19592789Y-17595826D01*
X19601073Y-17572675D01*
X19611586Y-17550447D01*
X19624227Y-17529356D01*
X19638875Y-17509606D01*
X19655387Y-17491387D01*
X19673606Y-17474875D01*
X19693356Y-17460227D01*
X19714447Y-17447586D01*
X19736675Y-17437073D01*
X19759826Y-17428789D01*
X19783678Y-17422814D01*
X19808001Y-17419207D01*
X19832560Y-17418000D01*
X22331440Y-17418000D01*
X22355999Y-17419207D01*
G37*
G04 #@! TD.AperFunction*
G04 #@! TA.AperFunction,ComponentPad*
G36*
X22189637Y-14880095D02*
G01*
X22231864Y-14886358D01*
X22273274Y-14896731D01*
X22313467Y-14911112D01*
X22352058Y-14929364D01*
X22388673Y-14951311D01*
X22422961Y-14976740D01*
X22454591Y-15005409D01*
X22483260Y-15037039D01*
X22508689Y-15071327D01*
X22530636Y-15107942D01*
X22548888Y-15146533D01*
X22563269Y-15186726D01*
X22573642Y-15228136D01*
X22579905Y-15270363D01*
X22582000Y-15313000D01*
X22582000Y-16183000D01*
X22579905Y-16225637D01*
X22573642Y-16267864D01*
X22563269Y-16309274D01*
X22548888Y-16349467D01*
X22530636Y-16388058D01*
X22508689Y-16424673D01*
X22483260Y-16458961D01*
X22454591Y-16490591D01*
X22422961Y-16519260D01*
X22388673Y-16544689D01*
X22352058Y-16566636D01*
X22313467Y-16584888D01*
X22273274Y-16599269D01*
X22231864Y-16609642D01*
X22189637Y-16615905D01*
X22147000Y-16618000D01*
X20017000Y-16618000D01*
X19974363Y-16615905D01*
X19932136Y-16609642D01*
X19890726Y-16599269D01*
X19850533Y-16584888D01*
X19811942Y-16566636D01*
X19775327Y-16544689D01*
X19741039Y-16519260D01*
X19709409Y-16490591D01*
X19680740Y-16458961D01*
X19655311Y-16424673D01*
X19633364Y-16388058D01*
X19615112Y-16349467D01*
X19600731Y-16309274D01*
X19590358Y-16267864D01*
X19584095Y-16225637D01*
X19582000Y-16183000D01*
X19582000Y-15313000D01*
X19584095Y-15270363D01*
X19590358Y-15228136D01*
X19600731Y-15186726D01*
X19615112Y-15146533D01*
X19633364Y-15107942D01*
X19655311Y-15071327D01*
X19680740Y-15037039D01*
X19709409Y-15005409D01*
X19741039Y-14976740D01*
X19775327Y-14951311D01*
X19811942Y-14929364D01*
X19850533Y-14911112D01*
X19890726Y-14896731D01*
X19932136Y-14886358D01*
X19974363Y-14880095D01*
X20017000Y-14878000D01*
X22147000Y-14878000D01*
X22189637Y-14880095D01*
G37*
G04 #@! TD.AperFunction*
G04 #@! TA.AperFunction,ComponentPad*
G36*
X22189637Y-12340095D02*
G01*
X22231864Y-12346358D01*
X22273274Y-12356731D01*
X22313467Y-12371112D01*
X22352058Y-12389364D01*
X22388673Y-12411311D01*
X22422961Y-12436740D01*
X22454591Y-12465409D01*
X22483260Y-12497039D01*
X22508689Y-12531327D01*
X22530636Y-12567942D01*
X22548888Y-12606533D01*
X22563269Y-12646726D01*
X22573642Y-12688136D01*
X22579905Y-12730363D01*
X22582000Y-12773000D01*
X22582000Y-13643000D01*
X22579905Y-13685637D01*
X22573642Y-13727864D01*
X22563269Y-13769274D01*
X22548888Y-13809467D01*
X22530636Y-13848058D01*
X22508689Y-13884673D01*
X22483260Y-13918961D01*
X22454591Y-13950591D01*
X22422961Y-13979260D01*
X22388673Y-14004689D01*
X22352058Y-14026636D01*
X22313467Y-14044888D01*
X22273274Y-14059269D01*
X22231864Y-14069642D01*
X22189637Y-14075905D01*
X22147000Y-14078000D01*
X20017000Y-14078000D01*
X19974363Y-14075905D01*
X19932136Y-14069642D01*
X19890726Y-14059269D01*
X19850533Y-14044888D01*
X19811942Y-14026636D01*
X19775327Y-14004689D01*
X19741039Y-13979260D01*
X19709409Y-13950591D01*
X19680740Y-13918961D01*
X19655311Y-13884673D01*
X19633364Y-13848058D01*
X19615112Y-13809467D01*
X19600731Y-13769274D01*
X19590358Y-13727864D01*
X19584095Y-13685637D01*
X19582000Y-13643000D01*
X19582000Y-12773000D01*
X19584095Y-12730363D01*
X19590358Y-12688136D01*
X19600731Y-12646726D01*
X19615112Y-12606533D01*
X19633364Y-12567942D01*
X19655311Y-12531327D01*
X19680740Y-12497039D01*
X19709409Y-12465409D01*
X19741039Y-12436740D01*
X19775327Y-12411311D01*
X19811942Y-12389364D01*
X19850533Y-12371112D01*
X19890726Y-12356731D01*
X19932136Y-12346358D01*
X19974363Y-12340095D01*
X20017000Y-12338000D01*
X22147000Y-12338000D01*
X22189637Y-12340095D01*
G37*
G04 #@! TD.AperFunction*
D13*
X8636000Y-10922000D03*
D14*
X8636000Y-3302000D03*
X11176000Y-3302000D03*
D13*
X11176000Y-10922000D03*
G04 #@! TA.AperFunction,ComponentPad*
D12*
G36*
X5883009Y-12464408D02*
G01*
X5931545Y-12471607D01*
X5979142Y-12483530D01*
X6025342Y-12500060D01*
X6069698Y-12521039D01*
X6111785Y-12546265D01*
X6151197Y-12575495D01*
X6187553Y-12608447D01*
X6220505Y-12644803D01*
X6249735Y-12684215D01*
X6274961Y-12726302D01*
X6295940Y-12770658D01*
X6312470Y-12816858D01*
X6324393Y-12864455D01*
X6331592Y-12912991D01*
X6334000Y-12962000D01*
X6334000Y-13962000D01*
X6331592Y-14011009D01*
X6324393Y-14059545D01*
X6312470Y-14107142D01*
X6295940Y-14153342D01*
X6274961Y-14197698D01*
X6249735Y-14239785D01*
X6220505Y-14279197D01*
X6187553Y-14315553D01*
X6151197Y-14348505D01*
X6111785Y-14377735D01*
X6069698Y-14402961D01*
X6025342Y-14423940D01*
X5979142Y-14440470D01*
X5931545Y-14452393D01*
X5883009Y-14459592D01*
X5834000Y-14462000D01*
X4834000Y-14462000D01*
X4784991Y-14459592D01*
X4736455Y-14452393D01*
X4688858Y-14440470D01*
X4642658Y-14423940D01*
X4598302Y-14402961D01*
X4556215Y-14377735D01*
X4516803Y-14348505D01*
X4480447Y-14315553D01*
X4447495Y-14279197D01*
X4418265Y-14239785D01*
X4393039Y-14197698D01*
X4372060Y-14153342D01*
X4355530Y-14107142D01*
X4343607Y-14059545D01*
X4336408Y-14011009D01*
X4334000Y-13962000D01*
X4334000Y-12962000D01*
X4336408Y-12912991D01*
X4343607Y-12864455D01*
X4355530Y-12816858D01*
X4372060Y-12770658D01*
X4393039Y-12726302D01*
X4418265Y-12684215D01*
X4447495Y-12644803D01*
X4480447Y-12608447D01*
X4516803Y-12575495D01*
X4556215Y-12546265D01*
X4598302Y-12521039D01*
X4642658Y-12500060D01*
X4688858Y-12483530D01*
X4736455Y-12471607D01*
X4784991Y-12464408D01*
X4834000Y-12462000D01*
X5834000Y-12462000D01*
X5883009Y-12464408D01*
G37*
G04 #@! TD.AperFunction*
G04 #@! TA.AperFunction,ComponentPad*
G36*
X5883009Y-15004408D02*
G01*
X5931545Y-15011607D01*
X5979142Y-15023530D01*
X6025342Y-15040060D01*
X6069698Y-15061039D01*
X6111785Y-15086265D01*
X6151197Y-15115495D01*
X6187553Y-15148447D01*
X6220505Y-15184803D01*
X6249735Y-15224215D01*
X6274961Y-15266302D01*
X6295940Y-15310658D01*
X6312470Y-15356858D01*
X6324393Y-15404455D01*
X6331592Y-15452991D01*
X6334000Y-15502000D01*
X6334000Y-16502000D01*
X6331592Y-16551009D01*
X6324393Y-16599545D01*
X6312470Y-16647142D01*
X6295940Y-16693342D01*
X6274961Y-16737698D01*
X6249735Y-16779785D01*
X6220505Y-16819197D01*
X6187553Y-16855553D01*
X6151197Y-16888505D01*
X6111785Y-16917735D01*
X6069698Y-16942961D01*
X6025342Y-16963940D01*
X5979142Y-16980470D01*
X5931545Y-16992393D01*
X5883009Y-16999592D01*
X5834000Y-17002000D01*
X4834000Y-17002000D01*
X4784991Y-16999592D01*
X4736455Y-16992393D01*
X4688858Y-16980470D01*
X4642658Y-16963940D01*
X4598302Y-16942961D01*
X4556215Y-16917735D01*
X4516803Y-16888505D01*
X4480447Y-16855553D01*
X4447495Y-16819197D01*
X4418265Y-16779785D01*
X4393039Y-16737698D01*
X4372060Y-16693342D01*
X4355530Y-16647142D01*
X4343607Y-16599545D01*
X4336408Y-16551009D01*
X4334000Y-16502000D01*
X4334000Y-15502000D01*
X4336408Y-15452991D01*
X4343607Y-15404455D01*
X4355530Y-15356858D01*
X4372060Y-15310658D01*
X4393039Y-15266302D01*
X4418265Y-15224215D01*
X4447495Y-15184803D01*
X4480447Y-15148447D01*
X4516803Y-15115495D01*
X4556215Y-15086265D01*
X4598302Y-15061039D01*
X4642658Y-15040060D01*
X4688858Y-15023530D01*
X4736455Y-15011607D01*
X4784991Y-15004408D01*
X4834000Y-15002000D01*
X5834000Y-15002000D01*
X5883009Y-15004408D01*
G37*
G04 #@! TD.AperFunction*
D15*
X16002000Y-15748000D02*
X11176000Y-10922000D01*
X21082000Y-15748000D02*
X16002000Y-15748000D01*
X3333990Y-14462010D02*
X4334000Y-13462000D01*
X3333990Y-17123324D02*
X3333990Y-14462010D01*
X4334000Y-13462000D02*
X5334000Y-13462000D01*
X5133666Y-18923000D02*
X3333990Y-17123324D01*
X6223000Y-18923000D02*
X5133666Y-18923000D01*
X8294002Y-7620000D02*
X5564000Y-7620000D01*
X10636001Y-9961999D02*
X8294002Y-7620000D01*
X10636001Y-10636001D02*
X10636001Y-9961999D01*
X10922000Y-10922000D02*
X10636001Y-10636001D01*
X11176000Y-10922000D02*
X10922000Y-10922000D01*
X5564000Y-7620000D02*
X4064000Y-7620000D01*
X6564010Y-8620010D02*
X5564000Y-7620000D01*
X6564010Y-11231990D02*
X6564010Y-8620010D01*
X5334000Y-12462000D02*
X6564010Y-11231990D01*
X5334000Y-13462000D02*
X5334000Y-12462000D01*
X21952000Y-10268000D02*
X21082000Y-9398000D01*
X23582010Y-11898010D02*
X21952000Y-10268000D01*
X23582010Y-16777402D02*
X23582010Y-11898010D01*
X22071412Y-18288000D02*
X23582010Y-16777402D01*
X21082000Y-18288000D02*
X22071412Y-18288000D01*
X17018000Y-18288000D02*
X16383000Y-18923000D01*
X21082000Y-18288000D02*
X17018000Y-18288000D01*
X19812000Y-9398000D02*
X15748000Y-5334000D01*
X21082000Y-9398000D02*
X19812000Y-9398000D01*
X20212000Y-5988000D02*
X21082000Y-6858000D01*
X17307999Y-3083999D02*
X20212000Y-5988000D01*
X11176000Y-3302000D02*
X12446000Y-4572000D01*
X12446000Y-4572000D02*
X13208000Y-4572000D01*
X14667999Y-3083999D02*
X17307999Y-3083999D01*
X13497999Y-4253999D02*
X14667999Y-3083999D01*
X13497999Y-4282001D02*
X13497999Y-4253999D01*
X13208000Y-4572000D02*
X13497999Y-4282001D01*
X8636000Y-13281334D02*
X8636000Y-12336213D01*
X8636000Y-12336213D02*
X8636000Y-10922000D01*
X5915334Y-16002000D02*
X8636000Y-13281334D01*
X5334000Y-16002000D02*
X5915334Y-16002000D01*
X9175999Y-3841999D02*
X8636000Y-3302000D01*
X9175999Y-4262001D02*
X9175999Y-3841999D01*
X12787998Y-7874000D02*
X9175999Y-4262001D01*
X13208000Y-7874000D02*
X12787998Y-7874000D01*
D16*
G36*
X24232000Y-10801447D02*
G01*
X23220072Y-9789519D01*
X23220072Y-8778560D01*
X23202997Y-8605196D01*
X23152429Y-8438495D01*
X23070311Y-8284863D01*
X22959798Y-8150202D01*
X22872821Y-8078822D01*
X22905776Y-8051776D01*
X23039227Y-7889167D01*
X23138389Y-7703647D01*
X23199453Y-7502346D01*
X23220072Y-7293000D01*
X23220072Y-6423000D01*
X23199453Y-6213654D01*
X23138389Y-6012353D01*
X23039227Y-5826833D01*
X22905776Y-5664224D01*
X22743167Y-5530773D01*
X22557647Y-5431611D01*
X22356346Y-5370547D01*
X22147000Y-5349928D01*
X21320481Y-5349928D01*
X18339670Y-2369117D01*
X20617000Y-2369117D01*
X20617000Y-2710883D01*
X20683675Y-3046081D01*
X20814463Y-3361831D01*
X21004337Y-3645998D01*
X21246002Y-3887663D01*
X21530169Y-4077537D01*
X21845919Y-4208325D01*
X22181117Y-4275000D01*
X22522883Y-4275000D01*
X22858081Y-4208325D01*
X23173831Y-4077537D01*
X23457998Y-3887663D01*
X23699663Y-3645998D01*
X23889537Y-3361831D01*
X24020325Y-3046081D01*
X24087000Y-2710883D01*
X24087000Y-2369117D01*
X24020325Y-2033919D01*
X23889537Y-1718169D01*
X23699663Y-1434002D01*
X23457998Y-1192337D01*
X23173831Y-1002463D01*
X22858081Y-871675D01*
X22522883Y-805000D01*
X22181117Y-805000D01*
X21845919Y-871675D01*
X21530169Y-1002463D01*
X21246002Y-1192337D01*
X21004337Y-1434002D01*
X20814463Y-1718169D01*
X20683675Y-2033919D01*
X20617000Y-2369117D01*
X18339670Y-2369117D01*
X18224178Y-2253625D01*
X18185501Y-2206497D01*
X17997448Y-2052166D01*
X17782900Y-1937488D01*
X17550101Y-1866869D01*
X17368664Y-1848999D01*
X17307999Y-1843024D01*
X17247334Y-1848999D01*
X14728664Y-1848999D01*
X14667999Y-1843024D01*
X14607334Y-1848999D01*
X14425897Y-1866869D01*
X14193098Y-1937488D01*
X13978550Y-2052166D01*
X13790497Y-2206497D01*
X13751825Y-2253619D01*
X12812999Y-3192446D01*
X12811000Y-3190446D01*
X12811000Y-3140967D01*
X12748168Y-2825088D01*
X12624918Y-2527537D01*
X12445987Y-2259748D01*
X12218252Y-2032013D01*
X11950463Y-1853082D01*
X11652912Y-1729832D01*
X11337033Y-1667000D01*
X11014967Y-1667000D01*
X10699088Y-1729832D01*
X10401537Y-1853082D01*
X10133748Y-2032013D01*
X9906013Y-2259748D01*
X9906000Y-2259767D01*
X9905987Y-2259748D01*
X9678252Y-2032013D01*
X9410463Y-1853082D01*
X9112912Y-1729832D01*
X8797033Y-1667000D01*
X8474967Y-1667000D01*
X8159088Y-1729832D01*
X7861537Y-1853082D01*
X7593748Y-2032013D01*
X7366013Y-2259748D01*
X7187082Y-2527537D01*
X7063832Y-2825088D01*
X7001000Y-3140967D01*
X7001000Y-3463033D01*
X7063832Y-3778912D01*
X7187082Y-4076463D01*
X7366013Y-4344252D01*
X7593748Y-4571987D01*
X7861537Y-4750918D01*
X8086869Y-4844254D01*
X8144166Y-4951449D01*
X8298497Y-5139503D01*
X8345624Y-5178179D01*
X11346812Y-8179368D01*
X11395439Y-8423834D01*
X11537534Y-8766882D01*
X11743825Y-9075618D01*
X12006382Y-9338175D01*
X12315118Y-9544466D01*
X12658166Y-9686561D01*
X13022344Y-9759000D01*
X13393656Y-9759000D01*
X13757834Y-9686561D01*
X13861456Y-9643639D01*
X13863000Y-10128250D01*
X14021750Y-10287000D01*
X15621000Y-10287000D01*
X15621000Y-8687750D01*
X15462250Y-8529000D01*
X14977639Y-8527456D01*
X15020561Y-8423834D01*
X15093000Y-8059656D01*
X15093000Y-7688344D01*
X15020561Y-7324166D01*
X14894976Y-7020976D01*
X15198166Y-7146561D01*
X15562344Y-7219000D01*
X15886447Y-7219000D01*
X17241842Y-8574395D01*
X17122482Y-8538188D01*
X16998000Y-8525928D01*
X16033750Y-8529000D01*
X15875000Y-8687750D01*
X15875000Y-10287000D01*
X17474250Y-10287000D01*
X17633000Y-10128250D01*
X17636072Y-9164000D01*
X17623812Y-9039518D01*
X17587605Y-8920158D01*
X18895826Y-10228380D01*
X18934498Y-10275502D01*
X19003998Y-10332539D01*
X19011571Y-10357505D01*
X19093689Y-10511137D01*
X19204202Y-10645798D01*
X19338863Y-10756311D01*
X19492495Y-10838429D01*
X19659196Y-10888997D01*
X19832560Y-10906072D01*
X20843518Y-10906072D01*
X21121619Y-11184173D01*
X21121624Y-11184177D01*
X21637375Y-11699928D01*
X20017000Y-11699928D01*
X19807654Y-11720547D01*
X19606353Y-11781611D01*
X19420833Y-11880773D01*
X19258224Y-12014224D01*
X19124773Y-12176833D01*
X19025611Y-12362353D01*
X18964547Y-12563654D01*
X18943928Y-12773000D01*
X18943928Y-13643000D01*
X18964547Y-13852346D01*
X19025611Y-14053647D01*
X19124773Y-14239167D01*
X19258224Y-14401776D01*
X19351102Y-14478000D01*
X19308455Y-14513000D01*
X16513553Y-14513000D01*
X14254157Y-12253604D01*
X14373518Y-12289812D01*
X14498000Y-12302072D01*
X15462250Y-12299000D01*
X15621000Y-12140250D01*
X15621000Y-10541000D01*
X15875000Y-10541000D01*
X15875000Y-12140250D01*
X16033750Y-12299000D01*
X16998000Y-12302072D01*
X17122482Y-12289812D01*
X17242180Y-12253502D01*
X17352494Y-12194537D01*
X17449185Y-12115185D01*
X17528537Y-12018494D01*
X17587502Y-11908180D01*
X17623812Y-11788482D01*
X17636072Y-11664000D01*
X17633000Y-10699750D01*
X17474250Y-10541000D01*
X15875000Y-10541000D01*
X15621000Y-10541000D01*
X14021750Y-10541000D01*
X13863000Y-10699750D01*
X13859928Y-11664000D01*
X13872188Y-11788482D01*
X13908396Y-11907843D01*
X12811000Y-10810447D01*
X12811000Y-10760967D01*
X12748168Y-10445088D01*
X12624918Y-10147537D01*
X12445987Y-9879748D01*
X12218252Y-9652013D01*
X11950463Y-9473082D01*
X11725132Y-9379746D01*
X11667834Y-9272550D01*
X11513503Y-9084497D01*
X11466381Y-9045825D01*
X9210180Y-6789625D01*
X9171504Y-6742498D01*
X8983451Y-6588167D01*
X8768903Y-6473489D01*
X8536104Y-6402870D01*
X8354667Y-6385000D01*
X8294002Y-6379025D01*
X8233337Y-6385000D01*
X5952301Y-6385000D01*
X5941798Y-6372202D01*
X5807137Y-6261689D01*
X5653505Y-6179571D01*
X5486804Y-6129003D01*
X5313440Y-6111928D01*
X2814560Y-6111928D01*
X2641196Y-6129003D01*
X2474495Y-6179571D01*
X2320863Y-6261689D01*
X2186202Y-6372202D01*
X2075689Y-6506863D01*
X1993571Y-6660495D01*
X1943003Y-6827196D01*
X1925928Y-7000560D01*
X1925928Y-8239440D01*
X1943003Y-8412804D01*
X1993571Y-8579505D01*
X2075689Y-8733137D01*
X2142454Y-8814491D01*
X2112815Y-8838815D01*
X2033463Y-8935506D01*
X1974498Y-9045820D01*
X1938188Y-9165518D01*
X1925928Y-9290000D01*
X1929000Y-9874250D01*
X2087750Y-10033000D01*
X3937000Y-10033000D01*
X3937000Y-10013000D01*
X4191000Y-10013000D01*
X4191000Y-10033000D01*
X4211000Y-10033000D01*
X4211000Y-10287000D01*
X4191000Y-10287000D01*
X4191000Y-11506250D01*
X4349750Y-11665000D01*
X4390348Y-11665103D01*
X4302168Y-11772551D01*
X4187489Y-11987099D01*
X4171208Y-12040769D01*
X4029262Y-12157262D01*
X3912769Y-12299208D01*
X3859099Y-12315489D01*
X3644551Y-12430167D01*
X3456498Y-12584498D01*
X3417826Y-12631620D01*
X2503611Y-13545836D01*
X2456489Y-13584508D01*
X2302158Y-13772561D01*
X2187480Y-13987109D01*
X2187479Y-13987111D01*
X2116860Y-14219908D01*
X2093015Y-14462010D01*
X2098991Y-14522685D01*
X2098990Y-17062658D01*
X2093015Y-17123324D01*
X2098990Y-17183988D01*
X2116860Y-17365425D01*
X2187479Y-17598224D01*
X2190816Y-17604466D01*
X2033919Y-17635675D01*
X1718169Y-17766463D01*
X1434002Y-17956337D01*
X1192337Y-18198002D01*
X1002463Y-18482169D01*
X871675Y-18797919D01*
X805000Y-19133117D01*
X805000Y-19474883D01*
X871675Y-19810081D01*
X1002463Y-20125831D01*
X1192337Y-20409998D01*
X1434002Y-20651663D01*
X1718169Y-20841537D01*
X2033919Y-20972325D01*
X2369117Y-21039000D01*
X2710883Y-21039000D01*
X3046081Y-20972325D01*
X3361831Y-20841537D01*
X3645998Y-20651663D01*
X3887663Y-20409998D01*
X4077537Y-20125831D01*
X4208325Y-19810081D01*
X4219192Y-19755451D01*
X4256164Y-19800502D01*
X4395810Y-19915106D01*
X4431074Y-20031357D01*
X4547794Y-20249725D01*
X4704873Y-20441127D01*
X4896275Y-20598206D01*
X5114643Y-20714926D01*
X5351587Y-20786802D01*
X5598000Y-20811072D01*
X6848000Y-20811072D01*
X7094413Y-20786802D01*
X7331357Y-20714926D01*
X7549725Y-20598206D01*
X7741127Y-20441127D01*
X7898206Y-20249725D01*
X8014926Y-20031357D01*
X8086802Y-19794413D01*
X8111072Y-19548000D01*
X8111072Y-18298000D01*
X8086802Y-18051587D01*
X8014926Y-17814643D01*
X7898206Y-17596275D01*
X7741127Y-17404873D01*
X7549725Y-17247794D01*
X7331357Y-17131074D01*
X7094413Y-17059198D01*
X6848000Y-17034928D01*
X6833376Y-17034928D01*
X6885441Y-16937521D01*
X6950204Y-16724027D01*
X6951334Y-16712553D01*
X9466381Y-14197507D01*
X9513502Y-14158836D01*
X9667833Y-13970783D01*
X9782511Y-13756235D01*
X9853130Y-13523436D01*
X9871000Y-13341999D01*
X9871000Y-13341998D01*
X9876975Y-13281334D01*
X9871000Y-13220669D01*
X9871000Y-11999239D01*
X9905987Y-11964252D01*
X9906000Y-11964233D01*
X9906013Y-11964252D01*
X10133748Y-12191987D01*
X10401537Y-12370918D01*
X10699088Y-12494168D01*
X11014967Y-12557000D01*
X11064447Y-12557000D01*
X15085821Y-16578374D01*
X15124498Y-16625502D01*
X15312551Y-16779833D01*
X15527099Y-16894511D01*
X15759898Y-16965130D01*
X16002000Y-16988975D01*
X16062665Y-16983000D01*
X19273903Y-16983000D01*
X19204202Y-17040202D01*
X19193699Y-17053000D01*
X17191485Y-17053000D01*
X17008000Y-17034928D01*
X15758000Y-17034928D01*
X15511587Y-17059198D01*
X15274643Y-17131074D01*
X15056275Y-17247794D01*
X14864873Y-17404873D01*
X14707794Y-17596275D01*
X14591074Y-17814643D01*
X14519198Y-18051587D01*
X14494928Y-18298000D01*
X14494928Y-19548000D01*
X14519198Y-19794413D01*
X14591074Y-20031357D01*
X14707794Y-20249725D01*
X14864873Y-20441127D01*
X15056275Y-20598206D01*
X15274643Y-20714926D01*
X15511587Y-20786802D01*
X15758000Y-20811072D01*
X17008000Y-20811072D01*
X17254413Y-20786802D01*
X17491357Y-20714926D01*
X17709725Y-20598206D01*
X17901127Y-20441127D01*
X18058206Y-20249725D01*
X18174926Y-20031357D01*
X18246802Y-19794413D01*
X18271072Y-19548000D01*
X18271072Y-19523000D01*
X19193699Y-19523000D01*
X19204202Y-19535798D01*
X19338863Y-19646311D01*
X19492495Y-19728429D01*
X19659196Y-19778997D01*
X19832560Y-19796072D01*
X22331440Y-19796072D01*
X22504804Y-19778997D01*
X22671505Y-19728429D01*
X22825137Y-19646311D01*
X22959798Y-19535798D01*
X23070311Y-19401137D01*
X23152429Y-19247505D01*
X23202997Y-19080804D01*
X23220072Y-18907440D01*
X23220072Y-18885893D01*
X24232001Y-17873965D01*
X24232001Y-21184000D01*
X660000Y-21184000D01*
X660000Y-11030000D01*
X1925928Y-11030000D01*
X1938188Y-11154482D01*
X1974498Y-11274180D01*
X2033463Y-11384494D01*
X2112815Y-11481185D01*
X2209506Y-11560537D01*
X2319820Y-11619502D01*
X2439518Y-11655812D01*
X2564000Y-11668072D01*
X3778250Y-11665000D01*
X3937000Y-11506250D01*
X3937000Y-10287000D01*
X2087750Y-10287000D01*
X1929000Y-10445750D01*
X1925928Y-11030000D01*
X660000Y-11030000D01*
X660000Y-2369117D01*
X805000Y-2369117D01*
X805000Y-2710883D01*
X871675Y-3046081D01*
X1002463Y-3361831D01*
X1192337Y-3645998D01*
X1434002Y-3887663D01*
X1718169Y-4077537D01*
X2033919Y-4208325D01*
X2369117Y-4275000D01*
X2710883Y-4275000D01*
X3046081Y-4208325D01*
X3361831Y-4077537D01*
X3645998Y-3887663D01*
X3887663Y-3645998D01*
X4077537Y-3361831D01*
X4208325Y-3046081D01*
X4275000Y-2710883D01*
X4275000Y-2369117D01*
X4208325Y-2033919D01*
X4077537Y-1718169D01*
X3887663Y-1434002D01*
X3645998Y-1192337D01*
X3361831Y-1002463D01*
X3046081Y-871675D01*
X2710883Y-805000D01*
X2369117Y-805000D01*
X2033919Y-871675D01*
X1718169Y-1002463D01*
X1434002Y-1192337D01*
X1192337Y-1434002D01*
X1002463Y-1718169D01*
X871675Y-2033919D01*
X805000Y-2369117D01*
X660000Y-2369117D01*
X660000Y-660000D01*
X24232000Y-660000D01*
X24232000Y-10801447D01*
G37*
X24232000Y-10801447D02*
X23220072Y-9789519D01*
X23220072Y-8778560D01*
X23202997Y-8605196D01*
X23152429Y-8438495D01*
X23070311Y-8284863D01*
X22959798Y-8150202D01*
X22872821Y-8078822D01*
X22905776Y-8051776D01*
X23039227Y-7889167D01*
X23138389Y-7703647D01*
X23199453Y-7502346D01*
X23220072Y-7293000D01*
X23220072Y-6423000D01*
X23199453Y-6213654D01*
X23138389Y-6012353D01*
X23039227Y-5826833D01*
X22905776Y-5664224D01*
X22743167Y-5530773D01*
X22557647Y-5431611D01*
X22356346Y-5370547D01*
X22147000Y-5349928D01*
X21320481Y-5349928D01*
X18339670Y-2369117D01*
X20617000Y-2369117D01*
X20617000Y-2710883D01*
X20683675Y-3046081D01*
X20814463Y-3361831D01*
X21004337Y-3645998D01*
X21246002Y-3887663D01*
X21530169Y-4077537D01*
X21845919Y-4208325D01*
X22181117Y-4275000D01*
X22522883Y-4275000D01*
X22858081Y-4208325D01*
X23173831Y-4077537D01*
X23457998Y-3887663D01*
X23699663Y-3645998D01*
X23889537Y-3361831D01*
X24020325Y-3046081D01*
X24087000Y-2710883D01*
X24087000Y-2369117D01*
X24020325Y-2033919D01*
X23889537Y-1718169D01*
X23699663Y-1434002D01*
X23457998Y-1192337D01*
X23173831Y-1002463D01*
X22858081Y-871675D01*
X22522883Y-805000D01*
X22181117Y-805000D01*
X21845919Y-871675D01*
X21530169Y-1002463D01*
X21246002Y-1192337D01*
X21004337Y-1434002D01*
X20814463Y-1718169D01*
X20683675Y-2033919D01*
X20617000Y-2369117D01*
X18339670Y-2369117D01*
X18224178Y-2253625D01*
X18185501Y-2206497D01*
X17997448Y-2052166D01*
X17782900Y-1937488D01*
X17550101Y-1866869D01*
X17368664Y-1848999D01*
X17307999Y-1843024D01*
X17247334Y-1848999D01*
X14728664Y-1848999D01*
X14667999Y-1843024D01*
X14607334Y-1848999D01*
X14425897Y-1866869D01*
X14193098Y-1937488D01*
X13978550Y-2052166D01*
X13790497Y-2206497D01*
X13751825Y-2253619D01*
X12812999Y-3192446D01*
X12811000Y-3190446D01*
X12811000Y-3140967D01*
X12748168Y-2825088D01*
X12624918Y-2527537D01*
X12445987Y-2259748D01*
X12218252Y-2032013D01*
X11950463Y-1853082D01*
X11652912Y-1729832D01*
X11337033Y-1667000D01*
X11014967Y-1667000D01*
X10699088Y-1729832D01*
X10401537Y-1853082D01*
X10133748Y-2032013D01*
X9906013Y-2259748D01*
X9906000Y-2259767D01*
X9905987Y-2259748D01*
X9678252Y-2032013D01*
X9410463Y-1853082D01*
X9112912Y-1729832D01*
X8797033Y-1667000D01*
X8474967Y-1667000D01*
X8159088Y-1729832D01*
X7861537Y-1853082D01*
X7593748Y-2032013D01*
X7366013Y-2259748D01*
X7187082Y-2527537D01*
X7063832Y-2825088D01*
X7001000Y-3140967D01*
X7001000Y-3463033D01*
X7063832Y-3778912D01*
X7187082Y-4076463D01*
X7366013Y-4344252D01*
X7593748Y-4571987D01*
X7861537Y-4750918D01*
X8086869Y-4844254D01*
X8144166Y-4951449D01*
X8298497Y-5139503D01*
X8345624Y-5178179D01*
X11346812Y-8179368D01*
X11395439Y-8423834D01*
X11537534Y-8766882D01*
X11743825Y-9075618D01*
X12006382Y-9338175D01*
X12315118Y-9544466D01*
X12658166Y-9686561D01*
X13022344Y-9759000D01*
X13393656Y-9759000D01*
X13757834Y-9686561D01*
X13861456Y-9643639D01*
X13863000Y-10128250D01*
X14021750Y-10287000D01*
X15621000Y-10287000D01*
X15621000Y-8687750D01*
X15462250Y-8529000D01*
X14977639Y-8527456D01*
X15020561Y-8423834D01*
X15093000Y-8059656D01*
X15093000Y-7688344D01*
X15020561Y-7324166D01*
X14894976Y-7020976D01*
X15198166Y-7146561D01*
X15562344Y-7219000D01*
X15886447Y-7219000D01*
X17241842Y-8574395D01*
X17122482Y-8538188D01*
X16998000Y-8525928D01*
X16033750Y-8529000D01*
X15875000Y-8687750D01*
X15875000Y-10287000D01*
X17474250Y-10287000D01*
X17633000Y-10128250D01*
X17636072Y-9164000D01*
X17623812Y-9039518D01*
X17587605Y-8920158D01*
X18895826Y-10228380D01*
X18934498Y-10275502D01*
X19003998Y-10332539D01*
X19011571Y-10357505D01*
X19093689Y-10511137D01*
X19204202Y-10645798D01*
X19338863Y-10756311D01*
X19492495Y-10838429D01*
X19659196Y-10888997D01*
X19832560Y-10906072D01*
X20843518Y-10906072D01*
X21121619Y-11184173D01*
X21121624Y-11184177D01*
X21637375Y-11699928D01*
X20017000Y-11699928D01*
X19807654Y-11720547D01*
X19606353Y-11781611D01*
X19420833Y-11880773D01*
X19258224Y-12014224D01*
X19124773Y-12176833D01*
X19025611Y-12362353D01*
X18964547Y-12563654D01*
X18943928Y-12773000D01*
X18943928Y-13643000D01*
X18964547Y-13852346D01*
X19025611Y-14053647D01*
X19124773Y-14239167D01*
X19258224Y-14401776D01*
X19351102Y-14478000D01*
X19308455Y-14513000D01*
X16513553Y-14513000D01*
X14254157Y-12253604D01*
X14373518Y-12289812D01*
X14498000Y-12302072D01*
X15462250Y-12299000D01*
X15621000Y-12140250D01*
X15621000Y-10541000D01*
X15875000Y-10541000D01*
X15875000Y-12140250D01*
X16033750Y-12299000D01*
X16998000Y-12302072D01*
X17122482Y-12289812D01*
X17242180Y-12253502D01*
X17352494Y-12194537D01*
X17449185Y-12115185D01*
X17528537Y-12018494D01*
X17587502Y-11908180D01*
X17623812Y-11788482D01*
X17636072Y-11664000D01*
X17633000Y-10699750D01*
X17474250Y-10541000D01*
X15875000Y-10541000D01*
X15621000Y-10541000D01*
X14021750Y-10541000D01*
X13863000Y-10699750D01*
X13859928Y-11664000D01*
X13872188Y-11788482D01*
X13908396Y-11907843D01*
X12811000Y-10810447D01*
X12811000Y-10760967D01*
X12748168Y-10445088D01*
X12624918Y-10147537D01*
X12445987Y-9879748D01*
X12218252Y-9652013D01*
X11950463Y-9473082D01*
X11725132Y-9379746D01*
X11667834Y-9272550D01*
X11513503Y-9084497D01*
X11466381Y-9045825D01*
X9210180Y-6789625D01*
X9171504Y-6742498D01*
X8983451Y-6588167D01*
X8768903Y-6473489D01*
X8536104Y-6402870D01*
X8354667Y-6385000D01*
X8294002Y-6379025D01*
X8233337Y-6385000D01*
X5952301Y-6385000D01*
X5941798Y-6372202D01*
X5807137Y-6261689D01*
X5653505Y-6179571D01*
X5486804Y-6129003D01*
X5313440Y-6111928D01*
X2814560Y-6111928D01*
X2641196Y-6129003D01*
X2474495Y-6179571D01*
X2320863Y-6261689D01*
X2186202Y-6372202D01*
X2075689Y-6506863D01*
X1993571Y-6660495D01*
X1943003Y-6827196D01*
X1925928Y-7000560D01*
X1925928Y-8239440D01*
X1943003Y-8412804D01*
X1993571Y-8579505D01*
X2075689Y-8733137D01*
X2142454Y-8814491D01*
X2112815Y-8838815D01*
X2033463Y-8935506D01*
X1974498Y-9045820D01*
X1938188Y-9165518D01*
X1925928Y-9290000D01*
X1929000Y-9874250D01*
X2087750Y-10033000D01*
X3937000Y-10033000D01*
X3937000Y-10013000D01*
X4191000Y-10013000D01*
X4191000Y-10033000D01*
X4211000Y-10033000D01*
X4211000Y-10287000D01*
X4191000Y-10287000D01*
X4191000Y-11506250D01*
X4349750Y-11665000D01*
X4390348Y-11665103D01*
X4302168Y-11772551D01*
X4187489Y-11987099D01*
X4171208Y-12040769D01*
X4029262Y-12157262D01*
X3912769Y-12299208D01*
X3859099Y-12315489D01*
X3644551Y-12430167D01*
X3456498Y-12584498D01*
X3417826Y-12631620D01*
X2503611Y-13545836D01*
X2456489Y-13584508D01*
X2302158Y-13772561D01*
X2187480Y-13987109D01*
X2187479Y-13987111D01*
X2116860Y-14219908D01*
X2093015Y-14462010D01*
X2098991Y-14522685D01*
X2098990Y-17062658D01*
X2093015Y-17123324D01*
X2098990Y-17183988D01*
X2116860Y-17365425D01*
X2187479Y-17598224D01*
X2190816Y-17604466D01*
X2033919Y-17635675D01*
X1718169Y-17766463D01*
X1434002Y-17956337D01*
X1192337Y-18198002D01*
X1002463Y-18482169D01*
X871675Y-18797919D01*
X805000Y-19133117D01*
X805000Y-19474883D01*
X871675Y-19810081D01*
X1002463Y-20125831D01*
X1192337Y-20409998D01*
X1434002Y-20651663D01*
X1718169Y-20841537D01*
X2033919Y-20972325D01*
X2369117Y-21039000D01*
X2710883Y-21039000D01*
X3046081Y-20972325D01*
X3361831Y-20841537D01*
X3645998Y-20651663D01*
X3887663Y-20409998D01*
X4077537Y-20125831D01*
X4208325Y-19810081D01*
X4219192Y-19755451D01*
X4256164Y-19800502D01*
X4395810Y-19915106D01*
X4431074Y-20031357D01*
X4547794Y-20249725D01*
X4704873Y-20441127D01*
X4896275Y-20598206D01*
X5114643Y-20714926D01*
X5351587Y-20786802D01*
X5598000Y-20811072D01*
X6848000Y-20811072D01*
X7094413Y-20786802D01*
X7331357Y-20714926D01*
X7549725Y-20598206D01*
X7741127Y-20441127D01*
X7898206Y-20249725D01*
X8014926Y-20031357D01*
X8086802Y-19794413D01*
X8111072Y-19548000D01*
X8111072Y-18298000D01*
X8086802Y-18051587D01*
X8014926Y-17814643D01*
X7898206Y-17596275D01*
X7741127Y-17404873D01*
X7549725Y-17247794D01*
X7331357Y-17131074D01*
X7094413Y-17059198D01*
X6848000Y-17034928D01*
X6833376Y-17034928D01*
X6885441Y-16937521D01*
X6950204Y-16724027D01*
X6951334Y-16712553D01*
X9466381Y-14197507D01*
X9513502Y-14158836D01*
X9667833Y-13970783D01*
X9782511Y-13756235D01*
X9853130Y-13523436D01*
X9871000Y-13341999D01*
X9871000Y-13341998D01*
X9876975Y-13281334D01*
X9871000Y-13220669D01*
X9871000Y-11999239D01*
X9905987Y-11964252D01*
X9906000Y-11964233D01*
X9906013Y-11964252D01*
X10133748Y-12191987D01*
X10401537Y-12370918D01*
X10699088Y-12494168D01*
X11014967Y-12557000D01*
X11064447Y-12557000D01*
X15085821Y-16578374D01*
X15124498Y-16625502D01*
X15312551Y-16779833D01*
X15527099Y-16894511D01*
X15759898Y-16965130D01*
X16002000Y-16988975D01*
X16062665Y-16983000D01*
X19273903Y-16983000D01*
X19204202Y-17040202D01*
X19193699Y-17053000D01*
X17191485Y-17053000D01*
X17008000Y-17034928D01*
X15758000Y-17034928D01*
X15511587Y-17059198D01*
X15274643Y-17131074D01*
X15056275Y-17247794D01*
X14864873Y-17404873D01*
X14707794Y-17596275D01*
X14591074Y-17814643D01*
X14519198Y-18051587D01*
X14494928Y-18298000D01*
X14494928Y-19548000D01*
X14519198Y-19794413D01*
X14591074Y-20031357D01*
X14707794Y-20249725D01*
X14864873Y-20441127D01*
X15056275Y-20598206D01*
X15274643Y-20714926D01*
X15511587Y-20786802D01*
X15758000Y-20811072D01*
X17008000Y-20811072D01*
X17254413Y-20786802D01*
X17491357Y-20714926D01*
X17709725Y-20598206D01*
X17901127Y-20441127D01*
X18058206Y-20249725D01*
X18174926Y-20031357D01*
X18246802Y-19794413D01*
X18271072Y-19548000D01*
X18271072Y-19523000D01*
X19193699Y-19523000D01*
X19204202Y-19535798D01*
X19338863Y-19646311D01*
X19492495Y-19728429D01*
X19659196Y-19778997D01*
X19832560Y-19796072D01*
X22331440Y-19796072D01*
X22504804Y-19778997D01*
X22671505Y-19728429D01*
X22825137Y-19646311D01*
X22959798Y-19535798D01*
X23070311Y-19401137D01*
X23152429Y-19247505D01*
X23202997Y-19080804D01*
X23220072Y-18907440D01*
X23220072Y-18885893D01*
X24232001Y-17873965D01*
X24232001Y-21184000D01*
X660000Y-21184000D01*
X660000Y-11030000D01*
X1925928Y-11030000D01*
X1938188Y-11154482D01*
X1974498Y-11274180D01*
X2033463Y-11384494D01*
X2112815Y-11481185D01*
X2209506Y-11560537D01*
X2319820Y-11619502D01*
X2439518Y-11655812D01*
X2564000Y-11668072D01*
X3778250Y-11665000D01*
X3937000Y-11506250D01*
X3937000Y-10287000D01*
X2087750Y-10287000D01*
X1929000Y-10445750D01*
X1925928Y-11030000D01*
X660000Y-11030000D01*
X660000Y-2369117D01*
X805000Y-2369117D01*
X805000Y-2710883D01*
X871675Y-3046081D01*
X1002463Y-3361831D01*
X1192337Y-3645998D01*
X1434002Y-3887663D01*
X1718169Y-4077537D01*
X2033919Y-4208325D01*
X2369117Y-4275000D01*
X2710883Y-4275000D01*
X3046081Y-4208325D01*
X3361831Y-4077537D01*
X3645998Y-3887663D01*
X3887663Y-3645998D01*
X4077537Y-3361831D01*
X4208325Y-3046081D01*
X4275000Y-2710883D01*
X4275000Y-2369117D01*
X4208325Y-2033919D01*
X4077537Y-1718169D01*
X3887663Y-1434002D01*
X3645998Y-1192337D01*
X3361831Y-1002463D01*
X3046081Y-871675D01*
X2710883Y-805000D01*
X2369117Y-805000D01*
X2033919Y-871675D01*
X1718169Y-1002463D01*
X1434002Y-1192337D01*
X1192337Y-1434002D01*
X1002463Y-1718169D01*
X871675Y-2033919D01*
X805000Y-2369117D01*
X660000Y-2369117D01*
X660000Y-660000D01*
X24232000Y-660000D01*
X24232000Y-10801447D01*
M02*
