G04 #@! TF.GenerationSoftware,KiCad,Pcbnew,5.1.5+dfsg1-2build2*
G04 #@! TF.CreationDate,2020-11-06T22:36:43+01:00*
G04 #@! TF.ProjectId,lighthouse,6c696768-7468-46f7-9573-652e6b696361,rev?*
G04 #@! TF.SameCoordinates,PX36049d0PY465e678*
G04 #@! TF.FileFunction,Legend,Top*
G04 #@! TF.FilePolarity,Positive*
%FSLAX46Y46*%
G04 Gerber Fmt 4.6, Leading zero omitted, Abs format (unit mm)*
G04 Created by KiCad (PCBNEW 5.1.5+dfsg1-2build2) date 2020-11-06 22:36:43*
%MOMM*%
%LPD*%
G04 APERTURE LIST*
%ADD10C,0.120000*%
%ADD11C,0.150000*%
G04 APERTURE END LIST*
D10*
X16860264Y-5571617D02*
G75*
G02X17448000Y-5964000I-1112264J-2302383D01*
G01*
X14658487Y-5537537D02*
G75*
G03X13398000Y-6814000I1089513J-2336463D01*
G01*
X14653214Y-10221775D02*
G75*
G02X13398000Y-8964000I1094786J2347775D01*
G01*
X16870045Y-10196631D02*
G75*
G03X17448000Y-9814000I-1122045J2322631D01*
G01*
X17448000Y-9814000D02*
X17448000Y-5964000D01*
X9183000Y-17803000D02*
X9183000Y-20043000D01*
X9183000Y-20043000D02*
X13423000Y-20043000D01*
X13423000Y-20043000D02*
X13423000Y-17803000D01*
X13423000Y-17803000D02*
X9183000Y-17803000D01*
X7263000Y-18923000D02*
X9183000Y-18923000D01*
X15343000Y-18923000D02*
X13423000Y-18923000D01*
X9903000Y-17803000D02*
X9903000Y-20043000D01*
X10023000Y-17803000D02*
X10023000Y-20043000D01*
X9783000Y-17803000D02*
X9783000Y-20043000D01*
X7094000Y-6240000D02*
X1074000Y-6240000D01*
X1074000Y-6240000D02*
X1074000Y-11540000D01*
X1074000Y-11540000D02*
X7094000Y-11540000D01*
X7094000Y-11540000D02*
X7094000Y-6240000D01*
X6064000Y-5950000D02*
X2064000Y-5950000D01*
X1074000Y-7620000D02*
X2074000Y-7620000D01*
X2074000Y-7620000D02*
X2074000Y-10160000D01*
X2074000Y-10160000D02*
X1074000Y-10160000D01*
X2074000Y-7620000D02*
X2604000Y-7870000D01*
X2604000Y-7870000D02*
X2604000Y-9910000D01*
X2604000Y-9910000D02*
X2074000Y-10160000D01*
X1074000Y-7870000D02*
X2074000Y-7870000D01*
X1074000Y-9910000D02*
X2074000Y-9910000D01*
X7094000Y-6820000D02*
X6494000Y-6820000D01*
X6494000Y-6820000D02*
X6494000Y-8420000D01*
X6494000Y-8420000D02*
X7094000Y-8420000D01*
X7094000Y-9360000D02*
X6494000Y-9360000D01*
X6494000Y-9360000D02*
X6494000Y-10960000D01*
X6494000Y-10960000D02*
X7094000Y-10960000D01*
X18652000Y-6058000D02*
X18052000Y-6058000D01*
X18652000Y-7658000D02*
X18652000Y-6058000D01*
X18052000Y-7658000D02*
X18652000Y-7658000D01*
X18652000Y-8598000D02*
X18052000Y-8598000D01*
X18652000Y-10198000D02*
X18652000Y-8598000D01*
X18052000Y-10198000D02*
X18652000Y-10198000D01*
X24072000Y-7108000D02*
X23072000Y-7108000D01*
X24072000Y-9148000D02*
X23072000Y-9148000D01*
X22542000Y-7108000D02*
X23072000Y-6858000D01*
X22542000Y-9148000D02*
X22542000Y-7108000D01*
X23072000Y-9398000D02*
X22542000Y-9148000D01*
X23072000Y-6858000D02*
X24072000Y-6858000D01*
X23072000Y-9398000D02*
X23072000Y-6858000D01*
X24072000Y-9398000D02*
X23072000Y-9398000D01*
X19082000Y-11068000D02*
X23082000Y-11068000D01*
X18052000Y-5478000D02*
X18052000Y-10778000D01*
X24072000Y-5478000D02*
X18052000Y-5478000D01*
X24072000Y-10778000D02*
X24072000Y-5478000D01*
X18052000Y-10778000D02*
X24072000Y-10778000D01*
X18052000Y-19668000D02*
X24072000Y-19668000D01*
X24072000Y-19668000D02*
X24072000Y-11828000D01*
X24072000Y-11828000D02*
X18052000Y-11828000D01*
X18052000Y-11828000D02*
X18052000Y-19668000D01*
X19082000Y-19958000D02*
X23082000Y-19958000D01*
X24072000Y-18288000D02*
X23072000Y-18288000D01*
X23072000Y-18288000D02*
X23072000Y-13208000D01*
X23072000Y-13208000D02*
X24072000Y-13208000D01*
X23072000Y-18288000D02*
X22542000Y-18038000D01*
X22542000Y-18038000D02*
X22542000Y-13458000D01*
X22542000Y-13458000D02*
X23072000Y-13208000D01*
X24072000Y-18038000D02*
X23072000Y-18038000D01*
X24072000Y-13458000D02*
X23072000Y-13458000D01*
X18052000Y-19088000D02*
X18652000Y-19088000D01*
X18652000Y-19088000D02*
X18652000Y-17488000D01*
X18652000Y-17488000D02*
X18052000Y-17488000D01*
X18052000Y-16548000D02*
X18652000Y-16548000D01*
X18652000Y-16548000D02*
X18652000Y-14948000D01*
X18652000Y-14948000D02*
X18052000Y-14948000D01*
X18052000Y-14008000D02*
X18652000Y-14008000D01*
X18652000Y-14008000D02*
X18652000Y-12408000D01*
X18652000Y-12408000D02*
X18052000Y-12408000D01*
X8636000Y-9982000D02*
X8636000Y-9032000D01*
X8636000Y-4242000D02*
X8636000Y-5192000D01*
X9556000Y-9032000D02*
X9556000Y-5192000D01*
X7716000Y-9032000D02*
X9556000Y-9032000D01*
X7716000Y-5192000D02*
X7716000Y-9032000D01*
X9556000Y-5192000D02*
X7716000Y-5192000D01*
X12096000Y-5192000D02*
X10256000Y-5192000D01*
X10256000Y-5192000D02*
X10256000Y-9032000D01*
X10256000Y-9032000D02*
X12096000Y-9032000D01*
X12096000Y-9032000D02*
X12096000Y-5192000D01*
X11176000Y-4242000D02*
X11176000Y-5192000D01*
X11176000Y-9982000D02*
X11176000Y-9032000D01*
X17399000Y-17272000D02*
X5334000Y-17272000D01*
X17399000Y-17272000D02*
X17399000Y-12192000D01*
X17399000Y-12192000D02*
X5334000Y-12192000D01*
X5334000Y-17272000D02*
X4064000Y-17272000D01*
X4064000Y-12192000D02*
X5334000Y-12192000D01*
X4064000Y-12192000D02*
X4064000Y-17272000D01*
D11*
X12735619Y-9219238D02*
X12688000Y-9314476D01*
X12592761Y-9409714D01*
X12449904Y-9552571D01*
X12402285Y-9647809D01*
X12402285Y-9743047D01*
X12640380Y-9695428D02*
X12592761Y-9790666D01*
X12497523Y-9885904D01*
X12307047Y-9933523D01*
X11973714Y-9933523D01*
X11783238Y-9885904D01*
X11688000Y-9790666D01*
X11640380Y-9695428D01*
X11640380Y-9504952D01*
X11688000Y-9409714D01*
X11783238Y-9314476D01*
X11973714Y-9266857D01*
X12307047Y-9266857D01*
X12497523Y-9314476D01*
X12592761Y-9409714D01*
X12640380Y-9504952D01*
X12640380Y-9695428D01*
X12640380Y-8314476D02*
X12640380Y-8885904D01*
X12640380Y-8600190D02*
X11640380Y-8600190D01*
X11783238Y-8695428D01*
X11878476Y-8790666D01*
X11926095Y-8885904D01*
X21018666Y207620D02*
X20685333Y683810D01*
X20447238Y207620D02*
X20447238Y1207620D01*
X20828190Y1207620D01*
X20923428Y1160000D01*
X20971047Y1112381D01*
X21018666Y1017143D01*
X21018666Y874286D01*
X20971047Y779048D01*
X20923428Y731429D01*
X20828190Y683810D01*
X20447238Y683810D01*
X21447238Y731429D02*
X21780571Y731429D01*
X21923428Y207620D02*
X21447238Y207620D01*
X21447238Y1207620D01*
X21923428Y1207620D01*
X22685333Y731429D02*
X22352000Y731429D01*
X22352000Y207620D02*
X22352000Y1207620D01*
X22828190Y1207620D01*
X23352000Y1207620D02*
X23352000Y969524D01*
X23113904Y1064762D02*
X23352000Y969524D01*
X23590095Y1064762D01*
X23209142Y779048D02*
X23352000Y969524D01*
X23494857Y779048D01*
X24113904Y1207620D02*
X24113904Y969524D01*
X23875809Y1064762D02*
X24113904Y969524D01*
X24352000Y1064762D01*
X23971047Y779048D02*
X24113904Y969524D01*
X24256761Y779048D01*
X1206666Y-16556380D02*
X873333Y-16080190D01*
X635238Y-16556380D02*
X635238Y-15556380D01*
X1016190Y-15556380D01*
X1111428Y-15604000D01*
X1159047Y-15651619D01*
X1206666Y-15746857D01*
X1206666Y-15889714D01*
X1159047Y-15984952D01*
X1111428Y-16032571D01*
X1016190Y-16080190D01*
X635238Y-16080190D01*
X1635238Y-16032571D02*
X1968571Y-16032571D01*
X2111428Y-16556380D02*
X1635238Y-16556380D01*
X1635238Y-15556380D01*
X2111428Y-15556380D01*
X2873333Y-16032571D02*
X2540000Y-16032571D01*
X2540000Y-16556380D02*
X2540000Y-15556380D01*
X3016190Y-15556380D01*
X3540000Y-15556380D02*
X3540000Y-15794476D01*
X3301904Y-15699238D02*
X3540000Y-15794476D01*
X3778095Y-15699238D01*
X3397142Y-15984952D02*
X3540000Y-15794476D01*
X3682857Y-15984952D01*
X4301904Y-15556380D02*
X4301904Y-15794476D01*
X4063809Y-15699238D02*
X4301904Y-15794476D01*
X4540000Y-15699238D01*
X4159047Y-15984952D02*
X4301904Y-15794476D01*
X4444761Y-15984952D01*
X1206666Y207620D02*
X873333Y683810D01*
X635238Y207620D02*
X635238Y1207620D01*
X1016190Y1207620D01*
X1111428Y1160000D01*
X1159047Y1112381D01*
X1206666Y1017143D01*
X1206666Y874286D01*
X1159047Y779048D01*
X1111428Y731429D01*
X1016190Y683810D01*
X635238Y683810D01*
X1635238Y731429D02*
X1968571Y731429D01*
X2111428Y207620D02*
X1635238Y207620D01*
X1635238Y1207620D01*
X2111428Y1207620D01*
X2873333Y731429D02*
X2540000Y731429D01*
X2540000Y207620D02*
X2540000Y1207620D01*
X3016190Y1207620D01*
X3540000Y1207620D02*
X3540000Y969524D01*
X3301904Y1064762D02*
X3540000Y969524D01*
X3778095Y1064762D01*
X3397142Y779048D02*
X3540000Y969524D01*
X3682857Y779048D01*
X4301904Y1207620D02*
X4301904Y969524D01*
X4063809Y1064762D02*
X4301904Y969524D01*
X4540000Y1064762D01*
X4159047Y779048D02*
X4301904Y969524D01*
X4444761Y779048D01*
X10564904Y-17255380D02*
X10564904Y-16255380D01*
X10803000Y-16255380D01*
X10945857Y-16303000D01*
X11041095Y-16398238D01*
X11088714Y-16493476D01*
X11136333Y-16683952D01*
X11136333Y-16826809D01*
X11088714Y-17017285D01*
X11041095Y-17112523D01*
X10945857Y-17207761D01*
X10803000Y-17255380D01*
X10564904Y-17255380D01*
X12088714Y-17255380D02*
X11517285Y-17255380D01*
X11803000Y-17255380D02*
X11803000Y-16255380D01*
X11707761Y-16398238D01*
X11612523Y-16493476D01*
X11517285Y-16541095D01*
X5961095Y-17575380D02*
X5961095Y-16575380D01*
X6532523Y-17575380D02*
X6103952Y-17003952D01*
X6532523Y-16575380D02*
X5961095Y-17146809D01*
X7636380Y-9223333D02*
X8350666Y-9223333D01*
X8493523Y-9270952D01*
X8588761Y-9366190D01*
X8636380Y-9509047D01*
X8636380Y-9604285D01*
X8636380Y-8223333D02*
X8636380Y-8794761D01*
X8636380Y-8509047D02*
X7636380Y-8509047D01*
X7779238Y-8604285D01*
X7874476Y-8699523D01*
X7922095Y-8794761D01*
X16414380Y-8461333D02*
X17128666Y-8461333D01*
X17271523Y-8508952D01*
X17366761Y-8604190D01*
X17414380Y-8747047D01*
X17414380Y-8842285D01*
X16509619Y-8032761D02*
X16462000Y-7985142D01*
X16414380Y-7889904D01*
X16414380Y-7651809D01*
X16462000Y-7556571D01*
X16509619Y-7508952D01*
X16604857Y-7461333D01*
X16700095Y-7461333D01*
X16842952Y-7508952D01*
X17414380Y-8080380D01*
X17414380Y-7461333D01*
X16414380Y-16081333D02*
X17128666Y-16081333D01*
X17271523Y-16128952D01*
X17366761Y-16224190D01*
X17414380Y-16367047D01*
X17414380Y-16462285D01*
X16414380Y-15700380D02*
X16414380Y-15081333D01*
X16795333Y-15414666D01*
X16795333Y-15271809D01*
X16842952Y-15176571D01*
X16890571Y-15128952D01*
X16985809Y-15081333D01*
X17223904Y-15081333D01*
X17319142Y-15128952D01*
X17366761Y-15176571D01*
X17414380Y-15271809D01*
X17414380Y-15557523D01*
X17366761Y-15652761D01*
X17319142Y-15700380D01*
X11008380Y-7278666D02*
X10532190Y-7612000D01*
X11008380Y-7850095D02*
X10008380Y-7850095D01*
X10008380Y-7469142D01*
X10056000Y-7373904D01*
X10103619Y-7326285D01*
X10198857Y-7278666D01*
X10341714Y-7278666D01*
X10436952Y-7326285D01*
X10484571Y-7373904D01*
X10532190Y-7469142D01*
X10532190Y-7850095D01*
X11008380Y-6326285D02*
X11008380Y-6897714D01*
X11008380Y-6612000D02*
X10008380Y-6612000D01*
X10151238Y-6707238D01*
X10246476Y-6802476D01*
X10294095Y-6897714D01*
X13548380Y-7278666D02*
X13072190Y-7612000D01*
X13548380Y-7850095D02*
X12548380Y-7850095D01*
X12548380Y-7469142D01*
X12596000Y-7373904D01*
X12643619Y-7326285D01*
X12738857Y-7278666D01*
X12881714Y-7278666D01*
X12976952Y-7326285D01*
X13024571Y-7373904D01*
X13072190Y-7469142D01*
X13072190Y-7850095D01*
X12643619Y-6897714D02*
X12596000Y-6850095D01*
X12548380Y-6754857D01*
X12548380Y-6516761D01*
X12596000Y-6421523D01*
X12643619Y-6373904D01*
X12738857Y-6326285D01*
X12834095Y-6326285D01*
X12976952Y-6373904D01*
X13548380Y-6945333D01*
X13548380Y-6326285D01*
X12890666Y-16406761D02*
X13033523Y-16454380D01*
X13271619Y-16454380D01*
X13366857Y-16406761D01*
X13414476Y-16359142D01*
X13462095Y-16263904D01*
X13462095Y-16168666D01*
X13414476Y-16073428D01*
X13366857Y-16025809D01*
X13271619Y-15978190D01*
X13081142Y-15930571D01*
X12985904Y-15882952D01*
X12938285Y-15835333D01*
X12890666Y-15740095D01*
X12890666Y-15644857D01*
X12938285Y-15549619D01*
X12985904Y-15502000D01*
X13081142Y-15454380D01*
X13319238Y-15454380D01*
X13462095Y-15502000D01*
X13795428Y-15454380D02*
X14033523Y-16454380D01*
X14224000Y-15740095D01*
X14414476Y-16454380D01*
X14652571Y-15454380D01*
X15557333Y-16454380D02*
X14985904Y-16454380D01*
X15271619Y-16454380D02*
X15271619Y-15454380D01*
X15176380Y-15597238D01*
X15081142Y-15692476D01*
X14985904Y-15740095D01*
M02*
