G04 #@! TF.GenerationSoftware,KiCad,Pcbnew,5.1.5+dfsg1-2build2*
G04 #@! TF.CreationDate,2020-11-02T22:05:37+01:00*
G04 #@! TF.ProjectId,lighthouse,6c696768-7468-46f7-9573-652e6b696361,rev?*
G04 #@! TF.SameCoordinates,PX31a8670PY2c35238*
G04 #@! TF.FileFunction,Copper,L2,Bot*
G04 #@! TF.FilePolarity,Positive*
%FSLAX46Y46*%
G04 Gerber Fmt 4.6, Leading zero omitted, Abs format (unit mm)*
G04 Created by KiCad (PCBNEW 5.1.5+dfsg1-2build2) date 2020-11-02 22:05:37*
%MOMM*%
%LPD*%
G04 APERTURE LIST*
%ADD10R,1.600000X1.600000*%
%ADD11O,1.600000X1.600000*%
%ADD12C,0.100000*%
%ADD13O,2.200000X1.740000*%
%ADD14O,1.400000X1.400000*%
%ADD15C,1.400000*%
%ADD16C,1.300000*%
%ADD17R,1.300000X1.300000*%
%ADD18C,1.600000*%
%ADD19C,1.000000*%
%ADD20C,0.254000*%
G04 APERTURE END LIST*
D10*
X10795000Y-20320000D03*
D11*
X20955000Y-20320000D03*
G04 #@! TA.AperFunction,ComponentPad*
D12*
G36*
X5319505Y-8656204D02*
G01*
X5343773Y-8659804D01*
X5367572Y-8665765D01*
X5390671Y-8674030D01*
X5412850Y-8684520D01*
X5433893Y-8697132D01*
X5453599Y-8711747D01*
X5471777Y-8728223D01*
X5488253Y-8746401D01*
X5502868Y-8766107D01*
X5515480Y-8787150D01*
X5525970Y-8809329D01*
X5534235Y-8832428D01*
X5540196Y-8856227D01*
X5543796Y-8880495D01*
X5545000Y-8904999D01*
X5545000Y-10145001D01*
X5543796Y-10169505D01*
X5540196Y-10193773D01*
X5534235Y-10217572D01*
X5525970Y-10240671D01*
X5515480Y-10262850D01*
X5502868Y-10283893D01*
X5488253Y-10303599D01*
X5471777Y-10321777D01*
X5453599Y-10338253D01*
X5433893Y-10352868D01*
X5412850Y-10365480D01*
X5390671Y-10375970D01*
X5367572Y-10384235D01*
X5343773Y-10390196D01*
X5319505Y-10393796D01*
X5295001Y-10395000D01*
X3594999Y-10395000D01*
X3570495Y-10393796D01*
X3546227Y-10390196D01*
X3522428Y-10384235D01*
X3499329Y-10375970D01*
X3477150Y-10365480D01*
X3456107Y-10352868D01*
X3436401Y-10338253D01*
X3418223Y-10321777D01*
X3401747Y-10303599D01*
X3387132Y-10283893D01*
X3374520Y-10262850D01*
X3364030Y-10240671D01*
X3355765Y-10217572D01*
X3349804Y-10193773D01*
X3346204Y-10169505D01*
X3345000Y-10145001D01*
X3345000Y-8904999D01*
X3346204Y-8880495D01*
X3349804Y-8856227D01*
X3355765Y-8832428D01*
X3364030Y-8809329D01*
X3374520Y-8787150D01*
X3387132Y-8766107D01*
X3401747Y-8746401D01*
X3418223Y-8728223D01*
X3436401Y-8711747D01*
X3456107Y-8697132D01*
X3477150Y-8684520D01*
X3499329Y-8674030D01*
X3522428Y-8665765D01*
X3546227Y-8659804D01*
X3570495Y-8656204D01*
X3594999Y-8655000D01*
X5295001Y-8655000D01*
X5319505Y-8656204D01*
G37*
G04 #@! TD.AperFunction*
D13*
X4445000Y-12065000D03*
X22225000Y-5715000D03*
G04 #@! TA.AperFunction,ComponentPad*
D12*
G36*
X23099505Y-7386204D02*
G01*
X23123773Y-7389804D01*
X23147572Y-7395765D01*
X23170671Y-7404030D01*
X23192850Y-7414520D01*
X23213893Y-7427132D01*
X23233599Y-7441747D01*
X23251777Y-7458223D01*
X23268253Y-7476401D01*
X23282868Y-7496107D01*
X23295480Y-7517150D01*
X23305970Y-7539329D01*
X23314235Y-7562428D01*
X23320196Y-7586227D01*
X23323796Y-7610495D01*
X23325000Y-7634999D01*
X23325000Y-8875001D01*
X23323796Y-8899505D01*
X23320196Y-8923773D01*
X23314235Y-8947572D01*
X23305970Y-8970671D01*
X23295480Y-8992850D01*
X23282868Y-9013893D01*
X23268253Y-9033599D01*
X23251777Y-9051777D01*
X23233599Y-9068253D01*
X23213893Y-9082868D01*
X23192850Y-9095480D01*
X23170671Y-9105970D01*
X23147572Y-9114235D01*
X23123773Y-9120196D01*
X23099505Y-9123796D01*
X23075001Y-9125000D01*
X21374999Y-9125000D01*
X21350495Y-9123796D01*
X21326227Y-9120196D01*
X21302428Y-9114235D01*
X21279329Y-9105970D01*
X21257150Y-9095480D01*
X21236107Y-9082868D01*
X21216401Y-9068253D01*
X21198223Y-9051777D01*
X21181747Y-9033599D01*
X21167132Y-9013893D01*
X21154520Y-8992850D01*
X21144030Y-8970671D01*
X21135765Y-8947572D01*
X21129804Y-8923773D01*
X21126204Y-8899505D01*
X21125000Y-8875001D01*
X21125000Y-7634999D01*
X21126204Y-7610495D01*
X21129804Y-7586227D01*
X21135765Y-7562428D01*
X21144030Y-7539329D01*
X21154520Y-7517150D01*
X21167132Y-7496107D01*
X21181747Y-7476401D01*
X21198223Y-7458223D01*
X21216401Y-7441747D01*
X21236107Y-7427132D01*
X21257150Y-7414520D01*
X21279329Y-7404030D01*
X21302428Y-7395765D01*
X21326227Y-7389804D01*
X21350495Y-7386204D01*
X21374999Y-7385000D01*
X23075001Y-7385000D01*
X23099505Y-7386204D01*
G37*
G04 #@! TD.AperFunction*
G04 #@! TA.AperFunction,ComponentPad*
G36*
X23099505Y-16276204D02*
G01*
X23123773Y-16279804D01*
X23147572Y-16285765D01*
X23170671Y-16294030D01*
X23192850Y-16304520D01*
X23213893Y-16317132D01*
X23233599Y-16331747D01*
X23251777Y-16348223D01*
X23268253Y-16366401D01*
X23282868Y-16386107D01*
X23295480Y-16407150D01*
X23305970Y-16429329D01*
X23314235Y-16452428D01*
X23320196Y-16476227D01*
X23323796Y-16500495D01*
X23325000Y-16524999D01*
X23325000Y-17765001D01*
X23323796Y-17789505D01*
X23320196Y-17813773D01*
X23314235Y-17837572D01*
X23305970Y-17860671D01*
X23295480Y-17882850D01*
X23282868Y-17903893D01*
X23268253Y-17923599D01*
X23251777Y-17941777D01*
X23233599Y-17958253D01*
X23213893Y-17972868D01*
X23192850Y-17985480D01*
X23170671Y-17995970D01*
X23147572Y-18004235D01*
X23123773Y-18010196D01*
X23099505Y-18013796D01*
X23075001Y-18015000D01*
X21374999Y-18015000D01*
X21350495Y-18013796D01*
X21326227Y-18010196D01*
X21302428Y-18004235D01*
X21279329Y-17995970D01*
X21257150Y-17985480D01*
X21236107Y-17972868D01*
X21216401Y-17958253D01*
X21198223Y-17941777D01*
X21181747Y-17923599D01*
X21167132Y-17903893D01*
X21154520Y-17882850D01*
X21144030Y-17860671D01*
X21135765Y-17837572D01*
X21129804Y-17813773D01*
X21126204Y-17789505D01*
X21125000Y-17765001D01*
X21125000Y-16524999D01*
X21126204Y-16500495D01*
X21129804Y-16476227D01*
X21135765Y-16452428D01*
X21144030Y-16429329D01*
X21154520Y-16407150D01*
X21167132Y-16386107D01*
X21181747Y-16366401D01*
X21198223Y-16348223D01*
X21216401Y-16331747D01*
X21236107Y-16317132D01*
X21257150Y-16304520D01*
X21279329Y-16294030D01*
X21302428Y-16285765D01*
X21326227Y-16279804D01*
X21350495Y-16276204D01*
X21374999Y-16275000D01*
X23075001Y-16275000D01*
X23099505Y-16276204D01*
G37*
G04 #@! TD.AperFunction*
D13*
X22225000Y-14605000D03*
X22225000Y-12065000D03*
D14*
X9525000Y-13970000D03*
D15*
X9525000Y-6350000D03*
X12065000Y-6350000D03*
D14*
X12065000Y-13970000D03*
D16*
X15240000Y-10785000D03*
X16510000Y-9525000D03*
D17*
X16510000Y-12065000D03*
D18*
X1905000Y-17145000D03*
D11*
X17145000Y-17145000D03*
D19*
X4638172Y-12065000D02*
X4445000Y-12065000D01*
X22225000Y-14605000D02*
X21995000Y-14605000D01*
X22031828Y-14605000D02*
X17891827Y-18745001D01*
X22225000Y-14605000D02*
X22031828Y-14605000D01*
X14069999Y-18845001D02*
X17891827Y-18845001D01*
X12595000Y-20320000D02*
X14069999Y-18845001D01*
X10795000Y-20320000D02*
X12595000Y-20320000D01*
X1905000Y-17145000D02*
X1905000Y-13505000D01*
X21261838Y-15374990D02*
X22031828Y-14605000D01*
X21668638Y-14605000D02*
X22225000Y-14605000D01*
X20828639Y-15444999D02*
X21668638Y-14605000D01*
X13539999Y-15444999D02*
X20828639Y-15444999D01*
X12065000Y-13970000D02*
X13539999Y-15444999D01*
X7620000Y-9525000D02*
X4445000Y-9525000D01*
X12065000Y-13970000D02*
X7620000Y-9525000D01*
X1905000Y-10965000D02*
X1905000Y-13505000D01*
X3345000Y-9525000D02*
X1905000Y-10965000D01*
X4445000Y-9525000D02*
X3345000Y-9525000D01*
X20955000Y-18415000D02*
X22225000Y-17145000D01*
X20955000Y-20320000D02*
X20955000Y-18415000D01*
X23325000Y-8255000D02*
X22225000Y-8255000D01*
X24225010Y-16244990D02*
X24225010Y-9155010D01*
X23325000Y-17145000D02*
X24225010Y-16244990D01*
X24225010Y-9155010D02*
X23325000Y-8255000D01*
X22225000Y-17145000D02*
X23325000Y-17145000D01*
X20955000Y-9525000D02*
X22225000Y-8255000D01*
X16510000Y-9525000D02*
X20955000Y-9525000D01*
X22225000Y-5715000D02*
X21668638Y-5715000D01*
X21590000Y-5715000D02*
X22225000Y-5715000D01*
X19685000Y-7620000D02*
X21590000Y-5715000D01*
X16120998Y-7620000D02*
X19685000Y-7620000D01*
X14959999Y-8780999D02*
X16120998Y-7620000D01*
X13506050Y-8780999D02*
X14959999Y-8780999D01*
X12065000Y-7339949D02*
X13506050Y-8780999D01*
X12065000Y-6350000D02*
X12065000Y-7339949D01*
X12700000Y-17145000D02*
X9525000Y-13970000D01*
X17145000Y-17145000D02*
X12700000Y-17145000D01*
X14959999Y-10694999D02*
X15054999Y-10599999D01*
X9525000Y-7339949D02*
X12880050Y-10694999D01*
X12880050Y-10694999D02*
X14959999Y-10694999D01*
X9525000Y-6350000D02*
X9525000Y-7339949D01*
D20*
G36*
X29820000Y-22835000D02*
G01*
X660000Y-22835000D01*
X660000Y-20789042D01*
X1490000Y-20789042D01*
X1490000Y-21120958D01*
X1554754Y-21446496D01*
X1681772Y-21753147D01*
X1866175Y-22029125D01*
X2100875Y-22263825D01*
X2376853Y-22448228D01*
X2683504Y-22575246D01*
X3009042Y-22640000D01*
X3340958Y-22640000D01*
X3666496Y-22575246D01*
X3973147Y-22448228D01*
X4249125Y-22263825D01*
X4483825Y-22029125D01*
X4668228Y-21753147D01*
X4795246Y-21446496D01*
X4860000Y-21120958D01*
X4860000Y-20789042D01*
X4795246Y-20463504D01*
X4668228Y-20156853D01*
X4483825Y-19880875D01*
X4249125Y-19646175D01*
X3973147Y-19461772D01*
X3666496Y-19334754D01*
X3340958Y-19270000D01*
X3009042Y-19270000D01*
X2683504Y-19334754D01*
X2376853Y-19461772D01*
X2100875Y-19646175D01*
X1866175Y-19880875D01*
X1681772Y-20156853D01*
X1554754Y-20463504D01*
X1490000Y-20789042D01*
X660000Y-20789042D01*
X660000Y-17864657D01*
X790363Y-18059759D01*
X990241Y-18259637D01*
X1225273Y-18416680D01*
X1486426Y-18524853D01*
X1763665Y-18580000D01*
X2046335Y-18580000D01*
X2323574Y-18524853D01*
X2584727Y-18416680D01*
X2819759Y-18259637D01*
X3019637Y-18059759D01*
X3176680Y-17824727D01*
X3284853Y-17563574D01*
X3340000Y-17286335D01*
X3340000Y-17003665D01*
X3284853Y-16726426D01*
X3176680Y-16465273D01*
X3040000Y-16260716D01*
X3040000Y-13014274D01*
X3054464Y-13035494D01*
X3266097Y-13243256D01*
X3514196Y-13405738D01*
X3789227Y-13516696D01*
X4080620Y-13571866D01*
X4318000Y-13415586D01*
X4318000Y-12192000D01*
X4572000Y-12192000D01*
X4572000Y-13415586D01*
X4809380Y-13571866D01*
X5100773Y-13516696D01*
X5375804Y-13405738D01*
X5623903Y-13243256D01*
X5835536Y-13035494D01*
X6002571Y-12790437D01*
X6118588Y-12517502D01*
X6136302Y-12425031D01*
X6015246Y-12192000D01*
X4572000Y-12192000D01*
X4318000Y-12192000D01*
X4298000Y-12192000D01*
X4298000Y-11938000D01*
X4318000Y-11938000D01*
X4318000Y-11918000D01*
X4572000Y-11918000D01*
X4572000Y-11938000D01*
X6015246Y-11938000D01*
X6136302Y-11704969D01*
X6118588Y-11612498D01*
X6002571Y-11339563D01*
X5835536Y-11094506D01*
X5679686Y-10941507D01*
X5788387Y-10883405D01*
X5922962Y-10772962D01*
X6015668Y-10660000D01*
X7149869Y-10660000D01*
X9169440Y-12679572D01*
X9135595Y-12686304D01*
X8892641Y-12786939D01*
X8673987Y-12933038D01*
X8488038Y-13118987D01*
X8341939Y-13337641D01*
X8241304Y-13580595D01*
X8190000Y-13838514D01*
X8190000Y-14101486D01*
X8241304Y-14359405D01*
X8341939Y-14602359D01*
X8488038Y-14821013D01*
X8673987Y-15006962D01*
X8892641Y-15153061D01*
X9135595Y-15253696D01*
X9220442Y-15270573D01*
X11858009Y-17908141D01*
X11893551Y-17951449D01*
X12066377Y-18093284D01*
X12252000Y-18192501D01*
X12263553Y-18198676D01*
X12477501Y-18263577D01*
X12699999Y-18285491D01*
X12755751Y-18280000D01*
X13029867Y-18280000D01*
X12132094Y-19177774D01*
X12125537Y-19165506D01*
X12046185Y-19068815D01*
X11949494Y-18989463D01*
X11839180Y-18930498D01*
X11719482Y-18894188D01*
X11595000Y-18881928D01*
X9995000Y-18881928D01*
X9870518Y-18894188D01*
X9750820Y-18930498D01*
X9640506Y-18989463D01*
X9543815Y-19068815D01*
X9464463Y-19165506D01*
X9405498Y-19275820D01*
X9369188Y-19395518D01*
X9356928Y-19520000D01*
X9356928Y-21120000D01*
X9369188Y-21244482D01*
X9405498Y-21364180D01*
X9464463Y-21474494D01*
X9543815Y-21571185D01*
X9640506Y-21650537D01*
X9750820Y-21709502D01*
X9870518Y-21745812D01*
X9995000Y-21758072D01*
X11595000Y-21758072D01*
X11719482Y-21745812D01*
X11839180Y-21709502D01*
X11949494Y-21650537D01*
X12046185Y-21571185D01*
X12125537Y-21474494D01*
X12135957Y-21455000D01*
X12539249Y-21455000D01*
X12595000Y-21460491D01*
X12650751Y-21455000D01*
X12650752Y-21455000D01*
X12817499Y-21438577D01*
X13031447Y-21373676D01*
X13228623Y-21268284D01*
X13401449Y-21126449D01*
X13436995Y-21083136D01*
X14540132Y-19980001D01*
X17947579Y-19980001D01*
X18114326Y-19963578D01*
X18328274Y-19898677D01*
X18525450Y-19793285D01*
X18698276Y-19651450D01*
X18840111Y-19478624D01*
X18928270Y-19313689D01*
X19815625Y-18426334D01*
X19820001Y-18470761D01*
X19820000Y-19435716D01*
X19683320Y-19640273D01*
X19575147Y-19901426D01*
X19520000Y-20178665D01*
X19520000Y-20461335D01*
X19575147Y-20738574D01*
X19683320Y-20999727D01*
X19840363Y-21234759D01*
X20040241Y-21434637D01*
X20275273Y-21591680D01*
X20536426Y-21699853D01*
X20813665Y-21755000D01*
X21096335Y-21755000D01*
X21373574Y-21699853D01*
X21634727Y-21591680D01*
X21869759Y-21434637D01*
X22069637Y-21234759D01*
X22226680Y-20999727D01*
X22313948Y-20789042D01*
X26255000Y-20789042D01*
X26255000Y-21120958D01*
X26319754Y-21446496D01*
X26446772Y-21753147D01*
X26631175Y-22029125D01*
X26865875Y-22263825D01*
X27141853Y-22448228D01*
X27448504Y-22575246D01*
X27774042Y-22640000D01*
X28105958Y-22640000D01*
X28431496Y-22575246D01*
X28738147Y-22448228D01*
X29014125Y-22263825D01*
X29248825Y-22029125D01*
X29433228Y-21753147D01*
X29560246Y-21446496D01*
X29625000Y-21120958D01*
X29625000Y-20789042D01*
X29560246Y-20463504D01*
X29433228Y-20156853D01*
X29248825Y-19880875D01*
X29014125Y-19646175D01*
X28738147Y-19461772D01*
X28431496Y-19334754D01*
X28105958Y-19270000D01*
X27774042Y-19270000D01*
X27448504Y-19334754D01*
X27141853Y-19461772D01*
X26865875Y-19646175D01*
X26631175Y-19880875D01*
X26446772Y-20156853D01*
X26319754Y-20463504D01*
X26255000Y-20789042D01*
X22313948Y-20789042D01*
X22334853Y-20738574D01*
X22390000Y-20461335D01*
X22390000Y-20178665D01*
X22334853Y-19901426D01*
X22226680Y-19640273D01*
X22090000Y-19435716D01*
X22090000Y-18885131D01*
X22322059Y-18653072D01*
X23075001Y-18653072D01*
X23248255Y-18636008D01*
X23414851Y-18585472D01*
X23568387Y-18503405D01*
X23702962Y-18392962D01*
X23813405Y-18258387D01*
X23878869Y-18135913D01*
X23958623Y-18093284D01*
X24131449Y-17951449D01*
X24166995Y-17908136D01*
X24988150Y-17086982D01*
X25031459Y-17051439D01*
X25173294Y-16878613D01*
X25278686Y-16681437D01*
X25343587Y-16467489D01*
X25360010Y-16300742D01*
X25360010Y-16300733D01*
X25365500Y-16244991D01*
X25360010Y-16189249D01*
X25360010Y-9210751D01*
X25365500Y-9155009D01*
X25360010Y-9099267D01*
X25360010Y-9099258D01*
X25343587Y-8932511D01*
X25278686Y-8718563D01*
X25173294Y-8521387D01*
X25031459Y-8348561D01*
X24988150Y-8313018D01*
X24166995Y-7491864D01*
X24131449Y-7448551D01*
X23958623Y-7306716D01*
X23878869Y-7264087D01*
X23813405Y-7141613D01*
X23702962Y-7007038D01*
X23568387Y-6896595D01*
X23458886Y-6838066D01*
X23524345Y-6784345D01*
X23712417Y-6555179D01*
X23852166Y-6293725D01*
X23938224Y-6010032D01*
X23967282Y-5715000D01*
X23938224Y-5419968D01*
X23852166Y-5136275D01*
X23712417Y-4874821D01*
X23524345Y-4645655D01*
X23295179Y-4457583D01*
X23033725Y-4317834D01*
X22750032Y-4231776D01*
X22528936Y-4210000D01*
X21921064Y-4210000D01*
X21699968Y-4231776D01*
X21416275Y-4317834D01*
X21154821Y-4457583D01*
X20925655Y-4645655D01*
X20737583Y-4874821D01*
X20637151Y-5062717D01*
X19214869Y-6485000D01*
X16176750Y-6485000D01*
X16120998Y-6479509D01*
X15898499Y-6501423D01*
X15684551Y-6566324D01*
X15487375Y-6671716D01*
X15357854Y-6778011D01*
X15357852Y-6778013D01*
X15314549Y-6813551D01*
X15279011Y-6856854D01*
X14489867Y-7645999D01*
X13976182Y-7645999D01*
X13266947Y-6936765D01*
X13348696Y-6739405D01*
X13400000Y-6481486D01*
X13400000Y-6218514D01*
X13348696Y-5960595D01*
X13248061Y-5717641D01*
X13101962Y-5498987D01*
X12916013Y-5313038D01*
X12697359Y-5166939D01*
X12454405Y-5066304D01*
X12196486Y-5015000D01*
X11933514Y-5015000D01*
X11675595Y-5066304D01*
X11432641Y-5166939D01*
X11213987Y-5313038D01*
X11028038Y-5498987D01*
X10881939Y-5717641D01*
X10795000Y-5927530D01*
X10708061Y-5717641D01*
X10561962Y-5498987D01*
X10376013Y-5313038D01*
X10157359Y-5166939D01*
X9914405Y-5066304D01*
X9656486Y-5015000D01*
X9393514Y-5015000D01*
X9135595Y-5066304D01*
X8892641Y-5166939D01*
X8673987Y-5313038D01*
X8488038Y-5498987D01*
X8341939Y-5717641D01*
X8241304Y-5960595D01*
X8190000Y-6218514D01*
X8190000Y-6481486D01*
X8241304Y-6739405D01*
X8341939Y-6982359D01*
X8390000Y-7054288D01*
X8390000Y-7284198D01*
X8384509Y-7339949D01*
X8390000Y-7395700D01*
X8390000Y-7395701D01*
X8406423Y-7562448D01*
X8471324Y-7776396D01*
X8576717Y-7973572D01*
X8718552Y-8146398D01*
X8761860Y-8181940D01*
X12038059Y-11458140D01*
X12073601Y-11501448D01*
X12246427Y-11643283D01*
X12443603Y-11748675D01*
X12607755Y-11798470D01*
X12657550Y-11813576D01*
X12678543Y-11815643D01*
X12824298Y-11829999D01*
X12824305Y-11829999D01*
X12880049Y-11835489D01*
X12935793Y-11829999D01*
X14491012Y-11829999D01*
X14631324Y-11923753D01*
X14865179Y-12020619D01*
X15113439Y-12070000D01*
X15225000Y-12070000D01*
X15225000Y-12192002D01*
X15383748Y-12192002D01*
X15225000Y-12350750D01*
X15221928Y-12715000D01*
X15234188Y-12839482D01*
X15270498Y-12959180D01*
X15329463Y-13069494D01*
X15408815Y-13166185D01*
X15505506Y-13245537D01*
X15615820Y-13304502D01*
X15735518Y-13340812D01*
X15860000Y-13353072D01*
X16224250Y-13350000D01*
X16383000Y-13191250D01*
X16383000Y-12192000D01*
X16637000Y-12192000D01*
X16637000Y-13191250D01*
X16795750Y-13350000D01*
X17160000Y-13353072D01*
X17284482Y-13340812D01*
X17404180Y-13304502D01*
X17514494Y-13245537D01*
X17611185Y-13166185D01*
X17690537Y-13069494D01*
X17749502Y-12959180D01*
X17785812Y-12839482D01*
X17798072Y-12715000D01*
X17795000Y-12350750D01*
X17636250Y-12192000D01*
X16637000Y-12192000D01*
X16383000Y-12192000D01*
X16363000Y-12192000D01*
X16363000Y-11938000D01*
X16383000Y-11938000D01*
X16383000Y-11918000D01*
X16637000Y-11918000D01*
X16637000Y-11938000D01*
X17636250Y-11938000D01*
X17795000Y-11779250D01*
X17798072Y-11415000D01*
X17785812Y-11290518D01*
X17749502Y-11170820D01*
X17690537Y-11060506D01*
X17611185Y-10963815D01*
X17514494Y-10884463D01*
X17404180Y-10825498D01*
X17284482Y-10789188D01*
X17160000Y-10776928D01*
X16795750Y-10780000D01*
X16637002Y-10938748D01*
X16637002Y-10809912D01*
X16884821Y-10760619D01*
X17118676Y-10663753D01*
X17124293Y-10660000D01*
X20899249Y-10660000D01*
X20955000Y-10665491D01*
X21010751Y-10660000D01*
X21010752Y-10660000D01*
X21177499Y-10643577D01*
X21391447Y-10578676D01*
X21588623Y-10473284D01*
X21761449Y-10331449D01*
X21796996Y-10288135D01*
X22322059Y-9763072D01*
X23075001Y-9763072D01*
X23090011Y-9761594D01*
X23090011Y-10697919D01*
X23033725Y-10667834D01*
X22750032Y-10581776D01*
X22528936Y-10560000D01*
X21921064Y-10560000D01*
X21699968Y-10581776D01*
X21416275Y-10667834D01*
X21154821Y-10807583D01*
X20925655Y-10995655D01*
X20737583Y-11224821D01*
X20597834Y-11486275D01*
X20511776Y-11769968D01*
X20482718Y-12065000D01*
X20511776Y-12360032D01*
X20597834Y-12643725D01*
X20737583Y-12905179D01*
X20925655Y-13134345D01*
X21154821Y-13322417D01*
X21178362Y-13335000D01*
X21154821Y-13347583D01*
X20925655Y-13535655D01*
X20737583Y-13764821D01*
X20597834Y-14026275D01*
X20578502Y-14090005D01*
X20358508Y-14309999D01*
X14010132Y-14309999D01*
X13365573Y-13665442D01*
X13348696Y-13580595D01*
X13248061Y-13337641D01*
X13101962Y-13118987D01*
X12916013Y-12933038D01*
X12697359Y-12786939D01*
X12454405Y-12686304D01*
X12369559Y-12669427D01*
X8461996Y-8761865D01*
X8426449Y-8718551D01*
X8253623Y-8576716D01*
X8056447Y-8471324D01*
X7842499Y-8406423D01*
X7675752Y-8390000D01*
X7675751Y-8390000D01*
X7620000Y-8384509D01*
X7564249Y-8390000D01*
X6015668Y-8390000D01*
X5922962Y-8277038D01*
X5788387Y-8166595D01*
X5634851Y-8084528D01*
X5468255Y-8033992D01*
X5295001Y-8016928D01*
X3594999Y-8016928D01*
X3421745Y-8033992D01*
X3255149Y-8084528D01*
X3101613Y-8166595D01*
X2967038Y-8277038D01*
X2856595Y-8411613D01*
X2791131Y-8534087D01*
X2711377Y-8576716D01*
X2581856Y-8683011D01*
X2581855Y-8683012D01*
X2538551Y-8718551D01*
X2503013Y-8761854D01*
X1141864Y-10123005D01*
X1098551Y-10158551D01*
X956716Y-10331377D01*
X854226Y-10523125D01*
X851324Y-10528554D01*
X786423Y-10742502D01*
X764509Y-10965000D01*
X770000Y-11020752D01*
X770001Y-13449248D01*
X770000Y-16260716D01*
X660000Y-16425343D01*
X660000Y-2374042D01*
X855000Y-2374042D01*
X855000Y-2705958D01*
X919754Y-3031496D01*
X1046772Y-3338147D01*
X1231175Y-3614125D01*
X1465875Y-3848825D01*
X1741853Y-4033228D01*
X2048504Y-4160246D01*
X2374042Y-4225000D01*
X2705958Y-4225000D01*
X3031496Y-4160246D01*
X3338147Y-4033228D01*
X3614125Y-3848825D01*
X3848825Y-3614125D01*
X4033228Y-3338147D01*
X4160246Y-3031496D01*
X4225000Y-2705958D01*
X4225000Y-2374042D01*
X26255000Y-2374042D01*
X26255000Y-2705958D01*
X26319754Y-3031496D01*
X26446772Y-3338147D01*
X26631175Y-3614125D01*
X26865875Y-3848825D01*
X27141853Y-4033228D01*
X27448504Y-4160246D01*
X27774042Y-4225000D01*
X28105958Y-4225000D01*
X28431496Y-4160246D01*
X28738147Y-4033228D01*
X29014125Y-3848825D01*
X29248825Y-3614125D01*
X29433228Y-3338147D01*
X29560246Y-3031496D01*
X29625000Y-2705958D01*
X29625000Y-2374042D01*
X29560246Y-2048504D01*
X29433228Y-1741853D01*
X29248825Y-1465875D01*
X29014125Y-1231175D01*
X28738147Y-1046772D01*
X28431496Y-919754D01*
X28105958Y-855000D01*
X27774042Y-855000D01*
X27448504Y-919754D01*
X27141853Y-1046772D01*
X26865875Y-1231175D01*
X26631175Y-1465875D01*
X26446772Y-1741853D01*
X26319754Y-2048504D01*
X26255000Y-2374042D01*
X4225000Y-2374042D01*
X4160246Y-2048504D01*
X4033228Y-1741853D01*
X3848825Y-1465875D01*
X3614125Y-1231175D01*
X3338147Y-1046772D01*
X3031496Y-919754D01*
X2705958Y-855000D01*
X2374042Y-855000D01*
X2048504Y-919754D01*
X1741853Y-1046772D01*
X1465875Y-1231175D01*
X1231175Y-1465875D01*
X1046772Y-1741853D01*
X919754Y-2048504D01*
X855000Y-2374042D01*
X660000Y-2374042D01*
X660000Y-660000D01*
X29820001Y-660000D01*
X29820000Y-22835000D01*
G37*
X29820000Y-22835000D02*
X660000Y-22835000D01*
X660000Y-20789042D01*
X1490000Y-20789042D01*
X1490000Y-21120958D01*
X1554754Y-21446496D01*
X1681772Y-21753147D01*
X1866175Y-22029125D01*
X2100875Y-22263825D01*
X2376853Y-22448228D01*
X2683504Y-22575246D01*
X3009042Y-22640000D01*
X3340958Y-22640000D01*
X3666496Y-22575246D01*
X3973147Y-22448228D01*
X4249125Y-22263825D01*
X4483825Y-22029125D01*
X4668228Y-21753147D01*
X4795246Y-21446496D01*
X4860000Y-21120958D01*
X4860000Y-20789042D01*
X4795246Y-20463504D01*
X4668228Y-20156853D01*
X4483825Y-19880875D01*
X4249125Y-19646175D01*
X3973147Y-19461772D01*
X3666496Y-19334754D01*
X3340958Y-19270000D01*
X3009042Y-19270000D01*
X2683504Y-19334754D01*
X2376853Y-19461772D01*
X2100875Y-19646175D01*
X1866175Y-19880875D01*
X1681772Y-20156853D01*
X1554754Y-20463504D01*
X1490000Y-20789042D01*
X660000Y-20789042D01*
X660000Y-17864657D01*
X790363Y-18059759D01*
X990241Y-18259637D01*
X1225273Y-18416680D01*
X1486426Y-18524853D01*
X1763665Y-18580000D01*
X2046335Y-18580000D01*
X2323574Y-18524853D01*
X2584727Y-18416680D01*
X2819759Y-18259637D01*
X3019637Y-18059759D01*
X3176680Y-17824727D01*
X3284853Y-17563574D01*
X3340000Y-17286335D01*
X3340000Y-17003665D01*
X3284853Y-16726426D01*
X3176680Y-16465273D01*
X3040000Y-16260716D01*
X3040000Y-13014274D01*
X3054464Y-13035494D01*
X3266097Y-13243256D01*
X3514196Y-13405738D01*
X3789227Y-13516696D01*
X4080620Y-13571866D01*
X4318000Y-13415586D01*
X4318000Y-12192000D01*
X4572000Y-12192000D01*
X4572000Y-13415586D01*
X4809380Y-13571866D01*
X5100773Y-13516696D01*
X5375804Y-13405738D01*
X5623903Y-13243256D01*
X5835536Y-13035494D01*
X6002571Y-12790437D01*
X6118588Y-12517502D01*
X6136302Y-12425031D01*
X6015246Y-12192000D01*
X4572000Y-12192000D01*
X4318000Y-12192000D01*
X4298000Y-12192000D01*
X4298000Y-11938000D01*
X4318000Y-11938000D01*
X4318000Y-11918000D01*
X4572000Y-11918000D01*
X4572000Y-11938000D01*
X6015246Y-11938000D01*
X6136302Y-11704969D01*
X6118588Y-11612498D01*
X6002571Y-11339563D01*
X5835536Y-11094506D01*
X5679686Y-10941507D01*
X5788387Y-10883405D01*
X5922962Y-10772962D01*
X6015668Y-10660000D01*
X7149869Y-10660000D01*
X9169440Y-12679572D01*
X9135595Y-12686304D01*
X8892641Y-12786939D01*
X8673987Y-12933038D01*
X8488038Y-13118987D01*
X8341939Y-13337641D01*
X8241304Y-13580595D01*
X8190000Y-13838514D01*
X8190000Y-14101486D01*
X8241304Y-14359405D01*
X8341939Y-14602359D01*
X8488038Y-14821013D01*
X8673987Y-15006962D01*
X8892641Y-15153061D01*
X9135595Y-15253696D01*
X9220442Y-15270573D01*
X11858009Y-17908141D01*
X11893551Y-17951449D01*
X12066377Y-18093284D01*
X12252000Y-18192501D01*
X12263553Y-18198676D01*
X12477501Y-18263577D01*
X12699999Y-18285491D01*
X12755751Y-18280000D01*
X13029867Y-18280000D01*
X12132094Y-19177774D01*
X12125537Y-19165506D01*
X12046185Y-19068815D01*
X11949494Y-18989463D01*
X11839180Y-18930498D01*
X11719482Y-18894188D01*
X11595000Y-18881928D01*
X9995000Y-18881928D01*
X9870518Y-18894188D01*
X9750820Y-18930498D01*
X9640506Y-18989463D01*
X9543815Y-19068815D01*
X9464463Y-19165506D01*
X9405498Y-19275820D01*
X9369188Y-19395518D01*
X9356928Y-19520000D01*
X9356928Y-21120000D01*
X9369188Y-21244482D01*
X9405498Y-21364180D01*
X9464463Y-21474494D01*
X9543815Y-21571185D01*
X9640506Y-21650537D01*
X9750820Y-21709502D01*
X9870518Y-21745812D01*
X9995000Y-21758072D01*
X11595000Y-21758072D01*
X11719482Y-21745812D01*
X11839180Y-21709502D01*
X11949494Y-21650537D01*
X12046185Y-21571185D01*
X12125537Y-21474494D01*
X12135957Y-21455000D01*
X12539249Y-21455000D01*
X12595000Y-21460491D01*
X12650751Y-21455000D01*
X12650752Y-21455000D01*
X12817499Y-21438577D01*
X13031447Y-21373676D01*
X13228623Y-21268284D01*
X13401449Y-21126449D01*
X13436995Y-21083136D01*
X14540132Y-19980001D01*
X17947579Y-19980001D01*
X18114326Y-19963578D01*
X18328274Y-19898677D01*
X18525450Y-19793285D01*
X18698276Y-19651450D01*
X18840111Y-19478624D01*
X18928270Y-19313689D01*
X19815625Y-18426334D01*
X19820001Y-18470761D01*
X19820000Y-19435716D01*
X19683320Y-19640273D01*
X19575147Y-19901426D01*
X19520000Y-20178665D01*
X19520000Y-20461335D01*
X19575147Y-20738574D01*
X19683320Y-20999727D01*
X19840363Y-21234759D01*
X20040241Y-21434637D01*
X20275273Y-21591680D01*
X20536426Y-21699853D01*
X20813665Y-21755000D01*
X21096335Y-21755000D01*
X21373574Y-21699853D01*
X21634727Y-21591680D01*
X21869759Y-21434637D01*
X22069637Y-21234759D01*
X22226680Y-20999727D01*
X22313948Y-20789042D01*
X26255000Y-20789042D01*
X26255000Y-21120958D01*
X26319754Y-21446496D01*
X26446772Y-21753147D01*
X26631175Y-22029125D01*
X26865875Y-22263825D01*
X27141853Y-22448228D01*
X27448504Y-22575246D01*
X27774042Y-22640000D01*
X28105958Y-22640000D01*
X28431496Y-22575246D01*
X28738147Y-22448228D01*
X29014125Y-22263825D01*
X29248825Y-22029125D01*
X29433228Y-21753147D01*
X29560246Y-21446496D01*
X29625000Y-21120958D01*
X29625000Y-20789042D01*
X29560246Y-20463504D01*
X29433228Y-20156853D01*
X29248825Y-19880875D01*
X29014125Y-19646175D01*
X28738147Y-19461772D01*
X28431496Y-19334754D01*
X28105958Y-19270000D01*
X27774042Y-19270000D01*
X27448504Y-19334754D01*
X27141853Y-19461772D01*
X26865875Y-19646175D01*
X26631175Y-19880875D01*
X26446772Y-20156853D01*
X26319754Y-20463504D01*
X26255000Y-20789042D01*
X22313948Y-20789042D01*
X22334853Y-20738574D01*
X22390000Y-20461335D01*
X22390000Y-20178665D01*
X22334853Y-19901426D01*
X22226680Y-19640273D01*
X22090000Y-19435716D01*
X22090000Y-18885131D01*
X22322059Y-18653072D01*
X23075001Y-18653072D01*
X23248255Y-18636008D01*
X23414851Y-18585472D01*
X23568387Y-18503405D01*
X23702962Y-18392962D01*
X23813405Y-18258387D01*
X23878869Y-18135913D01*
X23958623Y-18093284D01*
X24131449Y-17951449D01*
X24166995Y-17908136D01*
X24988150Y-17086982D01*
X25031459Y-17051439D01*
X25173294Y-16878613D01*
X25278686Y-16681437D01*
X25343587Y-16467489D01*
X25360010Y-16300742D01*
X25360010Y-16300733D01*
X25365500Y-16244991D01*
X25360010Y-16189249D01*
X25360010Y-9210751D01*
X25365500Y-9155009D01*
X25360010Y-9099267D01*
X25360010Y-9099258D01*
X25343587Y-8932511D01*
X25278686Y-8718563D01*
X25173294Y-8521387D01*
X25031459Y-8348561D01*
X24988150Y-8313018D01*
X24166995Y-7491864D01*
X24131449Y-7448551D01*
X23958623Y-7306716D01*
X23878869Y-7264087D01*
X23813405Y-7141613D01*
X23702962Y-7007038D01*
X23568387Y-6896595D01*
X23458886Y-6838066D01*
X23524345Y-6784345D01*
X23712417Y-6555179D01*
X23852166Y-6293725D01*
X23938224Y-6010032D01*
X23967282Y-5715000D01*
X23938224Y-5419968D01*
X23852166Y-5136275D01*
X23712417Y-4874821D01*
X23524345Y-4645655D01*
X23295179Y-4457583D01*
X23033725Y-4317834D01*
X22750032Y-4231776D01*
X22528936Y-4210000D01*
X21921064Y-4210000D01*
X21699968Y-4231776D01*
X21416275Y-4317834D01*
X21154821Y-4457583D01*
X20925655Y-4645655D01*
X20737583Y-4874821D01*
X20637151Y-5062717D01*
X19214869Y-6485000D01*
X16176750Y-6485000D01*
X16120998Y-6479509D01*
X15898499Y-6501423D01*
X15684551Y-6566324D01*
X15487375Y-6671716D01*
X15357854Y-6778011D01*
X15357852Y-6778013D01*
X15314549Y-6813551D01*
X15279011Y-6856854D01*
X14489867Y-7645999D01*
X13976182Y-7645999D01*
X13266947Y-6936765D01*
X13348696Y-6739405D01*
X13400000Y-6481486D01*
X13400000Y-6218514D01*
X13348696Y-5960595D01*
X13248061Y-5717641D01*
X13101962Y-5498987D01*
X12916013Y-5313038D01*
X12697359Y-5166939D01*
X12454405Y-5066304D01*
X12196486Y-5015000D01*
X11933514Y-5015000D01*
X11675595Y-5066304D01*
X11432641Y-5166939D01*
X11213987Y-5313038D01*
X11028038Y-5498987D01*
X10881939Y-5717641D01*
X10795000Y-5927530D01*
X10708061Y-5717641D01*
X10561962Y-5498987D01*
X10376013Y-5313038D01*
X10157359Y-5166939D01*
X9914405Y-5066304D01*
X9656486Y-5015000D01*
X9393514Y-5015000D01*
X9135595Y-5066304D01*
X8892641Y-5166939D01*
X8673987Y-5313038D01*
X8488038Y-5498987D01*
X8341939Y-5717641D01*
X8241304Y-5960595D01*
X8190000Y-6218514D01*
X8190000Y-6481486D01*
X8241304Y-6739405D01*
X8341939Y-6982359D01*
X8390000Y-7054288D01*
X8390000Y-7284198D01*
X8384509Y-7339949D01*
X8390000Y-7395700D01*
X8390000Y-7395701D01*
X8406423Y-7562448D01*
X8471324Y-7776396D01*
X8576717Y-7973572D01*
X8718552Y-8146398D01*
X8761860Y-8181940D01*
X12038059Y-11458140D01*
X12073601Y-11501448D01*
X12246427Y-11643283D01*
X12443603Y-11748675D01*
X12607755Y-11798470D01*
X12657550Y-11813576D01*
X12678543Y-11815643D01*
X12824298Y-11829999D01*
X12824305Y-11829999D01*
X12880049Y-11835489D01*
X12935793Y-11829999D01*
X14491012Y-11829999D01*
X14631324Y-11923753D01*
X14865179Y-12020619D01*
X15113439Y-12070000D01*
X15225000Y-12070000D01*
X15225000Y-12192002D01*
X15383748Y-12192002D01*
X15225000Y-12350750D01*
X15221928Y-12715000D01*
X15234188Y-12839482D01*
X15270498Y-12959180D01*
X15329463Y-13069494D01*
X15408815Y-13166185D01*
X15505506Y-13245537D01*
X15615820Y-13304502D01*
X15735518Y-13340812D01*
X15860000Y-13353072D01*
X16224250Y-13350000D01*
X16383000Y-13191250D01*
X16383000Y-12192000D01*
X16637000Y-12192000D01*
X16637000Y-13191250D01*
X16795750Y-13350000D01*
X17160000Y-13353072D01*
X17284482Y-13340812D01*
X17404180Y-13304502D01*
X17514494Y-13245537D01*
X17611185Y-13166185D01*
X17690537Y-13069494D01*
X17749502Y-12959180D01*
X17785812Y-12839482D01*
X17798072Y-12715000D01*
X17795000Y-12350750D01*
X17636250Y-12192000D01*
X16637000Y-12192000D01*
X16383000Y-12192000D01*
X16363000Y-12192000D01*
X16363000Y-11938000D01*
X16383000Y-11938000D01*
X16383000Y-11918000D01*
X16637000Y-11918000D01*
X16637000Y-11938000D01*
X17636250Y-11938000D01*
X17795000Y-11779250D01*
X17798072Y-11415000D01*
X17785812Y-11290518D01*
X17749502Y-11170820D01*
X17690537Y-11060506D01*
X17611185Y-10963815D01*
X17514494Y-10884463D01*
X17404180Y-10825498D01*
X17284482Y-10789188D01*
X17160000Y-10776928D01*
X16795750Y-10780000D01*
X16637002Y-10938748D01*
X16637002Y-10809912D01*
X16884821Y-10760619D01*
X17118676Y-10663753D01*
X17124293Y-10660000D01*
X20899249Y-10660000D01*
X20955000Y-10665491D01*
X21010751Y-10660000D01*
X21010752Y-10660000D01*
X21177499Y-10643577D01*
X21391447Y-10578676D01*
X21588623Y-10473284D01*
X21761449Y-10331449D01*
X21796996Y-10288135D01*
X22322059Y-9763072D01*
X23075001Y-9763072D01*
X23090011Y-9761594D01*
X23090011Y-10697919D01*
X23033725Y-10667834D01*
X22750032Y-10581776D01*
X22528936Y-10560000D01*
X21921064Y-10560000D01*
X21699968Y-10581776D01*
X21416275Y-10667834D01*
X21154821Y-10807583D01*
X20925655Y-10995655D01*
X20737583Y-11224821D01*
X20597834Y-11486275D01*
X20511776Y-11769968D01*
X20482718Y-12065000D01*
X20511776Y-12360032D01*
X20597834Y-12643725D01*
X20737583Y-12905179D01*
X20925655Y-13134345D01*
X21154821Y-13322417D01*
X21178362Y-13335000D01*
X21154821Y-13347583D01*
X20925655Y-13535655D01*
X20737583Y-13764821D01*
X20597834Y-14026275D01*
X20578502Y-14090005D01*
X20358508Y-14309999D01*
X14010132Y-14309999D01*
X13365573Y-13665442D01*
X13348696Y-13580595D01*
X13248061Y-13337641D01*
X13101962Y-13118987D01*
X12916013Y-12933038D01*
X12697359Y-12786939D01*
X12454405Y-12686304D01*
X12369559Y-12669427D01*
X8461996Y-8761865D01*
X8426449Y-8718551D01*
X8253623Y-8576716D01*
X8056447Y-8471324D01*
X7842499Y-8406423D01*
X7675752Y-8390000D01*
X7675751Y-8390000D01*
X7620000Y-8384509D01*
X7564249Y-8390000D01*
X6015668Y-8390000D01*
X5922962Y-8277038D01*
X5788387Y-8166595D01*
X5634851Y-8084528D01*
X5468255Y-8033992D01*
X5295001Y-8016928D01*
X3594999Y-8016928D01*
X3421745Y-8033992D01*
X3255149Y-8084528D01*
X3101613Y-8166595D01*
X2967038Y-8277038D01*
X2856595Y-8411613D01*
X2791131Y-8534087D01*
X2711377Y-8576716D01*
X2581856Y-8683011D01*
X2581855Y-8683012D01*
X2538551Y-8718551D01*
X2503013Y-8761854D01*
X1141864Y-10123005D01*
X1098551Y-10158551D01*
X956716Y-10331377D01*
X854226Y-10523125D01*
X851324Y-10528554D01*
X786423Y-10742502D01*
X764509Y-10965000D01*
X770000Y-11020752D01*
X770001Y-13449248D01*
X770000Y-16260716D01*
X660000Y-16425343D01*
X660000Y-2374042D01*
X855000Y-2374042D01*
X855000Y-2705958D01*
X919754Y-3031496D01*
X1046772Y-3338147D01*
X1231175Y-3614125D01*
X1465875Y-3848825D01*
X1741853Y-4033228D01*
X2048504Y-4160246D01*
X2374042Y-4225000D01*
X2705958Y-4225000D01*
X3031496Y-4160246D01*
X3338147Y-4033228D01*
X3614125Y-3848825D01*
X3848825Y-3614125D01*
X4033228Y-3338147D01*
X4160246Y-3031496D01*
X4225000Y-2705958D01*
X4225000Y-2374042D01*
X26255000Y-2374042D01*
X26255000Y-2705958D01*
X26319754Y-3031496D01*
X26446772Y-3338147D01*
X26631175Y-3614125D01*
X26865875Y-3848825D01*
X27141853Y-4033228D01*
X27448504Y-4160246D01*
X27774042Y-4225000D01*
X28105958Y-4225000D01*
X28431496Y-4160246D01*
X28738147Y-4033228D01*
X29014125Y-3848825D01*
X29248825Y-3614125D01*
X29433228Y-3338147D01*
X29560246Y-3031496D01*
X29625000Y-2705958D01*
X29625000Y-2374042D01*
X29560246Y-2048504D01*
X29433228Y-1741853D01*
X29248825Y-1465875D01*
X29014125Y-1231175D01*
X28738147Y-1046772D01*
X28431496Y-919754D01*
X28105958Y-855000D01*
X27774042Y-855000D01*
X27448504Y-919754D01*
X27141853Y-1046772D01*
X26865875Y-1231175D01*
X26631175Y-1465875D01*
X26446772Y-1741853D01*
X26319754Y-2048504D01*
X26255000Y-2374042D01*
X4225000Y-2374042D01*
X4160246Y-2048504D01*
X4033228Y-1741853D01*
X3848825Y-1465875D01*
X3614125Y-1231175D01*
X3338147Y-1046772D01*
X3031496Y-919754D01*
X2705958Y-855000D01*
X2374042Y-855000D01*
X2048504Y-919754D01*
X1741853Y-1046772D01*
X1465875Y-1231175D01*
X1231175Y-1465875D01*
X1046772Y-1741853D01*
X919754Y-2048504D01*
X855000Y-2374042D01*
X660000Y-2374042D01*
X660000Y-660000D01*
X29820001Y-660000D01*
X29820000Y-22835000D01*
M02*
