G04 #@! TF.GenerationSoftware,KiCad,Pcbnew,5.1.5+dfsg1-2build2*
G04 #@! TF.CreationDate,2020-11-02T22:05:37+01:00*
G04 #@! TF.ProjectId,lighthouse,6c696768-7468-46f7-9573-652e6b696361,rev?*
G04 #@! TF.SameCoordinates,PX31a8670PY2c35238*
G04 #@! TF.FileFunction,Legend,Top*
G04 #@! TF.FilePolarity,Positive*
%FSLAX46Y46*%
G04 Gerber Fmt 4.6, Leading zero omitted, Abs format (unit mm)*
G04 Created by KiCad (PCBNEW 5.1.5+dfsg1-2build2) date 2020-11-02 22:05:37*
%MOMM*%
%LPD*%
G04 APERTURE LIST*
%ADD10C,0.120000*%
%ADD11C,0.150000*%
G04 APERTURE END LIST*
D10*
X13755000Y-19200000D02*
X13755000Y-21440000D01*
X13755000Y-21440000D02*
X17995000Y-21440000D01*
X17995000Y-21440000D02*
X17995000Y-19200000D01*
X17995000Y-19200000D02*
X13755000Y-19200000D01*
X11835000Y-20320000D02*
X13755000Y-20320000D01*
X19915000Y-20320000D02*
X17995000Y-20320000D01*
X14475000Y-19200000D02*
X14475000Y-21440000D01*
X14595000Y-19200000D02*
X14595000Y-21440000D01*
X14355000Y-19200000D02*
X14355000Y-21440000D01*
X7475000Y-8145000D02*
X1455000Y-8145000D01*
X1455000Y-8145000D02*
X1455000Y-13445000D01*
X1455000Y-13445000D02*
X7475000Y-13445000D01*
X7475000Y-13445000D02*
X7475000Y-8145000D01*
X6445000Y-7855000D02*
X2445000Y-7855000D01*
X1455000Y-9525000D02*
X2455000Y-9525000D01*
X2455000Y-9525000D02*
X2455000Y-12065000D01*
X2455000Y-12065000D02*
X1455000Y-12065000D01*
X2455000Y-9525000D02*
X2985000Y-9775000D01*
X2985000Y-9775000D02*
X2985000Y-11815000D01*
X2985000Y-11815000D02*
X2455000Y-12065000D01*
X1455000Y-9775000D02*
X2455000Y-9775000D01*
X1455000Y-11815000D02*
X2455000Y-11815000D01*
X7475000Y-8725000D02*
X6875000Y-8725000D01*
X6875000Y-8725000D02*
X6875000Y-10325000D01*
X6875000Y-10325000D02*
X7475000Y-10325000D01*
X7475000Y-11265000D02*
X6875000Y-11265000D01*
X6875000Y-11265000D02*
X6875000Y-12865000D01*
X6875000Y-12865000D02*
X7475000Y-12865000D01*
X19795000Y-4915000D02*
X19195000Y-4915000D01*
X19795000Y-6515000D02*
X19795000Y-4915000D01*
X19195000Y-6515000D02*
X19795000Y-6515000D01*
X19795000Y-7455000D02*
X19195000Y-7455000D01*
X19795000Y-9055000D02*
X19795000Y-7455000D01*
X19195000Y-9055000D02*
X19795000Y-9055000D01*
X25215000Y-5965000D02*
X24215000Y-5965000D01*
X25215000Y-8005000D02*
X24215000Y-8005000D01*
X23685000Y-5965000D02*
X24215000Y-5715000D01*
X23685000Y-8005000D02*
X23685000Y-5965000D01*
X24215000Y-8255000D02*
X23685000Y-8005000D01*
X24215000Y-5715000D02*
X25215000Y-5715000D01*
X24215000Y-8255000D02*
X24215000Y-5715000D01*
X25215000Y-8255000D02*
X24215000Y-8255000D01*
X20225000Y-9925000D02*
X24225000Y-9925000D01*
X19195000Y-4335000D02*
X19195000Y-9635000D01*
X25215000Y-4335000D02*
X19195000Y-4335000D01*
X25215000Y-9635000D02*
X25215000Y-4335000D01*
X19195000Y-9635000D02*
X25215000Y-9635000D01*
X19195000Y-18525000D02*
X25215000Y-18525000D01*
X25215000Y-18525000D02*
X25215000Y-10685000D01*
X25215000Y-10685000D02*
X19195000Y-10685000D01*
X19195000Y-10685000D02*
X19195000Y-18525000D01*
X20225000Y-18815000D02*
X24225000Y-18815000D01*
X25215000Y-17145000D02*
X24215000Y-17145000D01*
X24215000Y-17145000D02*
X24215000Y-12065000D01*
X24215000Y-12065000D02*
X25215000Y-12065000D01*
X24215000Y-17145000D02*
X23685000Y-16895000D01*
X23685000Y-16895000D02*
X23685000Y-12315000D01*
X23685000Y-12315000D02*
X24215000Y-12065000D01*
X25215000Y-16895000D02*
X24215000Y-16895000D01*
X25215000Y-12315000D02*
X24215000Y-12315000D01*
X19195000Y-17945000D02*
X19795000Y-17945000D01*
X19795000Y-17945000D02*
X19795000Y-16345000D01*
X19795000Y-16345000D02*
X19195000Y-16345000D01*
X19195000Y-15405000D02*
X19795000Y-15405000D01*
X19795000Y-15405000D02*
X19795000Y-13805000D01*
X19795000Y-13805000D02*
X19195000Y-13805000D01*
X19195000Y-12865000D02*
X19795000Y-12865000D01*
X19795000Y-12865000D02*
X19795000Y-11265000D01*
X19795000Y-11265000D02*
X19195000Y-11265000D01*
X9525000Y-13030000D02*
X9525000Y-12080000D01*
X9525000Y-7290000D02*
X9525000Y-8240000D01*
X10445000Y-12080000D02*
X10445000Y-8240000D01*
X8605000Y-12080000D02*
X10445000Y-12080000D01*
X8605000Y-8240000D02*
X8605000Y-12080000D01*
X10445000Y-8240000D02*
X8605000Y-8240000D01*
X12985000Y-8240000D02*
X11145000Y-8240000D01*
X11145000Y-8240000D02*
X11145000Y-12080000D01*
X11145000Y-12080000D02*
X12985000Y-12080000D01*
X12985000Y-12080000D02*
X12985000Y-8240000D01*
X12065000Y-7290000D02*
X12065000Y-8240000D01*
X12065000Y-13030000D02*
X12065000Y-12080000D01*
X18210000Y-12715000D02*
X18210000Y-8865000D01*
X18200122Y-8826389D02*
G75*
G03X18210000Y-12715000I-1690122J-1948611D01*
G01*
X6255000Y-15775000D02*
X6255000Y-18515000D01*
X6255000Y-18515000D02*
X12795000Y-18515000D01*
X12795000Y-18515000D02*
X12795000Y-15775000D01*
X12795000Y-15775000D02*
X6255000Y-15775000D01*
X2945000Y-17145000D02*
X6255000Y-17145000D01*
X16105000Y-17145000D02*
X12795000Y-17145000D01*
D11*
X26606666Y-18207380D02*
X26273333Y-17731190D01*
X26035238Y-18207380D02*
X26035238Y-17207380D01*
X26416190Y-17207380D01*
X26511428Y-17255000D01*
X26559047Y-17302619D01*
X26606666Y-17397857D01*
X26606666Y-17540714D01*
X26559047Y-17635952D01*
X26511428Y-17683571D01*
X26416190Y-17731190D01*
X26035238Y-17731190D01*
X27035238Y-17683571D02*
X27368571Y-17683571D01*
X27511428Y-18207380D02*
X27035238Y-18207380D01*
X27035238Y-17207380D01*
X27511428Y-17207380D01*
X28273333Y-17683571D02*
X27940000Y-17683571D01*
X27940000Y-18207380D02*
X27940000Y-17207380D01*
X28416190Y-17207380D01*
X28940000Y-17207380D02*
X28940000Y-17445476D01*
X28701904Y-17350238D02*
X28940000Y-17445476D01*
X29178095Y-17350238D01*
X28797142Y-17635952D02*
X28940000Y-17445476D01*
X29082857Y-17635952D01*
X29701904Y-17207380D02*
X29701904Y-17445476D01*
X29463809Y-17350238D02*
X29701904Y-17445476D01*
X29940000Y-17350238D01*
X29559047Y-17635952D02*
X29701904Y-17445476D01*
X29844761Y-17635952D01*
X1841666Y-18207380D02*
X1508333Y-17731190D01*
X1270238Y-18207380D02*
X1270238Y-17207380D01*
X1651190Y-17207380D01*
X1746428Y-17255000D01*
X1794047Y-17302619D01*
X1841666Y-17397857D01*
X1841666Y-17540714D01*
X1794047Y-17635952D01*
X1746428Y-17683571D01*
X1651190Y-17731190D01*
X1270238Y-17731190D01*
X2270238Y-17683571D02*
X2603571Y-17683571D01*
X2746428Y-18207380D02*
X2270238Y-18207380D01*
X2270238Y-17207380D01*
X2746428Y-17207380D01*
X3508333Y-17683571D02*
X3175000Y-17683571D01*
X3175000Y-18207380D02*
X3175000Y-17207380D01*
X3651190Y-17207380D01*
X4175000Y-17207380D02*
X4175000Y-17445476D01*
X3936904Y-17350238D02*
X4175000Y-17445476D01*
X4413095Y-17350238D01*
X4032142Y-17635952D02*
X4175000Y-17445476D01*
X4317857Y-17635952D01*
X4936904Y-17207380D02*
X4936904Y-17445476D01*
X4698809Y-17350238D02*
X4936904Y-17445476D01*
X5175000Y-17350238D01*
X4794047Y-17635952D02*
X4936904Y-17445476D01*
X5079761Y-17635952D01*
X1206666Y207620D02*
X873333Y683810D01*
X635238Y207620D02*
X635238Y1207620D01*
X1016190Y1207620D01*
X1111428Y1160000D01*
X1159047Y1112381D01*
X1206666Y1017143D01*
X1206666Y874286D01*
X1159047Y779048D01*
X1111428Y731429D01*
X1016190Y683810D01*
X635238Y683810D01*
X1635238Y731429D02*
X1968571Y731429D01*
X2111428Y207620D02*
X1635238Y207620D01*
X1635238Y1207620D01*
X2111428Y1207620D01*
X2873333Y731429D02*
X2540000Y731429D01*
X2540000Y207620D02*
X2540000Y1207620D01*
X3016190Y1207620D01*
X3540000Y1207620D02*
X3540000Y969524D01*
X3301904Y1064762D02*
X3540000Y969524D01*
X3778095Y1064762D01*
X3397142Y779048D02*
X3540000Y969524D01*
X3682857Y779048D01*
X4301904Y1207620D02*
X4301904Y969524D01*
X4063809Y1064762D02*
X4301904Y969524D01*
X4540000Y1064762D01*
X4159047Y779048D02*
X4301904Y969524D01*
X4444761Y779048D01*
X26606666Y207620D02*
X26273333Y683810D01*
X26035238Y207620D02*
X26035238Y1207620D01*
X26416190Y1207620D01*
X26511428Y1160000D01*
X26559047Y1112381D01*
X26606666Y1017143D01*
X26606666Y874286D01*
X26559047Y779048D01*
X26511428Y731429D01*
X26416190Y683810D01*
X26035238Y683810D01*
X27035238Y731429D02*
X27368571Y731429D01*
X27511428Y207620D02*
X27035238Y207620D01*
X27035238Y1207620D01*
X27511428Y1207620D01*
X28273333Y731429D02*
X27940000Y731429D01*
X27940000Y207620D02*
X27940000Y1207620D01*
X28416190Y1207620D01*
X28940000Y1207620D02*
X28940000Y969524D01*
X28701904Y1064762D02*
X28940000Y969524D01*
X29178095Y1064762D01*
X28797142Y779048D02*
X28940000Y969524D01*
X29082857Y779048D01*
X29701904Y1207620D02*
X29701904Y969524D01*
X29463809Y1064762D02*
X29701904Y969524D01*
X29940000Y1064762D01*
X29559047Y779048D02*
X29701904Y969524D01*
X29844761Y779048D01*
X15136904Y-18652380D02*
X15136904Y-17652380D01*
X15375000Y-17652380D01*
X15517857Y-17700000D01*
X15613095Y-17795238D01*
X15660714Y-17890476D01*
X15708333Y-18080952D01*
X15708333Y-18223809D01*
X15660714Y-18414285D01*
X15613095Y-18509523D01*
X15517857Y-18604761D01*
X15375000Y-18652380D01*
X15136904Y-18652380D01*
X16660714Y-18652380D02*
X16089285Y-18652380D01*
X16375000Y-18652380D02*
X16375000Y-17652380D01*
X16279761Y-17795238D01*
X16184523Y-17890476D01*
X16089285Y-17938095D01*
X10533095Y-18972380D02*
X10533095Y-17972380D01*
X11104523Y-18972380D02*
X10675952Y-18400952D01*
X11104523Y-17972380D02*
X10533095Y-18543809D01*
X8017380Y-11128333D02*
X8731666Y-11128333D01*
X8874523Y-11175952D01*
X8969761Y-11271190D01*
X9017380Y-11414047D01*
X9017380Y-11509285D01*
X9017380Y-10128333D02*
X9017380Y-10699761D01*
X9017380Y-10414047D02*
X8017380Y-10414047D01*
X8160238Y-10509285D01*
X8255476Y-10604523D01*
X8303095Y-10699761D01*
X17557380Y-7318333D02*
X18271666Y-7318333D01*
X18414523Y-7365952D01*
X18509761Y-7461190D01*
X18557380Y-7604047D01*
X18557380Y-7699285D01*
X17652619Y-6889761D02*
X17605000Y-6842142D01*
X17557380Y-6746904D01*
X17557380Y-6508809D01*
X17605000Y-6413571D01*
X17652619Y-6365952D01*
X17747857Y-6318333D01*
X17843095Y-6318333D01*
X17985952Y-6365952D01*
X18557380Y-6937380D01*
X18557380Y-6318333D01*
X17557380Y-14938333D02*
X18271666Y-14938333D01*
X18414523Y-14985952D01*
X18509761Y-15081190D01*
X18557380Y-15224047D01*
X18557380Y-15319285D01*
X17557380Y-14557380D02*
X17557380Y-13938333D01*
X17938333Y-14271666D01*
X17938333Y-14128809D01*
X17985952Y-14033571D01*
X18033571Y-13985952D01*
X18128809Y-13938333D01*
X18366904Y-13938333D01*
X18462142Y-13985952D01*
X18509761Y-14033571D01*
X18557380Y-14128809D01*
X18557380Y-14414523D01*
X18509761Y-14509761D01*
X18462142Y-14557380D01*
X11897380Y-10326666D02*
X11421190Y-10660000D01*
X11897380Y-10898095D02*
X10897380Y-10898095D01*
X10897380Y-10517142D01*
X10945000Y-10421904D01*
X10992619Y-10374285D01*
X11087857Y-10326666D01*
X11230714Y-10326666D01*
X11325952Y-10374285D01*
X11373571Y-10421904D01*
X11421190Y-10517142D01*
X11421190Y-10898095D01*
X11897380Y-9374285D02*
X11897380Y-9945714D01*
X11897380Y-9660000D02*
X10897380Y-9660000D01*
X11040238Y-9755238D01*
X11135476Y-9850476D01*
X11183095Y-9945714D01*
X14437380Y-10326666D02*
X13961190Y-10660000D01*
X14437380Y-10898095D02*
X13437380Y-10898095D01*
X13437380Y-10517142D01*
X13485000Y-10421904D01*
X13532619Y-10374285D01*
X13627857Y-10326666D01*
X13770714Y-10326666D01*
X13865952Y-10374285D01*
X13913571Y-10421904D01*
X13961190Y-10517142D01*
X13961190Y-10898095D01*
X13532619Y-9945714D02*
X13485000Y-9898095D01*
X13437380Y-9802857D01*
X13437380Y-9564761D01*
X13485000Y-9469523D01*
X13532619Y-9421904D01*
X13627857Y-9374285D01*
X13723095Y-9374285D01*
X13865952Y-9421904D01*
X14437380Y-9993333D01*
X14437380Y-9374285D01*
X13497619Y-10870238D02*
X13450000Y-10965476D01*
X13354761Y-11060714D01*
X13211904Y-11203571D01*
X13164285Y-11298809D01*
X13164285Y-11394047D01*
X13402380Y-11346428D02*
X13354761Y-11441666D01*
X13259523Y-11536904D01*
X13069047Y-11584523D01*
X12735714Y-11584523D01*
X12545238Y-11536904D01*
X12450000Y-11441666D01*
X12402380Y-11346428D01*
X12402380Y-11155952D01*
X12450000Y-11060714D01*
X12545238Y-10965476D01*
X12735714Y-10917857D01*
X13069047Y-10917857D01*
X13259523Y-10965476D01*
X13354761Y-11060714D01*
X13402380Y-11155952D01*
X13402380Y-11346428D01*
X13402380Y-9965476D02*
X13402380Y-10536904D01*
X13402380Y-10251190D02*
X12402380Y-10251190D01*
X12545238Y-10346428D01*
X12640476Y-10441666D01*
X12688095Y-10536904D01*
X8191666Y-15179761D02*
X8334523Y-15227380D01*
X8572619Y-15227380D01*
X8667857Y-15179761D01*
X8715476Y-15132142D01*
X8763095Y-15036904D01*
X8763095Y-14941666D01*
X8715476Y-14846428D01*
X8667857Y-14798809D01*
X8572619Y-14751190D01*
X8382142Y-14703571D01*
X8286904Y-14655952D01*
X8239285Y-14608333D01*
X8191666Y-14513095D01*
X8191666Y-14417857D01*
X8239285Y-14322619D01*
X8286904Y-14275000D01*
X8382142Y-14227380D01*
X8620238Y-14227380D01*
X8763095Y-14275000D01*
X9096428Y-14227380D02*
X9334523Y-15227380D01*
X9525000Y-14513095D01*
X9715476Y-15227380D01*
X9953571Y-14227380D01*
X10858333Y-15227380D02*
X10286904Y-15227380D01*
X10572619Y-15227380D02*
X10572619Y-14227380D01*
X10477380Y-14370238D01*
X10382142Y-14465476D01*
X10286904Y-14513095D01*
M02*
