G04 #@! TF.GenerationSoftware,KiCad,Pcbnew,5.1.5+dfsg1-2build2*
G04 #@! TF.CreationDate,2020-11-06T22:36:43+01:00*
G04 #@! TF.ProjectId,lighthouse,6c696768-7468-46f7-9573-652e6b696361,rev?*
G04 #@! TF.SameCoordinates,PX36049d0PY465e678*
G04 #@! TF.FileFunction,Soldermask,Bot*
G04 #@! TF.FilePolarity,Negative*
%FSLAX46Y46*%
G04 Gerber Fmt 4.6, Leading zero omitted, Abs format (unit mm)*
G04 Created by KiCad (PCBNEW 5.1.5+dfsg1-2build2) date 2020-11-06 22:36:43*
%MOMM*%
%LPD*%
G04 APERTURE LIST*
%ADD10C,0.100000*%
G04 APERTURE END LIST*
D10*
G36*
X2764549Y-18175116D02*
G01*
X2875734Y-18197232D01*
X3085203Y-18283997D01*
X3273720Y-18409960D01*
X3434040Y-18570280D01*
X3560003Y-18758797D01*
X3560004Y-18758799D01*
X3646768Y-18968267D01*
X3684300Y-19156950D01*
X3691000Y-19190636D01*
X3691000Y-19417364D01*
X3646768Y-19639734D01*
X3560003Y-19849203D01*
X3434040Y-20037720D01*
X3273720Y-20198040D01*
X3085203Y-20324003D01*
X2875734Y-20410768D01*
X2764549Y-20432884D01*
X2653365Y-20455000D01*
X2426635Y-20455000D01*
X2315451Y-20432884D01*
X2204266Y-20410768D01*
X1994797Y-20324003D01*
X1806280Y-20198040D01*
X1645960Y-20037720D01*
X1519997Y-19849203D01*
X1433232Y-19639734D01*
X1389000Y-19417364D01*
X1389000Y-19190636D01*
X1395701Y-19156950D01*
X1433232Y-18968267D01*
X1519996Y-18758799D01*
X1519997Y-18758797D01*
X1645960Y-18570280D01*
X1806280Y-18409960D01*
X1994797Y-18283997D01*
X2204266Y-18197232D01*
X2315451Y-18175116D01*
X2426635Y-18153000D01*
X2653365Y-18153000D01*
X2764549Y-18175116D01*
G37*
G36*
X17210593Y-17633891D02*
G01*
X17320789Y-17667319D01*
X17422338Y-17721598D01*
X17511351Y-17794649D01*
X17584402Y-17883662D01*
X17638681Y-17985211D01*
X17672109Y-18095407D01*
X17684000Y-18216140D01*
X17684000Y-19629860D01*
X17672109Y-19750593D01*
X17638681Y-19860789D01*
X17584402Y-19962338D01*
X17511351Y-20051351D01*
X17422338Y-20124402D01*
X17320789Y-20178681D01*
X17210593Y-20212109D01*
X17089860Y-20224000D01*
X15676140Y-20224000D01*
X15555407Y-20212109D01*
X15445211Y-20178681D01*
X15343662Y-20124402D01*
X15254649Y-20051351D01*
X15181598Y-19962338D01*
X15127319Y-19860789D01*
X15093891Y-19750593D01*
X15082000Y-19629860D01*
X15082000Y-18216140D01*
X15093891Y-18095407D01*
X15127319Y-17985211D01*
X15181598Y-17883662D01*
X15254649Y-17794649D01*
X15343662Y-17721598D01*
X15445211Y-17667319D01*
X15555407Y-17633891D01*
X15676140Y-17622000D01*
X17089860Y-17622000D01*
X17210593Y-17633891D01*
G37*
G36*
X7050593Y-17633891D02*
G01*
X7160789Y-17667319D01*
X7262338Y-17721598D01*
X7351351Y-17794649D01*
X7424402Y-17883662D01*
X7478681Y-17985211D01*
X7512109Y-18095407D01*
X7524000Y-18216140D01*
X7524000Y-19629860D01*
X7512109Y-19750593D01*
X7478681Y-19860789D01*
X7424402Y-19962338D01*
X7351351Y-20051351D01*
X7262338Y-20124402D01*
X7160789Y-20178681D01*
X7050593Y-20212109D01*
X6929860Y-20224000D01*
X5516140Y-20224000D01*
X5395407Y-20212109D01*
X5285211Y-20178681D01*
X5183662Y-20124402D01*
X5094649Y-20051351D01*
X5021598Y-19962338D01*
X4967319Y-19860789D01*
X4933891Y-19750593D01*
X4922000Y-19629860D01*
X4922000Y-18216140D01*
X4933891Y-18095407D01*
X4967319Y-17985211D01*
X5021598Y-17883662D01*
X5094649Y-17794649D01*
X5183662Y-17721598D01*
X5285211Y-17667319D01*
X5395407Y-17633891D01*
X5516140Y-17622000D01*
X6929860Y-17622000D01*
X7050593Y-17633891D01*
G37*
G36*
X22491019Y-17370979D02*
G01*
X22523965Y-17380974D01*
X22554332Y-17397205D01*
X22580950Y-17419050D01*
X22602795Y-17445668D01*
X22619026Y-17476035D01*
X22629021Y-17508981D01*
X22633000Y-17549386D01*
X22633000Y-19026614D01*
X22629021Y-19067019D01*
X22619026Y-19099965D01*
X22602795Y-19130332D01*
X22580950Y-19156950D01*
X22554332Y-19178795D01*
X22523965Y-19195026D01*
X22491019Y-19205021D01*
X22450614Y-19209000D01*
X19713386Y-19209000D01*
X19672981Y-19205021D01*
X19640035Y-19195026D01*
X19609668Y-19178795D01*
X19583050Y-19156950D01*
X19561205Y-19130332D01*
X19544974Y-19099965D01*
X19534979Y-19067019D01*
X19531000Y-19026614D01*
X19531000Y-17549386D01*
X19534979Y-17508981D01*
X19544974Y-17476035D01*
X19561205Y-17445668D01*
X19583050Y-17419050D01*
X19609668Y-17397205D01*
X19640035Y-17380974D01*
X19672981Y-17370979D01*
X19713386Y-17367000D01*
X22450614Y-17367000D01*
X22491019Y-17370979D01*
G37*
G36*
X6012210Y-14960489D02*
G01*
X6098950Y-14986802D01*
X6178889Y-15029530D01*
X6248962Y-15087038D01*
X6306470Y-15157111D01*
X6349198Y-15237050D01*
X6375511Y-15323790D01*
X6385000Y-15420140D01*
X6385000Y-16583860D01*
X6375511Y-16680210D01*
X6349198Y-16766950D01*
X6306470Y-16846889D01*
X6248962Y-16916962D01*
X6178889Y-16974470D01*
X6098950Y-17017198D01*
X6012210Y-17043511D01*
X5915860Y-17053000D01*
X4752140Y-17053000D01*
X4655790Y-17043511D01*
X4569050Y-17017198D01*
X4489111Y-16974470D01*
X4419038Y-16916962D01*
X4361530Y-16846889D01*
X4318802Y-16766950D01*
X4292489Y-16680210D01*
X4283000Y-16583860D01*
X4283000Y-15420140D01*
X4292489Y-15323790D01*
X4318802Y-15237050D01*
X4361530Y-15157111D01*
X4419038Y-15087038D01*
X4489111Y-15029530D01*
X4569050Y-14986802D01*
X4655790Y-14960489D01*
X4752140Y-14951000D01*
X5915860Y-14951000D01*
X6012210Y-14960489D01*
G37*
G36*
X22312529Y-14835240D02*
G01*
X22387072Y-14857853D01*
X22455784Y-14894580D01*
X22516001Y-14943999D01*
X22565420Y-15004216D01*
X22602147Y-15072928D01*
X22624760Y-15147471D01*
X22633000Y-15231140D01*
X22633000Y-16264860D01*
X22624760Y-16348529D01*
X22602147Y-16423072D01*
X22565420Y-16491784D01*
X22516001Y-16552001D01*
X22455784Y-16601420D01*
X22387072Y-16638147D01*
X22312529Y-16660760D01*
X22228860Y-16669000D01*
X19935140Y-16669000D01*
X19851471Y-16660760D01*
X19776928Y-16638147D01*
X19708216Y-16601420D01*
X19647999Y-16552001D01*
X19598580Y-16491784D01*
X19561853Y-16423072D01*
X19539240Y-16348529D01*
X19531000Y-16264860D01*
X19531000Y-15231140D01*
X19539240Y-15147471D01*
X19561853Y-15072928D01*
X19598580Y-15004216D01*
X19647999Y-14943999D01*
X19708216Y-14894580D01*
X19776928Y-14857853D01*
X19851471Y-14835240D01*
X19935140Y-14827000D01*
X22228860Y-14827000D01*
X22312529Y-14835240D01*
G37*
G36*
X6012210Y-12420489D02*
G01*
X6098950Y-12446802D01*
X6178889Y-12489530D01*
X6248962Y-12547038D01*
X6306470Y-12617111D01*
X6349198Y-12697050D01*
X6375511Y-12783790D01*
X6385000Y-12880140D01*
X6385000Y-14043860D01*
X6375511Y-14140210D01*
X6349198Y-14226950D01*
X6306470Y-14306889D01*
X6248962Y-14376962D01*
X6178889Y-14434470D01*
X6098950Y-14477198D01*
X6012210Y-14503511D01*
X5915860Y-14513000D01*
X4752140Y-14513000D01*
X4655790Y-14503511D01*
X4569050Y-14477198D01*
X4489111Y-14434470D01*
X4419038Y-14376962D01*
X4361530Y-14306889D01*
X4318802Y-14226950D01*
X4292489Y-14140210D01*
X4283000Y-14043860D01*
X4283000Y-12880140D01*
X4292489Y-12783790D01*
X4318802Y-12697050D01*
X4361530Y-12617111D01*
X4419038Y-12547038D01*
X4489111Y-12489530D01*
X4569050Y-12446802D01*
X4655790Y-12420489D01*
X4752140Y-12411000D01*
X5915860Y-12411000D01*
X6012210Y-12420489D01*
G37*
G36*
X22312529Y-12295240D02*
G01*
X22387072Y-12317853D01*
X22455784Y-12354580D01*
X22516001Y-12403999D01*
X22565420Y-12464216D01*
X22602147Y-12532928D01*
X22624760Y-12607471D01*
X22633000Y-12691140D01*
X22633000Y-13724860D01*
X22624760Y-13808529D01*
X22602147Y-13883072D01*
X22565420Y-13951784D01*
X22516001Y-14012001D01*
X22455784Y-14061420D01*
X22387072Y-14098147D01*
X22312529Y-14120760D01*
X22228860Y-14129000D01*
X19935140Y-14129000D01*
X19851471Y-14120760D01*
X19776928Y-14098147D01*
X19708216Y-14061420D01*
X19647999Y-14012001D01*
X19598580Y-13951784D01*
X19561853Y-13883072D01*
X19539240Y-13808529D01*
X19531000Y-13724860D01*
X19531000Y-12691140D01*
X19539240Y-12607471D01*
X19561853Y-12532928D01*
X19598580Y-12464216D01*
X19647999Y-12403999D01*
X19708216Y-12354580D01*
X19776928Y-12317853D01*
X19851471Y-12295240D01*
X19935140Y-12287000D01*
X22228860Y-12287000D01*
X22312529Y-12295240D01*
G37*
G36*
X11482564Y-9911389D02*
G01*
X11673833Y-9990615D01*
X11673835Y-9990616D01*
X11845769Y-10105499D01*
X11845973Y-10105635D01*
X11992365Y-10252027D01*
X12107385Y-10424167D01*
X12186611Y-10615436D01*
X12227000Y-10818484D01*
X12227000Y-11025516D01*
X12186611Y-11228564D01*
X12107385Y-11419833D01*
X12107384Y-11419835D01*
X11992365Y-11591973D01*
X11845973Y-11738365D01*
X11673835Y-11853384D01*
X11673834Y-11853385D01*
X11673833Y-11853385D01*
X11482564Y-11932611D01*
X11279516Y-11973000D01*
X11072484Y-11973000D01*
X10869436Y-11932611D01*
X10678167Y-11853385D01*
X10678166Y-11853385D01*
X10678165Y-11853384D01*
X10506027Y-11738365D01*
X10359635Y-11591973D01*
X10244616Y-11419835D01*
X10244615Y-11419833D01*
X10165389Y-11228564D01*
X10125000Y-11025516D01*
X10125000Y-10818484D01*
X10165389Y-10615436D01*
X10244615Y-10424167D01*
X10359635Y-10252027D01*
X10506027Y-10105635D01*
X10506231Y-10105499D01*
X10678165Y-9990616D01*
X10678167Y-9990615D01*
X10869436Y-9911389D01*
X11072484Y-9871000D01*
X11279516Y-9871000D01*
X11482564Y-9911389D01*
G37*
G36*
X8942564Y-9911389D02*
G01*
X9133833Y-9990615D01*
X9133835Y-9990616D01*
X9305769Y-10105499D01*
X9305973Y-10105635D01*
X9452365Y-10252027D01*
X9567385Y-10424167D01*
X9646611Y-10615436D01*
X9687000Y-10818484D01*
X9687000Y-11025516D01*
X9646611Y-11228564D01*
X9567385Y-11419833D01*
X9567384Y-11419835D01*
X9452365Y-11591973D01*
X9305973Y-11738365D01*
X9133835Y-11853384D01*
X9133834Y-11853385D01*
X9133833Y-11853385D01*
X8942564Y-11932611D01*
X8739516Y-11973000D01*
X8532484Y-11973000D01*
X8329436Y-11932611D01*
X8138167Y-11853385D01*
X8138166Y-11853385D01*
X8138165Y-11853384D01*
X7966027Y-11738365D01*
X7819635Y-11591973D01*
X7704616Y-11419835D01*
X7704615Y-11419833D01*
X7625389Y-11228564D01*
X7585000Y-11025516D01*
X7585000Y-10818484D01*
X7625389Y-10615436D01*
X7704615Y-10424167D01*
X7819635Y-10252027D01*
X7966027Y-10105635D01*
X7966231Y-10105499D01*
X8138165Y-9990616D01*
X8138167Y-9990615D01*
X8329436Y-9911389D01*
X8532484Y-9871000D01*
X8739516Y-9871000D01*
X8942564Y-9911389D01*
G37*
G36*
X17049000Y-11715000D02*
G01*
X14447000Y-11715000D01*
X14447000Y-9113000D01*
X17049000Y-9113000D01*
X17049000Y-11715000D01*
G37*
G36*
X5294529Y-9247240D02*
G01*
X5369072Y-9269853D01*
X5437784Y-9306580D01*
X5498001Y-9355999D01*
X5547420Y-9416216D01*
X5584147Y-9484928D01*
X5606760Y-9559471D01*
X5615000Y-9643140D01*
X5615000Y-10676860D01*
X5606760Y-10760529D01*
X5584147Y-10835072D01*
X5547420Y-10903784D01*
X5498001Y-10964001D01*
X5437784Y-11013420D01*
X5369072Y-11050147D01*
X5294529Y-11072760D01*
X5210860Y-11081000D01*
X2917140Y-11081000D01*
X2833471Y-11072760D01*
X2758928Y-11050147D01*
X2690216Y-11013420D01*
X2629999Y-10964001D01*
X2580580Y-10903784D01*
X2543853Y-10835072D01*
X2521240Y-10760529D01*
X2513000Y-10676860D01*
X2513000Y-9643140D01*
X2521240Y-9559471D01*
X2543853Y-9484928D01*
X2580580Y-9416216D01*
X2629999Y-9355999D01*
X2690216Y-9306580D01*
X2758928Y-9269853D01*
X2833471Y-9247240D01*
X2917140Y-9239000D01*
X5210860Y-9239000D01*
X5294529Y-9247240D01*
G37*
G36*
X22491019Y-8480979D02*
G01*
X22523965Y-8490974D01*
X22554332Y-8507205D01*
X22580950Y-8529050D01*
X22602795Y-8555668D01*
X22619026Y-8586035D01*
X22629021Y-8618981D01*
X22633000Y-8659386D01*
X22633000Y-10136614D01*
X22629021Y-10177019D01*
X22619026Y-10209965D01*
X22602795Y-10240332D01*
X22580950Y-10266950D01*
X22554332Y-10288795D01*
X22523965Y-10305026D01*
X22491019Y-10315021D01*
X22450614Y-10319000D01*
X19713386Y-10319000D01*
X19672981Y-10315021D01*
X19640035Y-10305026D01*
X19609668Y-10288795D01*
X19583050Y-10266950D01*
X19561205Y-10240332D01*
X19544974Y-10209965D01*
X19534979Y-10177019D01*
X19531000Y-10136614D01*
X19531000Y-8659386D01*
X19534979Y-8618981D01*
X19544974Y-8586035D01*
X19561205Y-8555668D01*
X19583050Y-8529050D01*
X19609668Y-8507205D01*
X19640035Y-8490974D01*
X19672981Y-8480979D01*
X19713386Y-8477000D01*
X22450614Y-8477000D01*
X22491019Y-8480979D01*
G37*
G36*
X13587487Y-6622996D02*
G01*
X13824253Y-6721068D01*
X13824255Y-6721069D01*
X13907496Y-6776689D01*
X14037339Y-6863447D01*
X14218553Y-7044661D01*
X14360932Y-7257747D01*
X14459004Y-7494513D01*
X14509000Y-7745861D01*
X14509000Y-8002139D01*
X14459004Y-8253487D01*
X14364773Y-8480979D01*
X14360931Y-8490255D01*
X14218553Y-8703339D01*
X14037339Y-8884553D01*
X13824255Y-9026931D01*
X13824254Y-9026932D01*
X13824253Y-9026932D01*
X13587487Y-9125004D01*
X13336139Y-9175000D01*
X13079861Y-9175000D01*
X12828513Y-9125004D01*
X12591747Y-9026932D01*
X12591746Y-9026932D01*
X12591745Y-9026931D01*
X12378661Y-8884553D01*
X12197447Y-8703339D01*
X12055069Y-8490255D01*
X12051227Y-8480979D01*
X11956996Y-8253487D01*
X11907000Y-8002139D01*
X11907000Y-7745861D01*
X11956996Y-7494513D01*
X12055068Y-7257747D01*
X12197447Y-7044661D01*
X12378661Y-6863447D01*
X12508504Y-6776689D01*
X12591745Y-6721069D01*
X12591747Y-6721068D01*
X12828513Y-6622996D01*
X13079861Y-6573000D01*
X13336139Y-6573000D01*
X13587487Y-6622996D01*
G37*
G36*
X5473019Y-6702979D02*
G01*
X5505965Y-6712974D01*
X5536332Y-6729205D01*
X5562950Y-6751050D01*
X5584795Y-6777668D01*
X5601026Y-6808035D01*
X5611021Y-6840981D01*
X5615000Y-6881386D01*
X5615000Y-8358614D01*
X5611021Y-8399019D01*
X5601026Y-8431965D01*
X5584795Y-8462332D01*
X5562950Y-8488950D01*
X5536332Y-8510795D01*
X5505965Y-8527026D01*
X5473019Y-8537021D01*
X5432614Y-8541000D01*
X2695386Y-8541000D01*
X2654981Y-8537021D01*
X2622035Y-8527026D01*
X2591668Y-8510795D01*
X2565050Y-8488950D01*
X2543205Y-8462332D01*
X2526974Y-8431965D01*
X2516979Y-8399019D01*
X2513000Y-8358614D01*
X2513000Y-6881386D01*
X2516979Y-6840981D01*
X2526974Y-6808035D01*
X2543205Y-6777668D01*
X2565050Y-6751050D01*
X2591668Y-6729205D01*
X2622035Y-6712974D01*
X2654981Y-6702979D01*
X2695386Y-6699000D01*
X5432614Y-6699000D01*
X5473019Y-6702979D01*
G37*
G36*
X22312529Y-5945240D02*
G01*
X22387072Y-5967853D01*
X22455784Y-6004580D01*
X22516001Y-6053999D01*
X22565420Y-6114216D01*
X22602147Y-6182928D01*
X22624760Y-6257471D01*
X22633000Y-6341140D01*
X22633000Y-7374860D01*
X22624760Y-7458529D01*
X22602147Y-7533072D01*
X22565420Y-7601784D01*
X22516001Y-7662001D01*
X22455784Y-7711420D01*
X22387072Y-7748147D01*
X22312529Y-7770760D01*
X22228860Y-7779000D01*
X19935140Y-7779000D01*
X19851471Y-7770760D01*
X19776928Y-7748147D01*
X19708216Y-7711420D01*
X19647999Y-7662001D01*
X19598580Y-7601784D01*
X19561853Y-7533072D01*
X19539240Y-7458529D01*
X19531000Y-7374860D01*
X19531000Y-6341140D01*
X19539240Y-6257471D01*
X19561853Y-6182928D01*
X19598580Y-6114216D01*
X19647999Y-6053999D01*
X19708216Y-6004580D01*
X19776928Y-5967853D01*
X19851471Y-5945240D01*
X19935140Y-5937000D01*
X22228860Y-5937000D01*
X22312529Y-5945240D01*
G37*
G36*
X16127487Y-4082996D02*
G01*
X16364253Y-4181068D01*
X16364255Y-4181069D01*
X16561120Y-4312610D01*
X16577339Y-4323447D01*
X16758553Y-4504661D01*
X16900932Y-4717747D01*
X16999004Y-4954513D01*
X17049000Y-5205861D01*
X17049000Y-5462139D01*
X16999004Y-5713487D01*
X16900932Y-5950253D01*
X16900931Y-5950255D01*
X16758553Y-6163339D01*
X16577339Y-6344553D01*
X16364255Y-6486931D01*
X16364254Y-6486932D01*
X16364253Y-6486932D01*
X16127487Y-6585004D01*
X15876139Y-6635000D01*
X15619861Y-6635000D01*
X15368513Y-6585004D01*
X15131747Y-6486932D01*
X15131746Y-6486932D01*
X15131745Y-6486931D01*
X14918661Y-6344553D01*
X14737447Y-6163339D01*
X14595069Y-5950255D01*
X14595068Y-5950253D01*
X14496996Y-5713487D01*
X14447000Y-5462139D01*
X14447000Y-5205861D01*
X14496996Y-4954513D01*
X14595068Y-4717747D01*
X14737447Y-4504661D01*
X14918661Y-4323447D01*
X14934880Y-4312610D01*
X15131745Y-4181069D01*
X15131747Y-4181068D01*
X15368513Y-4082996D01*
X15619861Y-4033000D01*
X15876139Y-4033000D01*
X16127487Y-4082996D01*
G37*
G36*
X11482564Y-2291389D02*
G01*
X11673833Y-2370615D01*
X11673835Y-2370616D01*
X11757673Y-2426635D01*
X11845973Y-2485635D01*
X11992365Y-2632027D01*
X12107385Y-2804167D01*
X12186611Y-2995436D01*
X12227000Y-3198484D01*
X12227000Y-3405516D01*
X12186611Y-3608564D01*
X12170786Y-3646768D01*
X12107384Y-3799835D01*
X11992365Y-3971973D01*
X11845973Y-4118365D01*
X11673835Y-4233384D01*
X11673834Y-4233385D01*
X11673833Y-4233385D01*
X11482564Y-4312611D01*
X11279516Y-4353000D01*
X11072484Y-4353000D01*
X10869436Y-4312611D01*
X10678167Y-4233385D01*
X10678166Y-4233385D01*
X10678165Y-4233384D01*
X10506027Y-4118365D01*
X10359635Y-3971973D01*
X10244616Y-3799835D01*
X10181214Y-3646768D01*
X10165389Y-3608564D01*
X10125000Y-3405516D01*
X10125000Y-3198484D01*
X10165389Y-2995436D01*
X10244615Y-2804167D01*
X10359635Y-2632027D01*
X10506027Y-2485635D01*
X10594327Y-2426635D01*
X10678165Y-2370616D01*
X10678167Y-2370615D01*
X10869436Y-2291389D01*
X11072484Y-2251000D01*
X11279516Y-2251000D01*
X11482564Y-2291389D01*
G37*
G36*
X8942564Y-2291389D02*
G01*
X9133833Y-2370615D01*
X9133835Y-2370616D01*
X9217673Y-2426635D01*
X9305973Y-2485635D01*
X9452365Y-2632027D01*
X9567385Y-2804167D01*
X9646611Y-2995436D01*
X9687000Y-3198484D01*
X9687000Y-3405516D01*
X9646611Y-3608564D01*
X9630786Y-3646768D01*
X9567384Y-3799835D01*
X9452365Y-3971973D01*
X9305973Y-4118365D01*
X9133835Y-4233384D01*
X9133834Y-4233385D01*
X9133833Y-4233385D01*
X8942564Y-4312611D01*
X8739516Y-4353000D01*
X8532484Y-4353000D01*
X8329436Y-4312611D01*
X8138167Y-4233385D01*
X8138166Y-4233385D01*
X8138165Y-4233384D01*
X7966027Y-4118365D01*
X7819635Y-3971973D01*
X7704616Y-3799835D01*
X7641214Y-3646768D01*
X7625389Y-3608564D01*
X7585000Y-3405516D01*
X7585000Y-3198484D01*
X7625389Y-2995436D01*
X7704615Y-2804167D01*
X7819635Y-2632027D01*
X7966027Y-2485635D01*
X8054327Y-2426635D01*
X8138165Y-2370616D01*
X8138167Y-2370615D01*
X8329436Y-2291389D01*
X8532484Y-2251000D01*
X8739516Y-2251000D01*
X8942564Y-2291389D01*
G37*
G36*
X2764549Y-1411116D02*
G01*
X2875734Y-1433232D01*
X3085203Y-1519997D01*
X3273720Y-1645960D01*
X3434040Y-1806280D01*
X3560003Y-1994797D01*
X3646768Y-2204266D01*
X3691000Y-2426636D01*
X3691000Y-2653364D01*
X3646768Y-2875734D01*
X3560003Y-3085203D01*
X3434040Y-3273720D01*
X3273720Y-3434040D01*
X3085203Y-3560003D01*
X2875734Y-3646768D01*
X2764549Y-3668884D01*
X2653365Y-3691000D01*
X2426635Y-3691000D01*
X2315451Y-3668884D01*
X2204266Y-3646768D01*
X1994797Y-3560003D01*
X1806280Y-3434040D01*
X1645960Y-3273720D01*
X1519997Y-3085203D01*
X1433232Y-2875734D01*
X1389000Y-2653364D01*
X1389000Y-2426636D01*
X1433232Y-2204266D01*
X1519997Y-1994797D01*
X1645960Y-1806280D01*
X1806280Y-1645960D01*
X1994797Y-1519997D01*
X2204266Y-1433232D01*
X2315451Y-1411116D01*
X2426635Y-1389000D01*
X2653365Y-1389000D01*
X2764549Y-1411116D01*
G37*
G36*
X22576549Y-1411116D02*
G01*
X22687734Y-1433232D01*
X22897203Y-1519997D01*
X23085720Y-1645960D01*
X23246040Y-1806280D01*
X23372003Y-1994797D01*
X23458768Y-2204266D01*
X23503000Y-2426636D01*
X23503000Y-2653364D01*
X23458768Y-2875734D01*
X23372003Y-3085203D01*
X23246040Y-3273720D01*
X23085720Y-3434040D01*
X22897203Y-3560003D01*
X22687734Y-3646768D01*
X22576549Y-3668884D01*
X22465365Y-3691000D01*
X22238635Y-3691000D01*
X22127451Y-3668884D01*
X22016266Y-3646768D01*
X21806797Y-3560003D01*
X21618280Y-3434040D01*
X21457960Y-3273720D01*
X21331997Y-3085203D01*
X21245232Y-2875734D01*
X21201000Y-2653364D01*
X21201000Y-2426636D01*
X21245232Y-2204266D01*
X21331997Y-1994797D01*
X21457960Y-1806280D01*
X21618280Y-1645960D01*
X21806797Y-1519997D01*
X22016266Y-1433232D01*
X22127451Y-1411116D01*
X22238635Y-1389000D01*
X22465365Y-1389000D01*
X22576549Y-1411116D01*
G37*
M02*
