%TF.GenerationSoftware,KiCad,Pcbnew,5.1.9+dfsg1-1+deb11u1*%
%TF.CreationDate,2022-11-12T21:31:23+01:00*%
%TF.ProjectId,ultrasonic_board,756c7472-6173-46f6-9e69-635f626f6172,rev?*%
%TF.SameCoordinates,PX8b48bd0PY4eb9cf0*%
%TF.FileFunction,Legend,Top*%
%TF.FilePolarity,Positive*%
%FSLAX46Y46*%
G04 Gerber Fmt 4.6, Leading zero omitted, Abs format (unit mm)*
G04 Created by KiCad (PCBNEW 5.1.9+dfsg1-1+deb11u1) date 2022-11-12 21:31:23*
%MOMM*%
%LPD*%
G01*
G04 APERTURE LIST*
%ADD10C,0.150000*%
%ADD11C,0.300000*%
%ADD12C,0.120000*%
G04 APERTURE END LIST*
D10*
X-21692620Y3025143D02*
X-20883096Y3025143D01*
X-20787858Y3072762D01*
X-20740239Y3120381D01*
X-20692620Y3215620D01*
X-20692620Y3406096D01*
X-20740239Y3501334D01*
X-20787858Y3548953D01*
X-20883096Y3596572D01*
X-21692620Y3596572D01*
X-20692620Y4215620D02*
X-20740239Y4120381D01*
X-20835477Y4072762D01*
X-21692620Y4072762D01*
X-21359286Y4453715D02*
X-21359286Y4834667D01*
X-21692620Y4596572D02*
X-20835477Y4596572D01*
X-20740239Y4644191D01*
X-20692620Y4739429D01*
X-20692620Y4834667D01*
X-20692620Y5168000D02*
X-21359286Y5168000D01*
X-21168810Y5168000D02*
X-21264048Y5215620D01*
X-21311667Y5263239D01*
X-21359286Y5358477D01*
X-21359286Y5453715D01*
X-20692620Y6215620D02*
X-21216429Y6215620D01*
X-21311667Y6168000D01*
X-21359286Y6072762D01*
X-21359286Y5882286D01*
X-21311667Y5787048D01*
X-20740239Y6215620D02*
X-20692620Y6120381D01*
X-20692620Y5882286D01*
X-20740239Y5787048D01*
X-20835477Y5739429D01*
X-20930715Y5739429D01*
X-21025953Y5787048D01*
X-21073572Y5882286D01*
X-21073572Y6120381D01*
X-21121191Y6215620D01*
X-20740239Y6644191D02*
X-20692620Y6739429D01*
X-20692620Y6929905D01*
X-20740239Y7025143D01*
X-20835477Y7072762D01*
X-20883096Y7072762D01*
X-20978334Y7025143D01*
X-21025953Y6929905D01*
X-21025953Y6787048D01*
X-21073572Y6691810D01*
X-21168810Y6644191D01*
X-21216429Y6644191D01*
X-21311667Y6691810D01*
X-21359286Y6787048D01*
X-21359286Y6929905D01*
X-21311667Y7025143D01*
X-20692620Y7644191D02*
X-20740239Y7548953D01*
X-20787858Y7501334D01*
X-20883096Y7453715D01*
X-21168810Y7453715D01*
X-21264048Y7501334D01*
X-21311667Y7548953D01*
X-21359286Y7644191D01*
X-21359286Y7787048D01*
X-21311667Y7882286D01*
X-21264048Y7929905D01*
X-21168810Y7977524D01*
X-20883096Y7977524D01*
X-20787858Y7929905D01*
X-20740239Y7882286D01*
X-20692620Y7787048D01*
X-20692620Y7644191D01*
X-21359286Y8834667D02*
X-20692620Y8834667D01*
X-21359286Y8406096D02*
X-20835477Y8406096D01*
X-20740239Y8453715D01*
X-20692620Y8548953D01*
X-20692620Y8691810D01*
X-20740239Y8787048D01*
X-20787858Y8834667D01*
X-21359286Y9310858D02*
X-20692620Y9310858D01*
X-21264048Y9310858D02*
X-21311667Y9358477D01*
X-21359286Y9453715D01*
X-21359286Y9596572D01*
X-21311667Y9691810D01*
X-21216429Y9739429D01*
X-20692620Y9739429D01*
X-20692620Y10644191D02*
X-21692620Y10644191D01*
X-20740239Y10644191D02*
X-20692620Y10548953D01*
X-20692620Y10358477D01*
X-20740239Y10263239D01*
X-20787858Y10215620D01*
X-20883096Y10168000D01*
X-21168810Y10168000D01*
X-21264048Y10215620D01*
X-21311667Y10263239D01*
X-21359286Y10358477D01*
X-21359286Y10548953D01*
X-21311667Y10644191D01*
X-20692620Y12310858D02*
X-21692620Y12310858D01*
X-20740239Y12310858D02*
X-20692620Y12215620D01*
X-20692620Y12025143D01*
X-20740239Y11929905D01*
X-20787858Y11882286D01*
X-20883096Y11834667D01*
X-21168810Y11834667D01*
X-21264048Y11882286D01*
X-21311667Y11929905D01*
X-21359286Y12025143D01*
X-21359286Y12215620D01*
X-21311667Y12310858D01*
X-20740239Y13168000D02*
X-20692620Y13072762D01*
X-20692620Y12882286D01*
X-20740239Y12787048D01*
X-20835477Y12739429D01*
X-21216429Y12739429D01*
X-21311667Y12787048D01*
X-21359286Y12882286D01*
X-21359286Y13072762D01*
X-21311667Y13168000D01*
X-21216429Y13215620D01*
X-21121191Y13215620D01*
X-21025953Y12739429D01*
X-21359286Y13501334D02*
X-21359286Y13882286D01*
X-21692620Y13644191D02*
X-20835477Y13644191D01*
X-20740239Y13691810D01*
X-20692620Y13787048D01*
X-20692620Y13882286D01*
X-20740239Y14596572D02*
X-20692620Y14501334D01*
X-20692620Y14310858D01*
X-20740239Y14215620D01*
X-20835477Y14168000D01*
X-21216429Y14168000D01*
X-21311667Y14215620D01*
X-21359286Y14310858D01*
X-21359286Y14501334D01*
X-21311667Y14596572D01*
X-21216429Y14644191D01*
X-21121191Y14644191D01*
X-21025953Y14168000D01*
X-20740239Y15501334D02*
X-20692620Y15406096D01*
X-20692620Y15215620D01*
X-20740239Y15120381D01*
X-20787858Y15072762D01*
X-20883096Y15025143D01*
X-21168810Y15025143D01*
X-21264048Y15072762D01*
X-21311667Y15120381D01*
X-21359286Y15215620D01*
X-21359286Y15406096D01*
X-21311667Y15501334D01*
X-21359286Y15787048D02*
X-21359286Y16168000D01*
X-21692620Y15929905D02*
X-20835477Y15929905D01*
X-20740239Y15977524D01*
X-20692620Y16072762D01*
X-20692620Y16168000D01*
X-20692620Y16501334D02*
X-21359286Y16501334D01*
X-21692620Y16501334D02*
X-21645000Y16453715D01*
X-21597381Y16501334D01*
X-21645000Y16548953D01*
X-21692620Y16501334D01*
X-21597381Y16501334D01*
X-20692620Y17120381D02*
X-20740239Y17025143D01*
X-20787858Y16977524D01*
X-20883096Y16929905D01*
X-21168810Y16929905D01*
X-21264048Y16977524D01*
X-21311667Y17025143D01*
X-21359286Y17120381D01*
X-21359286Y17263239D01*
X-21311667Y17358477D01*
X-21264048Y17406096D01*
X-21168810Y17453715D01*
X-20883096Y17453715D01*
X-20787858Y17406096D01*
X-20740239Y17358477D01*
X-20692620Y17263239D01*
X-20692620Y17120381D01*
X-21359286Y17882286D02*
X-20692620Y17882286D01*
X-21264048Y17882286D02*
X-21311667Y17929905D01*
X-21359286Y18025143D01*
X-21359286Y18168000D01*
X-21311667Y18263239D01*
X-21216429Y18310858D01*
X-20692620Y18310858D01*
X-19042620Y3572762D02*
X-19709286Y3572762D01*
X-19614048Y3572762D02*
X-19661667Y3620381D01*
X-19709286Y3715620D01*
X-19709286Y3858477D01*
X-19661667Y3953715D01*
X-19566429Y4001334D01*
X-19042620Y4001334D01*
X-19566429Y4001334D02*
X-19661667Y4048953D01*
X-19709286Y4144191D01*
X-19709286Y4287048D01*
X-19661667Y4382286D01*
X-19566429Y4429905D01*
X-19042620Y4429905D01*
X-19042620Y5334667D02*
X-19566429Y5334667D01*
X-19661667Y5287048D01*
X-19709286Y5191810D01*
X-19709286Y5001334D01*
X-19661667Y4906096D01*
X-19090239Y5334667D02*
X-19042620Y5239429D01*
X-19042620Y5001334D01*
X-19090239Y4906096D01*
X-19185477Y4858477D01*
X-19280715Y4858477D01*
X-19375953Y4906096D01*
X-19423572Y5001334D01*
X-19423572Y5239429D01*
X-19471191Y5334667D01*
X-19090239Y5763239D02*
X-19042620Y5858477D01*
X-19042620Y6048953D01*
X-19090239Y6144191D01*
X-19185477Y6191810D01*
X-19233096Y6191810D01*
X-19328334Y6144191D01*
X-19375953Y6048953D01*
X-19375953Y5906096D01*
X-19423572Y5810858D01*
X-19518810Y5763239D01*
X-19566429Y5763239D01*
X-19661667Y5810858D01*
X-19709286Y5906096D01*
X-19709286Y6048953D01*
X-19661667Y6144191D01*
X-19709286Y6477524D02*
X-19709286Y6858477D01*
X-20042620Y6620381D02*
X-19185477Y6620381D01*
X-19090239Y6668000D01*
X-19042620Y6763239D01*
X-19042620Y6858477D01*
X-19090239Y8382286D02*
X-19042620Y8287048D01*
X-19042620Y8096572D01*
X-19090239Y8001334D01*
X-19137858Y7953715D01*
X-19233096Y7906096D01*
X-19518810Y7906096D01*
X-19614048Y7953715D01*
X-19661667Y8001334D01*
X-19709286Y8096572D01*
X-19709286Y8287048D01*
X-19661667Y8382286D01*
X-19042620Y8953715D02*
X-19090239Y8858477D01*
X-19137858Y8810858D01*
X-19233096Y8763239D01*
X-19518810Y8763239D01*
X-19614048Y8810858D01*
X-19661667Y8858477D01*
X-19709286Y8953715D01*
X-19709286Y9096572D01*
X-19661667Y9191810D01*
X-19614048Y9239429D01*
X-19518810Y9287048D01*
X-19233096Y9287048D01*
X-19137858Y9239429D01*
X-19090239Y9191810D01*
X-19042620Y9096572D01*
X-19042620Y8953715D01*
X-19709286Y9715620D02*
X-19042620Y9715620D01*
X-19614048Y9715620D02*
X-19661667Y9763239D01*
X-19709286Y9858477D01*
X-19709286Y10001334D01*
X-19661667Y10096572D01*
X-19566429Y10144191D01*
X-19042620Y10144191D01*
X-19709286Y10477524D02*
X-19709286Y10858477D01*
X-20042620Y10620381D02*
X-19185477Y10620381D01*
X-19090239Y10668000D01*
X-19042620Y10763239D01*
X-19042620Y10858477D01*
X-19042620Y11191810D02*
X-19709286Y11191810D01*
X-19518810Y11191810D02*
X-19614048Y11239429D01*
X-19661667Y11287048D01*
X-19709286Y11382286D01*
X-19709286Y11477524D01*
X-19042620Y11953715D02*
X-19090239Y11858477D01*
X-19137858Y11810858D01*
X-19233096Y11763239D01*
X-19518810Y11763239D01*
X-19614048Y11810858D01*
X-19661667Y11858477D01*
X-19709286Y11953715D01*
X-19709286Y12096572D01*
X-19661667Y12191810D01*
X-19614048Y12239429D01*
X-19518810Y12287048D01*
X-19233096Y12287048D01*
X-19137858Y12239429D01*
X-19090239Y12191810D01*
X-19042620Y12096572D01*
X-19042620Y11953715D01*
X-19042620Y12858477D02*
X-19090239Y12763239D01*
X-19185477Y12715620D01*
X-20042620Y12715620D01*
X-19042620Y14001334D02*
X-20042620Y14001334D01*
X-19661667Y14001334D02*
X-19709286Y14096572D01*
X-19709286Y14287048D01*
X-19661667Y14382286D01*
X-19614048Y14429905D01*
X-19518810Y14477524D01*
X-19233096Y14477524D01*
X-19137858Y14429905D01*
X-19090239Y14382286D01*
X-19042620Y14287048D01*
X-19042620Y14096572D01*
X-19090239Y14001334D01*
X-19042620Y15048953D02*
X-19090239Y14953715D01*
X-19137858Y14906096D01*
X-19233096Y14858477D01*
X-19518810Y14858477D01*
X-19614048Y14906096D01*
X-19661667Y14953715D01*
X-19709286Y15048953D01*
X-19709286Y15191810D01*
X-19661667Y15287048D01*
X-19614048Y15334667D01*
X-19518810Y15382286D01*
X-19233096Y15382286D01*
X-19137858Y15334667D01*
X-19090239Y15287048D01*
X-19042620Y15191810D01*
X-19042620Y15048953D01*
X-19042620Y16239429D02*
X-19566429Y16239429D01*
X-19661667Y16191810D01*
X-19709286Y16096572D01*
X-19709286Y15906096D01*
X-19661667Y15810858D01*
X-19090239Y16239429D02*
X-19042620Y16144191D01*
X-19042620Y15906096D01*
X-19090239Y15810858D01*
X-19185477Y15763239D01*
X-19280715Y15763239D01*
X-19375953Y15810858D01*
X-19423572Y15906096D01*
X-19423572Y16144191D01*
X-19471191Y16239429D01*
X-19042620Y16715620D02*
X-19709286Y16715620D01*
X-19518810Y16715620D02*
X-19614048Y16763239D01*
X-19661667Y16810858D01*
X-19709286Y16906096D01*
X-19709286Y17001334D01*
X-19042620Y17763239D02*
X-20042620Y17763239D01*
X-19090239Y17763239D02*
X-19042620Y17668000D01*
X-19042620Y17477524D01*
X-19090239Y17382286D01*
X-19137858Y17334667D01*
X-19233096Y17287048D01*
X-19518810Y17287048D01*
X-19614048Y17334667D01*
X-19661667Y17382286D01*
X-19709286Y17477524D01*
X-19709286Y17668000D01*
X-19661667Y17763239D01*
D11*
X22368761Y-12472285D02*
X22368761Y-13186571D01*
X20368761Y-13186571D01*
X22273523Y-11400857D02*
X22368761Y-11543714D01*
X22368761Y-11829428D01*
X22273523Y-11972285D01*
X22083047Y-12043714D01*
X21321142Y-12043714D01*
X21130666Y-11972285D01*
X21035428Y-11829428D01*
X21035428Y-11543714D01*
X21130666Y-11400857D01*
X21321142Y-11329428D01*
X21511619Y-11329428D01*
X21702095Y-12043714D01*
X22273523Y-10758000D02*
X22368761Y-10615142D01*
X22368761Y-10329428D01*
X22273523Y-10186571D01*
X22083047Y-10115142D01*
X21987809Y-10115142D01*
X21797333Y-10186571D01*
X21702095Y-10329428D01*
X21702095Y-10543714D01*
X21606857Y-10686571D01*
X21416380Y-10758000D01*
X21321142Y-10758000D01*
X21130666Y-10686571D01*
X21035428Y-10543714D01*
X21035428Y-10329428D01*
X21130666Y-10186571D01*
X21321142Y-8329428D02*
X21321142Y-7829428D01*
X22368761Y-7615142D02*
X22368761Y-8329428D01*
X20368761Y-8329428D01*
X20368761Y-7615142D01*
X22178285Y-6972285D02*
X22273523Y-6900857D01*
X22368761Y-6972285D01*
X22273523Y-7043714D01*
X22178285Y-6972285D01*
X22368761Y-6972285D01*
X22273523Y-6329428D02*
X22368761Y-6115142D01*
X22368761Y-5758000D01*
X22273523Y-5615142D01*
X22178285Y-5543714D01*
X21987809Y-5472285D01*
X21797333Y-5472285D01*
X21606857Y-5543714D01*
X21511619Y-5615142D01*
X21416380Y-5758000D01*
X21321142Y-6043714D01*
X21225904Y-6186571D01*
X21130666Y-6258000D01*
X20940190Y-6329428D01*
X20749714Y-6329428D01*
X20559238Y-6258000D01*
X20464000Y-6186571D01*
X20368761Y-6043714D01*
X20368761Y-5686571D01*
X20464000Y-5472285D01*
X22178285Y-4829428D02*
X22273523Y-4758000D01*
X22368761Y-4829428D01*
X22273523Y-4900857D01*
X22178285Y-4829428D01*
X22368761Y-4829428D01*
X22178285Y-3258000D02*
X22273523Y-3329428D01*
X22368761Y-3543714D01*
X22368761Y-3686571D01*
X22273523Y-3900857D01*
X22083047Y-4043714D01*
X21892571Y-4115142D01*
X21511619Y-4186571D01*
X21225904Y-4186571D01*
X20844952Y-4115142D01*
X20654476Y-4043714D01*
X20464000Y-3900857D01*
X20368761Y-3686571D01*
X20368761Y-3543714D01*
X20464000Y-3329428D01*
X20559238Y-3258000D01*
X22178285Y-2615142D02*
X22273523Y-2543714D01*
X22368761Y-2615142D01*
X22273523Y-2686571D01*
X22178285Y-2615142D01*
X22368761Y-2615142D01*
X22368761Y-1043714D02*
X21416380Y-1543714D01*
X22368761Y-1900857D02*
X20368761Y-1900857D01*
X20368761Y-1329428D01*
X20464000Y-1186571D01*
X20559238Y-1115142D01*
X20749714Y-1043714D01*
X21035428Y-1043714D01*
X21225904Y-1115142D01*
X21321142Y-1186571D01*
X21416380Y-1329428D01*
X21416380Y-1900857D01*
X22368761Y-186571D02*
X22273523Y-329428D01*
X22178285Y-400857D01*
X21987809Y-472285D01*
X21416380Y-472285D01*
X21225904Y-400857D01*
X21130666Y-329428D01*
X21035428Y-186571D01*
X21035428Y27715D01*
X21130666Y170572D01*
X21225904Y242000D01*
X21416380Y313429D01*
X21987809Y313429D01*
X22178285Y242000D01*
X22273523Y170572D01*
X22368761Y27715D01*
X22368761Y-186571D01*
X22178285Y956286D02*
X22273523Y1027715D01*
X22368761Y956286D01*
X22273523Y884858D01*
X22178285Y956286D01*
X22368761Y956286D01*
X22178285Y2527715D02*
X22273523Y2456286D01*
X22368761Y2242000D01*
X22368761Y2099143D01*
X22273523Y1884858D01*
X22083047Y1742000D01*
X21892571Y1670572D01*
X21511619Y1599143D01*
X21225904Y1599143D01*
X20844952Y1670572D01*
X20654476Y1742000D01*
X20464000Y1884858D01*
X20368761Y2099143D01*
X20368761Y2242000D01*
X20464000Y2456286D01*
X20559238Y2527715D01*
X22178285Y3170572D02*
X22273523Y3242000D01*
X22368761Y3170572D01*
X22273523Y3099143D01*
X22178285Y3170572D01*
X22368761Y3170572D01*
X22273523Y3813429D02*
X22368761Y4027715D01*
X22368761Y4384858D01*
X22273523Y4527715D01*
X22178285Y4599143D01*
X21987809Y4670572D01*
X21797333Y4670572D01*
X21606857Y4599143D01*
X21511619Y4527715D01*
X21416380Y4384858D01*
X21321142Y4099143D01*
X21225904Y3956286D01*
X21130666Y3884858D01*
X20940190Y3813429D01*
X20749714Y3813429D01*
X20559238Y3884858D01*
X20464000Y3956286D01*
X20368761Y4099143D01*
X20368761Y4456286D01*
X20464000Y4670572D01*
X22178285Y5313429D02*
X22273523Y5384858D01*
X22368761Y5313429D01*
X22273523Y5242000D01*
X22178285Y5313429D01*
X22368761Y5313429D01*
X20559238Y7099143D02*
X20464000Y7170572D01*
X20368761Y7313429D01*
X20368761Y7670572D01*
X20464000Y7813429D01*
X20559238Y7884858D01*
X20749714Y7956286D01*
X20940190Y7956286D01*
X21225904Y7884858D01*
X22368761Y7027715D01*
X22368761Y7956286D01*
X20368761Y8884858D02*
X20368761Y9027715D01*
X20464000Y9170572D01*
X20559238Y9242000D01*
X20749714Y9313429D01*
X21130666Y9384858D01*
X21606857Y9384858D01*
X21987809Y9313429D01*
X22178285Y9242000D01*
X22273523Y9170572D01*
X22368761Y9027715D01*
X22368761Y8884858D01*
X22273523Y8742000D01*
X22178285Y8670572D01*
X21987809Y8599143D01*
X21606857Y8527715D01*
X21130666Y8527715D01*
X20749714Y8599143D01*
X20559238Y8670572D01*
X20464000Y8742000D01*
X20368761Y8884858D01*
X20559238Y9956286D02*
X20464000Y10027715D01*
X20368761Y10170572D01*
X20368761Y10527715D01*
X20464000Y10670572D01*
X20559238Y10742000D01*
X20749714Y10813429D01*
X20940190Y10813429D01*
X21225904Y10742000D01*
X22368761Y9884858D01*
X22368761Y10813429D01*
X20368761Y11313429D02*
X20368761Y12242000D01*
X21130666Y11742000D01*
X21130666Y11956286D01*
X21225904Y12099143D01*
X21321142Y12170572D01*
X21511619Y12242000D01*
X21987809Y12242000D01*
X22178285Y12170572D01*
X22273523Y12099143D01*
X22368761Y11956286D01*
X22368761Y11527715D01*
X22273523Y11384858D01*
X22178285Y11313429D01*
X22934000Y-12615142D02*
X22934000Y-11472285D01*
X22934000Y-11472285D02*
X22934000Y-9972285D01*
X25478285Y-10258000D02*
X25573523Y-10329428D01*
X25668761Y-10543714D01*
X25668761Y-10686571D01*
X25573523Y-10900857D01*
X25383047Y-11043714D01*
X25192571Y-11115142D01*
X24811619Y-11186571D01*
X24525904Y-11186571D01*
X24144952Y-11115142D01*
X23954476Y-11043714D01*
X23764000Y-10900857D01*
X23668761Y-10686571D01*
X23668761Y-10543714D01*
X23764000Y-10329428D01*
X23859238Y-10258000D01*
X22934000Y-9972285D02*
X22934000Y-8615142D01*
X25668761Y-9615142D02*
X23668761Y-9615142D01*
X25668761Y-8972285D02*
X24621142Y-8972285D01*
X24430666Y-9043714D01*
X24335428Y-9186571D01*
X24335428Y-9400857D01*
X24430666Y-9543714D01*
X24525904Y-9615142D01*
X22934000Y-8615142D02*
X22934000Y-7329428D01*
X25573523Y-7686571D02*
X25668761Y-7829428D01*
X25668761Y-8115142D01*
X25573523Y-8258000D01*
X25383047Y-8329428D01*
X24621142Y-8329428D01*
X24430666Y-8258000D01*
X24335428Y-8115142D01*
X24335428Y-7829428D01*
X24430666Y-7686571D01*
X24621142Y-7615142D01*
X24811619Y-7615142D01*
X25002095Y-8329428D01*
X22934000Y-7329428D02*
X22934000Y-6400857D01*
X25668761Y-6972285D02*
X24335428Y-6972285D01*
X24716380Y-6972285D02*
X24525904Y-6900857D01*
X24430666Y-6829428D01*
X24335428Y-6686571D01*
X24335428Y-6543714D01*
X22934000Y-6400857D02*
X22934000Y-5472285D01*
X25668761Y-6043714D02*
X24335428Y-6043714D01*
X24716380Y-6043714D02*
X24525904Y-5972285D01*
X24430666Y-5900857D01*
X24335428Y-5758000D01*
X24335428Y-5615142D01*
X22934000Y-5472285D02*
X22934000Y-4329428D01*
X24335428Y-5258000D02*
X25668761Y-4900857D01*
X24335428Y-4543714D02*
X25668761Y-4900857D01*
X26144952Y-5043714D01*
X26240190Y-5115142D01*
X26335428Y-5258000D01*
X22934000Y-4329428D02*
X22934000Y-3186571D01*
X22934000Y-3186571D02*
X22934000Y-1829428D01*
X25668761Y-2615142D02*
X25573523Y-2758000D01*
X25478285Y-2829428D01*
X25287809Y-2900857D01*
X24716380Y-2900857D01*
X24525904Y-2829428D01*
X24430666Y-2758000D01*
X24335428Y-2615142D01*
X24335428Y-2400857D01*
X24430666Y-2258000D01*
X24525904Y-2186571D01*
X24716380Y-2115142D01*
X25287809Y-2115142D01*
X25478285Y-2186571D01*
X25573523Y-2258000D01*
X25668761Y-2400857D01*
X25668761Y-2615142D01*
X22934000Y-1829428D02*
X22934000Y-472285D01*
X24335428Y-1472285D02*
X25668761Y-1472285D01*
X24525904Y-1472285D02*
X24430666Y-1400857D01*
X24335428Y-1258000D01*
X24335428Y-1043714D01*
X24430666Y-900857D01*
X24621142Y-829428D01*
X25668761Y-829428D01*
X22934000Y-472285D02*
X22934000Y670572D01*
X22934000Y670572D02*
X22934000Y1527715D01*
X24335428Y813429D02*
X24335428Y1384858D01*
X23668761Y1027715D02*
X25383047Y1027715D01*
X25573523Y1099143D01*
X25668761Y1242000D01*
X25668761Y1384858D01*
X22934000Y1527715D02*
X22934000Y2884858D01*
X25668761Y1884858D02*
X23668761Y1884858D01*
X25668761Y2527715D02*
X24621142Y2527715D01*
X24430666Y2456286D01*
X24335428Y2313429D01*
X24335428Y2099143D01*
X24430666Y1956286D01*
X24525904Y1884858D01*
X22934000Y2884858D02*
X22934000Y4170572D01*
X25573523Y3813429D02*
X25668761Y3670572D01*
X25668761Y3384858D01*
X25573523Y3242000D01*
X25383047Y3170572D01*
X24621142Y3170572D01*
X24430666Y3242000D01*
X24335428Y3384858D01*
X24335428Y3670572D01*
X24430666Y3813429D01*
X24621142Y3884858D01*
X24811619Y3884858D01*
X25002095Y3170572D01*
X22934000Y4170572D02*
X22934000Y5313429D01*
X22934000Y5313429D02*
X22934000Y6599143D01*
X25573523Y6313429D02*
X25668761Y6170572D01*
X25668761Y5884858D01*
X25573523Y5742000D01*
X25478285Y5670572D01*
X25287809Y5599143D01*
X24716380Y5599143D01*
X24525904Y5670572D01*
X24430666Y5742000D01*
X24335428Y5884858D01*
X24335428Y6170572D01*
X24430666Y6313429D01*
X22934000Y6599143D02*
X22934000Y7956286D01*
X25668761Y7599143D02*
X24621142Y7599143D01*
X24430666Y7527715D01*
X24335428Y7384858D01*
X24335428Y7099143D01*
X24430666Y6956286D01*
X25573523Y7599143D02*
X25668761Y7456286D01*
X25668761Y7099143D01*
X25573523Y6956286D01*
X25383047Y6884858D01*
X25192571Y6884858D01*
X25002095Y6956286D01*
X24906857Y7099143D01*
X24906857Y7456286D01*
X24811619Y7599143D01*
X22934000Y7956286D02*
X22934000Y9170572D01*
X25668761Y8313429D02*
X23668761Y8313429D01*
X24906857Y8456286D02*
X25668761Y8884858D01*
X24335428Y8884858D02*
X25097333Y8313429D01*
X22934000Y9170572D02*
X22934000Y10456286D01*
X25573523Y10099143D02*
X25668761Y9956286D01*
X25668761Y9670572D01*
X25573523Y9527715D01*
X25383047Y9456286D01*
X24621142Y9456286D01*
X24430666Y9527715D01*
X24335428Y9670572D01*
X24335428Y9956286D01*
X24430666Y10099143D01*
X24621142Y10170572D01*
X24811619Y10170572D01*
X25002095Y9456286D01*
X22934000Y10456286D02*
X22934000Y11599143D01*
D10*
X293809Y6405620D02*
X293809Y7405620D01*
X722380Y6453239D02*
X865238Y6405620D01*
X1103333Y6405620D01*
X1198571Y6453239D01*
X1246190Y6500858D01*
X1293809Y6596096D01*
X1293809Y6691334D01*
X1246190Y6786572D01*
X1198571Y6834191D01*
X1103333Y6881810D01*
X912857Y6929429D01*
X817619Y6977048D01*
X770000Y7024667D01*
X722380Y7119905D01*
X722380Y7215143D01*
X770000Y7310381D01*
X817619Y7358000D01*
X912857Y7405620D01*
X1150952Y7405620D01*
X1293809Y7358000D01*
X1722380Y6405620D02*
X1722380Y7405620D01*
X2103333Y7405620D01*
X2198571Y7358000D01*
X2246190Y7310381D01*
X2293809Y7215143D01*
X2293809Y7072286D01*
X2246190Y6977048D01*
X2198571Y6929429D01*
X2103333Y6881810D01*
X1722380Y6881810D01*
D12*
%TO.C,RESET*%
X-5950000Y3604000D02*
X-5950000Y5104000D01*
X-7200000Y7604000D02*
X-11700000Y7604000D01*
X-12950000Y5104000D02*
X-12950000Y3604000D01*
X-11700000Y1104000D02*
X-7200000Y1104000D01*
%TO.C,C1*%
X6490580Y-13333000D02*
X6209420Y-13333000D01*
X6490580Y-14353000D02*
X6209420Y-14353000D01*
%TO.C,C2*%
X-2399420Y-14353000D02*
X-2680580Y-14353000D01*
X-2399420Y-13333000D02*
X-2680580Y-13333000D01*
%TO.C,C3*%
X-3258000Y26956000D02*
X-3258000Y26456000D01*
X-3508000Y26706000D02*
X-3008000Y26706000D01*
X-2768000Y23950437D02*
X-1703563Y22886000D01*
X-2768000Y26341563D02*
X-1703563Y27406000D01*
X-2768000Y26341563D02*
X-2768000Y26206000D01*
X-2768000Y23950437D02*
X-2768000Y24086000D01*
X-1703563Y22886000D02*
X1752000Y22886000D01*
X-1703563Y27406000D02*
X1752000Y27406000D01*
X1752000Y27406000D02*
X1752000Y26206000D01*
X1752000Y22886000D02*
X1752000Y24086000D01*
%TO.C,C4*%
X-1664580Y-10924000D02*
X-1383420Y-10924000D01*
X-1664580Y-9904000D02*
X-1383420Y-9904000D01*
%TO.C,LED*%
X-24782000Y-978000D02*
X-25382000Y-978000D01*
X-24782000Y-2578000D02*
X-24782000Y-978000D01*
X-25382000Y-2578000D02*
X-24782000Y-2578000D01*
X-24782000Y-3518000D02*
X-25382000Y-3518000D01*
X-24782000Y-5118000D02*
X-24782000Y-3518000D01*
X-25382000Y-5118000D02*
X-24782000Y-5118000D01*
X-24782000Y-6058000D02*
X-25382000Y-6058000D01*
X-24782000Y-7658000D02*
X-24782000Y-6058000D01*
X-25382000Y-7658000D02*
X-24782000Y-7658000D01*
X-19362000Y-2028000D02*
X-20362000Y-2028000D01*
X-19362000Y-6608000D02*
X-20362000Y-6608000D01*
X-20892000Y-2028000D02*
X-20362000Y-1778000D01*
X-20892000Y-6608000D02*
X-20892000Y-2028000D01*
X-20362000Y-6858000D02*
X-20892000Y-6608000D01*
X-20362000Y-1778000D02*
X-19362000Y-1778000D01*
X-20362000Y-6858000D02*
X-20362000Y-1778000D01*
X-19362000Y-6858000D02*
X-20362000Y-6858000D01*
X-24352000Y-8528000D02*
X-20352000Y-8528000D01*
X-25382000Y-398000D02*
X-25382000Y-8238000D01*
X-19362000Y-398000D02*
X-25382000Y-398000D01*
X-19362000Y-8238000D02*
X-19362000Y-398000D01*
X-25382000Y-8238000D02*
X-19362000Y-8238000D01*
%TO.C,J2*%
X-1330000Y5394000D02*
X0Y5394000D01*
X-1330000Y4064000D02*
X-1330000Y5394000D01*
X1270000Y5394000D02*
X3870000Y5394000D01*
X1270000Y2794000D02*
X1270000Y5394000D01*
X-1330000Y2794000D02*
X1270000Y2794000D01*
X3870000Y5394000D02*
X3870000Y-2346000D01*
X-1330000Y2794000D02*
X-1330000Y-2346000D01*
X-1330000Y-2346000D02*
X3870000Y-2346000D01*
%TO.C,I2C*%
X-7836000Y-15604000D02*
X-7836000Y-15004000D01*
X-9436000Y-15604000D02*
X-7836000Y-15604000D01*
X-9436000Y-15004000D02*
X-9436000Y-15604000D01*
X-10376000Y-15604000D02*
X-10376000Y-15004000D01*
X-11976000Y-15604000D02*
X-10376000Y-15604000D01*
X-11976000Y-15004000D02*
X-11976000Y-15604000D01*
X-12916000Y-15604000D02*
X-12916000Y-15004000D01*
X-14516000Y-15604000D02*
X-12916000Y-15604000D01*
X-14516000Y-15004000D02*
X-14516000Y-15604000D01*
X-15456000Y-15604000D02*
X-15456000Y-15004000D01*
X-17056000Y-15604000D02*
X-15456000Y-15604000D01*
X-17056000Y-15004000D02*
X-17056000Y-15604000D01*
X-8886000Y-21024000D02*
X-8886000Y-20024000D01*
X-16006000Y-21024000D02*
X-16006000Y-20024000D01*
X-8886000Y-19494000D02*
X-8636000Y-20024000D01*
X-16006000Y-19494000D02*
X-8886000Y-19494000D01*
X-16256000Y-20024000D02*
X-16006000Y-19494000D01*
X-8636000Y-20024000D02*
X-8636000Y-21024000D01*
X-16256000Y-20024000D02*
X-8636000Y-20024000D01*
X-16256000Y-21024000D02*
X-16256000Y-20024000D01*
X-17926000Y-16034000D02*
X-17926000Y-20034000D01*
X-7256000Y-15004000D02*
X-17636000Y-15004000D01*
X-7256000Y-21024000D02*
X-7256000Y-15004000D01*
X-17636000Y-21024000D02*
X-7256000Y-21024000D01*
X-17636000Y-15004000D02*
X-17636000Y-21024000D01*
%TO.C,U.S. 0 (T)*%
X31810000Y-2540000D02*
X29150000Y-2540000D01*
X31810000Y-2540000D02*
X31810000Y5140000D01*
X31810000Y5140000D02*
X29150000Y5140000D01*
X29150000Y-2540000D02*
X29150000Y5140000D01*
X29150000Y-5140000D02*
X29150000Y-3810000D01*
X30480000Y-5140000D02*
X29150000Y-5140000D01*
%TO.C,U.S. 1 (B)*%
X23846000Y19693814D02*
X24997814Y20358814D01*
X24997814Y20358814D02*
X25662814Y19207000D01*
X26297814Y18107148D02*
X30137814Y11456073D01*
X27834186Y10126073D02*
X30137814Y11456073D01*
X23994186Y16777148D02*
X27834186Y10126073D01*
X23994186Y16777148D02*
X26297814Y18107148D01*
%TO.C,U.S. 2 (T)*%
X19693814Y23846000D02*
X19028814Y22694186D01*
X19028814Y22694186D02*
X17877000Y23359186D01*
X16777148Y23994186D02*
X10126073Y27834186D01*
X11456073Y30137814D02*
X10126073Y27834186D01*
X18107148Y26297814D02*
X11456073Y30137814D01*
X18107148Y26297814D02*
X16777148Y23994186D01*
%TO.C,U.S. 3 (B)*%
X-2540000Y29150000D02*
X-2540000Y31810000D01*
X-2540000Y29150000D02*
X5140000Y29150000D01*
X5140000Y29150000D02*
X5140000Y31810000D01*
X-2540000Y31810000D02*
X5140000Y31810000D01*
X-5140000Y31810000D02*
X-3810000Y31810000D01*
X-5140000Y30480000D02*
X-5140000Y31810000D01*
%TO.C,U.S. 4 (T)*%
X-13702852Y28837814D02*
X-12372852Y26534186D01*
X-13702852Y28837814D02*
X-20353927Y24997814D01*
X-20353927Y24997814D02*
X-19023927Y22694186D01*
X-12372852Y26534186D02*
X-19023927Y22694186D01*
X-10121186Y27834186D02*
X-11273000Y27169186D01*
X-10786186Y28986000D02*
X-10121186Y27834186D01*
%TO.C,U.S. 5 (B)*%
X-28986000Y10786186D02*
X-30137814Y11451186D01*
X-30137814Y11451186D02*
X-29472814Y12603000D01*
X-28837814Y13702852D02*
X-24997814Y20353927D01*
X-22694186Y19023927D02*
X-24997814Y20353927D01*
X-26534186Y12372852D02*
X-22694186Y19023927D01*
X-26534186Y12372852D02*
X-28837814Y13702852D01*
%TO.C,U.S. 6 (T)*%
X-30480000Y5140000D02*
X-29150000Y5140000D01*
X-29150000Y5140000D02*
X-29150000Y3810000D01*
X-29150000Y2540000D02*
X-29150000Y-5140000D01*
X-31810000Y-5140000D02*
X-29150000Y-5140000D01*
X-31810000Y2540000D02*
X-31810000Y-5140000D01*
X-31810000Y2540000D02*
X-29150000Y2540000D01*
%TO.C,U.S. 7 (B)*%
X-23994186Y-16904148D02*
X-26297814Y-18234148D01*
X-23994186Y-16904148D02*
X-27834186Y-10253073D01*
X-27834186Y-10253073D02*
X-30137814Y-11583073D01*
X-26297814Y-18234148D02*
X-30137814Y-11583073D01*
X-24997814Y-20485814D02*
X-25662814Y-19334000D01*
X-23846000Y-19820814D02*
X-24997814Y-20485814D01*
%TO.C,U.S. 8 (T)*%
X-19693814Y-23973000D02*
X-19028814Y-22821186D01*
X-19028814Y-22821186D02*
X-17877000Y-23486186D01*
X-16777148Y-24121186D02*
X-10126073Y-27961186D01*
X-11456073Y-30264814D02*
X-10126073Y-27961186D01*
X-18107148Y-26424814D02*
X-11456073Y-30264814D01*
X-18107148Y-26424814D02*
X-16777148Y-24121186D01*
%TO.C,U.S. 9 (B)*%
X5140000Y-30480000D02*
X5140000Y-31810000D01*
X5140000Y-31810000D02*
X3810000Y-31810000D01*
X2540000Y-31810000D02*
X-5140000Y-31810000D01*
X-5140000Y-29150000D02*
X-5140000Y-31810000D01*
X2540000Y-29150000D02*
X-5140000Y-29150000D01*
X2540000Y-29150000D02*
X2540000Y-31810000D01*
%TO.C,U.S. 10 (T)*%
X13575852Y-28837814D02*
X12245852Y-26534186D01*
X13575852Y-28837814D02*
X20226927Y-24997814D01*
X20226927Y-24997814D02*
X18896927Y-22694186D01*
X12245852Y-26534186D02*
X18896927Y-22694186D01*
X9994186Y-27834186D02*
X11146000Y-27169186D01*
X10659186Y-28986000D02*
X9994186Y-27834186D01*
%TO.C,U.S. 11 (B)*%
X26534186Y-12372852D02*
X28837814Y-13702852D01*
X26534186Y-12372852D02*
X22694186Y-19023927D01*
X22694186Y-19023927D02*
X24997814Y-20353927D01*
X28837814Y-13702852D02*
X24997814Y-20353927D01*
X30137814Y-11451186D02*
X29472814Y-12603000D01*
X28986000Y-10786186D02*
X30137814Y-11451186D01*
%TO.C,R1*%
X-16016500Y6587258D02*
X-16016500Y6112742D01*
X-14971500Y6587258D02*
X-14971500Y6112742D01*
D10*
%TO.C,U1*%
X-5900000Y-10893000D02*
X-4475000Y-10893000D01*
X-13150000Y-11118000D02*
X-12825000Y-11118000D01*
X-13150000Y-3868000D02*
X-12825000Y-3868000D01*
X-5900000Y-3868000D02*
X-6225000Y-3868000D01*
X-5900000Y-11118000D02*
X-6225000Y-11118000D01*
X-5900000Y-3868000D02*
X-5900000Y-4193000D01*
X-13150000Y-3868000D02*
X-13150000Y-4193000D01*
X-13150000Y-11118000D02*
X-13150000Y-10793000D01*
X-5900000Y-11118000D02*
X-5900000Y-10893000D01*
D12*
%TO.C,XTAL*%
X9240000Y-15103000D02*
X-3360000Y-15103000D01*
X9240000Y-20203000D02*
X9240000Y-15103000D01*
X-3360000Y-20203000D02*
X9240000Y-20203000D01*
%TO.C,CAN*%
X14727000Y9080000D02*
X-14123000Y9080000D01*
X-15183000Y10140000D02*
X-15183000Y20640000D01*
X-14123000Y21700000D02*
X14727000Y21700000D01*
X15787000Y20640000D02*
X15787000Y10140000D01*
X6092000Y8185662D02*
X5592000Y8185662D01*
X5592000Y8185662D02*
X5842000Y8618675D01*
X5842000Y8618675D02*
X6092000Y8185662D01*
X6533689Y11180000D02*
X-5929689Y11180000D01*
X5634421Y19600000D02*
X-5030421Y19600000D01*
X-7564470Y13128256D02*
X-6665202Y18228256D01*
X8168470Y13128256D02*
X7269202Y18228256D01*
X14727000Y9080000D02*
G75*
G03*
X15787000Y10140000I0J1060000D01*
G01*
X-15183000Y10140000D02*
G75*
G03*
X-14123000Y9080000I1060000J0D01*
G01*
X14727000Y21700000D02*
G75*
G02*
X15787000Y20640000I0J-1060000D01*
G01*
X-14123000Y21700000D02*
G75*
G03*
X-15183000Y20640000I0J-1060000D01*
G01*
X8168470Y13128256D02*
G75*
G02*
X6533689Y11180000I-1634781J-288256D01*
G01*
X-7564470Y13128256D02*
G75*
G03*
X-5929689Y11180000I1634781J-288256D01*
G01*
X7269202Y18228256D02*
G75*
G03*
X5634421Y19600000I-1634781J-288256D01*
G01*
X-6665202Y18228256D02*
G75*
G02*
X-5030421Y19600000I1634781J-288256D01*
G01*
%TO.C,U2*%
X13335000Y-12743000D02*
X17195000Y-12743000D01*
X17195000Y-12743000D02*
X17195000Y-12498000D01*
X13335000Y-12743000D02*
X9475000Y-12743000D01*
X9475000Y-12743000D02*
X9475000Y-12498000D01*
X13335000Y-973000D02*
X17195000Y-973000D01*
X17195000Y-973000D02*
X17195000Y-1218000D01*
X13335000Y-973000D02*
X9475000Y-973000D01*
X9475000Y-973000D02*
X9475000Y-1218000D01*
X9475000Y-1218000D02*
X7660000Y-1218000D01*
%TO.C,U3*%
X10795000Y1377000D02*
X12745000Y1377000D01*
X10795000Y1377000D02*
X8845000Y1377000D01*
X10795000Y6497000D02*
X12745000Y6497000D01*
X10795000Y6497000D02*
X7345000Y6497000D01*
%TO.C,RESET*%
D10*
X-15295620Y579620D02*
X-15771810Y246286D01*
X-15295620Y8191D02*
X-16295620Y8191D01*
X-16295620Y389143D01*
X-16248000Y484381D01*
X-16200381Y532000D01*
X-16105143Y579620D01*
X-15962286Y579620D01*
X-15867048Y532000D01*
X-15819429Y484381D01*
X-15771810Y389143D01*
X-15771810Y8191D01*
X-15819429Y1008191D02*
X-15819429Y1341524D01*
X-15295620Y1484381D02*
X-15295620Y1008191D01*
X-16295620Y1008191D01*
X-16295620Y1484381D01*
X-15343239Y1865334D02*
X-15295620Y2008191D01*
X-15295620Y2246286D01*
X-15343239Y2341524D01*
X-15390858Y2389143D01*
X-15486096Y2436762D01*
X-15581334Y2436762D01*
X-15676572Y2389143D01*
X-15724191Y2341524D01*
X-15771810Y2246286D01*
X-15819429Y2055810D01*
X-15867048Y1960572D01*
X-15914667Y1912953D01*
X-16009905Y1865334D01*
X-16105143Y1865334D01*
X-16200381Y1912953D01*
X-16248000Y1960572D01*
X-16295620Y2055810D01*
X-16295620Y2293905D01*
X-16248000Y2436762D01*
X-15819429Y2865334D02*
X-15819429Y3198667D01*
X-15295620Y3341524D02*
X-15295620Y2865334D01*
X-16295620Y2865334D01*
X-16295620Y3341524D01*
X-16295620Y3627239D02*
X-16295620Y4198667D01*
X-15295620Y3912953D02*
X-16295620Y3912953D01*
%TO.C,LED*%
X-26019620Y-4960857D02*
X-26019620Y-5437047D01*
X-27019620Y-5437047D01*
X-26543429Y-4627523D02*
X-26543429Y-4294190D01*
X-26019620Y-4151333D02*
X-26019620Y-4627523D01*
X-27019620Y-4627523D01*
X-27019620Y-4151333D01*
X-26019620Y-3722761D02*
X-27019620Y-3722761D01*
X-27019620Y-3484666D01*
X-26972000Y-3341809D01*
X-26876762Y-3246571D01*
X-26781524Y-3198952D01*
X-26591048Y-3151333D01*
X-26448191Y-3151333D01*
X-26257715Y-3198952D01*
X-26162477Y-3246571D01*
X-26067239Y-3341809D01*
X-26019620Y-3484666D01*
X-26019620Y-3722761D01*
%TO.C,I2C*%
X-13422191Y-23058380D02*
X-13422191Y-22058380D01*
X-12993620Y-22153619D02*
X-12946000Y-22106000D01*
X-12850762Y-22058380D01*
X-12612667Y-22058380D01*
X-12517429Y-22106000D01*
X-12469810Y-22153619D01*
X-12422191Y-22248857D01*
X-12422191Y-22344095D01*
X-12469810Y-22486952D01*
X-13041239Y-23058380D01*
X-12422191Y-23058380D01*
X-11422191Y-22963142D02*
X-11469810Y-23010761D01*
X-11612667Y-23058380D01*
X-11707905Y-23058380D01*
X-11850762Y-23010761D01*
X-11946000Y-22915523D01*
X-11993620Y-22820285D01*
X-12041239Y-22629809D01*
X-12041239Y-22486952D01*
X-11993620Y-22296476D01*
X-11946000Y-22201238D01*
X-11850762Y-22106000D01*
X-11707905Y-22058380D01*
X-11612667Y-22058380D01*
X-11469810Y-22106000D01*
X-11422191Y-22153619D01*
%TO.C,U.S. 0 (T)*%
X33996380Y-3269809D02*
X34805904Y-3269809D01*
X34901142Y-3222190D01*
X34948761Y-3174571D01*
X34996380Y-3079333D01*
X34996380Y-2888857D01*
X34948761Y-2793619D01*
X34901142Y-2746000D01*
X34805904Y-2698380D01*
X33996380Y-2698380D01*
X34901142Y-2222190D02*
X34948761Y-2174571D01*
X34996380Y-2222190D01*
X34948761Y-2269809D01*
X34901142Y-2222190D01*
X34996380Y-2222190D01*
X34948761Y-1793619D02*
X34996380Y-1650761D01*
X34996380Y-1412666D01*
X34948761Y-1317428D01*
X34901142Y-1269809D01*
X34805904Y-1222190D01*
X34710666Y-1222190D01*
X34615428Y-1269809D01*
X34567809Y-1317428D01*
X34520190Y-1412666D01*
X34472571Y-1603142D01*
X34424952Y-1698380D01*
X34377333Y-1746000D01*
X34282095Y-1793619D01*
X34186857Y-1793619D01*
X34091619Y-1746000D01*
X34044000Y-1698380D01*
X33996380Y-1603142D01*
X33996380Y-1365047D01*
X34044000Y-1222190D01*
X34901142Y-793619D02*
X34948761Y-746000D01*
X34996380Y-793619D01*
X34948761Y-841238D01*
X34901142Y-793619D01*
X34996380Y-793619D01*
X33996380Y634953D02*
X33996380Y730191D01*
X34044000Y825429D01*
X34091619Y873048D01*
X34186857Y920667D01*
X34377333Y968286D01*
X34615428Y968286D01*
X34805904Y920667D01*
X34901142Y873048D01*
X34948761Y825429D01*
X34996380Y730191D01*
X34996380Y634953D01*
X34948761Y539715D01*
X34901142Y492096D01*
X34805904Y444477D01*
X34615428Y396858D01*
X34377333Y396858D01*
X34186857Y444477D01*
X34091619Y492096D01*
X34044000Y539715D01*
X33996380Y634953D01*
X35377333Y2444477D02*
X35329714Y2396858D01*
X35186857Y2301620D01*
X35091619Y2254000D01*
X34948761Y2206381D01*
X34710666Y2158762D01*
X34520190Y2158762D01*
X34282095Y2206381D01*
X34139238Y2254000D01*
X34044000Y2301620D01*
X33901142Y2396858D01*
X33853523Y2444477D01*
X33996380Y2682572D02*
X33996380Y3254000D01*
X34996380Y2968286D02*
X33996380Y2968286D01*
X35377333Y3492096D02*
X35329714Y3539715D01*
X35186857Y3634953D01*
X35091619Y3682572D01*
X34948761Y3730191D01*
X34710666Y3777810D01*
X34520190Y3777810D01*
X34282095Y3730191D01*
X34139238Y3682572D01*
X34044000Y3634953D01*
X33901142Y3539715D01*
X33853523Y3492096D01*
%TO.C,U.S. 1 (B)*%
X31065176Y14097384D02*
X31766244Y14502146D01*
X31824913Y14591004D01*
X31842343Y14656053D01*
X31835963Y14762341D01*
X31740725Y14927299D01*
X31651867Y14985968D01*
X31586818Y15003397D01*
X31480530Y14997018D01*
X30779462Y14592256D01*
X31324913Y15457030D02*
X31342343Y15522079D01*
X31407392Y15504649D01*
X31389962Y15439600D01*
X31324913Y15457030D01*
X31407392Y15504649D01*
X31151867Y15851993D02*
X31121678Y15999521D01*
X31002630Y16205717D01*
X30913772Y16264386D01*
X30848723Y16281816D01*
X30742435Y16275436D01*
X30659956Y16227817D01*
X30601287Y16138959D01*
X30583857Y16073910D01*
X30590237Y15967622D01*
X30644236Y15778855D01*
X30650616Y15672567D01*
X30633186Y15607518D01*
X30574517Y15518660D01*
X30492038Y15471041D01*
X30385750Y15464661D01*
X30320701Y15482091D01*
X30231843Y15540760D01*
X30112795Y15746956D01*
X30082606Y15894484D01*
X30610628Y16694209D02*
X30628057Y16759258D01*
X30693106Y16741828D01*
X30675676Y16676779D01*
X30610628Y16694209D01*
X30693106Y16741828D01*
X29812154Y18267682D02*
X30097868Y17772811D01*
X29955011Y18020246D02*
X29088986Y17520246D01*
X29260323Y17509196D01*
X29390420Y17474337D01*
X29479279Y17415668D01*
X29403973Y19736577D02*
X29386543Y19671528D01*
X29310444Y19517621D01*
X29251775Y19428763D01*
X29151867Y19316095D01*
X28969480Y19155808D01*
X28804523Y19060570D01*
X28574517Y18982761D01*
X28426989Y18952572D01*
X28320701Y18946192D01*
X28149364Y18957242D01*
X28084315Y18974672D01*
X28263283Y19902786D02*
X28233094Y20050313D01*
X28250524Y20115362D01*
X28309193Y20204220D01*
X28432911Y20275649D01*
X28539199Y20282028D01*
X28604248Y20264599D01*
X28693106Y20205930D01*
X28883582Y19876015D01*
X28017557Y19376015D01*
X27850890Y19664690D01*
X27844511Y19770978D01*
X27861940Y19836027D01*
X27920609Y19924886D01*
X28003088Y19972505D01*
X28109376Y19978884D01*
X28174425Y19961455D01*
X28263283Y19902786D01*
X28429950Y19614110D01*
X28761116Y20850038D02*
X28696067Y20867468D01*
X28524730Y20878518D01*
X28418442Y20872138D01*
X28270915Y20841949D01*
X28040908Y20764141D01*
X27875951Y20668903D01*
X27693564Y20508616D01*
X27593656Y20395948D01*
X27534987Y20307089D01*
X27458888Y20153182D01*
X27441458Y20088133D01*
%TO.C,U.S. 2 (T)*%
X20049899Y27735844D02*
X20454660Y28436912D01*
X20461040Y28543200D01*
X20443610Y28608249D01*
X20384941Y28697107D01*
X20219984Y28792345D01*
X20113696Y28798725D01*
X20048647Y28781295D01*
X19959789Y28722626D01*
X19555027Y28021558D01*
X19595015Y29043200D02*
X19577585Y29108249D01*
X19642634Y29125679D01*
X19660064Y29060630D01*
X19595015Y29043200D01*
X19642634Y29125679D01*
X19247671Y29298725D02*
X19147762Y29411393D01*
X18941566Y29530441D01*
X18835278Y29536820D01*
X18770229Y29519391D01*
X18681370Y29460721D01*
X18633751Y29378243D01*
X18627372Y29271955D01*
X18644801Y29206906D01*
X18703470Y29118048D01*
X18844618Y28981570D01*
X18903287Y28892712D01*
X18920717Y28827663D01*
X18914337Y28721375D01*
X18866718Y28638896D01*
X18777860Y28580227D01*
X18712811Y28562797D01*
X18606523Y28569177D01*
X18400326Y28688225D01*
X18300418Y28800893D01*
X18357836Y29757486D02*
X18340406Y29822535D01*
X18405455Y29839964D01*
X18422884Y29774916D01*
X18357836Y29757486D01*
X18405455Y29839964D01*
X16922091Y29651656D02*
X16857042Y29634226D01*
X16750754Y29640606D01*
X16544558Y29759653D01*
X16485889Y29848512D01*
X16468459Y29913560D01*
X16474838Y30019849D01*
X16522458Y30102327D01*
X16635125Y30202236D01*
X17415711Y30411393D01*
X16879600Y30720917D01*
X15791658Y31788926D02*
X15809088Y31723878D01*
X15820138Y31552541D01*
X15813758Y31446253D01*
X15783569Y31298725D01*
X15705761Y31068719D01*
X15610523Y30903762D01*
X15450236Y30721375D01*
X15337568Y30621466D01*
X15248709Y30562797D01*
X15094802Y30486698D01*
X15029753Y30469269D01*
X14894985Y30712034D02*
X14400114Y30997748D01*
X15147550Y31720917D02*
X14647550Y30854891D01*
X14884393Y32312736D02*
X14819345Y32295306D01*
X14665437Y32219207D01*
X14576579Y32160538D01*
X14463911Y32060630D01*
X14303624Y31878243D01*
X14208386Y31713286D01*
X14130578Y31483280D01*
X14100389Y31335752D01*
X14094009Y31229464D01*
X14105059Y31058127D01*
X14122489Y30993078D01*
%TO.C,U.S. 3 (B)*%
X3896857Y33996381D02*
X3896857Y34805905D01*
X3849238Y34901143D01*
X3801619Y34948762D01*
X3706380Y34996381D01*
X3515904Y34996381D01*
X3420666Y34948762D01*
X3373047Y34901143D01*
X3325428Y34805905D01*
X3325428Y33996381D01*
X2849238Y34901143D02*
X2801619Y34948762D01*
X2849238Y34996381D01*
X2896857Y34948762D01*
X2849238Y34901143D01*
X2849238Y34996381D01*
X2420666Y34948762D02*
X2277809Y34996381D01*
X2039714Y34996381D01*
X1944476Y34948762D01*
X1896857Y34901143D01*
X1849238Y34805905D01*
X1849238Y34710667D01*
X1896857Y34615429D01*
X1944476Y34567810D01*
X2039714Y34520191D01*
X2230190Y34472572D01*
X2325428Y34424953D01*
X2373047Y34377334D01*
X2420666Y34282096D01*
X2420666Y34186858D01*
X2373047Y34091620D01*
X2325428Y34044000D01*
X2230190Y33996381D01*
X1992095Y33996381D01*
X1849238Y34044000D01*
X1420666Y34901143D02*
X1373047Y34948762D01*
X1420666Y34996381D01*
X1468285Y34948762D01*
X1420666Y34901143D01*
X1420666Y34996381D01*
X277809Y33996381D02*
X-341239Y33996381D01*
X-7905Y34377334D01*
X-150762Y34377334D01*
X-246000Y34424953D01*
X-293620Y34472572D01*
X-341239Y34567810D01*
X-341239Y34805905D01*
X-293620Y34901143D01*
X-246000Y34948762D01*
X-150762Y34996381D01*
X134952Y34996381D01*
X230190Y34948762D01*
X277809Y34901143D01*
X-1817429Y35377334D02*
X-1769810Y35329715D01*
X-1674572Y35186858D01*
X-1626953Y35091620D01*
X-1579334Y34948762D01*
X-1531715Y34710667D01*
X-1531715Y34520191D01*
X-1579334Y34282096D01*
X-1626953Y34139239D01*
X-1674572Y34044000D01*
X-1769810Y33901143D01*
X-1817429Y33853524D01*
X-2531715Y34472572D02*
X-2674572Y34520191D01*
X-2722191Y34567810D01*
X-2769810Y34663048D01*
X-2769810Y34805905D01*
X-2722191Y34901143D01*
X-2674572Y34948762D01*
X-2579334Y34996381D01*
X-2198381Y34996381D01*
X-2198381Y33996381D01*
X-2531715Y33996381D01*
X-2626953Y34044000D01*
X-2674572Y34091620D01*
X-2722191Y34186858D01*
X-2722191Y34282096D01*
X-2674572Y34377334D01*
X-2626953Y34424953D01*
X-2531715Y34472572D01*
X-2198381Y34472572D01*
X-3103143Y35377334D02*
X-3150762Y35329715D01*
X-3246000Y35186858D01*
X-3293620Y35091620D01*
X-3341239Y34948762D01*
X-3388858Y34710667D01*
X-3388858Y34520191D01*
X-3341239Y34282096D01*
X-3293620Y34139239D01*
X-3246000Y34044000D01*
X-3150762Y33901143D01*
X-3103143Y33853524D01*
%TO.C,U.S. 4 (T)*%
X-13946482Y31259653D02*
X-14351244Y31960721D01*
X-14440103Y32019391D01*
X-14505151Y32036820D01*
X-14611440Y32030441D01*
X-14776397Y31935202D01*
X-14835066Y31846344D01*
X-14852496Y31781295D01*
X-14846116Y31675007D01*
X-14441354Y30973939D01*
X-15306128Y31519391D02*
X-15371177Y31536820D01*
X-15353747Y31601869D01*
X-15288698Y31584439D01*
X-15306128Y31519391D01*
X-15353747Y31601869D01*
X-15701091Y31346344D02*
X-15848619Y31316155D01*
X-16054815Y31197107D01*
X-16113484Y31108249D01*
X-16130914Y31043200D01*
X-16124534Y30936912D01*
X-16076915Y30854433D01*
X-15988057Y30795764D01*
X-15923008Y30778334D01*
X-15816720Y30784714D01*
X-15627953Y30838713D01*
X-15521665Y30845093D01*
X-15456616Y30827663D01*
X-15367758Y30768994D01*
X-15320139Y30686515D01*
X-15313759Y30580227D01*
X-15331189Y30515178D01*
X-15389858Y30426320D01*
X-15596055Y30307272D01*
X-15743582Y30277083D01*
X-16543307Y30805105D02*
X-16608356Y30822535D01*
X-16590926Y30887583D01*
X-16525877Y30870154D01*
X-16543307Y30805105D01*
X-16590926Y30887583D01*
X-17700969Y29476900D02*
X-18034302Y30054250D01*
X-17304296Y29266033D02*
X-17455242Y30003670D01*
X-17991353Y29694146D01*
X-19585675Y29598450D02*
X-19520626Y29581020D01*
X-19366719Y29504922D01*
X-19277861Y29446253D01*
X-19165193Y29346344D01*
X-19004906Y29163957D01*
X-18909668Y28999000D01*
X-18831860Y28768994D01*
X-18801670Y28621466D01*
X-18795291Y28515178D01*
X-18806341Y28343841D01*
X-18823770Y28278792D01*
X-19101396Y28283463D02*
X-19596267Y27997748D01*
X-19848831Y29006631D02*
X-19348831Y28140606D01*
X-20492940Y29074641D02*
X-20510370Y29009592D01*
X-20521420Y28838255D01*
X-20515040Y28731967D01*
X-20484851Y28584439D01*
X-20407042Y28354433D01*
X-20311804Y28189476D01*
X-20151517Y28007089D01*
X-20038850Y27907181D01*
X-19949991Y27848512D01*
X-19796084Y27772413D01*
X-19731035Y27754983D01*
%TO.C,U.S. 5 (B)*%
X-27422320Y20406998D02*
X-28123388Y20811760D01*
X-28229676Y20818139D01*
X-28294725Y20800710D01*
X-28383583Y20742041D01*
X-28478822Y20577083D01*
X-28485201Y20470795D01*
X-28467771Y20405746D01*
X-28409102Y20316888D01*
X-27708034Y19912126D01*
X-28729676Y19952114D02*
X-28794725Y19934684D01*
X-28812155Y19999733D01*
X-28747106Y20017163D01*
X-28729676Y19952114D01*
X-28812155Y19999733D01*
X-28985201Y19604770D02*
X-29097869Y19504861D01*
X-29216917Y19298665D01*
X-29223296Y19192377D01*
X-29205867Y19127328D01*
X-29147198Y19038470D01*
X-29064719Y18990851D01*
X-28958431Y18984471D01*
X-28893382Y19001901D01*
X-28804524Y19060570D01*
X-28668046Y19201717D01*
X-28579188Y19260386D01*
X-28514139Y19277816D01*
X-28407851Y19271436D01*
X-28325372Y19223817D01*
X-28266703Y19134959D01*
X-28249274Y19069910D01*
X-28255653Y18963622D01*
X-28374701Y18757426D01*
X-28487369Y18657517D01*
X-29443962Y18714935D02*
X-29509011Y18697505D01*
X-29526441Y18762554D01*
X-29461392Y18779984D01*
X-29443962Y18714935D01*
X-29526441Y18762554D01*
X-29517558Y16777939D02*
X-29279463Y17190332D01*
X-29668046Y17469667D01*
X-29650617Y17404618D01*
X-29656996Y17298330D01*
X-29776044Y17092133D01*
X-29864902Y17033464D01*
X-29929951Y17016034D01*
X-30036239Y17022414D01*
X-30242436Y17141462D01*
X-30301105Y17230320D01*
X-30318535Y17295369D01*
X-30312155Y17401657D01*
X-30193107Y17607853D01*
X-30104249Y17666522D01*
X-30039200Y17683952D01*
X-31475403Y16148757D02*
X-31410354Y16166187D01*
X-31239017Y16177237D01*
X-31132729Y16170857D01*
X-30985201Y16140668D01*
X-30755195Y16062860D01*
X-30590238Y15967622D01*
X-30407851Y15807335D01*
X-30307943Y15694667D01*
X-30249274Y15605809D01*
X-30173175Y15451901D01*
X-30155745Y15386853D01*
X-31048999Y15077787D02*
X-31161667Y14977878D01*
X-31226715Y14960449D01*
X-31333004Y14966828D01*
X-31456721Y15038257D01*
X-31515391Y15127115D01*
X-31532820Y15192164D01*
X-31526441Y15298452D01*
X-31335964Y15628367D01*
X-30469939Y15128367D01*
X-30636606Y14839692D01*
X-30725464Y14781023D01*
X-30790513Y14763593D01*
X-30896801Y14769973D01*
X-30979280Y14817592D01*
X-31037949Y14906450D01*
X-31055378Y14971499D01*
X-31048999Y15077787D01*
X-30882332Y15366462D01*
X-32118260Y15035296D02*
X-32100830Y14970247D01*
X-32024731Y14816340D01*
X-31966062Y14727482D01*
X-31866154Y14614814D01*
X-31683767Y14454527D01*
X-31518809Y14359289D01*
X-31288803Y14281481D01*
X-31141276Y14251291D01*
X-31034988Y14244912D01*
X-30863651Y14255962D01*
X-30798602Y14273391D01*
%TO.C,U.S. 6 (T)*%
X-33996381Y3269810D02*
X-34805905Y3269810D01*
X-34901143Y3222191D01*
X-34948762Y3174572D01*
X-34996381Y3079334D01*
X-34996381Y2888858D01*
X-34948762Y2793620D01*
X-34901143Y2746000D01*
X-34805905Y2698381D01*
X-33996381Y2698381D01*
X-34901143Y2222191D02*
X-34948762Y2174572D01*
X-34996381Y2222191D01*
X-34948762Y2269810D01*
X-34901143Y2222191D01*
X-34996381Y2222191D01*
X-34948762Y1793620D02*
X-34996381Y1650762D01*
X-34996381Y1412667D01*
X-34948762Y1317429D01*
X-34901143Y1269810D01*
X-34805905Y1222191D01*
X-34710667Y1222191D01*
X-34615429Y1269810D01*
X-34567810Y1317429D01*
X-34520191Y1412667D01*
X-34472572Y1603143D01*
X-34424953Y1698381D01*
X-34377334Y1746000D01*
X-34282096Y1793620D01*
X-34186858Y1793620D01*
X-34091620Y1746000D01*
X-34044000Y1698381D01*
X-33996381Y1603143D01*
X-33996381Y1365048D01*
X-34044000Y1222191D01*
X-34901143Y793620D02*
X-34948762Y746000D01*
X-34996381Y793620D01*
X-34948762Y841239D01*
X-34901143Y793620D01*
X-34996381Y793620D01*
X-33996381Y-873047D02*
X-33996381Y-682571D01*
X-34044000Y-587333D01*
X-34091620Y-539714D01*
X-34234477Y-444476D01*
X-34424953Y-396857D01*
X-34805905Y-396857D01*
X-34901143Y-444476D01*
X-34948762Y-492095D01*
X-34996381Y-587333D01*
X-34996381Y-777809D01*
X-34948762Y-873047D01*
X-34901143Y-920666D01*
X-34805905Y-968285D01*
X-34567810Y-968285D01*
X-34472572Y-920666D01*
X-34424953Y-873047D01*
X-34377334Y-777809D01*
X-34377334Y-587333D01*
X-34424953Y-492095D01*
X-34472572Y-444476D01*
X-34567810Y-396857D01*
X-35377334Y-2444476D02*
X-35329715Y-2396857D01*
X-35186858Y-2301619D01*
X-35091620Y-2254000D01*
X-34948762Y-2206380D01*
X-34710667Y-2158761D01*
X-34520191Y-2158761D01*
X-34282096Y-2206380D01*
X-34139239Y-2254000D01*
X-34044000Y-2301619D01*
X-33901143Y-2396857D01*
X-33853524Y-2444476D01*
X-33996381Y-2682571D02*
X-33996381Y-3254000D01*
X-34996381Y-2968285D02*
X-33996381Y-2968285D01*
X-35377334Y-3492095D02*
X-35329715Y-3539714D01*
X-35186858Y-3634952D01*
X-35091620Y-3682571D01*
X-34948762Y-3730190D01*
X-34710667Y-3777809D01*
X-34520191Y-3777809D01*
X-34282096Y-3730190D01*
X-34139239Y-3682571D01*
X-34044000Y-3634952D01*
X-33901143Y-3539714D01*
X-33853524Y-3492095D01*
%TO.C,U.S. 7 (B)*%
X-31319177Y-13589383D02*
X-32020245Y-13994145D01*
X-32078914Y-14083003D01*
X-32096344Y-14148052D01*
X-32089964Y-14254340D01*
X-31994726Y-14419298D01*
X-31905868Y-14477967D01*
X-31840819Y-14495396D01*
X-31734531Y-14489017D01*
X-31033463Y-14084255D01*
X-31578914Y-14949029D02*
X-31596344Y-15014078D01*
X-31661393Y-14996648D01*
X-31643963Y-14931599D01*
X-31578914Y-14949029D01*
X-31661393Y-14996648D01*
X-31405868Y-15343992D02*
X-31375679Y-15491520D01*
X-31256631Y-15697716D01*
X-31167773Y-15756385D01*
X-31102724Y-15773815D01*
X-30996436Y-15767435D01*
X-30913957Y-15719816D01*
X-30855288Y-15630958D01*
X-30837858Y-15565909D01*
X-30844238Y-15459621D01*
X-30898237Y-15270854D01*
X-30904617Y-15164566D01*
X-30887187Y-15099517D01*
X-30828518Y-15010659D01*
X-30746039Y-14963040D01*
X-30639751Y-14956660D01*
X-30574702Y-14974090D01*
X-30485844Y-15032759D01*
X-30366796Y-15238955D01*
X-30336607Y-15386483D01*
X-30864629Y-16186208D02*
X-30882058Y-16251257D01*
X-30947107Y-16233827D01*
X-30929677Y-16168778D01*
X-30864629Y-16186208D01*
X-30947107Y-16233827D01*
X-29509653Y-16723570D02*
X-29176320Y-17300921D01*
X-30256631Y-17429767D01*
X-29657974Y-19228576D02*
X-29640544Y-19163527D01*
X-29564445Y-19009620D01*
X-29505776Y-18920762D01*
X-29405868Y-18808094D01*
X-29223481Y-18647807D01*
X-29058524Y-18552569D01*
X-28828518Y-18474760D01*
X-28680990Y-18444571D01*
X-28574702Y-18438191D01*
X-28403365Y-18449241D01*
X-28338316Y-18466671D01*
X-28517284Y-19394785D02*
X-28487095Y-19542312D01*
X-28504525Y-19607361D01*
X-28563194Y-19696219D01*
X-28686912Y-19767648D01*
X-28793200Y-19774027D01*
X-28858249Y-19756598D01*
X-28947107Y-19697929D01*
X-29137583Y-19368014D01*
X-28271558Y-18868014D01*
X-28104891Y-19156689D01*
X-28098512Y-19262977D01*
X-28115941Y-19328026D01*
X-28174610Y-19416885D01*
X-28257089Y-19464504D01*
X-28363377Y-19470883D01*
X-28428426Y-19453454D01*
X-28517284Y-19394785D01*
X-28683951Y-19106109D01*
X-29015117Y-20342037D02*
X-28950068Y-20359467D01*
X-28778731Y-20370517D01*
X-28672443Y-20364137D01*
X-28524916Y-20333948D01*
X-28294909Y-20256140D01*
X-28129952Y-20160902D01*
X-27947565Y-20000615D01*
X-27847657Y-19887947D01*
X-27788988Y-19799088D01*
X-27712889Y-19645181D01*
X-27695459Y-19580132D01*
%TO.C,U.S. 8 (T)*%
X-20049900Y-27481843D02*
X-20454661Y-28182911D01*
X-20461041Y-28289199D01*
X-20443611Y-28354248D01*
X-20384942Y-28443106D01*
X-20219985Y-28538344D01*
X-20113697Y-28544724D01*
X-20048648Y-28527294D01*
X-19959790Y-28468625D01*
X-19555028Y-27767557D01*
X-19595016Y-28789199D02*
X-19577586Y-28854248D01*
X-19642635Y-28871678D01*
X-19660065Y-28806629D01*
X-19595016Y-28789199D01*
X-19642635Y-28871678D01*
X-19247672Y-29044724D02*
X-19147763Y-29157392D01*
X-18941567Y-29276440D01*
X-18835279Y-29282819D01*
X-18770230Y-29265390D01*
X-18681371Y-29206720D01*
X-18633752Y-29124242D01*
X-18627373Y-29017954D01*
X-18644802Y-28952905D01*
X-18703471Y-28864047D01*
X-18844619Y-28727569D01*
X-18903288Y-28638711D01*
X-18920718Y-28573662D01*
X-18914338Y-28467374D01*
X-18866719Y-28384895D01*
X-18777861Y-28326226D01*
X-18712812Y-28308796D01*
X-18606524Y-28315176D01*
X-18400327Y-28434224D01*
X-18300419Y-28546892D01*
X-18357837Y-29503485D02*
X-18340407Y-29568534D01*
X-18405456Y-29585963D01*
X-18422885Y-29520915D01*
X-18357837Y-29503485D01*
X-18405456Y-29585963D01*
X-16923802Y-29781568D02*
X-16982471Y-29692710D01*
X-16999900Y-29627661D01*
X-16993521Y-29521373D01*
X-16969711Y-29480133D01*
X-16880853Y-29421464D01*
X-16815804Y-29404034D01*
X-16709516Y-29410414D01*
X-16544559Y-29505652D01*
X-16485890Y-29594511D01*
X-16468460Y-29659559D01*
X-16474839Y-29765848D01*
X-16498649Y-29807087D01*
X-16587507Y-29865756D01*
X-16652556Y-29883186D01*
X-16758844Y-29876806D01*
X-16923802Y-29781568D01*
X-17030090Y-29775188D01*
X-17095139Y-29792618D01*
X-17183997Y-29851287D01*
X-17279235Y-30016244D01*
X-17285615Y-30122532D01*
X-17268185Y-30187581D01*
X-17209516Y-30276440D01*
X-17044559Y-30371678D01*
X-16938270Y-30378057D01*
X-16873222Y-30360628D01*
X-16784363Y-30301959D01*
X-16689125Y-30137001D01*
X-16682745Y-30030713D01*
X-16700175Y-29965664D01*
X-16758844Y-29876806D01*
X-15791659Y-31534925D02*
X-15809089Y-31469877D01*
X-15820139Y-31298540D01*
X-15813759Y-31192252D01*
X-15783570Y-31044724D01*
X-15705762Y-30814718D01*
X-15610524Y-30649761D01*
X-15450237Y-30467374D01*
X-15337569Y-30367465D01*
X-15248710Y-30308796D01*
X-15094803Y-30232697D01*
X-15029754Y-30215268D01*
X-14894986Y-30458033D02*
X-14400115Y-30743747D01*
X-15147551Y-31466916D02*
X-14647551Y-30600890D01*
X-14884394Y-32058735D02*
X-14819346Y-32041305D01*
X-14665438Y-31965206D01*
X-14576580Y-31906537D01*
X-14463912Y-31806629D01*
X-14303625Y-31624242D01*
X-14208387Y-31459285D01*
X-14130579Y-31229279D01*
X-14100390Y-31081751D01*
X-14094010Y-30975463D01*
X-14105060Y-30804126D01*
X-14122490Y-30739077D01*
%TO.C,U.S. 9 (B)*%
X-3896858Y-33996380D02*
X-3896858Y-34805904D01*
X-3849239Y-34901142D01*
X-3801620Y-34948761D01*
X-3706381Y-34996380D01*
X-3515905Y-34996380D01*
X-3420667Y-34948761D01*
X-3373048Y-34901142D01*
X-3325429Y-34805904D01*
X-3325429Y-33996380D01*
X-2849239Y-34901142D02*
X-2801620Y-34948761D01*
X-2849239Y-34996380D01*
X-2896858Y-34948761D01*
X-2849239Y-34901142D01*
X-2849239Y-34996380D01*
X-2420667Y-34948761D02*
X-2277810Y-34996380D01*
X-2039715Y-34996380D01*
X-1944477Y-34948761D01*
X-1896858Y-34901142D01*
X-1849239Y-34805904D01*
X-1849239Y-34710666D01*
X-1896858Y-34615428D01*
X-1944477Y-34567809D01*
X-2039715Y-34520190D01*
X-2230191Y-34472571D01*
X-2325429Y-34424952D01*
X-2373048Y-34377333D01*
X-2420667Y-34282095D01*
X-2420667Y-34186857D01*
X-2373048Y-34091619D01*
X-2325429Y-34044000D01*
X-2230191Y-33996380D01*
X-1992096Y-33996380D01*
X-1849239Y-34044000D01*
X-1420667Y-34901142D02*
X-1373048Y-34948761D01*
X-1420667Y-34996380D01*
X-1468286Y-34948761D01*
X-1420667Y-34901142D01*
X-1420667Y-34996380D01*
X-134953Y-34996380D02*
X55523Y-34996380D01*
X150761Y-34948761D01*
X198380Y-34901142D01*
X293619Y-34758285D01*
X341238Y-34567809D01*
X341238Y-34186857D01*
X293619Y-34091619D01*
X246000Y-34044000D01*
X150761Y-33996380D01*
X-39715Y-33996380D01*
X-134953Y-34044000D01*
X-182572Y-34091619D01*
X-230191Y-34186857D01*
X-230191Y-34424952D01*
X-182572Y-34520190D01*
X-134953Y-34567809D01*
X-39715Y-34615428D01*
X150761Y-34615428D01*
X246000Y-34567809D01*
X293619Y-34520190D01*
X341238Y-34424952D01*
X1817428Y-35377333D02*
X1769809Y-35329714D01*
X1674571Y-35186857D01*
X1626952Y-35091619D01*
X1579333Y-34948761D01*
X1531714Y-34710666D01*
X1531714Y-34520190D01*
X1579333Y-34282095D01*
X1626952Y-34139238D01*
X1674571Y-34044000D01*
X1769809Y-33901142D01*
X1817428Y-33853523D01*
X2531714Y-34472571D02*
X2674571Y-34520190D01*
X2722190Y-34567809D01*
X2769809Y-34663047D01*
X2769809Y-34805904D01*
X2722190Y-34901142D01*
X2674571Y-34948761D01*
X2579333Y-34996380D01*
X2198380Y-34996380D01*
X2198380Y-33996380D01*
X2531714Y-33996380D01*
X2626952Y-34044000D01*
X2674571Y-34091619D01*
X2722190Y-34186857D01*
X2722190Y-34282095D01*
X2674571Y-34377333D01*
X2626952Y-34424952D01*
X2531714Y-34472571D01*
X2198380Y-34472571D01*
X3103142Y-35377333D02*
X3150761Y-35329714D01*
X3246000Y-35186857D01*
X3293619Y-35091619D01*
X3341238Y-34948761D01*
X3388857Y-34710666D01*
X3388857Y-34520190D01*
X3341238Y-34282095D01*
X3293619Y-34139238D01*
X3246000Y-34044000D01*
X3150761Y-33901142D01*
X3103142Y-33853523D01*
%TO.C,U.S. 10 (T)*%
X13534088Y-31497747D02*
X13938850Y-32198816D01*
X14027709Y-32257485D01*
X14092757Y-32274915D01*
X14199046Y-32268535D01*
X14364003Y-32173297D01*
X14422672Y-32084438D01*
X14440102Y-32019390D01*
X14433722Y-31913101D01*
X14028960Y-31212033D01*
X14893734Y-31757485D02*
X14958783Y-31774915D01*
X14941353Y-31839963D01*
X14876304Y-31822534D01*
X14893734Y-31757485D01*
X14941353Y-31839963D01*
X15288697Y-31584438D02*
X15436225Y-31554249D01*
X15642421Y-31435201D01*
X15701090Y-31346343D01*
X15718520Y-31281294D01*
X15712140Y-31175006D01*
X15664521Y-31092528D01*
X15575663Y-31033858D01*
X15510614Y-31016429D01*
X15404326Y-31022808D01*
X15215559Y-31076807D01*
X15109271Y-31083187D01*
X15044222Y-31065757D01*
X14955364Y-31007088D01*
X14907745Y-30924609D01*
X14901365Y-30818321D01*
X14918795Y-30753273D01*
X14977464Y-30664414D01*
X15183661Y-30545367D01*
X15331188Y-30515177D01*
X16130913Y-31043199D02*
X16195962Y-31060629D01*
X16178532Y-31125678D01*
X16113483Y-31108248D01*
X16130913Y-31043199D01*
X16178532Y-31125678D01*
X17704387Y-30244725D02*
X17209515Y-30530440D01*
X17456951Y-30387582D02*
X16956951Y-29521557D01*
X16945901Y-29692894D01*
X16911041Y-29822992D01*
X16852372Y-29911850D01*
X17740497Y-29069176D02*
X17822976Y-29021557D01*
X17929264Y-29015177D01*
X17994313Y-29032607D01*
X18083171Y-29091276D01*
X18219649Y-29232424D01*
X18338696Y-29438620D01*
X18392695Y-29627387D01*
X18399075Y-29733675D01*
X18381645Y-29798724D01*
X18322976Y-29887582D01*
X18240497Y-29935201D01*
X18134209Y-29941581D01*
X18069161Y-29924151D01*
X17980302Y-29865482D01*
X17843825Y-29724335D01*
X17724777Y-29518138D01*
X17670778Y-29329371D01*
X17664399Y-29223083D01*
X17681828Y-29158034D01*
X17740497Y-29069176D01*
X19998067Y-29360354D02*
X19933018Y-29342924D01*
X19779111Y-29266825D01*
X19690253Y-29208156D01*
X19577585Y-29108248D01*
X19417298Y-28925861D01*
X19322060Y-28760904D01*
X19244252Y-28530898D01*
X19214062Y-28383370D01*
X19207683Y-28277082D01*
X19218733Y-28105745D01*
X19236162Y-28040696D01*
X19513788Y-28045367D02*
X20008659Y-27759652D01*
X20261223Y-28768535D02*
X19761223Y-27902509D01*
X20905332Y-28836544D02*
X20922762Y-28771496D01*
X20933812Y-28600159D01*
X20927432Y-28493871D01*
X20897243Y-28346343D01*
X20819434Y-28116337D01*
X20724196Y-27951380D01*
X20563909Y-27768993D01*
X20451242Y-27669084D01*
X20362383Y-27610415D01*
X20208476Y-27534317D01*
X20143427Y-27516887D01*
%TO.C,U.S. 11 (B)*%
X27172224Y-20819390D02*
X27873292Y-21224152D01*
X27979580Y-21230532D01*
X28044629Y-21213102D01*
X28133487Y-21154433D01*
X28228725Y-20989475D01*
X28235105Y-20883187D01*
X28217675Y-20818138D01*
X28159006Y-20729280D01*
X27457938Y-20324518D01*
X28479580Y-20364506D02*
X28544629Y-20347076D01*
X28562059Y-20412125D01*
X28497010Y-20429555D01*
X28479580Y-20364506D01*
X28562059Y-20412125D01*
X28735105Y-20017162D02*
X28847773Y-19917253D01*
X28966821Y-19711057D01*
X28973200Y-19604769D01*
X28955770Y-19539720D01*
X28897101Y-19450862D01*
X28814623Y-19403243D01*
X28708335Y-19396863D01*
X28643286Y-19414293D01*
X28554427Y-19472962D01*
X28417950Y-19614109D01*
X28329092Y-19672779D01*
X28264043Y-19690208D01*
X28157755Y-19683829D01*
X28075276Y-19636209D01*
X28016607Y-19547351D01*
X27999177Y-19482302D01*
X28005557Y-19376014D01*
X28124605Y-19169818D01*
X28237273Y-19069909D01*
X29193866Y-19127327D02*
X29258915Y-19109897D01*
X29276344Y-19174946D01*
X29211295Y-19192376D01*
X29193866Y-19127327D01*
X29276344Y-19174946D01*
X30157297Y-17649092D02*
X29871582Y-18143963D01*
X30014440Y-17896528D02*
X29148414Y-17396528D01*
X29224513Y-17550435D01*
X29259373Y-17680532D01*
X29252993Y-17786821D01*
X30633487Y-16824306D02*
X30347773Y-17319177D01*
X30490630Y-17071741D02*
X29624605Y-16571741D01*
X29700704Y-16725649D01*
X29735563Y-16855746D01*
X29729183Y-16962034D01*
X31701497Y-15736363D02*
X31636448Y-15753793D01*
X31465111Y-15764843D01*
X31358823Y-15758463D01*
X31211295Y-15728274D01*
X30981289Y-15650466D01*
X30816332Y-15555228D01*
X30633945Y-15394941D01*
X30534037Y-15282273D01*
X30475368Y-15193415D01*
X30399269Y-15039507D01*
X30381839Y-14974459D01*
X31275093Y-14665393D02*
X31387761Y-14565484D01*
X31452810Y-14548055D01*
X31559098Y-14554434D01*
X31682816Y-14625863D01*
X31741485Y-14714721D01*
X31758915Y-14779770D01*
X31752535Y-14886058D01*
X31562059Y-15215973D01*
X30696033Y-14715973D01*
X30862700Y-14427298D01*
X30951558Y-14368629D01*
X31016607Y-14351199D01*
X31122895Y-14357578D01*
X31205374Y-14405198D01*
X31264043Y-14494056D01*
X31281473Y-14559105D01*
X31275093Y-14665393D01*
X31108426Y-14954068D01*
X32344354Y-14622902D02*
X32326924Y-14557853D01*
X32250825Y-14403946D01*
X32192156Y-14315088D01*
X32092248Y-14202420D01*
X31909861Y-14042133D01*
X31744904Y-13946895D01*
X31514898Y-13869087D01*
X31367370Y-13838897D01*
X31261082Y-13832518D01*
X31089745Y-13843568D01*
X31024696Y-13860997D01*
%TO.C,XTAL*%
X992380Y-20655380D02*
X1659047Y-21655380D01*
X1659047Y-20655380D02*
X992380Y-21655380D01*
X1897142Y-20655380D02*
X2468571Y-20655380D01*
X2182857Y-21655380D02*
X2182857Y-20655380D01*
X2754285Y-21369666D02*
X3230476Y-21369666D01*
X2659047Y-21655380D02*
X2992380Y-20655380D01*
X3325714Y-21655380D01*
X4135238Y-21655380D02*
X3659047Y-21655380D01*
X3659047Y-20655380D01*
%TO.C,CAN*%
X7231142Y23264858D02*
X7183523Y23217239D01*
X7040666Y23169620D01*
X6945428Y23169620D01*
X6802571Y23217239D01*
X6707333Y23312477D01*
X6659714Y23407715D01*
X6612095Y23598191D01*
X6612095Y23741048D01*
X6659714Y23931524D01*
X6707333Y24026762D01*
X6802571Y24122000D01*
X6945428Y24169620D01*
X7040666Y24169620D01*
X7183523Y24122000D01*
X7231142Y24074381D01*
X7612095Y23455334D02*
X8088285Y23455334D01*
X7516857Y23169620D02*
X7850190Y24169620D01*
X8183523Y23169620D01*
X8516857Y23169620D02*
X8516857Y24169620D01*
X9088285Y23169620D01*
X9088285Y24169620D01*
%TD*%
M02*
