%TF.GenerationSoftware,KiCad,Pcbnew,5.1.9+dfsg1-1+deb11u1*%
%TF.CreationDate,2022-11-12T21:31:23+01:00*%
%TF.ProjectId,ultrasonic_board,756c7472-6173-46f6-9e69-635f626f6172,rev?*%
%TF.SameCoordinates,PX8b48bd0PY4eb9cf0*%
%TF.FileFunction,Soldermask,Bot*%
%TF.FilePolarity,Negative*%
%FSLAX46Y46*%
G04 Gerber Fmt 4.6, Leading zero omitted, Abs format (unit mm)*
G04 Created by KiCad (PCBNEW 5.1.9+dfsg1-1+deb11u1) date 2022-11-12 21:31:23*
%MOMM*%
%LPD*%
G01*
G04 APERTURE LIST*
%ADD10C,2.000000*%
%ADD11O,2.190000X1.740000*%
%ADD12R,1.700000X1.700000*%
%ADD13O,1.700000X1.700000*%
%ADD14O,1.740000X2.190000*%
%ADD15C,0.100000*%
%ADD16R,1.600000X1.600000*%
%ADD17C,1.600000*%
%ADD18C,4.000000*%
G04 APERTURE END LIST*
D10*
%TO.C,RESET*%
X-12700000Y2104000D03*
X-12700000Y6604000D03*
X-6200000Y2104000D03*
X-6200000Y6604000D03*
%TD*%
%TO.C,LED*%
G36*
G01*
X-21506999Y-7728000D02*
X-23197001Y-7728000D01*
G75*
G02*
X-23447000Y-7478001I0J249999D01*
G01*
X-23447000Y-6237999D01*
G75*
G02*
X-23197001Y-5988000I249999J0D01*
G01*
X-21506999Y-5988000D01*
G75*
G02*
X-21257000Y-6237999I0J-249999D01*
G01*
X-21257000Y-7478001D01*
G75*
G02*
X-21506999Y-7728000I-249999J0D01*
G01*
G37*
D11*
X-22352000Y-4318000D03*
X-22352000Y-1778000D03*
%TD*%
D12*
%TO.C,J2*%
X0Y4064000D03*
D13*
X2540000Y4064000D03*
X0Y1524000D03*
X2540000Y1524000D03*
X0Y-1016000D03*
X2540000Y-1016000D03*
%TD*%
%TO.C,I2C*%
G36*
G01*
X-17126000Y-18879001D02*
X-17126000Y-17188999D01*
G75*
G02*
X-16876001Y-16939000I249999J0D01*
G01*
X-15635999Y-16939000D01*
G75*
G02*
X-15386000Y-17188999I0J-249999D01*
G01*
X-15386000Y-18879001D01*
G75*
G02*
X-15635999Y-19129000I-249999J0D01*
G01*
X-16876001Y-19129000D01*
G75*
G02*
X-17126000Y-18879001I0J249999D01*
G01*
G37*
D14*
X-13716000Y-18034000D03*
X-11176000Y-18034000D03*
X-8636000Y-18034000D03*
%TD*%
D13*
%TO.C,U.S. 0 (T)*%
X30480000Y3810000D03*
X30480000Y1270000D03*
X30480000Y-1270000D03*
D12*
X30480000Y-3810000D03*
%TD*%
D15*
%TO.C,U.S. 1 (B)*%
G36*
X24199878Y17380878D02*
G01*
X23349878Y18853122D01*
X24822122Y19703122D01*
X25672122Y18230878D01*
X24199878Y17380878D01*
G37*
G36*
G01*
X25044878Y15917295D02*
X25044878Y15917295D01*
G75*
G02*
X25356000Y17078417I736122J425000D01*
G01*
X25356000Y17078417D01*
G75*
G02*
X26517122Y16767295I425000J-736122D01*
G01*
X26517122Y16767295D01*
G75*
G02*
X26206000Y15606173I-736122J-425000D01*
G01*
X26206000Y15606173D01*
G75*
G02*
X25044878Y15917295I-425000J736122D01*
G01*
G37*
G36*
G01*
X26314878Y13717591D02*
X26314878Y13717591D01*
G75*
G02*
X26626000Y14878713I736122J425000D01*
G01*
X26626000Y14878713D01*
G75*
G02*
X27787122Y14567591I425000J-736122D01*
G01*
X27787122Y14567591D01*
G75*
G02*
X27476000Y13406469I-736122J-425000D01*
G01*
X27476000Y13406469D01*
G75*
G02*
X26314878Y13717591I-425000J736122D01*
G01*
G37*
G36*
G01*
X27584878Y11517886D02*
X27584878Y11517886D01*
G75*
G02*
X27896000Y12679008I736122J425000D01*
G01*
X27896000Y12679008D01*
G75*
G02*
X29057122Y12367886I425000J-736122D01*
G01*
X29057122Y12367886D01*
G75*
G02*
X28746000Y11206764I-736122J-425000D01*
G01*
X28746000Y11206764D01*
G75*
G02*
X27584878Y11517886I-425000J736122D01*
G01*
G37*
%TD*%
%TO.C,U.S. 2 (T)*%
G36*
X18230878Y25672122D02*
G01*
X19703122Y24822122D01*
X18853122Y23349878D01*
X17380878Y24199878D01*
X18230878Y25672122D01*
G37*
G36*
G01*
X16767295Y26517122D02*
X16767295Y26517122D01*
G75*
G02*
X17078417Y25356000I-425000J-736122D01*
G01*
X17078417Y25356000D01*
G75*
G02*
X15917295Y25044878I-736122J425000D01*
G01*
X15917295Y25044878D01*
G75*
G02*
X15606173Y26206000I425000J736122D01*
G01*
X15606173Y26206000D01*
G75*
G02*
X16767295Y26517122I736122J-425000D01*
G01*
G37*
G36*
G01*
X14567591Y27787122D02*
X14567591Y27787122D01*
G75*
G02*
X14878713Y26626000I-425000J-736122D01*
G01*
X14878713Y26626000D01*
G75*
G02*
X13717591Y26314878I-736122J425000D01*
G01*
X13717591Y26314878D01*
G75*
G02*
X13406469Y27476000I425000J736122D01*
G01*
X13406469Y27476000D01*
G75*
G02*
X14567591Y27787122I736122J-425000D01*
G01*
G37*
G36*
G01*
X12367886Y29057122D02*
X12367886Y29057122D01*
G75*
G02*
X12679008Y27896000I-425000J-736122D01*
G01*
X12679008Y27896000D01*
G75*
G02*
X11517886Y27584878I-736122J425000D01*
G01*
X11517886Y27584878D01*
G75*
G02*
X11206764Y28746000I425000J736122D01*
G01*
X11206764Y28746000D01*
G75*
G02*
X12367886Y29057122I736122J-425000D01*
G01*
G37*
%TD*%
D13*
%TO.C,U.S. 3 (B)*%
X3810000Y30480000D03*
X1270000Y30480000D03*
X-1270000Y30480000D03*
D12*
X-3810000Y30480000D03*
%TD*%
%TO.C,U.S. 4 (T)*%
G36*
G01*
X-18962114Y25247122D02*
X-18962114Y25247122D01*
G75*
G02*
X-17800992Y24936000I425000J-736122D01*
G01*
X-17800992Y24936000D01*
G75*
G02*
X-18112114Y23774878I-736122J-425000D01*
G01*
X-18112114Y23774878D01*
G75*
G02*
X-19273236Y24086000I-425000J736122D01*
G01*
X-19273236Y24086000D01*
G75*
G02*
X-18962114Y25247122I736122J425000D01*
G01*
G37*
G36*
G01*
X-16762409Y26517122D02*
X-16762409Y26517122D01*
G75*
G02*
X-15601287Y26206000I425000J-736122D01*
G01*
X-15601287Y26206000D01*
G75*
G02*
X-15912409Y25044878I-736122J-425000D01*
G01*
X-15912409Y25044878D01*
G75*
G02*
X-17073531Y25356000I-425000J736122D01*
G01*
X-17073531Y25356000D01*
G75*
G02*
X-16762409Y26517122I736122J425000D01*
G01*
G37*
G36*
G01*
X-14562705Y27787122D02*
X-14562705Y27787122D01*
G75*
G02*
X-13401583Y27476000I425000J-736122D01*
G01*
X-13401583Y27476000D01*
G75*
G02*
X-13712705Y26314878I-736122J-425000D01*
G01*
X-13712705Y26314878D01*
G75*
G02*
X-14873827Y26626000I-425000J736122D01*
G01*
X-14873827Y26626000D01*
G75*
G02*
X-14562705Y27787122I736122J425000D01*
G01*
G37*
D15*
G36*
X-13099122Y28632122D02*
G01*
X-11626878Y29482122D01*
X-10776878Y28009878D01*
X-12249122Y27159878D01*
X-13099122Y28632122D01*
G37*
%TD*%
%TO.C,U.S. 5 (B)*%
G36*
X-27159878Y12249122D02*
G01*
X-28009878Y10776878D01*
X-29482122Y11626878D01*
X-28632122Y13099122D01*
X-27159878Y12249122D01*
G37*
G36*
G01*
X-26314878Y13712705D02*
X-26314878Y13712705D01*
G75*
G02*
X-27476000Y13401583I-736122J425000D01*
G01*
X-27476000Y13401583D01*
G75*
G02*
X-27787122Y14562705I425000J736122D01*
G01*
X-27787122Y14562705D01*
G75*
G02*
X-26626000Y14873827I736122J-425000D01*
G01*
X-26626000Y14873827D01*
G75*
G02*
X-26314878Y13712705I-425000J-736122D01*
G01*
G37*
G36*
G01*
X-25044878Y15912409D02*
X-25044878Y15912409D01*
G75*
G02*
X-26206000Y15601287I-736122J425000D01*
G01*
X-26206000Y15601287D01*
G75*
G02*
X-26517122Y16762409I425000J736122D01*
G01*
X-26517122Y16762409D01*
G75*
G02*
X-25356000Y17073531I736122J-425000D01*
G01*
X-25356000Y17073531D01*
G75*
G02*
X-25044878Y15912409I-425000J-736122D01*
G01*
G37*
G36*
G01*
X-23774878Y18112114D02*
X-23774878Y18112114D01*
G75*
G02*
X-24936000Y17800992I-736122J425000D01*
G01*
X-24936000Y17800992D01*
G75*
G02*
X-25247122Y18962114I425000J736122D01*
G01*
X-25247122Y18962114D01*
G75*
G02*
X-24086000Y19273236I736122J-425000D01*
G01*
X-24086000Y19273236D01*
G75*
G02*
X-23774878Y18112114I-425000J-736122D01*
G01*
G37*
%TD*%
D12*
%TO.C,U.S. 6 (T)*%
X-30480000Y3810000D03*
D13*
X-30480000Y1270000D03*
X-30480000Y-1270000D03*
X-30480000Y-3810000D03*
%TD*%
%TO.C,U.S. 7 (B)*%
G36*
G01*
X-27584878Y-11644886D02*
X-27584878Y-11644886D01*
G75*
G02*
X-27896000Y-12806008I-736122J-425000D01*
G01*
X-27896000Y-12806008D01*
G75*
G02*
X-29057122Y-12494886I-425000J736122D01*
G01*
X-29057122Y-12494886D01*
G75*
G02*
X-28746000Y-11333764I736122J425000D01*
G01*
X-28746000Y-11333764D01*
G75*
G02*
X-27584878Y-11644886I425000J-736122D01*
G01*
G37*
G36*
G01*
X-26314878Y-13844591D02*
X-26314878Y-13844591D01*
G75*
G02*
X-26626000Y-15005713I-736122J-425000D01*
G01*
X-26626000Y-15005713D01*
G75*
G02*
X-27787122Y-14694591I-425000J736122D01*
G01*
X-27787122Y-14694591D01*
G75*
G02*
X-27476000Y-13533469I736122J425000D01*
G01*
X-27476000Y-13533469D01*
G75*
G02*
X-26314878Y-13844591I425000J-736122D01*
G01*
G37*
G36*
G01*
X-25044878Y-16044295D02*
X-25044878Y-16044295D01*
G75*
G02*
X-25356000Y-17205417I-736122J-425000D01*
G01*
X-25356000Y-17205417D01*
G75*
G02*
X-26517122Y-16894295I-425000J736122D01*
G01*
X-26517122Y-16894295D01*
G75*
G02*
X-26206000Y-15733173I736122J425000D01*
G01*
X-26206000Y-15733173D01*
G75*
G02*
X-25044878Y-16044295I425000J-736122D01*
G01*
G37*
D15*
G36*
X-24199878Y-17507878D02*
G01*
X-23349878Y-18980122D01*
X-24822122Y-19830122D01*
X-25672122Y-18357878D01*
X-24199878Y-17507878D01*
G37*
%TD*%
%TO.C,U.S. 8 (T)*%
G36*
X-18230878Y-25799122D02*
G01*
X-19703122Y-24949122D01*
X-18853122Y-23476878D01*
X-17380878Y-24326878D01*
X-18230878Y-25799122D01*
G37*
G36*
G01*
X-16767295Y-26644122D02*
X-16767295Y-26644122D01*
G75*
G02*
X-17078417Y-25483000I425000J736122D01*
G01*
X-17078417Y-25483000D01*
G75*
G02*
X-15917295Y-25171878I736122J-425000D01*
G01*
X-15917295Y-25171878D01*
G75*
G02*
X-15606173Y-26333000I-425000J-736122D01*
G01*
X-15606173Y-26333000D01*
G75*
G02*
X-16767295Y-26644122I-736122J425000D01*
G01*
G37*
G36*
G01*
X-14567591Y-27914122D02*
X-14567591Y-27914122D01*
G75*
G02*
X-14878713Y-26753000I425000J736122D01*
G01*
X-14878713Y-26753000D01*
G75*
G02*
X-13717591Y-26441878I736122J-425000D01*
G01*
X-13717591Y-26441878D01*
G75*
G02*
X-13406469Y-27603000I-425000J-736122D01*
G01*
X-13406469Y-27603000D01*
G75*
G02*
X-14567591Y-27914122I-736122J425000D01*
G01*
G37*
G36*
G01*
X-12367886Y-29184122D02*
X-12367886Y-29184122D01*
G75*
G02*
X-12679008Y-28023000I425000J736122D01*
G01*
X-12679008Y-28023000D01*
G75*
G02*
X-11517886Y-27711878I736122J-425000D01*
G01*
X-11517886Y-27711878D01*
G75*
G02*
X-11206764Y-28873000I-425000J-736122D01*
G01*
X-11206764Y-28873000D01*
G75*
G02*
X-12367886Y-29184122I-736122J425000D01*
G01*
G37*
%TD*%
D12*
%TO.C,U.S. 9 (B)*%
X3810000Y-30480000D03*
D13*
X1270000Y-30480000D03*
X-1270000Y-30480000D03*
X-3810000Y-30480000D03*
%TD*%
%TO.C,U.S. 10 (T)*%
G36*
G01*
X18835114Y-25247122D02*
X18835114Y-25247122D01*
G75*
G02*
X17673992Y-24936000I-425000J736122D01*
G01*
X17673992Y-24936000D01*
G75*
G02*
X17985114Y-23774878I736122J425000D01*
G01*
X17985114Y-23774878D01*
G75*
G02*
X19146236Y-24086000I425000J-736122D01*
G01*
X19146236Y-24086000D01*
G75*
G02*
X18835114Y-25247122I-736122J-425000D01*
G01*
G37*
G36*
G01*
X16635409Y-26517122D02*
X16635409Y-26517122D01*
G75*
G02*
X15474287Y-26206000I-425000J736122D01*
G01*
X15474287Y-26206000D01*
G75*
G02*
X15785409Y-25044878I736122J425000D01*
G01*
X15785409Y-25044878D01*
G75*
G02*
X16946531Y-25356000I425000J-736122D01*
G01*
X16946531Y-25356000D01*
G75*
G02*
X16635409Y-26517122I-736122J-425000D01*
G01*
G37*
G36*
G01*
X14435705Y-27787122D02*
X14435705Y-27787122D01*
G75*
G02*
X13274583Y-27476000I-425000J736122D01*
G01*
X13274583Y-27476000D01*
G75*
G02*
X13585705Y-26314878I736122J425000D01*
G01*
X13585705Y-26314878D01*
G75*
G02*
X14746827Y-26626000I425000J-736122D01*
G01*
X14746827Y-26626000D01*
G75*
G02*
X14435705Y-27787122I-736122J-425000D01*
G01*
G37*
D15*
G36*
X12972122Y-28632122D02*
G01*
X11499878Y-29482122D01*
X10649878Y-28009878D01*
X12122122Y-27159878D01*
X12972122Y-28632122D01*
G37*
%TD*%
%TO.C,U.S. 11 (B)*%
G36*
G01*
X23774878Y-18112114D02*
X23774878Y-18112114D01*
G75*
G02*
X24936000Y-17800992I736122J-425000D01*
G01*
X24936000Y-17800992D01*
G75*
G02*
X25247122Y-18962114I-425000J-736122D01*
G01*
X25247122Y-18962114D01*
G75*
G02*
X24086000Y-19273236I-736122J425000D01*
G01*
X24086000Y-19273236D01*
G75*
G02*
X23774878Y-18112114I425000J736122D01*
G01*
G37*
G36*
G01*
X25044878Y-15912409D02*
X25044878Y-15912409D01*
G75*
G02*
X26206000Y-15601287I736122J-425000D01*
G01*
X26206000Y-15601287D01*
G75*
G02*
X26517122Y-16762409I-425000J-736122D01*
G01*
X26517122Y-16762409D01*
G75*
G02*
X25356000Y-17073531I-736122J425000D01*
G01*
X25356000Y-17073531D01*
G75*
G02*
X25044878Y-15912409I425000J736122D01*
G01*
G37*
G36*
G01*
X26314878Y-13712705D02*
X26314878Y-13712705D01*
G75*
G02*
X27476000Y-13401583I736122J-425000D01*
G01*
X27476000Y-13401583D01*
G75*
G02*
X27787122Y-14562705I-425000J-736122D01*
G01*
X27787122Y-14562705D01*
G75*
G02*
X26626000Y-14873827I-736122J425000D01*
G01*
X26626000Y-14873827D01*
G75*
G02*
X26314878Y-13712705I425000J736122D01*
G01*
G37*
G36*
X27159878Y-12249122D02*
G01*
X28009878Y-10776878D01*
X29482122Y-11626878D01*
X28632122Y-13099122D01*
X27159878Y-12249122D01*
G37*
%TD*%
D16*
%TO.C,CAN*%
X5842000Y13970000D03*
D17*
X3072000Y13970000D03*
X302000Y13970000D03*
X-2468000Y13970000D03*
X-5238000Y13970000D03*
X4457000Y16810000D03*
X1687000Y16810000D03*
X-1083000Y16810000D03*
X-3853000Y16810000D03*
D18*
X12802000Y15390000D03*
X-12198000Y15390000D03*
%TD*%
M02*
