%TF.GenerationSoftware,KiCad,Pcbnew,5.1.9+dfsg1-1+deb11u1*%
%TF.CreationDate,2022-11-12T21:31:23+01:00*%
%TF.ProjectId,ultrasonic_board,756c7472-6173-46f6-9e69-635f626f6172,rev?*%
%TF.SameCoordinates,PX8b48bd0PY4eb9cf0*%
%TF.FileFunction,Soldermask,Top*%
%TF.FilePolarity,Negative*%
%FSLAX46Y46*%
G04 Gerber Fmt 4.6, Leading zero omitted, Abs format (unit mm)*
G04 Created by KiCad (PCBNEW 5.1.9+dfsg1-1+deb11u1) date 2022-11-12 21:31:23*
%MOMM*%
%LPD*%
G01*
G04 APERTURE LIST*
%ADD10C,2.000000*%
%ADD11O,2.190000X1.740000*%
%ADD12R,1.700000X1.700000*%
%ADD13O,1.700000X1.700000*%
%ADD14O,1.740000X2.190000*%
%ADD15C,0.100000*%
%ADD16R,1.600000X0.550000*%
%ADD17R,0.550000X1.600000*%
%ADD18R,4.500000X2.000000*%
%ADD19R,1.600000X1.600000*%
%ADD20C,1.600000*%
%ADD21C,4.000000*%
G04 APERTURE END LIST*
D10*
%TO.C,RESET*%
X-12700000Y2104000D03*
X-12700000Y6604000D03*
X-6200000Y2104000D03*
X-6200000Y6604000D03*
%TD*%
%TO.C,C1*%
G36*
G01*
X7575000Y-13593000D02*
X7575000Y-14093000D01*
G75*
G02*
X7350000Y-14318000I-225000J0D01*
G01*
X6900000Y-14318000D01*
G75*
G02*
X6675000Y-14093000I0J225000D01*
G01*
X6675000Y-13593000D01*
G75*
G02*
X6900000Y-13368000I225000J0D01*
G01*
X7350000Y-13368000D01*
G75*
G02*
X7575000Y-13593000I0J-225000D01*
G01*
G37*
G36*
G01*
X6025000Y-13593000D02*
X6025000Y-14093000D01*
G75*
G02*
X5800000Y-14318000I-225000J0D01*
G01*
X5350000Y-14318000D01*
G75*
G02*
X5125000Y-14093000I0J225000D01*
G01*
X5125000Y-13593000D01*
G75*
G02*
X5350000Y-13368000I225000J0D01*
G01*
X5800000Y-13368000D01*
G75*
G02*
X6025000Y-13593000I0J-225000D01*
G01*
G37*
%TD*%
%TO.C,C2*%
G36*
G01*
X-2865000Y-13593000D02*
X-2865000Y-14093000D01*
G75*
G02*
X-3090000Y-14318000I-225000J0D01*
G01*
X-3540000Y-14318000D01*
G75*
G02*
X-3765000Y-14093000I0J225000D01*
G01*
X-3765000Y-13593000D01*
G75*
G02*
X-3540000Y-13368000I225000J0D01*
G01*
X-3090000Y-13368000D01*
G75*
G02*
X-2865000Y-13593000I0J-225000D01*
G01*
G37*
G36*
G01*
X-1315000Y-13593000D02*
X-1315000Y-14093000D01*
G75*
G02*
X-1540000Y-14318000I-225000J0D01*
G01*
X-1990000Y-14318000D01*
G75*
G02*
X-2215000Y-14093000I0J225000D01*
G01*
X-2215000Y-13593000D01*
G75*
G02*
X-1990000Y-13368000I225000J0D01*
G01*
X-1540000Y-13368000D01*
G75*
G02*
X-1315000Y-13593000I0J-225000D01*
G01*
G37*
%TD*%
%TO.C,C3*%
G36*
G01*
X-3608000Y24596000D02*
X-3608000Y25696000D01*
G75*
G02*
X-3358000Y25946000I250000J0D01*
G01*
X-1258000Y25946000D01*
G75*
G02*
X-1008000Y25696000I0J-250000D01*
G01*
X-1008000Y24596000D01*
G75*
G02*
X-1258000Y24346000I-250000J0D01*
G01*
X-3358000Y24346000D01*
G75*
G02*
X-3608000Y24596000I0J250000D01*
G01*
G37*
G36*
G01*
X-8000Y24596000D02*
X-8000Y25696000D01*
G75*
G02*
X242000Y25946000I250000J0D01*
G01*
X2342000Y25946000D01*
G75*
G02*
X2592000Y25696000I0J-250000D01*
G01*
X2592000Y24596000D01*
G75*
G02*
X2342000Y24346000I-250000J0D01*
G01*
X242000Y24346000D01*
G75*
G02*
X-8000Y24596000I0J250000D01*
G01*
G37*
%TD*%
%TO.C,C4*%
G36*
G01*
X-2749000Y-10664000D02*
X-2749000Y-10164000D01*
G75*
G02*
X-2524000Y-9939000I225000J0D01*
G01*
X-2074000Y-9939000D01*
G75*
G02*
X-1849000Y-10164000I0J-225000D01*
G01*
X-1849000Y-10664000D01*
G75*
G02*
X-2074000Y-10889000I-225000J0D01*
G01*
X-2524000Y-10889000D01*
G75*
G02*
X-2749000Y-10664000I0J225000D01*
G01*
G37*
G36*
G01*
X-1199000Y-10664000D02*
X-1199000Y-10164000D01*
G75*
G02*
X-974000Y-9939000I225000J0D01*
G01*
X-524000Y-9939000D01*
G75*
G02*
X-299000Y-10164000I0J-225000D01*
G01*
X-299000Y-10664000D01*
G75*
G02*
X-524000Y-10889000I-225000J0D01*
G01*
X-974000Y-10889000D01*
G75*
G02*
X-1199000Y-10664000I0J225000D01*
G01*
G37*
%TD*%
%TO.C,LED*%
G36*
G01*
X-21506999Y-7728000D02*
X-23197001Y-7728000D01*
G75*
G02*
X-23447000Y-7478001I0J249999D01*
G01*
X-23447000Y-6237999D01*
G75*
G02*
X-23197001Y-5988000I249999J0D01*
G01*
X-21506999Y-5988000D01*
G75*
G02*
X-21257000Y-6237999I0J-249999D01*
G01*
X-21257000Y-7478001D01*
G75*
G02*
X-21506999Y-7728000I-249999J0D01*
G01*
G37*
D11*
X-22352000Y-4318000D03*
X-22352000Y-1778000D03*
%TD*%
D12*
%TO.C,J2*%
X0Y4064000D03*
D13*
X2540000Y4064000D03*
X0Y1524000D03*
X2540000Y1524000D03*
X0Y-1016000D03*
X2540000Y-1016000D03*
%TD*%
%TO.C,I2C*%
G36*
G01*
X-17126000Y-18879001D02*
X-17126000Y-17188999D01*
G75*
G02*
X-16876001Y-16939000I249999J0D01*
G01*
X-15635999Y-16939000D01*
G75*
G02*
X-15386000Y-17188999I0J-249999D01*
G01*
X-15386000Y-18879001D01*
G75*
G02*
X-15635999Y-19129000I-249999J0D01*
G01*
X-16876001Y-19129000D01*
G75*
G02*
X-17126000Y-18879001I0J249999D01*
G01*
G37*
D14*
X-13716000Y-18034000D03*
X-11176000Y-18034000D03*
X-8636000Y-18034000D03*
%TD*%
D13*
%TO.C,U.S. 0 (T)*%
X30480000Y3810000D03*
X30480000Y1270000D03*
X30480000Y-1270000D03*
D12*
X30480000Y-3810000D03*
%TD*%
D15*
%TO.C,U.S. 1 (B)*%
G36*
X24199878Y17380878D02*
G01*
X23349878Y18853122D01*
X24822122Y19703122D01*
X25672122Y18230878D01*
X24199878Y17380878D01*
G37*
G36*
G01*
X25044878Y15917295D02*
X25044878Y15917295D01*
G75*
G02*
X25356000Y17078417I736122J425000D01*
G01*
X25356000Y17078417D01*
G75*
G02*
X26517122Y16767295I425000J-736122D01*
G01*
X26517122Y16767295D01*
G75*
G02*
X26206000Y15606173I-736122J-425000D01*
G01*
X26206000Y15606173D01*
G75*
G02*
X25044878Y15917295I-425000J736122D01*
G01*
G37*
G36*
G01*
X26314878Y13717591D02*
X26314878Y13717591D01*
G75*
G02*
X26626000Y14878713I736122J425000D01*
G01*
X26626000Y14878713D01*
G75*
G02*
X27787122Y14567591I425000J-736122D01*
G01*
X27787122Y14567591D01*
G75*
G02*
X27476000Y13406469I-736122J-425000D01*
G01*
X27476000Y13406469D01*
G75*
G02*
X26314878Y13717591I-425000J736122D01*
G01*
G37*
G36*
G01*
X27584878Y11517886D02*
X27584878Y11517886D01*
G75*
G02*
X27896000Y12679008I736122J425000D01*
G01*
X27896000Y12679008D01*
G75*
G02*
X29057122Y12367886I425000J-736122D01*
G01*
X29057122Y12367886D01*
G75*
G02*
X28746000Y11206764I-736122J-425000D01*
G01*
X28746000Y11206764D01*
G75*
G02*
X27584878Y11517886I-425000J736122D01*
G01*
G37*
%TD*%
%TO.C,U.S. 2 (T)*%
G36*
X18230878Y25672122D02*
G01*
X19703122Y24822122D01*
X18853122Y23349878D01*
X17380878Y24199878D01*
X18230878Y25672122D01*
G37*
G36*
G01*
X16767295Y26517122D02*
X16767295Y26517122D01*
G75*
G02*
X17078417Y25356000I-425000J-736122D01*
G01*
X17078417Y25356000D01*
G75*
G02*
X15917295Y25044878I-736122J425000D01*
G01*
X15917295Y25044878D01*
G75*
G02*
X15606173Y26206000I425000J736122D01*
G01*
X15606173Y26206000D01*
G75*
G02*
X16767295Y26517122I736122J-425000D01*
G01*
G37*
G36*
G01*
X14567591Y27787122D02*
X14567591Y27787122D01*
G75*
G02*
X14878713Y26626000I-425000J-736122D01*
G01*
X14878713Y26626000D01*
G75*
G02*
X13717591Y26314878I-736122J425000D01*
G01*
X13717591Y26314878D01*
G75*
G02*
X13406469Y27476000I425000J736122D01*
G01*
X13406469Y27476000D01*
G75*
G02*
X14567591Y27787122I736122J-425000D01*
G01*
G37*
G36*
G01*
X12367886Y29057122D02*
X12367886Y29057122D01*
G75*
G02*
X12679008Y27896000I-425000J-736122D01*
G01*
X12679008Y27896000D01*
G75*
G02*
X11517886Y27584878I-736122J425000D01*
G01*
X11517886Y27584878D01*
G75*
G02*
X11206764Y28746000I425000J736122D01*
G01*
X11206764Y28746000D01*
G75*
G02*
X12367886Y29057122I736122J-425000D01*
G01*
G37*
%TD*%
D13*
%TO.C,U.S. 3 (B)*%
X3810000Y30480000D03*
X1270000Y30480000D03*
X-1270000Y30480000D03*
D12*
X-3810000Y30480000D03*
%TD*%
%TO.C,U.S. 4 (T)*%
G36*
G01*
X-18962114Y25247122D02*
X-18962114Y25247122D01*
G75*
G02*
X-17800992Y24936000I425000J-736122D01*
G01*
X-17800992Y24936000D01*
G75*
G02*
X-18112114Y23774878I-736122J-425000D01*
G01*
X-18112114Y23774878D01*
G75*
G02*
X-19273236Y24086000I-425000J736122D01*
G01*
X-19273236Y24086000D01*
G75*
G02*
X-18962114Y25247122I736122J425000D01*
G01*
G37*
G36*
G01*
X-16762409Y26517122D02*
X-16762409Y26517122D01*
G75*
G02*
X-15601287Y26206000I425000J-736122D01*
G01*
X-15601287Y26206000D01*
G75*
G02*
X-15912409Y25044878I-736122J-425000D01*
G01*
X-15912409Y25044878D01*
G75*
G02*
X-17073531Y25356000I-425000J736122D01*
G01*
X-17073531Y25356000D01*
G75*
G02*
X-16762409Y26517122I736122J425000D01*
G01*
G37*
G36*
G01*
X-14562705Y27787122D02*
X-14562705Y27787122D01*
G75*
G02*
X-13401583Y27476000I425000J-736122D01*
G01*
X-13401583Y27476000D01*
G75*
G02*
X-13712705Y26314878I-736122J-425000D01*
G01*
X-13712705Y26314878D01*
G75*
G02*
X-14873827Y26626000I-425000J736122D01*
G01*
X-14873827Y26626000D01*
G75*
G02*
X-14562705Y27787122I736122J425000D01*
G01*
G37*
D15*
G36*
X-13099122Y28632122D02*
G01*
X-11626878Y29482122D01*
X-10776878Y28009878D01*
X-12249122Y27159878D01*
X-13099122Y28632122D01*
G37*
%TD*%
%TO.C,U.S. 5 (B)*%
G36*
X-27159878Y12249122D02*
G01*
X-28009878Y10776878D01*
X-29482122Y11626878D01*
X-28632122Y13099122D01*
X-27159878Y12249122D01*
G37*
G36*
G01*
X-26314878Y13712705D02*
X-26314878Y13712705D01*
G75*
G02*
X-27476000Y13401583I-736122J425000D01*
G01*
X-27476000Y13401583D01*
G75*
G02*
X-27787122Y14562705I425000J736122D01*
G01*
X-27787122Y14562705D01*
G75*
G02*
X-26626000Y14873827I736122J-425000D01*
G01*
X-26626000Y14873827D01*
G75*
G02*
X-26314878Y13712705I-425000J-736122D01*
G01*
G37*
G36*
G01*
X-25044878Y15912409D02*
X-25044878Y15912409D01*
G75*
G02*
X-26206000Y15601287I-736122J425000D01*
G01*
X-26206000Y15601287D01*
G75*
G02*
X-26517122Y16762409I425000J736122D01*
G01*
X-26517122Y16762409D01*
G75*
G02*
X-25356000Y17073531I736122J-425000D01*
G01*
X-25356000Y17073531D01*
G75*
G02*
X-25044878Y15912409I-425000J-736122D01*
G01*
G37*
G36*
G01*
X-23774878Y18112114D02*
X-23774878Y18112114D01*
G75*
G02*
X-24936000Y17800992I-736122J425000D01*
G01*
X-24936000Y17800992D01*
G75*
G02*
X-25247122Y18962114I425000J736122D01*
G01*
X-25247122Y18962114D01*
G75*
G02*
X-24086000Y19273236I736122J-425000D01*
G01*
X-24086000Y19273236D01*
G75*
G02*
X-23774878Y18112114I-425000J-736122D01*
G01*
G37*
%TD*%
D12*
%TO.C,U.S. 6 (T)*%
X-30480000Y3810000D03*
D13*
X-30480000Y1270000D03*
X-30480000Y-1270000D03*
X-30480000Y-3810000D03*
%TD*%
%TO.C,U.S. 7 (B)*%
G36*
G01*
X-27584878Y-11644886D02*
X-27584878Y-11644886D01*
G75*
G02*
X-27896000Y-12806008I-736122J-425000D01*
G01*
X-27896000Y-12806008D01*
G75*
G02*
X-29057122Y-12494886I-425000J736122D01*
G01*
X-29057122Y-12494886D01*
G75*
G02*
X-28746000Y-11333764I736122J425000D01*
G01*
X-28746000Y-11333764D01*
G75*
G02*
X-27584878Y-11644886I425000J-736122D01*
G01*
G37*
G36*
G01*
X-26314878Y-13844591D02*
X-26314878Y-13844591D01*
G75*
G02*
X-26626000Y-15005713I-736122J-425000D01*
G01*
X-26626000Y-15005713D01*
G75*
G02*
X-27787122Y-14694591I-425000J736122D01*
G01*
X-27787122Y-14694591D01*
G75*
G02*
X-27476000Y-13533469I736122J425000D01*
G01*
X-27476000Y-13533469D01*
G75*
G02*
X-26314878Y-13844591I425000J-736122D01*
G01*
G37*
G36*
G01*
X-25044878Y-16044295D02*
X-25044878Y-16044295D01*
G75*
G02*
X-25356000Y-17205417I-736122J-425000D01*
G01*
X-25356000Y-17205417D01*
G75*
G02*
X-26517122Y-16894295I-425000J736122D01*
G01*
X-26517122Y-16894295D01*
G75*
G02*
X-26206000Y-15733173I736122J425000D01*
G01*
X-26206000Y-15733173D01*
G75*
G02*
X-25044878Y-16044295I425000J-736122D01*
G01*
G37*
D15*
G36*
X-24199878Y-17507878D02*
G01*
X-23349878Y-18980122D01*
X-24822122Y-19830122D01*
X-25672122Y-18357878D01*
X-24199878Y-17507878D01*
G37*
%TD*%
%TO.C,U.S. 8 (T)*%
G36*
X-18230878Y-25799122D02*
G01*
X-19703122Y-24949122D01*
X-18853122Y-23476878D01*
X-17380878Y-24326878D01*
X-18230878Y-25799122D01*
G37*
G36*
G01*
X-16767295Y-26644122D02*
X-16767295Y-26644122D01*
G75*
G02*
X-17078417Y-25483000I425000J736122D01*
G01*
X-17078417Y-25483000D01*
G75*
G02*
X-15917295Y-25171878I736122J-425000D01*
G01*
X-15917295Y-25171878D01*
G75*
G02*
X-15606173Y-26333000I-425000J-736122D01*
G01*
X-15606173Y-26333000D01*
G75*
G02*
X-16767295Y-26644122I-736122J425000D01*
G01*
G37*
G36*
G01*
X-14567591Y-27914122D02*
X-14567591Y-27914122D01*
G75*
G02*
X-14878713Y-26753000I425000J736122D01*
G01*
X-14878713Y-26753000D01*
G75*
G02*
X-13717591Y-26441878I736122J-425000D01*
G01*
X-13717591Y-26441878D01*
G75*
G02*
X-13406469Y-27603000I-425000J-736122D01*
G01*
X-13406469Y-27603000D01*
G75*
G02*
X-14567591Y-27914122I-736122J425000D01*
G01*
G37*
G36*
G01*
X-12367886Y-29184122D02*
X-12367886Y-29184122D01*
G75*
G02*
X-12679008Y-28023000I425000J736122D01*
G01*
X-12679008Y-28023000D01*
G75*
G02*
X-11517886Y-27711878I736122J-425000D01*
G01*
X-11517886Y-27711878D01*
G75*
G02*
X-11206764Y-28873000I-425000J-736122D01*
G01*
X-11206764Y-28873000D01*
G75*
G02*
X-12367886Y-29184122I-736122J425000D01*
G01*
G37*
%TD*%
D12*
%TO.C,U.S. 9 (B)*%
X3810000Y-30480000D03*
D13*
X1270000Y-30480000D03*
X-1270000Y-30480000D03*
X-3810000Y-30480000D03*
%TD*%
%TO.C,U.S. 10 (T)*%
G36*
G01*
X18835114Y-25247122D02*
X18835114Y-25247122D01*
G75*
G02*
X17673992Y-24936000I-425000J736122D01*
G01*
X17673992Y-24936000D01*
G75*
G02*
X17985114Y-23774878I736122J425000D01*
G01*
X17985114Y-23774878D01*
G75*
G02*
X19146236Y-24086000I425000J-736122D01*
G01*
X19146236Y-24086000D01*
G75*
G02*
X18835114Y-25247122I-736122J-425000D01*
G01*
G37*
G36*
G01*
X16635409Y-26517122D02*
X16635409Y-26517122D01*
G75*
G02*
X15474287Y-26206000I-425000J736122D01*
G01*
X15474287Y-26206000D01*
G75*
G02*
X15785409Y-25044878I736122J425000D01*
G01*
X15785409Y-25044878D01*
G75*
G02*
X16946531Y-25356000I425000J-736122D01*
G01*
X16946531Y-25356000D01*
G75*
G02*
X16635409Y-26517122I-736122J-425000D01*
G01*
G37*
G36*
G01*
X14435705Y-27787122D02*
X14435705Y-27787122D01*
G75*
G02*
X13274583Y-27476000I-425000J736122D01*
G01*
X13274583Y-27476000D01*
G75*
G02*
X13585705Y-26314878I736122J425000D01*
G01*
X13585705Y-26314878D01*
G75*
G02*
X14746827Y-26626000I425000J-736122D01*
G01*
X14746827Y-26626000D01*
G75*
G02*
X14435705Y-27787122I-736122J-425000D01*
G01*
G37*
D15*
G36*
X12972122Y-28632122D02*
G01*
X11499878Y-29482122D01*
X10649878Y-28009878D01*
X12122122Y-27159878D01*
X12972122Y-28632122D01*
G37*
%TD*%
%TO.C,U.S. 11 (B)*%
G36*
G01*
X23774878Y-18112114D02*
X23774878Y-18112114D01*
G75*
G02*
X24936000Y-17800992I736122J-425000D01*
G01*
X24936000Y-17800992D01*
G75*
G02*
X25247122Y-18962114I-425000J-736122D01*
G01*
X25247122Y-18962114D01*
G75*
G02*
X24086000Y-19273236I-736122J425000D01*
G01*
X24086000Y-19273236D01*
G75*
G02*
X23774878Y-18112114I425000J736122D01*
G01*
G37*
G36*
G01*
X25044878Y-15912409D02*
X25044878Y-15912409D01*
G75*
G02*
X26206000Y-15601287I736122J-425000D01*
G01*
X26206000Y-15601287D01*
G75*
G02*
X26517122Y-16762409I-425000J-736122D01*
G01*
X26517122Y-16762409D01*
G75*
G02*
X25356000Y-17073531I-736122J425000D01*
G01*
X25356000Y-17073531D01*
G75*
G02*
X25044878Y-15912409I425000J736122D01*
G01*
G37*
G36*
G01*
X26314878Y-13712705D02*
X26314878Y-13712705D01*
G75*
G02*
X27476000Y-13401583I736122J-425000D01*
G01*
X27476000Y-13401583D01*
G75*
G02*
X27787122Y-14562705I-425000J-736122D01*
G01*
X27787122Y-14562705D01*
G75*
G02*
X26626000Y-14873827I-736122J425000D01*
G01*
X26626000Y-14873827D01*
G75*
G02*
X26314878Y-13712705I425000J736122D01*
G01*
G37*
G36*
X27159878Y-12249122D02*
G01*
X28009878Y-10776878D01*
X29482122Y-11626878D01*
X28632122Y-13099122D01*
X27159878Y-12249122D01*
G37*
%TD*%
%TO.C,R1*%
G36*
G01*
X-15769000Y7575000D02*
X-15219000Y7575000D01*
G75*
G02*
X-15019000Y7375000I0J-200000D01*
G01*
X-15019000Y6975000D01*
G75*
G02*
X-15219000Y6775000I-200000J0D01*
G01*
X-15769000Y6775000D01*
G75*
G02*
X-15969000Y6975000I0J200000D01*
G01*
X-15969000Y7375000D01*
G75*
G02*
X-15769000Y7575000I200000J0D01*
G01*
G37*
G36*
G01*
X-15769000Y5925000D02*
X-15219000Y5925000D01*
G75*
G02*
X-15019000Y5725000I0J-200000D01*
G01*
X-15019000Y5325000D01*
G75*
G02*
X-15219000Y5125000I-200000J0D01*
G01*
X-15769000Y5125000D01*
G75*
G02*
X-15969000Y5325000I0J200000D01*
G01*
X-15969000Y5725000D01*
G75*
G02*
X-15769000Y5925000I200000J0D01*
G01*
G37*
%TD*%
D16*
%TO.C,U1*%
X-5275000Y-10293000D03*
X-5275000Y-9493000D03*
X-5275000Y-8693000D03*
X-5275000Y-7893000D03*
X-5275000Y-7093000D03*
X-5275000Y-6293000D03*
X-5275000Y-5493000D03*
X-5275000Y-4693000D03*
D17*
X-6725000Y-3243000D03*
X-7525000Y-3243000D03*
X-8325000Y-3243000D03*
X-9125000Y-3243000D03*
X-9925000Y-3243000D03*
X-10725000Y-3243000D03*
X-11525000Y-3243000D03*
X-12325000Y-3243000D03*
D16*
X-13775000Y-4693000D03*
X-13775000Y-5493000D03*
X-13775000Y-6293000D03*
X-13775000Y-7093000D03*
X-13775000Y-7893000D03*
X-13775000Y-8693000D03*
X-13775000Y-9493000D03*
X-13775000Y-10293000D03*
D17*
X-12325000Y-11743000D03*
X-11525000Y-11743000D03*
X-10725000Y-11743000D03*
X-9925000Y-11743000D03*
X-9125000Y-11743000D03*
X-8325000Y-11743000D03*
X-7525000Y-11743000D03*
X-6725000Y-11743000D03*
%TD*%
D18*
%TO.C,XTAL*%
X6790000Y-17653000D03*
X-1710000Y-17653000D03*
%TD*%
D19*
%TO.C,CAN*%
X5842000Y13970000D03*
D20*
X3072000Y13970000D03*
X302000Y13970000D03*
X-2468000Y13970000D03*
X-5238000Y13970000D03*
X4457000Y16810000D03*
X1687000Y16810000D03*
X-1083000Y16810000D03*
X-3853000Y16810000D03*
D21*
X12802000Y15390000D03*
X-12198000Y15390000D03*
%TD*%
%TO.C,U2*%
G36*
G01*
X7660000Y-1928000D02*
X7660000Y-1628000D01*
G75*
G02*
X7810000Y-1478000I150000J0D01*
G01*
X9560000Y-1478000D01*
G75*
G02*
X9710000Y-1628000I0J-150000D01*
G01*
X9710000Y-1928000D01*
G75*
G02*
X9560000Y-2078000I-150000J0D01*
G01*
X7810000Y-2078000D01*
G75*
G02*
X7660000Y-1928000I0J150000D01*
G01*
G37*
G36*
G01*
X7660000Y-3198000D02*
X7660000Y-2898000D01*
G75*
G02*
X7810000Y-2748000I150000J0D01*
G01*
X9560000Y-2748000D01*
G75*
G02*
X9710000Y-2898000I0J-150000D01*
G01*
X9710000Y-3198000D01*
G75*
G02*
X9560000Y-3348000I-150000J0D01*
G01*
X7810000Y-3348000D01*
G75*
G02*
X7660000Y-3198000I0J150000D01*
G01*
G37*
G36*
G01*
X7660000Y-4468000D02*
X7660000Y-4168000D01*
G75*
G02*
X7810000Y-4018000I150000J0D01*
G01*
X9560000Y-4018000D01*
G75*
G02*
X9710000Y-4168000I0J-150000D01*
G01*
X9710000Y-4468000D01*
G75*
G02*
X9560000Y-4618000I-150000J0D01*
G01*
X7810000Y-4618000D01*
G75*
G02*
X7660000Y-4468000I0J150000D01*
G01*
G37*
G36*
G01*
X7660000Y-5738000D02*
X7660000Y-5438000D01*
G75*
G02*
X7810000Y-5288000I150000J0D01*
G01*
X9560000Y-5288000D01*
G75*
G02*
X9710000Y-5438000I0J-150000D01*
G01*
X9710000Y-5738000D01*
G75*
G02*
X9560000Y-5888000I-150000J0D01*
G01*
X7810000Y-5888000D01*
G75*
G02*
X7660000Y-5738000I0J150000D01*
G01*
G37*
G36*
G01*
X7660000Y-7008000D02*
X7660000Y-6708000D01*
G75*
G02*
X7810000Y-6558000I150000J0D01*
G01*
X9560000Y-6558000D01*
G75*
G02*
X9710000Y-6708000I0J-150000D01*
G01*
X9710000Y-7008000D01*
G75*
G02*
X9560000Y-7158000I-150000J0D01*
G01*
X7810000Y-7158000D01*
G75*
G02*
X7660000Y-7008000I0J150000D01*
G01*
G37*
G36*
G01*
X7660000Y-8278000D02*
X7660000Y-7978000D01*
G75*
G02*
X7810000Y-7828000I150000J0D01*
G01*
X9560000Y-7828000D01*
G75*
G02*
X9710000Y-7978000I0J-150000D01*
G01*
X9710000Y-8278000D01*
G75*
G02*
X9560000Y-8428000I-150000J0D01*
G01*
X7810000Y-8428000D01*
G75*
G02*
X7660000Y-8278000I0J150000D01*
G01*
G37*
G36*
G01*
X7660000Y-9548000D02*
X7660000Y-9248000D01*
G75*
G02*
X7810000Y-9098000I150000J0D01*
G01*
X9560000Y-9098000D01*
G75*
G02*
X9710000Y-9248000I0J-150000D01*
G01*
X9710000Y-9548000D01*
G75*
G02*
X9560000Y-9698000I-150000J0D01*
G01*
X7810000Y-9698000D01*
G75*
G02*
X7660000Y-9548000I0J150000D01*
G01*
G37*
G36*
G01*
X7660000Y-10818000D02*
X7660000Y-10518000D01*
G75*
G02*
X7810000Y-10368000I150000J0D01*
G01*
X9560000Y-10368000D01*
G75*
G02*
X9710000Y-10518000I0J-150000D01*
G01*
X9710000Y-10818000D01*
G75*
G02*
X9560000Y-10968000I-150000J0D01*
G01*
X7810000Y-10968000D01*
G75*
G02*
X7660000Y-10818000I0J150000D01*
G01*
G37*
G36*
G01*
X7660000Y-12088000D02*
X7660000Y-11788000D01*
G75*
G02*
X7810000Y-11638000I150000J0D01*
G01*
X9560000Y-11638000D01*
G75*
G02*
X9710000Y-11788000I0J-150000D01*
G01*
X9710000Y-12088000D01*
G75*
G02*
X9560000Y-12238000I-150000J0D01*
G01*
X7810000Y-12238000D01*
G75*
G02*
X7660000Y-12088000I0J150000D01*
G01*
G37*
G36*
G01*
X16960000Y-12088000D02*
X16960000Y-11788000D01*
G75*
G02*
X17110000Y-11638000I150000J0D01*
G01*
X18860000Y-11638000D01*
G75*
G02*
X19010000Y-11788000I0J-150000D01*
G01*
X19010000Y-12088000D01*
G75*
G02*
X18860000Y-12238000I-150000J0D01*
G01*
X17110000Y-12238000D01*
G75*
G02*
X16960000Y-12088000I0J150000D01*
G01*
G37*
G36*
G01*
X16960000Y-10818000D02*
X16960000Y-10518000D01*
G75*
G02*
X17110000Y-10368000I150000J0D01*
G01*
X18860000Y-10368000D01*
G75*
G02*
X19010000Y-10518000I0J-150000D01*
G01*
X19010000Y-10818000D01*
G75*
G02*
X18860000Y-10968000I-150000J0D01*
G01*
X17110000Y-10968000D01*
G75*
G02*
X16960000Y-10818000I0J150000D01*
G01*
G37*
G36*
G01*
X16960000Y-9548000D02*
X16960000Y-9248000D01*
G75*
G02*
X17110000Y-9098000I150000J0D01*
G01*
X18860000Y-9098000D01*
G75*
G02*
X19010000Y-9248000I0J-150000D01*
G01*
X19010000Y-9548000D01*
G75*
G02*
X18860000Y-9698000I-150000J0D01*
G01*
X17110000Y-9698000D01*
G75*
G02*
X16960000Y-9548000I0J150000D01*
G01*
G37*
G36*
G01*
X16960000Y-8278000D02*
X16960000Y-7978000D01*
G75*
G02*
X17110000Y-7828000I150000J0D01*
G01*
X18860000Y-7828000D01*
G75*
G02*
X19010000Y-7978000I0J-150000D01*
G01*
X19010000Y-8278000D01*
G75*
G02*
X18860000Y-8428000I-150000J0D01*
G01*
X17110000Y-8428000D01*
G75*
G02*
X16960000Y-8278000I0J150000D01*
G01*
G37*
G36*
G01*
X16960000Y-7008000D02*
X16960000Y-6708000D01*
G75*
G02*
X17110000Y-6558000I150000J0D01*
G01*
X18860000Y-6558000D01*
G75*
G02*
X19010000Y-6708000I0J-150000D01*
G01*
X19010000Y-7008000D01*
G75*
G02*
X18860000Y-7158000I-150000J0D01*
G01*
X17110000Y-7158000D01*
G75*
G02*
X16960000Y-7008000I0J150000D01*
G01*
G37*
G36*
G01*
X16960000Y-5738000D02*
X16960000Y-5438000D01*
G75*
G02*
X17110000Y-5288000I150000J0D01*
G01*
X18860000Y-5288000D01*
G75*
G02*
X19010000Y-5438000I0J-150000D01*
G01*
X19010000Y-5738000D01*
G75*
G02*
X18860000Y-5888000I-150000J0D01*
G01*
X17110000Y-5888000D01*
G75*
G02*
X16960000Y-5738000I0J150000D01*
G01*
G37*
G36*
G01*
X16960000Y-4468000D02*
X16960000Y-4168000D01*
G75*
G02*
X17110000Y-4018000I150000J0D01*
G01*
X18860000Y-4018000D01*
G75*
G02*
X19010000Y-4168000I0J-150000D01*
G01*
X19010000Y-4468000D01*
G75*
G02*
X18860000Y-4618000I-150000J0D01*
G01*
X17110000Y-4618000D01*
G75*
G02*
X16960000Y-4468000I0J150000D01*
G01*
G37*
G36*
G01*
X16960000Y-3198000D02*
X16960000Y-2898000D01*
G75*
G02*
X17110000Y-2748000I150000J0D01*
G01*
X18860000Y-2748000D01*
G75*
G02*
X19010000Y-2898000I0J-150000D01*
G01*
X19010000Y-3198000D01*
G75*
G02*
X18860000Y-3348000I-150000J0D01*
G01*
X17110000Y-3348000D01*
G75*
G02*
X16960000Y-3198000I0J150000D01*
G01*
G37*
G36*
G01*
X16960000Y-1928000D02*
X16960000Y-1628000D01*
G75*
G02*
X17110000Y-1478000I150000J0D01*
G01*
X18860000Y-1478000D01*
G75*
G02*
X19010000Y-1628000I0J-150000D01*
G01*
X19010000Y-1928000D01*
G75*
G02*
X18860000Y-2078000I-150000J0D01*
G01*
X17110000Y-2078000D01*
G75*
G02*
X16960000Y-1928000I0J150000D01*
G01*
G37*
%TD*%
%TO.C,U3*%
G36*
G01*
X7345000Y5692000D02*
X7345000Y5992000D01*
G75*
G02*
X7495000Y6142000I150000J0D01*
G01*
X9145000Y6142000D01*
G75*
G02*
X9295000Y5992000I0J-150000D01*
G01*
X9295000Y5692000D01*
G75*
G02*
X9145000Y5542000I-150000J0D01*
G01*
X7495000Y5542000D01*
G75*
G02*
X7345000Y5692000I0J150000D01*
G01*
G37*
G36*
G01*
X7345000Y4422000D02*
X7345000Y4722000D01*
G75*
G02*
X7495000Y4872000I150000J0D01*
G01*
X9145000Y4872000D01*
G75*
G02*
X9295000Y4722000I0J-150000D01*
G01*
X9295000Y4422000D01*
G75*
G02*
X9145000Y4272000I-150000J0D01*
G01*
X7495000Y4272000D01*
G75*
G02*
X7345000Y4422000I0J150000D01*
G01*
G37*
G36*
G01*
X7345000Y3152000D02*
X7345000Y3452000D01*
G75*
G02*
X7495000Y3602000I150000J0D01*
G01*
X9145000Y3602000D01*
G75*
G02*
X9295000Y3452000I0J-150000D01*
G01*
X9295000Y3152000D01*
G75*
G02*
X9145000Y3002000I-150000J0D01*
G01*
X7495000Y3002000D01*
G75*
G02*
X7345000Y3152000I0J150000D01*
G01*
G37*
G36*
G01*
X7345000Y1882000D02*
X7345000Y2182000D01*
G75*
G02*
X7495000Y2332000I150000J0D01*
G01*
X9145000Y2332000D01*
G75*
G02*
X9295000Y2182000I0J-150000D01*
G01*
X9295000Y1882000D01*
G75*
G02*
X9145000Y1732000I-150000J0D01*
G01*
X7495000Y1732000D01*
G75*
G02*
X7345000Y1882000I0J150000D01*
G01*
G37*
G36*
G01*
X12295000Y1882000D02*
X12295000Y2182000D01*
G75*
G02*
X12445000Y2332000I150000J0D01*
G01*
X14095000Y2332000D01*
G75*
G02*
X14245000Y2182000I0J-150000D01*
G01*
X14245000Y1882000D01*
G75*
G02*
X14095000Y1732000I-150000J0D01*
G01*
X12445000Y1732000D01*
G75*
G02*
X12295000Y1882000I0J150000D01*
G01*
G37*
G36*
G01*
X12295000Y3152000D02*
X12295000Y3452000D01*
G75*
G02*
X12445000Y3602000I150000J0D01*
G01*
X14095000Y3602000D01*
G75*
G02*
X14245000Y3452000I0J-150000D01*
G01*
X14245000Y3152000D01*
G75*
G02*
X14095000Y3002000I-150000J0D01*
G01*
X12445000Y3002000D01*
G75*
G02*
X12295000Y3152000I0J150000D01*
G01*
G37*
G36*
G01*
X12295000Y4422000D02*
X12295000Y4722000D01*
G75*
G02*
X12445000Y4872000I150000J0D01*
G01*
X14095000Y4872000D01*
G75*
G02*
X14245000Y4722000I0J-150000D01*
G01*
X14245000Y4422000D01*
G75*
G02*
X14095000Y4272000I-150000J0D01*
G01*
X12445000Y4272000D01*
G75*
G02*
X12295000Y4422000I0J150000D01*
G01*
G37*
G36*
G01*
X12295000Y5692000D02*
X12295000Y5992000D01*
G75*
G02*
X12445000Y6142000I150000J0D01*
G01*
X14095000Y6142000D01*
G75*
G02*
X14245000Y5992000I0J-150000D01*
G01*
X14245000Y5692000D01*
G75*
G02*
X14095000Y5542000I-150000J0D01*
G01*
X12445000Y5542000D01*
G75*
G02*
X12295000Y5692000I0J150000D01*
G01*
G37*
%TD*%
M02*
