M48
; DRILL file {KiCad 5.1.9+dfsg1-1+deb11u1} date Sat Nov 12 21:31:26 2022
; FORMAT={-:-/ absolute / metric / decimal}
; #@! TF.CreationDate,2022-11-12T21:31:26+01:00
; #@! TF.GenerationSoftware,Kicad,Pcbnew,5.1.9+dfsg1-1+deb11u1
; #@! TF.FileFunction,Plated,1,2,PTH
FMAT,2
METRIC
T1C0.400
T2C1.000
T3C1.100
T4C1.190
T5C3.200
%
G90
G05
T1
X-11.957Y-7.893
X-11.751Y-5.343
X-10.414Y-1.524
X-9.125Y-7.131
X-6.801Y-8.693
X-4.826Y-1.016
X-2.794Y-11.938
X-2.286Y-4.318
X-0.762Y-8.636
X-0.508Y-6.096
X0.762Y-6.096
X1.016Y-9.652
X1.778Y-6.096
X3.556Y-12.7
X3.81Y25.146
X6.096Y1.778
X6.604Y4.572
X9.906Y-13.716
X11.176Y0.0
X11.938Y-7.874
X14.478Y-6.858
X14.986Y-5.588
X15.494Y5.842
X16.002Y-4.318
X20.828Y-8.89
X22.225Y-9.271
X23.876Y-9.144
T2
X-30.48Y3.81
X-30.48Y1.27
X-30.48Y-1.27
X-30.48Y-3.81
X-28.321Y11.938
X-28.321Y-12.07
X-27.051Y14.138
X-27.051Y-14.27
X-25.781Y16.337
X-25.781Y-16.469
X-24.511Y18.537
X-24.511Y-18.669
X-18.542Y-24.638
X-18.537Y24.511
X-16.342Y-25.908
X-16.337Y25.781
X-14.143Y-27.178
X-14.138Y27.051
X-11.943Y-28.448
X-11.938Y28.321
X-5.238Y13.97
X-3.853Y16.81
X-3.81Y30.48
X-3.81Y-30.48
X-2.468Y13.97
X-1.27Y30.48
X-1.27Y-30.48
X-1.083Y16.81
X0.0Y4.064
X0.0Y1.524
X0.0Y-1.016
X0.302Y13.97
X1.27Y30.48
X1.27Y-30.48
X1.687Y16.81
X2.54Y4.064
X2.54Y1.524
X2.54Y-1.016
X3.072Y13.97
X3.81Y30.48
X3.81Y-30.48
X4.457Y16.81
X5.842Y13.97
X11.811Y-28.321
X11.943Y28.321
X14.011Y-27.051
X14.143Y27.051
X16.21Y-25.781
X16.342Y25.781
X18.41Y-24.511
X18.542Y24.511
X24.511Y18.542
X24.511Y-18.537
X25.781Y16.342
X25.781Y-16.337
X27.051Y14.143
X27.051Y-14.138
X28.321Y11.943
X28.321Y-11.938
X30.48Y3.81
X30.48Y1.27
X30.48Y-1.27
X30.48Y-3.81
T3
X-12.7Y6.604
X-12.7Y2.104
X-6.2Y6.604
X-6.2Y2.104
T4
X-22.352Y-1.778
X-22.352Y-4.318
X-22.352Y-6.858
X-16.256Y-18.034
X-13.716Y-18.034
X-11.176Y-18.034
X-8.636Y-18.034
T5
X-12.198Y15.39
X12.802Y15.39
T0
M30
