%TF.GenerationSoftware,KiCad,Pcbnew,8.0.9*%
%TF.CreationDate,2025-03-10T17:39:08+01:00*%
%TF.ProjectId,main_board,6d61696e-5f62-46f6-9172-642e6b696361,rev?*%
%TF.SameCoordinates,PX63add28PY3f58108*%
%TF.FileFunction,Legend,Bot*%
%TF.FilePolarity,Positive*%
%FSLAX46Y46*%
G04 Gerber Fmt 4.6, Leading zero omitted, Abs format (unit mm)*
G04 Created by KiCad (PCBNEW 8.0.9) date 2025-03-10 17:39:08*
%MOMM*%
%LPD*%
G01*
G04 APERTURE LIST*
G04 Aperture macros list*
%AMRoundRect*
0 Rectangle with rounded corners*
0 $1 Rounding radius*
0 $2 $3 $4 $5 $6 $7 $8 $9 X,Y pos of 4 corners*
0 Add a 4 corners polygon primitive as box body*
4,1,4,$2,$3,$4,$5,$6,$7,$8,$9,$2,$3,0*
0 Add four circle primitives for the rounded corners*
1,1,$1+$1,$2,$3*
1,1,$1+$1,$4,$5*
1,1,$1+$1,$6,$7*
1,1,$1+$1,$8,$9*
0 Add four rect primitives between the rounded corners*
20,1,$1+$1,$2,$3,$4,$5,0*
20,1,$1+$1,$4,$5,$6,$7,0*
20,1,$1+$1,$6,$7,$8,$9,0*
20,1,$1+$1,$8,$9,$2,$3,0*%
G04 Aperture macros list end*
%ADD10C,0.150000*%
%ADD11C,0.120000*%
%ADD12RoundRect,0.250000X0.845000X-0.620000X0.845000X0.620000X-0.845000X0.620000X-0.845000X-0.620000X0*%
%ADD13O,2.190000X1.740000*%
%ADD14RoundRect,0.250000X-0.620000X-0.845000X0.620000X-0.845000X0.620000X0.845000X-0.620000X0.845000X0*%
%ADD15O,1.740000X2.190000*%
%ADD16R,3.500000X3.500000*%
%ADD17RoundRect,0.750000X-0.750000X-1.000000X0.750000X-1.000000X0.750000X1.000000X-0.750000X1.000000X0*%
%ADD18RoundRect,0.875000X-0.875000X-0.875000X0.875000X-0.875000X0.875000X0.875000X-0.875000X0.875000X0*%
%ADD19RoundRect,0.250000X-0.845000X0.620000X-0.845000X-0.620000X0.845000X-0.620000X0.845000X0.620000X0*%
%ADD20R,2.000000X2.000000*%
%ADD21C,2.000000*%
%ADD22R,3.200000X2.000000*%
%ADD23R,1.550000X1.300000*%
%ADD24R,1.400000X1.400000*%
%ADD25C,1.400000*%
%ADD26C,3.000000*%
%ADD27R,1.500000X0.900000*%
%ADD28R,0.900000X1.500000*%
%ADD29C,0.475000*%
%ADD30R,3.800000X3.800000*%
%ADD31R,1.800000X2.600000*%
%ADD32O,1.800000X2.600000*%
G04 APERTURE END LIST*
D10*
X74921904Y-38824819D02*
X74921904Y-39634342D01*
X74921904Y-39634342D02*
X74874285Y-39729580D01*
X74874285Y-39729580D02*
X74826666Y-39777200D01*
X74826666Y-39777200D02*
X74731428Y-39824819D01*
X74731428Y-39824819D02*
X74540952Y-39824819D01*
X74540952Y-39824819D02*
X74445714Y-39777200D01*
X74445714Y-39777200D02*
X74398095Y-39729580D01*
X74398095Y-39729580D02*
X74350476Y-39634342D01*
X74350476Y-39634342D02*
X74350476Y-38824819D01*
X73921904Y-39777200D02*
X73779047Y-39824819D01*
X73779047Y-39824819D02*
X73540952Y-39824819D01*
X73540952Y-39824819D02*
X73445714Y-39777200D01*
X73445714Y-39777200D02*
X73398095Y-39729580D01*
X73398095Y-39729580D02*
X73350476Y-39634342D01*
X73350476Y-39634342D02*
X73350476Y-39539104D01*
X73350476Y-39539104D02*
X73398095Y-39443866D01*
X73398095Y-39443866D02*
X73445714Y-39396247D01*
X73445714Y-39396247D02*
X73540952Y-39348628D01*
X73540952Y-39348628D02*
X73731428Y-39301009D01*
X73731428Y-39301009D02*
X73826666Y-39253390D01*
X73826666Y-39253390D02*
X73874285Y-39205771D01*
X73874285Y-39205771D02*
X73921904Y-39110533D01*
X73921904Y-39110533D02*
X73921904Y-39015295D01*
X73921904Y-39015295D02*
X73874285Y-38920057D01*
X73874285Y-38920057D02*
X73826666Y-38872438D01*
X73826666Y-38872438D02*
X73731428Y-38824819D01*
X73731428Y-38824819D02*
X73493333Y-38824819D01*
X73493333Y-38824819D02*
X73350476Y-38872438D01*
X72588571Y-39301009D02*
X72445714Y-39348628D01*
X72445714Y-39348628D02*
X72398095Y-39396247D01*
X72398095Y-39396247D02*
X72350476Y-39491485D01*
X72350476Y-39491485D02*
X72350476Y-39634342D01*
X72350476Y-39634342D02*
X72398095Y-39729580D01*
X72398095Y-39729580D02*
X72445714Y-39777200D01*
X72445714Y-39777200D02*
X72540952Y-39824819D01*
X72540952Y-39824819D02*
X72921904Y-39824819D01*
X72921904Y-39824819D02*
X72921904Y-38824819D01*
X72921904Y-38824819D02*
X72588571Y-38824819D01*
X72588571Y-38824819D02*
X72493333Y-38872438D01*
X72493333Y-38872438D02*
X72445714Y-38920057D01*
X72445714Y-38920057D02*
X72398095Y-39015295D01*
X72398095Y-39015295D02*
X72398095Y-39110533D01*
X72398095Y-39110533D02*
X72445714Y-39205771D01*
X72445714Y-39205771D02*
X72493333Y-39253390D01*
X72493333Y-39253390D02*
X72588571Y-39301009D01*
X72588571Y-39301009D02*
X72921904Y-39301009D01*
X44920819Y-43410666D02*
X45730342Y-43410666D01*
X45730342Y-43410666D02*
X45825580Y-43458285D01*
X45825580Y-43458285D02*
X45873200Y-43505904D01*
X45873200Y-43505904D02*
X45920819Y-43601142D01*
X45920819Y-43601142D02*
X45920819Y-43791618D01*
X45920819Y-43791618D02*
X45873200Y-43886856D01*
X45873200Y-43886856D02*
X45825580Y-43934475D01*
X45825580Y-43934475D02*
X45730342Y-43982094D01*
X45730342Y-43982094D02*
X44920819Y-43982094D01*
X45635104Y-44410666D02*
X45635104Y-44886856D01*
X45920819Y-44315428D02*
X44920819Y-44648761D01*
X44920819Y-44648761D02*
X45920819Y-44982094D01*
X45920819Y-45886856D02*
X45444628Y-45553523D01*
X45920819Y-45315428D02*
X44920819Y-45315428D01*
X44920819Y-45315428D02*
X44920819Y-45696380D01*
X44920819Y-45696380D02*
X44968438Y-45791618D01*
X44968438Y-45791618D02*
X45016057Y-45839237D01*
X45016057Y-45839237D02*
X45111295Y-45886856D01*
X45111295Y-45886856D02*
X45254152Y-45886856D01*
X45254152Y-45886856D02*
X45349390Y-45839237D01*
X45349390Y-45839237D02*
X45397009Y-45791618D01*
X45397009Y-45791618D02*
X45444628Y-45696380D01*
X45444628Y-45696380D02*
X45444628Y-45315428D01*
X44920819Y-46172571D02*
X44920819Y-46743999D01*
X45920819Y-46458285D02*
X44920819Y-46458285D01*
X45254152Y-47696381D02*
X45254152Y-48077333D01*
X45920819Y-47839238D02*
X45063676Y-47839238D01*
X45063676Y-47839238D02*
X44968438Y-47886857D01*
X44968438Y-47886857D02*
X44920819Y-47982095D01*
X44920819Y-47982095D02*
X44920819Y-48077333D01*
X45920819Y-48553524D02*
X45873200Y-48458286D01*
X45873200Y-48458286D02*
X45777961Y-48410667D01*
X45777961Y-48410667D02*
X44920819Y-48410667D01*
X45920819Y-49363048D02*
X45397009Y-49363048D01*
X45397009Y-49363048D02*
X45301771Y-49315429D01*
X45301771Y-49315429D02*
X45254152Y-49220191D01*
X45254152Y-49220191D02*
X45254152Y-49029715D01*
X45254152Y-49029715D02*
X45301771Y-48934477D01*
X45873200Y-49363048D02*
X45920819Y-49267810D01*
X45920819Y-49267810D02*
X45920819Y-49029715D01*
X45920819Y-49029715D02*
X45873200Y-48934477D01*
X45873200Y-48934477D02*
X45777961Y-48886858D01*
X45777961Y-48886858D02*
X45682723Y-48886858D01*
X45682723Y-48886858D02*
X45587485Y-48934477D01*
X45587485Y-48934477D02*
X45539866Y-49029715D01*
X45539866Y-49029715D02*
X45539866Y-49267810D01*
X45539866Y-49267810D02*
X45492247Y-49363048D01*
X45873200Y-49791620D02*
X45920819Y-49886858D01*
X45920819Y-49886858D02*
X45920819Y-50077334D01*
X45920819Y-50077334D02*
X45873200Y-50172572D01*
X45873200Y-50172572D02*
X45777961Y-50220191D01*
X45777961Y-50220191D02*
X45730342Y-50220191D01*
X45730342Y-50220191D02*
X45635104Y-50172572D01*
X45635104Y-50172572D02*
X45587485Y-50077334D01*
X45587485Y-50077334D02*
X45587485Y-49934477D01*
X45587485Y-49934477D02*
X45539866Y-49839239D01*
X45539866Y-49839239D02*
X45444628Y-49791620D01*
X45444628Y-49791620D02*
X45397009Y-49791620D01*
X45397009Y-49791620D02*
X45301771Y-49839239D01*
X45301771Y-49839239D02*
X45254152Y-49934477D01*
X45254152Y-49934477D02*
X45254152Y-50077334D01*
X45254152Y-50077334D02*
X45301771Y-50172572D01*
X45920819Y-50648763D02*
X44920819Y-50648763D01*
X45920819Y-51077334D02*
X45397009Y-51077334D01*
X45397009Y-51077334D02*
X45301771Y-51029715D01*
X45301771Y-51029715D02*
X45254152Y-50934477D01*
X45254152Y-50934477D02*
X45254152Y-50791620D01*
X45254152Y-50791620D02*
X45301771Y-50696382D01*
X45301771Y-50696382D02*
X45349390Y-50648763D01*
X61142381Y-39824819D02*
X61475714Y-39348628D01*
X61713809Y-39824819D02*
X61713809Y-38824819D01*
X61713809Y-38824819D02*
X61332857Y-38824819D01*
X61332857Y-38824819D02*
X61237619Y-38872438D01*
X61237619Y-38872438D02*
X61190000Y-38920057D01*
X61190000Y-38920057D02*
X61142381Y-39015295D01*
X61142381Y-39015295D02*
X61142381Y-39158152D01*
X61142381Y-39158152D02*
X61190000Y-39253390D01*
X61190000Y-39253390D02*
X61237619Y-39301009D01*
X61237619Y-39301009D02*
X61332857Y-39348628D01*
X61332857Y-39348628D02*
X61713809Y-39348628D01*
X60713809Y-39301009D02*
X60380476Y-39301009D01*
X60237619Y-39824819D02*
X60713809Y-39824819D01*
X60713809Y-39824819D02*
X60713809Y-38824819D01*
X60713809Y-38824819D02*
X60237619Y-38824819D01*
X59856666Y-39777200D02*
X59713809Y-39824819D01*
X59713809Y-39824819D02*
X59475714Y-39824819D01*
X59475714Y-39824819D02*
X59380476Y-39777200D01*
X59380476Y-39777200D02*
X59332857Y-39729580D01*
X59332857Y-39729580D02*
X59285238Y-39634342D01*
X59285238Y-39634342D02*
X59285238Y-39539104D01*
X59285238Y-39539104D02*
X59332857Y-39443866D01*
X59332857Y-39443866D02*
X59380476Y-39396247D01*
X59380476Y-39396247D02*
X59475714Y-39348628D01*
X59475714Y-39348628D02*
X59666190Y-39301009D01*
X59666190Y-39301009D02*
X59761428Y-39253390D01*
X59761428Y-39253390D02*
X59809047Y-39205771D01*
X59809047Y-39205771D02*
X59856666Y-39110533D01*
X59856666Y-39110533D02*
X59856666Y-39015295D01*
X59856666Y-39015295D02*
X59809047Y-38920057D01*
X59809047Y-38920057D02*
X59761428Y-38872438D01*
X59761428Y-38872438D02*
X59666190Y-38824819D01*
X59666190Y-38824819D02*
X59428095Y-38824819D01*
X59428095Y-38824819D02*
X59285238Y-38872438D01*
X58856666Y-39301009D02*
X58523333Y-39301009D01*
X58380476Y-39824819D02*
X58856666Y-39824819D01*
X58856666Y-39824819D02*
X58856666Y-38824819D01*
X58856666Y-38824819D02*
X58380476Y-38824819D01*
X58094761Y-38824819D02*
X57523333Y-38824819D01*
X57809047Y-39824819D02*
X57809047Y-38824819D01*
X61301142Y-54033009D02*
X61158285Y-54080628D01*
X61158285Y-54080628D02*
X61110666Y-54128247D01*
X61110666Y-54128247D02*
X61063047Y-54223485D01*
X61063047Y-54223485D02*
X61063047Y-54366342D01*
X61063047Y-54366342D02*
X61110666Y-54461580D01*
X61110666Y-54461580D02*
X61158285Y-54509200D01*
X61158285Y-54509200D02*
X61253523Y-54556819D01*
X61253523Y-54556819D02*
X61634475Y-54556819D01*
X61634475Y-54556819D02*
X61634475Y-53556819D01*
X61634475Y-53556819D02*
X61301142Y-53556819D01*
X61301142Y-53556819D02*
X61205904Y-53604438D01*
X61205904Y-53604438D02*
X61158285Y-53652057D01*
X61158285Y-53652057D02*
X61110666Y-53747295D01*
X61110666Y-53747295D02*
X61110666Y-53842533D01*
X61110666Y-53842533D02*
X61158285Y-53937771D01*
X61158285Y-53937771D02*
X61205904Y-53985390D01*
X61205904Y-53985390D02*
X61301142Y-54033009D01*
X61301142Y-54033009D02*
X61634475Y-54033009D01*
X60443999Y-53556819D02*
X60253523Y-53556819D01*
X60253523Y-53556819D02*
X60158285Y-53604438D01*
X60158285Y-53604438D02*
X60063047Y-53699676D01*
X60063047Y-53699676D02*
X60015428Y-53890152D01*
X60015428Y-53890152D02*
X60015428Y-54223485D01*
X60015428Y-54223485D02*
X60063047Y-54413961D01*
X60063047Y-54413961D02*
X60158285Y-54509200D01*
X60158285Y-54509200D02*
X60253523Y-54556819D01*
X60253523Y-54556819D02*
X60443999Y-54556819D01*
X60443999Y-54556819D02*
X60539237Y-54509200D01*
X60539237Y-54509200D02*
X60634475Y-54413961D01*
X60634475Y-54413961D02*
X60682094Y-54223485D01*
X60682094Y-54223485D02*
X60682094Y-53890152D01*
X60682094Y-53890152D02*
X60634475Y-53699676D01*
X60634475Y-53699676D02*
X60539237Y-53604438D01*
X60539237Y-53604438D02*
X60443999Y-53556819D01*
X59396380Y-53556819D02*
X59205904Y-53556819D01*
X59205904Y-53556819D02*
X59110666Y-53604438D01*
X59110666Y-53604438D02*
X59015428Y-53699676D01*
X59015428Y-53699676D02*
X58967809Y-53890152D01*
X58967809Y-53890152D02*
X58967809Y-54223485D01*
X58967809Y-54223485D02*
X59015428Y-54413961D01*
X59015428Y-54413961D02*
X59110666Y-54509200D01*
X59110666Y-54509200D02*
X59205904Y-54556819D01*
X59205904Y-54556819D02*
X59396380Y-54556819D01*
X59396380Y-54556819D02*
X59491618Y-54509200D01*
X59491618Y-54509200D02*
X59586856Y-54413961D01*
X59586856Y-54413961D02*
X59634475Y-54223485D01*
X59634475Y-54223485D02*
X59634475Y-53890152D01*
X59634475Y-53890152D02*
X59586856Y-53699676D01*
X59586856Y-53699676D02*
X59491618Y-53604438D01*
X59491618Y-53604438D02*
X59396380Y-53556819D01*
X58682094Y-53556819D02*
X58110666Y-53556819D01*
X58396380Y-54556819D02*
X58396380Y-53556819D01*
D11*
%TO.C,J2*%
X47120000Y-50000000D02*
X47120000Y-51600000D01*
X47120000Y-51600000D02*
X46520000Y-51600000D01*
X46520000Y-41800000D02*
X52540000Y-41800000D01*
X51540000Y-50800000D02*
X52540000Y-50800000D01*
X52540000Y-41800000D02*
X52540000Y-52180000D01*
X52540000Y-43180000D02*
X51540000Y-43180000D01*
X47120000Y-42380000D02*
X47120000Y-43980000D01*
X52540000Y-52180000D02*
X46520000Y-52180000D01*
X47120000Y-44920000D02*
X47120000Y-46520000D01*
X47120000Y-49060000D02*
X46520000Y-49060000D01*
X51540000Y-43180000D02*
X51540000Y-50800000D01*
X46520000Y-44920000D02*
X47120000Y-44920000D01*
X47120000Y-46520000D02*
X46520000Y-46520000D01*
X47120000Y-47460000D02*
X47120000Y-49060000D01*
X47550000Y-41510000D02*
X51550000Y-41510000D01*
X46520000Y-50000000D02*
X47120000Y-50000000D01*
X46520000Y-42380000D02*
X47120000Y-42380000D01*
X46520000Y-52180000D02*
X46520000Y-41800000D01*
X51540000Y-43180000D02*
X51010000Y-43430000D01*
X51010000Y-50550000D02*
X51540000Y-50800000D01*
X52540000Y-43430000D02*
X51540000Y-43430000D01*
X47120000Y-43980000D02*
X46520000Y-43980000D01*
X46520000Y-47460000D02*
X47120000Y-47460000D01*
X51010000Y-43430000D02*
X51010000Y-50550000D01*
X52540000Y-50550000D02*
X51540000Y-50550000D01*
%TO.C,SW3*%
X15205000Y-42890000D02*
X15505000Y-43190000D01*
X15805000Y-42890000D02*
X15205000Y-42890000D01*
X1905000Y-52890000D02*
X6005000Y-52890000D01*
X1905000Y-41090000D02*
X1905000Y-43490000D01*
X15505000Y-43190000D02*
X15805000Y-42890000D01*
X10005000Y-41090000D02*
X14105000Y-41090000D01*
X1905000Y-45690000D02*
X1905000Y-48290000D01*
X1905000Y-50490000D02*
X1905000Y-52890000D01*
X10005000Y-52890000D02*
X14105000Y-52890000D01*
X8005000Y-46490000D02*
X8005000Y-47490000D01*
X14105000Y-41090000D02*
X14105000Y-52890000D01*
X6005000Y-41090000D02*
X1905000Y-41090000D01*
X8505000Y-46990000D02*
X7505000Y-46990000D01*
X11005000Y-46990000D02*
G75*
G02*
X5005000Y-46990000I-3000000J0D01*
G01*
X5005000Y-46990000D02*
G75*
G02*
X11005000Y-46990000I3000000J0D01*
G01*
%TO.C,SW301*%
X62920000Y-53395000D02*
X62920000Y-53365000D01*
X62920000Y-48865000D02*
X62920000Y-51465000D01*
X62920000Y-46935000D02*
X56460000Y-46935000D01*
X62920000Y-53395000D02*
X56460000Y-53395000D01*
X56460000Y-46935000D02*
X56460000Y-46965000D01*
X56460000Y-53395000D02*
X56460000Y-53365000D01*
X62920000Y-46965000D02*
X62920000Y-46935000D01*
X56460000Y-48865000D02*
X56460000Y-51465000D01*
%TO.C,SW302*%
X62920000Y-46410000D02*
X62920000Y-46380000D01*
X56460000Y-39950000D02*
X56460000Y-39980000D01*
X62920000Y-39980000D02*
X62920000Y-39950000D01*
X56460000Y-46410000D02*
X56460000Y-46380000D01*
X62920000Y-41880000D02*
X62920000Y-44480000D01*
X62920000Y-46410000D02*
X56460000Y-46410000D01*
X62920000Y-39950000D02*
X56460000Y-39950000D01*
X56460000Y-41880000D02*
X56460000Y-44480000D01*
%TO.C,J301*%
X71910000Y-39372500D02*
X72910000Y-39372500D01*
X72410000Y-39872500D02*
X71910000Y-39372500D01*
X72910000Y-39372500D02*
X72410000Y-39872500D01*
X66610000Y-53172500D02*
X80710000Y-53172500D01*
X80710000Y-44872500D02*
X80710000Y-40072500D01*
X80710000Y-53172500D02*
X80710000Y-48372500D01*
X80710000Y-40072500D02*
X66610000Y-40072500D01*
X66610000Y-48372500D02*
X66610000Y-53172500D01*
X66610000Y-40072500D02*
X66610000Y-44872500D01*
%TO.C,U3*%
X39140000Y-34065000D02*
X38760000Y-34065000D01*
X39140000Y-15665000D02*
X39140000Y-15045000D01*
X39140000Y-34485000D02*
X57380000Y-34485000D01*
X57380000Y-15045000D02*
X56380000Y-15045000D01*
X57380000Y-34485000D02*
X57380000Y-34065000D01*
X39140000Y-15045000D02*
X40140000Y-15045000D01*
X57380000Y-15665000D02*
X57380000Y-15045000D01*
X39140000Y-34485000D02*
X39140000Y-34065000D01*
%TO.C,U7*%
X77390000Y-33080000D02*
X77390000Y-8080000D01*
X80520000Y-2440000D02*
X79730000Y-2440000D01*
X72190000Y-13080000D02*
X8690000Y-13080000D01*
X73890000Y-2080000D02*
X70890000Y-2080000D01*
X80530000Y-2440000D02*
X80530000Y-38720000D01*
X4390000Y-8080000D02*
X4390000Y-33080000D01*
X8190000Y-13580000D02*
X8190000Y-27580000D01*
X77390000Y-8080000D02*
X4390000Y-8080000D01*
X4390000Y-33080000D02*
X77390000Y-33080000D01*
X80530000Y-38720000D02*
X250000Y-38720000D01*
X8689340Y-28080000D02*
X72190000Y-28080000D01*
X250000Y-2440000D02*
X79730000Y-2440000D01*
X72689720Y-27579320D02*
X72689720Y-13580000D01*
X250000Y-38720000D02*
X250000Y-2440000D01*
X8689340Y-28079700D02*
G75*
G02*
X8189000Y-27579320I-40J500300D01*
G01*
X8190000Y-13580000D02*
G75*
G02*
X8690000Y-13080000I500000J0D01*
G01*
X72189340Y-13078460D02*
G75*
G02*
X72689720Y-13578840I0J-500380D01*
G01*
X72689720Y-27579320D02*
G75*
G02*
X72189340Y-28079700I-500380J0D01*
G01*
%TD*%
%LPC*%
D12*
%TO.C,J9*%
X71775000Y-16510000D03*
D13*
X71775000Y-13970000D03*
X71775000Y-11430000D03*
X71775000Y-8890000D03*
%TD*%
D14*
%TO.C,J3*%
X0Y-21610000D03*
D15*
X2540000Y-21610000D03*
%TD*%
D12*
%TO.C,J10*%
X78760000Y-16510000D03*
D13*
X78760000Y-13970000D03*
X78760000Y-11430000D03*
X78760000Y-8890000D03*
%TD*%
D14*
%TO.C,J13*%
X34925000Y-50820000D03*
D15*
X37465000Y-50820000D03*
X40005000Y-50820000D03*
X42545000Y-50820000D03*
%TD*%
D12*
%TO.C,J8*%
X71775000Y-27940000D03*
D13*
X71775000Y-25400000D03*
X71775000Y-22860000D03*
X71775000Y-20320000D03*
%TD*%
D14*
%TO.C,J4*%
X0Y-28595000D03*
D15*
X2540000Y-28595000D03*
%TD*%
D14*
%TO.C,J14*%
X34925000Y-43835000D03*
D15*
X37465000Y-43835000D03*
X40005000Y-43835000D03*
X42545000Y-43835000D03*
%TD*%
D12*
%TO.C,J7*%
X78740000Y-27940000D03*
D13*
X78740000Y-25400000D03*
X78740000Y-22860000D03*
X78740000Y-20320000D03*
%TD*%
D16*
%TO.C,J1*%
X10445000Y-13012500D03*
D17*
X4445000Y-13012500D03*
D18*
X7445000Y-17712500D03*
%TD*%
D19*
%TO.C,J2*%
X49550000Y-43180000D03*
D13*
X49550000Y-45720000D03*
X49550000Y-48260000D03*
X49550000Y-50800000D03*
%TD*%
D20*
%TO.C,SW3*%
X15505000Y-44490000D03*
D21*
X15505000Y-49490000D03*
X15505000Y-46990000D03*
D22*
X8005000Y-52590000D03*
X8005000Y-41390000D03*
D21*
X1005000Y-49490000D03*
X1005000Y-44490000D03*
%TD*%
D23*
%TO.C,SW301*%
X55715000Y-47915000D03*
X63665000Y-47915000D03*
X55715000Y-52415000D03*
X63665000Y-52415000D03*
%TD*%
%TO.C,SW302*%
X63665000Y-40930000D03*
X55715000Y-40930000D03*
X55715000Y-45430000D03*
X63665000Y-45430000D03*
%TD*%
D24*
%TO.C,J301*%
X72410000Y-43872500D03*
D25*
X74910000Y-43872500D03*
X74910000Y-47072500D03*
X72410000Y-47072500D03*
D26*
X67640000Y-46582500D03*
X79680000Y-46582500D03*
%TD*%
D27*
%TO.C,U3*%
X39510000Y-33020000D03*
X39510000Y-31750000D03*
X39510000Y-30480000D03*
X39510000Y-29210000D03*
X39510000Y-27940000D03*
X39510000Y-26670000D03*
X39510000Y-25400000D03*
X39510000Y-24130000D03*
X39510000Y-22860000D03*
X39510000Y-21590000D03*
X39510000Y-20320000D03*
X39510000Y-19050000D03*
X39510000Y-17780000D03*
X39510000Y-16510000D03*
D28*
X42545000Y-15415000D03*
X43815000Y-15415000D03*
X45085000Y-15415000D03*
X46355000Y-15415000D03*
X47625000Y-15415000D03*
X48895000Y-15415000D03*
X50165000Y-15415000D03*
X51435000Y-15415000D03*
X52705000Y-15415000D03*
X53975000Y-15415000D03*
D27*
X57010000Y-16510000D03*
X57010000Y-17780000D03*
X57010000Y-19050000D03*
X57010000Y-20320000D03*
X57010000Y-21590000D03*
X57010000Y-22860000D03*
X57010000Y-24130000D03*
X57010000Y-25400000D03*
X57010000Y-26670000D03*
X57010000Y-27940000D03*
X57010000Y-29210000D03*
X57010000Y-30480000D03*
X57010000Y-31750000D03*
X57010000Y-33020000D03*
D29*
X46060000Y-26855000D03*
X47460000Y-26855000D03*
X48160000Y-24755000D03*
X46760000Y-24755000D03*
D30*
X46760000Y-25455000D03*
D29*
X46760000Y-26155000D03*
X48160000Y-26155000D03*
X47460000Y-24055000D03*
X45360000Y-26155000D03*
X46060000Y-25455000D03*
X45360000Y-24755000D03*
X46060000Y-24055000D03*
X47460000Y-25455000D03*
%TD*%
D26*
%TO.C,U7*%
X2890520Y-36080700D03*
X2890000Y-5080000D03*
X77889100Y-36080700D03*
X77889100Y-5080000D03*
D31*
X72390000Y-5080000D03*
D32*
X69850000Y-5080000D03*
X67310000Y-5080000D03*
X64770000Y-5080000D03*
X62230000Y-5080000D03*
X59690000Y-5080000D03*
X57150000Y-5080000D03*
X54610000Y-5080000D03*
X52070000Y-5080000D03*
X49530000Y-5080000D03*
X46990000Y-5080000D03*
X44450000Y-5080000D03*
X41910000Y-5080000D03*
X39370000Y-5080000D03*
X36830000Y-5080000D03*
X34290000Y-5080000D03*
%TD*%
%LPD*%
M02*
