M48
;DRILL file {KiCad 5.0.2+dfsg1-1} date sam. 07 sept. 2019 17:22:53 CEST
;FORMAT={-:-/ absolute / metric / decimal}
FMAT,2
METRIC,TZ
T1C0.800
T2C0.900
T3C1.000
T4C1.100
T5C1.500
T6C1.501
T7C2.500
T8C3.200
T9C3.500
%
G90
G05
T1
X56.896Y30.861
X56.896Y20.701
X24.003Y41.275
X24.003Y31.115
X57.023Y17.533
X57.023Y10.033
X14.482Y46.609
X17.022Y46.609
X19.562Y46.609
X22.102Y46.609
X23.622Y-1.651
X24.642Y46.609
X26.162Y-1.651
X27.182Y46.609
X28.702Y-1.651
X29.722Y46.609
X31.242Y-1.651
X32.262Y46.609
X33.782Y-1.651
X34.802Y46.609
X36.322Y-1.651
X37.342Y46.609
X38.862Y-1.651
X41.402Y46.609
X41.402Y-1.651
X43.942Y46.609
X46.482Y46.609
X46.482Y-1.651
X49.022Y46.609
X49.022Y-1.651
X51.562Y46.609
X51.562Y-1.651
X54.102Y46.609
X54.102Y-1.651
X56.642Y46.609
X56.642Y-1.651
X59.182Y46.609
X59.182Y-1.651
X39.497Y5.588
X46.997Y5.588
X35.56Y41.529
X35.56Y31.369
X52.451Y42.164
X52.451Y32.004
X40.005Y40.513
X40.005Y37.973
X40.005Y35.433
X40.005Y32.893
X47.625Y40.513
X47.625Y37.973
X47.625Y35.433
X47.625Y32.893
T2
X29.337Y40.894
X29.337Y38.354
X29.337Y34.036
X29.337Y31.496
T3
X61.976Y11.811
X61.976Y9.271
X2.286Y46.609
X4.826Y46.609
X7.366Y46.609
X9.906Y46.609
X39.497Y15.113
X39.497Y10.033
X13.288Y11.049
X18.288Y11.049
X61.976Y5.08
X61.976Y2.54
T4
X46.736Y10.033
X49.276Y10.033
X51.816Y10.033
T5
X18.294Y23.114
X40.894Y23.114
T6
X12.954Y-0.381
X18.034Y-0.381
X58.674Y41.656
X58.674Y36.576
T7
X0.Y0.
T8
X28.397Y12.573
T9
X49.276Y26.693
T0
M30
