G04 #@! TF.GenerationSoftware,KiCad,Pcbnew,5.0.2+dfsg1-1*
G04 #@! TF.CreationDate,2019-09-07T17:28:14+02:00*
G04 #@! TF.ProjectId,carte-alim,63617274-652d-4616-9c69-6d2e6b696361,rev?*
G04 #@! TF.SameCoordinates,PXb647d18PY5d9f878*
G04 #@! TF.FileFunction,Legend,Top*
G04 #@! TF.FilePolarity,Positive*
%FSLAX46Y46*%
G04 Gerber Fmt 4.6, Leading zero omitted, Abs format (unit mm)*
G04 Created by KiCad (PCBNEW 5.0.2+dfsg1-1) date sam. 07 sept. 2019 17:28:14 CEST*
%MOMM*%
%LPD*%
G01*
G04 APERTURE LIST*
%ADD10C,0.120000*%
%ADD11C,0.150000*%
G04 APERTURE END LIST*
D10*
G04 #@! TO.C,C2*
X47867000Y4923000D02*
X47867000Y3818000D01*
X47867000Y7358000D02*
X47867000Y6253000D01*
X38627000Y4923000D02*
X38627000Y3818000D01*
X38627000Y7358000D02*
X38627000Y6253000D01*
X38627000Y3818000D02*
X47867000Y3818000D01*
X38627000Y7358000D02*
X47867000Y7358000D01*
G04 #@! TO.C,C3*
X55253000Y9163000D02*
X55253000Y18403000D01*
X58793000Y9163000D02*
X58793000Y18403000D01*
X55253000Y9163000D02*
X56358000Y9163000D01*
X57688000Y9163000D02*
X58793000Y9163000D01*
X55253000Y18403000D02*
X56358000Y18403000D01*
X57688000Y18403000D02*
X58793000Y18403000D01*
G04 #@! TO.C,D1*
X35617000Y8453000D02*
X35617000Y16693000D01*
X24377000Y8453000D02*
X24377000Y16693000D01*
X24377000Y8453000D02*
X35617000Y8453000D01*
X24377000Y16693000D02*
X35617000Y16693000D01*
X35617000Y10033000D02*
X38447000Y10033000D01*
X35617000Y15113000D02*
X38431000Y15113000D01*
G04 #@! TO.C,D2*
X28258392Y41296335D02*
G75*
G03X28101484Y38064000I1078608J-1672335D01*
G01*
X30415608Y41296335D02*
G75*
G02X30572516Y38064000I-1078608J-1672335D01*
G01*
X28257163Y40665130D02*
G75*
G03X28257000Y38583039I1079837J-1041130D01*
G01*
X30416837Y40665130D02*
G75*
G02X30417000Y38583039I-1079837J-1041130D01*
G01*
X28101000Y38064000D02*
X28257000Y38064000D01*
X30417000Y38064000D02*
X30573000Y38064000D01*
G04 #@! TO.C,D4*
X30417000Y31206000D02*
X30573000Y31206000D01*
X28101000Y31206000D02*
X28257000Y31206000D01*
X30416837Y33807130D02*
G75*
G02X30417000Y31725039I-1079837J-1041130D01*
G01*
X28257163Y33807130D02*
G75*
G03X28257000Y31725039I1079837J-1041130D01*
G01*
X30415608Y34438335D02*
G75*
G02X30572516Y31206000I-1078608J-1672335D01*
G01*
X28258392Y34438335D02*
G75*
G03X28101484Y31206000I1078608J-1672335D01*
G01*
G04 #@! TO.C,F1*
X18294000Y27914000D02*
X18294000Y25114000D01*
X18294000Y21114000D02*
X18294000Y18314000D01*
X40894000Y21114000D02*
X40894000Y18314000D01*
X40894000Y18314000D02*
X18294000Y18314000D01*
X40894000Y27914000D02*
X18294000Y27914000D01*
X40894000Y27914000D02*
X40894000Y25114000D01*
G04 #@! TO.C,J2*
X956000Y47939000D02*
X956000Y45279000D01*
X8636000Y47939000D02*
X956000Y47939000D01*
X8636000Y45279000D02*
X956000Y45279000D01*
X8636000Y47939000D02*
X8636000Y45279000D01*
X9906000Y47939000D02*
X11236000Y47939000D01*
X11236000Y47939000D02*
X11236000Y46609000D01*
G04 #@! TO.C,J3*
X60646000Y1210000D02*
X63306000Y1210000D01*
X60646000Y3810000D02*
X60646000Y1210000D01*
X63306000Y3810000D02*
X63306000Y1210000D01*
X60646000Y3810000D02*
X63306000Y3810000D01*
X60646000Y5080000D02*
X60646000Y6410000D01*
X60646000Y6410000D02*
X61976000Y6410000D01*
G04 #@! TO.C,J4*
X60646000Y13141000D02*
X61976000Y13141000D01*
X60646000Y11811000D02*
X60646000Y13141000D01*
X60646000Y10541000D02*
X63306000Y10541000D01*
X63306000Y10541000D02*
X63306000Y7941000D01*
X60646000Y10541000D02*
X60646000Y7941000D01*
X60646000Y7941000D02*
X63306000Y7941000D01*
G04 #@! TO.C,R1*
X25373000Y39465000D02*
X22633000Y39465000D01*
X22633000Y39465000D02*
X22633000Y32925000D01*
X22633000Y32925000D02*
X25373000Y32925000D01*
X25373000Y32925000D02*
X25373000Y39465000D01*
X24003000Y40235000D02*
X24003000Y39465000D01*
X24003000Y32155000D02*
X24003000Y32925000D01*
G04 #@! TO.C,R4*
X56896000Y29821000D02*
X56896000Y29051000D01*
X56896000Y21741000D02*
X56896000Y22511000D01*
X55526000Y29051000D02*
X55526000Y22511000D01*
X58266000Y29051000D02*
X55526000Y29051000D01*
X58266000Y22511000D02*
X58266000Y29051000D01*
X55526000Y22511000D02*
X58266000Y22511000D01*
G04 #@! TO.C,R5*
X51081000Y33814000D02*
X53821000Y33814000D01*
X53821000Y33814000D02*
X53821000Y40354000D01*
X53821000Y40354000D02*
X51081000Y40354000D01*
X51081000Y40354000D02*
X51081000Y33814000D01*
X52451000Y33044000D02*
X52451000Y33814000D01*
X52451000Y41124000D02*
X52451000Y40354000D01*
G04 #@! TO.C,R6*
X35560000Y40489000D02*
X35560000Y39719000D01*
X35560000Y32409000D02*
X35560000Y33179000D01*
X34190000Y39719000D02*
X34190000Y33179000D01*
X36930000Y39719000D02*
X34190000Y39719000D01*
X36930000Y33179000D02*
X36930000Y39719000D01*
X34190000Y33179000D02*
X36930000Y33179000D01*
G04 #@! TO.C,U1*
X44156000Y13723000D02*
X54396000Y13723000D01*
X44156000Y29613000D02*
X54396000Y29613000D01*
X44156000Y29613000D02*
X44156000Y13723000D01*
X54396000Y29613000D02*
X54396000Y13723000D01*
X46736000Y13723000D02*
X46736000Y11183000D01*
X49276000Y13723000D02*
X49276000Y11183000D01*
X51816000Y13723000D02*
X51816000Y11183000D01*
G04 #@! TO.C,U2*
X42815000Y31563000D02*
G75*
G02X44815000Y31563000I1000000J0D01*
G01*
X44815000Y31563000D02*
X46465000Y31563000D01*
X46465000Y31563000D02*
X46465000Y41843000D01*
X46465000Y41843000D02*
X41165000Y41843000D01*
X41165000Y41843000D02*
X41165000Y31563000D01*
X41165000Y31563000D02*
X42815000Y31563000D01*
G04 #@! TO.C,C1*
X20908000Y11049000D02*
G75*
G03X20908000Y11049000I-5120000J0D01*
G01*
X15788000Y5969000D02*
X15788000Y16129000D01*
X15748000Y5969000D02*
X15748000Y16129000D01*
X15708000Y5969000D02*
X15708000Y16129000D01*
X15668000Y5970000D02*
X15668000Y16128000D01*
X15628000Y5971000D02*
X15628000Y16127000D01*
X15588000Y5972000D02*
X15588000Y16126000D01*
X15548000Y5974000D02*
X15548000Y16124000D01*
X15508000Y5976000D02*
X15508000Y16122000D01*
X15468000Y5979000D02*
X15468000Y16119000D01*
X15428000Y5981000D02*
X15428000Y16117000D01*
X15388000Y5984000D02*
X15388000Y16114000D01*
X15348000Y5987000D02*
X15348000Y16111000D01*
X15308000Y5991000D02*
X15308000Y16107000D01*
X15268000Y5995000D02*
X15268000Y16103000D01*
X15228000Y5999000D02*
X15228000Y16099000D01*
X15188000Y6004000D02*
X15188000Y16094000D01*
X15148000Y6009000D02*
X15148000Y16089000D01*
X15108000Y6014000D02*
X15108000Y16084000D01*
X15067000Y6019000D02*
X15067000Y16079000D01*
X15027000Y6025000D02*
X15027000Y16073000D01*
X14987000Y6031000D02*
X14987000Y16067000D01*
X14947000Y6038000D02*
X14947000Y16060000D01*
X14907000Y6045000D02*
X14907000Y16053000D01*
X14867000Y6052000D02*
X14867000Y16046000D01*
X14827000Y6059000D02*
X14827000Y16039000D01*
X14787000Y6067000D02*
X14787000Y16031000D01*
X14747000Y6075000D02*
X14747000Y16023000D01*
X14707000Y6084000D02*
X14707000Y16014000D01*
X14667000Y6093000D02*
X14667000Y16005000D01*
X14627000Y6102000D02*
X14627000Y15996000D01*
X14587000Y6111000D02*
X14587000Y15987000D01*
X14547000Y6121000D02*
X14547000Y15977000D01*
X14507000Y6131000D02*
X14507000Y9808000D01*
X14507000Y12290000D02*
X14507000Y15967000D01*
X14467000Y6142000D02*
X14467000Y9808000D01*
X14467000Y12290000D02*
X14467000Y15956000D01*
X14427000Y6152000D02*
X14427000Y9808000D01*
X14427000Y12290000D02*
X14427000Y15946000D01*
X14387000Y6164000D02*
X14387000Y9808000D01*
X14387000Y12290000D02*
X14387000Y15934000D01*
X14347000Y6175000D02*
X14347000Y9808000D01*
X14347000Y12290000D02*
X14347000Y15923000D01*
X14307000Y6187000D02*
X14307000Y9808000D01*
X14307000Y12290000D02*
X14307000Y15911000D01*
X14267000Y6199000D02*
X14267000Y9808000D01*
X14267000Y12290000D02*
X14267000Y15899000D01*
X14227000Y6212000D02*
X14227000Y9808000D01*
X14227000Y12290000D02*
X14227000Y15886000D01*
X14187000Y6225000D02*
X14187000Y9808000D01*
X14187000Y12290000D02*
X14187000Y15873000D01*
X14147000Y6238000D02*
X14147000Y9808000D01*
X14147000Y12290000D02*
X14147000Y15860000D01*
X14107000Y6252000D02*
X14107000Y9808000D01*
X14107000Y12290000D02*
X14107000Y15846000D01*
X14067000Y6266000D02*
X14067000Y9808000D01*
X14067000Y12290000D02*
X14067000Y15832000D01*
X14027000Y6281000D02*
X14027000Y9808000D01*
X14027000Y12290000D02*
X14027000Y15817000D01*
X13987000Y6295000D02*
X13987000Y9808000D01*
X13987000Y12290000D02*
X13987000Y15803000D01*
X13947000Y6311000D02*
X13947000Y9808000D01*
X13947000Y12290000D02*
X13947000Y15787000D01*
X13907000Y6326000D02*
X13907000Y9808000D01*
X13907000Y12290000D02*
X13907000Y15772000D01*
X13867000Y6342000D02*
X13867000Y9808000D01*
X13867000Y12290000D02*
X13867000Y15756000D01*
X13827000Y6359000D02*
X13827000Y9808000D01*
X13827000Y12290000D02*
X13827000Y15739000D01*
X13787000Y6375000D02*
X13787000Y9808000D01*
X13787000Y12290000D02*
X13787000Y15723000D01*
X13747000Y6392000D02*
X13747000Y9808000D01*
X13747000Y12290000D02*
X13747000Y15706000D01*
X13707000Y6410000D02*
X13707000Y9808000D01*
X13707000Y12290000D02*
X13707000Y15688000D01*
X13667000Y6428000D02*
X13667000Y9808000D01*
X13667000Y12290000D02*
X13667000Y15670000D01*
X13627000Y6446000D02*
X13627000Y9808000D01*
X13627000Y12290000D02*
X13627000Y15652000D01*
X13587000Y6465000D02*
X13587000Y9808000D01*
X13587000Y12290000D02*
X13587000Y15633000D01*
X13547000Y6485000D02*
X13547000Y9808000D01*
X13547000Y12290000D02*
X13547000Y15613000D01*
X13507000Y6504000D02*
X13507000Y9808000D01*
X13507000Y12290000D02*
X13507000Y15594000D01*
X13467000Y6524000D02*
X13467000Y9808000D01*
X13467000Y12290000D02*
X13467000Y15574000D01*
X13427000Y6545000D02*
X13427000Y9808000D01*
X13427000Y12290000D02*
X13427000Y15553000D01*
X13387000Y6566000D02*
X13387000Y9808000D01*
X13387000Y12290000D02*
X13387000Y15532000D01*
X13347000Y6587000D02*
X13347000Y9808000D01*
X13347000Y12290000D02*
X13347000Y15511000D01*
X13307000Y6609000D02*
X13307000Y9808000D01*
X13307000Y12290000D02*
X13307000Y15489000D01*
X13267000Y6632000D02*
X13267000Y9808000D01*
X13267000Y12290000D02*
X13267000Y15466000D01*
X13227000Y6654000D02*
X13227000Y9808000D01*
X13227000Y12290000D02*
X13227000Y15444000D01*
X13187000Y6678000D02*
X13187000Y9808000D01*
X13187000Y12290000D02*
X13187000Y15420000D01*
X13147000Y6702000D02*
X13147000Y9808000D01*
X13147000Y12290000D02*
X13147000Y15396000D01*
X13107000Y6726000D02*
X13107000Y9808000D01*
X13107000Y12290000D02*
X13107000Y15372000D01*
X13067000Y6751000D02*
X13067000Y9808000D01*
X13067000Y12290000D02*
X13067000Y15347000D01*
X13027000Y6776000D02*
X13027000Y9808000D01*
X13027000Y12290000D02*
X13027000Y15322000D01*
X12987000Y6802000D02*
X12987000Y9808000D01*
X12987000Y12290000D02*
X12987000Y15296000D01*
X12947000Y6828000D02*
X12947000Y9808000D01*
X12947000Y12290000D02*
X12947000Y15270000D01*
X12907000Y6855000D02*
X12907000Y9808000D01*
X12907000Y12290000D02*
X12907000Y15243000D01*
X12867000Y6883000D02*
X12867000Y9808000D01*
X12867000Y12290000D02*
X12867000Y15215000D01*
X12827000Y6911000D02*
X12827000Y9808000D01*
X12827000Y12290000D02*
X12827000Y15187000D01*
X12787000Y6939000D02*
X12787000Y9808000D01*
X12787000Y12290000D02*
X12787000Y15159000D01*
X12747000Y6969000D02*
X12747000Y9808000D01*
X12747000Y12290000D02*
X12747000Y15129000D01*
X12707000Y6999000D02*
X12707000Y9808000D01*
X12707000Y12290000D02*
X12707000Y15099000D01*
X12667000Y7029000D02*
X12667000Y9808000D01*
X12667000Y12290000D02*
X12667000Y15069000D01*
X12627000Y7060000D02*
X12627000Y9808000D01*
X12627000Y12290000D02*
X12627000Y15038000D01*
X12587000Y7092000D02*
X12587000Y9808000D01*
X12587000Y12290000D02*
X12587000Y15006000D01*
X12547000Y7124000D02*
X12547000Y9808000D01*
X12547000Y12290000D02*
X12547000Y14974000D01*
X12507000Y7157000D02*
X12507000Y9808000D01*
X12507000Y12290000D02*
X12507000Y14941000D01*
X12467000Y7191000D02*
X12467000Y9808000D01*
X12467000Y12290000D02*
X12467000Y14907000D01*
X12427000Y7225000D02*
X12427000Y9808000D01*
X12427000Y12290000D02*
X12427000Y14873000D01*
X12387000Y7260000D02*
X12387000Y9808000D01*
X12387000Y12290000D02*
X12387000Y14838000D01*
X12347000Y7296000D02*
X12347000Y9808000D01*
X12347000Y12290000D02*
X12347000Y14802000D01*
X12307000Y7333000D02*
X12307000Y9808000D01*
X12307000Y12290000D02*
X12307000Y14765000D01*
X12267000Y7370000D02*
X12267000Y9808000D01*
X12267000Y12290000D02*
X12267000Y14728000D01*
X12227000Y7409000D02*
X12227000Y9808000D01*
X12227000Y12290000D02*
X12227000Y14689000D01*
X12187000Y7448000D02*
X12187000Y9808000D01*
X12187000Y12290000D02*
X12187000Y14650000D01*
X12147000Y7488000D02*
X12147000Y9808000D01*
X12147000Y12290000D02*
X12147000Y14610000D01*
X12107000Y7529000D02*
X12107000Y9808000D01*
X12107000Y12290000D02*
X12107000Y14569000D01*
X12067000Y7571000D02*
X12067000Y9808000D01*
X12067000Y12290000D02*
X12067000Y14527000D01*
X12027000Y7613000D02*
X12027000Y14485000D01*
X11987000Y7657000D02*
X11987000Y14441000D01*
X11947000Y7702000D02*
X11947000Y14396000D01*
X11907000Y7748000D02*
X11907000Y14350000D01*
X11867000Y7795000D02*
X11867000Y14303000D01*
X11827000Y7843000D02*
X11827000Y14255000D01*
X11787000Y7893000D02*
X11787000Y14205000D01*
X11747000Y7943000D02*
X11747000Y14155000D01*
X11707000Y7995000D02*
X11707000Y14103000D01*
X11667000Y8049000D02*
X11667000Y14049000D01*
X11627000Y8104000D02*
X11627000Y13994000D01*
X11587000Y8160000D02*
X11587000Y13938000D01*
X11547000Y8219000D02*
X11547000Y13879000D01*
X11507000Y8279000D02*
X11507000Y13819000D01*
X11467000Y8340000D02*
X11467000Y13758000D01*
X11427000Y8404000D02*
X11427000Y13694000D01*
X11387000Y8470000D02*
X11387000Y13628000D01*
X11347000Y8539000D02*
X11347000Y13559000D01*
X11307000Y8610000D02*
X11307000Y13488000D01*
X11267000Y8684000D02*
X11267000Y13414000D01*
X11227000Y8760000D02*
X11227000Y13338000D01*
X11187000Y8840000D02*
X11187000Y13258000D01*
X11147000Y8924000D02*
X11147000Y13174000D01*
X11107000Y9012000D02*
X11107000Y13086000D01*
X11067000Y9105000D02*
X11067000Y12993000D01*
X11027000Y9203000D02*
X11027000Y12895000D01*
X10987000Y9307000D02*
X10987000Y12791000D01*
X10947000Y9419000D02*
X10947000Y12679000D01*
X10907000Y9539000D02*
X10907000Y12559000D01*
X10867000Y9671000D02*
X10867000Y12427000D01*
X10827000Y9819000D02*
X10827000Y12279000D01*
X10787000Y9987000D02*
X10787000Y12111000D01*
X10747000Y10187000D02*
X10747000Y11911000D01*
X10707000Y10450000D02*
X10707000Y11648000D01*
X21267646Y8174000D02*
X20267646Y8174000D01*
X20767646Y7674000D02*
X20767646Y8674000D01*
G04 #@! TO.C,BT1*
D11*
X14708285Y3500429D02*
X14851142Y3452810D01*
X14898761Y3405191D01*
X14946380Y3309953D01*
X14946380Y3167096D01*
X14898761Y3071858D01*
X14851142Y3024239D01*
X14755904Y2976620D01*
X14374952Y2976620D01*
X14374952Y3976620D01*
X14708285Y3976620D01*
X14803523Y3929000D01*
X14851142Y3881381D01*
X14898761Y3786143D01*
X14898761Y3690905D01*
X14851142Y3595667D01*
X14803523Y3548048D01*
X14708285Y3500429D01*
X14374952Y3500429D01*
X15232095Y3976620D02*
X15803523Y3976620D01*
X15517809Y2976620D02*
X15517809Y3976620D01*
X16660666Y2976620D02*
X16089238Y2976620D01*
X16374952Y2976620D02*
X16374952Y3976620D01*
X16279714Y3833762D01*
X16184476Y3738524D01*
X16089238Y3690905D01*
G04 #@! TO.C,C2*
X43080333Y8130858D02*
X43032714Y8083239D01*
X42889857Y8035620D01*
X42794619Y8035620D01*
X42651761Y8083239D01*
X42556523Y8178477D01*
X42508904Y8273715D01*
X42461285Y8464191D01*
X42461285Y8607048D01*
X42508904Y8797524D01*
X42556523Y8892762D01*
X42651761Y8988000D01*
X42794619Y9035620D01*
X42889857Y9035620D01*
X43032714Y8988000D01*
X43080333Y8940381D01*
X43461285Y8940381D02*
X43508904Y8988000D01*
X43604142Y9035620D01*
X43842238Y9035620D01*
X43937476Y8988000D01*
X43985095Y8940381D01*
X44032714Y8845143D01*
X44032714Y8749905D01*
X43985095Y8607048D01*
X43413666Y8035620D01*
X44032714Y8035620D01*
G04 #@! TO.C,C3*
X54480142Y13616334D02*
X54527761Y13568715D01*
X54575380Y13425858D01*
X54575380Y13330620D01*
X54527761Y13187762D01*
X54432523Y13092524D01*
X54337285Y13044905D01*
X54146809Y12997286D01*
X54003952Y12997286D01*
X53813476Y13044905D01*
X53718238Y13092524D01*
X53623000Y13187762D01*
X53575380Y13330620D01*
X53575380Y13425858D01*
X53623000Y13568715D01*
X53670619Y13616334D01*
X53575380Y13949667D02*
X53575380Y14568715D01*
X53956333Y14235381D01*
X53956333Y14378239D01*
X54003952Y14473477D01*
X54051571Y14521096D01*
X54146809Y14568715D01*
X54384904Y14568715D01*
X54480142Y14521096D01*
X54527761Y14473477D01*
X54575380Y14378239D01*
X54575380Y14092524D01*
X54527761Y13997286D01*
X54480142Y13949667D01*
G04 #@! TO.C,D1*
X23829380Y11834905D02*
X22829380Y11834905D01*
X22829380Y12073000D01*
X22877000Y12215858D01*
X22972238Y12311096D01*
X23067476Y12358715D01*
X23257952Y12406334D01*
X23400809Y12406334D01*
X23591285Y12358715D01*
X23686523Y12311096D01*
X23781761Y12215858D01*
X23829380Y12073000D01*
X23829380Y11834905D01*
X23829380Y13358715D02*
X23829380Y12787286D01*
X23829380Y13073000D02*
X22829380Y13073000D01*
X22972238Y12977762D01*
X23067476Y12882524D01*
X23115095Y12787286D01*
G04 #@! TO.C,D2*
X26829380Y38885905D02*
X25829380Y38885905D01*
X25829380Y39124000D01*
X25877000Y39266858D01*
X25972238Y39362096D01*
X26067476Y39409715D01*
X26257952Y39457334D01*
X26400809Y39457334D01*
X26591285Y39409715D01*
X26686523Y39362096D01*
X26781761Y39266858D01*
X26829380Y39124000D01*
X26829380Y38885905D01*
X25924619Y39838286D02*
X25877000Y39885905D01*
X25829380Y39981143D01*
X25829380Y40219239D01*
X25877000Y40314477D01*
X25924619Y40362096D01*
X26019857Y40409715D01*
X26115095Y40409715D01*
X26257952Y40362096D01*
X26829380Y39790667D01*
X26829380Y40409715D01*
G04 #@! TO.C,D4*
X26829380Y32027905D02*
X25829380Y32027905D01*
X25829380Y32266000D01*
X25877000Y32408858D01*
X25972238Y32504096D01*
X26067476Y32551715D01*
X26257952Y32599334D01*
X26400809Y32599334D01*
X26591285Y32551715D01*
X26686523Y32504096D01*
X26781761Y32408858D01*
X26829380Y32266000D01*
X26829380Y32027905D01*
X26162714Y33456477D02*
X26829380Y33456477D01*
X25781761Y33218381D02*
X26496047Y32980286D01*
X26496047Y33599334D01*
G04 #@! TO.C,F1*
X29310666Y17185429D02*
X28977333Y17185429D01*
X28977333Y16661620D02*
X28977333Y17661620D01*
X29453523Y17661620D01*
X30358285Y16661620D02*
X29786857Y16661620D01*
X30072571Y16661620D02*
X30072571Y17661620D01*
X29977333Y17518762D01*
X29882095Y17423524D01*
X29786857Y17375905D01*
G04 #@! TO.C,J1*
X61936380Y38782667D02*
X62650666Y38782667D01*
X62793523Y38735048D01*
X62888761Y38639810D01*
X62936380Y38496953D01*
X62936380Y38401715D01*
X62936380Y39782667D02*
X62936380Y39211239D01*
X62936380Y39496953D02*
X61936380Y39496953D01*
X62079238Y39401715D01*
X62174476Y39306477D01*
X62222095Y39211239D01*
G04 #@! TO.C,J2*
X11688380Y46275667D02*
X12402666Y46275667D01*
X12545523Y46228048D01*
X12640761Y46132810D01*
X12688380Y45989953D01*
X12688380Y45894715D01*
X11783619Y46704239D02*
X11736000Y46751858D01*
X11688380Y46847096D01*
X11688380Y47085191D01*
X11736000Y47180429D01*
X11783619Y47228048D01*
X11878857Y47275667D01*
X11974095Y47275667D01*
X12116952Y47228048D01*
X12688380Y46656620D01*
X12688380Y47275667D01*
G04 #@! TO.C,J3*
X61642666Y7957620D02*
X61642666Y7243334D01*
X61595047Y7100477D01*
X61499809Y7005239D01*
X61356952Y6957620D01*
X61261714Y6957620D01*
X62023619Y7957620D02*
X62642666Y7957620D01*
X62309333Y7576667D01*
X62452190Y7576667D01*
X62547428Y7529048D01*
X62595047Y7481429D01*
X62642666Y7386191D01*
X62642666Y7148096D01*
X62595047Y7052858D01*
X62547428Y7005239D01*
X62452190Y6957620D01*
X62166476Y6957620D01*
X62071238Y7005239D01*
X62023619Y7052858D01*
G04 #@! TO.C,J4*
X61642666Y14688620D02*
X61642666Y13974334D01*
X61595047Y13831477D01*
X61499809Y13736239D01*
X61356952Y13688620D01*
X61261714Y13688620D01*
X62547428Y14355286D02*
X62547428Y13688620D01*
X62309333Y14736239D02*
X62071238Y14021953D01*
X62690285Y14021953D01*
G04 #@! TO.C,R1*
X26825380Y36028334D02*
X26349190Y35695000D01*
X26825380Y35456905D02*
X25825380Y35456905D01*
X25825380Y35837858D01*
X25873000Y35933096D01*
X25920619Y35980715D01*
X26015857Y36028334D01*
X26158714Y36028334D01*
X26253952Y35980715D01*
X26301571Y35933096D01*
X26349190Y35837858D01*
X26349190Y35456905D01*
X26825380Y36980715D02*
X26825380Y36409286D01*
X26825380Y36695000D02*
X25825380Y36695000D01*
X25968238Y36599762D01*
X26063476Y36504524D01*
X26111095Y36409286D01*
G04 #@! TO.C,R4*
X54978380Y25614334D02*
X54502190Y25281000D01*
X54978380Y25042905D02*
X53978380Y25042905D01*
X53978380Y25423858D01*
X54026000Y25519096D01*
X54073619Y25566715D01*
X54168857Y25614334D01*
X54311714Y25614334D01*
X54406952Y25566715D01*
X54454571Y25519096D01*
X54502190Y25423858D01*
X54502190Y25042905D01*
X54311714Y26471477D02*
X54978380Y26471477D01*
X53930761Y26233381D02*
X54645047Y25995286D01*
X54645047Y26614334D01*
G04 #@! TO.C,R5*
X50533380Y36917334D02*
X50057190Y36584000D01*
X50533380Y36345905D02*
X49533380Y36345905D01*
X49533380Y36726858D01*
X49581000Y36822096D01*
X49628619Y36869715D01*
X49723857Y36917334D01*
X49866714Y36917334D01*
X49961952Y36869715D01*
X50009571Y36822096D01*
X50057190Y36726858D01*
X50057190Y36345905D01*
X49533380Y37822096D02*
X49533380Y37345905D01*
X50009571Y37298286D01*
X49961952Y37345905D01*
X49914333Y37441143D01*
X49914333Y37679239D01*
X49961952Y37774477D01*
X50009571Y37822096D01*
X50104809Y37869715D01*
X50342904Y37869715D01*
X50438142Y37822096D01*
X50485761Y37774477D01*
X50533380Y37679239D01*
X50533380Y37441143D01*
X50485761Y37345905D01*
X50438142Y37298286D01*
G04 #@! TO.C,R6*
X33642380Y36282334D02*
X33166190Y35949000D01*
X33642380Y35710905D02*
X32642380Y35710905D01*
X32642380Y36091858D01*
X32690000Y36187096D01*
X32737619Y36234715D01*
X32832857Y36282334D01*
X32975714Y36282334D01*
X33070952Y36234715D01*
X33118571Y36187096D01*
X33166190Y36091858D01*
X33166190Y35710905D01*
X32642380Y37139477D02*
X32642380Y36949000D01*
X32690000Y36853762D01*
X32737619Y36806143D01*
X32880476Y36710905D01*
X33070952Y36663286D01*
X33451904Y36663286D01*
X33547142Y36710905D01*
X33594761Y36758524D01*
X33642380Y36853762D01*
X33642380Y37044239D01*
X33594761Y37139477D01*
X33547142Y37187096D01*
X33451904Y37234715D01*
X33213809Y37234715D01*
X33118571Y37187096D01*
X33070952Y37139477D01*
X33023333Y37044239D01*
X33023333Y36853762D01*
X33070952Y36758524D01*
X33118571Y36710905D01*
X33213809Y36663286D01*
G04 #@! TO.C,U1*
X48514095Y31160620D02*
X48514095Y30351096D01*
X48561714Y30255858D01*
X48609333Y30208239D01*
X48704571Y30160620D01*
X48895047Y30160620D01*
X48990285Y30208239D01*
X49037904Y30255858D01*
X49085523Y30351096D01*
X49085523Y31160620D01*
X50085523Y30160620D02*
X49514095Y30160620D01*
X49799809Y30160620D02*
X49799809Y31160620D01*
X49704571Y31017762D01*
X49609333Y30922524D01*
X49514095Y30874905D01*
G04 #@! TO.C,U2*
X43053095Y31110620D02*
X43053095Y30301096D01*
X43100714Y30205858D01*
X43148333Y30158239D01*
X43243571Y30110620D01*
X43434047Y30110620D01*
X43529285Y30158239D01*
X43576904Y30205858D01*
X43624523Y30301096D01*
X43624523Y31110620D01*
X44053095Y31015381D02*
X44100714Y31063000D01*
X44195952Y31110620D01*
X44434047Y31110620D01*
X44529285Y31063000D01*
X44576904Y31015381D01*
X44624523Y30920143D01*
X44624523Y30824905D01*
X44576904Y30682048D01*
X44005476Y30110620D01*
X44624523Y30110620D01*
G04 #@! TO.C,C1*
X15621333Y4441858D02*
X15573714Y4394239D01*
X15430857Y4346620D01*
X15335619Y4346620D01*
X15192761Y4394239D01*
X15097523Y4489477D01*
X15049904Y4584715D01*
X15002285Y4775191D01*
X15002285Y4918048D01*
X15049904Y5108524D01*
X15097523Y5203762D01*
X15192761Y5299000D01*
X15335619Y5346620D01*
X15430857Y5346620D01*
X15573714Y5299000D01*
X15621333Y5251381D01*
X16573714Y4346620D02*
X16002285Y4346620D01*
X16288000Y4346620D02*
X16288000Y5346620D01*
X16192761Y5203762D01*
X16097523Y5108524D01*
X16002285Y5060905D01*
G04 #@! TO.C,REF\002A\002A*
X-1333334Y3047620D02*
X-1666667Y3523810D01*
X-1904762Y3047620D02*
X-1904762Y4047620D01*
X-1523810Y4047620D01*
X-1428572Y4000000D01*
X-1380953Y3952381D01*
X-1333334Y3857143D01*
X-1333334Y3714286D01*
X-1380953Y3619048D01*
X-1428572Y3571429D01*
X-1523810Y3523810D01*
X-1904762Y3523810D01*
X-904762Y3571429D02*
X-571429Y3571429D01*
X-428572Y3047620D02*
X-904762Y3047620D01*
X-904762Y4047620D01*
X-428572Y4047620D01*
X333333Y3571429D02*
X0Y3571429D01*
X0Y3047620D02*
X0Y4047620D01*
X476190Y4047620D01*
X1000000Y4047620D02*
X1000000Y3809524D01*
X761904Y3904762D02*
X1000000Y3809524D01*
X1238095Y3904762D01*
X857142Y3619048D02*
X1000000Y3809524D01*
X1142857Y3619048D01*
X1761904Y4047620D02*
X1761904Y3809524D01*
X1523809Y3904762D02*
X1761904Y3809524D01*
X2000000Y3904762D01*
X1619047Y3619048D02*
X1761904Y3809524D01*
X1904761Y3619048D01*
G04 #@! TD*
M02*
